<svg width="167" height="140" viewBox="0 0 167 140" fill="none" xmlns="http://www.w3.org/2000/svg">
<path d="M154 73.5C176 199 23 -80.5 147.5 78.5C108.84 78.5 14 114.093 14 73.5C14 32.9071 84 0 84 0C84 0 154 32.9071 154 73.5Z" fill="#429488" fill-opacity="0.19"/>
<path d="M137.121 64.778L151.058 56.0063L154.471 54.3574L155.119 80.9503L149.452 84.3709L137.121 64.778Z" fill="#0E3958"/>
<path d="M117.825 75.2776L122.527 73.1696L128.365 70.8996L138.418 66.8457L147.336 80.9529L147.498 81.2772L142.796 85.331L141.985 87.4389L141.499 89.8712L140.526 91.817L139.553 93.4386L138.904 94.0872L138.225 94.7001L135.986 97.0057L130.635 100.897L120.581 106.572L114.905 109.814L114.226 110.267L113.415 110.429L111.5 110.787L111.145 111.077L110.659 110.915L110.203 110.787L108.744 110.301L107.609 109.814L106.636 108.841L106.149 107.22L106.636 105.761L106.929 104.429L109.068 102.518L114.744 97.8158L117.987 95.0593L119.608 93.4378L120.257 91.6541L121.23 88.4111L122.851 84.1952L124.442 80.5929L124.148 80.9511L121.878 83.3834L119.446 86.3021L117.824 88.5722L114.744 92.3017L111.014 96.6793L108.744 97.4904L106.149 99.1115L105.501 99.76L104.528 100.733L103.879 101.706L103.393 103.327L103.069 105.273L103.069 106.084L100.474 106.084L99.8256 106.084L98.5284 106.084L97.7176 106.084L97.5555 106.084L97.2312 105.597L96.9068 105.111L96.9068 104.626L96.9067 102.03L97.0689 101.544L98.8523 97.4904L101.285 93.5989L105.014 87.5993L108.095 82.7348L112.149 78.3583L117.825 75.2776Z" fill="#F9B895"/>
<path d="M115.686 90.8084L117.825 88.5713L118.96 86.9498L121.392 83.7068L124.635 79.9442V80.6259L119.608 93.598L116.203 96.6789H115.879H111.014L115.686 90.8084Z" fill="#DCA684"/>
<path d="M100.312 106.084C100.312 106.084 98.2487 105.624 97.0689 106.084C96.5933 106.27 95.5 106.5 95.5 106.5L93.8033 107.219L92.4979 108.5L91.7616 109.327L91.2642 110.3L90.5 111.5L90.2588 113.218L90.2588 114.678L90.4206 117.11L90.9074 119.542L93.6639 123.272L97.8799 126.515L102.744 128.461L106.636 128.947L115.392 129.109L120.139 128.951L103.068 106.084L100.312 106.084Z" fill="#E06666"/>
<path d="M110.852 96.5171L108.257 97.6521L105.663 99.4358L104.821 100.213L104.497 100.7L104.173 101.186L103.848 101.673L103.555 102.355L103.231 103.652L103.068 104.949L103.068 106.084L120.139 128.951L120.257 128.947L123.338 119.542L124.473 114.516L124.473 109.651L123.338 104.949L114.581 109.975L113.365 110.3L110.852 110.948L107.123 109.327L106.15 107.219L107.447 104.3L112.798 99.4358L116.041 96.6789L113.365 96.5171L110.852 96.5171Z" fill="#E45555"/>
<path d="M125.445 103.814L138.418 94.571V97.4898L137.445 98.787L134.688 100.409L134.526 103.814L133.877 105.273L130.634 107.057L128.689 107.705L128.202 110.786L126.581 113.218L125.445 114.029L124.473 114.354L124.31 109.327L123.175 104.949L125.445 103.814Z" fill="#C4876A"/>
<path d="M43.4566 36.7012L0 14V44.4845L30.4845 55.3487L31.9439 53.2508L42.103 38.647L43.4566 36.7012Z" fill="#293558"/>
<path d="M50.9156 42.0522C47.5172 40.6158 42.103 38.647 42.103 38.647L31.9439 53.2508C31.9439 53.2508 33.893 54.4333 35.0247 55.3487C35.9654 56.1094 36.6344 56.443 37.2949 57.4566C37.604 57.9312 37.7158 58.2352 37.9435 58.7538C38.629 60.315 38.5746 61.3409 39.0785 62.9698C39.3744 63.9263 39.3449 64.5617 39.8893 65.4021C40.484 66.3201 41.174 66.5262 41.9973 67.2465C42.1881 67.4118 42.2946 67.505 42.4837 67.6722C43.6582 68.7108 44.2121 69.4084 45.4024 70.4288C47.6437 72.3498 49.1119 73.1638 51.5642 74.8068C55.6242 77.5271 62.2662 81.2929 62.2662 81.2929C62.2662 81.2929 64.2919 82.4844 65.6714 83.0766C66.9044 83.6059 67.6047 83.92 68.9144 84.2116C70.4646 84.5568 71.4852 85.1042 72.9682 84.5359C74.142 84.0862 74.8276 83.5468 75.4005 82.428C75.9519 81.3511 75.9822 80.5292 75.7248 79.3471C75.3331 77.5485 74.0541 76.9628 72.6439 75.7798C72.101 75.3243 71.1845 74.7011 71.1845 74.7011C71.1845 74.7011 69.772 73.7159 68.9144 73.0232C67.2073 71.6442 66.4866 70.6054 64.8606 69.1315C63.8632 68.2274 63.1417 67.8842 62.2662 66.8614C60.9582 65.3333 60.6336 64.1669 59.8339 62.3212C58.5267 59.3042 57.5638 54.2136 57.5638 54.2136L56.9152 52.7542C56.9152 52.7542 58.7587 54.472 59.8339 55.673C61.5235 57.5601 62.3673 58.7238 63.7256 60.8618C64.5469 62.1546 64.8003 63.0072 65.6714 64.267C67.1493 66.4044 68.3163 67.3538 70.2116 69.1315C71.4891 70.3298 72.7628 70.5211 73.6168 72.0503C74.1639 73.03 74.4276 74.8068 74.4276 74.8068L74.5897 75.1311C74.5897 75.1311 76.1067 75.7553 77.022 76.2662C78.0188 76.8226 78.7189 77.0145 79.4543 77.8877C79.7484 78.237 79.8044 78.515 80.1029 78.8606C80.2785 79.064 80.5893 79.3471 80.5893 79.3471C80.5893 79.3471 81.3387 81.0052 81.7244 82.1037C82.0097 82.9163 82.1521 83.3791 82.373 84.2116C83.5752 82.9779 84.1641 82.1681 84.9674 80.6443C85.4172 79.7911 85.7618 79.322 85.9403 78.3742C86.0928 77.5652 85.9403 76.2662 85.9403 76.2662C85.9403 76.2662 81.9729 68.0043 78.9678 62.9698C76.9963 59.6668 76.0936 57.6432 73.6168 54.7001C72.3767 53.2265 71.8195 52.1929 70.2116 51.1327C69.6673 50.7738 68.7523 50.322 68.7523 50.322C68.7523 50.322 65.3215 48.4865 63.077 47.4032C59.9617 45.8996 58.1356 45.229 54.9694 43.8359C53.3863 43.1393 52.5087 42.7256 50.9156 42.0522Z" fill="#F9B895"/>
<path d="M64.8606 69.1315C66.4866 70.6054 67.2073 71.6442 68.9144 73.0232C69.772 73.7159 71.1845 74.7011 71.1845 74.7011C71.1845 74.7011 72.4708 74.6515 73.2925 74.7011C73.7369 74.7279 74.4276 74.8068 74.4276 74.8068C74.4276 74.8068 74.1639 73.03 73.6168 72.0503C72.7628 70.5211 71.4891 70.3298 70.2116 69.1315C68.3163 67.3538 67.1493 66.4044 65.6714 64.267C64.8003 63.0072 64.5469 62.1546 63.7256 60.8618C62.3673 58.7238 61.5235 57.5601 59.8339 55.673C58.7587 54.472 56.9152 52.7542 56.9152 52.7542L57.5638 54.2136C57.5638 54.2136 58.5267 59.3042 59.8339 62.3212C60.6336 64.1669 60.9582 65.3333 62.2662 66.8614C63.1417 67.8842 63.8632 68.2274 64.8606 69.1315Z" fill="#DCA684"/>
<path d="M60.4825 87.779C60.4825 87.779 61.0755 85.8024 61.4554 84.5359C61.4554 83.8394 61.2749 83.425 61.4554 82.7523C61.6244 82.1226 62.2662 81.2929 62.2662 81.2929C62.2662 81.2929 55.6242 77.5271 51.5642 74.8068C49.1119 73.1638 47.6437 72.3498 45.4024 70.4288C44.2121 69.4084 43.6582 68.7108 42.4837 67.6722C42.2946 67.505 42.1881 67.4118 41.9973 67.2465C41.9973 68.6159 41.4286 69.5073 41.9973 70.7531C42.1506 71.089 42.257 71.2724 42.4837 71.5638C43.1638 72.4382 43.864 72.6761 44.916 73.0232C45.6476 73.2646 46.8618 73.3475 46.8618 73.3475C46.8618 73.3475 46.4096 73.8035 46.2132 74.1582C45.8098 74.8869 45.8889 75.4333 45.8889 76.2662C45.8889 77.0991 45.9846 77.5733 46.2132 78.3742C46.4004 79.03 46.4542 79.4489 46.8618 79.9957C47.7123 81.1366 48.859 81.0869 50.267 81.2929C51.2068 81.4305 52.6993 81.2929 52.6993 81.2929C52.6993 81.2929 52.6993 82.1824 52.6993 82.7523C52.6993 83.8288 52.6993 85.5089 52.6993 85.5089C52.6993 85.5089 53.468 86.8025 54.1586 87.4547C55.0667 88.3122 56.9152 89.0762 56.9152 89.0762H60.0327C60.0327 89.0762 60.4057 88.8291 60.6447 88.6708C60.5814 88.3225 60.4825 87.779 60.4825 87.779Z" fill="#C4876A"/>
<path d="M82.373 85.9953C82.4411 85.3021 82.373 84.9082 82.373 84.2116C82.1521 83.3791 82.0097 82.9163 81.7244 82.1037C81.3387 81.0052 80.5893 79.3471 80.5893 79.3471C80.5893 79.3471 80.2785 79.064 80.1029 78.8606C79.8044 78.515 79.7484 78.237 79.4543 77.8877C78.7189 77.0145 78.0188 76.8226 77.022 76.2662C76.1067 75.7553 74.5897 75.1311 74.5897 75.1311L74.4276 74.8068C74.4276 74.8068 73.7369 74.7279 73.2925 74.7011C72.4708 74.6515 71.1845 74.7011 71.1845 74.7011C71.1845 74.7011 72.101 75.3243 72.6439 75.7798C74.0541 76.9628 75.3331 77.5485 75.7248 79.3471C75.9822 80.5292 75.9519 81.3511 75.4005 82.428C74.8276 83.5468 74.142 84.0862 72.9682 84.5359C71.4852 85.1042 70.4646 84.5568 68.9144 84.2116C67.6047 83.92 66.9044 83.6059 65.6714 83.0766C64.2919 82.4844 62.2662 81.2929 62.2662 81.2929C62.2662 81.2929 61.6244 82.1226 61.4554 82.7523C61.2749 83.425 61.4554 83.8394 61.4554 84.5359C61.4287 85.8163 61.5406 86.5628 61.9419 87.779C62.5308 89.5639 63.2955 90.421 64.5363 91.8328C65.2637 92.6604 65.7816 93.0187 66.5794 93.7786C66.9092 93.9889 67.1022 94.0961 67.4551 94.265C69.2971 95.1467 70.6095 95.091 72.6439 94.9136C74.3425 94.7656 75.3701 94.6079 76.8598 93.7786C78.1923 93.0368 78.7565 92.316 79.7786 91.1842C80.6274 90.2442 81.2024 89.7436 81.7244 88.5897C82.1549 87.6382 82.2709 87.0347 82.373 85.9953Z" fill="#FBC233"/>
<path d="M60.8068 89.5626C60.8068 89.5626 62.9425 91.6293 64.5363 92.6435C65.3064 93.1336 65.7816 93.3353 66.5794 93.7786C65.7816 93.0187 65.2637 92.6604 64.5363 91.8328C63.2955 90.421 62.5308 89.5639 61.9419 87.779C61.5406 86.5628 61.4287 85.8163 61.4554 84.5359C61.0755 85.8024 60.4825 87.779 60.4825 87.779C60.4825 87.779 60.5814 88.3225 60.6447 88.6708C60.708 89.0191 60.8068 89.5626 60.8068 89.5626Z" fill="#F9B895"/>
</svg>
