<svg width="154" height="150" viewBox="0 0 154 150" fill="none" xmlns="http://www.w3.org/2000/svg">
<path d="M154 78.0248C154 109.505 88.5 102.525 61 149.525C18.7502 149.525 0 61.005 0 29.5248C0 -1.95544 35.2502 0.0247267 77.5 0.0247267C119.75 0.0247267 154 46.5445 154 78.0248Z" fill="#429488" fill-opacity="0.19"/>
<path d="M30.2992 61.6717C30.2992 61.6717 32.2881 60.4241 33.6168 59.7222C36.4227 58.2402 38.6585 57.345 41.1317 56.632C43.605 55.9189 46.3753 55.8361 46.3753 55.8361C46.3753 55.8361 51.06 55.8249 51.7734 55.8964C52.4867 55.9678 57.1074 55.9336 60.1675 57.2174C62.4963 58.1944 63.6189 59.1662 65.5769 60.7614C67.9627 62.7052 69.354 63.8754 71.0098 66.4694C72.2026 68.3381 72.884 69.4681 73.3751 71.63C73.9151 74.0072 73.3504 77.8722 73.3504 77.8722C73.3504 77.8722 73.0726 81.1564 72.232 83.0442C72.232 83.0442 71.2502 84.814 70.5075 85.8737C69.9056 86.7325 69.5259 87.1844 68.8545 87.9899C67.0067 90.2069 65.916 91.4504 63.6459 93.2326C61.2306 95.1288 59.3727 95.4455 56.8799 97.2385C56.8799 97.2385 55.3753 98.25 54.5373 99.0455C53.7111 99.8298 53.1493 100.24 52.6346 101.257C52.1037 102.305 52.1553 103.032 51.9802 104.193C51.855 105.024 51.9767 105.521 51.7659 106.334C51.7659 106.334 51.6936 106.703 51.5874 106.916C51.3225 107.448 50.9643 107.665 50.4102 107.879C49.8805 108.083 49.5254 107.927 48.9596 107.974C48.4853 108.013 48.2227 108.091 47.7468 108.093C47.2335 108.094 46.9497 108.013 46.4389 107.962C45.4638 107.864 44.9172 107.809 43.9421 107.712L38.7106 107.188C38.7106 107.188 38.6845 102.724 38.7235 99.8635C38.7478 98.0849 38.8193 95.3097 38.8193 95.3097C38.8193 95.3097 39.2956 94.0771 39.7352 93.3599C40.5691 91.9989 41.3207 91.4136 42.5535 90.3997C43.4487 89.6634 44.033 89.3579 45.0031 88.7235C48.0587 86.7255 50.5795 86.7294 53.1484 84.1352C53.9043 83.3719 54.284 82.8965 54.9203 82.031C55.6002 81.1062 56.069 80.6139 56.4902 79.5462C56.9367 78.4142 57.0548 77.6954 57.0376 76.4787C57.0246 75.5619 56.9421 75.0354 56.6693 74.1601C56.3189 73.0356 56.0669 72.3495 55.2548 71.4965C54.376 70.5734 53.6476 70.209 52.4133 69.8909C51.6903 69.7046 51.2551 69.7621 50.511 69.7004C48.8342 69.5613 47.8746 69.2875 46.2068 69.5095C45.5777 69.5933 45.2347 69.7 44.6135 69.8303C43.4582 70.0727 42.8016 70.1777 41.6647 70.4957C40.2774 70.8838 39.5671 71.3163 38.1808 71.708C38.1808 71.708 37.5921 71.9504 37.1939 71.9694C36.9142 71.9828 36.7591 71.9259 36.4805 71.898C36.2948 71.8794 36.1843 71.9019 36.0049 71.8504C35.8631 71.8096 35.7901 71.7656 35.6601 71.6957C34.9624 71.321 34.8086 70.7896 34.3762 70.1261C33.9522 69.4754 33.8169 69.0506 33.4729 68.3543C32.8241 67.0413 32.5816 66.2456 31.892 64.9536C31.514 64.2453 31.2062 63.8989 30.8697 63.1699C30.6073 62.6015 30.2992 61.6717 30.2992 61.6717Z" fill="#205D86"/>
<ellipse cx="47.4361" cy="119.59" rx="8.36449" ry="7.28905" transform="rotate(5.7191 47.4361 119.59)" fill="#205D86"/>
<path d="M46.0457 29.6294C46.0457 29.6294 48.521 27.7079 50.1924 26.5991C53.7216 24.2576 56.5719 22.7714 59.7617 21.4954C62.9515 20.2195 66.6198 19.7411 66.6198 19.7411C66.6198 19.7411 72.8398 19.1031 73.7968 19.1031C74.7537 19.1031 80.8858 18.4431 85.1205 19.7411C88.3434 20.7289 89.9635 21.8702 92.776 23.7283C96.2031 25.9925 98.2065 27.3615 100.75 30.5863C102.583 32.9095 103.638 34.3196 104.578 37.1254C105.612 40.2107 105.376 45.4188 105.376 45.4188C105.376 45.4188 105.443 49.8174 104.578 52.4364C104.578 52.4364 103.51 54.9174 102.664 56.4236C101.979 57.6441 101.535 58.2948 100.75 59.4539C98.5913 62.644 97.3082 64.4406 94.5304 67.1094C91.5749 69.9489 89.1496 70.6166 86.0775 73.3294C86.0775 73.3294 84.2137 74.8729 83.2066 76.0408C82.2136 77.1923 81.5222 77.8123 80.9738 79.2305C80.4082 80.6933 80.5734 81.6514 80.4953 83.2178C80.4396 84.3375 80.6672 84.9807 80.4953 86.0886C80.4953 86.0886 80.4485 86.5891 80.3358 86.886C80.0547 87.6273 79.6079 87.9638 78.9004 88.3214C78.2242 88.6633 77.7317 88.5028 76.9866 88.6404C76.362 88.7558 76.0235 88.8944 75.3917 88.9594C74.7101 89.0295 74.3224 88.9594 73.6373 88.9594C72.3293 88.9594 71.596 88.9594 70.288 88.9594H63.2705C63.2705 88.9594 62.6421 83.0341 62.3136 79.2305C62.1092 76.8652 61.8351 73.17 61.8351 73.17C61.8351 73.17 62.3037 71.4697 62.792 70.4586C63.7186 68.5402 64.6389 67.663 66.1413 66.1524C67.2323 65.0555 67.9676 64.5721 69.1716 63.6006C72.964 60.5406 76.3122 60.2105 79.3789 56.4236C80.2813 55.3092 80.7223 54.6275 81.4523 53.3933C82.2322 52.0747 82.7893 51.3586 83.2066 49.8845C83.6491 48.3218 83.7104 47.3514 83.5256 45.7378C83.3865 44.5221 83.2068 43.8337 82.7282 42.7075C82.1133 41.2608 81.6873 40.3831 80.4953 39.3582C79.2054 38.2491 78.1896 37.8621 76.5081 37.6039C75.5231 37.4526 74.9527 37.5869 73.9563 37.6039C71.7109 37.6422 70.4001 37.4062 68.2147 37.9228C67.3902 38.1177 66.9489 38.3051 66.1413 38.5608C64.6391 39.0364 63.7811 39.2631 62.3136 39.8367C60.5227 40.5367 59.6369 41.2054 57.8479 41.9101C57.8479 41.9101 57.0983 42.3102 56.5719 42.3885C56.2023 42.4435 55.9887 42.3885 55.615 42.3885C55.3659 42.3885 55.2222 42.4331 54.9771 42.3885C54.7833 42.3533 54.6805 42.3045 54.4986 42.229C53.5222 41.8242 53.2471 41.1388 52.5847 40.3152C51.9351 39.5074 51.6988 38.9613 51.1493 38.0823C50.1131 36.4248 49.6851 35.4004 48.5975 33.7761C48.0012 32.8857 47.5464 32.4666 47.0026 31.5433C46.5785 30.8232 46.0457 29.6294 46.0457 29.6294Z" fill="#003C34"/>
<ellipse cx="76.5082" cy="104.27" rx="11.1642" ry="9.72884" fill="#003C34"/>
<path d="M92.1962 20.9724C92.1962 20.9724 94.185 19.7247 95.5138 19.0229C98.3196 17.5409 100.555 16.6456 103.029 15.9326C105.502 15.2196 108.272 15.1368 108.272 15.1368C108.272 15.1368 112.957 15.1256 113.67 15.197C114.384 15.2685 119.004 15.2342 122.064 16.5181C124.393 17.4951 125.516 18.4669 127.474 20.0621C129.86 22.0059 131.251 23.176 132.907 25.7701C134.1 27.6388 134.781 28.7688 135.272 30.9307C135.812 33.3079 135.247 37.1729 135.247 37.1729C135.247 37.1729 134.97 40.4571 134.129 42.3448C134.129 42.3448 133.147 44.1147 132.404 45.1744C131.803 46.0331 131.423 46.485 130.751 47.2906C128.904 49.5075 127.813 50.7511 125.543 52.5333C123.128 54.4294 121.27 54.7461 118.777 56.5392C118.777 56.5392 117.272 57.5507 116.434 58.3461C115.608 59.1304 115.046 59.541 114.532 60.5574C114.001 61.6056 114.052 62.3322 113.877 63.4941C113.752 64.3247 113.874 64.8212 113.663 65.6343C113.663 65.6343 113.591 66.0039 113.484 66.2168C113.219 66.7484 112.861 66.966 112.307 67.1797C111.778 67.3841 111.422 67.2277 110.857 67.2746C110.382 67.314 110.12 67.3921 109.644 67.3934C109.13 67.3947 108.847 67.3135 108.336 67.2624C107.361 67.1647 106.814 67.11 105.839 67.0123L100.608 66.4884C100.608 66.4884 100.581 62.0242 100.621 59.1642C100.645 57.3856 100.716 54.6103 100.716 54.6103C100.716 54.6103 101.193 53.3778 101.632 52.6605C102.466 51.2995 103.218 50.7143 104.45 49.7003C105.346 48.964 105.93 48.6586 106.9 48.0242C109.956 46.0262 112.476 46.0301 115.045 43.4359C115.801 42.6725 116.181 42.1972 116.817 41.3316C117.497 40.4068 117.966 39.9146 118.387 38.8469C118.834 37.7149 118.952 36.9961 118.935 35.7793C118.922 34.8626 118.839 34.336 118.566 33.4607C118.216 32.3363 117.964 31.6502 117.152 30.7972C116.273 29.874 115.545 29.5097 114.31 29.1916C113.587 29.0053 113.152 29.0628 112.408 29.0011C110.731 28.862 109.772 28.5882 108.104 28.8102C107.475 28.894 107.132 29.0007 106.511 29.131C105.355 29.3734 104.699 29.4783 103.562 29.7964C102.174 30.1845 101.464 30.6169 100.078 31.0087C100.078 31.0087 99.4891 31.251 99.0908 31.2701C98.8112 31.2835 98.6561 31.2265 98.3775 31.1986C98.1917 31.18 98.0813 31.2025 97.9019 31.151C97.76 31.1103 97.6871 31.0662 97.5571 30.9964C96.8594 30.6217 96.7055 30.0902 96.2732 29.4267C95.8492 28.776 95.7139 28.3513 95.3698 27.655C94.7211 26.342 94.4785 25.5463 93.789 24.2542C93.411 23.5459 93.1031 23.1995 92.7667 22.4706C92.5043 21.9021 92.1962 20.9724 92.1962 20.9724Z" fill="#205D86"/>
<ellipse cx="109.333" cy="78.8909" rx="8.36449" ry="7.28905" transform="rotate(5.7191 109.333 78.8909)" fill="#205D86"/>
</svg>
