<svg width="210" height="157" viewBox="0 0 210 157" fill="none" xmlns="http://www.w3.org/2000/svg">
<path d="M138.505 0.692678C176.932 -6.23654 222.668 40.2768 205.189 75.1927C194.058 97.4275 148.505 104.193 148.505 104.193C148.505 104.193 137.743 136.568 121.005 147.693C91.1052 167.565 57.6898 151.254 31.5048 126.693C11.621 108.042 -6.85715 88.7968 2.50483 63.1927C14.3901 30.6875 60.3561 69.6898 90.5048 52.6927C114.579 39.1203 111.307 5.59703 138.505 0.692678Z" fill="#429488" fill-opacity="0.19"/>
<path d="M3 61.3903L45.4229 50.9298V93.9339L3 82.747V61.3903Z" fill="#1483C0"/>
<path d="M45.423 55.9444H54.4306L58.3533 56.9614L64.7458 55.0727L84.795 47.2274L87.5554 46.6462L90.6064 46.9368L92.2045 47.6632L76.8044 59.1407L76.2232 60.8841V62.1916V64.8067L76.078 69.3105L74.9157 73.2332L75.061 74.9766V76.1389L75.2063 77.0106L76.2232 78.3182L77.5308 79.4804L81.744 80.2068L83.4874 79.6257L85.0856 77.3012L86.829 73.6691L88.5724 69.4558L89.8799 66.4049L89.7347 65.5332H90.6064L92.4951 64.5162L92.9309 64.0803L93.6573 63.935L95.9819 63.3539L102.084 66.4049L111.963 71.7804L116.757 74.9766L121.552 77.3012L125.039 79.4804L128.38 81.3691L131.286 85.2918L132.303 87.6163L131.286 89.7956L129.978 91.2484L128.38 91.539H125.184L121.552 89.505L115.159 86.0182L110.51 83.6937L107.023 81.9503L105.571 80.9333L104.844 79.9163L102.374 75.4125L102.665 78.1729L103.101 79.9163L103.682 80.9333L108.912 84.8559L111.673 87.0352L116.467 90.3767L120.535 92.556L121.407 93.4277L121.697 94.2994L121.842 95.1711V96.7692L121.552 98.5126L121.116 99.9655L120.244 100.692L118.791 101.709H116.467H114.142L112.399 100.692L107.023 96.7692L96.8536 89.7956L105.716 96.7692L112.254 101.564L112.835 100.946L113.707 101.455V102.726L113.416 104.469L112.98 105.05L111.673 106.358L110.51 107.23L109.057 107.375L106.442 107.084L94.8196 98.9485L106.152 107.811V108.828L105.716 109.845L104.844 111.152L103.537 111.588H102.229H99.4687L97.2894 110.862L94.0932 108.247L94.8196 101.709L93.8026 96.549L92.7856 95.6773L91.7686 95.0258H89.7347L89.8799 92.6264L88.5724 90.5924L84.9403 89.7956L82.9063 90.5924L81.3082 92.4811L81.744 87.832L81.3082 86.5244L79.4195 84.781L76.2232 84.1999L74.044 84.6357L72.4459 85.6527L67.2156 89.7956L64.6005 93.6434L64.0194 93.4981V91.8999L63.0024 90.5924L60.242 88.2678L56.3193 86.5244L54.2854 86.9603L53.7042 87.1056L51.525 86.5244H48.1834L45.423 86.5244V55.9444Z" fill="#C4876A"/>
<path d="M102.374 75.1922L103.682 77.662L123.586 90.7376L120.535 92.6263L115.886 90.0112L111.527 86.9602L106.587 83.4734L103.391 80.8583L102.665 79.1149L102.374 75.1922Z" fill="#AE7B62"/>
<path d="M96.563 89.5753L106.733 96.549L110.22 99.0188L111.818 100.181L112.835 100.907L112.254 101.634L108.186 99.1641L102.084 93.9338L99.3234 91.8999L98.0159 90.8829L97.1442 90.3017L96.563 89.5753Z" fill="#AE7B62"/>
<path d="M94.6741 98.8735L103.536 104.83L106.297 107.009L105.861 107.591L104.408 106.428L102.519 104.975L98.4515 102.07L94.6741 98.8735Z" fill="#AE7B62"/>
<path d="M132.187 43.2976L175.307 33.4957L180.537 58.194L180.537 57.177L147.89 85.4594L132.187 43.2976Z" fill="#F97E7F"/>
<path d="M76.9497 58.6298C76.9497 58.6298 82.4172 54.4384 85.9573 51.8015C88.7239 49.7407 93.0762 46.5712 93.0762 46.5712H96.8536L100.05 47.2976L102.52 48.4599H108.04L115.305 49.0411L118.501 50.058H124.893L133.756 47.2976L140.584 65.3129L144.361 75.7733V76.4997L138.26 78.3884L132.158 83.3281L130.705 84.6356L128.816 82.0205L113.852 73.3035L96.563 63.7147L93.3668 64.0053L90.3158 66.0393L88.7177 69.5261L86.6837 74.3205L85.6667 76.4997L83.9233 78.9696L83.3422 79.8413L81.5988 80.4224L79.2742 79.8413L77.095 79.4054L75.2063 77.0809L74.6251 73.3035L75.4968 70.2525L75.7874 67.928L76.078 60.6638L76.9497 58.6298Z" fill="#E0C2C2"/>
<path d="M53.5588 86.8149L56.1739 86.0884L59.9513 87.8318L63.4381 90.7375L64.1646 92.0451V94.2243L61.4042 96.9847L59.0796 98.2923L56.7551 98.4376L54.4305 97.5659L53.2682 96.5489L52.8324 95.096V92.1904L53.5588 86.8149Z" fill="#E0C2C2"/>
<path d="M63.7288 94.8055C64.7947 92.7701 65.3967 91.5816 66.925 89.8659C68.6992 87.8742 70.1132 87.179 72.3005 85.6526C73.1393 85.0673 73.5056 84.5115 74.4798 84.1998C75.5605 83.854 76.2557 84.0935 77.3855 84.1998C78.3606 84.2915 78.9821 84.192 79.8553 84.6356C80.7852 85.1082 81.2157 85.6249 81.744 86.5243C82.8071 88.3345 81.744 91.8998 81.744 91.8998C81.744 91.8998 82.6227 90.2188 83.6327 89.7206C84.5037 89.2909 85.1437 89.2758 86.1025 89.43C86.9557 89.5672 87.3964 89.8555 88.1365 90.3017C88.5544 90.5538 88.8067 90.6847 89.1535 91.0281C89.5895 91.46 89.8857 91.7381 90.0252 92.3357C90.1154 92.7225 90.057 92.9568 90.0252 93.3527C89.9788 93.9294 89.7346 94.8055 89.7346 94.8055C89.7346 94.8055 90.9053 94.6366 91.6233 94.8055C92.5138 95.0151 93.0556 95.2786 93.6573 95.9678C94.3652 96.7788 94.2772 97.5363 94.529 98.5829C94.9291 100.246 94.9991 101.231 94.9648 102.941C94.9233 105.012 94.0931 108.172 94.0931 108.172L96.563 110.351L93.6573 113.983L91.0422 115C91.0422 115 88.0907 115.363 86.3931 114.709C85.5393 114.381 85.0292 114.17 84.3591 113.547C83.7938 113.022 83.5195 112.65 83.1968 111.949C82.9263 111.361 82.761 110.351 82.761 110.351L81.0176 110.932C81.0176 110.932 78.5047 111.531 77.0949 110.932C76.6739 110.753 76.4862 110.557 76.0779 110.351C75.2125 109.914 74.4242 110.179 73.7534 109.479C73.02 108.714 73.1444 107.918 73.0269 106.864C72.9452 106.131 73.0269 104.975 73.0269 104.975C73.0269 104.975 71.4319 106.029 70.2666 106.283C68.6505 106.636 66.7909 106.414 66.0533 105.847C65.3157 105.28 64.9022 104.962 64.1646 104.394L62.5665 102.941L61.6948 101.489V99.3093C61.6948 99.3093 62.2137 98.0643 62.5665 97.2754C63.0017 96.3022 63.2342 95.7499 63.7288 94.8055Z" fill="#E0C2C2"/>
</svg>
