<svg width="152" height="142" viewBox="0 0 152 142" fill="none" xmlns="http://www.w3.org/2000/svg">
<path d="M76.5376 0.0256177C93.7881 -0.125845 96.9733 17.6913 111.382 27.1785C126.013 36.8129 145.717 31.9506 150.72 48.7399C155.435 64.5617 132.916 87.0827 132.916 87.0827C132.916 87.0827 148.042 116.838 138.538 131.526C125.289 151.998 97.3537 136.807 76.5376 124.106C63.787 116.325 62.922 104.082 50.0375 96.5256C39.4818 90.3349 29.8583 94.5441 20.159 87.0827C7.0735 77.0166 -5.3073 63.3633 2.35517 48.7399C9.65089 34.8165 27.71 47.0015 41.5375 39.5256C59.6676 29.7236 55.9283 0.206572 76.5376 0.0256177Z" fill="#429488" fill-opacity="0.19"/>
<path d="M116.561 100.008L100.435 99.2248L90.1021 97.5026L84.6224 98.7551L71.7843 107.209L58.0069 107.836L46.7344 109.088L42.8204 111.75V114.411L43.4466 115.507L46.4213 117.073L50.0222 117.856L56.4413 117.543L65.835 116.133H72.4106L80.3952 117.856L84.6224 119.891L79.1427 118.169L72.4106 117.073L65.0522 117.543L59.1028 118.169L52.8403 118.952L61.4512 126.623L68.8097 133.199H74.6024L81.4912 132.416L86.9708 131.163L97.7736 128.032L107.637 125.997H112.49L121.101 129.754L133 111.906L128.303 107.523L123.606 103.139L116.561 100.008Z" fill="#C4876A"/>
<path d="M50.6484 108.149L48.9262 106.583L44.3859 104.548L40.0022 101.26L36.871 99.2247L35.3054 98.755H31.2347L28.8863 99.8509L27.9469 100.477L28.2601 101.26L35.3054 107.366L42.8203 112.532L45.0122 110.027L50.6484 108.149Z" fill="#C4876A"/>
<path d="M45.1687 101.886L38.5931 96.7197L33.8963 95.3107L32.4872 95.4672L31.2347 95.9369L30.6085 96.5632V97.5025L31.2347 98.1288L32.0175 98.5985L35.3053 98.1288L41.2547 101.573L44.699 104.235L47.204 105.174L49.0827 106.583L50.1787 107.522L51.2746 108.149H53.7796L52.214 106.27L49.709 104.548L45.1687 101.886Z" fill="#C4876A"/>
<path d="M42.0373 95.3107H38.1232L43.2898 99.0682L45.1685 100.79L48.4563 102.982L51.431 104.704L53.3097 106.27L54.4057 107.209L55.0319 108.149H57.0672H59.5722L58.7894 107.209L47.6735 98.1288L45.9513 96.7197L43.916 95.6238L42.0373 95.3107Z" fill="#C4876A"/>
<path d="M64.5826 116.29L62.0776 116.603L60.9816 116.759L59.5726 116.916L58.6332 117.229L55.8151 117.542H52.0576L50.8051 117.855L53.1535 119.108L84.779 119.734L81.3347 118.012L77.8903 117.229L72.4106 116.133H68.0269L66.3047 115.82L64.5826 116.29Z" fill="#A67158"/>
<path d="M37.3404 99.2248L35.6182 97.9723H33.8961L31.078 98.7551H34.5223L37.6536 100.008L40.4717 102.043L44.0726 104.548L46.2645 105.8L48.6129 106.74L50.4916 108.305H51.2744L50.1785 107.209L46.7341 104.861L41.5676 101.73L37.3404 99.2248Z" fill="#A67158"/>
<path d="M47.3604 108.931L45.325 109.505L43.4463 111.077L42.507 112.532L44.2291 111.123L47.0849 109.505L50.9337 108.775L55.6578 108.462L58.476 108.148L60.1984 107.642L54.0925 107.642L51.431 107.992L50.4916 107.992L47.3604 108.931Z" fill="#A67158"/>
<path d="M42.1939 98.1288L40.6283 97.0328L38.1233 95.3107H37.1839L34.3658 95.4672L38.593 96.7197L42.3505 99.6944L43.603 100.79L45.1686 101.886L46.8908 102.982L48.9261 104.078L51.1179 105.487L52.3704 106.583L53.6229 107.992H54.8754L54.5623 107.209L53.7795 106.583L51.7442 104.861L51.1179 104.391L48.4564 102.826L45.9514 101.26L43.4464 99.0682L42.1939 98.1288Z" fill="#A67158"/>
<path d="M33.3636 43.0431L49.4944 42.3692L59.9406 43.153L65.2851 41.4117L77.3089 31.8346L90.9738 29.969L102.087 27.7056L105.746 24.702L105.506 22.0513L104.783 21.0163L101.68 19.7252L98.0228 19.2701L91.6581 20.1606L82.4296 22.4106L75.8808 23.0033L67.7734 22.0079L63.38 20.3619L68.9926 21.5831L75.7961 22.0678L83.0822 20.9367L88.9509 19.7768L95.1174 18.4327L85.85 11.5685L77.9289 5.68297L72.1597 6.20511L65.3695 7.60565L60.0251 9.34697L49.5485 13.4392L39.9087 16.3553L35.0751 16.7927L26.1605 13.8267L15.919 32.6746L20.9919 36.6171L26.0648 40.5597L33.3636 43.0431Z" fill="#F9B895"/>
<path d="M98.274 28.994L100.13 30.398L104.836 32.0158L109.498 34.8951L112.8 36.6399L114.401 36.9665L118.455 36.5996L120.695 35.2965L121.575 34.5881L121.192 33.8367L113.625 28.3907L105.675 23.9225L103.718 26.6149L98.274 28.994Z" fill="#F9B895"/>
<path d="M104.296 34.7373L111.311 39.2901L116.115 40.27L117.505 39.9871L118.71 39.4064L119.277 38.7263L119.192 37.7907L118.512 37.2235L117.69 36.8263L114.458 37.5904L108.222 34.6963L104.552 32.3561L101.973 31.6463L99.9746 30.4123L98.7984 29.5756L97.6505 29.0507L95.1557 29.2764L96.8843 31.0064L99.5343 32.4958L104.296 34.7373Z" fill="#F9B895"/>
<path d="M108.007 41.0037L111.905 40.6509L106.421 37.3744L104.395 35.8286L100.923 33.942L97.8047 32.4949L95.7925 31.105L94.6164 30.2683L93.908 29.3892L91.881 29.5726L89.3862 29.7984L90.2505 30.6634L102.14 38.7051L103.982 39.9532L106.108 40.8612L108.007 41.0037Z" fill="#F9B895"/>
<path d="M83.6631 22.142L86.1297 21.6044L87.207 21.3497L88.5962 21.0667L89.5036 20.6702L92.282 20.1044L96.0242 19.7657L97.2433 19.3409L94.7916 18.3052L63.2384 20.5321L66.824 21.9368L70.3249 22.406L75.881 23.0035L80.2469 22.6084L81.9903 22.765L83.6631 22.142Z" fill="#D9A081"/>
<path d="M112.332 36.6824L114.16 37.7745L115.875 37.6193L118.611 36.5857L115.181 36.8961L111.949 35.931L108.959 34.158L105.147 31.9878L102.851 30.9379L100.428 30.2141L98.4157 28.8242L97.6361 28.8947L98.8263 29.8874L102.468 31.9158L107.896 34.5686L112.332 36.6824Z" fill="#D9A081"/>
<path d="M101.478 27.9184L103.453 27.1633L105.183 25.4284L105.987 23.8944L104.399 25.4532L101.701 27.3219L97.9335 28.3963L93.2568 29.134L90.4783 29.6998L88.8086 30.3596L94.8896 29.8093L97.5088 29.2209L98.4444 29.1362L101.478 27.9184Z" fill="#D9A081"/>
<path d="M107.597 38.2113L109.255 39.1617L111.905 40.651L112.841 40.5664L115.633 40.1564L111.311 39.29L107.3 36.6662L105.954 35.6876L104.296 34.7372L102.482 33.801L100.356 32.893L98.0463 31.6872L96.7002 30.7087L95.3258 29.4182L94.0784 29.5311L94.4608 30.2825L95.2968 30.8357L97.4791 32.3674L98.1451 32.7787L100.937 34.098L103.573 35.4315L106.265 37.3887L107.597 38.2113Z" fill="#D9A081"/>
<path fill-rule="evenodd" clip-rule="evenodd" d="M69.9055 54.9179L71.7842 56.327V98.5987C71.7842 98.5987 70.8211 97.8462 70.2186 97.3462C68.2213 95.6888 67.28 94.558 65.3652 92.8059C63.6083 91.1983 60.8249 88.7353 60.8249 88.7353C60.8249 88.7353 57.8345 85.8091 55.9715 83.8819C54.1675 82.0158 51.4312 79.0285 51.4312 79.0285C51.4312 79.0285 48.9277 76.0629 47.8303 73.8619C47.1564 72.5105 46.4212 70.261 46.4212 70.261L45.9515 67.1298C45.9515 67.1298 45.9125 65.793 45.9515 64.9379C46.0189 63.4606 46.4212 61.1804 46.4212 61.1804C46.4212 61.1804 46.947 59.823 47.3606 58.9886C47.8961 57.9081 48.9262 56.327 48.9262 56.327L51.9009 53.6655C51.9009 53.6655 53.8243 52.4326 55.1887 51.9433C56.7124 51.3967 57.6458 51.2919 59.2593 51.1605C61.3348 50.9914 62.5895 50.8695 64.5824 51.4736C66.0216 51.9098 68.0267 53.1958 68.0267 53.1958L69.9055 54.9179Z" fill="#B45B5B"/>
<path d="M89.006 51.9433C89.9724 52.3261 90.4588 52.6683 91.3544 53.1958C92.7573 54.0219 93.8099 54.2509 94.7988 55.5442C95.5303 56.5009 95.5902 57.2497 96.0513 58.3623C96.5773 59.6316 97.0971 60.2918 97.3038 61.6501C97.451 62.6172 97.3038 63.1768 97.3038 64.1551C97.3038 65.4391 97.3038 67.4429 97.3038 67.4429L96.6775 70.1044L95.5816 73.2357L94.7988 75.1144C94.7988 75.1144 91.2638 79.9483 88.6929 82.786C85.3237 86.5047 82.9483 88.1088 79.2992 91.5534C78.1355 92.6519 76.3245 94.3715 76.3245 94.3715C76.3245 94.3715 74.2784 96.1394 73.0367 97.3462C72.5407 97.8283 71.7842 98.5987 71.7842 98.5987V56.327C71.7842 56.327 73.2698 54.5474 74.4458 53.6655C76.4625 52.1529 77.9149 51.6114 80.3951 51.1605C82.4404 50.7886 83.6607 50.864 85.7182 51.1605C87.0246 51.3487 87.7789 51.4572 89.006 51.9433Z" fill="#C46C6C"/>
</svg>
