<svg width="120" height="121" viewBox="0 0 120 121" fill="none" xmlns="http://www.w3.org/2000/svg">
<rect y="0.21875" width="56" height="56" rx="12" fill="#008098"/>
<rect x="22.4004" y="10.1743" width="11.2" height="36.0889" rx="5.6" fill="#FFFCFC"/>
<rect x="46.0439" y="22.6191" width="11.2" height="36.0889" rx="5.6" transform="rotate(90 46.0439 22.6191)" fill="#FFFCFC"/>
<rect x="64" y="0.21875" width="56" height="56" rx="12" fill="#FFD05B"/>
<rect x="110.044" y="22.6187" width="11.2" height="36.0889" rx="5.6" transform="rotate(90 110.044 22.6187)" fill="#FFFCFC"/>
<rect y="64.2188" width="56" height="56" rx="12" fill="#07473F"/>
<rect x="40.083" y="71.9966" width="11.2" height="46.0121" rx="5.6" transform="rotate(45.1426 40.083 71.9966)" fill="#FFFCFC"/>
<rect x="48.3096" y="104.605" width="11.2" height="46.0121" rx="5.6" transform="rotate(135 48.3096 104.605)" fill="#FFFCFC"/>
<rect x="64" y="64.2188" width="56" height="56" rx="12" fill="#F83900"/>
<rect x="110.044" y="76.041" width="11.2" height="36.0889" rx="5.6" transform="rotate(90 110.044 76.041)" fill="#FFFCFC"/>
<rect x="110.044" y="97.1963" width="11.2" height="36.0889" rx="5.6" transform="rotate(90 110.044 97.1963)" fill="#FFFCFC"/>
</svg>
