<svg width="135" height="40" viewBox="0 0 135 40" fill="none" xmlns="http://www.w3.org/2000/svg">
<rect x="0.5" y="0.499634" width="134" height="39" rx="6.5" fill="#0C0D10" stroke="#A6A6A6"/>
<path d="M68.136 21.7508C65.784 21.7508 63.867 23.5398 63.867 26.0038C63.867 28.4528 65.784 30.2568 68.136 30.2568C70.489 30.2568 72.406 28.4528 72.406 26.0038C72.405 23.5398 70.488 21.7508 68.136 21.7508ZM68.136 28.5828C66.847 28.5828 65.736 27.5198 65.736 26.0048C65.736 24.4738 66.848 23.4268 68.136 23.4268C69.425 23.4268 70.536 24.4738 70.536 26.0048C70.536 27.5188 69.425 28.5828 68.136 28.5828ZM58.822 21.7508C56.47 21.7508 54.553 23.5398 54.553 26.0038C54.553 28.4528 56.47 30.2568 58.822 30.2568C61.175 30.2568 63.092 28.4528 63.092 26.0038C63.092 23.5398 61.175 21.7508 58.822 21.7508ZM58.822 28.5828C57.533 28.5828 56.422 27.5198 56.422 26.0048C56.422 24.4738 57.534 23.4268 58.822 23.4268C60.111 23.4268 61.222 24.4738 61.222 26.0048C61.223 27.5188 60.111 28.5828 58.822 28.5828ZM47.744 23.0568V24.8608H52.062C51.933 25.8758 51.595 26.6168 51.079 27.1318C50.451 27.7598 49.468 28.4528 47.744 28.4528C45.086 28.4528 43.008 26.3098 43.008 23.6518C43.008 20.9938 45.086 18.8508 47.744 18.8508C49.178 18.8508 50.225 19.4148 50.998 20.1398L52.271 18.8668C51.191 17.8358 49.758 17.0468 47.744 17.0468C44.103 17.0468 41.042 20.0108 41.042 23.6518C41.042 27.2928 44.103 30.2568 47.744 30.2568C49.709 30.2568 51.192 29.6118 52.351 28.4038C53.543 27.2118 53.914 25.5358 53.914 24.1828C53.914 23.7648 53.882 23.3778 53.817 23.0558H47.744V23.0568ZM93.052 24.4578C92.698 23.5078 91.618 21.7508 89.411 21.7508C87.22 21.7508 85.399 23.4748 85.399 26.0038C85.399 28.3878 87.204 30.2568 89.62 30.2568C91.569 30.2568 92.697 29.0648 93.165 28.3718L91.715 27.4048C91.232 28.1138 90.571 28.5808 89.62 28.5808C88.67 28.5808 87.993 28.1458 87.558 27.2918L93.245 24.9398L93.052 24.4578ZM87.252 25.8758C87.204 24.2318 88.525 23.3948 89.476 23.3948C90.217 23.3948 90.845 23.7658 91.055 24.2968L87.252 25.8758ZM82.629 29.9998H84.497V17.4988H82.629V29.9998ZM79.567 22.7018H79.503C79.084 22.2018 78.278 21.7508 77.264 21.7508C75.137 21.7508 73.188 23.6198 73.188 26.0208C73.188 28.4048 75.137 30.2578 77.264 30.2578C78.279 30.2578 79.084 29.8068 79.503 29.2918H79.567V29.9038C79.567 31.5308 78.697 32.4008 77.296 32.4008C76.152 32.4008 75.443 31.5798 75.153 30.8868L73.526 31.5638C73.993 32.6908 75.233 34.0768 77.296 34.0768C79.487 34.0768 81.34 32.7878 81.34 29.6458V22.0098H79.568V22.7018H79.567ZM77.425 28.5828C76.136 28.5828 75.057 27.5028 75.057 26.0208C75.057 24.5218 76.136 23.4268 77.425 23.4268C78.697 23.4268 79.696 24.5218 79.696 26.0208C79.696 27.5028 78.697 28.5828 77.425 28.5828ZM101.806 17.4988H97.335V29.9998H99.2V25.2638H101.805C103.873 25.2638 105.907 23.7668 105.907 21.3818C105.907 18.9968 103.874 17.4988 101.806 17.4988ZM101.854 23.5238H99.2V19.2388H101.854C103.249 19.2388 104.041 20.3938 104.041 21.3818C104.041 22.3498 103.249 23.5238 101.854 23.5238ZM113.386 21.7288C112.035 21.7288 110.636 22.3238 110.057 23.6428L111.713 24.3338C112.067 23.6428 112.727 23.4168 113.418 23.4168C114.383 23.4168 115.364 23.9958 115.38 25.0248V25.1538C115.042 24.9608 114.318 24.6718 113.434 24.6718C111.649 24.6718 109.831 25.6528 109.831 27.4858C109.831 29.1588 111.295 30.2358 112.935 30.2358C114.189 30.2358 114.881 29.6728 115.315 29.0128H115.379V29.9778H117.181V25.1848C117.182 22.9668 115.524 21.7288 113.386 21.7288ZM113.16 28.5798C112.55 28.5798 111.697 28.2738 111.697 27.5178C111.697 26.5528 112.759 26.1828 113.676 26.1828C114.495 26.1828 114.882 26.3598 115.38 26.6008C115.235 27.7598 114.238 28.5798 113.16 28.5798ZM123.743 22.0018L121.604 27.4218H121.54L119.32 22.0018H117.31L120.639 29.5768L118.741 33.7908H120.687L125.818 22.0018H123.743ZM106.937 29.9998H108.802V17.4988H106.937V29.9998Z" fill="white"/>
<path d="M47.418 10.2426C47.418 11.0806 47.17 11.7476 46.673 12.2456C46.109 12.8376 45.3731 13.1336 44.4691 13.1336C43.6031 13.1336 42.8661 12.8336 42.2611 12.2336C41.6551 11.6326 41.3521 10.8886 41.3521 10.0006C41.3521 9.11158 41.6551 8.36758 42.2611 7.76758C42.8661 7.16658 43.6031 6.86658 44.4691 6.86658C44.8991 6.86658 45.3101 6.95058 45.7001 7.11758C46.0911 7.28558 46.4041 7.50858 46.6381 7.78758L46.111 8.31558C45.714 7.84058 45.167 7.60358 44.468 7.60358C43.836 7.60358 43.29 7.82558 42.829 8.26958C42.368 8.71358 42.1381 9.29058 42.1381 9.99958C42.1381 10.7086 42.368 11.2856 42.829 11.7296C43.29 12.1736 43.836 12.3956 44.468 12.3956C45.138 12.3956 45.6971 12.1726 46.1441 11.7256C46.4341 11.4346 46.602 11.0296 46.647 10.5106H44.468V9.78958H47.375C47.405 9.94658 47.418 10.0976 47.418 10.2426Z" fill="white"/>
<path d="M52.0281 7.73663H49.2961V9.63863H51.7601V10.3596H49.2961V12.2616H52.0281V12.9996H48.5251V6.99963H52.0281V7.73663Z" fill="white"/>
<path d="M55.279 12.9996H54.508V7.73663H52.832V6.99963H56.955V7.73663H55.279V12.9996Z" fill="white"/>
<path d="M59.938 12.9996V6.99963H60.709V12.9996H59.938Z" fill="white"/>
<path d="M64.1281 12.9996H63.3572V7.73663H61.6812V6.99963H65.8042V7.73663H64.1281V12.9996Z" fill="white"/>
<path d="M73.6089 12.2246C73.0189 12.8306 72.2859 13.1336 71.4089 13.1336C70.5319 13.1336 69.7989 12.8306 69.2099 12.2246C68.6199 11.6186 68.3259 10.8766 68.3259 9.99962C68.3259 9.12262 68.6199 8.38062 69.2099 7.77462C69.7989 7.16862 70.5319 6.86462 71.4089 6.86462C72.2809 6.86462 73.0129 7.16962 73.6049 7.77862C74.1969 8.38762 74.4929 9.12762 74.4929 9.99962C74.4929 10.8766 74.1979 11.6186 73.6089 12.2246ZM69.7789 11.7216C70.2229 12.1716 70.7659 12.3956 71.4089 12.3956C72.0519 12.3956 72.5959 12.1706 73.0389 11.7216C73.4829 11.2716 73.7059 10.6976 73.7059 9.99962C73.7059 9.30162 73.4829 8.72762 73.0389 8.27762C72.5959 7.82762 72.0519 7.60362 71.4089 7.60362C70.7659 7.60362 70.2229 7.82862 69.7789 8.27762C69.3359 8.72762 69.1129 9.30162 69.1129 9.99962C69.1129 10.6976 69.3359 11.2716 69.7789 11.7216Z" fill="white"/>
<path d="M75.5749 12.9996V6.99963H76.513L79.429 11.6666H79.4619L79.429 10.5106V6.99963H80.1999V12.9996H79.3949L76.344 8.10563H76.3109L76.344 9.26163V12.9996H75.5749Z" fill="white"/>
<path d="M47.418 10.2426C47.418 11.0806 47.17 11.7476 46.673 12.2456C46.109 12.8376 45.3731 13.1336 44.4691 13.1336C43.6031 13.1336 42.8661 12.8336 42.2611 12.2336C41.6551 11.6326 41.3521 10.8886 41.3521 10.0006C41.3521 9.11158 41.6551 8.36758 42.2611 7.76758C42.8661 7.16658 43.6031 6.86658 44.4691 6.86658C44.8991 6.86658 45.3101 6.95058 45.7001 7.11758C46.0911 7.28558 46.4041 7.50858 46.6381 7.78758L46.111 8.31558C45.714 7.84058 45.167 7.60358 44.468 7.60358C43.836 7.60358 43.29 7.82558 42.829 8.26958C42.368 8.71358 42.1381 9.29058 42.1381 9.99958C42.1381 10.7086 42.368 11.2856 42.829 11.7296C43.29 12.1736 43.836 12.3956 44.468 12.3956C45.138 12.3956 45.6971 12.1726 46.1441 11.7256C46.4341 11.4346 46.602 11.0296 46.647 10.5106H44.468V9.78958H47.375C47.405 9.94658 47.418 10.0976 47.418 10.2426Z" stroke="white" stroke-width="0.2" stroke-miterlimit="10"/>
<path d="M52.0281 7.73663H49.2961V9.63863H51.7601V10.3596H49.2961V12.2616H52.0281V12.9996H48.5251V6.99963H52.0281V7.73663Z" stroke="white" stroke-width="0.2" stroke-miterlimit="10"/>
<path d="M55.279 12.9996H54.508V7.73663H52.832V6.99963H56.955V7.73663H55.279V12.9996Z" stroke="white" stroke-width="0.2" stroke-miterlimit="10"/>
<path d="M59.938 12.9996V6.99963H60.709V12.9996H59.938Z" stroke="white" stroke-width="0.2" stroke-miterlimit="10"/>
<path d="M64.1281 12.9996H63.3572V7.73663H61.6812V6.99963H65.8042V7.73663H64.1281V12.9996Z" stroke="white" stroke-width="0.2" stroke-miterlimit="10"/>
<path d="M73.6089 12.2246C73.0189 12.8306 72.2859 13.1336 71.4089 13.1336C70.5319 13.1336 69.7989 12.8306 69.2099 12.2246C68.6199 11.6186 68.3259 10.8766 68.3259 9.99962C68.3259 9.12262 68.6199 8.38062 69.2099 7.77462C69.7989 7.16862 70.5319 6.86462 71.4089 6.86462C72.2809 6.86462 73.0129 7.16962 73.6049 7.77862C74.1969 8.38762 74.4929 9.12762 74.4929 9.99962C74.4929 10.8766 74.1979 11.6186 73.6089 12.2246ZM69.7789 11.7216C70.2229 12.1716 70.7659 12.3956 71.4089 12.3956C72.0519 12.3956 72.5959 12.1706 73.0389 11.7216C73.4829 11.2716 73.7059 10.6976 73.7059 9.99962C73.7059 9.30162 73.4829 8.72762 73.0389 8.27762C72.5959 7.82762 72.0519 7.60362 71.4089 7.60362C70.7659 7.60362 70.2229 7.82862 69.7789 8.27762C69.3359 8.72762 69.1129 9.30162 69.1129 9.99962C69.1129 10.6976 69.3359 11.2716 69.7789 11.7216Z" stroke="white" stroke-width="0.2" stroke-miterlimit="10"/>
<path d="M75.5749 12.9996V6.99963H76.513L79.429 11.6666H79.4619L79.429 10.5106V6.99963H80.1999V12.9996H79.3949L76.344 8.10563H76.3109L76.344 9.26163V12.9996H75.5749Z" stroke="white" stroke-width="0.2" stroke-miterlimit="10"/>
<path d="M10.4361 7.5376C10.1451 7.8456 9.97314 8.3236 9.97314 8.9426V31.0586C9.97314 31.6786 10.1451 32.1556 10.4361 32.4636L10.5101 32.5356L22.8991 20.1466V20.0006V19.8546L10.5101 7.4646L10.4361 7.5376Z" fill="url(#paint0_linear_186_282)"/>
<path d="M27.0279 24.2776L22.8989 20.1466V20.0006V19.8546L27.0289 15.7246L27.1219 15.7776L32.0149 18.5576C33.4119 19.3516 33.4119 20.6506 32.0149 21.4456L27.1219 24.2256L27.0279 24.2776Z" fill="url(#paint1_linear_186_282)"/>
<g filter="url(#filter0_i_186_282)">
<path d="M27.122 24.2246L22.898 20.0006L10.436 32.4636C10.896 32.9516 11.657 33.0116 12.514 32.5256L27.122 24.2246Z" fill="url(#paint2_linear_186_282)"/>
</g>
<path d="M27.122 15.7766L12.514 7.47658C11.657 6.98958 10.896 7.05058 10.436 7.53858L22.899 20.0016L27.122 15.7766Z" fill="url(#paint3_linear_186_282)"/>
<defs>
<filter id="filter0_i_186_282" x="10.436" y="20.0006" width="16.686" height="12.8607" filterUnits="userSpaceOnUse" color-interpolation-filters="sRGB">
<feFlood flood-opacity="0" result="BackgroundImageFix"/>
<feBlend mode="normal" in="SourceGraphic" in2="BackgroundImageFix" result="shape"/>
<feColorMatrix in="SourceAlpha" type="matrix" values="0 0 0 0 0 0 0 0 0 0 0 0 0 0 0 0 0 0 127 0" result="hardAlpha"/>
<feOffset dy="-0.15"/>
<feComposite in2="hardAlpha" operator="arithmetic" k2="-1" k3="1"/>
<feColorMatrix type="matrix" values="0 0 0 0 0 0 0 0 0 0 0 0 0 0 0 0 0 0 0.08 0"/>
<feBlend mode="normal" in2="shape" result="effect1_innerShadow_186_282"/>
</filter>
<linearGradient id="paint0_linear_186_282" x1="21.8009" y1="8.7086" x2="5.01895" y2="25.4906" gradientUnits="userSpaceOnUse">
<stop stop-color="#00A0FF"/>
<stop offset="0.0066" stop-color="#00A1FF"/>
<stop offset="0.2601" stop-color="#00BEFF"/>
<stop offset="0.5122" stop-color="#00D2FF"/>
<stop offset="0.7604" stop-color="#00DFFF"/>
<stop offset="1" stop-color="#00E3FF"/>
</linearGradient>
<linearGradient id="paint1_linear_186_282" x1="33.8334" y1="20.0006" x2="9.63753" y2="20.0006" gradientUnits="userSpaceOnUse">
<stop stop-color="#FFE000"/>
<stop offset="0.4087" stop-color="#FFBD00"/>
<stop offset="0.7754" stop-color="#FFA500"/>
<stop offset="1" stop-color="#FF9C00"/>
</linearGradient>
<linearGradient id="paint2_linear_186_282" x1="24.8281" y1="22.2945" x2="2.06964" y2="45.053" gradientUnits="userSpaceOnUse">
<stop stop-color="#FF3A44"/>
<stop offset="1" stop-color="#C31162"/>
</linearGradient>
<linearGradient id="paint3_linear_186_282" x1="7.29743" y1="0.176379" x2="17.4597" y2="10.3387" gradientUnits="userSpaceOnUse">
<stop stop-color="#32A071"/>
<stop offset="0.0685" stop-color="#2DA771"/>
<stop offset="0.4762" stop-color="#15CF74"/>
<stop offset="0.8009" stop-color="#06E775"/>
<stop offset="1" stop-color="#00F076"/>
</linearGradient>
</defs>
</svg>
