<svg width="102" height="122" viewBox="0 0 102 122" version="1.1" xmlns="http://www.w3.org/2000/svg" xmlns:xlink="http://www.w3.org/1999/xlink">
<title>Arrow</title>
<desc>Created using Figma</desc>
<g id="Canvas" transform="translate(15 146)">
<g id="Arrow">
<use xlink:href="#path0_stroke" transform="translate(-14 -144)" fill="#265A53"/>
</g>
</g>
<defs>
<path id="path0_stroke" d="M 93.843 -0.776702C 93.4141 -1.79458 92.2412 -2.27198 91.2233 -1.84302L 74.6361 5.1473C 73.6182 5.57626 73.1408 6.74915 73.5698 7.76702C 73.9987 8.7849 75.1716 9.26231 76.1895 8.83335L 90.9337 2.61973L 97.1473 17.3639C 97.5763 18.3818 98.7492 18.8592 99.767 18.4302C 100.785 18.0013 101.262 16.8284 100.833 15.8105L 93.843 -0.776702ZM -0.220863 118.988C 9.67686 120.088 23.1352 115.209 39.0348 97.9161C 54.9508 80.6051 73.5595 50.6094 93.8524 0.754002L 90.1476 -0.754002C 69.9405 48.8906 51.5492 78.3949 36.0902 95.2089C 20.6148 112.041 8.32314 115.912 0.220863 115.012L -0.220863 118.988Z"/>
</defs>
</svg>
