<svg width="517" height="480" viewBox="0 0 517 480" version="1.1" xmlns="http://www.w3.org/2000/svg" xmlns:xlink="http://www.w3.org/1999/xlink">
<title>lessons_lessons</title>
<desc>Created using Figma</desc>
<g id="Canvas" transform="translate(704 -1232)">
<g id="lessons_lessons">
<g id="Line">
<use xlink:href="#path0_stroke" transform="translate(-613 1316.57)" fill="#429488"/>
</g>
<g id="Icon | Arithmetic">
<g id="Outer Base" opacity="0.6">
<use xlink:href="#path1_fill" transform="translate(-704 1232)" fill="#ED9D6B"/>
</g>
<g id="Base">
<use xlink:href="#path2_fill" transform="translate(-692 1244)" fill="#CB875C"/>
<mask id="mask0_outline_ins">
<use xlink:href="#path2_fill" fill="white" transform="translate(-692 1244)"/>
</mask>
<g mask="url(#mask0_outline_ins)">
<use xlink:href="#path3_stroke_2x" transform="translate(-692 1244)" fill="#429488"/>
</g>
</g>
<g id="Icon">
<g id="Group">
<g id="Group">
<g id="Vector">
<use xlink:href="#path4_fill" transform="translate(-656.267 1279.82)" fill="#FFFFFF"/>
</g>
<g id="Vector">
<use xlink:href="#path5_fill" transform="translate(-607.672 1328.45)" fill="#FFFFFF"/>
</g>
<g id="Vector">
<use xlink:href="#path6_fill" transform="translate(-656.267 1328.45)" fill="#FFFFFF"/>
</g>
<g id="Vector">
<use xlink:href="#path7_fill" transform="translate(-607.672 1279.82)" fill="#FFFFFF"/>
</g>
</g>
</g>
</g>
</g>
<g id="Icon | Arithmetic">
<g id="Outer Base" opacity="0.6">
<use xlink:href="#path1_fill" transform="translate(-392 1380)" fill="#ED9D6B"/>
</g>
<g id="Base">
<use xlink:href="#path2_fill" transform="translate(-380 1392)" fill="#CB875C"/>
<mask id="mask1_outline_ins">
<use xlink:href="#path2_fill" fill="white" transform="translate(-380 1392)"/>
</mask>
<g mask="url(#mask1_outline_ins)">
<use xlink:href="#path3_stroke_2x" transform="translate(-380 1392)" fill="#429488"/>
</g>
</g>
<g id="Icon">
<g id="Group">
<g id="Group">
<g id="Vector">
<use xlink:href="#path4_fill" transform="translate(-344.267 1427.82)" fill="#FFFFFF"/>
</g>
<g id="Vector">
<use xlink:href="#path5_fill" transform="translate(-295.672 1476.45)" fill="#FFFFFF"/>
</g>
<g id="Vector">
<use xlink:href="#path6_fill" transform="translate(-344.267 1476.45)" fill="#FFFFFF"/>
</g>
<g id="Vector">
<use xlink:href="#path7_fill" transform="translate(-295.672 1427.82)" fill="#FFFFFF"/>
</g>
</g>
</g>
</g>
</g>
<g id="Icon | Arithmetic">
<g id="Outer Base" opacity="0.6">
<use xlink:href="#path1_fill" transform="translate(-704 1528)" fill="#ED9D6B"/>
</g>
<g id="Base">
<use xlink:href="#path2_fill" transform="translate(-692 1540)" fill="#CB875C"/>
<mask id="mask2_outline_ins">
<use xlink:href="#path2_fill" fill="white" transform="translate(-692 1540)"/>
</mask>
<g mask="url(#mask2_outline_ins)">
<use xlink:href="#path3_stroke_2x" transform="translate(-692 1540)" fill="#429488"/>
</g>
</g>
<g id="Icon">
<g id="Group">
<g id="Group">
<g id="Vector">
<use xlink:href="#path4_fill" transform="translate(-656.267 1575.82)" fill="#FFFFFF"/>
</g>
<g id="Vector">
<use xlink:href="#path5_fill" transform="translate(-607.672 1624.45)" fill="#FFFFFF"/>
</g>
<g id="Vector">
<use xlink:href="#path6_fill" transform="translate(-656.267 1624.45)" fill="#FFFFFF"/>
</g>
<g id="Vector">
<use xlink:href="#path7_fill" transform="translate(-607.672 1575.82)" fill="#FFFFFF"/>
</g>
</g>
</g>
</g>
</g>
<g id="1">
<use xlink:href="#path8_fill" transform="translate(-520 1232)" fill="#429488"/>
</g>
<g id="2">
<use xlink:href="#path9_fill" transform="translate(-208 1380)" fill="#429488"/>
</g>
<g id="3">
<use xlink:href="#path10_fill" transform="translate(-520 1528)" fill="#429488"/>
</g>
</g>
</g>
<defs>
<path id="path0_stroke" d="M -0.470873 1.95769C -2.66465 2.21774 -4.23224 4.20697 -3.97219 6.40075C -3.71213 8.59453 -1.72291 10.1621 0.470873 9.90206L -0.470873 1.95769ZM 0.508138 301.462C -1.6831 301.181 -3.68696 302.73 -3.96759 304.921C -4.24823 307.113 -2.69938 309.117 -0.508138 309.397L 0.508138 301.462ZM 8.08787 9.02894C 10.2836 8.78594 11.8666 6.80896 11.6236 4.61322C 11.3806 2.41749 9.40361 0.834489 7.20788 1.07749L 8.08787 9.02894ZM 22.5835 -0.498131C 20.3841 -0.291187 18.7689 1.65956 18.9758 3.85899C 19.1828 6.05841 21.1335 7.67363 23.333 7.46669L 22.5835 -0.498131ZM 38.5969 6.16495C 40.7996 5.99699 42.4491 4.07515 42.2811 1.8724C 42.1132 -0.330341 40.1913 -1.97985 37.9886 -1.81189L 38.5969 6.16495ZM 53.4205 -2.84179C 51.2149 -2.71614 49.5288 -0.826316 49.6544 1.37925C 49.7801 3.58481 51.6699 5.27091 53.8755 5.14525L 53.4205 -2.84179ZM 69.1634 4.43217C 71.3711 4.35266 73.0964 2.4985 73.0169 0.290792C 72.9373 -1.91692 71.0832 -3.64216 68.8755 -3.56264L 69.1634 4.43217ZM 84.3485 -3.94543C 82.1395 -3.91646 80.3723 -2.10227 80.4013 0.106678C 80.4302 2.31563 82.2444 4.08285 84.4534 4.05388L 84.3485 -3.94543ZM 99.7357 4.04275C 101.945 4.06942 103.757 2.30031 103.784 0.0913328C 103.81 -2.11765 102.041 -3.93 99.8323 -3.95667L 99.7357 4.04275ZM 115.318 -3.55752C 113.11 -3.64575 111.25 -1.92784 111.161 0.279538C 111.073 2.48691 112.791 4.34787 114.998 4.4361L 115.318 -3.55752ZM 130.251 5.27894C 132.454 5.43574 134.368 3.7765 134.525 1.57293C 134.681 -0.630633 133.022 -2.54409 130.819 -2.70089L 130.251 5.27894ZM 146.297 -1.33338C 144.1 -1.56685 142.13 0.024708 141.896 2.22147C 141.663 4.41824 143.254 6.38834 145.451 6.62182L 146.297 -1.33338ZM 160.569 8.52344C 162.755 8.84306 164.786 7.33015 165.106 5.14425C 165.425 2.95836 163.913 0.927234 161.727 0.607611L 160.569 8.52344ZM 177.074 3.195C 174.904 2.77819 172.808 4.199 172.391 6.36847C 171.974 8.53793 173.395 10.6345 175.564 11.0513L 177.074 3.195ZM 190.382 14.2825C 192.528 14.8092 194.694 13.497 195.221 11.3516C 195.748 9.20619 194.435 7.03998 192.29 6.51324L 190.382 14.2825ZM 207.351 10.6715C 205.24 10.02 203 11.203 202.349 13.3139C 201.697 15.4247 202.88 17.6641 204.991 18.3157L 207.351 10.6715ZM 219.293 23.2529C 221.355 24.0458 223.669 23.017 224.462 20.955C 225.255 18.8931 224.226 16.5788 222.164 15.7859L 219.293 23.2529ZM 236.578 21.9689C 234.585 21.0176 232.197 21.8628 231.246 23.8567C 230.295 25.8505 231.14 28.238 233.134 29.1892L 236.578 21.9689ZM 246.394 36.2456C 248.294 37.3719 250.748 36.7443 251.874 34.8439C 253.001 32.9434 252.373 30.4898 250.473 29.3634L 246.394 36.2456ZM 263.64 38.0873C 261.864 36.7728 259.36 37.1466 258.045 38.9222C 256.731 40.6977 257.104 43.2026 258.88 44.5171L 263.64 38.0873ZM 270.35 54.0466C 271.965 55.5542 274.496 55.4673 276.004 53.8525C 277.511 52.2377 277.424 49.7065 275.809 48.199L 270.35 54.0466ZM 286.727 59.7129C 285.31 58.0187 282.787 57.7947 281.093 59.2124C 279.399 60.6302 279.174 63.153 280.592 64.8471L 286.727 59.7129ZM 289.395 76.8377C 290.587 78.6981 293.06 79.2406 294.921 78.0494C 296.781 76.8582 297.324 74.3843 296.133 72.5239L 289.395 76.8377ZM 303.822 86.3881C 302.873 84.3931 300.487 83.5451 298.492 84.4941C 296.497 85.443 295.649 87.8295 296.598 89.8245L 303.822 86.3881ZM 302.179 103.643C 302.885 105.737 305.154 106.862 307.247 106.156C 309.34 105.45 310.465 103.181 309.759 101.087L 302.179 103.643ZM 313.987 116.358C 313.512 114.201 311.378 112.837 309.22 113.312C 307.063 113.788 305.699 115.922 306.175 118.08L 313.987 116.358ZM 308.676 132.819C 308.944 135.012 310.938 136.573 313.131 136.305C 315.324 136.038 316.885 134.043 316.617 131.85L 308.676 132.819ZM 317.851 147.496C 317.767 145.288 315.91 143.566 313.702 143.65C 311.495 143.734 309.773 145.592 309.857 147.799L 317.851 147.496ZM 309.86 163.089C 309.778 165.297 311.501 167.153 313.709 167.235C 315.917 167.317 317.773 165.593 317.854 163.386L 309.86 163.089ZM 316.646 179.078C 316.908 176.885 315.341 174.895 313.147 174.634C 310.954 174.372 308.964 175.939 308.702 178.133L 316.646 179.078ZM 306.25 192.943C 305.786 195.103 307.161 197.231 309.321 197.695C 311.48 198.159 313.608 196.784 314.072 194.625L 306.25 192.943ZM 309.929 209.967C 310.619 207.869 309.477 205.608 307.379 204.918C 305.28 204.228 303.019 205.37 302.329 207.468L 309.929 209.967ZM 296.846 221.392C 295.917 223.396 296.788 225.774 298.792 226.704C 300.796 227.633 303.174 226.762 304.104 224.758L 296.846 221.392ZM 296.538 238.745C 297.708 236.871 297.138 234.404 295.264 233.234C 293.39 232.063 290.923 232.634 289.752 234.508L 296.538 238.745ZM 281.057 246.646C 279.66 248.357 279.914 250.877 281.625 252.274C 283.336 253.672 285.856 253.417 287.253 251.707L 281.057 246.646ZM 276.436 263.388C 278.033 261.862 278.091 259.33 276.564 257.733C 275.038 256.135 272.506 256.078 270.909 257.604L 276.436 263.388ZM 259.508 267.29C 257.746 268.623 257.398 271.132 258.731 272.893C 260.064 274.655 262.572 275.003 264.334 273.67L 259.508 267.29ZM 251.198 282.555C 253.089 281.412 253.695 278.953 252.552 277.062C 251.41 275.172 248.951 274.565 247.06 275.708L 251.198 282.555ZM 233.822 282.884C 231.834 283.849 231.005 286.242 231.97 288.229C 232.935 290.217 235.328 291.046 237.315 290.081L 233.822 282.884ZM 222.876 296.374C 224.934 295.571 225.952 293.252 225.149 291.194C 224.346 289.135 222.027 288.118 219.969 288.921L 222.876 296.374ZM 205.636 293.932C 203.527 294.59 202.35 296.832 203.008 298.941C 203.666 301.05 205.909 302.227 208.018 301.569L 205.636 293.932ZM 192.928 305.771C 195.073 305.241 196.382 303.073 195.852 300.929C 195.322 298.784 193.154 297.475 191.009 298.005L 192.928 305.771ZM 176.142 301.258C 173.973 301.675 172.552 303.772 172.969 305.941C 173.386 308.111 175.482 309.531 177.652 309.115L 176.142 301.258ZM 162.24 311.703C 164.426 311.386 165.942 309.357 165.625 307.17C 165.308 304.984 163.279 303.469 161.093 303.785L 162.24 311.703ZM 145.918 305.666C 143.72 305.894 142.124 307.86 142.352 310.058C 142.58 312.255 144.547 313.851 146.744 313.623L 145.918 305.666ZM 131.2 314.95C 133.404 314.801 135.07 312.893 134.921 310.689C 134.772 308.485 132.864 306.819 130.66 306.969L 131.2 314.95ZM 115.375 307.754C 113.167 307.833 111.441 309.686 111.52 311.894C 111.599 314.102 113.452 315.828 115.66 315.749L 115.375 307.754ZM 100.115 316.076C 102.324 316.061 104.103 314.257 104.087 312.048C 104.072 309.839 102.269 308.061 100.06 308.076L 100.115 316.076ZM 84.7261 307.98C 82.5174 307.938 80.6928 309.695 80.6508 311.904C 80.6088 314.112 82.3653 315.937 84.574 315.979L 84.7261 307.98ZM 69.0467 315.497C 71.2539 315.592 73.1194 313.879 73.2135 311.671C 73.3076 309.464 71.5947 307.599 69.3875 307.505L 69.0467 315.497ZM 54.0539 306.683C 51.8493 306.541 49.9473 308.213 49.8056 310.418C 49.6639 312.622 51.3362 314.524 53.5408 314.666L 54.0539 306.683ZM 38.0615 313.515C 40.2628 313.7 42.1976 312.066 42.383 309.865C 42.5684 307.663 40.9341 305.729 38.7328 305.543L 38.0615 313.515ZM 23.4296 304.111C 21.232 303.886 19.2676 305.484 19.0419 307.682C 18.8163 309.88 20.4149 311.844 22.6124 312.07L 23.4296 304.111ZM 7.19631 310.353C 9.38974 310.616 11.381 309.051 11.644 306.857C 11.907 304.664 10.342 302.672 8.14857 302.409L 7.19631 310.353ZM 0.470873 9.90206C 3.01004 9.60107 5.54926 9.30989 8.08787 9.02894L 7.20788 1.07749C 4.64833 1.36076 2.08851 1.65429 -0.470873 1.95769L 0.470873 9.90206ZM 23.333 7.46669C 28.431 6.98702 33.5208 6.55202 38.5969 6.16495L 37.9886 -1.81189C 32.8638 -1.4211 27.7269 -0.982066 22.5835 -0.498131L 23.333 7.46669ZM 53.8755 5.14525C 58.9936 4.85367 64.0915 4.61485 69.1634 4.43217L 68.8755 -3.56264C 63.7457 -3.37788 58.592 -3.13643 53.4205 -2.84179L 53.8755 5.14525ZM 84.4534 4.05388C 89.5833 3.98661 94.6794 3.9817 99.7357 4.04275L 99.8323 -3.95667C 94.706 -4.01856 89.5427 -4.01355 84.3485 -3.94543L 84.4534 4.05388ZM 114.998 4.4361C 120.135 4.64139 125.221 4.92103 130.251 5.27894L 130.819 -2.70089C 125.702 -3.06494 120.533 -3.34907 115.318 -3.55752L 114.998 4.4361ZM 145.451 6.62182C 150.563 7.16509 155.605 7.79751 160.569 8.52344L 161.727 0.607611C 156.653 -0.134235 151.507 -0.779598 146.297 -1.33338L 145.451 6.62182ZM 175.564 11.0513C 180.601 12.0191 185.544 13.0945 190.382 14.2825L 192.29 6.51324C 187.312 5.29109 182.237 4.18696 177.074 3.195L 175.564 11.0513ZM 204.991 18.3157C 209.89 19.8277 214.66 21.4715 219.293 23.2529L 222.164 15.7859C 217.353 13.9361 212.412 12.2337 207.351 10.6715L 204.991 18.3157ZM 233.134 29.1892C 237.724 31.3795 242.148 33.7295 246.394 36.2456L 250.473 29.3634C 246.01 26.7185 241.374 24.2566 236.578 21.9689L 233.134 29.1892ZM 258.88 44.5171C 262.913 47.5029 266.741 50.6768 270.35 54.0466L 275.809 48.199C 271.969 44.6137 267.907 41.2463 263.64 38.0873L 258.88 44.5171ZM 280.592 64.8471C 283.76 68.6325 286.699 72.6264 289.395 76.8377L 296.133 72.5239C 293.251 68.023 290.11 63.7554 286.727 59.7129L 280.592 64.8471ZM 296.598 89.8245C 298.689 94.2205 300.554 98.824 302.179 103.643L 309.759 101.087C 308.035 95.973 306.052 91.0753 303.822 86.3881L 296.598 89.8245ZM 306.175 118.08C 307.216 122.806 308.054 127.717 308.676 132.819L 316.617 131.85C 315.965 126.505 315.086 121.342 313.987 116.358L 306.175 118.08ZM 309.857 147.799C 309.952 150.301 310 152.845 310 155.43L 318 155.43C 318 152.746 317.95 150.101 317.851 147.496L 309.857 147.799ZM 310 155.43C 310 158.024 309.953 160.577 309.86 163.089L 317.854 163.386C 317.951 160.772 318 158.121 318 155.43L 310 155.43ZM 308.702 178.133C 308.093 183.256 307.272 188.191 306.25 192.943L 314.072 194.625C 315.148 189.62 316.008 184.439 316.646 179.078L 308.702 178.133ZM 302.329 207.468C 300.734 212.321 298.902 216.96 296.846 221.392L 304.104 224.758C 306.293 220.038 308.238 215.11 309.929 209.967L 302.329 207.468ZM 289.752 234.508C 287.091 238.769 284.189 242.812 281.057 246.646L 287.253 251.707C 290.596 247.614 293.696 243.296 296.538 238.745L 289.752 234.508ZM 270.909 257.604C 267.325 261.028 263.521 264.255 259.508 267.29L 264.334 273.67C 268.582 270.457 272.621 267.032 276.436 263.388L 270.909 257.604ZM 247.06 275.708C 242.826 278.267 238.409 280.657 233.822 282.884L 237.315 290.081C 242.111 287.753 246.743 285.247 251.198 282.555L 247.06 275.708ZM 219.969 288.921C 215.331 290.73 210.55 292.399 205.636 293.932L 208.018 301.569C 213.099 299.983 218.056 298.254 222.876 296.374L 219.969 288.921ZM 191.009 298.005C 186.159 299.203 181.201 300.286 176.142 301.258L 177.652 309.115C 182.84 308.118 187.935 307.005 192.928 305.771L 191.009 298.005ZM 161.093 303.785C 156.114 304.507 151.054 305.132 145.918 305.666L 146.744 313.623C 151.982 313.079 157.15 312.441 162.24 311.703L 161.093 303.785ZM 130.66 306.969C 125.624 307.31 120.527 307.57 115.375 307.754L 115.66 315.749C 120.894 315.562 126.076 315.297 131.2 314.95L 130.66 306.969ZM 100.06 308.076C 94.992 308.111 89.879 308.078 84.7261 307.98L 84.574 315.979C 89.7932 316.078 94.9755 316.112 100.115 316.076L 100.06 308.076ZM 69.3875 307.505C 64.3067 307.288 59.1938 307.013 54.0539 306.683L 53.5408 314.666C 58.7359 315 63.9063 315.278 69.0467 315.497L 69.3875 307.505ZM 38.7328 305.543C 33.6508 305.115 28.5482 304.637 23.4296 304.111L 22.6124 312.07C 27.7779 312.6 32.9292 313.083 38.0615 313.515L 38.7328 305.543ZM 8.14857 302.409C 5.60423 302.104 3.05722 301.788 0.508138 301.462L -0.508138 309.397C 2.06193 309.726 4.63028 310.045 7.19631 310.353L 8.14857 302.409Z"/>
<path id="path1_fill" d="M 184 92C 184 142.81 142.81 184 92 184C 41.1898 184 0 142.81 0 92C 0 41.1898 41.1898 0 92 0C 142.81 0 184 41.1898 184 92Z"/>
<path id="path2_fill" d="M 160 80C 160 124.183 124.183 160 80 160C 35.8172 160 0 124.183 0 80C 0 35.8172 35.8172 0 80 0C 124.183 0 160 35.8172 160 80Z"/>
<path id="path3_stroke_2x" d="M 156 80C 156 121.974 121.974 156 80 156L 80 164C 126.392 164 164 126.392 164 80L 156 80ZM 80 156C 38.0264 156 4 121.974 4 80L -4 80C -4 126.392 33.6081 164 80 164L 80 156ZM 4 80C 4 38.0264 38.0264 4 80 4L 80 -4C 33.6081 -4 -4 33.6081 -4 80L 4 80ZM 80 4C 121.974 4 156 38.0264 156 80L 164 80C 164 33.6081 126.392 -4 80 -4L 80 4Z"/>
<path id="path4_fill" d="M 34.4129 -1.87368e-06L 6.13968 -1.87368e-06C 2.73216 -1.87368e-06 -8.72501e-15 2.73215 -8.72501e-15 6.13968L -8.72501e-15 34.3208C -8.72501e-15 37.7283 2.73216 40.4605 6.13968 40.4605L 34.4129 40.4605C 37.8204 40.4605 40.5526 37.7283 40.5526 34.3208L 40.5526 6.13968C 40.5526 2.73215 37.8204 -1.87368e-06 34.4129 -1.87368e-06ZM 33.3998 21.7652C 33.3998 22.5633 32.7859 23.1773 31.9877 23.1773L 24.7429 23.1773C 23.9447 23.1773 23.3308 23.7913 23.3308 24.5894L 23.3308 31.8342C 23.3308 32.6324 22.7168 33.2464 21.9186 33.2464L 18.7874 33.2464C 17.9893 33.2464 17.3753 32.6324 17.3753 31.8342L 17.3753 24.5894C 17.3753 23.7913 16.7613 23.1773 15.9632 23.1773L 8.71834 23.1773C 7.92018 23.1773 7.30622 22.5633 7.30622 21.7652L 7.30622 18.6339C 7.30622 17.8358 7.92018 17.2218 8.71834 17.2218L 15.9632 17.2218C 16.7613 17.2218 17.3753 16.6078 17.3753 15.8097L 17.3753 8.56485C 17.3753 7.76669 17.9893 7.15273 18.7874 7.15273L 21.9186 7.15273C 22.7168 7.15273 23.3308 7.76669 23.3308 8.56485L 23.3308 15.8097C 23.3308 16.6078 23.9447 17.2218 24.7429 17.2218L 31.9877 17.2218C 32.6938 17.2218 33.3998 17.9279 33.3998 18.6339L 33.3998 21.7652Z"/>
<path id="path5_fill" d="M 34.4129 -3.74736e-06L 6.13967 -3.74736e-06C 2.73215 -3.74736e-06 -3.74736e-06 2.73215 -3.74736e-06 6.13967L -3.74736e-06 34.4129C -3.74736e-06 37.8204 2.73215 40.5526 6.13967 40.5526L 34.4129 40.5526C 37.8204 40.5526 40.5526 37.8204 40.5526 34.4129L 40.5526 6.13967C 40.5526 2.70145 37.8204 -3.74736e-06 34.4129 -3.74736e-06ZM 33.3998 27.7513C 33.3998 28.5495 32.7859 29.1635 31.9877 29.1635L 8.53415 29.1635C 7.736 29.1635 7.12203 28.5495 7.12203 27.7513L 7.12203 24.6201C 7.12203 23.8219 7.736 23.208 8.53415 23.208L 31.9877 23.208C 32.7859 23.208 33.3998 23.914 33.3998 24.7122L 33.3998 27.7513ZM 33.3998 15.6869C 33.3998 16.485 32.7859 17.099 31.9877 17.099L 8.53415 17.099C 7.736 17.099 7.12203 16.485 7.12203 15.6869L 7.12203 12.5556C 7.12203 11.7575 7.736 11.1435 8.53415 11.1435L 31.9877 11.1435C 32.7859 11.1435 33.3998 11.8496 33.3998 12.6477L 33.3998 15.6869Z"/>
<path id="path6_fill" d="M 34.4129 -3.74736e-06L 6.13968 -3.74736e-06C 2.73216 -3.74736e-06 -8.72501e-15 2.73215 -8.72501e-15 6.13967L -8.72501e-15 34.4129C -8.72501e-15 37.8204 2.73216 40.5526 6.13968 40.5526L 34.4129 40.5526C 37.8204 40.5526 40.5526 37.8204 40.5526 34.4129L 40.5526 6.13967C 40.5526 2.70145 37.8204 -3.74736e-06 34.4129 -3.74736e-06ZM 25.5411 21.2126L 30.6677 26.3392C 31.2817 26.8304 31.2817 27.7513 30.6677 28.3653L 28.4574 30.5756C 27.9662 31.1896 27.0453 31.1896 26.4313 30.5756L 21.3047 25.449C 20.8135 24.835 19.8926 24.835 19.2786 25.449L 14.152 30.5756C 13.6608 31.1896 12.7398 31.1896 12.1259 30.5756L 9.91558 28.3653C 9.30161 27.8741 9.30161 26.9532 9.91558 26.3392L 15.0422 21.2126C 15.6562 20.7214 15.6562 19.8005 15.0422 19.1865L 9.91558 14.0599C 9.30161 13.5687 9.30161 12.6477 9.91558 12.0338L 12.1259 9.82348C 12.617 9.20951 13.538 9.20951 14.152 9.82348L 19.2786 14.9501C 19.7698 15.5641 20.6907 15.5641 21.3047 14.9501L 26.4313 9.82348C 26.9225 9.20951 27.8434 9.20951 28.4574 9.82348L 30.6677 12.0338C 31.2817 12.5249 31.2817 13.4459 30.6677 14.0599L 25.5411 19.1865C 24.9271 19.7084 24.9271 20.6293 25.5411 21.2126Z"/>
<path id="path7_fill" d="M 34.4129 -1.87368e-06L 6.13967 -1.87368e-06C 2.73215 -1.87368e-06 -3.74736e-06 2.73215 -3.74736e-06 6.13968L -3.74736e-06 34.3208C -3.74736e-06 37.7283 2.73215 40.4605 6.13967 40.4605L 34.4129 40.4605C 37.8204 40.4605 40.5526 37.7283 40.5526 34.3208L 40.5526 6.13968C 40.5526 2.73215 37.8204 -1.87368e-06 34.4129 -1.87368e-06ZM 33.3998 21.7652C 33.3998 22.5633 32.7859 23.1773 31.9877 23.1773L 8.53415 23.1773C 7.736 23.1773 7.12203 22.5633 7.12203 21.7652L 7.12203 18.6339C 7.12203 17.8358 7.736 17.2218 8.53415 17.2218L 31.9877 17.2218C 32.7859 17.2218 33.3998 17.9279 33.3998 18.6339L 33.3998 21.7652Z"/>
<path id="path8_fill" d="M 7.05078 20.6406C 6.23047 21.1354 5.39062 21.4674 4.53125 21.6367C 3.6849 21.806 3.11849 21.8906 2.83203 21.8906C 2.54557 21.8906 2.32422 21.8581 2.16797 21.793C 2.02474 21.7279 1.90104 21.6432 1.79688 21.5391C 1.66667 21.3698 1.53646 21.0638 1.40625 20.6211C 1.28906 20.1654 1.23047 19.7747 1.23047 19.4492C 1.23047 19.1107 1.33464 18.8438 1.54297 18.6484C 1.76432 18.4401 2.16146 18.2773 2.73438 18.1602C 4.42708 17.8086 5.58594 17.4635 6.21094 17.125C 6.83594 16.7734 7.29167 16.4935 7.57812 16.2852C 7.8776 16.0768 8.15104 15.8945 8.39844 15.7383C 8.93229 15.4128 9.47266 15.25 10.0195 15.25C 10.5664 15.25 11.0026 15.4193 11.3281 15.7578C 11.6667 16.0964 11.8359 16.5781 11.8359 17.2031L 11.8359 37.7695C 11.8359 38.1081 11.7318 38.401 11.5234 38.6484C 11.3151 38.8828 11.0677 39 10.7812 39L 8.06641 39C 7.76693 39 7.51953 38.8828 7.32422 38.6484C 7.14193 38.401 7.05078 38.1081 7.05078 37.7695L 7.05078 20.6406Z"/>
<path id="path9_fill" d="M 2.79297 36.4609C 2.79297 35.8099 2.83854 35.3997 2.92969 35.2305C 3.04688 34.957 3.35938 34.6966 3.86719 34.4492C 4.375 34.1888 5.02604 33.8242 5.82031 33.3555C 6.6276 32.8737 7.45443 32.3398 8.30078 31.7539C 9.14714 31.1549 9.98047 30.5039 10.8008 29.8008C 11.6211 29.0977 12.3568 28.362 13.0078 27.5938C 14.4531 25.9141 15.1758 24.3255 15.1758 22.8281C 15.1758 21.5521 14.7135 20.5885 13.7891 19.9375C 13.0469 19.4297 12.3047 19.1758 11.5625 19.1758C 10.8333 19.1758 10.2344 19.2344 9.76562 19.3516C 9.29688 19.4688 8.85417 19.6445 8.4375 19.8789C 7.5 20.3997 6.85547 21.1159 6.50391 22.0273C 6.20443 22.8477 5.71615 23.2578 5.03906 23.2578C 4.89583 23.2578 4.74609 23.2448 4.58984 23.2188C 4.43359 23.1927 4.16016 23.1471 3.76953 23.082C 2.92318 22.9388 2.5 22.4701 2.5 21.6758C 2.5 20.8815 2.6237 20.1914 2.87109 19.6055C 3.13151 19.0065 3.48307 18.4727 3.92578 18.0039C 4.36849 17.5221 4.88281 17.099 5.46875 16.7344C 6.05469 16.3698 6.67318 16.0638 7.32422 15.8164C 8.6263 15.3216 9.77214 15.0742 10.7617 15.0742C 11.7643 15.0742 12.5977 15.1263 13.2617 15.2305C 13.9258 15.3216 14.5768 15.4844 15.2148 15.7188C 15.8529 15.9401 16.4648 16.2396 17.0508 16.6172C 17.6367 16.9818 18.151 17.4375 18.5938 17.9844C 19.5573 19.1693 20.0391 20.6471 20.0391 22.418C 20.0391 25.1393 18.8151 27.6458 16.3672 29.9375C 15.0911 31.1615 13.8672 32.138 12.6953 32.8672L 9.19922 35.0156L 19.6484 34.7812C 20.1562 34.7682 20.4753 34.8919 20.6055 35.1523C 20.7487 35.3997 20.8203 35.7253 20.8203 36.1289L 20.8203 37.8672C 20.8203 38.3099 20.7031 38.6094 20.4688 38.7656C 20.2474 38.9089 19.9154 38.9805 19.4727 38.9805L 4.14062 38.9805C 3.72396 38.9805 3.39193 38.8958 3.14453 38.7266C 2.91016 38.5573 2.79297 38.2448 2.79297 37.7891L 2.79297 36.4609Z"/>
<path id="path10_fill" d="M 2.91016 38.4727C 3.33984 37.8086 3.80859 37.6068 4.31641 37.8672C 4.47266 37.9453 4.72656 38.1016 5.07812 38.3359C 5.42969 38.5573 5.83333 38.7786 6.28906 39C 6.75781 39.2083 7.22656 39.3776 7.69531 39.5078C 8.54167 39.7292 9.375 39.8398 10.1953 39.8398C 11.0156 39.8398 11.7318 39.7617 12.3438 39.6055C 12.9557 39.4492 13.5091 39.2018 14.0039 38.8633C 15.1237 38.0951 15.6836 37.0208 15.6836 35.6406C 15.6836 34.3646 15.1042 33.375 13.9453 32.6719C 12.8516 32.0208 11.4258 31.6953 9.66797 31.6953C 8.8737 31.6953 8.29427 31.7279 7.92969 31.793C 7.47396 31.8711 7.17448 31.9102 7.03125 31.9102C 6.88802 31.9102 6.74479 31.819 6.60156 31.6367C 6.45833 31.4544 6.34766 31.2396 6.26953 30.9922C 6.1263 30.5365 6.05469 30.1328 6.05469 29.7812C 6.05469 29.4167 6.10677 29.1237 6.21094 28.9023C 6.32812 28.668 6.56901 28.5117 6.93359 28.4336C 10.7227 27.5872 13.112 26.3438 14.1016 24.7031C 14.4792 24.0911 14.668 23.4531 14.668 22.7891C 14.668 22.125 14.5508 21.5911 14.3164 21.1875C 14.0951 20.7708 13.7891 20.4258 13.3984 20.1523C 12.6172 19.5924 11.6602 19.3125 10.5273 19.3125C 9.62891 19.3125 8.8737 19.4818 8.26172 19.8203C 7.12891 20.4453 6.46484 21.194 6.26953 22.0664C 6.11328 22.6784 5.70964 22.9844 5.05859 22.9844C 4.42057 22.9844 3.92578 22.9323 3.57422 22.8281C 3.22266 22.7109 2.94922 22.5677 2.75391 22.3984C 2.44141 22.112 2.28516 21.6693 2.28516 21.0703C 2.28516 20.4583 2.40885 19.8724 2.65625 19.3125C 2.91667 18.7396 3.26172 18.2318 3.69141 17.7891C 4.13411 17.3333 4.64193 16.9362 5.21484 16.5977C 5.78776 16.2591 6.39323 15.9792 7.03125 15.7578C 8.29427 15.3021 9.52474 15.0742 10.7227 15.0742C 11.9336 15.0742 13.0469 15.2174 14.0625 15.5039C 15.0911 15.7904 16.0026 16.2266 16.7969 16.8125C 18.5677 18.1146 19.4531 19.918 19.4531 22.2227C 19.4531 24.1367 18.7109 25.7708 17.2266 27.125C 16.1979 28.0495 14.9089 28.7721 13.3594 29.293C 15.4297 29.293 17.1354 29.918 18.4766 31.168C 19.7656 32.3789 20.4102 33.7591 20.4102 35.3086C 20.4102 36.8451 20.1302 38.1406 19.5703 39.1953C 19.0234 40.263 18.3073 41.1615 17.4219 41.8906C 15.5859 43.388 13.4766 44.1367 11.0938 44.1367C 7.5 44.1367 4.73307 43.3359 2.79297 41.7344C 2.16797 41.2396 1.85547 40.8359 1.85547 40.5234C 1.85547 40.224 1.92708 39.9635 2.07031 39.7422L 2.91016 38.4727Z"/>
</defs>
</svg>
