<?xml version="1.0" standalone="no"?>
<!DOCTYPE svg PUBLIC "-//W3C//DTD SVG 20010904//EN"
 "http://www.w3.org/TR/2001/REC-SVG-20010904/DTD/svg10.dtd">
<svg version="1.0" xmlns="http://www.w3.org/2000/svg"
 width="629.000000pt" height="440.000000pt" viewBox="0 0 629.000000 440.000000"
 preserveAspectRatio="xMidYMid meet">
<metadata>
Created by potrace 1.15, written by Peter Selinger 2001-2017
</metadata>
<g transform="translate(0.000000,440.000000) scale(0.100000,-0.100000)"
fill="#000000" stroke="none">
<path d="M2421 2373 c-18 -9 -45 -34 -60 -57 -22 -34 -26 -50 -26 -115 0 -91
25 -140 86 -171 75 -39 166 -14 210 57 20 31 24 52 24 113 0 61 -4 82 -24 113
-43 69 -137 96 -210 60z m134 -45 c98 -77 55 -278 -60 -278 -89 0 -142 122
-100 228 28 68 106 93 160 50z"/>
<path d="M3801 2373 c-18 -9 -45 -34 -60 -57 -22 -34 -26 -50 -26 -115 0 -91
25 -140 86 -171 75 -39 166 -14 210 57 20 31 24 52 24 113 0 61 -4 82 -24 113
-43 69 -137 96 -210 60z m134 -45 c98 -77 55 -278 -60 -278 -89 0 -142 122
-100 228 28 68 106 93 160 50z"/>
<path d="M1234 2362 c4 -11 33 -91 65 -178 l59 -159 37 0 37 0 58 155 c81 219
77 202 45 198 -25 -3 -31 -14 -84 -155 l-57 -152 -55 152 c-52 142 -58 152
-84 155 -23 3 -26 1 -21 -16z"/>
<path d="M1590 2200 l0 -180 25 0 25 0 0 180 0 180 -25 0 -25 0 0 -180z"/>
<path d="M1700 2200 l0 -180 88 0 c143 0 191 40 199 168 4 56 1 74 -19 112
-32 63 -70 80 -180 80 l-88 0 0 -180z m184 129 c52 -24 72 -128 40 -207 -18
-47 -47 -62 -119 -62 l-55 0 0 140 0 140 55 0 c30 0 65 -5 79 -11z"/>
<path d="M2030 2200 l0 -180 130 0 c123 0 130 1 130 20 0 19 -7 20 -105 20
l-105 0 0 65 0 65 95 0 c88 0 95 1 95 20 0 19 -7 20 -95 20 l-95 0 0 55 0 55
100 0 c93 0 100 1 100 20 0 19 -7 20 -125 20 l-125 0 0 -180z"/>
<path d="M2790 2360 c0 -18 7 -20 60 -20 l60 0 0 -160 0 -160 25 0 25 0 0 160
0 160 60 0 c53 0 60 2 60 20 0 19 -7 20 -145 20 -138 0 -145 -1 -145 -20z"/>
<path d="M3100 2250 c0 -188 23 -231 128 -237 45 -3 64 0 90 17 51 32 62 70
62 220 l0 130 -24 0 -25 0 -3 -146 c-3 -139 -4 -147 -27 -165 -14 -11 -39 -19
-61 -19 -22 0 -47 8 -61 19 -23 18 -24 26 -27 165 l-3 146 -25 0 -24 0 0 -130z"/>
<path d="M3410 2360 c0 -18 7 -20 60 -20 l60 0 0 -160 0 -160 25 0 25 0 0 160
0 160 60 0 c53 0 60 2 60 20 0 19 -7 20 -145 20 -138 0 -145 -1 -145 -20z"/>
<path d="M4080 2201 l0 -181 25 0 c25 0 25 1 25 80 l0 80 43 0 c49 0 62 -11
122 -102 31 -48 43 -58 66 -58 l28 0 -41 65 c-22 36 -49 72 -60 79 -18 13 -17
14 13 26 60 25 77 122 28 166 -18 16 -40 20 -135 22 l-114 4 0 -181z m208 123
c28 -19 29 -57 2 -84 -16 -16 -33 -20 -90 -20 l-70 0 0 60 0 60 68 0 c45 0 75
-5 90 -16z"/>
<path d="M4430 2200 l0 -180 25 0 25 0 0 180 0 180 -25 0 -25 0 0 -180z"/>
<path d="M4626 2372 c-6 -11 -136 -342 -136 -349 0 -2 12 -3 27 -1 22 2 29 11
43 53 l17 50 78 0 78 0 17 -50 c14 -42 21 -51 44 -53 33 -4 37 -21 -47 193
-57 146 -65 160 -89 163 -14 2 -29 -1 -32 -6z"/>
<path d="M4840 2200 l0 -180 110 0 c103 0 110 1 110 20 0 18 -7 20 -85 20
l-85 0 0 160 0 160 -25 0 -25 0 0 -180z"/>
</g>
</svg>
