<?xml version="1.0" encoding="iso-8859-1"?>
<!-- Generator: Adobe Illustrator 16.0.0, SVG Export Plug-In . SVG Version: 6.00 Build 0)  -->
<!DOCTYPE svg PUBLIC "-//W3C//DTD SVG 1.1//EN" "http://www.w3.org/Graphics/SVG/1.1/DTD/svg11.dtd">
<svg version="1.1" id="Capa_1" xmlns="http://www.w3.org/2000/svg" xmlns:xlink="http://www.w3.org/1999/xlink" x="0px" y="0px"
	 width="31.612px" height="31.612px" viewBox="0 0 31.612 31.612" style="enable-background:new 0 0 31.612 31.612;"
	 xml:space="preserve">
<g>
	<g>
		<path d="M10.871,13.671l-4.058,4.057c-0.234,0.234-0.367,0.553-0.367,0.885c0,0.333,0.133,0.65,0.367,0.885l3.923,3.924
			c0.245,0.244,0.565,0.367,0.887,0.367c0.32,0,0.641-0.123,0.885-0.367c0.49-0.488,0.49-1.281,0-1.771L9.47,18.613l3.173-3.172
			c0.489-0.488,0.489-1.281,0-1.77C12.152,13.182,11.36,13.182,10.871,13.671z"/>
		<path d="M18.969,15.443l3.174,3.171l-3.039,3.038c-0.488,0.488-0.488,1.281,0,1.771c0.244,0.244,0.564,0.366,0.886,0.366
			s0.642-0.122,0.887-0.366l3.923-3.924c0.234-0.234,0.367-0.554,0.367-0.886c0-0.333-0.133-0.651-0.367-0.886l-4.058-4.056
			c-0.489-0.489-1.281-0.489-1.771,0C18.48,14.16,18.48,14.954,18.969,15.443z"/>
		<path d="M13.265,26.844c0.081,0.023,0.162,0.037,0.245,0.037c0.356,0,0.688-0.232,0.798-0.592l4.59-14.995
			c0.138-0.441-0.111-0.908-0.553-1.043c-0.443-0.135-0.906,0.113-1.043,0.554L12.71,25.799
			C12.576,26.241,12.823,26.707,13.265,26.844z"/>
		<path d="M11.216,0L3.029,8.643v22.969h25.554V0H11.216z M10.495,3.635v3.83H6.867L10.495,3.635z M26.605,29.637H5.005V9.441h7.465
			V1.975h14.135V29.637z"/>
	</g>
</g>
<g>
</g>
<g>
</g>
<g>
</g>
<g>
</g>
<g>
</g>
<g>
</g>
<g>
</g>
<g>
</g>
<g>
</g>
<g>
</g>
<g>
</g>
<g>
</g>
<g>
</g>
<g>
</g>
<g>
</g>
</svg>
