<?xml version="1.0" encoding="utf-8"?>
<!-- Generator: Adobe Illustrator 19.2.1, SVG Export Plug-In . SVG Version: 6.00 Build 0)  -->
<svg version="1.1" id="Layer_1" xmlns="http://www.w3.org/2000/svg" xmlns:xlink="http://www.w3.org/1999/xlink" x="0px" y="0px"
	 viewBox="0 0 231.5 280.5" style="enable-background:new 0 0 231.5 280.5;" xml:space="preserve">
<style type="text/css">
	.st0{opacity:0.22;}
	.st1{fill:#FFFFFF;}
	.st2{fill:#D0982A;}
	.st3{fill:none;}
	.st4{font-family:'Capriola-Regular';}
	.st5{font-size:14px;}
</style>
<title>collection</title>
<rect y="55.1" class="st0" width="200" height="225.4"/>
<g>
	<rect x="4.9" y="35.2" class="st1" width="200" height="240"/>
	<rect x="4.8" y="35.2" class="st2" width="200" height="144"/>
	<g>
		
			<rect x="69" y="65.1" transform="matrix(1 -7.830633e-03 7.830633e-03 1 -0.798 0.8347)" class="st3" width="74.4" height="74.4"/>
		<path class="st1" d="M106,70.7c-17.5,0.1-31.6,14.5-31.5,31.9s14.5,31.6,31.9,31.5s31.6-14.5,31.5-31.9
			C137.8,84.6,123.5,70.6,106,70.7z M105.8,78.6c0.3,0,0.5,0,0.8,0c0.7,0.5,1,1.1,1,1.9c0,1.2,0,2.4,0,3.6c0,1.1-0.5,1.8-1.4,1.8
			c-0.8,0-1.3-0.6-1.3-1.8c0-1.2,0.1-2.5,0-3.7C104.8,79.7,105.1,79,105.8,78.6z M85.6,91.1c0.9-1,1.3-1.1,2.5-0.5
			c1.2,0.4,2.4,0.9,3.4,1.5c0.9,0.4,1.3,1.1,1.1,1.8s-1.3,1.2-2.1,0.7c-1.4-0.6-2.8-1.3-4.1-1.9c-0.3-0.2-0.5-0.5-0.8-0.8
			C85.6,91.6,85.6,91.4,85.6,91.1z M92,104.2c-1.5,0.3-3,0.4-4.4,0.7c-0.8,0.1-1.4-0.3-1.8-0.9c0-0.2,0-0.4,0-0.6
			c0.4-0.8,1.1-1.1,1.9-1.1c1-0.2,2-0.4,3.1-0.5c0.3,0,0.6-0.1,1-0.1c0.8,0,1.5,0.3,1.6,1.1C93.5,103.5,92.7,104,92,104.2z
			 M93.8,81.7c0.4-0.2,1.4-0.2,1.6,0.1c1.1,1.4,2,3,3,4.4c0.1,0.1,0,0.2,0.1,0.6c-0.2,0.2-0.4,0.8-0.8,0.9c-0.3,0.2-1.1,0.2-1.3-0.1
			c-1.1-1.4-2-2.8-3-4.3C92.8,82.7,93.2,81.9,93.8,81.7z M110.1,124.3c-1.2,0-2.5,0-3.7,0c-1.5,0-3,0-4.5,0c-0.8,0-1.1-0.3-1.2-1
			c-0.1-2.1-0.1-2.1,2-2.1c2.7,0,5.3-0.1,7.9,0c1.2,0,1.3,0,1.4,1.2C112.1,124.3,112.1,124.3,110.1,124.3z M110.1,120
			c-1.2,0-2.5,0-3.7,0c-1.5,0-3,0-4.5,0c-0.8,0-1.1-0.3-1.2-1c-0.1-2.1-0.1-2.1,2-2.1c2.7,0,5.3-0.1,7.9,0c1.2,0,1.3,0,1.4,1.2
			C112.1,119.9,112.1,119.9,110.1,120z M117.4,98.2c-0.1,2.1-0.7,4.2-1.6,6c-1.6,3-3,6.1-3.7,9.4c-0.2,1.3-0.4,1.4-1.8,1.4
			c-1.3,0-2.6,0-3.8,0c-1.5,0-2.9,0-4.4,0c-0.7,0-1.1-0.2-1.3-0.9c-0.2-0.8-0.5-1.5-0.6-2.2c-0.6-2.7-1.9-5-3.1-7.4
			c-1.3-2.5-2.1-5.1-1.8-8c0.4-3.9,2.4-6.5,6.1-7.8c3.2-1.1,6.5-1.1,9.6-0.1C115.2,90.1,117.6,93.7,117.4,98.2z M118.8,83.4
			c-0.7,1.3-1.5,2.4-2.4,3.6c-0.5,0.8-1.4,1-2.1,0.4c-0.7-0.4-0.8-1.2-0.3-2.1c0.7-1.2,1.4-2.4,2.3-3.5c0.3-0.5,1.1-0.7,1.7-0.7
			c0.4,0,0.7,0.7,1,1C119,82.9,119,83.2,118.8,83.4z M126.9,103.6c-0.4,0.9-1.1,1.2-2.1,1c-1.4-0.2-2.7-0.4-4.1-0.6
			c-0.8-0.1-1.4-0.8-1.3-1.6c0.1-0.8,0.7-1.3,1.5-1.2c1.6,0.2,3.2,0.5,4.6,0.8c0.4,0.1,0.8,0.6,1.2,0.9
			C126.9,103.2,126.9,103.4,126.9,103.6z M126.8,91.6c-0.4,0.4-0.8,0.9-1.3,1.2c-1,0.6-2.1,1-3.2,1.6c-1,0.5-2,0.3-2.4-0.6
			c-0.3-0.7,0.1-1.5,1.1-2c1.1-0.6,2.3-0.9,3.5-1.5c1.2-0.6,1.6-0.4,2.4,0.7C126.8,91.2,126.8,91.4,126.8,91.6z"/>
	</g>
	<text transform="matrix(1 0 0 1 19.4622 165.9552)" class="st1 st4 st5">New Collection</text>
	<text transform="matrix(1 0 0 1 19.462 201.7052)"><tspan x="0" y="0" class="st4 st5">Create a collection of  </tspan><tspan x="0" y="16.8" class="st4 st5">explorations</tspan></text>
</g>
<rect x="12.8" y="35.4" class="st0" width="192" height="226.4"/>
<g>
	<rect x="17.3" y="16.8" class="st1" width="200" height="240"/>
	<rect x="17.2" y="16.8" class="st2" width="200" height="144"/>
	<g>
		
			<rect x="81.4" y="46.7" transform="matrix(1 -7.830633e-03 7.830633e-03 1 -0.6531 0.9312)" class="st3" width="74.4" height="74.4"/>
		<path class="st1" d="M118.4,52.2c-17.5,0.1-31.6,14.5-31.5,31.9s14.5,31.6,31.9,31.5c17.5-0.1,31.6-14.5,31.5-31.9
			C150.2,66.1,135.9,52.1,118.4,52.2z M118.2,60.1c0.3,0,0.5,0,0.8,0c0.7,0.5,1,1.1,1,1.9c0,1.2,0,2.4,0,3.6c0,1.1-0.5,1.8-1.4,1.8
			c-0.8,0-1.3-0.6-1.3-1.8c0-1.2,0.1-2.5,0-3.7C117.2,61.2,117.5,60.5,118.2,60.1z M98,72.7c0.9-1,1.3-1.1,2.5-0.5
			c1.2,0.4,2.4,0.9,3.4,1.5c0.9,0.4,1.3,1.1,1.1,1.8s-1.3,1.2-2.1,0.7c-1.4-0.6-2.8-1.3-4.1-1.9c-0.3-0.2-0.5-0.5-0.8-0.8
			C98,73.2,98,73,98,72.7z M104.4,85.7c-1.5,0.3-3,0.4-4.4,0.7c-0.8,0.1-1.4-0.3-1.8-0.9c0-0.2,0-0.4,0-0.6c0.4-0.8,1.1-1.1,1.9-1.1
			c1-0.2,2-0.4,3.1-0.5c0.3,0,0.6-0.1,1-0.1c0.8,0,1.5,0.3,1.6,1.1C105.9,85.1,105.1,85.6,104.4,85.7z M106.2,63.2
			c0.4-0.2,1.4-0.2,1.6,0.1c1.1,1.4,2,3,3,4.4c0.1,0.1,0,0.2,0.1,0.6c-0.2,0.2-0.4,0.8-0.8,0.9c-0.3,0.2-1.1,0.2-1.3-0.1
			c-1.1-1.4-2-2.8-3-4.3C105.2,64.2,105.6,63.4,106.2,63.2z M122.5,105.9c-1.2,0-2.5,0-3.7,0c-1.5,0-3,0-4.5,0c-0.8,0-1.1-0.3-1.2-1
			c-0.1-2.1-0.1-2.1,2-2.1c2.7,0,5.3-0.1,7.9,0c1.2,0,1.3,0,1.4,1.2C124.5,105.8,124.5,105.8,122.5,105.9z M122.5,101.5
			c-1.2,0-2.5,0-3.7,0c-1.5,0-3,0-4.5,0c-0.8,0-1.1-0.3-1.2-1c-0.1-2.1-0.1-2.1,2-2.1c2.7,0,5.3-0.1,7.9,0c1.2,0,1.3,0,1.4,1.2
			C124.5,101.5,124.5,101.5,122.5,101.5z M129.8,79.8c-0.1,2.1-0.7,4.2-1.6,6c-1.6,3-3,6.1-3.7,9.4c-0.2,1.3-0.4,1.4-1.8,1.4
			c-1.3,0-2.6,0-3.8,0c-1.5,0-2.9,0-4.4,0c-0.7,0-1.1-0.2-1.3-0.9c-0.2-0.8-0.5-1.5-0.6-2.2c-0.6-2.7-1.9-5-3.1-7.4
			c-1.3-2.5-2.1-5.1-1.8-8c0.4-3.9,2.4-6.5,6.1-7.8c3.2-1.1,6.5-1.1,9.6-0.1C127.6,71.7,130,75.3,129.8,79.8z M131.2,65
			c-0.7,1.3-1.5,2.4-2.4,3.6c-0.5,0.8-1.4,1-2.1,0.4c-0.7-0.4-0.8-1.2-0.3-2.1c0.7-1.2,1.4-2.4,2.3-3.5c0.3-0.5,1.1-0.7,1.7-0.7
			c0.4,0,0.7,0.7,1,1C131.4,64.4,131.4,64.7,131.2,65z M139.3,85.1c-0.4,0.9-1.1,1.2-2.1,1c-1.4-0.2-2.7-0.4-4.1-0.6
			c-0.8-0.1-1.4-0.8-1.3-1.6c0.1-0.8,0.7-1.3,1.5-1.2c1.6,0.2,3.2,0.5,4.6,0.8c0.4,0.1,0.8,0.6,1.2,0.9
			C139.3,84.7,139.3,84.9,139.3,85.1z M139.2,73.1c-0.4,0.4-0.8,0.9-1.3,1.2c-1,0.6-2.1,1-3.2,1.6c-1,0.5-2,0.3-2.4-0.6
			c-0.3-0.7,0.1-1.5,1.1-2c1.1-0.6,2.3-0.9,3.5-1.5c1.2-0.6,1.6-0.4,2.4,0.7C139.2,72.7,139.2,72.9,139.2,73.1z"/>
	</g>
	<text transform="matrix(1 0 0 1 31.8622 147.5089)" class="st1 st4 st5">New Collection</text>
	<text transform="matrix(1 0 0 1 31.862 183.2589)"><tspan x="0" y="0" class="st4 st5">Create a collection of  </tspan><tspan x="0" y="16.8" class="st4 st5">explorations</tspan></text>
</g>
<rect x="27.4" y="16.8" class="st0" width="189.9" height="227.7"/>
<g>
	<rect x="31.5" class="st1" width="200" height="240"/>
	<rect x="31.4" class="st2" width="200" height="144"/>
	<g>
		
			<rect x="95.6" y="29.9" transform="matrix(1 -7.830633e-03 7.830633e-03 1 -0.5215 1.0419)" class="st3" width="74.4" height="74.4"/>
		<path class="st1" d="M132.6,35.4c-17.5,0.1-31.6,14.5-31.5,31.9c0.1,17.5,14.5,31.6,31.9,31.5c17.5-0.1,31.6-14.5,31.5-31.9
			C164.4,49.4,150.1,35.3,132.6,35.4z M132.4,43.4c0.3,0,0.5,0,0.8,0c0.7,0.5,1,1.1,1,1.9c0,1.2,0,2.4,0,3.6c0,1.1-0.5,1.8-1.4,1.8
			c-0.8,0-1.3-0.6-1.3-1.8c0-1.2,0.1-2.5,0-3.7C131.4,44.5,131.7,43.8,132.4,43.4z M112.2,55.9c0.9-1,1.3-1.1,2.5-0.5
			c1.2,0.4,2.4,0.9,3.4,1.5c0.9,0.4,1.3,1.1,1.1,1.8c-0.2,0.7-1.3,1.2-2.1,0.7c-1.4-0.6-2.8-1.3-4.1-1.9c-0.3-0.2-0.5-0.5-0.8-0.8
			C112.2,56.4,112.2,56.2,112.2,55.9z M118.6,69c-1.5,0.3-3,0.4-4.4,0.7c-0.8,0.1-1.4-0.3-1.8-0.9c0-0.2,0-0.4,0-0.6
			c0.4-0.8,1.1-1.1,1.9-1.1c1-0.2,2-0.4,3.1-0.5c0.3,0,0.6-0.1,1-0.1c0.8,0,1.5,0.3,1.6,1.1C120.1,68.3,119.3,68.8,118.6,69z
			 M120.4,46.5c0.4-0.2,1.4-0.2,1.6,0.1c1.1,1.4,2,3,3,4.4c0.1,0.1,0,0.2,0.1,0.6c-0.2,0.2-0.4,0.8-0.8,0.9
			c-0.3,0.2-1.1,0.2-1.3-0.1c-1.1-1.4-2-2.8-3-4.3C119.4,47.5,119.8,46.7,120.4,46.5z M136.7,89.1c-1.2,0-2.5,0-3.7,0
			c-1.5,0-3,0-4.5,0c-0.8,0-1.1-0.3-1.2-1c-0.1-2.1-0.1-2.1,2-2.1c2.7,0,5.3-0.1,7.9,0c1.2,0,1.3,0,1.4,1.2
			C138.7,89.1,138.7,89.1,136.7,89.1z M136.7,84.8c-1.2,0-2.5,0-3.7,0c-1.5,0-3,0-4.5,0c-0.8,0-1.1-0.3-1.2-1
			c-0.1-2.1-0.1-2.1,2-2.1c2.7,0,5.3-0.1,7.9,0c1.2,0,1.3,0,1.4,1.2C138.7,84.7,138.7,84.7,136.7,84.8z M144,63
			c-0.1,2.1-0.7,4.2-1.6,6c-1.6,3-3,6.1-3.7,9.4c-0.2,1.3-0.4,1.4-1.8,1.4c-1.3,0-2.6,0-3.8,0c-1.5,0-2.9,0-4.4,0
			c-0.7,0-1.1-0.2-1.3-0.9c-0.2-0.8-0.5-1.5-0.6-2.2c-0.6-2.7-1.9-5-3.1-7.4c-1.3-2.5-2.1-5.1-1.8-8c0.4-3.9,2.4-6.5,6.1-7.8
			c3.2-1.1,6.5-1.1,9.6-0.1C141.8,54.9,144.2,58.5,144,63z M145.4,48.2c-0.7,1.3-1.5,2.4-2.4,3.6c-0.5,0.8-1.4,1-2.1,0.4
			c-0.7-0.4-0.8-1.2-0.3-2.1c0.7-1.2,1.4-2.4,2.3-3.5c0.3-0.5,1.1-0.7,1.7-0.7c0.4,0,0.7,0.7,1,1C145.6,47.7,145.6,47.9,145.4,48.2z
			 M153.5,68.4c-0.4,0.9-1.1,1.2-2.1,1c-1.4-0.2-2.7-0.4-4.1-0.6c-0.8-0.1-1.4-0.8-1.3-1.6c0.1-0.8,0.7-1.3,1.5-1.2
			c1.6,0.2,3.2,0.5,4.6,0.8c0.4,0.1,0.8,0.6,1.2,0.9C153.5,68,153.5,68.2,153.5,68.4z M153.4,56.4c-0.4,0.4-0.8,0.9-1.3,1.2
			c-1,0.6-2.1,1-3.2,1.6c-1,0.5-2,0.3-2.4-0.6c-0.3-0.7,0.1-1.5,1.1-2c1.1-0.6,2.3-0.9,3.5-1.5c1.2-0.6,1.6-0.4,2.4,0.7
			C153.4,56,153.4,56.2,153.4,56.4z"/>
	</g>
	<text transform="matrix(1 0 0 1 46.0682 130.75)" class="st1 st4 st5">New Collection</text>
	<text transform="matrix(1 0 0 1 46.068 166.5)"><tspan x="0" y="0" class="st4 st5">Create a collection of </tspan><tspan x="0" y="16.8" class="st4 st5">explorations</tspan></text>
</g>
</svg>
