<?xml version="1.0" encoding="utf-8"?>
<!-- Generator: Adobe Illustrator 19.2.1, SVG Export Plug-In . SVG Version: 6.00 Build 0)  -->
<svg version="1.1" id="Layer_1" xmlns="http://www.w3.org/2000/svg" xmlns:xlink="http://www.w3.org/1999/xlink" x="0px" y="0px"
	 viewBox="0 0 265.8 311" style="enable-background:new 0 0 265.8 311;" xml:space="preserve">
<style type="text/css">
	.st0{fill:#AFD2EB;}
	.st1{opacity:0.22;enable-background:new    ;}
	.st2{fill:#FFFFFF;}
	.st3{fill:#D0982A;}
	.st4{fill:none;}
	.st5{font-family:'Capriola-Regular';}
	.st6{font-size:14px;}
	.st7{font-family:'Rubik-Regular';}
</style>
<title>collection</title>
<rect class="st0" width="265.8" height="311"/>
<rect x="20.2" y="54.1" class="st1" width="200" height="239.1"/>
<g>
	<rect x="22.1" y="50.9" class="st2" width="200" height="240"/>
	<rect x="22" y="50.9" class="st3" width="200" height="144"/>
	<g>
		
			<rect x="86.2" y="80.8" transform="matrix(1 -7.830152e-03 7.830152e-03 1 -0.9202 0.9699)" class="st4" width="74.4" height="74.4"/>
		<path class="st2" d="M123.2,86.4c-17.5,0.1-31.6,14.5-31.5,31.9s14.5,31.6,31.9,31.5s31.6-14.5,31.5-31.9
			C155,100.3,140.7,86.3,123.2,86.4z M123,94.3c0.3,0,0.5,0,0.8,0c0.7,0.5,1,1.1,1,1.9c0,1.2,0,2.4,0,3.6c0,1.1-0.5,1.8-1.4,1.8
			c-0.8,0-1.3-0.6-1.3-1.8c0-1.2,0.1-2.5,0-3.7C122,95.4,122.3,94.7,123,94.3z M102.8,106.8c0.9-1,1.3-1.1,2.5-0.5
			c1.2,0.4,2.4,0.9,3.4,1.5c0.9,0.4,1.3,1.1,1.1,1.8s-1.3,1.2-2.1,0.7c-1.4-0.6-2.8-1.3-4.1-1.9c-0.3-0.2-0.5-0.5-0.8-0.8
			C102.8,107.3,102.8,107.1,102.8,106.8z M109.2,119.9c-1.5,0.3-3,0.4-4.4,0.7c-0.8,0.1-1.4-0.3-1.8-0.9c0-0.2,0-0.4,0-0.6
			c0.4-0.8,1.1-1.1,1.9-1.1c1-0.2,2-0.4,3.1-0.5c0.3,0,0.6-0.1,1-0.1c0.8,0,1.5,0.3,1.6,1.1C110.7,119.2,109.9,119.7,109.2,119.9z
			 M111,97.4c0.4-0.2,1.4-0.2,1.6,0.1c1.1,1.4,2,3,3,4.4c0.1,0.1,0,0.2,0.1,0.6c-0.2,0.2-0.4,0.8-0.8,0.9c-0.3,0.2-1.1,0.2-1.3-0.1
			c-1.1-1.4-2-2.8-3-4.3C110,98.4,110.4,97.6,111,97.4z M127.3,140c-1.2,0-2.5,0-3.7,0c-1.5,0-3,0-4.5,0c-0.8,0-1.1-0.3-1.2-1
			c-0.1-2.1-0.1-2.1,2-2.1c2.7,0,5.3-0.1,7.9,0c1.2,0,1.3,0,1.4,1.2C129.3,140,129.3,140,127.3,140z M127.3,135.7
			c-1.2,0-2.5,0-3.7,0c-1.5,0-3,0-4.5,0c-0.8,0-1.1-0.3-1.2-1c-0.1-2.1-0.1-2.1,2-2.1c2.7,0,5.3-0.1,7.9,0c1.2,0,1.3,0,1.4,1.2
			C129.3,135.6,129.3,135.6,127.3,135.7z M134.6,113.9c-0.1,2.1-0.7,4.2-1.6,6c-1.6,3-3,6.1-3.7,9.4c-0.2,1.3-0.4,1.4-1.8,1.4
			c-1.3,0-2.6,0-3.8,0c-1.5,0-2.9,0-4.4,0c-0.7,0-1.1-0.2-1.3-0.9c-0.2-0.8-0.5-1.5-0.6-2.2c-0.6-2.7-1.9-5-3.1-7.4
			c-1.3-2.5-2.1-5.1-1.8-8c0.4-3.9,2.4-6.5,6.1-7.8c3.2-1.1,6.5-1.1,9.6-0.1C132.4,105.8,134.8,109.4,134.6,113.9z M136,99.1
			c-0.7,1.3-1.5,2.4-2.4,3.6c-0.5,0.8-1.4,1-2.1,0.4c-0.7-0.4-0.8-1.2-0.3-2.1c0.7-1.2,1.4-2.4,2.3-3.5c0.3-0.5,1.1-0.7,1.7-0.7
			c0.4,0,0.7,0.7,1,1C136.2,98.6,136.2,98.9,136,99.1z M144.1,119.3c-0.4,0.9-1.1,1.2-2.1,1c-1.4-0.2-2.7-0.4-4.1-0.6
			c-0.8-0.1-1.4-0.8-1.3-1.6c0.1-0.8,0.7-1.3,1.5-1.2c1.6,0.2,3.2,0.5,4.6,0.8c0.4,0.1,0.8,0.6,1.2,0.9
			C144.1,118.9,144.1,119.1,144.1,119.3z M144,107.3c-0.4,0.4-0.8,0.9-1.3,1.2c-1,0.6-2.1,1-3.2,1.6c-1,0.5-2,0.3-2.4-0.6
			c-0.3-0.7,0.1-1.5,1.1-2c1.1-0.6,2.3-0.9,3.5-1.5s1.6-0.4,2.4,0.7C144,106.9,144,107.1,144,107.3z"/>
	</g>
	<text transform="matrix(1 0 0 1 36.6244 181.6608)" class="st2 st5 st6">New Collection</text>
	<text transform="matrix(1 0 0 1 36.6241 217.4108)" class="st7 st6">Create a collection of  </text>
	<text transform="matrix(1 0 0 1 36.6241 234.2109)" class="st7 st6">explorations</text>
</g>
<rect x="32.5" y="50.9" class="st1" width="189.6" height="224.6"/>
<g>
	<rect x="34.5" y="32.5" class="st2" width="200" height="240"/>
	<rect x="34.4" y="32.5" class="st3" width="200" height="144"/>
	<g>
		
			<rect x="98.6" y="62.4" transform="matrix(1 -7.830152e-03 7.830152e-03 1 -0.7757 1.0664)" class="st4" width="74.4" height="74.4"/>
		<path class="st2" d="M135.6,67.9C118.1,68,104,82.4,104.1,99.8s14.5,31.6,31.9,31.5c17.5-0.1,31.6-14.5,31.5-31.9
			C167.4,81.8,153.1,67.8,135.6,67.9z M135.4,75.8c0.3,0,0.5,0,0.8,0c0.7,0.5,1,1.1,1,1.9c0,1.2,0,2.4,0,3.6c0,1.1-0.5,1.8-1.4,1.8
			c-0.8,0-1.3-0.6-1.3-1.8c0-1.2,0.1-2.5,0-3.7C134.4,76.9,134.7,76.2,135.4,75.8z M115.2,88.4c0.9-1,1.3-1.1,2.5-0.5
			c1.2,0.4,2.4,0.9,3.4,1.5c0.9,0.4,1.3,1.1,1.1,1.8s-1.3,1.2-2.1,0.7c-1.4-0.6-2.8-1.3-4.1-1.9c-0.3-0.2-0.5-0.5-0.8-0.8
			C115.2,88.9,115.2,88.7,115.2,88.4z M121.6,101.4c-1.5,0.3-3,0.4-4.4,0.7c-0.8,0.1-1.4-0.3-1.8-0.9c0-0.2,0-0.4,0-0.6
			c0.4-0.8,1.1-1.1,1.9-1.1c1-0.2,2-0.4,3.1-0.5c0.3,0,0.6-0.1,1-0.1c0.8,0,1.5,0.3,1.6,1.1C123.1,100.8,122.3,101.3,121.6,101.4z
			 M123.4,78.9c0.4-0.2,1.4-0.2,1.6,0.1c1.1,1.4,2,3,3,4.4c0.1,0.1,0,0.2,0.1,0.6c-0.2,0.2-0.4,0.8-0.8,0.9
			c-0.3,0.2-1.1,0.2-1.3-0.1c-1.1-1.4-2-2.8-3-4.3C122.4,79.9,122.8,79.1,123.4,78.9z M139.7,121.6c-1.2,0-2.5,0-3.7,0
			c-1.5,0-3,0-4.5,0c-0.8,0-1.1-0.3-1.2-1c-0.1-2.1-0.1-2.1,2-2.1c2.7,0,5.3-0.1,7.9,0c1.2,0,1.3,0,1.4,1.2
			C141.7,121.5,141.7,121.5,139.7,121.6z M139.7,117.2c-1.2,0-2.5,0-3.7,0c-1.5,0-3,0-4.5,0c-0.8,0-1.1-0.3-1.2-1
			c-0.1-2.1-0.1-2.1,2-2.1c2.7,0,5.3-0.1,7.9,0c1.2,0,1.3,0,1.4,1.2C141.7,117.2,141.7,117.2,139.7,117.2z M147,95.5
			c-0.1,2.1-0.7,4.2-1.6,6c-1.6,3-3,6.1-3.7,9.4c-0.2,1.3-0.4,1.4-1.8,1.4c-1.3,0-2.6,0-3.8,0c-1.5,0-2.9,0-4.4,0
			c-0.7,0-1.1-0.2-1.3-0.9c-0.2-0.8-0.5-1.5-0.6-2.2c-0.6-2.7-1.9-5-3.1-7.4c-1.3-2.5-2.1-5.1-1.8-8c0.4-3.9,2.4-6.5,6.1-7.8
			c3.2-1.1,6.5-1.1,9.6-0.1C144.8,87.4,147.2,91,147,95.5z M148.4,80.7c-0.7,1.3-1.5,2.4-2.4,3.6c-0.5,0.8-1.4,1-2.1,0.4
			c-0.7-0.4-0.8-1.2-0.3-2.1c0.7-1.2,1.4-2.4,2.3-3.5c0.3-0.5,1.1-0.7,1.7-0.7c0.4,0,0.7,0.7,1,1C148.6,80.1,148.6,80.4,148.4,80.7z
			 M156.5,100.8c-0.4,0.9-1.1,1.2-2.1,1c-1.4-0.2-2.7-0.4-4.1-0.6c-0.8-0.1-1.4-0.8-1.3-1.6c0.1-0.8,0.7-1.3,1.5-1.2
			c1.6,0.2,3.2,0.5,4.6,0.8c0.4,0.1,0.8,0.6,1.2,0.9C156.5,100.4,156.5,100.6,156.5,100.8z M156.4,88.8c-0.4,0.4-0.8,0.9-1.3,1.2
			c-1,0.6-2.1,1-3.2,1.6c-1,0.5-2,0.3-2.4-0.6c-0.3-0.7,0.1-1.5,1.1-2c1.1-0.6,2.3-0.9,3.5-1.5s1.6-0.4,2.4,0.7
			C156.4,88.4,156.4,88.6,156.4,88.8z"/>
	</g>
	<text transform="matrix(1 0 0 1 49.0243 163.2145)" class="st2 st5 st6">New Collection</text>
	<text transform="matrix(1 0 0 1 49.0241 198.9645)" class="st7 st6">Create a collection of  </text>
	<text transform="matrix(1 0 0 1 49.0241 215.7645)" class="st7 st6">explorations</text>
</g>
<rect x="46.6" y="32.5" class="st1" width="187.9" height="225.7"/>
<g>
	<rect x="48.7" y="15.7" class="st2" width="200" height="240"/>
	<rect x="48.6" y="15.7" class="st3" width="200" height="144"/>
	<g>
		
			<rect x="112.8" y="45.6" transform="matrix(1 -7.830152e-03 7.830152e-03 1 -0.6438 1.1771)" class="st4" width="74.4" height="74.4"/>
		<path class="st2" d="M149.8,51.1c-17.5,0.1-31.6,14.5-31.5,31.9c0.1,17.5,14.5,31.6,31.9,31.5c17.5-0.1,31.6-14.5,31.5-31.9
			C181.6,65.1,167.3,51,149.8,51.1z M149.6,59.1c0.3,0,0.5,0,0.8,0c0.7,0.5,1,1.1,1,1.9c0,1.2,0,2.4,0,3.6c0,1.1-0.5,1.8-1.4,1.8
			c-0.8,0-1.3-0.6-1.3-1.8c0-1.2,0.1-2.5,0-3.7C148.6,60.2,148.9,59.5,149.6,59.1z M129.4,71.6c0.9-1,1.3-1.1,2.5-0.5
			c1.2,0.4,2.4,0.9,3.4,1.5c0.9,0.4,1.3,1.1,1.1,1.8c-0.2,0.7-1.3,1.2-2.1,0.7c-1.4-0.6-2.8-1.3-4.1-1.9c-0.3-0.2-0.5-0.5-0.8-0.8
			C129.4,72.1,129.4,71.9,129.4,71.6z M135.8,84.7c-1.5,0.3-3,0.4-4.4,0.7c-0.8,0.1-1.4-0.3-1.8-0.9c0-0.2,0-0.4,0-0.6
			c0.4-0.8,1.1-1.1,1.9-1.1c1-0.2,2-0.4,3.1-0.5c0.3,0,0.6-0.1,1-0.1c0.8,0,1.5,0.3,1.6,1.1C137.3,84,136.5,84.5,135.8,84.7z
			 M137.6,62.2c0.4-0.2,1.4-0.2,1.6,0.1c1.1,1.4,2,3,3,4.4c0.1,0.1,0,0.2,0.1,0.6c-0.2,0.2-0.4,0.8-0.8,0.9
			c-0.3,0.2-1.1,0.2-1.3-0.1c-1.1-1.4-2-2.8-3-4.3C136.6,63.2,137,62.4,137.6,62.2z M153.9,104.8c-1.2,0-2.5,0-3.7,0
			c-1.5,0-3,0-4.5,0c-0.8,0-1.1-0.3-1.2-1c-0.1-2.1-0.1-2.1,2-2.1c2.7,0,5.3-0.1,7.9,0c1.2,0,1.3,0,1.4,1.2
			C155.9,104.8,155.9,104.8,153.9,104.8z M153.9,100.5c-1.2,0-2.5,0-3.7,0c-1.5,0-3,0-4.5,0c-0.8,0-1.1-0.3-1.2-1
			c-0.1-2.1-0.1-2.1,2-2.1c2.7,0,5.3-0.1,7.9,0c1.2,0,1.3,0,1.4,1.2C155.9,100.4,155.9,100.4,153.9,100.5z M161.2,78.7
			c-0.1,2.1-0.7,4.2-1.6,6c-1.6,3-3,6.1-3.7,9.4c-0.2,1.3-0.4,1.4-1.8,1.4c-1.3,0-2.6,0-3.8,0c-1.5,0-2.9,0-4.4,0
			c-0.7,0-1.1-0.2-1.3-0.9c-0.2-0.8-0.5-1.5-0.6-2.2c-0.6-2.7-1.9-5-3.1-7.4c-1.3-2.5-2.1-5.1-1.8-8c0.4-3.9,2.4-6.5,6.1-7.8
			c3.2-1.1,6.5-1.1,9.6-0.1C159,70.6,161.4,74.2,161.2,78.7z M162.6,63.9c-0.7,1.3-1.5,2.4-2.4,3.6c-0.5,0.8-1.4,1-2.1,0.4
			c-0.7-0.4-0.8-1.2-0.3-2.1c0.7-1.2,1.4-2.4,2.3-3.5c0.3-0.5,1.1-0.7,1.7-0.7c0.4,0,0.7,0.7,1,1C162.8,63.4,162.8,63.6,162.6,63.9z
			 M170.7,84.1c-0.4,0.9-1.1,1.2-2.1,1c-1.4-0.2-2.7-0.4-4.1-0.6c-0.8-0.1-1.4-0.8-1.3-1.6c0.1-0.8,0.7-1.3,1.5-1.2
			c1.6,0.2,3.2,0.5,4.6,0.8c0.4,0.1,0.8,0.6,1.2,0.9C170.7,83.7,170.7,83.9,170.7,84.1z M170.6,72.1c-0.4,0.4-0.8,0.9-1.3,1.2
			c-1,0.6-2.1,1-3.2,1.6c-1,0.5-2,0.3-2.4-0.6c-0.3-0.7,0.1-1.5,1.1-2c1.1-0.6,2.3-0.9,3.5-1.5s1.6-0.4,2.4,0.7
			C170.6,71.7,170.6,71.9,170.6,72.1z"/>
	</g>
	<text transform="matrix(1 0 0 1 63.2303 146.4556)" class="st2 st5 st6">New Collection</text>
	<text transform="matrix(1 0 0 1 63.2301 182.2056)" class="st7 st6">Create a collection of </text>
	<text transform="matrix(1 0 0 1 63.2301 199.0057)" class="st7 st6">explorations</text>
</g>
</svg>
