<?xml version="1.0" encoding="utf-8"?>
<!-- Generator: Adobe Illustrator 19.2.1, SVG Export Plug-In . SVG Version: 6.00 Build 0)  -->
<svg version="1.1" id="Layer_1" xmlns="http://www.w3.org/2000/svg" xmlns:xlink="http://www.w3.org/1999/xlink" x="0px" y="0px"
     viewBox="0 0 253.5 305" style="enable-background:new 0 0 253.5 305;" xml:space="preserve">
<style type="text/css">
    .st0{fill:#AFD2EB;stroke:#000000;stroke-width:2;stroke-miterlimit:10;}
    .st1{fill:#FFFFFF;}
    .st2{fill:none;}
    .st3{font-family:'Capriola-Regular';}
    .st4{font-size:14px;}
</style>
<title>collection</title>
<g>
    <rect x="6.9" y="5.5" transform="matrix(0.9989 -4.582842e-02 4.582842e-02 0.9989 -6.0622 5.016)" class="st0" width="199" height="258.5"/>
    <rect x="11.7" y="173.6" transform="matrix(0.9989 -4.582842e-02 4.582842e-02 0.9989 -9.8808 5.279)" class="st1" width="197" height="89"/>
    <g>
        <rect x="67.8" y="31.6" transform="matrix(0.9989 -4.582842e-02 4.582842e-02 0.9989 -3.0576 4.8962)" class="st2" width="75" height="75"/>
        <path class="st1" d="M103.8,37.2C86.2,38,72.6,53,73.4,70.6c0.8,17.6,15.7,31.2,33.4,30.4c17.6-0.8,31.2-15.7,30.4-33.4
            S121.4,36.4,103.8,37.2z M103.9,45.2c0.3,0,0.5,0,0.8,0c0.7,0.4,1.1,1.1,1.1,1.9c0,1.2,0.1,2.4,0.2,3.6c0,1.1-0.5,1.8-1.3,1.8
            c-0.8,0-1.4-0.6-1.4-1.7c-0.1-1.2-0.1-2.4-0.2-3.7C103,46.3,103.2,45.6,103.9,45.2z M84.1,58.6c0.8-1,1.2-1.1,2.5-0.6
            c1.2,0.4,2.4,0.9,3.6,1.3c0.9,0.4,1.3,1.1,1.1,1.8C91,61.8,90,62.3,89.1,62c-1.4-0.5-2.8-1.1-4.2-1.7c-0.3-0.1-0.5-0.5-0.8-0.8
            C84.1,59.1,84.1,58.9,84.1,58.6z M90.9,71.5c-1.5,0.3-2.9,0.6-4.4,0.9c-0.8,0.2-1.4-0.3-1.9-0.9c0-0.2,0-0.4,0-0.6
            c0.4-0.8,1-1.1,1.8-1.3c1-0.2,2-0.5,3.1-0.7c0.3-0.1,0.6-0.1,1-0.1c0.8,0,1.5,0.3,1.6,1.1C92.2,70.8,91.7,71.3,90.9,71.5z
             M92,48.8c0.4-0.2,1.4-0.2,1.6,0.1c1.1,1.4,2.1,2.9,3.2,4.4c0.1,0.1,0.1,0.2,0.1,0.6c-0.2,0.2-0.4,0.8-0.8,1
            c-0.4,0.1-1.2,0.1-1.4-0.1c-1.1-1.4-2.2-2.8-3.2-4.3C91.1,49.8,91.4,49,92,48.8z M110,91.1c-1.2,0.1-2.5,0.1-3.7,0.2
            c-1.5,0.1-3,0.1-4.5,0.2c-0.8,0-1.1-0.3-1.2-1c-0.2-2.1-0.2-2.1,2-2.2c2.6-0.1,5.3-0.2,7.9-0.4c1.2-0.1,1.3,0,1.4,1.2
            C112,91,112,91,110,91.1z M109.8,86.7c-1.2,0.1-2.5,0.1-3.7,0.2c-1.5,0.1-3,0.1-4.5,0.2c-0.8,0-1.1-0.3-1.2-1
            c-0.2-2.1-0.2-2.1,2-2.2c2.6-0.1,5.3-0.2,7.9-0.4c1.2-0.1,1.3,0,1.4,1.2C111.8,86.6,111.8,86.6,109.8,86.7z M116.4,64.5
            c0,2.1-0.5,4.2-1.4,6.1c-1.5,3.1-2.9,6.2-3.3,9.7c-0.2,1.3-0.4,1.4-1.8,1.5c-1.3,0.1-2.6,0.1-3.8,0.2c-1.5,0.1-2.9,0.1-4.4,0.2
            c-0.7,0-1.1-0.2-1.3-0.9c-0.2-0.8-0.5-1.5-0.7-2.2c-0.7-2.7-2.1-5-3.4-7.4c-1.4-2.5-2.3-5.1-2.1-7.9c0.3-3.9,2.2-6.7,5.9-8.1
            c3.2-1.2,6.5-1.4,9.7-0.5C113.8,56.4,116.4,60,116.4,64.5z M117.3,49.6c-0.7,1.3-1.4,2.6-2.2,3.8c-0.5,0.8-1.4,1-2.1,0.6
            c-0.7-0.4-0.8-1.2-0.3-2.1c0.7-1.2,1.3-2.5,2.2-3.6c0.3-0.5,1.1-0.7,1.7-0.7c0.4,0,0.7,0.7,1,1C117.5,49,117.4,49.3,117.3,49.6z
             M126.1,69.6c-0.4,0.9-1.1,1.2-2,1.1c-1.4-0.1-2.7-0.3-4.1-0.4c-0.8-0.1-1.4-0.8-1.3-1.5c0.1-0.9,0.7-1.3,1.5-1.2
            c1.6,0.1,3.2,0.3,4.7,0.6c0.4,0.1,0.8,0.6,1.2,0.9C126.1,69.2,126.1,69.4,126.1,69.6z M125.6,57.5c-0.4,0.4-0.8,0.9-1.3,1.2
            c-1,0.6-2.1,1.2-3.2,1.7c-1,0.5-2,0.3-2.4-0.5c-0.4-0.7,0.1-1.5,1.1-2c1.1-0.6,2.3-1.1,3.5-1.6c1.2-0.6,1.6-0.4,2.4,0.7
            C125.6,57.1,125.6,57.3,125.6,57.5z"/>
    </g>
    <text transform="matrix(0.9989 -4.582842e-02 4.582842e-02 0.9989 21.7418 155.8193)" class="st1 st3 st4">New Collection</text>
    <text transform="matrix(0.9989 -4.582842e-02 4.582842e-02 0.9989 23.7376 199.3236)"><tspan x="0" y="0" class="st3 st4">Create a collection of  </tspan><tspan x="0" y="16.8" class="st3 st4">explorations</tspan></text>
</g>
<g>
    <rect x="26.6" y="21.2" transform="matrix(0.9996 2.903739e-02 -2.903739e-02 0.9996 4.4224 -3.5989)" class="st0" width="199" height="258.5"/>
    <rect x="25.2" y="189.4" transform="matrix(0.9996 2.903739e-02 -2.903739e-02 0.9996 6.845 -3.4933)" class="st1" width="197" height="89"/>
    <g>
        <rect x="92.4" y="47.5" transform="matrix(2.903739e-02 -0.9996 0.9996 2.903739e-02 41.2035 212.3841)" class="st2" width="75" height="75"/>
        <path class="st1" d="M130.9,53C113.2,52.5,98.5,66.4,98,84c-0.5,17.6,13.4,32.3,31,32.9c17.6,0.5,32.3-13.4,32.9-31
            C162.4,68.3,148.5,53.6,130.9,53z M130.4,61c0.3,0,0.5,0,0.8,0c0.7,0.5,1,1.2,0.9,2c-0.1,1.2-0.1,2.4-0.1,3.6
            c0,1.1-0.7,1.7-1.5,1.7c-0.8,0-1.3-0.7-1.3-1.8c0-1.2,0.1-2.4,0.1-3.7C129.4,62,129.7,61.4,130.4,61z M109.6,72.9
            c0.9-0.9,1.3-1,2.5-0.4c1.2,0.5,2.3,1,3.5,1.6c0.9,0.4,1.3,1.2,1,1.9s-1.3,1.1-2.2,0.7c-1.4-0.6-2.7-1.3-4.1-2
            c-0.3-0.2-0.5-0.6-0.7-0.9C109.6,73.4,109.6,73.2,109.6,72.9z M115.5,86.3c-1.5,0.2-3,0.4-4.5,0.6c-0.8,0.1-1.4-0.4-1.8-1.1
            c0-0.2,0-0.4,0-0.6c0.4-0.8,1.1-1,1.9-1.1c1-0.1,2.1-0.3,3.1-0.4c0.3,0,0.6-0.1,1-0.1c0.8,0,1.4,0.4,1.5,1.2
            C116.8,85.6,116.2,86.2,115.5,86.3z M118.2,63.7c0.4-0.1,1.4-0.1,1.6,0.2c1,1.5,1.9,3.1,2.8,4.6c0.1,0.1,0,0.2,0.1,0.6
            c-0.2,0.2-0.5,0.8-0.8,0.9c-0.4,0.1-1.2,0-1.4-0.2c-1-1.4-2-3-2.8-4.5C117.2,64.6,117.6,63.9,118.2,63.7z M133,107.2
            c-1.2,0-2.5-0.1-3.7-0.1c-1.5,0-3-0.1-4.5-0.1c-0.8,0-1.1-0.4-1.1-1.1c0-2.1,0-2.1,2.1-2.1c2.7,0.1,5.3,0.2,8,0.2
            c1.2,0,1.3,0.1,1.3,1.3C135,107.3,135,107.3,133,107.2z M133.2,102.9c-1.2,0-2.5-0.1-3.7-0.1c-1.5,0-3-0.1-4.5-0.1
            c-0.8,0-1.1-0.4-1.1-1.1c0-2.1,0-2.1,2.1-2.1c2.7,0.1,5.3,0.2,8,0.2c1.2,0,1.3,0.1,1.3,1.3C135.2,102.9,135.2,102.9,133.2,102.9z
             M141.3,81.2c-0.2,2.1-0.8,4.1-1.9,6c-1.7,3-3.3,6-4.1,9.4c-0.3,1.3-0.5,1.4-1.9,1.4c-1.3,0-2.6-0.1-3.8-0.1
            c-1.5,0-2.9-0.1-4.4-0.1c-0.7,0-1.1-0.3-1.3-1c-0.2-0.8-0.4-1.5-0.5-2.3c-0.5-2.7-1.7-5.2-2.9-7.6c-1.2-2.6-1.9-5.2-1.5-8.1
            c0.6-3.9,2.7-6.5,6.5-7.6c3.2-1,6.5-0.9,9.7,0.2C139.4,72.9,141.7,76.7,141.3,81.2z M143.4,66.4c-0.8,1.2-1.6,2.4-2.5,3.6
            c-0.6,0.7-1.5,0.9-2.1,0.4s-0.7-1.2-0.1-2.1c0.8-1.1,1.5-2.4,2.4-3.4c0.4-0.4,1.2-0.6,1.8-0.6c0.4,0,0.7,0.7,0.9,1.1
            C143.6,65.8,143.5,66.1,143.4,66.4z M150.7,87c-0.5,0.8-1.2,1.1-2.1,0.9c-1.4-0.2-2.7-0.5-4-0.7c-0.8-0.1-1.3-0.9-1.2-1.6
            c0.2-0.8,0.8-1.2,1.6-1.1c1.6,0.2,3.2,0.6,4.7,0.9c0.4,0.1,0.7,0.7,1.1,1C150.7,86.6,150.7,86.8,150.7,87z M151.1,74.9
            c-0.5,0.4-0.9,0.8-1.4,1.1c-1.1,0.5-2.2,1-3.3,1.5c-1.1,0.5-2,0.1-2.4-0.7c-0.3-0.7,0.2-1.5,1.2-1.9c1.2-0.5,2.4-0.9,3.6-1.4
            c1.2-0.5,1.6-0.3,2.3,0.8C151.1,74.5,151.1,74.7,151.1,74.9z"/>
    </g>
    <text transform="matrix(0.9996 2.903739e-02 -2.903739e-02 0.9996 40.1601 165.1787)" class="st1 st3 st4">New Collection</text>
    <text transform="matrix(0.9996 2.903739e-02 -2.903739e-02 0.9996 38.8955 208.7104)"><tspan x="0" y="0" class="st3 st4">Create a collection of  </tspan><tspan x="0" y="16.8" class="st3 st4">explorations</tspan></text>
</g>
<g>
    <rect x="44.1" y="38.4" transform="matrix(0.9972 7.446887e-02 -7.446887e-02 0.9972 12.8848 -10.227)" class="st0" width="199" height="258.5"/>
    <rect x="38.9" y="206.4" transform="matrix(0.9972 7.446887e-02 -7.446887e-02 0.9972 19.0684 -9.5328)" class="st1" width="197" height="89"/>
    <g>
        <rect x="112.9" y="64.9" transform="matrix(7.446887e-02 -0.9972 0.9972 7.446887e-02 37.0226 244.7378)" class="st2" width="75" height="75"/>
        <path class="st1" d="M152.8,70.6c-17.6-1.3-32.9,11.9-34.2,29.5c-1.3,17.6,11.9,32.9,29.5,34.2s32.9-11.9,34.2-29.5
            S170.3,71.9,152.8,70.6z M151.9,78.5c0.3,0,0.5,0,0.8,0.1c0.7,0.5,0.9,1.2,0.9,2c-0.1,1.2-0.2,2.4-0.3,3.6
            c-0.1,1.1-0.7,1.7-1.5,1.7c-0.8-0.1-1.3-0.7-1.2-1.9c0.1-1.2,0.2-2.4,0.3-3.7C150.8,79.5,151.2,78.9,151.9,78.5z M130.6,89.4
            c1-0.9,1.4-0.9,2.6-0.3c1.1,0.6,2.3,1.1,3.4,1.7c0.9,0.5,1.2,1.2,0.9,1.9c-0.3,0.7-1.4,1-2.2,0.6c-1.4-0.7-2.7-1.4-4-2.2
            c-0.3-0.2-0.5-0.6-0.7-0.9C130.6,90,130.6,89.7,130.6,89.4z M135.9,103.1c-1.5,0.2-3,0.2-4.5,0.3c-0.9,0.1-1.4-0.4-1.7-1.1
            c0-0.2,0-0.4,0-0.6c0.5-0.7,1.2-1,2-1c1.1-0.1,2.1-0.2,3.1-0.3c0.3,0,0.6,0,1,0c0.8,0.1,1.4,0.4,1.4,1.3
            C137.2,102.5,136.6,103,135.9,103.1z M139.6,80.6c0.5-0.1,1.4,0,1.6,0.3c1,1.5,1.8,3.2,2.6,4.7c0.1,0.1,0,0.2,0.1,0.6
            c-0.2,0.2-0.5,0.8-0.9,0.9c-0.4,0.1-1.2,0-1.4-0.3c-1-1.5-1.8-3-2.6-4.6C138.6,81.5,139,80.8,139.6,80.6z M152.5,124.8
            c-1.2-0.1-2.5-0.2-3.7-0.3c-1.5-0.1-3-0.3-4.5-0.3c-0.8-0.1-1.1-0.4-1-1.2c0.1-2.1,0.1-2.1,2.2-2c2.6,0.2,5.3,0.4,7.9,0.6
            c1.2,0.1,1.3,0.2,1.2,1.3C154.5,124.9,154.5,124.9,152.5,124.8z M152.8,120.4c-1.2-0.1-2.5-0.2-3.7-0.3c-1.5-0.1-3-0.3-4.5-0.3
            c-0.8-0.1-1.1-0.4-1-1.2c0.1-2.1,0.1-2.1,2.2-2c2.6,0.2,5.3,0.4,7.9,0.6c1.2,0.1,1.3,0.2,1.2,1.3
            C154.8,120.6,154.8,120.6,152.8,120.4z M161.9,99.2c-0.3,2.1-1,4.1-2.2,5.9c-1.8,2.9-3.6,5.9-4.5,9.2c-0.3,1.3-0.6,1.4-2,1.3
            c-1.3-0.1-2.6-0.2-3.8-0.3c-1.5-0.1-2.9-0.2-4.4-0.3c-0.7-0.1-1.1-0.4-1.2-1c-0.1-0.8-0.3-1.5-0.4-2.3c-0.4-2.7-1.5-5.2-2.5-7.7
            c-1.1-2.6-1.7-5.3-1.2-8.1c0.7-3.9,3-6.3,6.8-7.3c3.3-0.8,6.6-0.6,9.7,0.7C160.4,90.8,162.5,94.7,161.9,99.2z M164.7,84.5
            c-0.9,1.2-1.7,2.4-2.6,3.5c-0.6,0.7-1.5,0.8-2.1,0.3c-0.6-0.5-0.7-1.3,0-2.1c0.8-1.1,1.6-2.3,2.6-3.3c0.4-0.4,1.2-0.6,1.8-0.5
            c0.4,0,0.6,0.8,0.9,1.1C164.9,83.9,164.8,84.2,164.7,84.5z M171,105.4c-0.5,0.8-1.2,1-2.2,0.8c-1.3-0.3-2.7-0.6-4-0.9
            c-0.8-0.2-1.3-1-1.1-1.7c0.2-0.8,0.8-1.2,1.6-1c1.5,0.3,3.1,0.7,4.6,1.2c0.4,0.1,0.7,0.7,1,1C171.1,105,171,105.2,171,105.4z
             M171.9,93.3c-0.5,0.4-0.9,0.8-1.4,1c-1.1,0.5-2.2,0.9-3.4,1.3c-1.1,0.4-2,0.1-2.3-0.8c-0.3-0.7,0.2-1.5,1.3-1.8
            c1.2-0.4,2.4-0.8,3.6-1.2c1.2-0.4,1.6-0.2,2.3,0.9C172,92.9,171.9,93.1,171.9,93.3z"/>
    </g>
    <text transform="matrix(0.9972 7.446887e-02 -7.446887e-02 0.9972 57.0413 178.4539)" class="st1 st3 st4">New Collection</text>
    <text transform="matrix(0.9972 7.446887e-02 -7.446887e-02 0.9972 53.7981 221.883)"><tspan x="0" y="0" class="st3 st4">Create a collection of  </tspan><tspan x="0" y="16.8" class="st3 st4">explorations</tspan></text>
</g>
</svg>
