<svg id="Layer_1" data-name="Layer 1" xmlns="http://www.w3.org/2000/svg" viewBox="0 0 300 350"><defs><style>.cls-1{fill:#afd2eb;}.cls-2{opacity:0.22;}.cls-2,.cls-6{isolation:isolate;}.cls-3{fill:#fff;}.cls-4{fill:#d0982a;}.cls-5{fill:none;}</style></defs><title>collection</title><rect class="cls-1" width="300" height="350"/><rect class="cls-2" x="37.27" y="87.31" width="200" height="225.4"/><rect class="cls-3" x="39.17" y="70.41" width="200" height="240"/><rect class="cls-4" x="39.07" y="70.41" width="200" height="144"/><rect class="cls-5" x="103.28" y="100.31" width="74.4" height="74.4" transform="translate(-1.07 1.1) rotate(-0.45)"/><path class="cls-3" d="M140.27,105.91a31.7,31.7,0,1,0,31.9,31.5A31.77,31.77,0,0,0,140.27,105.91Zm-0.2,7.9h0.8a2.17,2.17,0,0,1,1,1.9v3.6c0,1.1-.5,1.8-1.4,1.8s-1.3-.6-1.3-1.8,0.1-2.5,0-3.7A1.75,1.75,0,0,1,140.07,113.81Zm-20.2,12.5c0.9-1,1.3-1.1,2.5-.5a17.5,17.5,0,0,1,3.4,1.5,1.55,1.55,0,0,1,1.1,1.8,1.48,1.48,0,0,1-2.1.7c-1.4-.6-2.8-1.3-4.1-1.9a6,6,0,0,1-.8-0.8v-0.8Zm6.4,13.1c-1.5.3-3,.4-4.4,0.7a1.83,1.83,0,0,1-1.8-.9v-0.6a2,2,0,0,1,1.9-1.1,28.68,28.68,0,0,1,3.1-.5c0.3,0,.6-0.1,1-0.1a1.39,1.39,0,0,1,1.6,1.1C127.77,138.71,127,139.21,126.27,139.41Zm1.8-22.5a1.76,1.76,0,0,1,1.6.1c1.1,1.4,2,3,3,4.4a2.18,2.18,0,0,1,.1.6,2.28,2.28,0,0,1-.8.9,1.21,1.21,0,0,1-1.3-.1c-1.1-1.4-2-2.8-3-4.3A1,1,0,0,1,128.07,116.91Zm16.3,42.6h-8.2a1,1,0,0,1-1.2-1c-0.1-2.1-.1-2.1,2-2.1,2.7,0,5.3-.1,7.9,0,1.2,0,1.3,0,1.4,1.2C146.37,159.51,146.37,159.51,144.37,159.51Zm0-4.3h-8.2a1,1,0,0,1-1.2-1c-0.1-2.1-.1-2.1,2-2.1,2.7,0,5.3-.1,7.9,0,1.2,0,1.3,0,1.4,1.2C146.37,155.11,146.37,155.11,144.37,155.21Zm7.3-21.8a15.27,15.27,0,0,1-1.6,6,36.08,36.08,0,0,0-3.7,9.4c-0.2,1.3-.4,1.4-1.8,1.4h-8.2a1.13,1.13,0,0,1-1.3-.9c-0.2-.8-0.5-1.5-0.6-2.2a32.18,32.18,0,0,0-3.1-7.4,13.9,13.9,0,0,1-1.8-8,8.57,8.57,0,0,1,6.1-7.8,15,15,0,0,1,9.6-.1A9.33,9.33,0,0,1,151.67,133.41Zm1.4-14.8a28.16,28.16,0,0,1-2.4,3.6,1.34,1.34,0,0,1-2.1.4c-0.7-.4-0.8-1.2-0.3-2.1a26.37,26.37,0,0,1,2.3-3.5,2.06,2.06,0,0,1,1.7-.7c0.4,0,.7.7,1,1A1.86,1.86,0,0,1,153.07,118.61Zm8.1,20.2a1.68,1.68,0,0,1-2.1,1l-4.1-.6a1.46,1.46,0,0,1-1.3-1.6,1.29,1.29,0,0,1,1.5-1.2c1.6,0.2,3.2.5,4.6,0.8a4.7,4.7,0,0,1,1.2.9A1.08,1.08,0,0,1,161.17,138.81Zm-0.1-12a7.41,7.41,0,0,1-1.3,1.2c-1,.6-2.1,1-3.2,1.6a1.63,1.63,0,0,1-2.4-.6c-0.3-.7.1-1.5,1.1-2s2.3-.9,3.5-1.5,1.6-.4,2.4.7A1.27,1.27,0,0,0,161.07,126.81Z"/><g class="cls-6"><path class="cls-3" d="M55.38,191.53a0.7,0.7,0,0,1,.74-0.85H56.4a0.78,0.78,0,0,1,.39.07,1.25,1.25,0,0,1,.38.39l4.4,6.48a4.86,4.86,0,0,1,.4.68l0.28,0.59h0a0.36,0.36,0,0,0,0-.18q0-.18-0.07-0.52a4.18,4.18,0,0,1-.05-0.67V191.1a0.43,0.43,0,0,1,.11-0.3,0.33,0.33,0,0,1,.26-0.12h0.9a0.32,0.32,0,0,1,.25.12,0.43,0.43,0,0,1,.11.3v9.38a0.54,0.54,0,0,1-.17.42,0.82,0.82,0,0,1-.52.26H62.67a0.89,0.89,0,0,1-.5-0.11,3.12,3.12,0,0,1-.57-0.67q-3.9-5.71-4.18-6.17l-0.57-1,0,0s0,0,0,.1,0,0.18.06,0.34,0,0.34.07,0.54q0.07,0.68.07,1.27v5.24a0.43,0.43,0,0,1-.11.29,0.33,0.33,0,0,1-.26.12h-0.9a0.32,0.32,0,0,1-.25-0.12,0.43,0.43,0,0,1-.11-0.29v-9.21Z"/><path class="cls-3" d="M67.77,197.68v0.13a2,2,0,0,0,.59,1.5,2.32,2.32,0,0,0,1.69.6,3.09,3.09,0,0,0,1.8-.58,0.51,0.51,0,0,1,.28-0.11,0.41,0.41,0,0,1,.38.25l0.18,0.38a0.71,0.71,0,0,1,.06.29,0.52,0.52,0,0,1-.14.33,1.45,1.45,0,0,1-.37.3,2.74,2.74,0,0,1-.52.24,5.46,5.46,0,0,1-.61.17,6.19,6.19,0,0,1-1.31.14,3.91,3.91,0,0,1-1.38-.26,3.36,3.36,0,0,1-1.2-.76,3.82,3.82,0,0,1-1.09-2.86q0-3.17,2.23-3.94a4.39,4.39,0,0,1,1.43-.24,4.35,4.35,0,0,1,1.25.16,2.57,2.57,0,0,1,.89.46,2.21,2.21,0,0,1,.79,1.81,2,2,0,0,1-.93,1.74,3.9,3.9,0,0,1-2.15.53A7.27,7.27,0,0,1,67.77,197.68Zm3.36-2q0-1-1.31-1a1.82,1.82,0,0,0-1.75.92,2.14,2.14,0,0,0-.23.79,3.34,3.34,0,0,0,1.5.29Q71.13,196.71,71.13,195.69Z"/><path class="cls-3" d="M85.13,193.45a0.38,0.38,0,0,1,.44.41,14.59,14.59,0,0,1-.67,3.89,8.37,8.37,0,0,1-1.32,2.8,1.51,1.51,0,0,1-1.18.7,1.42,1.42,0,0,1-1-.31,1.68,1.68,0,0,1-.48-0.9q-0.37-1.54-.52-2.1l-0.26-1L80,196.4l0,0.18-0.06.27-0.14.59a16.89,16.89,0,0,1-.63,1.95q-0.22.5-.38,0.78a3,3,0,0,1-.37.52,1.43,1.43,0,0,1-1.08.55,1.47,1.47,0,0,1-1.53-1.31Q75.42,198.47,75,197l-0.91-2.88a0.83,0.83,0,0,1,0-.27,0.39,0.39,0,0,1,.46-0.42H75.3a0.59,0.59,0,0,1,.56.51q0.4,1.4.7,2.75l0.59,2.69a0.26,0.26,0,0,0,.19.25,0.38,0.38,0,0,0,.28-0.27q0.13-.27.29-0.65c0.1-.26.2-0.53,0.3-0.83s0.19-.6.28-0.92,0.18-.63.25-1q0.23-1,.38-1.78l0-.29a0.61,0.61,0,0,1,.72-0.41,1.8,1.8,0,0,1,.55.05,0.94,0.94,0,0,1,.43.57q0.17,0.46.37,1.12t0.38,1.37q0.46,1.81.68,2.79a0.2,0.2,0,0,0,.14.2,0.58,0.58,0,0,0,.33-0.36,6.07,6.07,0,0,0,.41-1,13,13,0,0,0,.37-1.37,16.3,16.3,0,0,0,.36-3,0.39,0.39,0,0,1,.3-0.43l0.14,0h0.79Z"/><path class="cls-3" d="M98.81,192.9a0.71,0.71,0,0,1-.75.85H97.59a0.4,0.4,0,0,1-.34-0.16,0.82,0.82,0,0,1-.14-0.45,1,1,0,0,0-.17-0.52,1.22,1.22,0,0,0-.4-0.38,2.41,2.41,0,0,0-1.22-.27,2.64,2.64,0,0,0-1.32.32,2.56,2.56,0,0,0-.9.85,4.79,4.79,0,0,0-.66,2.67q0,3,2,3.77a3.24,3.24,0,0,0,1.18.23,4.23,4.23,0,0,0,1.83-.38l0.38-.18a0.82,0.82,0,0,1,.33-0.08,0.37,0.37,0,0,1,.23.07,1.06,1.06,0,0,1,.22.33,1,1,0,0,1,.13.44,0.63,0.63,0,0,1-.13.37,1.36,1.36,0,0,1-.32.32,3.15,3.15,0,0,1-.81.36,7,7,0,0,1-2,.26,4.86,4.86,0,0,1-2.06-.42,4.28,4.28,0,0,1-1.52-1.16,5.92,5.92,0,0,1-1.26-3.94A5.56,5.56,0,0,1,91.87,192a4.55,4.55,0,0,1,3.6-1.48,4.37,4.37,0,0,1,2.23.56A2,2,0,0,1,98.81,192.9Z"/><path class="cls-3" d="M100,197.28a4.35,4.35,0,0,1,.3-1.63,3.79,3.79,0,0,1,.82-1.27,4.13,4.13,0,0,1,5.61,0,4.11,4.11,0,0,1,1,2.91,4,4,0,0,1-1.11,2.93,4,4,0,0,1-5.54,0A4.07,4.07,0,0,1,100,197.28Zm2.2-1.74a2.64,2.64,0,0,0-.37.86,4.16,4.16,0,0,0-.12,1,3.35,3.35,0,0,0,.13.95,2.52,2.52,0,0,0,.4.81,1.94,1.94,0,0,0,1.64.78,1.88,1.88,0,0,0,1.63-.77,3,3,0,0,0,.49-1.83,2.52,2.52,0,0,0-1.13-2.39,2.26,2.26,0,0,0-2,0A1.94,1.94,0,0,0,102.16,195.54Z"/><path class="cls-3" d="M111.41,199.28q0,0.48.34,0.49a0.87,0.87,0,0,0,.28-0.06,1.81,1.81,0,0,1,.38-0.12,0.28,0.28,0,0,1,.25.2l0.21,0.49a0.52,0.52,0,0,1,0,.19,0.6,0.6,0,0,1-.26.38,2.06,2.06,0,0,1-1.36.43q-1.53,0-1.53-2v-9.75a0.47,0.47,0,0,1,.11-0.31,0.33,0.33,0,0,1,.26-0.13H111a0.32,0.32,0,0,1,.26.13,0.49,0.49,0,0,1,.1.31v9.8Z"/><path class="cls-3" d="M116.07,199.28q0,0.48.34,0.49a0.87,0.87,0,0,0,.28-0.06,1.81,1.81,0,0,1,.38-0.12,0.28,0.28,0,0,1,.25.2l0.21,0.49a0.52,0.52,0,0,1,0,.19,0.6,0.6,0,0,1-.26.38,2.06,2.06,0,0,1-1.36.43q-1.53,0-1.53-2v-9.75a0.47,0.47,0,0,1,.11-0.31,0.33,0.33,0,0,1,.26-0.13h0.92a0.32,0.32,0,0,1,.26.13,0.49,0.49,0,0,1,.1.31v9.8Z"/><path class="cls-3" d="M120.22,197.68v0.13a2,2,0,0,0,.59,1.5,2.32,2.32,0,0,0,1.69.6,3.09,3.09,0,0,0,1.8-.58,0.51,0.51,0,0,1,.28-0.11,0.41,0.41,0,0,1,.38.25l0.18,0.38a0.71,0.71,0,0,1,.06.29,0.52,0.52,0,0,1-.14.33,1.45,1.45,0,0,1-.37.3,2.74,2.74,0,0,1-.52.24,5.46,5.46,0,0,1-.61.17,6.19,6.19,0,0,1-1.31.14,3.91,3.91,0,0,1-1.38-.26,3.36,3.36,0,0,1-1.2-.76,3.82,3.82,0,0,1-1.09-2.86q0-3.17,2.23-3.94a4.39,4.39,0,0,1,1.43-.24,4.35,4.35,0,0,1,1.25.16,2.57,2.57,0,0,1,.89.46,2.21,2.21,0,0,1,.79,1.81,2,2,0,0,1-.93,1.74,3.9,3.9,0,0,1-2.15.53A7.27,7.27,0,0,1,120.22,197.68Zm3.36-2q0-1-1.31-1a1.82,1.82,0,0,0-1.75.92,2.14,2.14,0,0,0-.23.79,3.34,3.34,0,0,0,1.5.29Q123.59,196.71,123.59,195.69Z"/><path class="cls-3" d="M132.38,196.49a0.49,0.49,0,0,1-.56-0.55,1.21,1.21,0,0,0-.39-1,1.31,1.31,0,0,0-.9-0.29,1.72,1.72,0,0,0-.93.23,1.93,1.93,0,0,0-.6.59,3.12,3.12,0,0,0-.45,1.71,2.48,2.48,0,0,0,1.13,2.45,2,2,0,0,0,.91.21,2.58,2.58,0,0,0,.82-0.11,4.26,4.26,0,0,0,.57-0.24l0.44-.24a0.66,0.66,0,0,1,.31-0.11,0.44,0.44,0,0,1,.39.23l0.15,0.25a0.69,0.69,0,0,1,.1.34,0.59,0.59,0,0,1-.14.35,1.46,1.46,0,0,1-.37.33,3.2,3.2,0,0,1-.52.27,5.39,5.39,0,0,1-.61.21A4.14,4.14,0,0,1,129,201a3.36,3.36,0,0,1-1.92-2.11,5.12,5.12,0,0,1-.26-1.68,4.72,4.72,0,0,1,.28-1.67,3.61,3.61,0,0,1,.77-1.25,3.53,3.53,0,0,1,2.66-1.05,3,3,0,0,1,2.22.76,2.21,2.21,0,0,1,.65,1.63,0.74,0.74,0,0,1-.85.83h-0.16Z"/><path class="cls-3" d="M139.58,194.49a0.36,0.36,0,0,1-.43.38h-1.93v4.29a0.61,0.61,0,0,0,.69.7,2.36,2.36,0,0,0,1.14-.44,0.53,0.53,0,0,1,.3-0.09,0.3,0.3,0,0,1,.26.23l0.16,0.36a0.91,0.91,0,0,1,.09.35,0.5,0.5,0,0,1-.22.33,2.2,2.2,0,0,1-.55.34,3.4,3.4,0,0,1-1.37.34,3,3,0,0,1-1-.13,1.61,1.61,0,0,1-.61-0.38,2.05,2.05,0,0,1-.55-1.54v-4.36H135a0.36,0.36,0,0,1-.43-0.39v-0.39a0.35,0.35,0,0,1,.08-0.25,0.61,0.61,0,0,1,.32-0.14l0.68-.2,0.26-1.61a0.42,0.42,0,0,1,.37-0.45h0.57a0.32,0.32,0,0,1,.26.13,0.5,0.5,0,0,1,.1.32v1.54h1.93a0.36,0.36,0,0,1,.43.38v0.66Z"/><path class="cls-3" d="M142.05,192.13a1.09,1.09,0,0,1-.79-0.32,1.05,1.05,0,0,1-.33-0.79,1.1,1.1,0,0,1,1.12-1.11,1,1,0,0,1,1,.67,1.12,1.12,0,0,1-.24,1.23A1.09,1.09,0,0,1,142.05,192.13Zm0.8,7.15q0,0.48.32,0.49a0.61,0.61,0,0,0,.25-0.06,1.17,1.17,0,0,1,.36-0.12,0.27,0.27,0,0,1,.23.2l0.21,0.48a0.51,0.51,0,0,1,.05.22,0.72,0.72,0,0,1-.51.55,2.06,2.06,0,0,1-.95.25,2.23,2.23,0,0,1-.75-0.1,1.11,1.11,0,0,1-.48-0.34,2.56,2.56,0,0,1-.4-1.6V193.9a0.48,0.48,0,0,1,.11-0.32,0.33,0.33,0,0,1,.26-0.13h0.92a0.32,0.32,0,0,1,.26.13,0.5,0.5,0,0,1,.1.32v5.38Z"/><path class="cls-3" d="M145.45,197.28a4.35,4.35,0,0,1,.3-1.63,3.79,3.79,0,0,1,.82-1.27,4.13,4.13,0,0,1,5.61,0,4.11,4.11,0,0,1,1,2.91,4,4,0,0,1-1.11,2.93,4,4,0,0,1-5.54,0A4.07,4.07,0,0,1,145.45,197.28Zm2.2-1.74a2.64,2.64,0,0,0-.37.86,4.16,4.16,0,0,0-.12,1,3.35,3.35,0,0,0,.13.95,2.52,2.52,0,0,0,.4.81,1.94,1.94,0,0,0,1.64.78,1.88,1.88,0,0,0,1.63-.77,3,3,0,0,0,.49-1.83,2.52,2.52,0,0,0-1.13-2.39,2.26,2.26,0,0,0-2,0A1.94,1.94,0,0,0,147.65,195.54Z"/><path class="cls-3" d="M155.22,193.94a0.43,0.43,0,0,1,.47-0.49h0.38a0.52,0.52,0,0,1,.52.29,4.92,4.92,0,0,1,.33,1.08,2.82,2.82,0,0,1,1.83-1.44,3.76,3.76,0,0,1,1-.1,2.32,2.32,0,0,1,1.06.24,1.92,1.92,0,0,1,.77.67,4.09,4.09,0,0,1,.52,2.28v4.25a0.45,0.45,0,0,1-.12.32,0.47,0.47,0,0,1-.36.13h-0.67a0.5,0.5,0,0,1-.38-0.13,0.45,0.45,0,0,1-.12-0.32v-4.25q0-1.75-1.29-1.75a1.9,1.9,0,0,0-1.37.63,2.18,2.18,0,0,0-.66,1.57v3.8a0.46,0.46,0,0,1-.12.32,0.45,0.45,0,0,1-.36.13h-0.7a0.48,0.48,0,0,1-.36-0.13,0.45,0.45,0,0,1-.12-0.32v-4.2a13.79,13.79,0,0,0-.09-1.92C155.25,194.23,155.22,194,155.22,193.94Z"/></g><g class="cls-6"><g class="cls-6"><path d="M56.63,235.08a2.5,2.5,0,0,0,1.9.71,2.65,2.65,0,0,0,1.82-.53,2.59,2.59,0,0,0,.78-1.37,0.37,0.37,0,0,1,.13-0.22,0.36,0.36,0,0,1,.23-0.08h0.64a0.31,0.31,0,0,1,.31.31,3.13,3.13,0,0,1-.45,1.42,3.39,3.39,0,0,1-1.29,1.24,4.31,4.31,0,0,1-2.18.5,4.17,4.17,0,0,1-2.06-.49,3.46,3.46,0,0,1-1.36-1.35,4.27,4.27,0,0,1-.53-2q0-.42,0-1.25t0-1.25a4.26,4.26,0,0,1,.53-2,3.46,3.46,0,0,1,1.36-1.35,4.17,4.17,0,0,1,2.06-.49,4.3,4.3,0,0,1,2.18.5A3.39,3.39,0,0,1,62,228.71a3.13,3.13,0,0,1,.45,1.42,0.31,0.31,0,0,1-.31.31H61.49a0.36,0.36,0,0,1-.23-0.08,0.37,0.37,0,0,1-.13-0.22,2.6,2.6,0,0,0-.78-1.37,2.65,2.65,0,0,0-1.82-.53,2.5,2.5,0,0,0-1.9.71,2.77,2.77,0,0,0-.72,1.9q0,0.42,0,1.18t0,1.18A2.77,2.77,0,0,0,56.63,235.08Z"/><path d="M68.09,229.74a0.37,0.37,0,0,1,.11.27v0.45a0.38,0.38,0,0,1-.38.38H67a1.45,1.45,0,0,0-1.61,1.61v4.09a0.38,0.38,0,0,1-.38.38H64.5a0.38,0.38,0,0,1-.38-0.38V230a0.38,0.38,0,0,1,.38-0.38H65a0.38,0.38,0,0,1,.38.38v0.43a1.75,1.75,0,0,1,.67-0.62,2.29,2.29,0,0,1,1-.2h0.73A0.37,0.37,0,0,1,68.09,229.74Z"/><path d="M74.5,230.44a3.7,3.7,0,0,1,.87,2.59v0.38a0.38,0.38,0,0,1-.38.38H70.17v0.08a2,2,0,0,0,.57,1.45,1.91,1.91,0,0,0,1.39.52,2.6,2.6,0,0,0,1.08-.18,2.23,2.23,0,0,0,.69-0.52,0.74,0.74,0,0,1,.2-0.15,0.59,0.59,0,0,1,.25,0h0.42a0.38,0.38,0,0,1,.28.11,0.32,0.32,0,0,1,.1.27,1.53,1.53,0,0,1-.41.78,2.75,2.75,0,0,1-1,.67,4.18,4.18,0,0,1-1.59.27,3.08,3.08,0,0,1-1.6-.41,3,3,0,0,1-1.11-1.14,4,4,0,0,1-.5-1.64q0-.42,0-0.64t0-.64a3.76,3.76,0,0,1,.5-1.57,3.06,3.06,0,0,1,1.11-1.11,3.11,3.11,0,0,1,1.6-.41A3,3,0,0,1,74.5,230.44Zm-0.39,2.17v0a1.79,1.79,0,0,0-.54-1.37,2,2,0,0,0-1.44-.51,2,2,0,0,0-1.38.52,1.8,1.8,0,0,0-.58,1.36v0h3.93Z"/><path d="M81.39,232.3v-0.18a1.29,1.29,0,0,0-.46-1.06,1.81,1.81,0,0,0-1.18-.37,1.71,1.71,0,0,0-.87.19,2.11,2.11,0,0,0-.59.57,0.46,0.46,0,0,1-.18.15,0.7,0.7,0,0,1-.27,0H77.41a0.38,0.38,0,0,1-.27-0.11,0.31,0.31,0,0,1-.1-0.27,1.48,1.48,0,0,1,.41-0.83,2.79,2.79,0,0,1,1-.68,3.29,3.29,0,0,1,1.32-.27,3,3,0,0,1,2.11.73,2.62,2.62,0,0,1,.8,2v4.27a0.38,0.38,0,0,1-.38.38H81.76a0.38,0.38,0,0,1-.38-0.38V236a1.64,1.64,0,0,1-1,.8,3.86,3.86,0,0,1-1.46.29,3,3,0,0,1-1.27-.26,2,2,0,0,1-.86-0.71,1.77,1.77,0,0,1-.3-1,2,2,0,0,1,.78-1.64,4.62,4.62,0,0,1,2.09-.81Zm0,1.12-1.65.27a3.77,3.77,0,0,0-1.41.46,0.92,0.92,0,0,0-.5.79,0.82,0.82,0,0,0,.32.63,1.46,1.46,0,0,0,1,.28,2.34,2.34,0,0,0,1.64-.57,1.93,1.93,0,0,0,.63-1.5v-0.35Z"/><path d="M86.77,235.38a1.11,1.11,0,0,0,.93.32h0.74a0.38,0.38,0,0,1,.38.38v0.45a0.38,0.38,0,0,1-.38.38H87.56a2.24,2.24,0,0,1-1.75-.62,2.65,2.65,0,0,1-.56-1.83v-3.63h-1a0.38,0.38,0,0,1-.38-0.38V230a0.38,0.38,0,0,1,.38-0.38h1v-2.28a0.38,0.38,0,0,1,.38-0.38h0.52a0.38,0.38,0,0,1,.38.38v2.28H88.3a0.38,0.38,0,0,1,.38.38v0.45a0.38,0.38,0,0,1-.38.38H86.52v3.63A1.5,1.5,0,0,0,86.77,235.38Z"/><path d="M95.46,230.44a3.7,3.7,0,0,1,.87,2.59v0.38a0.38,0.38,0,0,1-.38.38H91.13v0.08a2,2,0,0,0,.57,1.45,1.91,1.91,0,0,0,1.39.52,2.6,2.6,0,0,0,1.08-.18,2.23,2.23,0,0,0,.69-0.52,0.74,0.74,0,0,1,.2-0.15,0.59,0.59,0,0,1,.25,0h0.42a0.38,0.38,0,0,1,.28.11,0.32,0.32,0,0,1,.1.27,1.53,1.53,0,0,1-.41.78,2.75,2.75,0,0,1-1,.67,4.18,4.18,0,0,1-1.59.27,3.08,3.08,0,0,1-1.6-.41,3,3,0,0,1-1.11-1.14,4,4,0,0,1-.5-1.64q0-.42,0-0.64t0-.64a3.76,3.76,0,0,1,.5-1.57,3.06,3.06,0,0,1,1.11-1.11,3.11,3.11,0,0,1,1.6-.41A3,3,0,0,1,95.46,230.44Zm-0.39,2.17v0a1.79,1.79,0,0,0-.54-1.37,2,2,0,0,0-1.44-.51,2,2,0,0,0-1.38.52,1.8,1.8,0,0,0-.58,1.36v0h3.93Z"/><path d="M105.76,232.3v-0.18a1.29,1.29,0,0,0-.46-1.06,1.81,1.81,0,0,0-1.18-.37,1.71,1.71,0,0,0-.87.19,2.11,2.11,0,0,0-.59.57,0.46,0.46,0,0,1-.18.15,0.7,0.7,0,0,1-.27,0h-0.42a0.38,0.38,0,0,1-.27-0.11,0.31,0.31,0,0,1-.1-0.27,1.48,1.48,0,0,1,.41-0.83,2.79,2.79,0,0,1,1-.68,3.29,3.29,0,0,1,1.32-.27,3,3,0,0,1,2.11.73,2.62,2.62,0,0,1,.8,2v4.27a0.38,0.38,0,0,1-.38.38h-0.52a0.38,0.38,0,0,1-.38-0.38V236a1.64,1.64,0,0,1-1,.8,3.86,3.86,0,0,1-1.46.29,3,3,0,0,1-1.27-.26,2,2,0,0,1-.86-0.71,1.77,1.77,0,0,1-.3-1,2,2,0,0,1,.78-1.64,4.62,4.62,0,0,1,2.09-.81Zm0,1.12-1.65.27a3.77,3.77,0,0,0-1.41.46,0.92,0.92,0,0,0-.5.79,0.82,0.82,0,0,0,.32.63,1.46,1.46,0,0,0,1,.28,2.34,2.34,0,0,0,1.64-.57,1.93,1.93,0,0,0,.63-1.5v-0.35Z"/><path d="M117.32,234.75a0.89,0.89,0,0,1,.2-0.29,0.4,0.4,0,0,1,.27-0.08h0.42a0.37,0.37,0,0,1,.27.11,0.32,0.32,0,0,1,.11.25,1.82,1.82,0,0,1-.38,1,3,3,0,0,1-1.09.92,3.54,3.54,0,0,1-1.68.38,3.38,3.38,0,0,1-1.72-.42,2.87,2.87,0,0,1-1.12-1.15,3.83,3.83,0,0,1-.43-1.65c0-.11,0-0.33,0-0.64s0-.38,0-0.48a3.77,3.77,0,0,1,1-2.32,3,3,0,0,1,2.31-.9,3.56,3.56,0,0,1,1.67.37,2.92,2.92,0,0,1,1.08.91,2,2,0,0,1,.4,1,0.31,0.31,0,0,1-.1.27,0.39,0.39,0,0,1-.27.11h-0.42a0.4,0.4,0,0,1-.27-0.08,0.88,0.88,0,0,1-.2-0.29,1.87,1.87,0,0,0-1.89-1.09,1.94,1.94,0,0,0-1.34.52,2.27,2.27,0,0,0-.66,1.57q0,0.15,0,.5c0,0.21,0,.37,0,0.48a2.33,2.33,0,0,0,.67,1.57,1.92,1.92,0,0,0,1.34.52A1.87,1.87,0,0,0,117.32,234.75Z"/><path d="M126.59,233.28q0,0.34,0,.64a3.5,3.5,0,0,1-1,2.28,3.63,3.63,0,0,1-4.66,0,3.5,3.5,0,0,1-1-2.28c0-.1,0-0.32,0-0.64s0-.57,0-0.67a3.43,3.43,0,0,1,1-2.28,3.65,3.65,0,0,1,4.68,0,3.43,3.43,0,0,1,1,2.28C126.58,232.82,126.59,233,126.59,233.28Zm-1.9-2a2.2,2.2,0,0,0-2.9,0,2.36,2.36,0,0,0-.6,1.44c0,0.11,0,.31,0,0.6s0,0.47,0,.57a2.36,2.36,0,0,0,.6,1.44,2.2,2.2,0,0,0,2.9,0,2.36,2.36,0,0,0,.6-1.44q0-.31,0-0.57c0-.18,0-0.38,0-0.6A2.36,2.36,0,0,0,124.69,231.24Z"/><path d="M129.5,236.8a0.36,0.36,0,0,1-.27.11h-0.52a0.38,0.38,0,0,1-.38-0.38v-9.18a0.38,0.38,0,0,1,.38-0.38h0.52a0.38,0.38,0,0,1,.38.38v9.18A0.36,0.36,0,0,1,129.5,236.8Z"/><path d="M132.88,236.8a0.36,0.36,0,0,1-.27.11h-0.52a0.38,0.38,0,0,1-.38-0.38v-9.18a0.38,0.38,0,0,1,.38-0.38h0.52a0.38,0.38,0,0,1,.38.38v9.18A0.36,0.36,0,0,1,132.88,236.8Z"/><path d="M140.33,230.44a3.7,3.7,0,0,1,.87,2.59v0.38a0.38,0.38,0,0,1-.38.38H136v0.08a2,2,0,0,0,.57,1.45,1.91,1.91,0,0,0,1.39.52,2.6,2.6,0,0,0,1.08-.18,2.23,2.23,0,0,0,.69-0.52,0.74,0.74,0,0,1,.2-0.15,0.59,0.59,0,0,1,.25,0h0.42a0.38,0.38,0,0,1,.28.11,0.32,0.32,0,0,1,.1.27,1.53,1.53,0,0,1-.41.78,2.75,2.75,0,0,1-1,.67,4.18,4.18,0,0,1-1.59.27,3.08,3.08,0,0,1-1.6-.41,3,3,0,0,1-1.11-1.14,4,4,0,0,1-.5-1.64q0-.42,0-0.64t0-.64a3.76,3.76,0,0,1,.5-1.57,3.06,3.06,0,0,1,1.11-1.11,3.11,3.11,0,0,1,1.6-.41A3,3,0,0,1,140.33,230.44Zm-0.39,2.17v0a1.79,1.79,0,0,0-.54-1.37,2,2,0,0,0-1.44-.51,2,2,0,0,0-1.38.52,1.8,1.8,0,0,0-.58,1.36v0h3.93Z"/><path d="M147.72,234.75a0.89,0.89,0,0,1,.2-0.29,0.4,0.4,0,0,1,.27-0.08h0.42a0.37,0.37,0,0,1,.27.11,0.32,0.32,0,0,1,.11.25,1.82,1.82,0,0,1-.38,1,3,3,0,0,1-1.09.92,3.54,3.54,0,0,1-1.68.38,3.38,3.38,0,0,1-1.72-.42,2.87,2.87,0,0,1-1.12-1.15,3.83,3.83,0,0,1-.43-1.65c0-.11,0-0.33,0-0.64s0-.38,0-0.48a3.77,3.77,0,0,1,1-2.32,3,3,0,0,1,2.31-.9,3.56,3.56,0,0,1,1.67.37,2.92,2.92,0,0,1,1.08.91,2,2,0,0,1,.4,1,0.31,0.31,0,0,1-.1.27,0.39,0.39,0,0,1-.27.11h-0.42a0.4,0.4,0,0,1-.27-0.08,0.88,0.88,0,0,1-.2-0.29,1.87,1.87,0,0,0-1.89-1.09,1.94,1.94,0,0,0-1.34.52,2.27,2.27,0,0,0-.66,1.57q0,0.15,0,.5c0,0.21,0,.37,0,0.48a2.33,2.33,0,0,0,.67,1.57,1.92,1.92,0,0,0,1.34.52A1.87,1.87,0,0,0,147.72,234.75Z"/><path d="M152.81,235.38a1.11,1.11,0,0,0,.93.32h0.74a0.38,0.38,0,0,1,.38.38v0.45a0.38,0.38,0,0,1-.38.38H153.6a2.24,2.24,0,0,1-1.75-.62,2.65,2.65,0,0,1-.56-1.83v-3.63h-1a0.38,0.38,0,0,1-.38-0.38V230a0.38,0.38,0,0,1,.38-0.38h1v-2.28a0.38,0.38,0,0,1,.38-0.38h0.52a0.38,0.38,0,0,1,.38.38v2.28h1.78a0.38,0.38,0,0,1,.38.38v0.45a0.38,0.38,0,0,1-.38.38h-1.78v3.63A1.5,1.5,0,0,0,152.81,235.38Z"/><path d="M157.56,228.41a0.36,0.36,0,0,1-.27.11h-0.8a0.38,0.38,0,0,1-.38-0.38v-0.8a0.38,0.38,0,0,1,.38-0.38h0.8a0.38,0.38,0,0,1,.38.38v0.8A0.36,0.36,0,0,1,157.56,228.41Zm-0.14,8.39a0.36,0.36,0,0,1-.27.11h-0.52a0.38,0.38,0,0,1-.38-0.38V230a0.38,0.38,0,0,1,.38-0.38h0.52a0.38,0.38,0,0,1,.38.38v6.52A0.36,0.36,0,0,1,157.42,236.8Z"/><path d="M166,233.28q0,0.34,0,.64a3.5,3.5,0,0,1-1,2.28,3.63,3.63,0,0,1-4.66,0,3.5,3.5,0,0,1-1-2.28c0-.1,0-0.32,0-0.64s0-.57,0-0.67a3.43,3.43,0,0,1,1-2.28,3.65,3.65,0,0,1,4.68,0,3.43,3.43,0,0,1,1,2.28C166,232.82,166,233,166,233.28Zm-1.9-2a2.2,2.2,0,0,0-2.9,0,2.36,2.36,0,0,0-.59,1.44c0,0.11,0,.31,0,0.6s0,0.47,0,.57a2.36,2.36,0,0,0,.59,1.44,2.2,2.2,0,0,0,2.9,0,2.36,2.36,0,0,0,.59-1.44q0-.31,0-0.57c0-.18,0-0.38,0-0.6A2.36,2.36,0,0,0,164.06,231.24Z"/><path d="M174.06,236.8a0.36,0.36,0,0,1-.27.11h-0.52a0.38,0.38,0,0,1-.38-0.38v-3.7a2.23,2.23,0,0,0-.52-1.6,2.17,2.17,0,0,0-2.88,0,2.22,2.22,0,0,0-.52,1.6v3.7a0.38,0.38,0,0,1-.38.38h-0.52a0.38,0.38,0,0,1-.38-0.38V230a0.38,0.38,0,0,1,.38-0.38h0.52a0.38,0.38,0,0,1,.38.38v0.43a2.41,2.41,0,0,1,.85-0.68,2.91,2.91,0,0,1,1.32-.27,3.19,3.19,0,0,1,1.57.38,2.67,2.67,0,0,1,1.07,1.08,3.45,3.45,0,0,1,.38,1.67v3.91A0.36,0.36,0,0,1,174.06,236.8Z"/><path d="M186,233.28q0,0.34,0,.64a3.5,3.5,0,0,1-1,2.28,3.63,3.63,0,0,1-4.66,0,3.5,3.5,0,0,1-1-2.28c0-.1,0-0.32,0-0.64s0-.57,0-0.67a3.43,3.43,0,0,1,1-2.28,3.65,3.65,0,0,1,4.68,0,3.43,3.43,0,0,1,1,2.28C185.94,232.82,186,233,186,233.28Zm-1.9-2a2.2,2.2,0,0,0-2.9,0,2.36,2.36,0,0,0-.59,1.44c0,0.11,0,.31,0,0.6s0,0.47,0,.57a2.36,2.36,0,0,0,.59,1.44,2.2,2.2,0,0,0,2.9,0,2.36,2.36,0,0,0,.59-1.44q0-.31,0-0.57c0-.18,0-0.38,0-0.6A2.36,2.36,0,0,0,184.05,231.24Z"/><path d="M191.41,229.63a0.38,0.38,0,0,1,.38.38v0.45a0.38,0.38,0,0,1-.38.38h-1.78v5.7a0.38,0.38,0,0,1-.38.38h-0.52a0.38,0.38,0,0,1-.38-0.38v-5.7h-1.18a0.38,0.38,0,0,1-.38-0.38V230a0.38,0.38,0,0,1,.38-0.38h1.18v-0.7a2.52,2.52,0,0,1,.56-1.79,2.32,2.32,0,0,1,1.75-.59h0.88a0.38,0.38,0,0,1,.38.38v0.45a0.38,0.38,0,0,1-.38.38h-0.74a1.11,1.11,0,0,0-.93.32,1.5,1.5,0,0,0-.25.92v0.63h1.78Z"/></g><g class="cls-6"><path d="M60,247.24a3.7,3.7,0,0,1,.87,2.59v0.38a0.38,0.38,0,0,1-.38.38H55.7v0.08a2,2,0,0,0,.57,1.45,1.91,1.91,0,0,0,1.39.52,2.6,2.6,0,0,0,1.08-.18,2.23,2.23,0,0,0,.69-0.52,0.74,0.74,0,0,1,.2-0.15,0.59,0.59,0,0,1,.25,0H60.3a0.38,0.38,0,0,1,.28.11,0.32,0.32,0,0,1,.1.27,1.53,1.53,0,0,1-.41.78,2.75,2.75,0,0,1-1,.67,4.18,4.18,0,0,1-1.59.27,3.08,3.08,0,0,1-1.6-.41,3,3,0,0,1-1.11-1.14,4,4,0,0,1-.5-1.64q0-.42,0-0.64t0-.64a3.76,3.76,0,0,1,.5-1.57,3.06,3.06,0,0,1,1.11-1.11,3.11,3.11,0,0,1,1.6-.41A3,3,0,0,1,60,247.24Zm-0.39,2.17v0a1.79,1.79,0,0,0-.54-1.37,2,2,0,0,0-1.44-.51,2,2,0,0,0-1.38.52,1.8,1.8,0,0,0-.58,1.36v0h3.93Z"/><path d="M63.21,253.44a1.49,1.49,0,0,1-.2.19,0.39,0.39,0,0,1-.25.08H62.12a0.32,0.32,0,0,1-.24-0.1,0.31,0.31,0,0,1-.1-0.22,0.34,0.34,0,0,1,.06-0.2L64.4,250l-2.42-3a0.34,0.34,0,0,1-.06-0.2,0.31,0.31,0,0,1,.1-0.22,0.32,0.32,0,0,1,.24-0.1h0.67a0.4,0.4,0,0,1,.25.08,1.5,1.5,0,0,1,.2.19L65.24,249l1.85-2.34a1.47,1.47,0,0,1,.2-0.19,0.4,0.4,0,0,1,.25-0.08h0.64a0.32,0.32,0,0,1,.24.1,0.31,0.31,0,0,1,.1.22,0.35,0.35,0,0,1-.06.2L66,250l2.53,3.18a0.34,0.34,0,0,1,.06.2,0.31,0.31,0,0,1-.1.22,0.32,0.32,0,0,1-.24.1H67.61a0.39,0.39,0,0,1-.25-0.08,1.43,1.43,0,0,1-.2-0.19l-2-2.48Z"/><path d="M71.38,256a0.38,0.38,0,0,1-.38.38H70.48A0.38,0.38,0,0,1,70.1,256v-9.18a0.38,0.38,0,0,1,.38-0.38H71a0.38,0.38,0,0,1,.38.38v0.43a2.54,2.54,0,0,1,2.17-1,3.11,3.11,0,0,1,1.57.41,3,3,0,0,1,1.13,1.16,3.86,3.86,0,0,1,.47,1.76q0,0.14,0,.45c0,0.21,0,.37,0,0.46a3.81,3.81,0,0,1-.47,1.76,3.06,3.06,0,0,1-1.13,1.16,3.1,3.1,0,0,1-1.58.41,2.91,2.91,0,0,1-1.32-.27,2.4,2.4,0,0,1-.85-0.68V256ZM72,252.1a2,2,0,0,0,1.44.55,1.87,1.87,0,0,0,1.45-.59,2.49,2.49,0,0,0,.59-1.6c0-.09,0-0.22,0-0.39s0-.3,0-0.39a2.49,2.49,0,0,0-.59-1.6,1.87,1.87,0,0,0-1.45-.59A2,2,0,0,0,72,248a2,2,0,0,0-.6,1.43v1.11A2.2,2.2,0,0,0,72,252.1Z"/><path d="M79.64,253.6a0.36,0.36,0,0,1-.27.11H78.85a0.38,0.38,0,0,1-.38-0.38v-9.18a0.38,0.38,0,0,1,.38-0.38h0.52a0.38,0.38,0,0,1,.38.38v9.18A0.36,0.36,0,0,1,79.64,253.6Z"/><path d="M88.18,250.08q0,0.34,0,.64a3.5,3.5,0,0,1-1,2.28,3.63,3.63,0,0,1-4.66,0,3.5,3.5,0,0,1-1-2.28c0-.1,0-0.32,0-0.64s0-.57,0-0.67a3.43,3.43,0,0,1,1-2.28,3.65,3.65,0,0,1,4.68,0,3.43,3.43,0,0,1,1,2.28C88.17,249.62,88.18,249.84,88.18,250.08Zm-1.9-2a2.2,2.2,0,0,0-2.9,0,2.36,2.36,0,0,0-.6,1.44c0,0.11,0,.31,0,0.6s0,0.47,0,.57a2.36,2.36,0,0,0,.6,1.44,2.2,2.2,0,0,0,2.9,0,2.36,2.36,0,0,0,.6-1.44q0-.31,0-0.57c0-.18,0-0.38,0-0.6A2.36,2.36,0,0,0,86.28,248Z"/><path d="M93.89,246.54a0.37,0.37,0,0,1,.11.27v0.45a0.38,0.38,0,0,1-.38.38H92.81a1.45,1.45,0,0,0-1.61,1.61v4.09a0.38,0.38,0,0,1-.38.38H90.3a0.38,0.38,0,0,1-.38-0.38v-6.52a0.38,0.38,0,0,1,.38-0.38h0.52a0.38,0.38,0,0,1,.38.38v0.43a1.75,1.75,0,0,1,.67-0.62,2.29,2.29,0,0,1,1-.2h0.73A0.37,0.37,0,0,1,93.89,246.54Z"/><path d="M99.43,249.1v-0.18a1.29,1.29,0,0,0-.46-1.06,1.81,1.81,0,0,0-1.18-.37,1.71,1.71,0,0,0-.87.19,2.11,2.11,0,0,0-.59.57,0.46,0.46,0,0,1-.18.15,0.7,0.7,0,0,1-.27,0H95.46a0.38,0.38,0,0,1-.27-0.11,0.31,0.31,0,0,1-.1-0.27,1.48,1.48,0,0,1,.41-0.83,2.79,2.79,0,0,1,1-.68,3.29,3.29,0,0,1,1.32-.27,3,3,0,0,1,2.11.73,2.62,2.62,0,0,1,.8,2v4.27a0.38,0.38,0,0,1-.38.38H99.81a0.38,0.38,0,0,1-.38-0.38v-0.57a1.64,1.64,0,0,1-1,.8,3.86,3.86,0,0,1-1.46.29,3,3,0,0,1-1.27-.26,2,2,0,0,1-.86-0.71,1.77,1.77,0,0,1-.3-1,2,2,0,0,1,.78-1.64,4.62,4.62,0,0,1,2.09-.81Zm0,1.12-1.65.27a3.77,3.77,0,0,0-1.41.46,0.92,0.92,0,0,0-.5.79,0.82,0.82,0,0,0,.32.63,1.46,1.46,0,0,0,1,.28,2.34,2.34,0,0,0,1.64-.57,1.93,1.93,0,0,0,.63-1.5v-0.35Z"/><path d="M104.82,252.18a1.11,1.11,0,0,0,.93.32h0.74a0.38,0.38,0,0,1,.38.38v0.45a0.38,0.38,0,0,1-.38.38h-0.88a2.24,2.24,0,0,1-1.75-.62,2.65,2.65,0,0,1-.56-1.83v-3.63h-1a0.38,0.38,0,0,1-.38-0.38v-0.45a0.38,0.38,0,0,1,.38-0.38h1v-2.28a0.38,0.38,0,0,1,.38-0.38h0.52a0.38,0.38,0,0,1,.38.38v2.28h1.78a0.38,0.38,0,0,1,.38.38v0.45a0.38,0.38,0,0,1-.38.38h-1.78v3.63A1.5,1.5,0,0,0,104.82,252.18Z"/><path d="M109.57,245.21a0.36,0.36,0,0,1-.27.11h-0.8a0.38,0.38,0,0,1-.38-0.38v-0.8a0.38,0.38,0,0,1,.38-0.38h0.8a0.38,0.38,0,0,1,.38.38v0.8A0.36,0.36,0,0,1,109.57,245.21Zm-0.14,8.39a0.36,0.36,0,0,1-.27.11h-0.52a0.38,0.38,0,0,1-.38-0.38v-6.52a0.38,0.38,0,0,1,.38-0.38h0.52a0.38,0.38,0,0,1,.38.38v6.52A0.36,0.36,0,0,1,109.43,253.6Z"/><path d="M118,250.08q0,0.34,0,.64a3.5,3.5,0,0,1-1,2.28,3.63,3.63,0,0,1-4.66,0,3.5,3.5,0,0,1-1-2.28c0-.1,0-0.32,0-0.64s0-.57,0-0.67a3.43,3.43,0,0,1,1-2.28,3.65,3.65,0,0,1,4.68,0,3.43,3.43,0,0,1,1,2.28C118,249.62,118,249.84,118,250.08Zm-1.9-2a2.2,2.2,0,0,0-2.9,0,2.36,2.36,0,0,0-.6,1.44c0,0.11,0,.31,0,0.6s0,0.47,0,.57a2.36,2.36,0,0,0,.6,1.44,2.2,2.2,0,0,0,2.9,0,2.36,2.36,0,0,0,.6-1.44q0-.31,0-0.57c0-.18,0-0.38,0-0.6A2.36,2.36,0,0,0,116.07,248Z"/><path d="M126.07,253.6a0.36,0.36,0,0,1-.27.11h-0.52a0.38,0.38,0,0,1-.38-0.38v-3.7a2.23,2.23,0,0,0-.52-1.6,2.17,2.17,0,0,0-2.88,0,2.21,2.21,0,0,0-.52,1.6v3.7a0.38,0.38,0,0,1-.38.38H120.1a0.38,0.38,0,0,1-.38-0.38v-6.52a0.38,0.38,0,0,1,.38-0.38h0.52a0.38,0.38,0,0,1,.38.38v0.43a2.41,2.41,0,0,1,.85-0.68,2.91,2.91,0,0,1,1.32-.27,3.2,3.2,0,0,1,1.57.38,2.67,2.67,0,0,1,1.07,1.08,3.45,3.45,0,0,1,.39,1.67v3.91A0.36,0.36,0,0,1,126.07,253.6Z"/><path d="M127.92,248.39a1.89,1.89,0,0,1,.31-1,2.14,2.14,0,0,1,.92-0.76,3.48,3.48,0,0,1,1.49-.29,4,4,0,0,1,1.5.25,2.46,2.46,0,0,1,1,.63,1.14,1.14,0,0,1,.33.73,0.32,0.32,0,0,1-.11.24,0.38,0.38,0,0,1-.27.11h-0.46a0.5,0.5,0,0,1-.42-0.2,1.82,1.82,0,0,0-1.53-.56,2,2,0,0,0-1,.24,0.73,0.73,0,0,0-.4.66,0.69,0.69,0,0,0,.2.53,1.44,1.44,0,0,0,.59.29q0.39,0.11,1.39.34a3.37,3.37,0,0,1,1.75.81,1.86,1.86,0,0,1,.52,1.33,1.77,1.77,0,0,1-.36,1.06,2.5,2.5,0,0,1-1,.79,3.71,3.71,0,0,1-1.55.3,4,4,0,0,1-1.53-.27,2.87,2.87,0,0,1-1-.67,1.13,1.13,0,0,1-.36-0.74,0.33,0.33,0,0,1,.11-0.25,0.37,0.37,0,0,1,.27-0.1h0.5a0.82,0.82,0,0,1,.22,0,0.35,0.35,0,0,1,.18.15,1.88,1.88,0,0,0,1.64.64,2.36,2.36,0,0,0,1.15-.27,0.79,0.79,0,0,0,.5-0.68,0.66,0.66,0,0,0-.24-0.54,2,2,0,0,0-.71-0.34q-0.46-.13-1.44-0.34Q127.92,250,127.92,248.39Z"/></g></g><rect class="cls-2" x="49.07" y="68.61" width="192" height="226.4"/><rect class="cls-3" x="51.57" y="52.01" width="200" height="240"/><rect class="cls-4" x="51.47" y="52.01" width="200" height="144"/><rect class="cls-5" x="115.68" y="81.91" width="74.4" height="74.4" transform="translate(-0.93 1.2) rotate(-0.45)"/><path class="cls-3" d="M152.67,87.41a31.7,31.7,0,1,0,31.9,31.5A31.77,31.77,0,0,0,152.67,87.41Zm-0.2,7.9h0.8a2.17,2.17,0,0,1,1,1.9v3.6c0,1.1-.5,1.8-1.4,1.8s-1.3-.6-1.3-1.8,0.1-2.5,0-3.7A1.75,1.75,0,0,1,152.47,95.31Zm-20.2,12.6c0.9-1,1.3-1.1,2.5-.5a17.5,17.5,0,0,1,3.4,1.5,1.55,1.55,0,0,1,1.1,1.8,1.48,1.48,0,0,1-2.1.7c-1.4-.6-2.8-1.3-4.1-1.9a6,6,0,0,1-.8-0.8v-0.8Zm6.4,13c-1.5.3-3,.4-4.4,0.7a1.83,1.83,0,0,1-1.8-.9v-0.6a2,2,0,0,1,1.9-1.1,28.68,28.68,0,0,1,3.1-.5c0.3,0,.6-0.1,1-0.1a1.39,1.39,0,0,1,1.6,1.1A1.43,1.43,0,0,1,138.67,120.91Zm1.8-22.5a1.76,1.76,0,0,1,1.6.1c1.1,1.4,2,3,3,4.4a2.18,2.18,0,0,1,.1.6,2.28,2.28,0,0,1-.8.9,1.21,1.21,0,0,1-1.3-.1c-1.1-1.4-2-2.8-3-4.3A1,1,0,0,1,140.47,98.41Zm16.3,42.7h-8.2a1,1,0,0,1-1.2-1c-0.1-2.1-.1-2.1,2-2.1,2.7,0,5.3-.1,7.9,0,1.2,0,1.3,0,1.4,1.2C158.77,141,158.77,141,156.77,141.11Zm0-4.4h-8.2a1,1,0,0,1-1.2-1c-0.1-2.1-.1-2.1,2-2.1,2.7,0,5.3-.1,7.9,0,1.2,0,1.3,0,1.4,1.2C158.77,136.71,158.77,136.71,156.77,136.71Zm7.3-21.7a15.27,15.27,0,0,1-1.6,6,36.08,36.08,0,0,0-3.7,9.4c-0.2,1.3-.4,1.4-1.8,1.4h-8.2a1.13,1.13,0,0,1-1.3-.9c-0.2-.8-0.5-1.5-0.6-2.2a32.18,32.18,0,0,0-3.1-7.4,13.9,13.9,0,0,1-1.8-8,8.57,8.57,0,0,1,6.1-7.8,15,15,0,0,1,9.6-.1A9.33,9.33,0,0,1,164.07,115Zm1.4-14.8a28.16,28.16,0,0,1-2.4,3.6,1.34,1.34,0,0,1-2.1.4c-0.7-.4-0.8-1.2-0.3-2.1a26.37,26.37,0,0,1,2.3-3.5,2.06,2.06,0,0,1,1.7-.7c0.4,0,.7.7,1,1A2.19,2.19,0,0,1,165.47,100.21Zm8.1,20.1a1.68,1.68,0,0,1-2.1,1l-4.1-.6a1.46,1.46,0,0,1-1.3-1.6,1.29,1.29,0,0,1,1.5-1.2c1.6,0.2,3.2.5,4.6,0.8a4.7,4.7,0,0,1,1.2.9A1.08,1.08,0,0,1,173.57,120.31Zm-0.1-12a7.41,7.41,0,0,1-1.3,1.2c-1,.6-2.1,1-3.2,1.6a1.63,1.63,0,0,1-2.4-.6c-0.3-.7.1-1.5,1.1-2s2.3-.9,3.5-1.5,1.6-.4,2.4.7A1.27,1.27,0,0,0,173.47,108.31Z"/><g class="cls-6"><path class="cls-3" d="M67.78,173.08a0.7,0.7,0,0,1,.74-0.85H68.8a0.78,0.78,0,0,1,.39.07,1.25,1.25,0,0,1,.38.39l4.4,6.48a4.86,4.86,0,0,1,.4.68l0.28,0.59h0a0.36,0.36,0,0,0,0-.18c0-.12,0-0.29-0.07-0.52a4.18,4.18,0,0,1-.05-0.67v-6.43a0.43,0.43,0,0,1,.11-0.3,0.33,0.33,0,0,1,.26-0.12h0.9a0.32,0.32,0,0,1,.25.12,0.43,0.43,0,0,1,.11.3V182a0.54,0.54,0,0,1-.17.42,0.82,0.82,0,0,1-.52.26H75.07a0.89,0.89,0,0,1-.5-0.11,3.12,3.12,0,0,1-.57-0.67q-3.9-5.71-4.18-6.17l-0.57-1,0,0s0,0,0,.1,0,0.18.06,0.34,0,0.34.07,0.54q0.07,0.68.07,1.27v5.24a0.43,0.43,0,0,1-.11.29,0.33,0.33,0,0,1-.26.12h-0.9a0.32,0.32,0,0,1-.25-0.12,0.43,0.43,0,0,1-.11-0.29v-9.21Z"/><path class="cls-3" d="M80.17,179.23v0.13a2,2,0,0,0,.59,1.5,2.32,2.32,0,0,0,1.69.6,3.09,3.09,0,0,0,1.8-.58,0.51,0.51,0,0,1,.28-0.11,0.41,0.41,0,0,1,.38.25l0.18,0.38a0.71,0.71,0,0,1,.06.29A0.52,0.52,0,0,1,85,182a1.45,1.45,0,0,1-.37.3,2.74,2.74,0,0,1-.52.24,5.46,5.46,0,0,1-.61.17,6.19,6.19,0,0,1-1.31.14,3.91,3.91,0,0,1-1.38-.26,3.36,3.36,0,0,1-1.2-.76A3.82,3.82,0,0,1,78.54,179q0-3.17,2.23-3.94a4.39,4.39,0,0,1,1.43-.24,4.35,4.35,0,0,1,1.25.16,2.57,2.57,0,0,1,.89.46,2.21,2.21,0,0,1,.79,1.81,2,2,0,0,1-.93,1.74,3.9,3.9,0,0,1-2.15.53A7.27,7.27,0,0,1,80.17,179.23Zm3.36-2q0-1-1.31-1a1.82,1.82,0,0,0-1.75.92,2.14,2.14,0,0,0-.23.79,3.34,3.34,0,0,0,1.5.29Q83.53,178.26,83.53,177.24Z"/><path class="cls-3" d="M97.53,175a0.38,0.38,0,0,1,.44.41,14.59,14.59,0,0,1-.67,3.89A8.37,8.37,0,0,1,96,182.1a1.51,1.51,0,0,1-1.18.7,1.42,1.42,0,0,1-1-.31,1.68,1.68,0,0,1-.48-0.9q-0.37-1.54-.52-2.1l-0.26-1L92.39,178l0,0.18-0.06.27-0.14.59a16.89,16.89,0,0,1-.63,1.95q-0.22.5-.38,0.78a3,3,0,0,1-.37.52,1.43,1.43,0,0,1-1.08.55,1.47,1.47,0,0,1-1.53-1.31q-0.35-1.47-.79-2.91l-0.91-2.88a0.83,0.83,0,0,1,0-.27,0.39,0.39,0,0,1,.46-0.42H87.7a0.59,0.59,0,0,1,.56.51q0.4,1.4.7,2.75L89.54,181a0.26,0.26,0,0,0,.19.25A0.38,0.38,0,0,0,90,181q0.13-.27.29-0.65c0.1-.26.2-0.53,0.3-0.83s0.19-.6.28-0.92,0.18-.63.25-1q0.23-1,.38-1.78l0-.29a0.61,0.61,0,0,1,.72-0.41,1.8,1.8,0,0,1,.55.05,0.94,0.94,0,0,1,.43.57q0.17,0.46.37,1.12T94,178.24q0.46,1.81.68,2.79a0.2,0.2,0,0,0,.14.2,0.58,0.58,0,0,0,.33-0.36,6.07,6.07,0,0,0,.41-1,13,13,0,0,0,.37-1.37,16.3,16.3,0,0,0,.36-3,0.39,0.39,0,0,1,.3-0.43l0.14,0h0.79Z"/><path class="cls-3" d="M111.21,174.46a0.71,0.71,0,0,1-.75.85H110a0.4,0.4,0,0,1-.34-0.16,0.82,0.82,0,0,1-.14-0.45,1,1,0,0,0-.17-0.52,1.22,1.22,0,0,0-.4-0.38,2.41,2.41,0,0,0-1.22-.27,2.64,2.64,0,0,0-1.32.32,2.56,2.56,0,0,0-.9.85,4.79,4.79,0,0,0-.66,2.67q0,3,2,3.77a3.24,3.24,0,0,0,1.18.23,4.23,4.23,0,0,0,1.83-.38l0.38-.18a0.82,0.82,0,0,1,.33-0.08,0.37,0.37,0,0,1,.23.07,1.06,1.06,0,0,1,.22.33,1,1,0,0,1,.13.44,0.63,0.63,0,0,1-.13.37,1.36,1.36,0,0,1-.32.32,3.15,3.15,0,0,1-.81.36,7,7,0,0,1-2,.26,4.86,4.86,0,0,1-2.06-.42,4.28,4.28,0,0,1-1.52-1.16,5.92,5.92,0,0,1-1.26-3.94,5.56,5.56,0,0,1,1.28-3.84,4.55,4.55,0,0,1,3.6-1.48,4.37,4.37,0,0,1,2.23.56A2,2,0,0,1,111.21,174.46Z"/><path class="cls-3" d="M112.36,178.83a4.35,4.35,0,0,1,.3-1.63,3.79,3.79,0,0,1,.82-1.27,4.13,4.13,0,0,1,5.61,0,4.11,4.11,0,0,1,1,2.91,4,4,0,0,1-1.11,2.93,4,4,0,0,1-5.54,0A4.07,4.07,0,0,1,112.36,178.83Zm2.2-1.74a2.64,2.64,0,0,0-.37.86,4.16,4.16,0,0,0-.12,1,3.35,3.35,0,0,0,.13.95,2.52,2.52,0,0,0,.4.81,1.94,1.94,0,0,0,1.64.78,1.88,1.88,0,0,0,1.63-.77,3,3,0,0,0,.49-1.83,2.52,2.52,0,0,0-1.13-2.39,2.26,2.26,0,0,0-2,0A1.94,1.94,0,0,0,114.56,177.09Z"/><path class="cls-3" d="M123.81,180.83q0,0.48.34,0.49a0.87,0.87,0,0,0,.28-0.06,1.81,1.81,0,0,1,.38-0.12,0.28,0.28,0,0,1,.25.2l0.21,0.49a0.52,0.52,0,0,1,0,.19,0.6,0.6,0,0,1-.26.38,2.06,2.06,0,0,1-1.36.43q-1.53,0-1.53-2V171a0.47,0.47,0,0,1,.11-0.31,0.33,0.33,0,0,1,.26-0.13h0.92a0.32,0.32,0,0,1,.26.13,0.49,0.49,0,0,1,.1.31v9.8Z"/><path class="cls-3" d="M128.47,180.83q0,0.48.34,0.49a0.87,0.87,0,0,0,.28-0.06,1.81,1.81,0,0,1,.38-0.12,0.28,0.28,0,0,1,.25.2l0.21,0.49a0.52,0.52,0,0,1,0,.19,0.6,0.6,0,0,1-.26.38,2.06,2.06,0,0,1-1.36.43q-1.53,0-1.53-2V171a0.47,0.47,0,0,1,.11-0.31,0.33,0.33,0,0,1,.26-0.13h0.92a0.32,0.32,0,0,1,.26.13,0.49,0.49,0,0,1,.1.31v9.8Z"/><path class="cls-3" d="M132.62,179.23v0.13a2,2,0,0,0,.59,1.5,2.32,2.32,0,0,0,1.69.6,3.09,3.09,0,0,0,1.8-.58,0.51,0.51,0,0,1,.28-0.11,0.41,0.41,0,0,1,.38.25l0.18,0.38a0.71,0.71,0,0,1,.06.29,0.52,0.52,0,0,1-.14.33,1.45,1.45,0,0,1-.37.3,2.74,2.74,0,0,1-.52.24,5.46,5.46,0,0,1-.61.17,6.19,6.19,0,0,1-1.31.14,3.91,3.91,0,0,1-1.38-.26,3.36,3.36,0,0,1-1.2-.76A3.82,3.82,0,0,1,131,179q0-3.17,2.23-3.94a4.39,4.39,0,0,1,1.43-.24,4.35,4.35,0,0,1,1.25.16,2.57,2.57,0,0,1,.89.46,2.21,2.21,0,0,1,.79,1.81,2,2,0,0,1-.93,1.74,3.9,3.9,0,0,1-2.15.53A7.27,7.27,0,0,1,132.62,179.23Zm3.36-2q0-1-1.31-1a1.82,1.82,0,0,0-1.75.92,2.14,2.14,0,0,0-.23.79,3.34,3.34,0,0,0,1.5.29Q136,178.26,136,177.24Z"/><path class="cls-3" d="M144.78,178a0.49,0.49,0,0,1-.56-0.55,1.21,1.21,0,0,0-.39-1,1.31,1.31,0,0,0-.9-0.29,1.72,1.72,0,0,0-.93.23,1.93,1.93,0,0,0-.6.59,3.12,3.12,0,0,0-.45,1.71,2.48,2.48,0,0,0,1.13,2.45,2,2,0,0,0,.91.21,2.58,2.58,0,0,0,.82-0.11,4.26,4.26,0,0,0,.57-0.24l0.44-.24a0.66,0.66,0,0,1,.31-0.11,0.44,0.44,0,0,1,.39.23l0.15,0.25a0.69,0.69,0,0,1,.1.34,0.59,0.59,0,0,1-.14.35,1.46,1.46,0,0,1-.37.33,3.2,3.2,0,0,1-.52.27,5.39,5.39,0,0,1-.61.21,4.14,4.14,0,0,1-2.75-.12,3.36,3.36,0,0,1-1.92-2.11,5.12,5.12,0,0,1-.26-1.68,4.72,4.72,0,0,1,.28-1.67,3.61,3.61,0,0,1,.77-1.25,3.53,3.53,0,0,1,2.66-1.05,3,3,0,0,1,2.22.76,2.21,2.21,0,0,1,.65,1.63,0.74,0.74,0,0,1-.85.83h-0.16Z"/><path class="cls-3" d="M152,176a0.36,0.36,0,0,1-.43.38h-1.93v4.29a0.61,0.61,0,0,0,.69.7,2.36,2.36,0,0,0,1.14-.44,0.53,0.53,0,0,1,.3-0.09,0.3,0.3,0,0,1,.26.23l0.16,0.36a0.92,0.92,0,0,1,.09.35,0.5,0.5,0,0,1-.22.33,2.21,2.21,0,0,1-.55.34,3.4,3.4,0,0,1-1.37.34,3,3,0,0,1-1-.13,1.61,1.61,0,0,1-.61-0.38,2.05,2.05,0,0,1-.55-1.54v-4.36H147.4A0.36,0.36,0,0,1,147,176v-0.39a0.35,0.35,0,0,1,.08-0.25,0.61,0.61,0,0,1,.32-0.14l0.68-.2,0.26-1.61a0.42,0.42,0,0,1,.37-0.45h0.57a0.32,0.32,0,0,1,.26.13,0.5,0.5,0,0,1,.1.32V175h1.93a0.36,0.36,0,0,1,.43.38V176Z"/><path class="cls-3" d="M154.45,173.68a1.09,1.09,0,0,1-.79-0.32,1.05,1.05,0,0,1-.33-0.79,1.1,1.1,0,0,1,1.12-1.11,1,1,0,0,1,1,.67,1.07,1.07,0,0,1,.09.44,1.05,1.05,0,0,1-.33.79A1.09,1.09,0,0,1,154.45,173.68Zm0.8,7.15c0,0.32.11,0.49,0.32,0.49a0.61,0.61,0,0,0,.25-0.06,1.17,1.17,0,0,1,.36-0.12,0.27,0.27,0,0,1,.23.2l0.21,0.48a0.52,0.52,0,0,1,.05.22,0.72,0.72,0,0,1-.51.55,2.06,2.06,0,0,1-.95.25,2.23,2.23,0,0,1-.75-0.1,1.1,1.1,0,0,1-.48-0.34,2.56,2.56,0,0,1-.4-1.6v-5.33a0.48,0.48,0,0,1,.11-0.32A0.33,0.33,0,0,1,154,175h0.92a0.32,0.32,0,0,1,.26.13,0.5,0.5,0,0,1,.1.32v5.38Z"/><path class="cls-3" d="M157.85,178.83a4.35,4.35,0,0,1,.3-1.63,3.78,3.78,0,0,1,.82-1.27,4.13,4.13,0,0,1,5.61,0,4.11,4.11,0,0,1,1,2.91,4,4,0,0,1-1.11,2.93,4,4,0,0,1-5.54,0A4.07,4.07,0,0,1,157.85,178.83Zm2.2-1.74a2.63,2.63,0,0,0-.37.86,4.13,4.13,0,0,0-.12,1,3.35,3.35,0,0,0,.13.95,2.52,2.52,0,0,0,.4.81,1.94,1.94,0,0,0,1.64.78,1.88,1.88,0,0,0,1.63-.77,3,3,0,0,0,.49-1.83,2.52,2.52,0,0,0-1.13-2.39,2.27,2.27,0,0,0-2,0A1.94,1.94,0,0,0,160,177.09Z"/><path class="cls-3" d="M167.62,175.5a0.43,0.43,0,0,1,.47-0.49h0.38a0.52,0.52,0,0,1,.52.29,5,5,0,0,1,.33,1.08,2.82,2.82,0,0,1,1.83-1.44,3.75,3.75,0,0,1,1-.1,2.33,2.33,0,0,1,1.06.24,1.94,1.94,0,0,1,.77.67,4.1,4.1,0,0,1,.52,2.28v4.25a0.45,0.45,0,0,1-.12.32,0.48,0.48,0,0,1-.36.13h-0.67a0.5,0.5,0,0,1-.38-0.13,0.45,0.45,0,0,1-.12-0.32V178q0-1.75-1.29-1.75a1.9,1.9,0,0,0-1.37.63,2.18,2.18,0,0,0-.66,1.57v3.8a0.47,0.47,0,0,1-.12.32,0.45,0.45,0,0,1-.36.13h-0.7a0.47,0.47,0,0,1-.36-0.13,0.45,0.45,0,0,1-.12-0.32v-4.2a14,14,0,0,0-.09-1.92A6.38,6.38,0,0,1,167.62,175.5Z"/></g><g class="cls-6"><g class="cls-6"><path d="M69,216.64a2.5,2.5,0,0,0,1.9.71,2.65,2.65,0,0,0,1.82-.53,2.59,2.59,0,0,0,.78-1.37,0.37,0.37,0,0,1,.13-0.22,0.36,0.36,0,0,1,.23-0.08h0.64a0.31,0.31,0,0,1,.31.31,3.13,3.13,0,0,1-.45,1.42,3.39,3.39,0,0,1-1.29,1.24,4.31,4.31,0,0,1-2.18.5,4.17,4.17,0,0,1-2.06-.49,3.46,3.46,0,0,1-1.36-1.35,4.27,4.27,0,0,1-.53-2q0-.42,0-1.25t0-1.25a4.26,4.26,0,0,1,.53-2A3.46,3.46,0,0,1,68.87,209a4.17,4.17,0,0,1,2.06-.49,4.3,4.3,0,0,1,2.18.5,3.39,3.39,0,0,1,1.29,1.24,3.13,3.13,0,0,1,.45,1.42,0.31,0.31,0,0,1-.31.31H73.89a0.36,0.36,0,0,1-.23-0.08,0.37,0.37,0,0,1-.13-0.22,2.6,2.6,0,0,0-.78-1.37,2.65,2.65,0,0,0-1.82-.53,2.5,2.5,0,0,0-1.9.71,2.77,2.77,0,0,0-.72,1.9q0,0.42,0,1.18t0,1.18A2.77,2.77,0,0,0,69,216.64Z"/><path d="M80.49,211.3a0.37,0.37,0,0,1,.11.27V212a0.38,0.38,0,0,1-.38.38H79.41A1.45,1.45,0,0,0,77.8,214v4.09a0.38,0.38,0,0,1-.38.38H76.9a0.38,0.38,0,0,1-.38-0.38v-6.52a0.38,0.38,0,0,1,.38-0.38h0.52a0.38,0.38,0,0,1,.38.38V212a1.75,1.75,0,0,1,.67-0.62,2.29,2.29,0,0,1,1-.2h0.73A0.37,0.37,0,0,1,80.49,211.3Z"/><path d="M86.9,212a3.7,3.7,0,0,1,.87,2.59V215a0.38,0.38,0,0,1-.38.38H82.57v0.08a2,2,0,0,0,.57,1.45,1.91,1.91,0,0,0,1.39.52,2.6,2.6,0,0,0,1.08-.18,2.23,2.23,0,0,0,.69-0.52,0.74,0.74,0,0,1,.2-0.15,0.59,0.59,0,0,1,.25,0h0.42a0.38,0.38,0,0,1,.28.11,0.32,0.32,0,0,1,.1.27,1.53,1.53,0,0,1-.41.78,2.75,2.75,0,0,1-1,.67,4.18,4.18,0,0,1-1.59.27,3.08,3.08,0,0,1-1.6-.41,3,3,0,0,1-1.11-1.14,4,4,0,0,1-.5-1.64q0-.42,0-0.64t0-.64a3.76,3.76,0,0,1,.5-1.57,3.06,3.06,0,0,1,1.11-1.11,3.11,3.11,0,0,1,1.6-.41A3,3,0,0,1,86.9,212Zm-0.39,2.17v0a1.79,1.79,0,0,0-.54-1.37,2,2,0,0,0-1.44-.51,2,2,0,0,0-1.38.52,1.8,1.8,0,0,0-.58,1.36v0h3.93Z"/><path d="M93.79,213.86v-0.18a1.29,1.29,0,0,0-.46-1.06,1.81,1.81,0,0,0-1.18-.37,1.71,1.71,0,0,0-.87.19,2.11,2.11,0,0,0-.59.57,0.46,0.46,0,0,1-.18.15,0.7,0.7,0,0,1-.27,0H89.81a0.38,0.38,0,0,1-.27-0.11,0.31,0.31,0,0,1-.1-0.27,1.48,1.48,0,0,1,.41-0.83,2.79,2.79,0,0,1,1-.68,3.29,3.29,0,0,1,1.32-.27,3,3,0,0,1,2.11.73,2.62,2.62,0,0,1,.8,2v4.27a0.38,0.38,0,0,1-.38.38H94.16a0.38,0.38,0,0,1-.38-0.38v-0.57a1.64,1.64,0,0,1-1,.8,3.86,3.86,0,0,1-1.46.29,3,3,0,0,1-1.27-.26,2,2,0,0,1-.86-0.71,1.77,1.77,0,0,1-.3-1,2,2,0,0,1,.78-1.64,4.62,4.62,0,0,1,2.09-.81Zm0,1.12-1.65.27a3.77,3.77,0,0,0-1.41.46,0.92,0.92,0,0,0-.5.79,0.82,0.82,0,0,0,.32.63,1.46,1.46,0,0,0,1,.28,2.34,2.34,0,0,0,1.64-.57,1.93,1.93,0,0,0,.63-1.5V215Z"/><path d="M99.17,216.94a1.11,1.11,0,0,0,.93.32h0.74a0.38,0.38,0,0,1,.38.38v0.45a0.38,0.38,0,0,1-.38.38H100a2.24,2.24,0,0,1-1.75-.62,2.65,2.65,0,0,1-.56-1.83v-3.63h-1a0.38,0.38,0,0,1-.38-0.38v-0.45a0.38,0.38,0,0,1,.38-0.38h1V208.9a0.38,0.38,0,0,1,.38-0.38h0.52a0.38,0.38,0,0,1,.38.38v2.28h1.78a0.38,0.38,0,0,1,.38.38V212a0.38,0.38,0,0,1-.38.38H98.92V216A1.5,1.5,0,0,0,99.17,216.94Z"/><path d="M107.86,212a3.7,3.7,0,0,1,.87,2.59V215a0.38,0.38,0,0,1-.38.38h-4.82v0.08a2,2,0,0,0,.57,1.45,1.91,1.91,0,0,0,1.39.52,2.6,2.6,0,0,0,1.08-.18,2.23,2.23,0,0,0,.69-0.52,0.74,0.74,0,0,1,.2-0.15,0.59,0.59,0,0,1,.25,0h0.42a0.38,0.38,0,0,1,.28.11,0.32,0.32,0,0,1,.1.27,1.53,1.53,0,0,1-.41.78,2.75,2.75,0,0,1-1,.67,4.18,4.18,0,0,1-1.59.27,3.08,3.08,0,0,1-1.6-.41,3,3,0,0,1-1.11-1.14,4,4,0,0,1-.5-1.64q0-.42,0-0.64t0-.64a3.76,3.76,0,0,1,.5-1.57,3.06,3.06,0,0,1,1.11-1.11,3.11,3.11,0,0,1,1.6-.41A3,3,0,0,1,107.86,212Zm-0.39,2.17v0a1.79,1.79,0,0,0-.54-1.37,2,2,0,0,0-1.44-.51,2,2,0,0,0-1.38.52,1.8,1.8,0,0,0-.58,1.36v0h3.93Z"/><path d="M118.16,213.86v-0.18a1.29,1.29,0,0,0-.46-1.06,1.81,1.81,0,0,0-1.18-.37,1.71,1.71,0,0,0-.87.19,2.11,2.11,0,0,0-.59.57,0.46,0.46,0,0,1-.18.15,0.7,0.7,0,0,1-.27,0h-0.42a0.38,0.38,0,0,1-.27-0.11,0.31,0.31,0,0,1-.1-0.27,1.48,1.48,0,0,1,.41-0.83,2.79,2.79,0,0,1,1-.68,3.29,3.29,0,0,1,1.32-.27,3,3,0,0,1,2.11.73,2.62,2.62,0,0,1,.8,2v4.27a0.38,0.38,0,0,1-.38.38h-0.52a0.38,0.38,0,0,1-.38-0.38v-0.57a1.64,1.64,0,0,1-1,.8,3.86,3.86,0,0,1-1.46.29,3,3,0,0,1-1.27-.26,2,2,0,0,1-.86-0.71,1.77,1.77,0,0,1-.3-1,2,2,0,0,1,.78-1.64,4.62,4.62,0,0,1,2.09-.81Zm0,1.12-1.65.27a3.77,3.77,0,0,0-1.41.46,0.92,0.92,0,0,0-.5.79,0.82,0.82,0,0,0,.32.63,1.46,1.46,0,0,0,1,.28,2.34,2.34,0,0,0,1.64-.57,1.93,1.93,0,0,0,.63-1.5V215Z"/><path d="M129.72,216.31a0.89,0.89,0,0,1,.2-0.29,0.4,0.4,0,0,1,.27-0.08h0.42a0.37,0.37,0,0,1,.27.11,0.32,0.32,0,0,1,.11.25,1.82,1.82,0,0,1-.38,1,3,3,0,0,1-1.09.92,3.54,3.54,0,0,1-1.68.38,3.38,3.38,0,0,1-1.72-.42A2.87,2.87,0,0,1,125,217a3.83,3.83,0,0,1-.43-1.65c0-.11,0-0.33,0-0.64s0-.38,0-0.48a3.77,3.77,0,0,1,1-2.32,3,3,0,0,1,2.31-.9,3.56,3.56,0,0,1,1.67.37,2.92,2.92,0,0,1,1.08.91,2,2,0,0,1,.4,1,0.31,0.31,0,0,1-.1.27,0.39,0.39,0,0,1-.27.11h-0.42a0.4,0.4,0,0,1-.27-0.08,0.88,0.88,0,0,1-.2-0.29,1.87,1.87,0,0,0-1.89-1.09,1.94,1.94,0,0,0-1.34.52,2.27,2.27,0,0,0-.66,1.57q0,0.15,0,.5c0,0.21,0,.37,0,0.48a2.33,2.33,0,0,0,.67,1.57,1.92,1.92,0,0,0,1.34.52A1.87,1.87,0,0,0,129.72,216.31Z"/><path d="M139,214.84q0,0.34,0,.64a3.5,3.5,0,0,1-1,2.28,3.63,3.63,0,0,1-4.66,0,3.5,3.5,0,0,1-1-2.28c0-.1,0-0.32,0-0.64s0-.57,0-0.67a3.43,3.43,0,0,1,1-2.28,3.65,3.65,0,0,1,4.68,0,3.43,3.43,0,0,1,1,2.28C139,214.37,139,214.6,139,214.84Zm-1.9-2a2.2,2.2,0,0,0-2.9,0,2.36,2.36,0,0,0-.6,1.44c0,0.11,0,.31,0,0.6s0,0.47,0,.57a2.36,2.36,0,0,0,.6,1.44,2.2,2.2,0,0,0,2.9,0,2.36,2.36,0,0,0,.6-1.44q0-.31,0-0.57c0-.18,0-0.38,0-0.6A2.36,2.36,0,0,0,137.09,212.79Z"/><path d="M141.9,218.35a0.36,0.36,0,0,1-.27.11h-0.52a0.38,0.38,0,0,1-.38-0.38V208.9a0.38,0.38,0,0,1,.38-0.38h0.52a0.38,0.38,0,0,1,.38.38v9.18A0.36,0.36,0,0,1,141.9,218.35Z"/><path d="M145.28,218.35a0.36,0.36,0,0,1-.27.11h-0.52a0.38,0.38,0,0,1-.38-0.38V208.9a0.38,0.38,0,0,1,.38-0.38H145a0.38,0.38,0,0,1,.38.38v9.18A0.36,0.36,0,0,1,145.28,218.35Z"/><path d="M152.73,212a3.7,3.7,0,0,1,.87,2.59V215a0.38,0.38,0,0,1-.38.38H148.4v0.08a2,2,0,0,0,.57,1.45,1.91,1.91,0,0,0,1.39.52,2.61,2.61,0,0,0,1.09-.18,2.24,2.24,0,0,0,.69-0.52,0.74,0.74,0,0,1,.2-0.15,0.59,0.59,0,0,1,.25,0H153a0.38,0.38,0,0,1,.28.11,0.32,0.32,0,0,1,.1.27,1.53,1.53,0,0,1-.41.78,2.75,2.75,0,0,1-1,.67,4.18,4.18,0,0,1-1.59.27,3.08,3.08,0,0,1-1.6-.41,3,3,0,0,1-1.11-1.14,4,4,0,0,1-.5-1.64q0-.42,0-0.64t0-.64a3.76,3.76,0,0,1,.5-1.57,3.06,3.06,0,0,1,1.11-1.11,3.11,3.11,0,0,1,1.6-.41A3,3,0,0,1,152.73,212Zm-0.39,2.17v0a1.79,1.79,0,0,0-.54-1.37,2,2,0,0,0-1.44-.51,2,2,0,0,0-1.38.52,1.8,1.8,0,0,0-.58,1.36v0h3.93Z"/><path d="M160.12,216.31a0.89,0.89,0,0,1,.2-0.29,0.39,0.39,0,0,1,.27-0.08H161a0.37,0.37,0,0,1,.27.11,0.32,0.32,0,0,1,.11.25,1.82,1.82,0,0,1-.38,1,3,3,0,0,1-1.09.92,3.54,3.54,0,0,1-1.68.38,3.39,3.39,0,0,1-1.72-.42,2.87,2.87,0,0,1-1.12-1.15,3.84,3.84,0,0,1-.43-1.65c0-.11,0-0.33,0-0.64s0-.38,0-0.48a3.77,3.77,0,0,1,1-2.32,3,3,0,0,1,2.31-.9,3.56,3.56,0,0,1,1.67.37,2.93,2.93,0,0,1,1.08.91,2,2,0,0,1,.4,1,0.31,0.31,0,0,1-.1.27,0.39,0.39,0,0,1-.27.11h-0.42a0.39,0.39,0,0,1-.27-0.08,0.88,0.88,0,0,1-.2-0.29,1.87,1.87,0,0,0-1.89-1.09,2,2,0,0,0-1.34.52,2.27,2.27,0,0,0-.66,1.57c0,0.1,0,.27,0,0.5s0,0.37,0,.48a2.33,2.33,0,0,0,.67,1.57,1.92,1.92,0,0,0,1.34.52A1.87,1.87,0,0,0,160.12,216.31Z"/><path d="M165.21,216.94a1.11,1.11,0,0,0,.93.32h0.74a0.38,0.38,0,0,1,.38.38v0.45a0.38,0.38,0,0,1-.38.38H166a2.24,2.24,0,0,1-1.75-.62,2.65,2.65,0,0,1-.56-1.83v-3.63h-1a0.38,0.38,0,0,1-.38-0.38v-0.45a0.38,0.38,0,0,1,.38-0.38h1V208.9a0.38,0.38,0,0,1,.38-0.38h0.52a0.38,0.38,0,0,1,.38.38v2.28h1.78a0.38,0.38,0,0,1,.38.38V212a0.38,0.38,0,0,1-.38.38H165V216A1.5,1.5,0,0,0,165.21,216.94Z"/><path d="M170,210a0.36,0.36,0,0,1-.27.11h-0.8a0.38,0.38,0,0,1-.38-0.38v-0.8a0.38,0.38,0,0,1,.38-0.38h0.8a0.38,0.38,0,0,1,.38.38v0.8A0.36,0.36,0,0,1,170,210Zm-0.14,8.39a0.36,0.36,0,0,1-.27.11H169a0.38,0.38,0,0,1-.38-0.38v-6.52a0.38,0.38,0,0,1,.38-0.38h0.52a0.38,0.38,0,0,1,.38.38v6.52A0.36,0.36,0,0,1,169.82,218.35Z"/><path d="M178.36,214.84q0,0.34,0,.64a3.5,3.5,0,0,1-1,2.28,3.63,3.63,0,0,1-4.66,0,3.5,3.5,0,0,1-1-2.28c0-.1,0-0.32,0-0.64s0-.57,0-0.67a3.43,3.43,0,0,1,1-2.28,3.65,3.65,0,0,1,4.68,0,3.43,3.43,0,0,1,1,2.28C178.35,214.37,178.36,214.6,178.36,214.84Zm-1.9-2a2.2,2.2,0,0,0-2.9,0,2.37,2.37,0,0,0-.6,1.44c0,0.11,0,.31,0,0.6s0,0.47,0,.57a2.37,2.37,0,0,0,.6,1.44,2.2,2.2,0,0,0,2.9,0,2.37,2.37,0,0,0,.6-1.44q0-.31,0-0.57c0-.18,0-0.38,0-0.6A2.37,2.37,0,0,0,176.46,212.79Z"/><path d="M186.47,218.35a0.36,0.36,0,0,1-.27.11h-0.52a0.38,0.38,0,0,1-.38-0.38v-3.7a2.24,2.24,0,0,0-.52-1.6,2.17,2.17,0,0,0-2.88,0,2.21,2.21,0,0,0-.53,1.6v3.7a0.38,0.38,0,0,1-.38.38h-0.52a0.38,0.38,0,0,1-.38-0.38v-6.52a0.38,0.38,0,0,1,.38-0.38H181a0.38,0.38,0,0,1,.38.38V212a2.41,2.41,0,0,1,.85-0.68,2.91,2.91,0,0,1,1.32-.27,3.2,3.2,0,0,1,1.57.38,2.67,2.67,0,0,1,1.07,1.08,3.45,3.45,0,0,1,.39,1.67v3.91A0.36,0.36,0,0,1,186.47,218.35Z"/><path d="M198.35,214.84q0,0.34,0,.64a3.5,3.5,0,0,1-1,2.28,3.63,3.63,0,0,1-4.66,0,3.5,3.5,0,0,1-1-2.28c0-.1,0-0.32,0-0.64s0-.57,0-0.67a3.43,3.43,0,0,1,1-2.28,3.65,3.65,0,0,1,4.68,0,3.43,3.43,0,0,1,1,2.28C198.34,214.37,198.35,214.6,198.35,214.84Zm-1.9-2a2.2,2.2,0,0,0-2.9,0,2.37,2.37,0,0,0-.6,1.44c0,0.11,0,.31,0,0.6s0,0.47,0,.57a2.37,2.37,0,0,0,.6,1.44,2.2,2.2,0,0,0,2.9,0,2.37,2.37,0,0,0,.6-1.44q0-.31,0-0.57c0-.18,0-0.38,0-0.6A2.37,2.37,0,0,0,196.45,212.79Z"/><path d="M203.81,211.18a0.38,0.38,0,0,1,.38.38V212a0.38,0.38,0,0,1-.38.38H202v5.7a0.38,0.38,0,0,1-.38.38h-0.52a0.38,0.38,0,0,1-.38-0.38v-5.7h-1.18a0.38,0.38,0,0,1-.38-0.38v-0.45a0.38,0.38,0,0,1,.38-0.38h1.18v-0.7a2.52,2.52,0,0,1,.56-1.79,2.32,2.32,0,0,1,1.75-.59H204a0.38,0.38,0,0,1,.38.38v0.45a0.38,0.38,0,0,1-.38.38h-0.74a1.11,1.11,0,0,0-.93.32,1.5,1.5,0,0,0-.24.92v0.63h1.78Z"/></g><g class="cls-6"><path d="M72.42,228.8a3.7,3.7,0,0,1,.87,2.59v0.38a0.38,0.38,0,0,1-.38.38H68.1v0.08a2,2,0,0,0,.57,1.45,1.91,1.91,0,0,0,1.39.52,2.6,2.6,0,0,0,1.08-.18,2.23,2.23,0,0,0,.69-0.52,0.74,0.74,0,0,1,.2-0.15,0.59,0.59,0,0,1,.25,0H72.7a0.38,0.38,0,0,1,.28.11,0.32,0.32,0,0,1,.1.27,1.53,1.53,0,0,1-.41.78,2.75,2.75,0,0,1-1,.67,4.18,4.18,0,0,1-1.59.27,3.08,3.08,0,0,1-1.6-.41,3,3,0,0,1-1.11-1.14,4,4,0,0,1-.5-1.64q0-.42,0-0.64t0-.64a3.76,3.76,0,0,1,.5-1.57,3.06,3.06,0,0,1,1.11-1.11,3.11,3.11,0,0,1,1.6-.41A3,3,0,0,1,72.42,228.8ZM72,231v0a1.79,1.79,0,0,0-.54-1.37,2,2,0,0,0-1.44-.51,2,2,0,0,0-1.38.52,1.8,1.8,0,0,0-.58,1.36v0H72Z"/><path d="M75.61,235a1.49,1.49,0,0,1-.2.19,0.39,0.39,0,0,1-.25.08H74.52a0.32,0.32,0,0,1-.24-0.1,0.31,0.31,0,0,1-.1-0.22,0.34,0.34,0,0,1,.06-0.2l2.56-3.21-2.42-3a0.34,0.34,0,0,1-.06-0.2,0.31,0.31,0,0,1,.1-0.22,0.32,0.32,0,0,1,.24-0.1h0.67a0.4,0.4,0,0,1,.25.08,1.5,1.5,0,0,1,.2.19l1.86,2.34,1.85-2.34a1.47,1.47,0,0,1,.2-0.19,0.4,0.4,0,0,1,.25-0.08h0.64a0.32,0.32,0,0,1,.24.1,0.31,0.31,0,0,1,.1.22,0.35,0.35,0,0,1-.06.2l-2.44,3.07L81,234.75a0.34,0.34,0,0,1,.06.2,0.31,0.31,0,0,1-.1.22,0.32,0.32,0,0,1-.24.1H80a0.39,0.39,0,0,1-.25-0.08,1.43,1.43,0,0,1-.2-0.19l-2-2.48Z"/><path d="M83.78,237.55a0.38,0.38,0,0,1-.38.38H82.88a0.38,0.38,0,0,1-.38-0.38v-9.18a0.38,0.38,0,0,1,.38-0.38H83.4a0.38,0.38,0,0,1,.38.38v0.43a2.54,2.54,0,0,1,2.17-1,3.11,3.11,0,0,1,1.57.41,3,3,0,0,1,1.13,1.16,3.86,3.86,0,0,1,.47,1.76q0,0.14,0,.45c0,0.21,0,.37,0,0.46a3.81,3.81,0,0,1-.47,1.76A3.06,3.06,0,0,1,87.53,235a3.1,3.1,0,0,1-1.58.41,2.91,2.91,0,0,1-1.32-.27,2.4,2.4,0,0,1-.85-0.68v3.09Zm0.59-3.89a2,2,0,0,0,1.44.55,1.87,1.87,0,0,0,1.45-.59,2.49,2.49,0,0,0,.59-1.6c0-.09,0-0.22,0-0.39s0-.3,0-0.39a2.49,2.49,0,0,0-.59-1.6,1.87,1.87,0,0,0-1.45-.59,2,2,0,0,0-1.43.54,2,2,0,0,0-.6,1.43v1.11A2.2,2.2,0,0,0,84.36,233.65Z"/><path d="M92,235.15a0.36,0.36,0,0,1-.27.11H91.25a0.38,0.38,0,0,1-.38-0.38V225.7a0.38,0.38,0,0,1,.38-0.38h0.52a0.38,0.38,0,0,1,.38.38v9.18A0.36,0.36,0,0,1,92,235.15Z"/><path d="M100.58,231.64q0,0.34,0,.64a3.5,3.5,0,0,1-1,2.28,3.63,3.63,0,0,1-4.66,0,3.5,3.5,0,0,1-1-2.28c0-.1,0-0.32,0-0.64s0-.57,0-0.67a3.43,3.43,0,0,1,1-2.28,3.65,3.65,0,0,1,4.68,0,3.43,3.43,0,0,1,1,2.28C100.57,231.17,100.58,231.4,100.58,231.64Zm-1.9-2a2.2,2.2,0,0,0-2.9,0,2.36,2.36,0,0,0-.6,1.44c0,0.11,0,.31,0,0.6s0,0.47,0,.57a2.36,2.36,0,0,0,.6,1.44,2.2,2.2,0,0,0,2.9,0,2.36,2.36,0,0,0,.6-1.44q0-.31,0-0.57c0-.18,0-0.38,0-0.6A2.36,2.36,0,0,0,98.68,229.59Z"/><path d="M106.29,228.1a0.37,0.37,0,0,1,.11.27v0.45a0.38,0.38,0,0,1-.38.38h-0.81a1.45,1.45,0,0,0-1.61,1.61v4.09a0.38,0.38,0,0,1-.38.38H102.7a0.38,0.38,0,0,1-.38-0.38v-6.52a0.38,0.38,0,0,1,.38-0.38h0.52a0.38,0.38,0,0,1,.38.38v0.43a1.75,1.75,0,0,1,.67-0.62,2.29,2.29,0,0,1,1-.2H106A0.37,0.37,0,0,1,106.29,228.1Z"/><path d="M111.83,230.66v-0.18a1.29,1.29,0,0,0-.46-1.06,1.81,1.81,0,0,0-1.18-.37,1.71,1.71,0,0,0-.87.19,2.11,2.11,0,0,0-.59.57,0.46,0.46,0,0,1-.18.15,0.7,0.7,0,0,1-.27,0h-0.42a0.38,0.38,0,0,1-.27-0.11,0.31,0.31,0,0,1-.1-0.27,1.48,1.48,0,0,1,.41-0.83,2.79,2.79,0,0,1,1-.68,3.29,3.29,0,0,1,1.32-.27,3,3,0,0,1,2.11.73,2.62,2.62,0,0,1,.8,2v4.27a0.38,0.38,0,0,1-.38.38h-0.52a0.38,0.38,0,0,1-.38-0.38v-0.57a1.64,1.64,0,0,1-1,.8,3.86,3.86,0,0,1-1.46.29,3,3,0,0,1-1.27-.26,2,2,0,0,1-.86-0.71,1.77,1.77,0,0,1-.3-1,2,2,0,0,1,.78-1.64,4.62,4.62,0,0,1,2.09-.81Zm0,1.12-1.65.27a3.77,3.77,0,0,0-1.41.46,0.92,0.92,0,0,0-.5.79,0.82,0.82,0,0,0,.32.63,1.46,1.46,0,0,0,1,.28,2.34,2.34,0,0,0,1.64-.57,1.93,1.93,0,0,0,.63-1.5v-0.35Z"/><path d="M117.22,233.74a1.11,1.11,0,0,0,.93.32h0.74a0.38,0.38,0,0,1,.38.38v0.45a0.38,0.38,0,0,1-.38.38H118a2.24,2.24,0,0,1-1.75-.62,2.65,2.65,0,0,1-.56-1.83v-3.63h-1a0.38,0.38,0,0,1-.38-0.38v-0.45a0.38,0.38,0,0,1,.38-0.38h1V225.7a0.38,0.38,0,0,1,.38-0.38h0.52a0.38,0.38,0,0,1,.38.38V228h1.78a0.38,0.38,0,0,1,.38.38v0.45a0.38,0.38,0,0,1-.38.38H117v3.63A1.5,1.5,0,0,0,117.22,233.74Z"/><path d="M122,226.77a0.36,0.36,0,0,1-.27.11h-0.8a0.38,0.38,0,0,1-.38-0.38v-0.8a0.38,0.38,0,0,1,.38-0.38h0.8a0.38,0.38,0,0,1,.38.38v0.8A0.36,0.36,0,0,1,122,226.77Zm-0.14,8.39a0.36,0.36,0,0,1-.27.11H121a0.38,0.38,0,0,1-.38-0.38v-6.52A0.38,0.38,0,0,1,121,228h0.52a0.38,0.38,0,0,1,.38.38v6.52A0.36,0.36,0,0,1,121.83,235.15Z"/><path d="M130.37,231.64q0,0.34,0,.64a3.5,3.5,0,0,1-1,2.28,3.63,3.63,0,0,1-4.66,0,3.5,3.5,0,0,1-1-2.28c0-.1,0-0.32,0-0.64s0-.57,0-0.67a3.43,3.43,0,0,1,1-2.28,3.65,3.65,0,0,1,4.68,0,3.43,3.43,0,0,1,1,2.28C130.36,231.17,130.37,231.4,130.37,231.64Zm-1.9-2a2.2,2.2,0,0,0-2.9,0A2.36,2.36,0,0,0,125,231c0,0.11,0,.31,0,0.6s0,0.47,0,.57a2.36,2.36,0,0,0,.6,1.44,2.2,2.2,0,0,0,2.9,0,2.36,2.36,0,0,0,.6-1.44q0-.31,0-0.57c0-.18,0-0.38,0-0.6A2.36,2.36,0,0,0,128.47,229.59Z"/><path d="M138.47,235.15a0.36,0.36,0,0,1-.27.11h-0.52a0.38,0.38,0,0,1-.38-0.38v-3.7a2.23,2.23,0,0,0-.52-1.6,2.17,2.17,0,0,0-2.88,0,2.21,2.21,0,0,0-.52,1.6v3.7a0.38,0.38,0,0,1-.38.38H132.5a0.38,0.38,0,0,1-.38-0.38v-6.52a0.38,0.38,0,0,1,.38-0.38H133a0.38,0.38,0,0,1,.38.38v0.43a2.41,2.41,0,0,1,.85-0.68,2.91,2.91,0,0,1,1.32-.27,3.2,3.2,0,0,1,1.57.38,2.67,2.67,0,0,1,1.07,1.08,3.45,3.45,0,0,1,.39,1.67v3.91A0.36,0.36,0,0,1,138.47,235.15Z"/><path d="M140.32,229.94a1.89,1.89,0,0,1,.31-1,2.14,2.14,0,0,1,.92-0.76,3.48,3.48,0,0,1,1.49-.29,4,4,0,0,1,1.5.25,2.46,2.46,0,0,1,1,.63,1.14,1.14,0,0,1,.33.73,0.32,0.32,0,0,1-.11.24,0.38,0.38,0,0,1-.27.11H145a0.5,0.5,0,0,1-.42-0.2A1.82,1.82,0,0,0,143,229a2,2,0,0,0-1,.24,0.73,0.73,0,0,0-.4.66,0.69,0.69,0,0,0,.2.53,1.44,1.44,0,0,0,.59.29q0.39,0.11,1.39.34a3.37,3.37,0,0,1,1.75.81,1.86,1.86,0,0,1,.52,1.33,1.77,1.77,0,0,1-.36,1.06,2.5,2.5,0,0,1-1,.79,3.71,3.71,0,0,1-1.55.3,4,4,0,0,1-1.53-.27,2.87,2.87,0,0,1-1-.67,1.13,1.13,0,0,1-.36-0.74,0.33,0.33,0,0,1,.11-0.25,0.37,0.37,0,0,1,.27-0.1h0.5a0.82,0.82,0,0,1,.22,0,0.35,0.35,0,0,1,.18.15,1.88,1.88,0,0,0,1.64.64,2.36,2.36,0,0,0,1.15-.27,0.79,0.79,0,0,0,.5-0.68,0.66,0.66,0,0,0-.24-0.54,2,2,0,0,0-.71-0.34q-0.46-.13-1.44-0.34Q140.32,231.6,140.32,229.94Z"/></g></g><rect class="cls-2" x="63.67" y="50.01" width="189.9" height="227.7"/><rect class="cls-3" x="65.77" y="35.21" width="200" height="240"/><rect class="cls-4" x="65.67" y="35.21" width="200" height="144"/><rect class="cls-5" x="129.88" y="65.11" width="74.4" height="74.4" transform="translate(-0.8 1.31) rotate(-0.45)"/><path class="cls-3" d="M166.87,70.61a31.7,31.7,0,1,0,31.9,31.5A31.77,31.77,0,0,0,166.87,70.61Zm-0.2,8h0.8a2.17,2.17,0,0,1,1,1.9v3.6c0,1.1-.5,1.8-1.4,1.8s-1.3-.6-1.3-1.8,0.1-2.5,0-3.7A1.75,1.75,0,0,1,166.67,78.61Zm-20.2,12.5c0.9-1,1.3-1.1,2.5-.5a17.5,17.5,0,0,1,3.4,1.5,1.55,1.55,0,0,1,1.1,1.8,1.48,1.48,0,0,1-2.1.7c-1.4-.6-2.8-1.3-4.1-1.9a6,6,0,0,1-.8-0.8v-0.8Zm6.4,13.1c-1.5.3-3,.4-4.4,0.7a1.83,1.83,0,0,1-1.8-.9v-0.6a2,2,0,0,1,1.9-1.1,28.68,28.68,0,0,1,3.1-.5c0.3,0,.6-0.1,1-0.1a1.39,1.39,0,0,1,1.6,1.1C154.37,103.51,153.57,104,152.87,104.21Zm1.8-22.5a1.76,1.76,0,0,1,1.6.1c1.1,1.4,2,3,3,4.4a2.18,2.18,0,0,1,.1.6,2.28,2.28,0,0,1-.8.9,1.21,1.21,0,0,1-1.3-.1c-1.1-1.4-2-2.8-3-4.3A1,1,0,0,1,154.67,81.71Zm16.3,42.6h-8.2a1,1,0,0,1-1.2-1c-0.1-2.1-.1-2.1,2-2.1,2.7,0,5.3-.1,7.9,0,1.2,0,1.3,0,1.4,1.2C173,124.31,173,124.31,171,124.31Zm0-4.3h-8.2a1,1,0,0,1-1.2-1c-0.1-2.1-.1-2.1,2-2.1,2.7,0,5.3-.1,7.9,0,1.2,0,1.3,0,1.4,1.2C173,119.91,173,119.91,171,120Zm7.3-21.8a15.27,15.27,0,0,1-1.6,6,36.08,36.08,0,0,0-3.7,9.4c-0.2,1.3-.4,1.4-1.8,1.4H163a1.13,1.13,0,0,1-1.3-.9c-0.2-.8-0.5-1.5-0.6-2.2a32.18,32.18,0,0,0-3.1-7.4,13.9,13.9,0,0,1-1.8-8,8.57,8.57,0,0,1,6.1-7.8,15,15,0,0,1,9.6-.1A9.33,9.33,0,0,1,178.27,98.21Zm1.4-14.8a28.16,28.16,0,0,1-2.4,3.6,1.34,1.34,0,0,1-2.1.4c-0.7-.4-0.8-1.2-0.3-2.1a26.37,26.37,0,0,1,2.3-3.5,2.06,2.06,0,0,1,1.7-.7c0.4,0,.7.7,1,1A2,2,0,0,1,179.67,83.41Zm8.1,20.2a1.68,1.68,0,0,1-2.1,1l-4.1-.6a1.46,1.46,0,0,1-1.3-1.6,1.29,1.29,0,0,1,1.5-1.2c1.6,0.2,3.2.5,4.6,0.8a4.7,4.7,0,0,1,1.2.9A1.08,1.08,0,0,1,187.77,103.61Zm-0.1-12a7.41,7.41,0,0,1-1.3,1.2c-1,.6-2.1,1-3.2,1.6a1.63,1.63,0,0,1-2.4-.6c-0.3-.7.1-1.5,1.1-2s2.3-.9,3.5-1.5,1.6-.4,2.4.7A1.27,1.27,0,0,0,187.67,91.61Z"/><g class="cls-6"><path class="cls-3" d="M82,156.32a0.7,0.7,0,0,1,.74-0.85H83a0.78,0.78,0,0,1,.39.07,1.25,1.25,0,0,1,.38.39l4.4,6.48a4.86,4.86,0,0,1,.4.68l0.28,0.59h0a0.36,0.36,0,0,0,0-.18c0-.12,0-0.29-0.07-0.52a4.18,4.18,0,0,1-.05-0.67v-6.43a0.43,0.43,0,0,1,.11-0.3,0.33,0.33,0,0,1,.26-0.12H90a0.32,0.32,0,0,1,.25.12,0.43,0.43,0,0,1,.11.3v9.38a0.54,0.54,0,0,1-.17.42,0.82,0.82,0,0,1-.52.26H89.28a0.89,0.89,0,0,1-.5-0.11,3.12,3.12,0,0,1-.57-0.67Q84.3,159.47,84,159l-0.57-1,0,0s0,0,0,.1,0,0.18.06,0.34,0,0.34.07,0.54q0.07,0.68.07,1.27v5.24a0.43,0.43,0,0,1-.11.29,0.33,0.33,0,0,1-.26.12h-0.9a0.32,0.32,0,0,1-.25-0.12,0.43,0.43,0,0,1-.11-0.29v-9.21Z"/><path class="cls-3" d="M94.38,162.48v0.13a2,2,0,0,0,.59,1.5,2.32,2.32,0,0,0,1.69.6,3.09,3.09,0,0,0,1.8-.58,0.51,0.51,0,0,1,.28-0.11,0.41,0.41,0,0,1,.38.25l0.18,0.38a0.71,0.71,0,0,1,.06.29,0.52,0.52,0,0,1-.14.33,1.45,1.45,0,0,1-.37.3,2.74,2.74,0,0,1-.52.24,5.46,5.46,0,0,1-.61.17,6.19,6.19,0,0,1-1.31.14,3.91,3.91,0,0,1-1.38-.26,3.36,3.36,0,0,1-1.2-.76,3.82,3.82,0,0,1-1.09-2.86q0-3.17,2.23-3.94a4.39,4.39,0,0,1,1.43-.24,4.35,4.35,0,0,1,1.25.16,2.57,2.57,0,0,1,.89.46,2.21,2.21,0,0,1,.79,1.81,2,2,0,0,1-.93,1.74,3.9,3.9,0,0,1-2.15.53A7.27,7.27,0,0,1,94.38,162.48Zm3.36-2q0-1-1.31-1a1.82,1.82,0,0,0-1.75.92,2.14,2.14,0,0,0-.23.79,3.34,3.34,0,0,0,1.5.29Q97.74,161.51,97.74,160.48Z"/><path class="cls-3" d="M111.73,158.24a0.38,0.38,0,0,1,.44.41,14.59,14.59,0,0,1-.67,3.89,8.37,8.37,0,0,1-1.32,2.8,1.51,1.51,0,0,1-1.18.7,1.42,1.42,0,0,1-1-.31,1.68,1.68,0,0,1-.48-0.9q-0.37-1.54-.52-2.1l-0.26-1-0.17-.59,0,0.18-0.06.27-0.14.59a16.89,16.89,0,0,1-.63,1.95q-0.22.5-.38,0.78a3,3,0,0,1-.37.52,1.43,1.43,0,0,1-1.08.55,1.47,1.47,0,0,1-1.53-1.31q-0.35-1.47-.79-2.91l-0.91-2.88a0.83,0.83,0,0,1,0-.27,0.39,0.39,0,0,1,.46-0.42h0.81a0.59,0.59,0,0,1,.56.51q0.4,1.4.7,2.75l0.59,2.69a0.26,0.26,0,0,0,.19.25,0.38,0.38,0,0,0,.28-0.27q0.13-.27.29-0.65c0.1-.26.2-0.53,0.3-0.83s0.19-.6.28-0.92,0.18-.63.25-1q0.23-1,.38-1.78l0-.29a0.61,0.61,0,0,1,.72-0.41,1.8,1.8,0,0,1,.55.05,0.94,0.94,0,0,1,.43.57q0.17,0.46.37,1.12t0.38,1.37q0.46,1.81.68,2.79a0.2,0.2,0,0,0,.14.2,0.58,0.58,0,0,0,.33-0.36,6.07,6.07,0,0,0,.41-1,13,13,0,0,0,.37-1.37,16.3,16.3,0,0,0,.36-3,0.39,0.39,0,0,1,.3-0.43l0.14,0h0.79Z"/><path class="cls-3" d="M125.42,157.7a0.71,0.71,0,0,1-.75.85H124.2a0.4,0.4,0,0,1-.34-0.16,0.82,0.82,0,0,1-.14-0.45,1,1,0,0,0-.17-0.52,1.22,1.22,0,0,0-.4-0.38,2.41,2.41,0,0,0-1.22-.27,2.64,2.64,0,0,0-1.32.32,2.56,2.56,0,0,0-.9.85,4.79,4.79,0,0,0-.66,2.67q0,3,2,3.77a3.24,3.24,0,0,0,1.18.23,4.23,4.23,0,0,0,1.83-.38l0.38-.18a0.82,0.82,0,0,1,.33-0.08,0.37,0.37,0,0,1,.23.07,1.06,1.06,0,0,1,.22.33,1,1,0,0,1,.13.44,0.63,0.63,0,0,1-.13.37,1.36,1.36,0,0,1-.32.32,3.15,3.15,0,0,1-.81.36,7,7,0,0,1-2,.26,4.86,4.86,0,0,1-2.06-.42,4.28,4.28,0,0,1-1.52-1.16,5.92,5.92,0,0,1-1.26-3.94,5.56,5.56,0,0,1,1.28-3.84,4.55,4.55,0,0,1,3.6-1.48,4.37,4.37,0,0,1,2.23.56A2,2,0,0,1,125.42,157.7Z"/><path class="cls-3" d="M126.57,162.07a4.35,4.35,0,0,1,.3-1.63,3.79,3.79,0,0,1,.82-1.27,4.13,4.13,0,0,1,5.61,0,4.11,4.11,0,0,1,1,2.91,4,4,0,0,1-1.11,2.93,4,4,0,0,1-5.54,0A4.07,4.07,0,0,1,126.57,162.07Zm2.2-1.74a2.64,2.64,0,0,0-.37.86,4.16,4.16,0,0,0-.12,1,3.35,3.35,0,0,0,.13.95,2.52,2.52,0,0,0,.4.81,1.94,1.94,0,0,0,1.64.78,1.88,1.88,0,0,0,1.63-.77,3,3,0,0,0,.49-1.83,2.52,2.52,0,0,0-1.13-2.39,2.26,2.26,0,0,0-2,0A1.94,1.94,0,0,0,128.77,160.33Z"/><path class="cls-3" d="M138,164.08q0,0.48.34,0.49a0.87,0.87,0,0,0,.28-0.06,1.81,1.81,0,0,1,.38-0.12,0.28,0.28,0,0,1,.25.2l0.21,0.49a0.52,0.52,0,0,1,0,.19,0.6,0.6,0,0,1-.26.38,2.06,2.06,0,0,1-1.36.43q-1.53,0-1.53-2v-9.75a0.47,0.47,0,0,1,.11-0.31,0.33,0.33,0,0,1,.26-0.13h0.92a0.32,0.32,0,0,1,.26.13,0.49,0.49,0,0,1,.1.31v9.8Z"/><path class="cls-3" d="M142.68,164.08q0,0.48.34,0.49a0.87,0.87,0,0,0,.28-0.06,1.81,1.81,0,0,1,.38-0.12,0.28,0.28,0,0,1,.25.2l0.21,0.49a0.52,0.52,0,0,1,0,.19,0.6,0.6,0,0,1-.26.38,2.06,2.06,0,0,1-1.36.43q-1.53,0-1.53-2v-9.75a0.47,0.47,0,0,1,.11-0.31,0.33,0.33,0,0,1,.26-0.13h0.92a0.32,0.32,0,0,1,.26.13,0.49,0.49,0,0,1,.1.31v9.8Z"/><path class="cls-3" d="M146.83,162.48v0.13a2,2,0,0,0,.59,1.5,2.32,2.32,0,0,0,1.69.6,3.09,3.09,0,0,0,1.8-.58,0.51,0.51,0,0,1,.28-0.11,0.41,0.41,0,0,1,.38.25l0.18,0.38a0.71,0.71,0,0,1,.06.29,0.52,0.52,0,0,1-.14.33,1.44,1.44,0,0,1-.37.3,2.74,2.74,0,0,1-.52.24,5.46,5.46,0,0,1-.61.17,6.19,6.19,0,0,1-1.31.14,3.91,3.91,0,0,1-1.38-.26,3.36,3.36,0,0,1-1.2-.76,3.82,3.82,0,0,1-1.09-2.86q0-3.17,2.23-3.94a4.39,4.39,0,0,1,1.43-.24,4.35,4.35,0,0,1,1.25.16,2.57,2.57,0,0,1,.89.46,2.21,2.21,0,0,1,.79,1.81,2,2,0,0,1-.93,1.74,3.9,3.9,0,0,1-2.15.53A7.27,7.27,0,0,1,146.83,162.48Zm3.36-2q0-1-1.31-1a1.82,1.82,0,0,0-1.75.92,2.14,2.14,0,0,0-.23.79,3.34,3.34,0,0,0,1.5.29Q150.19,161.51,150.19,160.48Z"/><path class="cls-3" d="M159,161.29a0.49,0.49,0,0,1-.56-0.55,1.21,1.21,0,0,0-.39-1,1.31,1.31,0,0,0-.9-0.29,1.72,1.72,0,0,0-.93.23,1.92,1.92,0,0,0-.6.59,3.12,3.12,0,0,0-.45,1.71,2.48,2.48,0,0,0,1.13,2.45,2,2,0,0,0,.91.21,2.58,2.58,0,0,0,.82-0.11,4.31,4.31,0,0,0,.57-0.24l0.44-.24a0.66,0.66,0,0,1,.31-0.11,0.44,0.44,0,0,1,.39.23l0.15,0.25a0.69,0.69,0,0,1,.1.34,0.59,0.59,0,0,1-.14.35,1.46,1.46,0,0,1-.37.33,3.19,3.19,0,0,1-.52.27,5.45,5.45,0,0,1-.61.21,4.14,4.14,0,0,1-2.75-.12,3.36,3.36,0,0,1-1.92-2.11,5.11,5.11,0,0,1-.26-1.68,4.72,4.72,0,0,1,.28-1.67,3.61,3.61,0,0,1,.77-1.25,3.53,3.53,0,0,1,2.66-1.05,3,3,0,0,1,2.22.76,2.21,2.21,0,0,1,.65,1.63,0.74,0.74,0,0,1-.85.83H159Z"/><path class="cls-3" d="M166.18,159.28a0.36,0.36,0,0,1-.43.38h-1.93V164a0.61,0.61,0,0,0,.69.7,2.36,2.36,0,0,0,1.14-.44,0.53,0.53,0,0,1,.3-0.09,0.3,0.3,0,0,1,.26.23l0.16,0.36a0.92,0.92,0,0,1,.09.35,0.5,0.5,0,0,1-.22.33,2.21,2.21,0,0,1-.55.34,3.4,3.4,0,0,1-1.37.34,3,3,0,0,1-1-.13,1.6,1.6,0,0,1-.61-0.38,2,2,0,0,1-.55-1.54v-4.36h-0.57a0.36,0.36,0,0,1-.43-0.39v-0.39a0.35,0.35,0,0,1,.08-0.25,0.6,0.6,0,0,1,.32-0.14l0.68-.2,0.26-1.61a0.42,0.42,0,0,1,.37-0.45h0.57a0.32,0.32,0,0,1,.26.13,0.5,0.5,0,0,1,.1.32v1.54h1.93a0.36,0.36,0,0,1,.43.38v0.66Z"/><path class="cls-3" d="M168.66,156.93a1.09,1.09,0,0,1-.79-0.32,1.05,1.05,0,0,1-.33-0.79,1.1,1.1,0,0,1,1.12-1.11,1,1,0,0,1,1,.67,1.07,1.07,0,0,1,.09.44,1.05,1.05,0,0,1-.33.79A1.09,1.09,0,0,1,168.66,156.93Zm0.8,7.15c0,0.32.11,0.49,0.32,0.49a0.61,0.61,0,0,0,.25-0.06,1.17,1.17,0,0,1,.36-0.12,0.27,0.27,0,0,1,.23.2l0.21,0.48a0.52,0.52,0,0,1,.05.22,0.72,0.72,0,0,1-.51.55,2.06,2.06,0,0,1-.95.25,2.23,2.23,0,0,1-.75-0.1,1.1,1.1,0,0,1-.48-0.34,2.56,2.56,0,0,1-.4-1.6V158.7a0.48,0.48,0,0,1,.11-0.32,0.33,0.33,0,0,1,.26-0.13h0.92a0.32,0.32,0,0,1,.26.13,0.5,0.5,0,0,1,.1.32v5.38Z"/><path class="cls-3" d="M172.05,162.07a4.35,4.35,0,0,1,.3-1.63,3.78,3.78,0,0,1,.82-1.27,4.13,4.13,0,0,1,5.61,0,4.11,4.11,0,0,1,1,2.91,4,4,0,0,1-1.11,2.93,4,4,0,0,1-5.54,0A4.07,4.07,0,0,1,172.05,162.07Zm2.2-1.74a2.63,2.63,0,0,0-.37.86,4.13,4.13,0,0,0-.12,1,3.35,3.35,0,0,0,.13.95,2.52,2.52,0,0,0,.4.81,1.94,1.94,0,0,0,1.64.78,1.88,1.88,0,0,0,1.63-.77,3,3,0,0,0,.49-1.83,2.52,2.52,0,0,0-1.13-2.39,2.27,2.27,0,0,0-2,0A1.94,1.94,0,0,0,174.25,160.33Z"/><path class="cls-3" d="M181.83,158.74a0.43,0.43,0,0,1,.47-0.49h0.38a0.52,0.52,0,0,1,.52.29,5,5,0,0,1,.33,1.08,2.82,2.82,0,0,1,1.83-1.44,3.75,3.75,0,0,1,1-.1,2.33,2.33,0,0,1,1.06.24,1.94,1.94,0,0,1,.77.67,4.1,4.1,0,0,1,.52,2.28v4.25a0.45,0.45,0,0,1-.12.32,0.48,0.48,0,0,1-.36.13H187.5a0.5,0.5,0,0,1-.38-0.13,0.45,0.45,0,0,1-.12-0.32v-4.25q0-1.75-1.29-1.75a1.9,1.9,0,0,0-1.37.63,2.18,2.18,0,0,0-.66,1.57v3.8a0.47,0.47,0,0,1-.12.32,0.45,0.45,0,0,1-.36.13h-0.7a0.47,0.47,0,0,1-.36-0.13,0.45,0.45,0,0,1-.12-0.32v-4.2a14,14,0,0,0-.09-1.92A6.38,6.38,0,0,1,181.83,158.74Z"/></g><g class="cls-6"><g class="cls-6"><path d="M83.23,199.88a2.5,2.5,0,0,0,1.9.71,2.65,2.65,0,0,0,1.82-.53,2.59,2.59,0,0,0,.78-1.37,0.37,0.37,0,0,1,.13-0.22,0.36,0.36,0,0,1,.23-0.08h0.64a0.31,0.31,0,0,1,.31.31,3.13,3.13,0,0,1-.45,1.42,3.39,3.39,0,0,1-1.29,1.24,4.31,4.31,0,0,1-2.18.5,4.17,4.17,0,0,1-2.06-.49A3.46,3.46,0,0,1,81.71,200a4.27,4.27,0,0,1-.53-2q0-.42,0-1.25t0-1.25a4.26,4.26,0,0,1,.53-2,3.46,3.46,0,0,1,1.36-1.35,4.17,4.17,0,0,1,2.06-.49,4.3,4.3,0,0,1,2.18.5,3.39,3.39,0,0,1,1.29,1.24,3.13,3.13,0,0,1,.45,1.42,0.31,0.31,0,0,1-.31.31H88.1a0.36,0.36,0,0,1-.23-0.08,0.37,0.37,0,0,1-.13-0.22,2.6,2.6,0,0,0-.78-1.37,2.65,2.65,0,0,0-1.82-.53,2.5,2.5,0,0,0-1.9.71,2.77,2.77,0,0,0-.72,1.9q0,0.42,0,1.18t0,1.18A2.77,2.77,0,0,0,83.23,199.88Z"/><path d="M94.69,194.54a0.37,0.37,0,0,1,.11.27v0.45a0.38,0.38,0,0,1-.38.38H93.61A1.45,1.45,0,0,0,92,197.24v4.09a0.38,0.38,0,0,1-.38.38H91.11a0.38,0.38,0,0,1-.38-0.38V194.8a0.38,0.38,0,0,1,.38-0.38h0.52a0.38,0.38,0,0,1,.38.38v0.43a1.75,1.75,0,0,1,.67-0.62,2.29,2.29,0,0,1,1-.2h0.73A0.37,0.37,0,0,1,94.69,194.54Z"/><path d="M101.1,195.24a3.7,3.7,0,0,1,.87,2.59v0.38a0.38,0.38,0,0,1-.38.38H96.78v0.08a2,2,0,0,0,.57,1.45,1.91,1.91,0,0,0,1.39.52,2.6,2.6,0,0,0,1.08-.18,2.23,2.23,0,0,0,.69-0.52,0.74,0.74,0,0,1,.2-0.15,0.59,0.59,0,0,1,.25,0h0.42a0.38,0.38,0,0,1,.28.11,0.32,0.32,0,0,1,.1.27,1.53,1.53,0,0,1-.41.78,2.75,2.75,0,0,1-1,.67,4.18,4.18,0,0,1-1.59.27,3.08,3.08,0,0,1-1.6-.41A3,3,0,0,1,96,200.29a4,4,0,0,1-.5-1.64q0-.42,0-0.64t0-.64a3.76,3.76,0,0,1,.5-1.57,3.06,3.06,0,0,1,1.11-1.11,3.11,3.11,0,0,1,1.6-.41A3,3,0,0,1,101.1,195.24Zm-0.39,2.17v0a1.79,1.79,0,0,0-.54-1.37,2,2,0,0,0-1.44-.51,2,2,0,0,0-1.38.52,1.8,1.8,0,0,0-.58,1.36v0h3.93Z"/><path d="M108,197.1v-0.18a1.29,1.29,0,0,0-.46-1.06,1.81,1.81,0,0,0-1.18-.37,1.71,1.71,0,0,0-.87.19,2.11,2.11,0,0,0-.59.57,0.46,0.46,0,0,1-.18.15,0.7,0.7,0,0,1-.27,0H104a0.38,0.38,0,0,1-.27-0.11,0.31,0.31,0,0,1-.1-0.27,1.48,1.48,0,0,1,.41-0.83,2.79,2.79,0,0,1,1-.68,3.29,3.29,0,0,1,1.32-.27,3,3,0,0,1,2.11.73,2.62,2.62,0,0,1,.8,2v4.27a0.38,0.38,0,0,1-.38.38h-0.52a0.38,0.38,0,0,1-.38-0.38v-0.57a1.64,1.64,0,0,1-1,.8,3.86,3.86,0,0,1-1.46.29,3,3,0,0,1-1.27-.26,2,2,0,0,1-.86-0.71,1.77,1.77,0,0,1-.3-1,2,2,0,0,1,.78-1.64,4.62,4.62,0,0,1,2.09-.81Zm0,1.12-1.65.27a3.77,3.77,0,0,0-1.41.46,0.92,0.92,0,0,0-.5.79,0.82,0.82,0,0,0,.32.63,1.46,1.46,0,0,0,1,.28,2.34,2.34,0,0,0,1.64-.57,1.93,1.93,0,0,0,.63-1.5v-0.35Z"/><path d="M113.38,200.18a1.11,1.11,0,0,0,.93.32H115a0.38,0.38,0,0,1,.38.38v0.45a0.38,0.38,0,0,1-.38.38h-0.88a2.24,2.24,0,0,1-1.75-.62,2.65,2.65,0,0,1-.56-1.83v-3.63h-1a0.38,0.38,0,0,1-.38-0.38V194.8a0.38,0.38,0,0,1,.38-0.38h1v-2.28a0.38,0.38,0,0,1,.38-0.38h0.52a0.38,0.38,0,0,1,.38.38v2.28h1.78a0.38,0.38,0,0,1,.38.38v0.45a0.38,0.38,0,0,1-.38.38h-1.78v3.63A1.5,1.5,0,0,0,113.38,200.18Z"/><path d="M122.06,195.24a3.7,3.7,0,0,1,.87,2.59v0.38a0.38,0.38,0,0,1-.38.38h-4.82v0.08a2,2,0,0,0,.57,1.45,1.91,1.91,0,0,0,1.39.52,2.6,2.6,0,0,0,1.08-.18,2.23,2.23,0,0,0,.69-0.52,0.74,0.74,0,0,1,.2-0.15,0.59,0.59,0,0,1,.25,0h0.42a0.38,0.38,0,0,1,.28.11,0.32,0.32,0,0,1,.1.27,1.53,1.53,0,0,1-.41.78,2.75,2.75,0,0,1-1,.67,4.18,4.18,0,0,1-1.59.27,3.08,3.08,0,0,1-1.6-.41,3,3,0,0,1-1.11-1.14,4,4,0,0,1-.5-1.64q0-.42,0-0.64t0-.64a3.76,3.76,0,0,1,.5-1.57,3.06,3.06,0,0,1,1.11-1.11,3.11,3.11,0,0,1,1.6-.41A3,3,0,0,1,122.06,195.24Zm-0.39,2.17v0a1.79,1.79,0,0,0-.54-1.37,2,2,0,0,0-1.44-.51,2,2,0,0,0-1.38.52,1.8,1.8,0,0,0-.58,1.36v0h3.93Z"/><path d="M132.37,197.1v-0.18a1.29,1.29,0,0,0-.46-1.06,1.81,1.81,0,0,0-1.18-.37,1.71,1.71,0,0,0-.87.19,2.11,2.11,0,0,0-.59.57,0.46,0.46,0,0,1-.18.15,0.7,0.7,0,0,1-.27,0h-0.42a0.38,0.38,0,0,1-.27-0.11,0.31,0.31,0,0,1-.1-0.27,1.48,1.48,0,0,1,.41-0.83,2.79,2.79,0,0,1,1-.68,3.29,3.29,0,0,1,1.32-.27,3,3,0,0,1,2.11.73,2.62,2.62,0,0,1,.8,2v4.27a0.38,0.38,0,0,1-.38.38h-0.52a0.38,0.38,0,0,1-.38-0.38v-0.57a1.64,1.64,0,0,1-1,.8,3.86,3.86,0,0,1-1.46.29,3,3,0,0,1-1.27-.26,2,2,0,0,1-.86-0.71,1.77,1.77,0,0,1-.3-1,2,2,0,0,1,.78-1.64,4.62,4.62,0,0,1,2.09-.81Zm0,1.12-1.65.27a3.77,3.77,0,0,0-1.41.46,0.92,0.92,0,0,0-.5.79,0.82,0.82,0,0,0,.32.63,1.46,1.46,0,0,0,1,.28,2.34,2.34,0,0,0,1.64-.57,1.93,1.93,0,0,0,.63-1.5v-0.35Z"/><path d="M143.93,199.55a0.89,0.89,0,0,1,.2-0.29,0.4,0.4,0,0,1,.27-0.08h0.42a0.37,0.37,0,0,1,.27.11,0.32,0.32,0,0,1,.11.25,1.82,1.82,0,0,1-.38,1,3,3,0,0,1-1.09.92,3.54,3.54,0,0,1-1.68.38,3.38,3.38,0,0,1-1.72-.42,2.87,2.87,0,0,1-1.12-1.15,3.83,3.83,0,0,1-.43-1.65c0-.11,0-0.33,0-0.64s0-.38,0-0.48a3.77,3.77,0,0,1,1-2.32,3,3,0,0,1,2.31-.9,3.56,3.56,0,0,1,1.67.37,2.92,2.92,0,0,1,1.08.91,2,2,0,0,1,.4,1,0.31,0.31,0,0,1-.1.27,0.39,0.39,0,0,1-.27.11h-0.42a0.4,0.4,0,0,1-.27-0.08,0.88,0.88,0,0,1-.2-0.29,1.87,1.87,0,0,0-1.89-1.09,1.94,1.94,0,0,0-1.34.52,2.27,2.27,0,0,0-.66,1.57q0,0.15,0,.5c0,0.21,0,.37,0,0.48a2.33,2.33,0,0,0,.67,1.57,1.92,1.92,0,0,0,1.34.52A1.87,1.87,0,0,0,143.93,199.55Z"/><path d="M153.2,198.08q0,0.34,0,.64a3.5,3.5,0,0,1-1,2.28,3.63,3.63,0,0,1-4.66,0,3.5,3.5,0,0,1-1-2.28c0-.1,0-0.32,0-0.64s0-.57,0-0.67a3.43,3.43,0,0,1,1-2.28,3.65,3.65,0,0,1,4.68,0,3.43,3.43,0,0,1,1,2.28C153.19,197.61,153.2,197.84,153.2,198.08Zm-1.9-2a2.2,2.2,0,0,0-2.9,0,2.36,2.36,0,0,0-.6,1.44c0,0.11,0,.31,0,0.6s0,0.47,0,.57a2.36,2.36,0,0,0,.6,1.44,2.2,2.2,0,0,0,2.9,0,2.36,2.36,0,0,0,.59-1.44q0-.31,0-0.57c0-.18,0-0.38,0-0.6A2.36,2.36,0,0,0,151.3,196Z"/><path d="M156.11,201.59a0.36,0.36,0,0,1-.27.11h-0.52a0.38,0.38,0,0,1-.38-0.38v-9.18a0.38,0.38,0,0,1,.38-0.38h0.52a0.38,0.38,0,0,1,.38.38v9.18A0.36,0.36,0,0,1,156.11,201.59Z"/><path d="M159.48,201.59a0.36,0.36,0,0,1-.27.11H158.7a0.38,0.38,0,0,1-.38-0.38v-9.18a0.38,0.38,0,0,1,.38-0.38h0.52a0.38,0.38,0,0,1,.38.38v9.18A0.36,0.36,0,0,1,159.48,201.59Z"/><path d="M166.93,195.24a3.7,3.7,0,0,1,.87,2.59v0.38a0.38,0.38,0,0,1-.38.38h-4.82v0.08a2,2,0,0,0,.57,1.45,1.92,1.92,0,0,0,1.39.52,2.6,2.6,0,0,0,1.08-.18,2.24,2.24,0,0,0,.69-0.52,0.74,0.74,0,0,1,.2-0.15,0.59,0.59,0,0,1,.25,0h0.42a0.38,0.38,0,0,1,.28.11,0.32,0.32,0,0,1,.1.27,1.53,1.53,0,0,1-.41.78,2.75,2.75,0,0,1-1,.67,4.18,4.18,0,0,1-1.59.27,3.08,3.08,0,0,1-1.6-.41,3,3,0,0,1-1.11-1.14,4,4,0,0,1-.5-1.64q0-.42,0-0.64t0-.64a3.75,3.75,0,0,1,.5-1.57,3.06,3.06,0,0,1,1.11-1.11,3.11,3.11,0,0,1,1.6-.41A3,3,0,0,1,166.93,195.24Zm-0.39,2.17v0A1.79,1.79,0,0,0,166,196a2,2,0,0,0-1.43-.51,2,2,0,0,0-1.38.52,1.79,1.79,0,0,0-.58,1.36v0h3.93Z"/><path d="M174.32,199.55a0.89,0.89,0,0,1,.2-0.29,0.39,0.39,0,0,1,.27-0.08h0.42a0.37,0.37,0,0,1,.27.11,0.32,0.32,0,0,1,.11.25,1.82,1.82,0,0,1-.38,1,3,3,0,0,1-1.09.92,3.54,3.54,0,0,1-1.68.38,3.39,3.39,0,0,1-1.72-.42,2.87,2.87,0,0,1-1.12-1.15,3.84,3.84,0,0,1-.43-1.65c0-.11,0-0.33,0-0.64s0-.38,0-0.48a3.77,3.77,0,0,1,1-2.32,3,3,0,0,1,2.31-.9,3.56,3.56,0,0,1,1.67.37,2.93,2.93,0,0,1,1.08.91,2,2,0,0,1,.4,1,0.31,0.31,0,0,1-.1.27,0.39,0.39,0,0,1-.27.11h-0.42a0.39,0.39,0,0,1-.27-0.08,0.88,0.88,0,0,1-.2-0.29,1.87,1.87,0,0,0-1.89-1.09,2,2,0,0,0-1.34.52,2.27,2.27,0,0,0-.66,1.57c0,0.1,0,.27,0,0.5s0,0.37,0,.48a2.33,2.33,0,0,0,.67,1.57,1.92,1.92,0,0,0,1.34.52A1.87,1.87,0,0,0,174.32,199.55Z"/><path d="M179.41,200.18a1.11,1.11,0,0,0,.93.32h0.74a0.38,0.38,0,0,1,.38.38v0.45a0.38,0.38,0,0,1-.38.38H180.2a2.24,2.24,0,0,1-1.75-.62,2.65,2.65,0,0,1-.56-1.83v-3.63h-1a0.38,0.38,0,0,1-.38-0.38V194.8a0.38,0.38,0,0,1,.38-0.38h1v-2.28a0.38,0.38,0,0,1,.38-0.38h0.52a0.38,0.38,0,0,1,.38.38v2.28h1.78a0.38,0.38,0,0,1,.38.38v0.45a0.38,0.38,0,0,1-.38.38h-1.78v3.63A1.5,1.5,0,0,0,179.41,200.18Z"/><path d="M184.17,193.21a0.36,0.36,0,0,1-.27.11h-0.8a0.38,0.38,0,0,1-.38-0.38v-0.8a0.38,0.38,0,0,1,.38-0.38h0.8a0.38,0.38,0,0,1,.38.38v0.8A0.36,0.36,0,0,1,184.17,193.21ZM184,201.59a0.36,0.36,0,0,1-.27.11h-0.52a0.38,0.38,0,0,1-.38-0.38V194.8a0.38,0.38,0,0,1,.38-0.38h0.52a0.38,0.38,0,0,1,.38.38v6.52A0.36,0.36,0,0,1,184,201.59Z"/><path d="M192.57,198.08q0,0.34,0,.64a3.5,3.5,0,0,1-1,2.28,3.63,3.63,0,0,1-4.66,0,3.5,3.5,0,0,1-1-2.28c0-.1,0-0.32,0-0.64s0-.57,0-0.67a3.43,3.43,0,0,1,1-2.28,3.65,3.65,0,0,1,4.68,0,3.43,3.43,0,0,1,1,2.28C192.56,197.61,192.57,197.84,192.57,198.08Zm-1.9-2a2.2,2.2,0,0,0-2.9,0,2.37,2.37,0,0,0-.6,1.44c0,0.11,0,.31,0,0.6s0,0.47,0,.57a2.37,2.37,0,0,0,.6,1.44,2.2,2.2,0,0,0,2.9,0,2.37,2.37,0,0,0,.6-1.44q0-.31,0-0.57c0-.18,0-0.38,0-0.6A2.37,2.37,0,0,0,190.67,196Z"/><path d="M200.67,201.59a0.36,0.36,0,0,1-.27.11h-0.52a0.38,0.38,0,0,1-.38-0.38v-3.7A2.24,2.24,0,0,0,199,196a2.17,2.17,0,0,0-2.88,0,2.21,2.21,0,0,0-.53,1.6v3.7a0.38,0.38,0,0,1-.38.38h-0.52a0.38,0.38,0,0,1-.38-0.38V194.8a0.38,0.38,0,0,1,.38-0.38h0.52a0.38,0.38,0,0,1,.38.38v0.43a2.41,2.41,0,0,1,.85-0.68,2.91,2.91,0,0,1,1.32-.27,3.2,3.2,0,0,1,1.57.38,2.67,2.67,0,0,1,1.07,1.08,3.45,3.45,0,0,1,.39,1.67v3.91A0.36,0.36,0,0,1,200.67,201.59Z"/><path d="M212.56,198.08q0,0.34,0,.64a3.5,3.5,0,0,1-1,2.28,3.63,3.63,0,0,1-4.66,0,3.5,3.5,0,0,1-1-2.28c0-.1,0-0.32,0-0.64s0-.57,0-0.67a3.43,3.43,0,0,1,1-2.28,3.65,3.65,0,0,1,4.68,0,3.43,3.43,0,0,1,1,2.28C212.55,197.61,212.56,197.84,212.56,198.08Zm-1.9-2a2.2,2.2,0,0,0-2.9,0,2.37,2.37,0,0,0-.6,1.44c0,0.11,0,.31,0,0.6s0,0.47,0,.57a2.37,2.37,0,0,0,.6,1.44,2.2,2.2,0,0,0,2.9,0,2.37,2.37,0,0,0,.6-1.44q0-.31,0-0.57c0-.18,0-0.38,0-0.6A2.37,2.37,0,0,0,210.66,196Z"/><path d="M218,194.43a0.38,0.38,0,0,1,.38.38v0.45a0.38,0.38,0,0,1-.38.38h-1.78v5.7a0.38,0.38,0,0,1-.38.38h-0.52a0.38,0.38,0,0,1-.38-0.38v-5.7h-1.18a0.38,0.38,0,0,1-.38-0.38V194.8a0.38,0.38,0,0,1,.38-0.38H215v-0.7a2.52,2.52,0,0,1,.56-1.79,2.32,2.32,0,0,1,1.75-.59h0.88a0.38,0.38,0,0,1,.38.38v0.45a0.38,0.38,0,0,1-.38.38h-0.74a1.11,1.11,0,0,0-.93.32,1.5,1.5,0,0,0-.24.92v0.63H218Z"/></g><g class="cls-6"><path d="M86.63,212a3.7,3.7,0,0,1,.87,2.59V215a0.38,0.38,0,0,1-.38.38H82.3v0.08a2,2,0,0,0,.57,1.45,1.91,1.91,0,0,0,1.39.52,2.6,2.6,0,0,0,1.08-.18,2.23,2.23,0,0,0,.69-0.52,0.74,0.74,0,0,1,.2-0.15,0.59,0.59,0,0,1,.25,0h0.42a0.38,0.38,0,0,1,.28.11,0.32,0.32,0,0,1,.1.27,1.53,1.53,0,0,1-.41.78,2.75,2.75,0,0,1-1,.67,4.18,4.18,0,0,1-1.59.27,3.08,3.08,0,0,1-1.6-.41,3,3,0,0,1-1.11-1.14,4,4,0,0,1-.5-1.64q0-.42,0-0.64t0-.64a3.76,3.76,0,0,1,.5-1.57,3.06,3.06,0,0,1,1.11-1.11,3.11,3.11,0,0,1,1.6-.41A3,3,0,0,1,86.63,212Zm-0.39,2.17v0a1.79,1.79,0,0,0-.54-1.37,2,2,0,0,0-1.44-.51,2,2,0,0,0-1.38.52,1.8,1.8,0,0,0-.58,1.36v0h3.93Z"/><path d="M89.82,218.24a1.49,1.49,0,0,1-.2.19,0.39,0.39,0,0,1-.25.08H88.73a0.32,0.32,0,0,1-.24-0.1,0.31,0.31,0,0,1-.1-0.22,0.34,0.34,0,0,1,.06-0.2L91,214.78l-2.42-3a0.34,0.34,0,0,1-.06-0.2,0.31,0.31,0,0,1,.1-0.22,0.32,0.32,0,0,1,.24-0.1h0.67a0.4,0.4,0,0,1,.25.08,1.5,1.5,0,0,1,.2.19l1.86,2.34,1.85-2.34a1.47,1.47,0,0,1,.2-0.19,0.4,0.4,0,0,1,.25-0.08h0.64a0.32,0.32,0,0,1,.24.1,0.31,0.31,0,0,1,.1.22,0.35,0.35,0,0,1-.06.2l-2.44,3.07L95.17,218a0.34,0.34,0,0,1,.06.2,0.31,0.31,0,0,1-.1.22,0.32,0.32,0,0,1-.24.1H94.22a0.39,0.39,0,0,1-.25-0.08,1.43,1.43,0,0,1-.2-0.19l-2-2.48Z"/><path d="M98,220.79a0.38,0.38,0,0,1-.38.38H97.09a0.38,0.38,0,0,1-.38-0.38V211.6a0.38,0.38,0,0,1,.38-0.38H97.6a0.38,0.38,0,0,1,.38.38V212a2.54,2.54,0,0,1,2.17-1,3.11,3.11,0,0,1,1.57.41,3,3,0,0,1,1.13,1.16,3.86,3.86,0,0,1,.47,1.76q0,0.14,0,.45c0,0.21,0,.37,0,0.46a3.81,3.81,0,0,1-.47,1.76,3.06,3.06,0,0,1-1.13,1.16,3.1,3.1,0,0,1-1.58.41,2.91,2.91,0,0,1-1.32-.27,2.4,2.4,0,0,1-.85-0.68v3.09Zm0.59-3.89a2,2,0,0,0,1.44.55,1.87,1.87,0,0,0,1.45-.59,2.49,2.49,0,0,0,.59-1.6c0-.09,0-0.22,0-0.39s0-.3,0-0.39a2.49,2.49,0,0,0-.59-1.6,1.87,1.87,0,0,0-1.45-.59,2,2,0,0,0-1.43.54,2,2,0,0,0-.6,1.43v1.11A2.2,2.2,0,0,0,98.57,216.9Z"/><path d="M106.24,218.39a0.36,0.36,0,0,1-.27.11h-0.52a0.38,0.38,0,0,1-.38-0.38v-9.18a0.38,0.38,0,0,1,.38-0.38H106a0.38,0.38,0,0,1,.38.38v9.18A0.36,0.36,0,0,1,106.24,218.39Z"/><path d="M114.78,214.88q0,0.34,0,.64a3.5,3.5,0,0,1-1,2.28,3.63,3.63,0,0,1-4.66,0,3.5,3.5,0,0,1-1-2.28c0-.1,0-0.32,0-0.64s0-.57,0-0.67a3.43,3.43,0,0,1,1-2.28,3.65,3.65,0,0,1,4.68,0,3.43,3.43,0,0,1,1,2.28C114.77,214.41,114.78,214.64,114.78,214.88Zm-1.9-2a2.2,2.2,0,0,0-2.9,0,2.36,2.36,0,0,0-.6,1.44c0,0.11,0,.31,0,0.6s0,0.47,0,.57a2.36,2.36,0,0,0,.6,1.44,2.2,2.2,0,0,0,2.9,0,2.36,2.36,0,0,0,.6-1.44q0-.31,0-0.57c0-.18,0-0.38,0-0.6A2.36,2.36,0,0,0,112.89,212.84Z"/><path d="M120.49,211.34a0.37,0.37,0,0,1,.11.27v0.45a0.38,0.38,0,0,1-.38.38h-0.81a1.45,1.45,0,0,0-1.61,1.61v4.09a0.38,0.38,0,0,1-.38.38h-0.52a0.38,0.38,0,0,1-.38-0.38V211.6a0.38,0.38,0,0,1,.38-0.38h0.52a0.38,0.38,0,0,1,.38.38V212a1.75,1.75,0,0,1,.67-0.62,2.29,2.29,0,0,1,1-.2h0.73A0.37,0.37,0,0,1,120.49,211.34Z"/><path d="M126,213.9v-0.18a1.29,1.29,0,0,0-.46-1.06,1.81,1.81,0,0,0-1.18-.37,1.71,1.71,0,0,0-.87.19,2.11,2.11,0,0,0-.59.57,0.46,0.46,0,0,1-.18.15,0.7,0.7,0,0,1-.27,0h-0.42a0.38,0.38,0,0,1-.27-0.11,0.31,0.31,0,0,1-.1-0.27,1.48,1.48,0,0,1,.41-0.83,2.79,2.79,0,0,1,1-.68,3.29,3.29,0,0,1,1.32-.27,3,3,0,0,1,2.11.73,2.62,2.62,0,0,1,.8,2v4.27a0.38,0.38,0,0,1-.38.38h-0.52a0.38,0.38,0,0,1-.38-0.38v-0.57a1.64,1.64,0,0,1-1,.8,3.86,3.86,0,0,1-1.46.29,3,3,0,0,1-1.27-.26,2,2,0,0,1-.86-0.71,1.77,1.77,0,0,1-.3-1A2,2,0,0,1,122,215a4.62,4.62,0,0,1,2.09-.81Zm0,1.12-1.65.27a3.77,3.77,0,0,0-1.41.46,0.92,0.92,0,0,0-.5.79,0.82,0.82,0,0,0,.32.63,1.46,1.46,0,0,0,1,.28,2.34,2.34,0,0,0,1.64-.57,1.93,1.93,0,0,0,.63-1.5V215Z"/><path d="M131.42,217a1.11,1.11,0,0,0,.93.32h0.74a0.38,0.38,0,0,1,.38.38v0.45a0.38,0.38,0,0,1-.38.38h-0.88a2.24,2.24,0,0,1-1.75-.62,2.65,2.65,0,0,1-.56-1.83v-3.63h-1a0.38,0.38,0,0,1-.38-0.38V211.6a0.38,0.38,0,0,1,.38-0.38h1v-2.28a0.38,0.38,0,0,1,.38-0.38h0.52a0.38,0.38,0,0,1,.38.38v2.28H133a0.38,0.38,0,0,1,.38.38v0.45a0.38,0.38,0,0,1-.38.38h-1.78v3.63A1.5,1.5,0,0,0,131.42,217Z"/><path d="M136.17,210a0.36,0.36,0,0,1-.27.11h-0.8a0.38,0.38,0,0,1-.38-0.38v-0.8a0.38,0.38,0,0,1,.38-0.38h0.8a0.38,0.38,0,0,1,.38.38v0.8A0.36,0.36,0,0,1,136.17,210ZM136,218.39a0.36,0.36,0,0,1-.27.11h-0.52a0.38,0.38,0,0,1-.38-0.38V211.6a0.38,0.38,0,0,1,.38-0.38h0.52a0.38,0.38,0,0,1,.38.38v6.52A0.36,0.36,0,0,1,136,218.39Z"/><path d="M144.57,214.88q0,0.34,0,.64a3.5,3.5,0,0,1-1,2.28,3.63,3.63,0,0,1-4.66,0,3.5,3.5,0,0,1-1-2.28c0-.1,0-0.32,0-0.64s0-.57,0-0.67a3.43,3.43,0,0,1,1-2.28,3.65,3.65,0,0,1,4.68,0,3.43,3.43,0,0,1,1,2.28C144.56,214.41,144.57,214.64,144.57,214.88Zm-1.9-2a2.2,2.2,0,0,0-2.9,0,2.36,2.36,0,0,0-.6,1.44c0,0.11,0,.31,0,0.6s0,0.47,0,.57a2.36,2.36,0,0,0,.6,1.44,2.2,2.2,0,0,0,2.9,0,2.36,2.36,0,0,0,.6-1.44q0-.31,0-0.57c0-.18,0-0.38,0-0.6A2.36,2.36,0,0,0,142.68,212.84Z"/><path d="M152.68,218.39a0.36,0.36,0,0,1-.27.11H151.9a0.38,0.38,0,0,1-.38-0.38v-3.7a2.23,2.23,0,0,0-.52-1.6,2.17,2.17,0,0,0-2.88,0,2.21,2.21,0,0,0-.52,1.6v3.7a0.38,0.38,0,0,1-.38.38H146.7a0.38,0.38,0,0,1-.38-0.38V211.6a0.38,0.38,0,0,1,.38-0.38h0.52a0.38,0.38,0,0,1,.38.38V212a2.41,2.41,0,0,1,.85-0.68,2.91,2.91,0,0,1,1.32-.27,3.2,3.2,0,0,1,1.57.38,2.67,2.67,0,0,1,1.07,1.08,3.45,3.45,0,0,1,.39,1.67v3.91A0.36,0.36,0,0,1,152.68,218.39Z"/><path d="M154.53,213.19a1.89,1.89,0,0,1,.31-1,2.14,2.14,0,0,1,.92-0.76,3.48,3.48,0,0,1,1.49-.29,4,4,0,0,1,1.5.25,2.46,2.46,0,0,1,1,.63,1.13,1.13,0,0,1,.33.73,0.32,0.32,0,0,1-.11.24,0.38,0.38,0,0,1-.27.11h-0.46a0.51,0.51,0,0,1-.42-0.2,1.82,1.82,0,0,0-1.53-.56,2,2,0,0,0-1,.24,0.73,0.73,0,0,0-.4.66,0.69,0.69,0,0,0,.2.53,1.43,1.43,0,0,0,.59.29q0.39,0.11,1.39.34a3.37,3.37,0,0,1,1.75.81,1.86,1.86,0,0,1,.52,1.33,1.76,1.76,0,0,1-.36,1.06,2.5,2.5,0,0,1-1,.79,3.71,3.71,0,0,1-1.55.3,4,4,0,0,1-1.53-.27,2.86,2.86,0,0,1-1-.67,1.13,1.13,0,0,1-.36-0.74,0.33,0.33,0,0,1,.11-0.25,0.37,0.37,0,0,1,.27-0.1h0.5a0.83,0.83,0,0,1,.22,0,0.35,0.35,0,0,1,.18.15,1.88,1.88,0,0,0,1.64.64,2.37,2.37,0,0,0,1.16-.27,0.79,0.79,0,0,0,.5-0.68,0.66,0.66,0,0,0-.25-0.54,2,2,0,0,0-.71-0.34q-0.46-.13-1.44-0.34Q154.53,214.84,154.53,213.19Z"/></g></g></svg>