<svg id="Layer_1" data-name="Layer 1" xmlns="http://www.w3.org/2000/svg" viewBox="0 0 300 350"><defs><style>.cls-1{fill:#afd2eb;}.cls-2{opacity:0.22;}.cls-2,.cls-6{isolation:isolate;}.cls-3{fill:#fff;}.cls-4{fill:#d0982a;}.cls-5{fill:none;}</style></defs><title>exploration</title><rect class="cls-1" width="300" height="350"/><rect class="cls-2" x="48" y="66.5" width="200" height="230"/><rect class="cls-3" x="50" y="54" width="200" height="240"/><rect class="cls-4" x="49.9" y="54" width="200" height="144"/><rect class="cls-5" x="114.1" y="83.9" width="74.4" height="74.4" transform="translate(-0.94 1.19) rotate(-0.45)"/><path class="cls-3" d="M151.1,89.4A31.7,31.7,0,1,0,183,120.9,31.77,31.77,0,0,0,151.1,89.4Zm-0.1,8h0.8a2.17,2.17,0,0,1,1,1.9v3.6c0,1.1-.5,1.8-1.4,1.8s-1.3-.6-1.3-1.8,0.1-2.5,0-3.7A1.61,1.61,0,0,1,151,97.4Zm-20.3,12.5c0.9-1,1.3-1.1,2.5-.5a17.5,17.5,0,0,1,3.4,1.5,1.55,1.55,0,0,1,1.1,1.8,1.48,1.48,0,0,1-2.1.7c-1.4-.6-2.8-1.3-4.1-1.9a6,6,0,0,1-.8-0.8v-0.8Zm6.4,13.1c-1.5.3-3,.4-4.4,0.7a1.83,1.83,0,0,1-1.8-.9v-0.6a2,2,0,0,1,1.9-1.1,28.68,28.68,0,0,1,3.1-.5c0.3,0,.6-0.1,1-0.1a1.39,1.39,0,0,1,1.6,1.1C138.6,122.4,137.8,122.8,137.1,123Zm1.8-22.5a1.76,1.76,0,0,1,1.6.1c1.1,1.4,2,3,3,4.4a2.18,2.18,0,0,1,.1.6,2.28,2.28,0,0,1-.8.9,1.21,1.21,0,0,1-1.3-.1c-1.1-1.4-2-2.8-3-4.3A1,1,0,0,1,138.9,100.5Zm16.3,42.6H147a1,1,0,0,1-1.2-1c-0.1-2.1-.1-2.1,2-2.1,2.7,0,5.3-.1,7.9,0,1.2,0,1.3,0,1.4,1.2C157.2,143.1,157.2,143.1,155.2,143.1Zm0-4.3H147a1,1,0,0,1-1.2-1c-0.1-2.1-.1-2.1,2-2.1,2.7,0,5.3-.1,7.9,0,1.2,0,1.3,0,1.4,1.2C157.2,138.7,157.2,138.7,155.2,138.8Zm7.3-21.8a15.27,15.27,0,0,1-1.6,6,36.08,36.08,0,0,0-3.7,9.4c-0.2,1.3-.4,1.4-1.8,1.4h-8.2a1.13,1.13,0,0,1-1.3-.9c-0.2-.8-0.5-1.5-0.6-2.2a32.18,32.18,0,0,0-3.1-7.4,13.9,13.9,0,0,1-1.8-8,8.57,8.57,0,0,1,6.1-7.8,15,15,0,0,1,9.6-.1A9.33,9.33,0,0,1,162.5,117Zm1.4-14.8a28.16,28.16,0,0,1-2.4,3.6,1.34,1.34,0,0,1-2.1.4c-0.7-.4-0.8-1.2-0.3-2.1a26.37,26.37,0,0,1,2.3-3.5,2.06,2.06,0,0,1,1.7-.7c0.4,0,.7.7,1,1C164.2,101.7,164.2,101.9,163.9,102.2Zm8.1,20.2a1.68,1.68,0,0,1-2.1,1l-4.1-.6a1.46,1.46,0,0,1-1.3-1.6A1.29,1.29,0,0,1,166,120c1.6,0.2,3.2.5,4.6,0.8a4.7,4.7,0,0,1,1.2.9A1.08,1.08,0,0,1,172,122.4Zm-0.1-12a7.41,7.41,0,0,1-1.3,1.2c-1,.6-2.1,1-3.2,1.6a1.63,1.63,0,0,1-2.4-.6c-0.3-.7.1-1.5,1.1-2s2.3-.9,3.5-1.5,1.6-.4,2.4.7A1.27,1.27,0,0,0,171.9,110.4Z"/><g class="cls-6"><path class="cls-3" d="M66.23,175.12a0.7,0.7,0,0,1,.74-0.85h0.28a0.78,0.78,0,0,1,.39.07,1.25,1.25,0,0,1,.38.39l4.4,6.48a4.86,4.86,0,0,1,.4.68l0.28,0.59h0a0.36,0.36,0,0,0,0-.18q0-.18-0.07-0.52a4.18,4.18,0,0,1-.05-0.67v-6.43a0.43,0.43,0,0,1,.11-0.3,0.33,0.33,0,0,1,.26-0.12h0.9a0.32,0.32,0,0,1,.25.12,0.43,0.43,0,0,1,.11.3v9.38a0.54,0.54,0,0,1-.17.42,0.82,0.82,0,0,1-.52.26H73.52a0.89,0.89,0,0,1-.5-0.11,3.12,3.12,0,0,1-.57-0.67q-3.9-5.71-4.18-6.17l-0.57-1,0,0s0,0,0,.1,0,0.18.06,0.34,0,0.34.07,0.54q0.07,0.68.07,1.27v5.24a0.43,0.43,0,0,1-.11.29,0.33,0.33,0,0,1-.26.12h-0.9a0.32,0.32,0,0,1-.25-0.12,0.43,0.43,0,0,1-.11-0.29v-9.21Z"/><path class="cls-3" d="M78.62,181.27v0.13a2,2,0,0,0,.59,1.5,2.32,2.32,0,0,0,1.69.6,3.09,3.09,0,0,0,1.8-.58,0.51,0.51,0,0,1,.28-0.11,0.41,0.41,0,0,1,.38.25l0.18,0.38a0.71,0.71,0,0,1,.06.29,0.52,0.52,0,0,1-.14.33,1.45,1.45,0,0,1-.37.3,2.74,2.74,0,0,1-.52.24,5.46,5.46,0,0,1-.61.17,6.19,6.19,0,0,1-1.31.14,3.91,3.91,0,0,1-1.38-.26,3.36,3.36,0,0,1-1.2-.76A3.82,3.82,0,0,1,77,181q0-3.17,2.23-3.94a4.39,4.39,0,0,1,1.43-.24,4.35,4.35,0,0,1,1.25.16,2.57,2.57,0,0,1,.89.46,2.21,2.21,0,0,1,.79,1.81,2,2,0,0,1-.93,1.74,3.9,3.9,0,0,1-2.15.53A7.27,7.27,0,0,1,78.62,181.27Zm3.36-2q0-1-1.31-1a1.82,1.82,0,0,0-1.75.92,2.14,2.14,0,0,0-.23.79,3.34,3.34,0,0,0,1.5.29Q82,180.3,82,179.27Z"/><path class="cls-3" d="M96,177a0.38,0.38,0,0,1,.44.41,14.59,14.59,0,0,1-.67,3.89,8.37,8.37,0,0,1-1.32,2.8,1.51,1.51,0,0,1-1.18.7,1.42,1.42,0,0,1-1-.31,1.68,1.68,0,0,1-.48-0.9q-0.37-1.54-.52-2.1l-0.26-1L90.84,180l0,0.18-0.06.27L90.6,181A16.89,16.89,0,0,1,90,183q-0.22.5-.38,0.78a3,3,0,0,1-.37.52,1.43,1.43,0,0,1-1.08.55,1.47,1.47,0,0,1-1.53-1.31q-0.35-1.47-.79-2.91l-0.91-2.88a0.83,0.83,0,0,1,0-.27,0.39,0.39,0,0,1,.46-0.42h0.81a0.59,0.59,0,0,1,.56.51q0.4,1.4.7,2.75L88,183a0.26,0.26,0,0,0,.19.25,0.38,0.38,0,0,0,.28-0.27q0.13-.27.29-0.65c0.1-.26.2-0.53,0.3-0.83s0.19-.6.28-0.92,0.18-.63.25-1q0.23-1,.38-1.78l0-.29a0.61,0.61,0,0,1,.72-0.41,1.8,1.8,0,0,1,.55.05,0.94,0.94,0,0,1,.43.57q0.17,0.46.37,1.12t0.38,1.37q0.46,1.81.68,2.79a0.2,0.2,0,0,0,.14.2,0.58,0.58,0,0,0,.33-0.36,6.07,6.07,0,0,0,.41-1,13,13,0,0,0,.37-1.37,16.3,16.3,0,0,0,.36-3,0.39,0.39,0,0,1,.3-0.43l0.14,0H96Z"/><path class="cls-3" d="M102.27,174.71a0.46,0.46,0,0,1,.11-0.31,0.34,0.34,0,0,1,.27-0.13h6a0.33,0.33,0,0,1,.27.11,0.43,0.43,0,0,1,.09.28v0.74a0.41,0.41,0,0,1-.09.27,0.33,0.33,0,0,1-.27.11H104v3h3.72a0.33,0.33,0,0,1,.27.11,0.42,0.42,0,0,1,.09.28v0.74a0.42,0.42,0,0,1-.09.27,0.33,0.33,0,0,1-.27.11H104v3h4.71a0.33,0.33,0,0,1,.27.11,0.43,0.43,0,0,1,.09.28v0.74a0.41,0.41,0,0,1-.09.27,0.33,0.33,0,0,1-.27.11h-6a0.33,0.33,0,0,1-.27-0.13,0.46,0.46,0,0,1-.11-0.31v-9.6Z"/><path class="cls-3" d="M110.28,184.59a0.53,0.53,0,0,1-.12-0.31,0.62,0.62,0,0,1,.2-0.46,6.19,6.19,0,0,0,.48-0.53c0.19-.22.37-0.47,0.55-0.72l0.54-.78,0.51-.79-2.21-3.25a0.4,0.4,0,0,1-.08-0.22,0.41,0.41,0,0,1,0-.19,0.5,0.5,0,0,1,.11-0.15,0.49,0.49,0,0,1,.34-0.15h0.62a0.87,0.87,0,0,1,.79.54q1.18,2.1,1.37,2.4l0.75-1.46a8.64,8.64,0,0,1,.63-1.08,1.07,1.07,0,0,1,.37-0.34,0.87,0.87,0,0,1,.35-0.07h0.62a0.48,0.48,0,0,1,.37.15,0.48,0.48,0,0,1,.14.33,0.87,0.87,0,0,1-.29.64,7.47,7.47,0,0,0-.55.59l-0.51.66q-0.26.34-.51,0.7l-0.46.7,2.32,3.22a0.49,0.49,0,0,1,.08.28,0.42,0.42,0,0,1-.13.29,0.41,0.41,0,0,1-.3.13h-0.76a0.75,0.75,0,0,1-.62-0.26,2.25,2.25,0,0,1-.21-0.32l-1-1.77-0.3-.51-0.77,1.48-0.33.59a1.31,1.31,0,0,1-1.09.79h-0.62A0.41,0.41,0,0,1,110.28,184.59Z"/><path class="cls-3" d="M119.95,183.57q0.07,0.68.07,1.71v2.82a0.41,0.41,0,0,1-.4.51h-0.85a0.43,0.43,0,0,1-.43-0.53V180.5a13.66,13.66,0,0,0-.21-2.8,1.15,1.15,0,0,1,0-.25,0.4,0.4,0,0,1,.13-0.29,0.43,0.43,0,0,1,.32-0.13H119a0.55,0.55,0,0,1,.53.33,3.6,3.6,0,0,1,.28,1,2.88,2.88,0,0,1,1.31-1.22,3.13,3.13,0,0,1,1.34-.27,3,3,0,0,1,1.34.29,2.77,2.77,0,0,1,1,.8,4.31,4.31,0,0,1,.77,2.69,5,5,0,0,1-.87,3,2.82,2.82,0,0,1-2.4,1.29A2.48,2.48,0,0,1,119.95,183.57Zm-0.09-2.43a2.41,2.41,0,0,0,.66,1.7,1.88,1.88,0,0,0,1.41.67,1.56,1.56,0,0,0,1.47-1,4.31,4.31,0,0,0,.38-1.93,2.76,2.76,0,0,0-.45-1.6,1.5,1.5,0,0,0-1.29-.71,2,2,0,0,0-1.55.75,2.58,2.58,0,0,0-.62,1.72v0.38Z"/><path class="cls-3" d="M129.24,182.87q0,0.48.34,0.49a0.87,0.87,0,0,0,.28-0.06,1.81,1.81,0,0,1,.38-0.12,0.28,0.28,0,0,1,.25.2l0.21,0.49a0.52,0.52,0,0,1,0,.19,0.6,0.6,0,0,1-.26.38,2.06,2.06,0,0,1-1.36.43q-1.53,0-1.53-2v-9.75a0.47,0.47,0,0,1,.11-0.31,0.33,0.33,0,0,1,.26-0.13h0.92a0.32,0.32,0,0,1,.26.13,0.49,0.49,0,0,1,.1.31v9.8Z"/><path class="cls-3" d="M131.8,180.87a4.35,4.35,0,0,1,.3-1.63,3.79,3.79,0,0,1,.82-1.27,4.13,4.13,0,0,1,5.61,0,4.11,4.11,0,0,1,1,2.91,4,4,0,0,1-1.11,2.93,4,4,0,0,1-5.54,0A4.07,4.07,0,0,1,131.8,180.87Zm2.2-1.74a2.64,2.64,0,0,0-.37.86,4.16,4.16,0,0,0-.12,1,3.35,3.35,0,0,0,.13.95,2.52,2.52,0,0,0,.4.81,1.94,1.94,0,0,0,1.64.78,1.88,1.88,0,0,0,1.63-.77,3,3,0,0,0,.49-1.83,2.52,2.52,0,0,0-1.13-2.39,2.26,2.26,0,0,0-2,0A1.94,1.94,0,0,0,134,179.13Z"/><path class="cls-3" d="M141.4,177.53a0.41,0.41,0,0,1,.43-0.49h0.37a0.55,0.55,0,0,1,.53.33,4.43,4.43,0,0,1,.33,1.32h0a1.06,1.06,0,0,0,0-.23,2.07,2.07,0,0,1,.2-0.57,2,2,0,0,1,.4-0.57,1.67,1.67,0,0,1,1.19-.46,1.73,1.73,0,0,1,1.09.26,0.33,0.33,0,0,1,.12.32l-0.11.86a0.34,0.34,0,0,1-.36.35,1.41,1.41,0,0,1-.37-0.06,2.84,2.84,0,0,0-.67-0.11,0.86,0.86,0,0,0-.52.21,2.06,2.06,0,0,0-.47.54,2.72,2.72,0,0,0-.4,1.43v3.63a0.48,0.48,0,0,1-.11.32,0.39,0.39,0,0,1-.31.13H142a0.41,0.41,0,0,1-.33-0.13,0.47,0.47,0,0,1-.11-0.32v-4.71a10,10,0,0,0-.08-1.59A3.75,3.75,0,0,1,141.4,177.53Z"/><path class="cls-3" d="M153.61,184.39a0.32,0.32,0,0,1-.36.36h-0.66a0.35,0.35,0,0,1-.32-0.11,0.53,0.53,0,0,1-.06-0.19c0-.06,0-0.13,0-0.21s-0.07-.46-0.12-0.72a2.61,2.61,0,0,1-1.67,1.29,3.37,3.37,0,0,1-.89.11,3.06,3.06,0,0,1-1-.16,2.58,2.58,0,0,1-.86-0.47,2.32,2.32,0,0,1-.85-1.87,2.24,2.24,0,0,1,.93-1.93,3.34,3.34,0,0,1,2-.54,3,3,0,0,1,2,.7q0-.23,0-0.58a1.88,1.88,0,0,0-.14-0.7,1.53,1.53,0,0,0-.39-0.58,2.11,2.11,0,0,0-1.45-.46,3.59,3.59,0,0,0-1.7.46,0.62,0.62,0,0,1-.29.09,0.5,0.5,0,0,1-.36-0.36,1.42,1.42,0,0,1-.18-0.53,0.76,0.76,0,0,1,.45-0.58,4.34,4.34,0,0,1,2.3-.53,3.28,3.28,0,0,1,2.17.72,3,3,0,0,1,1,2.43,8.75,8.75,0,0,1-.23,1.76A9.24,9.24,0,0,1,153.61,184.39Zm-4.58-2.9a1.45,1.45,0,0,0-.4.41,0.94,0.94,0,0,0-.12.48,1.16,1.16,0,0,0,.1.49,1,1,0,0,0,.28.36,1.33,1.33,0,0,0,.84.29,2.27,2.27,0,0,0,.77-0.11,1.87,1.87,0,0,0,.52-0.28,1,1,0,0,0,.47-0.78,1,1,0,0,0-.57-0.81,2.18,2.18,0,0,0-1.11-.27A1.28,1.28,0,0,0,149,181.49Z"/><path class="cls-3" d="M159.75,178.08a0.36,0.36,0,0,1-.43.38h-1.93v4.29a0.61,0.61,0,0,0,.69.7,2.36,2.36,0,0,0,1.14-.44,0.53,0.53,0,0,1,.3-0.09,0.3,0.3,0,0,1,.26.23l0.16,0.36a0.9,0.9,0,0,1,.09.35,0.5,0.5,0,0,1-.21.33,2.2,2.2,0,0,1-.55.34,3.4,3.4,0,0,1-1.37.34,3,3,0,0,1-1-.13,1.62,1.62,0,0,1-.61-0.38,2.05,2.05,0,0,1-.55-1.54v-4.36h-0.57a0.36,0.36,0,0,1-.43-0.39v-0.39a0.35,0.35,0,0,1,.08-0.25,0.61,0.61,0,0,1,.32-0.14l0.68-.2,0.26-1.61a0.42,0.42,0,0,1,.37-0.45H157a0.32,0.32,0,0,1,.26.13,0.5,0.5,0,0,1,.1.32V177h1.93a0.36,0.36,0,0,1,.43.38v0.66Z"/><path class="cls-3" d="M162.23,175.72a1.09,1.09,0,0,1-.79-0.32,1.05,1.05,0,0,1-.33-0.79,1.1,1.1,0,0,1,1.12-1.11,1,1,0,0,1,1,.67,1.12,1.12,0,0,1-.24,1.23A1.08,1.08,0,0,1,162.23,175.72Zm0.8,7.15q0,0.48.32,0.49a0.61,0.61,0,0,0,.25-0.06,1.17,1.17,0,0,1,.36-0.12,0.27,0.27,0,0,1,.23.2l0.21,0.48a0.51,0.51,0,0,1,.05.22,0.72,0.72,0,0,1-.51.55,2.06,2.06,0,0,1-.95.25,2.24,2.24,0,0,1-.75-0.1,1.12,1.12,0,0,1-.48-0.34,2.56,2.56,0,0,1-.4-1.6v-5.33a0.49,0.49,0,0,1,.11-0.32,0.33,0.33,0,0,1,.26-0.13h0.92a0.32,0.32,0,0,1,.26.13,0.5,0.5,0,0,1,.1.32v5.38Z"/><path class="cls-3" d="M165.62,180.87a4.35,4.35,0,0,1,.3-1.63,3.79,3.79,0,0,1,.82-1.27,4.13,4.13,0,0,1,5.61,0,4.11,4.11,0,0,1,1,2.91,4,4,0,0,1-1.11,2.93,4,4,0,0,1-5.54,0A4.07,4.07,0,0,1,165.62,180.87Zm2.2-1.74a2.65,2.65,0,0,0-.37.86,4.18,4.18,0,0,0-.12,1,3.35,3.35,0,0,0,.13.95,2.52,2.52,0,0,0,.4.81,1.94,1.94,0,0,0,1.64.78,1.88,1.88,0,0,0,1.63-.77,3,3,0,0,0,.49-1.83,2.52,2.52,0,0,0-1.13-2.39,2.26,2.26,0,0,0-2,0A1.93,1.93,0,0,0,167.82,179.13Z"/><path class="cls-3" d="M175.4,177.53a0.43,0.43,0,0,1,.47-0.49h0.38a0.52,0.52,0,0,1,.52.29,4.92,4.92,0,0,1,.33,1.08,2.82,2.82,0,0,1,1.83-1.44,3.76,3.76,0,0,1,1-.1,2.32,2.32,0,0,1,1.06.24,1.92,1.92,0,0,1,.77.67,4.09,4.09,0,0,1,.52,2.28v4.25a0.45,0.45,0,0,1-.12.32,0.47,0.47,0,0,1-.36.13h-0.67a0.5,0.5,0,0,1-.38-0.13,0.45,0.45,0,0,1-.12-0.32V180q0-1.75-1.29-1.75a1.9,1.9,0,0,0-1.37.63,2.18,2.18,0,0,0-.66,1.57v3.8a0.46,0.46,0,0,1-.12.32,0.45,0.45,0,0,1-.36.13h-0.7a0.48,0.48,0,0,1-.36-0.13,0.45,0.45,0,0,1-.12-0.32v-4.2a13.79,13.79,0,0,0-.09-1.92C175.43,177.82,175.4,177.6,175.4,177.53Z"/></g><g class="cls-6"><path d="M67.47,218.67a2.5,2.5,0,0,0,1.9.71,2.65,2.65,0,0,0,1.82-.53,2.59,2.59,0,0,0,.78-1.37,0.37,0.37,0,0,1,.13-0.22,0.36,0.36,0,0,1,.23-0.08H73a0.31,0.31,0,0,1,.31.31,3.13,3.13,0,0,1-.45,1.42,3.39,3.39,0,0,1-1.29,1.24,4.31,4.31,0,0,1-2.18.5,4.17,4.17,0,0,1-2.06-.49,3.46,3.46,0,0,1-1.36-1.35,4.27,4.27,0,0,1-.53-2q0-.42,0-1.25t0-1.25a4.26,4.26,0,0,1,.53-2A3.46,3.46,0,0,1,67.31,211a4.17,4.17,0,0,1,2.06-.49,4.3,4.3,0,0,1,2.18.5,3.39,3.39,0,0,1,1.29,1.24,3.13,3.13,0,0,1,.45,1.42A0.31,0.31,0,0,1,73,214H72.34a0.36,0.36,0,0,1-.23-0.08,0.37,0.37,0,0,1-.13-0.22,2.6,2.6,0,0,0-.78-1.37,2.65,2.65,0,0,0-1.82-.53,2.5,2.5,0,0,0-1.9.71,2.77,2.77,0,0,0-.72,1.9q0,0.42,0,1.18t0,1.18A2.77,2.77,0,0,0,67.47,218.67Z"/><path d="M78.93,213.33a0.37,0.37,0,0,1,.11.27V214a0.38,0.38,0,0,1-.38.38H77.85A1.45,1.45,0,0,0,76.24,216v4.09a0.38,0.38,0,0,1-.38.38H75.35a0.38,0.38,0,0,1-.38-0.38V213.6a0.38,0.38,0,0,1,.38-0.38h0.52a0.38,0.38,0,0,1,.38.38V214a1.75,1.75,0,0,1,.67-0.62,2.29,2.29,0,0,1,1-.2h0.73A0.37,0.37,0,0,1,78.93,213.33Z"/><path d="M85.34,214a3.7,3.7,0,0,1,.87,2.59V217a0.38,0.38,0,0,1-.38.38H81v0.08a2,2,0,0,0,.57,1.45,1.91,1.91,0,0,0,1.39.52,2.6,2.6,0,0,0,1.08-.18,2.23,2.23,0,0,0,.69-0.52,0.74,0.74,0,0,1,.2-0.15,0.59,0.59,0,0,1,.25,0h0.42a0.38,0.38,0,0,1,.28.11,0.32,0.32,0,0,1,.1.27,1.53,1.53,0,0,1-.41.78,2.75,2.75,0,0,1-1,.67,4.18,4.18,0,0,1-1.59.27,3.08,3.08,0,0,1-1.6-.41,3,3,0,0,1-1.11-1.14,4,4,0,0,1-.5-1.64q0-.42,0-0.64t0-.64a3.76,3.76,0,0,1,.5-1.57,3.06,3.06,0,0,1,1.11-1.11,3.11,3.11,0,0,1,1.6-.41A3,3,0,0,1,85.34,214ZM85,216.2v0a1.79,1.79,0,0,0-.54-1.37,2,2,0,0,0-1.44-.51,2,2,0,0,0-1.38.52,1.8,1.8,0,0,0-.58,1.36v0H85Z"/><path d="M92.23,215.89v-0.18a1.29,1.29,0,0,0-.46-1.06,1.81,1.81,0,0,0-1.18-.37,1.71,1.71,0,0,0-.87.19,2.11,2.11,0,0,0-.59.57,0.46,0.46,0,0,1-.18.15,0.7,0.7,0,0,1-.27,0H88.25a0.38,0.38,0,0,1-.27-0.11,0.31,0.31,0,0,1-.1-0.27,1.48,1.48,0,0,1,.41-0.83,2.79,2.79,0,0,1,1-.68,3.29,3.29,0,0,1,1.32-.27,3,3,0,0,1,2.11.73,2.62,2.62,0,0,1,.8,2v4.27a0.38,0.38,0,0,1-.38.38H92.61a0.38,0.38,0,0,1-.38-0.38v-0.57a1.64,1.64,0,0,1-1,.8,3.86,3.86,0,0,1-1.46.29,3,3,0,0,1-1.27-.26,2,2,0,0,1-.86-0.71,1.77,1.77,0,0,1-.3-1,2,2,0,0,1,.78-1.64,4.62,4.62,0,0,1,2.09-.81Zm0,1.12-1.65.27a3.77,3.77,0,0,0-1.41.46,0.92,0.92,0,0,0-.5.79,0.82,0.82,0,0,0,.32.63,1.46,1.46,0,0,0,1,.28,2.34,2.34,0,0,0,1.64-.57,1.93,1.93,0,0,0,.63-1.5V217Z"/><path d="M97.61,219a1.11,1.11,0,0,0,.93.32h0.74a0.38,0.38,0,0,1,.38.38v0.45a0.38,0.38,0,0,1-.38.38H98.41a2.24,2.24,0,0,1-1.75-.62A2.65,2.65,0,0,1,96.1,218v-3.63h-1a0.38,0.38,0,0,1-.38-0.38V213.6a0.38,0.38,0,0,1,.38-0.38h1v-2.28a0.38,0.38,0,0,1,.38-0.38H97a0.38,0.38,0,0,1,.38.38v2.28h1.78a0.38,0.38,0,0,1,.38.38V214a0.38,0.38,0,0,1-.38.38H97.37V218A1.5,1.5,0,0,0,97.61,219Z"/><path d="M106.3,214a3.7,3.7,0,0,1,.87,2.59V217a0.38,0.38,0,0,1-.38.38H102v0.08a2,2,0,0,0,.57,1.45,1.91,1.91,0,0,0,1.39.52,2.6,2.6,0,0,0,1.08-.18,2.23,2.23,0,0,0,.69-0.52,0.74,0.74,0,0,1,.2-0.15,0.59,0.59,0,0,1,.25,0h0.42a0.38,0.38,0,0,1,.28.11,0.32,0.32,0,0,1,.1.27,1.53,1.53,0,0,1-.41.78,2.75,2.75,0,0,1-1,.67,4.18,4.18,0,0,1-1.59.27,3.08,3.08,0,0,1-1.6-.41,3,3,0,0,1-1.11-1.14,4,4,0,0,1-.5-1.64q0-.42,0-0.64t0-.64a3.76,3.76,0,0,1,.5-1.57,3.06,3.06,0,0,1,1.11-1.11,3.11,3.11,0,0,1,1.6-.41A3,3,0,0,1,106.3,214Zm-0.39,2.17v0a1.79,1.79,0,0,0-.54-1.37,2,2,0,0,0-1.44-.51,2,2,0,0,0-1.38.52,1.8,1.8,0,0,0-.58,1.36v0h3.93Z"/><path d="M116.6,215.89v-0.18a1.29,1.29,0,0,0-.46-1.06,1.81,1.81,0,0,0-1.18-.37,1.71,1.71,0,0,0-.87.19,2.11,2.11,0,0,0-.59.57,0.46,0.46,0,0,1-.18.15,0.7,0.7,0,0,1-.27,0h-0.42a0.38,0.38,0,0,1-.27-0.11,0.31,0.31,0,0,1-.1-0.27,1.48,1.48,0,0,1,.41-0.83,2.79,2.79,0,0,1,1-.68,3.29,3.29,0,0,1,1.32-.27,3,3,0,0,1,2.11.73,2.62,2.62,0,0,1,.8,2v4.27a0.38,0.38,0,0,1-.38.38H117a0.38,0.38,0,0,1-.38-0.38v-0.57a1.64,1.64,0,0,1-1,.8,3.86,3.86,0,0,1-1.46.29,3,3,0,0,1-1.27-.26,2,2,0,0,1-.86-0.71,1.77,1.77,0,0,1-.3-1,2,2,0,0,1,.78-1.64,4.62,4.62,0,0,1,2.09-.81Zm0,1.12-1.65.27a3.77,3.77,0,0,0-1.41.46,0.92,0.92,0,0,0-.5.79,0.82,0.82,0,0,0,.32.63,1.46,1.46,0,0,0,1,.28,2.34,2.34,0,0,0,1.64-.57,1.93,1.93,0,0,0,.63-1.5V217Z"/><path d="M126.28,220.39a0.36,0.36,0,0,1-.27.11h-0.52a0.38,0.38,0,0,1-.38-0.38v-3.7a2.23,2.23,0,0,0-.52-1.6,2.17,2.17,0,0,0-2.88,0,2.21,2.21,0,0,0-.52,1.6v3.7a0.38,0.38,0,0,1-.38.38H120.3a0.38,0.38,0,0,1-.38-0.38V213.6a0.38,0.38,0,0,1,.38-0.38h0.52a0.38,0.38,0,0,1,.38.38V214a2.41,2.41,0,0,1,.85-0.68,2.91,2.91,0,0,1,1.32-.27,3.2,3.2,0,0,1,1.57.38,2.67,2.67,0,0,1,1.07,1.08,3.45,3.45,0,0,1,.39,1.67v3.91A0.36,0.36,0,0,1,126.28,220.39Z"/><path d="M137.07,214a3.7,3.7,0,0,1,.87,2.59V217a0.38,0.38,0,0,1-.38.38h-4.82v0.08a2,2,0,0,0,.57,1.45,1.91,1.91,0,0,0,1.39.52,2.6,2.6,0,0,0,1.08-.18,2.23,2.23,0,0,0,.69-0.52,0.74,0.74,0,0,1,.2-0.15,0.59,0.59,0,0,1,.25,0h0.42a0.38,0.38,0,0,1,.28.11,0.32,0.32,0,0,1,.1.27,1.53,1.53,0,0,1-.41.78,2.75,2.75,0,0,1-1,.67,4.18,4.18,0,0,1-1.59.27,3.08,3.08,0,0,1-1.6-.41,3,3,0,0,1-1.11-1.14,4,4,0,0,1-.5-1.64q0-.42,0-0.64t0-.64a3.76,3.76,0,0,1,.5-1.57,3.06,3.06,0,0,1,1.11-1.11,3.11,3.11,0,0,1,1.6-.41A3,3,0,0,1,137.07,214Zm-0.39,2.17v0a1.79,1.79,0,0,0-.54-1.37,2,2,0,0,0-1.44-.51,2,2,0,0,0-1.38.52,1.8,1.8,0,0,0-.58,1.36v0h3.93Z"/><path d="M140.26,220.23a1.49,1.49,0,0,1-.2.19,0.39,0.39,0,0,1-.25.08h-0.64a0.32,0.32,0,0,1-.24-0.1,0.31,0.31,0,0,1-.1-0.22,0.34,0.34,0,0,1,.06-0.2l2.56-3.21-2.42-3a0.34,0.34,0,0,1-.06-0.2,0.31,0.31,0,0,1,.1-0.22,0.32,0.32,0,0,1,.24-0.1H140a0.4,0.4,0,0,1,.25.08,1.5,1.5,0,0,1,.2.19l1.86,2.34,1.85-2.34a1.47,1.47,0,0,1,.2-0.19,0.4,0.4,0,0,1,.25-0.08h0.64a0.32,0.32,0,0,1,.24.1,0.31,0.31,0,0,1,.1.22,0.35,0.35,0,0,1-.06.2l-2.44,3.07,2.53,3.18a0.34,0.34,0,0,1,.06.2,0.31,0.31,0,0,1-.1.22,0.32,0.32,0,0,1-.24.1h-0.67a0.39,0.39,0,0,1-.25-0.08,1.43,1.43,0,0,1-.2-0.19l-2-2.48Z"/><path d="M148.43,222.78a0.38,0.38,0,0,1-.38.38h-0.52a0.38,0.38,0,0,1-.38-0.38V213.6a0.38,0.38,0,0,1,.38-0.38H148a0.38,0.38,0,0,1,.38.38V214a2.54,2.54,0,0,1,2.17-1,3.1,3.1,0,0,1,1.57.41,3,3,0,0,1,1.13,1.16,3.87,3.87,0,0,1,.47,1.76c0,0.09,0,.24,0,0.45s0,0.37,0,.46a3.83,3.83,0,0,1-.47,1.76,3.06,3.06,0,0,1-1.13,1.16,3.1,3.1,0,0,1-1.58.41,2.91,2.91,0,0,1-1.32-.27,2.4,2.4,0,0,1-.85-0.68v3.09Zm0.59-3.89a2,2,0,0,0,1.44.55,1.87,1.87,0,0,0,1.45-.59,2.48,2.48,0,0,0,.59-1.6c0-.09,0-0.22,0-0.39s0-.3,0-0.39a2.48,2.48,0,0,0-.59-1.6,1.87,1.87,0,0,0-1.45-.59,2,2,0,0,0-1.43.54,2,2,0,0,0-.6,1.43v1.11A2.2,2.2,0,0,0,149,218.89Z"/><path d="M156.69,220.39a0.36,0.36,0,0,1-.27.11H155.9a0.38,0.38,0,0,1-.38-0.38v-9.18a0.38,0.38,0,0,1,.38-0.38h0.52a0.38,0.38,0,0,1,.38.38v9.18A0.36,0.36,0,0,1,156.69,220.39Z"/><path d="M165.23,216.87q0,0.34,0,.64a3.5,3.5,0,0,1-1,2.28,3.63,3.63,0,0,1-4.66,0,3.5,3.5,0,0,1-1-2.28c0-.1,0-0.32,0-0.64s0-.57,0-0.67a3.43,3.43,0,0,1,1-2.28,3.65,3.65,0,0,1,4.68,0,3.43,3.43,0,0,1,1,2.28C165.22,216.41,165.23,216.63,165.23,216.87Zm-1.9-2a2.2,2.2,0,0,0-2.9,0,2.36,2.36,0,0,0-.59,1.44c0,0.11,0,.31,0,0.6s0,0.47,0,.57a2.36,2.36,0,0,0,.59,1.44,2.2,2.2,0,0,0,2.9,0,2.36,2.36,0,0,0,.59-1.44q0-.31,0-0.57c0-.18,0-0.38,0-0.6A2.36,2.36,0,0,0,163.33,214.83Z"/><path d="M170.94,213.33a0.36,0.36,0,0,1,.11.27V214a0.38,0.38,0,0,1-.38.38h-0.81a1.45,1.45,0,0,0-1.61,1.61v4.09a0.38,0.38,0,0,1-.38.38h-0.52a0.38,0.38,0,0,1-.38-0.38V213.6a0.38,0.38,0,0,1,.38-0.38h0.52a0.38,0.38,0,0,1,.38.38V214a1.75,1.75,0,0,1,.67-0.62,2.29,2.29,0,0,1,1-.2h0.73A0.37,0.37,0,0,1,170.94,213.33Z"/><path d="M176.48,215.89v-0.18a1.28,1.28,0,0,0-.46-1.06,1.81,1.81,0,0,0-1.18-.37,1.7,1.7,0,0,0-.87.19,2.11,2.11,0,0,0-.59.57,0.46,0.46,0,0,1-.18.15,0.7,0.7,0,0,1-.27,0h-0.42a0.39,0.39,0,0,1-.27-0.11,0.31,0.31,0,0,1-.1-0.27,1.47,1.47,0,0,1,.41-0.83,2.79,2.79,0,0,1,1-.68,3.3,3.3,0,0,1,1.32-.27,3,3,0,0,1,2.11.73,2.62,2.62,0,0,1,.8,2v4.27a0.38,0.38,0,0,1-.38.38h-0.52a0.38,0.38,0,0,1-.38-0.38v-0.57a1.64,1.64,0,0,1-1,.8,3.86,3.86,0,0,1-1.46.29,3,3,0,0,1-1.27-.26,2,2,0,0,1-.86-0.71,1.77,1.77,0,0,1-.3-1,2,2,0,0,1,.78-1.64,4.62,4.62,0,0,1,2.09-.81Zm0,1.12-1.65.27a3.77,3.77,0,0,0-1.41.46,0.92,0.92,0,0,0-.5.79,0.82,0.82,0,0,0,.32.63,1.46,1.46,0,0,0,1,.28,2.34,2.34,0,0,0,1.64-.57,1.93,1.93,0,0,0,.63-1.5V217Z"/><path d="M181.87,219a1.11,1.11,0,0,0,.93.32h0.74a0.38,0.38,0,0,1,.38.38v0.45a0.38,0.38,0,0,1-.38.38h-0.88a2.24,2.24,0,0,1-1.75-.62,2.65,2.65,0,0,1-.56-1.83v-3.63h-1a0.38,0.38,0,0,1-.38-0.38V213.6a0.38,0.38,0,0,1,.38-0.38h1v-2.28a0.38,0.38,0,0,1,.38-0.38h0.52a0.38,0.38,0,0,1,.38.38v2.28h1.78a0.38,0.38,0,0,1,.38.38V214a0.38,0.38,0,0,1-.38.38h-1.78V218A1.5,1.5,0,0,0,181.87,219Z"/><path d="M186.62,212a0.36,0.36,0,0,1-.27.11h-0.8a0.38,0.38,0,0,1-.38-0.38v-0.8a0.38,0.38,0,0,1,.38-0.38h0.8a0.38,0.38,0,0,1,.38.38v0.8A0.36,0.36,0,0,1,186.62,212Zm-0.14,8.39a0.36,0.36,0,0,1-.27.11h-0.52a0.38,0.38,0,0,1-.38-0.38V213.6a0.38,0.38,0,0,1,.38-0.38h0.52a0.38,0.38,0,0,1,.38.38v6.52A0.36,0.36,0,0,1,186.48,220.39Z"/><path d="M195,216.87q0,0.34,0,.64a3.5,3.5,0,0,1-1,2.28,3.63,3.63,0,0,1-4.66,0,3.5,3.5,0,0,1-1-2.28c0-.1,0-0.32,0-0.64s0-.57,0-0.67a3.43,3.43,0,0,1,1-2.28,3.65,3.65,0,0,1,4.68,0,3.43,3.43,0,0,1,1,2.28C195,216.41,195,216.63,195,216.87Zm-1.9-2a2.2,2.2,0,0,0-2.9,0,2.36,2.36,0,0,0-.59,1.44c0,0.11,0,.31,0,0.6s0,0.47,0,.57a2.36,2.36,0,0,0,.59,1.44,2.2,2.2,0,0,0,2.9,0,2.36,2.36,0,0,0,.59-1.44q0-.31,0-0.57c0-.18,0-0.38,0-0.6A2.36,2.36,0,0,0,193.12,214.83Z"/><path d="M203.12,220.39a0.36,0.36,0,0,1-.27.11h-0.52a0.38,0.38,0,0,1-.38-0.38v-3.7a2.23,2.23,0,0,0-.52-1.6,2.17,2.17,0,0,0-2.88,0,2.22,2.22,0,0,0-.52,1.6v3.7a0.38,0.38,0,0,1-.38.38h-0.52a0.38,0.38,0,0,1-.38-0.38V213.6a0.38,0.38,0,0,1,.38-0.38h0.52a0.38,0.38,0,0,1,.38.38V214a2.41,2.41,0,0,1,.85-0.68,2.91,2.91,0,0,1,1.32-.27,3.19,3.19,0,0,1,1.57.38,2.67,2.67,0,0,1,1.07,1.08,3.45,3.45,0,0,1,.38,1.67v3.91A0.36,0.36,0,0,1,203.12,220.39Z"/></g></svg>