<?xml version="1.0" encoding="utf-8"?>
<!-- Generator: Adobe Illustrator 19.2.1, SVG Export Plug-In . SVG Version: 6.00 Build 0)  -->
<svg version="1.1" id="Layer_1" xmlns="http://www.w3.org/2000/svg" xmlns:xlink="http://www.w3.org/1999/xlink" x="0px" y="0px"
	 viewBox="0 0 205.5 245.5" style="enable-background:new 0 0 205.5 245.5;" xml:space="preserve">
<style type="text/css">
	.st0{opacity:0.22;}
	.st1{fill:#FFFFFF;}
	.st2{fill:#D0982A;}
	.st3{fill:none;}
	.st4{font-family:'Capriola-Regular';}
	.st5{font-size:14px;}
</style>
<g>
	<rect x="5.5" y="15.5" class="st0" width="200" height="230"/>
	<rect x="0.1" class="st1" width="200" height="240"/>
	<rect class="st2" width="200" height="144"/>
	<g>
		
			<rect x="64.2" y="29.9" transform="matrix(1 -7.830633e-03 7.830633e-03 1 -0.5224 0.7959)" class="st3" width="74.4" height="74.4"/>
		<path class="st1" d="M101.2,35.4c-17.5,0.1-31.6,14.5-31.5,31.9c0.1,17.5,14.5,31.6,31.9,31.5c17.5-0.1,31.6-14.5,31.5-31.9
			C132.9,49.4,118.7,35.3,101.2,35.4z M101,43.4c0.3,0,0.5,0,0.8,0c0.7,0.5,1,1.1,1,1.9c0,1.2,0,2.4,0,3.6c0,1.1-0.5,1.8-1.4,1.8
			c-0.8,0-1.3-0.6-1.3-1.8c0-1.2,0.1-2.5,0-3.7C100,44.5,100.3,43.8,101,43.4z M80.8,55.9c0.9-1,1.3-1.1,2.5-0.5
			c1.2,0.4,2.4,0.9,3.4,1.5c0.9,0.4,1.3,1.1,1.1,1.8c-0.2,0.7-1.3,1.2-2.1,0.7c-1.4-0.6-2.8-1.3-4.1-1.9c-0.3-0.2-0.5-0.5-0.8-0.8
			C80.8,56.4,80.8,56.2,80.8,55.9z M87.1,69c-1.5,0.3-3,0.4-4.4,0.7c-0.8,0.1-1.4-0.3-1.8-0.9c0-0.2,0-0.4,0-0.6
			c0.4-0.8,1.1-1.1,1.9-1.1c1-0.2,2-0.4,3.1-0.5c0.3,0,0.6-0.1,1-0.1c0.8,0,1.5,0.3,1.6,1.1C88.6,68.3,87.8,68.8,87.1,69z
			 M88.9,46.5c0.4-0.2,1.4-0.2,1.6,0.1c1.1,1.4,2,3,3,4.4c0.1,0.1,0,0.2,0.1,0.6c-0.2,0.2-0.4,0.8-0.8,0.9c-0.3,0.2-1.1,0.2-1.3-0.1
			c-1.1-1.4-2-2.8-3-4.3C88,47.5,88.3,46.7,88.9,46.5z M105.3,89.1c-1.2,0-2.5,0-3.7,0c-1.5,0-3,0-4.5,0c-0.8,0-1.1-0.3-1.2-1
			C95.9,86,95.9,86,98,86c2.7,0,5.3-0.1,7.9,0c1.2,0,1.3,0,1.4,1.2C107.2,89.1,107.2,89.1,105.3,89.1z M105.2,84.8
			c-1.2,0-2.5,0-3.7,0c-1.5,0-3,0-4.5,0c-0.8,0-1.1-0.3-1.2-1c-0.1-2.1-0.1-2.1,2-2.1c2.7,0,5.3-0.1,7.9,0c1.2,0,1.3,0,1.4,1.2
			C107.2,84.7,107.2,84.7,105.2,84.8z M112.6,63c-0.1,2.1-0.7,4.2-1.6,6c-1.6,3-3,6.1-3.7,9.4c-0.2,1.3-0.4,1.4-1.8,1.4
			c-1.3,0-2.6,0-3.8,0c-1.5,0-2.9,0-4.4,0c-0.7,0-1.1-0.2-1.3-0.9c-0.2-0.8-0.5-1.5-0.6-2.2c-0.6-2.7-1.9-5-3.1-7.4
			c-1.3-2.5-2.1-5.1-1.8-8c0.4-3.9,2.4-6.5,6.1-7.8c3.2-1.1,6.5-1.1,9.6-0.1C110.4,54.9,112.8,58.5,112.6,63z M114,48.2
			c-0.7,1.3-1.5,2.4-2.4,3.6c-0.5,0.8-1.4,1-2.1,0.4c-0.7-0.4-0.8-1.2-0.3-2.1c0.7-1.2,1.4-2.4,2.3-3.5c0.3-0.5,1.1-0.7,1.7-0.7
			c0.4,0,0.7,0.7,1,1C114.2,47.7,114.2,47.9,114,48.2z M122.1,68.4c-0.4,0.9-1.1,1.2-2.1,1c-1.4-0.2-2.7-0.4-4.1-0.6
			c-0.8-0.1-1.4-0.8-1.3-1.6c0.1-0.8,0.7-1.3,1.5-1.2c1.6,0.2,3.2,0.5,4.6,0.8c0.4,0.1,0.8,0.6,1.2,0.9
			C122.1,68,122.1,68.2,122.1,68.4z M122,56.4c-0.4,0.4-0.8,0.9-1.3,1.2c-1,0.6-2.1,1-3.2,1.6c-1,0.5-2,0.3-2.4-0.6
			c-0.3-0.7,0.1-1.5,1.1-2c1.1-0.6,2.3-0.9,3.5-1.5c1.2-0.6,1.6-0.4,2.4,0.7C122,56,122,56.2,122,56.4z"/>
	</g>
	<text transform="matrix(1 0 0 1 14.6458 130.75)" class="st1 st4 st5">New Exploration</text>
	<text transform="matrix(1 0 0 1 14.6456 166.5)" class="st4 st5">Create an exploration</text>
</g>
</svg>
