<?xml version="1.0" encoding="utf-8"?>
<!-- Generator: Adobe Illustrator 19.2.1, SVG Export Plug-In . SVG Version: 6.00 Build 0)  -->
<svg version="1.1" id="Layer_1" xmlns="http://www.w3.org/2000/svg" xmlns:xlink="http://www.w3.org/1999/xlink" x="0px" y="0px"
     viewBox="0 0 208.8 266.5" style="enable-background:new 0 0 208.8 266.5;" xml:space="preserve">
<style type="text/css">
    .st0{fill:#AFD2EB;stroke:#000000;stroke-width:2;stroke-miterlimit:10;}
    .st1{fill:#FFFFFF;}
    .st2{fill:none;}
    .st3{font-family:'Capriola-Regular';}
    .st4{font-size:14px;}
</style>
<title>exploration</title>
<g>
    <rect x="4.9" y="4" transform="matrix(0.9995 -3.036025e-02 3.036025e-02 0.9995 -3.9971 3.2313)" class="st0" width="199" height="258.5"/>
    <rect x="8.4" y="172.2" transform="matrix(0.9995 -3.036025e-02 3.036025e-02 0.9995 -6.5298 3.3467)" class="st1" width="197" height="89"/>
    <g>
        <rect x="66.8" y="30.1" transform="matrix(0.9995 -3.036025e-02 3.036025e-02 0.9995 -2.0056 3.1982)" class="st2" width="75" height="75"/>
        <path class="st1" d="M103.4,35.7c-17.6,0.5-31.5,15.3-31,32.9c0.5,17.6,15.3,31.5,32.9,31c17.6-0.5,31.5-15.3,31-32.9
            C135.7,49,121,35.2,103.4,35.7z M103.4,43.7c0.3,0,0.5,0,0.8,0c0.7,0.5,1,1.1,1.1,1.9c0,1.2,0.1,2.4,0.1,3.6
            c0,1.1-0.5,1.8-1.4,1.8c-0.8,0-1.3-0.6-1.4-1.8c0-1.2,0-2.5-0.1-3.7C102.4,44.8,102.7,44.1,103.4,43.7z M83.3,56.8
            c0.9-1,1.3-1.1,2.5-0.6c1.2,0.4,2.4,0.9,3.5,1.4c0.9,0.4,1.3,1.1,1.1,1.8s-1.3,1.2-2.1,0.8c-1.4-0.6-2.8-1.2-4.2-1.8
            c-0.3-0.2-0.5-0.5-0.8-0.8C83.3,57.3,83.3,57.1,83.3,56.8z M90,69.8c-1.5,0.3-3,0.5-4.4,0.8c-0.8,0.1-1.4-0.3-1.8-0.9
            c0-0.2,0-0.4,0-0.6c0.4-0.8,1.1-1.1,1.9-1.2c1-0.2,2-0.4,3.1-0.6c0.3,0,0.6-0.1,1-0.1c0.8,0,1.5,0.3,1.6,1.1S90.7,69.6,90,69.8z
             M91.3,47.1c0.4-0.2,1.4-0.2,1.6,0.1c1.1,1.4,2.1,3,3.1,4.4c0.1,0.1,0,0.2,0.1,0.6c-0.2,0.2-0.4,0.8-0.8,0.9
            C95,53.3,94.2,53.3,94,53c-1.1-1.4-2.1-2.8-3.1-4.3C90.4,48.1,90.7,47.3,91.3,47.1z M108.7,89.7c-1.2,0-2.5,0.1-3.7,0.1
            c-1.5,0-3,0.1-4.5,0.1c-0.8,0-1.1-0.3-1.2-1c-0.1-2.1-0.1-2.1,2-2.2c2.7-0.1,5.3-0.2,8-0.2c1.2,0,1.3,0,1.4,1.2
            C110.7,89.6,110.7,89.6,108.7,89.7z M108.6,85.3c-1.2,0-2.5,0.1-3.7,0.1c-1.5,0-3,0.1-4.5,0.1c-0.8,0-1.1-0.3-1.2-1
            c-0.1-2.1-0.1-2.1,2-2.2c2.7-0.1,5.3-0.2,8-0.2c1.2,0,1.3,0,1.4,1.2C110.6,85.2,110.6,85.2,108.6,85.3z M115.5,63.2
            c-0.1,2.1-0.6,4.2-1.5,6.1c-1.5,3.1-2.9,6.2-3.5,9.6c-0.2,1.3-0.4,1.4-1.8,1.5c-1.3,0-2.6,0.1-3.8,0.1c-1.5,0-2.9,0.1-4.4,0.1
            c-0.7,0-1.1-0.2-1.3-0.9c-0.2-0.8-0.5-1.5-0.7-2.2c-0.7-2.7-2-5-3.3-7.4c-1.4-2.5-2.2-5.1-2-8c0.3-3.9,2.3-6.6,6-8
            c3.2-1.2,6.5-1.3,9.7-0.3C113.1,55.1,115.6,58.7,115.5,63.2z M116.6,48.3c-0.7,1.3-1.5,2.5-2.3,3.7c-0.5,0.8-1.4,1-2.1,0.5
            c-0.7-0.4-0.8-1.2-0.3-2.1c0.7-1.2,1.4-2.5,2.2-3.6c0.3-0.5,1.1-0.7,1.7-0.7c0.4,0,0.7,0.7,1,1C116.8,47.7,116.8,48,116.6,48.3z
             M125.2,68.4c-0.4,0.9-1.1,1.2-2.1,1.1c-1.4-0.2-2.7-0.3-4.1-0.5c-0.8-0.1-1.4-0.8-1.3-1.6c0.1-0.8,0.7-1.3,1.5-1.2
            c1.6,0.2,3.2,0.4,4.7,0.7c0.4,0.1,0.8,0.6,1.2,0.9C125.2,68,125.2,68.2,125.2,68.4z M124.8,56.3c-0.4,0.4-0.8,0.9-1.3,1.2
            c-1,0.6-2.1,1.1-3.2,1.7c-1,0.5-2,0.3-2.4-0.6c-0.3-0.7,0.1-1.5,1.1-2c1.1-0.6,2.3-1,3.5-1.6c1.2-0.6,1.6-0.4,2.4,0.7
            C124.8,55.9,124.8,56.1,124.8,56.3z"/>
    </g>
    <text transform="matrix(0.9995 -3.036025e-02 3.036025e-02 0.9995 19.4697 153.029)" class="st1 st3 st4">New Exploration</text>
    <text transform="matrix(0.9995 -3.036025e-02 3.036025e-02 0.9995 20.7919 196.5589)" class="st3 st4">Create an exploration</text>
</g>
</svg>
