<?xml version="1.0" encoding="utf-8"?>
<!-- Generator: Adobe Illustrator 19.2.1, SVG Export Plug-In . SVG Version: 6.00 Build 0)  -->
<svg version="1.1" id="Layer_1" xmlns="http://www.w3.org/2000/svg" xmlns:xlink="http://www.w3.org/1999/xlink" x="0px" y="0px"
	 viewBox="0 0 265.8 311" style="enable-background:new 0 0 265.8 311;" xml:space="preserve">
<style type="text/css">
	.st0{fill:#AFD2EB;}
	.st1{opacity:0.22;enable-background:new    ;}
	.st2{fill:#FFFFFF;}
	.st3{fill:#D0982A;}
	.st4{fill:none;}
	.st5{font-family:'Capriola-Regular';}
	.st6{font-size:14px;}
	.st7{font-family:'Rubik-Regular';}
</style>
<rect class="st0" width="265.8" height="311"/>
<g>
	<rect x="30.9" y="37" class="st1" width="200" height="240"/>
	<rect x="32.9" y="34.5" class="st2" width="200" height="240"/>
	<rect x="32.8" y="34.5" class="st3" width="200" height="144"/>
	<g>
		
			<rect x="97" y="64.4" transform="matrix(1 -7.830393e-03 7.830393e-03 1 -0.7915 1.0539)" class="st4" width="74.4" height="74.4"/>
		<path class="st2" d="M134,69.9c-17.5,0.1-31.6,14.5-31.5,31.9c0.1,17.5,14.5,31.6,31.9,31.5c17.5-0.1,31.6-14.5,31.5-31.9
			C165.8,83.9,151.5,69.8,134,69.9z M133.9,77.9c0.3,0,0.5,0,0.8,0c0.7,0.5,1,1.1,1,1.9c0,1.2,0,2.4,0,3.6c0,1.1-0.5,1.8-1.4,1.8
			c-0.8,0-1.3-0.6-1.3-1.8s0.1-2.5,0-3.7C132.8,79,133.2,78.3,133.9,77.9z M113.6,90.4c0.9-1,1.3-1.1,2.5-0.5
			c1.2,0.4,2.4,0.9,3.4,1.5c0.9,0.4,1.3,1.1,1.1,1.8c-0.2,0.7-1.3,1.2-2.1,0.7c-1.4-0.6-2.8-1.3-4.1-1.9c-0.3-0.2-0.5-0.5-0.8-0.8
			C113.6,90.9,113.6,90.7,113.6,90.4z M120,103.5c-1.5,0.3-3,0.4-4.4,0.7c-0.8,0.1-1.4-0.3-1.8-0.9c0-0.2,0-0.4,0-0.6
			c0.4-0.8,1.1-1.1,1.9-1.1c1-0.2,2-0.4,3.1-0.5c0.3,0,0.6-0.1,1-0.1c0.8,0,1.5,0.3,1.6,1.1S120.7,103.3,120,103.5z M121.8,81
			c0.4-0.2,1.4-0.2,1.6,0.1c1.1,1.4,2,3,3,4.4c0.1,0.1,0,0.2,0.1,0.6c-0.2,0.2-0.4,0.8-0.8,0.9c-0.3,0.2-1.1,0.2-1.3-0.1
			c-1.1-1.4-2-2.8-3-4.3C120.9,82,121.2,81.2,121.8,81z M138.1,123.6c-1.2,0-2.5,0-3.7,0c-1.5,0-3,0-4.5,0c-0.8,0-1.1-0.3-1.2-1
			c-0.1-2.1-0.1-2.1,2-2.1c2.7,0,5.3-0.1,7.9,0c1.2,0,1.3,0,1.4,1.2C140.1,123.6,140.1,123.6,138.1,123.6z M138.1,119.3
			c-1.2,0-2.5,0-3.7,0c-1.5,0-3,0-4.5,0c-0.8,0-1.1-0.3-1.2-1c-0.1-2.1-0.1-2.1,2-2.1c2.7,0,5.3-0.1,7.9,0c1.2,0,1.3,0,1.4,1.2
			C140.1,119.2,140.1,119.2,138.1,119.3z M145.4,97.5c-0.1,2.1-0.7,4.2-1.6,6c-1.6,3-3,6.1-3.7,9.4c-0.2,1.3-0.4,1.4-1.8,1.4
			c-1.3,0-2.6,0-3.8,0c-1.5,0-2.9,0-4.4,0c-0.7,0-1.1-0.2-1.3-0.9c-0.2-0.8-0.5-1.5-0.6-2.2c-0.6-2.7-1.9-5-3.1-7.4
			c-1.3-2.5-2.1-5.1-1.8-8c0.4-3.9,2.4-6.5,6.1-7.8c3.2-1.1,6.5-1.1,9.6-0.1C143.2,89.4,145.6,93,145.4,97.5z M146.8,82.7
			c-0.7,1.3-1.5,2.4-2.4,3.6c-0.5,0.8-1.4,1-2.1,0.4c-0.7-0.4-0.8-1.2-0.3-2.1c0.7-1.2,1.4-2.4,2.3-3.5c0.3-0.5,1.1-0.7,1.7-0.7
			c0.4,0,0.7,0.7,1,1C147.1,82.2,147.1,82.4,146.8,82.7z M154.9,102.9c-0.4,0.9-1.1,1.2-2.1,1c-1.4-0.2-2.7-0.4-4.1-0.6
			c-0.8-0.1-1.4-0.8-1.3-1.6c0.1-0.8,0.7-1.3,1.5-1.2c1.6,0.2,3.2,0.5,4.6,0.8c0.4,0.1,0.8,0.6,1.2,0.9
			C154.9,102.5,154.9,102.7,154.9,102.9z M154.8,90.9c-0.4,0.4-0.8,0.9-1.3,1.2c-1,0.6-2.1,1-3.2,1.6c-1,0.5-2,0.3-2.4-0.6
			c-0.3-0.7,0.1-1.5,1.1-2c1.1-0.6,2.3-0.9,3.5-1.5c1.2-0.6,1.6-0.4,2.4,0.7C154.8,90.5,154.8,90.7,154.8,90.9z"/>
	</g>
	<text transform="matrix(1 0 0 1 47.4688 165.25)" class="st2 st5 st6">New Exploration</text>
	<text transform="matrix(1 0 0 1 47.4686 201)" class="st7 st6">Create an exploration</text>
</g>
</svg>
