<svg xmlns="http://www.w3.org/2000/svg" viewBox="0 0 186.7 186.7" xmlns:v="https://vecta.io/nano"><path fill="#eef4fb" d="M93.4 13.8c-43.9 0-79.5 35.6-79.5 79.5s35.6 79.5 79.5 79.5 79.5-35.6 79.5-79.5-35.6-79.5-79.5-79.5zm38.9 112.4h-11.4l-13.4-14.6-13.4 14.6H82.9l19-20.9-19-20.9h11.4L107.7 99l13.4-14.6h11.4l-19 20.9 18.8 20.9zm-1.2-63H81.4l-20.1 69c-.4 1.4-1.7 2.5-3.2 2.5h-.2c-1.4 0-2.7-.9-3.3-2.2l-8-20.7h-9.2c-1.9 0-3.5-1.6-3.5-3.5s1.6-3.5 3.5-3.5H49c1.4 0 2.7.9 3.3 2.2l5.2 13.3 18-61.6c.4-1.5 1.8-2.5 3.4-2.5h52.3c1.9 0 3.5 1.6 3.5 3.5s-1.6 3.5-3.6 3.5z"/></svg>