<svg xmlns="http://www.w3.org/2000/svg" viewBox="0 0 186.9 187.2" fill="#eff4fb" xmlns:v="https://vecta.io/nano"><path d="M107 77.5l-8.9-17.9c-1.2.4-2.6.7-4 .7s-2.8-.3-4.1-.7l-9.6 18.7c2.8 2.2 4.6 5.7 4.6 9.6 0 4.1-2 7.7-5.1 10l9.8 18.4a12.17 12.17 0 0 1 4.3-.8c1.4 0 2.7.2 3.9.6l8.8-18c-3.3-2.2-5.5-5.9-5.5-10.2a12.69 12.69 0 0 1 5.8-10.4zM93.6 13.8c-44 0-79.6 35.6-79.6 79.6 0 43.9 35.6 79.5 79.5 79.5S173 137.3 173 93.4c.1-44-35.5-79.6-79.4-79.6zM133.8 140c-6.8 0-12.3-5.5-12.3-12.3 0-4.2 2.1-8 5.4-10.2l-9.1-18.2a12.17 12.17 0 0 1-4.3.8c-1.4 0-2.7-.2-3.9-.6l-8.8 18c3.3 2.2 5.5 5.9 5.5 10.2 0 6.8-5.5 12.3-12.3 12.3s-12.3-5.5-12.3-12.3c0-4.1 2-7.7 5.1-10L77 99.3a12.17 12.17 0 0 1-4.3.8c-1.1 0-2.3-.2-3.3-.5l-9.2 18c3.2 2.2 5.3 5.9 5.3 10.1 0 6.8-5.5 12.3-12.3 12.3s-12.3-5.5-12.3-12.3 5.5-12.3 12.3-12.3c1.4 0 2.8.3 4.1.7l9.1-17.8a12.1 12.1 0 0 1-6-10.5c0-6.8 5.5-12.3 12.3-12.3a12.47 12.47 0 0 1 4.8 1L87 58c-3.2-2.2-5.3-5.9-5.3-10.1 0-6.8 5.5-12.3 12.3-12.3s12.3 5.5 12.3 12.3c0 4.2-2.1 8-5.4 10.2l9 18c1.2-.4 2.4-.6 3.7-.6 6.8 0 12.3 5.5 12.3 12.3 0 4.1-2 7.7-5.1 10l9.1 18.3c1.2-.4 2.6-.7 4-.7 6.8 0 12.3 5.5 12.3 12.3-.1 6.8-5.6 12.3-12.4 12.3z"/></svg>