<?xml version="1.0" encoding="utf-8"?>
<!-- Generator: Adobe Illustrator 18.1.1, SVG Export Plug-In . SVG Version: 6.00 Build 0)  -->
<svg version="1.1" id="algorithms" xmlns="http://www.w3.org/2000/svg" xmlns:xlink="http://www.w3.org/1999/xlink" x="0px" y="0px"
	 viewBox="0 0 186.9 187.2" enable-background="new 0 0 186.9 187.2" xml:space="preserve">
<rect x="0.2" y="0" fill="none" width="186.7" height="186.7"/>
<g>
	<path fill="#EFF4FB" d="M107,77.5l-8.9-17.9c-1.2,0.4-2.6,0.7-4,0.7c-1.4,0-2.8-0.3-4.1-0.7l-9.6,18.7c2.8,2.2,4.6,5.7,4.6,9.6
		c0,4.1-2,7.7-5.1,10l9.8,18.4c1.3-0.5,2.8-0.8,4.3-0.8c1.4,0,2.7,0.2,3.9,0.6l8.8-18c-3.3-2.2-5.5-5.9-5.5-10.2
		C101.3,83.5,103.6,79.7,107,77.5z"/>
	<path fill="#EFF4FB" d="M93.6,13.8C49.6,13.8,14,49.4,14,93.4c0,43.9,35.6,79.5,79.5,79.5c43.9,0,79.5-35.6,79.5-79.5
		C173.1,49.4,137.5,13.8,93.6,13.8z M133.8,140c-6.8,0-12.3-5.5-12.3-12.3c0-4.2,2.1-8,5.4-10.2l-9.1-18.2c-1.3,0.5-2.8,0.8-4.3,0.8
		c-1.4,0-2.7-0.2-3.9-0.6l-8.8,18c3.3,2.2,5.5,5.9,5.5,10.2c0,6.8-5.5,12.3-12.3,12.3s-12.3-5.5-12.3-12.3c0-4.1,2-7.7,5.1-10
		l-9.8-18.4c-1.3,0.5-2.8,0.8-4.3,0.8c-1.1,0-2.3-0.2-3.3-0.5l-9.2,18c3.2,2.2,5.3,5.9,5.3,10.1c0,6.8-5.5,12.3-12.3,12.3
		s-12.3-5.5-12.3-12.3c0-6.8,5.5-12.3,12.3-12.3c1.4,0,2.8,0.3,4.1,0.7l9.1-17.8c-3.6-2.1-6-6-6-10.5c0-6.8,5.5-12.3,12.3-12.3
		c1.7,0,3.4,0.4,4.8,1l9.5-18.5c-3.2-2.2-5.3-5.9-5.3-10.1c0-6.8,5.5-12.3,12.3-12.3s12.3,5.5,12.3,12.3c0,4.2-2.1,8-5.4,10.2l9,18
		c1.2-0.4,2.4-0.6,3.7-0.6c6.8,0,12.3,5.5,12.3,12.3c0,4.1-2,7.7-5.1,10l9.1,18.3c1.2-0.4,2.6-0.7,4-0.7c6.8,0,12.3,5.5,12.3,12.3
		C146.1,134.5,140.6,140,133.8,140z"/>
</g>
</svg>
