<?xml version="1.0" encoding="utf-8"?>
<!-- Generator: Adobe Illustrator 18.1.1, SVG Export Plug-In . SVG Version: 6.00 Build 0)  -->
<svg version="1.1" id="Layer_4_copy" xmlns="http://www.w3.org/2000/svg" xmlns:xlink="http://www.w3.org/1999/xlink" x="0px"
	 y="0px" viewBox="0 0 186.7 186.7" enable-background="new 0 0 186.7 186.7" xml:space="preserve">
<g>
	<rect x="0" y="0" fill="none" width="186.7" height="186.7"/>
	<path fill="#EEF4FB" d="M93.4,13.8c-43.9,0-79.5,35.6-79.5,79.5c0,43.9,35.6,79.5,79.5,79.5c43.9,0,79.5-35.6,79.5-79.5
		C172.9,49.4,137.3,13.8,93.4,13.8z M76.1,143.3H54v-41.5h22.1V143.3z M76.1,99.1H54c-1.7,0-3.1-1.4-3.1-3.1c0-1.7,1.4-3.1,3.1-3.1
		h22.1c1.7,0,3.1,1.4,3.1,3.1C79.2,97.7,77.8,99.1,76.1,99.1z M76.1,90.1H54v-26h27.2l3.9,10.8C79.7,77.8,76.1,83.5,76.1,90.1z
		 M93.4,72.8c-1.9,0-3.8,0.3-5.5,0.9l-3.5-9.7h18l-3.5,9.7C97.2,73.1,95.3,72.8,93.4,72.8z M101.6,74.9l3.9-10.8h27.2v26h-22.1
		C110.6,83.5,107,77.8,101.6,74.9z M132.7,143.3h-22.1v-41.5h22.1V143.3z M132.7,99.1h-22.1c-1.7,0-3.1-1.4-3.1-3.1
		c0-1.7,1.4-3.1,3.1-3.1h22.1c1.7,0,3.1,1.4,3.1,3.1C135.8,97.7,134.4,99.1,132.7,99.1z M136.6,61.1l-86.5,0c0-2.6-1.7-4.6-3.8-4.6
		l0-8.1l94,0l0,8.1C138.3,56.4,136.6,58.5,136.6,61.1z"/>
</g>
</svg>
