<svg xmlns="http://www.w3.org/2000/svg" viewBox="0 0 186.7 186.7" xmlns:v="https://vecta.io/nano"><path fill="#eef4fb" d="M93.4 13.8c-43.9 0-79.5 35.6-79.5 79.5s35.6 79.5 79.5 79.5 79.5-35.6 79.5-79.5-35.6-79.5-79.5-79.5zM76.1 143.3H54v-41.5h22.1v41.5zm0-44.2H54a3.12 3.12 0 0 1-3.1-3.1 3.12 3.12 0 0 1 3.1-3.1h22.1a3.12 3.12 0 0 1 3.1 3.1 3.12 3.12 0 0 1-3.1 3.1zm0-9H54v-26h27.2l3.9 10.8c-5.4 2.9-9 8.6-9 15.2zm17.3-17.3c-1.9 0-3.8.3-5.5.9L84.4 64h18l-3.5 9.7c-1.7-.6-3.6-.9-5.5-.9zm8.2 2.1l3.9-10.8h27.2v26h-22.1c0-6.6-3.6-12.3-9-15.2zm31.1 68.4h-22.1v-41.5h22.1v41.5zm0-44.2h-22.1a3.12 3.12 0 0 1-3.1-3.1 3.12 3.12 0 0 1 3.1-3.1h22.1a3.12 3.12 0 0 1 3.1 3.1 3.12 3.12 0 0 1-3.1 3.1zm3.9-38H50.1c0-2.6-1.7-4.6-3.8-4.6v-8.1h94v8.1c-2-.1-3.7 2-3.7 4.6z"/></svg>