<svg xmlns="http://www.w3.org/2000/svg" xmlns:xlink="http://www.w3.org/1999/xlink" viewBox="0 0 186.7 186.7" xmlns:v="https://vecta.io/nano"><g fill="#eef4fb"><use xlink:href="#B"/><use xlink:href="#B" y="12"/><path d="M80.9 66.2h-7.2c-.8 0-1.4-.6-1.4-1.4v-7.2c0-.8-.6-1.4-1.4-1.4h-3.1c-.8 0-1.4.6-1.4 1.4v7.2c0 .8-.6 1.4-1.4 1.4h-7.2c-.8 0-1.4.6-1.4 1.4v3.1c0 .8.6 1.4 1.4 1.4H65c.8 0 1.4.6 1.4 1.4v7.2c0 .8.6 1.4 1.4 1.4h3.1c.8 0 1.4-.6 1.4-1.4v-7.2c0-.8.6-1.4 1.4-1.4h7.2c.8 0 1.4-.6 1.4-1.4v-3.1c0-.7-.7-1.4-1.4-1.4zm-1.3 45.2c.6-.6.6-1.5 0-2l-2.2-2.2c-.6-.6-1.5-.6-2 0l-5.1 5.1c-.6.6-1.5.6-2 0l-5.1-5.1c-.6-.6-1.5-.6-2 0l-2.2 2.2c-.6.6-.6 1.5 0 2l5.1 5.1c.6.6.6 1.5 0 2l-5.1 5.1c-.6.6-.6 1.5 0 2l2.2 2.2c.6.6 1.5.6 2 0l5.1-5.1c.6-.6 1.5-.6 2 0l5.1 5.1c.6.6 1.5.6 2 0l2.2-2.2c.6-.6.6-1.5 0-2l-5.1-5.1c-.6-.6-.6-1.5 0-2l5.1-5.1zm13.8-97.6c-43.9 0-79.5 35.6-79.5 79.5s35.6 79.5 79.5 79.5 79.5-35.6 79.5-79.5-35.6-79.5-79.5-79.5zm-4 117.8a6.06 6.06 0 0 1-6.1 6.1H55.2a6.06 6.06 0 0 1-6.1-6.1v-28.1a6.06 6.06 0 0 1 6.1-6.1h28.1a6.06 6.06 0 0 1 6.1 6.1v28.1zm0-48.4a6.06 6.06 0 0 1-6.1 6.1H55.2a6.06 6.06 0 0 1-6.1-6.1v-28a6.06 6.06 0 0 1 6.1-6.1h28.1a6.06 6.06 0 0 1 6.1 6.1v28zm48.3 48.4a6.06 6.06 0 0 1-6.1 6.1h-28.1a6.06 6.06 0 0 1-6.1-6.1v-28.1a6.06 6.06 0 0 1 6.1-6.1h28.1a6.06 6.06 0 0 1 6.1 6.1v28.1zm0-48.4a6.06 6.06 0 0 1-6.1 6.1h-28.1a6.06 6.06 0 0 1-6.1-6.1v-28a6.06 6.06 0 0 1 6.1-6.1h28.1a6.06 6.06 0 0 1 6.1 6.1v28zm-8.5-17h-23.3c-.8 0-1.4.6-1.4 1.4v3.1c0 .8.6 1.4 1.4 1.4h23.3c.8 0 1.4-.6 1.4-1.4v-3.1c0-.7-.6-1.4-1.4-1.4z"/></g><defs ><path id="B" d="M129.2 108.5h-23.3c-.8 0-1.4.6-1.4 1.4v3.1c0 .8.6 1.4 1.4 1.4h23.3c.8 0 1.4-.6 1.4-1.4v-3c0-.8-.6-1.5-1.4-1.5z"/></defs></svg>