<?xml version="1.0" encoding="utf-8"?>
<!-- Generator: Adobe Illustrator 18.1.1, SVG Export Plug-In . SVG Version: 6.00 Build 0)  -->
<svg version="1.1" id="Layer_4_copy" xmlns="http://www.w3.org/2000/svg" xmlns:xlink="http://www.w3.org/1999/xlink" x="0px"
	 y="0px" viewBox="0 0 186.7 186.7" enable-background="new 0 0 186.7 186.7" xml:space="preserve">
<g>
	<rect x="0" y="0" fill="none" width="186.7" height="186.7"/>
	<g>
		<path fill="#EEF4FB" d="M129.2,108.5h-23.3c-0.8,0-1.4,0.6-1.4,1.4v3.1c0,0.8,0.6,1.4,1.4,1.4h23.3c0.8,0,1.4-0.6,1.4-1.4V110
			C130.6,109.2,130,108.5,129.2,108.5z"/>
		<path fill="#EEF4FB" d="M129.2,120.5h-23.3c-0.8,0-1.4,0.6-1.4,1.4v3.1c0,0.8,0.6,1.4,1.4,1.4h23.3c0.8,0,1.4-0.6,1.4-1.4V122
			C130.6,121.2,130,120.5,129.2,120.5z"/>
		<path fill="#EEF4FB" d="M80.9,66.2h-7.2c-0.8,0-1.4-0.6-1.4-1.4v-7.2c0-0.8-0.6-1.4-1.4-1.4h-3.1c-0.8,0-1.4,0.6-1.4,1.4v7.2
			c0,0.8-0.6,1.4-1.4,1.4h-7.2c-0.8,0-1.4,0.6-1.4,1.4v3.1c0,0.8,0.6,1.4,1.4,1.4h7.2c0.8,0,1.4,0.6,1.4,1.4v7.2
			c0,0.8,0.6,1.4,1.4,1.4h3.1c0.8,0,1.4-0.6,1.4-1.4v-7.2c0-0.8,0.6-1.4,1.4-1.4h7.2c0.8,0,1.4-0.6,1.4-1.4v-3.1
			C82.3,66.9,81.6,66.2,80.9,66.2z"/>
		<path fill="#EEF4FB" d="M79.6,111.4c0.6-0.6,0.6-1.5,0-2l-2.2-2.2c-0.6-0.6-1.5-0.6-2,0l-5.1,5.1c-0.6,0.6-1.5,0.6-2,0l-5.1-5.1
			c-0.6-0.6-1.5-0.6-2,0l-2.2,2.2c-0.6,0.6-0.6,1.5,0,2l5.1,5.1c0.6,0.6,0.6,1.5,0,2l-5.1,5.1c-0.6,0.6-0.6,1.5,0,2l2.2,2.2
			c0.6,0.6,1.5,0.6,2,0l5.1-5.1c0.6-0.6,1.5-0.6,2,0l5.1,5.1c0.6,0.6,1.5,0.6,2,0l2.2-2.2c0.6-0.6,0.6-1.5,0-2l-5.1-5.1
			c-0.6-0.6-0.6-1.5,0-2L79.6,111.4z"/>
		<path fill="#EEF4FB" d="M93.4,13.8c-43.9,0-79.5,35.6-79.5,79.5c0,43.9,35.6,79.5,79.5,79.5c43.9,0,79.5-35.6,79.5-79.5
			C172.9,49.4,137.3,13.8,93.4,13.8z M89.4,131.6c0,3.4-2.7,6.1-6.1,6.1H55.2c-3.4,0-6.1-2.7-6.1-6.1v-28.1c0-3.4,2.7-6.1,6.1-6.1
			h28.1c3.4,0,6.1,2.7,6.1,6.1V131.6z M89.4,83.2c0,3.4-2.7,6.1-6.1,6.1H55.2c-3.4,0-6.1-2.7-6.1-6.1V55.2c0-3.4,2.7-6.1,6.1-6.1
			h28.1c3.4,0,6.1,2.7,6.1,6.1V83.2z M137.7,131.6c0,3.4-2.7,6.1-6.1,6.1h-28.1c-3.4,0-6.1-2.7-6.1-6.1v-28.1c0-3.4,2.7-6.1,6.1-6.1
			h28.1c3.4,0,6.1,2.7,6.1,6.1V131.6z M137.7,83.2c0,3.4-2.7,6.1-6.1,6.1h-28.1c-3.4,0-6.1-2.7-6.1-6.1V55.2c0-3.4,2.7-6.1,6.1-6.1
			h28.1c3.4,0,6.1,2.7,6.1,6.1V83.2z"/>
		<path fill="#EEF4FB" d="M129.2,66.2h-23.3c-0.8,0-1.4,0.6-1.4,1.4v3.1c0,0.8,0.6,1.4,1.4,1.4h23.3c0.8,0,1.4-0.6,1.4-1.4v-3.1
			C130.6,66.9,130,66.2,129.2,66.2z"/>
	</g>
</g>
</svg>
