<svg xmlns="http://www.w3.org/2000/svg" viewBox="0 0 186.7 186.7" fill="#eef4fb" xmlns:v="https://vecta.io/nano"><path d="M115 110.6c-3.9-2.9-9.7-2-12.5 1.9s-1.9 9.5 1.9 12.3c3.9 2.9 9.7 2 12.5-1.9 2.8-3.8 1.9-9.4-1.9-12.3zM95.8 59.7c-3.9-2.9-9.4-2-12.3 1.9-2.9 4-2.2 9.3 1.8 12.3s9.5 2.2 12.4-1.9c2.9-4 2-9.4-1.9-12.3zm15.3 16.9c4 2.9 9.4 2.2 12.3-1.6s2.2-9.5-1.6-12.4c-4-3.1-9.5-2.3-12.5 1.7-2.9 3.9-2.1 9.4 1.8 12.3zm20.7 11.9c-3.8-2.9-9.5-2-12.4 1.8-3 3.9-2.1 9.7 1.9 12.5 3.9 2.8 9.5 1.9 12.4-2 2.8-3.7 2-9.3-1.9-12.3zM93.4 13.8c-43.9 0-79.5 35.6-79.5 79.5s35.6 79.5 79.5 79.5 79.5-35.6 79.5-79.5-35.6-79.5-79.5-79.5zm39.1 110c-18.4 17.4-39.9 21.8-63.9 14.3-2.4-.8-4.7-2.1-7.1-3.2-1.7-1.3-3.5-2.5-5.2-3.8-.9-1-1.9-2-2.8-3.1-1.6-2-2-4.4-.9-6.7 1.1-2.4 3.3-2.8 5.7-2.6.9 0 1.8.3 2.7.3 2.2 0 4.5.2 6.6-.2 2.3-.4 3.3-2.2 1.8-4.1s-3.4-4-5.5-4.9c-5.3-2.1-10.8-3.4-16.2-5.3-6.4-2.3-9.9-8.4-8.5-15 1.5-7.4 4.8-14.1 9.6-20 7.8-9.6 17.9-15.8 29.5-19.8 13.3-4.5 26.6-5.6 39.9-.1 2.7 1.1 5.3 2.5 7.9 3.7l6.3 4.6c.5.6 1 1.1 1.6 1.7 8.4 8.1 13.5 17.7 13.5 29.5.2 13.7-5.2 25.4-15 34.7z"/></svg>