<svg xmlns="http://www.w3.org/2000/svg" viewBox="0 0 186.7 186.7" xmlns:v="https://vecta.io/nano"><path fill="#eef4fb" d="M93.4 13.8c-43.9 0-79.5 35.6-79.5 79.5s35.6 79.5 79.5 79.5 79.5-35.6 79.5-79.5-35.6-79.5-79.5-79.5zM71.8 135.6h-2.4c-2 4.3-3.9 9.6-4.9 14 0 0-3.9.4-7 2.5v-.9c.3-1.6 1.5-4.6 1.7-5.2.7-2.2 1.4-4.4 2.2-6.5 1.9-4.7 4.3-9.2 7.5-13.1 3.9-4.7 8.7-7.7 13.2-11.6 4.4-3.9 8.3-8.4 11.7-13.2 5-7 9.1-14.6 13.2-22.1.3-.6.7-1.3.6-2s-.6-1.4-1.3-1.4-1.1.8-1.4 1.4c-6.9 14-16.7 27.4-29.3 36.7-19 14.1-18 17.2-18 17.2-.3-.5-.3-.9-.3-.9C49 107.6 46 84.4 71.8 64.9s31.9-11.3 47.8-26.9c0 0 3.3-2.6 4 0 .8 2.6 42.8 93.6-51.8 97.6z"/></svg>