<?xml version="1.0" encoding="utf-8"?>
<!-- Generator: Adobe Illustrator 18.1.1, SVG Export Plug-In . SVG Version: 6.00 Build 0)  -->
<svg version="1.1" id="Layer_4_copy" xmlns="http://www.w3.org/2000/svg" xmlns:xlink="http://www.w3.org/1999/xlink" x="0px"
	 y="0px" viewBox="0 0 186.7 186.7" enable-background="new 0 0 186.7 186.7" xml:space="preserve">
<g>
	<rect x="0" y="0" fill="none" width="186.7" height="186.7"/>
	<path fill="#EEF4FB" d="M93.4,13.8c-43.9,0-79.5,35.6-79.5,79.5c0,43.9,35.6,79.5,79.5,79.5s79.5-35.6,79.5-79.5
		C172.9,49.4,137.3,13.8,93.4,13.8z M71.8,135.6c-0.8,0-1.6,0-2.4,0c-2,4.3-3.9,9.6-4.9,14c0,0-3.9,0.4-7,2.5l0-0.9
		c0.3-1.6,1.5-4.6,1.7-5.2c0.7-2.2,1.4-4.4,2.2-6.5c1.9-4.7,4.3-9.2,7.5-13.1c3.9-4.7,8.7-7.7,13.2-11.6c4.4-3.9,8.3-8.4,11.7-13.2
		c5-7,9.1-14.6,13.2-22.1c0.3-0.6,0.7-1.3,0.6-2s-0.6-1.4-1.3-1.4c-0.7,0-1.1,0.8-1.4,1.4c-6.9,14-16.7,27.4-29.3,36.7
		c-19,14.1-18,17.2-18,17.2c-0.3-0.5-0.3-0.9-0.3-0.9C49,107.6,46,84.4,71.8,64.9s31.9-11.3,47.8-26.9c0,0,3.3-2.6,4,0
		C124.4,40.6,166.4,131.6,71.8,135.6z"/>
</g>
</svg>
