<?xml version="1.0" encoding="utf-8"?>
<!-- Generator: Adobe Illustrator 18.1.1, SVG Export Plug-In . SVG Version: 6.00 Build 0)  -->
<svg version="1.1" id="business" xmlns="http://www.w3.org/2000/svg" xmlns:xlink="http://www.w3.org/1999/xlink" x="0px" y="0px"
	 viewBox="0 0 186.7 186.7" enable-background="new 0 0 186.7 186.7" xml:space="preserve">
<rect x="0" y="0" fill="none" width="186.7" height="186.7"/>
<path fill="#EFF4FB" d="M93.4,13.8c-43.9,0-79.5,35.6-79.5,79.5c0,43.9,35.6,79.5,79.5,79.5c43.9,0,79.5-35.6,79.5-79.5
	C172.9,49.4,137.3,13.8,93.4,13.8z M36.7,102.2c-1.8,3.8-4.1,5.1-7.7,3.6c-3.6-1.5-6.8-3.9-10.2-6c0-0.7,0-1.4,0-2
	c0.8-2.1,1.6-4.2,2.5-6.3c3.3-7.7,6.3-15.6,9.9-23.1c2.3-4.7,3.1-10.3,8-13.4c0.5,0,0.9,0,1.4,0c3.3,1.6,6.5,3.2,9.8,4.7
	c2.6,1.2,3.9,2.9,2.6,5.8c-2.7,6.3-5.3,12.7-8.1,18.9C42.2,90.4,39.5,96.3,36.7,102.2z M48,118.9c-3.7,0.3-5.6-1.1-6.6-3.6
	c-0.9-2.5,0.7-3.7,2.6-5.1c3-2.3,5.7-5.1,8.5-7.7c2.2-2,4.8-1.9,7,0.2c2.1,2.1,2.2,4.5-0.2,6.7c-3.1,3-6.2,5.9-9.4,8.7
	C49.2,118.7,48.2,118.9,48,118.9z M57.3,127.7c-1.4-1.1-3.5-1.9-4.2-3.4c-1-2-1-4.1,1.7-5.8c3.3-2.1,6-5.1,8.8-7.9
	c2.5-2.4,4-2.3,7.3,0.8c2.1,2,1.6,4.2-0.5,6.1c-3.2,2.9-6.2,5.9-9.4,8.7C60.1,126.9,58.9,127.1,57.3,127.7z M65.6,132.7
	c-1.9-2.5-1.4-4.2,1.5-6.6c3.1-2.6,5.9-5.6,9-8.1c1-0.8,2.9-1.4,3.9-1c1.8,0.8,3.3,2.4,4.9,3.7c-0.8,1.8-0.9,2.9-1.5,3.5
	c-3.5,3.2-6.9,6.3-10.6,9.3C70.5,135.2,67.1,134.7,65.6,132.7z M81.7,142.5c-2.8,0.3-4.4-1.2-5.5-3.3c-1-2.1,0.4-3.6,1.9-4.9
	c3.1-2.8,6.1-5.7,9.2-8.4c2.6-2.2,4.7-1.7,7.5,1.3c2.1,2.3,0.9,4-0.9,5.7c-3.1,2.8-6.1,5.7-9.2,8.4
	C83.9,141.9,82.7,142.1,81.7,142.5z M125.4,120.6c-1.2,7.9-4.5,10.1-12.1,8.1c-1.8,6.5-4.5,8.1-12.4,7.4c-0.1,3.9-1.9,6.8-5.7,8.1
	c-0.7,0-1.4,0-2,0c-1-0.5-2.1-1.1-3.5-1.8c2.4-2.1,4.6-4.1,6.9-6c2.8-2.3,4.3-6.9,3-10c-2-4.9-5.7-7-10.7-6.2
	c-1.2-5.9-6-8.9-12.2-7.5c-2-6.2-6-8.9-11.1-7.5c-0.1-4.5-2.8-7.3-6.7-8.4c-2.1-0.6-5,0-6.9,1.2c-2.8,1.7-5.1,4.4-7.6,6.7
	c-0.7,0.7-1.5,1.4-3.1,2.9c0-2-0.3-3.2,0.1-4.1c3.2-7.8,6.5-15.6,9.9-23.3c1.5-3.5,3.1-6.9,4.5-10.4c0.8-1.9,2-2.5,4.1-2.7
	c4.4-0.5,8.7-1.6,13.1-2.3c3.8-0.6,7.7-1.2,11.6-1.6c1.1-0.1,2.2,0.5,3.3,0.8c-3.3,3.5-6.3,6.8-9.4,10.1c-2.6,2.8-5.4,5.3-7.9,8.3
	c-1.7,2.1-1,8.5,1.2,10.6c2.3,2.3,4.8,4.4,7.6,6.1c3,1.8,6.4,1.1,9.3-0.5c3.8-2.1,7.4-4.6,10.8-7.2c2.9-2.1,5-2.1,7.7,0.3
	c8.1,7.1,16.3,14.1,24.4,21.1c1.7,1.5,3.3,3,5,4.6C134.4,121.7,132,122.5,125.4,120.6z M129.8,105.7c-7-6.3-14-12.7-21-19
	c-2.6-2.4-6.6-2.4-10.2-0.1c-3.8,2.4-7.6,4.6-11.2,7.2c-5.1,3.6-12.9-0.7-13.5-5.9c-0.2-1.6,0.2-3.6,1.2-4.9
	c5.8-7.5,13-13.6,21.2-18.4c6.4-3.8,13-2.1,19.6,0.2c3.4,1.2,7.1,1.9,10.7,2.2c2.2,0.2,3.6,0.9,4.4,2.9c4.8,11.5,9.7,22.9,14.5,34.4
	c0.3,0.6,0.3,1.3,0.5,2.1C137.4,112.4,137.4,112.5,129.8,105.7z M155.6,106.7c-2.4,0.6-3.8-1-4.7-3c-3.8-8.4-7.7-16.8-11.5-25.2
	c-1.7-3.7-3.2-7.6-4.8-11.4c-1.8-4.2-1-5.9,3.2-7.5c2.2-0.8,4.3-1.8,6.5-2.7c3.8-1.6,6.5-0.4,8.1,3.3c4.7,11.4,9.5,22.7,14.3,34.1
	c0.3,0.8,0.9,1.5,1.4,2.2c0,1.1,0,2.3,0,3.4C165.2,104.6,160.3,105.5,155.6,106.7z"/>
</svg>
