<svg xmlns="http://www.w3.org/2000/svg" viewBox="0 0 186.7 186.7" xmlns:v="https://vecta.io/nano"><path fill="#eff4fb" d="M93.4 13.8c-43.9 0-79.5 35.6-79.5 79.5s35.6 79.5 79.5 79.5 79.5-35.6 79.5-79.5-35.6-79.5-79.5-79.5zm-56.7 88.4c-1.8 3.8-4.1 5.1-7.7 3.6s-6.8-3.9-10.2-6v-2l2.5-6.3c3.3-7.7 6.3-15.6 9.9-23.1 2.3-4.7 3.1-10.3 8-13.4h1.4l9.8 4.7c2.6 1.2 3.9 2.9 2.6 5.8l-8.1 18.9-8.2 17.8zM48 118.9c-3.7.3-5.6-1.1-6.6-3.6-.9-2.5.7-3.7 2.6-5.1 3-2.3 5.7-5.1 8.5-7.7 2.2-2 4.8-1.9 7 .2 2.1 2.1 2.2 4.5-.2 6.7-3.1 3-6.2 5.9-9.4 8.7-.7.6-1.7.8-1.9.8zm9.3 8.8c-1.4-1.1-3.5-1.9-4.2-3.4-1-2-1-4.1 1.7-5.8 3.3-2.1 6-5.1 8.8-7.9 2.5-2.4 4-2.3 7.3.8 2.1 2 1.6 4.2-.5 6.1l-9.4 8.7c-.9.7-2.1.9-3.7 1.5zm8.3 5c-1.9-2.5-1.4-4.2 1.5-6.6 3.1-2.6 5.9-5.6 9-8.1 1-.8 2.9-1.4 3.9-1 1.8.8 3.3 2.4 4.9 3.7-.8 1.8-.9 2.9-1.5 3.5-3.5 3.2-6.9 6.3-10.6 9.3-2.3 1.7-5.7 1.2-7.2-.8zm16.1 9.8c-2.8.3-4.4-1.2-5.5-3.3-1-2.1.4-3.6 1.9-4.9l9.2-8.4c2.6-2.2 4.7-1.7 7.5 1.3 2.1 2.3.9 4-.9 5.7l-9.2 8.4c-.8.6-2 .8-3 1.2zm43.7-21.9c-1.2 7.9-4.5 10.1-12.1 8.1-1.8 6.5-4.5 8.1-12.4 7.4-.1 3.9-1.9 6.8-5.7 8.1h-2l-3.5-1.8 6.9-6c2.8-2.3 4.3-6.9 3-10-2-4.9-5.7-7-10.7-6.2-1.2-5.9-6-8.9-12.2-7.5-2-6.2-6-8.9-11.1-7.5-.1-4.5-2.8-7.3-6.7-8.4-2.1-.6-5 0-6.9 1.2-2.8 1.7-5.1 4.4-7.6 6.7-.7.7-1.5 1.4-3.1 2.9 0-2-.3-3.2.1-4.1l9.9-23.3 4.5-10.4c.8-1.9 2-2.5 4.1-2.7 4.4-.5 8.7-1.6 13.1-2.3 3.8-.6 7.7-1.2 11.6-1.6 1.1-.1 2.2.5 3.3.8l-9.4 10.1c-2.6 2.8-5.4 5.3-7.9 8.3-1.7 2.1-1 8.5 1.2 10.6 2.3 2.3 4.8 4.4 7.6 6.1 3 1.8 6.4 1.1 9.3-.5 3.8-2.1 7.4-4.6 10.8-7.2 2.9-2.1 5-2.1 7.7.3l24.4 21.1c1.7 1.5 3.3 3 5 4.6-2.2 4.3-4.6 5.1-11.2 3.2zm4.4-14.9l-21-19c-2.6-2.4-6.6-2.4-10.2-.1-3.8 2.4-7.6 4.6-11.2 7.2-5.1 3.6-12.9-.7-13.5-5.9-.2-1.6.2-3.6 1.2-4.9 5.8-7.5 13-13.6 21.2-18.4 6.4-3.8 13-2.1 19.6.2 3.4 1.2 7.1 1.9 10.7 2.2 2.2.2 3.6.9 4.4 2.9l14.5 34.4c.3.6.3 1.3.5 2.1-8.6 6-8.6 6.1-16.2-.7zm25.8 1c-2.4.6-3.8-1-4.7-3l-11.5-25.2c-1.7-3.7-3.2-7.6-4.8-11.4-1.8-4.2-1-5.9 3.2-7.5 2.2-.8 4.3-1.8 6.5-2.7 3.8-1.6 6.5-.4 8.1 3.3l14.3 34.1c.3.8.9 1.5 1.4 2.2v3.4c-2.9 4.7-7.8 5.6-12.5 6.8z"/></svg>