<?xml version="1.0" encoding="utf-8"?>
<!-- Generator: Adobe Illustrator 18.1.1, SVG Export Plug-In . SVG Version: 6.00 Build 0)  -->
<svg version="1.1" id="calculus" xmlns="http://www.w3.org/2000/svg" xmlns:xlink="http://www.w3.org/1999/xlink" x="0px" y="0px"
	 viewBox="0 0 186.9 187.2" enable-background="new 0 0 186.9 187.2" xml:space="preserve">
<rect x="0.2" y="0" fill="none" width="186.7" height="186.7"/>
<g>
	<path fill="#EFF4FB" d="M93.6,13.8C49.6,13.8,14,49.4,14,93.4c0,43.9,35.6,79.5,79.5,79.5c43.9,0,79.5-35.6,79.5-79.5
		C173.1,49.4,137.5,13.8,93.6,13.8z M120.6,91.7v44h16.5v-8.1l9.7,9.7l-9.7,9.7v-8.1H47.7V96.6c-3.2,3.2-6.5,6.7-10,10.5
		c-0.3,0.3-0.8,0.5-1.2,0.5c-0.4,0-0.8-0.1-1.1-0.4c-0.7-0.6-0.7-1.6-0.1-2.3c4.4-4.8,8.5-9.1,12.3-12.9V49.5h-8.1l9.7-9.7l9.7,9.7
		h-8.1v39.3c24.9-24.2,35.3-26.4,41.7-25.2c7.4,1.4,11.2,9,14,16.3c2,5.2,4.7,8.1,8.4,8.8c8.3,1.6,21.9-7.7,40.3-27.8
		c0.6-0.7,1.6-0.7,2.3-0.1c0.7,0.6,0.7,1.6,0.1,2.3C141.8,80.4,129.8,89.7,120.6,91.7z"/>
	<path fill="#EFF4FB" d="M50.9,135.7h21.6V74.4c-6.1,4.4-13.3,10.7-21.6,19V135.7z"/>
</g>
</svg>
