<svg xmlns="http://www.w3.org/2000/svg" viewBox="0 0 186.9 187.2" fill="#eff4fb" xmlns:v="https://vecta.io/nano"><path d="M93.6 13.8c-44 0-79.6 35.6-79.6 79.6 0 43.9 35.6 79.5 79.5 79.5S173 137.3 173 93.4c.1-44-35.5-79.6-79.4-79.6zm27 77.9v44h16.5v-8.1l9.7 9.7-9.7 9.7v-8.1H47.7V96.6c-3.2 3.2-6.5 6.7-10 10.5-.3.3-.8.5-1.2.5s-.8-.1-1.1-.4c-.7-.6-.7-1.6-.1-2.3 4.4-4.8 8.5-9.1 12.3-12.9V49.5h-8.1l9.7-9.7 9.7 9.7h-8.1v39.3c24.9-24.2 35.3-26.4 41.7-25.2 7.4 1.4 11.2 9 14 16.3 2 5.2 4.7 8.1 8.4 8.8 8.3 1.6 21.9-7.7 40.3-27.8.6-.7 1.6-.7 2.3-.1s.7 1.6.1 2.3c-15.8 17.3-27.8 26.6-37 28.6zm-69.7 44h21.6V74.4c-6.1 4.4-13.3 10.7-21.6 19v42.3z"/></svg>