<?xml version="1.0" encoding="utf-8"?>
<!-- Generator: Adobe Illustrator 18.1.1, SVG Export Plug-In . SVG Version: 6.00 Build 0)  -->
<svg version="1.1" id="Layer_4_copy" xmlns="http://www.w3.org/2000/svg" xmlns:xlink="http://www.w3.org/1999/xlink" x="0px"
	 y="0px" viewBox="0 0 186.7 186.7" enable-background="new 0 0 186.7 186.7" xml:space="preserve">
<g>
	<rect x="0" y="0" fill="none" width="186.7" height="186.7"/>
	<g>
		<path fill="#EEF4FB" d="M95.3,71.2h-3.8h-4.2l-23,39.5h28.1h2h28.1l-23-39.5H95.3z M87,103.3c-2.3,0-4.2-1.9-4.2-4.2
			c0-2.3,1.9-4.2,4.2-4.2s4.2,1.9,4.2,4.2C91.2,101.5,89.3,103.3,87,103.3z M105.6,101.5c0,2.6-2.1,4.8-4.8,4.8
			c-2.6,0-4.8-2.1-4.8-4.8c0-2.6,2.1-4.8,4.8-4.8C103.5,96.8,105.6,98.9,105.6,101.5z M96.1,93.8c-2.1,0-3.8-1.7-3.8-3.8
			s1.7-3.8,3.8-3.8s3.8,1.7,3.8,3.8S98.2,93.8,96.1,93.8z"/>
		<path fill="#EEF4FB" d="M93.4,13.8c-43.9,0-79.5,35.6-79.5,79.5c0,43.9,35.6,79.5,79.5,79.5c43.9,0,79.5-35.6,79.5-79.5
			C172.9,49.4,137.3,13.8,93.4,13.8z M131.7,137.7c-1.9,1.1-4,1.6-6.1,1.6v0H61.1v0c-2.1,0-4.2-0.5-6.1-1.6
			c-5.8-3.4-7.7-10.8-4.4-16.5l29.3-50.2V53.2h-1.5c-1.8,0-3.3-1.5-3.3-3.3c0-1.8,1.5-3.3,3.3-3.3h6l-2.7-10.1h23.4l-2.7,10.1h6
			c1.8,0,3.3,1.5,3.3,3.3c0,1.8-1.5,3.3-3.3,3.3h-1.5v17.8l29.3,50.2C139.4,126.9,137.5,134.3,131.7,137.7z"/>
	</g>
</g>
</svg>
