<svg xmlns="http://www.w3.org/2000/svg" viewBox="0 0 186.7 186.7" fill="#eef4fb" xmlns:v="https://vecta.io/nano"><path d="M95.3 71.2h-3.8-4.2l-23 39.5h28.1 2 28.1l-23-39.5h-4.2zM87 103.3a4.23 4.23 0 0 1-4.2-4.2 4.23 4.23 0 0 1 4.2-4.2 4.23 4.23 0 0 1 4.2 4.2 4.16 4.16 0 0 1-4.2 4.2zm18.6-1.8c0 2.6-2.1 4.8-4.8 4.8-2.6 0-4.8-2.1-4.8-4.8 0-2.6 2.1-4.8 4.8-4.8 2.7.1 4.8 2.2 4.8 4.8zm-9.5-7.7a3.8 3.8 0 0 1 0-7.6 3.8 3.8 0 0 1 0 7.6zm-2.7-80c-43.9 0-79.5 35.6-79.5 79.5s35.6 79.5 79.5 79.5 79.5-35.6 79.5-79.5-35.6-79.5-79.5-79.5zm38.3 123.9c-1.9 1.1-4 1.6-6.1 1.6h0-64.5 0c-2.1 0-4.2-.5-6.1-1.6-5.8-3.4-7.7-10.8-4.4-16.5L79.9 71V53.2h-1.5a3.33 3.33 0 0 1-3.3-3.3 3.33 3.33 0 0 1 3.3-3.3h6l-2.7-10.1h23.4l-2.7 10.1h6a3.33 3.33 0 0 1 3.3 3.3 3.33 3.33 0 0 1-3.3 3.3h-1.5V71l29.3 50.2c3.2 5.7 1.3 13.1-4.5 16.5z"/></svg>