<svg xmlns="http://www.w3.org/2000/svg" viewBox="0 0 186.7 186.7" xmlns:v="https://vecta.io/nano"><path fill="#eef4fb" d="M93.4 13.8c-43.9 0-79.5 35.6-79.5 79.5s35.6 79.5 79.5 79.5 79.5-35.6 79.5-79.5-35.6-79.5-79.5-79.5zM75.3 75.7H78c-3.1-3.5-5-8.1-5-13.1 0-6.4 3-12 7.8-15.7v9.5c0 3.2 1.7 5.8 3.7 5.9l.2-19.1a8.71 8.71 0 0 1 8.7-8.7 8.71 8.71 0 0 1 8.7 8.7c0 .4 0 .9-.1 1.3 6.9 3.2 11.8 10.1 11.8 18.1 0 5-1.9 9.5-5 13.1h2.6a4.48 4.48 0 1 1 0 9H96.3h-5.9-15.1a4.48 4.48 0 1 1 0-9zm-1.5 36.5c5.6-3.6 7.5-17.3 7.2-24.6h24.9c-.4 7.3 1.5 21 7.2 24.6 5.6 3.6 5.6 6.2 3.6 8.2H70.2c-2.1-2.1-2.1-4.7 3.6-8.2zm44 29.7H68.9a8.71 8.71 0 0 1-8.7-8.7 8.71 8.71 0 0 1 8.7-8.7h48.9a8.71 8.71 0 0 1 8.7 8.7 8.71 8.71 0 0 1-8.7 8.7z"/></svg>