<svg xmlns="http://www.w3.org/2000/svg" viewBox="0 0 186.9 187.2" fill="#eff4fb" xmlns:v="https://vecta.io/nano"><circle cx="70.3" cy="95.7" r="4.4"/><circle cx="91.3" cy="116.7" r="4.4"/><path d="M75.556 114.194l-2.758-2.758 38.89-38.89 2.758 2.758z"/><circle cx="70.3" cy="69.2" r="4.4"/><circle cx="70.3" cy="42.7" r="4.4"/><circle cx="117.7" cy="90.2" r="4.4"/><path d="M93.6 13.8c-44 0-79.6 35.6-79.6 79.6 0 43.9 35.6 79.5 79.5 79.5S173 137.3 173 93.4c.1-44-35.5-79.6-79.4-79.6zm27.8 141.3c-2.3 2.3-6 2.3-8.2 0L31.8 73.8c-2.3-2.3-2.3-6 0-8.2l33.9-33.9c2.3-2.3 6-2.3 8.2 0l81.4 81.4c2.3 2.3 2.3 6 0 8.2l-33.9 33.8z"/><circle cx="144.2" cy="116.7" r="4.4"/><circle cx="117.7" cy="116.7" r="4.4"/><circle cx="117.7" cy="143.1" r="4.4"/></svg>