<svg xmlns="http://www.w3.org/2000/svg" viewBox="0 0 186.7 186.7" fill="#eef4fb" xmlns:v="https://vecta.io/nano"><path d="M132.2 58.2H52.3c-.8 0-1.4.6-1.4 1.4v54c0 .8.6 1.4 1.4 1.4h79.9c.8 0 1.4-.6 1.4-1.4v-54c0-.8-.6-1.4-1.4-1.4zm-76.4 52.7V62.3h73l-73 48.6zm37.6-97.1c-43.9 0-79.5 35.6-79.5 79.5s35.6 79.5 79.5 79.5 79.5-35.6 79.5-79.5-35.6-79.5-79.5-79.5zm48.8 99.8c0 5.5-4.5 10-10 10h-18.9c-3.9 0-4.3 1.9-4.3 3.4v6.2h11a4.23 4.23 0 0 1 4.2 4.2 4.23 4.23 0 0 1-4.2 4.2H64.5a4.23 4.23 0 0 1-4.2-4.2 4.23 4.23 0 0 1 4.2-4.2h11V127c0-1.5-.4-3.4-4.3-3.4H52.3c-5.5 0-10-4.5-10-10v-54c0-5.5 4.5-10 10-10h79.9c5.5 0 10 4.5 10 10v54z"/></svg>