<?xml version="1.0" encoding="utf-8"?>
<!-- Generator: Adobe Illustrator 18.1.1, SVG Export Plug-In . SVG Version: 6.00 Build 0)  -->
<svg version="1.1" id="Layer_4_copy" xmlns="http://www.w3.org/2000/svg" xmlns:xlink="http://www.w3.org/1999/xlink" x="0px"
	 y="0px" viewBox="0 0 186.7 186.7" enable-background="new 0 0 186.7 186.7" xml:space="preserve">
<g>
	<rect x="0" y="0" fill="none" width="186.7" height="186.7"/>
	<g>
		<path fill="#EEF4FB" d="M132.2,58.2H52.3c-0.8,0-1.4,0.6-1.4,1.4v54c0,0.8,0.6,1.4,1.4,1.4h79.9c0.8,0,1.4-0.6,1.4-1.4v-54
			C133.6,58.8,133,58.2,132.2,58.2z M55.8,110.9V62.3h73L55.8,110.9z"/>
		<path fill="#EEF4FB" d="M93.4,13.8c-43.9,0-79.5,35.6-79.5,79.5c0,43.9,35.6,79.5,79.5,79.5s79.5-35.6,79.5-79.5
			C172.9,49.4,137.3,13.8,93.4,13.8z M142.2,113.6c0,5.5-4.5,10-10,10h-18.9c-3.9,0-4.3,1.9-4.3,3.4v6.2h11c2.3,0,4.2,1.9,4.2,4.2
			c0,2.3-1.9,4.2-4.2,4.2H64.5c-2.3,0-4.2-1.9-4.2-4.2c0-2.3,1.9-4.2,4.2-4.2h11V127c0-1.5-0.4-3.4-4.3-3.4H52.3
			c-5.5,0-10-4.5-10-10v-54c0-5.5,4.5-10,10-10h79.9c5.5,0,10,4.5,10,10V113.6z"/>
	</g>
</g>
</svg>
