<?xml version="1.0" encoding="utf-8"?>
<!-- Generator: Adobe Illustrator 18.1.1, SVG Export Plug-In . SVG Version: 6.00 Build 0)  -->
<svg version="1.1" id="Layer_4_copy" xmlns="http://www.w3.org/2000/svg" xmlns:xlink="http://www.w3.org/1999/xlink" x="0px"
	 y="0px" viewBox="0 0 186.7 186.7" enable-background="new 0 0 186.7 186.7" xml:space="preserve">
<g>
	<rect x="0" y="0" fill="none" width="186.7" height="186.7"/>
	<path fill="#EEF4FB" d="M93.4,13.8c-43.9,0-79.5,35.6-79.5,79.5c0,43.9,35.6,79.5,79.5,79.5c43.9,0,79.5-35.6,79.5-79.5
		C172.9,49.4,137.3,13.8,93.4,13.8z M107.1,37c0,0,16.8,10.2,6.3,26.2c-5.6,8.5-0.8,17-0.8,17c-4.7-2-6.6-9.2-6.5-13.8
		c0.1-5.5,4.8-8.9,6.2-14C114,46.6,111.1,41.2,107.1,37z M88.3,37c0,0,16.8,10.2,6.3,26.2c-5.6,8.5-0.8,17-0.8,17
		c-4.7-2-6.6-9.2-6.5-13.8c0.1-5.5,4.8-8.9,6.2-14C95.2,46.6,92.3,41.2,88.3,37z M69.6,37c0,0,16.8,10.2,6.3,26.2
		c-5.6,8.5-0.8,17-0.8,17c-4.7-2-6.6-9.2-6.5-13.8c0.1-5.5,4.8-8.9,6.2-14C76.4,46.6,73.5,41.2,69.6,37z M143.8,93.5
		c-1.9,1.1-4.2,1.8-5.6,3.3c-2.4,2.5-2.1,6-1.9,9.5c3.2-1.8,5.7-1.1,7.5,1.8c0,0.7,0,1.3,0,2c-0.9,1.9-2.3,3-4.3,3.6
		c-0.6,0.2-1.1,0.5-1.6,0.7c-1.4,0.3-1.8,1.2-1.7,2.6c0.1,3.3,0,6.6,0,9.9c0.2,8.9-3.8,15.7-10.7,20.8c-2.6,2-6,3-9,4.4
		c-15.6,0-31.1,0-46.7,0c-0.1-0.1-0.2-0.3-0.4-0.4c-10.5-2.7-16.8-9.8-18.9-20.1c-0.9-4.5-0.5-9.3-0.4-13.9c0-2-0.6-3-2.4-3.5
		c-2.2-0.7-4.3-1.6-5.3-3.9c0-0.5,0-1.1,0-1.6c1.7-3.3,2.5-3.5,7.5-2.5c0.2-3.2,0.5-6.6-1.8-9.1c-1.5-1.6-3.8-2.3-5.7-3.4
		c0-0.5,0-1.1,0-1.6c1.3-5.3,5-6.3,9.9-6.3c18.3,0.2,74.1,0.1,83.7,0c3.8,0,7,2,7.4,5.9c0,0.1,0.2,0.3,0.4,0.4
		C143.8,92.4,143.8,93,143.8,93.5z"/>
</g>
</svg>
