<svg xmlns="http://www.w3.org/2000/svg" viewBox="0 0 186.7 186.7" xmlns:v="https://vecta.io/nano"><path fill="#eef4fb" d="M93.4 13.8c-43.9 0-79.5 35.6-79.5 79.5s35.6 79.5 79.5 79.5 79.5-35.6 79.5-79.5-35.6-79.5-79.5-79.5zM107.1 37s16.8 10.2 6.3 26.2c-5.6 8.5-.8 17-.8 17-4.7-2-6.6-9.2-6.5-13.8.1-5.5 4.8-8.9 6.2-14 1.7-5.8-1.2-11.2-5.2-15.4zm-18.8 0s16.8 10.2 6.3 26.2c-5.6 8.5-.8 17-.8 17-4.7-2-6.6-9.2-6.5-13.8.1-5.5 4.8-8.9 6.2-14 1.7-5.8-1.2-11.2-5.2-15.4zm-18.7 0s16.8 10.2 6.3 26.2c-5.6 8.5-.8 17-.8 17-4.7-2-6.6-9.2-6.5-13.8.1-5.5 4.8-8.9 6.2-14 1.6-5.8-1.3-11.2-5.2-15.4zm74.2 56.5c-1.9 1.1-4.2 1.8-5.6 3.3-2.4 2.5-2.1 6-1.9 9.5 3.2-1.8 5.7-1.1 7.5 1.8v2c-.9 1.9-2.3 3-4.3 3.6-.6.2-1.1.5-1.6.7-1.4.3-1.8 1.2-1.7 2.6.1 3.3 0 6.6 0 9.9.2 8.9-3.8 15.7-10.7 20.8-2.6 2-6 3-9 4.4H69.8c-.1-.1-.2-.3-.4-.4-10.5-2.7-16.8-9.8-18.9-20.1-.9-4.5-.5-9.3-.4-13.9 0-2-.6-3-2.4-3.5-2.2-.7-4.3-1.6-5.3-3.9v-1.6c1.7-3.3 2.5-3.5 7.5-2.5.2-3.2.5-6.6-1.8-9.1-1.5-1.6-3.8-2.3-5.7-3.4v-1.6c1.3-5.3 5-6.3 9.9-6.3H136c3.8 0 7 2 7.4 5.9 0 .1.2.3.4.4v1.4z"/></svg>