<svg xmlns="http://www.w3.org/2000/svg" viewBox="0 0 186.7 186.7" fill="#eef4fb" xmlns:v="https://vecta.io/nano"><circle cx="122.4" cy="90.9" r="5.8"/><path d="M93.4 13.8c-43.9 0-79.5 35.6-79.5 79.5s35.6 79.5 79.5 79.5 79.5-35.6 79.5-79.5-35.6-79.5-79.5-79.5zm19 13.6a12.04 12.04 0 0 1 12 12 12.04 12.04 0 0 1-12 12 12.04 12.04 0 0 1-12-12 12.04 12.04 0 0 1 12-12zM85.6 44.9a13.87 13.87 0 0 1 13.9 13.9c0 2.4-.6 4.7-1.7 6.6-2.5-.3-5-.5-7.6-.5-5.3 0-10.6.7-15.7 2.1-1.7-2.3-2.8-5.2-2.8-8.3.1-7.5 6.3-13.8 13.9-13.8zm56.7 65.9l-12.4 11.7c-2.9 2.7-6.8 5.3-9.1 8.5-2.3 3.3-2.6 11.2-3.5 15.2-.5 2.1-2.6 3.7-4.7 3.7h-5.5c-2.1 0-4.8-1.5-5.9-3.3l-4.5-7.4c-2.1.2-4.3.4-6.5.4-3.9 0-7.7-.4-11.3-1.1l-1.8 7.6c-.5 2.1-2.6 3.7-4.7 3.7h-5.5c-2.1 0-4.8-1.5-5.9-3.3l-5.9-9.6c-.2-.4-.4-.8-.4-1.2-5.1-9.3-12.8-20.7-13.5-31.5-.1-1.3-.1-2.6-.1-3.9-2.1.4-4.3.2-6.3-.9-4.6-2.4-6.4-8.1-4-12.7a.76.76 0 0 0 .2-.4c.1 2.5 1.6 5 4 6.2 2.3 1.2 4.9 1.1 7-.1 1.8-8.1 6-15.5 12.2-21.1 4.4-3.9 9.5-6.9 14.9-9 .5 2.2 1.5 4.3 2.9 6.2l1.2 1.6 2-.6c4.8-1.3 9.9-2 14.9-2 2.3 0 4.8.2 7.2.5l2 .3 1-1.8c1.1-2.1 1.8-4.4 2-6.8 3.4.7 6.7 1.8 9.9 3 7.8-4 13.5-5.6 20-3.3 2.7 1 5.5 2.4 6.7 5.1.1.3.3.6.2.9-.1.4-.4.6-.7.9l-9.6 7.7c4.3 4.5 7.4 9.9 9 15.6.5-.1 1-.2 1.4-.2h5.1c2 0 3.6 1.6 3.6 3.6.2 8.1.3 12.3-5.6 17.8z"/></svg>