<?xml version="1.0" encoding="utf-8"?>
<!-- Generator: Adobe Illustrator 18.1.1, SVG Export Plug-In . SVG Version: 6.00 Build 0)  -->
<svg version="1.1" id="Layer_4_copy" xmlns="http://www.w3.org/2000/svg" xmlns:xlink="http://www.w3.org/1999/xlink" x="0px"
	 y="0px" viewBox="0 0 186.7 186.7" enable-background="new 0 0 186.7 186.7" xml:space="preserve">
<g>
	<rect x="0" y="0" fill="none" width="186.7" height="186.7"/>
	<g>
		<circle fill="#EEF4FB" cx="122.4" cy="90.9" r="5.8"/>
		<path fill="#EEF4FB" d="M93.4,13.8c-43.9,0-79.5,35.6-79.5,79.5c0,43.9,35.6,79.5,79.5,79.5c43.9,0,79.5-35.6,79.5-79.5
			C172.9,49.4,137.3,13.8,93.4,13.8z M112.4,27.4c6.6,0,12,5.4,12,12c0,6.6-5.4,12-12,12c-6.6,0-12-5.4-12-12
			C100.4,32.8,105.8,27.4,112.4,27.4z M85.6,44.9c7.7,0,13.9,6.2,13.9,13.9c0,2.4-0.6,4.7-1.7,6.6c-2.5-0.3-5-0.5-7.6-0.5
			c-5.3,0-10.6,0.7-15.7,2.1c-1.7-2.3-2.8-5.2-2.8-8.3C71.8,51.2,78,44.9,85.6,44.9z M142.3,110.8c-4.1,3.9-8.3,7.8-12.4,11.7
			c-2.9,2.7-6.8,5.3-9.1,8.5c-2.3,3.3-2.6,11.2-3.5,15.2c-0.5,2.1-2.6,3.7-4.7,3.7h-5.5c-2.1,0-4.8-1.5-5.9-3.3l-4.5-7.4
			c-2.1,0.2-4.3,0.4-6.5,0.4c-3.9,0-7.7-0.4-11.3-1.1l-1.8,7.6c-0.5,2.1-2.6,3.7-4.7,3.7h-5.5c-2.1,0-4.8-1.5-5.9-3.3l-5.9-9.6
			c-0.2-0.4-0.4-0.8-0.4-1.2c-5.1-9.3-12.8-20.7-13.5-31.5c-0.1-1.3-0.1-2.6-0.1-3.9c-2.1,0.4-4.3,0.2-6.3-0.9
			c-4.6-2.4-6.4-8.1-4-12.7c0.1-0.1,0.2-0.3,0.2-0.4c0.1,2.5,1.6,5,4,6.2c2.3,1.2,4.9,1.1,7-0.1c1.8-8.1,6-15.5,12.2-21.1
			c4.4-3.9,9.5-6.9,14.9-9c0.5,2.2,1.5,4.3,2.9,6.2l1.2,1.6l2-0.6c4.8-1.3,9.9-2,14.9-2c2.3,0,4.8,0.2,7.2,0.5l2,0.3l1-1.8
			c1.1-2.1,1.8-4.4,2-6.8c3.4,0.7,6.7,1.8,9.9,3c7.8-4,13.5-5.6,20-3.3c2.7,1,5.5,2.4,6.7,5.1c0.1,0.3,0.3,0.6,0.2,0.9
			c-0.1,0.4-0.4,0.6-0.7,0.9c-3.2,2.6-6.4,5.1-9.6,7.7c4.3,4.5,7.4,9.9,9,15.6c0.5-0.1,1-0.2,1.4-0.2h5.1c2,0,3.6,1.6,3.6,3.6
			C148.1,101.1,148.2,105.3,142.3,110.8z"/>
	</g>
</g>
</svg>
