<svg xmlns="http://www.w3.org/2000/svg" viewBox="0 0 186.9 187.2" xmlns:v="https://vecta.io/nano"><path fill="#eef3fa" d="M93.6 13.8c-44 0-79.6 35.6-79.6 79.6 0 43.9 35.6 79.5 79.5 79.5S173 137.3 173 93.4c.1-44-35.5-79.6-79.4-79.6zm37.3 15.1c.1 5.4.4 10.9-1.3 16.2-2.1 6.5-6.6 11-12.4 14.3-1.6.9-3.3 1.7-5.1 2.4-5.6 2.4-11.2 4.8-15.8 9.4-1.3-22.2 10.5-39 34.6-42.3zm2.7 101.6c-3 6.2-7 11.7-12.2 16.2-5.6 4.8-11.8 5.8-18.6 3.1l-4.5-1.8c-3.3-1.5-6.4-1.4-9.7 0-2.7 1.1-5.5 2.1-8.3 2.9-4.8 1.3-9.1.1-13.1-2.8-5.1-3.7-8.8-8.5-11.9-13.9-6.4-11.2-9.9-23.1-9.4-36.1.5-11.9 5.1-21.7 15.7-27.9 5-2.9 10.4-4.6 16.2-2.8 2.8.8 5.4 2.4 8 3.7 2 1 4 2 6.3 2.1-2-6.5-6.8-14.5-23.7-23.1l5.4-8.1c5.4 4.1 9.9 8.7 13.8 13.8 3.9 5.2 6.1 11.2 8 17.7l6.4-2.9c2.8-1.2 5.6-2.7 8.6-3.4 4.5-1.1 8.8.2 12.8 2.2 9.8 4.9 15.3 13 16.9 23.7 2.1 13.1-.9 25.5-6.7 37.4z"/></svg>