<?xml version="1.0" encoding="utf-8"?>
<!-- Generator: Adobe Illustrator 18.1.1, SVG Export Plug-In . SVG Version: 6.00 Build 0)  -->
<svg version="1.1" id="Layer_4_copy" xmlns="http://www.w3.org/2000/svg" xmlns:xlink="http://www.w3.org/1999/xlink" x="0px"
	 y="0px" viewBox="0 0 186.7 186.7" enable-background="new 0 0 186.7 186.7" xml:space="preserve">
<g>
	<rect x="0" y="0" fill="none" width="186.7" height="186.7"/>
	<g>
		<path fill="#EEF4FB" d="M93.4,72.7c-11.4,0-20.7,9.3-20.7,20.7s9.3,20.7,20.7,20.7c11.4,0,20.7-9.3,20.7-20.7
			S104.8,72.7,93.4,72.7z M93.4,110.3c-9.3,0-16.9-7.6-16.9-16.9s7.6-16.9,16.9-16.9s16.9,7.6,16.9,16.9S102.7,110.3,93.4,110.3z"/>
		<path fill="#EEF4FB" d="M93.4,13.8c-43.9,0-79.5,35.6-79.5,79.5c0,43.9,35.6,79.5,79.5,79.5c43.9,0,79.5-35.6,79.5-79.5
			C172.9,49.4,137.3,13.8,93.4,13.8z M146.3,117c-4.7-0.6-9.5-1.2-14.3-1.7c-2.5,4.3-5.5,8.1-9.2,11.4c-0.3,0.2-0.3,0.9-0.2,1.3
			c0.6,2,1.3,4.1,2,6.1c0.8,2.3,1.6,4.6,2.4,6.9c-4.3,2.3-8.6,4.6-12.9,6.9c-0.1-0.2-0.1-0.4-0.2-0.5c-2.7-3.6-5.5-7.1-8.3-10.7
			c-0.2-0.2-0.8-0.4-1.1-0.3c-4.4,1.1-8.9,1.6-13.5,1.3c-0.7,0-1,0.2-1.3,0.8c-1,2.1-2.1,4.2-3.2,6.3c-1,2-2,3.9-2.9,5.8
			c-4.7-1.4-9.2-2.8-13.8-4.2c0.6-4.3,1.1-8.8,1.7-13.3c0.1-0.8-0.1-1.2-0.8-1.6c-3.8-2.3-7.3-5-10.2-8.4c-0.5-0.6-1-0.6-1.7-0.4
			c-1.9,0.7-3.9,1.3-5.9,1.9c-2.3,0.8-4.7,1.6-7,2.4c-2.3-4.3-4.6-8.6-6.9-12.9c0.1,0,0.2,0,0.2-0.1c3.7-2.8,7.4-5.6,11-8.5
			c0.2-0.2,0.3-0.7,0.2-1c-1.2-4.5-1.6-9.1-1.4-13.7c0-0.4-0.3-0.9-0.6-1.1c-1.6-0.9-3.3-1.7-5-2.6c-2.4-1.2-4.9-2.5-7.2-3.6
			c1.4-4.7,2.8-9.2,4.2-13.8c4.3,0.6,8.8,1.1,13.2,1.7c0.9,0.1,1.3,0,1.8-0.8c2.2-3.8,5-7.1,8.2-10c0.7-0.6,0.7-1.1,0.5-1.8
			c-0.8-2.1-1.5-4.3-2.2-6.5c-0.7-2.1-1.5-4.1-2.3-6.2c4.3-2.3,8.6-4.6,12.9-6.9c0.1,0.2,0.2,0.4,0.3,0.6c2.7,3.5,5.4,7,8.2,10.4
			c0.2,0.3,0.8,0.4,1.2,0.3c1.3-0.2,2.5-0.6,3.7-0.8c3.5-0.3,7.1-0.6,10.8-0.8c2-4.1,4.1-8.4,6.2-12.7c4.6,1.4,9.2,2.8,13.8,4.2
			c0,0.4-0.1,0.9-0.2,1.4c-0.5,4-0.9,8-1.5,11.9c-0.1,0.9,0.1,1.3,0.8,1.7c3.8,2.2,7.2,5,10.1,8.3c0.6,0.6,1.1,0.7,1.8,0.5
			c2.1-0.8,4.3-1.5,6.5-2.2c2.1-0.7,4.1-1.5,6.2-2.3c2.3,4.3,4.6,8.6,6.9,12.9c-0.1,0-0.2,0.1-0.3,0.1c-3.6,2.8-7.2,5.6-10.8,8.5
			c-0.2,0.2-0.4,0.7-0.3,1.1c1.2,4.5,1.6,9.1,1.3,13.7c0,0.6,0.2,0.9,0.8,1.2c1.1,0.5,2.2,1,3.2,1.6c3,1.5,6,3,8.9,4.4
			C149.1,107.8,147.7,112.4,146.3,117z"/>
		<path fill="#EEF4FB" d="M93.4,85.3c-4.4,0-8,3.6-8,8c0,4.4,3.6,8,8,8s8-3.6,8-8C101.4,88.9,97.8,85.3,93.4,85.3z"/>
	</g>
</g>
</svg>
