<svg xmlns="http://www.w3.org/2000/svg" viewBox="0 0 186.7 186.7" fill="#eef4fb" xmlns:v="https://vecta.io/nano"><path d="M93.4 72.7C82 72.7 72.7 82 72.7 93.4s9.3 20.7 20.7 20.7 20.7-9.3 20.7-20.7-9.3-20.7-20.7-20.7zm0 37.6c-9.3 0-16.9-7.6-16.9-16.9s7.6-16.9 16.9-16.9 16.9 7.6 16.9 16.9-7.6 16.9-16.9 16.9zm0-96.5c-43.9 0-79.5 35.6-79.5 79.5s35.6 79.5 79.5 79.5 79.5-35.6 79.5-79.5-35.6-79.5-79.5-79.5zM146.3 117l-14.3-1.7c-2.5 4.3-5.5 8.1-9.2 11.4-.3.2-.3.9-.2 1.3.6 2 1.3 4.1 2 6.1l2.4 6.9-12.9 6.9c-.1-.2-.1-.4-.2-.5-2.7-3.6-5.5-7.1-8.3-10.7-.2-.2-.8-.4-1.1-.3-4.4 1.1-8.9 1.6-13.5 1.3-.7 0-1 .2-1.3.8-1 2.1-2.1 4.2-3.2 6.3l-2.9 5.8-13.8-4.2 1.7-13.3c.1-.8-.1-1.2-.8-1.6-3.8-2.3-7.3-5-10.2-8.4-.5-.6-1-.6-1.7-.4-1.9.7-3.9 1.3-5.9 1.9l-7 2.4-6.9-12.9c.1 0 .2 0 .2-.1l11-8.5c.2-.2.3-.7.2-1-1.2-4.5-1.6-9.1-1.4-13.7 0-.4-.3-.9-.6-1.1-1.6-.9-3.3-1.7-5-2.6l-7.2-3.6 4.2-13.8 13.2 1.7c.9.1 1.3 0 1.8-.8 2.2-3.8 5-7.1 8.2-10 .7-.6.7-1.1.5-1.8-.8-2.1-1.5-4.3-2.2-6.5-.7-2.1-1.5-4.1-2.3-6.2l12.9-6.9.3.6L81 50.2c.2.3.8.4 1.2.3 1.3-.2 2.5-.6 3.7-.8l10.8-.8 6.2-12.7 13.8 4.2c0 .4-.1.9-.2 1.4L115 53.7c-.1.9.1 1.3.8 1.7 3.8 2.2 7.2 5 10.1 8.3.6.6 1.1.7 1.8.5 2.1-.8 4.3-1.5 6.5-2.2 2.1-.7 4.1-1.5 6.2-2.3l6.9 12.9c-.1 0-.2.1-.3.1l-10.8 8.5c-.2.2-.4.7-.3 1.1 1.2 4.5 1.6 9.1 1.3 13.7 0 .6.2.9.8 1.2 1.1.5 2.2 1 3.2 1.6l8.9 4.4c-1 4.6-2.4 9.2-3.8 13.8zM93.4 85.3c-4.4 0-8 3.6-8 8s3.6 8 8 8 8-3.6 8-8-3.6-8-8-8z"/></svg>