<svg xmlns="http://www.w3.org/2000/svg" viewBox="0 0 186.9 187.2" fill="#eff4fb" xmlns:v="https://vecta.io/nano"><path d="M97.4 77.6c-.2-.3-.6-.5-1.2-.6h-2.5c-1.1 0-2.3.1-3.6.2-1.2.1-2.2.3-3 .5-.7.2-1.1.6-1 1.3 0 .7.1 1.1.2 1.3a1.38 1.38 0 0 0 .3.4c.1.1.2 1 .2 2.6 0 1.7-.1 2.8-.3 3.4s-.2 1.3.1 2.3l-.2 5.6v1.1c.1 1.3.3 2.2.6 2.5s.9.5 1.6.5c.7.1 1.7.1 2.9 0h2.1c1.1 0 1.9-.1 2.5-.3.8-.3 1.2-.8 1.2-1.3 0-.2 0-.5-.1-.8s-.2-.5-.4-.7-.4-.3-.8-.3-.8.1-1 .2c-.3.1-1.2.2-2.6.2-1.4.1-2.3 0-2.6-.1s-.4-.4-.5-.8v-2.2l.1-2.1c0-.3.1-.9.1-1.5h1.7H93c.6 0 1-.1 1.4-.2.3-.1.5-.7.4-1.7-.1-.3-.3-.6-.5-.7-.4-.3-1.7-.4-3.9-.4h-.8v-2.3-2.3-1.2c.8-.3 2.5-.5 5.3-.4.2 0 .6.1 1 .1h1c.3-.1.5-.2.6-.5.1-.2.2-.6.1-1 .1-.1 0-.4-.2-.8zm-14-.9h-.3c-.2 0-.4.1-.6.2-.2.2-.4.4-.5.8l-.8 2.6-1 2.5-1.4 3.2-.9-1.5c-.4-.6-.8-1.3-1.2-2.1l-1.2-2.2-1-1.8-.1-.2c-.2-.3-.3-.6-.5-.9-.2-.2-.4-.4-.7-.5-.1 0-.3 0-.4.1-.2 0-.3.1-.5.2-.6.4-.8.9-.8 1.4 0 .3.1.7.3 1.1l.5 1a9.13 9.13 0 0 0 .8 1.3c.2.5.5.9.7 1.2.2.4.4.6.4.8l2.9 5.3-3.3 6.6-.1.1a1.93 1.93 0 0 0-.3 1c0 .4.1.7.3.9s.5.4.7.6c.1 0 .2.1.4.1.5 0 .9-.2 1.1-.6s.5-.8.6-1.2l3.8-7.7 1-2.1 1-2.3.9-2.3.9-2.1.2-.5c.1-.2.1-.4.1-.6s.1-.5.1-.6v-.1c0-.4-.1-.8-.2-1.1.1-.2-.3-.4-.9-.6zm29.1 11c-.9-1.1-2.5-2-4.7-2.5l-3.3-.7c-1.3-.3-2.1-.8-2.3-1.6-.1-1.3.3-2.3 1.3-2.7.8-.4 1.7-.6 2.7-.6 1.2 0 1.9.3 2.2.9.3.7 1 .9 2.3.6.9-.3 1.4-.9 1.4-1.7 0-.7-.6-1.3-1.7-1.9-1-.5-2.2-.8-3.8-.9-2.5 0-4.4.6-5.7 1.8-1.2 1.1-1.8 2.6-1.8 4.4.1 1.7.7 2.8 1.9 3.4 1 .5 2.2 1 3.9 1.3l2.2.5c.9.2 1.5.4 2 .6s.8.5 1 .8c.3.3.5.7.6 1 .1.4.2.7.2 1.1 0 .3 0 .6-.1.9s-.1.6-.2.9l-.6 1.1c-.2.3-.5.6-.8.9-.6.4-1.5.6-2.9.6h-.4-.5l-1.1-.2c-.5-.2-1-.3-1.3-.5-.5-.4-.8-.8-.8-1.1v-1.3c0-.5-.2-1-.5-1.2-.4-.3-.7-.4-1.1-.5-1.2 0-1.9.6-2 2 0 1.3.5 2.4 1.5 3.5s2.4 1.7 4.3 1.9c3.2.3 5.4-.1 6.8-1.1 1.1-.8 1.9-1.9 2.4-3.2.3-.8.4-1.7.5-2.7v-1c-.5-.9-.9-1.9-1.6-2.8zm4.5 4.6c1.1.2 1.7 0 1.8-.8l.1-14.3c0-.4-.2-.8-.7-1.1-.4-.3-.9-.4-1.5-.3-.6.2-.9.6-.9 1.5v10.5c0 .4 0 1.4-.2 2.9 0 .8.5 1.3 1.4 1.6zm1.5 3c-.1-.1-.3-.2-.5-.2-.6-.1-1.1-.1-1.5.1-.5.2-.7.6-.9 1.5-.1.6-.1 1.1.2 1.4.2.2.4.5.6.6.6.3 1.2.3 1.7.2.6-.2.9-.7 1-1.6.1-.6 0-1-.3-1.4-.1-.4-.2-.5-.3-.6zM93.6 13.8c-44 0-79.6 35.6-79.6 79.6 0 43.9 35.6 79.5 79.5 79.5S173 137.3 173 93.4c.1-44-35.5-79.6-79.4-79.6zm1.6 116.8c-5 0-10-.6-14.6-1.8-7.6 9.3-18.4 11.6-18.4 11.6 3.1-6.8 4.4-12.4 4.8-17-14.2-7.6-23.5-21-23.5-36.2C43.5 63.4 66.7 44 95.2 44s51.6 19.4 51.6 43.3-23.2 43.3-51.6 43.3z"/></svg>