<svg xmlns="http://www.w3.org/2000/svg" viewBox="0 0 186.7 186.7" fill="#eff4fb" xmlns:v="https://vecta.io/nano"><path d="M66.7 77.1c-.1-.3-.7-.5-1.7-.6s-2.2-.1-3.4-.1c-2.6 0-5 .3-7.2.9-.6.2-.9.4-1.2.6-.2.2-.3.5-.3.9.1.7.3 1.1.6 1.4.3.2 1 .2 2.2-.1 1.1-.3 2.2-.4 3.2-.5v.9 4.6 4.1l-.1 4.6-.1 2.5c.1 1.3.7 1.9 1.6 1.7.8-.1 1.4-.4 1.7-1 .2-.6.2-1.2 0-1.7-.2-.6-.2-2.1-.2-4.5v-3.7-4.5-2.4-.8h1.4c.6 0 1.2.1 1.8.1.7.1 1.1.1 1.4 0s.4-.2.5-.4.1-.5 0-1c.1-.3 0-.7-.2-1zm49 13.7c-.2 0-.5.2-.6.4-.2.2-.3.6-.5 1.1-.1.5-.3.9-.5 1.2s-.5.6-1 1c-.3.2-.6.4-.9.4-.3.1-.5.1-.6.1h-.4-.4c-.7 0-1.3-.1-1.8-.2-.6-.2-1-.4-1.3-.6-.3-.3-.6-.6-.8-.9-.3-.3-.5-.7-.6-1-.2-.5-.3-.9-.4-1.4-.1-.4-.1-.8-.2-1.2v-.8l.1-3c.1-1 .3-1.9.5-2.7a5.96 5.96 0 0 1 1.5-2.6c.7-.6 1.5-1 2.4-1.1 1-.1 1.7 0 2.1.3.3.2.5.6.5 1 .1.7.3 1.2.6 1.5.4.4.8.6 1.2.6s.8 0 1.1-.2c.6-.3.9-.8.9-1.4 0-.5-.1-1.1-.5-1.8-.4-.9-1-1.7-2-2.3s-2.3-.8-4.2-.6c-3.3.3-5.4 2.3-6.6 5.8-.7 2.3-.9 4.8-.7 7.5 0 1 .3 2.2.7 3.4.6 1.4 1.4 2.5 2.5 3.2 1.3 1.1 3.3 1.5 5.8 1.4 1.9-.2 3.5-.9 4.7-2.2s1.6-2.6 1.1-4c0-.7-.6-1.1-1.7-.9zm-14.9 1.4l-1-4.5-1.2-5-1.4-4.9c-.2-1.1-1-1.6-2.3-1.4-.5 0-.9.3-1.3.8-.3.4-.6 1-.9 1.9-1.4 3.7-2.6 7.2-3.6 10.7-.4 1.5-.8 2.9-1 4.2-.3 1.2-.5 2.2-.5 2.9s.4 1.1 1.2 1.2c.6 0 1.1-.1 1.4-.2.3-.2.5-.7.7-1.5l.7-4 .1-.2v-.1-.1-.1c.2 0 .5-.1.8-.1l2.2-.2c1.3-.1 2.3-.2 2.9-.2.1.7.3 1.3.5 2 .2 1 .3 1.7.3 2.2-.2 1.3-.1 2.1.5 2.5.2.1.7.2 1.4.2s1.1-.2 1.4-.6c.2-.3.2-.8 0-1.7-.3-1.1-.5-2.3-.9-3.8zm-5.1-3.6c-.8.1-1.5.1-2 .2-.5 0-.9.1-1.1.1h-.2c.2-.9.5-1.9.8-2.7.2-.6.4-1.1.6-1.7.2-.7.6-1.8 1.2-3.3.4 1.5.8 2.7 1 3.6a43.24 43.24 0 0 0 .6 2.8c.1.3.2.7.2 1-.3-.1-.7 0-1.1 0zm-9.9 6.3c-.2-.3-.5-.4-1-.4s-1 .2-1.4.3c-.4.2-1.3.3-2.6.3s-2.1 0-2.3-.1-.4-.4-.4-.8v-4.7l.1-6.4c0-1.4.1-2.6.2-3.4.2-1.2.2-2 .1-2.3s-.2-.6-.4-.7c-.1-.1-.3-.2-.5-.2h-.7c-.5 0-.8 0-1 .1s-.4.2-.6.4c-.1.2-.2.6-.1 1.2l.1 2.4c0 .5-.1 4.6-.2 12.4-.1 1-.1 1.7-.2 2.1-.1 1.2 0 2 .4 2.4.3.4 1.2.6 2.4.6H81h1.5c1.1 0 1.9-.1 2.5-.3.8-.3 1.2-.8 1.2-1.3 0-.2 0-.5-.1-.8-.1-.4-.2-.6-.3-.8zM71.1 75.3c-.7-.2-1.3-.1-1.8.2s-.6.8-.3 1.5c.2.8.2 1.6-.1 2.3-.2.5-.4.8-.5 1.2l-.3 1c-.1.6.1 1 .6 1.1s.9.1 1.2.1c.3-.1.6-.2.8-.5.3-.3.5-.7.8-1.2l.6-1.7c.1-.5.2-1.3.2-2.2 0-.6-.1-1-.3-1.2-.2-.3-.5-.5-.9-.6zm65.6 16.3c1.1.2 1.7 0 1.8-.8l.1-14.3c0-.4-.3-.8-.7-1.1s-.9-.4-1.5-.3-.9.7-.9 1.5v10.5c0 .4 0 1.4-.2 2.9 0 .9.4 1.4 1.4 1.6zM93.4 13.8c-43.9 0-79.5 35.6-79.5 79.5s35.6 79.5 79.5 79.5 79.5-35.6 79.5-79.5-35.6-79.5-79.5-79.5zm29.7 109.7c.4 4.6 1.7 10.1 4.8 17 0 0-10.8-2.4-18.4-11.6-4.6 1.2-9.5 1.8-14.6 1.8-28.4 0-51.6-19.4-51.6-43.3C43.3 63.4 66.4 44 95 44c28.5 0 51.6 19.4 51.6 43.3 0 15.2-9.3 28.6-23.5 36.2zM136 97.9c.6.3 1.2.3 1.7.1.6-.2.9-.7 1-1.6.1-.6 0-1.1-.3-1.4-.1-.1-.2-.3-.3-.4s-.3-.2-.5-.2c-.6-.1-1.1-.1-1.5.1-.5.2-.7.7-.9 1.5-.1.7-.1 1.1.2 1.4s.4.4.6.5zm-5.2-21.6c-.8 0-1.2.2-1.4.6-.1.2-.1.5-.2.9s-.1 1.6-.2 3.4l-.2 3.3v1.2h-1c-.3 0-.8 0-1.3.1-.6 0-1.1.1-1.6.1-.5.1-.9.1-1.1.1h-.5v-.6-1.1-1.5-1-3.5-1.2c0-.7-.6-1.1-1.8-1-.8 0-1.2.4-1.3 1.2l.1 2.1c.2 1.7.2 3.9.1 6.8 0 .8-.1 1.7-.2 2.5s-.1 2.3-.2 4.2c-.1 2-.1 3.3 0 4.1s.5 1.1 1.3 1.1c1 0 1.5-.3 1.5-1 0-.9.1-1.6.1-1.9v-2l.1-2.8c0-.8.1-1.2.1-1.4.3-.1.8-.2 1.6-.2l1.3-.1c1.2-.1 2.2-.1 3-.1v1.3 2.5l.1 3.4c-.2.7-.1 1.2.1 1.7.2.3.5.5 1 .6s1 0 1.5-.3c.5-.2.6-1 .4-2.3L132 88l.1-4.4.4-4.2c.2-2-.3-3.1-1.7-3.1z"/></svg>