<?xml version="1.0" encoding="utf-8"?>
<!-- Generator: Adobe Illustrator 18.1.1, SVG Export Plug-In . SVG Version: 6.00 Build 0)  -->
<svg version="1.1" id="margin" xmlns="http://www.w3.org/2000/svg" xmlns:xlink="http://www.w3.org/1999/xlink" x="0px" y="0px"
	 viewBox="0 0 186.7 186.7" enable-background="new 0 0 186.7 186.7" xml:space="preserve">
<rect x="0" y="0" fill="none" width="186.7" height="186.7"/>
<g>
	<path fill="#EFF4FB" d="M66.7,77.1c-0.1-0.3-0.7-0.5-1.7-0.6c-1-0.1-2.2-0.1-3.4-0.1c-2.6,0-5,0.3-7.2,0.9
		c-0.6,0.2-0.9,0.4-1.2,0.6c-0.2,0.2-0.3,0.5-0.3,0.9c0.1,0.7,0.3,1.1,0.6,1.4c0.3,0.2,1,0.2,2.2-0.1c1.1-0.3,2.2-0.4,3.2-0.5
		c0,0.3,0,0.6,0,0.9c0,2,0,3.6,0,4.6c0,1.1,0,2.4,0,4.1c0,1.6,0,3.2-0.1,4.6c0,0.8,0,1.6-0.1,2.5c0.1,1.3,0.7,1.9,1.6,1.7
		c0.8-0.1,1.4-0.4,1.7-1c0.2-0.6,0.2-1.2,0-1.7c-0.2-0.6-0.2-2.1-0.2-4.5c0-0.8,0-2.1,0-3.7c0-1.7,0-3.2,0-4.5c0-1.3,0-2.1,0-2.4
		c0-0.3,0-0.5,0-0.8c0.4,0,0.9,0,1.4,0c0.6,0,1.2,0.1,1.8,0.1c0.7,0.1,1.1,0.1,1.4,0c0.3-0.1,0.4-0.2,0.5-0.4c0.1-0.2,0.1-0.5,0-1
		C67,77.8,66.9,77.4,66.7,77.1z"/>
	<path fill="#EFF4FB" d="M115.7,90.8c-0.2,0-0.5,0.2-0.6,0.4c-0.2,0.2-0.3,0.6-0.5,1.1c-0.1,0.5-0.3,0.9-0.5,1.2
		c-0.2,0.3-0.5,0.6-1,1c-0.3,0.2-0.6,0.4-0.9,0.4c-0.3,0.1-0.5,0.1-0.6,0.1c-0.1,0-0.2,0-0.4,0c-0.1,0-0.2,0-0.4,0
		c-0.7,0-1.3-0.1-1.8-0.2c-0.6-0.2-1-0.4-1.3-0.6c-0.3-0.3-0.6-0.6-0.8-0.9c-0.3-0.3-0.5-0.7-0.6-1c-0.2-0.5-0.3-0.9-0.4-1.4
		c-0.1-0.4-0.1-0.8-0.2-1.2v-0.8c0-1.1,0-2.1,0.1-3c0.1-1,0.3-1.9,0.5-2.7c0.3-1.1,0.9-2,1.5-2.6c0.7-0.6,1.5-1,2.4-1.1
		c1-0.1,1.7,0,2.1,0.3c0.3,0.2,0.5,0.6,0.5,1c0.1,0.7,0.3,1.2,0.6,1.5c0.4,0.4,0.8,0.6,1.2,0.6c0.4,0,0.8,0,1.1-0.2
		c0.6-0.3,0.9-0.8,0.9-1.4c0-0.5-0.1-1.1-0.5-1.8c-0.4-0.9-1-1.7-2-2.3s-2.3-0.8-4.2-0.6c-3.3,0.3-5.4,2.3-6.6,5.8
		c-0.7,2.3-0.9,4.8-0.7,7.5c0,1,0.3,2.2,0.7,3.4c0.6,1.4,1.4,2.5,2.5,3.2c1.3,1.1,3.3,1.5,5.8,1.4c1.9-0.2,3.5-0.9,4.7-2.2
		s1.6-2.6,1.1-4C117.4,91,116.8,90.6,115.7,90.8z"/>
	<path fill="#EFF4FB" d="M100.8,92.2c-0.3-1.5-0.7-3-1-4.5c-0.5-2-0.9-3.7-1.2-5c-0.4-1.3-0.8-2.9-1.4-4.9c-0.2-1.1-1-1.6-2.3-1.4
		c-0.5,0-0.9,0.3-1.3,0.8c-0.3,0.4-0.6,1-0.9,1.9c-1.4,3.7-2.6,7.2-3.6,10.7c-0.4,1.5-0.8,2.9-1,4.2c-0.3,1.2-0.5,2.2-0.5,2.9
		c0,0.7,0.4,1.1,1.2,1.2c0.6,0,1.1-0.1,1.4-0.2c0.3-0.2,0.5-0.7,0.7-1.5c0.3-1.8,0.5-3.1,0.7-4l0.1-0.2c0,0,0-0.1,0-0.1
		c0,0,0-0.1,0-0.1c0,0,0-0.1,0-0.1c0.2,0,0.5-0.1,0.8-0.1l2.2-0.2c1.3-0.1,2.3-0.2,2.9-0.2c0.1,0.7,0.3,1.3,0.5,2
		c0.2,1,0.3,1.7,0.3,2.2c-0.2,1.3-0.1,2.1,0.5,2.5c0.2,0.1,0.7,0.2,1.4,0.2c0.7,0,1.1-0.2,1.4-0.6c0.2-0.3,0.2-0.8,0-1.7
		C101.4,94.9,101.2,93.7,100.8,92.2z M95.7,88.6c-0.8,0.1-1.5,0.1-2,0.2c-0.5,0-0.9,0.1-1.1,0.1c-0.1,0-0.1,0-0.2,0
		c0.2-0.9,0.5-1.9,0.8-2.7c0.2-0.6,0.4-1.1,0.6-1.7c0.2-0.7,0.6-1.8,1.2-3.3c0.4,1.5,0.8,2.7,1,3.6c0.2,1.1,0.4,2,0.6,2.8
		c0.1,0.3,0.2,0.7,0.2,1C96.5,88.5,96.1,88.6,95.7,88.6z"/>
	<path fill="#EFF4FB" d="M85.8,94.9c-0.2-0.3-0.5-0.4-1-0.4c-0.5,0-1,0.2-1.4,0.3c-0.4,0.2-1.3,0.3-2.6,0.3c-1.3,0-2.1,0-2.3-0.1
		c-0.2-0.1-0.4-0.4-0.4-0.8c0-0.5,0-2.1,0-4.7c0.1-3.6,0.1-5.8,0.1-6.4c0-1.4,0.1-2.6,0.2-3.4c0.2-1.2,0.2-2,0.1-2.3
		c-0.1-0.3-0.2-0.6-0.4-0.7c-0.1-0.1-0.3-0.2-0.5-0.2c-0.2,0-0.5,0-0.7,0c-0.5,0-0.8,0-1,0.1c-0.2,0.1-0.4,0.2-0.6,0.4
		c-0.1,0.2-0.2,0.6-0.1,1.2c0,1,0.1,1.8,0.1,2.4c0,0.5-0.1,4.6-0.2,12.4c-0.1,1-0.1,1.7-0.2,2.1c-0.1,1.2,0,2,0.4,2.4
		c0.3,0.4,1.2,0.6,2.4,0.6s2.4,0,3.3,0c0.9,0,1.4,0,1.5,0c1.1,0,1.9-0.1,2.5-0.3c0.8-0.3,1.2-0.8,1.2-1.3c0-0.2,0-0.5-0.1-0.8
		C86,95.3,85.9,95.1,85.8,94.9z"/>
	<path fill="#EFF4FB" d="M71.1,75.3c-0.7-0.2-1.3-0.1-1.8,0.2s-0.6,0.8-0.3,1.5c0.2,0.8,0.2,1.6-0.1,2.3c-0.2,0.5-0.4,0.8-0.5,1.2
		c-0.1,0.3-0.2,0.7-0.3,1c-0.1,0.6,0.1,1,0.6,1.1c0.5,0.1,0.9,0.1,1.2,0.1c0.3-0.1,0.6-0.2,0.8-0.5c0.3-0.3,0.5-0.7,0.8-1.2
		c0.2-0.6,0.4-1.2,0.6-1.7c0.1-0.5,0.2-1.3,0.2-2.2c0-0.6-0.1-1-0.3-1.2C71.8,75.6,71.5,75.4,71.1,75.3z"/>
	<path fill="#EFF4FB" d="M136.7,91.6c1.1,0.2,1.7,0,1.8-0.8l0.1-14.3c0-0.4-0.3-0.8-0.7-1.1c-0.4-0.3-0.9-0.4-1.5-0.3
		c-0.6,0.1-0.9,0.7-0.9,1.5l0,10.5c0,0.4,0,1.4-0.2,2.9C135.3,90.9,135.7,91.4,136.7,91.6z"/>
	<path fill="#EFF4FB" d="M93.4,13.8c-43.9,0-79.5,35.6-79.5,79.5c0,43.9,35.6,79.5,79.5,79.5c43.9,0,79.5-35.6,79.5-79.5
		C172.9,49.4,137.3,13.8,93.4,13.8z M123.1,123.5c0.4,4.6,1.7,10.1,4.8,17c0,0-10.8-2.4-18.4-11.6c-4.6,1.2-9.5,1.8-14.6,1.8
		c-28.4,0-51.6-19.4-51.6-43.3C43.3,63.4,66.4,44,95,44c28.5,0,51.6,19.4,51.6,43.3C146.6,102.5,137.3,115.9,123.1,123.5z"/>
	<path fill="#EFF4FB" d="M136,97.9c0.6,0.3,1.2,0.3,1.7,0.1c0.6-0.2,0.9-0.7,1-1.6c0.1-0.6,0-1.1-0.3-1.4c-0.1-0.1-0.2-0.3-0.3-0.4
		c-0.1-0.1-0.3-0.2-0.5-0.2c-0.6-0.1-1.1-0.1-1.5,0.1c-0.5,0.2-0.7,0.7-0.9,1.5c-0.1,0.7-0.1,1.1,0.2,1.4S135.8,97.8,136,97.9z"/>
	<path fill="#EFF4FB" d="M130.8,76.3c-0.8,0-1.2,0.2-1.4,0.6c-0.1,0.2-0.1,0.5-0.2,0.9c-0.1,0.4-0.1,1.6-0.2,3.4
		c-0.1,1.9-0.2,3-0.2,3.3c0,0.3,0,0.8,0,1.2c-0.4,0-0.7,0-1,0c-0.3,0-0.8,0-1.3,0.1c-0.6,0-1.1,0.1-1.6,0.1
		c-0.5,0.1-0.9,0.1-1.1,0.1s-0.4,0-0.5,0c0-0.2,0-0.4,0-0.6c0-0.1,0-0.5,0-1.1s0-1.1,0-1.5s0-0.7,0-1c0-1.6,0-2.7,0-3.5
		c0,0,0-0.4,0-1.2c0-0.7-0.6-1.1-1.8-1c-0.8,0-1.2,0.4-1.3,1.2c0,0.6,0,1.3,0.1,2.1c0.2,1.7,0.2,3.9,0.1,6.8c0,0.8-0.1,1.7-0.2,2.5
		s-0.1,2.3-0.2,4.2c-0.1,2-0.1,3.3,0,4.1s0.5,1.1,1.3,1.1c1,0,1.5-0.3,1.5-1c0-0.9,0.1-1.6,0.1-1.9c0-0.3,0-1,0-2
		c0-1.1,0.1-2,0.1-2.8c0-0.8,0.1-1.2,0.1-1.4c0.3-0.1,0.8-0.2,1.6-0.2l1.3-0.1c1.2-0.1,2.2-0.1,3-0.1c0,0.5,0,1,0,1.3s0,1.2,0,2.5
		c0,1.6,0.1,2.7,0.1,3.4c-0.2,0.7-0.1,1.2,0.1,1.7c0.2,0.3,0.5,0.5,1,0.6c0.5,0.1,1,0,1.5-0.3c0.5-0.2,0.6-1,0.4-2.3l-0.1-7.5
		c0-0.8,0-2.3,0.1-4.4c0.2-2.2,0.3-3.7,0.4-4.2C132.7,77.4,132.2,76.3,130.8,76.3z"/>
</g>
</svg>
