<svg xmlns="http://www.w3.org/2000/svg" viewBox="0 0 186.7 186.7" fill="#eef4fb" xmlns:v="https://vecta.io/nano"><path d="M104.7 109.7c0-.2.1-.5.1-.7.7-3.6 1.5-7.9 1.6-12l-14.7 10.6c3.5 1.2 7.8 1.9 13 2.1zm-34.9-64L54.3 56.9c1.3 1.1 3.2 2.4 5.6 3.7l11.2-8.1c-.3-2.3-.8-4.5-1.3-6.8zm33.1 38.5c-.8-1-1.8-1.8-2.9-2.6L80.8 95.5c.5 2.6 1.4 5 3.1 7 1 1.2 2.2 2.2 3.7 3.1l18.6-13.5c-.5-2.9-1.5-5.6-3.3-7.9zM64 62.6c2.3.9 4.9 1.7 7.9 2.2.1-2.6 0-5.2-.2-7.8L64 62.6zm18.1 14.5c0 .2-.1.5-.1.7-.7 3.9-1.6 8.6-1.6 13.1L96 79.6c-3.6-1.5-8.3-2.3-13.9-2.5zm11.3-63.3c-43.9 0-79.5 35.6-79.5 79.5s35.6 79.5 79.5 79.5 79.5-35.6 79.5-79.5-35.6-79.5-79.5-79.5zm49.4 118.7c-1.1.9-2.4 1.4-3.8 1.4-1.5 0-2.9-.6-4-1.6l-17.1 12.4.6 1.8c1 3-.6 6.3-3.6 7.3s-6.3-.6-7.3-3.6c-3.1-9.3-4.5-19.4-4.2-29-13.1-.6-22.7-4.4-28.4-11.2-8.6-10.4-6.2-24.7-4.5-33.6C53.2 73.5 43.8 63 43.4 62.5c-2.1-2.4-1.8-6 .6-8.1 1.1-.9 2.4-1.4 3.8-1.4 1.3 0 2.6.4 3.6 1.3l17.3-12.5c-.1-.4-.3-.9-.4-1.3-1-3 .6-6.3 3.6-7.3s6.3.6 7.3 3.6c3.1 9.3 4.5 19.4 4.2 29 13.1.6 22.7 4.4 28.4 11.2 8.6 10.4 6.2 24.7 4.5 33.6 17.3 2.9 26.7 13.4 27.1 13.9 2 2.3 1.8 5.9-.6 8zm-27.9-10.6a66.75 66.75 0 0 0 .3 8.9l8.5-6.2c-2.5-1.2-5.5-2.1-8.8-2.7zm.9 13.3l1.1 5.3 15.2-11c-1.1-.9-2.5-1.9-4.3-2.9l-12 8.6z"/></svg>