<?xml version="1.0" encoding="utf-8"?>
<!-- Generator: Adobe Illustrator 18.1.1, SVG Export Plug-In . SVG Version: 6.00 Build 0)  -->
<svg version="1.1" id="Layer_4_copy" xmlns="http://www.w3.org/2000/svg" xmlns:xlink="http://www.w3.org/1999/xlink" x="0px"
	 y="0px" viewBox="0 0 186.7 186.7" enable-background="new 0 0 186.7 186.7" xml:space="preserve">
<g>
	<rect x="0" y="0" fill="none" width="186.7" height="186.7"/>
	<g>
		<path fill="#EEF4FB" d="M104.7,109.7c0-0.2,0.1-0.5,0.1-0.7c0.7-3.6,1.5-7.9,1.6-12l-14.7,10.6C95.2,108.8,99.5,109.5,104.7,109.7
			z"/>
		<path fill="#EEF4FB" d="M69.8,45.7L54.3,56.9c1.3,1.1,3.2,2.4,5.6,3.7l11.2-8.1C70.8,50.2,70.3,48,69.8,45.7z"/>
		<path fill="#EEF4FB" d="M102.9,84.2c-0.8-1-1.8-1.8-2.9-2.6L80.8,95.5c0.5,2.6,1.4,5,3.1,7c1,1.2,2.2,2.2,3.7,3.1l18.6-13.5
			C105.7,89.2,104.7,86.5,102.9,84.2z"/>
		<path fill="#EEF4FB" d="M64,62.6c2.3,0.9,4.9,1.7,7.9,2.2c0.1-2.6,0-5.2-0.2-7.8L64,62.6z"/>
		<path fill="#EEF4FB" d="M82.1,77.1c0,0.2-0.1,0.5-0.1,0.7c-0.7,3.9-1.6,8.6-1.6,13.1L96,79.6C92.4,78.1,87.7,77.3,82.1,77.1z"/>
		<path fill="#EEF4FB" d="M93.4,13.8c-43.9,0-79.5,35.6-79.5,79.5c0,43.9,35.6,79.5,79.5,79.5c43.9,0,79.5-35.6,79.5-79.5
			C172.9,49.4,137.3,13.8,93.4,13.8z M142.8,132.5c-1.1,0.9-2.4,1.4-3.8,1.4c-1.5,0-2.9-0.6-4-1.6l-17.1,12.4
			c0.2,0.6,0.4,1.2,0.6,1.8c1,3-0.6,6.3-3.6,7.3c-3,1-6.3-0.6-7.3-3.6c-3.1-9.3-4.5-19.4-4.2-29c-13.1-0.6-22.7-4.4-28.4-11.2
			c-8.6-10.4-6.2-24.7-4.5-33.6c-17.3-2.9-26.7-13.4-27.1-13.9c-2.1-2.4-1.8-6,0.6-8.1c1.1-0.9,2.4-1.4,3.8-1.4
			c1.3,0,2.6,0.4,3.6,1.3l17.3-12.5c-0.1-0.4-0.3-0.9-0.4-1.3c-1-3,0.6-6.3,3.6-7.3c3-1,6.3,0.6,7.3,3.6c3.1,9.3,4.5,19.4,4.2,29
			c13.1,0.6,22.7,4.4,28.4,11.2c8.6,10.4,6.2,24.7,4.5,33.6c17.3,2.9,26.7,13.4,27.1,13.9C145.4,126.8,145.2,130.4,142.8,132.5z"/>
		<path fill="#EEF4FB" d="M114.9,121.9c-0.1,2.9,0,5.9,0.3,8.9l8.5-6.2C121.2,123.4,118.2,122.5,114.9,121.9z"/>
		<path fill="#EEF4FB" d="M115.8,135.2c0.3,1.8,0.6,3.5,1.1,5.3l15.2-11c-1.1-0.9-2.5-1.9-4.3-2.9L115.8,135.2z"/>
	</g>
</g>
</svg>
