<svg xmlns="http://www.w3.org/2000/svg" viewBox="0 0 186.7 186.7" fill="#eef4fb" xmlns:v="https://vecta.io/nano"><circle cx="93.4" cy="93.4" r="6.7"/><path d="M134.4 93.4a6.7 6.7 0 0 1 6.7-6.7c1.8 0 3.5.7 4.7 1.9-2.3-25.2-22.4-45.3-47.6-47.6 1.2 1.2 1.9 2.9 1.9 4.7a6.7 6.7 0 1 1-13.4 0c0-1.8.7-3.5 1.9-4.7C63.4 43.3 43.3 63.4 41 88.6c1.2-1.2 2.9-1.9 4.7-1.9a6.7 6.7 0 1 1 0 13.4c-1.8 0-3.5-.7-4.7-1.9 2.3 25.2 22.4 45.3 47.6 47.6-1.2-1.2-1.9-2.9-1.9-4.7a6.7 6.7 0 1 1 13.4 0c0 1.8-.7 3.5-1.9 4.7 25.2-2.3 45.3-22.4 47.6-47.6-1.2 1.2-2.9 1.9-4.7 1.9a6.7 6.7 0 0 1-6.7-6.7zm-32.7 8.3h0l-37.5 20.9 20.9-37.5h0l37.5-20.9-20.9 37.5zm-8.3-87.9c-43.9 0-79.5 35.6-79.5 79.5s35.6 79.5 79.5 79.5 79.5-35.6 79.5-79.5-35.6-79.5-79.5-79.5zm0 145.9c-36.6 0-66.3-29.7-66.3-66.3s29.7-66.3 66.3-66.3 66.3 29.7 66.3 66.3-29.7 66.3-66.3 66.3z"/></svg>