<svg xmlns="http://www.w3.org/2000/svg" viewBox="0 0 186.9 187.2" xmlns:v="https://vecta.io/nano"><path fill="#eff4fb" d="M93.6 13.8c-44 0-79.6 35.6-79.6 79.6 0 43.9 35.6 79.5 79.5 79.5S173 137.3 173 93.4c.1-44-35.5-79.6-79.4-79.6zm13.2 24.7c14.7 0 26.7 12 26.7 26.7s-12 26.7-26.7 26.7c-.7 0-1.5 0-2.2-.1l3.1-9.5-27.5-20C81.6 49 93 38.5 106.8 38.5zm-73.9 45l35.6-25.9 8.6 6.2 1.5 1.1 1.5 1.1 24.1 17.5-2.6 7.9-.5 1.4-.2.5h-3.6-5.7-1.9l-.7 1.8-15 30.3H46.5L32.9 83.5zm98.2 59.7h0-62.6l7.3-14.9.7-1.5.7-1.5 14.3-29h8.3 1.6 1.6 51.1l-23 46.9z"/></svg>