<?xml version="1.0" encoding="utf-8"?>
<!-- Generator: Adobe Illustrator 18.1.1, SVG Export Plug-In . SVG Version: 6.00 Build 0)  -->
<svg version="1.1" id="geometry" xmlns="http://www.w3.org/2000/svg" xmlns:xlink="http://www.w3.org/1999/xlink" x="0px" y="0px"
	 viewBox="0 0 186.9 187.2" enable-background="new 0 0 186.9 187.2" xml:space="preserve">
<rect x="0.2" y="0" fill="none" width="186.7" height="186.7"/>
<path fill="#EFF4FB" d="M93.6,13.8C49.6,13.8,14,49.4,14,93.4c0,43.9,35.6,79.5,79.5,79.5c43.9,0,79.5-35.6,79.5-79.5
	C173.1,49.4,137.5,13.8,93.6,13.8z M106.8,38.5c14.7,0,26.7,12,26.7,26.7s-12,26.7-26.7,26.7c-0.7,0-1.5,0-2.2-0.1l3.1-9.5l-27.5-20
	C81.6,49,93,38.5,106.8,38.5z M32.9,83.5l35.6-25.9l8.6,6.2l1.5,1.1l1.5,1.1l24.1,17.5l-2.6,7.9l-0.5,1.4l-0.2,0.5h-3.6h-5.7h-1.9
	L89,95.1l-15,30.3H46.5L32.9,83.5z M131.1,143.2L131.1,143.2H68.5l7.3-14.9l0.7-1.5l0.7-1.5l14.3-29h8.3h1.6h1.6h51.1L131.1,143.2z"
	/>
</svg>
