<svg xmlns="http://www.w3.org/2000/svg" viewBox="0 0 186.7 186.7" xmlns:v="https://vecta.io/nano"><path fill="#eef4fb" d="M93.4 13.8c-43.9 0-79.5 35.6-79.5 79.5s35.6 79.5 79.5 79.5 79.5-35.6 79.5-79.5-35.6-79.5-79.5-79.5zM50.2 64.9l43.2-26.3 43.2 26.3c4.3 2.6 3.7 4.8-1.3 4.8H51.5c-5-.1-5.6-2.2-1.3-4.8zm67.9 9.6a1.58 1.58 0 0 1 1.6-1.6h11.2a1.58 1.58 0 1 1 0 3.2v39.2h-11.2V76.1a1.58 1.58 0 0 1-1.6-1.6zm-21.3 0a1.58 1.58 0 0 1 1.6-1.6h11.2a1.58 1.58 0 1 1 0 3.2v39.2H98.4V76.1a1.58 1.58 0 0 1-1.6-1.6zm-21.3 0a1.58 1.58 0 0 1 1.6-1.6h11.2a1.58 1.58 0 1 1 0 3.2v39.2H77.1V76.1a1.58 1.58 0 0 1-1.6-1.6zm-21.3 0a1.58 1.58 0 0 1 1.6-1.6H67a1.58 1.58 0 1 1 0 3.2v39.2H55.8V76.1a1.58 1.58 0 0 1-1.6-1.6zm87.3 58.7H45.2v-6.3L52 118h82.8l6.8 8.9v6.3z"/></svg>