<?xml version="1.0" encoding="utf-8"?>
<!-- Generator: Adobe Illustrator 18.1.1, SVG Export Plug-In . SVG Version: 6.00 Build 0)  -->
<svg version="1.1" id="Layer_3_copy" xmlns="http://www.w3.org/2000/svg" xmlns:xlink="http://www.w3.org/1999/xlink" x="0px"
	 y="0px" viewBox="0 0 186.9 187.2" enable-background="new 0 0 186.9 187.2" xml:space="preserve">
<rect x="0.2" y="0" fill="none" width="186.7" height="186.7"/>
<g>
	<path fill="#EFF4FB" d="M71.3,82.3c-0.8,0.7-1.7,1.3-2.8,1.6v23.9l20.6,11.9c0.8-0.7,1.7-1.2,2.8-1.5V99.5
		c-2.7-0.7-4.8-3.2-4.8-6.1c0-0.6,0.1-1.2,0.2-1.7L71.3,82.3z"/>
	<polygon fill="#EFF4FB" points="65.2,133.4 65.2,109.7 44.7,97.9 	"/>
	<path fill="#EFF4FB" d="M93.5,56.1c1.8,0,3.4,0.7,4.5,1.9l16-9.2H73.1L89,57.9C90.2,56.8,91.7,56.1,93.5,56.1z"/>
	<path fill="#EFF4FB" d="M98,66.8c-1.1,1.2-2.7,1.9-4.5,1.9c-1.7,0-3.2-0.7-4.4-1.8L73,76.2c0.1,0.5,0.2,1,0.2,1.6
		c0,0.6-0.1,1.1-0.2,1.6l16.1,9.4c1.1-1.1,2.7-1.8,4.4-1.8c1.7,0,3.3,0.7,4.5,1.8l16.2-9.5c-0.1-0.5-0.2-1-0.2-1.5
		c0-0.6,0.1-1.2,0.2-1.7L98,66.8z"/>
	<path fill="#EFF4FB" d="M87.4,64.1c-0.2-0.5-0.2-1.1-0.2-1.7c0-0.6,0.1-1.1,0.2-1.6l-16-9.2c-1.1,1.1-2.7,1.9-4.5,1.9
		c-0.6,0-1.1-0.1-1.6-0.2L44.7,88.9c1.1,1.1,1.8,2.7,1.8,4.5c0,0.6-0.1,1.1-0.2,1.6l18.9,10.9v-22c-2.7-0.7-4.7-3.2-4.7-6.1
		c0-3.5,2.8-6.3,6.3-6.3c1.7,0,3.3,0.7,4.5,1.8L87.4,64.1z"/>
	<path fill="#EFF4FB" d="M93.6,13.8C49.6,13.8,14,49.4,14,93.4c0,43.9,35.6,79.5,79.5,79.5c43.9,0,79.5-35.6,79.5-79.5
		C173.1,49.4,137.5,13.8,93.6,13.8z M147,99.7c-0.6,0-1.1-0.1-1.6-0.2l-20.6,35.7c1.1,1.1,1.8,2.7,1.8,4.5c0,3.5-2.8,6.3-6.3,6.3
		c-2.9,0-5.4-2-6.1-4.7H73c-0.7,2.7-3.2,4.7-6.1,4.7c-3.5,0-6.3-2.8-6.3-6.3c0-1.7,0.7-3.3,1.8-4.5L41.8,99.5
		c-0.5,0.1-1.1,0.2-1.6,0.2c-3.5,0-6.3-2.8-6.3-6.3c0-3.5,2.8-6.3,6.3-6.3c0.6,0,1.1,0.1,1.6,0.2l20.6-35.7
		c-1.1-1.1-1.8-2.7-1.8-4.5c0-3.5,2.8-6.3,6.3-6.3c2.9,0,5.4,2,6.1,4.7h41.4c0.7-2.7,3.2-4.7,6.1-4.7c3.5,0,6.3,2.8,6.3,6.3
		c0,1.8-0.8,3.4-2,4.6l20.5,35.5c0.5-0.1,1.1-0.2,1.6-0.2c3.5,0,6.3,2.8,6.3,6.3C153.3,96.9,150.5,99.7,147,99.7z"/>
	<polygon fill="#EFF4FB" points="121.9,133.4 142.4,97.9 121.9,109.7 	"/>
	<path fill="#EFF4FB" d="M99.8,124.3c0,3.5-2.8,6.3-6.3,6.3c-3.5,0-6.3-2.8-6.3-6.3c0-0.6,0.1-1.2,0.3-1.8l-18.8-10.9v21.8
		c2.2,0.6,3.9,2.3,4.4,4.4h41.2c0.6-2.2,2.3-3.9,4.4-4.4v-21.9l-19.1,11C99.7,123.1,99.8,123.7,99.8,124.3z"/>
	<path fill="#EFF4FB" d="M120.5,53.5c-1.8,0-3.4-0.7-4.5-1.9l-16.4,9.4c0.1,0.5,0.2,1,0.2,1.5c0,0.5-0.1,1-0.2,1.5l16.3,9.3
		c1.1-1.1,2.7-1.8,4.4-1.8c3.5,0,6.3,2.8,6.3,6.3c0,2.9-2,5.4-4.7,6.1v21.9L140.8,95c-0.1-0.5-0.2-1-0.2-1.6c0-1.7,0.7-3.3,1.8-4.5
		l-20.6-35.6C121.5,53.4,121,53.5,120.5,53.5z"/>
	<path fill="#EFF4FB" d="M99.6,91.8c0.1,0.5,0.2,1,0.2,1.6c0,2.9-1.9,5.3-4.5,6.1v18.8c1,0.3,1.8,0.8,2.5,1.5l20.8-12V83.9
		c-1.1-0.3-2.1-0.9-2.8-1.7L99.6,91.8z"/>
</g>
</svg>
