<svg xmlns="http://www.w3.org/2000/svg" viewBox="0 0 186.9 187.2" fill="#eff4fb" xmlns:v="https://vecta.io/nano"><path d="M71.3 82.3c-.8.7-1.7 1.3-2.8 1.6v23.9l20.6 11.9c.8-.7 1.7-1.2 2.8-1.5V99.5c-2.7-.7-4.8-3.2-4.8-6.1 0-.6.1-1.2.2-1.7l-16-9.4zm-6.1 51.1v-23.7L44.7 97.9zm28.3-77.3c1.8 0 3.4.7 4.5 1.9l16-9.2H73.1L89 57.9c1.2-1.1 2.7-1.8 4.5-1.8zM98 66.8c-1.1 1.2-2.7 1.9-4.5 1.9-1.7 0-3.2-.7-4.4-1.8L73 76.2c.1.5.2 1 .2 1.6s-.1 1.1-.2 1.6l16.1 9.4c1.1-1.1 2.7-1.8 4.4-1.8s3.3.7 4.5 1.8l16.2-9.5c-.1-.5-.2-1-.2-1.5 0-.6.1-1.2.2-1.7L98 66.8zm-10.6-2.7c-.2-.5-.2-1.1-.2-1.7s.1-1.1.2-1.6l-16-9.2c-1.1 1.1-2.7 1.9-4.5 1.9-.6 0-1.1-.1-1.6-.2L44.7 88.9c1.1 1.1 1.8 2.7 1.8 4.5 0 .6-.1 1.1-.2 1.6l18.9 10.9v-22c-2.7-.7-4.7-3.2-4.7-6.1 0-3.5 2.8-6.3 6.3-6.3 1.7 0 3.3.7 4.5 1.8l16.1-9.2zm6.2-50.3c-44 0-79.6 35.6-79.6 79.6 0 43.9 35.6 79.5 79.5 79.5S173 137.3 173 93.4c.1-44-35.5-79.6-79.4-79.6zM147 99.7c-.6 0-1.1-.1-1.6-.2l-20.6 35.7c1.1 1.1 1.8 2.7 1.8 4.5 0 3.5-2.8 6.3-6.3 6.3-2.9 0-5.4-2-6.1-4.7H73c-.7 2.7-3.2 4.7-6.1 4.7-3.5 0-6.3-2.8-6.3-6.3 0-1.7.7-3.3 1.8-4.5L41.8 99.5c-.5.1-1.1.2-1.6.2-3.5 0-6.3-2.8-6.3-6.3s2.8-6.3 6.3-6.3c.6 0 1.1.1 1.6.2l20.6-35.7c-1.1-1.1-1.8-2.7-1.8-4.5 0-3.5 2.8-6.3 6.3-6.3 2.9 0 5.4 2 6.1 4.7h41.4c.7-2.7 3.2-4.7 6.1-4.7 3.5 0 6.3 2.8 6.3 6.3 0 1.8-.8 3.4-2 4.6l20.5 35.5c.5-.1 1.1-.2 1.6-.2 3.5 0 6.3 2.8 6.3 6.3a6.15 6.15 0 0 1-6.2 6.4zm-25.1 33.7l20.5-35.5-20.5 11.8zm-22.1-9.1c0 3.5-2.8 6.3-6.3 6.3s-6.3-2.8-6.3-6.3c0-.6.1-1.2.3-1.8l-18.8-10.9v21.8c2.2.6 3.9 2.3 4.4 4.4h41.2c.6-2.2 2.3-3.9 4.4-4.4v-21.9l-19.1 11c.1.6.2 1.2.2 1.8z"/><path d="M120.5 53.5c-1.8 0-3.4-.7-4.5-1.9L99.6 61c.1.5.2 1 .2 1.5s-.1 1-.2 1.5l16.3 9.3c1.1-1.1 2.7-1.8 4.4-1.8 3.5 0 6.3 2.8 6.3 6.3 0 2.9-2 5.4-4.7 6.1v21.9L140.8 95c-.1-.5-.2-1-.2-1.6 0-1.7.7-3.3 1.8-4.5l-20.6-35.6a4.44 4.44 0 0 1-1.3.2zM99.6 91.8c.1.5.2 1 .2 1.6a6.36 6.36 0 0 1-4.5 6.1v18.8a5.79 5.79 0 0 1 2.5 1.5l20.8-12V83.9c-1.1-.3-2.1-.9-2.8-1.7l-16.2 9.6z"/></svg>