<svg xmlns="http://www.w3.org/2000/svg" viewBox="0 0 186.7 186.7" fill="#eef4fb" xmlns:v="https://vecta.io/nano"><path d="M85.5 92.3c.8.9 1.5 2.2 2.5 2.4.7.2 1.8-1.1 3.4-2.2-1.5-1.2-2.4-2.5-3.1-2.4-1 .2-1.9 1.4-2.8 2.2zm7.9-78.5c-43.9 0-79.5 35.6-79.5 79.5s35.6 79.5 79.5 79.5 79.5-35.6 79.5-79.5-35.6-79.5-79.5-79.5zm-45.3 103c-7.7-2.6-9.6-9.6-11.1-17.3l2.5 2.3c5.1 4.1 11.7 2.2 12.7-4.2.8-4.7.5-9.8-.3-14.5-1.3-8.1-3-16-2.6-24.3.6-13.5 7.5-20.8 21.1-21.7 2.2-.1 4.5-.1 6.7-.4.8-.1 1.5-.9 2.3-1.4-.7-.6-1.3-1.5-2.1-1.8-1.2-.3-2.6-.2-3.9-.2 1.8-4.2 6.6-5.9 11.5-3.4 3.5 1.8 6.3 1.7 9.9 0 7.4-3.6 16.4-1.2 21.3 5.1 5.5 7 6 17.7 1.3 24-1.4 1.9-2.7 2.7-5.3 2.2-5.6-.9-11.3-1.2-17-1.7-1.6-10.3-8.6-12.7-17.1-9.6 9.3 1.4 12.3 4.1 11.9 10.8-2 1.2-3.4 1-5.2-.9-6.2-6.4-11.2-6.3-17.7-.3-1.4 1.3-3.4 1.9-5.2 3 .9 1.8 2.9 1.4 5.1.9 3.2-.7 6.3-1.4 9.6-1.6 1.4-.1 3 .8 5.3 1.6-9.9 5.2-15.9 12.3-18.8 21.7-2.9 9.5-1.1 18.6 3.5 27.6-5.6 4.8-11.9 6.3-18.4 4.1zm21.2 30.7c1.6-3.1 2.9-6.1 4.6-8.9.4-.6 2.1-.9 3-.7l36.8 7.5c4.9 1 6.2 2.6 8.3 10l-52.7-7.9zm57.3-23.1c-4.2-1.9-8.3-3.1-11.7-5.3-7.6-4.8-14.8-10.1-22.2-15.1-.9-.6-1.9-1.1-2.9-1.2-.5 0-1.6 1-1.6 1.5.1 1 .5 2.3 1.2 2.8l25.8 17.4c1.3.9 2.9 1.4 4.6 2.3-2.9 2-8 1.4-8.1 5.6-.1 3 1.9 6.1 3 9.2l-37.8-7.9-1.7-15.9c-.2-1.5-1-3.1-1.9-4.4-6.8-9.3-9.2-19.4-4.6-30.2C73.3 72.3 82.3 66.7 93.8 65c15-2.2 27.4 2.8 38 14.5l-18.7 5.2-17.5 4.9-1.7 7.9c9.8 8.8 21.8 15.1 36.6 18.2-4.8 1.6-3.6 5-3.9 8.7zm-8.7-36.3l6.2-1.8c1.2 4.1 2.9 8.1 3.4 12.2.2 2.1-1.7 4.4-2.8 6.5-2.7 5-2.7 4.9-8.3 1.8 5.2-5.7 5.3-12 1.5-18.7zm-9.4 2.7c2.2-.7 4-1.2 5.7-1.7 3.8 5.8 2.3 10.8-1.9 15.9l-5.1-2.9c2.2-3.6 4-7.1 1.3-11.3zm-4.9 8.9c-1.8-1.9-5.8-2.2-4.1-6.4l5.3-1.5c1.5 3.3 1.4 3.7-1.2 7.9zm34.5 2.2c-1 2.3-2.5 4.4-3.5 6.8-1.1 2.5-2.5 3.5-5.2 2.4-.7-.3-1.6-.3-2.9-.6 1.7-3.2 3.1-6.1 4.7-8.9 1.1-1.9 1.4-3.6.6-5.7-1.3-3.5-2.2-7.1-3.3-11 2-.7 3.8-1.2 5.9-1.9l4.4 15.1c.3 1.2-.2 2.7-.7 3.8z"/></svg>