<?xml version="1.0" encoding="utf-8"?>
<!-- Generator: Adobe Illustrator 18.1.1, SVG Export Plug-In . SVG Version: 6.00 Build 0)  -->
<svg version="1.1" id="Layer_4_copy" xmlns="http://www.w3.org/2000/svg" xmlns:xlink="http://www.w3.org/1999/xlink" x="0px"
	 y="0px" viewBox="0 0 186.7 186.7" enable-background="new 0 0 186.7 186.7" xml:space="preserve">
<g>
	<rect x="0" y="0" fill="none" width="186.7" height="186.7"/>
	<g>
		<path fill="#EEF4FB" d="M85.5,92.3c0.8,0.9,1.5,2.2,2.5,2.4c0.7,0.2,1.8-1.1,3.4-2.2c-1.5-1.2-2.4-2.5-3.1-2.4
			C87.3,90.3,86.4,91.5,85.5,92.3z"/>
		<path fill="#EEF4FB" d="M93.4,13.8c-43.9,0-79.5,35.6-79.5,79.5c0,43.9,35.6,79.5,79.5,79.5s79.5-35.6,79.5-79.5
			C172.9,49.4,137.3,13.8,93.4,13.8z M48.1,116.8c-7.7-2.6-9.6-9.6-11.1-17.3c1.1,1,1.8,1.7,2.5,2.3c5.1,4.1,11.7,2.2,12.7-4.2
			c0.8-4.7,0.5-9.8-0.3-14.5c-1.3-8.1-3-16-2.6-24.3c0.6-13.5,7.5-20.8,21.1-21.7c2.2-0.1,4.5-0.1,6.7-0.4c0.8-0.1,1.5-0.9,2.3-1.4
			c-0.7-0.6-1.3-1.5-2.1-1.8c-1.2-0.3-2.6-0.2-3.9-0.2c1.8-4.2,6.6-5.9,11.5-3.4c3.5,1.8,6.3,1.7,9.9,0c7.4-3.6,16.4-1.2,21.3,5.1
			c5.5,7,6,17.7,1.3,24c-1.4,1.9-2.7,2.7-5.3,2.2c-5.6-0.9-11.3-1.2-17-1.7c-1.6-10.3-8.6-12.7-17.1-9.6c9.3,1.4,12.3,4.1,11.9,10.8
			c-2,1.2-3.4,1-5.2-0.9c-6.2-6.4-11.2-6.3-17.7-0.3c-1.4,1.3-3.4,1.9-5.2,3c0.9,1.8,2.9,1.4,5.1,0.9c3.2-0.7,6.3-1.4,9.6-1.6
			c1.4-0.1,3,0.8,5.3,1.6C71.9,68.6,65.9,75.7,63,85.1c-2.9,9.5-1.1,18.6,3.5,27.6C60.9,117.5,54.6,119,48.1,116.8z M69.3,147.5
			c1.6-3.1,2.9-6.1,4.6-8.9c0.4-0.6,2.1-0.9,3-0.7c12.3,2.4,24.6,5,36.8,7.5c4.9,1,6.2,2.6,8.3,10
			C104.6,152.8,87.2,150.2,69.3,147.5z M126.6,124.4c-4.2-1.9-8.3-3.1-11.7-5.3c-7.6-4.8-14.8-10.1-22.2-15.1
			c-0.9-0.6-1.9-1.1-2.9-1.2c-0.5,0-1.6,1-1.6,1.5c0.1,1,0.5,2.3,1.2,2.8c8.5,5.9,17.2,11.7,25.8,17.4c1.3,0.9,2.9,1.4,4.6,2.3
			c-2.9,2-8,1.4-8.1,5.6c-0.1,3,1.9,6.1,3,9.2c-12.4-2.6-25.3-5.3-37.8-7.9c-0.6-5.6-1-10.8-1.7-15.9c-0.2-1.5-1-3.1-1.9-4.4
			c-6.8-9.3-9.2-19.4-4.6-30.2c4.6-10.9,13.6-16.5,25.1-18.2c15-2.2,27.4,2.8,38,14.5c-6.6,1.8-12.7,3.5-18.7,5.2
			c-6.1,1.7-12.1,3.4-17.5,4.9c-0.6,2.7-1,5-1.7,7.9c9.8,8.8,21.8,15.1,36.6,18.2C125.7,117.3,126.9,120.7,126.6,124.4z M117.9,88.1
			c2.5-0.7,4.1-1.2,6.2-1.8c1.2,4.1,2.9,8.1,3.4,12.2c0.2,2.1-1.7,4.4-2.8,6.5c-2.7,5-2.7,4.9-8.3,1.8
			C121.6,101.1,121.7,94.8,117.9,88.1z M108.5,90.8c2.2-0.7,4-1.2,5.7-1.7c3.8,5.8,2.3,10.8-1.9,15.9c-1.6-0.9-3.2-1.8-5.1-2.9
			C109.4,98.5,111.2,95,108.5,90.8z M103.6,99.7c-1.8-1.9-5.8-2.2-4.1-6.4c1.7-0.5,3.5-1,5.3-1.5C106.3,95.1,106.2,95.5,103.6,99.7z
			 M138.1,101.9c-1,2.3-2.5,4.4-3.5,6.8c-1.1,2.5-2.5,3.5-5.2,2.4c-0.7-0.3-1.6-0.3-2.9-0.6c1.7-3.2,3.1-6.1,4.7-8.9
			c1.1-1.9,1.4-3.6,0.6-5.7c-1.3-3.5-2.2-7.1-3.3-11c2-0.7,3.8-1.2,5.9-1.9c1.5,5.2,3.1,10.1,4.4,15.1
			C139.1,99.3,138.6,100.8,138.1,101.9z"/>
	</g>
</g>
</svg>
