<svg xmlns="http://www.w3.org/2000/svg" viewBox="0 0 186.7 186.7" fill="#eef4fb" xmlns:v="https://vecta.io/nano"><path d="M76.1 85.3c4.1 0 7.7 1.6 10 4.1.4-1 .7-2.1.7-3.3 0-5.3-4.8-9.5-10.7-9.5s-10.7 4.3-10.7 9.5c0 1.2.2 2.3.7 3.3 2.3-2.5 5.9-4.1 10-4.1zm34.5 0c4.1 0 7.7 1.6 10 4.1.4-1 .7-2.1.7-3.3 0-5.3-4.8-9.5-10.7-9.5s-10.7 4.3-10.7 9.5c0 1.2.2 2.3.7 3.3 2.3-2.5 6-4.1 10-4.1zm-17.2 35.5c-13.6 0-26-6.2-35.5-16.5C67.7 129 81.5 142 93.4 142s25.7-13 35.5-37.7c-9.6 10.3-22 16.5-35.5 16.5zm0-107c-43.9 0-79.5 35.6-79.5 79.5s35.6 79.5 79.5 79.5 79.5-35.6 79.5-79.5-35.6-79.5-79.5-79.5zm48.3 75.4c-5.8 38.7-26.9 63.8-48.3 63.8s-42.5-25.1-48.3-63.8a139.46 139.46 0 0 1-.1-41.3c13.3 7.2 30.2 11.5 48.4 11.5s35.2-4.3 48.4-11.5c1.9 13.5 1.9 27.6-.1 41.3z"/></svg>