<?xml version="1.0" encoding="utf-8"?>
<!-- Generator: Adobe Illustrator 18.1.1, SVG Export Plug-In . SVG Version: 6.00 Build 0)  -->
<svg version="1.1" id="Layer_4_copy" xmlns="http://www.w3.org/2000/svg" xmlns:xlink="http://www.w3.org/1999/xlink" x="0px"
	 y="0px" viewBox="0 0 186.7 186.7" enable-background="new 0 0 186.7 186.7" xml:space="preserve">
<g>
	<rect x="0" y="0" fill="none" width="186.7" height="186.7"/>
	<g>
		<path fill="#EEF4FB" d="M76.1,85.3c4.1,0,7.7,1.6,10,4.1c0.4-1,0.7-2.1,0.7-3.3c0-5.3-4.8-9.5-10.7-9.5c-5.9,0-10.7,4.3-10.7,9.5
			c0,1.2,0.2,2.3,0.7,3.3C68.4,86.9,72,85.3,76.1,85.3z"/>
		<path fill="#EEF4FB" d="M110.6,85.3c4.1,0,7.7,1.6,10,4.1c0.4-1,0.7-2.1,0.7-3.3c0-5.3-4.8-9.5-10.7-9.5c-5.9,0-10.7,4.3-10.7,9.5
			c0,1.2,0.2,2.3,0.7,3.3C102.9,86.9,106.6,85.3,110.6,85.3z"/>
		<path fill="#EEF4FB" d="M93.4,120.8c-13.6,0-26-6.2-35.5-16.5C67.7,129,81.5,142,93.4,142s25.7-13,35.5-37.7
			C119.3,114.6,106.9,120.8,93.4,120.8z"/>
		<path fill="#EEF4FB" d="M93.4,13.8c-43.9,0-79.5,35.6-79.5,79.5c0,43.9,35.6,79.5,79.5,79.5c43.9,0,79.5-35.6,79.5-79.5
			C172.9,49.4,137.3,13.8,93.4,13.8z M141.7,89.2c-5.8,38.7-26.9,63.8-48.3,63.8c-21.4,0-42.5-25.1-48.3-63.8
			C43,75.5,43,61.4,45,47.9c13.3,7.2,30.2,11.5,48.4,11.5c18.2,0,35.2-4.3,48.4-11.5C143.7,61.4,143.7,75.5,141.7,89.2z"/>
	</g>
</g>
</svg>
