<?xml version="1.0" encoding="utf-8"?>
<!-- Generator: Adobe Illustrator 18.1.1, SVG Export Plug-In . SVG Version: 6.00 Build 0)  -->
<svg version="1.1" id="TEXT_copy" xmlns="http://www.w3.org/2000/svg" xmlns:xlink="http://www.w3.org/1999/xlink" x="0px" y="0px"
	 viewBox="0 0 186.9 187.2" enable-background="new 0 0 186.9 187.2" xml:space="preserve">
<rect x="0.2" y="0" fill="none" width="186.7" height="186.7"/>
<g>
	<path fill="#EFF4FB" d="M107.1,77.1c-0.1-0.3-0.7-0.5-1.7-0.6c-1-0.1-2.2-0.1-3.4-0.1c-2.6,0-5,0.3-7.2,0.9
		c-0.6,0.2-0.9,0.4-1.2,0.6c-0.2,0.2-0.3,0.5-0.3,0.9c0.1,0.7,0.3,1.1,0.6,1.4c0.3,0.2,1,0.2,2.2-0.1c1.1-0.3,2.2-0.4,3.2-0.5
		c0,0.3,0,0.6,0,0.9c0,2,0,3.6,0,4.6c0,1.1,0,2.4,0,4.1c0,1.6,0,3.2-0.1,4.6c0,0.8,0,1.6-0.1,2.5c0.1,1.3,0.7,1.9,1.6,1.7
		c0.8-0.1,1.4-0.4,1.7-1c0.2-0.6,0.2-1.2,0-1.7c-0.2-0.6-0.2-2.1-0.2-4.5c0-0.8,0-2.1,0-3.7c0-1.7,0-3.2,0-4.5c0-1.3,0-2.1,0-2.4
		c0-0.3,0-0.5,0-0.8c0.4,0,0.9,0,1.4,0c0.6,0,1.2,0.1,1.8,0.1c0.7,0.1,1.1,0.1,1.4,0c0.3-0.1,0.4-0.2,0.5-0.4c0.1-0.2,0.1-0.5,0-1
		C107.4,77.8,107.3,77.4,107.1,77.1z"/>
	<path fill="#EFF4FB" d="M84.5,77.1c-0.1-0.3-0.7-0.5-1.7-0.6c-1-0.1-2.2-0.1-3.4-0.1c-2.6,0-5,0.3-7.2,0.9
		c-0.6,0.2-0.9,0.4-1.2,0.6c-0.2,0.2-0.3,0.5-0.3,0.9c0.1,0.7,0.3,1.1,0.6,1.4c0.3,0.2,1,0.2,2.2-0.1c1.1-0.3,2.2-0.4,3.2-0.5
		c0,0.3,0,0.6,0,0.9c0,2,0,3.6,0,4.6c0,1.1,0,2.4,0,4.1c0,1.6,0,3.2-0.1,4.6c0,0.8,0,1.6-0.1,2.5c0.1,1.3,0.7,1.9,1.6,1.7
		c0.8-0.1,1.4-0.4,1.7-1c0.2-0.6,0.2-1.2,0-1.7c-0.2-0.6-0.2-2.1-0.2-4.5c0-0.8,0-2.1,0-3.7c0-1.7,0-3.2,0-4.5c0-1.3,0-2.1,0-2.4
		c0-0.3,0-0.5,0-0.8c0.4,0,0.9,0,1.4,0c0.6,0,1.2,0.1,1.8,0.1c0.7,0.1,1.1,0.1,1.4,0c0.3-0.1,0.4-0.2,0.5-0.4c0.1-0.2,0.1-0.5,0-1
		C84.7,77.8,84.6,77.4,84.5,77.1z"/>
	<path fill="#EFF4FB" d="M68.8,77c-0.2-0.3-0.6-0.5-1.2-0.6c-0.6-0.1-1.5-0.1-2.6-0.1c-1.1,0-2.3,0.1-3.6,0.2
		c-1.2,0.1-2.2,0.3-3,0.5c-0.7,0.2-1.1,0.6-1.1,1.3c0,0.7,0.1,1.1,0.2,1.3c0.1,0.2,0.2,0.4,0.3,0.4c0.1,0.1,0.1,0.9,0.2,2.6
		c0,1.7-0.1,2.8-0.3,3.4c-0.2,0.6-0.2,1.3,0.1,2.3c-0.1,2.1-0.2,4-0.2,5.6l0,1.1c0.1,1.3,0.3,2.2,0.6,2.5c0.3,0.3,0.9,0.5,1.6,0.5
		c0.7,0.1,1.7,0.1,2.9,0c1.3,0,1.9,0,2,0c1.1,0,1.9-0.1,2.5-0.3c0.8-0.3,1.2-0.8,1.2-1.3c0-0.2,0-0.5-0.1-0.8
		c-0.1-0.3-0.2-0.5-0.4-0.7c-0.1-0.2-0.4-0.3-0.8-0.3c-0.4,0-0.8,0.1-1,0.2c-0.3,0.1-1.2,0.2-2.6,0.2c-1.4,0.1-2.3,0-2.6-0.1
		c-0.3-0.1-0.4-0.4-0.5-0.8c0-0.4,0-1.1,0-2.2c0-1.1,0-1.8,0.1-2.1c0-0.3,0.1-0.8,0.1-1.5c0.5,0,1.1,0,1.7,0c0.6,0,1.2,0,1.8,0
		c0.6,0,1-0.1,1.4-0.2s0.4-0.7,0.4-1.7c-0.1-0.3-0.3-0.6-0.5-0.7c-0.4-0.3-1.7-0.4-3.9-0.4c-0.2,0-0.5,0-0.8,0c0-0.5,0-1.2,0-2.3
		s0-1.8,0-2.3c0-0.5,0-0.9,0-1.2c0.8-0.3,2.5-0.5,5.3-0.4c0.2,0,0.6,0.1,1,0.1s0.7,0,1,0c0.3-0.1,0.5-0.2,0.6-0.5
		c0.1-0.3,0.2-0.6,0.1-1C69.1,77.7,69,77.3,68.8,77z"/>
	<path fill="#EFF4FB" d="M121.9,77.3c-0.3-0.4-0.6-0.7-1-0.8c-0.3,0-0.7,0.1-1,0.3c-0.2,0.2-0.4,0.5-0.5,0.9c-0.2,0.8-0.1,2,0.2,3.7
		c0,4.2-0.3,7.7-0.8,10.4c-0.6,2.2-1.5,3.3-2.7,3.5c-0.8,0.1-1.4-0.1-1.9-0.6c-0.9-1-1.5-3-1.8-6.1c-0.2-2.2-0.2-4.7-0.2-7.4
		c0-0.9,0.1-1.6,0.2-2.1c0.1-0.5,0-1-0.1-1.4c-0.2-0.4-0.4-0.6-0.6-0.7s-0.5-0.2-0.8-0.2c-0.6,0-1.1,0.2-1.3,0.6
		c-0.2,0.4-0.3,1-0.4,1.8c0,0.6-0.1,1.7-0.1,3.3s0.1,4,0.4,7.4c0.2,1.4,0.4,2.6,0.7,3.6c0.3,1.3,0.9,2.5,1.8,3.4
		c0.8,1,2.1,1.5,3.7,1.4c1.6,0,2.9-0.6,3.8-1.6s1.5-2.3,2-3.9c0.4-1.6,0.7-4.1,0.9-7.5s0.1-5.6,0-6.6
		C122.4,78.2,122.2,77.7,121.9,77.3z"/>
	<path fill="#EFF4FB" d="M93.6,13.8C49.6,13.8,14,49.4,14,93.4c0,43.9,35.6,79.5,79.5,79.5c43.9,0,79.5-35.6,79.5-79.5
		C173.1,49.4,137.5,13.8,93.6,13.8z M123.3,123.5c0.4,4.6,1.7,10.1,4.8,17c0,0-10.8-2.4-18.4-11.6c-4.6,1.2-9.5,1.8-14.6,1.8
		c-28.4,0-51.6-19.4-51.6-43.3C43.5,63.4,66.7,44,95.2,44c28.5,0,51.6,19.4,51.6,43.3C146.8,102.5,137.5,115.9,123.3,123.5z"/>
	<path fill="#EFF4FB" d="M131.8,94.8c-0.1-0.2-0.3-0.3-0.6-0.4c-0.3-0.1-0.6-0.2-0.9-0.2c-0.4,0-0.8,0.2-1.2,0.5s-0.6,0.9-0.6,1.7
		c0,0.4,0.1,0.7,0.2,0.9c0.1,0.2,0.3,0.4,0.5,0.5c0.2,0.1,0.4,0.2,0.6,0.2s0.4,0.1,0.6,0.1c0.5,0,0.9-0.1,1.2-0.4s0.5-0.7,0.5-1.3
		c0-0.1,0-0.2,0-0.4c0-0.2,0-0.4-0.1-0.6C132,95.2,131.9,95,131.8,94.8z"/>
	<path fill="#EFF4FB" d="M131.6,75.5c-1,0-2.1,0.3-3.2,0.8c-1.1,0.5-2.1,1.3-2.9,2.3l-0.7,0.9c-0.2,0.3-0.4,0.7-0.4,1
		c0,0.1,0,0.2,0.1,0.4l0.2,0.5c0.1,0.2,0.3,0.4,0.5,0.6c0.2,0.2,0.5,0.3,1,0.3c0.4,0,0.7-0.1,0.9-0.3c0.2-0.2,0.4-0.4,0.6-0.7
		c0.2-0.3,0.3-0.6,0.5-0.9c0.2-0.3,0.4-0.7,0.8-1c0.4-0.3,0.8-0.6,1.2-0.8c0.4-0.2,0.8-0.2,1.2-0.2c0.6,0,1.1,0.1,1.4,0.3
		c0.4,0.2,0.6,0.5,0.8,0.8c0.2,0.3,0.3,0.6,0.4,1c0.1,0.3,0.1,0.7,0.1,1v0.3c0,0.5-0.2,1-0.6,1.4c-0.4,0.4-0.8,0.8-1.3,1.2
		c-0.5,0.4-1,0.8-1.5,1.2c-0.5,0.4-0.9,0.8-1.2,1.3c-0.4,0.6-0.7,1.2-0.9,1.6c-0.2,0.4-0.3,1-0.3,1.5c0,1.5,0.5,2.2,1.6,2.2
		c0.4,0,0.7-0.1,0.9-0.4s0.4-0.6,0.4-1c0.2-1.7,1.2-3.1,3.1-4.4c0.9-0.7,1.6-1.4,2-2.4c0.4-0.9,0.6-2,0.6-3.3
		c-0.1-0.7-0.3-1.4-0.6-2c-0.3-0.6-0.7-1.2-1.2-1.6s-1-0.8-1.7-1.1S132.3,75.5,131.6,75.5z"/>
</g>
</svg>
