<svg xmlns="http://www.w3.org/2000/svg" viewBox="0 0 186.9 187.2" fill="#eff4fb" xmlns:v="https://vecta.io/nano"><path d="M107.1 77.1c-.1-.3-.7-.5-1.7-.6s-2.2-.1-3.4-.1c-2.6 0-5 .3-7.2.9-.6.2-.9.4-1.2.6-.2.2-.3.5-.3.9.1.7.3 1.1.6 1.4.3.2 1 .2 2.2-.1 1.1-.3 2.2-.4 3.2-.5v.9 4.6 4.1l-.1 4.6-.1 2.5c.1 1.3.7 1.9 1.6 1.7.8-.1 1.4-.4 1.7-1 .2-.6.2-1.2 0-1.7-.2-.6-.2-2.1-.2-4.5v-3.7-4.5-2.4-.8h1.4c.6 0 1.2.1 1.8.1.7.1 1.1.1 1.4 0s.4-.2.5-.4.1-.5 0-1c.1-.3 0-.7-.2-1zm-22.6 0c-.1-.3-.7-.5-1.7-.6s-2.2-.1-3.4-.1c-2.6 0-5 .3-7.2.9-.6.2-.9.4-1.2.6-.2.2-.3.5-.3.9.1.7.3 1.1.6 1.4.3.2 1 .2 2.2-.1 1.1-.3 2.2-.4 3.2-.5v.9 4.6 4.1l-.1 4.6-.1 2.5c.1 1.3.7 1.9 1.6 1.7.8-.1 1.4-.4 1.7-1 .2-.6.2-1.2 0-1.7-.2-.6-.2-2.1-.2-4.5v-3.7-4.5-2.4-.8H81c.6 0 1.2.1 1.8.1.7.1 1.1.1 1.4 0s.4-.2.5-.4.1-.5 0-1c0-.3-.1-.7-.2-1zM68.8 77c-.2-.3-.6-.5-1.2-.6s-1.5-.1-2.6-.1-2.3.1-3.6.2c-1.2.1-2.2.3-3 .5-.7.2-1.1.6-1.1 1.3s.1 1.1.2 1.3.2.4.3.4c.1.1.1.9.2 2.6 0 1.7-.1 2.8-.3 3.4s-.2 1.3.1 2.3l-.2 5.6V95c.1 1.3.3 2.2.6 2.5s.9.5 1.6.5c.7.1 1.7.1 2.9 0h2c1.1 0 1.9-.1 2.5-.3.8-.3 1.2-.8 1.2-1.3 0-.2 0-.5-.1-.8s-.2-.5-.4-.7c-.1-.2-.4-.3-.8-.3s-.8.1-1 .2c-.3.1-1.2.2-2.6.2-1.4.1-2.3 0-2.6-.1s-.4-.4-.5-.8v-2.2l.1-2.1c0-.3.1-.8.1-1.5h1.7 1.8c.6 0 1-.1 1.4-.2s.4-.7.4-1.7c-.1-.3-.3-.6-.5-.7-.4-.3-1.7-.4-3.9-.4h-.8V83v-2.3-1.2c.8-.3 2.5-.5 5.3-.4.2 0 .6.1 1 .1h1c.3-.1.5-.2.6-.5s.2-.6.1-1c.4 0 .3-.4.1-.7zm53.1.3c-.3-.4-.6-.7-1-.8a1.93 1.93 0 0 0-1 .3c-.2.2-.4.5-.5.9-.2.8-.1 2 .2 3.7 0 4.2-.3 7.7-.8 10.4-.6 2.2-1.5 3.3-2.7 3.5-.8.1-1.4-.1-1.9-.6-.9-1-1.5-3-1.8-6.1-.2-2.2-.2-4.7-.2-7.4a10.61 10.61 0 0 1 .2-2.1c.1-.5 0-1-.1-1.4-.2-.4-.4-.6-.6-.7s-.5-.2-.8-.2c-.6 0-1.1.2-1.3.6s-.3 1-.4 1.8c0 .6-.1 1.7-.1 3.3s.1 4 .4 7.4c.2 1.4.4 2.6.7 3.6.3 1.3.9 2.5 1.8 3.4.8 1 2.1 1.5 3.7 1.4 1.6 0 2.9-.6 3.8-1.6s1.5-2.3 2-3.9c.4-1.6.7-4.1.9-7.5s.1-5.6 0-6.6c0-.5-.2-1-.5-1.4zM93.6 13.8c-44 0-79.6 35.6-79.6 79.6 0 43.9 35.6 79.5 79.5 79.5S173 137.3 173 93.4c.1-44-35.5-79.6-79.4-79.6zm29.7 109.7c.4 4.6 1.7 10.1 4.8 17 0 0-10.8-2.4-18.4-11.6-4.6 1.2-9.5 1.8-14.6 1.8-28.4 0-51.6-19.4-51.6-43.3 0-24 23.2-43.4 51.7-43.4s51.6 19.4 51.6 43.3c0 15.2-9.3 28.6-23.5 36.2zm8.5-28.7c-.1-.2-.3-.3-.6-.4s-.6-.2-.9-.2c-.4 0-.8.2-1.2.5s-.6.9-.6 1.7c0 .4.1.7.2.9s.3.4.5.5.4.2.6.2.4.1.6.1c.5 0 .9-.1 1.2-.4s.5-.7.5-1.3V96c0-.2 0-.4-.1-.6 0-.2-.1-.4-.2-.6zm-.2-19.3c-1 0-2.1.3-3.2.8s-2.1 1.3-2.9 2.3l-.7.9c-.2.3-.4.7-.4 1 0 .1 0 .2.1.4l.2.5c.1.2.3.4.5.6s.5.3 1 .3c.4 0 .7-.1.9-.3s.4-.4.6-.7.3-.6.5-.9.4-.7.8-1 .8-.6 1.2-.8.8-.2 1.2-.2c.6 0 1.1.1 1.4.3.4.2.6.5.8.8s.3.6.4 1c.1.3.1.7.1 1v.3c0 .5-.2 1-.6 1.4l-1.3 1.2-1.5 1.2c-.5.4-.9.8-1.2 1.3-.4.6-.7 1.2-.9 1.6s-.3 1-.3 1.5c0 1.5.5 2.2 1.6 2.2.4 0 .7-.1.9-.4s.4-.6.4-1c.2-1.7 1.2-3.1 3.1-4.4.9-.7 1.6-1.4 2-2.4.4-.9.6-2 .6-3.3-.1-.7-.3-1.4-.6-2s-.7-1.2-1.2-1.6-1-.8-1.7-1.1-1.1-.5-1.8-.5z"/></svg>