<svg xmlns="http://www.w3.org/2000/svg" viewBox="0 0 186.9 187.2" fill="#eff4fb" xmlns:v="https://vecta.io/nano"><path d="M65.724 82.295l54.272-5.973.284 2.584-54.272 5.973zm-1.208-11.607l54.272-5.973.284 2.584L64.8 73.272zm-1.297-11.497l54.272-5.973.284 2.584-54.272 5.973zM56 52.7c-1.8-3.6-5.6-5.9-9.8-5.4-5.3.6-9.2 5.4-8.6 10.8.6 5.3 5.4 9.2 10.8 8.6l9.6-1.1-1.1-9.7c-.2-1.1-.5-2.2-.9-3.2zm-8 10.9c-3.6.4-6.9-2.2-7.3-5.8s2.2-6.9 5.8-7.3 6.9 2.2 7.3 5.8-2.2 6.9-5.8 7.3zm76.12 49.884l-54.272 5.973-.284-2.584 54.272-5.973zm-57.1-19.692l54.272-5.973.284 2.584-54.272 5.973zm1.296 11.497l54.272-5.973.284 2.584-54.272 5.973zM93.6 13.8c-44 0-79.6 35.6-79.6 79.6 0 43.9 35.6 79.5 79.5 79.5S173 137.3 173 93.4c.1-44-35.5-79.6-79.4-79.6zM144 141.6l-64.9 7.1c-6.6.7-12.5-4-13.2-10.6l-7.7-70.4-9.6 1.1c-6.6.7-12.5-4-13.2-10.6-.7-6.2 3.5-11.8 9.4-13-.4 0-.8 0-1.2.1l64.9-7.1c6.6-.7 12.5 4 13.2 10.6l7.7 70.4 11.9-1.3c6.6-.7 12.5 4 13.2 10.6.8 6.5-3.9 12.4-10.5 13.1zm-2.4-21.5l-54.7 6a13.98 13.98 0 0 1 4.9 9.3c.4 3.8-.7 7.3-2.8 10.1l54.7-6c5.3-.6 9.2-5.4 8.6-10.8-.5-5.4-5.3-9.2-10.7-8.6zm-57.2 26.7c-.8.5-1.6.9-2.5 1.3.9-.3 1.7-.8 2.5-1.3z"/><circle cx="77.8" cy="136.9" r="8.6"/></svg>