<?xml version="1.0" encoding="utf-8"?>
<!-- Generator: Adobe Illustrator 18.1.1, SVG Export Plug-In . SVG Version: 6.00 Build 0)  -->
<svg version="1.1" id="Layer_4_copy" xmlns="http://www.w3.org/2000/svg" xmlns:xlink="http://www.w3.org/1999/xlink" x="0px"
	 y="0px" viewBox="0 0 186.7 186.7" enable-background="new 0 0 186.7 186.7" xml:space="preserve">
<g>
	<rect x="0" y="0" fill="none" width="186.7" height="186.7"/>
	<path fill="#EEF4FB" d="M93.4,13.8c-43.9,0-79.5,35.6-79.5,79.5c0,43.9,35.6,79.5,79.5,79.5c43.9,0,79.5-35.6,79.5-79.5
		C172.9,49.4,137.3,13.8,93.4,13.8z M92.8,33.7c0.7,0,1.3,0,2,0c1.8,1.2,2.5,2.8,2.5,4.9c-0.1,3,0,6,0,9c0,2.7-1.5,4.4-3.5,4.4
		c-2.1,0-3.3-1.6-3.3-4.5c0-3.1,0.1-6.1,0-9.2C90.3,36.3,91,34.7,92.8,33.7z M41.9,64.8c2.2-2.4,3.2-2.6,6.3-1.3
		c2.9,1.2,5.8,2.4,8.7,3.7c2.3,1,3.2,2.8,2.5,4.6c-0.7,1.8-3.2,2.8-5.4,1.9c-3.5-1.5-6.9-3.1-10.3-4.8c-0.8-0.4-1.3-1.4-1.9-2.1
		C41.9,66.1,41.9,65.4,41.9,64.8z M57.5,97.6c-3.7,0.7-7.4,1.1-11.1,1.7c-2.1,0.3-3.5-0.8-4.5-2.5c0-0.5,0-1,0-1.5
		c1-1.9,2.7-2.6,4.7-2.9c2.6-0.4,5.1-0.9,7.7-1.3c0.8-0.1,1.6-0.2,2.4-0.2c2,0,3.6,0.8,3.8,2.9C60.7,95.9,59.4,97.3,57.5,97.6z
		 M62.6,41.2c1.1-0.4,3.4-0.3,3.9,0.4c2.7,3.6,5,7.5,7.4,11.3c0.2,0.3,0.1,0.6,0.3,1.5c-0.5,0.6-1.1,2-2,2.3c-1,0.3-3,0.2-3.5-0.5
		c-2.7-3.5-5.1-7.2-7.4-11C60.3,43.6,61.1,41.8,62.6,41.2z M102.7,148.5c-3.1,0-6.2,0-9.3,0c-3.7,0-7.5-0.1-11.2,0
		c-2,0-2.8-0.8-2.8-2.7c-0.2-5.3-0.2-5.3,5.2-5.3c6.6,0,13.2,0,19.8,0c3,0,3.2,0.2,3.3,3.1C107.7,148.5,107.7,148.5,102.7,148.5z
		 M102.7,137.6c-3.1,0-6.2,0-9.3,0c-3.7,0-7.5-0.1-11.2,0c-2,0-2.8-0.8-2.8-2.7c-0.2-5.3-0.2-5.3,5.2-5.3c6.6,0,13.2,0,19.8,0
		c3,0,3.2,0.2,3.3,3.1C107.7,137.6,107.7,137.6,102.7,137.6z M121.5,83.1c-0.3,5.3-1.8,10.3-4.3,15c-4,7.6-7.8,15.2-9.4,23.7
		c-0.6,3.3-1.2,3.5-4.7,3.5c-3.2,0-6.4,0-9.5,0c-3.7,0-7.3,0-11,0c-1.7,0-2.8-0.7-3.2-2.3c-0.5-1.9-1.1-3.7-1.5-5.6
		c-1.5-6.7-4.6-12.7-7.7-18.7c-3.2-6.3-5.2-12.9-4.4-20c1.1-9.7,6.3-16.3,15.5-19.5c8-2.7,16.2-2.7,24.2-0.1
		C116.1,62.7,122.1,72,121.5,83.1z M125.5,46.1c-1.9,3.1-3.8,6.2-5.9,9.1c-1.4,1.9-3.6,2.3-5.2,1.2c-1.6-1.1-1.9-3-0.5-5.2
		c1.8-2.9,3.6-6,5.8-8.7c0.9-1.1,2.9-1.7,4.4-1.6c0.9,0,1.7,1.8,2.4,2.6C126,44.7,125.8,45.5,125.5,46.1z M145.2,96.8
		c-1.1,2.1-2.9,2.8-5.2,2.5c-3.4-0.5-6.8-1-10.1-1.5c-2-0.3-3.4-2.2-3.1-4c0.4-2.1,1.8-3.1,3.9-2.8c3.9,0.5,7.9,1.2,11.7,2
		c1.1,0.2,1.9,1.6,2.8,2.4C145.2,95.8,145.2,96.3,145.2,96.8z M145.2,66.7c-1.1,1-2.1,2.1-3.4,2.8c-2.6,1.4-5.4,2.7-8.1,3.9
		c-2.6,1.2-5,0.5-5.9-1.6c-0.8-1.8,0.3-3.7,2.9-4.8c2.9-1.3,5.8-2.4,8.8-3.7c3-1.3,4-0.9,5.8,1.9C145.2,65.7,145.2,66.2,145.2,66.7z
		"/>
</g>
</svg>
