<svg xmlns="http://www.w3.org/2000/svg" viewBox="0 0 186.9 187.2" fill="#eff4fb" xmlns:v="https://vecta.io/nano"><path d="M141.3 82.4c-2.3 0-4.1.7-5.5 2.1s-2.2 3.4-2.4 5.9c-.1.5-.1 1.3-.1 2.1l.1 2.1c.2 2.3 1 4.2 2.4 5.6s3.2 2.1 5.5 2.1c2.4 0 4.2-.8 5.6-2.3 1.3-1.5 2.1-3.6 2.3-6.2v-3c-.2-2.6-.9-4.6-2.3-6.2-1.4-1.4-3.2-2.2-5.6-2.2zM40.7 95.7c-1.3.8-2 1.8-2 3.1 0 .4.1.8.3 1.2s.5.8.9 1.1c.4.4.9.6 1.5.9.6.2 1.4.3 2.3.3 1.3 0 2.5-.2 3.6-.6s2-.9 2.8-1.6 1.4-1.5 1.8-2.5.6-2.1.6-3.2v-1.3l-6.4 1c-2.2.2-4 .8-5.4 1.6z"/><path d="M93.6 13.8c-44 0-79.6 35.6-79.6 79.6 0 43.9 35.6 79.5 79.5 79.5S173 137.3 173 93.4c.1-44-35.5-79.6-79.4-79.6zm-36.2 91.1c0 .4-.1.7-.4 1s-.6.4-1 .4h-2c-.4 0-.7-.1-1-.4s-.4-.6-.4-1v-2.2c-.3.7-.8 1.3-1.5 1.8s-1.5 1-2.3 1.3c-.9.4-1.8.6-2.8.8s-1.8.3-2.7.3c-1.4 0-2.7-.2-3.9-.6s-2.2-.9-3-1.6-1.4-1.5-1.9-2.4-.7-1.9-.7-3c0-1.4.3-2.7.9-3.8s1.4-2 2.4-2.8 2.2-1.4 3.5-1.8c1.3-.5 2.8-.8 4.3-1.1l7.6-1.2v-.7c0-1.8-.6-3.2-1.8-4.1s-2.7-1.4-4.5-1.4c-1.6 0-2.8.3-3.6.9s-1.5 1.3-2.1 2.1c-.2.3-.5.5-.7.6s-.6.2-1 .2h-1.6c-.4 0-.7-.1-1.1-.4-.3-.3-.4-.6-.4-1 .1-.8.4-1.6.9-2.4.6-.8 1.3-1.6 2.3-2.2s2.1-1.2 3.3-1.6 2.6-.6 4-.6c1.6 0 3.1.2 4.5.7s2.6 1.2 3.6 2.1 1.8 2 2.3 3.3c.6 1.3.8 2.9.8 4.6v16.2zm64.7-10L100 117c-.4.4-.9.6-1.4.6s-1.1-.2-1.5-.7c-.7-.8-.5-2 .2-2.7L112 99.5H67c-1.2 0-2.1-1-1.9-2.2.1-1 1.1-1.6 2.1-1.6h48.7l2.1-2.1-2.1-2.1H67c-1.2 0-2.1-1-1.9-2.2.1-1 1.1-1.6 2.1-1.6H112L97.8 73.4c-.7-.7-.8-1.8-.3-2.6.7-1 2.1-1.1 2.9-.2L122 92.2c.4.4.6.9.6 1.4s-.2 1-.5 1.3zm30.9 4.5c-.6 1.6-1.5 2.9-2.6 4.1-1.1 1.1-2.3 2-3.8 2.6a12.29 12.29 0 0 1-4.7.9c-2.2 0-4-.4-5.3-1.1s-2.4-1.6-3.1-2.6v1.7c0 .4-.1.7-.4 1s-.6.4-1 .4h-2c-.4 0-.7-.1-1-.4s-.4-.6-.4-1V69.5c0-.4.1-.7.4-1s.6-.4 1-.4h2c.4 0 .7.1 1 .4s.4.6.4 1v11.9c.7-.9 1.7-1.7 3-2.5s3.1-1.2 5.3-1.2c1.7 0 3.3.3 4.7.9s2.7 1.4 3.8 2.5 1.9 2.4 2.6 4a17.83 17.83 0 0 1 1.1 5.3c0 .5.1 1.1.1 1.8 0 .6 0 1.2-.1 1.8 0 2.1-.4 3.8-1 5.4z"/></svg>