<?xml version="1.0" encoding="utf-8"?>
<!-- Generator: Adobe Illustrator 18.1.1, SVG Export Plug-In . SVG Version: 6.00 Build 0)  -->
<svg version="1.1" id="Layer_4_copy" xmlns="http://www.w3.org/2000/svg" xmlns:xlink="http://www.w3.org/1999/xlink" x="0px"
	 y="0px" viewBox="0 0 186.7 186.7" enable-background="new 0 0 186.7 186.7" xml:space="preserve">
<g>
	<rect x="0" y="0" fill="none" width="186.7" height="186.7"/>
	<path fill="#EEF4FB" d="M93.4,13.8c-43.9,0-79.5,35.6-79.5,79.5c0,43.9,35.6,79.5,79.5,79.5c43.9,0,79.5-35.6,79.5-79.5
		C172.9,49.4,137.3,13.8,93.4,13.8z M136.8,65.4c-5.5,0-10.9-0.1-16.4-0.1c-1.3,0-5.2-0.5-5.9,0.3c-0.9,1-0.2,6.2-0.3,7.8
		c-0.6,9.7-2,19.4-2.5,29.2c-0.3,7.1-1.4,20,7.2,22.9c3.6,1.2,8.1,0.5,10.9-2.2c1.6-1.5,2.5-3.5,3-5.6c0.2-0.8,0.1-3.2,0.5-3.6
		c0.4-0.4,3,0,3.5,0c0,9.5-4.7,21.4-14,25.4c-9.7,4.1-21.2-0.8-24.3-10.9c-1.6-5.2-1-10.8-0.7-16.1c0.3-5.2,0.8-10.5,1.2-15.7
		c1-10.6,2.2-21.2,2.8-31.8c-4.1,0-8.2,0-12.3,0c-1.8,0-3.6,0-5.5,0c-3.4,0-2.8,0.1-3,3.4c-0.6,7.1-1.2,14.3-1.8,21.4
		c-0.7,7.7-1.3,15.5-2.3,23.2c-0.9,7.4-1.7,16-5.8,22.4c-3.4,5.2-10.3,7.4-15.7,3.7c-2.5-1.7-4.2-4.6-4.4-7.7c-0.3-3.9,2.2-7,4.4-10
		c4.5-6.3,8.6-12.6,11.3-19.8c2.8-7.7,4.4-15.8,5.2-23.9c0.2-2.3,0.4-4.5,0.5-6.8c0.1-1.1,0.9-4.9,0.2-5.7c-0.6-0.7-4.8-0.3-5.8-0.3
		c-2.2,0-4.5,0.3-6.7,0.9c-3.4,1-6.3,2.8-8.5,5.6c-1.4,1.8-2.3,3.8-3.6,5.7c-1.4,2-2,1.5-4.5,1.3c2.9-8.1,5.5-20.1,14.2-24
		c8.9-4,20.6-3.3,30.2-3.4c11.1-0.1,22.2,0,33.3,0c2.8,0,5.5,0,8.3,0c1,0,6.6-0.6,7.2,0c0.7,0.7,0.1,6.4,0.1,7.4
		C136.8,60.9,136.8,63.2,136.8,65.4z"/>
</g>
</svg>
