<svg xmlns="http://www.w3.org/2000/svg" viewBox="0 0 186.7 186.7" xmlns:v="https://vecta.io/nano"><path fill="#eef4fb" d="M93.4 13.8c-43.9 0-79.5 35.6-79.5 79.5s35.6 79.5 79.5 79.5 79.5-35.6 79.5-79.5-35.6-79.5-79.5-79.5zm43.4 51.6c-5.5 0-10.9-.1-16.4-.1-1.3 0-5.2-.5-5.9.3-.9 1-.2 6.2-.3 7.8-.6 9.7-2 19.4-2.5 29.2-.3 7.1-1.4 20 7.2 22.9 3.6 1.2 8.1.5 10.9-2.2 1.6-1.5 2.5-3.5 3-5.6.2-.8.1-3.2.5-3.6s3 0 3.5 0c0 9.5-4.7 21.4-14 25.4-9.7 4.1-21.2-.8-24.3-10.9-1.6-5.2-1-10.8-.7-16.1.3-5.2.8-10.5 1.2-15.7 1-10.6 2.2-21.2 2.8-31.8H89.5 84c-3.4 0-2.8.1-3 3.4l-1.8 21.4c-.7 7.7-1.3 15.5-2.3 23.2-.9 7.4-1.7 16-5.8 22.4-3.4 5.2-10.3 7.4-15.7 3.7-2.5-1.7-4.2-4.6-4.4-7.7-.3-3.9 2.2-7 4.4-10 4.5-6.3 8.6-12.6 11.3-19.8 2.8-7.7 4.4-15.8 5.2-23.9.2-2.3.4-4.5.5-6.8.1-1.1.9-4.9.2-5.7-.6-.7-4.8-.3-5.8-.3-2.2 0-4.5.3-6.7.9-3.4 1-6.3 2.8-8.5 5.6-1.4 1.8-2.3 3.8-3.6 5.7-1.4 2-2 1.5-4.5 1.3 2.9-8.1 5.5-20.1 14.2-24 8.9-4 20.6-3.3 30.2-3.4h33.3 8.3c1 0 6.6-.6 7.2 0 .7.7.1 6.4.1 7.4v7z"/></svg>