<svg xmlns="http://www.w3.org/2000/svg" viewBox="0 0 186.9 187.2" fill="#e9f1fb" xmlns:v="https://vecta.io/nano"><path d="M107.7 61.4c-1.2 0-2.2.7-2.6 1.6a1.69 1.69 0 0 1 1-.3c1 0 1.8.7 1.8 1.6s-.8 1.6-1.8 1.6h-.3c.5.4 1.2.7 1.9.7 1.6 0 2.8-1.2 2.8-2.6 0-1.5-1.3-2.6-2.8-2.6zM93.6 13.8c-44 0-79.6 35.6-79.6 79.6 0 43.9 35.6 79.5 79.5 79.5S173 137.3 173 93.4c.1-44-35.5-79.6-79.4-79.6zm-6.7 16c1.7-1.8 3.6-3.1 6.2-3.2 3.2-.2 5.8 1 7.8 3.3 2.4 2.8 2.5 6 1 9.1-.6 1.3-2.2 2.3-3.6 3.2-.7.5-1 .8-.9 1.6v.4L97 75.5h-5.9l-.4-30c0-.4-.1-.8 0-1.2.2-1.2-.3-1.8-1.5-2.4-4.4-2.2-6.2-8.2-2.3-12.1zM57 47.9c-4.8.6-6.6-1.1-7.7-3.7h1c3.9 0 7.7-.1 11.6-.2 2.8-.1 5.7-.2 8.5-.5 2.8-.2 5.5-.9 8.1-1.8 1.6-.6 3.3-.8 4.9-.4.7.2 1.2.8 1.7 1.3.4.4.5 1 .8 1.4.6.8 1.6.9 2.8.8v4.6 5.7c0 .5-.2.7-.8.8-2.6.5-5.2.7-7.9.6-2.1-.1-3.9-.8-5.5-2-.3-.2-.6-.6-.7-1-.3-.5-.6-.5-1.1-.2-2 1.3-4.3 1.3-6.6.6-1.4-.4-2.1-1.5-2.6-2.5-.3-.5-.5-.7-1.1-.7-.9 0-1.8-.1-2.8-.1-1.8-.1-2.3-1.2-2.7-2.4.1 0 .1-.2.1-.3zm.7 23.5c-.7-2.9-.4-5.8 1.7-8.4 2.9-3.4 6.9-4.5 11.2-4.9 3.4-.3 6.8-.7 10.1.3 3.5 1 6.1 4.3 6.4 7.6.2 1.8-.8 3.1-2.6 3.6 2.8 2.5 5.6 3.1 5.6 3.1-1.1.6-3.9-.1-3.9-.1.9 1.4-.1 3.4-.1 3.4s-1.2-3.2-3.2-6.2c-2 .2-4.1.5-6-.3-1.5-.6-2.9-1.5-4.2-2.4-1.5-1.1-3.1-.8-4.7-.5-.4.1-.8.8-1 1.3-.4 1.4.7 3.4 2 4.1 4.1 2.3 8.7 3.4 13.4 4.1.7.1 1.4.2 2.3.4-5.1 1.4-9.6 3.5-13.2 7.4-2.7-1.6-5.7-3-8.3-4.8-2.7-2-4.7-4.6-5.5-7.7zm21.4 79.3c-.1-.2-.2-.3-.3-.5 1-.8 2-1.7 3.1-2.4 3.8-2.3 7.7-4.4 11.5-6.7 1.2-.7 2.4-1.5 3.4-2.4 1.4-1.3 1.3-1.9 0-3.4-.9 2.4-3.2 3.3-5.3 4.4-.1-.2-.1-.2-.1-.3-.2-3.5.2-3.8 4.6-4.4 3.7-.5 7-1.9 10.2-4 1.7 1.4 1 3.3.8 5-.3 2.1-1.9 3.6-3.8 4.6-3.3 1.7-6.6 3.3-10 4.8s-7 2.8-10.5 4.2c-1.3.5-2.5.7-3.6 1.1zm30-.8c-4.5.1-8.2-2.5-12.5-3.5 0 .5-.1.9-.1 1.4l-1 14.2c0 .4-.9 1.1-1.4 1.1s-1.4-.6-1.5-1c-.5-4.2-.9-8.4-1.3-12.6-.1-1.1.5-1.4 1.4-1.8 3-1.2 6.1-2.5 9.3-3.9l7.4 5.5c-.1.3-.2.5-.3.6zm4-27c-1.8 4.7-5.8 6.7-10.4 8.2-4.2 1.4-8.5 2.6-12.5 4.4-2.5 1.1-2.9 2.7-1.2 5.6-2.3 1.4-2 1.2-4.7 2.7-1.8-.9-4.7-5-5-7.3-.5-4.5 1.3-4.9 4.4-7 3.9-2.6 8.7-3.3 12.9-5.1 1.7-.7 3.3-1.5 4.7-2.5 1.4-.9 1.4-3.4.1-4.6s-2.8-2.2-4.3-3.3a.76.76 0 0 1-.4.2v7.8c-1.9.7-3.6 1.3-5.6 1.9v-7.5c0-.3.5-.8.9-.9l8.2-2.7 6.9-2.5c.5-.2 1.3-.3 1.7-.1 3.9 2.2 5.8 8.8 4.3 12.7zm1.7-20.1c-3.4 2.9-7.1 5-11.2 6.5-4.2 1.5-8.6 2.5-12.8 4-2.3.8-4.7 2.1-4.9 4.9s1.8 4.5 4.8 5.7c-3.8 1.1-7.4 2.3-10.3 4.9-3.4-1.9-6.1-4.5-7-8.2-.8-3.2.4-6.1 2.8-8.5 3.9-3.9 8.7-6.2 14-8 2.3-.8 4.7-1.2 6.9-2.2 2.9-1.3 5.7-2.9 7.2-5.8.9-1.7.5-4.2-1.8-5.6-.3-.2-.6-.4-1.1-.8 4.6-.3 8.7-.7 12.5-2.4 1.1-.5 1.8-.4 2.5.7 2.4 4 2.9 11-1.6 14.8zM91.1 101V90.8l6.1-.7-.5 9.2c-1.7.6-3.6 1.1-5.6 1.7zm39.1-30.2c-.8 4-3.5 6.5-6.5 8.8-2 1.6-4.3 3-6.7 4-4.5 1.9-9.1 3.2-14 3.7-4.5.4-8.9.9-13.4 1.5-1.5.2-3 .8-4.3 1.6-2.5 1.5-2.9 5-1.2 7.3 1.3 1.8 3.1 3 5.2 3.6l-11.4 5.5c-2.7-1.2-5.4-3.3-7.1-6.1C68.2 96.4 69.4 92 72 88c2.4-3.8 6.1-6.3 10.5-8.1 4.7-1.9 9.4-2.1 14.4-2.3 7.3-.3 14.4-1.6 21-4.6 2.2-1 3.1-2.4 2.8-4.7-.1-1-.6-1.4-1.8-1.5-2.6-.3-4.4 1.1-6.2 2.4-2 1.3-4.2 1.5-6.5 1.4-.3 0-.6-.1-.8-.1-1.9 2.9-3 5.8-3 5.8s-1-2-.1-3.4c0 0-2.8.7-3.9.1 0 0 2.6-.6 5.2-2.8-2.5-.6-3.4-2.3-2.6-4.9 1.3-4.1 5.2-7 10-6.9 4.3.1 8.6.2 12.7 1.8 4 1.3 7.6 5.6 6.5 10.6zm1-22.9c0 .1 0 .3-.1.4-.4 1.2-.9 2.3-2.7 2.4-.9.1-1.8.1-2.8.1-.6 0-.8.2-1.1.7-.5 1-1.2 2.1-2.6 2.5-2.3.7-4.6.7-6.6-.6-.5-.3-.8-.3-1.1.2-.2.3-.4.7-.7 1-1.6 1.2-3.4 1.9-5.5 2-2.7.1-5.3-.1-7.9-.6-.6-.1-.8-.3-.8-.8v-5.7-4.6c1.2.1 2.2 0 2.8-.8.3-.4.4-1 .8-1.4.5-.5 1-1.2 1.7-1.3 1.7-.4 3.3-.2 4.9.4 2.6.9 5.3 1.6 8.1 1.8l8.5.5 11.6.2h1c-.9 2.5-2.7 4.2-7.5 3.6zM80.5 66.6c.7 0 1.4-.3 1.9-.7h-.3c-1 0-1.8-.7-1.8-1.6s.8-1.6 1.8-1.6a1.69 1.69 0 0 1 1 .3c-.4-.9-1.4-1.6-2.6-1.6-1.6 0-2.8 1.2-2.8 2.6 0 1.5 1.3 2.6 2.8 2.6z"/></svg>