<?xml version="1.0" encoding="utf-8"?>
<!-- Generator: Adobe Illustrator 18.1.1, SVG Export Plug-In . SVG Version: 6.00 Build 0)  -->
<svg version="1.1" id="Layer_4_copy" xmlns="http://www.w3.org/2000/svg" xmlns:xlink="http://www.w3.org/1999/xlink" x="0px"
	 y="0px" viewBox="0 0 186.7 186.7" enable-background="new 0 0 186.7 186.7" xml:space="preserve">
<g>
	<rect x="0" y="0" fill="none" width="186.7" height="186.7"/>
	<path fill="#EEF4FB" d="M93.4,13.8c-43.9,0-79.5,35.6-79.5,79.5c0,43.9,35.6,79.5,79.5,79.5c43.9,0,79.5-35.6,79.5-79.5
		C172.9,49.4,137.3,13.8,93.4,13.8z M135,146.4v3.9h-3.9H55.7h-3.9v-3.9V138c0-2.1,1.7-3.9,3.9-3.9h29.8c-8-2.4-14.7-7.6-19-14.5
		H50.1V113h13.2h14h14.4v6.7h-8.2c3.4,2.4,7.5,3.7,12,3.7c11.6,0,21.1-9.4,21.1-21.1c0-4.4-1.3-8.5-3.7-11.8c-1,0.2-2.1,0.3-3.2,0.3
		c-5.6,0-10.5-3.1-13.1-7.7l-6.8,11l5.5,3.4l-5.5,9L61.3,89l5.5-9l5.5,3.4l24.4-39.6c1.3-2.1,4.6-4,7.9-2.2l8.1-13.2l8,4.9
		l-8.1,13.2c3.1,2.2,2.9,6,1.6,8.1l-3.8,6.2c8,0.3,14.4,6.9,14.4,15c0,2.5-0.6,4.9-1.7,7c4.1,5.5,6.5,12.2,6.5,19.5
		c0,15-10.1,27.6-23.9,31.8h25.6c2.1,0,3.9,1.7,3.9,3.9V146.4z"/>
</g>
</svg>
