<svg xmlns="http://www.w3.org/2000/svg" viewBox="0 0 186.7 186.7" xmlns:v="https://vecta.io/nano"><path fill="#eef4fb" d="M93.4 13.8c-43.9 0-79.5 35.6-79.5 79.5s35.6 79.5 79.5 79.5 79.5-35.6 79.5-79.5-35.6-79.5-79.5-79.5zM135 146.4v3.9h-3.9-75.4-3.9v-3.9-8.4c0-2.1 1.7-3.9 3.9-3.9h29.8c-8-2.4-14.7-7.6-19-14.5H50.1V113h13.2 14 14.4v6.7h-8.2c3.4 2.4 7.5 3.7 12 3.7 11.6 0 21.1-9.4 21.1-21.1 0-4.4-1.3-8.5-3.7-11.8-1 .2-2.1.3-3.2.3-5.6 0-10.5-3.1-13.1-7.7l-6.8 11 5.5 3.4-5.5 9L61.3 89l5.5-9 5.5 3.4 24.4-39.6c1.3-2.1 4.6-4 7.9-2.2l8.1-13.2 8 4.9-8.1 13.2c3.1 2.2 2.9 6 1.6 8.1l-3.8 6.2c8 .3 14.4 6.9 14.4 15 0 2.5-.6 4.9-1.7 7 4.1 5.5 6.5 12.2 6.5 19.5 0 15-10.1 27.6-23.9 31.8h25.6c2.1 0 3.9 1.7 3.9 3.9v8.4z"/></svg>