<svg xmlns="http://www.w3.org/2000/svg" viewBox="0 0 186.7 186.7" xmlns:v="https://vecta.io/nano"><path fill="#eef4fb" d="M93.4 13.8c-43.9 0-79.5 35.6-79.5 79.5s35.6 79.5 79.5 79.5 79.5-35.6 79.5-79.5-35.6-79.5-79.5-79.5zm43.1 106.6v.1h0c-1 5.9-7.2 11.3-15.6 12.9-9.9 1.8-19-2.4-20.3-9.5s5.6-14.3 15.5-16.2c4.7-.9 9.3-.3 12.9 1.2V61.4l-52.8 6.8v58c.2 1 .1 2 0 2.9v.1h0c-1 5.9-7.2 11.3-15.6 12.9-9.9 1.8-19-2.4-20.3-9.5s5.6-14.3 15.5-16.2c4.7-.9 9.3-.3 12.9 1.2V50.8l67.7-8.7v75.4c.3 1 .3 1.9.1 2.9z"/></svg>