<?xml version="1.0" encoding="utf-8"?>
<!-- Generator: Adobe Illustrator 18.1.1, SVG Export Plug-In . SVG Version: 6.00 Build 0)  -->
<svg version="1.1" id="Layer_4_copy" xmlns="http://www.w3.org/2000/svg" xmlns:xlink="http://www.w3.org/1999/xlink" x="0px"
	 y="0px" viewBox="0 0 186.7 186.7" enable-background="new 0 0 186.7 186.7" xml:space="preserve">
<g>
	<rect x="0" y="0" fill="none" width="186.7" height="186.7"/>
	<g>
		<path fill="#EEF4FB" d="M94.7,54.7c-4.1,0-7.5,1.1-10.1,3.3c-2.7,2.2-4,5.2-4,8.9c0,2.5,1.1,3.8,3.4,3.8h2c0.9,0,1.4-0.3,1.7-0.8
			c0.1-0.3,0.2-0.9,0.2-1.9c0-4.5,2.3-6.8,6.9-6.8c2.2,0,4,0.9,5.3,2.6c0.6,0.8,1,1.6,1.3,2.6c0.3,1,0.4,2.1,0.4,3.3
			c0,1.2-0.3,2.5-0.8,3.9c-0.3,0.8-0.7,1.6-1.2,2.4c-0.5,0.8-1.3,1.8-2.3,2.9s-2.7,2.4-5.1,3.8c-0.8,0.5-1.4,0.9-1.9,1.3
			c-0.5,0.4-0.7,0.8-0.7,1.3c0,0.4,0.2,1,0.5,1.8c0.3,0.8,0.8,1.4,1.3,1.9c0.2,0.2,0.4,0.3,0.6,0.4c0.2,0.1,0.4,0.1,0.6,0.1
			s0.5-0.1,0.8-0.2c4.5-1.9,8.2-4.5,11.1-7.7c3.4-3.8,5.1-8,5.1-12.4c0-4.4-1.2-7.8-3.7-10.4C103.5,56,99.7,54.7,94.7,54.7z"/>
		<path fill="#EEF4FB" d="M93.9,95.1c-1.5,0-2.8,0.5-3.8,1.6c-1.1,1.1-1.6,2.4-1.6,3.9c0,1.5,0.5,2.8,1.6,3.9c1,1.1,2.3,1.6,3.8,1.6
			c1.5,0,2.7-0.5,3.8-1.6c1-1.1,1.6-2.4,1.6-3.9c0-1.5-0.5-2.8-1.6-3.9C96.6,95.6,95.4,95.1,93.9,95.1z"/>
		<path fill="#EEF4FB" d="M93.4,13.8c-43.9,0-79.5,35.6-79.5,79.5c0,43.9,35.6,79.5,79.5,79.5s79.5-35.6,79.5-79.5
			C172.9,49.4,137.3,13.8,93.4,13.8z M50.9,143.1c-3.3,0-5.9-2.6-5.9-5.9s2.6-5.9,5.9-5.9c3.3,0,5.9,2.6,5.9,5.9
			S54.1,143.1,50.9,143.1z M67.7,137.2c-4.9,0-8.9-4-8.9-8.9c0-4.9,4-8.9,8.9-8.9s8.9,4,8.9,8.9C76.6,133.2,72.6,137.2,67.7,137.2z
			 M120.9,123.7c-6.1,0-11.6-2.2-16-5.7c-3.7,2.8-8.3,4.5-13.4,4.5c-8,0-15.1-4.3-18.9-10.7c-2.7,1.6-5.8,2.5-9.2,2.5
			c-10.1,0-18.4-8.2-18.4-18.4c0-8.7,6-15.9,14.1-17.8c-0.9-1.4-1.6-2.9-2.1-4.5C52.3,60,61.5,44.5,77.5,39
			c12.8-4.4,26.1-1.1,33.3,7.4c3-1.6,6.5-2.5,10.2-2.5c11.5,0,20.8,8.6,20.8,19.3c0,5-2.1,9.6-5.5,13c6.3,4.8,10.4,12.5,10.4,21.1
			C146.6,111.9,135,123.7,120.9,123.7z"/>
	</g>
</g>
</svg>
