<svg xmlns="http://www.w3.org/2000/svg" viewBox="0 0 186.7 186.7" fill="#eef4fb" xmlns:v="https://vecta.io/nano"><path d="M94.7 54.7c-4.1 0-7.5 1.1-10.1 3.3-2.7 2.2-4 5.2-4 8.9 0 2.5 1.1 3.8 3.4 3.8h2c.9 0 1.4-.3 1.7-.8.1-.3.2-.9.2-1.9 0-4.5 2.3-6.8 6.9-6.8 2.2 0 4 .9 5.3 2.6.6.8 1 1.6 1.3 2.6s.4 2.1.4 3.3-.3 2.5-.8 3.9c-.3.8-.7 1.6-1.2 2.4s-1.3 1.8-2.3 2.9-2.7 2.4-5.1 3.8c-.8.5-1.4.9-1.9 1.3s-.7.8-.7 1.3c0 .4.2 1 .5 1.8s.8 1.4 1.3 1.9c.2.2.4.3.6.4s.4.1.6.1.5-.1.8-.2c4.5-1.9 8.2-4.5 11.1-7.7 3.4-3.8 5.1-8 5.1-12.4s-1.2-7.8-3.7-10.4c-2.6-2.8-6.4-4.1-11.4-4.1zm-.8 40.4c-1.5 0-2.8.5-3.8 1.6a5.28 5.28 0 0 0-1.6 3.9 5.28 5.28 0 0 0 1.6 3.9c1 1.1 2.3 1.6 3.8 1.6s2.7-.5 3.8-1.6c1-1.1 1.6-2.4 1.6-3.9a5.28 5.28 0 0 0-1.6-3.9c-1.1-1.1-2.3-1.6-3.8-1.6zm-.5-81.3c-43.9 0-79.5 35.6-79.5 79.5s35.6 79.5 79.5 79.5 79.5-35.6 79.5-79.5-35.6-79.5-79.5-79.5zM50.9 143.1c-3.3 0-5.9-2.6-5.9-5.9s2.6-5.9 5.9-5.9 5.9 2.6 5.9 5.9-2.7 5.9-5.9 5.9zm16.8-5.9c-4.9 0-8.9-4-8.9-8.9s4-8.9 8.9-8.9 8.9 4 8.9 8.9-4 8.9-8.9 8.9zm53.2-13.5c-6.1 0-11.6-2.2-16-5.7-3.7 2.8-8.3 4.5-13.4 4.5-8 0-15.1-4.3-18.9-10.7-2.7 1.6-5.8 2.5-9.2 2.5-10.1 0-18.4-8.2-18.4-18.4 0-8.7 6-15.9 14.1-17.8a18.47 18.47 0 0 1-2.1-4.5C52.3 60 61.5 44.5 77.5 39c12.8-4.4 26.1-1.1 33.3 7.4 3-1.6 6.5-2.5 10.2-2.5 11.5 0 20.8 8.6 20.8 19.3 0 5-2.1 9.6-5.5 13 6.3 4.8 10.4 12.5 10.4 21.1-.1 14.6-11.7 26.4-25.8 26.4z"/></svg>