<svg xmlns="http://www.w3.org/2000/svg" viewBox="0 0 186.7 186.7" fill="#eef4fb" xmlns:v="https://vecta.io/nano"><path d="M108.4 57.8c-3.9-12.7-9.7-20.3-15-20.3s-11 7.4-14.9 19.9c4.9 1.5 9.9 3.5 15.2 5.9 5-2.3 10-4.1 14.7-5.5zm-23.1 9.5l-8.6-3.1-1.7 8.9 5.3-3.1c1.6-1 3.3-1.9 5-2.7zm-5.5 49.2l-4.9-3c.4 3 1 5.9 1.6 8.6l8.3-2.8-5-2.8zM59.7 93.1l6.9 6-.1-5.7.1-6.1-6.9 5.8zm47.2-22.9l4.9 3c-.4-3-1-5.9-1.6-8.6l-8.3 2.8 5 2.8zM78.3 129c3.9 12.7 9.7 20.3 15 20.3s11-7.4 14.9-19.9c-4.9-1.5-9.9-3.5-15.2-5.9-5 2.2-9.9 4.1-14.7 5.5zM54.7 98c-8.9 9.5-12.6 18.1-10 22.8s12.1 6 25.1 3.2c-1.1-4.8-1.9-10-2.5-15.6-4.7-3.4-9-6.9-12.6-10.4zm-9.6-32.9c-2.7 4.6.9 13.3 9.6 22.9 3.7-3.4 7.9-6.7 12.5-10 .6-5.6 1.4-10.9 2.5-15.8-12.6-2.8-21.9-1.7-24.6 2.9zm58.3 11.1c-3.3-1.9-6.6-3.7-9.8-5.3-3.2 1.5-6.6 3.2-9.9 5.1-3.5 2-6.7 4-9.7 6-.3 3.6-.4 7.4-.4 11.4 0 3.9.1 7.6.4 11.1 2.9 2 6.1 4 9.4 6 3.3 1.9 6.6 3.7 9.8 5.3 3.2-1.5 6.6-3.2 9.9-5.1 3.4-1.9 6.7-3.9 9.7-5.9.3-3.6.4-7.4.4-11.4 0-3.9-.1-7.6-.4-11.1-2.9-2.1-6.1-4.1-9.4-6.1zm-10 25.9a8.71 8.71 0 0 1-8.7-8.7 8.71 8.71 0 0 1 8.7-8.7 8.71 8.71 0 0 1 8.7 8.7 8.71 8.71 0 0 1-8.7 8.7zm8.1 17.4l8.6 3.1 1.7-8.9-5.3 3.1-5 2.7zM127 93.7l-6.9-6 .1 5.7-.1 6.1 6.9-5.8zm-10-30.9c1.1 4.8 1.9 10 2.5 15.6a139.43 139.43 0 0 1 12.6 10.3c8.9-9.5 12.6-18.1 10-22.8-2.6-4.6-12.1-5.9-25.1-3.1zm-23.6-49c-43.9 0-79.5 35.6-79.5 79.5s35.6 79.5 79.5 79.5 79.5-35.6 79.5-79.5-35.6-79.5-79.5-79.5zm54.3 111.3c-4.6 7.9-16.9 9.7-32.6 6.1-4.8 15.4-12.6 25-21.7 25-9.2 0-17.1-9.8-21.9-25.5-16 3.5-28.4 1.5-33-6.6-4.5-8 .1-19.5 11.2-31.2-10.9-11.8-15.2-23.4-10.6-31.3s16.9-9.7 32.6-6.1c4.8-15.4 12.6-25 21.7-25 9.2 0 17.1 9.8 21.9 25.5 16-3.5 28.4-1.5 33 6.6 4.5 8-.1 19.5-11.2 31.2 10.8 11.9 15.2 23.5 10.6 31.3zm-28.2-16.5c-.6 5.6-1.4 10.9-2.5 15.8 12.7 2.9 22 1.8 24.7-2.8s-.9-13.3-9.6-22.9c-3.8 3.3-8 6.7-12.6 9.9z"/></svg>