<?xml version="1.0" encoding="utf-8"?>
<!-- Generator: Adobe Illustrator 18.1.1, SVG Export Plug-In . SVG Version: 6.00 Build 0)  -->
<svg version="1.1" id="Layer_4_copy" xmlns="http://www.w3.org/2000/svg" xmlns:xlink="http://www.w3.org/1999/xlink" x="0px"
	 y="0px" viewBox="0 0 186.7 186.7" enable-background="new 0 0 186.7 186.7" xml:space="preserve">
<g>
	<rect x="0" y="0" fill="none" width="186.7" height="186.7"/>
	<g>
		<path fill="#EEF4FB" d="M108.4,57.8c-3.9-12.7-9.7-20.3-15-20.3c-5.3,0-11,7.4-14.9,19.9c4.9,1.5,9.9,3.5,15.2,5.9
			C98.7,61,103.7,59.2,108.4,57.8z"/>
		<path fill="#EEF4FB" d="M85.3,67.3c-3-1.2-5.9-2.2-8.6-3.1c-0.6,2.8-1.2,5.8-1.7,8.9c1.7-1,3.5-2.1,5.3-3.1
			C81.9,69,83.6,68.1,85.3,67.3z"/>
		<path fill="#EEF4FB" d="M79.8,116.5c-1.7-1-3.3-2-4.9-3c0.4,3,1,5.9,1.6,8.6c2.7-0.8,5.4-1.7,8.3-2.8
			C83.2,118.4,81.5,117.5,79.8,116.5z"/>
		<path fill="#EEF4FB" d="M59.7,93.1c2.1,2,4.4,4,6.9,6c-0.1-1.9-0.1-3.8-0.1-5.7c0-2.1,0-4.1,0.1-6.1
			C64.1,89.2,61.8,91.1,59.7,93.1z"/>
		<path fill="#EEF4FB" d="M106.9,70.2c1.7,1,3.3,2,4.9,3c-0.4-3-1-5.9-1.6-8.6c-2.7,0.8-5.4,1.7-8.3,2.8
			C103.6,68.3,105.3,69.2,106.9,70.2z"/>
		<path fill="#EEF4FB" d="M78.3,129c3.9,12.7,9.7,20.3,15,20.3c5.3,0,11-7.4,14.9-19.9c-4.9-1.5-9.9-3.5-15.2-5.9
			C88,125.7,83.1,127.6,78.3,129z"/>
		<path fill="#EEF4FB" d="M54.7,98c-8.9,9.5-12.6,18.1-10,22.8c2.6,4.7,12.1,6,25.1,3.2c-1.1-4.8-1.9-10-2.5-15.6
			C62.6,105,58.3,101.5,54.7,98z"/>
		<path fill="#EEF4FB" d="M45.1,65.1c-2.7,4.6,0.9,13.3,9.6,22.9c3.7-3.4,7.9-6.7,12.5-10c0.6-5.6,1.4-10.9,2.5-15.8
			C57.1,59.4,47.8,60.5,45.1,65.1z"/>
		<path fill="#EEF4FB" d="M103.4,76.2c-3.3-1.9-6.6-3.7-9.8-5.3c-3.2,1.5-6.6,3.2-9.9,5.1C80.2,78,77,80,74,82
			c-0.3,3.6-0.4,7.4-0.4,11.4c0,3.9,0.1,7.6,0.4,11.1c2.9,2,6.1,4,9.4,6c3.3,1.9,6.6,3.7,9.8,5.3c3.2-1.5,6.6-3.2,9.9-5.1
			c3.4-1.9,6.7-3.9,9.7-5.9c0.3-3.6,0.4-7.4,0.4-11.4c0-3.9-0.1-7.6-0.4-11.1C109.9,80.2,106.7,78.2,103.4,76.2z M93.4,102.1
			c-4.8,0-8.7-3.9-8.7-8.7c0-4.8,3.9-8.7,8.7-8.7c4.8,0,8.7,3.9,8.7,8.7C102.1,98.2,98.2,102.1,93.4,102.1z"/>
		<path fill="#EEF4FB" d="M101.5,119.5c3,1.2,5.9,2.2,8.6,3.1c0.6-2.8,1.2-5.8,1.7-8.9c-1.7,1-3.5,2.1-5.3,3.1
			C104.8,117.7,103.2,118.6,101.5,119.5z"/>
		<path fill="#EEF4FB" d="M127,93.7c-2.1-2-4.4-4-6.9-6c0.1,1.9,0.1,3.8,0.1,5.7c0,2.1,0,4.1-0.1,6.1
			C122.6,97.5,124.9,95.6,127,93.7z"/>
		<path fill="#EEF4FB" d="M117,62.8c1.1,4.8,1.9,10,2.5,15.6c4.7,3.4,8.9,6.9,12.6,10.3c8.9-9.5,12.6-18.1,10-22.8
			C139.5,61.3,130,60,117,62.8z"/>
		<path fill="#EEF4FB" d="M93.4,13.8c-43.9,0-79.5,35.6-79.5,79.5c0,43.9,35.6,79.5,79.5,79.5c43.9,0,79.5-35.6,79.5-79.5
			C172.9,49.4,137.3,13.8,93.4,13.8z M147.7,125.1c-4.6,7.9-16.9,9.7-32.6,6.1c-4.8,15.4-12.6,25-21.7,25c-9.2,0-17.1-9.8-21.9-25.5
			c-16,3.5-28.4,1.5-33-6.6c-4.5-8,0.1-19.5,11.2-31.2C38.8,81.1,34.5,69.5,39.1,61.6c4.6-7.9,16.9-9.7,32.6-6.1
			c4.8-15.4,12.6-25,21.7-25c9.2,0,17.1,9.8,21.9,25.5c16-3.5,28.4-1.5,33,6.6c4.5,8-0.1,19.5-11.2,31.2
			C147.9,105.7,152.3,117.3,147.7,125.1z"/>
		<path fill="#EEF4FB" d="M119.5,108.6c-0.6,5.6-1.4,10.9-2.5,15.8c12.7,2.9,22,1.8,24.7-2.8s-0.9-13.3-9.6-22.9
			C128.3,102,124.1,105.4,119.5,108.6z"/>
	</g>
</g>
</svg>
