<svg xmlns="http://www.w3.org/2000/svg" viewBox="0 0 186.7 186.7" xmlns:v="https://vecta.io/nano"><path fill="#eef4fb" d="M93.4 13.8c-43.9 0-79.5 35.6-79.5 79.5s35.6 79.5 79.5 79.5 79.5-35.6 79.5-79.5-35.6-79.5-79.5-79.5zm52.2 32.9c-.1.1-.1.2-.2.3-1.1 2.9-2 5.8-3.2 8.6-2 4.7-4.6 9.1-7.7 13.2-1.8 2.3-3.6 4.6-5.7 6.5-.8.7-1.6 1.3-2.8 1.3-3.3-.1-6.5 0-9.8 0-.3 0-.6-.1-.9-.1l-4.9-.3c4.1 2.6 8.8 3.3 13.7 4.3-9.3 7.4-19 12.6-31 12.5 6.2-10.8 13.9-20.2 22.3-29-13.9 8.9-24.3 21.2-32.7 35.8h5.9c1.9 0 3.7-.1 5.6 0 2.2.1 3.4 1 3.9 3 .4 1.7-.1 3.2-1.7 4.4 1 .2 1.8.4 2.6.4 2.9.2 5.4 1.5 7.4 3.6 2.2 2.4 3 5.4 3 8.6l-.2 15.6c-.1 3.7-1.8 6.7-4.7 8.7-1.3.9-2.8 1.3-4.3 2h-41c-.1-.1-.2-.2-.3-.2-2.9-.7-5.3-2.2-6.9-4.9-.8-1.3-1.2-2.9-1.8-4.3v-19.8c.3-.8.5-1.6.8-2.3 1.4-3.4 3.8-5.7 7.2-6.7 1.5-.4 3.1-.6 4.6-.8-.3-.4-.6-.7-.8-1.1-1.3-1.6-.9-4.6.9-5.6.8-.4 1.7-.7 2.6-.7 3.4-.1 6.9 0 10.3 0 .5 0 .7-.1 1-.6 1.7-3 3.5-6 5.3-9 .2-.3.3-.6.3-.9.1-1.9.2-3.8.4-5.7.4-3.5 1.3-6.8 2.7-10 1.3-2.9 2.8-5.8 5-8.1 1.9-2 3.7-4.1 5.8-5.9 3.1-2.7 6.6-4.8 10.4-6.4a81.62 81.62 0 0 1 9-3.3c3.3-.9 6.7-1.6 10.1-2.2 2.9-.5 5.8-.9 8.7-1.2 2-.2 4-.2 6-.2.2 0 .4-.1.7-.2 1.3 0 2.7.1 4 0 .6.1.4.4.4.7z"/></svg>