<svg xmlns="http://www.w3.org/2000/svg" viewBox="0 0 186.9 187.2" fill="#eff4fb" xmlns:v="https://vecta.io/nano"><path d="M71.9 108.2c-1.6-.3-4.2.1-5 1.2-1 1.2-1.1 3.8-.5 5.4 1.3 3.5 4.1 5.7 7.8 6.7 2 .5 4 .4 5.4-1.3s1.2-3.6.4-5.5c-1.8-3.5-4.4-5.9-8.1-6.5zm-8.3 14c-1.5-.3-3.9.1-4.8 1.2-.9 1-1 3.4-.5 4.8 1.1 3.4 3.7 5.7 7.3 6.8 2 .6 4.2.7 5.3-1.1.9-1.5.8-3.5 1-4.4-2.2-4.3-4.7-6.7-8.3-7.3zm17-28.9c-2.1-.5-4.3-.2-5.4 1.7-.8 1.5-.7 3.5-1 5.3 2.1 3.5 5.7 6.3 9.3 6.8 4.3.6 7.1-2.6 5.6-6.7-1.4-3.9-4.5-6.1-8.5-7.1zm-5.1-25c4.8.1 8.9-1.7 12.2-5.2.7-.7 1.1-2.3.8-3.1-.4-.8-1.9-1.6-2.8-1.6-2.2 0-4.3.6-6.6 1-1.9 1.4-3.9 2.7-5.6 4.3-.7.7-1.2 2.3-.8 3.1.3.7 1.8 1.5 2.8 1.5zm53.6 21.8c-2.2 3.2-2.3 6.8-1.4 9.7 1.8 4.6 5.4 5.6 7.9 2.8 2.7-2.9 3.3-8.9 1.2-12.4-2-3.3-5.5-3.4-7.7-.1zM93.6 13.8c-44 0-79.6 35.6-79.6 79.6 0 43.9 35.6 79.5 79.5 79.5S173 137.3 173 93.4c.1-44-35.5-79.6-79.4-79.6zM39.5 78.7L72 48.9c1.1-1 2.8-1.7 4.2-1.8l44-2.8c1.1-.1 2.2.7 3.3 1.1-.5 1-.8 2.2-1.5 2.9L90.4 80.5c-.4.4-.9.8-1.4 1.2-.9.1-1.9.3-2.9.3l-45.1.4c-1 0-2-.8-3.1-1.2.5-.7.9-1.8 1.6-2.5zm71.1 65.4L77.8 141l-16.2-1.6c-2-.2-3.4-1.2-4.2-3.1L38.8 92c-1.5-3.5-1.4-3.6 2.5-3.6l43.4-.3c3.2 0 5.1 1.2 6.3 4.3l20.2 48c.4 1 .2 2.2.3 3.3-.3.1-.6.3-.9.4zm37.9-41.2l-29.1 36.2c-.5.6-.9 1.2-1.3 1.8-.3.1-.6.3-.9.4-.6-.6-1.5-1.2-1.8-1.9L94.8 90.5c-1.2-2.9-.8-5.1 1.4-7.3l30.3-31.1c2.4-2.5 3.1-2.4 4.4.7l18.5 43.7c1 2.5.7 4.4-.9 6.4zm-38.1-18.2c-3 3.1-3.6 9.1-1.3 12.8 1.9 3.1 5.3 3.4 7.6.7 2.8-3.3 3.1-7.2 2.1-10.4-1.9-4.9-5.7-6-8.4-3.1z"/></svg>