<svg xmlns="http://www.w3.org/2000/svg" xmlns:xlink="http://www.w3.org/1999/xlink" viewBox="0 0 186.9 187.2" xmlns:v="https://vecta.io/nano"><g fill="#eff4fb"><use xlink:href="#B"/><path d="M86.3 128.2c-.8 0-1.5.4-1.9 1.3-.5.9-.7 2.1-.7 3.7s.2 2.8.7 3.7 1.1 1.3 1.9 1.3 1.5-.5 2-1.3c.5-.9.7-2.1.7-3.7s-.2-2.8-.7-3.7c-.5-.8-1.1-1.3-2-1.3z"/><use xlink:href="#C"/><use xlink:href="#D"/><use xlink:href="#D" y="-19.5"/><use xlink:href="#C" x="-14.2"/><path d="M72.1 108.7c-.8 0-1.5.4-1.9 1.3-.5.9-.7 2.1-.7 3.7s.2 2.8.7 3.7 1.1 1.4 1.9 1.4 1.5-.5 2-1.4.7-2.1.7-3.7-.2-2.8-.7-3.7c-.5-.8-1.2-1.3-2-1.3z"/><use xlink:href="#C" x="-14.2" y="39"/><use xlink:href="#E"/><use xlink:href="#F"/><use xlink:href="#B" x="28.5"/><use xlink:href="#C" x="-14.2" y="19.5"/><path d="M100.6 128.2c-.8 0-1.5.4-1.9 1.3-.5.9-.7 2.1-.7 3.7s.2 2.8.7 3.7 1.1 1.3 1.9 1.3 1.5-.5 2-1.3c.5-.9.7-2.1.7-3.7s-.2-2.8-.7-3.7c-.5-.8-1.2-1.3-2-1.3z"/><use xlink:href="#F" x="71.2" y="-39"/><use xlink:href="#F" x="71.2" y="-19.5"/><use xlink:href="#B" x="28.5" y="-39"/><use xlink:href="#E" x="71.2"/><path d="M93.6 13.8c-44 0-79.6 35.6-79.6 79.6 0 43.9 35.6 79.5 79.5 79.5S173 137.3 173 93.4c.1-44-35.5-79.6-79.4-79.6zM82 60.5c.2-.2.6-.3 1.1-.3h2.2v-9.8l-1.3.3c-.2 0-.4.1-.5.1h-.3c-.3 0-.6-.1-.7-.3-.2-.2-.3-.5-.3-.9 0-.3.1-.5.3-.7s.5-.3.9-.4l2.9-.8c.2-.1.4-.1.6-.1h.4c.3 0 .5.1.7.3s.2.5.2.9v11.4H90c.5 0 .9.1 1.1.3s.3.5.3 1c0 .4-.1.7-.3.9s-.6.3-1.1.3h-6.8c-.5 0-.9-.1-1.1-.3s-.3-.5-.3-.9c-.1-.5 0-.9.2-1zm-19.9 78.4c-1 1.4-2.5 2.1-4.2 2.1-1.8 0-3.2-.7-4.2-2.1s-1.5-3.3-1.5-5.6.5-4.2 1.5-5.6 2.4-2.1 4.2-2.1 3.2.7 4.2 2.1 1.6 3.3 1.6 5.6c-.1 2.4-.6 4.3-1.6 5.6zm0-19.5c-1 1.4-2.5 2.1-4.2 2.1-1.8 0-3.2-.7-4.2-2.1s-1.5-3.3-1.5-5.6c0-2.4.5-4.2 1.5-5.6s2.4-2.1 4.2-2.1 3.2.7 4.2 2.1 1.6 3.3 1.6 5.6c-.1 2.4-.6 4.3-1.6 5.6zm0-19.5c-1 1.4-2.5 2.1-4.2 2.1-1.8 0-3.2-.7-4.2-2.1s-1.5-3.3-1.5-5.6.5-4.2 1.5-5.6 2.4-2.1 4.2-2.1 3.2.7 4.2 2.1 1.6 3.3 1.6 5.6c-.1 2.4-.6 4.3-1.6 5.6zm0-19.5c-1 1.4-2.5 2.1-4.2 2.1-1.8 0-3.2-.7-4.2-2.1s-1.5-3.3-1.5-5.6c0-2.4.5-4.2 1.5-5.6s2.4-2.1 4.2-2.1 3.2.7 4.2 2.1 1.6 3.3 1.6 5.6c-.1 2.4-.6 4.3-1.6 5.6zm0-19.5c-1 1.4-2.5 2.1-4.2 2.1-1.8 0-3.2-.7-4.2-2.1s-1.5-3.3-1.5-5.6c0-2.4.5-4.2 1.5-5.6s2.4-2.1 4.2-2.1 3.2.7 4.2 2.1 1.6 3.3 1.6 5.6c-.1 2.4-.6 4.3-1.6 5.6zm14.8 79.4c-.2.2-.6.3-1.1.3H69c-.5 0-.9-.1-1.1-.3s-.3-.5-.3-.9.1-.8.3-1 .6-.3 1.1-.3h2.2v-9.8l-1.3.3c-.2 0-.4.1-.5.1h-.3c-.3 0-.6-.1-.7-.3s-.3-.5-.3-.9c0-.3.1-.5.3-.7s.5-.3.9-.4l2.9-.8c.2-.1.4-.1.6-.1h.4c.3 0 .5.1.7.3s.2.5.2.9v11.4H76c.5 0 .9.1 1.1.3s.3.5.3 1c-.2.4-.3.7-.5.9zm-.6-20.9c-1 1.4-2.5 2.1-4.2 2.1-1.8 0-3.2-.7-4.2-2.1s-1.5-3.3-1.5-5.6c0-2.4.5-4.2 1.5-5.6s2.4-2.1 4.2-2.1 3.2.7 4.2 2.1 1.6 3.3 1.6 5.6c0 2.4-.5 4.3-1.6 5.6zm-6.5-49.2c-.2 0-.4.1-.5.1H69c-.3 0-.6-.1-.7-.3-.2-.2-.3-.5-.3-.9 0-.3.1-.5.3-.7s.5-.3.9-.4l2.9-.8c.2-.1.4-.1.6-.1h.4c.3 0 .5.1.7.3s.2.5.2.9v11.4h1.9c.5 0 .9.1 1.1.3s.3.5.3 1c0 .4-.1.7-.3.9s-.6.3-1.1.3h-6.8c-.5 0-.9-.1-1.1-.3s-.3-.5-.3-.9.1-.8.3-1 .6-.3 1.1-.3h2.2v-9.8l-1.5.3zm-2 29.3c.2-.2.6-.3 1.1-.3h2.2v-9.8l-1.3.3c-.2 0-.4.1-.5.1H69c-.3 0-.6-.1-.7-.3-.2-.2-.3-.5-.3-.9 0-.3.1-.5.3-.7s.5-.3.9-.4l2.9-.8c.2-.1.4-.1.6-.1h.4c.3 0 .5.1.7.3s.2.5.2.9v11.4h1.9c.5 0 .9.1 1.1.3s.3.5.3 1c0 .4-.1.7-.3.9s-.6.3-1.1.3h-6.8c-.5 0-.9-.1-1.1-.3s-.3-.5-.3-.9c-.3-.5-.1-.9.1-1zm8.5-38.6c-1 1.4-2.5 2.1-4.2 2.1-1.8 0-3.2-.7-4.2-2.1s-1.5-3.3-1.5-5.6c0-2.4.5-4.2 1.5-5.6s2.4-2.1 4.2-2.1 3.2.7 4.2 2.1 1.6 3.3 1.6 5.6c0 2.4-.5 4.3-1.6 5.6zm14.3 78c-1 1.4-2.5 2.1-4.2 2.1-1.8 0-3.2-.7-4.2-2.1s-1.5-3.3-1.5-5.6.5-4.2 1.5-5.6 2.4-2.1 4.2-2.1 3.2.7 4.2 2.1 1.6 3.3 1.6 5.6c-.1 2.4-.6 4.3-1.6 5.6zm0-19.5c-1 1.4-2.5 2.1-4.2 2.1-1.8 0-3.2-.7-4.2-2.1s-1.5-3.3-1.5-5.6c0-2.4.5-4.2 1.5-5.6s2.4-2.1 4.2-2.1 3.2.7 4.2 2.1 1.6 3.3 1.6 5.6c-.1 2.4-.6 4.3-1.6 5.6zm0-19.5c-1 1.4-2.5 2.1-4.2 2.1-1.8 0-3.2-.7-4.2-2.1s-1.5-3.3-1.5-5.6.5-4.2 1.5-5.6 2.4-2.1 4.2-2.1 3.2.7 4.2 2.1 1.6 3.3 1.6 5.6c-.1 2.4-.6 4.3-1.6 5.6zm0-19.5c-1 1.4-2.5 2.1-4.2 2.1-1.8 0-3.2-.7-4.2-2.1s-1.5-3.3-1.5-5.6c0-2.4.5-4.2 1.5-5.6s2.4-2.1 4.2-2.1 3.2.7 4.2 2.1 1.6 3.3 1.6 5.6c-.1 2.4-.6 4.3-1.6 5.6zm34.1-19.9c.2-.2.6-.3 1.1-.3h2.2v-9.8l-1.3.3c-.2 0-.4.1-.5.1h-.3c-.3 0-.6-.1-.7-.3-.2-.2-.3-.5-.3-.9 0-.3.1-.5.3-.7s.5-.3.9-.4l2.9-.8c.2-.1.4-.1.6-.1h.4c.3 0 .5.1.7.3.1.2.2.5.2.9v11.4h1.9c.5 0 .9.1 1.1.3s.3.5.3 1c0 .4-.1.7-.3.9s-.6.3-1.1.3H126c-.5 0-.9-.1-1.1-.3s-.3-.5-.3-.9c-.2-.5-.1-.9.1-1zm-14.2 0c.2-.2.6-.3 1.1-.3h2.2v-9.8l-1.3.3c-.2 0-.4.1-.5.1h-.3c-.3 0-.6-.1-.7-.3-.2-.2-.3-.5-.3-.9 0-.3.1-.5.3-.7s.5-.3.9-.4l2.9-.8c.2-.1.4-.1.6-.1h.4c.3 0 .5.1.7.3.1.2.2.5.2.9v11.4h1.9c.5 0 .9.1 1.1.3s.3.5.3 1c0 .4-.1.7-.3.9s-.6.3-1.1.3h-6.8c-.5 0-.9-.1-1.1-.3s-.3-.5-.3-.9c-.2-.5-.1-.9.1-1zm-14.2 0c.2-.2.6-.3 1.1-.3h2.2v-9.8l-1.3.3c-.2 0-.4.1-.5.1h-.3c-.3 0-.6-.1-.7-.3-.2-.2-.3-.5-.3-.9 0-.3.1-.5.3-.7s.5-.3.9-.4l2.9-.8c.2-.1.4-.1.6-.1h.4c.3 0 .5.1.7.3s.2.5.2.9v11.4h1.9c.5 0 .9.1 1.1.3s.3.5.3 1c0 .4-.1.7-.3.9s-.6.3-1.1.3h-6.8c-.5 0-.9-.1-1.1-.3s-.3-.5-.3-.9c-.3-.5-.2-.9.1-1zm0 19.5c.2-.2.6-.3 1.1-.3h2.2v-9.8l-1.3.3c-.2 0-.4.1-.5.1h-.3c-.3 0-.6-.1-.7-.3-.2-.2-.3-.5-.3-.9 0-.3.1-.5.3-.7s.5-.3.9-.4l2.9-.8c.2-.1.4-.1.6-.1h.4c.3 0 .5.1.7.3s.2.5.2.9v11.4h1.9c.5 0 .9.1 1.1.3s.3.5.3 1c0 .4-.1.7-.3.9s-.6.3-1.1.3h-6.8c-.5 0-.9-.1-1.1-.3s-.3-.5-.3-.9c-.3-.5-.2-.9.1-1zm0 19.5c.2-.2.6-.3 1.1-.3h2.2v-9.8l-1.3.3c-.2 0-.4.1-.5.1h-.3c-.3 0-.6-.1-.7-.3-.2-.2-.3-.5-.3-.9 0-.3.1-.5.3-.7s.5-.3.9-.4l2.9-.8c.2-.1.4-.1.6-.1h.4c.3 0 .5.1.7.3s.2.5.2.9v11.4h1.9c.5 0 .9.1 1.1.3s.3.5.3 1c0 .4-.1.7-.3.9s-.6.3-1.1.3h-6.8c-.5 0-.9-.1-1.1-.3s-.3-.5-.3-.9c-.3-.5-.2-.9.1-1zm0 19.5c.2-.2.6-.3 1.1-.3h2.2v-9.8l-1.3.3c-.2 0-.4.1-.5.1h-.3c-.3 0-.6-.1-.7-.3-.2-.2-.3-.5-.3-.9 0-.3.1-.5.3-.7s.5-.3.9-.4l2.9-.8c.2-.1.4-.1.6-.1h.4c.3 0 .5.1.7.3s.2.5.2.9v11.4h1.9c.5 0 .9.1 1.1.3s.3.5.3 1c0 .4-.1.7-.3.9s-.6.3-1.1.3h-6.8c-.5 0-.9-.1-1.1-.3s-.3-.5-.3-.9c-.3-.5-.2-.9.1-1zm8.5 19.9c-1 1.4-2.5 2.1-4.2 2.1-1.8 0-3.2-.7-4.2-2.1s-1.5-3.3-1.5-5.6.5-4.2 1.5-5.6 2.4-2.1 4.2-2.1 3.2.7 4.2 2.1 1.6 3.3 1.6 5.6c0 2.4-.6 4.3-1.6 5.6zm14.8 1.4c-.2.2-.6.3-1.1.3h-6.8c-.5 0-.9-.1-1.1-.3s-.3-.5-.3-.9.1-.8.3-1 .6-.3 1.1-.3h2.2v-9.8l-1.3.3c-.2 0-.4.1-.5.1h-.3c-.3 0-.6-.1-.7-.3s-.3-.5-.3-.9c0-.3.1-.5.3-.7s.5-.3.9-.4l2.9-.8c.2-.1.4-.1.6-.1h.4c.3 0 .5.1.7.3.1.2.2.5.2.9v11.4h1.9c.5 0 .9.1 1.1.3s.3.5.3 1c-.2.4-.3.7-.5.9zm-.6-20.9c-1 1.4-2.5 2.1-4.2 2.1-1.8 0-3.2-.7-4.2-2.1s-1.5-3.3-1.5-5.6c0-2.4.5-4.2 1.5-5.6s2.4-2.1 4.2-2.1 3.2.7 4.2 2.1 1.6 3.3 1.6 5.6c0 2.4-.5 4.3-1.6 5.6zm0-19.5c-1 1.4-2.5 2.1-4.2 2.1-1.8 0-3.2-.7-4.2-2.1s-1.5-3.3-1.5-5.6.5-4.2 1.5-5.6 2.4-2.1 4.2-2.1 3.2.7 4.2 2.1 1.6 3.3 1.6 5.6c0 2.4-.5 4.3-1.6 5.6zm0-19.5c-1 1.4-2.5 2.1-4.2 2.1-1.8 0-3.2-.7-4.2-2.1s-1.5-3.3-1.5-5.6c0-2.4.5-4.2 1.5-5.6s2.4-2.1 4.2-2.1 3.2.7 4.2 2.1 1.6 3.3 1.6 5.6c0 2.4-.5 4.3-1.6 5.6zm14.3 58.5c-1 1.4-2.5 2.1-4.2 2.1-1.8 0-3.2-.7-4.2-2.1s-1.5-3.3-1.5-5.6.5-4.2 1.5-5.6 2.4-2.1 4.2-2.1 3.2.7 4.2 2.1 1.6 3.3 1.6 5.6c-.1 2.4-.6 4.3-1.6 5.6zm-6.6-29.7c-.2 0-.4.1-.5.1h-.3c-.3 0-.6-.1-.7-.3-.2-.2-.3-.5-.3-.9 0-.3.1-.5.3-.7s.5-.3.9-.4l2.9-.8c.2-.1.4-.1.6-.1h.4c.3 0 .5.1.7.3.1.2.2.5.2.9v11.4h1.9c.5 0 .9.1 1.1.3s.3.5.3 1c0 .4-.1.7-.3.9s-.6.3-1.1.3H126c-.5 0-.9-.1-1.1-.3s-.3-.5-.3-.9.1-.8.3-1 .6-.3 1.1-.3h2.2v-9.8l-1.5.3zm6.6-9.3c-1 1.4-2.5 2.1-4.2 2.1-1.8 0-3.2-.7-4.2-2.1s-1.5-3.3-1.5-5.6.5-4.2 1.5-5.6 2.4-2.1 4.2-2.1 3.2.7 4.2 2.1 1.6 3.3 1.6 5.6c-.1 2.4-.6 4.3-1.6 5.6zm0-19.5c-1 1.4-2.5 2.1-4.2 2.1-1.8 0-3.2-.7-4.2-2.1s-1.5-3.3-1.5-5.6c0-2.4.5-4.2 1.5-5.6s2.4-2.1 4.2-2.1 3.2.7 4.2 2.1 1.6 3.3 1.6 5.6c-.1 2.4-.6 4.3-1.6 5.6z"/><use xlink:href="#B" x="28.5" y="-19.5"/></g><defs ><path id="B" d="M86.3 108.7c-.8 0-1.5.4-1.9 1.3-.5.9-.7 2.1-.7 3.7s.2 2.8.7 3.7 1.1 1.4 1.9 1.4 1.5-.5 2-1.4.7-2.1.7-3.7-.2-2.8-.7-3.7c-.5-.8-1.1-1.3-2-1.3z"/><path id="C" d="M72.1 50.2c-.8 0-1.5.4-1.9 1.3s-.7 2.1-.7 3.7.2 2.8.7 3.7 1.1 1.4 1.9 1.4 1.5-.5 2-1.4.7-2.1.7-3.7-.2-2.8-.7-3.7-1.2-1.3-2-1.3z"/><path id="D" d="M86.3 89.2c-.8 0-1.5.4-1.9 1.3s-.7 2.1-.7 3.7.2 2.8.7 3.7 1.1 1.4 1.9 1.4 1.5-.5 2-1.4.7-2.1.7-3.7-.2-2.8-.7-3.7-1.1-1.3-2-1.3z"/><path id="E" d="M57.9 128.2c-.8 0-1.5.4-1.9 1.3-.5.9-.7 2.1-.7 3.7s.2 2.8.7 3.7 1.1 1.3 1.9 1.3 1.5-.5 2-1.3c.5-.9.7-2.1.7-3.7s-.2-2.8-.7-3.7c-.6-.8-1.2-1.3-2-1.3z"/><path id="F" d="M57.9 108.7c-.8 0-1.5.4-1.9 1.3-.5.9-.7 2.1-.7 3.7s.2 2.8.7 3.7 1.1 1.4 1.9 1.4 1.5-.5 2-1.4.7-2.1.7-3.7-.2-2.8-.7-3.7c-.6-.8-1.2-1.3-2-1.3z"/></defs></svg>