<?xml version="1.0" encoding="utf-8"?>
<!-- Generator: Adobe Illustrator 18.1.1, SVG Export Plug-In . SVG Version: 6.00 Build 0)  -->
<svg version="1.1" id="computing" xmlns="http://www.w3.org/2000/svg" xmlns:xlink="http://www.w3.org/1999/xlink" x="0px" y="0px"
	 viewBox="0 0 186.9 187.2" enable-background="new 0 0 186.9 187.2" xml:space="preserve">
<rect x="0.2" y="0" fill="none" width="186.7" height="186.7"/>
<g>
	<path fill="#EFF4FB" d="M86.3,108.7c-0.8,0-1.5,0.4-1.9,1.3c-0.5,0.9-0.7,2.1-0.7,3.7c0,1.6,0.2,2.8,0.7,3.7
		c0.5,0.9,1.1,1.4,1.9,1.4s1.5-0.5,2-1.4c0.5-0.9,0.7-2.1,0.7-3.7c0-1.6-0.2-2.8-0.7-3.7C87.8,109.2,87.2,108.7,86.3,108.7z"/>
	<path fill="#EFF4FB" d="M86.3,128.2c-0.8,0-1.5,0.4-1.9,1.3c-0.5,0.9-0.7,2.1-0.7,3.7c0,1.6,0.2,2.8,0.7,3.7
		c0.5,0.9,1.1,1.3,1.9,1.3s1.5-0.5,2-1.3c0.5-0.9,0.7-2.1,0.7-3.7c0-1.6-0.2-2.8-0.7-3.7C87.8,128.7,87.2,128.2,86.3,128.2z"/>
	<path fill="#EFF4FB" d="M72.1,50.2c-0.8,0-1.5,0.4-1.9,1.3s-0.7,2.1-0.7,3.7c0,1.6,0.2,2.8,0.7,3.7s1.1,1.4,1.9,1.4s1.5-0.5,2-1.4
		s0.7-2.1,0.7-3.7c0-1.6-0.2-2.8-0.7-3.7S72.9,50.2,72.1,50.2z"/>
	<path fill="#EFF4FB" d="M86.3,89.2c-0.8,0-1.5,0.4-1.9,1.3s-0.7,2.1-0.7,3.7c0,1.6,0.2,2.8,0.7,3.7c0.5,0.9,1.1,1.4,1.9,1.4
		s1.5-0.5,2-1.4c0.5-0.9,0.7-2.1,0.7-3.7c0-1.6-0.2-2.8-0.7-3.7S87.2,89.2,86.3,89.2z"/>
	<path fill="#EFF4FB" d="M86.3,69.7c-0.8,0-1.5,0.4-1.9,1.3s-0.7,2.1-0.7,3.7c0,1.6,0.2,2.8,0.7,3.7s1.1,1.4,1.9,1.4s1.5-0.5,2-1.4
		s0.7-2.1,0.7-3.7c0-1.6-0.2-2.8-0.7-3.7S87.2,69.7,86.3,69.7z"/>
	<path fill="#EFF4FB" d="M57.9,50.2c-0.8,0-1.5,0.4-1.9,1.3s-0.7,2.1-0.7,3.7c0,1.6,0.2,2.8,0.7,3.7s1.1,1.4,1.9,1.4s1.5-0.5,2-1.4
		s0.7-2.1,0.7-3.7c0-1.6-0.2-2.8-0.7-3.7S58.7,50.2,57.9,50.2z"/>
	<path fill="#EFF4FB" d="M72.1,108.7c-0.8,0-1.5,0.4-1.9,1.3c-0.5,0.9-0.7,2.1-0.7,3.7c0,1.6,0.2,2.8,0.7,3.7
		c0.5,0.9,1.1,1.4,1.9,1.4s1.5-0.5,2-1.4c0.5-0.9,0.7-2.1,0.7-3.7c0-1.6-0.2-2.8-0.7-3.7C73.6,109.2,72.9,108.7,72.1,108.7z"/>
	<path fill="#EFF4FB" d="M57.9,89.2c-0.8,0-1.5,0.4-1.9,1.3s-0.7,2.1-0.7,3.7c0,1.6,0.2,2.8,0.7,3.7c0.5,0.9,1.1,1.4,1.9,1.4
		s1.5-0.5,2-1.4c0.5-0.9,0.7-2.1,0.7-3.7c0-1.6-0.2-2.8-0.7-3.7S58.7,89.2,57.9,89.2z"/>
	<path fill="#EFF4FB" d="M57.9,128.2c-0.8,0-1.5,0.4-1.9,1.3c-0.5,0.9-0.7,2.1-0.7,3.7c0,1.6,0.2,2.8,0.7,3.7
		c0.5,0.9,1.1,1.3,1.9,1.3s1.5-0.5,2-1.3c0.5-0.9,0.7-2.1,0.7-3.7c0-1.6-0.2-2.8-0.7-3.7C59.3,128.7,58.7,128.2,57.9,128.2z"/>
	<path fill="#EFF4FB" d="M57.9,108.7c-0.8,0-1.5,0.4-1.9,1.3c-0.5,0.9-0.7,2.1-0.7,3.7c0,1.6,0.2,2.8,0.7,3.7
		c0.5,0.9,1.1,1.4,1.9,1.4s1.5-0.5,2-1.4c0.5-0.9,0.7-2.1,0.7-3.7c0-1.6-0.2-2.8-0.7-3.7C59.3,109.2,58.7,108.7,57.9,108.7z"/>
	<path fill="#EFF4FB" d="M114.8,108.7c-0.8,0-1.5,0.4-1.9,1.3c-0.5,0.9-0.7,2.1-0.7,3.7c0,1.6,0.2,2.8,0.7,3.7
		c0.5,0.9,1.1,1.4,1.9,1.4c0.8,0,1.5-0.5,2-1.4c0.5-0.9,0.7-2.1,0.7-3.7c0-1.6-0.2-2.8-0.7-3.7C116.3,109.2,115.7,108.7,114.8,108.7
		z"/>
	<path fill="#EFF4FB" d="M57.9,69.7c-0.8,0-1.5,0.4-1.9,1.3s-0.7,2.1-0.7,3.7c0,1.6,0.2,2.8,0.7,3.7s1.1,1.4,1.9,1.4s1.5-0.5,2-1.4
		s0.7-2.1,0.7-3.7c0-1.6-0.2-2.8-0.7-3.7S58.7,69.7,57.9,69.7z"/>
	<path fill="#EFF4FB" d="M100.6,128.2c-0.8,0-1.5,0.4-1.9,1.3c-0.5,0.9-0.7,2.1-0.7,3.7c0,1.6,0.2,2.8,0.7,3.7
		c0.5,0.9,1.1,1.3,1.9,1.3s1.5-0.5,2-1.3c0.5-0.9,0.7-2.1,0.7-3.7c0-1.6-0.2-2.8-0.7-3.7C102.1,128.7,101.4,128.2,100.6,128.2z"/>
	<path fill="#EFF4FB" d="M129.1,69.7c-0.8,0-1.5,0.4-1.9,1.3c-0.5,0.9-0.7,2.1-0.7,3.7c0,1.6,0.2,2.8,0.7,3.7
		c0.5,0.9,1.1,1.4,1.9,1.4c0.8,0,1.5-0.5,2-1.4c0.5-0.9,0.7-2.1,0.7-3.7c0-1.6-0.2-2.8-0.7-3.7C130.5,70.2,129.9,69.7,129.1,69.7z"
		/>
	<path fill="#EFF4FB" d="M129.1,89.2c-0.8,0-1.5,0.4-1.9,1.3c-0.5,0.9-0.7,2.1-0.7,3.7c0,1.6,0.2,2.8,0.7,3.7
		c0.5,0.9,1.1,1.4,1.9,1.4c0.8,0,1.5-0.5,2-1.4c0.5-0.9,0.7-2.1,0.7-3.7c0-1.6-0.2-2.8-0.7-3.7C130.5,89.7,129.9,89.2,129.1,89.2z"
		/>
	<path fill="#EFF4FB" d="M114.8,69.7c-0.8,0-1.5,0.4-1.9,1.3c-0.5,0.9-0.7,2.1-0.7,3.7c0,1.6,0.2,2.8,0.7,3.7
		c0.5,0.9,1.1,1.4,1.9,1.4c0.8,0,1.5-0.5,2-1.4c0.5-0.9,0.7-2.1,0.7-3.7c0-1.6-0.2-2.8-0.7-3.7C116.3,70.2,115.7,69.7,114.8,69.7z"
		/>
	<path fill="#EFF4FB" d="M129.1,128.2c-0.8,0-1.5,0.4-1.9,1.3c-0.5,0.9-0.7,2.1-0.7,3.7c0,1.6,0.2,2.8,0.7,3.7
		c0.5,0.9,1.1,1.3,1.9,1.3c0.8,0,1.5-0.5,2-1.3c0.5-0.9,0.7-2.1,0.7-3.7c0-1.6-0.2-2.8-0.7-3.7C130.5,128.7,129.9,128.2,129.1,128.2
		z"/>
	<path fill="#EFF4FB" d="M93.6,13.8C49.6,13.8,14,49.4,14,93.4c0,43.9,35.6,79.5,79.5,79.5c43.9,0,79.5-35.6,79.5-79.5
		C173.1,49.4,137.5,13.8,93.6,13.8z M82,60.5c0.2-0.2,0.6-0.3,1.1-0.3h2.2v-9.8L84,50.7c-0.2,0-0.4,0.1-0.5,0.1c-0.1,0-0.2,0-0.3,0
		c-0.3,0-0.6-0.1-0.7-0.3c-0.2-0.2-0.3-0.5-0.3-0.9c0-0.3,0.1-0.5,0.3-0.7c0.2-0.2,0.5-0.3,0.9-0.4l2.9-0.8c0.2-0.1,0.4-0.1,0.6-0.1
		s0.3,0,0.4,0c0.3,0,0.5,0.1,0.7,0.3s0.2,0.5,0.2,0.9v11.4H90c0.5,0,0.9,0.1,1.1,0.3c0.2,0.2,0.3,0.5,0.3,1c0,0.4-0.1,0.7-0.3,0.9
		c-0.2,0.2-0.6,0.3-1.1,0.3h-6.8c-0.5,0-0.9-0.1-1.1-0.3c-0.2-0.2-0.3-0.5-0.3-0.9C81.7,61,81.8,60.6,82,60.5z M62.1,138.9
		c-1,1.4-2.5,2.1-4.2,2.1c-1.8,0-3.2-0.7-4.2-2.1s-1.5-3.3-1.5-5.6s0.5-4.2,1.5-5.6c1-1.4,2.4-2.1,4.2-2.1c1.8,0,3.2,0.7,4.2,2.1
		c1,1.4,1.6,3.3,1.6,5.6C63.6,135.7,63.1,137.6,62.1,138.9z M62.1,119.4c-1,1.4-2.5,2.1-4.2,2.1c-1.8,0-3.2-0.7-4.2-2.1
		s-1.5-3.3-1.5-5.6c0-2.4,0.5-4.2,1.5-5.6c1-1.4,2.4-2.1,4.2-2.1c1.8,0,3.2,0.7,4.2,2.1s1.6,3.3,1.6,5.6
		C63.6,116.2,63.1,118.1,62.1,119.4z M62.1,99.9c-1,1.4-2.5,2.1-4.2,2.1c-1.8,0-3.2-0.7-4.2-2.1s-1.5-3.3-1.5-5.6s0.5-4.2,1.5-5.6
		c1-1.4,2.4-2.1,4.2-2.1c1.8,0,3.2,0.7,4.2,2.1s1.6,3.3,1.6,5.6C63.6,96.7,63.1,98.6,62.1,99.9z M62.1,80.4c-1,1.4-2.5,2.1-4.2,2.1
		c-1.8,0-3.2-0.7-4.2-2.1s-1.5-3.3-1.5-5.6c0-2.4,0.5-4.2,1.5-5.6c1-1.4,2.4-2.1,4.2-2.1c1.8,0,3.2,0.7,4.2,2.1s1.6,3.3,1.6,5.6
		C63.6,77.2,63.1,79.1,62.1,80.4z M62.1,60.9c-1,1.4-2.5,2.1-4.2,2.1c-1.8,0-3.2-0.7-4.2-2.1s-1.5-3.3-1.5-5.6
		c0-2.4,0.5-4.2,1.5-5.6c1-1.4,2.4-2.1,4.2-2.1c1.8,0,3.2,0.7,4.2,2.1s1.6,3.3,1.6,5.6C63.6,57.7,63.1,59.6,62.1,60.9z M76.9,140.3
		c-0.2,0.2-0.6,0.3-1.1,0.3h-6.8c-0.5,0-0.9-0.1-1.1-0.3c-0.2-0.2-0.3-0.5-0.3-0.9c0-0.4,0.1-0.8,0.3-1c0.2-0.2,0.6-0.3,1.1-0.3h2.2
		v-9.8l-1.3,0.3c-0.2,0-0.4,0.1-0.5,0.1s-0.2,0-0.3,0c-0.3,0-0.6-0.1-0.7-0.3s-0.3-0.5-0.3-0.9c0-0.3,0.1-0.5,0.3-0.7
		c0.2-0.2,0.5-0.3,0.9-0.4l2.9-0.8c0.2-0.1,0.4-0.1,0.6-0.1c0.2,0,0.3,0,0.4,0c0.3,0,0.5,0.1,0.7,0.3s0.2,0.5,0.2,0.9v11.4h1.9
		c0.5,0,0.9,0.1,1.1,0.3c0.2,0.2,0.3,0.5,0.3,1C77.2,139.8,77.1,140.1,76.9,140.3z M76.3,119.4c-1,1.4-2.5,2.1-4.2,2.1
		c-1.8,0-3.2-0.7-4.2-2.1s-1.5-3.3-1.5-5.6c0-2.4,0.5-4.2,1.5-5.6c1-1.4,2.4-2.1,4.2-2.1c1.8,0,3.2,0.7,4.2,2.1s1.6,3.3,1.6,5.6
		C77.9,116.2,77.4,118.1,76.3,119.4z M69.8,70.2c-0.2,0-0.4,0.1-0.5,0.1c-0.1,0-0.2,0-0.3,0c-0.3,0-0.6-0.1-0.7-0.3
		c-0.2-0.2-0.3-0.5-0.3-0.9c0-0.3,0.1-0.5,0.3-0.7c0.2-0.2,0.5-0.3,0.9-0.4l2.9-0.8c0.2-0.1,0.4-0.1,0.6-0.1s0.3,0,0.4,0
		c0.3,0,0.5,0.1,0.7,0.3s0.2,0.5,0.2,0.9v11.4h1.9c0.5,0,0.9,0.1,1.1,0.3c0.2,0.2,0.3,0.5,0.3,1c0,0.4-0.1,0.7-0.3,0.9
		c-0.2,0.2-0.6,0.3-1.1,0.3h-6.8c-0.5,0-0.9-0.1-1.1-0.3c-0.2-0.2-0.3-0.5-0.3-0.9c0-0.4,0.1-0.8,0.3-1c0.2-0.2,0.6-0.3,1.1-0.3h2.2
		v-9.8L69.8,70.2z M67.8,99.5c0.2-0.2,0.6-0.3,1.1-0.3h2.2v-9.8l-1.3,0.3c-0.2,0-0.4,0.1-0.5,0.1c-0.1,0-0.2,0-0.3,0
		c-0.3,0-0.6-0.1-0.7-0.3c-0.2-0.2-0.3-0.5-0.3-0.9c0-0.3,0.1-0.5,0.3-0.7c0.2-0.2,0.5-0.3,0.9-0.4l2.9-0.8c0.2-0.1,0.4-0.1,0.6-0.1
		s0.3,0,0.4,0c0.3,0,0.5,0.1,0.7,0.3s0.2,0.5,0.2,0.9v11.4h1.9c0.5,0,0.9,0.1,1.1,0.3s0.3,0.5,0.3,1c0,0.4-0.1,0.7-0.3,0.9
		c-0.2,0.2-0.6,0.3-1.1,0.3h-6.8c-0.5,0-0.9-0.1-1.1-0.3c-0.2-0.2-0.3-0.5-0.3-0.9C67.4,100,67.6,99.6,67.8,99.5z M76.3,60.9
		c-1,1.4-2.5,2.1-4.2,2.1c-1.8,0-3.2-0.7-4.2-2.1s-1.5-3.3-1.5-5.6c0-2.4,0.5-4.2,1.5-5.6c1-1.4,2.4-2.1,4.2-2.1
		c1.8,0,3.2,0.7,4.2,2.1s1.6,3.3,1.6,5.6C77.9,57.7,77.4,59.6,76.3,60.9z M90.6,138.9c-1,1.4-2.5,2.1-4.2,2.1
		c-1.8,0-3.2-0.7-4.2-2.1s-1.5-3.3-1.5-5.6s0.5-4.2,1.5-5.6c1-1.4,2.4-2.1,4.2-2.1c1.8,0,3.2,0.7,4.2,2.1c1,1.4,1.6,3.3,1.6,5.6
		C92.1,135.7,91.6,137.6,90.6,138.9z M90.6,119.4c-1,1.4-2.5,2.1-4.2,2.1c-1.8,0-3.2-0.7-4.2-2.1s-1.5-3.3-1.5-5.6
		c0-2.4,0.5-4.2,1.5-5.6c1-1.4,2.4-2.1,4.2-2.1c1.8,0,3.2,0.7,4.2,2.1s1.6,3.3,1.6,5.6C92.1,116.2,91.6,118.1,90.6,119.4z
		 M90.6,99.9c-1,1.4-2.5,2.1-4.2,2.1c-1.8,0-3.2-0.7-4.2-2.1s-1.5-3.3-1.5-5.6s0.5-4.2,1.5-5.6c1-1.4,2.4-2.1,4.2-2.1
		c1.8,0,3.2,0.7,4.2,2.1s1.6,3.3,1.6,5.6C92.1,96.7,91.6,98.6,90.6,99.9z M90.6,80.4c-1,1.4-2.5,2.1-4.2,2.1c-1.8,0-3.2-0.7-4.2-2.1
		s-1.5-3.3-1.5-5.6c0-2.4,0.5-4.2,1.5-5.6c1-1.4,2.4-2.1,4.2-2.1c1.8,0,3.2,0.7,4.2,2.1s1.6,3.3,1.6,5.6
		C92.1,77.2,91.6,79.1,90.6,80.4z M124.7,60.5c0.2-0.2,0.6-0.3,1.1-0.3h2.2v-9.8l-1.3,0.3c-0.2,0-0.4,0.1-0.5,0.1
		c-0.1,0-0.2,0-0.3,0c-0.3,0-0.6-0.1-0.7-0.3c-0.2-0.2-0.3-0.5-0.3-0.9c0-0.3,0.1-0.5,0.3-0.7c0.2-0.2,0.5-0.3,0.9-0.4l2.9-0.8
		c0.2-0.1,0.4-0.1,0.6-0.1c0.2,0,0.3,0,0.4,0c0.3,0,0.5,0.1,0.7,0.3c0.1,0.2,0.2,0.5,0.2,0.9v11.4h1.9c0.5,0,0.9,0.1,1.1,0.3
		c0.2,0.2,0.3,0.5,0.3,1c0,0.4-0.1,0.7-0.3,0.9c-0.2,0.2-0.6,0.3-1.1,0.3h-6.8c-0.5,0-0.9-0.1-1.1-0.3c-0.2-0.2-0.3-0.5-0.3-0.9
		C124.4,61,124.5,60.6,124.7,60.5z M110.5,60.5c0.2-0.2,0.6-0.3,1.1-0.3h2.2v-9.8l-1.3,0.3c-0.2,0-0.4,0.1-0.5,0.1
		c-0.1,0-0.2,0-0.3,0c-0.3,0-0.6-0.1-0.7-0.3c-0.2-0.2-0.3-0.5-0.3-0.9c0-0.3,0.1-0.5,0.3-0.7c0.2-0.2,0.5-0.3,0.9-0.4l2.9-0.8
		c0.2-0.1,0.4-0.1,0.6-0.1c0.2,0,0.3,0,0.4,0c0.3,0,0.5,0.1,0.7,0.3c0.1,0.2,0.2,0.5,0.2,0.9v11.4h1.9c0.5,0,0.9,0.1,1.1,0.3
		c0.2,0.2,0.3,0.5,0.3,1c0,0.4-0.1,0.7-0.3,0.9c-0.2,0.2-0.6,0.3-1.1,0.3h-6.8c-0.5,0-0.9-0.1-1.1-0.3c-0.2-0.2-0.3-0.5-0.3-0.9
		C110.2,61,110.3,60.6,110.5,60.5z M96.3,60.5c0.2-0.2,0.6-0.3,1.1-0.3h2.2v-9.8l-1.3,0.3c-0.2,0-0.4,0.1-0.5,0.1
		c-0.1,0-0.2,0-0.3,0c-0.3,0-0.6-0.1-0.7-0.3c-0.2-0.2-0.3-0.5-0.3-0.9c0-0.3,0.1-0.5,0.3-0.7c0.2-0.2,0.5-0.3,0.9-0.4l2.9-0.8
		c0.2-0.1,0.4-0.1,0.6-0.1s0.3,0,0.4,0c0.3,0,0.5,0.1,0.7,0.3s0.2,0.5,0.2,0.9v11.4h1.9c0.5,0,0.9,0.1,1.1,0.3
		c0.2,0.2,0.3,0.5,0.3,1c0,0.4-0.1,0.7-0.3,0.9c-0.2,0.2-0.6,0.3-1.1,0.3h-6.8c-0.5,0-0.9-0.1-1.1-0.3c-0.2-0.2-0.3-0.5-0.3-0.9
		C95.9,61,96,60.6,96.3,60.5z M96.3,80c0.2-0.2,0.6-0.3,1.1-0.3h2.2v-9.8l-1.3,0.3c-0.2,0-0.4,0.1-0.5,0.1c-0.1,0-0.2,0-0.3,0
		c-0.3,0-0.6-0.1-0.7-0.3c-0.2-0.2-0.3-0.5-0.3-0.9c0-0.3,0.1-0.5,0.3-0.7c0.2-0.2,0.5-0.3,0.9-0.4l2.9-0.8c0.2-0.1,0.4-0.1,0.6-0.1
		s0.3,0,0.4,0c0.3,0,0.5,0.1,0.7,0.3s0.2,0.5,0.2,0.9v11.4h1.9c0.5,0,0.9,0.1,1.1,0.3c0.2,0.2,0.3,0.5,0.3,1c0,0.4-0.1,0.7-0.3,0.9
		c-0.2,0.2-0.6,0.3-1.1,0.3h-6.8c-0.5,0-0.9-0.1-1.1-0.3c-0.2-0.2-0.3-0.5-0.3-0.9C95.9,80.5,96,80.1,96.3,80z M96.3,99.5
		c0.2-0.2,0.6-0.3,1.1-0.3h2.2v-9.8l-1.3,0.3c-0.2,0-0.4,0.1-0.5,0.1c-0.1,0-0.2,0-0.3,0c-0.3,0-0.6-0.1-0.7-0.3
		c-0.2-0.2-0.3-0.5-0.3-0.9c0-0.3,0.1-0.5,0.3-0.7c0.2-0.2,0.5-0.3,0.9-0.4l2.9-0.8c0.2-0.1,0.4-0.1,0.6-0.1s0.3,0,0.4,0
		c0.3,0,0.5,0.1,0.7,0.3s0.2,0.5,0.2,0.9v11.4h1.9c0.5,0,0.9,0.1,1.1,0.3c0.2,0.2,0.3,0.5,0.3,1c0,0.4-0.1,0.7-0.3,0.9
		c-0.2,0.2-0.6,0.3-1.1,0.3h-6.8c-0.5,0-0.9-0.1-1.1-0.3s-0.3-0.5-0.3-0.9C95.9,100,96,99.6,96.3,99.5z M96.3,119
		c0.2-0.2,0.6-0.3,1.1-0.3h2.2v-9.8l-1.3,0.3c-0.2,0-0.4,0.1-0.5,0.1c-0.1,0-0.2,0-0.3,0c-0.3,0-0.6-0.1-0.7-0.3
		c-0.2-0.2-0.3-0.5-0.3-0.9c0-0.3,0.1-0.5,0.3-0.7c0.2-0.2,0.5-0.3,0.9-0.4l2.9-0.8c0.2-0.1,0.4-0.1,0.6-0.1c0.2,0,0.3,0,0.4,0
		c0.3,0,0.5,0.1,0.7,0.3s0.2,0.5,0.2,0.9v11.4h1.9c0.5,0,0.9,0.1,1.1,0.3c0.2,0.2,0.3,0.5,0.3,1c0,0.4-0.1,0.7-0.3,0.9
		c-0.2,0.2-0.6,0.3-1.1,0.3h-6.8c-0.5,0-0.9-0.1-1.1-0.3s-0.3-0.5-0.3-0.9C95.9,119.5,96,119.1,96.3,119z M104.8,138.9
		c-1,1.4-2.5,2.1-4.2,2.1c-1.8,0-3.2-0.7-4.2-2.1c-1-1.4-1.5-3.3-1.5-5.6s0.5-4.2,1.5-5.6c1-1.4,2.4-2.1,4.2-2.1
		c1.8,0,3.2,0.7,4.2,2.1c1,1.4,1.6,3.3,1.6,5.6C106.4,135.7,105.8,137.6,104.8,138.9z M119.6,140.3c-0.2,0.2-0.6,0.3-1.1,0.3h-6.8
		c-0.5,0-0.9-0.1-1.1-0.3c-0.2-0.2-0.3-0.5-0.3-0.9c0-0.4,0.1-0.8,0.3-1c0.2-0.2,0.6-0.3,1.1-0.3h2.2v-9.8l-1.3,0.3
		c-0.2,0-0.4,0.1-0.5,0.1c-0.1,0-0.2,0-0.3,0c-0.3,0-0.6-0.1-0.7-0.3s-0.3-0.5-0.3-0.9c0-0.3,0.1-0.5,0.3-0.7s0.5-0.3,0.9-0.4
		l2.9-0.8c0.2-0.1,0.4-0.1,0.6-0.1c0.2,0,0.3,0,0.4,0c0.3,0,0.5,0.1,0.7,0.3c0.1,0.2,0.2,0.5,0.2,0.9v11.4h1.9
		c0.5,0,0.9,0.1,1.1,0.3c0.2,0.2,0.3,0.5,0.3,1C119.9,139.8,119.8,140.1,119.6,140.3z M119,119.4c-1,1.4-2.5,2.1-4.2,2.1
		c-1.8,0-3.2-0.7-4.2-2.1s-1.5-3.3-1.5-5.6c0-2.4,0.5-4.2,1.5-5.6c1-1.4,2.4-2.1,4.2-2.1c1.8,0,3.2,0.7,4.2,2.1s1.6,3.3,1.6,5.6
		C120.6,116.2,120.1,118.1,119,119.4z M119,99.9c-1,1.4-2.5,2.1-4.2,2.1c-1.8,0-3.2-0.7-4.2-2.1s-1.5-3.3-1.5-5.6s0.5-4.2,1.5-5.6
		c1-1.4,2.4-2.1,4.2-2.1c1.8,0,3.2,0.7,4.2,2.1s1.6,3.3,1.6,5.6C120.6,96.7,120.1,98.6,119,99.9z M119,80.4c-1,1.4-2.5,2.1-4.2,2.1
		c-1.8,0-3.2-0.7-4.2-2.1s-1.5-3.3-1.5-5.6c0-2.4,0.5-4.2,1.5-5.6c1-1.4,2.4-2.1,4.2-2.1c1.8,0,3.2,0.7,4.2,2.1s1.6,3.3,1.6,5.6
		C120.6,77.2,120.1,79.1,119,80.4z M133.3,138.9c-1,1.4-2.5,2.1-4.2,2.1c-1.8,0-3.2-0.7-4.2-2.1s-1.5-3.3-1.5-5.6s0.5-4.2,1.5-5.6
		c1-1.4,2.4-2.1,4.2-2.1c1.8,0,3.2,0.7,4.2,2.1c1,1.4,1.6,3.3,1.6,5.6C134.8,135.7,134.3,137.6,133.3,138.9z M126.7,109.2
		c-0.2,0-0.4,0.1-0.5,0.1c-0.1,0-0.2,0-0.3,0c-0.3,0-0.6-0.1-0.7-0.3c-0.2-0.2-0.3-0.5-0.3-0.9c0-0.3,0.1-0.5,0.3-0.7
		c0.2-0.2,0.5-0.3,0.9-0.4l2.9-0.8c0.2-0.1,0.4-0.1,0.6-0.1c0.2,0,0.3,0,0.4,0c0.3,0,0.5,0.1,0.7,0.3c0.1,0.2,0.2,0.5,0.2,0.9v11.4
		h1.9c0.5,0,0.9,0.1,1.1,0.3c0.2,0.2,0.3,0.5,0.3,1c0,0.4-0.1,0.7-0.3,0.9c-0.2,0.2-0.6,0.3-1.1,0.3h-6.8c-0.5,0-0.9-0.1-1.1-0.3
		c-0.2-0.2-0.3-0.5-0.3-0.9c0-0.4,0.1-0.8,0.3-1c0.2-0.2,0.6-0.3,1.1-0.3h2.2v-9.8L126.7,109.2z M133.3,99.9c-1,1.4-2.5,2.1-4.2,2.1
		c-1.8,0-3.2-0.7-4.2-2.1s-1.5-3.3-1.5-5.6s0.5-4.2,1.5-5.6c1-1.4,2.4-2.1,4.2-2.1c1.8,0,3.2,0.7,4.2,2.1s1.6,3.3,1.6,5.6
		C134.8,96.7,134.3,98.6,133.3,99.9z M133.3,80.4c-1,1.4-2.5,2.1-4.2,2.1c-1.8,0-3.2-0.7-4.2-2.1s-1.5-3.3-1.5-5.6
		c0-2.4,0.5-4.2,1.5-5.6c1-1.4,2.4-2.1,4.2-2.1c1.8,0,3.2,0.7,4.2,2.1s1.6,3.3,1.6,5.6C134.8,77.2,134.3,79.1,133.3,80.4z"/>
	<path fill="#EFF4FB" d="M114.8,89.2c-0.8,0-1.5,0.4-1.9,1.3c-0.5,0.9-0.7,2.1-0.7,3.7c0,1.6,0.2,2.8,0.7,3.7
		c0.5,0.9,1.1,1.4,1.9,1.4c0.8,0,1.5-0.5,2-1.4c0.5-0.9,0.7-2.1,0.7-3.7c0-1.6-0.2-2.8-0.7-3.7C116.3,89.7,115.7,89.2,114.8,89.2z"
		/>
</g>
</svg>
