<?xml version="1.0" encoding="utf-8"?>
<!-- Generator: Adobe Illustrator 18.1.1, SVG Export Plug-In . SVG Version: 6.00 Build 0)  -->
<svg version="1.1" id="Layer_4_copy" xmlns="http://www.w3.org/2000/svg" xmlns:xlink="http://www.w3.org/1999/xlink" x="0px"
	 y="0px" viewBox="0 0 186.7 186.7" enable-background="new 0 0 186.7 186.7" xml:space="preserve">
<g>
	<rect x="0" y="0" fill="none" width="186.7" height="186.7"/>
	<path fill="#EEF4FB" d="M93.4,13.8c-43.9,0-79.5,35.6-79.5,79.5c0,43.9,35.6,79.5,79.5,79.5c43.9,0,79.5-35.6,79.5-79.5
		C172.9,49.4,137.3,13.8,93.4,13.8z M139.4,104.5c-4.2,4.3-9.1,8.1-13.9,11.8c-1.1,0.9-3.6,1.4-4.6,0.7c-1-0.6-1.5-2.9-1.4-4.4
		c0.3-6-1.3-9.9-5.4-11.8c-4.4-2.1-10.4-0.7-14.5,3.3c-3.8,3.7-5.3,9.3-3,13.5c1.1,1.9,3.5,3.2,5.4,4.6c0.6,0.4,1.4,0.4,2.1,0.6
		c2.2,0.8,5.4,0.3,6.1,3.3c0.7,3-1.7,4.8-3.7,6.2c-5.4,3.8-11,7.4-16.5,11c-1.9,1.2-3,0.8-4.2-1.3c-3.7-6.1-7.7-12-11.7-18
		c-0.4-0.6-1-1.1-1.6-1.6c-2.7-2.4-4-2-4.6,1.6c-1,5.9-3.3,10.6-9.8,12.1c-5.4,1.2-10.9-2.4-13.7-8.8c-2.3-5.3-1.3-11.1,3.1-13.4
		c2.7-1.4,6.1-1.3,9.2-2c1.4-0.3,3.4-0.6,3.8-1.4c0.5-1.2,0.1-3.3-0.8-4.3c-5-5.7-10.2-11.2-15.5-16.7c-1.4-1.4-1.8-2.6-0.3-4.1
		c5.2-4.9,10.4-9.9,15.8-14.6c1.2-1,4-1.7,5.1-1c1.4,0.8,2.4,3.3,2.4,5c0,4.5,0.1,8.8,4.8,11c4.9,2.4,9.3,0.6,13-2.7
		c2.1-1.9,4-4.3,5.1-6.9c2.1-5-0.9-10.1-6.3-11.2c-1.7-0.3-3.4-0.5-5-1.1c-3.5-1.2-4.5-4.8-1.6-7c6.1-4.8,12.7-9.1,19-13.6
		c1.5-1.1,2.5-0.2,3.4,1.2c3.6,5.5,7.4,11,11.1,16.5c0.1,0.2,0.2,0.4,0.4,0.5c1.9,1.2,3.8,2.5,5.7,3.7c0.8-1.8,2-3.6,2.4-5.5
		c1.4-5.9,4.7-9.1,9.9-9.2c5.6-0.2,11.6,4.8,13.2,10.8c1.3,4.9-0.8,10.6-5.4,12.5c-2.5,1.1-5.6,0.9-8.4,1.4
		c-1.2,0.2-3.1,0.5-3.2,1.1c-0.2,1.2,0.1,2.9,0.9,3.8c4.1,4.8,8.3,9.5,12.5,14.2C144.9,99.5,145.5,98.3,139.4,104.5z"/>
</g>
</svg>
