<svg xmlns="http://www.w3.org/2000/svg" viewBox="0 0 186.7 186.7" xmlns:v="https://vecta.io/nano"><path fill="#eef4fb" d="M93.4 13.8c-43.9 0-79.5 35.6-79.5 79.5s35.6 79.5 79.5 79.5 79.5-35.6 79.5-79.5-35.6-79.5-79.5-79.5zm46 90.7c-4.2 4.3-9.1 8.1-13.9 11.8-1.1.9-3.6 1.4-4.6.7-1-.6-1.5-2.9-1.4-4.4.3-6-1.3-9.9-5.4-11.8-4.4-2.1-10.4-.7-14.5 3.3-3.8 3.7-5.3 9.3-3 13.5 1.1 1.9 3.5 3.2 5.4 4.6.6.4 1.4.4 2.1.6 2.2.8 5.4.3 6.1 3.3s-1.7 4.8-3.7 6.2c-5.4 3.8-11 7.4-16.5 11-1.9 1.2-3 .8-4.2-1.3-3.7-6.1-7.7-12-11.7-18-.4-.6-1-1.1-1.6-1.6-2.7-2.4-4-2-4.6 1.6-1 5.9-3.3 10.6-9.8 12.1-5.4 1.2-10.9-2.4-13.7-8.8-2.3-5.3-1.3-11.1 3.1-13.4 2.7-1.4 6.1-1.3 9.2-2 1.4-.3 3.4-.6 3.8-1.4.5-1.2.1-3.3-.8-4.3-5-5.7-10.2-11.2-15.5-16.7-1.4-1.4-1.8-2.6-.3-4.1 5.2-4.9 10.4-9.9 15.8-14.6 1.2-1 4-1.7 5.1-1 1.4.8 2.4 3.3 2.4 5 0 4.5.1 8.8 4.8 11 4.9 2.4 9.3.6 13-2.7 2.1-1.9 4-4.3 5.1-6.9 2.1-5-.9-10.1-6.3-11.2-1.7-.3-3.4-.5-5-1.1-3.5-1.2-4.5-4.8-1.6-7 6.1-4.8 12.7-9.1 19-13.6 1.5-1.1 2.5-.2 3.4 1.2L110.7 61c.1.2.2.4.4.5l5.7 3.7c.8-1.8 2-3.6 2.4-5.5 1.4-5.9 4.7-9.1 9.9-9.2 5.6-.2 11.6 4.8 13.2 10.8 1.3 4.9-.8 10.6-5.4 12.5-2.5 1.1-5.6.9-8.4 1.4-1.2.2-3.1.5-3.2 1.1-.2 1.2.1 2.9.9 3.8 4.1 4.8 8.3 9.5 12.5 14.2 6.2 5.2 6.8 4 .7 10.2z"/></svg>