<svg xmlns="http://www.w3.org/2000/svg" viewBox="0 0 186.9 187.2" fill="#eff4fb" xmlns:v="https://vecta.io/nano"><path d="M146.7 61.6c-2.8-1.5-5.7-2.6-8.7-3.3-7.3-1.7-14.7-1.6-22.1-.3-4.4.8-8.6 2.1-12.4 4.6-3.7 2.6-5.9 6-5.9 10.7v2.8h0v5.1h0v46.4 1.3l1.6-1.6c2.1-1.8 4.5-3.1 7-4.1 6.2-2.5 12.6-3.4 19.2-2.9 6.5.5 12.5 2.5 18.3 5.6 1.1.6 2.3 1.3 3.5 2 0-.4.1-.7.1-1v-4.2V63c0-.5.1-1-.6-1.4zm-46 43.8c4.8-5.2 14.2-8.5 24.6-8.5 6.6 0 12.9 1.3 17.9 3.7.7.4 1.1 1.3.7 2-.4.8-1.2 1.1-2 .7-4.6-2.2-10.5-3.4-16.6-3.4-9.4 0-18.2 2.9-22.4 7.5-.3.3-.7.5-1.1.5s-.7-.1-1-.4c-.7-.5-.7-1.4-.1-2.1zm0-10.6c4.8-5.2 14.2-8.5 24.6-8.5 6.6 0 12.9 1.3 17.9 3.7.7.4 1.1 1.3.7 2-.4.8-1.2 1.1-2 .7-4.6-2.2-10.5-3.4-16.6-3.4-9.4 0-18.2 2.9-22.4 7.5-.3.3-.7.5-1.1.5s-.7-.1-1-.4c-.7-.5-.7-1.4-.1-2.1zm43.1 18.5c-.4.8-1.2 1.1-2 .7-4.6-2.2-10.5-3.4-16.6-3.4-9.4 0-18.2 2.9-22.4 7.5-.3.3-.7.5-1.1.5s-.7-.1-1-.4c-.6-.6-.6-1.5-.1-2.2 4.8-5.2 14.2-8.5 24.6-8.5 6.6 0 12.9 1.3 17.9 3.7.8.5 1.1 1.4.7 2.1zm0-31.8c-.4.8-1.2 1.1-2 .7-4.6-2.2-10.5-3.4-16.6-3.4-9.4 0-18.2 2.9-22.4 7.5-.3.3-.7.5-1.1.5s-.7-.1-1-.4c-.6-.6-.6-1.5-.1-2.2 4.8-5.2 14.2-8.5 24.6-8.5 6.6 0 12.9 1.3 17.9 3.7.8.4 1.1 1.3.7 2.1zm0-10.6c-.4.8-1.2 1.1-2 .7-4.6-2.2-10.5-3.4-16.6-3.4-9.4 0-18.2 2.9-22.4 7.5-.3.3-.7.5-1.1.5s-.7-.1-1-.4c-.6-.6-.6-1.5-.1-2.2 4.8-5.2 14.2-8.5 24.6-8.5 6.6 0 12.9 1.3 17.9 3.7.8.4 1.1 1.3.7 2.1zm-55.9-4.2c-2-3-4.9-4.8-8.1-6.2-4.8-2.1-9.9-3-15.1-3.3-8.3-.5-16.3.3-23.8 4.3-.7.4-.9.8-.9 1.5v63.9c0 .3 0 .7.1 1.1.4-.2.6-.3.8-.5 3.7-2.3 7.7-4.2 11.9-5.4 5.8-1.7 11.6-2.3 17.6-1.6 4.9.6 9.6 1.9 14 4.4 1.8 1 3.5 2.3 5.3 3.5v-.6-55.1c0-2-.5-4.1-1.8-6zm-1.5 51.5c-.3.3-.7.4-1 .4-.4 0-.8-.2-1.1-.5-4.2-4.6-13-7.5-22.4-7.5-6.1 0-12 1.2-16.6 3.4-.7.4-1.6 0-2-.7a1.47 1.47 0 0 1 .7-2c5-2.4 11.3-3.7 17.9-3.7 10.4 0 19.8 3.2 24.6 8.5.6.6.5 1.5-.1 2.1zm0-10.6c-.3.3-.7.4-1 .4-.4 0-.8-.2-1.1-.5-4.2-4.6-13-7.5-22.4-7.5-6.1 0-12 1.2-16.6 3.4-.8.4-1.6 0-2-.7a1.47 1.47 0 0 1 .7-2c5-2.4 11.3-3.7 17.9-3.7 10.4 0 19.8 3.2 24.6 8.5.6.6.5 1.5-.1 2.1zm0-10.6c-.3.3-.7.4-1 .4-.4 0-.8-.2-1.1-.5-4.2-4.6-13-7.5-22.4-7.5-6.1 0-12 1.2-16.6 3.4-.8.4-1.6 0-2-.7a1.47 1.47 0 0 1 .7-2c5-2.4 11.3-3.7 17.9-3.7 10.4 0 19.8 3.2 24.6 8.5.6.6.5 1.5-.1 2.1zm0-10.6c-.3.3-.7.4-1 .4-.4 0-.8-.2-1.1-.5-4.2-4.6-13-7.5-22.4-7.5-6.1 0-12 1.2-16.6 3.4-.7.4-1.6 0-2-.7a1.47 1.47 0 0 1 .7-2c5-2.4 11.3-3.7 17.9-3.7 10.4 0 19.8 3.2 24.6 8.5.6.5.5 1.5-.1 2.1zm0-10.6c-.3.3-.7.4-1 .4-.4 0-.8-.2-1.1-.5-4.2-4.6-13-7.5-22.4-7.5-6.1 0-12 1.2-16.6 3.4-.7.4-1.6 0-2-.7a1.47 1.47 0 0 1 .7-2c5-2.4 11.3-3.7 17.9-3.7 10.4 0 19.8 3.2 24.6 8.5.6.5.5 1.5-.1 2.1zm7.2-62c-44 0-79.6 35.6-79.6 79.6 0 43.9 35.6 79.5 79.5 79.5S173 137.3 173 93.4c.1-44-35.5-79.6-79.4-79.6zm58.2 120.4h-47c-.6 0-1.2.3-1.8.5-.5.2-1 .5-1.5.7-3.8 1.4-7.6 1.5-11.5 1.1-2.1-.2-4.2-.6-6-1.7-.9-.5-1.7-.7-2.7-.6H35.1c-.4 0-.8-.1-1.2-.1v-78c1.5-.5 2.9-1.1 4.4-1.6 6.6-2.5 13.4-4 20.5-4.4 7.5-.4 14.8.4 21.9 2.8 4.7 1.6 9.2 3.5 13.1 6.7.2.1.6.1.8 0 2.3-1.3 4.6-2.8 7-3.9 6.4-3.1 13.3-4.7 20.4-5.2 9.4-.7 18.6.7 27.4 4.2l3.8 1.4v78c-.5 0-.9.1-1.4.1z"/></svg>