<svg xmlns="http://www.w3.org/2000/svg" viewBox="0 0 186.7 186.7" fill="#eef4fb" xmlns:v="https://vecta.io/nano"><path d="M99.3 112c-5.1 1.7-7.7 7.1-6 12.1 1.7 5.1 7.3 7.9 12.3 6.1s7.6-7.2 6-12.2c-1.7-5.1-7.1-7.7-12.3-6zm43.4-39.5C133.4 50.4 110 37 86.4 40.3c-6.4.9-12.6 2.5-18 6.2C56 55.2 56.2 69.9 60.6 79c6.5 13.2 19.2 18.5 33.3 14.1 12.4-3.8 25.2 1.7 31.6 13.4 5.8 10.7 2.9 24.9-6.8 33-.6.5-1.3 1-1.9 1.5.1.2.2.3.3.5 3-2 6.2-3.8 9.1-6 19.1-14.6 25.8-40.7 16.5-63zm-55.6 2.4c-5 1.6-10.7-1.4-12.3-6.3-1.6-5 1.3-10.7 6.3-12.3 5.1-1.7 10.9 1.3 12.5 6.4 1.4 5-1.5 10.7-6.5 12.2zm6.3-61.1c-43.9 0-79.5 35.6-79.5 79.5s35.6 79.5 79.5 79.5 79.5-35.6 79.5-79.5-35.6-79.5-79.5-79.5zm.5 142.4c-34.8 0-63.1-28.2-63.1-63.1C30.8 58.3 59 30 93.9 30c34.8 0 63.1 28.2 63.1 63.1s-28.2 63.1-63.1 63.1z"/></svg>