<?xml version="1.0" encoding="utf-8"?>
<!-- Generator: Adobe Illustrator 18.1.1, SVG Export Plug-In . SVG Version: 6.00 Build 0)  -->
<svg version="1.1" id="Layer_4_copy" xmlns="http://www.w3.org/2000/svg" xmlns:xlink="http://www.w3.org/1999/xlink" x="0px"
	 y="0px" viewBox="0 0 186.7 186.7" enable-background="new 0 0 186.7 186.7" xml:space="preserve">
<g>
	<rect x="0" y="0" fill="none" width="186.7" height="186.7"/>
	<g>
		<path fill="#EEF4FB" d="M99.3,112c-5.1,1.7-7.7,7.1-6,12.1c1.7,5.1,7.3,7.9,12.3,6.1c5-1.8,7.6-7.2,6-12.2
			C109.9,112.9,104.5,110.3,99.3,112z"/>
		<path fill="#EEF4FB" d="M142.7,72.5C133.4,50.4,110,37,86.4,40.3c-6.4,0.9-12.6,2.5-18,6.2C56,55.2,56.2,69.9,60.6,79
			c6.5,13.2,19.2,18.5,33.3,14.1c12.4-3.8,25.2,1.7,31.6,13.4c5.8,10.7,2.9,24.9-6.8,33c-0.6,0.5-1.3,1-1.9,1.5
			c0.1,0.2,0.2,0.3,0.3,0.5c3-2,6.2-3.8,9.1-6C145.3,120.9,152,94.8,142.7,72.5z M87.1,74.9c-5,1.6-10.7-1.4-12.3-6.3
			c-1.6-5,1.3-10.7,6.3-12.3c5.1-1.7,10.9,1.3,12.5,6.4C95,67.7,92.1,73.4,87.1,74.9z"/>
		<path fill="#EEF4FB" d="M93.4,13.8c-43.9,0-79.5,35.6-79.5,79.5c0,43.9,35.6,79.5,79.5,79.5c43.9,0,79.5-35.6,79.5-79.5
			C172.9,49.4,137.3,13.8,93.4,13.8z M93.9,156.2c-34.8,0-63.1-28.2-63.1-63.1c0-34.8,28.2-63.1,63.1-63.1
			c34.8,0,63.1,28.2,63.1,63.1C157,128,128.8,156.2,93.9,156.2z"/>
	</g>
</g>
</svg>
