<?xml version="1.0" encoding="utf-8"?>
<!-- Generator: Adobe Illustrator 18.1.1, SVG Export Plug-In . SVG Version: 6.00 Build 0)  -->
<svg version="1.1" id="Layer_4_copy" xmlns="http://www.w3.org/2000/svg" xmlns:xlink="http://www.w3.org/1999/xlink" x="0px"
	 y="0px" viewBox="0 0 186.7 186.7" enable-background="new 0 0 186.7 186.7" xml:space="preserve">
<g>
	<rect x="0" y="0" fill="none" width="186.7" height="186.7"/>
	<g>
		<path fill="#EEF4FB" d="M130,62.4c-2.1,0-4.4,0.2-6.9,0.6c2.8,2.8,5.3,5.9,7.3,9.4c-5.9,8.7-18,20-35.8,30.2
			c-12.8,7.3-25.9,12.4-36.7,14.4c-2.8-4.2-4.9-9-6-14.1c-6.8,7.9-9.3,14.6-7.5,17.8c1.2,2.2,5.1,3.4,10.5,3.4
			c12,0,29.2-5.7,45.9-15.3c29.5-16.9,43.1-36.7,39.5-43C139.1,63.6,135.3,62.4,130,62.4z"/>
		<path fill="#EEF4FB" d="M93.4,13.8c-43.9,0-79.5,35.6-79.5,79.5c0,43.9,35.6,79.5,79.5,79.5c43.9,0,79.5-35.6,79.5-79.5
			C172.9,49.4,137.3,13.8,93.4,13.8z M135.9,94.6c-0.6,23-19.4,41.4-42.6,41.4c-7.2,0-13.9-1.8-19.8-4.9c-6.9,1.9-13.3,2.9-18.8,2.9
			c-11.8,0-16.9-4.6-19.1-8.4c-5.7-9.9,2-23.6,15.3-36.2c2-21.6,20.2-38.5,42.4-38.5c6.7,0,13,1.5,18.6,4.3c6.6-1.7,12.7-2.7,18-2.7
			c11.7,0,16.8,4.5,19,8.3C154.2,69.9,147.8,82.5,135.9,94.6z"/>
	</g>
</g>
</svg>
