<svg xmlns="http://www.w3.org/2000/svg" viewBox="0 0 186.7 186.7" fill="#eef4fb" xmlns:v="https://vecta.io/nano"><path d="M130 62.4c-2.1 0-4.4.2-6.9.6 2.8 2.8 5.3 5.9 7.3 9.4-5.9 8.7-18 20-35.8 30.2-12.8 7.3-25.9 12.4-36.7 14.4-2.8-4.2-4.9-9-6-14.1-6.8 7.9-9.3 14.6-7.5 17.8 1.2 2.2 5.1 3.4 10.5 3.4 12 0 29.2-5.7 45.9-15.3 29.5-16.9 43.1-36.7 39.5-43-1.2-2.2-5-3.4-10.3-3.4zM93.4 13.8c-43.9 0-79.5 35.6-79.5 79.5s35.6 79.5 79.5 79.5 79.5-35.6 79.5-79.5-35.6-79.5-79.5-79.5zm42.5 80.8c-.6 23-19.4 41.4-42.6 41.4a42.36 42.36 0 0 1-19.8-4.9c-6.9 1.9-13.3 2.9-18.8 2.9-11.8 0-16.9-4.6-19.1-8.4-5.7-9.9 2-23.6 15.3-36.2 2-21.6 20.2-38.5 42.4-38.5 6.7 0 13 1.5 18.6 4.3 6.6-1.7 12.7-2.7 18-2.7 11.7 0 16.8 4.5 19 8.3 5.3 9.1-1.1 21.7-13 33.8z"/></svg>