<svg xmlns="http://www.w3.org/2000/svg" viewBox="0 0 186.7 186.7" fill="#eff4fb" xmlns:v="https://vecta.io/nano"><path d="M92.2 87.1c-.9-1.1-2.5-2-4.7-2.5l-3.3-.7c-1.3-.3-2.1-.8-2.3-1.6-.1-1.4.3-2.3 1.4-2.7.8-.4 1.7-.6 2.7-.6 1.2 0 1.9.3 2.2.9.3.7 1 .9 2.3.6.9-.3 1.4-.9 1.4-1.8 0-.7-.6-1.3-1.7-1.9-1-.5-2.2-.8-3.8-.9-2.5 0-4.3.5-5.7 1.8-1.2 1.1-1.8 2.6-1.8 4.4.1 1.7.7 2.8 1.9 3.4.9.5 2.2 1 3.9 1.3l2.2.5c.9.2 1.5.4 2 .7.4.2.8.5 1 .8.3.3.5.7.6 1.1s.2.7.2 1.1c0 .3 0 .6-.1.9s-.1.6-.2.9l-.6 1.1c-.2.3-.5.6-.8.9-.6.4-1.5.6-2.9.6h-.4-.5l-1.1-.2c-.5-.1-.9-.3-1.3-.5-.5-.4-.8-.8-.8-1.1v-1.3c0-.5-.1-.9-.5-1.2s-.7-.4-1.1-.5c-1.2 0-1.9.6-2 2 0 1.2.5 2.4 1.5 3.5s2.4 1.8 4.3 1.9c3.2.3 5.4-.1 6.8-1.1 1.1-.8 1.9-1.9 2.4-3.3.3-.8.4-1.7.5-2.7v-1l-1.7-2.8zm19.8 4.5c1.1.2 1.7 0 1.8-.8l.1-14.3c0-.4-.3-.8-.7-1.1s-.9-.4-1.5-.3-.9.7-.9 1.5v10.5c0 .4 0 1.4-.2 2.9 0 .9.4 1.4 1.4 1.6zm-7.2-14.8c-.2-.1-.4-.2-.6-.2s-.4 0-.8-.1c-2.4-.1-4.2 0-5.2.4-.3.2-.5.5-.5 1.1.1.6.2 1.1.5 1.4.2.2.5.3.9.2s.8-.1 1-.1v.5l-.1 4.9c-.1 1.2-.1 2.8-.1 4.7l-.1 2.9v2.2.5H99h-.8c-.3 0-.4.2-.4.6V97c0 .5.1.7.4.9.2.1.4.2.7.3.2.1.5.1.9.1h1.5.8l2.2-.1c.2 0 .4-.1.6-.3s.3-.5.3-.9c-.1-.7-.2-1.2-.4-1.4-.1-.2-.5-.3-1-.3h-.9v-.6l.1-2.9.1-4.5.1-4.8v-2.2-.6h.8.7c.3-.1.4-.2.4-.6v-1.2c0-.7-.1-1-.3-1.1zm-11.4-63c-43.9 0-79.5 35.6-79.5 79.5s35.6 79.5 79.5 79.5 79.5-35.6 79.5-79.5-35.6-79.5-79.5-79.5zM95 130.6c-5 0-10-.6-14.6-1.8-7.6 9.3-18.4 11.6-18.4 11.6 3.1-6.8 4.4-12.4 4.8-17-14.2-7.6-23.5-21-23.5-36.2C43.3 63.4 66.4 44 95 44c28.5 0 51.6 19.4 51.6 43.3s-23.2 43.3-51.6 43.3zm18.4-35.9c-.1-.1-.3-.2-.5-.2-.6-.1-1.1-.1-1.5.1-.5.2-.7.7-.9 1.5-.1.7-.1 1.1.2 1.4s.4.5.6.6c.6.3 1.2.3 1.7.1.6-.2.9-.7 1-1.6.1-.6 0-1.1-.3-1.4-.1-.3-.2-.4-.3-.5z"/></svg>