<?xml version="1.0" encoding="utf-8"?>
<!-- Generator: Adobe Illustrator 18.1.1, SVG Export Plug-In . SVG Version: 6.00 Build 0)  -->
<svg version="1.1" id="margin" xmlns="http://www.w3.org/2000/svg" xmlns:xlink="http://www.w3.org/1999/xlink" x="0px" y="0px"
	 viewBox="0 0 186.7 186.7" enable-background="new 0 0 186.7 186.7" xml:space="preserve">
<rect x="0" y="0" fill="none" width="186.7" height="186.7"/>
<g>
	<path fill="#EFF4FB" d="M92.2,87.1c-0.9-1.1-2.5-2-4.7-2.5c-1.1-0.2-2.3-0.4-3.3-0.7c-1.3-0.3-2.1-0.8-2.3-1.6
		c-0.1-1.4,0.3-2.3,1.4-2.7c0.8-0.4,1.7-0.6,2.7-0.6c1.2,0,1.9,0.3,2.2,0.9c0.3,0.7,1,0.9,2.3,0.6c0.9-0.3,1.4-0.9,1.4-1.8
		c0-0.7-0.6-1.3-1.7-1.9c-1-0.5-2.2-0.8-3.8-0.9c-2.5,0-4.3,0.5-5.7,1.8c-1.2,1.1-1.8,2.6-1.8,4.4c0.1,1.7,0.7,2.8,1.9,3.4
		c0.9,0.5,2.2,1,3.9,1.3c0.8,0.2,1.6,0.3,2.2,0.5c0.9,0.2,1.5,0.4,2,0.7c0.4,0.2,0.8,0.5,1,0.8c0.3,0.3,0.5,0.7,0.6,1.1
		s0.2,0.7,0.2,1.1c0,0.3,0,0.6-0.1,0.9c-0.1,0.3-0.1,0.6-0.2,0.9c-0.2,0.4-0.4,0.8-0.6,1.1c-0.2,0.3-0.5,0.6-0.8,0.9
		c-0.6,0.4-1.5,0.6-2.9,0.6c-0.1,0-0.3,0-0.4,0c-0.1,0-0.3,0-0.5,0l-1.1-0.2c-0.5-0.1-0.9-0.3-1.3-0.5c-0.5-0.4-0.8-0.8-0.8-1.1
		s0-0.7,0-1.3c0-0.5-0.1-0.9-0.5-1.2c-0.4-0.3-0.7-0.4-1.1-0.5c-1.2,0-1.9,0.6-2,2c0,1.2,0.5,2.4,1.5,3.5c1,1.1,2.4,1.8,4.3,1.9
		c3.2,0.3,5.4-0.1,6.8-1.1c1.1-0.8,1.9-1.9,2.4-3.3c0.3-0.8,0.4-1.7,0.5-2.7c0-0.3,0-0.7,0-1C93.3,88.9,92.8,88,92.2,87.1z"/>
	<path fill="#EFF4FB" d="M112,91.6c1.1,0.2,1.7,0,1.8-0.8l0.1-14.3c0-0.4-0.3-0.8-0.7-1.1c-0.4-0.3-0.9-0.4-1.5-0.3
		c-0.6,0.1-0.9,0.7-0.9,1.5l0,10.5c0,0.4,0,1.4-0.2,2.9C110.6,90.9,111,91.4,112,91.6z"/>
	<path fill="#EFF4FB" d="M104.8,76.8c-0.2-0.1-0.4-0.2-0.6-0.2c-0.2,0-0.4,0-0.8-0.1c-2.4-0.1-4.2,0-5.2,0.4
		c-0.3,0.2-0.5,0.5-0.5,1.1c0.1,0.6,0.2,1.1,0.5,1.4c0.2,0.2,0.5,0.3,0.9,0.2c0.4-0.1,0.8-0.1,1-0.1c0,0.2,0,0.3,0,0.5
		c0,2-0.1,3.6-0.1,4.9c-0.1,1.2-0.1,2.8-0.1,4.7c0,1.1,0,2-0.1,2.9c0,1.2,0,2,0,2.2c0,0.2,0,0.4,0,0.5c-0.3,0-0.5,0-0.8,0
		c-0.3,0-0.6,0-0.8,0c-0.3,0-0.4,0.2-0.4,0.6s0,0.7,0,1.2s0.1,0.7,0.4,0.9c0.2,0.1,0.4,0.2,0.7,0.3c0.2,0.1,0.5,0.1,0.9,0.1
		c0.6,0,1.1,0,1.5,0s0.6,0,0.8,0c1,0,1.7,0,2.2-0.1c0.2,0,0.4-0.1,0.6-0.3c0.2-0.2,0.3-0.5,0.3-0.9c-0.1-0.7-0.2-1.2-0.4-1.4
		c-0.1-0.2-0.5-0.3-1-0.3c-0.4,0-0.7,0-0.9,0v-0.6c0-0.7,0.1-1.6,0.1-2.9c0-1,0-2.5,0.1-4.5c0-2,0.1-3.6,0.1-4.8c0-1.2,0-2,0-2.2
		c0-0.3,0-0.5,0-0.6c0.3,0,0.5,0,0.8,0c0.2,0,0.5,0,0.7,0c0.3-0.1,0.4-0.2,0.4-0.6c0-0.3,0-0.7,0-1.2
		C105.1,77.2,105,76.9,104.8,76.8z"/>
	<path fill="#EFF4FB" d="M93.4,13.8c-43.9,0-79.5,35.6-79.5,79.5c0,43.9,35.6,79.5,79.5,79.5c43.9,0,79.5-35.6,79.5-79.5
		C172.9,49.4,137.3,13.8,93.4,13.8z M95,130.6c-5,0-10-0.6-14.6-1.8c-7.6,9.3-18.4,11.6-18.4,11.6c3.1-6.8,4.4-12.4,4.8-17
		c-14.2-7.6-23.5-21-23.5-36.2C43.3,63.4,66.4,44,95,44c28.5,0,51.6,19.4,51.6,43.3C146.6,111.2,123.4,130.6,95,130.6z"/>
	<path fill="#EFF4FB" d="M113.4,94.7c-0.1-0.1-0.3-0.2-0.5-0.2c-0.6-0.1-1.1-0.1-1.5,0.1c-0.5,0.2-0.7,0.7-0.9,1.5
		c-0.1,0.7-0.1,1.1,0.2,1.4s0.4,0.5,0.6,0.6c0.6,0.3,1.2,0.3,1.7,0.1c0.6-0.2,0.9-0.7,1-1.6c0.1-0.6,0-1.1-0.3-1.4
		C113.6,94.9,113.5,94.8,113.4,94.7z"/>
</g>
</svg>
