<?xml version="1.0" encoding="utf-8"?>
<!-- Generator: Adobe Illustrator 18.1.1, SVG Export Plug-In . SVG Version: 6.00 Build 0)  -->
<svg version="1.1" id="Layer_3_copy" xmlns="http://www.w3.org/2000/svg" xmlns:xlink="http://www.w3.org/1999/xlink" x="0px"
	 y="0px" viewBox="0 0 186.9 187.2" enable-background="new 0 0 186.9 187.2" xml:space="preserve">
<rect x="0.2" y="0" fill="none" width="186.7" height="186.7"/>
<g>
	<path fill="#EFF4FB" d="M59.8,108.5c5-1.8,9.5-3.5,13.6-5.3c0.2-0.1,0.5-0.3,0.7-0.5l0,0c0.5-0.5,0.9-1.2,1-1.8
		c0.3-1.5,0.5-3.1,0.8-4.6c0.3-2.1,0.6-4.2,1.1-6.2c2.1-7.6,0.8-12.2-4.1-14.6l-0.2-0.1c-0.9-0.9-1.7-1.7-2.5-2.5
		c-1.7-1.7-3-3-4.3-4.4c-0.7-0.8-1.1-0.8-2.1-0.3c-1.8,1-3.6,2-5.3,3c-2.5,1.3-5,2.7-7.4,4.2c-0.2,0.1-0.4,0.2-0.5,0.4
		c-0.5,0.5-0.9,1.1-1,1.7c-1.1,5.6-2,11.4-2.9,17.3c-0.1,0.8,0.2,1.9,0.7,2.4c3.4,3.8,6.9,7.6,10.4,11
		C58.1,108.4,59.2,108.7,59.8,108.5z"/>
	<path fill="#EFF4FB" d="M39.9,100.9c4.1-11.2,5.9-21.7,5.3-32C39.8,79,38.1,89.7,39.9,100.9z"/>
	<path fill="#EFF4FB" d="M101.9,39.5c-12-1.7-23,0.1-33.6,5.5C76.5,46.3,92.3,43.7,101.9,39.5z"/>
	<path fill="#EFF4FB" d="M107.1,77.1c2.8,5.7,5.6,11.1,8.3,16.3c0.3,0.5,1.1,1.1,1.5,1.1c3.9,0.2,7.7,0.3,11.7,0.4
		c1.1,0,2.2,0.1,3.4,0.1l1.2-3.4c1.4-4,2.9-8.2,4.3-12.2c0.2-0.5,0.1-1.3-0.2-1.9c-2.4-4.5-4.9-8.8-7.7-13.7
		c-0.4-0.7-0.7-0.9-0.7-0.9c-4.4-0.9-8.9-1.7-13.2-2.5l-2.9-0.5c-0.5,1.2-0.9,2.3-1.4,3.5c-1.6,4-3.1,7.8-4.5,11.6
		C106.7,75.5,106.8,76.5,107.1,77.1z"/>
	<path fill="#EFF4FB" d="M95.6,124.7c-0.1-2.4-0.1-4.8-0.3-7.3c0-0.7-0.7-1.7-1.2-2c-4.7-2.5-10-5.2-16.5-8.4
		c-0.7-0.3-1.6-0.4-2.1-0.2c-4,1.5-7.9,3-12,4.6l-3.4,1.3l0.6,3.3c0.8,4.1,1.5,8,2.3,11.9c0.1,0.4,0.6,1,1.3,1.4
		c3.8,2.3,8.3,5,13.1,7.6c0.6,0.3,1.6,0.4,2.3,0.2c2.5-0.8,5-1.7,7.4-2.6c2.4-0.9,4.9-1.8,7.4-2.6c0.4-0.1,0.7-0.3,0.9-0.5
		c0.2-0.2,0.4-0.5,0.3-1.5C95.7,128.2,95.7,126.5,95.6,124.7z"/>
	<path fill="#EFF4FB" d="M81.1,146.1c-8.6-8.4-17-13.1-26.4-14.6C62.2,139.1,71,144.1,81.1,146.1z"/>
	<path fill="#EFF4FB" d="M93.6,13.8C49.6,13.8,14,49.4,14,93.4c0,43.9,35.6,79.5,79.5,79.5c43.9,0,79.5-35.6,79.5-79.5
		C173.1,49.4,137.5,13.8,93.6,13.8z M146.4,121.2c-1.3,2.8-3.1,5.3-4.9,7.8c-0.8,1.1-1.6,2.3-2.4,3.4l0,0.1l-6.5,6.5
		c-0.2,0.1-0.3,0.2-0.5,0.3c-0.3,0.2-0.7,0.4-1,0.6c-19.2,14.8-40.2,17.4-62.5,7.7c-3.5-1.5-6.6-3.7-9.7-5.8c-1.4-1-2.8-2-4.3-2.9
		l-0.1-0.1l-6.4-6.4c-0.1-0.2-0.2-0.4-0.4-0.6c-0.2-0.4-0.5-0.8-0.7-1.1c-15.1-18.6-17.5-44.2-6.2-65.2c1.4-2.7,3.2-5.2,4.9-7.7
		c0.8-1.1,1.6-2.3,2.4-3.5l0.1-0.1l6.5-6.4c0.2-0.1,0.3-0.2,0.5-0.3c0.3-0.2,0.6-0.3,0.8-0.5c19.3-15.6,44.8-17.9,66.5-6.1
		c2.5,1.3,4.8,3,7.1,4.6c1.1,0.7,2.1,1.5,3.2,2.2l0.1,0.1l6.4,6.4c0.1,0.2,0.2,0.4,0.3,0.6c0.2,0.4,0.5,0.8,0.7,1.1
		C155.4,76.3,157.5,98.2,146.4,121.2z"/>
	<path fill="#EFF4FB" d="M104.8,69.4c0.3-0.9,0.6-1.9,0.9-2.8c0-0.1,0.1-0.1,0.1-0.2c0.3-0.9,0.8-1.8,1.2-2.7
		c0.9-1.8,1.9-3.8,1.5-5.2c-0.4-1.5-2-2.9-3.7-4.2c-0.8-0.6-1.6-1.3-2.2-1.9l-0.5-0.5l0.1-0.1c-0.4-0.3-0.7-0.6-1.1-1
		c-1.3-1.2-2.7-2.5-4.1-3.6c-0.5-0.4-1.4-0.6-2-0.5c-7,1-12.5,1.8-17.6,2.8c-0.6,0.1-1.3,0.5-1.9,1.1c-0.2,0.2-0.3,0.4-0.4,0.5
		c-1.3,2.2-2.5,4.4-3.7,6.6c-1,1.9-2.1,3.8-3.2,5.7c-0.6,1.1-0.5,1.6,0.4,2.5c1.7,1.7,3.5,3.4,5.1,5.1c2,2,4.1,4.2,6.3,6.2
		c0.5,0.5,1.6,0.9,2.4,0.8c2.9-0.3,5.9-0.8,8.8-1.3l2.3-0.4c0.9-0.2,1.9-0.2,2.9-0.3c2.1-0.2,4.3-0.3,5.6-1.4
		C103.6,73.5,104.2,71.4,104.8,69.4z"/>
	<path fill="#EFF4FB" d="M131.6,54.6c2.3,10.4,7.2,19.2,14.8,26.2C144.2,70.6,139.2,61.8,131.6,54.6z"/>
	<path fill="#EFF4FB" d="M134.6,115.4c0.4-0.4,0.7-1.4,0.6-1.8c-0.8-3.7-1.6-7.3-2.5-11.2c-0.3-1.1-0.5-2.2-0.8-3.3l-3-0.1
		c-3.6-0.1-6.9-0.2-10.3-0.2c-0.5,0-1.1,0.3-1.5,0.6c-5.6,5.5-11.1,11.1-16.7,16.7c-0.9,0.9-1,1.3-1,1.4c0,3.8,0.1,7.6,0.3,11.3
		l0.1,3c1.1,0.3,2.2,0.5,3.3,0.8c3.6,0.8,7,1.6,10.5,2.4c0.6,0.1,1.6-0.2,2.1-0.6C121.9,128.3,128.3,121.8,134.6,115.4z"/>
	<path fill="#EFF4FB" d="M114.6,143.3c6-2.1,12.2-6.1,17.6-11.6c5.6-5.6,9.8-12.1,11.6-18c-5.6,4.3-10.8,8.8-15.5,13.5
		C123.3,132.3,118.7,137.7,114.6,143.3z"/>
</g>
</svg>
