<svg xmlns="http://www.w3.org/2000/svg" viewBox="0 0 186.9 187.2" fill="#eff4fb" xmlns:v="https://vecta.io/nano"><path d="M59.8 108.5c5-1.8 9.5-3.5 13.6-5.3a3.04 3.04 0 0 0 .7-.5h0c.5-.5.9-1.2 1-1.8.3-1.5.5-3.1.8-4.6.3-2.1.6-4.2 1.1-6.2 2.1-7.6.8-12.2-4.1-14.6l-.2-.1-2.5-2.5-4.3-4.4c-.7-.8-1.1-.8-2.1-.3l-5.3 3c-2.5 1.3-5 2.7-7.4 4.2-.2.1-.4.2-.5.4-.5.5-.9 1.1-1 1.7-1.1 5.6-2 11.4-2.9 17.3-.1.8.2 1.9.7 2.4 3.4 3.8 6.9 7.6 10.4 11 .3.2 1.4.5 2 .3zm-19.9-7.6c4.1-11.2 5.9-21.7 5.3-32-5.4 10.1-7.1 20.8-5.3 32zm62-61.4c-12-1.7-23 .1-33.6 5.5 8.2 1.3 24-1.3 33.6-5.5zm5.2 37.6l8.3 16.3c.3.5 1.1 1.1 1.5 1.1 3.9.2 7.7.3 11.7.4 1.1 0 2.2.1 3.4.1l1.2-3.4 4.3-12.2c.2-.5.1-1.3-.2-1.9-2.4-4.5-4.9-8.8-7.7-13.7-.4-.7-.7-.9-.7-.9l-13.2-2.5-2.9-.5-1.4 3.5-4.5 11.6c-.2.5-.1 1.5.2 2.1zm-11.5 47.6l-.3-7.3c0-.7-.7-1.7-1.2-2-4.7-2.5-10-5.2-16.5-8.4-.7-.3-1.6-.4-2.1-.2l-12 4.6-3.4 1.3.6 3.3 2.3 11.9c.1.4.6 1 1.3 1.4 3.8 2.3 8.3 5 13.1 7.6.6.3 1.6.4 2.3.2 2.5-.8 5-1.7 7.4-2.6s4.9-1.8 7.4-2.6c.4-.1.7-.3.9-.5s.4-.5.3-1.5c0-1.7 0-3.4-.1-5.2zm-14.5 21.4c-8.6-8.4-17-13.1-26.4-14.6 7.5 7.6 16.3 12.6 26.4 14.6zM93.6 13.8c-44 0-79.6 35.6-79.6 79.6 0 43.9 35.6 79.5 79.5 79.5S173 137.3 173 93.4c.1-44-35.5-79.6-79.4-79.6zm52.8 107.4c-1.3 2.8-3.1 5.3-4.9 7.8-.8 1.1-1.6 2.3-2.4 3.4v.1l-6.5 6.5c-.2.1-.3.2-.5.3-.3.2-.7.4-1 .6-19.2 14.8-40.2 17.4-62.5 7.7-3.5-1.5-6.6-3.7-9.7-5.8-1.4-1-2.8-2-4.3-2.9l-.1-.1-6.4-6.4c-.1-.2-.2-.4-.4-.6-.2-.4-.5-.8-.7-1.1-15.1-18.6-17.5-44.2-6.2-65.2 1.4-2.7 3.2-5.2 4.9-7.7.8-1.1 1.6-2.3 2.4-3.5l.1-.1 6.5-6.4c.2-.1.3-.2.5-.3.3-.2.6-.3.8-.5 19.3-15.6 44.8-17.9 66.5-6.1 2.5 1.3 4.8 3 7.1 4.6 1.1.7 2.1 1.5 3.2 2.2l.1.1 6.4 6.4.3.6c.2.4.5.8.7 1.1 15.1 20.4 17.2 42.3 6.1 65.3zm-41.6-51.8l.9-2.8c0-.1.1-.1.1-.2.3-.9.8-1.8 1.2-2.7.9-1.8 1.9-3.8 1.5-5.2-.4-1.5-2-2.9-3.7-4.2a21.54 21.54 0 0 1-2.2-1.9l-.5-.5.1-.1c-.4-.3-.7-.6-1.1-1L97 47.2c-.5-.4-1.4-.6-2-.5-7 1-12.5 1.8-17.6 2.8-.6.1-1.3.5-1.9 1.1-.2.2-.3.4-.4.5-1.3 2.2-2.5 4.4-3.7 6.6-1 1.9-2.1 3.8-3.2 5.7-.6 1.1-.5 1.6.4 2.5l5.1 5.1c2 2 4.1 4.2 6.3 6.2.5.5 1.6.9 2.4.8 2.9-.3 5.9-.8 8.8-1.3l2.3-.4c.9-.2 1.9-.2 2.9-.3 2.1-.2 4.3-.3 5.6-1.4 1.6-1.1 2.2-3.2 2.8-5.2zm26.8-14.8c2.3 10.4 7.2 19.2 14.8 26.2-2.2-10.2-7.2-19-14.8-26.2zm3 60.8c.4-.4.7-1.4.6-1.8l-2.5-11.2-.8-3.3-3-.1-10.3-.2c-.5 0-1.1.3-1.5.6l-16.7 16.7c-.9.9-1 1.3-1 1.4a210.28 210.28 0 0 0 .3 11.3l.1 3 3.3.8 10.5 2.4c.6.1 1.6-.2 2.1-.6l18.9-19zm-20 27.9c6-2.1 12.2-6.1 17.6-11.6 5.6-5.6 9.8-12.1 11.6-18-5.6 4.3-10.8 8.8-15.5 13.5-5 5.1-9.6 10.5-13.7 16.1z"/></svg>