<svg xmlns="http://www.w3.org/2000/svg" viewBox="0 0 186.9 187.2" fill="#eff4fb" xmlns:v="https://vecta.io/nano"><path d="M70.5 62L58.9 50.3v16.5c1.5-.2 3-.6 4.5-1.1 2.5-.8 4.9-2.1 7.1-3.7zm66.6 66.6l-11.7-11.7c-2.5 3.4-4.2 7.4-4.8 11.7h16.5zm-60-18.2v18.2h41.5c.7-4.8 2.5-9.3 5.4-13.1L71.9 63.4c-2.4 1.8-5.1 3.3-8 4.2-1.7.6-3.4 1-5.1 1.2v40.5H76c.6.1 1.1.5 1.1 1.1zm16.5-96.6c-44 0-79.6 35.6-79.6 79.6 0 43.9 35.6 79.5 79.5 79.5S173 137.3 173 93.4c.1-44-35.5-79.6-79.4-79.6zM54.9 132.6v-92l92 92h-92zm4-21.2h16.2v16.5H58.9z"/></svg>