<?xml version="1.0" encoding="utf-8"?>
<!-- Generator: Adobe Illustrator 18.1.1, SVG Export Plug-In . SVG Version: 6.00 Build 0)  -->
<svg version="1.1" id="trig" xmlns="http://www.w3.org/2000/svg" xmlns:xlink="http://www.w3.org/1999/xlink" x="0px" y="0px"
	 viewBox="0 0 186.9 187.2" enable-background="new 0 0 186.9 187.2" xml:space="preserve">
<rect x="0.2" y="0" fill="none" width="186.7" height="186.7"/>
<g>
	<path fill="#EFF4FB" d="M70.5,62L58.9,50.3v16.5c1.5-0.2,3-0.6,4.5-1.1C65.9,64.9,68.3,63.6,70.5,62z"/>
	<path fill="#EFF4FB" d="M137.1,128.6l-11.7-11.7c-2.5,3.4-4.2,7.4-4.8,11.7H137.1z"/>
	<path fill="#EFF4FB" d="M77.1,110.4v18.2h41.5c0.7-4.8,2.5-9.3,5.4-13.1L71.9,63.4c-2.4,1.8-5.1,3.3-8,4.2c-1.7,0.6-3.4,1-5.1,1.2
		v40.5h17.2C76.6,109.4,77.1,109.8,77.1,110.4z"/>
	<path fill="#EFF4FB" d="M93.6,13.8C49.6,13.8,14,49.4,14,93.4c0,43.9,35.6,79.5,79.5,79.5c43.9,0,79.5-35.6,79.5-79.5
		C173.1,49.4,137.5,13.8,93.6,13.8z M54.9,132.6v-92l92,92H54.9z"/>
	<rect x="58.9" y="111.4" fill="#EFF4FB" width="16.2" height="16.5"/>
</g>
</svg>
