<svg xmlns="http://www.w3.org/2000/svg" viewBox="0 0 186.9 187.2" fill="#eff4fb" xmlns:v="https://vecta.io/nano"><path d="M78 62.5c-5.9-2.4-12.4-3.7-19.8-4.1-1.2.2-2.5.3-3.7.5l-8.6 1.3c-3.8.6-6 3-6.6 7-.7 4.7-.4 9.7.9 15.3 1.5 6.1 5.2 10.1 11.1 11.6 2.7.7 4.9 1.1 6.9 1.2.8 0 1.6.1 2.4.1 6.2 0 10.7-1.5 14.3-4.7C80 86.1 83 79.8 84 72.2c.7-4.8-1.2-7.8-6-9.7zM67.1 87.1c-5.7 0-10.3-4.6-10.3-10.3s4.6-10.3 10.3-10.3 10.3 4.6 10.3 10.3-4.6 10.3-10.3 10.3z"/><circle cx="67.1" cy="74.1" r="3.6"/><circle cx="121.6" cy="74.1" r="3.6"/><path d="M142.1 60.1l-8.6-1.3-3.7-.5c-7.4.4-13.9 1.7-19.8 4.1-4.8 1.9-6.7 4.9-6.1 9.6 1 7.6 4 13.9 9.1 18.5 3.5 3.2 8.1 4.7 14.3 4.7.8 0 1.6 0 2.4-.1 2-.1 4.2-.5 6.9-1.2 5.9-1.6 9.7-5.5 11.1-11.6 1.3-5.6 1.6-10.7.9-15.3-.4-3.9-2.7-6.2-6.5-6.9zm-20.5 27c-5.7 0-10.3-4.6-10.3-10.3s4.6-10.3 10.3-10.3 10.3 4.6 10.3 10.3-4.6 10.3-10.3 10.3zm-28-73.3c-44 0-79.6 35.6-79.6 79.6 0 43.9 35.6 79.5 79.5 79.5S173 137.3 173 93.4c.1-44-35.5-79.6-79.4-79.6zm49.3 105.6c-9.6 18.5-28.5 30.1-49.4 30.1S53.7 138 44.1 119.4c-.8-1.5-.2-3.3 1.3-4 1.5-.8 3.3-.2 4 1.3 8.6 16.5 25.5 26.8 44.1 26.8s35.5-10.3 44.1-26.8c.8-1.5 2.6-2 4-1.3 1.5.7 2 2.5 1.3 4zm14.5-52c-1.9.9-2.3 2.5-2.9 5l-.1.4c-1.1 5.1-2.2 10.4-3.6 15.7-.8 3.2-2.9 5.8-6 7.7-3.3 2-7.1 3.2-11.7 3.7-1.4.2-2.9.2-4.6.2-1.6 0-3.2-.1-5-.2-7.4-.6-13.2-3.5-17.5-8.7-3.9-4.8-6.6-10.3-8.4-16.8-.6-2.2-1.5-2.9-3.7-3-2.3.1-3.1.8-3.7 3-1.8 6.6-4.5 12.1-8.4 16.8-4.2 5.2-10.1 8.1-17.5 8.7-3.8.3-6.8.3-9.6 0-4.5-.5-8.4-1.7-11.7-3.7-3.1-1.8-5.1-4.5-6-7.7-1.4-5.2-2.5-10.5-3.6-15.7l-.1-.4c-.5-2.5-.9-4.1-2.9-5-.8-.4-1.1-1.4-1.1-2.1-.1-2.4-.1-4.6 0-6.8 0-.9 1.1-2.1 2.1-2.3l.6-.1 16.2-2.3c3.2-.4 6.5-.6 9.6-.6 6.7 0 13.2.8 19.5 2.5 1 .3 1.9.5 2.9.8 2.6.7 5.4 1.5 8.1 2 1.2.2 2.4.3 3.7.3h1.8 1.8c1.3 0 2.5 0 3.7-.3 2.7-.6 5.4-1.3 8.1-2 1-.3 1.9-.5 2.9-.8 6.3-1.7 12.8-2.5 19.5-2.5 3.2 0 6.4.2 9.6.6 5.4.6 10.9 1.5 16.2 2.3l.6.1c1 .1 2 1.3 2.1 2.3.1 2.2 0 4.4 0 6.8.2.7-.1 1.8-.9 2.1z"/></svg>