<?xml version="1.0" encoding="utf-8"?>
<!-- Generator: Adobe Illustrator 18.1.1, SVG Export Plug-In . SVG Version: 6.00 Build 0)  -->
<svg version="1.1" id="Layer_4_copy" xmlns="http://www.w3.org/2000/svg" xmlns:xlink="http://www.w3.org/1999/xlink" x="0px"
	 y="0px" viewBox="0 0 186.7 186.7" enable-background="new 0 0 186.7 186.7" xml:space="preserve">
<g>
	<rect x="0" y="0" fill="none" width="186.7" height="186.7"/>
	<path fill="#EEF4FB" d="M93.4,13.8c-43.9,0-79.5,35.6-79.5,79.5c0,43.9,35.6,79.5,79.5,79.5s79.5-35.6,79.5-79.5
		C172.9,49.4,137.3,13.8,93.4,13.8z M132.3,126.2h-11.4l-13.4-14.6l-13.4,14.6H82.9l19-20.9l-19-20.9h11.4l13.4,14.6l13.4-14.6h11.4
		l-19,20.9L132.3,126.2z M131.1,63.2H81.4l-20.1,69c-0.4,1.4-1.7,2.5-3.2,2.5c0,0-0.1,0-0.2,0c-1.4,0-2.7-0.9-3.3-2.2l-8-20.7h-9.2
		c-1.9,0-3.5-1.6-3.5-3.5s1.6-3.5,3.5-3.5H49c1.4,0,2.7,0.9,3.3,2.2l5.2,13.3l18-61.6c0.4-1.5,1.8-2.5,3.4-2.5h52.3
		c1.9,0,3.5,1.6,3.5,3.5S133.1,63.2,131.1,63.2z"/>
</g>
</svg>
