<?xml version="1.0" encoding="utf-8"?>
<!-- Generator: Adobe Illustrator 18.1.1, SVG Export Plug-In . SVG Version: 6.00 Build 0)  -->
<svg version="1.1" id="medicine_1_" xmlns="http://www.w3.org/2000/svg" xmlns:xlink="http://www.w3.org/1999/xlink" x="0px"
	 y="0px" viewBox="0 0 186.9 187.2" enable-background="new 0 0 186.9 187.2" xml:space="preserve">
<rect x="0.2" y="0" fill="none" width="186.7" height="186.7"/>
<g>
	<path fill="#E9F1FB" d="M107.7,61.4c-1.2,0-2.2,0.7-2.6,1.6c0.3-0.2,0.6-0.3,1-0.3c1,0,1.8,0.7,1.8,1.6c0,0.9-0.8,1.6-1.8,1.6
		c-0.1,0-0.2,0-0.3,0c0.5,0.4,1.2,0.7,1.9,0.7c1.6,0,2.8-1.2,2.8-2.6C110.5,62.5,109.2,61.4,107.7,61.4z"/>
	<path fill="#E9F1FB" d="M93.6,13.8C49.6,13.8,14,49.4,14,93.4c0,43.9,35.6,79.5,79.5,79.5c43.9,0,79.5-35.6,79.5-79.5
		C173.1,49.4,137.5,13.8,93.6,13.8z M86.9,29.8c1.7-1.8,3.6-3.1,6.2-3.2c3.2-0.2,5.8,1,7.8,3.3c2.4,2.8,2.5,6,1,9.1
		c-0.6,1.3-2.2,2.3-3.6,3.2c-0.7,0.5-1,0.8-0.9,1.6c0,0.1,0,0.3,0,0.4c-0.1,15.2-0.4,30.8-0.4,31.3c-2.1,0-3.9,0-5.9,0
		c0-0.4-0.3-15.2-0.4-30c0-0.4-0.1-0.8,0-1.2c0.2-1.2-0.3-1.8-1.5-2.4C84.8,39.7,83,33.7,86.9,29.8z M57,47.9
		c-4.8,0.6-6.6-1.1-7.7-3.7c0.4,0,0.7,0,1,0c3.9,0,7.7-0.1,11.6-0.2c2.8-0.1,5.7-0.2,8.5-0.5c2.8-0.2,5.5-0.9,8.1-1.8
		c1.6-0.6,3.3-0.8,4.9-0.4c0.7,0.2,1.2,0.8,1.7,1.3c0.4,0.4,0.5,1,0.8,1.4c0.6,0.8,1.6,0.9,2.8,0.8c0,1.6,0,3.1,0,4.6
		c0,1.9,0,3.8,0,5.7c0,0.5-0.2,0.7-0.8,0.8c-2.6,0.5-5.2,0.7-7.9,0.6c-2.1-0.1-3.9-0.8-5.5-2c-0.3-0.2-0.6-0.6-0.7-1
		c-0.3-0.5-0.6-0.5-1.1-0.2c-2,1.3-4.3,1.3-6.6,0.6c-1.4-0.4-2.1-1.5-2.6-2.5c-0.3-0.5-0.5-0.7-1.1-0.7c-0.9,0-1.8-0.1-2.8-0.1
		c-1.8-0.1-2.3-1.2-2.7-2.4C57,48.2,57,48,57,47.9z M57.7,71.4c-0.7-2.9-0.4-5.8,1.7-8.4c2.9-3.4,6.9-4.5,11.2-4.9
		c3.4-0.3,6.8-0.7,10.1,0.3c3.5,1,6.1,4.3,6.4,7.6c0.2,1.8-0.8,3.1-2.6,3.6c2.8,2.5,5.6,3.1,5.6,3.1c-1.1,0.6-3.9-0.1-3.9-0.1
		c0.9,1.4-0.1,3.4-0.1,3.4s-1.2-3.2-3.2-6.2c-2,0.2-4.1,0.5-6-0.3c-1.5-0.6-2.9-1.5-4.2-2.4c-1.5-1.1-3.1-0.8-4.7-0.5
		c-0.4,0.1-0.8,0.8-1,1.3c-0.4,1.4,0.7,3.4,2,4.1c4.1,2.3,8.7,3.4,13.4,4.1c0.7,0.1,1.4,0.2,2.3,0.4c-5.1,1.4-9.6,3.5-13.2,7.4
		c-2.7-1.6-5.7-3-8.3-4.8C60.5,77.1,58.5,74.5,57.7,71.4z M79.1,150.7c-0.1-0.2-0.2-0.3-0.3-0.5c1-0.8,2-1.7,3.1-2.4
		c3.8-2.3,7.7-4.4,11.5-6.7c1.2-0.7,2.4-1.5,3.4-2.4c1.4-1.3,1.3-1.9,0-3.4c-0.9,2.4-3.2,3.3-5.3,4.4c-0.1-0.2-0.1-0.2-0.1-0.3
		c-0.2-3.5,0.2-3.8,4.6-4.4c3.7-0.5,7-1.9,10.2-4c1.7,1.4,1,3.3,0.8,5c-0.3,2.1-1.9,3.6-3.8,4.6c-3.3,1.7-6.6,3.3-10,4.8
		c-3.4,1.5-7,2.8-10.5,4.2C81.4,150.1,80.2,150.3,79.1,150.7z M109.1,149.9c-4.5,0.1-8.2-2.5-12.5-3.5c0,0.5-0.1,0.9-0.1,1.4
		c-0.3,4.7-0.6,9.5-1,14.2c0,0.4-0.9,1.1-1.4,1.1c-0.5,0-1.4-0.6-1.5-1c-0.5-4.2-0.9-8.4-1.3-12.6c-0.1-1.1,0.5-1.4,1.4-1.8
		c3-1.2,6.1-2.5,9.3-3.9c2.4,1.8,4.9,3.7,7.4,5.5C109.3,149.6,109.2,149.8,109.1,149.9z M113.1,122.9c-1.8,4.7-5.8,6.7-10.4,8.2
		c-4.2,1.4-8.5,2.6-12.5,4.4c-2.5,1.1-2.9,2.7-1.2,5.6c-2.3,1.4-2,1.2-4.7,2.7c-1.8-0.9-4.7-5-5-7.3c-0.5-4.5,1.3-4.9,4.4-7
		c3.9-2.6,8.7-3.3,12.9-5.1c1.7-0.7,3.3-1.5,4.7-2.5c1.4-0.9,1.4-3.4,0.1-4.6c-1.3-1.2-2.8-2.2-4.3-3.3c-0.1,0.1-0.3,0.2-0.4,0.2
		c0,2.6,0,5.2,0,7.8c-1.9,0.7-3.6,1.3-5.6,1.9c0-2.7,0-5.1,0-7.5c0-0.3,0.5-0.8,0.9-0.9c2.7-0.9,5.5-1.8,8.2-2.7
		c2.3-0.8,4.6-1.7,6.9-2.5c0.5-0.2,1.3-0.3,1.7-0.1C112.7,112.4,114.6,119,113.1,122.9z M114.8,102.8c-3.4,2.9-7.1,5-11.2,6.5
		c-4.2,1.5-8.6,2.5-12.8,4c-2.3,0.8-4.7,2.1-4.9,4.9c-0.2,2.8,1.8,4.5,4.8,5.7c-3.8,1.1-7.4,2.3-10.3,4.9c-3.4-1.9-6.1-4.5-7-8.2
		c-0.8-3.2,0.4-6.1,2.8-8.5c3.9-3.9,8.7-6.2,14-8c2.3-0.8,4.7-1.2,6.9-2.2c2.9-1.3,5.7-2.9,7.2-5.8c0.9-1.7,0.5-4.2-1.8-5.6
		c-0.3-0.2-0.6-0.4-1.1-0.8c4.6-0.3,8.7-0.7,12.5-2.4c1.1-0.5,1.8-0.4,2.5,0.7C118.8,92,119.3,99,114.8,102.8z M91.1,101
		c0-3.4,0-6.7,0-10.2c1.9-0.2,3.9-0.5,6.1-0.7c-0.2,3.2-0.3,6.1-0.5,9.2C95,99.9,93.1,100.4,91.1,101z M130.2,70.8
		c-0.8,4-3.5,6.5-6.5,8.8c-2,1.6-4.3,3-6.7,4c-4.5,1.9-9.1,3.2-14,3.7c-4.5,0.4-8.9,0.9-13.4,1.5c-1.5,0.2-3,0.8-4.3,1.6
		c-2.5,1.5-2.9,5-1.2,7.3c1.3,1.8,3.1,3,5.2,3.6c-3.8,1.8-7.5,3.6-11.4,5.5c-2.7-1.2-5.4-3.3-7.1-6.1c-2.6-4.3-1.4-8.7,1.2-12.7
		c2.4-3.8,6.1-6.3,10.5-8.1c4.7-1.9,9.4-2.1,14.4-2.3c7.3-0.3,14.4-1.6,21-4.6c2.2-1,3.1-2.4,2.8-4.7c-0.1-1-0.6-1.4-1.8-1.5
		c-2.6-0.3-4.4,1.1-6.2,2.4c-2,1.3-4.2,1.5-6.5,1.4c-0.3,0-0.6-0.1-0.8-0.1c-1.9,2.9-3,5.8-3,5.8s-1-2-0.1-3.4c0,0-2.8,0.7-3.9,0.1
		c0,0,2.6-0.6,5.2-2.8c-2.5-0.6-3.4-2.3-2.6-4.9c1.3-4.1,5.2-7,10-6.9c4.3,0.1,8.6,0.2,12.7,1.8C127.7,61.5,131.3,65.8,130.2,70.8z
		 M131.2,47.9c0,0.1,0,0.3-0.1,0.4c-0.4,1.2-0.9,2.3-2.7,2.4c-0.9,0.1-1.8,0.1-2.8,0.1c-0.6,0-0.8,0.2-1.1,0.7
		c-0.5,1-1.2,2.1-2.6,2.5c-2.3,0.7-4.6,0.7-6.6-0.6c-0.5-0.3-0.8-0.3-1.1,0.2c-0.2,0.3-0.4,0.7-0.7,1c-1.6,1.2-3.4,1.9-5.5,2
		c-2.7,0.1-5.3-0.1-7.9-0.6c-0.6-0.1-0.8-0.3-0.8-0.8c0-1.9,0-3.8,0-5.7c0-1.5,0-3,0-4.6c1.2,0.1,2.2,0,2.8-0.8
		c0.3-0.4,0.4-1,0.8-1.4c0.5-0.5,1-1.2,1.7-1.3c1.7-0.4,3.3-0.2,4.9,0.4c2.6,0.9,5.3,1.6,8.1,1.8c2.8,0.2,5.6,0.4,8.5,0.5
		c3.9,0.1,7.7,0.1,11.6,0.2c0.3,0,0.6,0,1,0C137.8,46.8,136,48.5,131.2,47.9z"/>
	<path fill="#E9F1FB" d="M80.5,66.6c0.7,0,1.4-0.3,1.9-0.7c-0.1,0-0.2,0-0.3,0c-1,0-1.8-0.7-1.8-1.6c0-0.9,0.8-1.6,1.8-1.6
		c0.4,0,0.7,0.1,1,0.3c-0.4-0.9-1.4-1.6-2.6-1.6c-1.6,0-2.8,1.2-2.8,2.6C77.7,65.5,79,66.6,80.5,66.6z"/>
</g>
</svg>
