<?xml version="1.0" encoding="utf-8"?>
<!-- Generator: Adobe Illustrator 18.1.1, SVG Export Plug-In . SVG Version: 6.00 Build 0)  -->
<svg version="1.1" id="Layer_4_copy" xmlns="http://www.w3.org/2000/svg" xmlns:xlink="http://www.w3.org/1999/xlink" x="0px"
	 y="0px" viewBox="0 0 186.7 186.7" enable-background="new 0 0 186.7 186.7" xml:space="preserve">
<g>
	<rect x="0" y="0" fill="none" width="186.7" height="186.7"/>
	<path fill="#EEF4FB" d="M93.4,13.8c-43.9,0-79.5,35.6-79.5,79.5c0,43.9,35.6,79.5,79.5,79.5c43.9,0,79.5-35.6,79.5-79.5
		C172.9,49.4,137.3,13.8,93.4,13.8z M145.6,46.7c-0.1,0.1-0.1,0.2-0.2,0.3c-1.1,2.9-2,5.8-3.2,8.6c-2,4.7-4.6,9.1-7.7,13.2
		c-1.8,2.3-3.6,4.6-5.7,6.5c-0.8,0.7-1.6,1.3-2.8,1.3c-3.3-0.1-6.5,0-9.8,0c-0.3,0-0.6-0.1-0.9-0.1c-1.6-0.1-3.3-0.2-4.9-0.3
		c4.1,2.6,8.8,3.3,13.7,4.3c-9.3,7.4-19,12.6-31,12.5C99.3,82.2,107,72.8,115.4,64c-13.9,8.9-24.3,21.2-32.7,35.8c2.1,0,4,0,5.9,0
		c1.9,0,3.7-0.1,5.6,0c2.2,0.1,3.4,1,3.9,3c0.4,1.7-0.1,3.2-1.7,4.4c1,0.2,1.8,0.4,2.6,0.4c2.9,0.2,5.4,1.5,7.4,3.6
		c2.2,2.4,3,5.4,3,8.6c0,5.2-0.1,10.4-0.2,15.6c-0.1,3.7-1.8,6.7-4.7,8.7c-1.3,0.9-2.8,1.3-4.3,2c-13.7,0-27.3,0-41,0
		c-0.1-0.1-0.2-0.2-0.3-0.2c-2.9-0.7-5.3-2.2-6.9-4.9c-0.8-1.3-1.2-2.9-1.8-4.3c0-6.6,0-13.2,0-19.8c0.3-0.8,0.5-1.6,0.8-2.3
		c1.4-3.4,3.8-5.7,7.2-6.7c1.5-0.4,3.1-0.6,4.6-0.8c-0.3-0.4-0.6-0.7-0.8-1.1c-1.3-1.6-0.9-4.6,0.9-5.6c0.8-0.4,1.7-0.7,2.6-0.7
		c3.4-0.1,6.9,0,10.3,0c0.5,0,0.7-0.1,1-0.6c1.7-3,3.5-6,5.3-9c0.2-0.3,0.3-0.6,0.3-0.9c0.1-1.9,0.2-3.8,0.4-5.7
		c0.4-3.5,1.3-6.8,2.7-10c1.3-2.9,2.8-5.8,5-8.1c1.9-2,3.7-4.1,5.8-5.9c3.1-2.7,6.6-4.8,10.4-6.4c3-1.3,6-2.4,9-3.3
		c3.3-0.9,6.7-1.6,10.1-2.2c2.9-0.5,5.8-0.9,8.7-1.2c2-0.2,4-0.2,6-0.2c0.2,0,0.4-0.1,0.7-0.2c1.3,0,2.7,0.1,4,0
		C145.8,46.1,145.6,46.4,145.6,46.7z"/>
</g>
</svg>
