<?xml version="1.0" encoding="utf-8"?>
<!-- Generator: Adobe Illustrator 18.1.1, SVG Export Plug-In . SVG Version: 6.00 Build 0)  -->
<svg version="1.1" id="welcome_1_" xmlns="http://www.w3.org/2000/svg" xmlns:xlink="http://www.w3.org/1999/xlink" x="0px" y="0px"
	 viewBox="0 0 186.9 187.2" enable-background="new 0 0 186.9 187.2" xml:space="preserve">
<rect x="0.2" y="0" fill="none" width="186.7" height="186.7"/>
<g>
	<path fill="#EFF4FB" d="M78,62.5c-5.9-2.4-12.4-3.7-19.8-4.1c-1.2,0.2-2.5,0.3-3.7,0.5c-2.8,0.4-5.7,0.8-8.6,1.3
		c-3.8,0.6-6,3-6.6,7c-0.7,4.7-0.4,9.7,0.9,15.3c1.5,6.1,5.2,10.1,11.1,11.6c2.7,0.7,4.9,1.1,6.9,1.2c0.8,0,1.6,0.1,2.4,0.1
		c6.2,0,10.7-1.5,14.3-4.7c5.1-4.6,8.1-10.9,9.1-18.5C84.7,67.4,82.8,64.4,78,62.5z M67.1,87.1c-5.7,0-10.3-4.6-10.3-10.3
		s4.6-10.3,10.3-10.3s10.3,4.6,10.3,10.3S72.8,87.1,67.1,87.1z"/>
	<circle fill="#EFF4FB" cx="67.1" cy="74.1" r="3.6"/>
	<circle fill="#EFF4FB" cx="121.6" cy="74.1" r="3.6"/>
	<path fill="#EFF4FB" d="M142.1,60.1c-2.8-0.5-5.7-0.9-8.6-1.3c-1.2-0.2-2.5-0.3-3.7-0.5c-7.4,0.4-13.9,1.7-19.8,4.1
		c-4.8,1.9-6.7,4.9-6.1,9.6c1,7.6,4,13.9,9.1,18.5c3.5,3.2,8.1,4.7,14.3,4.7c0.8,0,1.6,0,2.4-0.1c2-0.1,4.2-0.5,6.9-1.2
		c5.9-1.6,9.7-5.5,11.1-11.6c1.3-5.6,1.6-10.7,0.9-15.3C148.2,63.1,145.9,60.8,142.1,60.1z M121.6,87.1c-5.7,0-10.3-4.6-10.3-10.3
		s4.6-10.3,10.3-10.3s10.3,4.6,10.3,10.3S127.3,87.1,121.6,87.1z"/>
	<path fill="#EFF4FB" d="M93.6,13.8C49.6,13.8,14,49.4,14,93.4c0,43.9,35.6,79.5,79.5,79.5c43.9,0,79.5-35.6,79.5-79.5
		C173.1,49.4,137.5,13.8,93.6,13.8z M142.9,119.4c-9.6,18.5-28.5,30.1-49.4,30.1c-20.9,0-39.8-11.5-49.4-30.1
		c-0.8-1.5-0.2-3.3,1.3-4c1.5-0.8,3.3-0.2,4,1.3c8.6,16.5,25.5,26.8,44.1,26.8c18.6,0,35.5-10.3,44.1-26.8c0.8-1.5,2.6-2,4-1.3
		C143.1,116.1,143.6,117.9,142.9,119.4z M157.4,67.4c-1.9,0.9-2.3,2.5-2.9,5l-0.1,0.4c-1.1,5.1-2.2,10.4-3.6,15.7
		c-0.8,3.2-2.9,5.8-6,7.7c-3.3,2-7.1,3.2-11.7,3.7c-1.4,0.2-2.9,0.2-4.6,0.2c-1.6,0-3.2-0.1-5-0.2c-7.4-0.6-13.2-3.5-17.5-8.7
		c-3.9-4.8-6.6-10.3-8.4-16.8c-0.6-2.2-1.5-2.9-3.7-3c-2.3,0.1-3.1,0.8-3.7,3c-1.8,6.6-4.5,12.1-8.4,16.8
		c-4.2,5.2-10.1,8.1-17.5,8.7c-3.8,0.3-6.8,0.3-9.6,0c-4.5-0.5-8.4-1.7-11.7-3.7c-3.1-1.8-5.1-4.5-6-7.7c-1.4-5.2-2.5-10.5-3.6-15.7
		l-0.1-0.4c-0.5-2.5-0.9-4.1-2.9-5c-0.8-0.4-1.1-1.4-1.1-2.1c-0.1-2.4-0.1-4.6,0-6.8c0-0.9,1.1-2.1,2.1-2.3l0.6-0.1
		c5.3-0.8,10.8-1.6,16.2-2.3c3.2-0.4,6.5-0.6,9.6-0.6c6.7,0,13.2,0.8,19.5,2.5c1,0.3,1.9,0.5,2.9,0.8c2.6,0.7,5.4,1.5,8.1,2
		c1.2,0.2,2.4,0.3,3.7,0.3c0.6,0,1.2,0,1.8,0c0.6,0,1.2,0,1.8,0c1.3,0,2.5,0,3.7-0.3c2.7-0.6,5.4-1.3,8.1-2c1-0.3,1.9-0.5,2.9-0.8
		c6.3-1.7,12.8-2.5,19.5-2.5c3.2,0,6.4,0.2,9.6,0.6c5.4,0.6,10.9,1.5,16.2,2.3l0.6,0.1c1,0.1,2,1.3,2.1,2.3c0.1,2.2,0,4.4,0,6.8
		C158.5,66,158.2,67.1,157.4,67.4z"/>
</g>
</svg>
