<?xml version="1.0" encoding="utf-8"?>
<!-- Generator: Adobe Illustrator 18.1.1, SVG Export Plug-In . SVG Version: 6.00 Build 0)  -->
<svg version="1.1" id="Layer_9" xmlns="http://www.w3.org/2000/svg" xmlns:xlink="http://www.w3.org/1999/xlink" x="0px" y="0px"
	 viewBox="0 0 384.5 387.3" enable-background="new 0 0 384.5 387.3" xml:space="preserve">
<circle fill="#A6DACF" stroke="#006553" stroke-width="6" stroke-miterlimit="10" cx="192.3" cy="192.3" r="189.3"/>
<path fill="#CDE9E2" d="M378.5,197.8l-117.1-8.6l115.8-19c-0.2-1.9-0.5-3.8-0.8-5.7l-116.7,12.5l110.6-39.4
	c-0.6-1.8-1.2-3.7-1.8-5.5l-112.6,33.1l101.7-58.5c-0.9-1.7-1.8-3.4-2.7-5.1L250,154.1l89.6-75.7c-1.2-1.5-2.4-3-3.6-4.5l-93.7,70.5
	L316.9,54c-1.4-1.3-2.9-2.5-4.3-3.8L233,136.3l57.3-102.4c-1.6-1-3.3-2-4.9-3l-63,99l38.1-111c-1.8-0.7-3.6-1.4-5.4-2l-44.3,108.7
	l17.7-116c-1.9-0.4-3.8-0.7-5.7-1l-24.2,114.8L195.2,6c-1,0-1.9,0-2.9,0c-1,0-1.9,0-2.9,0l-3.3,117.3L161.9,8.5
	c-1.9,0.3-3.8,0.7-5.7,1l17.7,116L129.5,16.9c-1.8,0.6-3.6,1.3-5.4,2l38.1,111l-63-99c-1.7,1-3.3,2-4.9,3l57.3,102.4L72,50.2
	c-1.5,1.2-2.9,2.5-4.3,3.8l74.6,90.5L48.5,73.9c-1.2,1.5-2.4,3-3.6,4.5l89.6,75.7L29.7,101.5c-0.9,1.7-1.9,3.4-2.7,5.1l101.7,58.5
	L16,132c-0.6,1.8-1.2,3.6-1.8,5.5l110.6,39.4L8.1,164.4c-0.3,1.9-0.5,3.8-0.8,5.7l115.8,19L6.1,197.8c0.1,1.9,0.1,3.8,0.3,5.8
	l117.3-1.9L10,230.9c0.4,1.9,0.8,3.8,1.3,5.6l115.1-22.9L19.9,262.8c0.7,1.8,1.5,3.5,2.3,5.3l109.2-43.1l-96,67.4
	c1,1.6,2.1,3.2,3.2,4.8l99.7-61.8l-82.4,83.4c1.3,1.4,2.6,2.8,4,4.2l87-78.6l-66.2,96.8c1.5,1.2,3.1,2.3,4.7,3.4l71.6-92.9
	l-47.9,107.1c1.7,0.9,3.4,1.7,5.2,2.5L168,257.1l-28,114c1.8,0.5,3.7,1.1,5.6,1.5l34.4-112.2l-7.2,117.2c1.9,0.2,3.8,0.4,5.7,0.5
	l13.8-116.6L206.1,378c1.9-0.1,3.8-0.3,5.7-0.5l-7.2-117.2l34.4,112.2c1.9-0.5,3.7-1,5.6-1.5l-28-114l53.9,104.2
	c1.7-0.8,3.5-1.6,5.2-2.5l-47.9-107.1l71.6,92.9c1.6-1.1,3.1-2.2,4.7-3.4l-66.2-96.8l87,78.6c1.4-1.4,2.7-2.8,4-4.2l-82.4-83.4
	l99.7,61.8c1.1-1.6,2.2-3.2,3.2-4.8l-96-67.4l109.2,43.1c0.8-1.8,1.5-3.5,2.3-5.3l-106.6-49.2l115.1,22.9c0.5-1.9,0.9-3.7,1.3-5.6
	l-113.7-29.3l117.3,1.9C378.3,201.6,378.4,199.7,378.5,197.8z"/>
<g>
	<polygon fill="#FFFFFF" points="346.8,224.5 335.9,236.8 319.7,234.8 328,248.9 321,263.8 337,260.3 349,271.5 350.6,255.1 
		365,247.2 349.9,240.6 	"/>
	<polygon fill="#FFFFFF" points="182.5,21.4 175.1,9.4 170.1,22.6 156.5,26 167.5,34.8 166.5,48.8 178.3,41.1 191.3,46.3 
		187.6,32.8 196.6,22 	"/>
	<polygon fill="#FFFFFF" points="333.9,163.2 328.4,152.1 334.4,141.2 322.1,143.1 313.6,134 311.6,146.2 300.3,151.5 311.3,157.2 
		312.9,169.5 321.7,160.8 	"/>
	<polygon fill="#FFFFFF" points="36.4,214.1 48,222.2 47.4,208 58.7,199.4 45,195.7 40.3,182.3 32.5,194.1 18.3,194.4 27.2,205.5 
		23.1,219.1 	"/>
	<polygon fill="#FFFFFF" points="63.7,141.3 60.5,132 55.1,140.3 45.2,140.5 51.4,148.2 48.5,157.6 57.8,154.1 65.8,159.8 
		65.4,149.9 73.3,144 	"/>
	<polygon fill="#FFFFFF" points="109.2,287.6 101.2,278.2 98.6,290.3 87.1,295 97.8,301.3 98.7,313.6 108,305.4 120.1,308.3 
		115.1,297 121.6,286.4 	"/>
	<path fill="#FFFFFF" d="M237.6,11.6l-2.6,1.1l10.7,6.2l0.9,12.4l9.3-8.3l12.1,2.9l-2.1-4.8C256.8,17.3,247.3,14,237.6,11.6z"/>
	<path fill="#FFFFFF" d="M346.6,114.6l9.3-8.3l1.9,0.5c-3.2-6.3-6.8-12.3-10.8-18.2l-0.6,2.6L335,96l10.7,6.2L346.6,114.6z"/>
	<path fill="#FFFFFF" d="M376.5,164.9l-5.9-10.2l-5,12l-12.7,2.7l9.8,8.4l-1.4,12.9l11.1-6.8l5.9,2.6
		C378.2,179.2,377.6,172,376.5,164.9z"/>
	<path fill="#FFFFFF" d="M57.3,270.6L42.8,274l-11-10l-1.3,14.8l-2.5,1.4c3.6,6.8,7.7,13.3,12.1,19.5l3.9-4.5l14.8,1.6l-7.7-12.7
		L57.3,270.6z"/>
	<path fill="#FFFFFF" d="M34.9,106.4l12.1,2.9L42,98l6.5-10.6l-10.8,1.1c-4.6,6.8-8.7,13.9-12.4,21.3l0.4,4.9L34.9,106.4z"/>
	<path fill="#FFFFFF" d="M302.8,67.4l10.5-6.6l11.4,4.9l-1.4-5.7c-5.6-5.5-11.5-10.7-17.7-15.4l-11.2,2.5l9.5,8L302.8,67.4z"/>
	<path fill="#FFFFFF" d="M97.4,39.6l12.1,2.9l-5-11.4l2.9-4.6c-6.9,3.5-13.5,7.5-19.9,11.9l0.7,9.5L97.4,39.6z"/>
</g>
<path fill="#B7885E" d="M291.8,224.6H93.6c5.6,7.7,10.9,13.5,16.1,17.7c5.6,4.5,11.7,8.8,17.6,12.9c14.4,10.1,29.3,20.5,38.3,35.9
	c4.4,7.4,12.5,21.3,7.9,35.5c-4,12.5-15.5,18.9-19.2,21c-6.4,3.6,31.7,6.3,31.7,6.3v27.5c2.1,0.1,4.2,0.1,6.3,0.1
	c61.1,0,115.5-29,150.1-73.9c-3.3-7.1-8.4-13.4-14.1-17.8c-6.1-4.7-7.6-5.3-11.1-6.8c-2.7-1.1-6.7-2.8-15.2-7.5
	c-10.3-5.7-21-16-21.7-24.9c-0.5-6,4.7-14.8,9.7-23.3C290.7,226.4,291.2,225.5,291.8,224.6z"/>
<path fill="#006553" d="M192.3,384.5C86.3,384.5,0,298.3,0,192.3C0,86.3,86.3,0,192.3,0c106,0,192.3,86.3,192.3,192.3
	C384.5,298.3,298.3,384.5,192.3,384.5z M192.3,6C89.6,6,6,89.6,6,192.3s83.6,186.3,186.3,186.3S378.5,295,378.5,192.3S295,6,192.3,6
	z"/>
<g>
	<path fill="#664220" d="M274.1,317.4c-6.5-11.6-14.8-19.6-24.3-26.2c-7.8-5.5-16.4-10.1-25.5-15.2c-9.4-5.2-21.2-15.7-21.9-25.3
		c-0.5-6.6,5.2-15.8,10.7-25.1H95c4.4,5.9,9.5,11.8,15,16.3c19.1,15.5,43.3,27.1,56.1,49c4.9,8.3,12.5,21.8,7.9,35.9
		c-2.1,6.4-6.1,11.2-10,14.7c-7,4.6-17.9,10.6-32.1,13.9c-11,2.5-18.5,2.2-24.2,2.9c25.4,13,54.1,20.3,84.5,20.3
		c22.5,0,44.1-4,64.1-11.4C271.5,354.9,284.6,336,274.1,317.4z"/>
</g>
<g>
	<path fill="#976B42" d="M83.5,126.8c1.6,1.3,3.4,2.5,5.3,3.5c10.6-17.2,26.7-31.8,45.4-42.1c0.2-8-0.6-15.8-2-21.5
		c-3.9-15.4-33.5-4.8-46.9,11.8C71.7,95,71,116.7,83.5,126.8z"/>
	<path fill="#976B42" d="M272.7,102.3c9.8,8.2,17.9,17.6,23.9,27.6c1.6-0.9,3.1-1.9,4.5-3.1c12.5-10.1,11.7-31.7-1.7-48.4
		c-13.4-16.6-43.1-27.2-46.9-11.8c-1.4,5.6-2.1,13-2,20.7C258.3,91.6,265.8,96.5,272.7,102.3z"/>
	<path fill="#B7885E" d="M292.7,222.9c10.7-15.1,16.3-32.4,16.3-50.1c0-20.9-9-42-25-59.6c2.5-0.2,4.9-1.1,7-2.7
		c6.4-5.1,6.7-15.4,0.7-22.9c-6-7.6-16.1-9.6-22.5-4.5c-3.8,3-5.4,7.9-4.9,12.9c-3.3-2.3-6.7-4.4-10.2-6.4l0.7,0.1
		c0,0-33.8-36.9-77.9-33.2c0,0,16.7,7.7,13.7,11.6c-12.6-4.7-27.4-7.6-43.3-5c0,0,15.5,5.8,14.8,9.9c-8.1-1.4-16.7-1.6-25.6-0.2
		c0,0,11,4.1,14.1,7.9c-10.9,4.1-21.3,9.8-30.6,16.6c0.9-5.4-0.6-10.8-4.7-14.1c-6.4-5.1-16.5-3.1-22.5,4.5
		c-6,7.6-5.7,17.8,0.7,22.9c2.4,1.9,5.2,2.8,8.2,2.8c-6.6,7.1-12.3,15-16.6,23.4c-14.7,28.5-12.2,59,6.9,85.9c0.5,0.7,1,1.4,1.6,2.1
		h198.1C292.1,224,292.4,223.5,292.7,222.9z"/>
	<path fill="#976B42" d="M113.8,143.3c0-3.7,0.3-7.4,1-11.1c0.6-3.6,1.6-7.1,2.9-10.6c1.2-3.4,2.8-6.7,4.6-9.9
		c1.8-3.1,3.9-6.2,6.2-9c2.3-2.8,4.8-5.6,7.6-8.1c2.7-2.5,5.7-4.9,8.9-7c1.5-1,2.9-1.9,4.4-2.8l-0.4-0.2c3-1.1,3.1-2.7,1.8-4.3
		c-2.6,1-5.2,2.1-7.9,3.3c-0.9,0.4-1.7,0.8-2.6,1.2c-1.6,0.8-3.3,1.6-4.9,2.5c-3.3,1.8-6.6,3.7-9.7,5.7c-3.1,2-6.2,4.2-9.1,6.5
		c-2.9,2.3-5.8,4.7-8.5,7.2c-2.7,2.5-5.3,5.2-7.7,7.9c-2.4,2.7-4.7,5.6-6.8,8.4c-2.1,2.9-4.1,5.9-5.9,9c-1.8,3.1-3.4,6.3-4.8,9.4
		c-1.4,3.2-2.7,6.5-3.7,9.8c-1,3.4-1.8,6.8-2.4,10.1c-0.6,3.5-0.9,7-1,10.4c-0.1,3.5,0,7.1,0.4,10.6c0.4,3.6,1.1,7.2,2,10.8
		c0.9,3.6,2.2,7.3,3.7,10.8c1.5,3.6,3.4,7.3,5.4,10.8c1.5,2.5,3.1,5,4.8,7.4c5,7,9.9,12.8,14.6,17.1l0.1,0.1h67.4v-28.5l-0.4-0.1
		C138.5,203.5,113.8,175.6,113.8,143.3z M147.9,85.1c0.2-0.1,0.4-0.2,0.6-0.2c0.1,0,0.2-0.1,0.2-0.1c0,0-0.1,0-0.2,0.1
		C148.4,84.9,148.2,85,147.9,85.1c-0.9,0.3-1.5,0.6-2.1,0.8C146.5,85.6,147.3,85.3,147.9,85.1z M144.6,86.3c0.2-0.1,0.4-0.1,0.6-0.2
		C145,86.2,144.7,86.2,144.6,86.3C144.2,86.5,144.3,86.4,144.6,86.3z"/>
</g>
<g>
	<ellipse fill="#E0C69B" cx="192.3" cy="238.1" rx="42.4" ry="51.8"/>
	<ellipse fill="#9B350C" cx="192.3" cy="238.1" rx="26" ry="36"/>
</g>
<g>
	<circle cx="148.7" cy="149.1" r="16.4"/>
	<circle fill="#FFFFFF" cx="148.7" cy="144.7" r="5.8"/>
</g>
<g>
	<circle cx="235.8" cy="149.1" r="16.4"/>
	<circle fill="#FFFFFF" cx="235.8" cy="144.7" r="5.8"/>
</g>
<path fill="#664220" d="M79.8,230.5C79.8,230.5,79.8,230.5,79.8,230.5c0-0.1-0.1-0.2-0.1-0.3C79.7,230.3,79.7,230.4,79.8,230.5z"/>
<path fill="#FFEBC2" d="M245.6,168.8c-6.5,0-12.7,0.9-18.5,2.7c-7.7-14.7-20.4-24.3-34.8-24.3c-14.2,0-26.8,9.4-34.5,23.8
	c-5.2-1.4-10.8-2.1-16.5-2.1c-29.9,0-54.1,20-54.1,44.8c0,24.7,24.2,44.8,54.1,44.8c24.9,0,44.6-13.8,51-32.7
	c6.4,18.9,28.4,32.7,53.3,32.7c29.9,0,54.1-20,54.1-44.8C299.7,188.8,275.5,168.8,245.6,168.8z"/>
<path d="M192.3,162.3c-7.5-0.1-17.3,11.9-21.3,18.6c-6.9,11.8-0.2,30.1,20.8,30.3c22.5,0.1,28-20.3,20.2-31.7
	C208.2,173.8,199.3,162.3,192.3,162.3z"/>
<path d="M199.8,203c-2.9-0.9-6.1,0.5-7.5,3.4c-1.4-2.9-4.6-4.3-7.5-3.4c-2.5,0.8-4.2,3.2-4.3,6c1.5,0.4,4.7,1.5,7.4,4.4
	c1.8,1.9,2.8,9.1,3.4,14.6l-0.1,0.4l0.1-0.2c0,0,1.1,1.4,1.9,0c0.6-5.5,1.6-12.8,3.4-14.7c2.7-2.9,5.9-4,7.4-4.7
	C204,205.9,202.2,203.8,199.8,203z"/>
<g>
	<path fill="#664220" d="M122.9,204.8c-8.9,0.3-17.8,2.7-25.7,7.1c-9.7,5.3-17.6,13.3-22.9,23c-0.1,0.2,0,0.5,0.2,0.7
		c0.1,0,0.2,0.1,0.3,0.1c0.2,0,0.3-0.1,0.4-0.2c5.1-8.1,12.2-14.9,20.7-19.5c8.3-4.6,17.7-7,27.2-7
		C122.9,207.5,122.9,206.1,122.9,204.8z"/>
	<path fill="#664220" d="M123.8,214.1c-4.5,1.2-8.9,2.9-13,5.2c-9.7,5.3-17.6,13.3-22.9,23c-0.1,0.2,0,0.5,0.2,0.7
		c0.1,0,0.2,0.1,0.3,0.1c0.2,0,0.3-0.1,0.4-0.2c5.1-8.1,12.2-14.9,20.7-19.5c4.8-2.6,9.9-4.5,15.1-5.7
		C124.3,216.4,124,215.3,123.8,214.1z"/>
	<path fill="#664220" d="M127.5,225.2c-9.5,5.3-17.2,13.2-22.4,22.7c-0.1,0.2,0,0.5,0.2,0.7c0.1,0,0.2,0.1,0.3,0.1
		c0.2,0,0.3-0.1,0.4-0.2c5.1-8.1,12.2-14.9,20.7-19.5c0.7-0.4,1.4-0.8,2.2-1.1C128.4,226.9,127.9,226,127.5,225.2z"/>
</g>
<g>
	<path fill="#664220" d="M261.7,204.8c8.9,0.3,17.8,2.7,25.7,7.1c9.7,5.3,17.6,13.3,22.9,23c0.1,0.2,0,0.5-0.2,0.7
		c-0.1,0-0.2,0.1-0.3,0.1c-0.2,0-0.3-0.1-0.4-0.2c-5.1-8.1-12.2-14.9-20.7-19.5c-8.3-4.6-17.7-7-27.2-7
		C261.6,207.5,261.7,206.1,261.7,204.8z"/>
	<path fill="#664220" d="M260.8,214.1c4.5,1.2,8.9,2.9,13,5.2c9.7,5.3,17.6,13.3,22.9,23c0.1,0.2,0,0.5-0.2,0.7
		c-0.1,0-0.2,0.1-0.3,0.1c-0.2,0-0.3-0.1-0.4-0.2c-5.1-8.1-12.2-14.9-20.7-19.5c-4.8-2.6-9.9-4.5-15.1-5.7
		C260.2,216.4,260.5,215.3,260.8,214.1z"/>
	<path fill="#664220" d="M257.1,225.2c9.5,5.3,17.2,13.2,22.4,22.7c0.1,0.2,0,0.5-0.2,0.7c-0.1,0-0.2,0.1-0.3,0.1
		c-0.2,0-0.3-0.1-0.4-0.2c-5.1-8.1-12.2-14.9-20.7-19.5c-0.7-0.4-1.4-0.8-2.2-1.1C256.2,226.9,256.6,226,257.1,225.2z"/>
</g>
<path fill="#76001E" d="M294.9,67.8c-0.1-1.5-1.8-3.4-3.3-3.6l-1-0.2c-8.5-1.3-17.2-2.6-25.9-3.6c-5.2-0.6-10.4-0.9-15.4-0.9
	c-10.6,0-21.1,1.3-31.1,4c-1.5,0.4-3.1,0.8-4.6,1.3c-4.2,1.2-8.6,2.3-12.9,3.3c-1.9,0.4-3.8,0.4-5.9,0.4c-0.9,0-1.9,0-2.9,0.1
	c-1,0-1.9-0.1-2.9-0.1c-2.1,0-4.1,0-5.9-0.4c-4.3-0.9-8.7-2.1-12.9-3.3c-1.5-0.4-3.1-0.8-4.6-1.3c-10-2.7-20.5-4-31.1-4
	c-5,0-10.2,0.3-15.4,0.9c-8.7,1-17.4,2.3-25.9,3.6l-1,0.2c-1.5,0.2-3.2,2.1-3.3,3.6c-0.2,3.5-0.1,7,0,10.9c0,1,0.5,2.7,1.8,3.3
	c3.1,1.4,3.7,4,4.6,8l0.1,0.6c1.7,8.2,3.5,16.6,5.7,25c1.3,5.1,4.6,9.3,9.5,12.3c5.3,3.2,11.4,5.1,18.6,6c4.5,0.5,9.3,0.5,15.3,0
	c11.8-1,21.1-5.6,27.9-13.9c6.2-7.6,10.6-16.4,13.4-26.9c0.9-3.5,2.3-4.6,6-4.8c3.6,0.2,5,1.3,6,4.8c2.8,10.5,7.2,19.3,13.4,26.9
	c6.7,8.3,16.1,12.9,27.9,13.9c2.9,0.2,5.6,0.4,8,0.4c2.6,0,5-0.1,7.3-0.4c7.2-0.8,13.3-2.8,18.6-6c4.9-2.9,8.2-7.2,9.5-12.3
	c2.2-8.4,4-16.8,5.7-25l0.1-0.6c0.8-4,1.5-6.6,4.6-8c1.3-0.6,1.8-2.3,1.8-3.3C294.9,74.9,295,71.4,294.9,67.8z M277.7,106
	c-2.3,9.8-8.3,16.1-17.8,18.6c-4.3,1.1-7.8,1.8-11.1,1.9c-1.3,0.1-2.6,0.1-3.8,0.1c-9.9,0-17.1-2.4-22.8-7.6
	c-8.1-7.4-13-17.3-14.5-29.5c-0.9-7.6,2-12.3,9.7-15.4c9.4-3.8,19.7-5.9,31.6-6.5c2,0.3,3.9,0.5,5.9,0.8c4.5,0.6,9.1,1.2,13.7,2
	c6.1,1,9.6,4.8,10.6,11.1C280.3,89,279.9,97,277.7,106z M175.9,89.5c-1.5,12.2-6.4,22.1-14.5,29.5c-5.7,5.2-12.9,7.6-22.8,7.6
	c-1.2,0-2.5,0-3.8-0.1c-3.2-0.2-6.7-0.8-11.1-1.9c-9.5-2.5-15.5-8.8-17.8-18.6c-2.1-9-2.6-17-1.5-24.5c1-6.3,4.5-10.1,10.6-11.1
	c4.5-0.8,9.2-1.4,13.7-2c2-0.3,3.9-0.5,5.9-0.8c11.8,0.6,22.1,2.7,31.6,6.5C173.9,77.2,176.9,82,175.9,89.5z"/>
<g>
	<path fill="#B7885E" d="M266.5,383.9c10.5-5.3,18.6-15.5,20.5-28.4c2.6-18.3-4.8-42.1-17.5-55.7c-6.5-7.1-15.6-11.7-24.2-11.6
		c-3-0.2-5.5,0.1-7.1,0.4c-13.9,2.5-28.9,16.1-26.5,30.6c0.9,5.2,3.4,9.9,7,13.6c-1.4,4.6-1.4,9.5,0.3,14.1c2,5.7,6.2,10,11.5,12.7
		c-1.4,4.4-1.5,9.1,0.1,13.5c4.4,12.2,18.1,15.8,28.2,13.6C261.5,386.1,264,385.1,266.5,383.9z"/>
	<path fill="#976B42" d="M251.7,386.2c-6.1-1.8-10.7-6-12.7-11.5c-1.4-3.9-1.4-8.1,0.1-12.2c0.1-0.3,0.2-0.6,0.3-0.8
		c2.5-6.1,7.7-11,14.4-13.4c6.8-2.5,14.1-2,19.9,1.3c0.5,0.3,1,0.1,1.3-0.3c0.3-0.5,0.2-1.1-0.2-1.5c-6.9-7-17.9-9.2-28.2-5.6
		c-6.5,2.3-11.9,6.8-15.2,12.5c-1.5-1.8-2.7-3.8-3.5-6c-1.1-3.2-1.4-6.6-0.8-10c0.1-0.7,0.3-1.5,0.5-2.2c2.2-7.6,8.4-13.8,16.5-16.7
		c7.5-2.7,15.4-2.1,21.8,1.5c0.5,0.3,1,0.1,1.3-0.3c0.3-0.5,0.2-1.1-0.2-1.5c-7.5-7.6-19.5-10-30.6-6c-6.2,2.2-11.4,6.2-15,11.3
		c-0.1-0.5-0.2-0.9-0.3-1.4c-2.2-13.2,8.5-25.5,23.9-27.4c8.9-1.1,17.6,1.4,24,6.9c0.4,0.4,1,0.4,1.4,0c0.4-0.4,0.4-1,0.1-1.5
		c-0.3-0.5-0.6-0.9-1-1.3c-0.1-0.1-0.1-0.1-0.1-0.2c-6.5-7.1-15.6-11.7-24.2-11.6c-3-0.2-5.5,0.1-7.1,0.4
		c-13.9,2.5-28.9,16.1-26.5,30.6c0.9,5.2,3.4,9.9,7,13.6c-1.4,4.6-1.4,9.5,0.3,14.1c2,5.7,6.2,10,11.5,12.7
		c-1.4,4.4-1.5,9.1,0.1,13.5c3.5,9.8,13,14.1,21.9,14.2C252.5,386.8,252.1,386.3,251.7,386.2z"/>
</g>
<g>
	<path fill="#B7885E" d="M115.9,383.9c-10.5-5.3-18.6-15.5-20.5-28.4c-2.6-18.3,4.8-42.1,17.5-55.7c6.5-7.1,15.6-11.7,24.2-11.6
		c3-0.2,5.5,0.1,7.1,0.4c13.9,2.5,28.9,16.1,26.5,30.6c-0.9,5.2-3.4,9.9-7,13.6c1.4,4.6,1.4,9.5-0.3,14.1c-2,5.7-6.2,10-11.5,12.7
		c1.4,4.4,1.5,9.1-0.1,13.5c-4.4,12.2-18.1,15.8-28.2,13.6C121,386.1,118.4,385.1,115.9,383.9z"/>
	<path fill="#976B42" d="M130.8,386.2c6.1-1.8,10.7-6,12.7-11.5c1.4-3.9,1.4-8.1-0.1-12.2c-0.1-0.3-0.2-0.6-0.3-0.8
		c-2.5-6.1-7.7-11-14.4-13.4c-6.8-2.5-14.1-2-19.9,1.3c-0.5,0.3-1,0.1-1.3-0.3c-0.3-0.5-0.2-1.1,0.2-1.5c6.9-7,17.9-9.2,28.2-5.6
		c6.5,2.3,11.9,6.8,15.2,12.5c1.5-1.8,2.7-3.8,3.5-6c1.1-3.2,1.4-6.6,0.8-10c-0.1-0.7-0.3-1.5-0.5-2.2c-2.2-7.6-8.4-13.8-16.5-16.7
		c-7.5-2.7-15.4-2.1-21.8,1.5c-0.5,0.3-1,0.1-1.3-0.3c-0.3-0.5-0.2-1.1,0.2-1.5c7.5-7.6,19.5-10,30.6-6c6.2,2.2,11.4,6.2,15,11.3
		c0.1-0.5,0.2-0.9,0.3-1.4c2.2-13.2-8.5-25.5-23.9-27.4c-8.9-1.1-17.6,1.4-24,6.9c-0.4,0.4-1,0.4-1.4,0c-0.4-0.4-0.4-1-0.1-1.5
		c0.3-0.5,0.6-0.9,1-1.3c0.1-0.1,0.1-0.1,0.1-0.2c6.5-7.1,15.6-11.7,24.2-11.6c3-0.2,5.5,0.1,7.1,0.4c13.9,2.5,28.9,16.1,26.5,30.6
		c-0.9,5.2-3.4,9.9-7,13.6c1.4,4.6,1.4,9.5-0.3,14.1c-2,5.7-6.2,10-11.5,12.7c1.4,4.4,1.5,9.1-0.1,13.5c-3.5,9.8-13,14.1-21.9,14.2
		C130,386.8,130.3,386.3,130.8,386.2z"/>
</g>
</svg>
