<svg width="36" height="39" viewBox="0 0 36 39" fill="none" xmlns="http://www.w3.org/2000/svg">
<path d="M0 18.8965C0.0234374 14.2351 1.12371 10.4089 3.58624 7.02318C4.83119 5.24928 6.42621 3.74307 8.2752 2.59527C10.1242 1.44748 12.1889 0.681853 14.345 0.344526C17.7457 -0.277544 21.2494 -0.0544516 24.5415 0.993778C28.4324 2.24591 31.3159 4.7041 33.3783 8.15937C34.6084 10.2726 35.4049 12.6052 35.7221 15.0235C36.058 17.2276 36.0896 19.4665 35.8158 21.679C35.0658 27.4997 32.3937 32.1839 27.3774 35.4305C24.92 37.0561 22.0568 37.9793 19.1031 38.0986C15.9856 38.2146 12.9618 37.8204 10.1021 36.452C7.29937 35.1184 4.93488 33.0278 3.28155 30.4216C1.62642 27.8752 0.58395 24.9869 0.234374 21.9792C0.117187 20.7982 0.0468747 19.5921 0 18.8965ZM17.3693 30.746C17.3973 30.5812 17.4364 30.4185 17.4865 30.259C17.7972 28.8015 18.3182 27.3957 19.0334 26.0849C19.5849 25.0619 20.3524 24.1682 21.2837 23.4644C21.4478 23.3253 21.4478 23.2557 21.3775 23.0934C21.233 22.7693 21.1548 22.4201 21.1474 22.0659C21.1399 21.7118 21.2034 21.3596 21.3341 21.0298C21.4648 20.7 21.6602 20.3991 21.909 20.1443C22.1578 19.8896 22.455 19.686 22.7837 19.5454C22.8365 19.518 22.8913 19.4948 22.9478 19.4759C23.6349 19.2183 24.3971 19.2395 25.0686 19.5347C25.74 19.83 26.2667 20.3754 26.534 21.0526C26.7048 21.4956 26.7612 21.9738 26.6981 22.4439C26.4168 24.3456 24.2134 25.389 22.5962 24.4151C22.3618 24.276 22.1509 24.0905 21.8696 23.905C19.244 26.0389 18.4237 29.0307 17.883 32.1842C17.9522 32.2001 18.023 32.2079 18.094 32.2074C19.867 32.235 21.6203 31.8372 23.204 31.048C24.7522 30.3121 26.1261 29.2611 27.2355 27.9638C28.0396 27.0141 28.7099 25.961 29.228 24.8331C29.9791 23.0952 30.3773 21.228 30.3999 19.338C30.4194 18.1733 30.3334 17.0091 30.143 15.8595C29.7803 13.528 28.7376 11.3519 27.1427 9.59827C26.116 8.45799 24.8419 7.56215 23.4159 6.97776C21.8836 6.3524 20.2451 6.02125 18.5878 6.00197C18.0253 5.97879 17.4393 6.02516 16.8765 6.04835C15.2885 6.11736 13.7331 6.51662 12.3115 7.22011C10.8899 7.9236 9.63412 8.91553 8.62592 10.1313C7.79237 11.1153 7.12723 12.2276 6.65686 13.4242C5.88426 15.2982 5.53239 17.3159 5.62561 19.3377C5.6637 21.6024 6.21641 23.8297 7.24279 25.8543C8.83653 28.8922 11.2743 30.933 14.6272 31.8142C15.0725 31.9301 15.5178 31.9997 15.9865 32.0924C15.9926 31.9529 15.9847 31.8131 15.9631 31.675C15.828 29.8253 15.5141 27.9926 15.0256 26.2022C14.6037 24.7645 14.0881 23.3498 13.1737 22.1208C13.1329 22.0382 13.0608 21.9748 12.9731 21.9444C12.8853 21.914 12.789 21.9191 12.705 21.9585C12.3604 22.0653 11.9979 22.1038 11.6383 22.072C11.2786 22.0401 10.9288 21.9385 10.6089 21.7729C10.2889 21.6073 10.005 21.381 9.7735 21.1069C9.54195 20.8328 9.36725 20.5162 9.25937 20.1753C9.18438 19.911 9.14498 19.6382 9.14218 19.3637C9.13041 18.6381 9.40997 17.9375 9.91957 17.4155C10.4292 16.8936 11.1272 16.5928 11.8606 16.5793C12.5111 16.5702 13.1432 16.7924 13.6422 17.2054C14.056 17.5227 14.3657 17.954 14.5326 18.445C14.6994 18.936 14.7157 19.4648 14.5797 19.965C14.4335 20.5696 14.087 21.1084 13.5953 21.4954C13.7828 21.7968 13.9937 22.0519 14.1578 22.353C15.4703 24.5562 16.0331 27.014 16.3847 29.5186C16.4315 29.9128 16.5018 30.307 16.5487 30.7256H16.6425V27.6182C16.6342 25.6578 16.7438 23.6986 16.9706 21.7511C17.1521 19.8934 17.5857 18.0684 18.2596 16.3252C18.2706 16.2839 18.2699 16.2404 18.2575 16.1995C18.2451 16.1585 18.2215 16.1218 18.1893 16.0933C17.7306 15.7952 17.3716 15.3692 17.1576 14.8692C16.9436 14.3692 16.8842 13.8176 16.987 13.2843C17.0898 12.7509 17.3501 12.2597 17.7351 11.8727C18.1201 11.4857 18.6124 11.2203 19.1498 11.1101C19.6872 10.9998 20.2456 11.0497 20.7543 11.2535C21.2631 11.4572 21.6993 11.8055 22.008 12.2545C22.3166 12.7035 22.4837 13.233 22.4883 13.7759C22.4928 14.3189 22.3345 14.851 22.0334 15.3049C21.7376 15.7575 21.3116 16.1121 20.8102 16.3229C20.3089 16.5337 19.7552 16.591 19.2206 16.4875C19.0096 16.4643 18.9637 16.5107 18.8925 16.6498C18.7284 17.0904 18.5393 17.531 18.4003 17.9715C18.0087 19.3049 17.742 20.6711 17.6034 22.0528C17.5096 23.1195 17.3925 24.1864 17.3465 25.253C17.2997 26.2501 17.2997 27.2475 17.2762 28.2446C17.3534 29.0771 17.3847 29.9132 17.37 30.7491L17.3693 30.746Z" fill="#009C8A"/>
</svg>
