<?xml version="1.0" encoding="utf-8"?>
<!-- Generator: Adobe Illustrator 16.0.0, SVG Export Plug-In . SVG Version: 6.00 Build 0)  -->
<!DOCTYPE svg PUBLIC "-//W3C//DTD SVG 1.1//EN" "http://www.w3.org/Graphics/SVG/1.1/DTD/svg11.dtd">
<svg version="1.1" id="Layer_1" xmlns="http://www.w3.org/2000/svg" xmlns:xlink="http://www.w3.org/1999/xlink" x="0px" y="0px"
	 width="100px" height="98.978px" viewBox="0.142 1.83 100 98.978" enable-background="new 0.142 1.83 100 98.978"
	 xml:space="preserve">
<g>
	<g>
		<path d="M22.046,19.864c4.965,0,9.008-4.031,9.008-9.016c0-4.976-4.043-9.019-9.008-9.019c-4.997,0-9.029,4.042-9.028,9.019
			C13.018,15.832,17.05,19.864,22.046,19.864z"/>
		<path d="M79.535,19.864c4.996,0,9.038-4.031,9.038-9.016c0-4.976-4.042-9.019-9.038-9.019c-4.965,0-9.006,4.042-9.006,9.019
			C70.529,15.832,74.572,19.864,79.535,19.864z"/>
		<g>
			<path d="M99.625,38.076c-1.561-6.875-6.397-12.385-13.623-15.515c-0.497-0.216-3.601-0.575-3.921-0.577
				c-0.031,0-0.062-0.005-0.091-0.005h-4.883c-1.982,0-3.798,0.75-5.214,1.93c-0.049,0.041-0.113,0.041-0.151,0.071
				c-1.674,1.107-2.937,2.667-4.266,4.33c-2.989,3.693-6.372,7.91-15.843,8.957c-2.143,0.244-3.681,2.174-3.445,4.318
				c0.216,2.001,1.908,3.479,3.875,3.479c0.144,0,0.288-0.012,0.442-0.021c8.022-0.893,12.989-3.746,16.404-6.771v13.954h-0.039
				v9.817l0.145,33.912c0,2.679,1.8,4.854,4.023,4.854h0.775c2.225,0,4.021-2.173,4.021-4.854V62.041h3.434v33.912
				c0,2.679,1.801,4.854,4.021,4.854h0.777c2.222,0,4.024-2.173,4.024-4.854V62.041h0.144v-1.362
				c-0.823-0.155-1.596-0.525-2.234-1.081c-1.982-1.723-2.192-4.733-0.471-6.714c1.111-1.277,2-2.674,2.659-4.126v-11.62v-0.929
				v-0.837c0.911,1.347,1.566,2.827,1.928,4.411c0.812,3.576,0.091,7.488-1.928,10.939c-0.562,0.959-1.216,1.886-1.973,2.756
				c-1.397,1.606-1.225,4.038,0.382,5.435c0.488,0.424,1.051,0.699,1.642,0.837c0.291,0.071,0.585,0.108,0.881,0.108
				c1.075,0,2.149-0.451,2.909-1.326C99.113,52.683,101.205,45.034,99.625,38.076z"/>
		</g>
		<path d="M34.11,28.306c-1.323-1.651-2.586-3.22-4.258-4.328c-0.053-0.031-0.112-0.031-0.154-0.073
			c-1.428-1.181-3.231-1.928-5.221-1.928h-4.873c-0.296,0-0.587,0.019-0.875,0.048c-0.292,0.032-3.158,0.504-3.656,0.722
			c-6.371,2.76-10.979,7.816-13.327,14.621c-2.386,6.919-2.089,15.068,0.741,20.279c0.699,1.286,2.023,2.015,3.389,2.015
			c0.621,0,1.251-0.15,1.835-0.468c1.869-1.016,2.562-3.354,1.546-5.224c-1.509-2.778-2.101-8.66-0.228-14.09
			c0.488-1.42,1.236-3.049,2.366-4.635v0.805v0.859v15.312v0.695v9.122v33.914c0,2.676,1.801,4.851,4.022,4.851h0.775
			c2.224,0,4.021-2.172,4.021-4.851V62.041h3.727v33.912c0,2.679,1.8,4.854,4.022,4.854h0.775c2.222,0,4.023-2.173,4.023-4.854
			V62.041v-9.817l-0.079-14.005c3.108,2.719,7.501,5.304,14.25,6.434c-0.563-0.821-1.005-1.745-1.127-2.812
			c-0.205-1.918,0.534-3.693,1.785-4.985C39.957,35.397,36.829,31.673,34.11,28.306z"/>
	</g>
</g>
</svg>
