<?xml version="1.0" encoding="utf-8"?>
<!-- Generator: Adobe Illustrator 18.1.1, SVG Export Plug-In . SVG Version: 6.00 Build 0)  -->
<svg version="1.1" id="Layer_4_copy" xmlns="http://www.w3.org/2000/svg" xmlns:xlink="http://www.w3.org/1999/xlink" x="0px"
	 y="0px" viewBox="44.6 134.2 521.2 521.2" enable-background="new 44.6 134.2 521.2 521.2" xml:space="preserve">
<path fill="#FFFFFF" d="M483.5,382.1c0-38.7-16.7-70.1-44.3-96.7c-2-2-3.6-3.6-5.2-5.6c-6.9-4.9-13.8-10.2-20.7-15.1
	c-8.5-3.9-17-8.5-25.9-12.1c-43.6-18-87.2-14.4-130.8,0.3c-38,13.1-71.1,33.4-96.7,64.9c-15.7,19.3-26.6,41.3-31.5,65.6
	c-4.6,21.6,6.9,41.6,27.9,49.2c17.7,6.2,35.7,10.5,53.1,17.4c6.9,3,13.1,9.8,18,16.1c4.9,6.2,1.6,12.1-5.9,13.4
	c-6.9,1.3-14.4,0.7-21.6,0.7c-3,0-5.9-1-8.9-1c-7.9-0.7-15.1,0.7-18.7,8.5c-3.6,7.5-2.3,15.4,3,22c3,3.6,6.2,6.9,9.2,10.2
	c5.6,4.3,11.5,8.2,17,12.5c7.9,3.6,15.4,7.9,23.3,10.5c78.7,24.6,149.1,10.2,209.5-46.9C466.5,465.3,484.2,427,483.5,382.1z
	 M320.3,326c-9.5,13.4-27.5,16.1-40.6,6.2c-13.1-9.8-15.4-27.2-5.9-40.3c9.5-12.8,27.5-15.7,40.3-6.2S329.8,312.9,320.3,326z
	 M358.3,300.8c9.8-13.1,27.9-15.7,41-5.6c12.5,9.5,14.8,28.2,5.2,40.6s-27.2,14.8-40.3,5.2C351.4,331.6,348.8,313.6,358.3,300.8z
	 M383.2,492.9c-9.2,12.8-28.2,15.7-41,6.2c-12.5-9.2-15.4-27.5-6.2-40.3c9.2-12.8,28.2-15.7,41-6.2
	C389.4,462.1,392.4,480.4,383.2,492.9z M438.3,420.4c-9.5,12.8-27.9,15.7-40.6,6.6c-13.1-9.2-16.1-28.2-6.2-41
	c9.5-12.5,28.2-15.4,40.6-5.9C444.8,389.9,447.4,408.3,438.3,420.4z"/>
<g>
	<g>
		<path fill="none" d="M305.2,134.2c-143.9,0-260.6,116.7-260.6,260.6s116.7,260.6,260.6,260.6s260.6-116.7,260.6-260.6
			S449.1,134.2,305.2,134.2z"/>
	</g>
</g>
</svg>
