<?xml version="1.0" encoding="utf-8"?>
<!-- Generator: Adobe Illustrator 18.1.1, SVG Export Plug-In . SVG Version: 6.00 Build 0)  -->
<svg version="1.1" id="Layer_4_copy" xmlns="http://www.w3.org/2000/svg" xmlns:xlink="http://www.w3.org/1999/xlink" x="0px"
	 y="0px" viewBox="44.6 134.2 521.2 521.2" enable-background="new 44.6 134.2 521.2 521.2" xml:space="preserve">
<g>
	<polygon fill="#FFFFFF" points="182.9,453.5 422.2,294.2 182.9,294.2 	"/>
	<path fill="#FFFFFF" d="M433.3,252.6H171.4c-18,0-32.8,14.8-32.8,32.8v177c0,18,14.8,32.8,32.8,32.8h62c12.8,0,14.1,6.2,14.1,11.1
		v20.3h-36.1c-7.5,0-13.8,6.2-13.8,13.8s6.2,13.8,13.8,13.8h181.9c7.5,0,13.8-6.2,13.8-13.8s-6.2-13.8-13.8-13.8h-36.1v-20.3
		c0-4.9,1.3-11.1,14.1-11.1h62c18,0,32.8-14.8,32.8-32.8v-177C466.1,267.3,451.4,252.6,433.3,252.6z M437.9,462.4
		c0,2.6-2,4.6-4.6,4.6H171.4c-2.6,0-4.6-2-4.6-4.6v-177c0-2.6,2-4.6,4.6-4.6h261.9c2.6,0,4.6,2,4.6,4.6V462.4z"/>
</g>
<g>
	<g>
		<path fill="none" d="M305.2,134.2c-143.9,0-260.6,116.7-260.6,260.6s116.7,260.6,260.6,260.6s260.6-116.7,260.6-260.6
			S449.1,134.2,305.2,134.2z"/>
	</g>
</g>
</svg>
