<?xml version="1.0" encoding="utf-8"?>
<!-- Generator: Adobe Illustrator 18.1.1, SVG Export Plug-In . SVG Version: 6.00 Build 0)  -->
<svg version="1.1" id="Layer_4_copy" xmlns="http://www.w3.org/2000/svg" xmlns:xlink="http://www.w3.org/1999/xlink" x="0px"
	 y="0px" viewBox="44.8 134.7 520.6 521" enable-background="new 44.8 134.7 520.6 521" xml:space="preserve">
<g>
	<path fill="#FFFFFF" d="M312.7,519.4c-16.4,0-32.5-2-47.5-5.9c-24.9,30.2-60,38-60,38c10.2-22.3,14.4-40.3,15.7-55.4
		c-46.2-24.9-76.7-68.5-76.7-118c0-78,75.4-141.3,168.5-141.3s168.5,63.3,168.5,141.3S405.5,519.4,312.7,519.4z"/>
</g>
<path fill="none" d="M305.5,134.7c-144.1,0-260.6,116.6-260.6,260.6c0,143.7,116.6,260.3,260.3,260.3s260.3-116.6,260.3-260.3
	C565.8,251.3,449.2,134.7,305.5,134.7z"/>
</svg>
