<?xml version="1.0" encoding="utf-8"?>
<!-- Generator: Adobe Illustrator 18.1.1, SVG Export Plug-In . SVG Version: 6.00 Build 0)  -->
<svg version="1.1" id="logic" xmlns="http://www.w3.org/2000/svg" xmlns:xlink="http://www.w3.org/1999/xlink" x="0px" y="0px"
	 viewBox="44.8 134.7 520.6 521" enable-background="new 44.8 134.7 520.6 521" xml:space="preserve">
<g>
	<g>
		<path fill="#FFFFFF" d="M177.8,354.1c-3.3-2.9-7.2-5.2-11.8-6.9c-4.6-1.6-9.5-2.3-14.7-2.3c-4.6,0-9.2,0.7-13.1,2
			s-7.5,3.3-10.8,5.2c-3.3,2-5.6,4.6-7.5,7.2c-1.6,2.6-2.6,5.2-2.9,7.9c0,1.3,0.3,2.3,1.3,3.3c1.3,1,2.3,1.3,3.6,1.3h5.2
			c1.3,0,2.6-0.3,3.3-0.7s1.6-1,2.3-2c2-2.6,4.3-4.9,6.9-6.9c2.6-2,6.5-2.9,11.8-2.9c5.9,0,10.8,1.6,14.7,4.6s5.9,7.5,5.9,13.4v2.3
			l-24.9,3.9c-4.9,1-9.8,2-14.1,3.6c-4.3,1.3-8.2,3.3-11.5,5.9c-3.3,2.6-5.9,5.6-7.9,9.2c-2,3.6-2.9,7.9-2.9,12.4
			c0,3.6,0.7,6.9,2.3,9.8c1.6,2.9,3.6,5.6,6.2,7.9c2.6,2.3,5.9,3.9,9.8,5.2s8.2,2,12.8,2c2.9,0,5.6-0.3,8.8-1
			c3.3-0.7,6.2-1.3,9.2-2.6c2.6-1,5.2-2.6,7.5-4.3c2.3-1.6,3.9-3.6,4.9-5.9v7.2c0,1.3,0.3,2.3,1.3,3.3c1,1,2,1.3,3.3,1.3h6.5
			c1.3,0,2.3-0.3,3.3-1.3c1-1,1.3-2,1.3-3.3v-53c0-5.6-0.7-10.8-2.6-15.1C183.7,360.6,181.1,357,177.8,354.1z M171.9,398.6
			c0,3.6-0.7,7.2-2,10.5s-3.3,5.9-5.9,8.2c-2.6,2.3-5.6,3.9-9.2,5.2s-7.5,2-11.8,2c-2.9,0-5.6-0.3-7.5-1c-2-1-3.6-1.6-4.9-2.9
			c-1.3-1-2.3-2.3-2.9-3.6c-0.7-1.3-1-2.6-1-3.9c0-4.3,2.3-7.5,6.5-10.2c4.6-2.6,10.5-4.6,17.7-5.2l21-3.3V398.6z"/>
		<path fill="#FFFFFF" d="M328.8,320.7c-2.6-2.9-7.2-2.6-9.5,0.7c-1.6,2.6-1.3,6.2,1,8.5l46.5,46.8H220c-3.3,0-6.5,2-6.9,5.2
			c-0.7,3.9,2.3,7.2,6.2,7.2h160.1l6.9,6.9l-6.9,6.9H220c-3.3,0-6.5,2-6.9,5.2c-0.7,3.9,2.3,7.2,6.2,7.2h147.4l-48.1,48.1
			c-2.3,2.3-2.9,6.2-0.7,8.8c1.3,1.6,3.3,2.3,4.9,2.3c1.6,0,3.3-0.7,4.6-2l72.4-72.4c1-1,1.6-2.6,1.6-4.3c0-1.6-0.7-3.3-2-4.6
			L328.8,320.7z"/>
	</g>
	<path fill="#FFFFFF" d="M504.3,385.5c-0.3-6.2-1.6-12.1-3.6-17.4c-2.3-5.2-4.9-9.5-8.5-13.1c-3.6-3.6-7.9-6.2-12.4-8.2
		c-4.6-2-9.8-2.9-15.4-2.9c-7.2,0-13.1,1.3-17.4,3.9s-7.5,5.2-9.8,8.2v-39c0-1.3-0.3-2.3-1.3-3.3s-2-1.3-3.3-1.3H426
		c-1.3,0-2.3,0.3-3.3,1.3c-1,1-1.3,2-1.3,3.3v116.2c0,1.3,0.3,2.3,1.3,3.3c1,1,2,1.3,3.3,1.3h6.5c1.3,0,2.3-0.3,3.3-1.3
		c1-1,1.3-2,1.3-3.3v-5.6c2.3,3.3,5.9,6.2,10.2,8.5c4.3,2.3,10.2,3.6,17.4,3.6c5.6,0,10.5-1,15.4-2.9s8.8-4.9,12.4-8.5
		c3.6-3.9,6.5-8.2,8.5-13.4c2-5.2,3.3-10.8,3.3-17.7c0.3-2,0.3-3.9,0.3-5.9C504.6,389.1,504.3,387.2,504.3,385.5z M488.6,396.7
		c-0.7,8.5-3.3,15.4-7.5,20.3c-4.6,4.9-10.5,7.5-18.3,7.5c-7.5,0-13.4-2.3-18-6.9c-4.6-4.6-7.2-10.8-7.9-18.3
		c-0.3-1.6-0.3-3.9-0.3-6.9c0-2.6,0-5.2,0.3-6.9c0.7-8.2,3.3-14.7,7.9-19.3c4.6-4.6,10.5-6.9,18-6.9c7.9,0,13.8,2.6,18.3,7.2
		c4.6,5.2,6.9,11.8,7.5,20.3C488.6,390.1,488.6,393.4,488.6,396.7z"/>
</g>
<path fill="none" d="M305.5,134.7c-144.1,0-260.6,116.6-260.6,260.6c0,143.7,116.6,260.3,260.3,260.3s260.3-116.6,260.3-260.3
	C565.8,251.3,449.2,134.7,305.5,134.7z"/>
</svg>
