<?xml version="1.0" encoding="utf-8"?>
<!-- Generator: Adobe Illustrator 18.1.1, SVG Export Plug-In . SVG Version: 6.00 Build 0)  -->
<svg version="1.1" id="Layer_4_copy" xmlns="http://www.w3.org/2000/svg" xmlns:xlink="http://www.w3.org/1999/xlink" x="0px"
	 y="0px" viewBox="44.8 134.7 520.6 521" enable-background="new 44.8 134.7 520.6 521" xml:space="preserve">
<g>
	<path fill="#FFFFFF" d="M448.4,304.4c-18,0-35.7-0.3-53.8-0.3c-4.3,0-17-1.6-19.3,1c-3,3.3-0.7,20.3-1,25.6
		c-2,31.8-6.6,63.6-8.2,95.7c-1,23.3-4.6,65.6,23.6,75.1c11.8,3.9,26.6,1.6,35.7-7.2c5.2-4.9,8.2-11.5,9.8-18.4
		c0.7-2.6,0.3-10.5,1.6-11.8c1.3-1.3,9.8,0,11.5,0c0,31.1-15.4,70.1-45.9,83.3c-31.8,13.4-69.5-2.6-79.7-35.7
		c-5.2-17-3.3-35.4-2.3-52.8c1-17,2.6-34.4,3.9-51.5c3.3-34.7,7.2-69.5,9.2-104.2c-13.4,0-26.9,0-40.3,0c-5.9,0-11.8,0-18,0
		c-11.1,0-9.2,0.3-9.8,11.1c-2,23.3-3.9,46.9-5.9,70.1c-2.3,25.2-4.3,50.8-7.5,76c-3,24.3-5.6,52.4-19,73.4
		c-11.1,17-33.8,24.3-51.5,12.1c-8.2-5.6-13.8-15.1-14.4-25.2c-1-12.8,7.2-22.9,14.4-32.8c14.8-20.7,28.2-41.3,37-64.9
		c9.2-25.2,14.4-51.8,17-78.3c0.7-7.5,1.3-14.8,1.6-22.3c0.3-3.6,3-16.1,0.7-18.7c-2-2.3-15.7-1-19-1c-7.2,0-14.8,1-22,3
		c-11.1,3.3-20.7,9.2-27.9,18.4c-4.6,5.9-7.5,12.5-11.8,18.7c-4.6,6.6-6.6,4.9-14.8,4.3c9.5-26.6,18-65.9,46.5-78.7
		c29.2-13.1,67.5-10.8,99-11.1c36.4-0.3,72.8,0,109.2,0c9.2,0,18,0,27.2,0c3.3,0,21.6-2,23.6,0c2.3,2.3,0.3,21,0.3,24.3
		C448.4,289.6,448.4,297.2,448.4,304.4z"/>
</g>
<path fill="none" d="M305.5,134.7c-144.1,0-260.6,116.6-260.6,260.6c0,143.7,116.6,260.3,260.3,260.3s260.3-116.6,260.3-260.3
	C565.8,251.3,449.2,134.7,305.5,134.7z"/>
</svg>
