<?xml version="1.0" encoding="utf-8"?>
<!-- Generator: Adobe Illustrator 18.1.1, SVG Export Plug-In . SVG Version: 6.00 Build 0)  -->
<svg version="1.1" id="Layer_4_copy" xmlns="http://www.w3.org/2000/svg" xmlns:xlink="http://www.w3.org/1999/xlink" x="0px"
	 y="0px" viewBox="44.8 134.7 520.6 521" enable-background="new 44.8 134.7 520.6 521" xml:space="preserve">
<g>
	<path fill="#FFFFFF" d="M457,432.5c-13.8,14.1-29.8,26.6-45.6,38.7c-3.6,3-11.8,4.6-15.1,2.3c-3.3-2-4.9-9.5-4.6-14.4
		c1-19.7-4.3-32.5-17.7-38.7c-14.4-6.9-34.1-2.3-47.5,10.8c-12.5,12.1-17.4,30.5-9.8,44.3c3.6,6.2,11.5,10.5,17.7,15.1
		c2,1.3,4.6,1.3,6.9,2c7.2,2.6,17.7,1,20,10.8c2.3,9.8-5.6,15.7-12.1,20.3c-17.7,12.5-36.1,24.3-54.1,36.1
		c-6.2,3.9-9.8,2.6-13.8-4.3c-12.1-20-25.2-39.3-38.4-59c-1.3-2-3.3-3.6-5.2-5.2c-8.9-7.9-13.1-6.6-15.1,5.2
		c-3.3,19.3-10.8,34.7-32.1,39.7c-17.7,3.9-35.7-7.9-44.9-28.8c-7.5-17.4-4.3-36.4,10.2-43.9c8.9-4.6,20-4.3,30.2-6.6
		c4.6-1,11.1-2,12.5-4.6c1.6-3.9,0.3-10.8-2.6-14.1c-16.4-18.7-33.4-36.7-50.8-54.7c-4.6-4.6-5.9-8.5-1-13.4
		c17-16.1,34.1-32.5,51.8-47.9c3.9-3.3,13.1-5.6,16.7-3.3c4.6,2.6,7.9,10.8,7.9,16.4c0,14.8,0.3,28.8,15.7,36.1
		c16.1,7.9,30.5,2,42.6-8.9c6.9-6.2,13.1-14.1,16.7-22.6c6.9-16.4-3-33.1-20.7-36.7c-5.6-1-11.1-1.6-16.4-3.6
		c-11.5-3.9-14.8-15.7-5.2-22.9c20-15.7,41.6-29.8,62.3-44.6c4.9-3.6,8.2-0.7,11.1,3.9c11.8,18,24.3,36.1,36.4,54.1
		c0.3,0.7,0.7,1.3,1.3,1.6c6.2,3.9,12.5,8.2,18.7,12.1c2.6-5.9,6.6-11.8,7.9-18c4.6-19.3,15.4-29.8,32.5-30.2
		c18.4-0.7,38,15.7,43.3,35.4c4.3,16.1-2.6,34.7-17.7,41c-8.2,3.6-18.4,3-27.5,4.6c-3.9,0.7-10.2,1.6-10.5,3.6
		c-0.7,3.9,0.3,9.5,3,12.5c13.4,15.7,27.2,31.1,41,46.5C475,416.2,476.9,412.2,457,432.5z"/>
</g>
<path fill="none" d="M305.5,134.7c-144.1,0-260.6,116.6-260.6,260.6c0,143.7,116.6,260.3,260.3,260.3s260.3-116.6,260.3-260.3
	C565.8,251.3,449.2,134.7,305.5,134.7z"/>
</svg>
