<?xml version="1.0" encoding="utf-8"?>
<!-- Generator: Adobe Illustrator 18.1.1, SVG Export Plug-In . SVG Version: 6.00 Build 0)  -->
<svg version="1.1" id="Layer_3_copy" xmlns="http://www.w3.org/2000/svg" xmlns:xlink="http://www.w3.org/1999/xlink" x="0px"
	 y="0px" viewBox="44.8 134.7 520.6 521" enable-background="new 44.8 134.7 520.6 521" xml:space="preserve">
<path fill="#FFFFFF" d="M459.4,272.6c-0.7-1-1.6-2.3-2.3-3.6c-0.3-0.7-0.7-1.3-1-2l-21-21l-0.3-0.3c-3.6-2.3-6.9-4.9-10.5-7.2
	c-7.5-5.2-15.1-10.8-23.2-15.1c-71.1-38.6-154.6-31.1-217.8,20c-0.7,0.7-1.6,1-2.6,1.6c-0.7,0.3-1,0.7-1.6,1l-21.3,21l-0.3,0.3
	c-2.6,3.9-5.2,7.9-7.9,11.5c-5.6,8.2-11.5,16.4-16,25.2c-37,68.8-29.1,152.6,20.3,213.5c0.7,1,1.6,2.3,2.3,3.6c0.7,0.7,1,1.3,1.3,2
	l21,21l0.3,0.3c4.9,2.9,9.5,6.2,14.1,9.5c10.2,6.9,20.3,14.1,31.8,19c73,31.8,141.8,23.2,204.7-25.2c1-0.7,2.3-1.3,3.3-2
	c0.7-0.3,1-0.7,1.6-1l21.3-21.3V523c2.6-3.6,5.2-7.5,7.9-11.1c5.9-8.2,11.8-16.4,16-25.5C515.7,411.1,508.9,339.4,459.4,272.6z
	 M130.7,419.9c-5.9-36.7-0.3-71.7,17.4-104.8C150,348.8,144.1,383.2,130.7,419.9z M369.4,285.7l9.5,1.6c14.1,2.6,28.8,5.2,43.2,8.2
	c0,0,1,0.7,2.3,2.9c9.2,16,17.4,30.1,25.2,44.9c1,2,1.3,4.6,0.7,6.2c-4.6,13.1-9.5,26.9-14.1,39.9l-3.9,11.1
	c-3.9,0-7.5-0.3-11.1-0.3c-13.1-0.3-25.5-0.7-38.3-1.3c-1.3,0-3.9-2-4.9-3.6c-8.8-17-18-34.7-27.2-53.4c-1-2-1.3-5.2-0.7-6.9
	c4.6-12.4,9.5-24.9,14.7-38C366.4,293.2,367.7,289.6,369.4,285.7z M333.7,218.9c-31.4,13.8-83.2,22.3-110,18
	C258.4,219.2,294.4,213.3,333.7,218.9z M155.2,407.8c-1.6-1.6-2.6-5.2-2.3-7.9c2.9-19.3,5.9-38.3,9.5-56.6c0.3-2,1.6-3.9,3.3-5.6
	c0.3-0.7,1-1,1.6-1.3c7.9-4.9,16-9.5,24.2-13.8c5.6-3.3,11.5-6.5,17.4-9.8c3.3-1.6,4.6-1.6,6.9,1c4.3,4.6,8.5,8.8,14.1,14.4
	c2.6,2.6,5.2,5.2,8.2,8.2l0.7,0.3c16,7.9,20.3,22.9,13.4,47.8c-1.6,6.5-2.6,13.4-3.6,20.3c-1,4.9-1.6,10.2-2.6,15.1
	c-0.3,2-1.6,4.3-3.3,5.9c-0.7,0.7-1.6,1.3-2.3,1.6c-13.4,5.9-28.2,11.5-44.5,17.4c-2,0.7-5.6-0.3-6.5-1
	C177.8,432.7,166.3,420.2,155.2,407.8z M179.1,520.1c30.8,4.9,58.3,20.3,86.4,47.8C232.5,561.4,203.7,545,179.1,520.1z M312.4,519.8
	c-0.7,0.7-1.6,1.3-2.9,1.6c-8.2,2.6-16.4,5.6-24.2,8.5c-7.9,2.9-16,5.9-24.2,8.5c-2.3,0.7-5.6,0.3-7.5-0.7
	c-15.7-8.5-30.5-17.4-42.9-24.9c-2.3-1.3-3.9-3.3-4.3-4.6c-2.6-12.8-4.9-25.5-7.5-39l-2-10.8l11.1-4.3c13.4-5.2,26.2-10.2,39.3-15.1
	c1.6-0.7,4.6-0.3,6.9,0.7c21.3,10.5,38.6,19.3,54,27.5c1.6,1,3.9,4.3,3.9,6.5c0.7,8.2,0.7,16,1,23.9c0.3,5.9,0.3,11.5,0.3,17
	C313.7,518.1,313,519.1,312.4,519.8z M306.2,339.4l-7.5,1.3c-9.5,1.6-19.3,3.3-28.8,4.3c-2.6,0.3-6.2-1-7.9-2.6
	c-7.2-6.5-14.1-13.8-20.6-20.3c-5.2-5.6-11.1-11.1-16.7-16.7c-2.9-2.9-3.3-4.6-1.3-8.2c3.6-6.2,7.2-12.4,10.5-18.7
	c3.9-7.2,7.9-14.4,12.1-21.6c0.3-0.3,0.7-1,1.3-1.6c2-2,4.3-3.3,6.2-3.6c16.7-3.3,34.7-5.9,57.6-9.2c2-0.3,4.9,0.3,6.5,1.6
	c4.6,3.6,9.2,7.9,13.4,11.8c1.3,1.3,2.3,2.3,3.6,3.3l-0.3,0.3l1.6,1.6c2,2,4.6,4.3,7.2,6.2c5.6,4.3,10.8,8.8,12.1,13.8
	c1.3,4.6-2,11.1-4.9,17c-1.3,2.9-2.9,5.9-3.9,8.8c0,0.3-0.3,0.3-0.3,0.7c-1,2.9-2,6.2-2.9,9.2c-2,6.5-3.9,13.4-9.2,17
	c-4.3,3.6-11.5,3.9-18.3,4.6C312.4,338.7,309.1,338.7,306.2,339.4z M372,531.6c-11.5-2.6-22.6-5.2-34.4-7.9c-3.6-1-7.2-1.6-10.8-2.6
	l-0.3-9.8c-0.7-12.1-1-24.6-1-37c0-0.3,0.3-1.6,3.3-4.6c18.3-18.3,36.3-36.7,54.7-54.7c1.3-1,3.3-2,4.9-2c11.1,0,21.9,0.3,33.7,0.7
	l9.8,0.3c1,3.6,1.6,7.2,2.6,10.8c2.9,12.8,5.6,24.6,8.2,36.7c0.3,1.3-0.7,4.6-2,5.9c-20.6,21-41.6,42.2-61.9,62.2
	C377.2,530.9,373.9,531.9,372,531.6z M432.9,520.8c-17.7,18-38,31.1-57.6,38c13.4-18.3,28.5-36,44.9-52.7
	c15.4-15.4,32.4-30.1,50.8-44.2C465,481.1,451.2,502.4,432.9,520.8z M430.9,268.3c24.9,23.6,41.3,52.4,48.5,85.8
	C454.5,331.2,438.5,302.3,430.9,268.3z"/>
<path fill="none" d="M305.5,134.7c-144.1,0-260.6,116.6-260.6,260.6c0,143.7,116.6,260.3,260.3,260.3s260.3-116.6,260.3-260.3
	C565.8,251.3,449.2,134.7,305.5,134.7z"/>
</svg>
