<svg xmlns="http://www.w3.org/2000/svg" viewBox="45.6 135.2 521.2 521.2" xmlns:v="https://vecta.io/nano"><path fill="#fff" d="M433.7 503.7h-37.4l-43.9-47.9-43.9 47.9h-36.7l62.3-68.5-62.3-68.5h37.4l43.9 47.9 43.9-47.9h37.4l-62.3 68.5 61.6 68.5zm-4-206.5H266.8l-65.9 226.2c-1.3 4.6-5.6 8.2-10.5 8.2h-.7c-4.6 0-8.9-3-10.8-7.2l-26.2-67.9h-30.2c-6.2 0-11.5-5.2-11.5-11.5s5.2-11.5 11.5-11.5h38c4.6 0 8.9 3 10.8 7.2l17 43.6 59-201.9c1.3-4.9 5.9-8.2 11.1-8.2h171.4c6.2 0 11.5 5.2 11.5 11.5s-5 11.5-11.6 11.5z"/></svg>