<?xml version="1.0" encoding="utf-8"?>
<!-- Generator: Adobe Illustrator 18.1.1, SVG Export Plug-In . SVG Version: 6.00 Build 0)  -->
<svg version="1.1" id="Layer_4_copy" xmlns="http://www.w3.org/2000/svg" xmlns:xlink="http://www.w3.org/1999/xlink" x="0px"
	 y="0px" viewBox="45.6 135.2 521.2 521.2" enable-background="new 45.6 135.2 521.2 521.2" xml:space="preserve">
<g>
	<path fill="#FFFFFF" d="M433.7,503.7h-37.4l-43.9-47.9l-43.9,47.9h-36.7l62.3-68.5l-62.3-68.5h37.4l43.9,47.9l43.9-47.9h37.4
		l-62.3,68.5L433.7,503.7z M429.7,297.2H266.8l-65.9,226.2c-1.3,4.6-5.6,8.2-10.5,8.2c0,0-0.3,0-0.7,0c-4.6,0-8.9-3-10.8-7.2
		l-26.2-67.9h-30.2c-6.2,0-11.5-5.2-11.5-11.5s5.2-11.5,11.5-11.5h38c4.6,0,8.9,3,10.8,7.2l17,43.6l59-201.9
		c1.3-4.9,5.9-8.2,11.1-8.2h171.4c6.2,0,11.5,5.2,11.5,11.5S436.3,297.2,429.7,297.2z"/>
</g>
<g>
	<path fill="none" d="M306.2,135.2c-143.9,0-260.6,116.7-260.6,260.6s116.7,260.6,260.6,260.6s260.6-116.7,260.6-260.6
		S450.1,135.2,306.2,135.2z"/>
</g>
</svg>
