<svg xmlns="http://www.w3.org/2000/svg" viewBox="44.6 134.2 521.2 521.2" xmlns:v="https://vecta.io/nano"><path fill="#fff" d="M438.5 467.4c-4.6 0-9.2 1-13.1 2.3l-29.8-59.9c10.2-7.5 16.7-19.3 16.7-32.7a40.25 40.25 0 0 0-40.3-40.3c-4.3 0-8.2.7-12.1 2l-29.5-58.9c10.8-7.2 17.7-19.6 17.7-33.4a40.25 40.25 0 1 0-80.6 0 40 40 0 0 0 17.4 33.1L253.8 340c-4.6-2-10.2-3.3-15.7-3.3a40.25 40.25 0 0 0-40.3 40.3c0 14.7 7.9 27.5 19.6 34.4l-29.8 58.3c-4.3-1.3-8.8-2.3-13.4-2.3a40.25 40.25 0 1 0 0 80.6 40.25 40.25 0 0 0 40.3-40.3 40 40 0 0 0-17.4-33.1l30.1-58.9a38.65 38.65 0 0 0 10.8 1.6c4.9 0 9.8-1 14.1-2.6l32.1 60.3c-10.2 7.5-16.7 19.3-16.7 32.7a40.25 40.25 0 1 0 80.6 0c0-14.1-7.2-26.2-18-33.4l28.8-58.9c3.9 1.3 8.2 2 12.8 2 4.9 0 9.8-1 14.1-2.6l29.8 59.6c-10.8 7.2-17.7 19.6-17.7 33.4a40.25 40.25 0 0 0 40.3 40.3c22.3 0 40.3-18 40.6-40.3-.1-22.4-18.1-40.4-40.3-40.4zm-89.1-56.7l-28.8 58.9c-3.9-1.3-8.2-2-12.8-2-4.9 0-9.8 1-14.1 2.6l-32.1-60.3c10.2-7.5 16.7-19.3 16.7-32.7 0-12.8-5.9-24.2-15.1-31.4l31.4-61.2c4.3 1.3 8.8 2.3 13.4 2.3s9.2-1 13.1-2.3l29.1 58.6c-11.1 7.2-18.7 19.6-19 34.1.2 14.1 7.4 26.2 18.2 33.4z"/></svg>