<?xml version="1.0" encoding="utf-8"?>
<!-- Generator: Adobe Illustrator 18.1.1, SVG Export Plug-In . SVG Version: 6.00 Build 0)  -->
<svg version="1.1" id="algorithms" xmlns="http://www.w3.org/2000/svg" xmlns:xlink="http://www.w3.org/1999/xlink" x="0px" y="0px"
	 viewBox="44.6 134.2 521.2 521.2" enable-background="new 44.6 134.2 521.2 521.2" xml:space="preserve">
<path fill="#FFFFFF" d="M438.5,467.4c-4.6,0-9.2,1-13.1,2.3l-29.8-59.9c10.2-7.5,16.7-19.3,16.7-32.7c0-22.3-18-40.3-40.3-40.3
	c-4.3,0-8.2,0.7-12.1,2l-29.5-58.9c10.8-7.2,17.7-19.6,17.7-33.4c0-22.3-18-40.3-40.3-40.3c-22.3,0-40.3,18-40.3,40.3
	c0,13.8,6.9,25.9,17.4,33.1L253.8,340c-4.6-2-10.2-3.3-15.7-3.3c-22.3,0-40.3,18-40.3,40.3c0,14.7,7.9,27.5,19.6,34.4l-29.8,58.3
	c-4.3-1.3-8.8-2.3-13.4-2.3c-22.3,0-40.3,18-40.3,40.3c0,22.3,18,40.3,40.3,40.3c22.3,0,40.3-18,40.3-40.3
	c0-13.8-6.9-25.9-17.4-33.1l30.1-58.9c3.3,1,7.2,1.6,10.8,1.6c4.9,0,9.8-1,14.1-2.6l32.1,60.3c-10.2,7.5-16.7,19.3-16.7,32.7
	c0,22.3,18,40.3,40.3,40.3c22.3,0,40.3-18,40.3-40.3c0-14.1-7.2-26.2-18-33.4l28.8-58.9c3.9,1.3,8.2,2,12.8,2c4.9,0,9.8-1,14.1-2.6
	l29.8,59.6c-10.8,7.2-17.7,19.6-17.7,33.4c0,22.3,18,40.3,40.3,40.3c22.3,0,40.3-18,40.6-40.3C478.7,485.4,460.7,467.4,438.5,467.4z
	 M349.4,410.7l-28.8,58.9c-3.9-1.3-8.2-2-12.8-2c-4.9,0-9.8,1-14.1,2.6l-32.1-60.3c10.2-7.5,16.7-19.3,16.7-32.7
	c0-12.8-5.9-24.2-15.1-31.4l31.4-61.2c4.3,1.3,8.8,2.3,13.4,2.3s9.2-1,13.1-2.3l29.1,58.6c-11.1,7.2-18.7,19.6-19,34.1
	C331.4,391.4,338.6,403.5,349.4,410.7z"/>
<g>
	<g>
		<path fill="none" d="M305.2,134.2c-143.9,0-260.6,116.7-260.6,260.6s116.7,260.6,260.6,260.6s260.6-116.7,260.6-260.6
			S449.1,134.2,305.2,134.2z"/>
	</g>
</g>
</svg>
