<svg xmlns="http://www.w3.org/2000/svg" viewBox="44.6 134.2 521.2 521.2" xmlns:v="https://vecta.io/nano"><path fill="#fff" d="M249.5 559.7H177v-136h72.4v136zm0-144.9H177c-5.6 0-10.2-4.6-10.2-10.2s4.6-10.2 10.2-10.2h72.4c5.6 0 10.2 4.6 10.2 10.2 0 5.7-4.6 10.2-10.1 10.2zm0-29.5H177v-85.2h89.2l12.8 35.4c-17.7 9.5-29.5 28.2-29.5 49.8zm56.7-56.7c-6.2 0-12.5 1-18 3l-11.5-31.8h59l-11.5 31.8c-5.6-2-11.8-3-18-3zm26.8 6.9l12.8-35.4H435v85.2h-72.4c-.1-21.6-11.9-40.3-29.6-49.8zm102 224.2h-72.4v-136H435v136zm0-144.9h-72.4c-5.6 0-10.2-4.6-10.2-10.2s4.6-10.2 10.2-10.2H435c5.6 0 10.2 4.6 10.2 10.2a10.18 10.18 0 0 1-10.2 10.2zm12.8-124.5H164.2c0-8.5-5.6-15.1-12.5-15.1v-26.6h308.1v26.6c-6.5-.3-12 6.6-12 15.1z"/></svg>