<?xml version="1.0" encoding="utf-8"?>
<!-- Generator: Adobe Illustrator 18.1.1, SVG Export Plug-In . SVG Version: 6.00 Build 0)  -->
<svg version="1.1" id="Layer_4_copy" xmlns="http://www.w3.org/2000/svg" xmlns:xlink="http://www.w3.org/1999/xlink" x="0px"
	 y="0px" viewBox="44.6 134.2 521.2 521.2" enable-background="new 44.6 134.2 521.2 521.2" xml:space="preserve">
<g>
	<path fill="#FFFFFF" d="M249.5,559.7H177v-136h72.4V559.7z M249.5,414.8H177c-5.6,0-10.2-4.6-10.2-10.2c0-5.6,4.6-10.2,10.2-10.2
		h72.4c5.6,0,10.2,4.6,10.2,10.2C259.6,410.3,255,414.8,249.5,414.8z M249.5,385.3H177v-85.2h89.2l12.8,35.4
		C261.3,345,249.5,363.7,249.5,385.3z M306.2,328.6c-6.2,0-12.5,1-18,3l-11.5-31.8h59l-11.5,31.8
		C318.6,329.6,312.4,328.6,306.2,328.6z M333,335.5l12.8-35.4H435v85.2h-72.4C362.5,363.7,350.7,345,333,335.5z M435,559.7h-72.4
		v-136H435V559.7z M435,414.8h-72.4c-5.6,0-10.2-4.6-10.2-10.2c0-5.6,4.6-10.2,10.2-10.2H435c5.6,0,10.2,4.6,10.2,10.2
		C445.2,410.3,440.6,414.8,435,414.8z M447.8,290.3H164.2c0-8.5-5.6-15.1-12.5-15.1v-26.6h308.1v26.6
		C453.3,274.9,447.8,281.8,447.8,290.3z"/>
</g>
<g>
	<g>
		<path fill="none" d="M305.2,134.2c-143.9,0-260.6,116.7-260.6,260.6s116.7,260.6,260.6,260.6s260.6-116.7,260.6-260.6
			S449.1,134.2,305.2,134.2z"/>
	</g>
</g>
</svg>
