<svg xmlns="http://www.w3.org/2000/svg" viewBox="44.6 134.2 521.2 521.2" fill="#fff" xmlns:v="https://vecta.io/nano"><path d="M273.1 250.9H181a19.93 19.93 0 0 0-20 20v91.8a19.93 19.93 0 0 0 20 20h92.1a19.93 19.93 0 0 0 20-20v-91.8a19.93 19.93 0 0 0-20-20zm-3.3 70.9c0 2.6-2 4.6-4.6 4.6h-23.6c-2.6 0-4.6 2-4.6 4.6v23.6c0 2.6-2 4.6-4.6 4.6h-10.2c-2.6 0-4.6-2-4.6-4.6V331c0-2.6-2-4.6-4.6-4.6h-23.6c-2.6 0-4.6-2-4.6-4.6v-10.2c0-2.6 2-4.6 4.6-4.6H213c2.6 0 4.6-2 4.6-4.6v-23.6c0-2.6 2-4.6 4.6-4.6h10.2c2.6 0 4.6 2 4.6 4.6v23.6c0 2.6 2 4.6 4.6 4.6h23.6c2.3 0 4.6 2.3 4.6 4.6v10.2zm161.6 87.5h-92.1a19.93 19.93 0 0 0-20 20v92.1a19.93 19.93 0 0 0 20 20h92.1a19.93 19.93 0 0 0 20-20v-92.1c0-11.2-8.9-20-20-20zm-3.3 90.4c0 2.6-2 4.6-4.6 4.6h-76.4c-2.6 0-4.6-2-4.6-4.6v-10.2c0-2.6 2-4.6 4.6-4.6h76.4c2.6 0 4.6 2.3 4.6 4.9v9.9zm0-39.3c0 2.6-2 4.6-4.6 4.6h-76.4c-2.6 0-4.6-2-4.6-4.6v-10.2c0-2.6 2-4.6 4.6-4.6h76.4c2.6 0 4.6 2.3 4.6 4.9v9.9zm-155-51.1H181a19.93 19.93 0 0 0-20 20v92.1a19.93 19.93 0 0 0 20 20h92.1a19.93 19.93 0 0 0 20-20v-92.1c0-11.2-8.9-20-20-20zm-28.9 69.1l16.7 16.7c2 1.6 2 4.6 0 6.6l-7.2 7.2c-1.6 2-4.6 2-6.6 0l-16.7-16.7c-1.6-2-4.6-2-6.6 0l-16.7 16.7c-1.6 2-4.6 2-6.6 0l-7.2-7.2c-2-1.6-2-4.6 0-6.6l16.7-16.7c2-1.6 2-4.6 0-6.6l-16.7-16.7c-2-1.6-2-4.6 0-6.6l7.2-7.2c1.6-2 4.6-2 6.6 0l16.7 16.7c1.6 2 4.6 2 6.6 0l16.7-16.7c1.6-2 4.6-2 6.6 0l7.2 7.2c2 1.6 2 4.6 0 6.6l-16.7 16.7c-2 1.7-2 4.7 0 6.6z"/><path d="M431.4 250.9h-92.1a19.93 19.93 0 0 0-20 20v91.8a19.93 19.93 0 0 0 20 20h92.1a19.93 19.93 0 0 0 20-20v-91.8a19.93 19.93 0 0 0-20-20zm-3.3 70.9c0 2.6-2 4.6-4.6 4.6h-76.4c-2.6 0-4.6-2-4.6-4.6v-10.2c0-2.6 2-4.6 4.6-4.6h76.4c2.6 0 4.6 2.3 4.6 4.6v10.2z"/></svg>