<?xml version="1.0" encoding="utf-8"?>
<!-- Generator: Adobe Illustrator 18.1.1, SVG Export Plug-In . SVG Version: 6.00 Build 0)  -->
<svg version="1.1" id="Layer_4_copy" xmlns="http://www.w3.org/2000/svg" xmlns:xlink="http://www.w3.org/1999/xlink" x="0px"
	 y="0px" viewBox="44.6 134.2 521.2 521.2" enable-background="new 44.6 134.2 521.2 521.2" xml:space="preserve">
<g>
	<g>
		<path fill="#FFFFFF" d="M273.1,250.9h-92.1c-11.1,0-20,8.9-20,20v91.8c0,11.1,8.9,20,20,20h92.1c11.1,0,20-8.9,20-20v-91.8
			C293.1,259.8,284.2,250.9,273.1,250.9z M269.8,321.8c0,2.6-2,4.6-4.6,4.6h-23.6c-2.6,0-4.6,2-4.6,4.6v23.6c0,2.6-2,4.6-4.6,4.6
			h-10.2c-2.6,0-4.6-2-4.6-4.6v-23.6c0-2.6-2-4.6-4.6-4.6h-23.6c-2.6,0-4.6-2-4.6-4.6v-10.2c0-2.6,2-4.6,4.6-4.6h23.6
			c2.6,0,4.6-2,4.6-4.6v-23.6c0-2.6,2-4.6,4.6-4.6h10.2c2.6,0,4.6,2,4.6,4.6v23.6c0,2.6,2,4.6,4.6,4.6h23.6c2.3,0,4.6,2.3,4.6,4.6
			V321.8z"/>
		<path fill="#FFFFFF" d="M431.4,409.3h-92.1c-11.1,0-20,8.9-20,20v92.1c0,11.1,8.9,20,20,20h92.1c11.1,0,20-8.9,20-20v-92.1
			C451.4,418.1,442.5,409.3,431.4,409.3z M428.1,499.7c0,2.6-2,4.6-4.6,4.6h-76.4c-2.6,0-4.6-2-4.6-4.6v-10.2c0-2.6,2-4.6,4.6-4.6
			h76.4c2.6,0,4.6,2.3,4.6,4.9V499.7z M428.1,460.4c0,2.6-2,4.6-4.6,4.6h-76.4c-2.6,0-4.6-2-4.6-4.6v-10.2c0-2.6,2-4.6,4.6-4.6h76.4
			c2.6,0,4.6,2.3,4.6,4.9V460.4z"/>
		<path fill="#FFFFFF" d="M273.1,409.3h-92.1c-11.1,0-20,8.9-20,20v92.1c0,11.1,8.9,20,20,20h92.1c11.1,0,20-8.9,20-20v-92.1
			C293.1,418.1,284.2,409.3,273.1,409.3z M244.2,478.4l16.7,16.7c2,1.6,2,4.6,0,6.6l-7.2,7.2c-1.6,2-4.6,2-6.6,0l-16.7-16.7
			c-1.6-2-4.6-2-6.6,0l-16.7,16.7c-1.6,2-4.6,2-6.6,0l-7.2-7.2c-2-1.6-2-4.6,0-6.6l16.7-16.7c2-1.6,2-4.6,0-6.6l-16.7-16.7
			c-2-1.6-2-4.6,0-6.6l7.2-7.2c1.6-2,4.6-2,6.6,0l16.7,16.7c1.6,2,4.6,2,6.6,0l16.7-16.7c1.6-2,4.6-2,6.6,0l7.2,7.2
			c2,1.6,2,4.6,0,6.6l-16.7,16.7C242.2,473.5,242.2,476.5,244.2,478.4z"/>
		<path fill="#FFFFFF" d="M431.4,250.9h-92.1c-11.1,0-20,8.9-20,20v91.8c0,11.1,8.9,20,20,20h92.1c11.1,0,20-8.9,20-20v-91.8
			C451.4,259.8,442.5,250.9,431.4,250.9z M428.1,321.8c0,2.6-2,4.6-4.6,4.6h-76.4c-2.6,0-4.6-2-4.6-4.6v-10.2c0-2.6,2-4.6,4.6-4.6
			h76.4c2.6,0,4.6,2.3,4.6,4.6V321.8z"/>
	</g>
</g>
<g>
	<g>
		<path fill="none" d="M305.2,134.2c-143.9,0-260.6,116.7-260.6,260.6s116.7,260.6,260.6,260.6s260.6-116.7,260.6-260.6
			S449.1,134.2,305.2,134.2z"/>
	</g>
</g>
</svg>
