<svg xmlns="http://www.w3.org/2000/svg" viewBox="44.6 134.2 521.2 521.2" xmlns:v="https://vecta.io/nano"><path fill="#fff" d="M483.5 382.1c0-38.7-16.7-70.1-44.3-96.7-2-2-3.6-3.6-5.2-5.6l-20.7-15.1c-8.5-3.9-17-8.5-25.9-12.1-43.6-18-87.2-14.4-130.8.3-38 13.1-71.1 33.4-96.7 64.9-15.7 19.3-26.6 41.3-31.5 65.6-4.6 21.6 6.9 41.6 27.9 49.2 17.7 6.2 35.7 10.5 53.1 17.4 6.9 3 13.1 9.8 18 16.1 4.9 6.2 1.6 12.1-5.9 13.4-6.9 1.3-14.4.7-21.6.7-3 0-5.9-1-8.9-1-7.9-.7-15.1.7-18.7 8.5-3.6 7.5-2.3 15.4 3 22 3 3.6 6.2 6.9 9.2 10.2 5.6 4.3 11.5 8.2 17 12.5 7.9 3.6 15.4 7.9 23.3 10.5 78.7 24.6 149.1 10.2 209.5-46.9 32.2-30.7 49.9-69 49.2-113.9zM320.3 326c-9.5 13.4-27.5 16.1-40.6 6.2-13.1-9.8-15.4-27.2-5.9-40.3 9.5-12.8 27.5-15.7 40.3-6.2s15.7 27.2 6.2 40.3zm38-25.2c9.8-13.1 27.9-15.7 41-5.6 12.5 9.5 14.8 28.2 5.2 40.6s-27.2 14.8-40.3 5.2c-12.8-9.4-15.4-27.4-5.9-40.2zm24.9 192.1c-9.2 12.8-28.2 15.7-41 6.2-12.5-9.2-15.4-27.5-6.2-40.3s28.2-15.7 41-6.2c12.4 9.5 15.4 27.8 6.2 40.3zm55.1-72.5c-9.5 12.8-27.9 15.7-40.6 6.6-13.1-9.2-16.1-28.2-6.2-41 9.5-12.5 28.2-15.4 40.6-5.9 12.7 9.8 15.3 28.2 6.2 40.3z"/></svg>