<?xml version="1.0" encoding="utf-8"?>
<!-- Generator: Adobe Illustrator 18.1.1, SVG Export Plug-In . SVG Version: 6.00 Build 0)  -->
<svg version="1.1" id="business" xmlns="http://www.w3.org/2000/svg" xmlns:xlink="http://www.w3.org/1999/xlink" x="0px" y="0px"
	 viewBox="44.6 134.2 521.2 521.2" enable-background="new 44.6 134.2 521.2 521.2" xml:space="preserve">
<path fill="#FFFFFF" d="M120.3,425c-5.9,12.5-13.4,16.7-25.2,11.8c-11.8-4.9-22.3-12.8-33.4-19.7c0-2.3,0-4.6,0-6.6
	c2.6-6.9,5.2-13.8,8.2-20.7c10.8-25.2,20.7-51.1,32.5-75.7c7.5-15.4,10.2-33.8,26.2-43.9c1.6,0,3,0,4.6,0
	c10.8,5.2,21.3,10.5,32.1,15.4c8.5,3.9,12.8,9.5,8.5,19c-8.9,20.7-17.4,41.6-26.6,62C138.3,386.3,129.5,405.7,120.3,425z
	 M157.3,479.8c-12.1,1-18.4-3.6-21.6-11.8c-3-8.2,2.3-12.1,8.5-16.7c9.8-7.5,18.7-16.7,27.9-25.2c7.2-6.6,15.7-6.2,22.9,0.7
	c6.9,6.9,7.2,14.8-0.7,22c-10.2,9.8-20.3,19.3-30.8,28.5C161.3,479.1,158,479.8,157.3,479.8z M187.8,508.6
	c-4.6-3.6-11.5-6.2-13.8-11.1c-3.3-6.6-3.3-13.4,5.6-19c10.8-6.9,19.7-16.7,28.8-25.9c8.2-7.9,13.1-7.5,23.9,2.6
	c6.9,6.6,5.2,13.8-1.6,20c-10.5,9.5-20.3,19.3-30.8,28.5C197,506,193.1,506.6,187.8,508.6z M215,525c-6.2-8.2-4.6-13.8,4.9-21.6
	c10.2-8.5,19.3-18.4,29.5-26.6c3.3-2.6,9.5-4.6,12.8-3.3c5.9,2.6,10.8,7.9,16.1,12.1c-2.6,5.9-3,9.5-4.9,11.5
	c-11.5,10.5-22.6,20.7-34.7,30.5C231.1,533.2,220,531.5,215,525z M267.8,557.1c-9.2,1-14.4-3.9-18-10.8c-3.3-6.9,1.3-11.8,6.2-16.1
	c10.2-9.2,20-18.7,30.2-27.5c8.5-7.2,15.4-5.6,24.6,4.3c6.9,7.5,3,13.1-3,18.7c-10.2,9.2-20,18.7-30.2,27.5
	C275,555.1,271.1,555.8,267.8,557.1z M411.1,485.3c-3.9,25.9-14.8,33.1-39.7,26.6c-5.9,21.3-14.8,26.6-40.6,24.3
	c-0.3,12.8-6.2,22.3-18.7,26.6c-2.3,0-4.6,0-6.6,0c-3.3-1.6-6.9-3.6-11.5-5.9c7.9-6.9,15.1-13.4,22.6-19.7
	c9.2-7.5,14.1-22.6,9.8-32.8c-6.6-16.1-18.7-22.9-35.1-20.3c-3.9-19.3-19.7-29.2-40-24.6c-6.6-20.3-19.7-29.2-36.4-24.6
	c-0.3-14.8-9.2-23.9-22-27.5c-6.9-2-16.4,0-22.6,3.9c-9.2,5.6-16.7,14.4-24.9,22c-2.3,2.3-4.9,4.6-10.2,9.5c0-6.6-1-10.5,0.3-13.4
	c10.5-25.6,21.3-51.1,32.5-76.4c4.9-11.5,10.2-22.6,14.8-34.1c2.6-6.2,6.6-8.2,13.4-8.9c14.4-1.6,28.5-5.2,42.9-7.5
	c12.5-2,25.2-3.9,38-5.2c3.6-0.3,7.2,1.6,10.8,2.6c-10.8,11.5-20.7,22.3-30.8,33.1c-8.5,9.2-17.7,17.4-25.9,27.2
	c-5.6,6.9-3.3,27.9,3.9,34.7c7.5,7.5,15.7,14.4,24.9,20c9.8,5.9,21,3.6,30.5-1.6c12.5-6.9,24.3-15.1,35.4-23.6
	c9.5-6.9,16.4-6.9,25.2,1c26.6,23.3,53.4,46.2,80,69.2c5.6,4.9,10.8,9.8,16.4,15.1C440.6,488.9,432.7,491.6,411.1,485.3z
	 M425.5,436.5c-22.9-20.7-45.9-41.6-68.8-62.3c-8.5-7.9-21.6-7.9-33.4-0.3c-12.5,7.9-24.9,15.1-36.7,23.6
	c-16.7,11.8-42.3-2.3-44.3-19.3c-0.7-5.2,0.7-11.8,3.9-16.1c19-24.6,42.6-44.6,69.5-60.3c21-12.5,42.6-6.9,64.2,0.7
	c11.1,3.9,23.3,6.2,35.1,7.2c7.2,0.7,11.8,3,14.4,9.5c15.7,37.7,31.8,75.1,47.5,112.8c1,2,1,4.3,1.6,6.9
	C450.4,458.4,450.4,458.8,425.5,436.5z M510.1,439.8c-7.9,2-12.5-3.3-15.4-9.8c-12.5-27.5-25.2-55.1-37.7-82.6
	c-5.6-12.1-10.5-24.9-15.7-37.4c-5.9-13.8-3.3-19.3,10.5-24.6c7.2-2.6,14.1-5.9,21.3-8.9c12.5-5.2,21.3-1.3,26.6,10.8
	c15.4,37.4,31.1,74.4,46.9,111.8c1,2.6,3,4.9,4.6,7.2c0,3.6,0,7.5,0,11.1C541.5,432.9,525.5,435.8,510.1,439.8z"/>
<g>
	<g>
		<path fill="none" d="M305.2,134.2c-143.9,0-260.6,116.7-260.6,260.6s116.7,260.6,260.6,260.6s260.6-116.7,260.6-260.6
			S449.1,134.2,305.2,134.2z"/>
	</g>
</g>
</svg>
