<svg xmlns="http://www.w3.org/2000/svg" viewBox="44.6 134.2 521.2 521.2" xmlns:v="https://vecta.io/nano"><path fill="#fff" d="M120.3 425c-5.9 12.5-13.4 16.7-25.2 11.8S72.8 424 61.7 417.1v-6.6c2.6-6.9 5.2-13.8 8.2-20.7 10.8-25.2 20.7-51.1 32.5-75.7 7.5-15.4 10.2-33.8 26.2-43.9h4.6l32.1 15.4c8.5 3.9 12.8 9.5 8.5 19l-26.6 62-26.9 58.4zm37 54.8c-12.1 1-18.4-3.6-21.6-11.8-3-8.2 2.3-12.1 8.5-16.7 9.8-7.5 18.7-16.7 27.9-25.2 7.2-6.6 15.7-6.2 22.9.7 6.9 6.9 7.2 14.8-.7 22-10.2 9.8-20.3 19.3-30.8 28.5-2.2 1.8-5.5 2.5-6.2 2.5zm30.5 28.8c-4.6-3.6-11.5-6.2-13.8-11.1-3.3-6.6-3.3-13.4 5.6-19 10.8-6.9 19.7-16.7 28.8-25.9 8.2-7.9 13.1-7.5 23.9 2.6 6.9 6.6 5.2 13.8-1.6 20l-30.8 28.5c-2.9 2.3-6.8 2.9-12.1 4.9zM215 525c-6.2-8.2-4.6-13.8 4.9-21.6 10.2-8.5 19.3-18.4 29.5-26.6 3.3-2.6 9.5-4.6 12.8-3.3 5.9 2.6 10.8 7.9 16.1 12.1-2.6 5.9-3 9.5-4.9 11.5-11.5 10.5-22.6 20.7-34.7 30.5-7.6 5.6-18.7 3.9-23.7-2.6zm52.8 32.1c-9.2 1-14.4-3.9-18-10.8-3.3-6.9 1.3-11.8 6.2-16.1l30.2-27.5c8.5-7.2 15.4-5.6 24.6 4.3 6.9 7.5 3 13.1-3 18.7l-30.2 27.5c-2.6 1.9-6.5 2.6-9.8 3.9zm143.3-71.8c-3.9 25.9-14.8 33.1-39.7 26.6-5.9 21.3-14.8 26.6-40.6 24.3-.3 12.8-6.2 22.3-18.7 26.6h-6.6c-3.3-1.6-6.9-3.6-11.5-5.9l22.6-19.7c9.2-7.5 14.1-22.6 9.8-32.8-6.6-16.1-18.7-22.9-35.1-20.3-3.9-19.3-19.7-29.2-40-24.6-6.6-20.3-19.7-29.2-36.4-24.6-.3-14.8-9.2-23.9-22-27.5-6.9-2-16.4 0-22.6 3.9-9.2 5.6-16.7 14.4-24.9 22-2.3 2.3-4.9 4.6-10.2 9.5 0-6.6-1-10.5.3-13.4L168 353l14.8-34.1c2.6-6.2 6.6-8.2 13.4-8.9 14.4-1.6 28.5-5.2 42.9-7.5 12.5-2 25.2-3.9 38-5.2 3.6-.3 7.2 1.6 10.8 2.6L257.1 333c-8.5 9.2-17.7 17.4-25.9 27.2-5.6 6.9-3.3 27.9 3.9 34.7 7.5 7.5 15.7 14.4 24.9 20 9.8 5.9 21 3.6 30.5-1.6 12.5-6.9 24.3-15.1 35.4-23.6 9.5-6.9 16.4-6.9 25.2 1l80 69.2c5.6 4.9 10.8 9.8 16.4 15.1-6.9 13.9-14.8 16.6-36.4 10.3zm14.4-48.8l-68.8-62.3c-8.5-7.9-21.6-7.9-33.4-.3-12.5 7.9-24.9 15.1-36.7 23.6-16.7 11.8-42.3-2.3-44.3-19.3-.7-5.2.7-11.8 3.9-16.1 19-24.6 42.6-44.6 69.5-60.3 21-12.5 42.6-6.9 64.2.7 11.1 3.9 23.3 6.2 35.1 7.2 7.2.7 11.8 3 14.4 9.5L476.9 432c1 2 1 4.3 1.6 6.9-28.1 19.5-28.1 19.9-53-2.4zm84.6 3.3c-7.9 2-12.5-3.3-15.4-9.8L457 347.4c-5.6-12.1-10.5-24.9-15.7-37.4-5.9-13.8-3.3-19.3 10.5-24.6 7.2-2.6 14.1-5.9 21.3-8.9 12.5-5.2 21.3-1.3 26.6 10.8l46.9 111.8c1 2.6 3 4.9 4.6 7.2v11.1c-9.7 15.5-25.7 18.4-41.1 22.4z"/></svg>