<?xml version="1.0" encoding="utf-8"?>
<!-- Generator: Adobe Illustrator 18.1.1, SVG Export Plug-In . SVG Version: 6.00 Build 0)  -->
<svg version="1.1" id="calculus" xmlns="http://www.w3.org/2000/svg" xmlns:xlink="http://www.w3.org/1999/xlink" x="0px" y="0px"
	 viewBox="44.6 134.2 521.2 521.2" enable-background="new 44.6 134.2 521.2 521.2" xml:space="preserve">
<path fill="#FFFFFF" d="M515.7,288.6c-2.3-2-5.6-2-7.5,0.3c-60.3,65.8-104.8,96.3-132,91c-12.1-2.3-21-11.8-27.5-28.8
	c-9.2-23.9-21.6-48.8-45.8-53.4c-21-3.9-55,3.3-136.5,82.5V251.6h26.5l-31.8-31.8l-31.8,31.8h26.5v139.2
	c-12.4,12.4-25.9,26.5-40.3,42.2c-2,2.3-2,5.6,0.3,7.5c1,1,2.3,1.3,3.6,1.3c1.3,0,2.9-0.7,3.9-1.6c11.5-12.4,22.3-23.9,32.7-34.4
	v138.5h292.7v26.5l31.8-31.8l-31.8-31.8v26.5h-54V389.8c30.1-6.5,69.4-37,121.2-93.7C518,293.8,518,290.6,515.7,288.6z M237.4,533.9
	h-70.7V395.3c27.2-27.2,50.8-47.8,70.7-62.2V533.9z"/>
<g>
	<g>
		<path fill="none" d="M305.2,134.2c-143.9,0-260.6,116.7-260.6,260.6s116.7,260.6,260.6,260.6s260.6-116.7,260.6-260.6
			S449.1,134.2,305.2,134.2z"/>
	</g>
</g>
<g>
	<g>
		<path fill="none" d="M305.2,134.2c-143.9,0-260.6,116.7-260.6,260.6s116.7,260.6,260.6,260.6s260.6-116.7,260.6-260.6
			S449.1,134.2,305.2,134.2z"/>
	</g>
</g>
</svg>
