<svg xmlns="http://www.w3.org/2000/svg" viewBox="44.6 134.2 521.2 521.2" xmlns:v="https://vecta.io/nano"><path fill="#fff" d="M515.7 288.6c-2.3-2-5.6-2-7.5.3-60.3 65.8-104.8 96.3-132 91-12.1-2.3-21-11.8-27.5-28.8-9.2-23.9-21.6-48.8-45.8-53.4-21-3.9-55 3.3-136.5 82.5V251.6h26.5l-31.8-31.8-31.8 31.8h26.5v139.2c-12.4 12.4-25.9 26.5-40.3 42.2-2 2.3-2 5.6.3 7.5 1 1 2.3 1.3 3.6 1.3s2.9-.7 3.9-1.6l32.7-34.4v138.5h292.7v26.5l31.8-31.8-31.8-31.8v26.5h-54V389.8c30.1-6.5 69.4-37 121.2-93.7 2.1-2.3 2.1-5.5-.2-7.5zM237.4 533.9h-70.7V395.3c27.2-27.2 50.8-47.8 70.7-62.2v200.8z"/></svg>