<svg xmlns="http://www.w3.org/2000/svg" viewBox="44.6 134.2 521.2 521.2" fill="#fff" xmlns:v="https://vecta.io/nano"><path d="M285.2 401.1c-7.5 0-13.8 6.2-13.8 13.8s6.2 13.8 13.8 13.8c7.5 0 13.8-5.9 13.8-13.8 0-7.6-6.3-13.8-13.8-13.8zm29.5 21.6c0 8.9 7.2 15.7 15.7 15.7 8.9 0 15.7-7.2 15.7-15.7s-6.9-15.4-15.7-15.7c-8.8 0-15.7 7.2-15.7 15.7zm131.8 64.6l-96-164.6v-58.3h4.9c5.9 0 10.8-4.9 10.8-10.8s-4.9-10.8-10.8-10.8h-19.7l8.9-33.1h-76.7l8.9 33.1H257c-5.9 0-10.8 4.9-10.8 10.8s4.9 10.8 10.8 10.8h4.9v58.3l-96 164.6c-10.8 18.7-4.6 42.9 14.4 54.1 6.2 3.6 13.1 5.2 20 5.2h211.4c6.9 0 13.8-1.6 20-5.2 19-11.2 25.3-35.4 14.8-54.1zm-137.1-34.4h-6.6-92.1l75.4-129.5h13.8 12.5 13.8l75.4 129.5h-92.2zm5.6-80.3c-6.9 0-12.5 5.6-12.5 12.5s5.6 12.5 12.5 12.5 12.5-5.6 12.5-12.5-5.6-12.5-12.5-12.5z"/></svg>