<?xml version="1.0" encoding="utf-8"?>
<!-- Generator: Adobe Illustrator 18.1.1, SVG Export Plug-In . SVG Version: 6.00 Build 0)  -->
<svg version="1.1" id="Layer_4_copy" xmlns="http://www.w3.org/2000/svg" xmlns:xlink="http://www.w3.org/1999/xlink" x="0px"
	 y="0px" viewBox="44.6 134.2 521.2 521.2" enable-background="new 44.6 134.2 521.2 521.2" xml:space="preserve">
<g>
	<path fill="#FFFFFF" d="M285.2,401.1c-7.5,0-13.8,6.2-13.8,13.8s6.2,13.8,13.8,13.8c7.5,0,13.8-5.9,13.8-13.8
		C299,407.3,292.7,401.1,285.2,401.1z"/>
	<path fill="#FFFFFF" d="M314.7,422.7c0,8.9,7.2,15.7,15.7,15.7c8.9,0,15.7-7.2,15.7-15.7s-6.9-15.4-15.7-15.7
		C321.6,407,314.7,414.2,314.7,422.7z"/>
	<path fill="#FFFFFF" d="M446.5,487.3l-96-164.6v-58.3h4.9c5.9,0,10.8-4.9,10.8-10.8c0-5.9-4.9-10.8-10.8-10.8h-19.7l8.9-33.1h-76.7
		l8.9,33.1H257c-5.9,0-10.8,4.9-10.8,10.8c0,5.9,4.9,10.8,10.8,10.8h4.9v58.3l-96,164.6c-10.8,18.7-4.6,42.9,14.4,54.1
		c6.2,3.6,13.1,5.2,20,5.2h211.4c6.9,0,13.8-1.6,20-5.2C450.7,530.2,457,506,446.5,487.3z M309.4,452.9h-6.6h-92.1l75.4-129.5h13.8
		h12.5h13.8l75.4,129.5H309.4z"/>
	<path fill="#FFFFFF" d="M315,372.6c-6.9,0-12.5,5.6-12.5,12.5s5.6,12.5,12.5,12.5c6.9,0,12.5-5.6,12.5-12.5S321.9,372.6,315,372.6z
		"/>
</g>
<g>
	<g>
		<path fill="none" d="M305.2,134.2c-143.9,0-260.6,116.7-260.6,260.6s116.7,260.6,260.6,260.6s260.6-116.7,260.6-260.6
			S449.1,134.2,305.2,134.2z"/>
	</g>
</g>
</svg>
