<?xml version="1.0" encoding="utf-8"?>
<!-- Generator: Adobe Illustrator 18.1.1, SVG Export Plug-In . SVG Version: 6.00 Build 0)  -->
<svg version="1.1" id="Layer_4_copy" xmlns="http://www.w3.org/2000/svg" xmlns:xlink="http://www.w3.org/1999/xlink" x="0px"
	 y="0px" viewBox="44.6 134.2 521.2 521.2" enable-background="new 44.6 134.2 521.2 521.2" xml:space="preserve">
<g>
	<path fill="#FFFFFF" d="M246.8,338.1h8.9c-10.2-11.5-16.4-26.6-16.4-42.9c0-21,9.8-39.3,25.6-51.5v31.1c0,10.5,5.6,19,12.1,19.3
		c0,0,0.7-61.3,0.7-62.6c0-15.7,12.8-28.5,28.5-28.5s28.5,12.8,28.5,28.5c0,1.3,0,3-0.3,4.3C357,246.4,373,269,373,295.2
		c0,16.4-6.2,31.1-16.4,42.9h8.5c8.2,0,14.8,6.6,14.8,14.8s-6.6,14.8-14.8,14.8h-49.5h-19.3h-49.5c-8.2,0-14.8-6.6-14.8-14.8
		S238.6,338.1,246.8,338.1z M241.9,457.8c18.4-11.8,24.6-56.7,23.6-80.6h81.6c-1.3,23.9,4.9,68.8,23.6,80.6
		c18.4,11.8,18.4,20.3,11.8,26.9H230.1C223.2,477.8,223.2,469.3,241.9,457.8z M386.1,555.1H225.9c-15.7,0-28.5-12.8-28.5-28.5
		c0-15.7,12.8-28.5,28.5-28.5h160.3c15.7,0,28.5,12.8,28.5,28.5C414.7,542.4,401.9,555.1,386.1,555.1z"/>
</g>
<g>
	<g>
		<path fill="none" d="M305.2,134.2c-143.9,0-260.6,116.7-260.6,260.6s116.7,260.6,260.6,260.6s260.6-116.7,260.6-260.6
			S449.1,134.2,305.2,134.2z"/>
	</g>
</g>
</svg>
