<svg xmlns="http://www.w3.org/2000/svg" viewBox="44.6 134.2 521.2 521.2" xmlns:v="https://vecta.io/nano"><path fill="#fff" d="M246.8 338.1h8.9c-10.2-11.5-16.4-26.6-16.4-42.9 0-21 9.8-39.3 25.6-51.5v31.1c0 10.5 5.6 19 12.1 19.3l.7-62.6c0-15.7 12.8-28.5 28.5-28.5s28.5 12.8 28.5 28.5c0 1.3 0 3-.3 4.3C357 246.4 373 269 373 295.2c0 16.4-6.2 31.1-16.4 42.9h8.5a14.77 14.77 0 1 1 0 29.6h-49.5-19.3-49.5a14.77 14.77 0 1 1 0-29.6zm-4.9 119.7c18.4-11.8 24.6-56.7 23.6-80.6h81.6c-1.3 23.9 4.9 68.8 23.6 80.6 18.4 11.8 18.4 20.3 11.8 26.9H230.1c-6.9-6.9-6.9-15.4 11.8-26.9zm144.2 97.3H225.9c-15.7 0-28.5-12.8-28.5-28.5s12.8-28.5 28.5-28.5h160.3c15.7 0 28.5 12.8 28.5 28.5 0 15.8-12.8 28.5-28.6 28.5z"/></svg>