<svg xmlns="http://www.w3.org/2000/svg" viewBox="44.6 134.2 521.2 521.2" xmlns:v="https://vecta.io/nano"><path fill="#fff" d="M508.5 459.9L242 193.3c-7.2-7.5-19.3-7.5-26.9 0l-111 111c-7.5 7.2-7.5 19.3 0 26.9l266.5 266.2c7.2 7.5 19.3 7.5 26.9 0l111-110.7c7.6-7.2 7.6-19.3 0-26.8zm-278.3-245c8 0 14.4 6.5 14.4 14.4s-6.5 14.4-14.4 14.4-14.4-6.5-14.4-14.4 6.4-14.4 14.4-14.4zm0 86.8c8 0 14.4 6.5 14.4 14.4s-6.5 14.4-14.4 14.4-14.4-6.5-14.4-14.4 6.4-14.4 14.4-14.4zm-14.4 101.2c0-8 6.5-14.4 14.4-14.4s14.4 6.5 14.4 14.4-6.5 14.4-14.4 14.4-14.4-6.5-14.4-14.4zM299 486c-8 0-14.4-6.5-14.4-14.4s6.5-14.4 14.4-14.4 14.4 6.5 14.4 14.4S306.9 486 299 486zm-51.6-22.6l-9-9 127.3-127.3 9 9-127.3 127.3zm138 109.1c-8 0-14.4-6.5-14.4-14.4 0-8 6.5-14.4 14.4-14.4 8 0 14.4 6.5 14.4 14.4s-6.4 14.4-14.4 14.4zm0-86.5c-8 0-14.4-6.5-14.4-14.4s6.5-14.4 14.4-14.4c8 0 14.4 6.5 14.4 14.4s-6.4 14.4-14.4 14.4zm0-86.7c-8 0-14.4-6.5-14.4-14.4s6.5-14.4 14.4-14.4c8 0 14.4 6.5 14.4 14.4s-6.4 14.4-14.4 14.4zm86.8 86.7c-8 0-14.4-6.5-14.4-14.4s6.5-14.4 14.4-14.4c8 0 14.4 6.5 14.4 14.4s-6.5 14.4-14.4 14.4z"/></svg>