<svg xmlns="http://www.w3.org/2000/svg" viewBox="44.6 134.2 521.2 521.2" fill="#fff" xmlns:v="https://vecta.io/nano"><path d="M182.9 453.5l239.3-159.3H182.9zm250.4-200.9H171.4c-18 0-32.8 14.8-32.8 32.8v177c0 18 14.8 32.8 32.8 32.8h62c12.8 0 14.1 6.2 14.1 11.1v20.3h-36.1c-7.5 0-13.8 6.2-13.8 13.8s6.2 13.8 13.8 13.8h181.9c7.5 0 13.8-6.2 13.8-13.8s-6.2-13.8-13.8-13.8h-36.1v-20.3c0-4.9 1.3-11.1 14.1-11.1h62c18 0 32.8-14.8 32.8-32.8v-177c0-18.1-14.7-32.8-32.8-32.8zm4.6 209.8c0 2.6-2 4.6-4.6 4.6H171.4c-2.6 0-4.6-2-4.6-4.6v-177c0-2.6 2-4.6 4.6-4.6h261.9c2.6 0 4.6 2 4.6 4.6v177z"/></svg>