<?xml version="1.0" encoding="utf-8"?>
<!-- Generator: Adobe Illustrator 18.1.1, SVG Export Plug-In . SVG Version: 6.00 Build 0)  -->
<svg version="1.1" id="Layer_4_copy" xmlns="http://www.w3.org/2000/svg" xmlns:xlink="http://www.w3.org/1999/xlink" x="0px"
	 y="0px" viewBox="44.6 134.2 521.2 521.2" enable-background="new 44.6 134.2 521.2 521.2" xml:space="preserve">
<g>
	<path fill="#FFFFFF" d="M351.1,211.3c0,0,55.1,33.4,20.7,85.9c-18.4,27.9-2.6,55.7-2.6,55.7c-15.4-6.6-21.6-30.2-21.3-45.2
		c0.3-18,15.7-29.2,20.3-45.9C373.7,242.8,364.2,225.1,351.1,211.3z M289.4,211.3c0,0,55.1,33.4,20.7,85.9
		c-18.4,27.9-2.6,55.7-2.6,55.7c-15.4-6.6-21.6-30.2-21.3-45.2c0.3-18,15.7-29.2,20.3-45.9C312.1,242.8,302.6,225.1,289.4,211.3z
		 M228.1,211.3c0,0,55.1,33.4,20.7,85.9c-18.4,27.9-2.6,55.7-2.6,55.7c-15.4-6.6-21.6-30.2-21.3-45.2c0.3-18,15.7-29.2,20.3-45.9
		C250.4,242.8,240.9,225.1,228.1,211.3z M471.4,396.5c-6.2,3.6-13.8,5.9-18.4,10.8c-7.9,8.2-6.9,19.7-6.2,31.1
		c10.5-5.9,18.7-3.6,24.6,5.9c0,2.3,0,4.3,0,6.6c-3,6.2-7.5,9.8-14.1,11.8c-2,0.7-3.6,1.6-5.2,2.3c-4.6,1-5.9,3.9-5.6,8.5
		c0.3,10.8,0,21.6,0,32.5c0.7,29.2-12.5,51.5-35.1,68.2c-8.5,6.6-19.7,9.8-29.5,14.4c-51.1,0-101.9,0-153.1,0
		c-0.3-0.3-0.7-1-1.3-1.3c-34.4-8.9-55.1-32.1-62-65.9c-3-14.8-1.6-30.5-1.3-45.6c0-6.6-2-9.8-7.9-11.5c-7.2-2.3-14.1-5.2-17.4-12.8
		c0-1.6,0-3.6,0-5.2c5.6-10.8,8.2-11.5,24.6-8.2c0.7-10.5,1.6-21.6-5.9-29.8c-4.9-5.2-12.5-7.5-18.7-11.1c0-1.6,0-3.6,0-5.2
		c4.3-17.4,16.4-20.7,32.5-20.7c60,0.7,242.9,0.3,274.4,0c12.5,0,22.9,6.6,24.3,19.3c0,0.3,0.7,1,1.3,1.3
		C471.4,392.9,471.4,394.9,471.4,396.5z"/>
</g>
<g>
	<g>
		<path fill="none" d="M305.2,134.2c-143.9,0-260.6,116.7-260.6,260.6s116.7,260.6,260.6,260.6s260.6-116.7,260.6-260.6
			S449.1,134.2,305.2,134.2z"/>
	</g>
</g>
</svg>
