<svg xmlns="http://www.w3.org/2000/svg" viewBox="44.6 134.2 521.2 521.2" xmlns:v="https://vecta.io/nano"><path fill="#fff" d="M351.1 211.3s55.1 33.4 20.7 85.9c-18.4 27.9-2.6 55.7-2.6 55.7-15.4-6.6-21.6-30.2-21.3-45.2.3-18 15.7-29.2 20.3-45.9 5.5-19-4-36.7-17.1-50.5zm-61.7 0s55.1 33.4 20.7 85.9c-18.4 27.9-2.6 55.7-2.6 55.7-15.4-6.6-21.6-30.2-21.3-45.2.3-18 15.7-29.2 20.3-45.9 5.6-19-3.9-36.7-17.1-50.5zm-61.3 0s55.1 33.4 20.7 85.9c-18.4 27.9-2.6 55.7-2.6 55.7-15.4-6.6-21.6-30.2-21.3-45.2.3-18 15.7-29.2 20.3-45.9 5.2-19-4.3-36.7-17.1-50.5zm243.3 185.2c-6.2 3.6-13.8 5.9-18.4 10.8-7.9 8.2-6.9 19.7-6.2 31.1 10.5-5.9 18.7-3.6 24.6 5.9v6.6c-3 6.2-7.5 9.8-14.1 11.8-2 .7-3.6 1.6-5.2 2.3-4.6 1-5.9 3.9-5.6 8.5.3 10.8 0 21.6 0 32.5.7 29.2-12.5 51.5-35.1 68.2-8.5 6.6-19.7 9.8-29.5 14.4H228.8c-.3-.3-.7-1-1.3-1.3-34.4-8.9-55.1-32.1-62-65.9-3-14.8-1.6-30.5-1.3-45.6 0-6.6-2-9.8-7.9-11.5-7.2-2.3-14.1-5.2-17.4-12.8v-5.2c5.6-10.8 8.2-11.5 24.6-8.2.7-10.5 1.6-21.6-5.9-29.8-4.9-5.2-12.5-7.5-18.7-11.1V392c4.3-17.4 16.4-20.7 32.5-20.7h274.4c12.5 0 22.9 6.6 24.3 19.3 0 .3.7 1 1.3 1.3v4.6z"/></svg>