<?xml version="1.0" encoding="utf-8"?>
<!-- Generator: Adobe Illustrator 18.1.1, SVG Export Plug-In . SVG Version: 6.00 Build 0)  -->
<svg version="1.1" id="Layer_4_copy" xmlns="http://www.w3.org/2000/svg" xmlns:xlink="http://www.w3.org/1999/xlink" x="0px"
	 y="0px" viewBox="44.6 134.2 521.2 521.2" enable-background="new 44.6 134.2 521.2 521.2" xml:space="preserve">
<g>
	<path fill="#FFFFFF" d="M304.2,200.5c2.3,0,4.3,0,6.6,0c5.9,3.9,8.2,9.2,8.2,16.1c-0.3,9.8,0,19.7,0,29.5c0,8.9-4.9,14.4-11.5,14.4
		c-6.9,0-10.8-5.2-10.8-14.8c0-10.2,0.3-20,0-30.2C296,209,298.3,203.7,304.2,200.5z M137.3,302.4c7.2-7.9,10.5-8.5,20.7-4.3
		c9.5,3.9,19,7.9,28.5,12.1c7.5,3.3,10.5,9.2,8.2,15.1c-2.3,5.9-10.5,9.2-17.7,6.2c-11.5-4.9-22.6-10.2-33.8-15.7
		c-2.6-1.3-4.3-4.6-6.2-6.9C137.3,306.7,137.3,304.4,137.3,302.4z M188.5,409.9c-12.1,2.3-24.3,3.6-36.4,5.6
		c-6.9,1-11.5-2.6-14.8-8.2c0-1.6,0-3.3,0-4.9c3.3-6.2,8.9-8.5,15.4-9.5c8.5-1.3,16.7-3,25.2-4.3c2.6-0.3,5.2-0.7,7.9-0.7
		c6.6,0,11.8,2.6,12.5,9.5C199,404.4,194.7,408.9,188.5,409.9z M205.2,225.1c3.6-1.3,11.1-1,12.8,1.3c8.9,11.8,16.4,24.6,24.3,37
		c0.7,1,0.3,2,1,4.9c-1.6,2-3.6,6.6-6.6,7.5c-3.3,1-9.8,0.7-11.5-1.6c-8.9-11.5-16.7-23.6-24.3-36.1
		C197.7,232.9,200.3,227,205.2,225.1z M336.6,576.8c-10.2,0-20.3,0-30.5,0c-12.1,0-24.6-0.3-36.7,0c-6.6,0-9.2-2.6-9.2-8.9
		c-0.7-17.4-0.7-17.4,17-17.4c21.6,0,43.3,0,64.9,0c9.8,0,10.5,0.7,10.8,10.2C353,576.8,353,576.8,336.6,576.8z M336.6,541.1
		c-10.2,0-20.3,0-30.5,0c-12.1,0-24.6-0.3-36.7,0c-6.6,0-9.2-2.6-9.2-8.9c-0.7-17.4-0.7-17.4,17-17.4c21.6,0,43.3,0,64.9,0
		c9.8,0,10.5,0.7,10.8,10.2C353,541.1,353,541.1,336.6,541.1z M398.3,362.4c-1,17.4-5.9,33.8-14.1,49.2
		c-13.1,24.9-25.6,49.8-30.8,77.7c-2,10.8-3.9,11.5-15.4,11.5c-10.5,0-21,0-31.1,0c-12.1,0-23.9,0-36.1,0c-5.6,0-9.2-2.3-10.5-7.5
		c-1.6-6.2-3.6-12.1-4.9-18.4c-4.9-22-15.1-41.6-25.2-61.3c-10.5-20.7-17-42.3-14.4-65.6c3.6-31.8,20.7-53.4,50.8-63.9
		c26.2-8.9,53.1-8.9,79.3-0.3C380.6,295.5,400.2,326,398.3,362.4z M411.4,241.1c-6.2,10.2-12.5,20.3-19.3,29.8
		c-4.6,6.2-11.8,7.5-17,3.9c-5.2-3.6-6.2-9.8-1.6-17c5.9-9.5,11.8-19.7,19-28.5c3-3.6,9.5-5.6,14.4-5.2c3,0,5.6,5.9,7.9,8.5
		C413,236.5,412.4,239.1,411.4,241.1z M476,407.3c-3.6,6.9-9.5,9.2-17,8.2c-11.1-1.6-22.3-3.3-33.1-4.9c-6.6-1-11.1-7.2-10.2-13.1
		c1.3-6.9,5.9-10.2,12.8-9.2c12.8,1.6,25.9,3.9,38.4,6.6c3.6,0.7,6.2,5.2,9.2,7.9C476,404,476,405.7,476,407.3z M476,308.6
		c-3.6,3.3-6.9,6.9-11.1,9.2c-8.5,4.6-17.7,8.9-26.6,12.8c-8.5,3.9-16.4,1.6-19.3-5.2c-2.6-5.9,1-12.1,9.5-15.7
		c9.5-4.3,19-7.9,28.8-12.1s13.1-3,19,6.2C476,305.4,476,307,476,308.6z"/>
</g>
<g>
	<g>
		<path fill="none" d="M305.2,134.2c-143.9,0-260.6,116.7-260.6,260.6s116.7,260.6,260.6,260.6s260.6-116.7,260.6-260.6
			S449.1,134.2,305.2,134.2z"/>
	</g>
</g>
</svg>
