<?xml version="1.0" encoding="utf-8"?>
<!-- Generator: Adobe Illustrator 18.1.1, SVG Export Plug-In . SVG Version: 6.00 Build 0)  -->
<svg version="1.1" id="Layer_4_copy" xmlns="http://www.w3.org/2000/svg" xmlns:xlink="http://www.w3.org/1999/xlink" x="0px"
	 y="0px" viewBox="44.6 134.2 521.2 521.2" enable-background="new 44.6 134.2 521.2 521.2" xml:space="preserve">
<g>
	<path fill="#FFFFFF" d="M368.4,258.5c21.6,0,39.3-17.7,39.3-39.3s-17.7-39.3-39.3-39.3s-39.3,17.7-39.3,39.3
		S346.8,258.5,368.4,258.5z"/>
	<path fill="#FFFFFF" d="M295.7,302.7c8.5,0,16.7,0.7,24.9,1.6c3.6-6.2,5.6-13.8,5.6-21.6c0-25.2-20.3-45.6-45.6-45.6
		c-24.9,0-45.2,20.7-45.6,45.2c0,10.2,3.6,19.7,9.2,27.2C260.9,305,278.3,302.7,295.7,302.7z"/>
	<path fill="#FFFFFF" d="M484.8,394.9c0-6.6-5.2-11.8-11.8-11.8h-16.7c-1.3,0-3,0.3-4.6,0.7c-5.2-18.7-15.4-36.4-29.5-51.1
		c10.5-8.5,21-16.7,31.5-25.2c1-1,2-1.6,2.3-3c0.3-1-0.3-2-0.7-3c-3.9-8.9-13.1-13.4-22-16.7c-21.3-7.5-40-2.3-65.6,10.8
		c-10.5-3.9-21.3-7.5-32.5-9.8c-0.7,7.9-3,15.4-6.6,22.3l-3.3,5.9l-6.6-1c-7.9-1-16.1-1.6-23.6-1.6c-16.4,0-33.1,2.3-48.8,6.6
		l-6.6,2l-3.9-5.2c-4.6-6.2-7.9-13.1-9.5-20.3c-17.7,6.9-34.4,16.7-48.8,29.5c-20.3,18.4-34.1,42.6-40,69.2
		c-6.9,3.9-15.4,4.3-22.9,0.3c-7.9-3.9-12.8-12.1-13.1-20.3c0,0.3-0.3,1-0.7,1.3c-7.9,15.1-2,33.8,13.1,41.6
		c6.6,3.6,13.8,4.3,20.7,3c0,4.3,0,8.5,0.3,12.8c2.3,35.4,27.5,72.8,44.3,103.3c0,1.3,0.7,2.6,1.3,3.9l19.3,31.5
		c3.6,5.9,12.5,10.8,19.3,10.8h18c6.9,0,13.8-5.2,15.4-12.1l5.9-24.9c11.8,2.3,24.3,3.6,37,3.6c7.2,0,14.4-0.7,21.3-1.3l14.8,24.3
		c3.6,5.9,12.5,10.8,19.3,10.8h18c6.9,0,13.8-5.2,15.4-12.1c3-13.1,3.9-39,11.5-49.8c7.5-10.5,20.3-19,29.8-27.9
		c13.4-12.8,27.2-25.6,40.6-38.4C485.8,435.2,485.5,421.4,484.8,394.9z M401.2,407c-10.5,0-19-8.5-19-19s8.5-19,19-19
		c10.5,0,19,8.5,19,19S411.7,407,401.2,407z"/>
</g>
<g>
	<g>
		<path fill="none" d="M305.2,134.2c-143.9,0-260.6,116.7-260.6,260.6s116.7,260.6,260.6,260.6s260.6-116.7,260.6-260.6
			S449.1,134.2,305.2,134.2z"/>
	</g>
</g>
</svg>
