<svg xmlns="http://www.w3.org/2000/svg" viewBox="44.6 134.2 521.2 521.2" fill="#fff" xmlns:v="https://vecta.io/nano"><path d="M368.4 258.5c21.6 0 39.3-17.7 39.3-39.3s-17.7-39.3-39.3-39.3-39.3 17.7-39.3 39.3 17.7 39.3 39.3 39.3zm-72.7 44.2c8.5 0 16.7.7 24.9 1.6 3.6-6.2 5.6-13.8 5.6-21.6 0-25.2-20.3-45.6-45.6-45.6-24.9 0-45.2 20.7-45.6 45.2 0 10.2 3.6 19.7 9.2 27.2a198.42 198.42 0 0 1 51.5-6.8zm189.1 92.2c0-6.6-5.2-11.8-11.8-11.8h-16.7c-1.3 0-3 .3-4.6.7-5.2-18.7-15.4-36.4-29.5-51.1l31.5-25.2c1-1 2-1.6 2.3-3 .3-1-.3-2-.7-3-3.9-8.9-13.1-13.4-22-16.7-21.3-7.5-40-2.3-65.6 10.8-10.5-3.9-21.3-7.5-32.5-9.8-.7 7.9-3 15.4-6.6 22.3l-3.3 5.9-6.6-1c-7.9-1-16.1-1.6-23.6-1.6-16.4 0-33.1 2.3-48.8 6.6l-6.6 2-3.9-5.2c-4.6-6.2-7.9-13.1-9.5-20.3-17.7 6.9-34.4 16.7-48.8 29.5-20.3 18.4-34.1 42.6-40 69.2-6.9 3.9-15.4 4.3-22.9.3-7.9-3.9-12.8-12.1-13.1-20.3 0 .3-.3 1-.7 1.3-7.9 15.1-2 33.8 13.1 41.6 6.6 3.6 13.8 4.3 20.7 3 0 4.3 0 8.5.3 12.8 2.3 35.4 27.5 72.8 44.3 103.3 0 1.3.7 2.6 1.3 3.9l19.3 31.5c3.6 5.9 12.5 10.8 19.3 10.8h18c6.9 0 13.8-5.2 15.4-12.1l5.9-24.9c11.8 2.3 24.3 3.6 37 3.6 7.2 0 14.4-.7 21.3-1.3l14.8 24.3c3.6 5.9 12.5 10.8 19.3 10.8h18c6.9 0 13.8-5.2 15.4-12.1 3-13.1 3.9-39 11.5-49.8 7.5-10.5 20.3-19 29.8-27.9l40.6-38.4c19.7-18.4 19.4-32.2 18.7-58.7zM401.2 407c-10.5 0-19-8.5-19-19s8.5-19 19-19 19 8.5 19 19-8.5 19-19 19z"/></svg>