<svg xmlns="http://www.w3.org/2000/svg" viewBox="44.6 134.2 521.2 521.2" fill="#fff" xmlns:v="https://vecta.io/nano"><path d="M462.9 413.9c-3.3-2-6.9-3.6-10.5-5.2-2-1-2.6-2-2.6-3.9 1-15.1-.3-30.2-4.3-44.9-.3-1.3.3-3 1-3.6l35.4-27.9c.3 0 .7-.3 1-.3l-22.6-42.3c-6.9 2.6-13.4 5.2-20.3 7.5-7.2 2.3-14.4 4.6-21.3 7.2-2.3.7-3.9.3-5.9-1.6a133.22 133.22 0 0 0-33.1-27.2c-2.3-1.3-3-2.6-2.6-5.6 2-12.8 3.3-25.9 4.9-39 .3-1.6.7-3.3.7-4.6l-45.2-13.8-20.3 41.6c-12.1.7-23.9 1.6-35.4 2.6-3.9.7-7.9 2-12.1 2.6-1.3.3-3.3 0-3.9-1-9.2-11.1-18-22.6-26.9-34.1-.3-.7-.7-1.3-1-2L195.6 241c2.6 6.9 5.2 13.4 7.5 20.3 2.3 7.2 4.6 14.4 7.2 21.3.7 2.3.7 3.9-1.6 5.9-10.5 9.5-19.7 20.3-26.9 32.8-1.6 2.6-3 3-5.9 2.6l-43.3-5.6-13.8 45.2c7.5 3.6 15.7 7.9 23.6 11.8l16.4 8.5c1 .7 2 2.3 2 3.6-.7 15.1.7 30.2 4.6 44.9.3 1 0 2.6-.7 3.3-11.8 9.5-23.9 18.7-36.1 27.9 0 .3-.3.3-.7.3l22.6 42.3 22.9-7.9c6.6-2 13.1-3.9 19.3-6.2 2.3-.7 3.9-.7 5.6 1.3 9.5 11.1 21 20 33.4 27.5 2.3 1.3 3 2.6 2.6 5.2l-5.6 43.6 45.2 13.8 9.5-19 10.5-20.7c1-2 2-2.6 4.3-2.6 15.1 1 29.8-.7 44.3-4.3 1-.3 3 .3 3.6 1l27.2 35.1c.3.3.3 1 .7 1.6l42.3-22.6-7.9-22.6c-2.3-6.6-4.6-13.4-6.6-20-.3-1.3-.3-3.6.7-4.3 12.1-10.8 22-23.3 30.2-37.4 15.7 1.6 31.5 3.6 46.9 5.6 4.6-15.1 9.2-30.2 12.5-45.2-9.6-4.3-19.4-9.2-29.2-14.1zM306.2 464c-37.4 0-67.9-30.5-67.9-67.9s30.5-67.9 67.9-67.9 67.9 30.5 67.9 67.9-30.6 67.9-67.9 67.9zm0-123.2c-30.5 0-55.4 24.9-55.4 55.4s24.9 55.4 55.4 55.4 55.4-24.9 55.4-55.4-25-55.4-55.4-55.4zm0 81.3c-14.4 0-26.2-11.8-26.2-26.2s11.8-26.2 26.2-26.2 26.2 11.8 26.2 26.2-11.8 26.2-26.2 26.2z"/></svg>