<?xml version="1.0" encoding="utf-8"?>
<!-- Generator: Adobe Illustrator 18.1.1, SVG Export Plug-In . SVG Version: 6.00 Build 0)  -->
<svg version="1.1" id="Layer_4_copy" xmlns="http://www.w3.org/2000/svg" xmlns:xlink="http://www.w3.org/1999/xlink" x="0px"
	 y="0px" viewBox="44.6 134.2 521.2 521.2" enable-background="new 44.6 134.2 521.2 521.2" xml:space="preserve">
<g>
	<g>
		<path fill="#FFFFFF" d="M462.9,413.9c-3.3-2-6.9-3.6-10.5-5.2c-2-1-2.6-2-2.6-3.9c1-15.1-0.3-30.2-4.3-44.9c-0.3-1.3,0.3-3,1-3.6
			c11.8-9.5,23.6-18.7,35.4-27.9c0.3,0,0.7-0.3,1-0.3c-7.5-14.1-15.1-28.2-22.6-42.3c-6.9,2.6-13.4,5.2-20.3,7.5
			c-7.2,2.3-14.4,4.6-21.3,7.2c-2.3,0.7-3.9,0.3-5.9-1.6c-9.5-10.8-20.7-20-33.1-27.2c-2.3-1.3-3-2.6-2.6-5.6
			c2-12.8,3.3-25.9,4.9-39c0.3-1.6,0.7-3.3,0.7-4.6c-15.1-4.6-30.2-9.2-45.2-13.8c-6.9,14.1-13.8,28.2-20.3,41.6
			c-12.1,0.7-23.9,1.6-35.4,2.6c-3.9,0.7-7.9,2-12.1,2.6c-1.3,0.3-3.3,0-3.9-1c-9.2-11.1-18-22.6-26.9-34.1c-0.3-0.7-0.7-1.3-1-2
			c-14.1,7.5-28.2,15.1-42.3,22.6c2.6,6.9,5.2,13.4,7.5,20.3c2.3,7.2,4.6,14.4,7.2,21.3c0.7,2.3,0.7,3.9-1.6,5.9
			c-10.5,9.5-19.7,20.3-26.9,32.8c-1.6,2.6-3,3-5.9,2.6c-14.4-2-29.2-3.6-43.3-5.6c-4.6,15.1-9.2,29.8-13.8,45.2
			c7.5,3.6,15.7,7.9,23.6,11.8c5.6,3,11.1,5.6,16.4,8.5c1,0.7,2,2.3,2,3.6c-0.7,15.1,0.7,30.2,4.6,44.9c0.3,1,0,2.6-0.7,3.3
			c-11.8,9.5-23.9,18.7-36.1,27.9c0,0.3-0.3,0.3-0.7,0.3c7.5,14.1,15.1,28.2,22.6,42.3c7.5-2.6,15.4-5.2,22.9-7.9
			c6.6-2,13.1-3.9,19.3-6.2c2.3-0.7,3.9-0.7,5.6,1.3c9.5,11.1,21,20,33.4,27.5c2.3,1.3,3,2.6,2.6,5.2c-2,14.8-3.6,29.5-5.6,43.6
			c15.1,4.6,29.8,9.2,45.2,13.8c3-6.2,6.2-12.5,9.5-19c3.6-6.9,7.2-13.8,10.5-20.7c1-2,2-2.6,4.3-2.6c15.1,1,29.8-0.7,44.3-4.3
			c1-0.3,3,0.3,3.6,1c9.2,11.8,18.4,23.3,27.2,35.1c0.3,0.3,0.3,1,0.7,1.6c14.1-7.5,28.2-15.1,42.3-22.6c-2.6-7.5-5.2-15.1-7.9-22.6
			c-2.3-6.6-4.6-13.4-6.6-20c-0.3-1.3-0.3-3.6,0.7-4.3c12.1-10.8,22-23.3,30.2-37.4c15.7,1.6,31.5,3.6,46.9,5.6
			c4.6-15.1,9.2-30.2,12.5-45.2C482.5,423.7,472.7,418.8,462.9,413.9z M306.2,464c-37.4,0-67.9-30.5-67.9-67.9s30.5-67.9,67.9-67.9
			c37.4,0,67.9,30.5,67.9,67.9S343.5,464,306.2,464z"/>
		<path fill="#FFFFFF" d="M306.2,340.8c-30.5,0-55.4,24.9-55.4,55.4c0,30.5,24.9,55.4,55.4,55.4c30.5,0,55.4-24.9,55.4-55.4
			C361.6,365.7,336.6,340.8,306.2,340.8z M306.2,422.1c-14.4,0-26.2-11.8-26.2-26.2s11.8-26.2,26.2-26.2c14.4,0,26.2,11.8,26.2,26.2
			S320.6,422.1,306.2,422.1z"/>
	</g>
</g>
<g>
	<g>
		<path fill="none" d="M305.2,134.2c-143.9,0-260.6,116.7-260.6,260.6s116.7,260.6,260.6,260.6s260.6-116.7,260.6-260.6
			S449.1,134.2,305.2,134.2z"/>
	</g>
</g>
</svg>
