<?xml version="1.0" encoding="utf-8"?>
<!-- Generator: Adobe Illustrator 18.1.1, SVG Export Plug-In . SVG Version: 6.00 Build 0)  -->
<svg version="1.1" id="English" xmlns="http://www.w3.org/2000/svg" xmlns:xlink="http://www.w3.org/1999/xlink" x="0px" y="0px"
	 viewBox="44.6 134.2 521.2 521.2" enable-background="new 44.6 134.2 521.2 521.2" xml:space="preserve">
<path fill="#FFFFFF" d="M311.7,233.6c-93.3,0-169.3,63.5-169.3,141.5c0,49.8,30.5,93.7,77,118.5c-1.3,15.1-5.6,33.4-15.7,55.7
	c0,0,35.4-7.5,60.3-38c15.1,3.9,31.4,5.9,47.8,5.9c93,0,169-63.5,169-141.8S405.1,233.6,311.7,233.6z M379.2,377v-34.4
	c0-2.9,1-4.3,2.9-4.9c2-0.3,3.6,0,4.9,1c1.6,1,2.3,2.3,2.3,3.6l-0.3,46.8c-0.3,2.6-2.3,3.3-5.9,2.6c-2.9-1-4.6-2.6-4.6-5.2
	C379.2,381.6,379.2,378.3,379.2,377z M276.7,346.6c0,0.3-0.3,1.3-0.3,2c0,0.7,0,1.3-0.3,2l-0.7,1.6c-1,2-2,4.6-2.9,6.9
	c-1,2.6-2,4.9-2.9,7.5c-1.3,2.6-2.3,5.2-3.3,7.5c-1.3,2.3-2.3,4.6-3.3,6.9l-12.4,25.2c-0.3,1.3-1.3,2.6-2,3.9c-0.7,1.3-2,2-3.6,2
	c-0.7,0-1-0.3-1.3-0.3c-0.7-0.7-1.6-1.3-2.3-2s-1-1.6-1-2.9c0-1,0.3-2.3,1-3.3l0.3-0.3c2-3.3,5.6-10.2,10.8-21.6l-9.5-17.4
	c0-0.7-0.7-1.3-1.3-2.6c-0.7-1-1.6-2.3-2.3-3.9c-1-1.3-2-2.9-2.6-4.3c-0.7-1.3-1.3-2.6-1.6-3.3c-0.7-1.3-1-2.6-1-3.6
	c0-1.6,0.7-3.3,2.6-4.6c0.7-0.3,1-0.7,1.6-0.7c0.3-0.3,1-0.3,1.3-0.3c1,0.3,1.6,1,2.3,1.6c0.7,1,1,2,1.6,2.9l0.3,0.7
	c1,1.6,2,3.6,3.3,5.9c1.3,2.3,2.6,4.9,3.9,7.2c1.3,2.6,2.6,4.9,3.9,6.9c1.3,2,2.3,3.9,2.9,4.9c2-3.6,3.3-7.5,4.6-10.5
	s2.3-5.9,3.3-8.2l2.6-8.5c0.3-1.3,1-2,1.6-2.6c0.7-0.3,1.3-0.7,2-0.7c0.3,0,0.7,0,1,0c2,0.7,3.3,1.3,2.9,2c0.3,1,0.7,2.3,0.7,3.6
	V346.6z M319.3,349.5c-0.3,1-1,1.3-2,1.6c-1,0-2,0-3.3,0c-1.3,0-2.6-0.3-3.3-0.3c-9.2-0.3-14.7,0.3-17.4,1.3c0,1,0,2.3,0,3.9
	c0,1.6,0,4.3,0,7.5s0,5.9,0,7.5c1,0,2,0,2.6,0c7.2,0,11.5,0.3,12.8,1.3c0.7,0.3,1.3,1.3,1.6,2.3c0.3,3.3-0.3,5.2-1.3,5.6
	c-1.3,0.3-2.6,0.7-4.6,0.7c-2,0-3.9,0-5.9,0c-2,0-3.9,0-5.6,0c0,2-0.3,3.9-0.3,4.9c-0.3,1-0.3,3.3-0.3,6.9c0,3.6,0,5.9,0,7.2
	c0.3,1.3,0.7,2.3,1.6,2.6c1,0.3,3.9,0.7,8.5,0.3c4.6,0,7.5-0.3,8.5-0.7c0.7-0.3,2-0.7,3.3-0.7c1.3,0,2,0.3,2.6,1s1,1.3,1.3,2.3
	c0.3,1,0.3,2,0.3,2.6c0,1.6-1.3,3.3-3.9,4.3c-2,0.7-4.6,1-8.2,1c-0.7,0-2.6,0-6.9,0c-3.9,0.3-7.2,0.3-9.5,0c-2.3,0-4.3-0.7-5.2-1.6
	c-1-1-1.6-3.9-2-8.2v-3.6c0-5.2,0.3-11.5,0.7-18.3c-1-3.3-1-5.6-0.3-7.5c0.7-2,1-5.6,1-11.1c0-5.2-0.3-8.2-0.7-8.5
	c-0.3-0.3-0.7-0.7-1-1.3c-0.3-0.7-0.7-2-0.7-4.3c-0.3-2.3,1-3.6,3.3-4.3c2.6-0.7,5.9-1.3,9.8-1.6c4.3-0.3,8.2-0.7,11.8-0.7
	c3.6,0,6.5,0,8.2,0c2,0.3,3.3,1,3.9,2c0.7,1.3,1,2.3,0.7,2.6C319.9,347.5,319.6,348.8,319.3,349.5z M373.6,389.1
	c-0.3,3.3-0.7,6.2-1.6,8.8c-1.6,4.3-4.3,7.9-7.9,10.5c-4.6,3.3-11.8,4.6-22.3,3.6c-6.2-0.7-10.8-2.6-14.1-6.2s-4.9-7.2-4.9-11.5
	c0.3-4.6,2.6-6.5,6.5-6.5c1.3,0.3,2.3,0.7,3.6,1.6c1,0.7,1.6,2.3,1.6,3.9c0,2,0,3.3,0,4.3c0,1,1,2.3,2.6,3.6c1,0.7,2.6,1,4.3,1.6
	l3.6,0.7c0.7,0,1.3,0,1.6,0c0.3,0,0.7,0,1.3,0c4.6,0,7.5-0.7,9.5-2c1-1,2-2,2.6-2.9c0.7-1,1.3-2.3,2-3.6c0.3-1,0.3-2,0.7-2.9
	s0.3-2,0.3-2.9c0-1.3-0.3-2.3-0.7-3.6c-0.3-1-1-2.3-2-3.3c-0.7-1-1.6-2-3.3-2.6c-1.6-0.7-3.6-1.3-6.5-2c-2-0.7-4.6-1-7.2-1.6
	c-5.6-1-9.5-2.6-12.8-4.3c-3.9-2-5.9-5.6-6.2-11.1c0-5.9,2-10.8,5.9-14.4c4.3-3.9,10.5-5.9,18.7-5.9c5.2,0.3,9.2,1.3,12.4,2.9
	c3.6,2,5.6,3.9,5.6,6.2c0,2.6-1.6,4.6-4.6,5.6c-4.3,1-6.5,0.3-7.5-2c-1-2-3.3-2.9-7.2-2.9c-3.3,0-6.2,0.7-8.8,2
	c-3.3,1.3-4.6,4.6-4.3,8.8c0.7,2.6,3.3,4.3,7.5,5.2c3.6,0.7,7.2,1.6,10.8,2.3c7.2,1.6,12.4,4.6,15.4,8.2c2.3,2.9,3.6,6.2,5.2,9.2
	C373.6,387.2,373.6,388.1,373.6,389.1z M390,408.1c-0.3,2.9-1.3,4.6-3.3,5.2c-1.6,0.3-3.6,0.3-5.6-0.7c-0.7-0.3-1.3-1.3-2-2
	c-1-1-1-2.6-0.7-4.6c0.7-2.9,1.3-4.3,2.9-4.9c1.3-0.7,2.9-0.7,4.9-0.3c0.7,0,1.3,0.3,1.6,0.7c0.3,0.3,0.7,0.7,1,2
	C390,404.8,390.3,406.2,390,408.1z"/>
<g>
	<g>
		<path fill="none" d="M305.2,134.2c-143.9,0-260.6,116.7-260.6,260.6s116.7,260.6,260.6,260.6s260.6-116.7,260.6-260.6
			S449.1,134.2,305.2,134.2z"/>
	</g>
</g>
</svg>
