<svg xmlns="http://www.w3.org/2000/svg" viewBox="44.6 134.2 521.2 521.2" xmlns:v="https://vecta.io/nano"><path fill="#fff" d="M311.7 233.6c-93.3 0-169.3 63.5-169.3 141.5 0 49.8 30.5 93.7 77 118.5-1.3 15.1-5.6 33.4-15.7 55.7 0 0 35.4-7.5 60.3-38 15.1 3.9 31.4 5.9 47.8 5.9 93 0 169-63.5 169-141.8s-75.7-141.8-169.1-141.8zM379.2 377v-34.4c0-2.9 1-4.3 2.9-4.9 2-.3 3.6 0 4.9 1 1.6 1 2.3 2.3 2.3 3.6l-.3 46.8c-.3 2.6-2.3 3.3-5.9 2.6-2.9-1-4.6-2.6-4.6-5.2.7-4.9.7-8.2.7-9.5zm-102.5-30.4c0 .3-.3 1.3-.3 2s0 1.3-.3 2l-.7 1.6c-1 2-2 4.6-2.9 6.9-1 2.6-2 4.9-2.9 7.5-1.3 2.6-2.3 5.2-3.3 7.5-1.3 2.3-2.3 4.6-3.3 6.9l-12.4 25.2c-.3 1.3-1.3 2.6-2 3.9s-2 2-3.6 2c-.7 0-1-.3-1.3-.3-.7-.7-1.6-1.3-2.3-2s-1-1.6-1-2.9c0-1 .3-2.3 1-3.3l.3-.3c2-3.3 5.6-10.2 10.8-21.6l-9.5-17.4c0-.7-.7-1.3-1.3-2.6-.7-1-1.6-2.3-2.3-3.9-1-1.3-2-2.9-2.6-4.3-.7-1.3-1.3-2.6-1.6-3.3-.7-1.3-1-2.6-1-3.6 0-1.6.7-3.3 2.6-4.6.7-.3 1-.7 1.6-.7.3-.3 1-.3 1.3-.3 1 .3 1.6 1 2.3 1.6.7 1 1 2 1.6 2.9l.3.7c1 1.6 2 3.6 3.3 5.9s2.6 4.9 3.9 7.2c1.3 2.6 2.6 4.9 3.9 6.9s2.3 3.9 2.9 4.9c2-3.6 3.3-7.5 4.6-10.5s2.3-5.9 3.3-8.2l2.6-8.5c.3-1.3 1-2 1.6-2.6.7-.3 1.3-.7 2-.7h1c2 .7 3.3 1.3 2.9 2 .3 1 .7 2.3.7 3.6v.4zm42.6 2.9c-.3 1-1 1.3-2 1.6H314c-1.3 0-2.6-.3-3.3-.3-9.2-.3-14.7.3-17.4 1.3v3.9 7.5 7.5h2.6c7.2 0 11.5.3 12.8 1.3.7.3 1.3 1.3 1.6 2.3.3 3.3-.3 5.2-1.3 5.6-1.3.3-2.6.7-4.6.7h-5.9-5.6c0 2-.3 3.9-.3 4.9-.3 1-.3 3.3-.3 6.9v7.2c.3 1.3.7 2.3 1.6 2.6 1 .3 3.9.7 8.5.3 4.6 0 7.5-.3 8.5-.7.7-.3 2-.7 3.3-.7s2 .3 2.6 1 1 1.3 1.3 2.3.3 2 .3 2.6c0 1.6-1.3 3.3-3.9 4.3-2 .7-4.6 1-8.2 1h-6.9c-3.9.3-7.2.3-9.5 0-2.3 0-4.3-.7-5.2-1.6-1-1-1.6-3.9-2-8.2v-3.6c0-5.2.3-11.5.7-18.3-1-3.3-1-5.6-.3-7.5.7-2 1-5.6 1-11.1 0-5.2-.3-8.2-.7-8.5-.3-.3-.7-.7-1-1.3-.3-.7-.7-2-.7-4.3-.3-2.3 1-3.6 3.3-4.3 2.6-.7 5.9-1.3 9.8-1.6 4.3-.3 8.2-.7 11.8-.7h8.2c2 .3 3.3 1 3.9 2 .7 1.3 1 2.3.7 2.6.5 1.3.2 2.6-.1 3.3zm54.3 39.6c-.3 3.3-.7 6.2-1.6 8.8-1.6 4.3-4.3 7.9-7.9 10.5-4.6 3.3-11.8 4.6-22.3 3.6-6.2-.7-10.8-2.6-14.1-6.2s-4.9-7.2-4.9-11.5c.3-4.6 2.6-6.5 6.5-6.5 1.3.3 2.3.7 3.6 1.6 1 .7 1.6 2.3 1.6 3.9v4.3c0 1 1 2.3 2.6 3.6 1 .7 2.6 1 4.3 1.6l3.6.7h1.6 1.3c4.6 0 7.5-.7 9.5-2 1-1 2-2 2.6-2.9.7-1 1.3-2.3 2-3.6.3-1 .3-2 .7-2.9s.3-2 .3-2.9c0-1.3-.3-2.3-.7-3.6-.3-1-1-2.3-2-3.3-.7-1-1.6-2-3.3-2.6-1.6-.7-3.6-1.3-6.5-2-2-.7-4.6-1-7.2-1.6-5.6-1-9.5-2.6-12.8-4.3-3.9-2-5.9-5.6-6.2-11.1 0-5.9 2-10.8 5.9-14.4 4.3-3.9 10.5-5.9 18.7-5.9 5.2.3 9.2 1.3 12.4 2.9 3.6 2 5.6 3.9 5.6 6.2 0 2.6-1.6 4.6-4.6 5.6-4.3 1-6.5.3-7.5-2-1-2-3.3-2.9-7.2-2.9-3.3 0-6.2.7-8.8 2-3.3 1.3-4.6 4.6-4.3 8.8.7 2.6 3.3 4.3 7.5 5.2 3.6.7 7.2 1.6 10.8 2.3 7.2 1.6 12.4 4.6 15.4 8.2 2.3 2.9 3.6 6.2 5.2 9.2.2 1.3.2 2.2.2 3.2zm16.4 19c-.3 2.9-1.3 4.6-3.3 5.2-1.6.3-3.6.3-5.6-.7-.7-.3-1.3-1.3-2-2-1-1-1-2.6-.7-4.6.7-2.9 1.3-4.3 2.9-4.9 1.3-.7 2.9-.7 4.9-.3.7 0 1.3.3 1.6.7.3.3.7.7 1 2 1.2 1.3 1.5 2.7 1.2 4.6z"/></svg>