<?xml version="1.0" encoding="utf-8"?>
<!-- Generator: Adobe Illustrator 18.1.1, SVG Export Plug-In . SVG Version: 6.00 Build 0)  -->
<svg version="1.1" id="Layer_4_copy" xmlns="http://www.w3.org/2000/svg" xmlns:xlink="http://www.w3.org/1999/xlink" x="0px"
	 y="0px" viewBox="44.6 134.2 521.2 521.2" enable-background="new 44.6 134.2 521.2 521.2" xml:space="preserve">
<g>
	<path fill="#FFFFFF" d="M235.4,534.5c-2.6,0-5.2,0-7.9,0c-6.6,14.1-12.8,31.5-16.1,45.9c0,0-12.8,1.3-22.9,8.2v-3
		c1-5.2,4.9-15.1,5.6-17c2.3-7.2,4.6-14.4,7.2-21.3c6.2-15.4,14.1-30.2,24.6-42.9c12.8-15.4,28.5-25.2,43.3-38
		c14.4-12.8,27.2-27.5,38.4-43.3c16.4-22.9,29.8-47.9,43.3-72.4c1-2,2.3-4.3,2-6.6c-0.3-2.3-2-4.6-4.3-4.6s-3.6,2.6-4.6,4.6
		c-22.6,45.9-54.7,89.8-96,120.3c-62.3,46.2-59,56.4-59,56.4c-1-1.6-1-3-1-3c-27.2-75.1-37-151.1,47.5-215s104.6-37,156.7-88.2
		c0,0,10.8-8.5,13.1,0C407.8,223.1,545.5,521.4,235.4,534.5z"/>
</g>
<g>
	<g>
		<path fill="none" d="M305.2,134.2c-143.9,0-260.6,116.7-260.6,260.6s116.7,260.6,260.6,260.6s260.6-116.7,260.6-260.6
			S449.1,134.2,305.2,134.2z"/>
	</g>
</g>
</svg>
