<svg xmlns="http://www.w3.org/2000/svg" viewBox="44.6 134.2 521.2 521.2" xmlns:v="https://vecta.io/nano"><path fill="#fff" d="M235.4 534.5h-7.9c-6.6 14.1-12.8 31.5-16.1 45.9 0 0-12.8 1.3-22.9 8.2v-3c1-5.2 4.9-15.1 5.6-17 2.3-7.2 4.6-14.4 7.2-21.3 6.2-15.4 14.1-30.2 24.6-42.9 12.8-15.4 28.5-25.2 43.3-38 14.4-12.8 27.2-27.5 38.4-43.3 16.4-22.9 29.8-47.9 43.3-72.4 1-2 2.3-4.3 2-6.6s-2-4.6-4.3-4.6-3.6 2.6-4.6 4.6c-22.6 45.9-54.7 89.8-96 120.3-62.3 46.2-59 56.4-59 56.4-1-1.6-1-3-1-3-27.2-75.1-37-151.1 47.5-215s104.6-37 156.7-88.2c0 0 10.8-8.5 13.1 0 2.5 8.5 140.2 306.8-169.9 319.9z"/></svg>