<?xml version="1.0" encoding="utf-8"?>
<!-- Generator: Adobe Illustrator 18.1.1, SVG Export Plug-In . SVG Version: 6.00 Build 0)  -->
<svg version="1.1" id="margin" xmlns="http://www.w3.org/2000/svg" xmlns:xlink="http://www.w3.org/1999/xlink" x="0px" y="0px"
	 viewBox="44.6 134.2 521.2 521.2" enable-background="new 44.6 134.2 521.2 521.2" xml:space="preserve">
<g>
	<path fill="#FFFFFF" d="M314.7,368c-0.7-3-2-6.9-3.3-11.8c-2,4.9-3.3,8.5-3.9,10.8c-0.7,2-1.3,3.6-2,5.6c-1,2.6-2,5.9-2.6,8.9
		c0.3,0,0.3,0,0.7,0c0.7,0,2-0.3,3.6-0.3c1.6-0.3,3.9-0.3,6.6-0.7c1.3,0,2.6-0.3,3.6,0c0-1-0.3-2.3-0.7-3.3
		C316,374.5,315.3,371.6,314.7,368z"/>
	<path fill="#FFFFFF" d="M480.6,376.2c0-78.3-75.7-141.9-169.1-141.9c-93.8,0-169.5,63.6-169.5,142.3c0,78.3,76,141.9,169.1,141.9
		c16.7,0,32.8-2,47.9-5.9c24.9,30.2,60.3,38,60.3,38c-10.2-22.6-14.4-40.6-15.7-55.7C450.1,469.9,480.6,426,480.6,376.2z
		 M444.2,375.5v-34.4c0-2.6,1-4.6,3-4.9c2-0.3,3.6,0,4.9,1c1.3,1,2.3,2.3,2.3,3.6l-0.3,46.9c-0.3,2.6-2.3,3.3-5.9,2.6
		c-3.3-0.7-4.6-2.3-4.6-5.2C444.2,380.1,444.2,376.8,444.2,375.5z M443.2,404.7c0.7-2.6,1.3-4.3,3-4.9c1.3-0.7,3-0.7,4.9-0.3
		c0.7,0,1.3,0.3,1.6,0.7s0.7,1,1,1.3c1,1,1.3,2.6,1,4.6c-0.3,3-1.3,4.6-3.3,5.2c-1.6,0.7-3.6,0.7-5.6-0.3c-0.7-0.3-1-0.7-2-1.6
		C442.9,408.3,442.9,407,443.2,404.7z M219.3,349.3c-0.3,0.7-0.7,1-1.6,1.3c-1,0.3-2.3,0.3-4.6,0c-2,0-3.9-0.3-5.9-0.3
		c-1.6,0-3.3,0-4.6,0c0,1,0,1.6,0,2.6c0,1,0,3.6,0,7.9c0,4.3,0,9.2,0,14.8c0,5.2,0,9.5,0,12.1c0,7.9,0,12.8,0.7,14.8
		c0.7,1.6,0.7,3.6,0,5.6c-1,2-3,3-5.6,3.3c-3,0.7-4.9-1.3-5.2-5.6c0.3-3,0.3-5.6,0.3-8.2c0.3-4.6,0.3-9.8,0.3-15.1
		c0-5.6,0-9.8,0-13.4c0-3.3,0-8.5,0-15.1c0-1,0-2,0-3c-3.3,0.3-6.9,0.7-10.5,1.6c-3.9,1-6.2,1-7.2,0.3c-1-1-1.6-2.3-2-4.6
		c0-1.3,0.3-2.3,1-3c1-0.7,2-1.3,3.9-2c7.2-2,15.1-3,23.6-3c3.9,0,7.9,0,11.1,0.3c3.3,0.3,5.2,1,5.6,2c0.7,1,1,2.3,0.7,3.3
		C219.6,347.6,219.6,348.6,219.3,349.3z M236.3,349.9c-0.7,1.6-1.3,3.6-2,5.6c-1,1.6-1.6,3-2.6,3.9c-0.7,1-1.6,1.3-2.6,1.6
		c-1,0-2.3,0-3.9-0.3c-1.6-0.3-2.3-1.6-2-3.6c0.3-1,0.7-2.3,1-3.3c0.3-1.3,1-2.3,1.6-3.9c1-2.3,1-4.9,0.3-7.5c-1-2.3-0.7-3.9,1-4.9
		c1.6-1,3.6-1.3,5.9-0.7c1.3,0.3,2.3,1,3,2c0.7,0.7,1,2,1,3.9C237,345.7,236.7,348.3,236.3,349.9z M278.6,410.6c-2,0.7-4.6,1-8.2,1
		c-0.3,0-2,0-4.9,0s-6.9,0-10.8,0s-6.9-0.7-7.9-2c-1.3-1.3-1.6-3.9-1.3-7.9c0.3-1.3,0.3-3.6,0.7-6.9c0.3-25.6,0.7-39,0.7-40.6
		c0-2-0.3-4.6-0.3-7.9c-0.3-2,0-3.3,0.3-3.9c0.7-0.7,1.3-1,2-1.3s1.6-0.3,3.3-0.3c0.7,0,1.6,0,2.3,0s1.3,0.3,1.6,0.7
		c0.7,0.3,1,1.3,1.3,2.3c0.3,1,0.3,3.6-0.3,7.5c-0.3,2.6-0.7,6.6-0.7,11.1c0,2,0,9.2-0.3,21c0,8.5,0,13.8,0,15.4
		c0,1.3,0.7,2.3,1.3,2.6c0.7,0.3,3.3,0.3,7.5,0.3s7.2-0.3,8.5-1c1.3-0.3,3-1,4.6-1c1.6,0,2.6,0.3,3.3,1.3c0.3,0.7,0.7,1.3,1,2.6
		c0.3,1,0.3,2,0.3,2.6C282.6,408,281.3,409.6,278.6,410.6z M333.4,410.3c-1,1.3-2.3,2-4.6,2c-2.3,0-3.9-0.3-4.6-0.7
		c-2-1.3-2.3-3.9-1.6-8.2c0-1.6-0.3-3.9-1-7.2c-0.7-2.3-1.3-4.3-1.6-6.6c-2,0-5.2,0.3-9.5,0.7l-7.2,0.7c-1,0-2,0.3-2.6,0.3v0.3v0.3
		v0.3l-0.3,0.7c-0.7,3-1.3,7.2-2.3,13.1c-0.7,2.6-1.3,4.3-2.3,4.9c-1,0.3-2.6,0.7-4.6,0.7c-2.6-0.3-3.9-1.6-3.9-3.9
		c0-2.3,0.7-5.6,1.6-9.5c0.7-4.3,2-8.9,3.3-13.8c3.3-11.5,7.2-22.9,11.8-35.1c1-3,2-4.9,3-6.2c1.3-1.6,2.6-2.6,4.3-2.6
		c4.3-0.7,6.9,1,7.5,4.6c2,6.6,3.3,11.8,4.6,16.1c1,4.3,2.3,9.8,3.9,16.4c1,4.9,2.3,9.8,3.3,14.8c1.3,4.9,2,8.9,3,12.5
		C334,407.6,334,409.3,333.4,410.3z M381.2,403.7c-3.9,4.3-9.2,6.6-15.4,7.2c-8.2,0.3-14.8-1-19-4.6c-3.6-2.3-6.2-5.9-8.2-10.5
		c-1.3-3.9-2.3-7.9-2.3-11.1c-0.7-8.9,0-17,2.3-24.6c3.9-11.5,10.8-18,21.6-19c6.2-0.7,10.5,0,13.8,2c3.3,2,5.2,4.6,6.6,7.5
		c1.3,2.3,1.6,4.3,1.6,5.9c0,2-1,3.6-3,4.6c-1,0.7-2.3,0.7-3.6,0.7c-1.3,0-2.6-0.7-3.9-2c-1-1-1.6-2.6-2-4.9c0-1.3-0.7-2.6-1.6-3.3
		c-1.3-1-3.6-1.3-6.9-1c-3,0.3-5.6,1.6-7.9,3.6c-2,2-3.9,4.9-4.9,8.5c-0.7,2.6-1.3,5.6-1.6,8.9c-0.3,3-0.3,6.2-0.3,9.8v2.6
		c0.3,1.3,0.3,2.6,0.7,3.9c0.3,1.6,0.7,3,1.3,4.6c0.3,1,1,2.3,2,3.3c0.7,1,1.6,2,2.6,3c1,0.7,2.3,1.3,4.3,2c1.6,0.3,3.6,0.7,5.9,0.7
		c0.7,0,1,0,1.3,0c0.7,0,1,0,1.3,0s1,0,2-0.3c1,0,2-0.7,3-1.3c1.6-1.3,2.6-2.3,3.3-3.3s1.3-2.3,1.6-3.9c0.7-1.6,1-3,1.6-3.6
		c0.3-0.7,1.3-1.3,2-1.3c3.6-0.7,5.6,0.7,5.6,3C386.5,395.2,385.2,399.4,381.2,403.7z M434.3,350.3c-0.3,1.6-0.7,6.6-1.3,13.8
		c-0.3,6.9-0.3,11.8-0.3,14.4L433,403c0.7,4.3,0.3,6.9-1.3,7.5c-1.6,1-3.3,1.3-4.9,1c-1.6-0.3-2.6-1-3.3-2c-0.7-1.6-1-3.3-0.3-5.6
		c0-2.3-0.3-5.9-0.3-11.1c0-4.3,0-7.2,0-8.2c0-1,0-2.6,0-4.3c-2.6,0-5.9,0-9.8,0.3l-4.3,0.3c-2.6,0-4.3,0.3-5.2,0.7
		c0,0.7-0.3,2-0.3,4.6c0,2.6-0.3,5.6-0.3,9.2c0,3.3,0,5.6,0,6.6s-0.3,3.3-0.3,6.2c0,2.3-1.6,3.3-4.9,3.3c-2.6,0-3.9-1-4.3-3.6
		c-0.3-2.6-0.3-6.9,0-13.4c0.3-6.2,0.3-11.1,0.7-13.8c0.3-2.6,0.7-5.6,0.7-8.2c0.3-9.5,0.3-16.7-0.3-22.3c-0.3-2.6-0.3-4.9-0.3-6.9
		c0.3-2.6,1.6-3.9,4.3-3.9c3.9-0.3,5.9,1,5.9,3.3c0,2.6,0,3.9,0,3.9c0,2.6,0,6.2,0,11.5c0,1,0,2,0,3.3c0,1.3,0,3,0,4.9s0,3.3,0,3.6
		c0,0.7,0,1.3,0,2c0.3,0,1,0,1.6,0c0.7,0,2,0,3.6-0.3c1.6,0,3.3-0.3,5.2-0.3c1.6-0.3,3.3-0.3,4.3-0.3s2,0,3.3,0c0-1.3,0-3,0-3.9
		s0.3-4.6,0.7-10.8c0.3-5.9,0.3-9.8,0.7-11.1c0.3-1.3,0.3-2.3,0.7-3c0.7-1.3,2-2,4.6-2C433.3,340.1,435,343.7,434.3,350.3z"/>
</g>
<g>
	<g>
		<path fill="none" d="M305.2,134.2c-143.9,0-260.6,116.7-260.6,260.6s116.7,260.6,260.6,260.6s260.6-116.7,260.6-260.6
			S449.1,134.2,305.2,134.2z"/>
	</g>
</g>
</svg>
