<svg xmlns="http://www.w3.org/2000/svg" viewBox="44.6 134.2 521.2 521.2" fill="#fff" xmlns:v="https://vecta.io/nano"><path d="M314.7 368c-.7-3-2-6.9-3.3-11.8-2 4.9-3.3 8.5-3.9 10.8l-2 5.6c-1 2.6-2 5.9-2.6 8.9h.7c.7 0 2-.3 3.6-.3 1.6-.3 3.9-.3 6.6-.7 1.3 0 2.6-.3 3.6 0 0-1-.3-2.3-.7-3.3-.7-2.7-1.4-5.6-2-9.2zm165.9 8.2c0-78.3-75.7-141.9-169.1-141.9-93.8 0-169.5 63.6-169.5 142.3 0 78.3 76 141.9 169.1 141.9 16.7 0 32.8-2 47.9-5.9 24.9 30.2 60.3 38 60.3 38-10.2-22.6-14.4-40.6-15.7-55.7 46.5-25 77-68.9 77-118.7zm-36.4-.7v-34.4c0-2.6 1-4.6 3-4.9s3.6 0 4.9 1 2.3 2.3 2.3 3.6l-.3 46.9c-.3 2.6-2.3 3.3-5.9 2.6-3.3-.7-4.6-2.3-4.6-5.2.6-5 .6-8.3.6-9.6zm-1 29.2c.7-2.6 1.3-4.3 3-4.9 1.3-.7 3-.7 4.9-.3.7 0 1.3.3 1.6.7s.7 1 1 1.3c1 1 1.3 2.6 1 4.6-.3 3-1.3 4.6-3.3 5.2-1.6.7-3.6.7-5.6-.3-.7-.3-1-.7-2-1.6-.9-1.1-.9-2.4-.6-4.7zm-223.9-55.4c-.3.7-.7 1-1.6 1.3-1 .3-2.3.3-4.6 0-2 0-3.9-.3-5.9-.3h-4.6v2.6 7.9 14.8 12.1c0 7.9 0 12.8.7 14.8.7 1.6.7 3.6 0 5.6-1 2-3 3-5.6 3.3-3 .7-4.9-1.3-5.2-5.6.3-3 .3-5.6.3-8.2.3-4.6.3-9.8.3-15.1v-13.4V354v-3c-3.3.3-6.9.7-10.5 1.6-3.9 1-6.2 1-7.2.3-1-1-1.6-2.3-2-4.6 0-1.3.3-2.3 1-3 1-.7 2-1.3 3.9-2 7.2-2 15.1-3 23.6-3 3.9 0 7.9 0 11.1.3 3.3.3 5.2 1 5.6 2 .7 1 1 2.3.7 3.3.3 1.7.3 2.7 0 3.4zm17 .6c-.7 1.6-1.3 3.6-2 5.6-1 1.6-1.6 3-2.6 3.9-.7 1-1.6 1.3-2.6 1.6-1 0-2.3 0-3.9-.3s-2.3-1.6-2-3.6l1-3.3c.3-1.3 1-2.3 1.6-3.9 1-2.3 1-4.9.3-7.5-1-2.3-.7-3.9 1-4.9 1.6-1 3.6-1.3 5.9-.7 1.3.3 2.3 1 3 2 .7.7 1 2 1 3.9 0 3-.3 5.6-.7 7.2zm42.3 60.7c-2 .7-4.6 1-8.2 1h-4.9-10.8c-3.9 0-6.9-.7-7.9-2-1.3-1.3-1.6-3.9-1.3-7.9.3-1.3.3-3.6.7-6.9l.7-40.6c0-2-.3-4.6-.3-7.9-.3-2 0-3.3.3-3.9.7-.7 1.3-1 2-1.3s1.6-.3 3.3-.3h2.3c.7 0 1.3.3 1.6.7.7.3 1 1.3 1.3 2.3s.3 3.6-.3 7.5c-.3 2.6-.7 6.6-.7 11.1l-.3 21v15.4c0 1.3.7 2.3 1.3 2.6.7.3 3.3.3 7.5.3s7.2-.3 8.5-1c1.3-.3 3-1 4.6-1s2.6.3 3.3 1.3c.3.7.7 1.3 1 2.6.3 1 .3 2 .3 2.6 0 1.8-1.3 3.4-4 4.4zm54.8-.3c-1 1.3-2.3 2-4.6 2s-3.9-.3-4.6-.7c-2-1.3-2.3-3.9-1.6-8.2 0-1.6-.3-3.9-1-7.2-.7-2.3-1.3-4.3-1.6-6.6-2 0-5.2.3-9.5.7l-7.2.7c-1 0-2 .3-2.6.3v.3.3.3l-.3.7c-.7 3-1.3 7.2-2.3 13.1-.7 2.6-1.3 4.3-2.3 4.9-1 .3-2.6.7-4.6.7-2.6-.3-3.9-1.6-3.9-3.9s.7-5.6 1.6-9.5c.7-4.3 2-8.9 3.3-13.8 3.3-11.5 7.2-22.9 11.8-35.1 1-3 2-4.9 3-6.2 1.3-1.6 2.6-2.6 4.3-2.6 4.3-.7 6.9 1 7.5 4.6 2 6.6 3.3 11.8 4.6 16.1l3.9 16.4c1 4.9 2.3 9.8 3.3 14.8 1.3 4.9 2 8.9 3 12.5.4 2.7.4 4.4-.2 5.4zm47.8-6.6c-3.9 4.3-9.2 6.6-15.4 7.2-8.2.3-14.8-1-19-4.6-3.6-2.3-6.2-5.9-8.2-10.5-1.3-3.9-2.3-7.9-2.3-11.1-.7-8.9 0-17 2.3-24.6 3.9-11.5 10.8-18 21.6-19 6.2-.7 10.5 0 13.8 2s5.2 4.6 6.6 7.5c1.3 2.3 1.6 4.3 1.6 5.9 0 2-1 3.6-3 4.6-1 .7-2.3.7-3.6.7s-2.6-.7-3.9-2c-1-1-1.6-2.6-2-4.9 0-1.3-.7-2.6-1.6-3.3-1.3-1-3.6-1.3-6.9-1-3 .3-5.6 1.6-7.9 3.6-2 2-3.9 4.9-4.9 8.5-.7 2.6-1.3 5.6-1.6 8.9-.3 3-.3 6.2-.3 9.8v2.6c.3 1.3.3 2.6.7 3.9.3 1.6.7 3 1.3 4.6.3 1 1 2.3 2 3.3.7 1 1.6 2 2.6 3 1 .7 2.3 1.3 4.3 2 1.6.3 3.6.7 5.9.7h1.3 1.3c.3 0 1 0 2-.3 1 0 2-.7 3-1.3 1.6-1.3 2.6-2.3 3.3-3.3s1.3-2.3 1.6-3.9c.7-1.6 1-3 1.6-3.6.3-.7 1.3-1.3 2-1.3 3.6-.7 5.6.7 5.6 3 1.5 4.4.2 8.6-3.8 12.9zm53.1-53.4c-.3 1.6-.7 6.6-1.3 13.8-.3 6.9-.3 11.8-.3 14.4l.3 24.5c.7 4.3.3 6.9-1.3 7.5-1.6 1-3.3 1.3-4.9 1s-2.6-1-3.3-2c-.7-1.6-1-3.3-.3-5.6 0-2.3-.3-5.9-.3-11.1v-8.2-4.3c-2.6 0-5.9 0-9.8.3l-4.3.3c-2.6 0-4.3.3-5.2.7 0 .7-.3 2-.3 4.6s-.3 5.6-.3 9.2v6.6c0 1-.3 3.3-.3 6.2 0 2.3-1.6 3.3-4.9 3.3-2.6 0-3.9-1-4.3-3.6-.3-2.6-.3-6.9 0-13.4.3-6.2.3-11.1.7-13.8.3-2.6.7-5.6.7-8.2.3-9.5.3-16.7-.3-22.3-.3-2.6-.3-4.9-.3-6.9.3-2.6 1.6-3.9 4.3-3.9 3.9-.3 5.9 1 5.9 3.3v3.9 11.5 3.3 4.9 3.6 2h1.6c.7 0 2 0 3.6-.3 1.6 0 3.3-.3 5.2-.3 1.6-.3 3.3-.3 4.3-.3h3.3v-3.9c0-.9.3-4.6.7-10.8.3-5.9.3-9.8.7-11.1.3-1.3.3-2.3.7-3 .7-1.3 2-2 4.6-2 4.1-.1 5.8 3.5 5.1 10.1z"/></svg>