<?xml version="1.0" encoding="utf-8"?>
<!-- Generator: Adobe Illustrator 18.1.1, SVG Export Plug-In . SVG Version: 6.00 Build 0)  -->
<svg version="1.1" id="Layer_4_copy" xmlns="http://www.w3.org/2000/svg" xmlns:xlink="http://www.w3.org/1999/xlink" x="0px"
	 y="0px" viewBox="44.6 134.2 521.2 521.2" enable-background="new 44.6 134.2 521.2 521.2" xml:space="preserve">
<path fill="#FFFFFF" d="M470.1,498.1c-1.3-1.6-32.1-36.1-88.8-45.6c5.6-29.2,13.4-76-14.8-110.1c-18.7-22.3-50.2-34.7-93.1-36.7
	c1-31.5-3.6-64.6-13.8-95.1c-3.3-9.8-14.1-15.1-23.9-11.8c-9.8,3.3-15.1,14.1-11.8,23.9c0.3,1.3,1,3,1.3,4.3l-56.7,41
	c-3.3-3-7.5-4.3-11.8-4.3c-4.6,0-8.9,1.6-12.5,4.6c-7.9,6.9-8.9,18.7-2,26.6c1.3,1.6,32.1,36.1,88.8,45.6
	c-5.6,29.2-13.4,76,14.8,110.1c18.7,22.3,50.2,34.7,93.1,36.7c-1,31.5,3.6,64.6,13.8,95.1c3.3,9.8,14.1,15.1,23.9,11.8
	c9.8-3.3,15.1-14.1,11.8-23.9c-0.7-2-1.3-3.9-2-5.9l56.1-40.6c3.6,3.3,8.2,5.2,13.1,5.2c4.6,0,8.9-1.6,12.5-4.6
	C476,517.4,476.6,505.6,470.1,498.1z M178,276.5l50.8-36.7c1.6,7.5,3.3,14.8,4.3,22.3l-36.7,26.6C188.5,284.4,182.3,280.1,178,276.5
	z M235.7,302.4c-9.8-1.6-18.4-4.3-25.9-7.2l25.2-18.4C235.7,285.4,236,293.9,235.7,302.4z M268.8,345c0-0.7,0.3-1.6,0.3-2.3
	c18.4,0.7,33.8,3.3,45.6,8.2l-51.1,37C263.6,373.2,266.5,357.8,268.8,345z M275,426c-5.6-6.6-8.5-14.4-10.2-22.9l62.9-45.6
	c3.6,2.6,6.9,5.2,9.5,8.5c5.9,7.5,9.2,16.4,10.8,25.9l-61,44.3C282.2,433.2,278.3,429.9,275,426z M343.5,447.3
	c0,0.7-0.3,1.6-0.3,2.3c-17-0.7-31.1-3-42.6-6.9l48.2-34.7C348.4,421.4,345.8,435.5,343.5,447.3z M376.6,489.6
	c10.8,2,20.7,4.9,28.8,8.9l-27.9,20.3C376.6,508.9,376.3,499.1,376.6,489.6z M383.2,550.6c-1.6-5.9-2.6-11.5-3.6-17.4l39.3-28.2
	c5.9,3.3,10.5,6.6,14.1,9.5L383.2,550.6z"/>
<g>
	<g>
		<path fill="none" d="M305.2,134.2c-143.9,0-260.6,116.7-260.6,260.6s116.7,260.6,260.6,260.6s260.6-116.7,260.6-260.6
			S449.1,134.2,305.2,134.2z"/>
	</g>
</g>
</svg>
