<svg xmlns="http://www.w3.org/2000/svg" viewBox="44.6 134.2 521.2 521.2" xmlns:v="https://vecta.io/nano"><path fill="#fff" d="M470.1 498.1c-1.3-1.6-32.1-36.1-88.8-45.6 5.6-29.2 13.4-76-14.8-110.1-18.7-22.3-50.2-34.7-93.1-36.7 1-31.5-3.6-64.6-13.8-95.1-3.3-9.8-14.1-15.1-23.9-11.8s-15.1 14.1-11.8 23.9c.3 1.3 1 3 1.3 4.3l-56.7 41c-3.3-3-7.5-4.3-11.8-4.3-4.6 0-8.9 1.6-12.5 4.6-7.9 6.9-8.9 18.7-2 26.6 1.3 1.6 32.1 36.1 88.8 45.6-5.6 29.2-13.4 76 14.8 110.1 18.7 22.3 50.2 34.7 93.1 36.7-1 31.5 3.6 64.6 13.8 95.1 3.3 9.8 14.1 15.1 23.9 11.8s15.1-14.1 11.8-23.9l-2-5.9 56.1-40.6c3.6 3.3 8.2 5.2 13.1 5.2 4.6 0 8.9-1.6 12.5-4.6 7.9-7 8.5-18.8 2-26.3zM178 276.5l50.8-36.7c1.6 7.5 3.3 14.8 4.3 22.3l-36.7 26.6c-7.9-4.3-14.1-8.6-18.4-12.2zm57.7 25.9c-9.8-1.6-18.4-4.3-25.9-7.2l25.2-18.4c.7 8.6 1 17.1.7 25.6zm33.1 42.6c0-.7.3-1.6.3-2.3 18.4.7 33.8 3.3 45.6 8.2l-51.1 37c0-14.7 2.9-30.1 5.2-42.9zm6.2 81c-5.6-6.6-8.5-14.4-10.2-22.9l62.9-45.6c3.6 2.6 6.9 5.2 9.5 8.5 5.9 7.5 9.2 16.4 10.8 25.9l-61 44.3c-4.8-3-8.7-6.3-12-10.2zm68.5 21.3c0 .7-.3 1.6-.3 2.3-17-.7-31.1-3-42.6-6.9l48.2-34.7c-.4 13.4-3 27.5-5.3 39.3zm33.1 42.3c10.8 2 20.7 4.9 28.8 8.9l-27.9 20.3c-.9-9.9-1.2-19.7-.9-29.2zm6.6 61c-1.6-5.9-2.6-11.5-3.6-17.4l39.3-28.2c5.9 3.3 10.5 6.6 14.1 9.5l-49.8 36.1z"/></svg>