<svg xmlns="http://www.w3.org/2000/svg" viewBox="44.6 134.2 521.2 521.2" fill="#fff" xmlns:v="https://vecta.io/nano"><path d="M279 369l-68.5 122.9 122.9-68.5 68.5-122.9L279 369zm27.2 49.1c-12.1 0-22-9.8-22-22 0-12.1 9.8-22 22-22 12.1 0 22 9.8 22 22-.1 12.2-9.9 22-22 22zm0-239.3c-120 0-217.3 97.4-217.3 217.3s97.4 217.3 217.3 217.3S523.5 516 523.5 396.1s-97.4-217.3-217.3-217.3zm15.7 389.1c3.9-3.9 6.2-9.5 6.2-15.4 0-12.1-9.8-22-22-22s-22 9.8-22 22c0 5.9 2.3 11.5 6.2 15.4-82.6-7.5-148.5-73.4-156-156 3.9 3.9 9.5 6.2 15.4 6.2 12.1 0 22-9.8 22-22s-9.8-22-22-22c-5.9 0-11.5 2.3-15.4 6.2 7.5-82.6 73.4-148.5 156-156-3.9 3.9-6.2 9.5-6.2 15.4 0 12.1 9.8 22 22 22s22-9.8 22-22c0-5.9-2.3-11.5-6.2-15.4 82.6 7.5 148.5 73.4 156 156-3.9-3.9-9.5-6.2-15.4-6.2-12.1 0-22 9.8-22 22s9.8 22 22 22c5.9 0 11.5-2.3 15.4-6.2-7.5 82.6-73.4 148.5-156 156z"/></svg>