<?xml version="1.0" encoding="utf-8"?>
<!-- Generator: Adobe Illustrator 18.1.1, SVG Export Plug-In . SVG Version: 6.00 Build 0)  -->
<svg version="1.1" id="Layer_4_copy" xmlns="http://www.w3.org/2000/svg" xmlns:xlink="http://www.w3.org/1999/xlink" x="0px"
	 y="0px" viewBox="44.6 134.2 521.2 521.2" enable-background="new 44.6 134.2 521.2 521.2" xml:space="preserve">
<g>
	<path fill="#FFFFFF" d="M279,369l-68.5,122.9l122.9-68.5l68.5-122.9L279,369z M306.2,418.1c-12.1,0-22-9.8-22-22
		c0-12.1,9.8-22,22-22c12.1,0,22,9.8,22,22C328.1,408.3,318.3,418.1,306.2,418.1z"/>
	<path fill="#FFFFFF" d="M306.2,178.8c-120,0-217.3,97.4-217.3,217.3s97.4,217.3,217.3,217.3s217.3-97.4,217.3-217.3
		S426.1,178.8,306.2,178.8z M321.9,567.9c3.9-3.9,6.2-9.5,6.2-15.4c0-12.1-9.8-22-22-22s-22,9.8-22,22c0,5.9,2.3,11.5,6.2,15.4
		c-82.6-7.5-148.5-73.4-156-156c3.9,3.9,9.5,6.2,15.4,6.2c12.1,0,22-9.8,22-22s-9.8-22-22-22c-5.9,0-11.5,2.3-15.4,6.2
		c7.5-82.6,73.4-148.5,156-156c-3.9,3.9-6.2,9.5-6.2,15.4c0,12.1,9.8,22,22,22s22-9.8,22-22c0-5.9-2.3-11.5-6.2-15.4
		c82.6,7.5,148.5,73.4,156,156c-3.9-3.9-9.5-6.2-15.4-6.2c-12.1,0-22,9.8-22,22s9.8,22,22,22c5.9,0,11.5-2.3,15.4-6.2
		C470.4,494.5,404.5,560.4,321.9,567.9z"/>
</g>
<g>
	<g>
		<path fill="none" d="M305.2,134.2c-143.9,0-260.6,116.7-260.6,260.6s116.7,260.6,260.6,260.6s260.6-116.7,260.6-260.6
			S449.1,134.2,305.2,134.2z"/>
	</g>
</g>
</svg>
