<?xml version="1.0" encoding="utf-8"?>
<!-- Generator: Adobe Illustrator 18.1.1, SVG Export Plug-In . SVG Version: 6.00 Build 0)  -->
<svg version="1.1" id="geometry" xmlns="http://www.w3.org/2000/svg" xmlns:xlink="http://www.w3.org/1999/xlink" x="0px" y="0px"
	 viewBox="44.8 134.7 520.6 521" enable-background="new 44.8 134.7 520.6 521" xml:space="preserve">
<path fill="#FFFFFF" d="M349.7,215.6c48.1,0,87.4,39.3,87.4,87.4s-39.3,87.4-87.4,87.4c-2.3,0-4.9,0-7.2-0.3l10.2-31.1l-90-65.5
	C267.2,250,304.5,215.6,349.7,215.6z M107.7,362.9l116.6-84.8l28.2,20.3l4.9,3.6l4.9,3.6l78.9,57.3l-8.5,25.9l-1.6,4.6l-0.7,1.6
	h-11.8h-18.7h-6.2l-2.3,5.9l-49.1,99.2h-90L107.7,362.9z M429.3,558.4L429.3,558.4h-205l23.9-48.8l2.3-4.9l2.3-4.9l46.8-95h27.2h5.2
	h5.2h167.3L429.3,558.4z"/>
<path fill="none" d="M305.5,134.7c-144.1,0-260.6,116.6-260.6,260.6c0,143.7,116.6,260.3,260.3,260.3s260.3-116.6,260.3-260.3
	C565.8,251.3,449.2,134.7,305.5,134.7z"/>
</svg>
