<?xml version="1.0" encoding="utf-8"?>
<!-- Generator: Adobe Illustrator 18.1.1, SVG Export Plug-In . SVG Version: 6.00 Build 0)  -->
<svg version="1.1" id="Layer_4_copy" xmlns="http://www.w3.org/2000/svg" xmlns:xlink="http://www.w3.org/1999/xlink" x="0px"
	 y="0px" viewBox="44.8 134.7 520.6 521" enable-background="new 44.8 134.7 520.6 521" xml:space="preserve">
<g>
	<path fill="#FFFFFF" d="M164.6,302.7l141.6-86.2l141.6,86.2l0,0c14.1,8.5,12.1,15.7-4.3,15.7H168.8
		C152.4,318.1,150.5,311.3,164.6,302.7z M387.1,334.2c0-3,2.3-5.2,5.2-5.2h36.7c3,0,5.2,2.3,5.2,5.2s-2.3,5.2-5.2,5.2V468h-36.7
		V339.5C389.4,339.5,387.1,337.2,387.1,334.2z M317.3,334.2c0-3,2.3-5.2,5.2-5.2h36.7c3,0,5.2,2.3,5.2,5.2s-2.3,5.2-5.2,5.2V468
		h-36.7V339.5C319.6,339.5,317.3,337.2,317.3,334.2z M247.5,334.2c0-3,2.3-5.2,5.2-5.2h36.7c3,0,5.2,2.3,5.2,5.2s-2.3,5.2-5.2,5.2
		V468h-36.7V339.5C249.8,339.5,247.5,337.2,247.5,334.2z M177.7,334.2c0-3,2.3-5.2,5.2-5.2h36.7c3,0,5.2,2.3,5.2,5.2
		s-2.3,5.2-5.2,5.2V468h-36.7V339.5C180,339.5,177.7,337.2,177.7,334.2z M463.8,526.6H148.2V506l22.3-29.2h271.4l22.3,29.2v20.7
		H463.8z"/>
</g>
<path fill="none" d="M305.5,134.7c-144.1,0-260.6,116.6-260.6,260.6c0,143.7,116.6,260.3,260.3,260.3s260.3-116.6,260.3-260.3
	C565.8,251.3,449.2,134.7,305.5,134.7z"/>
</svg>
