<svg xmlns="http://www.w3.org/2000/svg" viewBox="44.8 134.7 520.6 521" xmlns:v="https://vecta.io/nano"><path fill="#fff" d="M164.6 302.7l141.6-86.2 141.6 86.2h0c14.1 8.5 12.1 15.7-4.3 15.7H168.8c-16.4-.3-18.3-7.1-4.2-15.7zm222.5 31.5c0-3 2.3-5.2 5.2-5.2H429c3 0 5.2 2.3 5.2 5.2s-2.3 5.2-5.2 5.2V468h-36.7V339.5c-2.9 0-5.2-2.3-5.2-5.3zm-69.8 0c0-3 2.3-5.2 5.2-5.2h36.7c3 0 5.2 2.3 5.2 5.2s-2.3 5.2-5.2 5.2V468h-36.7V339.5c-2.9 0-5.2-2.3-5.2-5.3zm-69.8 0c0-3 2.3-5.2 5.2-5.2h36.7c3 0 5.2 2.3 5.2 5.2s-2.3 5.2-5.2 5.2V468h-36.7V339.5c-2.9 0-5.2-2.3-5.2-5.3zm-69.8 0c0-3 2.3-5.2 5.2-5.2h36.7c3 0 5.2 2.3 5.2 5.2s-2.3 5.2-5.2 5.2V468h-36.7V339.5c-2.9 0-5.2-2.3-5.2-5.3zm286.1 192.4H148.2V506l22.3-29.2h271.4l22.3 29.2v20.7h-.4z"/></svg>