<?xml version="1.0" encoding="utf-8"?>
<!-- Generator: Adobe Illustrator 18.1.1, SVG Export Plug-In . SVG Version: 6.00 Build 0)  -->
<svg version="1.1" id="Layer_3_copy" xmlns="http://www.w3.org/2000/svg" xmlns:xlink="http://www.w3.org/1999/xlink" x="0px"
	 y="0px" viewBox="44.8 134.7 520.6 521" enable-background="new 44.8 134.7 520.6 521" xml:space="preserve">
<path fill="#FFFFFF" d="M481,374.4c-1.6,0-3.6,0.3-5.2,0.7l-67.1-116.2c3.9-3.9,6.5-9.2,6.5-15.1c0-11.5-9.2-20.6-20.6-20.6
	c-9.5,0-17.7,6.5-20,15.4H239c-2.3-8.8-10.5-15.4-20-15.4c-11.5,0-20.6,9.2-20.6,20.6c0,5.9,2.3,11.1,5.9,14.7l-67.5,116.9
	c-1.6-0.3-3.3-0.7-5.2-0.7c-11.5,0-20.6,9.2-20.6,20.6s9.2,20.6,20.6,20.6c1.6,0,3.6-0.3,5.2-0.7l67.5,116.9
	c-3.6,3.9-5.9,9.2-5.9,14.7c0,11.5,9.2,20.6,20.6,20.6c9.5,0,17.7-6.5,20-15.4h134.9c2.3,8.8,10.5,15.4,20,15.4
	c11.5,0,20.6-9.2,20.6-20.6c0-5.9-2.3-11.1-5.9-14.7l67.5-116.9c1.6,0.3,3.3,0.7,5.2,0.7c11.5,0,20.6-9.2,20.3-21
	C501.7,383.6,492.5,374.4,481,374.4z M373.3,249.3l-52.4,30.1c-3.6-3.9-8.8-6.2-14.7-6.2c-5.9,0-10.8,2.3-14.7,5.9l-52.1-29.8H373.3
	z M326.1,390.1l53-31.4c2.3,2.6,5.6,4.6,9.2,5.6v78.3l-68.1,39.3c-2.3-2.3-4.9-3.9-8.2-4.9v-61.6c8.5-2.6,14.7-10.5,14.7-20
	C326.8,393.4,326.5,391.7,326.1,390.1z M373.9,349.2l-53,31.1c-3.9-3.6-9.2-5.9-14.7-5.9c-5.6,0-10.8,2.3-14.4,5.9L239,349.5
	c0.3-1.6,0.7-3.3,0.7-5.2c0-2-0.3-3.6-0.7-5.2l52.7-30.5c3.9,3.6,8.8,5.9,14.4,5.9c5.9,0,11.1-2.3,14.7-6.2l53,30.5
	c-0.3,1.6-0.7,3.6-0.7,5.6C373.3,345.9,373.6,347.5,373.9,349.2z M213.5,526.3l-67.1-116.2l67.1,38.6V526.3z M218.7,323.6
	c-11.5,0-20.6,9.2-20.6,20.6c0,9.5,6.5,17.7,15.4,20v72l-61.9-35.7c0.3-1.6,0.7-3.3,0.7-5.2c0-5.9-2.3-11.1-5.9-14.7L213.8,264
	c1.6,0.3,3.3,0.7,5.2,0.7c5.9,0,11.1-2.6,14.7-6.2l52.4,30.1c-0.3,1.6-0.7,3.3-0.7,5.2c0,2,0,3.9,0.7,5.6l-52.7,30.1
	C229.5,325.9,224.3,323.6,218.7,323.6z M224.3,364.2c3.6-1,6.5-2.9,9.2-5.2l52.4,30.8c-0.3,1.6-0.7,3.6-0.7,5.6
	c0,9.5,6.9,17.7,15.7,20v61.2c-3.6,1-6.5,2.6-9.2,4.9l-67.5-39V364.2z M388.7,526.3c-6.9,1.6-12.4,7.2-14.4,14.4H239.4
	c-1.6-6.9-7.2-12.4-14.4-14.4v-71.4l61.6,35.7c-0.7,2-1,3.9-1,5.9c0,11.5,9.2,20.6,20.6,20.6c11.5,0,20.6-9.2,20.6-20.6
	c0-2-0.3-3.9-0.7-5.9l62.5-36V526.3z M399.2,526.3v-77.6l67.1-38.6L399.2,526.3z M460.4,395.3c0,2,0.3,3.6,0.7,5.2l-61.9,35.4v-71.7
	c8.8-2.3,15.4-10.5,15.4-20c0-11.5-9.2-20.6-20.6-20.6c-5.6,0-10.8,2.3-14.4,5.9l-53.4-30.5c0.3-1.6,0.7-3.3,0.7-4.9
	c0-1.6-0.3-3.3-0.7-4.9l53.7-30.8c3.6,3.9,8.8,6.2,14.7,6.2c1.6,0,3.3-0.3,4.3-0.7l67.5,116.6C462.7,384.5,460.4,389.8,460.4,395.3z
	"/>
<path fill="none" d="M305.5,134.7c-144.1,0-260.6,116.6-260.6,260.6c0,143.7,116.6,260.3,260.3,260.3s260.3-116.6,260.3-260.3
	C565.8,251.3,449.2,134.7,305.5,134.7z"/>
</svg>
