<svg xmlns="http://www.w3.org/2000/svg" viewBox="44.8 134.7 520.6 521" xmlns:v="https://vecta.io/nano"><path fill="#fff" d="M481 374.4c-1.6 0-3.6.3-5.2.7l-67.1-116.2c3.9-3.9 6.5-9.2 6.5-15.1 0-11.5-9.2-20.6-20.6-20.6-9.5 0-17.7 6.5-20 15.4H239c-2.3-8.8-10.5-15.4-20-15.4-11.5 0-20.6 9.2-20.6 20.6 0 5.9 2.3 11.1 5.9 14.7l-67.5 116.9c-1.6-.3-3.3-.7-5.2-.7-11.5 0-20.6 9.2-20.6 20.6s9.2 20.6 20.6 20.6c1.6 0 3.6-.3 5.2-.7l67.5 116.9c-3.6 3.9-5.9 9.2-5.9 14.7 0 11.5 9.2 20.6 20.6 20.6 9.5 0 17.7-6.5 20-15.4h134.9c2.3 8.8 10.5 15.4 20 15.4 11.5 0 20.6-9.2 20.6-20.6 0-5.9-2.3-11.1-5.9-14.7l67.5-116.9c1.6.3 3.3.7 5.2.7 11.5 0 20.6-9.2 20.3-21 .1-11.3-9.1-20.5-20.6-20.5zM373.3 249.3l-52.4 30.1c-3.6-3.9-8.8-6.2-14.7-6.2s-10.8 2.3-14.7 5.9l-52.1-29.8h133.9zm-47.2 140.8l53-31.4c2.3 2.6 5.6 4.6 9.2 5.6v78.3l-68.1 39.3a18.97 18.97 0 0 0-8.2-4.9v-61.6c8.5-2.6 14.7-10.5 14.7-20 .1-2-.2-3.7-.6-5.3zm47.8-40.9l-53 31.1c-3.9-3.6-9.2-5.9-14.7-5.9-5.6 0-10.8 2.3-14.4 5.9L239 349.5c.3-1.6.7-3.3.7-5.2 0-2-.3-3.6-.7-5.2l52.7-30.5c3.9 3.6 8.8 5.9 14.4 5.9 5.9 0 11.1-2.3 14.7-6.2l53 30.5c-.3 1.6-.7 3.6-.7 5.6.2 1.5.5 3.1.8 4.8zM213.5 526.3l-67.1-116.2 67.1 38.6v77.6zm5.2-202.7c-11.5 0-20.6 9.2-20.6 20.6 0 9.5 6.5 17.7 15.4 20v72l-61.9-35.7c.3-1.6.7-3.3.7-5.2 0-5.9-2.3-11.1-5.9-14.7L213.8 264c1.6.3 3.3.7 5.2.7 5.9 0 11.1-2.6 14.7-6.2l52.4 30.1c-.3 1.6-.7 3.3-.7 5.2 0 2 0 3.9.7 5.6l-52.7 30.1c-3.9-3.6-9.1-5.9-14.7-5.9zm5.6 40.6c3.6-1 6.5-2.9 9.2-5.2l52.4 30.8c-.3 1.6-.7 3.6-.7 5.6 0 9.5 6.9 17.7 15.7 20v61.2c-3.6 1-6.5 2.6-9.2 4.9l-67.5-39v-78.3zm164.4 162.1c-6.9 1.6-12.4 7.2-14.4 14.4H239.4c-1.6-6.9-7.2-12.4-14.4-14.4v-71.4l61.6 35.7a17.42 17.42 0 0 0-1 5.9c0 11.5 9.2 20.6 20.6 20.6 11.5 0 20.6-9.2 20.6-20.6 0-2-.3-3.9-.7-5.9l62.5-36v71.7zm10.5 0v-77.6l67.1-38.6-67.1 116.2zm61.2-131c0 2 .3 3.6.7 5.2l-61.9 35.4v-71.7c8.8-2.3 15.4-10.5 15.4-20 0-11.5-9.2-20.6-20.6-20.6-5.6 0-10.8 2.3-14.4 5.9L326.2 299c.3-1.6.7-3.3.7-4.9s-.3-3.3-.7-4.9l53.7-30.8c3.6 3.9 8.8 6.2 14.7 6.2 1.6 0 3.3-.3 4.3-.7l67.5 116.6c-3.7 4-6 9.3-6 14.8z"/></svg>