<svg xmlns="http://www.w3.org/2000/svg" viewBox="44.8 134.7 520.6 521" xmlns:v="https://vecta.io/nano"><path fill="#eef4fb" d="M280.3 392.6c2.6 3 4.9 7.2 8.2 7.9 2.3.7 5.9-3.6 11.1-7.2-4.9-3.9-7.9-8.2-10.2-7.9-3.2.6-6.2 4.5-9.1 7.2z"/><path fill="#fff" d="M157.7 472.9c-25.2-8.5-31.5-31.5-36.4-56.7 3.6 3.3 5.9 5.6 8.2 7.5 16.7 13.4 38.4 7.2 41.6-13.8 2.6-15.4 1.6-32.1-1-47.5-4.3-26.6-9.8-52.4-8.5-79.7 2-44.3 24.6-68.2 69.2-71.1 7.2-.3 14.8-.3 22-1.3 2.6-.3 4.9-3 7.5-4.6-2.3-2-4.3-4.9-6.9-5.9-3.9-1-8.5-.7-12.8-.7 5.9-13.8 21.6-19.3 37.7-11.1 11.5 5.9 20.7 5.6 32.5 0 24.3-11.8 53.8-3.9 69.8 16.7 18 22.9 19.7 58 4.3 78.7-4.6 6.2-8.9 8.9-17.4 7.2-18.4-3-37-3.9-55.7-5.6-5.2-33.8-28.2-41.6-56.1-31.5 30.5 4.6 40.3 13.4 39 35.4-6.6 3.9-11.1 3.3-17-3-20.3-21-36.7-20.7-58-1-4.6 4.3-11.1 6.2-17 9.8 3 5.9 9.5 4.6 16.7 3 10.5-2.3 20.7-4.6 31.5-5.2 4.6-.3 9.8 2.6 17.4 5.2-32.5 17-52.1 40.3-61.6 71.1-9.5 31.1-3.6 61 11.5 90.5-18.6 15.9-39.2 20.8-60.5 13.6zm69.5 100.6c5.2-10.2 9.5-20 15.1-29.2 1.3-2 6.9-3 9.8-2.3l120.6 24.6c16.1 3.3 20.3 8.5 27.2 32.8l-172.7-25.9zM415 497.8c-13.8-6.2-27.2-10.2-38.4-17.4-24.9-15.7-48.5-33.1-72.8-49.5-3-2-6.2-3.6-9.5-3.9-1.6 0-5.2 3.3-5.2 4.9.3 3.3 1.6 7.5 3.9 9.2l84.6 57c4.3 3 9.5 4.6 15.1 7.5-9.5 6.6-26.2 4.6-26.6 18.4-.3 9.8 6.2 20 9.8 30.2L252 528.3l-5.6-52.1c-.7-4.9-3.3-10.2-6.2-14.4-22.3-30.5-30.2-63.6-15.1-99 15.1-35.7 44.6-54.1 82.3-59.7 49.2-7.2 89.8 9.2 124.6 47.5l-61.3 17-57.4 16.1c-2 8.9-3.3 16.4-5.6 25.9 32.1 28.8 71.5 49.5 120 59.7-15.7 5.2-11.7 16.4-12.7 28.5zm-28.5-119l20.3-5.9c3.9 13.4 9.5 26.6 11.1 40 .7 6.9-5.6 14.4-9.2 21.3-8.9 16.4-8.9 16.1-27.2 5.9 17.1-18.7 17.4-39.3 5-61.3zm-30.8 8.8c7.2-2.3 13.1-3.9 18.7-5.6 12.5 19 7.5 35.4-6.2 52.1l-16.7-9.5c7.1-11.7 13-23.2 4.2-37zm-16.1 29.2c-5.9-6.2-19-7.2-13.4-21l17.4-4.9c4.8 10.8 4.5 12.1-4 25.9zm113.1 7.2c-3.3 7.5-8.2 14.4-11.5 22.3-3.6 8.2-8.2 11.5-17 7.9-2.3-1-5.2-1-9.5-2l15.4-29.2c3.6-6.2 4.6-11.8 2-18.7-4.3-11.5-7.2-23.3-10.8-36.1 6.6-2.3 12.5-3.9 19.3-6.2 4.9 17 10.2 33.1 14.4 49.5 1 4-.7 8.9-2.3 12.5z"/></svg>