<?xml version="1.0" encoding="utf-8"?>
<!-- Generator: Adobe Illustrator 18.1.1, SVG Export Plug-In . SVG Version: 6.00 Build 0)  -->
<svg version="1.1" id="Layer_4_copy" xmlns="http://www.w3.org/2000/svg" xmlns:xlink="http://www.w3.org/1999/xlink" x="0px"
	 y="0px" viewBox="44.8 134.7 520.6 521" enable-background="new 44.8 134.7 520.6 521" xml:space="preserve">
<g>
	<g>
		<path fill="#EEF4FB" d="M280.3,392.6c2.6,3,4.9,7.2,8.2,7.9c2.3,0.7,5.9-3.6,11.1-7.2c-4.9-3.9-7.9-8.2-10.2-7.9
			C286.2,386,283.2,389.9,280.3,392.6z"/>
		<path fill="#FFFFFF" d="M157.7,472.9c-25.2-8.5-31.5-31.5-36.4-56.7c3.6,3.3,5.9,5.6,8.2,7.5c16.7,13.4,38.4,7.2,41.6-13.8
			c2.6-15.4,1.6-32.1-1-47.5c-4.3-26.6-9.8-52.4-8.5-79.7c2-44.3,24.6-68.2,69.2-71.1c7.2-0.3,14.8-0.3,22-1.3
			c2.6-0.3,4.9-3,7.5-4.6c-2.3-2-4.3-4.9-6.9-5.9c-3.9-1-8.5-0.7-12.8-0.7c5.9-13.8,21.6-19.3,37.7-11.1c11.5,5.9,20.7,5.6,32.5,0
			c24.3-11.8,53.8-3.9,69.8,16.7c18,22.9,19.7,58,4.3,78.7c-4.6,6.2-8.9,8.9-17.4,7.2c-18.4-3-37-3.9-55.7-5.6
			c-5.2-33.8-28.2-41.6-56.1-31.5c30.5,4.6,40.3,13.4,39,35.4c-6.6,3.9-11.1,3.3-17-3c-20.3-21-36.7-20.7-58-1
			c-4.6,4.3-11.1,6.2-17,9.8c3,5.9,9.5,4.6,16.7,3c10.5-2.3,20.7-4.6,31.5-5.2c4.6-0.3,9.8,2.6,17.4,5.2
			c-32.5,17-52.1,40.3-61.6,71.1c-9.5,31.1-3.6,61,11.5,90.5C199.6,475.2,179,480.1,157.7,472.9z M227.2,573.5
			c5.2-10.2,9.5-20,15.1-29.2c1.3-2,6.9-3,9.8-2.3c40.3,7.9,80.6,16.4,120.6,24.6c16.1,3.3,20.3,8.5,27.2,32.8
			C342.9,590.9,285.8,582.4,227.2,573.5z M415,497.8c-13.8-6.2-27.2-10.2-38.4-17.4c-24.9-15.7-48.5-33.1-72.8-49.5
			c-3-2-6.2-3.6-9.5-3.9c-1.6,0-5.2,3.3-5.2,4.9c0.3,3.3,1.6,7.5,3.9,9.2c27.9,19.3,56.4,38.4,84.6,57c4.3,3,9.5,4.6,15.1,7.5
			c-9.5,6.6-26.2,4.6-26.6,18.4c-0.3,9.8,6.2,20,9.8,30.2c-40.6-8.5-82.9-17.4-123.9-25.9c-2-18.4-3.3-35.4-5.6-52.1
			c-0.7-4.9-3.3-10.2-6.2-14.4c-22.3-30.5-30.2-63.6-15.1-99c15.1-35.7,44.6-54.1,82.3-59.7c49.2-7.2,89.8,9.2,124.6,47.5
			c-21.6,5.9-41.6,11.5-61.3,17c-20,5.6-39.7,11.1-57.4,16.1c-2,8.9-3.3,16.4-5.6,25.9c32.1,28.8,71.5,49.5,120,59.7
			C412,474.5,416,485.7,415,497.8z M386.5,378.8c8.2-2.3,13.4-3.9,20.3-5.9c3.9,13.4,9.5,26.6,11.1,40c0.7,6.9-5.6,14.4-9.2,21.3
			c-8.9,16.4-8.9,16.1-27.2,5.9C398.6,421.4,398.9,400.8,386.5,378.8z M355.7,387.6c7.2-2.3,13.1-3.9,18.7-5.6
			c12.5,19,7.5,35.4-6.2,52.1c-5.2-3-10.5-5.9-16.7-9.5C358.6,412.9,364.5,401.4,355.7,387.6z M339.6,416.8c-5.9-6.2-19-7.2-13.4-21
			c5.6-1.6,11.5-3.3,17.4-4.9C348.4,401.7,348.1,403,339.6,416.8z M452.7,424c-3.3,7.5-8.2,14.4-11.5,22.3c-3.6,8.2-8.2,11.5-17,7.9
			c-2.3-1-5.2-1-9.5-2c5.6-10.5,10.2-20,15.4-29.2c3.6-6.2,4.6-11.8,2-18.7c-4.3-11.5-7.2-23.3-10.8-36.1c6.6-2.3,12.5-3.9,19.3-6.2
			c4.9,17,10.2,33.1,14.4,49.5C456,415.5,454.3,420.4,452.7,424z"/>
	</g>
</g>
<path fill="none" d="M305.5,134.7c-144.1,0-260.6,116.6-260.6,260.6c0,143.7,116.6,260.3,260.3,260.3s260.3-116.6,260.3-260.3
	C565.8,251.3,449.2,134.7,305.5,134.7z"/>
</svg>
