<svg xmlns="http://www.w3.org/2000/svg" viewBox="44.8 134.7 520.6 521" xmlns:v="https://vecta.io/nano"><path fill="#fff" d="M464.8 247c-43.3 23.6-99 37.7-158.7 37.7s-115-14.1-158.6-37.7c-6.6 44.3-6.6 90.5.3 135.4 19 126.9 88.2 209.1 158.3 209.1s139.3-82.3 158.3-209.1c6.6-44.9 6.6-91.1.4-135.4zm-102.3 94.1c19.3 0 35.1 13.8 35.1 31.1 0 3.9-1 7.5-2.3 10.8-7.5-8.2-19.3-13.4-32.8-13.4-13.1 0-25.2 5.2-32.8 13.4-1.6-3.3-2.3-6.9-2.3-10.8.1-17 15.8-31.1 35.1-31.1zm-113 0c19.3 0 35.1 13.8 35.1 31.1 0 3.9-1 7.5-2.3 10.8-7.5-8.2-19.3-13.4-32.8-13.4-13.4 0-25.2 5.2-32.8 13.4-1.6-3.3-2.3-6.9-2.3-10.8 0-17 15.7-31.1 35.1-31.1zm56.7 214.4c-39 0-84.2-42.6-116.4-123.6 31.1 33.8 71.8 54.1 116.4 54.1 44.3 0 84.9-20.3 116.4-54.1-32.2 81-77.4 123.6-116.4 123.6z"/></svg>