<?xml version="1.0" encoding="utf-8"?>
<!-- Generator: Adobe Illustrator 18.1.1, SVG Export Plug-In . SVG Version: 6.00 Build 0)  -->
<svg version="1.1" id="Layer_4_copy" xmlns="http://www.w3.org/2000/svg" xmlns:xlink="http://www.w3.org/1999/xlink" x="0px"
	 y="0px" viewBox="44.8 134.7 520.6 521" enable-background="new 44.8 134.7 520.6 521" xml:space="preserve">
<path fill="#FFFFFF" d="M464.8,247c-43.3,23.6-99,37.7-158.7,37.7S191.1,270.6,147.5,247c-6.6,44.3-6.6,90.5,0.3,135.4
	c19,126.9,88.2,209.1,158.3,209.1s139.3-82.3,158.3-209.1C471,337.5,471,291.3,464.8,247z M362.5,341.1c19.3,0,35.1,13.8,35.1,31.1
	c0,3.9-1,7.5-2.3,10.8c-7.5-8.2-19.3-13.4-32.8-13.4c-13.1,0-25.2,5.2-32.8,13.4c-1.6-3.3-2.3-6.9-2.3-10.8
	C327.5,355.2,343.2,341.1,362.5,341.1z M249.5,341.1c19.3,0,35.1,13.8,35.1,31.1c0,3.9-1,7.5-2.3,10.8c-7.5-8.2-19.3-13.4-32.8-13.4
	c-13.4,0-25.2,5.2-32.8,13.4c-1.6-3.3-2.3-6.9-2.3-10.8C214.4,355.2,230.1,341.1,249.5,341.1z M306.2,555.5
	c-39,0-84.2-42.6-116.4-123.6c31.1,33.8,71.8,54.1,116.4,54.1c44.3,0,84.9-20.3,116.4-54.1C390.4,512.9,345.2,555.5,306.2,555.5z"/>
<path fill="none" d="M305.5,134.7c-144.1,0-260.6,116.6-260.6,260.6c0,143.7,116.6,260.3,260.3,260.3s260.3-116.6,260.3-260.3
	C565.8,251.3,449.2,134.7,305.5,134.7z"/>
</svg>
