<svg xmlns="http://www.w3.org/2000/svg" viewBox="44.8 134.7 520.6 521" xmlns:v="https://vecta.io/nano"><path fill="#fff" d="M480.7 375.4c0-78.3-75.6-141.8-169-141.8s-169.3 63.5-169.3 142.1c0 78.3 76 141.8 169 141.8 16.7 0 32.7-2 47.8-5.9 24.9 30.1 60.3 38 60.3 38-10.2-22.6-14.4-40.6-15.7-55.7 46.4-24.9 76.9-68.8 76.9-118.5zM225 343.9c.3 1.3 0 2.3-.3 3.3s-1 1.3-2 1.6h-3.3c-1.3 0-2.6-.3-3.3-.3-9.2-.3-14.7.3-17.4 1.3v3.9 7.5 7.5h2.6c7.2 0 11.5.3 12.8 1.3.7.3 1.3 1.3 1.6 2.3 0 3.3 0 5.2-1.3 5.6-1.3.3-2.6.7-4.6.7h-5.9-5.6c0 2.3-.3 3.9-.3 4.9-.3 1-.3 3.3-.3 6.9v7.2c.3 1.3.7 2.3 1.6 2.6 1 .3 3.9.7 8.5.3 4.6 0 7.5-.3 8.5-.7.7-.3 2-.7 3.3-.7s2.3.3 2.6 1c.7.7 1 1.3 1.3 2.3s.3 2 .3 2.6c0 1.6-1.3 3.3-3.9 4.3-2 .7-4.6 1-8.2 1h-6.5c-3.9.3-7.2.3-9.5 0-2.3 0-4.3-.7-5.2-1.6-1-1-1.6-3.9-2-8.2V397c0-5.2.3-11.5.7-18.3-1-3.3-1-5.6-.3-7.5.7-2 1-5.6 1-11.1-.3-5.6-.3-8.2-.7-8.5-.3 0-.7-.7-1-1.3-.3-.7-.7-2-.7-4.3s1.3-3.6 3.6-4.3c2.6-.7 5.9-1.3 9.8-1.6 4.3-.3 8.2-.7 11.8-.7s6.5 0 8.5.3 3.3 1 3.9 2 1.2 2.2-.1 2.2zm52.3 4.6c-.3.7-.7 1-1.6 1.3-1 .3-2.3.3-4.6 0-2 0-3.9-.3-5.9-.3h-4.6v2.6 7.9 14.7 12.1c0 7.9 0 12.8.7 14.7.7 1.6.7 3.6 0 5.6-1 2-2.9 2.9-5.6 3.3-2.9.7-4.9-1.3-5.2-5.6.3-2.9.3-5.6.3-8.2.3-4.6.3-9.8.3-15.1v-13.4V353v-2.9c-3.3.3-6.9.7-10.5 1.6-3.9 1-6.2 1-7.2.3-1-1-1.6-2.3-2-4.6 0-1.3.3-2.3 1-2.9 1-.7 2-1.3 3.9-2 7.2-2 15.1-2.9 23.6-2.9 3.9 0 7.9 0 11.1.3s5.2 1 5.6 2c.3 1 .7 2.3.7 3.3.4 1.7.4 2.7 0 3.3zm74.1 0c-.3.7-.7 1-1.6 1.3-1 .3-2.3.3-4.6 0-2 0-3.9-.3-5.9-.3h-4.6v2.6 7.9 14.7 12.1c0 7.9 0 12.8.7 14.7.7 1.6.7 3.6 0 5.6-1 2-2.9 2.9-5.6 3.3-2.9.7-4.9-1.3-5.2-5.6.3-2.9.3-5.6.3-8.2.3-4.6.3-9.8.3-15.1v-13.4V353v-2.9c-3.3.3-6.9.7-10.5 1.6-3.9 1-6.2 1-7.2.3-1-1-1.6-2.3-2-4.6 0-1.3.3-2.3 1-2.9 1-.7 2-1.3 3.9-2 7.2-2 15.1-2.9 23.6-2.9 3.9 0 7.9 0 11.1.3 3.3.3 5.2 1 5.6 2 .7 1 1 2.3.7 3.3.3 1.7.3 2.7 0 3.3zm49.4 20.3c-.7 11.1-1.6 19.3-2.9 24.6-1.6 5.2-3.6 9.5-6.5 12.8s-7.2 5.2-12.4 5.2c-5.2.3-9.5-1.3-12.1-4.6-2.9-2.9-4.9-6.9-5.9-11.1-1-3.3-1.6-7.2-2.3-11.8-1-11.1-1.3-19-1.3-24.2s.3-8.8.3-10.8c.3-2.6.7-4.6 1.3-5.9s2.3-2 4.3-2c1 0 2 .3 2.6.7.7.3 1.3 1 2 2.3.3 1.3.7 2.9.3 4.6-.3 1.6-.7 3.9-.7 6.9 0 8.8 0 17 .7 24.2 1 10.2 2.9 16.7 5.9 20 1.6 1.6 3.6 2.3 6.2 2 3.9-.7 6.9-4.3 8.8-11.5 1.6-8.8 2.6-20.3 2.6-34.1-1-5.6-1.3-9.5-.7-12.1.3-1.3 1-2.3 1.6-2.9 1-.7 2.3-1 3.3-1 1.3.3 2.3 1.3 3.3 2.6s1.6 2.9 1.6 4.6c.3 3.2.7 10.4 0 21.5zm31.8 36.4c0 2-.7 3.3-1.6 4.3s-2.3 1.3-3.9 1.3c-.7 0-1.3-.3-2-.3s-1.3-.3-2-.7c-.7-.3-1.3-1-1.6-1.6-.3-.7-.7-1.6-.7-2.9 0-2.6.7-4.6 2-5.6s2.6-1.6 3.9-1.6c1 0 2 .3 2.9.7 1 .3 1.6.7 2 1.3.3.7.7 1.3.7 2 .3.7.3 1.3.3 2v1.1zm-3-18.4c0 1.3-.7 2.3-1.3 3.3-.7 1-1.6 1.3-2.9 1.3-3.6 0-5.2-2.3-5.2-7.2 0-1.6.3-3.6 1-4.9s1.6-3.3 2.9-5.2c1-1.6 2.3-2.9 3.9-4.3l4.9-3.9c1.6-1.3 2.9-2.6 4.3-3.9 1.3-1.3 2-2.9 2-4.6v-1c0-1 0-2.3-.3-3.3-.3-1.3-.7-2.3-1.3-3.3s-1.3-2-2.6-2.6c-1-.7-2.6-1-4.6-1-1.3 0-2.6 0-3.9.7s-2.6 1.6-3.9 2.6-2 2.3-2.6 3.3-1 2-1.6 2.9c-.7 1-1.3 1.6-2 2.3s-1.6 1-2.9 1c-1.6 0-2.6-.3-3.3-1s-1.3-1.3-1.6-2l-.7-1.6c-.3-.7-.3-1-.3-1.3 0-1 .7-2.3 1.3-3.3l2.3-2.9c2.6-3.3 5.9-5.9 9.5-7.5s7.2-2.6 10.5-2.6c2.3 0 3.6.7 5.9 1.6 2.3 1 3.9 2.3 5.6 3.6 1.6 1.3 2.9 3.3 3.9 5.2 1 2 1.6 4.3 2 6.5 0 4.3-.7 7.9-2 10.8-1.3 3.3-3.6 5.6-6.5 7.9-6.6 4.3-9.8 8.9-10.5 14.4z"/></svg>