<?xml version="1.0" encoding="utf-8"?>
<!-- Generator: Adobe Illustrator 18.1.1, SVG Export Plug-In . SVG Version: 6.00 Build 0)  -->
<svg version="1.1" id="TEXT_copy" xmlns="http://www.w3.org/2000/svg" xmlns:xlink="http://www.w3.org/1999/xlink" x="0px" y="0px"
	 viewBox="44.8 134.7 520.6 521" enable-background="new 44.8 134.7 520.6 521" xml:space="preserve">
<path fill="#FFFFFF" d="M480.7,375.4c0-78.3-75.6-141.8-169-141.8s-169.3,63.5-169.3,142.1c0,78.3,76,141.8,169,141.8
	c16.7,0,32.7-2,47.8-5.9c24.9,30.1,60.3,38,60.3,38c-10.2-22.6-14.4-40.6-15.7-55.7C450.2,469,480.7,425.1,480.7,375.4z M225,343.9
	c0.3,1.3,0,2.3-0.3,3.3c-0.3,1-1,1.3-2,1.6c-1,0-2,0-3.3,0s-2.6-0.3-3.3-0.3c-9.2-0.3-14.7,0.3-17.4,1.3c0,1,0,2.3,0,3.9
	c0,1.6,0,3.9,0,7.5s0,5.9,0,7.5c1,0,2,0,2.6,0c7.2,0,11.5,0.3,12.8,1.3c0.7,0.3,1.3,1.3,1.6,2.3c0,3.3,0,5.2-1.3,5.6
	c-1.3,0.3-2.6,0.7-4.6,0.7c-2,0-3.9,0-5.9,0c-2,0-3.9,0-5.6,0c0,2.3-0.3,3.9-0.3,4.9c-0.3,1-0.3,3.3-0.3,6.9s0,5.9,0,7.2
	c0.3,1.3,0.7,2.3,1.6,2.6c1,0.3,3.9,0.7,8.5,0.3c4.6,0,7.5-0.3,8.5-0.7c0.7-0.3,2-0.7,3.3-0.7s2.3,0.3,2.6,1c0.7,0.7,1,1.3,1.3,2.3
	s0.3,2,0.3,2.6c0,1.6-1.3,3.3-3.9,4.3c-2,0.7-4.6,1-8.2,1c-0.3,0-2.3,0-6.5,0c-3.9,0.3-7.2,0.3-9.5,0c-2.3,0-4.3-0.7-5.2-1.6
	c-1-1-1.6-3.9-2-8.2V397c0-5.2,0.3-11.5,0.7-18.3c-1-3.3-1-5.6-0.3-7.5c0.7-2,1-5.6,1-11.1c-0.3-5.6-0.3-8.2-0.7-8.5
	c-0.3,0-0.7-0.7-1-1.3c-0.3-0.7-0.7-2-0.7-4.3c0-2.3,1.3-3.6,3.6-4.3c2.6-0.7,5.9-1.3,9.8-1.6c4.3-0.3,8.2-0.7,11.8-0.7
	s6.5,0,8.5,0.3c2,0.3,3.3,1,3.9,2S226.3,343.9,225,343.9z M277.3,348.5c-0.3,0.7-0.7,1-1.6,1.3c-1,0.3-2.3,0.3-4.6,0
	c-2,0-3.9-0.3-5.9-0.3c-1.6,0-3.3,0-4.6,0c0,1,0,1.6,0,2.6s0,3.6,0,7.9s0,9.2,0,14.7c0,5.2,0,9.5,0,12.1c0,7.9,0,12.8,0.7,14.7
	c0.7,1.6,0.7,3.6,0,5.6c-1,2-2.9,2.9-5.6,3.3c-2.9,0.7-4.9-1.3-5.2-5.6c0.3-2.9,0.3-5.6,0.3-8.2c0.3-4.6,0.3-9.8,0.3-15.1
	c0-5.6,0-9.8,0-13.4c0-3.3,0-8.5,0-15.1c0-1,0-2,0-2.9c-3.3,0.3-6.9,0.7-10.5,1.6c-3.9,1-6.2,1-7.2,0.3c-1-1-1.6-2.3-2-4.6
	c0-1.3,0.3-2.3,1-2.9c1-0.7,2-1.3,3.9-2c7.2-2,15.1-2.9,23.6-2.9c3.9,0,7.9,0,11.1,0.3s5.2,1,5.6,2c0.3,1,0.7,2.3,0.7,3.3
	C277.7,346.9,277.7,347.9,277.3,348.5z M351.4,348.5c-0.3,0.7-0.7,1-1.6,1.3c-1,0.3-2.3,0.3-4.6,0c-2,0-3.9-0.3-5.9-0.3
	c-1.6,0-3.3,0-4.6,0c0,1,0,1.6,0,2.6s0,3.6,0,7.9s0,9.2,0,14.7c0,5.2,0,9.5,0,12.1c0,7.9,0,12.8,0.7,14.7c0.7,1.6,0.7,3.6,0,5.6
	c-1,2-2.9,2.9-5.6,3.3c-2.9,0.7-4.9-1.3-5.2-5.6c0.3-2.9,0.3-5.6,0.3-8.2c0.3-4.6,0.3-9.8,0.3-15.1c0-5.6,0-9.8,0-13.4
	c0-3.3,0-8.5,0-15.1c0-1,0-2,0-2.9c-3.3,0.3-6.9,0.7-10.5,1.6c-3.9,1-6.2,1-7.2,0.3c-1-1-1.6-2.3-2-4.6c0-1.3,0.3-2.3,1-2.9
	c1-0.7,2-1.3,3.9-2c7.2-2,15.1-2.9,23.6-2.9c3.9,0,7.9,0,11.1,0.3c3.3,0.3,5.2,1,5.6,2c0.7,1,1,2.3,0.7,3.3
	C351.7,346.9,351.7,347.9,351.4,348.5z M400.8,368.8c-0.7,11.1-1.6,19.3-2.9,24.6c-1.6,5.2-3.6,9.5-6.5,12.8
	c-2.9,3.3-7.2,5.2-12.4,5.2c-5.2,0.3-9.5-1.3-12.1-4.6c-2.9-2.9-4.9-6.9-5.9-11.1c-1-3.3-1.6-7.2-2.3-11.8c-1-11.1-1.3-19-1.3-24.2
	c0-5.2,0.3-8.8,0.3-10.8c0.3-2.6,0.7-4.6,1.3-5.9s2.3-2,4.3-2c1,0,2,0.3,2.6,0.7c0.7,0.3,1.3,1,2,2.3c0.3,1.3,0.7,2.9,0.3,4.6
	c-0.3,1.6-0.7,3.9-0.7,6.9c0,8.8,0,17,0.7,24.2c1,10.2,2.9,16.7,5.9,20c1.6,1.6,3.6,2.3,6.2,2c3.9-0.7,6.9-4.3,8.8-11.5
	c1.6-8.8,2.6-20.3,2.6-34.1c-1-5.6-1.3-9.5-0.7-12.1c0.3-1.3,1-2.3,1.6-2.9c1-0.7,2.3-1,3.3-1c1.3,0.3,2.3,1.3,3.3,2.6
	c1,1.3,1.6,2.9,1.6,4.6C401.1,350.5,401.5,357.7,400.8,368.8z M432.6,405.2c0,2-0.7,3.3-1.6,4.3s-2.3,1.3-3.9,1.3
	c-0.7,0-1.3-0.3-2-0.3c-0.7,0-1.3-0.3-2-0.7c-0.7-0.3-1.3-1-1.6-1.6c-0.3-0.7-0.7-1.6-0.7-2.9c0-2.6,0.7-4.6,2-5.6
	c1.3-1,2.6-1.6,3.9-1.6c1,0,2,0.3,2.9,0.7c1,0.3,1.6,0.7,2,1.3c0.3,0.7,0.7,1.3,0.7,2c0.3,0.7,0.3,1.3,0.3,2
	C432.6,404.5,432.6,404.8,432.6,405.2z M429.6,386.8c0,1.3-0.7,2.3-1.3,3.3c-0.7,1-1.6,1.3-2.9,1.3c-3.6,0-5.2-2.3-5.2-7.2
	c0-1.6,0.3-3.6,1-4.9c0.7-1.3,1.6-3.3,2.9-5.2c1-1.6,2.3-2.9,3.9-4.3c1.6-1.3,3.3-2.6,4.9-3.9c1.6-1.3,2.9-2.6,4.3-3.9
	c1.3-1.3,2-2.9,2-4.6v-1c0-1,0-2.3-0.3-3.3c-0.3-1.3-0.7-2.3-1.3-3.3s-1.3-2-2.6-2.6c-1-0.7-2.6-1-4.6-1c-1.3,0-2.6,0-3.9,0.7
	c-1.3,0.7-2.6,1.6-3.9,2.6c-1.3,1-2,2.3-2.6,3.3s-1,2-1.6,2.9c-0.7,1-1.3,1.6-2,2.3c-0.7,0.7-1.6,1-2.9,1c-1.6,0-2.6-0.3-3.3-1
	c-0.7-0.7-1.3-1.3-1.6-2l-0.7-1.6c-0.3-0.7-0.3-1-0.3-1.3c0-1,0.7-2.3,1.3-3.3l2.3-2.9c2.6-3.3,5.9-5.9,9.5-7.5
	c3.6-1.6,7.2-2.6,10.5-2.6c2.3,0,3.6,0.7,5.9,1.6c2.3,1,3.9,2.3,5.6,3.6c1.6,1.3,2.9,3.3,3.9,5.2c1,2,1.6,4.3,2,6.5
	c0,4.3-0.7,7.9-2,10.8c-1.3,3.3-3.6,5.6-6.5,7.9C433.5,376.7,430.3,381.3,429.6,386.8z"/>
<path fill="none" d="M305.5,134.7c-144.1,0-260.6,116.6-260.6,260.6c0,143.7,116.6,260.3,260.3,260.3s260.3-116.6,260.3-260.3
	C565.8,251.3,449.2,134.7,305.5,134.7z"/>
</svg>
