<svg xmlns="http://www.w3.org/2000/svg" viewBox="44.8 134.7 520.6 521" fill="#fff" xmlns:v="https://vecta.io/nano"><path d="M152.3 254.9c-11.8 1.3-20.3 12.1-19 23.9s12.1 20.3 23.9 19 20.3-12.1 19-23.9-12.1-20.3-23.9-19zm-6.6-17.4c-1 0-2 .1-2.9.3l2.9-.3z"/><path d="M505.9 510.3c-2.3-21.6-21.6-37-43.2-34.7l-39 4.3-25.2-230.5c-2.3-21.6-21.6-37-43.2-34.7l-209.6 22.9h1c-19.3 3.9-33.1 22.3-30.8 42.6 2.3 21.6 21.6 37 43.2 34.7l31.4-3.6 25.2 230.5c2.3 21.6 21.6 37 43.2 34.7l212.5-23.2c21.7-2.4 37.1-21.7 34.5-43zM158.5 307.9c-17.7 2-33.4-10.8-35.4-28.2-2-17.7 10.8-33.4 28.2-35.4 13.8-1.6 26.2 5.9 32.1 17.7 1.3 3.3 2.3 6.9 2.9 10.5l3.6 31.8-31.4 3.6zm247.9 153.2l-177.7 19.6-.9-8.5 177.7-19.6.9 8.5zM207 283.3l177.7-19.6.9 8.5-177.7 19.6-.9-8.5zm4.3 37.7L389 301.4l.9 8.5-177.7 19.6-.9-8.5zm3.9 38l177.7-19.6.9 8.5-177.7 19.6-.9-8.5zm4.3 37.6L397.2 377l.9 8.5-177.7 19.6-.9-8.5zm4.2 37.7l177.7-19.6.9 8.5-177.7 19.6-.9-8.5zm31.1 131.6a28.17 28.17 0 1 1 0-56.4 28.17 28.17 0 0 1 28.2 28.2c0 15.6-12.7 28.2-28.2 28.2zm215.7-19.6l-179.1 19.6c6.9-9.2 10.5-20.6 9.2-33.1-1.3-12.4-7.2-22.9-16-30.5l179.1-19.6c17.7-2 33.4 10.5 35 28.2 2 17.7-10.8 33.4-28.2 35.4z"/><path d="M276.4 570.2c-2.6 1.6-5.2 2.9-8.2 4.3 2.9-1 5.5-2.7 8.2-4.3z"/></svg>