<svg xmlns="http://www.w3.org/2000/svg" viewBox="44.8 134.7 520.6 521" xmlns:v="https://vecta.io/nano"><path fill="#fff" d="M304.2 200.5h6.6c5.9 3.9 8.2 9.2 8.2 16.1-.3 9.8 0 19.7 0 29.5 0 8.9-4.9 14.4-11.5 14.4-6.9 0-10.8-5.2-10.8-14.8v-30.2c-.7-6.5 1.6-11.8 7.5-15zM137.3 302.4c7.2-7.9 10.5-8.5 20.7-4.3l28.5 12.1c7.5 3.3 10.5 9.2 8.2 15.1s-10.5 9.2-17.7 6.2c-11.5-4.9-22.6-10.2-33.8-15.7-2.6-1.3-4.3-4.6-6.2-6.9.3-2.2.3-4.5.3-6.5zm51.2 107.5c-12.1 2.3-24.3 3.6-36.4 5.6-6.9 1-11.5-2.6-14.8-8.2v-4.9c3.3-6.2 8.9-8.5 15.4-9.5 8.5-1.3 16.7-3 25.2-4.3 2.6-.3 5.2-.7 7.9-.7 6.6 0 11.8 2.6 12.5 9.5.7 7-3.6 11.5-9.8 12.5zm16.7-184.8c3.6-1.3 11.1-1 12.8 1.3 8.9 11.8 16.4 24.6 24.3 37 .7 1 .3 2 1 4.9-1.6 2-3.6 6.6-6.6 7.5-3.3 1-9.8.7-11.5-1.6-8.9-11.5-16.7-23.6-24.3-36.1-3.2-5.2-.6-11.1 4.3-13zm131.4 351.7h-30.5c-12.1 0-24.6-.3-36.7 0-6.6 0-9.2-2.6-9.2-8.9-.7-17.4-.7-17.4 17-17.4h64.9c9.8 0 10.5.7 10.8 10.2.1 16.1.1 16.1-16.3 16.1zm0-35.7h-30.5c-12.1 0-24.6-.3-36.7 0-6.6 0-9.2-2.6-9.2-8.9-.7-17.4-.7-17.4 17-17.4h64.9c9.8 0 10.5.7 10.8 10.2.1 16.1.1 16.1-16.3 16.1zm61.7-178.7c-1 17.4-5.9 33.8-14.1 49.2-13.1 24.9-25.6 49.8-30.8 77.7-2 10.8-3.9 11.5-15.4 11.5h-31.1-36.1c-5.6 0-9.2-2.3-10.5-7.5-1.6-6.2-3.6-12.1-4.9-18.4-4.9-22-15.1-41.6-25.2-61.3-10.5-20.7-17-42.3-14.4-65.6 3.6-31.8 20.7-53.4 50.8-63.9 26.2-8.9 53.1-8.9 79.3-.3 34.7 11.7 54.3 42.2 52.4 78.6zm13.1-121.3c-6.2 10.2-12.5 20.3-19.3 29.8-4.6 6.2-11.8 7.5-17 3.9s-6.2-9.8-1.6-17c5.9-9.5 11.8-19.7 19-28.5 3-3.6 9.5-5.6 14.4-5.2 3 0 5.6 5.9 7.9 8.5-1.8 3.9-2.4 6.5-3.4 8.5zM476 407.3c-3.6 6.9-9.5 9.2-17 8.2l-33.1-4.9c-6.6-1-11.1-7.2-10.2-13.1 1.3-6.9 5.9-10.2 12.8-9.2 12.8 1.6 25.9 3.9 38.4 6.6 3.6.7 6.2 5.2 9.2 7.9-.1 1.2-.1 2.9-.1 4.5zm0-98.7c-3.6 3.3-6.9 6.9-11.1 9.2-8.5 4.6-17.7 8.9-26.6 12.8-8.5 3.9-16.4 1.6-19.3-5.2-2.6-5.9 1-12.1 9.5-15.7 9.5-4.3 19-7.9 28.8-12.1s13.1-3 19 6.2c-.3 1.6-.3 3.2-.3 4.8z"/></svg>