<svg xmlns="http://www.w3.org/2000/svg" viewBox="44.8 134.7 520.6 521" fill="#fff" xmlns:v="https://vecta.io/nano"><path d="M177.8 354.1c-3.3-2.9-7.2-5.2-11.8-6.9-4.6-1.6-9.5-2.3-14.7-2.3-4.6 0-9.2.7-13.1 2s-7.5 3.3-10.8 5.2c-3.3 2-5.6 4.6-7.5 7.2-1.6 2.6-2.6 5.2-2.9 7.9 0 1.3.3 2.3 1.3 3.3 1.3 1 2.3 1.3 3.6 1.3h5.2c1.3 0 2.6-.3 3.3-.7s1.6-1 2.3-2c2-2.6 4.3-4.9 6.9-6.9s6.5-2.9 11.8-2.9c5.9 0 10.8 1.6 14.7 4.6s5.9 7.5 5.9 13.4v2.3l-24.9 3.9c-4.9 1-9.8 2-14.1 3.6-4.3 1.3-8.2 3.3-11.5 5.9s-5.9 5.6-7.9 9.2-2.9 7.9-2.9 12.4c0 3.6.7 6.9 2.3 9.8s3.6 5.6 6.2 7.9 5.9 3.9 9.8 5.2 8.2 2 12.8 2c2.9 0 5.6-.3 8.8-1 3.3-.7 6.2-1.3 9.2-2.6 2.6-1 5.2-2.6 7.5-4.3 2.3-1.6 3.9-3.6 4.9-5.9v7.2c0 1.3.3 2.3 1.3 3.3s2 1.3 3.3 1.3h6.5c1.3 0 2.3-.3 3.3-1.3s1.3-2 1.3-3.3v-53c0-5.6-.7-10.8-2.6-15.1-1.6-4.2-4.2-7.8-7.5-10.7zm-5.9 44.5c0 3.6-.7 7.2-2 10.5s-3.3 5.9-5.9 8.2-5.6 3.9-9.2 5.2-7.5 2-11.8 2c-2.9 0-5.6-.3-7.5-1-2-1-3.6-1.6-4.9-2.9-1.3-1-2.3-2.3-2.9-3.6-.7-1.3-1-2.6-1-3.9 0-4.3 2.3-7.5 6.5-10.2 4.6-2.6 10.5-4.6 17.7-5.2l21-3.3v4.2zm156.9-77.9c-2.6-2.9-7.2-2.6-9.5.7-1.6 2.6-1.3 6.2 1 8.5l46.5 46.8H220c-3.3 0-6.5 2-6.9 5.2-.7 3.9 2.3 7.2 6.2 7.2h160.1l6.9 6.9-6.9 6.9H220c-3.3 0-6.5 2-6.9 5.2-.7 3.9 2.3 7.2 6.2 7.2h147.4l-48.1 48.1c-2.3 2.3-2.9 6.2-.7 8.8 1.3 1.6 3.3 2.3 4.9 2.3s3.3-.7 4.6-2l72.4-72.4c1-1 1.6-2.6 1.6-4.3 0-1.6-.7-3.3-2-4.6l-70.6-70.5zm175.5 64.8c-.3-6.2-1.6-12.1-3.6-17.4-2.3-5.2-4.9-9.5-8.5-13.1s-7.9-6.2-12.4-8.2c-4.6-2-9.8-2.9-15.4-2.9-7.2 0-13.1 1.3-17.4 3.9s-7.5 5.2-9.8 8.2v-39c0-1.3-.3-2.3-1.3-3.3s-2-1.3-3.3-1.3H426c-1.3 0-2.3.3-3.3 1.3s-1.3 2-1.3 3.3v116.2c0 1.3.3 2.3 1.3 3.3s2 1.3 3.3 1.3h6.5c1.3 0 2.3-.3 3.3-1.3s1.3-2 1.3-3.3v-5.6c2.3 3.3 5.9 6.2 10.2 8.5s10.2 3.6 17.4 3.6c5.6 0 10.5-1 15.4-2.9s8.8-4.9 12.4-8.5c3.6-3.9 6.5-8.2 8.5-13.4s3.3-10.8 3.3-17.7c.3-2 .3-3.9.3-5.9 0-2.2-.3-4.1-.3-5.8zm-15.7 11.2c-.7 8.5-3.3 15.4-7.5 20.3-4.6 4.9-10.5 7.5-18.3 7.5-7.5 0-13.4-2.3-18-6.9s-7.2-10.8-7.9-18.3c-.3-1.6-.3-3.9-.3-6.9 0-2.6 0-5.2.3-6.9.7-8.2 3.3-14.7 7.9-19.3s10.5-6.9 18-6.9c7.9 0 13.8 2.6 18.3 7.2 4.6 5.2 6.9 11.8 7.5 20.3v9.9z"/></svg>