<svg xmlns="http://www.w3.org/2000/svg" viewBox="44.8 134.7 520.6 521" xmlns:v="https://vecta.io/nano"><path fill="#fff" d="M448.4 304.4c-18 0-35.7-.3-53.8-.3-4.3 0-17-1.6-19.3 1-3 3.3-.7 20.3-1 25.6-2 31.8-6.6 63.6-8.2 95.7-1 23.3-4.6 65.6 23.6 75.1 11.8 3.9 26.6 1.6 35.7-7.2 5.2-4.9 8.2-11.5 9.8-18.4.7-2.6.3-10.5 1.6-11.8s9.8 0 11.5 0c0 31.1-15.4 70.1-45.9 83.3-31.8 13.4-69.5-2.6-79.7-35.7-5.2-17-3.3-35.4-2.3-52.8 1-17 2.6-34.4 3.9-51.5 3.3-34.7 7.2-69.5 9.2-104.2h-40.3-18c-11.1 0-9.2.3-9.8 11.1l-5.9 70.1-7.5 76c-3 24.3-5.6 52.4-19 73.4-11.1 17-33.8 24.3-51.5 12.1-8.2-5.6-13.8-15.1-14.4-25.2-1-12.8 7.2-22.9 14.4-32.8 14.8-20.7 28.2-41.3 37-64.9 9.2-25.2 14.4-51.8 17-78.3.7-7.5 1.3-14.8 1.6-22.3.3-3.6 3-16.1.7-18.7-2-2.3-15.7-1-19-1-7.2 0-14.8 1-22 3-11.1 3.3-20.7 9.2-27.9 18.4-4.6 5.9-7.5 12.5-11.8 18.7-4.6 6.6-6.6 4.9-14.8 4.3 9.5-26.6 18-65.9 46.5-78.7 29.2-13.1 67.5-10.8 99-11.1H397h27.2c3.3 0 21.6-2 23.6 0 2.3 2.3.3 21 .3 24.3.3 8 .3 15.6.3 22.8z"/></svg>