<?xml version="1.0" encoding="utf-8"?>
<!-- Generator: Adobe Illustrator 18.1.1, SVG Export Plug-In . SVG Version: 6.00 Build 0)  -->
<svg version="1.1" id="medicine_1_" xmlns="http://www.w3.org/2000/svg" xmlns:xlink="http://www.w3.org/1999/xlink" x="0px"
	 y="0px" viewBox="44.8 134.7 520.6 521" enable-background="new 44.8 134.7 520.6 521" xml:space="preserve">
<g>
	<g>
		<path fill="#FFFFFF" d="M337.9,549.9c6.2-3.3,11.5-8.2,12.4-15.1c0.7-5.6,2.9-11.8-2.6-16.4c-10.5,6.9-21.3,11.5-33.4,13.1
			c-14.4,2-15.7,2.9-15.1,14.4c0,0.3,0,0.3,0.3,1c6.9-3.6,14.4-6.5,17.4-14.4c4.3,4.9,4.6,6.9,0,11.1c-3.3,2.9-7.2,5.6-11.1,7.9
			c-12.4,7.5-25.2,14.4-37.7,21.9c-3.6,2.3-6.9,5.2-10.2,7.9c0.3,0.7,0.7,1,1,1.6c3.6-1.3,7.5-2,11.8-3.6
			c11.5-4.6,23.2-8.8,34.4-13.8C316.3,560.7,327.1,555.5,337.9,549.9z"/>
		<path fill="#FFFFFF" d="M303.5,573.1c-2.9,1.3-4.9,2.3-4.6,5.9c1.3,13.8,2.6,27.5,4.3,41.3c0.3,1.3,3.3,3.3,4.9,3.3
			c1.6,0,4.6-2.3,4.6-3.6c1.3-15.4,2.3-31.1,3.3-46.5c0-1.6,0.3-2.9,0.3-4.6c14.1,3.3,26.2,11.8,40.9,11.5c0.3-0.3,0.7-1,1-2
			c-8.2-5.9-16.4-12.1-24.2-18C323.5,565,313.4,569.2,303.5,573.1z"/>
		<path fill="#FFFFFF" d="M186.3,247.3c1.3,3.9,2.9,7.5,8.8,7.9c3.3,0,6.2,0.3,9.2,0.3c2,0,2.6,0.7,3.6,2.3c1.6,3.3,3.9,6.9,8.5,8.2
			c7.5,2.3,15.1,2.3,21.6-2c1.6-1,2.6-1,3.6,0.7c0.3,1.3,1.3,2.6,2.3,3.3c5.2,3.9,11.1,6.2,18,6.5c8.8,0.3,17.4-0.3,25.9-2
			c2-0.3,2.6-1,2.6-2.6c0-6.2,0-12.4,0-18.7c0-4.9,0-9.8,0-15.1c-3.9,0.3-7.2,0-9.2-2.6c-1-1.3-1.3-3.3-2.6-4.6
			c-1.6-1.6-3.3-3.6-5.6-4.3c-5.2-1.3-10.8-0.7-16,1.3c-8.5,2.9-17.4,5.2-26.5,5.9c-9.2,1-18.7,1.3-27.8,1.6
			c-12.8,0.3-25.2,0.7-38,0.7c-1,0-2,0-3.3,0c3.6,8.5,9.5,14.1,25.2,12.1C186.6,246.7,186.6,247.3,186.3,247.3z"/>
		<path fill="#FFFFFF" d="M292.1,226.7c3.9,2,5.6,3.9,4.9,7.9c-0.3,1.3,0,2.6,0,3.9c0.3,48.5,1.3,96.9,1.3,98.2c6.5,0,12.4,0,19.3,0
			c0-1.6,1-52.7,1.3-102.5c0-0.3,0-1,0-1.3c-0.3-2.6,0.7-3.6,2.9-5.2c4.6-2.9,9.8-6.2,11.8-10.5c4.9-10.2,4.6-20.6-3.3-29.8
			c-6.5-7.5-15.1-11.5-25.5-10.8c-8.5,0.3-14.7,4.6-20.3,10.5C271.8,199.9,277.7,219.5,292.1,226.7z"/>
		<path fill="#FFFFFF" d="M450.9,234.6c-12.8-0.3-25.2-0.3-38-0.7c-9.5-0.3-18.7-1-27.8-1.6s-18-2.9-26.5-5.9
			c-5.2-2-10.5-2.6-16-1.3c-2.3,0.3-3.9,2.6-5.6,4.3c-1.3,1.3-1.6,3.3-2.6,4.6c-2,2.6-5.2,2.9-9.2,2.6c0,5.2,0,10.2,0,15.1
			c0,6.2,0,12.4,0,18.7c0,1.6,0.7,2.3,2.6,2.6c8.5,1.6,17,2.3,25.9,2c6.9-0.3,12.8-2.6,18-6.5c1-1,1.6-2.3,2.3-3.3
			c1-1.6,2-1.6,3.6-0.7c6.5,4.3,14.1,4.3,21.6,2c4.6-1.3,6.9-4.9,8.5-8.2c1-1.6,1.6-2.3,3.6-2.3c3.3,0,6.2,0,9.2-0.3
			c5.9-0.3,7.5-3.9,8.8-7.9c0.3-0.3,0.3-1,0.3-1.3c15.7,2,21.6-3.6,24.6-11.8C452.9,234.6,451.9,234.6,450.9,234.6z"/>
		<path fill="#FFFFFF" d="M298.3,386.8c0,11.5,0,22.3,0,33.4c6.5-2,12.8-3.6,18.3-5.6c0.7-10.2,1-19.6,1.6-30.1
			C311.1,385.2,304.5,386.2,298.3,386.8z"/>
		<path fill="#FFFFFF" d="M405.1,286.6c-13.4-5.2-27.5-5.6-41.6-5.9c-15.7-0.3-28.5,9.2-32.7,22.6c-2.6,8.5,0.3,14.1,8.5,16
			c-8.5,7.2-17,9.2-17,9.2c3.6,2,12.8-0.3,12.8-0.3c-2.9,4.6,0.3,11.1,0.3,11.1s3.6-9.5,9.8-19c0.7,0,1.6,0.3,2.6,0.3
			c7.5,0.3,14.7-0.3,21.3-4.6c5.9-4.3,11.8-8.8,20.3-7.9c3.9,0.3,5.6,1.6,5.9,4.9c1,7.5-2,12.1-9.2,15.4
			c-21.6,9.8-44.9,14.1-68.8,15.1c-16.4,0.7-31.8,1.3-47.2,7.5c-14.4,5.9-26.5,14.1-34.4,26.5c-8.5,13.1-12.4,27.5-3.9,41.6
			c5.6,9.2,14.4,16,23.2,20c12.8-6.2,24.9-12.1,37.3-18c-6.9-2-12.8-5.9-17-11.8c-5.6-7.5-4.3-19,3.9-23.9c4.3-2.6,9.2-4.6,14.1-5.2
			c14.7-2,29.1-3.6,43.9-4.9c16-1.6,31.1-5.9,45.8-12.1c7.9-3.3,15.4-7.9,21.9-13.1c9.8-7.5,18.7-15.7,21.3-28.8
			C429.9,305,418.2,290.9,405.1,286.6z M352.7,307.6c-2.3,0-4.6-1-6.2-2.3c0.3,0,0.7,0,1,0c3.3,0,5.9-2.3,5.9-5.2s-2.6-5.2-5.9-5.2
			c-1.3,0-2.3,0.3-3.3,1c1.3-2.9,4.6-5.2,8.5-5.2c4.9,0,9.2,3.6,9.2,8.5C361.8,303.7,357.9,307.6,352.7,307.6z"/>
		<path fill="#FFFFFF" d="M356.3,450.4c-1.3-0.7-3.9-0.3-5.6,0.3c-7.5,2.6-15.1,5.6-22.6,8.2c-8.8,2.9-18,5.9-26.9,8.8
			c-1.3,0.3-2.9,2-2.9,2.9c0,7.9,0,15.7,0,24.6c6.5-2,12.1-3.9,18.3-6.2c0-8.5,0-17,0-25.5c0.3,0,1-0.3,1.3-0.7
			c4.9,3.6,9.8,6.9,14.1,10.8c4.3,3.9,4.3,12.1-0.3,15.1c-4.6,3.3-9.8,5.9-15.4,8.2c-13.8,5.9-29.5,8.2-42.2,16.7
			c-10.2,6.9-16,8.2-14.4,22.9c1,7.5,10.5,21,16.4,23.9c8.8-4.9,7.9-4.3,15.4-8.8c-5.6-9.5-4.3-14.7,3.9-18.3
			c13.1-5.9,27.2-9.8,40.9-14.4c15.1-4.9,28.2-11.5,34.1-26.9C375.3,479.2,369,457.6,356.3,450.4z"/>
		<path fill="#FFFFFF" d="M373,375.4c-12.4,5.6-25.9,6.9-40.9,7.9c1.6,1.3,2.6,2,3.6,2.6c7.5,4.6,8.8,12.8,5.9,18.3
			c-4.9,9.5-14.1,14.7-23.6,19c-7.2,3.3-15.1,4.6-22.6,7.2c-17.4,5.9-33.1,13.4-45.8,26.2c-7.9,7.9-11.8,17.4-9.2,27.8
			c2.9,12.1,11.8,20.6,22.9,26.9c9.5-8.5,21.3-12.4,33.7-16c-9.8-3.9-16.4-9.5-15.7-18.7s8.5-13.4,16-16
			c13.8-4.9,28.2-8.2,41.9-13.1c13.4-4.9,25.5-11.8,36.7-21.3c14.7-12.4,13.1-35.4,5.2-48.5C378.9,374.1,376.6,373.7,373,375.4z"/>
	</g>
	<path fill="#FFFFFF" d="M295,327.6c0,0-9.2-2-18.3-10.2c5.9-1.6,9.2-5.9,8.5-11.8c-1-10.8-9.5-21.6-21-24.9
		c-10.8-3.3-21.9-2-33.1-1c-14.1,1.3-27.2,4.9-36.7,16c-6.9,8.5-7.9,18-5.6,27.5c2.6,10.2,9.2,18.7,18,25.2
		c8.5,5.9,18.3,10.5,27.2,15.7c11.8-12.8,26.5-19.6,43.2-24.2c-2.9-0.7-5.2-1-7.5-1.3c-15.4-2.3-30.5-5.9-43.9-13.4
		c-4.3-2.3-7.9-8.8-6.5-13.4c0.7-1.6,2-3.9,3.3-4.3c5.2-1,10.5-2,15.4,1.6c4.3,2.9,8.8,5.9,13.8,7.9c6.2,2.6,13.1,1.6,19.6,1
		c6.5,9.8,10.5,20.3,10.5,20.3s3.3-6.5,0.3-11.1C282.3,327.2,291.4,329.5,295,327.6z M268.8,294.8c-3.3,0-5.9,2.3-5.9,5.2
		s2.6,5.2,5.9,5.2c0.3,0,0.7,0,1,0c-1.6,1.3-3.9,2.3-6.2,2.3c-4.9,0-9.2-3.6-9.2-8.5c0-4.6,3.9-8.5,9.2-8.5c3.9,0,7.2,2.3,8.5,5.2
		C271.1,295.1,270.1,294.8,268.8,294.8z"/>
</g>
<path fill="none" d="M305.5,134.7c-144.1,0-260.6,116.6-260.6,260.6c0,143.7,116.6,260.3,260.3,260.3s260.3-116.6,260.3-260.3
	C565.8,251.3,449.2,134.7,305.5,134.7z"/>
</svg>
