<svg xmlns="http://www.w3.org/2000/svg" viewBox="44.8 134.7 520.6 521" fill="#fff" xmlns:v="https://vecta.io/nano"><path d="M337.9 549.9c6.2-3.3 11.5-8.2 12.4-15.1.7-5.6 2.9-11.8-2.6-16.4-10.5 6.9-21.3 11.5-33.4 13.1-14.4 2-15.7 2.9-15.1 14.4 0 .3 0 .3.3 1 6.9-3.6 14.4-6.5 17.4-14.4 4.3 4.9 4.6 6.9 0 11.1-3.3 2.9-7.2 5.6-11.1 7.9-12.4 7.5-25.2 14.4-37.7 21.9-3.6 2.3-6.9 5.2-10.2 7.9.3.7.7 1 1 1.6 3.6-1.3 7.5-2 11.8-3.6 11.5-4.6 23.2-8.8 34.4-13.8 11.2-4.8 22-10 32.8-15.6zm-34.4 23.2c-2.9 1.3-4.9 2.3-4.6 5.9l4.3 41.3c.3 1.3 3.3 3.3 4.9 3.3s4.6-2.3 4.6-3.6l3.3-46.5c0-1.6.3-2.9.3-4.6 14.1 3.3 26.2 11.8 40.9 11.5.3-.3.7-1 1-2-8.2-5.9-16.4-12.1-24.2-18-10.5 4.6-20.6 8.8-30.5 12.7zM186.3 247.3c1.3 3.9 2.9 7.5 8.8 7.9 3.3 0 6.2.3 9.2.3 2 0 2.6.7 3.6 2.3 1.6 3.3 3.9 6.9 8.5 8.2 7.5 2.3 15.1 2.3 21.6-2 1.6-1 2.6-1 3.6.7.3 1.3 1.3 2.6 2.3 3.3 5.2 3.9 11.1 6.2 18 6.5 8.8.3 17.4-.3 25.9-2 2-.3 2.6-1 2.6-2.6v-18.7-15.1c-3.9.3-7.2 0-9.2-2.6-1-1.3-1.3-3.3-2.6-4.6-1.6-1.6-3.3-3.6-5.6-4.3-5.2-1.3-10.8-.7-16 1.3-8.5 2.9-17.4 5.2-26.5 5.9-9.2 1-18.7 1.3-27.8 1.6l-38 .7h-3.3c3.6 8.5 9.5 14.1 25.2 12.1 0 .5 0 1.1-.3 1.1zm105.8-20.6c3.9 2 5.6 3.9 4.9 7.9-.3 1.3 0 2.6 0 3.9l1.3 98.2h19.3l1.3-102.5v-1.3c-.3-2.6.7-3.6 2.9-5.2 4.6-2.9 9.8-6.2 11.8-10.5 4.9-10.2 4.6-20.6-3.3-29.8-6.5-7.5-15.1-11.5-25.5-10.8-8.5.3-14.7 4.6-20.3 10.5-12.7 12.8-6.8 32.4 7.6 39.6zm158.8 7.9l-38-.7c-9.5-.3-18.7-1-27.8-1.6s-18-2.9-26.5-5.9c-5.2-2-10.5-2.6-16-1.3-2.3.3-3.9 2.6-5.6 4.3-1.3 1.3-1.6 3.3-2.6 4.6-2 2.6-5.2 2.9-9.2 2.6v15.1 18.7c0 1.6.7 2.3 2.6 2.6 8.5 1.6 17 2.3 25.9 2 6.9-.3 12.8-2.6 18-6.5 1-1 1.6-2.3 2.3-3.3 1-1.6 2-1.6 3.6-.7 6.5 4.3 14.1 4.3 21.6 2 4.6-1.3 6.9-4.9 8.5-8.2 1-1.6 1.6-2.3 3.6-2.3 3.3 0 6.2 0 9.2-.3 5.9-.3 7.5-3.9 8.8-7.9.3-.3.3-1 .3-1.3 15.7 2 21.6-3.6 24.6-11.8-1.3-.1-2.3-.1-3.3-.1zM298.3 386.8v33.4c6.5-2 12.8-3.6 18.3-5.6.7-10.2 1-19.6 1.6-30.1-7.1.7-13.7 1.7-19.9 2.3zm106.8-100.2c-13.4-5.2-27.5-5.6-41.6-5.9-15.7-.3-28.5 9.2-32.7 22.6-2.6 8.5.3 14.1 8.5 16-8.5 7.2-17 9.2-17 9.2 3.6 2 12.8-.3 12.8-.3-2.9 4.6.3 11.1.3 11.1s3.6-9.5 9.8-19c.7 0 1.6.3 2.6.3 7.5.3 14.7-.3 21.3-4.6 5.9-4.3 11.8-8.8 20.3-7.9 3.9.3 5.6 1.6 5.9 4.9 1 7.5-2 12.1-9.2 15.4-21.6 9.8-44.9 14.1-68.8 15.1-16.4.7-31.8 1.3-47.2 7.5-14.4 5.9-26.5 14.1-34.4 26.5-8.5 13.1-12.4 27.5-3.9 41.6 5.6 9.2 14.4 16 23.2 20l37.3-18c-6.9-2-12.8-5.9-17-11.8-5.6-7.5-4.3-19 3.9-23.9 4.3-2.6 9.2-4.6 14.1-5.2a920.38 920.38 0 0 1 43.9-4.9c16-1.6 31.1-5.9 45.8-12.1 7.9-3.3 15.4-7.9 21.9-13.1 9.8-7.5 18.7-15.7 21.3-28.8 3.7-16.3-8-30.4-21.1-34.7zm-52.4 21c-2.3 0-4.6-1-6.2-2.3h1c3.3 0 5.9-2.3 5.9-5.2s-2.6-5.2-5.9-5.2c-1.3 0-2.3.3-3.3 1 1.3-2.9 4.6-5.2 8.5-5.2 4.9 0 9.2 3.6 9.2 8.5-.1 4.5-4 8.4-9.2 8.4zm3.6 142.8c-1.3-.7-3.9-.3-5.6.3l-22.6 8.2-26.9 8.8c-1.3.3-2.9 2-2.9 2.9v24.6a327.19 327.19 0 0 0 18.3-6.2v-25.5c.3 0 1-.3 1.3-.7 4.9 3.6 9.8 6.9 14.1 10.8s4.3 12.1-.3 15.1c-4.6 3.3-9.8 5.9-15.4 8.2-13.8 5.9-29.5 8.2-42.2 16.7-10.2 6.9-16 8.2-14.4 22.9 1 7.5 10.5 21 16.4 23.9 8.8-4.9 7.9-4.3 15.4-8.8-5.6-9.5-4.3-14.7 3.9-18.3 13.1-5.9 27.2-9.8 40.9-14.4 15.1-4.9 28.2-11.5 34.1-26.9 4.9-12.8-1.4-34.4-14.1-41.6zm16.7-75c-12.4 5.6-25.9 6.9-40.9 7.9 1.6 1.3 2.6 2 3.6 2.6 7.5 4.6 8.8 12.8 5.9 18.3-4.9 9.5-14.1 14.7-23.6 19-7.2 3.3-15.1 4.6-22.6 7.2-17.4 5.9-33.1 13.4-45.8 26.2-7.9 7.9-11.8 17.4-9.2 27.8 2.9 12.1 11.8 20.6 22.9 26.9 9.5-8.5 21.3-12.4 33.7-16-9.8-3.9-16.4-9.5-15.7-18.7s8.5-13.4 16-16c13.8-4.9 28.2-8.2 41.9-13.1 13.4-4.9 25.5-11.8 36.7-21.3 14.7-12.4 13.1-35.4 5.2-48.5-2.2-3.6-4.5-4-8.1-2.3zm-78-47.8s-9.2-2-18.3-10.2c5.9-1.6 9.2-5.9 8.5-11.8-1-10.8-9.5-21.6-21-24.9-10.8-3.3-21.9-2-33.1-1-14.1 1.3-27.2 4.9-36.7 16-6.9 8.5-7.9 18-5.6 27.5 2.6 10.2 9.2 18.7 18 25.2 8.5 5.9 18.3 10.5 27.2 15.7 11.8-12.8 26.5-19.6 43.2-24.2-2.9-.7-5.2-1-7.5-1.3-15.4-2.3-30.5-5.9-43.9-13.4-4.3-2.3-7.9-8.8-6.5-13.4.7-1.6 2-3.9 3.3-4.3 5.2-1 10.5-2 15.4 1.6 4.3 2.9 8.8 5.9 13.8 7.9 6.2 2.6 13.1 1.6 19.6 1 6.5 9.8 10.5 20.3 10.5 20.3s3.3-6.5.3-11.1c.1 0 9.2 2.3 12.8.4zm-26.2-32.8c-3.3 0-5.9 2.3-5.9 5.2s2.6 5.2 5.9 5.2h1c-1.6 1.3-3.9 2.3-6.2 2.3-4.9 0-9.2-3.6-9.2-8.5 0-4.6 3.9-8.5 9.2-8.5 3.9 0 7.2 2.3 8.5 5.2-1-.6-2-.9-3.3-.9z"/></svg>