<?xml version="1.0" encoding="utf-8"?>
<!-- Generator: Adobe Illustrator 18.1.1, SVG Export Plug-In . SVG Version: 6.00 Build 0)  -->
<svg version="1.1" id="Layer_4_copy" xmlns="http://www.w3.org/2000/svg" xmlns:xlink="http://www.w3.org/1999/xlink" x="0px"
	 y="0px" viewBox="44.8 134.7 520.6 521" enable-background="new 44.8 134.7 520.6 521" xml:space="preserve">
<g>
	<path fill="#FFFFFF" d="M442.5,569.9v12.8h-12.8H182.6h-12.8v-12.8v-27.5c0-6.9,5.6-12.8,12.8-12.8h97.7
		c-26.2-7.9-48.2-24.9-62.3-47.5h-53.8v-21.6h43.3h45.9h47.2v22h-26.9c11.1,7.9,24.6,12.1,39.3,12.1c38,0,69.2-30.8,69.2-69.2
		c0-14.4-4.3-27.9-12.1-38.7c-3.3,0.7-6.9,1-10.5,1c-18.4,0-34.4-10.2-42.9-25.2l-22.3,36.1l18,11.1l-18,29.5l-93.4-57.4l18-29.5
		l18,11.1l80-129.8c4.3-6.9,15.1-13.1,25.9-7.2l26.6-43.3l26.2,16.1l-26.6,43.3c10.2,7.2,9.5,19.7,5.2,26.6l-12.5,20.3
		c26.2,1,47.2,22.6,47.2,49.2c0,8.2-2,16.1-5.6,22.9c13.4,18,21.3,40,21.3,63.9c0,49.2-33.1,90.5-78.3,104.2h83.9
		c6.9,0,12.8,5.6,12.8,12.8v27.5H442.5z"/>
</g>
<path fill="none" d="M305.5,134.7c-144.1,0-260.6,116.6-260.6,260.6c0,143.7,116.6,260.3,260.3,260.3s260.3-116.6,260.3-260.3
	C565.8,251.3,449.2,134.7,305.5,134.7z"/>
</svg>
