<svg xmlns="http://www.w3.org/2000/svg" viewBox="44.8 134.7 520.6 521" xmlns:v="https://vecta.io/nano"><path fill="#fff" d="M442.5 569.9v12.8h-12.8-247.1-12.8v-12.8-27.5c0-6.9 5.6-12.8 12.8-12.8h97.7c-26.2-7.9-48.2-24.9-62.3-47.5h-53.8v-21.6h43.3 45.9 47.2v22h-26.9c11.1 7.9 24.6 12.1 39.3 12.1 38 0 69.2-30.8 69.2-69.2 0-14.4-4.3-27.9-12.1-38.7-3.3.7-6.9 1-10.5 1-18.4 0-34.4-10.2-42.9-25.2l-22.3 36.1 18 11.1-18 29.5-93.4-57.4 18-29.5 18 11.1 80-129.8c4.3-6.9 15.1-13.1 25.9-7.2l26.6-43.3 26.2 16.1-26.6 43.3c10.2 7.2 9.5 19.7 5.2 26.6l-12.5 20.3c26.2 1 47.2 22.6 47.2 49.2 0 8.2-2 16.1-5.6 22.9 13.4 18 21.3 40 21.3 63.9 0 49.2-33.1 90.5-78.3 104.2h83.9c6.9 0 12.8 5.6 12.8 12.8v27.5h-.6z"/></svg>