<?xml version="1.0" encoding="utf-8"?>
<!-- Generator: Adobe Illustrator 18.1.1, SVG Export Plug-In . SVG Version: 6.00 Build 0)  -->
<svg version="1.1" id="Layer_4_copy" xmlns="http://www.w3.org/2000/svg" xmlns:xlink="http://www.w3.org/1999/xlink" x="0px"
	 y="0px" viewBox="44.8 134.7 520.6 521" enable-background="new 44.8 134.7 520.6 521" xml:space="preserve">
<g>
	<path fill="#FFFFFF" d="M447.4,484.7v0.3l0,0c-3.3,19.3-23.6,37-51.1,42.3c-32.5,5.9-62.3-7.9-66.5-31.1
		c-4.3-23.3,18.4-46.9,50.8-53.1c15.4-3,30.5-1,42.3,3.9V291.3l-173.1,22.3v190.1c0.7,3.3,0.3,6.6,0,9.5v0.3l0,0
		c-3.3,19.3-23.6,37-51.1,42.3c-32.5,5.9-62.3-7.9-66.5-31.1c-4.3-23.3,18.4-46.9,50.8-53.1c15.4-3,30.5-1,42.3,3.9v-219L447.1,228
		v247.2C448.1,478.4,448.1,481.4,447.4,484.7z"/>
</g>
<path fill="none" d="M305.5,134.7c-144.1,0-260.6,116.6-260.6,260.6c0,143.7,116.6,260.3,260.3,260.3s260.3-116.6,260.3-260.3
	C565.8,251.3,449.2,134.7,305.5,134.7z"/>
</svg>
