<?xml version="1.0" encoding="utf-8"?>
<!-- Generator: Adobe Illustrator 18.1.1, SVG Export Plug-In . SVG Version: 6.00 Build 0)  -->
<svg version="1.1" id="Layer_4_copy" xmlns="http://www.w3.org/2000/svg" xmlns:xlink="http://www.w3.org/1999/xlink" x="0px"
	 y="0px" viewBox="44.8 134.7 520.6 521" enable-background="new 44.8 134.7 520.6 521" xml:space="preserve">
<g>
	<g>
		<g>
			<path fill="#FFFFFF" d="M221.9,481.4c-16.1,0-29.2,13.1-29.2,29.2s13.1,29.2,29.2,29.2c16.1,0,29.2-13.1,29.2-29.2
				S238,481.4,221.9,481.4z"/>
			<path fill="#FFFFFF" d="M166.8,520.4c-10.8,0-19.3,8.5-19.3,19.3s8.5,19.3,19.3,19.3c10.5,0,19.3-8.5,19.3-19.3
				S177.7,520.4,166.8,520.4z"/>
		</g>
		<path fill="#FFFFFF" d="M446.8,339.8c11.1-11.1,18-26.2,18-42.6c0-35.1-30.5-63.3-68.2-63.3c-12.1,0-23.6,3-33.4,8.2
			c-23.6-27.9-67.2-38.7-109.2-24.3c-52.4,18-82.6,68.8-67.2,113.4c1.6,5.2,3.9,10.2,6.9,14.8c-26.6,6.2-46.2,29.8-46.2,58.3
			c0,33.4,27.2,60.3,60.3,60.3c11.1,0,21.3-3,30.2-8.2c12.5,21,35.7,35.1,62,35.1c16.7,0,31.8-5.6,43.9-14.8
			c14.4,11.5,32.5,18.7,52.4,18.7c46.2,0,84.2-38.7,84.6-86.5C480.9,380.8,467.4,355.5,446.8,339.8z M320.3,432.5
			c-3.6,3.6-7.5,5.2-12.5,5.2c-4.9,0-9.2-1.6-12.5-5.2c-3.6-3.6-5.2-7.9-5.2-12.8s1.6-9.2,5.2-12.8c3.3-3.6,7.5-5.2,12.5-5.2
			c4.9,0,8.9,1.6,12.5,5.2c3.6,3.6,5.2,7.9,5.2,12.8S323.5,428.9,320.3,432.5z M343.2,357.5c-9.5,10.5-21.6,19-36.4,25.2
			c-1,0.3-2,0.7-2.6,0.7c-0.7,0-1.3,0-2-0.3c-0.7-0.3-1.3-0.7-2-1.3c-1.6-1.6-3.3-3.6-4.3-6.2c-1-2.6-1.6-4.6-1.6-5.9
			c0-1.6,0.7-3,2.3-4.3c1.6-1.3,3.6-2.6,6.2-4.3c7.9-4.6,13.4-8.9,16.7-12.5c3.3-3.6,5.9-6.9,7.5-9.5c1.6-2.6,3-5.2,3.9-7.9
			c1.6-4.6,2.6-8.9,2.6-12.8s-0.3-7.5-1.3-10.8c-1-3.3-2.3-5.9-4.3-8.5c-4.3-5.6-10.2-8.5-17.4-8.5c-15.1,0-22.6,7.5-22.6,22.3
			c0,3.3-0.3,5.2-0.7,6.2c-1,1.6-2.6,2.6-5.6,2.6h-6.6c-7.5,0-11.1-4.3-11.1-12.5c0-12.1,4.3-22,13.1-29.2
			c8.5-7.2,19.7-10.8,33.1-10.8c16.4,0,28.8,4.3,37.4,13.4c8.2,8.5,12.1,19.7,12.1,34.1S354.4,345,343.2,357.5z"/>
	</g>
</g>
<path fill="none" d="M305.5,134.7c-144.1,0-260.6,116.6-260.6,260.6c0,143.7,116.6,260.3,260.3,260.3s260.3-116.6,260.3-260.3
	C565.8,251.3,449.2,134.7,305.5,134.7z"/>
</svg>
