<svg xmlns="http://www.w3.org/2000/svg" viewBox="44.8 134.7 520.6 521" fill="#fff" xmlns:v="https://vecta.io/nano"><path d="M221.9 481.4c-16.1 0-29.2 13.1-29.2 29.2s13.1 29.2 29.2 29.2 29.2-13.1 29.2-29.2-13.1-29.2-29.2-29.2zm-55.1 39c-10.8 0-19.3 8.5-19.3 19.3S156 559 166.8 559c10.5 0 19.3-8.5 19.3-19.3s-8.4-19.3-19.3-19.3zm280-180.6c11.1-11.1 18-26.2 18-42.6 0-35.1-30.5-63.3-68.2-63.3-12.1 0-23.6 3-33.4 8.2-23.6-27.9-67.2-38.7-109.2-24.3-52.4 18-82.6 68.8-67.2 113.4 1.6 5.2 3.9 10.2 6.9 14.8-26.6 6.2-46.2 29.8-46.2 58.3 0 33.4 27.2 60.3 60.3 60.3 11.1 0 21.3-3 30.2-8.2 12.5 21 35.7 35.1 62 35.1 16.7 0 31.8-5.6 43.9-14.8 14.4 11.5 32.5 18.7 52.4 18.7 46.2 0 84.2-38.7 84.6-86.5 0-28.1-13.5-53.4-34.1-69.1zm-126.5 92.7c-3.6 3.6-7.5 5.2-12.5 5.2-4.9 0-9.2-1.6-12.5-5.2-3.6-3.6-5.2-7.9-5.2-12.8s1.6-9.2 5.2-12.8c3.3-3.6 7.5-5.2 12.5-5.2 4.9 0 8.9 1.6 12.5 5.2s5.2 7.9 5.2 12.8-2 9.2-5.2 12.8zm22.9-75c-9.5 10.5-21.6 19-36.4 25.2-1 .3-2 .7-2.6.7-.7 0-1.3 0-2-.3s-1.3-.7-2-1.3c-1.6-1.6-3.3-3.6-4.3-6.2s-1.6-4.6-1.6-5.9c0-1.6.7-3 2.3-4.3s3.6-2.6 6.2-4.3c7.9-4.6 13.4-8.9 16.7-12.5s5.9-6.9 7.5-9.5 3-5.2 3.9-7.9c1.6-4.6 2.6-8.9 2.6-12.8s-.3-7.5-1.3-10.8-2.3-5.9-4.3-8.5c-4.3-5.6-10.2-8.5-17.4-8.5-15.1 0-22.6 7.5-22.6 22.3 0 3.3-.3 5.2-.7 6.2-1 1.6-2.6 2.6-5.6 2.6H275c-7.5 0-11.1-4.3-11.1-12.5 0-12.1 4.3-22 13.1-29.2 8.5-7.2 19.7-10.8 33.1-10.8 16.4 0 28.8 4.3 37.4 13.4 8.2 8.5 12.1 19.7 12.1 34.1s-5.2 28.3-16.4 40.8z"/></svg>