<?xml version="1.0" encoding="utf-8"?>
<!-- Generator: Adobe Illustrator 18.1.1, SVG Export Plug-In . SVG Version: 6.00 Build 0)  -->
<svg version="1.1" id="Layer_4_copy" xmlns="http://www.w3.org/2000/svg" xmlns:xlink="http://www.w3.org/1999/xlink" x="0px"
	 y="0px" viewBox="44.8 134.7 520.6 521" enable-background="new 44.8 134.7 520.6 521" xml:space="preserve">
<g>
	<g>
		<path fill="#FFFFFF" d="M486.1,295.2c-15.1-26.6-55.7-33.1-108.2-21.6c-15.7-51.5-41.6-83.6-71.8-83.6
			c-29.8,0-55.4,31.5-71.1,81.9c-51.5-11.8-91.8-5.9-106.9,20c-15.1,25.9-1,63.9,34.7,102.6c-36.4,38.4-51.5,76-36.7,102.3
			c15.1,26.6,55.7,33.1,108.2,21.6c15.7,51.5,41.6,83.6,71.8,83.6c29.8,0,55.4-31.5,71.1-81.9c51.5,11.8,91.8,5.9,106.9-20
			c15.1-25.6,0.7-63.6-34.7-102.6C485.8,359.1,500.9,321.4,486.1,295.2z M147.8,303.4c8.9-15.1,39.3-18.7,80.6-9.5
			c-3.6,16.1-6.2,33.4-8.2,51.8c-15.1,10.8-28.8,21.6-41,32.8C150.8,347,139,318.5,147.8,303.4z M218.3,414.8
			c-8.2-6.6-15.7-13.1-22.6-19.7c6.9-6.6,14.4-12.8,22.6-19c-0.3,6.6-0.3,13.1-0.3,20C218,402.4,218,408.6,218.3,414.8z M146.5,486
			c-8.5-15.4,3.6-43.6,32.8-74.7c11.8,11.5,25.9,22.9,41.3,34.1c2,18.4,4.6,35.4,8.2,51.1C186.2,505.6,155,501.4,146.5,486z
			 M366.5,329.9c-5.2-3.3-10.5-6.6-16.1-9.8c-5.2-3.3-10.8-6.2-16.4-9.2c9.5-3.6,18.4-6.6,27.2-9.2
			C363.2,310.6,365.2,320.1,366.5,329.9z M306.2,212.9c17.4,0,36.4,24.9,49.2,66.5c-15.4,4.6-31.8,10.5-48.2,18
			c-17.4-7.9-33.8-14.4-49.8-19.3C270.1,237.2,288.8,212.9,306.2,212.9z M251.4,300.4c8.9,3,18.4,6.2,28.2,10.2
			c-5.6,2.6-11.1,5.6-16.4,8.9c-5.9,3.3-11.8,6.9-17.4,10.2C247.5,319.5,249.5,309.6,251.4,300.4z M245.5,462.1
			c5.2,3.3,10.5,6.6,16.1,9.8s11.1,6.2,16.4,9.2c-9.5,3.6-18.4,6.6-27.2,9.2C248.8,481.4,246.8,471.9,245.5,462.1z M305.8,579.4
			c-17.4,0-36.4-24.9-49.2-66.5c15.7-4.6,31.8-10.8,48.2-18c17.4,7.9,33.8,14.4,49.8,19.3C341.9,555.1,323.2,579.4,305.8,579.4z
			 M360.9,491.9c-8.9-3-18.4-6.2-28.2-10.2c5.6-3,10.8-5.9,16.4-8.9c5.9-3.3,11.8-6.9,17.4-10.2
			C364.8,472.9,362.9,482.7,360.9,491.9z M369.8,433.5c-9.8,6.6-20.7,13.1-31.8,19.3c-10.8,6.2-22,11.8-32.5,16.7
			c-10.5-5.2-21.3-11.1-32.1-17.4c-10.8-6.6-21.3-13.1-30.8-19.7c-1-11.5-1.3-23.6-1.3-36.4c0-13.1,0.3-25.6,1.3-37.4
			c9.8-6.6,20.3-13.1,31.8-19.7c10.8-6.2,22-11.8,32.5-16.7c10.5,5.2,21.3,11.1,32.1,17.4c10.8,6.6,21.3,13.1,30.8,20
			c1,11.5,1.3,23.6,1.3,36.4C371.1,409.3,370.7,421.7,369.8,433.5z M465.8,306c8.5,15.4-3.6,43.6-32.8,74.7
			c-12.1-11.1-25.9-22.6-41.3-33.8c-2-18.4-4.6-35.4-8.2-51.1C426.1,286.7,457.3,290.9,465.8,306z M393.7,377.5
			c8.2,6.6,15.7,13.1,22.6,19.7c-6.9,6.2-14.4,12.5-22.6,19c0.3-6.6,0.3-13.1,0.3-20C394,389.9,394,383.7,393.7,377.5z M464.5,488.6
			c-8.9,15.1-39.3,18.7-81,9.2c3.6-16.1,6.2-33.4,8.2-51.8c15.1-10.5,28.8-21.6,41.3-32.5C461.5,445,473.3,473.5,464.5,488.6z"/>
		<path fill="#FFFFFF" d="M306.2,367.6c-15.7,0-28.5,12.8-28.5,28.5s12.8,28.5,28.5,28.5s28.5-12.8,28.5-28.5
			S321.9,367.6,306.2,367.6z"/>
	</g>
</g>
<path fill="none" d="M305.5,134.7c-144.1,0-260.6,116.6-260.6,260.6c0,143.7,116.6,260.3,260.3,260.3s260.3-116.6,260.3-260.3
	C565.8,251.3,449.2,134.7,305.5,134.7z"/>
</svg>
