<svg xmlns="http://www.w3.org/2000/svg" viewBox="44.8 134.7 520.6 521" fill="#fff" xmlns:v="https://vecta.io/nano"><path d="M486.1 295.2c-15.1-26.6-55.7-33.1-108.2-21.6-15.7-51.5-41.6-83.6-71.8-83.6-29.8 0-55.4 31.5-71.1 81.9-51.5-11.8-91.8-5.9-106.9 20s-1 63.9 34.7 102.6c-36.4 38.4-51.5 76-36.7 102.3 15.1 26.6 55.7 33.1 108.2 21.6 15.7 51.5 41.6 83.6 71.8 83.6 29.8 0 55.4-31.5 71.1-81.9 51.5 11.8 91.8 5.9 106.9-20 15.1-25.6.7-63.6-34.7-102.6 36.4-38.4 51.5-76.1 36.7-102.3zm-338.3 8.2c8.9-15.1 39.3-18.7 80.6-9.5-3.6 16.1-6.2 33.4-8.2 51.8-15.1 10.8-28.8 21.6-41 32.8-28.4-31.5-40.2-60-31.4-75.1zm70.5 111.4c-8.2-6.6-15.7-13.1-22.6-19.7 6.9-6.6 14.4-12.8 22.6-19-.3 6.6-.3 13.1-.3 20 0 6.3 0 12.5.3 18.7zM146.5 486c-8.5-15.4 3.6-43.6 32.8-74.7 11.8 11.5 25.9 22.9 41.3 34.1 2 18.4 4.6 35.4 8.2 51.1-42.6 9.1-73.8 4.9-82.3-10.5zm220-156.1c-5.2-3.3-10.5-6.6-16.1-9.8-5.2-3.3-10.8-6.2-16.4-9.2 9.5-3.6 18.4-6.6 27.2-9.2 2 8.9 4 18.4 5.3 28.2zm-60.3-117c17.4 0 36.4 24.9 49.2 66.5-15.4 4.6-31.8 10.5-48.2 18-17.4-7.9-33.8-14.4-49.8-19.3 12.7-40.9 31.4-65.2 48.8-65.2zm-54.8 87.5c8.9 3 18.4 6.2 28.2 10.2-5.6 2.6-11.1 5.6-16.4 8.9-5.9 3.3-11.8 6.9-17.4 10.2 1.7-10.2 3.7-20.1 5.6-29.3zm-5.9 161.7c5.2 3.3 10.5 6.6 16.1 9.8l16.4 9.2c-9.5 3.6-18.4 6.6-27.2 9.2-2-8.9-4-18.4-5.3-28.2zm60.3 117.3c-17.4 0-36.4-24.9-49.2-66.5 15.7-4.6 31.8-10.8 48.2-18 17.4 7.9 33.8 14.4 49.8 19.3-12.7 40.9-31.4 65.2-48.8 65.2zm55.1-87.5c-8.9-3-18.4-6.2-28.2-10.2l16.4-8.9c5.9-3.3 11.8-6.9 17.4-10.2-1.7 10.3-3.6 20.1-5.6 29.3zm8.9-58.4c-9.8 6.6-20.7 13.1-31.8 19.3-10.8 6.2-22 11.8-32.5 16.7-10.5-5.2-21.3-11.1-32.1-17.4-10.8-6.6-21.3-13.1-30.8-19.7-1-11.5-1.3-23.6-1.3-36.4 0-13.1.3-25.6 1.3-37.4 9.8-6.6 20.3-13.1 31.8-19.7 10.8-6.2 22-11.8 32.5-16.7 10.5 5.2 21.3 11.1 32.1 17.4 10.8 6.6 21.3 13.1 30.8 20 1 11.5 1.3 23.6 1.3 36.4 0 13.3-.4 25.7-1.3 37.5zm96-127.5c8.5 15.4-3.6 43.6-32.8 74.7a471.45 471.45 0 0 0-41.3-33.8c-2-18.4-4.6-35.4-8.2-51.1 42.6-9.1 73.8-4.9 82.3 10.2zm-72.1 71.5c8.2 6.6 15.7 13.1 22.6 19.7-6.9 6.2-14.4 12.5-22.6 19 .3-6.6.3-13.1.3-20 0-6.3 0-12.5-.3-18.7zm70.8 111.1c-8.9 15.1-39.3 18.7-81 9.2 3.6-16.1 6.2-33.4 8.2-51.8 15.1-10.5 28.8-21.6 41.3-32.5 28.5 31.5 40.3 60 31.5 75.1zm-158.3-121c-15.7 0-28.5 12.8-28.5 28.5s12.8 28.5 28.5 28.5 28.5-12.8 28.5-28.5-12.8-28.5-28.5-28.5z"/></svg>