<svg xmlns="http://www.w3.org/2000/svg" viewBox="44.8 134.7 520.6 521" xmlns:v="https://vecta.io/nano"><path fill="#fff" d="M477.3 243.1c-.3.3-.3.7-.7 1-3.6 9.5-6.6 19-10.5 28.2-6.6 15.4-15.1 29.8-25.2 43.3-5.9 7.5-11.8 15.1-18.7 21.3-2.6 2.3-5.2 4.3-9.2 4.3-10.8-.3-21.3 0-32.1 0-1 0-2-.3-3-.3l-16.1-1c13.4 8.5 28.8 10.8 44.9 14.1-30.5 24.3-62.3 41.3-101.6 41 20.3-35.4 45.6-66.2 73.1-95.1-45.6 29.2-79.7 69.5-107.2 117.4h19.3c6.2 0 12.1-.3 18.4 0 7.2.3 11.1 3.3 12.8 9.8 1.3 5.6-.3 10.5-5.6 14.4 3.3.7 5.9 1.3 8.5 1.3 9.5.7 17.7 4.9 24.3 11.8 7.2 7.9 9.8 17.7 9.8 28.2l-.7 51.1c-.3 12.1-5.9 22-15.4 28.5-4.3 3-9.2 4.3-14.1 6.6H193.9c-.3-.3-.7-.7-1-.7-9.5-2.3-17.4-7.2-22.6-16.1-2.6-4.3-3.9-9.5-5.9-14.1v-64.9c1-2.6 1.6-5.2 2.6-7.5 4.6-11.1 12.5-18.7 23.6-22 4.9-1.3 10.2-2 15.1-2.6-1-1.3-2-2.3-2.6-3.6-4.3-5.2-3-15.1 3-18.4 2.6-1.3 5.6-2.3 8.5-2.3 11.1-.3 22.6 0 33.8 0 1.6 0 2.3-.3 3.3-2l17.4-29.5c.7-1 1-2 1-3 .3-6.2.7-12.5 1.3-18.7 1.3-11.5 4.3-22.3 8.9-32.8 4.3-9.5 9.2-19 16.4-26.6 6.2-6.6 12.1-13.4 19-19.3 10.2-8.9 21.6-15.7 34.1-21a250.44 250.44 0 0 1 29.5-10.8c10.8-3 22-5.2 33.1-7.2 9.5-1.6 19-3 28.5-3.9 6.6-.7 13.1-.7 19.7-.7.7 0 1.3-.3 2.3-.7 4.3 0 8.9.3 13.1 0 1.9.5 1.3 1.5 1.3 2.5z"/></svg>