<?xml version="1.0" encoding="utf-8"?>
<!-- Generator: Adobe Illustrator 18.1.1, SVG Export Plug-In . SVG Version: 6.00 Build 0)  -->
<svg version="1.1" id="Layer_4_copy" xmlns="http://www.w3.org/2000/svg" xmlns:xlink="http://www.w3.org/1999/xlink" x="0px"
	 y="0px" viewBox="44.8 134.7 520.6 521" enable-background="new 44.8 134.7 520.6 521" xml:space="preserve">
<g>
	<path fill="#FFFFFF" d="M477.3,243.1c-0.3,0.3-0.3,0.7-0.7,1c-3.6,9.5-6.6,19-10.5,28.2c-6.6,15.4-15.1,29.8-25.2,43.3
		c-5.9,7.5-11.8,15.1-18.7,21.3c-2.6,2.3-5.2,4.3-9.2,4.3c-10.8-0.3-21.3,0-32.1,0c-1,0-2-0.3-3-0.3c-5.2-0.3-10.8-0.7-16.1-1
		c13.4,8.5,28.8,10.8,44.9,14.1c-30.5,24.3-62.3,41.3-101.6,41c20.3-35.4,45.6-66.2,73.1-95.1c-45.6,29.2-79.7,69.5-107.2,117.4
		c6.9,0,13.1,0,19.3,0s12.1-0.3,18.4,0c7.2,0.3,11.1,3.3,12.8,9.8c1.3,5.6-0.3,10.5-5.6,14.4c3.3,0.7,5.9,1.3,8.5,1.3
		c9.5,0.7,17.7,4.9,24.3,11.8c7.2,7.9,9.8,17.7,9.8,28.2c0,17-0.3,34.1-0.7,51.1c-0.3,12.1-5.9,22-15.4,28.5
		c-4.3,3-9.2,4.3-14.1,6.6c-44.9,0-89.5,0-134.4,0c-0.3-0.3-0.7-0.7-1-0.7c-9.5-2.3-17.4-7.2-22.6-16.1c-2.6-4.3-3.9-9.5-5.9-14.1
		c0-21.6,0-43.3,0-64.9c1-2.6,1.6-5.2,2.6-7.5c4.6-11.1,12.5-18.7,23.6-22c4.9-1.3,10.2-2,15.1-2.6c-1-1.3-2-2.3-2.6-3.6
		c-4.3-5.2-3-15.1,3-18.4c2.6-1.3,5.6-2.3,8.5-2.3c11.1-0.3,22.6,0,33.8,0c1.6,0,2.3-0.3,3.3-2c5.6-9.8,11.5-19.7,17.4-29.5
		c0.7-1,1-2,1-3c0.3-6.2,0.7-12.5,1.3-18.7c1.3-11.5,4.3-22.3,8.9-32.8c4.3-9.5,9.2-19,16.4-26.6c6.2-6.6,12.1-13.4,19-19.3
		c10.2-8.9,21.6-15.7,34.1-21c9.8-4.3,19.7-7.9,29.5-10.8c10.8-3,22-5.2,33.1-7.2c9.5-1.6,19-3,28.5-3.9c6.6-0.7,13.1-0.7,19.7-0.7
		c0.7,0,1.3-0.3,2.3-0.7c4.3,0,8.9,0.3,13.1,0C477.9,241.1,477.3,242.1,477.3,243.1z"/>
</g>
<path fill="none" d="M305.5,134.7c-144.1,0-260.6,116.6-260.6,260.6c0,143.7,116.6,260.3,260.3,260.3s260.3-116.6,260.3-260.3
	C565.8,251.3,449.2,134.7,305.5,134.7z"/>
</svg>
