<svg xmlns="http://www.w3.org/2000/svg" viewBox="44.8 134.7 520.6 521" fill="#fff" xmlns:v="https://vecta.io/nano"><path d="M281.9 358c3.3 0 6.5-.7 9.5-1l4.6-3.9 103.5-105.4c2.3-2.3 3.3-6.2 4.9-9.5-3.6-1.3-7.2-3.9-10.8-3.6l-144.1 9.2c-4.6.3-10.2 2.6-13.8 5.9l-106.4 97.6c-2.3 2.3-3.6 5.9-5.2 8.2 3.6 1.3 6.9 3.9 10.2 3.9l147.6-1.4zm-41.2-59.9c5.6-5.2 12.1-9.5 18.3-14.1 7.5-1.3 14.4-3.3 21.6-3.3 2.9 0 7.9 2.6 9.2 5.2 1 2.6-.3 7.9-2.6 10.2-10.8 11.5-24.2 17.4-39.9 17-3.3 0-8.2-2.6-9.2-4.9-1.4-2.6.3-7.8 2.6-10.1zm123.4 251.1L298 392c-3.9-10.2-10.2-14.1-20.6-14.1l-142.1 1c-12.8 0-13.1.3-8.2 11.8L188 535.8c2.6 6.2 7.2 9.5 13.8 10.2l53 5.2 107.4 10.2c1-.3 2-1 2.9-1.3-.3-3.7.3-7.6-1-10.9zM232.2 528c-3.6 5.9-10.8 5.6-17.4 3.6-11.8-3.6-20.3-11.1-23.9-22.3-1.6-4.6-1.3-12.4 1.6-15.7 2.9-3.6 10.8-4.9 15.7-3.9 11.8 2 20 9.8 27.2 23.9-.6 2.9-.3 9.4-3.2 14.4zm28.4-44.9c-4.6 5.6-11.1 5.9-17.7 4.3-12.1-3.3-21.3-10.5-25.5-21.9-2-5.2-1.6-13.8 1.6-17.7 2.6-3.6 11.1-4.9 16.4-3.9 12.1 2 20.6 9.8 26.5 21.3 2.7 6.1 3.3 12.3-1.3 17.9zm12.8-42.9c-11.8-1.6-23.6-10.8-30.5-22.3 1-5.9.7-12.4 3.3-17.4 3.6-6.2 10.8-7.2 17.7-5.6 13.1 3.3 23.2 10.5 27.8 23.2 5 13.6-4.2 24.1-18.3 22.1zm215.8-34.7l-60.6-143.1c-4.3-10.2-6.5-10.5-14.4-2.3L315 361.9c-7.2 7.2-8.5 14.4-4.6 23.9l67.5 160.1c1 2.3 3.9 4.3 5.9 6.2 1-.3 2-1 2.9-1.3 1.3-2 2.6-3.9 4.3-5.9l95.3-118.5c5.2-6.5 6.2-12.7 2.9-20.9zm-107.1 5.6c-7.5 8.8-18.7 7.9-24.9-2.3-7.5-12.1-5.6-31.8 4.3-41.9 8.8-9.5 21.3-5.9 27.5 10.2 3.3 10.4 2.3 23.2-6.9 34zm61.9 14.4c-8.2 9.2-20 5.9-25.9-9.2-2.9-9.5-2.6-21.3 4.6-31.8 7.2-10.8 18.7-10.5 25.2.3 6.9 11.5 5 31.2-3.9 40.7z"/></svg>