<?xml version="1.0" encoding="utf-8"?>
<!-- Generator: Adobe Illustrator 18.1.1, SVG Export Plug-In . SVG Version: 6.00 Build 0)  -->
<svg version="1.1" id="probability" xmlns="http://www.w3.org/2000/svg" xmlns:xlink="http://www.w3.org/1999/xlink" x="0px"
	 y="0px" viewBox="44.8 134.7 520.6 521" enable-background="new 44.8 134.7 520.6 521" xml:space="preserve">
<g>
	<path fill="#FFFFFF" d="M281.9,358c3.3,0,6.5-0.7,9.5-1c1.6-1.3,3.3-2.6,4.6-3.9c34.7-35,69.1-70.1,103.5-105.4
		c2.3-2.3,3.3-6.2,4.9-9.5c-3.6-1.3-7.2-3.9-10.8-3.6c-48.1,2.6-95.9,5.9-144.1,9.2c-4.6,0.3-10.2,2.6-13.8,5.9
		c-35.7,32.4-71.1,64.8-106.4,97.6c-2.3,2.3-3.6,5.9-5.2,8.2c3.6,1.3,6.9,3.9,10.2,3.9C183.4,359.3,232.8,358.7,281.9,358z
		 M240.7,298.1c5.6-5.2,12.1-9.5,18.3-14.1c7.5-1.3,14.4-3.3,21.6-3.3c2.9,0,7.9,2.6,9.2,5.2c1,2.6-0.3,7.9-2.6,10.2
		c-10.8,11.5-24.2,17.4-39.9,17c-3.3,0-8.2-2.6-9.2-4.9C236.7,305.6,238.4,300.4,240.7,298.1z"/>
	<path fill="#FFFFFF" d="M364.1,549.2c-21.9-52.4-44.2-104.8-66.1-157.2c-3.9-10.2-10.2-14.1-20.6-14.1c-47.5,0.7-94.6,0.7-142.1,1
		c-12.8,0-13.1,0.3-8.2,11.8c20.3,48.5,40.6,96.6,60.9,145.1c2.6,6.2,7.2,9.5,13.8,10.2c17.7,1.6,35.4,3.6,53,5.2
		c35.7,3.6,71.7,6.9,107.4,10.2c1-0.3,2-1,2.9-1.3C364.8,556.4,365.4,552.5,364.1,549.2z M232.2,528c-3.6,5.9-10.8,5.6-17.4,3.6
		c-11.8-3.6-20.3-11.1-23.9-22.3c-1.6-4.6-1.3-12.4,1.6-15.7c2.9-3.6,10.8-4.9,15.7-3.9c11.8,2,20,9.8,27.2,23.9
		C234.8,516.5,235.1,523,232.2,528z M260.6,483.1c-4.6,5.6-11.1,5.9-17.7,4.3c-12.1-3.3-21.3-10.5-25.5-21.9
		c-2-5.2-1.6-13.8,1.6-17.7c2.6-3.6,11.1-4.9,16.4-3.9c12.1,2,20.6,9.8,26.5,21.3C264.6,471.3,265.2,477.5,260.6,483.1z
		 M273.4,440.2c-11.8-1.6-23.6-10.8-30.5-22.3c1-5.9,0.7-12.4,3.3-17.4c3.6-6.2,10.8-7.2,17.7-5.6c13.1,3.3,23.2,10.5,27.8,23.2
		C296.7,431.7,287.5,442.2,273.4,440.2z"/>
	<path fill="#FFFFFF" d="M489.2,405.5c-20.3-47.5-40.3-95.3-60.6-143.1c-4.3-10.2-6.5-10.5-14.4-2.3
		c-33.1,34.1-65.8,68.1-99.2,101.8c-7.2,7.2-8.5,14.4-4.6,23.9c22.6,53.4,44.9,106.7,67.5,160.1c1,2.3,3.9,4.3,5.9,6.2
		c1-0.3,2-1,2.9-1.3c1.3-2,2.6-3.9,4.3-5.9c31.8-39.6,63.2-79.2,95.3-118.5C491.5,419.9,492.5,413.7,489.2,405.5z M382.1,411.1
		c-7.5,8.8-18.7,7.9-24.9-2.3c-7.5-12.1-5.6-31.8,4.3-41.9c8.8-9.5,21.3-5.9,27.5,10.2C392.3,387.5,391.3,400.3,382.1,411.1z
		 M444,425.5c-8.2,9.2-20,5.9-25.9-9.2c-2.9-9.5-2.6-21.3,4.6-31.8c7.2-10.8,18.7-10.5,25.2,0.3C454.8,396.3,452.9,416,444,425.5z"
		/>
</g>
<path fill="none" d="M305.5,134.7c-144.1,0-260.6,116.6-260.6,260.6c0,143.7,116.6,260.3,260.3,260.3s260.3-116.6,260.3-260.3
	C565.8,251.3,449.2,134.7,305.5,134.7z"/>
</svg>
