<svg xmlns="http://www.w3.org/2000/svg" xmlns:xlink="http://www.w3.org/1999/xlink" viewBox="41.8 147.7 520.6 521" xmlns:v="https://vecta.io/nano"><g fill="#fff"><path d="M248.9 541.7h-6.2v-37.3c0-1.3 0-2.3-.7-2.9-.7-.7-1.3-1-2.3-1h-1.3c-.6 0-1.3 0-2 .3l-9.5 2.6c-1.3.3-2.3.7-2.9 1.3-.7.7-1 1.3-1 2.3 0 1.3.7 2.3 1 2.9.3.7 1.3 1 2.3 1h1c.3 0 1-.3 1.6-.3l4.3-1v32.1H226c-1.6 0-2.9.3-3.6 1s-1 2-1 3.3.3 2.3 1 2.9 2 1 3.6 1h22.3c1.6 0 2.9-.3 3.6-1s1-1.6 1.6-2.9c0-1.6-.3-2.6-1-3.3s-2-1-3.6-1zm-59.3-296.3c-5.9 0-10.5 2.3-13.8 6.9s-4.9 10.5-4.9 18.3c0 7.5 1.6 13.8 4.9 18.3s7.9 6.9 13.8 6.9c5.6 0 10.5-2.3 13.8-6.9 3.3-4.3 4.9-10.5 5.2-18.3 0-7.5-2-13.8-5.2-18.3-3.3-4.6-7.9-6.9-13.8-6.9zm6.5 37c-1.6 2.9-3.9 4.6-6.5 4.6s-4.6-1.6-6.2-4.6c-1.6-2.9-2.3-6.9-2.3-12.1s1-9.2 2.3-12.1 3.6-4.3 6.2-4.3 4.9 1.3 6.5 4.3c1.6 2.9 2.3 6.9 2.3 12.1s-.6 9.1-2.3 12.1zm72.7 11.4c.7.7 2 1 3.6 1h22.3c1.6 0 2.9-.3 3.6-1s1-1.6 1-2.9c0-1.6-.3-2.6-1-3.3s-2-1-3.6-1h-5.9v-37.3c0-1.3 0-2.3-.7-2.9-.7-.7-1.3-1-2.3-1h-1.3c-.6 0-1.3 0-2 .3l-9.5 2.6c-1.3.3-2.3.7-2.9 1.3s-1 1.3-1 2.3c0 1.3.3 2.3 1 2.9.3.7 1.3 1 2.3 1h1c.3 0 1-.3 1.6-.3l4.3-1v32.1h-7.2c-1.6 0-2.9.3-3.6 1-.7.3-1 1.6-.7 3.3.1 1.3.4 2.3 1 2.9zm47.2 63.9c.7.7 2 1 3.6 1h22.3c1.6 0 2.9-.3 3.6-1s1-1.6 1-2.9c0-1.6-.3-2.6-1-3.3s-2-1-3.6-1h-6.2v-37.3c0-1.3 0-2.3-.7-2.9-.7-.7-1.3-1-2.3-1h-1.3c-.7 0-1.3 0-2 .3l-9.5 2.6c-1.3.3-2.3.7-2.9 1.3-.7.7-1 1.3-1 2.3 0 1.3.3 2.3 1 2.9.3.7 1.3 1 2.3 1h1c.3 0 1-.3 1.6-.3l4.3-1v32.1H319c-1.6 0-2.9.3-3.6 1-1 .3-1.3 1.6-.3 3.3-.1 1.3.2 2.2.9 2.9zm46.5-63.9c.7.7 2 1 3.6 1h22.3c1.6 0 2.9-.3 3.6-1s1-1.6 1-2.9c0-1.6-.3-2.6-1-3.3s-2-1-3.6-1h-6.2v-37.3c0-1.3-.3-2.3-.7-2.9-.7-.7-1.3-1-2.3-1h-1.3c-.7 0-1.3 0-2 .3l-9.5 2.6c-1.3.3-2.3.7-2.9 1.3-.7.7-1 1.3-1 2.3 0 1.3.3 2.3 1 2.9.3.7 1.3 1 2.3 1h1c.3 0 1-.3 1.6-.3l4.3-1v32.1h-7.2c-1.6 0-2.9.3-3.6 1-.7.3-1 1.6-.3 3.3-.1 1.3.2 2.3.9 2.9zm46.5 0c.7.7 2 1 3.6 1h22.3c1.6 0 2.9-.3 3.6-1s1-1.6 1-2.9c0-1.6-.3-2.6-1-3.3s-2-1-3.6-1h-6.2v-37.3c0-1.3-.3-2.3-.7-2.9-.7-.7-1.3-1-2.3-1h-1.3c-.6 0-1.3 0-2 .3l-9.5 2.6c-1.3.3-2.3.7-2.9 1.3s-1 1.3-1 2.3c0 1.3.3 2.3 1 2.9.3.7 1.3 1 2.3 1h1c.3 0 1-.3 1.6-.3l4.3-1v32.1H412c-1.6 0-2.9.3-3.6 1-.7.3-1 1.6-.3 3.3-.1 1.3.2 2.3.9 2.9z"/><path d="M316 293.8c.7.7 2 1 3.6 1h22.3c1.6 0 2.9-.3 3.6-1s1-1.6 1-2.9c0-1.6-.3-2.6-1-3.3s-2-1-3.6-1h-6.2v-37.3c0-1.3 0-2.3-.7-2.9s-1.3-1-2.3-1h-1.3c-.7 0-1.3 0-2 .3l-9.5 2.6c-1.3.3-2.3.7-2.9 1.3s-1 1.3-1 2.3c0 1.3.3 2.3 1 2.9.3.7 1.3 1 2.3 1h1c.3 0 1-.3 1.6-.3l4.3-1v32.1H319c-1.6 0-2.9.3-3.6 1-1 .3-1.3 1.6-.3 3.3-.1 1.3.2 2.3.9 2.9zm0 191.6c.7.7 2 1 3.6 1h22.3c1.6 0 2.9-.3 3.6-1s1-1.6 1-2.9c0-1.6-.3-2.6-1-3.3s-2-1-3.6-1h-6.2v-37.3c0-1.3 0-2.3-.7-2.9s-1.3-1-2.3-1h-1.3c-.7 0-1.3 0-2 .3l-9.5 2.6c-1.3.3-2.3.7-2.9 1.3-.7.7-1 1.3-1 2.3 0 1.3.3 2.3 1 2.9.3.7 1.3 1 2.3 1h1c.3 0 1-.3 1.6-.3l4.3-1v32.1H319c-1.6 0-2.9.3-3.6 1-1 .3-1.3 1.6-.3 3.3-.1 1.3.2 2.2.9 2.9z"/><path d="M316 421.5c.7.7 2 1 3.6 1h22.3c1.6 0 2.9-.3 3.6-1s1-1.6 1-2.9c0-1.6-.3-2.6-1-3.3s-2-1-3.6-1h-6.2V377c0-1.3 0-2.3-.7-2.9s-1.3-1-2.3-1h-1.3c-.7 0-1.3 0-2 .3l-9.5 2.6c-1.3.3-2.3.7-2.9 1.3s-1 1.3-1 2.3c0 1.3.3 2.3 1 2.9.3.7 1.3 1 2.3 1h1c.3 0 1-.3 1.6-.3l4.3-1v32.1H319c-1.6 0-2.9.3-3.6 1-1 .3-1.3 1.6-.3 3.3-.1 1.3.2 2.3.9 2.9zm-89.7-71c-1.6 0-2.9.3-3.6 1s-1 2-1 3.3.3 2.3 1 2.9c.7.7 2 1 3.6 1h22.3c1.6 0 2.9-.3 3.6-1s1-1.6 1-2.9c0-1.6-.3-2.6-1-3.3s-2-1-3.6-1h-6.2v-37.3c0-1.3 0-2.3-.7-2.9-.7-.7-1.3-1-2.3-1h-1.3c-.7 0-1.3 0-2 .3l-9.5 2.6c-1.3.3-2.3.7-2.9 1.3-.7.7-1 1.3-1 2.3 0 1.3.3 2.3 1 2.9.3.7 1.3 1 2.3 1h1c.3 0 1-.3 1.6-.3l4.9-1v32.1h-7.2zm186.3 127.7c-1.6 0-2.9.3-3.6 1s-1 2-1 3.3.3 2.3 1 2.9c.7.7 2 1 3.6 1h22.3c1.6 0 2.9-.3 3.6-1s1-1.6 1-2.9c0-1.6-.3-2.6-1-3.3s-2-1-3.6-1h-6.2v-37.3c0-1.3-.3-2.3-.7-2.9-.7-.7-1.3-1-2.3-1h-1.3c-.7 0-1.3 0-2 .3l-9.5 2.6c-1.3.3-2.3.7-2.9 1.3-.7.7-1 1.3-1 2.3 0 1.3.3 2.3 1 2.9.3.7 1.3 1 2.3 1h1c.3 0 1-.3 1.6-.3l4.9-1v32.1h-7.2zm-23.9 63.5h-6.2v-37.3c0-1.3-.3-2.3-.7-2.9-.7-.7-1.3-1-2.3-1h-1.3c-.7 0-1.3 0-2 .3l-9.5 2.6c-1.3.3-2.3.7-2.9 1.3-.7.7-1 1.3-1 2.3 0 1.3.7 2.3 1 2.9.3.7 1.3 1 2.3 1h1c.3 0 1-.3 1.6-.3l4.3-1v32.1h-7.2c-1.6 0-2.9.3-3.6 1s-1 2-1 3.3.3 2.3 1 2.9c.7.7 2 1 3.6 1H388c1.6 0 2.9-.3 3.6-1s1-1.6 1.6-2.9c0-1.6-.3-2.6-1-3.3-.6-.7-1.9-1-3.5-1zm-167-123.1c0 1.3.3 2.3 1 2.9.7.7 2 1 3.6 1h22.3c1.6 0 2.9-.3 3.6-1s1-1.6 1-2.9c0-1.6-.3-2.6-1-3.3s-2-1-3.6-1h-6.2V377c0-1.3 0-2.3-.7-2.9s-1.3-1-2.3-1h-1.3c-.6 0-1.3 0-2 .3l-9.5 2.6c-1.3.3-2.3.7-2.9 1.3s-1 1.3-1 2.3c0 1.3.3 2.3 1 2.9.3.7 1.3 1 2.3 1h1c.3 0 1-.3 1.6-.3l4.3-1v32.1h-7.2c-1.6 0-2.9.3-3.6 1-.7.3-1.4 1.7-.4 3.3zm75 25.2c-3.3-4.6-7.9-6.9-13.8-6.9s-10.5 2.3-13.8 6.9-4.9 10.5-4.9 18.3c0 7.5 1.6 13.8 4.9 18.3 3.3 4.6 7.9 6.9 13.8 6.9 5.6 0 10.5-2.3 13.8-6.9 3.3-4.3 4.9-10.5 5.2-18.3 0-7.5-2-13.7-5.2-18.3zm-7.6 30.1c-1.6 2.9-3.9 4.6-6.5 4.6s-4.6-1.6-6.2-4.6c-1.6-2.9-2.3-6.9-2.3-12.1s.7-9.2 2.3-12.1c1.3-2.9 3.6-4.3 6.2-4.3 2.9 0 4.9 1.6 6.5 4.3 1.6 2.9 2.3 6.9 2.3 12.1 0 5.3-.6 9.2-2.3 12.1zm7.6 33.8c-3.3-4.6-7.9-6.9-13.8-6.9s-10.5 2.3-13.8 6.9-4.9 10.8-4.9 18.3 1.6 13.8 4.9 18.3c3.3 4.6 7.9 6.9 13.8 6.9 5.6 0 10.5-2.3 13.8-6.9 3.3-4.3 4.9-10.5 5.2-18.3 0-7.5-2-13.8-5.2-18.3zm-7.6 30.1c-1.6 2.6-3.9 4.3-6.5 4.3s-4.6-1.3-6.2-4.3c-1.6-2.9-2.3-6.9-2.3-12.1s.7-9.2 2.3-12.1c1.3-2.9 3.6-4.3 6.2-4.3 2.9 0 4.9 1.6 6.5 4.3 1.6 2.9 2.3 6.9 2.3 12.1s-.6 9.1-2.3 12.1zm-39.3-285.5c-3.3-4.6-7.9-6.9-13.8-6.9s-10.5 2.3-13.8 6.9-4.9 10.5-4.9 18.3c0 7.5 1.6 13.8 4.9 18.3s7.9 6.9 13.8 6.9c5.6 0 10.5-2.3 13.8-6.9 3.6-4.3 5.2-10.5 5.2-18.3.1-7.5-1.9-13.8-5.2-18.3zm-7.2 30.1c-1.6 2.9-3.9 4.6-6.5 4.6s-4.6-1.6-6.2-4.6c-1.6-2.9-2.3-6.9-2.3-12.1s1-9.2 2.3-12.1 3.6-4.3 6.2-4.3 4.9 1.3 6.5 4.3c1.6 2.9 2.3 6.9 2.3 12.1s-.6 9.1-2.3 12.1zm54.1 97.6c-3.3-4.6-7.9-6.9-13.8-6.9s-10.5 2.3-13.8 6.9-4.9 10.8-4.9 18.3 1.6 13.8 4.9 18.3c3.3 4.6 7.9 6.9 13.8 6.9 5.6 0 10.5-2.3 13.8-6.9 3.3-4.3 4.9-10.5 5.2-18.3 0-7.5-2-13.8-5.2-18.3zm-7.6 30.1c-1.6 2.9-3.9 4.6-6.5 4.6s-4.6-1.6-6.2-4.6c-1.6-2.9-2.3-6.9-2.3-12.1s1-9.2 2.3-12.1 3.6-4.3 6.2-4.3c2.9 0 4.9 1.3 6.5 4.3 1.6 2.9 2.3 6.9 2.3 12.1s-.6 9.1-2.3 12.1zm7.6-94c-3.3-4.6-7.9-6.9-13.8-6.9s-10.5 2.3-13.8 6.9-4.9 10.5-4.9 18.3c0 7.5 1.6 13.8 4.9 18.3 3.3 4.6 7.9 6.9 13.8 6.9 5.6 0 10.5-2.3 13.8-6.9 3.3-4.3 4.9-10.5 5.2-18.3 0-7.5-2-13.7-5.2-18.3zm-7.6 30.1c-1.6 2.9-3.9 4.6-6.5 4.6s-4.6-1.6-6.2-4.6c-1.6-2.9-2.3-6.9-2.3-12.1s1-9.2 2.3-12.1 3.6-4.3 6.2-4.3c2.9 0 4.9 1.3 6.5 4.3 1.6 2.9 2.3 6.9 2.3 12.1 0 5.3-.6 9.2-2.3 12.1zm-39.3 97.6c-3.3-4.6-7.9-6.9-13.8-6.9s-10.5 2.3-13.8 6.9-4.9 10.5-4.9 18.3c0 7.5 1.6 13.8 4.9 18.3 3.3 4.6 7.9 6.9 13.8 6.9 5.6 0 10.5-2.3 13.8-6.9 3.6-4.3 5.2-10.5 5.2-18.3.1-7.5-1.9-13.7-5.2-18.3zm-7.2 30.1c-1.6 2.9-3.9 4.6-6.5 4.6s-4.6-1.6-6.2-4.6c-1.6-2.9-2.3-6.9-2.3-12.1s.7-9.2 2.3-12.1c1.3-2.9 3.6-4.3 6.2-4.3s4.9 1.6 6.5 4.3c1.6 2.9 2.3 6.9 2.3 12.1 0 5.3-.6 9.2-2.3 12.1zM203.3 380c-3.3-4.6-7.9-6.9-13.8-6.9s-10.5 2.3-13.8 6.9-4.9 10.8-4.9 18.3 1.6 13.8 4.9 18.3 7.9 6.9 13.8 6.9c5.6 0 10.5-2.3 13.8-6.9 3.3-4.3 4.9-10.5 5.2-18.3.1-7.5-1.9-13.8-5.2-18.3zm-7.2 30.1c-1.6 2.9-3.9 4.6-6.5 4.6s-4.6-1.6-6.2-4.6c-1.6-2.9-2.3-6.9-2.3-12.1s1-9.2 2.3-12.1 3.6-4.3 6.2-4.3 4.9 1.3 6.5 4.3c1.6 2.9 2.3 6.9 2.3 12.1s-.6 9.1-2.3 12.1zm7.2 97.6c-3.3-4.6-7.9-6.9-13.8-6.9s-10.5 2.3-13.8 6.9-4.9 10.8-4.9 18.3 1.6 13.8 4.9 18.3 7.9 6.9 13.8 6.9c5.6 0 10.5-2.3 13.8-6.9 3.3-4.3 4.9-10.5 5.2-18.3.1-7.5-1.9-13.8-5.2-18.3zm-7.2 30.1c-1.6 2.6-3.9 4.3-6.5 4.3s-4.6-1.3-6.2-4.3c-1.6-2.9-2.3-6.9-2.3-12.1s.7-9.2 2.3-12.1c1.3-2.9 3.6-4.3 6.2-4.3s4.6 1.6 6.5 4.3c1.6 2.9 2.3 6.9 2.3 12.1s-.6 9.1-2.3 12.1z"/><path d="M203.3 443.8c-3.3-4.6-7.9-6.9-13.8-6.9s-10.5 2.3-13.8 6.9-4.9 10.5-4.9 18.3c0 7.5 1.6 13.8 4.9 18.3 3.3 4.6 7.9 6.9 13.8 6.9 5.6 0 10.5-2.3 13.8-6.9 3.3-4.3 4.9-10.5 5.2-18.3.1-7.5-1.9-13.7-5.2-18.3zm-7.2 30.1c-1.6 2.9-3.9 4.6-6.5 4.6s-4.6-1.6-6.2-4.6c-1.6-2.9-2.3-6.9-2.3-12.1s.7-9.2 2.3-12.1c1.3-2.9 3.6-4.3 6.2-4.3s4.6 1.6 6.5 4.3c1.6 2.9 2.3 6.9 2.3 12.1 0 5.3-.6 9.2-2.3 12.1z"/><use xlink:href="#B"/><path d="M203.3 316.1c-3.3-4.6-7.9-6.9-13.8-6.9s-10.5 2.3-13.8 6.9-4.9 10.5-4.9 18.3c0 7.5 1.6 13.8 4.9 18.3 3.3 4.6 7.9 6.9 13.8 6.9 5.6 0 10.5-2.3 13.8-6.9 3.3-4.3 4.9-10.5 5.2-18.3.1-7.5-1.9-13.7-5.2-18.3zm-7.2 30.1c-1.6 2.9-3.9 4.6-6.5 4.6s-4.6-1.6-6.2-4.6c-1.6-2.9-2.3-6.9-2.3-12.1s1-9.2 2.3-12.1 3.6-4.3 6.2-4.3 4.9 1.3 6.5 4.3c1.6 2.9 2.3 6.9 2.3 12.1 0 5.3-.6 9.2-2.3 12.1zm147.1 161.5c-3.3-4.6-7.9-6.9-13.8-6.9s-10.5 2.3-13.8 6.9-4.9 10.8-4.9 18.3 1.6 13.8 4.9 18.3c3.3 4.6 7.9 6.9 13.8 6.9 5.6 0 10.5-2.3 13.8-6.9 3.3-4.3 5.2-10.5 5.2-18.3 0-7.5-2-13.8-5.2-18.3zm-7.2 30.1c-1.6 2.6-3.9 4.3-6.5 4.3s-4.6-1.3-6.2-4.3c-1.6-2.9-2.3-6.9-2.3-12.1s.7-9.2 2.3-12.1c1.3-2.9 3.6-4.3 6.2-4.3s4.9 1.6 6.5 4.3c1.6 2.9 2.3 6.9 2.3 12.1s-.7 9.1-2.3 12.1zm100.5-221.7c-3.3-4.6-7.9-6.9-13.8-6.9s-10.5 2.3-13.8 6.9-4.9 10.5-4.9 18.3c0 7.5 1.6 13.8 4.9 18.3 3.3 4.6 7.9 6.9 13.8 6.9 5.6 0 10.5-2.3 13.8-6.9 3.3-4.3 4.9-10.5 5.2-18.3 0-7.5-1.9-13.7-5.2-18.3zm-7.2 30.1c-1.6 2.9-3.9 4.6-6.5 4.6s-4.6-1.6-6.2-4.6-2.3-6.9-2.3-12.1.7-9.2 2.3-12.1c1.3-2.9 3.6-4.3 6.2-4.3s4.6 1.6 6.5 4.3c1.6 2.9 2.3 6.9 2.3 12.1 0 5.3-.7 9.2-2.3 12.1zm7.2 33.8c-3.3-4.6-7.9-6.9-13.8-6.9s-10.5 2.3-13.8 6.9-4.9 10.8-4.9 18.3 1.6 13.8 4.9 18.3 7.9 6.9 13.8 6.9c5.6 0 10.5-2.3 13.8-6.9 3.3-4.3 4.9-10.5 5.2-18.3 0-7.5-1.9-13.8-5.2-18.3zm-7.2 30.1c-1.6 2.9-3.9 4.6-6.5 4.6s-4.6-1.6-6.2-4.6-2.3-6.9-2.3-12.1.7-9.2 2.3-12.1c1.3-2.9 3.6-4.3 6.2-4.3s4.6 1.6 6.5 4.3c1.6 2.9 2.3 6.9 2.3 12.1s-.7 9.1-2.3 12.1z"/><use xlink:href="#B" y="-127.7"/><path d="M436.5 507.7c-3.3-4.6-7.9-6.9-13.8-6.9s-10.5 2.3-13.8 6.9-4.9 10.8-4.9 18.3 1.6 13.8 4.9 18.3 7.9 6.9 13.8 6.9c5.6 0 10.5-2.3 13.8-6.9 3.3-4.3 4.9-10.5 5.2-18.3 0-7.5-1.9-13.8-5.2-18.3zm-7.2 30.1c-1.6 2.6-3.9 4.3-6.5 4.3s-4.6-1.3-6.2-4.3-2.3-6.9-2.3-12.1.7-9.2 2.3-12.1c1.3-2.9 3.6-4.3 6.2-4.3s4.6 1.6 6.5 4.3c1.6 2.9 2.3 6.9 2.3 12.1s-.7 9.1-2.3 12.1zM389.7 380c-3.3-4.6-7.9-6.9-13.8-6.9s-10.5 2.3-13.8 6.9-4.9 10.8-4.9 18.3 1.6 13.8 4.9 18.3 7.9 6.9 13.8 6.9c5.6 0 10.5-2.3 13.8-6.9 3.6-4.3 5.2-10.5 5.2-18.3 0-7.5-2-13.8-5.2-18.3zm-7.2 30.1c-1.6 2.9-3.9 4.6-6.5 4.6s-4.6-1.6-6.2-4.6c-1.6-2.9-2.3-6.9-2.3-12.1s.7-9.2 2.3-12.1c1.3-2.9 3.6-4.3 6.2-4.3 2.9 0 4.9 1.6 6.5 4.3 1.6 2.9 2.3 6.9 2.3 12.1s-.7 9.1-2.3 12.1z"/></g><defs ><path id="B" d="M389.7 443.8c-3.3-4.6-7.9-6.9-13.8-6.9s-10.5 2.3-13.8 6.9-4.9 10.5-4.9 18.3c0 7.5 1.6 13.8 4.9 18.3 3.3 4.6 7.9 6.9 13.8 6.9 5.6 0 10.5-2.3 13.8-6.9 3.6-4.3 5.2-10.5 5.2-18.3 0-7.5-2-13.7-5.2-18.3zm-7.2 30.1c-1.6 2.9-3.9 4.6-6.5 4.6s-4.6-1.6-6.2-4.6c-1.6-2.9-2.3-6.9-2.3-12.1s.7-9.2 2.3-12.1c1.3-2.9 3.6-4.3 6.2-4.3 2.9 0 4.9 1.6 6.5 4.3 1.6 2.9 2.3 6.9 2.3 12.1 0 5.3-.7 9.2-2.3 12.1z"/></defs></svg>