<?xml version="1.0" encoding="utf-8"?>
<!-- Generator: Adobe Illustrator 18.1.1, SVG Export Plug-In . SVG Version: 6.00 Build 0)  -->
<svg version="1.1" id="computing" xmlns="http://www.w3.org/2000/svg" xmlns:xlink="http://www.w3.org/1999/xlink" x="0px" y="0px"
	 viewBox="41.8 147.7 520.6 521" enable-background="new 41.8 147.7 520.6 521" xml:space="preserve">
<g>
	<path fill="#FFFFFF" d="M248.9,541.7h-6.2v-37.3c0-1.3,0-2.3-0.7-2.9c-0.7-0.7-1.3-1-2.3-1c-0.3,0-0.7,0-1.3,0s-1.3,0-2,0.3
		l-9.5,2.6c-1.3,0.3-2.3,0.7-2.9,1.3c-0.7,0.7-1,1.3-1,2.3c0,1.3,0.7,2.3,1,2.9c0.3,0.7,1.3,1,2.3,1c0.3,0,0.7,0,1,0s1-0.3,1.6-0.3
		l4.3-1v32.1h-7.2c-1.6,0-2.9,0.3-3.6,1c-0.7,0.7-1,2-1,3.3c0,1.3,0.3,2.3,1,2.9s2,1,3.6,1h22.3c1.6,0,2.9-0.3,3.6-1
		c0.7-0.7,1-1.6,1.6-2.9c0-1.6-0.3-2.6-1-3.3C251.8,542,250.5,541.7,248.9,541.7z"/>
	<path fill="#FFFFFF" d="M189.6,245.4c-5.9,0-10.5,2.3-13.8,6.9c-3.3,4.6-4.9,10.5-4.9,18.3c0,7.5,1.6,13.8,4.9,18.3
		s7.9,6.9,13.8,6.9c5.6,0,10.5-2.3,13.8-6.9c3.3-4.3,4.9-10.5,5.2-18.3c0-7.5-2-13.8-5.2-18.3C200.1,247.7,195.5,245.4,189.6,245.4z
		 M196.1,282.4c-1.6,2.9-3.9,4.6-6.5,4.6c-2.6,0-4.6-1.6-6.2-4.6c-1.6-2.9-2.3-6.9-2.3-12.1c0-5.2,1-9.2,2.3-12.1s3.6-4.3,6.2-4.3
		c2.6,0,4.9,1.3,6.5,4.3c1.6,2.9,2.3,6.9,2.3,12.1C198.4,275.5,197.8,279.4,196.1,282.4z"/>
	<path fill="#FFFFFF" d="M268.8,293.8c0.7,0.7,2,1,3.6,1h22.3c1.6,0,2.9-0.3,3.6-1c0.7-0.7,1-1.6,1-2.9c0-1.6-0.3-2.6-1-3.3
		c-0.7-0.7-2-1-3.6-1h-5.9v-37.3c0-1.3,0-2.3-0.7-2.9c-0.7-0.7-1.3-1-2.3-1c-0.3,0-0.7,0-1.3,0s-1.3,0-2,0.3l-9.5,2.6
		c-1.3,0.3-2.3,0.7-2.9,1.3s-1,1.3-1,2.3c0,1.3,0.3,2.3,1,2.9c0.3,0.7,1.3,1,2.3,1c0.3,0,0.7,0,1,0s1-0.3,1.6-0.3l4.3-1v32.1h-7.2
		c-1.6,0-2.9,0.3-3.6,1c-0.7,0.3-1,1.6-0.7,3.3C267.9,292.2,268.2,293.2,268.8,293.8z"/>
	<path fill="#FFFFFF" d="M316,357.7c0.7,0.7,2,1,3.6,1h22.3c1.6,0,2.9-0.3,3.6-1s1-1.6,1-2.9c0-1.6-0.3-2.6-1-3.3s-2-1-3.6-1h-6.2
		v-37.3c0-1.3,0-2.3-0.7-2.9c-0.7-0.7-1.3-1-2.3-1c-0.3,0-0.7,0-1.3,0c-0.7,0-1.3,0-2,0.3l-9.5,2.6c-1.3,0.3-2.3,0.7-2.9,1.3
		c-0.7,0.7-1,1.3-1,2.3c0,1.3,0.3,2.3,1,2.9c0.3,0.7,1.3,1,2.3,1c0.3,0,0.7,0,1,0s1-0.3,1.6-0.3l4.3-1v32.1h-7.2
		c-1.6,0-2.9,0.3-3.6,1c-1,0.3-1.3,1.6-0.3,3.3C315,356.1,315.3,357,316,357.7z"/>
	<path fill="#FFFFFF" d="M362.5,293.8c0.7,0.7,2,1,3.6,1h22.3c1.6,0,2.9-0.3,3.6-1c0.7-0.7,1-1.6,1-2.9c0-1.6-0.3-2.6-1-3.3
		c-0.7-0.7-2-1-3.6-1h-6.2v-37.3c0-1.3-0.3-2.3-0.7-2.9c-0.7-0.7-1.3-1-2.3-1c-0.3,0-0.7,0-1.3,0c-0.7,0-1.3,0-2,0.3l-9.5,2.6
		c-1.3,0.3-2.3,0.7-2.9,1.3c-0.7,0.7-1,1.3-1,2.3c0,1.3,0.3,2.3,1,2.9c0.3,0.7,1.3,1,2.3,1c0.3,0,0.7,0,1,0s1-0.3,1.6-0.3l4.3-1
		v32.1h-7.2c-1.6,0-2.9,0.3-3.6,1c-0.7,0.3-1,1.6-0.3,3.3C361.5,292.2,361.8,293.2,362.5,293.8z"/>
	<path fill="#FFFFFF" d="M409,293.8c0.7,0.7,2,1,3.6,1h22.3c1.6,0,2.9-0.3,3.6-1c0.7-0.7,1-1.6,1-2.9c0-1.6-0.3-2.6-1-3.3
		s-2-1-3.6-1h-6.2v-37.3c0-1.3-0.3-2.3-0.7-2.9c-0.7-0.7-1.3-1-2.3-1c-0.3,0-0.7,0-1.3,0s-1.3,0-2,0.3l-9.5,2.6
		c-1.3,0.3-2.3,0.7-2.9,1.3s-1,1.3-1,2.3c0,1.3,0.3,2.3,1,2.9c0.3,0.7,1.3,1,2.3,1c0.3,0,0.7,0,1,0s1-0.3,1.6-0.3l4.3-1v32.1h-7.2
		c-1.6,0-2.9,0.3-3.6,1c-0.7,0.3-1,1.6-0.3,3.3C408,292.2,408.3,293.2,409,293.8z"/>
	<path fill="#FFFFFF" d="M316,293.8c0.7,0.7,2,1,3.6,1h22.3c1.6,0,2.9-0.3,3.6-1c0.7-0.7,1-1.6,1-2.9c0-1.6-0.3-2.6-1-3.3
		s-2-1-3.6-1h-6.2v-37.3c0-1.3,0-2.3-0.7-2.9s-1.3-1-2.3-1c-0.3,0-0.7,0-1.3,0c-0.7,0-1.3,0-2,0.3l-9.5,2.6
		c-1.3,0.3-2.3,0.7-2.9,1.3s-1,1.3-1,2.3c0,1.3,0.3,2.3,1,2.9c0.3,0.7,1.3,1,2.3,1c0.3,0,0.7,0,1,0s1-0.3,1.6-0.3l4.3-1v32.1h-7.2
		c-1.6,0-2.9,0.3-3.6,1c-1,0.3-1.3,1.6-0.3,3.3C315,292.2,315.3,293.2,316,293.8z"/>
	<path fill="#FFFFFF" d="M316,485.4c0.7,0.7,2,1,3.6,1h22.3c1.6,0,2.9-0.3,3.6-1s1-1.6,1-2.9c0-1.6-0.3-2.6-1-3.3s-2-1-3.6-1h-6.2
		v-37.3c0-1.3,0-2.3-0.7-2.9s-1.3-1-2.3-1c-0.3,0-0.7,0-1.3,0c-0.7,0-1.3,0-2,0.3l-9.5,2.6c-1.3,0.3-2.3,0.7-2.9,1.3
		c-0.7,0.7-1,1.3-1,2.3c0,1.3,0.3,2.3,1,2.9c0.3,0.7,1.3,1,2.3,1c0.3,0,0.7,0,1,0s1-0.3,1.6-0.3l4.3-1v32.1h-7.2
		c-1.6,0-2.9,0.3-3.6,1c-1,0.3-1.3,1.6-0.3,3.3C315,483.8,315.3,484.7,316,485.4z"/>
	<path fill="#FFFFFF" d="M316,421.5c0.7,0.7,2,1,3.6,1h22.3c1.6,0,2.9-0.3,3.6-1c0.7-0.7,1-1.6,1-2.9c0-1.6-0.3-2.6-1-3.3
		s-2-1-3.6-1h-6.2V377c0-1.3,0-2.3-0.7-2.9s-1.3-1-2.3-1c-0.3,0-0.7,0-1.3,0c-0.7,0-1.3,0-2,0.3l-9.5,2.6c-1.3,0.3-2.3,0.7-2.9,1.3
		s-1,1.3-1,2.3c0,1.3,0.3,2.3,1,2.9c0.3,0.7,1.3,1,2.3,1c0.3,0,0.7,0,1,0s1-0.3,1.6-0.3l4.3-1v32.1h-7.2c-1.6,0-2.9,0.3-3.6,1
		c-1,0.3-1.3,1.6-0.3,3.3C315,419.9,315.3,420.9,316,421.5z"/>
	<path fill="#FFFFFF" d="M226.3,350.5c-1.6,0-2.9,0.3-3.6,1c-0.7,0.7-1,2-1,3.3s0.3,2.3,1,2.9c0.7,0.7,2,1,3.6,1h22.3
		c1.6,0,2.9-0.3,3.6-1c0.7-0.7,1-1.6,1-2.9c0-1.6-0.3-2.6-1-3.3c-0.7-0.7-2-1-3.6-1h-6.2v-37.3c0-1.3,0-2.3-0.7-2.9
		c-0.7-0.7-1.3-1-2.3-1c-0.3,0-0.7,0-1.3,0c-0.7,0-1.3,0-2,0.3l-9.5,2.6c-1.3,0.3-2.3,0.7-2.9,1.3c-0.7,0.7-1,1.3-1,2.3
		c0,1.3,0.3,2.3,1,2.9c0.3,0.7,1.3,1,2.3,1c0.3,0,0.7,0,1,0c0.3,0,1-0.3,1.6-0.3l4.9-1v32.1H226.3z"/>
	<path fill="#FFFFFF" d="M412.6,478.2c-1.6,0-2.9,0.3-3.6,1s-1,2-1,3.3s0.3,2.3,1,2.9c0.7,0.7,2,1,3.6,1h22.3c1.6,0,2.9-0.3,3.6-1
		s1-1.6,1-2.9c0-1.6-0.3-2.6-1-3.3s-2-1-3.6-1h-6.2v-37.3c0-1.3-0.3-2.3-0.7-2.9c-0.7-0.7-1.3-1-2.3-1c-0.3,0-0.7,0-1.3,0
		c-0.7,0-1.3,0-2,0.3l-9.5,2.6c-1.3,0.3-2.3,0.7-2.9,1.3c-0.7,0.7-1,1.3-1,2.3c0,1.3,0.3,2.3,1,2.9c0.3,0.7,1.3,1,2.3,1
		c0.3,0,0.7,0,1,0c0.3,0,1-0.3,1.6-0.3l4.9-1v32.1H412.6z"/>
	<path fill="#FFFFFF" d="M388.7,541.7h-6.2v-37.3c0-1.3-0.3-2.3-0.7-2.9c-0.7-0.7-1.3-1-2.3-1c-0.3,0-0.7,0-1.3,0
		c-0.7,0-1.3,0-2,0.3l-9.5,2.6c-1.3,0.3-2.3,0.7-2.9,1.3c-0.7,0.7-1,1.3-1,2.3c0,1.3,0.7,2.3,1,2.9c0.3,0.7,1.3,1,2.3,1
		c0.3,0,0.7,0,1,0c0.3,0,1-0.3,1.6-0.3l4.3-1v32.1h-7.2c-1.6,0-2.9,0.3-3.6,1c-0.7,0.7-1,2-1,3.3c0,1.3,0.3,2.3,1,2.9
		c0.7,0.7,2,1,3.6,1H388c1.6,0,2.9-0.3,3.6-1s1-1.6,1.6-2.9c0-1.6-0.3-2.6-1-3.3C391.6,542,390.3,541.7,388.7,541.7z"/>
	<path fill="#FFFFFF" d="M221.7,418.6c0,1.3,0.3,2.3,1,2.9c0.7,0.7,2,1,3.6,1h22.3c1.6,0,2.9-0.3,3.6-1c0.7-0.7,1-1.6,1-2.9
		c0-1.6-0.3-2.6-1-3.3c-0.7-0.7-2-1-3.6-1h-6.2V377c0-1.3,0-2.3-0.7-2.9s-1.3-1-2.3-1c-0.3,0-0.7,0-1.3,0s-1.3,0-2,0.3l-9.5,2.6
		c-1.3,0.3-2.3,0.7-2.9,1.3s-1,1.3-1,2.3c0,1.3,0.3,2.3,1,2.9c0.3,0.7,1.3,1,2.3,1c0.3,0,0.7,0,1,0s1-0.3,1.6-0.3l4.3-1v32.1h-7.2
		c-1.6,0-2.9,0.3-3.6,1C221.4,415.6,220.7,417,221.7,418.6z"/>
	<path fill="#FFFFFF" d="M296.7,443.8c-3.3-4.6-7.9-6.9-13.8-6.9c-5.9,0-10.5,2.3-13.8,6.9c-3.3,4.6-4.9,10.5-4.9,18.3
		c0,7.5,1.6,13.8,4.9,18.3c3.3,4.6,7.9,6.9,13.8,6.9c5.6,0,10.5-2.3,13.8-6.9c3.3-4.3,4.9-10.5,5.2-18.3
		C301.9,454.6,299.9,448.4,296.7,443.8z M289.1,473.9c-1.6,2.9-3.9,4.6-6.5,4.6c-2.6,0-4.6-1.6-6.2-4.6c-1.6-2.9-2.3-6.9-2.3-12.1
		c0-5.2,0.7-9.2,2.3-12.1c1.3-2.9,3.6-4.3,6.2-4.3c2.9,0,4.9,1.6,6.5,4.3c1.6,2.9,2.3,6.9,2.3,12.1
		C291.4,467.1,290.8,471,289.1,473.9z"/>
	<path fill="#FFFFFF" d="M296.7,507.7c-3.3-4.6-7.9-6.9-13.8-6.9c-5.9,0-10.5,2.3-13.8,6.9c-3.3,4.6-4.9,10.8-4.9,18.3
		s1.6,13.8,4.9,18.3c3.3,4.6,7.9,6.9,13.8,6.9c5.6,0,10.5-2.3,13.8-6.9c3.3-4.3,4.9-10.5,5.2-18.3
		C301.9,518.5,299.9,512.2,296.7,507.7z M289.1,537.8c-1.6,2.6-3.9,4.3-6.5,4.3c-2.6,0-4.6-1.3-6.2-4.3c-1.6-2.9-2.3-6.9-2.3-12.1
		c0-5.2,0.7-9.2,2.3-12.1c1.3-2.9,3.6-4.3,6.2-4.3c2.9,0,4.9,1.6,6.5,4.3c1.6,2.9,2.3,6.9,2.3,12.1S290.8,534.8,289.1,537.8z"/>
	<path fill="#FFFFFF" d="M249.8,252.3c-3.3-4.6-7.9-6.9-13.8-6.9c-5.9,0-10.5,2.3-13.8,6.9c-3.3,4.6-4.9,10.5-4.9,18.3
		c0,7.5,1.6,13.8,4.9,18.3s7.9,6.9,13.8,6.9c5.6,0,10.5-2.3,13.8-6.9c3.6-4.3,5.2-10.5,5.2-18.3
		C255.1,263.1,253.1,256.8,249.8,252.3z M242.6,282.4c-1.6,2.9-3.9,4.6-6.5,4.6c-2.6,0-4.6-1.6-6.2-4.6c-1.6-2.9-2.3-6.9-2.3-12.1
		c0-5.2,1-9.2,2.3-12.1c1.3-2.9,3.6-4.3,6.2-4.3c2.6,0,4.9,1.3,6.5,4.3c1.6,2.9,2.3,6.9,2.3,12.1
		C244.9,275.5,244.3,279.4,242.6,282.4z"/>
	<path fill="#FFFFFF" d="M296.7,380c-3.3-4.6-7.9-6.9-13.8-6.9c-5.9,0-10.5,2.3-13.8,6.9c-3.3,4.6-4.9,10.8-4.9,18.3
		c0,7.5,1.6,13.8,4.9,18.3c3.3,4.6,7.9,6.9,13.8,6.9c5.6,0,10.5-2.3,13.8-6.9c3.3-4.3,4.9-10.5,5.2-18.3
		C301.9,390.8,299.9,384.5,296.7,380z M289.1,410.1c-1.6,2.9-3.9,4.6-6.5,4.6c-2.6,0-4.6-1.6-6.2-4.6c-1.6-2.9-2.3-6.9-2.3-12.1
		c0-5.2,1-9.2,2.3-12.1c1.3-2.9,3.6-4.3,6.2-4.3c2.9,0,4.9,1.3,6.5,4.3c1.6,2.9,2.3,6.9,2.3,12.1
		C291.4,403.2,290.8,407.1,289.1,410.1z"/>
	<path fill="#FFFFFF" d="M296.7,316.1c-3.3-4.6-7.9-6.9-13.8-6.9c-5.9,0-10.5,2.3-13.8,6.9c-3.3,4.6-4.9,10.5-4.9,18.3
		c0,7.5,1.6,13.8,4.9,18.3c3.3,4.6,7.9,6.9,13.8,6.9c5.6,0,10.5-2.3,13.8-6.9c3.3-4.3,4.9-10.5,5.2-18.3
		C301.9,326.9,299.9,320.7,296.7,316.1z M289.1,346.2c-1.6,2.9-3.9,4.6-6.5,4.6c-2.6,0-4.6-1.6-6.2-4.6c-1.6-2.9-2.3-6.9-2.3-12.1
		c0-5.2,1-9.2,2.3-12.1c1.3-2.9,3.6-4.3,6.2-4.3c2.9,0,4.9,1.3,6.5,4.3c1.6,2.9,2.3,6.9,2.3,12.1
		C291.4,339.4,290.8,343.3,289.1,346.2z"/>
	<path fill="#FFFFFF" d="M249.8,443.8c-3.3-4.6-7.9-6.9-13.8-6.9c-5.9,0-10.5,2.3-13.8,6.9c-3.3,4.6-4.9,10.5-4.9,18.3
		c0,7.5,1.6,13.8,4.9,18.3c3.3,4.6,7.9,6.9,13.8,6.9c5.6,0,10.5-2.3,13.8-6.9c3.6-4.3,5.2-10.5,5.2-18.3
		C255.1,454.6,253.1,448.4,249.8,443.8z M242.6,473.9c-1.6,2.9-3.9,4.6-6.5,4.6c-2.6,0-4.6-1.6-6.2-4.6c-1.6-2.9-2.3-6.9-2.3-12.1
		c0-5.2,0.7-9.2,2.3-12.1c1.3-2.9,3.6-4.3,6.2-4.3c2.6,0,4.9,1.6,6.5,4.3c1.6,2.9,2.3,6.9,2.3,12.1
		C244.9,467.1,244.3,471,242.6,473.9z"/>
	<path fill="#FFFFFF" d="M203.3,380c-3.3-4.6-7.9-6.9-13.8-6.9s-10.5,2.3-13.8,6.9s-4.9,10.8-4.9,18.3c0,7.5,1.6,13.8,4.9,18.3
		s7.9,6.9,13.8,6.9c5.6,0,10.5-2.3,13.8-6.9c3.3-4.3,4.9-10.5,5.2-18.3C208.6,390.8,206.6,384.5,203.3,380z M196.1,410.1
		c-1.6,2.9-3.9,4.6-6.5,4.6c-2.6,0-4.6-1.6-6.2-4.6c-1.6-2.9-2.3-6.9-2.3-12.1c0-5.2,1-9.2,2.3-12.1s3.6-4.3,6.2-4.3
		c2.6,0,4.9,1.3,6.5,4.3c1.6,2.9,2.3,6.9,2.3,12.1C198.4,403.2,197.8,407.1,196.1,410.1z"/>
	<path fill="#FFFFFF" d="M203.3,507.7c-3.3-4.6-7.9-6.9-13.8-6.9s-10.5,2.3-13.8,6.9s-4.9,10.8-4.9,18.3s1.6,13.8,4.9,18.3
		s7.9,6.9,13.8,6.9c5.6,0,10.5-2.3,13.8-6.9c3.3-4.3,4.9-10.5,5.2-18.3C208.6,518.5,206.6,512.2,203.3,507.7z M196.1,537.8
		c-1.6,2.6-3.9,4.3-6.5,4.3c-2.6,0-4.6-1.3-6.2-4.3c-1.6-2.9-2.3-6.9-2.3-12.1c0-5.2,0.7-9.2,2.3-12.1c1.3-2.9,3.6-4.3,6.2-4.3
		c2.6,0,4.6,1.6,6.5,4.3c1.6,2.9,2.3,6.9,2.3,12.1S197.8,534.8,196.1,537.8z"/>
	<path fill="#FFFFFF" d="M203.3,443.8c-3.3-4.6-7.9-6.9-13.8-6.9s-10.5,2.3-13.8,6.9c-3.3,4.6-4.9,10.5-4.9,18.3
		c0,7.5,1.6,13.8,4.9,18.3c3.3,4.6,7.9,6.9,13.8,6.9c5.6,0,10.5-2.3,13.8-6.9c3.3-4.3,4.9-10.5,5.2-18.3
		C208.6,454.6,206.6,448.4,203.3,443.8z M196.1,473.9c-1.6,2.9-3.9,4.6-6.5,4.6c-2.6,0-4.6-1.6-6.2-4.6c-1.6-2.9-2.3-6.9-2.3-12.1
		c0-5.2,0.7-9.2,2.3-12.1c1.3-2.9,3.6-4.3,6.2-4.3c2.6,0,4.6,1.6,6.5,4.3c1.6,2.9,2.3,6.9,2.3,12.1
		C198.4,467.1,197.8,471,196.1,473.9z"/>
	<path fill="#FFFFFF" d="M389.7,443.8c-3.3-4.6-7.9-6.9-13.8-6.9s-10.5,2.3-13.8,6.9c-3.3,4.6-4.9,10.5-4.9,18.3
		c0,7.5,1.6,13.8,4.9,18.3c3.3,4.6,7.9,6.9,13.8,6.9c5.6,0,10.5-2.3,13.8-6.9c3.6-4.3,5.2-10.5,5.2-18.3
		C394.9,454.6,392.9,448.4,389.7,443.8z M382.5,473.9c-1.6,2.9-3.9,4.6-6.5,4.6c-2.6,0-4.6-1.6-6.2-4.6c-1.6-2.9-2.3-6.9-2.3-12.1
		c0-5.2,0.7-9.2,2.3-12.1c1.3-2.9,3.6-4.3,6.2-4.3c2.9,0,4.9,1.6,6.5,4.3c1.6,2.9,2.3,6.9,2.3,12.1
		C384.8,467.1,384.1,471,382.5,473.9z"/>
	<path fill="#FFFFFF" d="M203.3,316.1c-3.3-4.6-7.9-6.9-13.8-6.9s-10.5,2.3-13.8,6.9c-3.3,4.6-4.9,10.5-4.9,18.3
		c0,7.5,1.6,13.8,4.9,18.3c3.3,4.6,7.9,6.9,13.8,6.9c5.6,0,10.5-2.3,13.8-6.9c3.3-4.3,4.9-10.5,5.2-18.3
		C208.6,326.9,206.6,320.7,203.3,316.1z M196.1,346.2c-1.6,2.9-3.9,4.6-6.5,4.6c-2.6,0-4.6-1.6-6.2-4.6c-1.6-2.9-2.3-6.9-2.3-12.1
		c0-5.2,1-9.2,2.3-12.1c1.3-2.9,3.6-4.3,6.2-4.3c2.6,0,4.9,1.3,6.5,4.3c1.6,2.9,2.3,6.9,2.3,12.1
		C198.4,339.4,197.8,343.3,196.1,346.2z"/>
	<path fill="#FFFFFF" d="M343.2,507.7c-3.3-4.6-7.9-6.9-13.8-6.9c-5.9,0-10.5,2.3-13.8,6.9s-4.9,10.8-4.9,18.3s1.6,13.8,4.9,18.3
		c3.3,4.6,7.9,6.9,13.8,6.9c5.6,0,10.5-2.3,13.8-6.9c3.3-4.3,5.2-10.5,5.2-18.3C348.4,518.5,346.4,512.2,343.2,507.7z M336,537.8
		c-1.6,2.6-3.9,4.3-6.5,4.3c-2.6,0-4.6-1.3-6.2-4.3c-1.6-2.9-2.3-6.9-2.3-12.1c0-5.2,0.7-9.2,2.3-12.1c1.3-2.9,3.6-4.3,6.2-4.3
		c2.6,0,4.9,1.6,6.5,4.3c1.6,2.9,2.3,6.9,2.3,12.1S337.6,534.8,336,537.8z"/>
	<path fill="#FFFFFF" d="M436.5,316.1c-3.3-4.6-7.9-6.9-13.8-6.9c-5.9,0-10.5,2.3-13.8,6.9c-3.3,4.6-4.9,10.5-4.9,18.3
		c0,7.5,1.6,13.8,4.9,18.3c3.3,4.6,7.9,6.9,13.8,6.9c5.6,0,10.5-2.3,13.8-6.9c3.3-4.3,4.9-10.5,5.2-18.3
		C441.7,326.9,439.8,320.7,436.5,316.1z M429.3,346.2c-1.6,2.9-3.9,4.6-6.5,4.6c-2.6,0-4.6-1.6-6.2-4.6s-2.3-6.9-2.3-12.1
		c0-5.2,0.7-9.2,2.3-12.1c1.3-2.9,3.6-4.3,6.2-4.3s4.6,1.6,6.5,4.3c1.6,2.9,2.3,6.9,2.3,12.1C431.6,339.4,430.9,343.3,429.3,346.2z"
		/>
	<path fill="#FFFFFF" d="M436.5,380c-3.3-4.6-7.9-6.9-13.8-6.9c-5.9,0-10.5,2.3-13.8,6.9s-4.9,10.8-4.9,18.3
		c0,7.5,1.6,13.8,4.9,18.3s7.9,6.9,13.8,6.9c5.6,0,10.5-2.3,13.8-6.9c3.3-4.3,4.9-10.5,5.2-18.3C441.7,390.8,439.8,384.5,436.5,380z
		 M429.3,410.1c-1.6,2.9-3.9,4.6-6.5,4.6c-2.6,0-4.6-1.6-6.2-4.6s-2.3-6.9-2.3-12.1c0-5.2,0.7-9.2,2.3-12.1c1.3-2.9,3.6-4.3,6.2-4.3
		s4.6,1.6,6.5,4.3c1.6,2.9,2.3,6.9,2.3,12.1C431.6,403.2,430.9,407.1,429.3,410.1z"/>
	<path fill="#FFFFFF" d="M389.7,316.1c-3.3-4.6-7.9-6.9-13.8-6.9s-10.5,2.3-13.8,6.9c-3.3,4.6-4.9,10.5-4.9,18.3
		c0,7.5,1.6,13.8,4.9,18.3c3.3,4.6,7.9,6.9,13.8,6.9c5.6,0,10.5-2.3,13.8-6.9c3.6-4.3,5.2-10.5,5.2-18.3
		C394.9,326.9,392.9,320.7,389.7,316.1z M382.5,346.2c-1.6,2.9-3.9,4.6-6.5,4.6c-2.6,0-4.6-1.6-6.2-4.6c-1.6-2.9-2.3-6.9-2.3-12.1
		c0-5.2,0.7-9.2,2.3-12.1c1.3-2.9,3.6-4.3,6.2-4.3c2.9,0,4.9,1.6,6.5,4.3c1.6,2.9,2.3,6.9,2.3,12.1
		C384.8,339.4,384.1,343.3,382.5,346.2z"/>
	<path fill="#FFFFFF" d="M436.5,507.7c-3.3-4.6-7.9-6.9-13.8-6.9c-5.9,0-10.5,2.3-13.8,6.9s-4.9,10.8-4.9,18.3s1.6,13.8,4.9,18.3
		s7.9,6.9,13.8,6.9c5.6,0,10.5-2.3,13.8-6.9c3.3-4.3,4.9-10.5,5.2-18.3C441.7,518.5,439.8,512.2,436.5,507.7z M429.3,537.8
		c-1.6,2.6-3.9,4.3-6.5,4.3c-2.6,0-4.6-1.3-6.2-4.3s-2.3-6.9-2.3-12.1c0-5.2,0.7-9.2,2.3-12.1c1.3-2.9,3.6-4.3,6.2-4.3
		s4.6,1.6,6.5,4.3c1.6,2.9,2.3,6.9,2.3,12.1S430.9,534.8,429.3,537.8z"/>
	<path fill="#FFFFFF" d="M389.7,380c-3.3-4.6-7.9-6.9-13.8-6.9s-10.5,2.3-13.8,6.9s-4.9,10.8-4.9,18.3c0,7.5,1.6,13.8,4.9,18.3
		s7.9,6.9,13.8,6.9c5.6,0,10.5-2.3,13.8-6.9c3.6-4.3,5.2-10.5,5.2-18.3C394.9,390.8,392.9,384.5,389.7,380z M382.5,410.1
		c-1.6,2.9-3.9,4.6-6.5,4.6c-2.6,0-4.6-1.6-6.2-4.6c-1.6-2.9-2.3-6.9-2.3-12.1c0-5.2,0.7-9.2,2.3-12.1c1.3-2.9,3.6-4.3,6.2-4.3
		c2.9,0,4.9,1.6,6.5,4.3c1.6,2.9,2.3,6.9,2.3,12.1C384.8,403.2,384.1,407.1,382.5,410.1z"/>
</g>
<path fill="none" d="M302.5,147.7c-144.1,0-260.6,116.6-260.6,260.6c0,143.7,116.6,260.3,260.3,260.3s260.3-116.6,260.3-260.3
	C562.8,264.3,446.2,147.7,302.5,147.7z"/>
</svg>
