<svg xmlns="http://www.w3.org/2000/svg" xmlns:xlink="http://www.w3.org/1999/xlink" viewBox="44.8 134.7 520.6 521" xmlns:v="https://vecta.io/nano"><g fill="#fff"><use xlink:href="#B"/><use xlink:href="#C"/><use xlink:href="#B" y="-34.7"/><use xlink:href="#C" y="34.7"/><use xlink:href="#D"/><path d="M202.7 441.8c-21.6 0-42.2 4.3-58.6 12.1a4.77 4.77 0 0 0-2.3 6.5c1.3 2.3 4.3 3.6 6.5 2.3 15.1-7.2 34.4-11.1 54.4-11.1 30.8 0 59.6 9.5 73.3 24.6 1 1 2.3 1.6 3.6 1.6 1 0 2.3-.3 3.3-1.3 2-2 2.3-4.9.3-6.9-15.7-17.3-46.5-27.8-80.5-27.8z"/><use xlink:href="#D" y="34.7"/><path d="M468.6 453.6c-16.4-7.9-37-12.1-58.6-12.1-34.1 0-64.8 10.8-80.6 27.8-1.6 2.3-1.6 5.2.3 7.2 1 1 2 1.3 3.3 1.3s2.6-.7 3.6-1.6c13.8-15.1 42.6-24.6 73.3-24.6 20 0 39.3 3.9 54.4 11.1 2.6 1.3 5.2.3 6.5-2.3 1.4-2.2.4-5.1-2.2-6.8z"/><use xlink:href="#E"/><path d="M399.5 254.9c-23.2 1.6-45.8 6.9-66.8 17-7.9 3.6-15.4 8.5-22.9 12.8-.7.3-2 .3-2.6 0-12.8-10.5-27.5-16.7-42.9-21.9-23.2-7.9-47.2-10.5-71.7-9.2-23.2 1.3-45.5 6.2-67.1 14.4-4.9 1.6-9.5 3.6-14.4 5.2v255.4c1.3 0 2.6.3 3.9.3h151.3c3.3-.3 5.9.3 8.8 2 5.9 3.6 12.8 4.9 19.6 5.6 12.8 1.3 25.2 1 37.7-3.6 1.6-.7 3.3-1.6 4.9-2.3 2-.7 3.9-1.6 5.9-1.6h153.9c1.6 0 2.9-.3 4.6-.3V273.3c-4.3-1.6-8.2-2.9-12.4-4.6-28.9-11.5-59-16.1-89.8-13.8zM293.7 508v2c-5.9-3.9-11.5-8.2-17.4-11.5-14.4-8.2-29.8-12.4-45.8-14.4-19.6-2.3-38.6-.3-57.6 5.2-13.8 3.9-26.9 10.2-39 17.7-.7.7-1.3 1-2.6 1.6-.3-1.3-.3-2.6-.3-3.6V295.8c0-2.3.7-3.6 2.9-4.9 24.6-13.1 50.8-15.7 77.9-14.1 17 1 33.7 3.9 49.4 10.8 10.5 4.6 20 10.5 26.5 20.3 4.3 6.2 5.9 13.1 5.9 19.6l.1 180.5zm188.6-212.2v195.5 13.8c0 1-.3 2-.3 3.3-3.9-2.3-7.9-4.6-11.5-6.5-19-10.2-38.6-16.7-59.9-18.3-21.6-1.6-42.6 1.3-62.9 9.5-8.2 3.3-16 7.5-22.9 13.4l-5.2 5.2v-4.3-151.9-16.7-9.2c0-15.4 7.2-26.5 19.3-35 12.4-8.2 26.2-12.4 40.6-15.1 24.2-4.3 48.5-4.6 72.4 1 9.8 2.3 19.3 5.9 28.5 10.8 2.3 1.2 1.9 2.9 1.9 4.5z"/><use xlink:href="#E" y="-34.7"/></g><defs ><path id="B" d="M333 373.7c1.3 0 2.6-.7 3.6-1.6 13.8-15.1 42.6-24.6 73.3-24.6 20 0 39.3 3.9 54.4 11.1 2.6 1.3 5.2.3 6.5-2.3s.3-5.6-2.3-6.9c-16.4-7.9-37-12.1-58.6-12.1-34.1 0-64.8 10.8-80.6 27.8-1.6 2.3-1.6 5.2.3 7.2 1.1 1.1 2.1 1.4 3.4 1.4z"/><path id="C" d="M202.7 303c-21.6 0-42.2 4.3-58.6 12.1a4.77 4.77 0 0 0-2.3 6.5c1.3 2.3 4.3 3.6 6.5 2.3 15.1-7.2 34.4-11.1 54.4-11.1 30.8 0 59.6 9.5 73.3 24.6 1 1 2.3 1.6 3.6 1.6 1 0 2.3-.3 3.3-1.3 2-2 2.3-5.2.3-6.9-15.7-17.3-46.5-27.8-80.5-27.8z"/><path id="D" d="M202.7 372.4c-21.6 0-42.2 4.3-58.6 12.1a4.77 4.77 0 0 0-2.3 6.5c1.3 2.3 3.9 3.6 6.5 2.3 15.1-7.2 34.4-11.1 54.4-11.1 30.8 0 59.6 9.5 73.3 24.6 1 1 2.3 1.6 3.6 1.6 1 0 2.3-.3 3.3-1.3 2-2 2.3-4.9.3-6.9-15.7-17.3-46.5-27.8-80.5-27.8z"/><path id="E" d="M468.9 418.9c-16.4-7.9-37-12.1-58.6-12.1-34.1 0-64.8 10.8-80.6 27.8-2 2.3-2 5.2.3 6.9 1 1 2 1.3 3.3 1.3s2.6-.7 3.6-1.6c13.8-15.1 42.6-24.6 73.3-24.6 20 0 39.3 3.9 54.4 11.1 2.6 1.3 5.2.3 6.5-2.3 1.4-2.2.1-5.2-2.2-6.5z"/></defs></svg>