<?xml version="1.0" encoding="utf-8"?>
<!-- Generator: Adobe Illustrator 18.1.1, SVG Export Plug-In . SVG Version: 6.00 Build 0)  -->
<svg version="1.1" id="reading" xmlns="http://www.w3.org/2000/svg" xmlns:xlink="http://www.w3.org/1999/xlink" x="0px" y="0px"
	 viewBox="44.8 134.7 520.6 521" enable-background="new 44.8 134.7 520.6 521" xml:space="preserve">
<g>
	<path fill="#FFFFFF" d="M333,373.7c1.3,0,2.6-0.7,3.6-1.6c13.8-15.1,42.6-24.6,73.3-24.6c20,0,39.3,3.9,54.4,11.1
		c2.6,1.3,5.2,0.3,6.5-2.3c1.3-2.6,0.3-5.6-2.3-6.9c-16.4-7.9-37-12.1-58.6-12.1c-34.1,0-64.8,10.8-80.6,27.8
		c-1.6,2.3-1.6,5.2,0.3,7.2C330.7,373.4,331.7,373.7,333,373.7z"/>
	<path fill="#FFFFFF" d="M202.7,303c-21.6,0-42.2,4.3-58.6,12.1c-2.3,1-3.6,3.9-2.3,6.5c1.3,2.3,4.3,3.6,6.5,2.3
		c15.1-7.2,34.4-11.1,54.4-11.1c30.8,0,59.6,9.5,73.3,24.6c1,1,2.3,1.6,3.6,1.6c1,0,2.3-0.3,3.3-1.3c2-2,2.3-5.2,0.3-6.9
		C267.5,313.5,236.7,303,202.7,303z"/>
	<path fill="#FFFFFF" d="M333,339c1.3,0,2.6-0.7,3.6-1.6c13.8-15.1,42.6-24.6,73.3-24.6c20,0,39.3,3.9,54.4,11.1
		c2.6,1.3,5.2,0.3,6.5-2.3c1.3-2.6,0.3-5.6-2.3-6.9c-16.4-7.9-37-12.1-58.6-12.1c-34.1,0-64.8,10.8-80.6,27.8
		c-1.6,2.3-1.6,5.2,0.3,7.2C330.7,338.7,331.7,339,333,339z"/>
	<path fill="#FFFFFF" d="M202.7,337.7c-21.6,0-42.2,4.3-58.6,12.1c-2.3,1-3.6,3.9-2.3,6.5c1.3,2.3,4.3,3.6,6.5,2.3
		c15.1-7.2,34.4-11.1,54.4-11.1c30.8,0,59.6,9.5,73.3,24.6c1,1,2.3,1.6,3.6,1.6c1,0,2.3-0.3,3.3-1.3c2-2,2.3-5.2,0.3-6.9
		C267.5,348.2,236.7,337.7,202.7,337.7z"/>
	<path fill="#FFFFFF" d="M202.7,372.4c-21.6,0-42.2,4.3-58.6,12.1c-2.3,1-3.6,3.9-2.3,6.5c1.3,2.3,3.9,3.6,6.5,2.3
		c15.1-7.2,34.4-11.1,54.4-11.1c30.8,0,59.6,9.5,73.3,24.6c1,1,2.3,1.6,3.6,1.6c1,0,2.3-0.3,3.3-1.3c2-2,2.3-4.9,0.3-6.9
		C267.5,382.9,236.7,372.4,202.7,372.4z"/>
	<path fill="#FFFFFF" d="M202.7,441.8c-21.6,0-42.2,4.3-58.6,12.1c-2.3,1-3.6,3.9-2.3,6.5c1.3,2.3,4.3,3.6,6.5,2.3
		c15.1-7.2,34.4-11.1,54.4-11.1c30.8,0,59.6,9.5,73.3,24.6c1,1,2.3,1.6,3.6,1.6c1,0,2.3-0.3,3.3-1.3c2-2,2.3-4.9,0.3-6.9
		C267.5,452.3,236.7,441.8,202.7,441.8z"/>
	<path fill="#FFFFFF" d="M202.7,407.1c-21.6,0-42.2,4.3-58.6,12.1c-2.3,1-3.6,3.9-2.3,6.5c1.3,2.3,3.9,3.6,6.5,2.3
		c15.1-7.2,34.4-11.1,54.4-11.1c30.8,0,59.6,9.5,73.3,24.6c1,1,2.3,1.6,3.6,1.6c1,0,2.3-0.3,3.3-1.3c2-2,2.3-4.9,0.3-6.9
		C267.5,417.6,236.7,407.1,202.7,407.1z"/>
	<path fill="#FFFFFF" d="M468.6,453.6c-16.4-7.9-37-12.1-58.6-12.1c-34.1,0-64.8,10.8-80.6,27.8c-1.6,2.3-1.6,5.2,0.3,7.2
		c1,1,2,1.3,3.3,1.3s2.6-0.7,3.6-1.6c13.8-15.1,42.6-24.6,73.3-24.6c20,0,39.3,3.9,54.4,11.1c2.6,1.3,5.2,0.3,6.5-2.3
		C472.2,458.2,471.2,455.3,468.6,453.6z"/>
	<path fill="#FFFFFF" d="M468.9,418.9c-16.4-7.9-37-12.1-58.6-12.1c-34.1,0-64.8,10.8-80.6,27.8c-2,2.3-2,5.2,0.3,6.9
		c1,1,2,1.3,3.3,1.3c1.3,0,2.6-0.7,3.6-1.6c13.8-15.1,42.6-24.6,73.3-24.6c20,0,39.3,3.9,54.4,11.1c2.6,1.3,5.2,0.3,6.5-2.3
		C472.5,423.2,471.2,420.2,468.9,418.9z"/>
	<path fill="#FFFFFF" d="M399.5,254.9c-23.2,1.6-45.8,6.9-66.8,17c-7.9,3.6-15.4,8.5-22.9,12.8c-0.7,0.3-2,0.3-2.6,0
		c-12.8-10.5-27.5-16.7-42.9-21.9c-23.2-7.9-47.2-10.5-71.7-9.2c-23.2,1.3-45.5,6.2-67.1,14.4c-4.9,1.6-9.5,3.6-14.4,5.2
		c0,85.1,0,170.3,0,255.4c1.3,0,2.6,0.3,3.9,0.3c50.4,0,100.9,0,151.3,0c3.3-0.3,5.9,0.3,8.8,2c5.9,3.6,12.8,4.9,19.6,5.6
		c12.8,1.3,25.2,1,37.7-3.6c1.6-0.7,3.3-1.6,4.9-2.3c2-0.7,3.9-1.6,5.9-1.6c51.4,0,102.5,0,153.9,0c1.6,0,2.9-0.3,4.6-0.3
		c0-85.1,0-170.3,0-255.4c-4.3-1.6-8.2-2.9-12.4-4.6C460.4,257.2,430.3,252.6,399.5,254.9z M293.7,508c0,1,0,1.6,0,2
		c-5.9-3.9-11.5-8.2-17.4-11.5c-14.4-8.2-29.8-12.4-45.8-14.4c-19.6-2.3-38.6-0.3-57.6,5.2c-13.8,3.9-26.9,10.2-39,17.7
		c-0.7,0.7-1.3,1-2.6,1.6c-0.3-1.3-0.3-2.6-0.3-3.6c0-69.7,0-139.5,0-209.2c0-2.3,0.7-3.6,2.9-4.9c24.6-13.1,50.8-15.7,77.9-14.1
		c17,1,33.7,3.9,49.4,10.8c10.5,4.6,20,10.5,26.5,20.3c4.3,6.2,5.9,13.1,5.9,19.6C293.7,387.8,293.7,447.7,293.7,508z M482.3,295.8
		c0,65.2,0,130.3,0,195.5c0,4.6,0,9.2,0,13.8c0,1-0.3,2-0.3,3.3c-3.9-2.3-7.9-4.6-11.5-6.5c-19-10.2-38.6-16.7-59.9-18.3
		c-21.6-1.6-42.6,1.3-62.9,9.5c-8.2,3.3-16,7.5-22.9,13.4c-1.6,1.6-3.3,3.3-5.2,5.2c0-2,0-2.9,0-4.3c0-50.8,0-101.2,0-151.9v-16.7
		c0-2.9,0-6.2,0-9.2c0-15.4,7.2-26.5,19.3-35c12.4-8.2,26.2-12.4,40.6-15.1c24.2-4.3,48.5-4.6,72.4,1c9.8,2.3,19.3,5.9,28.5,10.8
		C482.7,292.5,482.3,294.2,482.3,295.8z"/>
	<path fill="#FFFFFF" d="M468.9,384.2c-16.4-7.9-37-12.1-58.6-12.1c-34.1,0-64.8,10.8-80.6,27.8c-2,2.3-2,5.2,0.3,6.9
		c1,1,2,1.3,3.3,1.3c1.3,0,2.6-0.7,3.6-1.6c13.8-15.1,42.6-24.6,73.3-24.6c20,0,39.3,3.9,54.4,11.1c2.6,1.3,5.2,0.3,6.5-2.3
		C472.5,388.5,471.2,385.5,468.9,384.2z"/>
</g>
<path fill="none" d="M305.5,134.7c-144.1,0-260.6,116.6-260.6,260.6c0,143.7,116.6,260.3,260.3,260.3s260.3-116.6,260.3-260.3
	C565.8,251.3,449.2,134.7,305.5,134.7z"/>
</svg>
