<svg xmlns="http://www.w3.org/2000/svg" viewBox="44.8 134.7 520.6 521" fill="#fff" xmlns:v="https://vecta.io/nano"><path d="M265.8 274.6c-16.4 5.2-25.9 23.9-20.7 40.3 5.2 16.1 23.9 25.9 40.3 20.7 16.4-4.9 25.9-23.6 21.3-40-5.1-16.8-24.1-26.6-40.9-21zm42-86.3c-114.4 0-206.8 92.8-206.8 206.8C101 509.6 193.7 602 307.8 602c114.4 0 206.8-92.4 206.8-206.8s-92.7-206.9-206.8-206.9zm38.4 328.5c-16.4 5.9-34.7-3.3-40.3-20-5.6-16.4 3-34.1 19.7-39.7 17-5.6 34.7 3 40.3 19.7 5.2 16.4-3.4 34.1-19.7 40zm67.5 17.4c-9.5 7.2-20 13.1-29.8 19.7-.3-.7-.7-1-1-1.6l6.2-4.9c31.8-26.6 41.3-73.1 22.3-108.2-21-38.4-62.9-56.4-103.6-43.9-46.2 14.4-87.8-3-109.2-46.2-14.4-29.8-15.1-78 25.6-106.5 17.7-12.1 38-17.4 59-20.3 77.4-10.8 154.1 33.1 184.6 105.6 30.5 72.9 8.5 158.4-54.1 206.3z"/></svg>