<?xml version="1.0" encoding="utf-8"?>
<!-- Generator: Adobe Illustrator 18.1.1, SVG Export Plug-In . SVG Version: 6.00 Build 0)  -->
<svg version="1.1" id="Layer_4_copy" xmlns="http://www.w3.org/2000/svg" xmlns:xlink="http://www.w3.org/1999/xlink" x="0px"
	 y="0px" viewBox="44.8 134.7 520.6 521" enable-background="new 44.8 134.7 520.6 521" xml:space="preserve">
<g>
	<path fill="#FFFFFF" d="M265.8,274.6c-16.4,5.2-25.9,23.9-20.7,40.3c5.2,16.1,23.9,25.9,40.3,20.7c16.4-4.9,25.9-23.6,21.3-40
		C301.6,278.8,282.6,269,265.8,274.6z"/>
	<path fill="#FFFFFF" d="M307.8,188.3c-114.4,0-206.8,92.8-206.8,206.8C101,509.6,193.7,602,307.8,602
		c114.4,0,206.8-92.4,206.8-206.8S421.9,188.3,307.8,188.3z M346.2,516.8c-16.4,5.9-34.7-3.3-40.3-20c-5.6-16.4,3-34.1,19.7-39.7
		c17-5.6,34.7,3,40.3,19.7C371.1,493.2,362.5,510.9,346.2,516.8z M413.7,534.2c-9.5,7.2-20,13.1-29.8,19.7c-0.3-0.7-0.7-1-1-1.6
		c2-1.6,4.3-3.3,6.2-4.9c31.8-26.6,41.3-73.1,22.3-108.2c-21-38.4-62.9-56.4-103.6-43.9c-46.2,14.4-87.8-3-109.2-46.2
		c-14.4-29.8-15.1-78,25.6-106.5c17.7-12.1,38-17.4,59-20.3c77.4-10.8,154.1,33.1,184.6,105.6C498.3,400.8,476.3,486.3,413.7,534.2z
		"/>
</g>
<path fill="none" d="M305.5,134.7c-144.1,0-260.6,116.6-260.6,260.6c0,143.7,116.6,260.3,260.3,260.3s260.3-116.6,260.3-260.3
	C565.8,251.3,449.2,134.7,305.5,134.7z"/>
</svg>
