<svg xmlns="http://www.w3.org/2000/svg" viewBox="44.8 134.7 520.6 521" xmlns:v="https://vecta.io/nano"><path fill="#fff" d="M425.8 262.1c-17.4 0-37.4 3.3-59 8.9-18.4-9.2-39-14.1-61-14.1-72.8 0-132.4 55.4-139 126.2-43.6 41.3-68.8 86.2-50.2 118.7 7.2 12.5 23.9 27.5 62.6 27.5 18 0 39-3.3 61.6-9.5 19.3 10.2 41.3 16.1 64.9 16.1 76 0 137.7-60.3 139.6-135.7 39-39.7 60-81 42.6-110.8-7-12.6-23.7-27.3-62.1-27.3zm-95.4 184.5c-54.7 31.5-111.1 50.2-150.5 50.2-17.7 0-30.5-3.9-34.4-11.1-5.9-10.5 2.3-32.5 24.6-58.3 3.6 16.7 10.5 32.5 19.7 46.2 35.4-6.6 78.3-23.3 120.3-47.2 58.3-33.4 98-70.5 117.4-99-6.6-11.5-14.8-21.6-23.9-30.8 8.2-1.3 15.7-2 22.6-2 17.4 0 29.8 3.9 33.8 11.1 11.7 20.6-32.9 85.5-129.6 140.9z"/></svg>