<?xml version="1.0" encoding="utf-8"?>
<!-- Generator: Adobe Illustrator 18.1.1, SVG Export Plug-In . SVG Version: 6.00 Build 0)  -->
<svg version="1.1" id="Layer_4_copy" xmlns="http://www.w3.org/2000/svg" xmlns:xlink="http://www.w3.org/1999/xlink" x="0px"
	 y="0px" viewBox="44.8 134.7 520.6 521" enable-background="new 44.8 134.7 520.6 521" xml:space="preserve">
<g>
	<path fill="#FFFFFF" d="M425.8,262.1c-17.4,0-37.4,3.3-59,8.9c-18.4-9.2-39-14.1-61-14.1c-72.8,0-132.4,55.4-139,126.2
		c-43.6,41.3-68.8,86.2-50.2,118.7c7.2,12.5,23.9,27.5,62.6,27.5c18,0,39-3.3,61.6-9.5c19.3,10.2,41.3,16.1,64.9,16.1
		c76,0,137.7-60.3,139.6-135.7c39-39.7,60-81,42.6-110.8C480.9,276.8,464.2,262.1,425.8,262.1z M330.4,446.6
		c-54.7,31.5-111.1,50.2-150.5,50.2c-17.7,0-30.5-3.9-34.4-11.1c-5.9-10.5,2.3-32.5,24.6-58.3c3.6,16.7,10.5,32.5,19.7,46.2
		c35.4-6.6,78.3-23.3,120.3-47.2c58.3-33.4,98-70.5,117.4-99c-6.6-11.5-14.8-21.6-23.9-30.8c8.2-1.3,15.7-2,22.6-2
		c17.4,0,29.8,3.9,33.8,11.1C471.7,326.3,427.1,391.2,330.4,446.6z"/>
</g>
<path fill="none" d="M305.5,134.7c-144.1,0-260.6,116.6-260.6,260.6c0,143.7,116.6,260.3,260.3,260.3s260.3-116.6,260.3-260.3
	C565.8,251.3,449.2,134.7,305.5,134.7z"/>
</svg>
