<svg xmlns="http://www.w3.org/2000/svg" viewBox="45.6 135.2 521.2 521.2" fill="#fff" xmlns:v="https://vecta.io/nano"><path d="M340.3 402.4h-3v-2l.3-9.5c0-3.3 0-8.2.3-14.8 0-6.6.3-11.8.3-15.7v-7.2-2h2.6 2.3c1-.3 1.3-.7 1.3-2v-3.9c0-2.3-.3-3.3-1-3.6s-1.3-.7-2-.7-1.3 0-2.6-.3c-7.9-.3-13.8 0-17 1.3-1 .7-1.6 1.6-1.6 3.6.3 2 .7 3.6 1.6 4.6.7.7 1.6 1 3 .7 1.3-.3 2.6-.3 3.3-.3v1.6c0 6.6-.3 11.8-.3 16.1-.3 3.9-.3 9.2-.3 15.4 0 3.6 0 6.6-.3 9.5v7.2 1.6h-2.6-2.6c-1 0-1.3.7-1.3 2v3.9c0 1.6.3 2.3 1.3 3 .7.3 1.3.7 2.3 1 .7.3 1.6.3 3 .3h4.9 2.6c3.3 0 5.6 0 7.2-.3.7 0 1.3-.3 2-1s1-1.6 1-3c-.3-2.3-.7-3.9-1.3-4.6-.5-.6-1.8-.9-3.4-.9zm31.4-2c-.3-.3-1-.7-1.6-.7-2-.3-3.6-.3-4.9.3-1.6.7-2.3 2.3-3 4.9-.3 2.3-.3 3.6.7 4.6s1.3 1.6 2 2c2 1 3.9 1 5.6.3 2-.7 3-2.3 3.3-5.2.3-2 0-3.6-1-4.6-.4-.9-.7-1.2-1.1-1.6zm-4.6-10.1c3.6.7 5.6 0 5.9-2.6l.3-46.9c0-1.3-1-2.6-2.3-3.6s-3-1.3-4.9-1c-2 .3-3 2.3-3 4.9v34.4c0 1.3 0 4.6-.7 9.5.1 3 1.5 4.6 4.7 5.3zm-80.3-23c-3.6-.7-7.5-1.3-10.8-2.3-4.3-1-6.9-2.6-7.5-5.2-.3-4.6 1-7.5 4.6-8.9 2.6-1.3 5.6-2 8.9-2 3.9 0 6.2 1 7.2 3 1 2.3 3.3 3 7.5 2 3-1 4.6-3 4.6-5.9 0-2.3-2-4.3-5.6-6.2-3.3-1.6-7.2-2.6-12.5-3-8.2 0-14.1 1.6-18.7 5.9-3.9 3.6-5.9 8.5-5.9 14.4.3 5.6 2.3 9.2 6.2 11.1 3 1.6 7.2 3.3 12.8 4.3 2.6.7 5.2 1 7.2 1.6 3 .7 4.9 1.3 6.6 2.3 1.3.7 2.6 1.6 3.3 2.6 1 1 1.6 2.3 2 3.6s.7 2.3.7 3.6c0 1 0 2-.3 3s-.3 2-.7 3c-.7 1.3-1.3 2.6-2 3.6s-1.6 2-2.6 3c-2 1.3-4.9 2-9.5 2H281h-1.6l-3.6-.7c-1.6-.3-3-1-4.3-1.6-1.6-1.3-2.6-2.6-2.6-3.6v-4.3c0-1.6-.3-3-1.6-3.9s-2.3-1.3-3.6-1.6c-3.9 0-6.2 2-6.6 6.6 0 3.9 1.6 7.9 4.9 11.5s7.9 5.9 14.1 6.2c10.5 1 17.7-.3 22.3-3.6 3.6-2.6 6.2-6.2 7.9-10.8 1-2.6 1.3-5.6 1.6-8.9v-3.3c-2-3.3-3.6-6.2-5.6-9.2-3-3.7-8.3-6.6-15.5-8.3zm19.4-232.1c-143.9 0-260.6 116.7-260.6 260.6s116.7 260.6 260.6 260.6 260.6-116.7 260.6-260.6-116.7-260.6-260.6-260.6zm5.2 382.9c-16.4 0-32.8-2-47.9-5.9-24.9 30.5-60.3 38-60.3 38 10.2-22.3 14.4-40.6 15.7-55.7-46.5-24.9-77-68.8-77-118.7 0-78 75.7-141.6 169.5-141.6 93.4 0 169.1 63.6 169.1 141.9s-76 142-169.1 142z"/></svg>