<?xml version="1.0" encoding="utf-8"?>
<!-- Generator: Adobe Illustrator 18.1.1, SVG Export Plug-In . SVG Version: 6.00 Build 0)  -->
<svg version="1.1" id="margin" xmlns="http://www.w3.org/2000/svg" xmlns:xlink="http://www.w3.org/1999/xlink" x="0px" y="0px"
	 viewBox="45.6 135.2 521.2 521.2" enable-background="new 45.6 135.2 521.2 521.2" xml:space="preserve">
<g>
	<path fill="#FFFFFF" d="M340.3,402.4c-1.3,0-2.3,0-3,0v-2c0-2.3,0.3-5.2,0.3-9.5c0-3.3,0-8.2,0.3-14.8c0-6.6,0.3-11.8,0.3-15.7
		s0-6.6,0-7.2c0-1,0-1.6,0-2c1,0,1.6,0,2.6,0c0.7,0,1.6,0,2.3,0c1-0.3,1.3-0.7,1.3-2c0-1,0-2.3,0-3.9c0-2.3-0.3-3.3-1-3.6
		c-0.7-0.3-1.3-0.7-2-0.7s-1.3,0-2.6-0.3c-7.9-0.3-13.8,0-17,1.3c-1,0.7-1.6,1.6-1.6,3.6c0.3,2,0.7,3.6,1.6,4.6c0.7,0.7,1.6,1,3,0.7
		c1.3-0.3,2.6-0.3,3.3-0.3c0,0.7,0,1,0,1.6c0,6.6-0.3,11.8-0.3,16.1c-0.3,3.9-0.3,9.2-0.3,15.4c0,3.6,0,6.6-0.3,9.5
		c0,3.9,0,6.6,0,7.2s0,1.3,0,1.6c-1,0-1.6,0-2.6,0s-2,0-2.6,0c-1,0-1.3,0.7-1.3,2s0,2.3,0,3.9s0.3,2.3,1.3,3c0.7,0.3,1.3,0.7,2.3,1
		c0.7,0.3,1.6,0.3,3,0.3c2,0,3.6,0,4.9,0s2,0,2.6,0c3.3,0,5.6,0,7.2-0.3c0.7,0,1.3-0.3,2-1c0.7-0.7,1-1.6,1-3
		c-0.3-2.3-0.7-3.9-1.3-4.6C343.2,402.7,341.9,402.4,340.3,402.4z"/>
	<path fill="#FFFFFF" d="M371.7,400.4c-0.3-0.3-1-0.7-1.6-0.7c-2-0.3-3.6-0.3-4.9,0.3c-1.6,0.7-2.3,2.3-3,4.9
		c-0.3,2.3-0.3,3.6,0.7,4.6s1.3,1.6,2,2c2,1,3.9,1,5.6,0.3c2-0.7,3-2.3,3.3-5.2c0.3-2,0-3.6-1-4.6
		C372.4,401.1,372.1,400.8,371.7,400.4z"/>
	<path fill="#FFFFFF" d="M367.1,390.3c3.6,0.7,5.6,0,5.9-2.6l0.3-46.9c0-1.3-1-2.6-2.3-3.6c-1.3-1-3-1.3-4.9-1c-2,0.3-3,2.3-3,4.9
		v34.4c0,1.3,0,4.6-0.7,9.5C362.5,388,363.9,389.6,367.1,390.3z"/>
	<path fill="#FFFFFF" d="M286.8,367.3c-3.6-0.7-7.5-1.3-10.8-2.3c-4.3-1-6.9-2.6-7.5-5.2c-0.3-4.6,1-7.5,4.6-8.9
		c2.6-1.3,5.6-2,8.9-2c3.9,0,6.2,1,7.2,3c1,2.3,3.3,3,7.5,2c3-1,4.6-3,4.6-5.9c0-2.3-2-4.3-5.6-6.2c-3.3-1.6-7.2-2.6-12.5-3
		c-8.2,0-14.1,1.6-18.7,5.9c-3.9,3.6-5.9,8.5-5.9,14.4c0.3,5.6,2.3,9.2,6.2,11.1c3,1.6,7.2,3.3,12.8,4.3c2.6,0.7,5.2,1,7.2,1.6
		c3,0.7,4.9,1.3,6.6,2.3c1.3,0.7,2.6,1.6,3.3,2.6c1,1,1.6,2.3,2,3.6s0.7,2.3,0.7,3.6c0,1,0,2-0.3,3c-0.3,1-0.3,2-0.7,3
		c-0.7,1.3-1.3,2.6-2,3.6c-0.7,1-1.6,2-2.6,3c-2,1.3-4.9,2-9.5,2c-0.3,0-1,0-1.3,0c-0.3,0-1,0-1.6,0l-3.6-0.7c-1.6-0.3-3-1-4.3-1.6
		c-1.6-1.3-2.6-2.6-2.6-3.6c0-1,0-2.3,0-4.3c0-1.6-0.3-3-1.6-3.9s-2.3-1.3-3.6-1.6c-3.9,0-6.2,2-6.6,6.6c0,3.9,1.6,7.9,4.9,11.5
		c3.3,3.6,7.9,5.9,14.1,6.2c10.5,1,17.7-0.3,22.3-3.6c3.6-2.6,6.2-6.2,7.9-10.8c1-2.6,1.3-5.6,1.6-8.9c0-1,0-2.3,0-3.3
		c-2-3.3-3.6-6.2-5.6-9.2C299.3,371.9,294,369,286.8,367.3z"/>
	<path fill="#FFFFFF" d="M306.2,135.2c-143.9,0-260.6,116.7-260.6,260.6s116.7,260.6,260.6,260.6s260.6-116.7,260.6-260.6
		S450.1,135.2,306.2,135.2z M311.4,518.1c-16.4,0-32.8-2-47.9-5.9c-24.9,30.5-60.3,38-60.3,38c10.2-22.3,14.4-40.6,15.7-55.7
		c-46.5-24.9-77-68.8-77-118.7c0-78,75.7-141.6,169.5-141.6c93.4,0,169.1,63.6,169.1,141.9S404.5,518.1,311.4,518.1z"/>
</g>
</svg>
