<svg xmlns="http://www.w3.org/2000/svg" viewBox="44.8 134.7 520.6 521" xmlns:v="https://vecta.io/nano"><path fill="#fff" d="M459.4 272.6l-2.3-3.6c-.3-.7-.7-1.3-1-2l-21-21-.3-.3c-3.6-2.3-6.9-4.9-10.5-7.2-7.5-5.2-15.1-10.8-23.2-15.1-71.1-38.6-154.6-31.1-217.8 20-.7.7-1.6 1-2.6 1.6-.7.3-1 .7-1.6 1l-21.3 21-.3.3c-2.6 3.9-5.2 7.9-7.9 11.5-5.6 8.2-11.5 16.4-16 25.2-37 68.8-29.1 152.6 20.3 213.5.7 1 1.6 2.3 2.3 3.6.7.7 1 1.3 1.3 2l21 21 .3.3c4.9 2.9 9.5 6.2 14.1 9.5 10.2 6.9 20.3 14.1 31.8 19 73 31.8 141.8 23.2 204.7-25.2 1-.7 2.3-1.3 3.3-2 .7-.3 1-.7 1.6-1l21.3-21.3v-.4l7.9-11.1c5.9-8.2 11.8-16.4 16-25.5 36.2-75.3 29.4-147-20.1-213.8zM130.7 419.9c-5.9-36.7-.3-71.7 17.4-104.8 1.9 33.7-4 68.1-17.4 104.8zm238.7-134.2l9.5 1.6 43.2 8.2s1 .7 2.3 2.9l25.2 44.9c1 2 1.3 4.6.7 6.2l-14.1 39.9-3.9 11.1c-3.9 0-7.5-.3-11.1-.3l-38.3-1.3c-1.3 0-3.9-2-4.9-3.6l-27.2-53.4c-1-2-1.3-5.2-.7-6.9l14.7-38 4.6-11.3zm-35.7-66.8c-31.4 13.8-83.2 22.3-110 18 34.7-17.7 70.7-23.6 110-18zM155.2 407.8c-1.6-1.6-2.6-5.2-2.3-7.9 2.9-19.3 5.9-38.3 9.5-56.6.3-2 1.6-3.9 3.3-5.6.3-.7 1-1 1.6-1.3 7.9-4.9 16-9.5 24.2-13.8 5.6-3.3 11.5-6.5 17.4-9.8 3.3-1.6 4.6-1.6 6.9 1 4.3 4.6 8.5 8.8 14.1 14.4l8.2 8.2.7.3c16 7.9 20.3 22.9 13.4 47.8-1.6 6.5-2.6 13.4-3.6 20.3-1 4.9-1.6 10.2-2.6 15.1-.3 2-1.6 4.3-3.3 5.9-.7.7-1.6 1.3-2.3 1.6-13.4 5.9-28.2 11.5-44.5 17.4-2 .7-5.6-.3-6.5-1-11.6-11.1-23.1-23.6-34.2-36zm23.9 112.3c30.8 4.9 58.3 20.3 86.4 47.8-33-6.5-61.8-22.9-86.4-47.8zm133.3-.3a5.8 5.8 0 0 1-2.9 1.6c-8.2 2.6-16.4 5.6-24.2 8.5-7.9 2.9-16 5.9-24.2 8.5-2.3.7-5.6.3-7.5-.7-15.7-8.5-30.5-17.4-42.9-24.9-2.3-1.3-3.9-3.3-4.3-4.6l-7.5-39-2-10.8 11.1-4.3 39.3-15.1c1.6-.7 4.6-.3 6.9.7l54 27.5c1.6 1 3.9 4.3 3.9 6.5.7 8.2.7 16 1 23.9.3 5.9.3 11.5.3 17 .3 3.5-.4 4.5-1 5.2zm-6.2-180.4l-7.5 1.3c-9.5 1.6-19.3 3.3-28.8 4.3-2.6.3-6.2-1-7.9-2.6-7.2-6.5-14.1-13.8-20.6-20.3-5.2-5.6-11.1-11.1-16.7-16.7-2.9-2.9-3.3-4.6-1.3-8.2l10.5-18.7 12.1-21.6c.3-.3.7-1 1.3-1.6 2-2 4.3-3.3 6.2-3.6 16.7-3.3 34.7-5.9 57.6-9.2 2-.3 4.9.3 6.5 1.6 4.6 3.6 9.2 7.9 13.4 11.8 1.3 1.3 2.3 2.3 3.6 3.3l-.3.3 1.6 1.6c2 2 4.6 4.3 7.2 6.2 5.6 4.3 10.8 8.8 12.1 13.8 1.3 4.6-2 11.1-4.9 17-1.3 2.9-2.9 5.9-3.9 8.8 0 .3-.3.3-.3.7-1 2.9-2 6.2-2.9 9.2-2 6.5-3.9 13.4-9.2 17-4.3 3.6-11.5 3.9-18.3 4.6-3.3.3-6.6.3-9.5 1zM372 531.6l-34.4-7.9c-3.6-1-7.2-1.6-10.8-2.6l-.3-9.8c-.7-12.1-1-24.6-1-37 0-.3.3-1.6 3.3-4.6l54.7-54.7c1.3-1 3.3-2 4.9-2 11.1 0 21.9.3 33.7.7l9.8.3c1 3.6 1.6 7.2 2.6 10.8l8.2 36.7c.3 1.3-.7 4.6-2 5.9l-61.9 62.2c-1.6 1.3-4.9 2.3-6.8 2zm60.9-10.8c-17.7 18-38 31.1-57.6 38 13.4-18.3 28.5-36 44.9-52.7 15.4-15.4 32.4-30.1 50.8-44.2-6 19.2-19.8 40.5-38.1 58.9zm-2-252.5c24.9 23.6 41.3 52.4 48.5 85.8-24.9-22.9-40.9-51.8-48.5-85.8z"/></svg>