<svg xmlns="http://www.w3.org/2000/svg" viewBox="45.8 134.7 520.6 521" fill="#eff4fb" xmlns:v="https://vecta.io/nano"><path d="M518.3 303.3c0-7.9.3-15.1 0-22.3-.3-3.3-3.6-7.2-6.9-7.5l-2-.3c-17.4-2.6-35.4-5.6-53-7.5-10.5-1.3-21-2-31.4-2-21.9 0-43.2 2.6-63.9 8.2-3.3 1-6.2 1.6-9.5 2.6l-26.5 6.5c-3.9 1-7.9 1-12.1 1h-5.9-5.9c-4.3 0-8.2-.3-12.1-1-8.8-1.6-18-4.3-26.5-6.5-3.3-1-6.2-1.6-9.5-2.6-20.6-5.6-41.9-8.2-63.9-8.2-10.2 0-21 .7-31.4 2l-53 7.5-2 .3c-3.3.7-6.9 4.6-6.9 7.5-.3 7.2-.3 14.4 0 22.3 0 2.3 1 5.6 3.6 6.9 6.5 2.9 7.9 8.2 9.5 16.4l.3 1.3c3.6 17 7.2 34.4 11.8 51.4 2.9 10.5 9.5 19.3 19.6 25.2 10.8 6.5 23.6 10.5 38.3 12.1 9.2 1 19 1 31.4 0 24.2-2 43.6-11.5 57.3-28.5 12.8-15.4 21.6-33.4 27.5-55 2-7.2 4.6-9.5 12.1-9.8 7.2.3 10.2 2.6 12.1 9.8 5.9 21.3 14.7 39.3 27.5 55 14.1 17 33.1 26.5 57.3 28.5 5.9.3 11.1.7 16.4.7 5.6 0 10.5 0 15.1-.7 15.1-1.6 27.5-5.6 38.3-12.1 10.2-6.2 17-14.7 19.6-25.2 4.6-17.4 8.2-34.7 11.8-51.4l.3-1.3c2-8.2 3.3-13.4 9.5-16.4 2.8-1 3.8-4.6 3.1-6.9zm-243.2 22.6c-3.3 24.9-13.1 45.5-29.8 60.6-11.8 10.5-26.5 15.4-46.8 15.4-2.6 0-5.2-.3-7.9-.3-6.5-.3-13.8-1.6-22.6-3.9-19.3-4.9-31.4-18-36.3-38-4.3-18.3-5.2-34.7-2.9-50.1 2-13.1 9.2-21 21.6-22.9 9.5-1.6 19-2.9 28.2-4.3 3.9-.7 8.2-1 12.1-1.6 24.2 1.3 45.5 5.6 64.8 13.4 15.6 6.2 21.8 16 19.6 31.7zM483.6 359c-4.6 20-17 32.7-36.3 38-8.8 2.3-16 3.6-22.6 3.9-2.6.3-5.2.3-7.9.3-20.3 0-35.4-4.9-46.8-15.4-16.7-15.1-26.5-35.7-29.8-60.6-2-15.4 4.3-25.2 20-31.4 19.3-7.9 40.6-12.1 64.8-13.4 3.9.7 8.2 1 12.1 1.6l28.2 4.3c12.4 2.3 20 9.8 21.3 22.6 2.3 15.1 1.3 31.8-3 50.1zm-85.4-51.7c-18.7 0-33.7 15.1-33.7 33.7s15.1 33.7 33.7 33.7c18.7 0 33.7-15.1 33.7-33.7s-15.1-33.7-33.7-33.7zm0 36.6c-6.5 0-11.8-5.3-11.8-11.8s5.3-11.8 11.8-11.8 11.8 5.3 11.8 11.8c0 6.6-5.3 11.8-11.8 11.8zm65.5 123.5c-4.6-2.3-10.5-.7-13.1 4.3-28.2 54-83.5 87.8-144.4 87.8S190 525.8 161.8 471.7c-2.3-4.9-8.2-6.9-13.1-4.3-4.9 2.3-6.9 8.2-4.3 13.1 31.4 60.9 93.3 98.6 161.8 98.6s130.3-38 161.8-98.6c2.2-4.9.6-10.8-4.3-13.1zm-244-160.1c-18.7 0-33.7 15.1-33.7 33.7s15.1 33.7 33.7 33.7c18.7 0 33.7-15.1 33.7-33.7s-15-33.7-33.7-33.7zm0 36.6c-6.5 0-11.8-5.3-11.8-11.8s5.3-11.8 11.8-11.8 11.8 5.3 11.8 11.8c0 6.6-5.3 11.8-11.8 11.8z"/></svg>