<?xml version="1.0" encoding="utf-8"?>
<!-- Generator: Adobe Illustrator 18.1.1, SVG Export Plug-In . SVG Version: 6.00 Build 0)  -->
<svg version="1.1" id="welcome_1_" xmlns="http://www.w3.org/2000/svg" xmlns:xlink="http://www.w3.org/1999/xlink" x="0px" y="0px"
	 viewBox="45.8 134.7 520.6 521" enable-background="new 45.8 134.7 520.6 521" xml:space="preserve">
<path fill="#EFF4FB" d="M518.3,303.3c0-7.9,0.3-15.1,0-22.3c-0.3-3.3-3.6-7.2-6.9-7.5l-2-0.3c-17.4-2.6-35.4-5.6-53-7.5
	c-10.5-1.3-21-2-31.4-2c-21.9,0-43.2,2.6-63.9,8.2c-3.3,1-6.2,1.6-9.5,2.6c-8.8,2.3-17.7,4.6-26.5,6.5c-3.9,1-7.9,1-12.1,1
	c-2,0-3.9,0-5.9,0c-2,0-3.9,0-5.9,0c-4.3,0-8.2-0.3-12.1-1c-8.8-1.6-18-4.3-26.5-6.5c-3.3-1-6.2-1.6-9.5-2.6
	c-20.6-5.6-41.9-8.2-63.9-8.2c-10.2,0-21,0.7-31.4,2c-17.7,2.3-35.7,4.9-53,7.5l-2,0.3c-3.3,0.7-6.9,4.6-6.9,7.5
	c-0.3,7.2-0.3,14.4,0,22.3c0,2.3,1,5.6,3.6,6.9c6.5,2.9,7.9,8.2,9.5,16.4l0.3,1.3c3.6,17,7.2,34.4,11.8,51.4
	c2.9,10.5,9.5,19.3,19.6,25.2c10.8,6.5,23.6,10.5,38.3,12.1c9.2,1,19,1,31.4,0c24.2-2,43.6-11.5,57.3-28.5
	c12.8-15.4,21.6-33.4,27.5-55c2-7.2,4.6-9.5,12.1-9.8c7.2,0.3,10.2,2.6,12.1,9.8c5.9,21.3,14.7,39.3,27.5,55
	c14.1,17,33.1,26.5,57.3,28.5c5.9,0.3,11.1,0.7,16.4,0.7c5.6,0,10.5,0,15.1-0.7c15.1-1.6,27.5-5.6,38.3-12.1
	c10.2-6.2,17-14.7,19.6-25.2c4.6-17.4,8.2-34.7,11.8-51.4l0.3-1.3c2-8.2,3.3-13.4,9.5-16.4C518,309.2,519,305.6,518.3,303.3z
	 M275.1,325.9c-3.3,24.9-13.1,45.5-29.8,60.6c-11.8,10.5-26.5,15.4-46.8,15.4c-2.6,0-5.2-0.3-7.9-0.3c-6.5-0.3-13.8-1.6-22.6-3.9
	c-19.3-4.9-31.4-18-36.3-38c-4.3-18.3-5.2-34.7-2.9-50.1c2-13.1,9.2-21,21.6-22.9c9.5-1.6,19-2.9,28.2-4.3c3.9-0.7,8.2-1,12.1-1.6
	c24.2,1.3,45.5,5.6,64.8,13.4C271.1,300.4,277.3,310.2,275.1,325.9z M483.6,359c-4.6,20-17,32.7-36.3,38c-8.8,2.3-16,3.6-22.6,3.9
	c-2.6,0.3-5.2,0.3-7.9,0.3c-20.3,0-35.4-4.9-46.8-15.4c-16.7-15.1-26.5-35.7-29.8-60.6c-2-15.4,4.3-25.2,20-31.4
	c19.3-7.9,40.6-12.1,64.8-13.4c3.9,0.7,8.2,1,12.1,1.6c9.5,1.3,19,2.6,28.2,4.3c12.4,2.3,20,9.8,21.3,22.6
	C488.9,324,487.9,340.7,483.6,359z"/>
<path fill="#EFF4FB" d="M398.2,307.3c-18.7,0-33.7,15.1-33.7,33.7s15.1,33.7,33.7,33.7c18.7,0,33.7-15.1,33.7-33.7
	S416.8,307.3,398.2,307.3z M398.2,343.9c-6.5,0-11.8-5.3-11.8-11.8c0-6.5,5.3-11.8,11.8-11.8s11.8,5.3,11.8,11.8
	C410,338.7,404.7,343.9,398.2,343.9z"/>
<path fill="#EFF4FB" d="M463.7,467.4c-4.6-2.3-10.5-0.7-13.1,4.3c-28.2,54-83.5,87.8-144.4,87.8s-116.2-33.7-144.4-87.8
	c-2.3-4.9-8.2-6.9-13.1-4.3c-4.9,2.3-6.9,8.2-4.3,13.1c31.4,60.9,93.3,98.6,161.8,98.6s130.3-38,161.8-98.6
	C470.2,475.6,468.6,469.7,463.7,467.4z"/>
<path fill="#EFF4FB" d="M219.7,307.3c-18.7,0-33.7,15.1-33.7,33.7s15.1,33.7,33.7,33.7c18.7,0,33.7-15.1,33.7-33.7
	S238.4,307.3,219.7,307.3z M219.7,343.9c-6.5,0-11.8-5.3-11.8-11.8c0-6.5,5.3-11.8,11.8-11.8c6.5,0,11.8,5.3,11.8,11.8
	C231.5,338.7,226.2,343.9,219.7,343.9z"/>
<g>
	<path fill="none" d="M306.5,134.7c-144.1,0-260.6,116.6-260.6,260.6c0,143.7,116.6,260.3,260.3,260.3s260.3-116.6,260.3-260.3
		C566.8,251.3,450.2,134.7,306.5,134.7z"/>
</g>
</svg>
