<svg width="109" height="116" viewBox="0 0 109 116" fill="none" xmlns="http://www.w3.org/2000/svg">
<g clip-path="url(#clip0_1309_21396)">
<path d="M69.2057 57.5538L58.6475 69.2502L88.4921 102.312L99.0504 90.6158L69.2057 57.5538Z" fill="#C0C4C6"/>
<path d="M77.1497 40.7334C86.7558 40.7334 94.5701 32.0767 94.5701 21.435C94.5701 18.237 93.7737 15.2595 92.5294 12.6129L79.0908 27.5002L71.6747 19.2846L85.1133 4.39728C82.7242 3.01882 80.0365 2.13661 77.1497 2.13661C67.5436 2.13661 59.7293 10.7933 59.7293 21.435C59.7293 23.6957 60.1275 25.8461 60.7746 27.8311L51.5666 38.0317L42.7071 28.217L46.241 24.3022L39.223 16.5277L49.7748 4.83839C43.9514 -1.6128 34.4946 -1.6128 28.6713 4.83839L11.0518 24.3574L18.0697 32.1319H4.03385L0.5 36.0467L18.1195 55.5656L21.6533 51.6508V36.0467L28.6713 43.8212L32.2051 39.9064L41.0646 49.721L4.18317 90.5785L14.7349 102.268L71.3761 39.5755C73.1679 40.2923 75.109 40.7334 77.1497 40.7334Z" fill="#C0C4C6"/>
</g>
<defs>
<clipPath id="clip0_1309_21396">
<rect width="108" height="116" fill="white" transform="translate(0.5)"/>
</clipPath>
</defs>
</svg>
