<svg width="586" height="341" viewBox="0 0 586 341" fill="none" xmlns="http://www.w3.org/2000/svg">
<path d="M31.7467 337.751C-30.094 293.339 14.1048 236.796 33.415 193.866C53.8475 148.44 -56.4447 67.679 99.1585 21.4188C254.762 -24.8394 492.873 3.60159 560.749 108.967C629.048 214.988 537.158 339.216 537.158 339.216L31.7467 337.751Z" fill="#DBEEED"/>
<path d="M586 212.35C583.516 211.31 580.559 210.704 577.415 210.672C574.498 206.283 567.7 203.353 559.972 203.353C555.334 203.353 550.936 204.442 547.546 206.306C543.772 200.853 535.104 197.041 525.283 197.041C518.833 197.041 512.714 198.653 508.18 201.503C507.53 201.438 506.875 201.404 506.217 201.404C499.191 201.404 493.474 205.019 493.474 209.464C493.474 210.461 493.765 211.438 494.321 212.35H586Z" fill="white"/>
<path d="M69.2109 88.583C71.8124 87.6748 74.9066 87.1466 78.1985 87.1162C81.2516 83.2801 88.3697 80.719 96.4596 80.719C101.315 80.719 105.918 81.6689 109.468 83.2991C113.418 78.5321 122.491 75.1995 132.772 75.1995C139.525 75.1995 145.93 76.6074 150.678 79.1002C151.357 79.0432 152.044 79.0147 152.731 79.0147C160.088 79.0147 166.072 82.1743 166.072 86.0598C166.072 86.9319 165.766 87.785 165.184 88.583H69.2109Z" fill="white"/>
<path d="M148.997 54.7871C152.357 53.383 156.354 52.5641 160.606 52.5185C164.549 46.5849 173.744 42.6253 184.192 42.6253C190.463 42.6253 196.408 44.0959 200.994 46.6171C206.095 39.2433 217.815 34.0905 231.094 34.0905C239.816 34.0905 248.09 36.2679 254.221 40.1211C255.098 40.0337 255.986 39.99 256.873 39.99C266.376 39.99 274.106 44.8768 274.106 50.8846C274.106 52.2355 273.711 53.554 272.959 54.7871H148.997Z" fill="white"/>
<path d="M386.173 75.1965C388.823 74.0888 391.978 73.4428 395.332 73.4067C398.443 68.7252 405.697 65.5997 413.943 65.5997C418.89 65.5997 423.582 66.7587 427.2 68.7499C431.226 62.9302 440.473 58.8642 450.95 58.8642C457.832 58.8642 464.361 60.5837 469.198 63.6237C469.892 63.5553 470.592 63.5192 471.293 63.5192C478.789 63.5192 484.888 67.3762 484.888 72.1166C484.888 73.1825 484.576 74.2237 483.983 75.1965H386.173Z" fill="white"/>
<path d="M560.146 341H35.106C33.6026 341 32.3838 340 32.3838 338.764V338.654C32.3838 337.418 33.6026 336.416 35.106 336.416H560.146C561.648 336.416 562.868 337.418 562.868 338.654V338.764C562.868 340 561.648 341 560.146 341Z" fill="#B75742"/>
<path d="M95.1316 175.24C95.1316 175.24 91.5996 217.41 91.5996 221.073C91.5996 224.737 106.633 225.774 106.633 225.774L111.229 182.496L95.1316 175.24Z" fill="#3A61A6"/>
<path d="M117.554 164.981C117.554 164.981 107.8 159.925 99.7589 164.559C91.7178 169.191 89.5283 196.409 89.5283 196.409L115.287 199.397L117.554 164.981Z" fill="#205D86"/>
<path d="M134.513 167.013C135.489 167.339 139.485 170.092 141.811 174.43C144.139 178.77 150.285 196.899 150.285 196.899L140.169 200.487L134.513 167.013Z" fill="#50BFA5"/>
<path d="M83.6054 316.501C83.6054 316.501 81.9392 322.23 80.6177 323.508C79.2962 324.787 74.915 329.752 75.9919 332.212C77.0695 334.675 103.766 338.199 104.779 337.219C105.791 336.238 100.167 332.089 96.9785 329.543C93.7898 326.999 91.5059 323.871 92.8417 320.075C94.1776 316.279 94.1776 316.653 94.1776 316.279C94.1776 315.903 83.6054 316.501 83.6054 316.501Z" fill="#F7A491"/>
<path d="M104.779 337.219C105.935 336.279 102.236 332.422 96.8006 329.401C94.5248 329.397 91.4906 329.249 88.9205 328.626C84.8971 327.653 81.8119 324.279 80.8966 323.184C80.8132 323.296 74.3421 329.329 75.6047 332.213C76.6821 334.675 103.634 338.15 104.779 337.219Z" fill="#B75742"/>
<path d="M127.901 319.282C127.901 319.282 128.394 325.164 127.393 326.692C126.391 328.219 122.888 334.275 124.841 336.163C126.602 337.867 151.056 336.773 151.823 335.603C152.591 334.432 148.406 330.936 144.72 329.128C141.034 327.317 138.101 324.746 138.548 320.76C138.997 316.774 139.082 317.139 138.997 316.774C138.913 316.407 127.901 319.282 127.901 319.282Z" fill="#F7A491"/>
<path d="M154.86 336.545C156.136 335.76 150.499 330.826 144.514 329.025C142.292 329.502 139.297 329.998 136.649 329.933C132.503 329.832 128.732 327.191 127.591 326.315C127.536 326.443 121.965 334.252 124.462 336.245C126.411 337.801 152.923 337.734 154.86 336.545Z" fill="#B75742"/>
<path d="M129.687 235.969L113.898 280.252L95.7868 321.248L80.6182 317.558C80.6182 317.558 86.0922 289.142 91.2349 280.214C95.1263 273.459 97.8429 234.698 97.8429 234.698L129.687 235.969Z" fill="#C55F45"/>
<path d="M122.104 243.42L127.575 321.248H140.503C140.503 321.248 146.149 239.708 144.081 231.95C142.013 224.192 120.475 225.944 120.475 225.944L122.104 243.42Z" fill="#B75742"/>
<path d="M134.513 167.01C134.513 167.01 117.852 162.177 115.286 162.49C112.478 162.83 105.652 166.332 105.652 166.332C105.652 166.332 106.071 194.329 104.865 202.246C103.658 210.161 95.2119 235.522 95.2119 235.522C95.2119 235.522 107.105 242.197 127.101 240.027C147.096 237.859 145.717 233.187 145.717 233.187C145.717 233.187 143.821 205.157 141.925 192.809C140.029 180.462 134.513 167.01 134.513 167.01Z" fill="#96D9C9"/>
<path d="M79.3358 127.734C79.3358 127.734 78.4575 131.67 82.7027 133.056C86.9473 134.441 89.5824 119.984 91.9979 117.128C94.4127 114.27 101.732 113.491 105.538 119.195C107.63 122.332 108.285 123.698 108.45 124.291C108.585 124.777 108.392 124.745 108.392 124.745L107.245 126.824C107.245 126.824 103.562 124.659 102.171 128.611C100.78 132.563 104.879 139.029 101.366 144.397C97.8529 149.764 91.4122 145.968 91.4122 145.968C86.0689 149.445 79.9211 144.138 77.9449 139.117C75.9687 134.095 79.3358 127.734 79.3358 127.734Z" fill="#B75742"/>
<path d="M121.235 147.741L120.655 153.553L115.286 162.49C115.286 162.49 125.872 174.894 129.141 171.93C129.87 171.268 131.713 158.139 131.713 158.139L121.235 147.741Z" fill="#F7A491"/>
<path d="M120.655 153.558L119.533 155.541C122.835 158.408 127.069 160.989 131.07 162.472C131.444 160.063 131.713 158.144 131.713 158.144L121.236 147.746L120.655 153.558Z" fill="#F48C7F"/>
<path d="M132.137 128.66C132.137 128.66 134.935 131.116 135.964 132.505C142.085 140.761 137.127 157.04 133.931 158.393C129.093 160.443 122.796 157.686 115.699 153.029C108.603 148.372 106.361 140.825 112.858 134.265C119.356 127.706 132.137 128.66 132.137 128.66Z" fill="#F7A491"/>
<path d="M108.59 127.206L110.524 125.415C118.104 125.415 124.148 120.991 132.656 125.439C138.271 128.375 135.964 132.505 135.964 132.505C115.17 132.505 122.671 148.368 120.123 154.68C117.576 160.992 101.676 147.342 108.59 127.206Z" fill="#B75742"/>
<path d="M123.136 145.068C123.136 145.068 122.843 139.862 119.544 140.894C116.246 141.926 118.816 149.771 121.554 149.495C124.292 149.22 123.136 145.068 123.136 145.068Z" fill="#F7A491"/>
<path d="M108.046 123.286C108.046 123.286 111.179 125.165 112.442 125.01C113.705 124.854 110.509 128.819 108.814 129.23C107.119 129.642 107.716 128.061 107.358 127.52C107 126.98 105.681 127.4 105.377 127.001C104.683 126.091 106.567 123.459 108.046 123.286Z" fill="#50BFA5"/>
<path d="M108.324 165.039C108.324 165.039 112.071 164.489 115.287 176.266C118.93 189.609 115.007 203.43 108.979 206.931C102.952 210.431 100.469 209.757 100.469 209.757L99.8301 217.986C99.8301 217.986 119.223 214.129 121.649 199.394C125.623 175.243 113.897 162.804 113.897 162.804C113.897 162.804 112.276 162.969 111.007 163.418C110.264 163.678 108.324 165.039 108.324 165.039Z" fill="#3A61A6"/>
<path d="M126.248 188.604C126.477 187.939 126.307 187.2 125.811 186.7C123.379 184.243 121.564 178.332 120.996 175.224L133.4 164.483C136.404 165.481 142.015 168.103 144.11 170.85C144.537 171.411 145.247 171.683 145.939 171.55L158.621 169.11C159.313 168.977 159.869 168.462 160.055 167.784C160.965 164.457 165.185 159.942 167.598 157.904L183.142 163.267C183.784 166.363 184.319 172.519 182.986 175.699C182.714 176.347 182.834 177.096 183.298 177.628L191.776 187.373C192.239 187.903 192.965 188.127 193.647 187.95C196.989 187.078 203.024 188.475 206.004 189.544L209.145 205.651C206.782 207.748 201.709 211.28 198.278 211.713C197.581 211.801 196.991 212.278 196.761 212.943L192.557 225.127C192.329 225.79 192.497 226.531 192.995 227.031C195.428 229.486 197.241 235.399 197.809 238.507L185.407 249.248C182.402 248.25 176.789 245.628 174.694 242.879C174.269 242.318 173.559 242.047 172.867 242.182L160.185 244.621C159.493 244.754 158.936 245.269 158.751 245.947C157.84 249.274 153.62 253.787 151.207 255.827L135.664 250.462C135.023 247.369 134.485 241.211 135.819 238.032C136.091 237.384 135.97 236.634 135.508 236.104L127.029 226.359C126.567 225.828 125.841 225.604 125.159 225.781C121.816 226.651 115.782 225.255 112.801 224.187L109.661 208.079C112.024 205.983 117.098 202.449 120.527 202.018C121.225 201.93 121.815 201.452 122.044 200.788L126.248 188.604Z" fill="#E8D25B"/>
<path d="M165.734 237.494C183.183 234.114 194.537 217.624 191.045 200.733C187.553 183.844 170.518 172.853 153.07 176.233C135.621 179.613 124.266 196.103 127.758 212.992C131.25 229.883 148.286 240.873 165.734 237.494Z" fill="white"/>
<path d="M157.226 207.361L158.707 201.129L161.448 206.943L157.226 207.361ZM144.656 221.56C143.957 224.49 146.442 227.218 149.532 226.912L149.699 226.895C151.631 226.703 153.222 225.343 153.656 223.511L155.56 215.478L164.756 214.568L168.209 222.037C169.008 223.764 170.861 224.801 172.806 224.609C175.896 224.303 177.759 221.151 176.465 218.419L161.509 186.798L152.744 187.664L144.656 221.56Z" fill="#C55F45"/>
<path d="M128.061 211.133C130.42 214.695 141.847 223.85 145.005 226.764C145.388 226.817 147.597 227.214 150.33 229.57C152.26 231.235 156.759 232.685 155.43 233.616C154.101 234.545 150.591 231.812 150.521 232.958C150.452 234.104 157.374 240.245 156.17 241.086C154.966 241.928 148.841 235.749 148.778 236.773C148.716 237.799 154.966 242.895 153.264 244.085C151.561 245.276 146.508 237.495 145.594 238.134C144.681 238.774 148.005 243.606 146.635 244.563C145.264 245.523 142.437 237.778 142.4 238.381C142.363 238.983 142.32 243.347 141.383 243.321C140.322 243.292 139.116 232.134 137.337 230.665C132.313 227.454 120.78 218.682 118.433 215.022C114.745 209.271 108.833 198.606 107.177 193.191C104.141 183.264 108.069 181.313 108.069 181.313C108.069 181.313 113.406 175.548 116.898 183.386C119.977 190.292 125.264 206.907 128.061 211.133Z" fill="#F7A491"/>
<path d="M106.669 165.077C105.316 165.722 101.971 168.348 102.24 173.146C102.509 177.941 103.552 191.475 106.419 197.285C106.419 197.285 122.277 194.055 122.056 193.464C121.836 192.871 119.394 176.309 115.219 170.106C111.577 164.695 109.022 163.957 106.669 165.077Z" fill="#50BFA5"/>
<path d="M309.508 149.578C309.508 149.578 301.212 151.541 298.516 161.353C295.819 171.164 294.444 194.135 292.107 196.529C289.77 198.923 274.486 211.385 271.729 210.956C268.973 210.526 262.8 203.16 260.881 203.16C258.964 203.16 259.204 204.94 260.163 205.921C261.121 206.905 262.29 208.039 261.72 208.623C261.151 209.206 261.151 209.206 261.151 209.206C261.151 209.206 254.612 207.355 253.173 208.214C251.734 209.075 255.156 213.568 255.328 215.191C255.502 216.813 259.733 220.059 260.483 220.826C261.233 221.594 263.879 222.435 273.109 221.145C282.338 219.857 293.606 215.314 301.936 204.756C310.268 194.198 313.62 161.807 313.43 158.499C312.95 150.12 309.508 149.578 309.508 149.578Z" fill="#F48C7F"/>
<path d="M296.793 159.968C299.699 150.156 309.203 149.575 309.203 149.575C309.203 149.575 313.902 150.116 314.42 158.495C314.538 160.42 313.414 173.182 310.644 184.77C306.184 181.597 298.38 178.907 292.833 177.974C293.725 171.774 295.586 164.045 296.793 159.968Z" fill="#C55F45"/>
<path d="M277.276 299.336C277.276 299.336 271.737 320.811 267.607 324.184C263.477 327.556 250.012 334.005 253.536 334.698C257.058 335.394 283.135 335.969 282.421 331.835C281.706 327.701 280.956 325.065 280.956 325.065L287.852 309.727L277.276 299.336Z" fill="#F7A491"/>
<path d="M251.782 335.578C258.141 336.179 276.709 336.815 282.12 336.158C282.12 336.158 283.134 335.968 282.42 331.833C282.244 330.823 282.068 329.901 281.9 329.088C276.993 330.312 266.308 327.705 262.075 327.171C257.475 329.263 252.292 332.388 250.62 332.649C248.198 333.029 248.202 335.24 251.782 335.578Z" fill="#C55F45"/>
<path d="M337.226 314.445C337.226 314.445 336.199 323.141 336.199 325.535C336.199 327.929 338.546 334.682 337.458 335.715C336.371 336.749 305.311 336.621 305.311 335.649C305.311 334.678 310.8 331.729 318.258 329.704C325.718 327.678 323.873 319.18 324.817 314.445H337.226Z" fill="#F7A491"/>
<path d="M304.812 336.438C304.812 334.161 309.905 332.03 316.502 330.114C323.53 332.372 333.293 330.51 336.953 329.845C338.072 332.628 338.534 336.411 337.747 336.605C336.813 336.835 304.812 336.854 304.812 336.438Z" fill="#C55F45"/>
<path d="M295.17 209.569L268.729 313.307L285.463 316.871L325.373 215.516L295.17 209.569Z" fill="#205D86"/>
<path d="M301.341 214.47L309.964 238.575L320.869 318.364L337.506 317.334C337.506 317.334 343.125 237.827 341.188 216.157L301.341 214.47Z" fill="#86B1F2"/>
<path d="M288.728 214.86C292.27 202.123 296.905 184.873 298.175 177.417C300.306 164.894 307.474 149.609 307.474 149.609C307.474 149.609 315.362 148.423 321.231 148.733C332.567 149.331 348.961 152.81 348.961 152.81L343.194 222.375C325.305 221.999 305.687 220.518 288.728 214.86Z" fill="#B75742"/>
<path d="M248.868 163.825C249.228 163.227 249.212 162.482 248.826 161.908C246.935 159.085 246.353 153.045 246.427 149.942L260.79 141.899C263.539 143.423 268.518 147.001 270.017 150.043C270.323 150.662 270.965 151.055 271.67 151.057L284.622 151.072C285.329 151.074 285.979 150.681 286.301 150.062C287.87 147.023 292.931 143.457 295.714 141.943L309.891 150.02C309.893 153.124 309.171 159.163 307.216 161.98C306.816 162.554 306.782 163.299 307.13 163.897L313.479 174.879C313.825 175.478 314.492 175.829 315.198 175.786C318.658 175.571 324.301 178.045 327.012 179.633L326.826 195.753C324.08 197.333 318.378 199.794 314.922 199.57C314.219 199.524 313.543 199.874 313.183 200.472L306.58 211.437C306.221 212.035 306.237 212.78 306.622 213.356C308.514 216.177 309.095 222.218 309.021 225.322L294.659 233.365C291.91 231.841 286.931 228.263 285.431 225.221C285.125 224.602 284.484 224.207 283.778 224.207L270.827 224.19C270.119 224.19 269.47 224.581 269.15 225.2C267.578 228.239 262.517 231.805 259.734 233.321L245.558 225.244C245.556 222.14 246.277 216.101 248.232 213.284C248.632 212.71 248.666 211.965 248.318 211.367L241.97 200.385C241.624 199.786 240.956 199.433 240.25 199.477C236.79 199.693 231.147 197.219 228.437 195.631L228.622 179.511C231.369 177.931 237.07 175.47 240.526 175.694C241.23 175.74 241.906 175.388 242.265 174.792L248.868 163.825Z" fill="#96D9C9"/>
<path d="M346.794 115.076C346.916 121.587 344.667 124.42 340.397 129.527C336.12 134.644 328.591 140.663 328.591 140.663L307.406 127.829C307.406 127.829 307.552 125.074 308.314 116.913C311.432 83.5781 346.7 110.034 346.794 115.076Z" fill="#E8D25B"/>
<path d="M341.438 128.756C340.583 131.302 338.42 132.922 336.607 132.371C334.796 131.822 334.022 129.31 334.878 126.764C335.733 124.216 337.896 122.598 339.707 123.147C341.518 123.696 342.294 126.208 341.438 128.756Z" fill="#F7A491"/>
<path d="M312.343 124.093C313.142 126.658 312.311 129.153 310.488 129.666C308.665 130.179 306.538 128.517 305.74 125.954C304.94 123.389 305.77 120.896 307.593 120.381C309.416 119.868 311.543 121.53 312.343 124.093Z" fill="#F7A491"/>
<path d="M331.606 136.65L332.395 150.268C332.395 150.268 330.66 154.873 322.804 154.888C317.007 154.9 317.677 142.613 317.677 142.613L318.139 136.65H331.606Z" fill="#F7A491"/>
<path d="M317.929 146.915C317.889 146.915 317.849 146.915 317.809 146.913C317.571 144.568 317.677 142.617 317.677 142.617L318.139 136.655H331.606L331.712 138.477C330.021 141.211 325.063 146.915 317.929 146.915Z" fill="#F27A6A"/>
<path d="M325.862 105.506C330.4 106.142 333.718 109.195 336.131 112.925C340.908 120.316 337.022 131.197 335.711 133.692C334.4 136.185 329.152 142.597 321.376 142.597C313.598 142.597 308.971 133.986 308.313 127.397C307.436 118.574 309.117 109.421 317.95 106.353C320.359 105.517 323.212 105.133 325.862 105.506Z" fill="#F7A491"/>
<path d="M338.402 123.105C338.402 123.105 336.195 111.331 329.168 108.69C322.14 106.047 311.735 106.737 308.543 118.219C308.543 118.219 310.52 104.396 314.342 100.763C318.164 97.1307 325.916 96.726 325.916 96.726L323.357 99.1485C323.357 99.1485 326.156 98.2669 330.326 98.2669C334.496 98.2669 335.267 99.2226 335.267 99.2226C335.267 99.2226 332.411 99.6615 332.411 100.543C332.411 101.425 339.979 101.717 339.979 101.717C339.979 101.717 340.585 107.583 343.041 109.916C345.498 112.251 338.402 123.105 338.402 123.105Z" fill="#E8D25B"/>
<path d="M277.723 218.355C259.9 218.355 245.399 204.572 245.399 187.632C245.399 170.69 259.9 156.907 277.723 156.907C295.548 156.907 310.048 170.69 310.048 187.632C310.048 204.572 295.548 218.355 277.723 218.355Z" fill="white"/>
<path d="M271.884 200.393C272.765 200.536 273.831 200.572 275.368 200.621C279.448 200.758 283.108 199.415 283.254 195.425C283.394 191.604 279.844 189.966 275.348 189.818L272.273 189.717L271.884 200.393ZM272.499 183.59L275.456 183.688C280.185 183.844 282.796 182.075 282.898 179.265C283.004 176.398 280.753 174.804 276.673 174.669C274.722 174.605 273.595 174.681 272.821 174.768L272.499 183.59ZM264.102 168.796C266.484 168.424 271.284 168.245 275.78 168.394C281.277 168.576 284.629 169.193 287.466 170.92C290.194 172.416 292.109 175.068 291.983 178.496C291.861 181.868 289.677 184.946 285.125 186.371L285.121 186.483C289.631 187.815 292.881 191.186 292.701 196.076C292.575 199.504 290.822 202.147 288.267 203.975C285.291 206.07 280.397 207.146 272.473 206.884C268.04 206.737 264.739 206.348 262.738 206L264.102 168.796Z" fill="#205D86"/>
<path d="M317.172 195.712C313.85 198.959 299.667 206.166 295.657 208.562C295.242 208.535 292.823 208.484 289.393 210.382C286.968 211.725 281.892 212.293 283.072 213.555C284.251 214.815 288.589 212.687 288.393 213.906C288.197 215.128 279.464 220.119 280.533 221.261C281.603 222.405 289.505 217.203 289.329 218.293C289.153 219.386 281.375 223.422 282.886 225.037C284.397 226.652 291.549 219.538 292.359 220.404C293.171 221.271 288.535 225.65 289.75 226.95C290.968 228.249 295.767 220.701 295.663 221.343C295.561 221.985 294.578 226.587 295.571 226.76C296.695 226.954 300.593 215.464 302.81 214.298C308.855 211.987 323.059 205.206 326.392 201.853C331.627 196.584 340.36 186.617 343.379 181.268C348.912 171.464 345.236 168.576 345.236 168.576C345.236 168.576 340.976 161.374 335.455 168.878C330.589 175.496 321.112 191.859 317.172 195.712Z" fill="#F7A491"/>
<path d="M351.127 153.383C353.096 154.089 355.417 157.861 354.75 162.991C353.828 170.07 348.193 181.833 343.807 187.337C343.807 187.337 331.617 183.425 327.012 177.807C327.511 176.509 334.814 163.008 340.543 157.253C345.632 152.142 348.479 152.433 351.127 153.383Z" fill="#C55F45"/>
<path d="M490.854 148.395C494.646 144.492 502.626 128.247 505.326 123.63C505.268 123.171 505.053 120.48 507.175 116.542C508.675 113.758 509.056 108.07 510.684 109.305C512.311 110.538 509.962 115.502 511.453 115.206C512.944 114.911 518.542 104.874 520.017 105.993C521.49 107.112 515.581 116.238 516.914 115.972C518.25 115.707 522.729 106.795 524.812 108.375C526.897 109.956 518.586 118.366 519.703 119.215C520.822 120.062 525.926 114.624 527.603 115.897C529.28 117.17 520.283 122.99 521.068 122.834C521.854 122.679 527.459 121.295 527.733 122.392C528.043 123.629 514.14 128.692 512.841 131.234C510.376 138.108 506.046 150.627 500.325 156.952C493.327 164.691 473.193 186.15 473.193 186.15L464.827 171.06C464.827 171.06 486.358 153.021 490.854 148.395Z" fill="#966259"/>
<path d="M512.017 117.886C512.538 118.543 512.864 119.307 513.084 120.101C513.084 120.238 513.98 122.765 512.214 125.218C512.724 123.424 513.286 121.431 512.017 117.886Z" fill="#6B4744"/>
<path d="M423.872 308.57C423.872 308.57 422.595 319.134 420.516 323.74C418.439 328.347 411.586 331.256 405.562 332.387C399.537 333.517 401.544 334.418 402.427 335.257C403.309 336.097 429.425 336.665 434.033 335.871C434.033 335.871 432.262 327.224 432.262 325.875C432.262 324.528 439.468 303.29 439.468 303.29L423.872 308.57Z" fill="#966259"/>
<path d="M434.033 335.875C434.033 335.875 433.673 334.114 433.277 332.058C428.238 332.702 416.712 331.58 410.937 330.939C409.168 331.574 407.021 331.766 405.254 332.096C399.227 333.227 399.68 334.728 401.19 335.775C402.199 336.472 429.425 336.67 434.033 335.875Z" fill="#C55F45"/>
<path d="M475.257 306.099C475.257 306.099 474.55 319.078 476.013 323.741C477.518 328.546 479.675 329.37 485.592 330.936C491.403 332.471 489.196 334.932 488.313 335.772C487.431 336.611 467.104 336.666 462.496 335.872C462.496 335.872 464.267 327.225 464.267 325.876C464.267 324.529 462.116 302.7 462.116 302.7L475.257 306.099Z" fill="#966259"/>
<path d="M462.496 335.872C462.496 335.872 462.856 334.111 463.254 332.055C468.291 332.699 479.817 331.576 485.592 330.936C487.591 331.396 489.206 331.776 490.968 332.388C496.737 334.39 496.221 334.932 495.339 335.772C494.456 336.611 467.104 336.666 462.496 335.872Z" fill="#C55F45"/>
<path d="M437.259 166.936C437.259 166.936 433.657 168.361 431.498 174.655C430.279 178.206 423.85 203.685 422.787 207.844C421.965 211.053 415.736 220.529 412.036 225.07C410.945 226.409 409.434 227.042 409.574 227.528C410.529 230.836 416.642 234.515 419.017 232.501C427.56 225.252 434.591 210.027 435.89 206.545C437.189 203.06 437.259 166.936 437.259 166.936Z" fill="#966259"/>
<path d="M417.381 309.622C417.381 309.622 431.202 313.162 446.884 313.162C462.568 313.162 493.4 305.577 493.4 305.577C493.4 305.577 484.894 286.026 481.97 271.027C479.047 256.027 476.92 230.24 476.92 230.24H430.13L427.206 248.093L417.381 309.622Z" fill="#205D86"/>
<path d="M437.259 166.937C437.259 166.937 434.207 170.307 434.207 180.757C434.207 191.207 433.675 206.882 432.787 212.276C431.902 217.67 429.243 231.069 429.243 231.069C429.243 231.069 437.041 237.221 457.243 235.534C477.444 233.851 478.508 231.265 478.508 231.265C478.508 231.265 475.673 187.837 475.673 183.286C475.673 178.734 471.336 165.569 471.336 165.569C471.336 165.569 459.666 164.425 454.348 164.813C449.033 165.202 437.259 166.937 437.259 166.937Z" fill="#FAE0B2"/>
<path d="M428.078 125.916C428.078 125.916 419.576 128.211 420.282 136.51C420.932 144.163 424.887 143.776 424.887 143.776C424.887 143.776 421.993 154.626 430.736 157.773C438.978 160.739 442.077 157.773 442.077 157.773C442.077 157.773 445.653 166.783 457.881 163.304C470.108 159.825 469.013 152.772 469.013 152.772C469.013 152.772 474.222 154.721 480.247 145.619C486.272 136.518 482.836 129.963 474.862 125.916C474.862 125.916 477.517 114.329 465.323 112.475C453.131 110.621 450.143 116.984 450.143 116.984C450.143 116.984 447.972 109.882 434.99 114.768C426.483 117.972 428.078 125.916 428.078 125.916Z" fill="#13375B"/>
<path d="M461.763 143.292C460.865 145.674 461.509 148.074 463.202 148.65C464.895 149.227 466.996 147.764 467.893 145.382C468.791 142.999 468.145 140.599 466.452 140.024C464.761 139.446 462.66 140.909 461.763 143.292Z" fill="#966259"/>
<path d="M434.043 145.657C434.453 148.157 436.224 149.971 438.001 149.707C439.778 149.443 440.887 147.203 440.478 144.703C440.066 142.202 438.295 140.39 436.518 140.652C434.741 140.916 433.631 143.156 434.043 145.657Z" fill="#966259"/>
<path d="M448.62 156.603L449.092 166.435C449.092 166.435 449.328 170.254 453.524 170.761C457.715 171.267 461.555 168.181 461.555 165.086C461.555 164.693 459.489 151.208 459.489 151.208L448.62 156.603Z" fill="#966259"/>
<path d="M459.489 151.205L448.62 156.599L448.788 160.095C450.753 160.108 453.67 159.96 456.004 158.636C457.965 157.523 459.061 156.107 459.94 154.158C459.676 152.433 459.489 151.205 459.489 151.205Z" fill="#6B4744"/>
<path d="M454.204 124.729C454.204 124.729 459.35 126.127 462.43 131.065C465.51 136.003 467.37 150.19 456.697 156.248C446.024 162.305 438.89 152.579 438.143 143.533C437.259 132.836 442.166 122.91 454.204 124.729Z" fill="#966259"/>
<path d="M389.104 217.209C391.622 218.686 396.87 220.988 400.088 220.789C400.744 220.747 401.363 221.074 401.685 221.632L407.588 231.849C407.912 232.405 407.88 233.099 407.508 233.633C405.689 236.255 405.019 241.873 405.021 244.761L418.203 252.276C420.791 250.866 425.497 247.548 426.956 244.721C427.254 244.145 427.858 243.781 428.515 243.781L440.557 243.796C441.215 243.796 441.811 244.163 442.094 244.74C443.49 247.569 448.119 250.9 450.674 252.315L464.029 244.833C464.097 241.945 463.555 236.327 461.798 233.701C461.44 233.165 461.424 232.472 461.758 231.915L467.899 221.714C468.233 221.157 468.861 220.831 469.516 220.874C472.729 221.081 478.028 218.794 480.583 217.321L480.757 202.323C478.236 200.847 472.989 198.546 469.772 198.745C469.117 198.787 468.495 198.458 468.173 197.902L462.27 187.683C461.948 187.127 461.978 186.433 462.35 185.899C464.169 183.279 464.839 177.661 464.837 174.773L451.657 167.257C449.069 168.668 444.363 171.986 442.902 174.813C442.606 175.389 442 175.753 441.343 175.753L429.301 175.738C428.643 175.736 428.048 175.37 427.764 174.794C426.368 171.963 421.739 168.634 419.184 167.217L405.831 174.699C405.761 177.587 406.303 183.207 408.06 185.833C408.42 186.369 408.434 187.06 408.1 187.617L401.961 197.82C401.625 198.377 400.997 198.701 400.342 198.66C397.129 198.451 391.83 200.74 389.275 202.211L389.104 217.209Z" fill="#F48C7F"/>
<path d="M434.93 238.355C418.356 238.355 404.875 225.532 404.875 209.77C404.875 194.008 418.356 181.185 434.93 181.185C451.501 181.185 464.982 194.008 464.982 209.77C464.982 225.532 451.501 238.355 434.93 238.355Z" fill="white"/>
<path d="M446.852 223.202C447.262 224.909 446.164 226.622 444.375 227.031C442.706 227.413 440.583 227.713 438.142 227.791C425.439 228.199 418.628 220.894 418.277 210.944C417.853 199.025 426.56 192.103 437.683 191.748C439.889 191.678 441.832 191.833 443.404 192.092C445.295 192.405 446.522 194.161 446.108 195.943L446.082 196.053C445.694 197.725 443.993 198.825 442.222 198.525C441.061 198.328 439.748 198.219 438.296 198.265C431.698 198.478 426.708 202.424 426.984 210.199C427.232 217.195 431.75 221.46 439.164 221.221C440.399 221.183 441.695 221.015 442.884 220.776C444.679 220.413 446.444 221.502 446.852 223.202Z" fill="#E8D25B"/>
<path d="M405.419 228.098C405.419 228.098 401.593 235.637 402.564 239.907C403.304 243.148 413.103 243.566 413.293 241.849C413.415 240.728 405.571 239.949 405.571 239.949C405.571 239.949 413.777 240.785 413.797 239.496C413.816 238.185 406.2 236.587 406.2 236.587C406.2 236.587 414.19 237.767 414.186 236.608C414.184 235.615 409.573 234.663 407.598 231.853C407.094 230.964 405.419 228.098 405.419 228.098Z" fill="#966259"/>
</svg>
