<svg width="100" height="116" viewBox="0 0 100 116" fill="none" xmlns="http://www.w3.org/2000/svg">
<rect y="12" width="46" height="46" rx="10" fill="#008098"/>
<rect x="18.4004" y="20.178" width="9.2" height="29.6444" rx="4.6" fill="#FFFCFC"/>
<rect x="37.8223" y="30.4001" width="9.2" height="29.6444" rx="4.6" transform="rotate(90 37.8223 30.4001)" fill="#FFFCFC"/>
<rect x="54" y="12" width="46" height="46" rx="10" fill="#FFD05B"/>
<rect x="91.8223" y="30.3999" width="9.2" height="29.6444" rx="4.6" transform="rotate(90 91.8223 30.3999)" fill="#FFFCFC"/>
<rect y="66" width="46" height="46" rx="10" fill="#07473F"/>
<rect x="32.9248" y="72.3889" width="9.2" height="37.7957" rx="4.6" transform="rotate(45.1426 32.9248 72.3889)" fill="#FFFCFC"/>
<rect x="39.6816" y="99.1746" width="9.2" height="37.7957" rx="4.6" transform="rotate(135 39.6816 99.1746)" fill="#FFFCFC"/>
<rect x="54" y="66" width="46" height="46" rx="10" fill="#F83900"/>
<rect x="91.8223" y="75.7112" width="9.2" height="29.6444" rx="4.6" transform="rotate(90 91.8223 75.7112)" fill="#FFFCFC"/>
<rect x="91.8223" y="93.0889" width="9.2" height="29.6444" rx="4.6" transform="rotate(90 91.8223 93.0889)" fill="#FFFCFC"/>
</svg>
