<?xml version="1.0" encoding="utf-8"?>
<!-- Generator: Adobe Illustrator 18.1.1, SVG Export Plug-In . SVG Version: 6.00 Build 0)  -->
<svg version="1.1" id="Layer_3" xmlns="http://www.w3.org/2000/svg" xmlns:xlink="http://www.w3.org/1999/xlink" x="0px" y="0px"
	 viewBox="0 0 590.1 179.1" enable-background="new 0 0 590.1 179.1" xml:space="preserve">
<circle fill="#FFE48E" cx="294.4" cy="98.7" r="51.7"/>
<path fill="#EEECEB" d="M382.5,117.6V98.7H245.8c-10.4,0-18.9,8.4-18.9,18.9h-89.5v18.9h309.7v-18.9H382.5z"/>
<g>
	<path fill="#84A8A6" d="M554.9,169.1c0.2,0.1,0.2,0.2,0,0.2l-382.8,0c-0.2,0-0.2-0.1,0-0.1l46.1-15.6c0.2-0.1,0.5,0,0.7,0l14.3,7
		c0.2,0.1,0.5,0.1,0.7,0.1l60.3-18c0.2-0.1,0.5-0.1,0.7,0l37.6,7.7c0.2,0,0.5,0.1,0.7,0l52.5-6.4c0.2,0,0.5,0,0.7,0l39.1,6
		c0.2,0,0.5,0,0.7,0l56.7-16.8c0.2-0.1,0.5,0,0.7,0.1L554.9,169.1z"/>
</g>
<circle fill="#AFD2ED" cx="343.8" cy="106.1" r="27.7"/>
<g>
	<g>
		<path fill="#F7F5F5" d="M357.3,111.8h-8.8c-0.3,0-0.5,0.2-0.5,0.5v1.2c0,0.3,0.2,0.5,0.5,0.5h8.8c0.3,0,0.5-0.2,0.5-0.5v-1.1
			C357.9,112.1,357.6,111.8,357.3,111.8z"/>
		<path fill="#F7F5F5" d="M357.3,116.3h-8.8c-0.3,0-0.5,0.2-0.5,0.5v1.2c0,0.3,0.2,0.5,0.5,0.5h8.8c0.3,0,0.5-0.2,0.5-0.5v-1.1
			C357.9,116.6,357.6,116.3,357.3,116.3z"/>
		<path fill="#F7F5F5" d="M339.1,95.9h-2.7c-0.3,0-0.5-0.2-0.5-0.5v-2.7c0-0.3-0.2-0.5-0.5-0.5h-1.2c-0.3,0-0.5,0.2-0.5,0.5v2.7
			c0,0.3-0.2,0.5-0.5,0.5h-2.7c-0.3,0-0.5,0.2-0.5,0.5v1.2c0,0.3,0.2,0.5,0.5,0.5h2.7c0.3,0,0.5,0.2,0.5,0.5v2.7
			c0,0.3,0.2,0.5,0.5,0.5h1.2c0.3,0,0.5-0.2,0.5-0.5v-2.7c0-0.3,0.2-0.5,0.5-0.5h2.7c0.3,0,0.5-0.2,0.5-0.5v-1.2
			C339.6,96.1,339.4,95.9,339.1,95.9z"/>
		<path fill="#F7F5F5" d="M338.6,112.9c0.2-0.2,0.2-0.6,0-0.8l-0.8-0.8c-0.2-0.2-0.6-0.2-0.8,0l-1.9,1.9c-0.2,0.2-0.6,0.2-0.8,0
			l-1.9-1.9c-0.2-0.2-0.6-0.2-0.8,0l-0.8,0.8c-0.2,0.2-0.2,0.6,0,0.8l1.9,1.9c0.2,0.2,0.2,0.6,0,0.8l-1.9,1.9
			c-0.2,0.2-0.2,0.6,0,0.8l0.8,0.8c0.2,0.2,0.6,0.2,0.8,0l1.9-1.9c0.2-0.2,0.6-0.2,0.8,0l1.9,1.9c0.2,0.2,0.6,0.2,0.8,0l0.8-0.8
			c0.2-0.2,0.2-0.6,0-0.8l-1.9-1.9c-0.2-0.2-0.2-0.6,0-0.8L338.6,112.9z"/>
		<path fill="#F7F5F5" d="M343.8,76.1c-16.6,0-30,13.4-30,30s13.4,30,30,30c16.6,0,30-13.4,30-30S360.4,76.1,343.8,76.1z
			 M342.3,120.5c0,1.3-1,2.3-2.3,2.3h-10.6c-1.3,0-2.3-1-2.3-2.3v-10.6c0-1.3,1-2.3,2.3-2.3H340c1.3,0,2.3,1,2.3,2.3V120.5z
			 M342.3,102.3c0,1.3-1,2.3-2.3,2.3h-10.6c-1.3,0-2.3-1-2.3-2.3V91.7c0-1.3,1-2.3,2.3-2.3H340c1.3,0,2.3,1,2.3,2.3V102.3z
			 M360.5,120.5c0,1.3-1,2.3-2.3,2.3h-10.6c-1.3,0-2.3-1-2.3-2.3v-10.6c0-1.3,1-2.3,2.3-2.3h10.6c1.3,0,2.3,1,2.3,2.3V120.5z
			 M360.5,102.3c0,1.3-1,2.3-2.3,2.3h-10.6c-1.3,0-2.3-1-2.3-2.3V91.7c0-1.3,1-2.3,2.3-2.3h10.6c1.3,0,2.3,1,2.3,2.3V102.3z"/>
		<path fill="#F7F5F5" d="M357.3,95.9h-8.8c-0.3,0-0.5,0.2-0.5,0.5v1.2c0,0.3,0.2,0.5,0.5,0.5h8.8c0.3,0,0.5-0.2,0.5-0.5v-1.2
			C357.9,96.1,357.6,95.9,357.3,95.9z"/>
	</g>
</g>
<circle fill="#AFD2ED" cx="383.8" cy="62.9" r="26.6"/>
<g>
	<g>
		<circle fill="#F7F5F5" cx="383.8" cy="63" r="2.5"/>
		<path fill="#F7F5F5" d="M399.2,63c0-1.4,1.1-2.5,2.5-2.5c0.7,0,1.3,0.3,1.8,0.7c-0.9-9.5-8.4-17-17.9-17.9
			c0.5,0.5,0.7,1.1,0.7,1.8c0,1.4-1.1,2.5-2.5,2.5c-1.4,0-2.5-1.1-2.5-2.5c0-0.7,0.3-1.3,0.7-1.8c-9.5,0.9-17,8.4-17.9,17.9
			c0.5-0.5,1.1-0.7,1.8-0.7c1.4,0,2.5,1.1,2.5,2.5c0,1.4-1.1,2.5-2.5,2.5c-0.7,0-1.3-0.3-1.8-0.7c0.9,9.5,8.4,17,17.9,17.9
			c-0.5-0.5-0.7-1.1-0.7-1.8c0-1.4,1.1-2.5,2.5-2.5c1.4,0,2.5,1.1,2.5,2.5c0,0.7-0.3,1.3-0.7,1.8c9.5-0.9,17-8.4,17.9-17.9
			c-0.5,0.5-1.1,0.7-1.8,0.7C400.3,65.5,399.2,64.3,399.2,63z M386.9,66.1L386.9,66.1l-14.1,7.8l7.8-14.1l0,0l14.1-7.8L386.9,66.1z"
			/>
		<path fill="#F7F5F5" d="M383.8,33.1c-16.5,0-29.8,13.4-29.8,29.8s13.4,29.8,29.8,29.8c16.5,0,29.8-13.4,29.8-29.8
			S400.3,33.1,383.8,33.1z M383.8,87.8c-13.7,0-24.9-11.1-24.9-24.9s11.1-24.9,24.9-24.9s24.9,11.1,24.9,24.9S397.5,87.8,383.8,87.8
			z"/>
	</g>
</g>
<circle fill="#AFD2ED" cx="406.7" cy="97.2" r="35.9"/>
<g>
	<path fill="#F3F4F5" d="M403.2,104.7c-0.4,0-0.7,0.2-0.9,0.6c-0.2,0.4-0.3,1-0.3,1.8c0,0.8,0.1,1.4,0.3,1.8
		c0.2,0.4,0.5,0.7,0.9,0.7c0.4,0,0.7-0.2,1-0.7s0.3-1,0.3-1.8c0-0.8-0.1-1.4-0.3-1.8C404,105,403.7,104.7,403.2,104.7z"/>
	<path fill="#F3F4F5" d="M403.2,114.3c-0.4,0-0.7,0.2-0.9,0.6c-0.2,0.4-0.3,1-0.3,1.8c0,0.8,0.1,1.4,0.3,1.8
		c0.2,0.4,0.5,0.6,0.9,0.6c0.4,0,0.7-0.2,1-0.6c0.2-0.4,0.3-1,0.3-1.8c0-0.8-0.1-1.4-0.3-1.8C404,114.5,403.7,114.3,403.2,114.3z"/>
	<path fill="#F3F4F5" d="M396.3,76.2c-0.4,0-0.7,0.2-0.9,0.6s-0.3,1-0.3,1.8c0,0.8,0.1,1.4,0.3,1.8s0.5,0.7,0.9,0.7
		c0.4,0,0.7-0.2,1-0.7s0.3-1,0.3-1.8c0-0.8-0.1-1.4-0.3-1.8S396.7,76.2,396.3,76.2z"/>
	<path fill="#F3F4F5" d="M403.2,95.2c-0.4,0-0.7,0.2-0.9,0.6s-0.3,1-0.3,1.8s0.1,1.4,0.3,1.8s0.5,0.7,0.9,0.7c0.4,0,0.7-0.2,1-0.7
		c0.2-0.4,0.3-1,0.3-1.8s-0.1-1.4-0.3-1.8S403.7,95.2,403.2,95.2z"/>
	<path fill="#F3F4F5" d="M403.2,85.7c-0.4,0-0.7,0.2-0.9,0.6s-0.3,1-0.3,1.8s0.1,1.4,0.3,1.8c0.2,0.4,0.5,0.7,0.9,0.7
		c0.4,0,0.7-0.2,1-0.7s0.3-1,0.3-1.8s-0.1-1.4-0.3-1.8C404,85.9,403.7,85.7,403.2,85.7z"/>
	<path fill="#F3F4F5" d="M389.4,76.2c-0.4,0-0.7,0.2-0.9,0.6s-0.3,1-0.3,1.8c0,0.8,0.1,1.4,0.3,1.8s0.5,0.7,0.9,0.7
		c0.4,0,0.7-0.2,1-0.7s0.3-1,0.3-1.8c0-0.8-0.1-1.4-0.3-1.8S389.8,76.2,389.4,76.2z"/>
	<path fill="#F3F4F5" d="M396.3,104.7c-0.4,0-0.7,0.2-0.9,0.6c-0.2,0.4-0.3,1-0.3,1.8c0,0.8,0.1,1.4,0.3,1.8
		c0.2,0.4,0.5,0.7,0.9,0.7c0.4,0,0.7-0.2,1-0.7s0.3-1,0.3-1.8c0-0.8-0.1-1.4-0.3-1.8C397,105,396.7,104.7,396.3,104.7z"/>
	<path fill="#F3F4F5" d="M389.4,95.2c-0.4,0-0.7,0.2-0.9,0.6s-0.3,1-0.3,1.8s0.1,1.4,0.3,1.8s0.5,0.7,0.9,0.7c0.4,0,0.7-0.2,1-0.7
		c0.2-0.4,0.3-1,0.3-1.8s-0.1-1.4-0.3-1.8S389.8,95.2,389.4,95.2z"/>
	<path fill="#F3F4F5" d="M389.4,114.3c-0.4,0-0.7,0.2-0.9,0.6c-0.2,0.4-0.3,1-0.3,1.8c0,0.8,0.1,1.4,0.3,1.8
		c0.2,0.4,0.5,0.6,0.9,0.6c0.4,0,0.7-0.2,1-0.6c0.2-0.4,0.3-1,0.3-1.8c0-0.8-0.1-1.4-0.3-1.8C390.1,114.5,389.8,114.3,389.4,114.3z"
		/>
	<path fill="#F3F4F5" d="M389.4,104.7c-0.4,0-0.7,0.2-0.9,0.6c-0.2,0.4-0.3,1-0.3,1.8c0,0.8,0.1,1.4,0.3,1.8
		c0.2,0.4,0.5,0.7,0.9,0.7c0.4,0,0.7-0.2,1-0.7s0.3-1,0.3-1.8c0-0.8-0.1-1.4-0.3-1.8C390.1,105,389.8,104.7,389.4,104.7z"/>
	<path fill="#F3F4F5" d="M417.1,104.7c-0.4,0-0.7,0.2-0.9,0.6c-0.2,0.4-0.3,1-0.3,1.8c0,0.8,0.1,1.4,0.3,1.8
		c0.2,0.4,0.5,0.7,0.9,0.7s0.7-0.2,1-0.7s0.3-1,0.3-1.8c0-0.8-0.1-1.4-0.3-1.8C417.9,105,417.6,104.7,417.1,104.7z"/>
	<path fill="#F3F4F5" d="M389.4,85.7c-0.4,0-0.7,0.2-0.9,0.6s-0.3,1-0.3,1.8s0.1,1.4,0.3,1.8c0.2,0.4,0.5,0.7,0.9,0.7
		c0.4,0,0.7-0.2,1-0.7s0.3-1,0.3-1.8s-0.1-1.4-0.3-1.8C390.1,85.9,389.8,85.7,389.4,85.7z"/>
	<path fill="#F3F4F5" d="M410.2,114.3c-0.4,0-0.7,0.2-0.9,0.6c-0.2,0.4-0.3,1-0.3,1.8c0,0.8,0.1,1.4,0.3,1.8
		c0.2,0.4,0.5,0.6,0.9,0.6c0.4,0,0.7-0.2,1-0.6c0.2-0.4,0.3-1,0.3-1.8c0-0.8-0.1-1.4-0.3-1.8C410.9,114.5,410.6,114.3,410.2,114.3z"
		/>
	<path fill="#F3F4F5" d="M424.1,85.7c-0.4,0-0.7,0.2-0.9,0.6c-0.2,0.4-0.3,1-0.3,1.8s0.1,1.4,0.3,1.8s0.5,0.7,0.9,0.7s0.7-0.2,1-0.7
		s0.3-1,0.3-1.8s-0.1-1.4-0.3-1.8C424.8,85.9,424.5,85.7,424.1,85.7z"/>
	<path fill="#F3F4F5" d="M424.1,95.2c-0.4,0-0.7,0.2-0.9,0.6c-0.2,0.4-0.3,1-0.3,1.8s0.1,1.4,0.3,1.8s0.5,0.7,0.9,0.7s0.7-0.2,1-0.7
		c0.2-0.4,0.3-1,0.3-1.8s-0.1-1.4-0.3-1.8C424.8,95.5,424.5,95.2,424.1,95.2z"/>
	<path fill="#F3F4F5" d="M417.1,85.7c-0.4,0-0.7,0.2-0.9,0.6c-0.2,0.4-0.3,1-0.3,1.8s0.1,1.4,0.3,1.8s0.5,0.7,0.9,0.7s0.7-0.2,1-0.7
		s0.3-1,0.3-1.8s-0.1-1.4-0.3-1.8C417.9,85.9,417.6,85.7,417.1,85.7z"/>
	<path fill="#F3F4F5" d="M424.1,114.3c-0.4,0-0.7,0.2-0.9,0.6c-0.2,0.4-0.3,1-0.3,1.8c0,0.8,0.1,1.4,0.3,1.8
		c0.2,0.4,0.5,0.6,0.9,0.6s0.7-0.2,1-0.6c0.2-0.4,0.3-1,0.3-1.8c0-0.8-0.1-1.4-0.3-1.8C424.8,114.5,424.5,114.3,424.1,114.3z"/>
	<path fill="#F3F4F5" d="M406.8,58.4c-21.5,0-38.9,17.4-38.9,38.9c0,21.4,17.4,38.8,38.8,38.8c21.4,0,38.8-17.4,38.8-38.8
		C445.6,75.8,428.2,58.4,406.8,58.4z M401.1,81.2c0.1-0.1,0.3-0.1,0.5-0.1h1.1v-4.8l-0.6,0.1c-0.1,0-0.2,0-0.2,0s-0.1,0-0.1,0
		c-0.1,0-0.3,0-0.3-0.1c-0.1-0.1-0.1-0.2-0.1-0.4c0-0.1,0-0.2,0.1-0.3c0.1-0.1,0.2-0.1,0.4-0.2l1.4-0.4c0.1,0,0.2,0,0.3,0
		c0.1,0,0.1,0,0.2,0c0.1,0,0.2,0,0.3,0.1c0.1,0.1,0.1,0.2,0.1,0.4V81h0.9c0.2,0,0.4,0,0.5,0.1c0.1,0.1,0.1,0.2,0.1,0.5
		c0,0.2,0,0.3-0.1,0.4c-0.1,0.1-0.3,0.1-0.5,0.1h-3.3c-0.2,0-0.4,0-0.5-0.1c-0.1-0.1-0.1-0.2-0.1-0.4C401,81.4,401,81.2,401.1,81.2z
		 M391.4,119.5c-0.5,0.7-1.2,1-2.1,1c-0.9,0-1.6-0.3-2.1-1c-0.5-0.7-0.7-1.6-0.7-2.7c0-1.1,0.2-2.1,0.7-2.7c0.5-0.7,1.2-1,2.1-1
		c0.9,0,1.6,0.3,2.1,1c0.5,0.7,0.8,1.6,0.8,2.7C392.2,117.9,391.9,118.8,391.4,119.5z M391.4,110c-0.5,0.7-1.2,1-2.1,1
		c-0.9,0-1.6-0.3-2.1-1c-0.5-0.7-0.7-1.6-0.7-2.7c0-1.2,0.2-2.1,0.7-2.7c0.5-0.7,1.2-1,2.1-1c0.9,0,1.6,0.3,2.1,1
		c0.5,0.7,0.8,1.6,0.8,2.7C392.2,108.4,391.9,109.3,391.4,110z M391.4,100.4c-0.5,0.7-1.2,1-2.1,1c-0.9,0-1.6-0.3-2.1-1
		c-0.5-0.7-0.7-1.6-0.7-2.7s0.2-2.1,0.7-2.7c0.5-0.7,1.2-1,2.1-1c0.9,0,1.6,0.3,2.1,1c0.5,0.7,0.8,1.6,0.8,2.7
		C392.2,98.9,391.9,99.8,391.4,100.4z M391.4,90.9c-0.5,0.7-1.2,1-2.1,1c-0.9,0-1.6-0.3-2.1-1c-0.5-0.7-0.7-1.6-0.7-2.7
		c0-1.2,0.2-2.1,0.7-2.7c0.5-0.7,1.2-1,2.1-1c0.9,0,1.6,0.3,2.1,1c0.5,0.7,0.8,1.6,0.8,2.7C392.2,89.4,391.9,90.3,391.4,90.9z
		 M391.4,81.4c-0.5,0.7-1.2,1-2.1,1c-0.9,0-1.6-0.3-2.1-1c-0.5-0.7-0.7-1.6-0.7-2.7c0-1.2,0.2-2.1,0.7-2.7c0.5-0.7,1.2-1,2.1-1
		c0.9,0,1.6,0.3,2.1,1c0.5,0.7,0.8,1.6,0.8,2.7C392.2,79.8,391.9,80.8,391.4,81.4z M398.6,120.2c-0.1,0.1-0.3,0.1-0.5,0.1h-3.3
		c-0.2,0-0.4,0-0.5-0.1c-0.1-0.1-0.1-0.2-0.1-0.4s0-0.4,0.1-0.5c0.1-0.1,0.3-0.1,0.5-0.1h1.1v-4.8l-0.6,0.1c-0.1,0-0.2,0-0.2,0
		s-0.1,0-0.1,0c-0.1,0-0.3,0-0.3-0.1c0-0.1-0.1-0.2-0.1-0.4c0-0.1,0-0.2,0.1-0.3s0.2-0.1,0.4-0.2l1.4-0.4c0.1,0,0.2,0,0.3,0
		s0.1,0,0.2,0c0.1,0,0.2,0,0.3,0.1s0.1,0.2,0.1,0.4v5.6h0.9c0.2,0,0.4,0,0.5,0.1c0.1,0.1,0.1,0.2,0.1,0.5
		C398.8,119.9,398.7,120.1,398.6,120.2z M398.4,110c-0.5,0.7-1.2,1-2.1,1c-0.9,0-1.6-0.3-2.1-1c-0.5-0.7-0.7-1.6-0.7-2.7
		c0-1.2,0.2-2.1,0.7-2.7c0.5-0.7,1.2-1,2.1-1c0.9,0,1.6,0.3,2.1,1c0.5,0.7,0.8,1.6,0.8,2.7C399.1,108.4,398.9,109.3,398.4,110z
		 M395.2,85.9c-0.1,0-0.2,0-0.2,0s-0.1,0-0.1,0c-0.1,0-0.3,0-0.3-0.1c-0.1-0.1-0.1-0.2-0.1-0.4c0-0.1,0-0.2,0.1-0.3
		c0.1-0.1,0.2-0.1,0.4-0.2l1.4-0.4c0.1,0,0.2,0,0.3,0c0.1,0,0.1,0,0.2,0c0.1,0,0.2,0,0.3,0.1s0.1,0.2,0.1,0.4v5.6h0.9
		c0.2,0,0.4,0,0.5,0.1s0.1,0.2,0.1,0.5c0,0.2,0,0.3-0.1,0.4s-0.3,0.1-0.5,0.1h-3.3c-0.2,0-0.4,0-0.5-0.1c-0.1-0.1-0.1-0.2-0.1-0.4
		c0-0.2,0-0.4,0.1-0.5c0.1-0.1,0.3-0.1,0.5-0.1h1.1v-4.8L395.2,85.9z M394.2,100.2c0.1-0.1,0.3-0.1,0.5-0.1h1.1v-4.8l-0.6,0.1
		c-0.1,0-0.2,0-0.2,0s-0.1,0-0.1,0c-0.1,0-0.3,0-0.3-0.1c-0.1-0.1-0.1-0.2-0.1-0.4c0-0.1,0-0.2,0.1-0.3c0.1-0.1,0.2-0.1,0.4-0.2
		l1.4-0.4c0.1,0,0.2,0,0.3,0s0.1,0,0.2,0c0.1,0,0.2,0,0.3,0.1c0.1,0.1,0.1,0.2,0.1,0.4v5.6h0.9c0.2,0,0.4,0,0.5,0.1s0.1,0.2,0.1,0.5
		c0,0.2,0,0.3-0.1,0.4s-0.3,0.1-0.5,0.1h-3.3c-0.2,0-0.4,0-0.5-0.1c-0.1-0.1-0.1-0.2-0.1-0.4C394,100.5,394.1,100.3,394.2,100.2z
		 M398.4,81.4c-0.5,0.7-1.2,1-2.1,1c-0.9,0-1.6-0.3-2.1-1c-0.5-0.7-0.7-1.6-0.7-2.7c0-1.2,0.2-2.1,0.7-2.7c0.5-0.7,1.2-1,2.1-1
		c0.9,0,1.6,0.3,2.1,1c0.5,0.7,0.8,1.6,0.8,2.7C399.1,79.8,398.9,80.8,398.4,81.4z M405.3,119.5c-0.5,0.7-1.2,1-2.1,1
		c-0.9,0-1.6-0.3-2.1-1s-0.7-1.6-0.7-2.7c0-1.1,0.2-2.1,0.7-2.7c0.5-0.7,1.2-1,2.1-1c0.9,0,1.6,0.3,2.1,1c0.5,0.7,0.8,1.6,0.8,2.7
		C406.1,117.9,405.8,118.8,405.3,119.5z M405.3,110c-0.5,0.7-1.2,1-2.1,1c-0.9,0-1.6-0.3-2.1-1c-0.5-0.7-0.7-1.6-0.7-2.7
		c0-1.2,0.2-2.1,0.7-2.7c0.5-0.7,1.2-1,2.1-1c0.9,0,1.6,0.3,2.1,1c0.5,0.7,0.8,1.6,0.8,2.7C406.1,108.4,405.8,109.3,405.3,110z
		 M405.3,100.4c-0.5,0.7-1.2,1-2.1,1c-0.9,0-1.6-0.3-2.1-1c-0.5-0.7-0.7-1.6-0.7-2.7s0.2-2.1,0.7-2.7c0.5-0.7,1.2-1,2.1-1
		c0.9,0,1.6,0.3,2.1,1c0.5,0.7,0.8,1.6,0.8,2.7C406.1,98.9,405.8,99.8,405.3,100.4z M405.3,90.9c-0.5,0.7-1.2,1-2.1,1
		c-0.9,0-1.6-0.3-2.1-1c-0.5-0.7-0.7-1.6-0.7-2.7c0-1.2,0.2-2.1,0.7-2.7c0.5-0.7,1.2-1,2.1-1c0.9,0,1.6,0.3,2.1,1
		c0.5,0.7,0.8,1.6,0.8,2.7C406.1,89.4,405.8,90.3,405.3,90.9z M422,81.2c0.1-0.1,0.3-0.1,0.5-0.1h1.1v-4.8l-0.6,0.1
		c-0.1,0-0.2,0-0.2,0s-0.1,0-0.1,0c-0.1,0-0.3,0-0.3-0.1c-0.1-0.1-0.1-0.2-0.1-0.4c0-0.1,0-0.2,0.1-0.3c0.1-0.1,0.2-0.1,0.4-0.2
		l1.4-0.4c0.1,0,0.2,0,0.3,0s0.1,0,0.2,0c0.1,0,0.2,0,0.3,0.1c0,0.1,0.1,0.2,0.1,0.4V81h0.9c0.2,0,0.4,0,0.5,0.1
		c0.1,0.1,0.1,0.2,0.1,0.5c0,0.2,0,0.3-0.1,0.4c-0.1,0.1-0.3,0.1-0.5,0.1h-3.3c-0.2,0-0.4,0-0.5-0.1c-0.1-0.1-0.1-0.2-0.1-0.4
		C421.8,81.4,421.9,81.2,422,81.2z M415.1,81.2c0.1-0.1,0.3-0.1,0.5-0.1h1.1v-4.8l-0.6,0.1c-0.1,0-0.2,0-0.2,0s-0.1,0-0.1,0
		c-0.1,0-0.3,0-0.3-0.1c-0.1-0.1-0.1-0.2-0.1-0.4c0-0.1,0-0.2,0.1-0.3c0.1-0.1,0.2-0.1,0.4-0.2l1.4-0.4c0.1,0,0.2,0,0.3,0
		s0.1,0,0.2,0c0.1,0,0.2,0,0.3,0.1c0,0.1,0.1,0.2,0.1,0.4V81h0.9c0.2,0,0.4,0,0.5,0.1c0.1,0.1,0.1,0.2,0.1,0.5c0,0.2,0,0.3-0.1,0.4
		c-0.1,0.1-0.3,0.1-0.5,0.1h-3.3c-0.2,0-0.4,0-0.5-0.1c-0.1-0.1-0.1-0.2-0.1-0.4C414.9,81.4,415,81.2,415.1,81.2z M408.1,81.2
		c0.1-0.1,0.3-0.1,0.5-0.1h1.1v-4.8l-0.6,0.1c-0.1,0-0.2,0-0.2,0s-0.1,0-0.1,0c-0.1,0-0.3,0-0.3-0.1c-0.1-0.1-0.1-0.2-0.1-0.4
		c0-0.1,0-0.2,0.1-0.3c0.1-0.1,0.2-0.1,0.4-0.2l1.4-0.4c0.1,0,0.2,0,0.3,0s0.1,0,0.2,0c0.1,0,0.2,0,0.3,0.1c0.1,0.1,0.1,0.2,0.1,0.4
		V81h0.9c0.2,0,0.4,0,0.5,0.1c0.1,0.1,0.1,0.2,0.1,0.5c0,0.2,0,0.3-0.1,0.4c-0.1,0.1-0.3,0.1-0.5,0.1h-3.3c-0.2,0-0.4,0-0.5-0.1
		c-0.1-0.1-0.1-0.2-0.1-0.4C407.9,81.4,408,81.2,408.1,81.2z M408.1,90.7c0.1-0.1,0.3-0.1,0.5-0.1h1.1v-4.8l-0.6,0.1
		c-0.1,0-0.2,0-0.2,0s-0.1,0-0.1,0c-0.1,0-0.3,0-0.3-0.1c-0.1-0.1-0.1-0.2-0.1-0.4c0-0.1,0-0.2,0.1-0.3c0.1-0.1,0.2-0.1,0.4-0.2
		l1.4-0.4c0.1,0,0.2,0,0.3,0s0.1,0,0.2,0c0.1,0,0.2,0,0.3,0.1s0.1,0.2,0.1,0.4v5.6h0.9c0.2,0,0.4,0,0.5,0.1s0.1,0.2,0.1,0.5
		c0,0.2,0,0.3-0.1,0.4s-0.3,0.1-0.5,0.1h-3.3c-0.2,0-0.4,0-0.5-0.1c-0.1-0.1-0.1-0.2-0.1-0.4C407.9,91,408,90.8,408.1,90.7z
		 M408.1,100.2c0.1-0.1,0.3-0.1,0.5-0.1h1.1v-4.8l-0.6,0.1c-0.1,0-0.2,0-0.2,0s-0.1,0-0.1,0c-0.1,0-0.3,0-0.3-0.1
		c-0.1-0.1-0.1-0.2-0.1-0.4c0-0.1,0-0.2,0.1-0.3c0.1-0.1,0.2-0.1,0.4-0.2l1.4-0.4c0.1,0,0.2,0,0.3,0s0.1,0,0.2,0
		c0.1,0,0.2,0,0.3,0.1c0.1,0.1,0.1,0.2,0.1,0.4v5.6h0.9c0.2,0,0.4,0,0.5,0.1s0.1,0.2,0.1,0.5c0,0.2,0,0.3-0.1,0.4s-0.3,0.1-0.5,0.1
		h-3.3c-0.2,0-0.4,0-0.5-0.1s-0.1-0.2-0.1-0.4C407.9,100.5,408,100.3,408.1,100.2z M408.1,109.8c0.1-0.1,0.3-0.1,0.5-0.1h1.1v-4.8
		l-0.6,0.1c-0.1,0-0.2,0-0.2,0s-0.1,0-0.1,0c-0.1,0-0.3,0-0.3-0.1c-0.1-0.1-0.1-0.2-0.1-0.4c0-0.1,0-0.2,0.1-0.3
		c0.1-0.1,0.2-0.1,0.4-0.2l1.4-0.4c0.1,0,0.2,0,0.3,0s0.1,0,0.2,0c0.1,0,0.2,0,0.3,0.1s0.1,0.2,0.1,0.4v5.6h0.9c0.2,0,0.4,0,0.5,0.1
		c0.1,0.1,0.1,0.2,0.1,0.5c0,0.2,0,0.3-0.1,0.4c-0.1,0.1-0.3,0.1-0.5,0.1h-3.3c-0.2,0-0.4,0-0.5-0.1s-0.1-0.2-0.1-0.4
		C407.9,110,408,109.8,408.1,109.8z M412.3,119.5c-0.5,0.7-1.2,1-2.1,1c-0.9,0-1.6-0.3-2.1-1c-0.5-0.7-0.7-1.6-0.7-2.7
		c0-1.1,0.2-2.1,0.7-2.7c0.5-0.7,1.2-1,2.1-1c0.9,0,1.6,0.3,2.1,1c0.5,0.7,0.8,1.6,0.8,2.7C413,117.9,412.8,118.8,412.3,119.5z
		 M419.5,120.2c-0.1,0.1-0.3,0.1-0.5,0.1h-3.3c-0.2,0-0.4,0-0.5-0.1c-0.1-0.1-0.1-0.2-0.1-0.4s0-0.4,0.1-0.5
		c0.1-0.1,0.3-0.1,0.5-0.1h1.1v-4.8l-0.6,0.1c-0.1,0-0.2,0-0.2,0s-0.1,0-0.1,0c-0.1,0-0.3,0-0.3-0.1c0-0.1-0.1-0.2-0.1-0.4
		c0-0.1,0-0.2,0.1-0.3s0.2-0.1,0.4-0.2l1.4-0.4c0.1,0,0.2,0,0.3,0s0.1,0,0.2,0c0.1,0,0.2,0,0.3,0.1c0,0.1,0.1,0.2,0.1,0.4v5.6h0.9
		c0.2,0,0.4,0,0.5,0.1c0.1,0.1,0.1,0.2,0.1,0.5C419.6,119.9,419.6,120.1,419.5,120.2z M419.2,110c-0.5,0.7-1.2,1-2.1,1
		c-0.9,0-1.6-0.3-2.1-1c-0.5-0.7-0.7-1.6-0.7-2.7c0-1.2,0.2-2.1,0.7-2.7c0.5-0.7,1.2-1,2.1-1c0.9,0,1.6,0.3,2.1,1
		c0.5,0.7,0.8,1.6,0.8,2.7C420,108.4,419.7,109.3,419.2,110z M419.2,100.4c-0.5,0.7-1.2,1-2.1,1c-0.9,0-1.6-0.3-2.1-1
		c-0.5-0.7-0.7-1.6-0.7-2.7s0.2-2.1,0.7-2.7c0.5-0.7,1.2-1,2.1-1c0.9,0,1.6,0.3,2.1,1c0.5,0.7,0.8,1.6,0.8,2.7
		C420,98.9,419.7,99.8,419.2,100.4z M419.2,90.9c-0.5,0.7-1.2,1-2.1,1c-0.9,0-1.6-0.3-2.1-1c-0.5-0.7-0.7-1.6-0.7-2.7
		c0-1.2,0.2-2.1,0.7-2.7c0.5-0.7,1.2-1,2.1-1c0.9,0,1.6,0.3,2.1,1c0.5,0.7,0.8,1.6,0.8,2.7C420,89.4,419.7,90.3,419.2,90.9z
		 M426.2,119.5c-0.5,0.7-1.2,1-2.1,1c-0.9,0-1.6-0.3-2.1-1s-0.7-1.6-0.7-2.7c0-1.1,0.2-2.1,0.7-2.7c0.5-0.7,1.2-1,2.1-1
		c0.9,0,1.6,0.3,2.1,1c0.5,0.7,0.8,1.6,0.8,2.7C426.9,117.9,426.7,118.8,426.2,119.5z M423,105c-0.1,0-0.2,0-0.2,0s-0.1,0-0.1,0
		c-0.1,0-0.3,0-0.3-0.1c-0.1-0.1-0.1-0.2-0.1-0.4c0-0.1,0-0.2,0.1-0.3c0.1-0.1,0.2-0.1,0.4-0.2l1.4-0.4c0.1,0,0.2,0,0.3,0
		c0.1,0,0.1,0,0.2,0c0.1,0,0.2,0,0.3,0.1c0,0.1,0.1,0.2,0.1,0.4v5.6h0.9c0.2,0,0.4,0,0.5,0.1c0.1,0.1,0.1,0.2,0.1,0.5
		c0,0.2,0,0.3-0.1,0.4c-0.1,0.1-0.3,0.1-0.5,0.1h-3.3c-0.2,0-0.4,0-0.5-0.1c-0.1-0.1-0.1-0.2-0.1-0.4c0-0.2,0-0.4,0.1-0.5
		c0.1-0.1,0.3-0.1,0.5-0.1h1.1v-4.8L423,105z M426.2,100.4c-0.5,0.7-1.2,1-2.1,1c-0.9,0-1.6-0.3-2.1-1c-0.5-0.7-0.7-1.6-0.7-2.7
		s0.2-2.1,0.7-2.7c0.5-0.7,1.2-1,2.1-1c0.9,0,1.6,0.3,2.1,1c0.5,0.7,0.8,1.6,0.8,2.7C426.9,98.9,426.7,99.8,426.2,100.4z
		 M426.2,90.9c-0.5,0.7-1.2,1-2.1,1c-0.9,0-1.6-0.3-2.1-1c-0.5-0.7-0.7-1.6-0.7-2.7c0-1.2,0.2-2.1,0.7-2.7c0.5-0.7,1.2-1,2.1-1
		c0.9,0,1.6,0.3,2.1,1c0.5,0.7,0.8,1.6,0.8,2.7C426.9,89.4,426.7,90.3,426.2,90.9z"/>
	<path fill="#F3F4F5" d="M417.1,95.2c-0.4,0-0.7,0.2-0.9,0.6c-0.2,0.4-0.3,1-0.3,1.8s0.1,1.4,0.3,1.8s0.5,0.7,0.9,0.7s0.7-0.2,1-0.7
		c0.2-0.4,0.3-1,0.3-1.8s-0.1-1.4-0.3-1.8C417.9,95.5,417.6,95.2,417.1,95.2z"/>
</g>
<circle fill="#AFD2ED" cx="444.9" cy="107.3" r="27.8"/>
<g>
	<g>
		<path fill="#FFFFFF" d="M445.6,99.1h-1.4h-1.5l-8.5,14.6h10.4h0.7h10.4l-8.5-14.6H445.6z M442.5,110.9c-0.8,0-1.5-0.7-1.5-1.5
			c0-0.8,0.7-1.5,1.5-1.5s1.5,0.7,1.5,1.5C444,110.3,443.3,110.9,442.5,110.9z M449.4,110.3c0,1-0.8,1.8-1.8,1.8
			c-1,0-1.8-0.8-1.8-1.8c0-1,0.8-1.8,1.8-1.8C448.6,108.5,449.4,109.3,449.4,110.3z M445.9,107.4c-0.8,0-1.4-0.6-1.4-1.4
			s0.6-1.4,1.4-1.4s1.4,0.6,1.4,1.4S446.6,107.4,445.9,107.4z"/>
		<path fill="#FFFFFF" d="M444.9,78c-16.2,0-29.3,13.1-29.3,29.3s13.1,29.3,29.3,29.3s29.3-13.1,29.3-29.3S461,78,444.9,78z
			 M459,123.6c-0.7,0.4-1.5,0.6-2.2,0.6l0,0H433l0,0c-0.8,0-1.5-0.2-2.2-0.6c-2.1-1.3-2.8-4-1.6-6.1L439.9,99v-6.6h-0.6
			c-0.7,0-1.2-0.6-1.2-1.2c0-0.7,0.6-1.2,1.2-1.2h2.2l-1-3.7h8.6l-1,3.7h2.2c0.7,0,1.2,0.6,1.2,1.2s-0.6,1.2-1.2,1.2h-0.6V99
			l10.8,18.5C461.8,119.6,461.1,122.4,459,123.6z"/>
	</g>
</g>
<circle fill="#AFD2ED" cx="353.3" cy="83.8" r="22.4"/>
<path fill="#FFFFFF" d="M353.3,59.7c-13.3,0-24.2,10.8-24.2,24.2c0,13.3,10.8,24.2,24.2,24.2s24.2-10.8,24.2-24.2
	S366.7,59.7,353.3,59.7z M366.4,92.1L366.4,92.1L366.4,92.1c-0.3,1.8-2.2,3.5-4.7,3.9c-3,0.5-5.8-0.7-6.2-2.9
	c-0.4-2.2,1.7-4.3,4.7-4.9c1.4-0.3,2.8-0.1,3.9,0.4V74.2l-16,2.1l0,17.6c0.1,0.3,0,0.6,0,0.9v0l0,0c-0.3,1.8-2.2,3.4-4.7,3.9
	c-3,0.5-5.8-0.7-6.2-2.9c-0.4-2.2,1.7-4.3,4.7-4.9c1.4-0.3,2.8-0.1,3.9,0.4V70.9l20.6-2.6l0,22.9C366.5,91.5,366.5,91.8,366.4,92.1z
	"/>
<path fill="#043F3A" d="M130.8,68.1c-3.2-1-5.2-3.3-5.3-6.7c-0.2-3.4-0.1-6.5-0.1-10.3c0.9,0.1,1.6,0.4,2,1.1c0.7,1.1,1,2.4,1.5,3.6
	c0.3-0.4,0.3-1,0.5-1.4c0,0,0-0.1,0.1-0.1c0,0,0.1,0,0.1,0c0.1,0,0.3,0,0.4,0c0.3,0.1,0.4,0.5,0.3,0.7c0,0,0,0.1,0,0.2
	c0,0.1,0,0.2,0,0.3c0,0,0,0.1,0,0.1c0,0,0,0.1,0,0.1c0,0,0,0,0,0c0,0,0,0.1,0,0.1c0,0,0,0.1,0.1,0.1c0,0.1,0,0.2,0.1,0.3
	c0.1,0.1,0.2,0.2,0.3,0.3c1.2-1,0.4-3.3-0.5-4.4c-1.8-2.3-2.7-2.7-6.6-3.8c-1.3-0.5-2.4-0.9-2.7-0.9c-2.3-0.4-4.6-0.9-6.9-1.4
	c-0.5-0.1-0.8-0.8-1.2-1.2c0.5-0.4,0.9-1,1.5-1.1c2-0.5,0.6-2.3,1.1-3.6c0-0.1,0.1-0.2,0.1-0.3c0,0,0-0.1,0-0.1c0,0,0-0.1,0-0.1
	c0,0,0-0.1,0-0.1c0,0,0-0.1,0-0.1c0-0.1-0.1-0.1-0.1-0.2c0-0.1-0.1-0.2-0.1-0.2c-0.1-0.1-0.2-0.3-0.3-0.4c-0.1-0.2-0.2-0.3-0.3-0.5
	c-0.1-0.1-0.1-0.1-0.1-0.2l0,0c0-0.1,0-0.1-0.1-0.2c0.1-0.1,0.2-0.2,0.3-0.3c0.1-0.1,0.2-0.2,0.1-0.3c-0.1-0.1-0.2-0.1-0.3-0.2
	c-0.1-0.1-0.2-0.2-0.2-0.3c-0.1-0.1-0.2-0.2-0.3-0.3c-0.1-0.1-0.1-0.1-0.2-0.1c-0.1-0.1-0.2-0.1-0.2-0.2c-0.1-0.1-0.2-0.1-0.3-0.2
	c-0.1,0-0.2-0.1-0.3-0.2c-0.1-0.1-0.2-0.1-0.3-0.2c-0.1-0.1-0.2-0.1-0.3-0.1c-0.1,0-0.2-0.1-0.3-0.1c-0.2-0.1-0.4-0.1-0.6-0.2
	c-0.1,0-0.2,0-0.3-0.1c0,0-0.1,0-0.2,0c0,0,0,0-0.1,0.1c-0.2,0-0.4-0.1-0.6-0.1c0,0-0.1,0-0.1-0.1l0,0.1c-1.2,0.1-2.7,0.8-3,1.6
	c-0.7,1.9-1,3.8-0.1,5.8c0.1,0.2,0,0.9-0.1,0.9c-1.7,0.3-2.6,2.7-3.2,4.1c-0.2,0.4-0.3,0.8-0.3,1.2c-1,5-1.6,9.6,0,14.6
	c0.5,1.5,1.5,2.4,3,2.8c3.7,1.1,6.9,0.1,9.5-2.6c1.2-1.3,2.3-2.8,3.7-4.4c0.8,1.9,1.9,3.6,2.3,5.5c0.3,1.5-0.2,3.1-0.4,4.8
	c2.9,1,5.8,1.8,9,1.6c0.6-0.1,1.5-0.5,1.6-0.9C132.5,68.7,131.6,68.3,130.8,68.1z M114,53.1c-0.2-0.1-0.3-0.1-0.5-0.2
	c0.2-0.8,0.3-1.6,0.5-2.5c0.8,0,1.5,0,2.7,0.1C115.7,51.5,114.9,52.3,114,53.1z"/>
<polygon fill="#043F3A" points="227.4,179.1 196.8,141.7 190.8,139.9 164.7,104.6 152.2,99.2 131.4,78.3 127.2,74.4 125.6,70.2 
	107.4,61.7 101,63.6 88.3,78.3 73.1,97.7 63.8,122.6 47.9,147.1 34.3,179.1 "/>
<circle fill="#AFD2ED" cx="294.4" cy="98.7" r="21.9"/>
<g>
	<path fill="#F3F4F5" d="M298.6,93.8l-2.8-5.6c-0.4,0.1-0.8,0.2-1.2,0.2c-0.4,0-0.9-0.1-1.3-0.2l-3,5.8c0.9,0.7,1.4,1.8,1.4,3
		c0,1.3-0.6,2.4-1.6,3.1l3,5.7c0.4-0.2,0.9-0.2,1.3-0.2c0.4,0,0.8,0.1,1.2,0.2l2.7-5.6c-1-0.7-1.7-1.8-1.7-3.2
		C296.9,95.7,297.6,94.5,298.6,93.8z"/>
	<path fill="#F3F4F5" d="M294.5,74c-13.7,0-24.7,11.1-24.7,24.7c0,13.6,11.1,24.7,24.7,24.7c13.6,0,24.7-11.1,24.7-24.7
		C319.1,85.1,308.1,74,294.5,74z M306.9,113.2c-2.1,0-3.8-1.7-3.8-3.8c0-1.3,0.7-2.5,1.7-3.2l-2.8-5.7c-0.4,0.2-0.9,0.2-1.3,0.2
		c-0.4,0-0.8-0.1-1.2-0.2l-2.7,5.6c1,0.7,1.7,1.8,1.7,3.2c0,2.1-1.7,3.8-3.8,3.8c-2.1,0-3.8-1.7-3.8-3.8c0-1.3,0.6-2.4,1.6-3.1
		l-3-5.7c-0.4,0.2-0.9,0.2-1.3,0.2c-0.3,0-0.7-0.1-1-0.2l-2.9,5.6c1,0.7,1.6,1.8,1.6,3.1c0,2.1-1.7,3.8-3.8,3.8
		c-2.1,0-3.8-1.7-3.8-3.8c0-2.1,1.7-3.8,3.8-3.8c0.4,0,0.9,0.1,1.3,0.2l2.8-5.5c-1.1-0.7-1.9-1.9-1.9-3.3c0-2.1,1.7-3.8,3.8-3.8
		c0.5,0,1.1,0.1,1.5,0.3l3-5.7c-1-0.7-1.6-1.8-1.6-3.1c0-2.1,1.7-3.8,3.8-3.8c2.1,0,3.8,1.7,3.8,3.8c0,1.3-0.7,2.5-1.7,3.2l2.8,5.6
		c0.4-0.1,0.7-0.2,1.1-0.2c2.1,0,3.8,1.7,3.8,3.8c0,1.3-0.6,2.4-1.6,3.1l2.8,5.7c0.4-0.1,0.8-0.2,1.2-0.2c2.1,0,3.8,1.7,3.8,3.8
		C310.8,111.5,309.1,113.2,306.9,113.2z"/>
</g>
<rect x="0" fill="none" width="590.1" height="179.1"/>
</svg>
