<?xml version="1.0" encoding="utf-8"?>
<!-- Generator: Adobe Illustrator 18.1.1, SVG Export Plug-In . SVG Version: 6.00 Build 0)  -->
<svg version="1.1" id="Layer_1" xmlns="http://www.w3.org/2000/svg" xmlns:xlink="http://www.w3.org/1999/xlink" x="0px" y="0px"
	 viewBox="13.7 532.1 592 272.3" enable-background="new 13.7 532.1 592 272.3" xml:space="preserve">
<path fill="#FFFFFF" d="M370.2,667.7h-9c-0.3,0-0.6,0.2-0.6,0.6v1.2c0,0.3,0.2,0.6,0.6,0.6h9c0.3,0,0.6-0.2,0.6-0.6v-1.2
	C370.7,667.9,370.4,667.7,370.2,667.7z"/>
<path fill="#FFFFFF" d="M351,664.2c0.2-0.2,0.2-0.6,0-0.8l-0.9-0.9c-0.2-0.2-0.6-0.2-0.8,0l-1.9,1.9c-0.2,0.2-0.6,0.2-0.8,0
	l-1.9-1.9c-0.2-0.2-0.6-0.2-0.8,0l-0.9,0.9c-0.2,0.2-0.2,0.6,0,0.8l1.9,1.9c0.2,0.2,0.2,0.6,0,0.8l-1.9,1.9c-0.2,0.2-0.2,0.6,0,0.8
	l0.9,0.9c0.2,0.2,0.6,0.2,0.8,0l1.9-1.9c0.2-0.2,0.6-0.2,0.8,0l1.9,1.9c0.2,0.2,0.6,0.2,0.8,0l0.9-0.9c0.2-0.2,0.2-0.6,0-0.8
	l-1.9-1.9c-0.2-0.2-0.2-0.6,0-0.8L351,664.2z"/>
<path fill="#FFFFFF" d="M370.2,662.9h-9c-0.3,0-0.6,0.2-0.6,0.6v1.2c0,0.3,0.2,0.6,0.6,0.6h9c0.3,0,0.6-0.2,0.6-0.6v-1.2
	C370.7,663.2,370.4,662.9,370.2,662.9z"/>
<path fill="#FFE48E" d="M286.1,649.7c0.6-12.8,11-22.9,23.9-22.9c9.8,0,18.2,6,22,14.4c2.6-4,6.2-7.4,10.5-9.7
	c1.6-11,10.8-19.6,22.3-20.2c-10.3-20.1-31.3-33.9-55.6-33.9c-34.4,0-62.4,27.9-62.4,62.4c0,3.5,0.3,6.8,0.8,10.1L286.1,649.7
	L286.1,649.7z"/>
<path fill="#FFE48E" d="M349.1,685.5h-82c11,10.2,25.8,16.4,42.1,16.4c16,0,30.6-6,41.6-15.9C350.2,685.8,349.6,685.6,349.1,685.5z"
	/>
<path fill="#84A8A6" d="M75.8,720.5h487c-5.7-5.2-15.6-12.8-31.3-18.5c-5.9-2.1-28.1-10.1-55.8-7.6c-31.6,2.9-47.9,10.2-75.7,10.5
	c-26.9,0.3-33.6-5.2-58.7-9.9c-41.6-7.9-84.6,2.1-125.3,9.8c2.6-0.6,5.3-1.2,7.8-2c0.6-0.2,1.2-0.4,1.3-0.9c0.3-0.8-0.8-1.3-1.6-1.7
	c-32.8-12.5-71.5-12.6-106.7-8.3c-15.7,1.8-29.7,5.2-41,8.3L75.8,720.5L75.8,720.5z"/>
<path fill="#FFFFFF" d="M310.1,628.8c-12,0-21.9,9.8-21.9,21.9s9.8,21.9,21.9,21.9c12,0,21.9-9.8,21.9-21.9S322,628.8,310.1,628.8z
	 M321.2,662.8c-1.8,0-3.4-1.5-3.4-3.4c0-1.2,0.6-2.2,1.4-2.8l-2.5-5.1c-0.4,0.1-0.8,0.2-1.2,0.2c-0.4,0-0.8-0.1-1.1-0.2l-2.4,5.1
	c0.9,0.6,1.5,1.6,1.5,2.8c0,1.8-1.5,3.4-3.4,3.4c-1.8,0-3.4-1.5-3.4-3.4c0-1.2,0.6-2.1,1.4-2.8l-2.7-5.2c-0.4,0.1-0.8,0.2-1.2,0.2
	c-0.3,0-0.7-0.1-0.9-0.1l-2.5,5.1c0.9,0.6,1.4,1.6,1.4,2.8c0,1.8-1.5,3.4-3.4,3.4c-1.8,0-3.4-1.5-3.4-3.4c0-1.8,1.5-3.4,3.4-3.4
	c0.4,0,0.8,0.1,1.2,0.2l2.5-5c-1-0.6-1.6-1.6-1.6-2.9c0-1.8,1.5-3.4,3.4-3.4c0.5,0,1,0.1,1.3,0.3l2.6-5.2c-0.9-0.6-1.4-1.6-1.4-2.8
	c0-1.8,1.5-3.4,3.4-3.4c1.8,0,3.4,1.5,3.4,3.4c0,1.2-0.6,2.2-1.4,2.8l2.5,5.1c0.3-0.1,0.7-0.2,1.1-0.2c1.8,0,3.4,1.5,3.4,3.4
	c0,1.2-0.6,2.1-1.4,2.8l2.5,5.1c0.3-0.1,0.7-0.2,1.1-0.2c1.8,0,3.4,1.5,3.4,3.4C324.7,661.3,323.1,662.8,321.2,662.8z"/>
<path fill="#FFFFFF" d="M313.7,645.4l-2.5-5c-0.3,0.1-0.7,0.2-1.1,0.2c-0.4,0-0.8-0.1-1.2-0.2l-2.7,5.3c0.8,0.6,1.2,1.5,1.2,2.7
	s-0.6,2.1-1.4,2.8l2.7,5.2c0.4-0.1,0.8-0.2,1.2-0.2c0.4,0,0.8,0.1,1.1,0.2l2.4-5.1c-0.9-0.6-1.5-1.6-1.5-2.8
	C312.2,647,312.8,646.1,313.7,645.4z"/>
<path fill="#FFFFFF" d="M434.2,683.4h10c-1.7-0.7-3.5-1.5-5.1-2.6C437.4,681.8,435.8,682.6,434.2,683.4z"/>
<path fill="#FFFFFF" d="M142.3,683.4h201.3c-7.1-3.5-12.7-9.9-15.1-17.6c-4.4,5.4-11,8.8-18.5,8.8c-12.9,0-23.3-10.2-23.9-22.9
	H142.3V683.4z"/>
<path fill="#FFFFFF" d="M371.6,611.7c1.2-11.9,11.3-21.4,23.7-21.4c11.7,0,21.5,8.4,23.5,19.6c1.5,0,3.1,0.1,4.6,0.3
	c-1.9-13.8-13.8-24.4-27.9-24.4c-14.6,0-26.5,11-28.1,25.1C368.8,611.1,370.2,611.3,371.6,611.7z"/>
<path fill="#FFFFFF" d="M387,623.5c0.4,0.6,0.7,1.2,1,1.9c1.2-1.7,2.7-3.3,4.3-4.9L387,623.5z"/>
<path fill="#FFFFFF" d="M380.7,614.1c0,0.6-0.2,1.1-0.5,1.4c2.4,1.7,4.6,3.9,6.1,6.5l6.1-10.9l13.5-7.5l-6.4,11.4
	c4.4-2.5,9.2-4.2,14.4-4.9c-1.6-8.1-8.4-14.2-16.8-15c0.4,0.4,0.7,1.1,0.7,1.6c0,1.3-1.1,2.4-2.4,2.4c-1.3,0-2.4-1.1-2.4-2.4
	c0-0.7,0.3-1.2,0.7-1.6c-9,0.9-16.3,8.1-17.1,17.1c0.4-0.4,1.1-0.7,1.6-0.7C379.6,611.7,380.7,612.9,380.7,614.1z"/>
<circle fill="#FFFFFF" cx="395.4" cy="614.1" r="2.4"/>
<path fill="#FFFFFF" d="M345.1,646.5h-2.7c-0.3,0-0.6,0.2-0.6,0.6v1.2c0,0.3,0.2,0.6,0.6,0.6h2.8c0.3,0,0.6,0.2,0.6,0.6v2.8
	c0,0.3,0.2,0.6,0.6,0.6h1.2c0.3,0,0.6-0.2,0.6-0.6V651C347,649.4,346,648.1,345.1,646.5z"/>
<path fill="#FFFFFF" d="M414.2,635c-0.4,0-0.8,0.2-1,0.7c-0.2,0.5-0.4,1.2-0.4,1.9c0,0.9,0.1,1.4,0.4,1.9c0.3,0.5,0.6,0.8,1,0.8
	c0.4,0,0.8-0.3,1.1-0.8c0.3-0.5,0.4-1.2,0.4-1.9c0-0.9-0.1-1.4-0.4-1.9C415,635.2,414.7,635,414.2,635z"/>
<path fill="#FFFFFF" d="M414.2,645.4c-0.4,0-0.8,0.2-1,0.7c-0.2,0.5-0.4,1.2-0.4,1.9c0,0.9,0.1,1.4,0.4,1.9c0.3,0.5,0.6,0.8,1,0.8
	c0.4,0,0.8-0.3,1.1-0.8c0.3-0.5,0.4-1.2,0.4-1.9c0-0.9-0.1-1.4-0.4-1.9C415,645.6,414.7,645.4,414.2,645.4z"/>
<path fill="#FFFFFF" d="M399,635c-0.4,0-0.8,0.2-1,0.7c-0.2,0.5-0.4,1.2-0.4,1.9c0,0.9,0.1,1.4,0.4,1.9c0.3,0.5,0.6,0.8,1,0.8
	c0.4,0,0.8-0.3,1.1-0.8c0.3-0.5,0.4-1.2,0.4-1.9c0-0.9-0.1-1.4-0.4-1.9C399.8,635.2,399.5,635,399,635z"/>
<path fill="#FFFFFF" d="M421.8,666.1c-0.4,0-0.8,0.2-1,0.7c-0.3,0.5-0.4,1.2-0.4,1.9c0,0.9,0.1,1.4,0.4,1.9c0.3,0.5,0.6,0.7,1,0.7
	c0.4,0,0.8-0.3,1.1-0.7c0.3-0.5,0.4-1.2,0.4-1.9c0-0.9-0.1-1.4-0.4-1.9C422.5,666.4,422.3,666.1,421.8,666.1z"/>
<path fill="#FFFFFF" d="M414.2,655.9c-0.4,0-0.8,0.2-1,0.7c-0.3,0.5-0.4,1.2-0.4,1.9s0.1,1.4,0.4,1.9c0.3,0.5,0.6,0.8,1,0.8
	c0.4,0,0.8-0.3,1.1-0.8c0.3-0.5,0.4-1.2,0.4-1.9s-0.1-1.4-0.4-1.9C415,656,414.7,655.9,414.2,655.9z"/>
<path fill="#FFFFFF" d="M406.6,655.9c-0.4,0-0.8,0.2-1,0.7c-0.3,0.5-0.4,1.2-0.4,1.9s0.1,1.4,0.4,1.9c0.3,0.5,0.6,0.8,1,0.8
	c0.4,0,0.8-0.3,1.1-0.8c0.3-0.5,0.4-1.2,0.4-1.9s-0.1-1.4-0.4-1.9C407.4,656,407,655.9,406.6,655.9z"/>
<path fill="#FFFFFF" d="M406.6,624.7c-0.4,0-0.8,0.2-1,0.7c-0.2,0.5-0.4,1.2-0.4,1.9c0,0.9,0.1,1.4,0.4,1.9c0.3,0.5,0.6,0.8,1,0.8
	c0.4,0,0.8-0.3,1.1-0.8c0.3-0.5,0.4-1.2,0.4-1.9c0-0.9-0.1-1.4-0.4-1.9C407.4,624.9,407,624.7,406.6,624.7z"/>
<path fill="#FFFFFF" d="M414.2,666.1c-0.4,0-0.8,0.2-1,0.7c-0.3,0.5-0.4,1.2-0.4,1.9c0,0.9,0.1,1.4,0.4,1.9c0.3,0.5,0.6,0.7,1,0.7
	c0.4,0,0.8-0.3,1.1-0.7c0.3-0.5,0.4-1.2,0.4-1.9c0-0.9-0.1-1.4-0.4-1.9C415,666.4,414.7,666.1,414.2,666.1z"/>
<path fill="#FFFFFF" d="M399,624.7c-0.4,0-0.8,0.2-1,0.7c-0.2,0.5-0.4,1.2-0.4,1.9c0,0.9,0.1,1.4,0.4,1.9c0.3,0.5,0.6,0.8,1,0.8
	c0.4,0,0.8-0.3,1.1-0.8c0.3-0.5,0.4-1.2,0.4-1.9c0-0.9-0.1-1.4-0.4-1.9C399.8,624.9,399.5,624.7,399,624.7z"/>
<path fill="#FFFFFF" d="M399,645.4c-0.4,0-0.8,0.2-1,0.7c-0.2,0.5-0.4,1.2-0.4,1.9c0,0.9,0.1,1.4,0.4,1.9c0.3,0.5,0.6,0.8,1,0.8
	c0.4,0,0.8-0.3,1.1-0.8c0.3-0.5,0.4-1.2,0.4-1.9c0-0.9-0.1-1.4-0.4-1.9C399.8,645.6,399.5,645.4,399,645.4z"/>
<path fill="#FFFFFF" d="M399,666.1c-0.4,0-0.8,0.2-1,0.7c-0.3,0.5-0.4,1.2-0.4,1.9c0,0.9,0.1,1.4,0.4,1.9c0.3,0.5,0.6,0.7,1,0.7
	c0.4,0,0.8-0.3,1.1-0.7c0.3-0.5,0.4-1.2,0.4-1.9c0-0.9-0.1-1.4-0.4-1.9C399.8,666.4,399.5,666.1,399,666.1z"/>
<path fill="#FFFFFF" d="M399,655.9c-0.4,0-0.8,0.2-1,0.7c-0.3,0.5-0.4,1.2-0.4,1.9s0.1,1.4,0.4,1.9c0.3,0.5,0.6,0.8,1,0.8
	c0.4,0,0.8-0.3,1.1-0.8c0.3-0.5,0.4-1.2,0.4-1.9s-0.1-1.4-0.4-1.9C399.8,656,399.5,655.9,399,655.9z"/>
<path fill="#FFFFFF" d="M429.3,635c-0.4,0-0.8,0.2-1,0.7c-0.3,0.5-0.4,1.2-0.4,1.9c0,0.9,0.1,1.4,0.4,1.9c0.3,0.5,0.6,0.8,1,0.8
	c0.4,0,0.8-0.3,1.1-0.8c0.3-0.5,0.4-1.2,0.4-1.9c0-0.9-0.1-1.4-0.4-1.9C430.1,635.3,429.8,635,429.3,635z"/>
<path fill="#FFFFFF" d="M448.4,627.4c-6.6-9.3-17.4-15.4-29.7-15.4c-12.3,0-23.3,6.2-29.8,15.7c0.7,2.2,1.1,4.7,1.1,7.2
	c0,6.7-2.8,12.9-7.3,17.2c1.9,18.2,17.3,32.4,36,32.4c6.8,0,13.1-1.8,18.4-5.1c-2.5-1.8-4.7-4.2-6.4-6.8h-3.1
	c-0.3,0-0.5-0.1-0.6-0.2c-0.1-0.1-0.2-0.3-0.2-0.5s0.1-0.4,0.2-0.5c0.1-0.1,0.3-0.2,0.6-0.2h1.2v-1.9c-0.5-1.1-1-2-1.4-3.2
	c0,0-0.1,0-0.1-0.1c-0.1-0.1-0.2-0.3-0.2-0.5v0c-1.1-3-1.6-6.2-1.6-9.6c0-2.3,0.3-4.7,0.8-6.8c-0.1-0.4-0.1-0.8-0.1-1.2
	c0-1.2,0.3-2.2,0.8-3c0.3-0.4,0.6-0.7,1-0.9c0.4-0.9,0.8-1.6,1.2-2.4c-1,0-1.6-0.4-2.2-1.1c-0.5-0.8-0.8-1.7-0.8-3
	c0-1.2,0.3-2.2,0.8-3c0.5-0.8,1.2-1.2,2.2-1.2s1.7,0.4,2.2,1.2c0.5,0.7,0.8,1.5,0.8,2.5c0.7-0.9,1.4-1.6,2.2-2.3
	c0-0.1,0.1-0.1,0.1-0.2c0.3-0.4,0.7-0.7,1.1-0.9c1.1-1,2.3-1.8,3.5-2.6c-0.1,0-0.3,0.1-0.4,0.1h-3.7c-0.3,0-0.5-0.1-0.6-0.2
	c-0.1-0.1-0.2-0.3-0.2-0.5c-0.1-0.3-0.1-0.5,0.1-0.5c0.1-0.1,0.3-0.2,0.6-0.2h1.2v-5.3l-0.7,0.2c-0.1,0-0.2,0.1-0.3,0.1
	c-0.1,0-0.1,0-0.2,0c-0.2,0-0.3-0.1-0.4-0.2c-0.1-0.1-0.2-0.3-0.2-0.5s0.1-0.3,0.2-0.4c0.1-0.1,0.3-0.2,0.5-0.2l1.5-0.4
	c0.1-0.1,0.2-0.1,0.3-0.1s0.2,0,0.2,0c0.2,0,0.3,0.1,0.4,0.2s0.1,0.3,0.1,0.5v6h1c0.3,0,0.5,0.1,0.6,0.2s0.2,0.3,0.2,0.5
	s-0.1,0.4-0.1,0.5C442.2,629.4,445.1,628.2,448.4,627.4z M411.8,630.1c0.1-0.1,0.3-0.2,0.6-0.2h1.2v-5.3l-0.7,0.3
	c-0.1,0-0.2,0.1-0.3,0.1c-0.1,0-0.1,0-0.2,0c-0.2,0-0.3-0.1-0.4-0.2c-0.1-0.1-0.2-0.3-0.2-0.5s0.1-0.3,0.2-0.4
	c0.1-0.1,0.3-0.2,0.5-0.2l1.5-0.4c0.1-0.1,0.2-0.1,0.3-0.1s0.2,0,0.2,0c0.2,0,0.3,0.1,0.4,0.2c0.1,0.1,0.1,0.3,0.1,0.5v6h1
	c0.3,0,0.5,0.1,0.6,0.2c0.1,0.1,0.2,0.3,0.2,0.5c0,0.2-0.1,0.4-0.2,0.5c-0.1,0.1-0.3,0.2-0.6,0.2h-3.5c-0.3,0-0.5-0.1-0.6-0.2
	c-0.1-0.1-0.2-0.3-0.2-0.5C411.7,630.3,411.7,630.1,411.8,630.1z M401.2,671.8c-0.5,0.8-1.3,1.2-2.2,1.2c-1,0-1.7-0.4-2.2-1.2
	c-0.5-0.8-0.8-1.7-0.8-3c0-1.2,0.3-2.2,0.8-3c0.5-0.8,1.2-1.2,2.2-1.2s1.7,0.4,2.2,1.2c0.5,0.8,0.9,1.7,0.9,3
	C402,670.1,401.8,671.1,401.2,671.8z M401.2,661.4c-0.5,0.8-1.3,1.2-2.2,1.2c-1,0-1.7-0.4-2.2-1.2c-0.5-0.8-0.8-1.7-0.8-3
	c0-1.3,0.3-2.2,0.8-3c0.5-0.8,1.2-1.2,2.2-1.2s1.7,0.4,2.2,1.2c0.5,0.8,0.9,1.7,0.9,3C402,659.8,401.8,660.7,401.2,661.4z
	 M401.2,651.1c-0.5,0.8-1.3,1.2-2.2,1.2c-1,0-1.7-0.4-2.2-1.2c-0.5-0.8-0.8-1.7-0.8-3c0-1.2,0.3-2.2,0.8-3c0.5-0.8,1.2-1.2,2.2-1.2
	s1.7,0.4,2.2,1.2c0.5,0.8,0.9,1.7,0.9,3C402,649.4,401.8,650.4,401.2,651.1z M401.2,640.8c-0.5,0.8-1.3,1.2-2.2,1.2
	c-1,0-1.7-0.4-2.2-1.2c-0.5-0.8-0.8-1.7-0.8-3c0-1.3,0.3-2.2,0.8-3c0.5-0.8,1.2-1.2,2.2-1.2s1.7,0.4,2.2,1.2c0.5,0.8,0.9,1.7,0.9,3
	C402,639,401.8,640,401.2,640.8z M401.2,630.3c-0.5,0.8-1.3,1.2-2.2,1.2c-1,0-1.7-0.4-2.2-1.2c-0.5-0.8-0.8-1.7-0.8-3
	c0-1.2,0.3-2.2,0.8-3c0.5-0.8,1.2-1.2,2.2-1.2s1.7,0.4,2.2,1.2c0.5,0.8,0.9,1.7,0.9,3C402,628.6,401.8,629.7,401.2,630.3z
	 M409.1,672.6c-0.1,0.1-0.3,0.2-0.6,0.2H405c-0.3,0-0.5-0.1-0.6-0.2c-0.1-0.1-0.2-0.3-0.2-0.5s0.1-0.4,0.2-0.5
	c0.1-0.1,0.3-0.2,0.6-0.2h1.2v-5.3l-0.7,0.2c-0.1,0-0.2,0.1-0.3,0.1c-0.1,0-0.1,0-0.2,0c-0.2,0-0.3-0.1-0.4-0.2
	c-0.1-0.1-0.2-0.3-0.2-0.5s0.1-0.3,0.2-0.4c0.1-0.1,0.3-0.2,0.5-0.2l1.5-0.4c0.1-0.1,0.2-0.1,0.3-0.1c0.1,0,0.2,0,0.2,0
	c0.2,0,0.3,0.1,0.4,0.2c0.1,0.1,0.1,0.3,0.1,0.5v6h1c0.3,0,0.5,0.1,0.6,0.2c0.1,0.1,0.2,0.3,0.2,0.5
	C409.3,672.4,409.2,672.5,409.1,672.6z M408.8,661.4c-0.5,0.8-1.3,1.2-2.2,1.2c-1,0-1.7-0.4-2.2-1.2c-0.5-0.8-0.8-1.7-0.8-3
	c0-1.3,0.3-2.2,0.8-3c0.5-0.8,1.2-1.2,2.2-1.2s1.7,0.4,2.2,1.2c0.5,0.8,0.9,1.7,0.9,3C409.7,659.8,409.4,660.7,408.8,661.4z
	 M405.4,635.3c-0.1,0-0.2,0.1-0.3,0.1c-0.1,0-0.1,0-0.2,0c-0.2,0-0.3-0.1-0.4-0.2s-0.2-0.3-0.2-0.5s0.1-0.3,0.2-0.4s0.3-0.2,0.5-0.2
	l1.5-0.4c0.1-0.1,0.2-0.1,0.3-0.1c0.1,0,0.2,0,0.2,0c0.2,0,0.3,0.1,0.4,0.2c0.1,0.1,0.1,0.3,0.1,0.5v6h1c0.3,0,0.5,0.1,0.6,0.2
	c0.1,0.1,0.2,0.3,0.2,0.5s-0.1,0.4-0.2,0.5c-0.1,0.1-0.3,0.2-0.6,0.2h-3.6c-0.3,0-0.5-0.1-0.6-0.2c-0.1-0.1-0.2-0.3-0.2-0.5
	s0.1-0.4,0.2-0.5c0.1-0.1,0.3-0.2,0.6-0.2h1.2v-5.2L405.4,635.3z M404.2,650.9c0.1-0.1,0.3-0.2,0.6-0.2h1.2v-5.3l-0.7,0.2
	c-0.1,0-0.2,0.1-0.3,0.1c-0.1,0-0.1,0-0.2,0c-0.2,0-0.3-0.1-0.4-0.2c-0.1-0.1-0.2-0.3-0.2-0.5s0.1-0.3,0.2-0.4
	c0.1-0.1,0.3-0.2,0.5-0.2l1.5-0.4c0.1-0.1,0.2-0.1,0.3-0.1c0.1,0,0.2,0,0.2,0c0.2,0,0.3,0.1,0.4,0.2c0.1,0.1,0.1,0.3,0.1,0.5v6h1
	c0.3,0,0.5,0.1,0.6,0.2c0.1,0.1,0.2,0.3,0.2,0.5s-0.1,0.4-0.2,0.5c-0.1,0.1-0.3,0.2-0.6,0.2h-3.6c-0.3,0-0.5-0.1-0.6-0.2
	c-0.1-0.1-0.2-0.3-0.2-0.5C404,651.1,404.1,651,404.2,650.9z M408.8,630.3c-0.5,0.8-1.3,1.2-2.2,1.2c-1,0-1.7-0.4-2.2-1.2
	c-0.5-0.8-0.8-1.7-0.8-3c0-1.2,0.3-2.2,0.8-3c0.5-0.8,1.2-1.2,2.2-1.2s1.7,0.4,2.2,1.2c0.5,0.8,0.9,1.7,0.9,3
	C409.7,628.6,409.4,629.7,408.8,630.3z M416.4,671.8c-0.5,0.8-1.3,1.2-2.2,1.2c-1,0-1.7-0.4-2.2-1.2c-0.5-0.8-0.8-1.7-0.8-3
	c0-1.2,0.3-2.2,0.8-3c0.5-0.8,1.2-1.2,2.2-1.2s1.7,0.4,2.2,1.2c0.5,0.8,0.9,1.7,0.9,3S417,671.1,416.4,671.8z M416.4,661.4
	c-0.5,0.8-1.3,1.2-2.2,1.2c-1,0-1.7-0.4-2.2-1.2c-0.5-0.8-0.8-1.7-0.8-3c0-1.3,0.3-2.2,0.8-3c0.5-0.8,1.2-1.2,2.2-1.2
	s1.7,0.4,2.2,1.2c0.5,0.8,0.9,1.7,0.9,3C417.3,659.8,417,660.7,416.4,661.4z M416.4,651.1c-0.5,0.8-1.3,1.2-2.2,1.2
	c-1,0-1.7-0.4-2.2-1.2c-0.5-0.8-0.8-1.7-0.8-3c0-1.2,0.3-2.2,0.8-3c0.5-0.8,1.2-1.2,2.2-1.2s1.7,0.4,2.2,1.2c0.5,0.8,0.9,1.7,0.9,3
	C417.3,649.4,417,650.4,416.4,651.1z M416.4,640.8c-0.5,0.8-1.3,1.2-2.2,1.2c-1,0-1.7-0.4-2.2-1.2c-0.5-0.8-0.8-1.7-0.8-3
	c0-1.3,0.3-2.2,0.8-3c0.5-0.8,1.2-1.2,2.2-1.2s1.7,0.4,2.2,1.2c0.5,0.8,0.9,1.7,0.9,3C417.3,639,417,640,416.4,640.8z M419.5,630.1
	c0.1-0.1,0.3-0.2,0.6-0.2h1.2v-5.3l-0.7,0.2c-0.1,0-0.2,0.1-0.3,0.1c-0.1,0-0.1,0-0.2,0c-0.2,0-0.3-0.1-0.4-0.2s-0.2-0.3-0.2-0.5
	s0.1-0.3,0.2-0.4s0.3-0.2,0.5-0.2l1.5-0.4c0.1-0.1,0.2-0.1,0.3-0.1c0.1,0,0.2,0,0.2,0c0.2,0,0.3,0.1,0.4,0.2
	c0.1,0.1,0.1,0.3,0.1,0.5v6h1c0.3,0,0.5,0.1,0.6,0.2c0.1,0.1,0.2,0.3,0.2,0.5s-0.1,0.4-0.2,0.5c-0.1,0.1-0.3,0.2-0.6,0.2h-3.5
	c-0.3,0-0.5-0.1-0.6-0.2c-0.1-0.1-0.2-0.3-0.2-0.5C419.2,630.3,419.3,630.1,419.5,630.1z M419.5,640.5c0.1-0.1,0.3-0.2,0.6-0.2h1.2
	V635l-0.7,0.2c-0.1,0-0.2,0.1-0.3,0.1c-0.1,0-0.1,0-0.2,0c-0.2,0-0.3-0.1-0.4-0.2c-0.1-0.1-0.2-0.3-0.2-0.5s0.1-0.3,0.2-0.4
	c0.1-0.1,0.3-0.2,0.5-0.2l1.5-0.4c0.1-0.1,0.2-0.1,0.3-0.1c0.1,0,0.2,0,0.2,0c0.2,0,0.3,0.1,0.4,0.2c0.1,0.1,0.1,0.3,0.1,0.5v6h1
	c0.3,0,0.5,0.1,0.6,0.2c0.1,0.1,0.2,0.3,0.2,0.5s-0.1,0.4-0.2,0.5c-0.1,0.1-0.3,0.2-0.6,0.2h-3.5c-0.3,0-0.5-0.1-0.6-0.2
	c-0.1-0.1-0.2-0.3-0.2-0.5C419.2,640.8,419.3,640.6,419.5,640.5z M419.5,650.9c0.1-0.1,0.3-0.2,0.6-0.2h1.2v-5.3l-0.7,0.2
	c-0.1,0-0.2,0.1-0.3,0.1c-0.1,0-0.1,0-0.2,0c-0.2,0-0.3-0.1-0.4-0.2c-0.1-0.1-0.2-0.3-0.2-0.5s0.1-0.3,0.2-0.4
	c0.1-0.1,0.3-0.2,0.5-0.2l1.5-0.4c0.1-0.1,0.2-0.1,0.3-0.1c0.1,0,0.2,0,0.2,0c0.2,0,0.3,0.1,0.4,0.2c0.1,0.1,0.1,0.3,0.1,0.5v6h1
	c0.3,0,0.5,0.1,0.6,0.2c0.1,0.1,0.2,0.3,0.2,0.5s-0.1,0.4-0.2,0.5c-0.1,0.1-0.3,0.2-0.6,0.2h-3.5c-0.3,0-0.5-0.1-0.6-0.2
	c-0.1-0.1-0.2-0.3-0.2-0.5C419.2,651.1,419.3,651,419.5,650.9z M419.5,661.2c0.1-0.1,0.3-0.2,0.6-0.2h1.2v-5.3l-0.7,0.2
	c-0.1,0-0.2,0.1-0.3,0.1c-0.1,0-0.1,0-0.2,0c-0.2,0-0.3-0.1-0.4-0.2c-0.1-0.1-0.2-0.3-0.2-0.5c0-0.2,0.1-0.3,0.2-0.4
	c0.1-0.1,0.3-0.2,0.5-0.2l1.5-0.4c0.1-0.1,0.2-0.1,0.3-0.1c0.1,0,0.2,0,0.2,0c0.2,0,0.3,0.1,0.4,0.2c0.1,0.1,0.1,0.3,0.1,0.5v6h1
	c0.3,0,0.5,0.1,0.6,0.2c0.1,0.1,0.2,0.3,0.2,0.5s-0.1,0.4-0.2,0.5c-0.1,0.1-0.3,0.2-0.6,0.2h-3.5c-0.3,0-0.5-0.1-0.6-0.2
	c-0.1-0.1-0.2-0.3-0.2-0.5C419.2,661.5,419.3,661.3,419.5,661.2z M424,671.8c-0.5,0.8-1.3,1.2-2.2,1.2c-1,0-1.7-0.4-2.2-1.2
	c-0.5-0.8-0.8-1.7-0.8-3c0-1.2,0.3-2.2,0.8-3c0.5-0.8,1.2-1.2,2.2-1.2s1.7,0.4,2.2,1.2c0.5,0.8,0.9,1.7,0.9,3S424.6,671.1,424,671.8
	z M432,631.2c-0.1,0.1-0.3,0.2-0.6,0.2h-3.5c-0.3,0-0.5-0.1-0.6-0.2c-0.1-0.1-0.2-0.3-0.2-0.5c-0.1-0.3-0.1-0.5,0.1-0.5
	c0.1-0.1,0.3-0.2,0.6-0.2h1.2v-5.3l-0.8,0.3c-0.1,0-0.2,0.1-0.3,0.1c-0.1,0-0.1,0-0.2,0c-0.2,0-0.3-0.1-0.4-0.2
	c-0.1-0.1-0.2-0.3-0.2-0.5s0.1-0.3,0.2-0.4c0.1-0.1,0.3-0.2,0.5-0.2l1.5-0.4c0.1-0.1,0.2-0.1,0.3-0.1c0.1,0,0.2,0,0.2,0
	c0.2,0,0.3,0.1,0.4,0.2c0.1,0.1,0.1,0.3,0.1,0.5v6h1c0.3,0,0.5,0.1,0.6,0.2c0.1,0.1,0.2,0.3,0.2,0.5C432,630.8,432,631.1,432,631.2z
	"/>
<path fill="#FFFFFF" d="M366,613.1c-12,0-21.9,9.8-21.9,21.9s9.8,21.9,21.9,21.9c12,0,21.9-9.8,21.9-21.9
	C387.8,622.9,378,613.1,366,613.1z M377.3,642.5L377.3,642.5c-0.3,1.5-1.9,3-4.2,3.5c-2.6,0.5-5.1-0.7-5.4-2.5
	c-0.4-1.8,1.4-3.7,4-4.3c1.2-0.2,2.4-0.1,3.4,0.3v-12.7l-14,1.8v15.4c0.1,0.3,0,0.5,0,0.8l0,0c-0.3,1.5-1.9,3-4.2,3.4
	c-2.6,0.5-5.1-0.7-5.4-2.5c-0.4-1.8,1.4-3.7,4-4.3c1.2-0.2,2.4-0.1,3.4,0.3v-17.8l17.9-2.3v20C377.3,641.9,377.3,642.2,377.3,642.5z
	"/>
<path fill="#FFFFFF" d="M455.8,649.3h-1.3h-1.5l-8.3,14.3h10.2h0.7h10.2l-8.3-14.3H455.8z M452.7,660.8c-0.9,0-1.5-0.7-1.5-1.5
	c0-0.9,0.7-1.5,1.5-1.5s1.5,0.7,1.5,1.5C454.1,660.2,453.4,660.8,452.7,660.8z M459.4,660.2c0,1-0.8,1.7-1.7,1.7
	c-1,0-1.7-0.8-1.7-1.7c0-0.9,0.8-1.7,1.7-1.7S459.4,659.3,459.4,660.2z M455.9,657.5c-0.8,0-1.3-0.6-1.3-1.3c0-0.8,0.6-1.3,1.3-1.3
	c0.7,0,1.3,0.6,1.3,1.3C457.4,656.9,456.7,657.5,455.9,657.5z"/>
<path fill="#FFFFFF" d="M455,628.8c-15.1,0-27.3,12.2-27.3,27.3c0,15.1,12.2,27.3,27.3,27.3c15.1,0,27.3-12.2,27.3-27.3
	C482.2,641.1,469.9,628.8,455,628.8z M468.8,673.3c-0.7,0.4-1.4,0.6-2.2,0.6h-23.3c-0.8,0-1.5-0.2-2.2-0.6c-2.1-1.2-2.8-3.8-1.5-6
	l10.6-18.1v-6.4h-0.6c-0.7,0-1.2-0.6-1.2-1.2c0-0.7,0.6-1.2,1.2-1.2h2.1l-1-3.6h8.4l-1,3.6h2.1c0.7,0,1.2,0.6,1.2,1.2
	c0,0.7-0.6,1.2-1.2,1.2h-0.6v6.4l10.6,18.1C471.7,669.4,470.9,672.1,468.8,673.3z"/>
<path fill="#043F3A" d="M253.8,719.6c-0.8-3.4-7.6-9-11-9.4c-5.3-0.6-9.7-3.2-13.5-6.7c-4.9-4.5-9.5-9.2-14.1-14
	c-3.5-3.7-6.6-8.2-10.5-11.6c-6.6-6-10.3-14.1-16.4-20.3c-4.8-5-10.6-8.3-17.4-9.9c-2.6-0.7-5.7-0.8-7.8-2.2c-3.2-2-6.1-4.7-8.4-7.6
	c-1.8-2.3-2.3-5.6-3.7-8.3c-1.4-2.6-3.2-5.1-4.9-7.6c-1.2-0.7-2.3-1.4-3.5-1.9c-1.8-0.8-3.2-2.4-5-3.2c-1.4-0.7-2.7-0.8-4.4-0.8
	c-1.1,0-2.3,0.1-3.2,0.7c-0.4,0.3-0.8,0.8-1.3,0.9c-0.6,0.2-1.1,0-1.6,0.2c-1.2,0.3-2.8,0.6-4,0.6s-1.9,0.3-3,0.8
	c-1.1,0.5-2.3,1-3.5,1s-2.2,0.8-3.4,1.1c-0.8,0.2-1.6,0-2.4,0.3c-0.6,0.2-1.1,0.3-1.6,0.4c-0.4,0.1-0.8,0.2-1.2,0.2
	c-0.1,0.1-0.1,0.1-0.1,0.2c-2.6,2.7-4.8,6-6,9.7c-0.9,2.6-3.2,4.8-4.8,7.3c-2.3,3.6-4.9,7.3-6.5,11.2c-1.2,2.8-1.3,6.1-1.5,9.2
	c-0.4,4.8-0.3,9.5-0.7,14.3c-0.1,1.5-1.2,3.1-2,4.6c-1.6,3.2-3.1,6.5-5.2,9.5c-2.6,3.7-5.8,7.3-8.4,11c-1.5,2.1-2.9,4.4-4.5,6.5
	c-1,1.4-1.9,2.8-2.8,4.3c-2.2,3.8-4.9,7.5-8.3,10.2c0,0.2,0,0.4,0,0.5c1.2,0,2.2-0.1,3.4-0.1c63.4,0,126.8,0,190.2,0
	c1.2,0,2.2,0,3.4,0C253.7,720,253.8,719.9,253.8,719.6z"/>
<path fill="#043F3A" d="M152.9,619.3c-4.5-1-7.3-3.8-7.9-8.3c-0.6-4.6-0.8-8.6-1.2-13.7c1.2,0.1,2.1,0.4,2.7,1.2
	c1,1.3,1.6,3.1,2.4,4.7c0.3-0.6,0.2-1.3,0.5-1.9c0,0,0-0.1,0.1-0.1c0.1,0,0.1,0,0.2-0.1c0.2,0,0.4-0.1,0.6-0.1
	c0.4,0.1,0.5,0.6,0.6,0.9c0,0.1,0,0.1,0,0.2c0,0.1,0.1,0.3,0.1,0.5c0,0.1,0,0.1,0,0.2c0,0.1,0,0.1,0,0.2c0,0,0,0,0,0.1
	c0,0.1,0,0.1,0,0.2c0,0.1,0.1,0.1,0.1,0.2c0,0.1,0,0.3,0.1,0.4c0.1,0.1,0.2,0.3,0.4,0.4c1.4-1.5,0.2-4.4-1.2-5.9
	c-2.6-2.8-3.8-3.3-9.1-4.4c-1.8-0.6-3.3-0.9-3.6-1c-3.1-0.3-6.3-0.7-9.3-1.2c-0.7-0.1-1.2-1-1.7-1.5c0.6-0.6,1.1-1.4,1.8-1.6
	c2.6-0.9,0.5-3.2,1.1-4.9c0-0.1,0.1-0.2,0.1-0.4c0,0,0-0.1,0-0.2c0-0.1,0-0.1,0-0.2c0,0,0-0.1-0.1-0.1c0-0.1,0-0.1-0.1-0.2
	c0-0.1-0.1-0.2-0.2-0.2c-0.1-0.1-0.1-0.2-0.2-0.3c-0.1-0.2-0.4-0.3-0.5-0.5c-0.1-0.2-0.3-0.4-0.4-0.6c-0.1-0.1-0.2-0.2-0.2-0.3l0,0
	c0-0.1-0.1-0.1-0.1-0.2c0.1-0.2,0.2-0.3,0.3-0.5c0.1-0.1,0.3-0.3,0.1-0.4c-0.1-0.1-0.3-0.1-0.4-0.2c-0.2-0.1-0.2-0.3-0.4-0.4
	c-0.1-0.1-0.3-0.3-0.4-0.4c-0.1-0.1-0.2-0.1-0.3-0.2c-0.1-0.1-0.2-0.2-0.3-0.2c-0.1-0.1-0.3-0.2-0.4-0.2c-0.2-0.1-0.2-0.2-0.4-0.3
	c-0.1-0.1-0.3-0.2-0.4-0.2c0-0.3-0.1-0.3-0.3-0.3c-0.1,0-0.2-0.1-0.4-0.1c-0.2-0.1-0.6-0.1-0.9-0.1c-0.2,0-0.3,0-0.5-0.1
	c-0.1,0-0.2,0-0.2,0l-0.1,0.1c-0.3,0-0.5-0.1-0.8,0c0,0-0.1,0-0.1-0.1v0.1c-1.5,0.2-3.5,1.3-3.8,2.5c-0.8,2.6-0.9,5.2,0.6,7.7
	c0.2,0.3,0.1,1.2,0,1.2c-2.1,0.6-3.2,3.8-3.7,5.8c-0.2,0.6-0.3,1.2-0.3,1.6c-0.8,6.8-1.1,13.1,1.5,19.4c0.8,1.9,2.2,3,4.3,3.4
	c5.1,1.1,9.2-0.6,12.5-4.6c1.5-1.8,2.8-3.8,4.5-6.3c1.3,2.5,2.9,4.7,3.5,7c0.6,1.9,0,4,0,6.5c3.9,1.1,8,1.8,12,1.1
	c0.8-0.1,1.9-0.8,2-1.4C155.2,620,154.1,619.6,152.9,619.3z M129,601.2c-0.2-0.1-0.5-0.1-0.7-0.2c0.1-1.1,0.3-2.1,0.5-3.4
	c1.1-0.1,2-0.1,3.5-0.2C130.9,599,130,600.1,129,601.2z"/>
<path fill="#043F3A" d="M58.2,734.7c0-0.2,0.1-0.4,0.2-0.6c0.1-0.2,0.3-0.2,0.5-0.2h1.7c0.2,0,0.4,0.1,0.5,0.2
	c0.1,0.2,0.2,0.3,0.2,0.6V752c0,0.2-0.1,0.4-0.2,0.6c-0.1,0.2-0.3,0.2-0.5,0.2h-1.7c-0.2,0-0.4-0.1-0.5-0.2
	c-0.1-0.2-0.2-0.3-0.2-0.6V734.7z"/>
<path fill="#043F3A" d="M73.6,738.7c2,0,3.4,0.9,3.8,2.7c0.8-1.3,1.9-2.1,3.3-2.6c0.5-0.1,1.1-0.2,1.7-0.2c0.6,0,1.3,0.2,2,0.5
	c0.7,0.4,1.2,0.8,1.4,1.3c0.3,0.6,0.5,1.2,0.6,1.8c0.1,0.7,0.1,1.3,0.1,2.1v7.6c0,0.2-0.1,0.4-0.2,0.6c-0.2,0.2-0.4,0.2-0.7,0.2
	h-1.2c-0.3,0-0.6-0.1-0.7-0.2c-0.2-0.2-0.2-0.4-0.2-0.6v-7.7c0-1.1-0.2-1.8-0.6-2.3c-0.4-0.5-1-0.8-1.7-0.8c-0.9,0-1.6,0.4-2.3,1.2
	c-0.7,0.8-1.1,1.8-1.1,3v6.6c0,0.2-0.1,0.4-0.2,0.6c-0.2,0.2-0.4,0.2-0.7,0.2h-1.2c-0.3,0-0.6-0.1-0.7-0.2c-0.2-0.2-0.2-0.4-0.2-0.6
	v-7.7c0-1.1-0.2-1.8-0.6-2.3c-0.4-0.5-1-0.8-1.7-0.8c-0.9,0-1.6,0.4-2.3,1.2s-1.1,1.8-1.1,3v6.6c0,0.2-0.1,0.4-0.2,0.6
	c-0.1,0.2-0.4,0.2-0.7,0.2H67c-0.3,0-0.5-0.1-0.7-0.2c-0.2-0.2-0.2-0.4-0.2-0.6v-7.5c0-1.6-0.1-2.8-0.2-3.4
	c-0.1-0.7-0.2-1.1-0.2-1.2c0-0.6,0.3-0.9,0.9-0.9h0.7c0.5,0,0.8,0.2,1,0.5c0.2,0.4,0.4,1.1,0.6,1.9c0.7-1.2,1.7-2.1,3.1-2.5
	C72.7,738.8,73.2,738.7,73.6,738.7z"/>
<path fill="#043F3A" d="M102.3,752.1c0,0.4-0.2,0.7-0.7,0.7h-1.2c-0.3,0-0.5-0.1-0.6-0.2c-0.1-0.1-0.1-0.2-0.1-0.4s0-0.2-0.1-0.4
	c-0.1-0.4-0.1-0.9-0.2-1.2c-0.7,1.2-1.6,1.9-3,2.3c-0.5,0.1-1,0.2-1.5,0.2s-1.2-0.1-1.7-0.3c-0.6-0.2-1.1-0.5-1.5-0.9
	c-1-0.9-1.5-1.9-1.5-3.4c0-1.5,0.6-2.7,1.6-3.5c0.9-0.7,2.1-1,3.5-1s2.6,0.4,3.6,1.2c0-0.3,0-0.6,0-1.1s-0.1-0.9-0.3-1.2
	s-0.4-0.8-0.7-1.1c-0.6-0.6-1.4-0.8-2.6-0.8c-1,0-2,0.3-3,0.8c-0.2,0.1-0.4,0.2-0.5,0.2c-0.2,0-0.4-0.2-0.7-0.7
	c-0.2-0.5-0.3-0.8-0.3-1c0-0.4,0.3-0.7,0.8-1.1c1.1-0.7,2.4-1,4.2-1c1.5,0,2.9,0.4,3.8,1.2c1.2,1.1,1.8,2.5,1.8,4.4
	c0,0.9-0.1,1.8-0.4,3.1C101.9,749.4,102.3,750.9,102.3,752.1z M94.2,747c-0.3,0.3-0.6,0.5-0.7,0.8c-0.1,0.3-0.2,0.6-0.2,0.9
	s0.1,0.6,0.2,0.9c0.1,0.3,0.3,0.5,0.5,0.7c0.5,0.4,1,0.5,1.5,0.5c0.6,0,1.1-0.1,1.3-0.2c0.3-0.1,0.7-0.3,1-0.5
	c0.6-0.5,0.9-0.9,0.9-1.3c-0.1-0.6-0.4-1.1-1-1.4c-0.6-0.3-1.2-0.5-2-0.5C94.9,746.5,94.5,746.6,94.2,747z"/>
<path fill="#043F3A" d="M109.3,751.4c0.8-0.4,1.5-0.6,2.4-0.6s1.6,0.1,2.3,0.2c0.7,0.2,1.2,0.4,1.8,0.8c1.2,0.8,1.8,1.8,1.8,3.2
	c0,1.4-0.7,2.6-2,3.5c-1.2,0.8-2.7,1.2-4.4,1.2c-1.7,0-3.2-0.4-4.4-1.2c-1.2-0.8-1.8-1.9-1.8-3.3c0-1.7,0.9-3.4,2.7-5
	c0.7-0.6,1.4-1.2,2.3-1.6c-1.3-0.1-2.4-0.6-3.4-1.4c-1.1-1-1.5-2-1.5-3.5s0.6-2.8,1.7-3.8c1.1-0.9,2.4-1.3,3.8-1.3
	c1.6,0,2.9,0.5,3.7,1.3c0.3,0.3,0.5,0.6,0.7,0.9c0-0.8-0.1-1.5-0.3-2.3c-0.2-0.8-0.3-1.2-0.3-1.4c0-0.2,0-0.3,0.1-0.4
	c0.1-0.1,0.1-0.2,0.2-0.2c0.1-0.1,0.3-0.1,0.4-0.1h1.1c0.7,0,1,1,1,2.8c0,1.5-0.3,2.9-0.9,4.2c0,0.2,0,0.4,0,0.7
	c0,0.3-0.1,0.7-0.2,1.1c-0.1,0.4-0.3,0.8-0.5,1.1c-0.2,0.3-0.5,0.7-0.8,1c-0.3,0.3-0.6,0.6-0.9,0.8c-0.3,0.3-0.7,0.5-1,0.7
	c-1.7,1.2-2.9,1.8-3.2,2.1C109.8,750.8,109.4,751.3,109.3,751.4z M108.2,753.7c-0.3,0.4-0.5,0.7-0.5,1.2c0,0.4,0.1,0.8,0.3,1.1
	c0.2,0.3,0.5,0.6,0.8,0.8c0.7,0.4,1.4,0.6,2.4,0.6c1.5,0,2.6-0.4,3.2-1.2c0.2-0.3,0.3-0.6,0.3-1c0-0.4-0.1-0.7-0.4-1
	c-0.2-0.3-0.6-0.5-0.9-0.6c-0.6-0.3-1.3-0.4-2.3-0.4C109.7,753.2,108.7,753.3,108.2,753.7z M108.8,745.8c0.3,0.2,0.6,0.4,1,0.6
	c0.4,0.1,0.8,0.2,1.2,0.2c0.4,0,0.8-0.1,1.2-0.2c0.4-0.1,0.7-0.3,1-0.6c0.6-0.5,0.9-1.2,0.9-1.9c0-0.9-0.3-1.4-1-1.9
	c-0.6-0.4-1.2-0.6-2-0.6c-1.2,0-2.2,0.5-2.7,1.4c-0.2,0.3-0.3,0.7-0.3,1.1c0,0.4,0.1,0.8,0.2,1.2
	C108.2,745.4,108.5,745.5,108.8,745.8z"/>
<path fill="#043F3A" d="M122,736.6c-0.6,0-1.1-0.2-1.4-0.6c-0.4-0.4-0.6-0.9-0.6-1.4s0.2-1.1,0.6-1.4c0.4-0.4,0.9-0.6,1.4-0.6
	c0.9,0,1.4,0.4,1.8,1.2c0.1,0.2,0.2,0.5,0.2,0.8c0,0.6-0.2,1.1-0.6,1.4C123.1,736.4,122.6,736.6,122,736.6z M123.4,749.4
	c0,0.6,0.2,0.9,0.6,0.9c0.1,0,0.3,0,0.5-0.1c0.3-0.1,0.6-0.2,0.7-0.2c0.2,0,0.3,0.1,0.4,0.4l0.4,0.9c0.1,0.1,0.1,0.3,0.1,0.4
	c0,0.4-0.3,0.7-0.9,1c-0.6,0.3-1.2,0.5-1.7,0.5c-0.6,0-1-0.1-1.3-0.2c-0.4-0.1-0.6-0.3-0.9-0.6c-0.5-0.6-0.7-1.5-0.7-2.9v-9.6
	c0-0.2,0.1-0.4,0.2-0.6c0.1-0.2,0.3-0.2,0.5-0.2h1.6c0.2,0,0.4,0.1,0.5,0.2c0.1,0.2,0.2,0.4,0.2,0.6L123.4,749.4L123.4,749.4z"/>
<path fill="#043F3A" d="M128.9,739.8c0-0.6,0.3-0.9,0.9-0.9h0.7c0.5,0,0.8,0.2,1,0.5c0.2,0.5,0.4,1.2,0.6,1.9
	c0.8-1.3,1.8-2.2,3.3-2.6c0.5-0.1,1.1-0.2,1.7-0.2c0.7,0,1.3,0.1,1.9,0.4c0.6,0.3,1.1,0.7,1.3,1.2c0.6,1,1,2.3,1,4v7.7
	c0,0.2-0.1,0.4-0.2,0.6c-0.2,0.2-0.4,0.2-0.7,0.2h-1.3c-0.3,0-0.6-0.1-0.7-0.2c-0.2-0.2-0.2-0.4-0.2-0.6v-7.7c0-2.1-0.8-3.1-2.3-3.1
	c-0.9,0-1.7,0.4-2.4,1.2c-0.8,0.8-1.2,1.7-1.2,2.8v6.8c0,0.2-0.1,0.4-0.2,0.6c-0.1,0.2-0.4,0.2-0.7,0.2h-1.2c-0.3,0-0.5-0.1-0.7-0.2
	c-0.2-0.2-0.2-0.4-0.2-0.6v-7.4c0-1.6-0.1-2.8-0.2-3.4C129,740.4,128.9,740,128.9,739.8z"/>
<path fill="#043F3A" d="M147.7,746.5v0.2c0,1.2,0.4,2,1.1,2.7c0.8,0.7,1.7,1.1,3,1.1c1.2,0,2.2-0.4,3.2-1.1c0.2-0.1,0.4-0.2,0.5-0.2
	c0.3,0,0.5,0.2,0.7,0.5l0.3,0.7c0.1,0.2,0.1,0.3,0.1,0.5s-0.1,0.4-0.3,0.6c-0.2,0.2-0.4,0.4-0.7,0.6c-0.3,0.2-0.6,0.3-1,0.4
	c-0.4,0.1-0.7,0.2-1.1,0.3c-0.8,0.2-1.5,0.3-2.3,0.3s-1.6-0.2-2.4-0.5c-0.9-0.3-1.5-0.8-2.1-1.3c-1.2-1.2-1.9-3-1.9-5.2
	c0-3.7,1.3-6.1,3.9-7.1c0.9-0.3,1.6-0.4,2.5-0.4s1.6,0.1,2.2,0.3c0.6,0.2,1.2,0.5,1.6,0.9c1,0.8,1.4,1.8,1.4,3.3
	c0,1.3-0.6,2.4-1.6,3.1c-1,0.6-2.2,1-3.8,1C150.2,747.1,149.1,746.9,147.7,746.5z M153.8,743c0-1.2-0.8-1.7-2.3-1.7
	c-1.4,0-2.5,0.6-3.1,1.6c-0.2,0.4-0.4,0.9-0.4,1.4c0.7,0.4,1.5,0.5,2.7,0.5C152.7,744.8,153.8,744.1,153.8,743z"/>
<path fill="#043F3A" d="M185.2,739c0.5,0,0.8,0.3,0.8,0.8c0,1.9-0.4,4.3-1.2,7c-0.6,2.1-1.3,3.7-2.3,5.1c-0.7,0.9-1.3,1.2-2.1,1.2
	s-1.3-0.2-1.7-0.6c-0.4-0.4-0.7-0.9-0.9-1.6c-0.5-1.8-0.8-3.1-1-3.7l-0.5-1.7c-0.1-0.5-0.2-0.8-0.3-1.1c0,0.1,0,0.2-0.1,0.3
	c0,0.2-0.1,0.3-0.1,0.5l-0.3,1.1c-0.5,1.7-0.9,2.9-1.2,3.5c-0.3,0.6-0.5,1.1-0.7,1.3c-0.2,0.3-0.4,0.7-0.7,1c-0.6,0.7-1.2,1-1.9,1
	c-1.4,0-2.4-0.8-2.7-2.3c-0.4-1.7-0.9-3.5-1.4-5.3l-1.6-5.2c-0.1-0.2-0.1-0.3-0.1-0.5c0-0.5,0.3-0.8,0.9-0.8h1.4
	c0.5,0,0.9,0.3,1,0.9c0.5,1.6,0.9,3.3,1.2,5l1.1,4.9c0.1,0.3,0.2,0.5,0.4,0.5c0.2,0,0.3-0.2,0.5-0.5c0.2-0.3,0.3-0.7,0.5-1.2
	c0.2-0.5,0.4-1,0.6-1.4c0.2-0.4,0.3-1.1,0.5-1.6c0.2-0.6,0.3-1.2,0.5-1.7c0.3-1.2,0.5-2.2,0.7-3.2l0.1-0.5c0.1-0.5,0.5-0.8,1.2-0.8
	c0.5,0,0.9,0,1,0.1c0.3,0.1,0.6,0.5,0.8,1.1c0.2,0.6,0.4,1.2,0.7,2c0.3,0.9,0.5,1.6,0.7,2.4c0.6,2.1,1,3.8,1.2,5.1
	c0.1,0.2,0.1,0.4,0.3,0.4c0.2,0,0.4-0.2,0.6-0.7c0.2-0.4,0.5-1.1,0.8-1.7c0.3-0.8,0.5-1.5,0.7-2.4c0.4-1.7,0.6-3.5,0.7-5.5
	c0-0.4,0.2-0.7,0.6-0.8c0.1,0,0.2,0,0.3,0L185.2,739L185.2,739z"/>
<path fill="#043F3A" d="M190,731.9c0-0.2,0.1-0.4,0.2-0.6c0.1-0.2,0.3-0.2,0.5-0.2h1.6c0.2,0,0.4,0.1,0.5,0.2
	c0.1,0.2,0.2,0.3,0.2,0.6v9.3c0.7-1.2,1.7-1.9,3.1-2.3c0.4-0.1,1-0.2,1.6-0.2c0.7,0,1.2,0.1,1.8,0.4c0.6,0.3,1.1,0.7,1.3,1.2
	c0.6,1,0.9,2.3,0.9,4v7.7c0,0.3-0.1,0.5-0.2,0.6c-0.2,0.2-0.4,0.2-0.7,0.2h-1.2c-0.3,0-0.6-0.1-0.7-0.2c-0.2-0.2-0.2-0.4-0.2-0.6
	v-7.7c0-2.1-0.8-3.1-2.3-3.1c-0.9,0-1.6,0.4-2.4,1.2c-0.8,0.8-1.2,1.7-1.2,2.8v6.8c0,0.2-0.1,0.4-0.2,0.6c-0.1,0.2-0.4,0.2-0.7,0.2
	h-1.3c-0.2,0-0.4-0.1-0.6-0.2c-0.1-0.2-0.2-0.4-0.2-0.6L190,731.9L190,731.9z"/>
<path fill="#043F3A" d="M217.5,752.1c0,0.4-0.2,0.7-0.7,0.7h-1.2c-0.3,0-0.5-0.1-0.6-0.2c-0.1-0.1-0.1-0.2-0.1-0.4
	c0-0.1,0-0.2-0.1-0.4c-0.1-0.4-0.1-0.9-0.2-1.2c-0.7,1.2-1.6,1.9-3,2.3c-0.5,0.1-1,0.2-1.5,0.2s-1.2-0.1-1.7-0.3
	c-0.6-0.2-1.1-0.5-1.5-0.9c-1-0.9-1.5-1.9-1.5-3.4c0-1.5,0.6-2.7,1.6-3.5c0.9-0.7,2.1-1,3.5-1c1.4,0,2.6,0.4,3.6,1.2
	c0-0.3,0-0.6,0-1.1s-0.1-0.9-0.3-1.2c-0.2-0.3-0.4-0.8-0.7-1.1c-0.6-0.6-1.4-0.8-2.6-0.8c-1,0-2,0.3-3,0.8c-0.2,0.1-0.4,0.2-0.5,0.2
	c-0.2,0-0.4-0.2-0.7-0.7c-0.2-0.5-0.3-0.8-0.3-1c0-0.4,0.3-0.7,0.8-1.1c1.1-0.7,2.4-1,4.2-1c1.5,0,2.9,0.4,3.8,1.2
	c1.2,1.1,1.8,2.5,1.8,4.4c0,0.9-0.1,1.8-0.4,3.1C217.1,749.4,217.5,750.9,217.5,752.1z M209.3,747c-0.3,0.3-0.6,0.5-0.7,0.8
	c-0.1,0.3-0.2,0.6-0.2,0.9s0.1,0.6,0.2,0.9s0.3,0.5,0.5,0.7c0.5,0.4,1,0.5,1.5,0.5c0.6,0,1.1-0.1,1.3-0.2c0.3-0.1,0.7-0.3,1-0.5
	c0.6-0.5,0.9-0.9,0.9-1.3c-0.1-0.6-0.4-1.1-1-1.4c-0.6-0.3-1.2-0.5-2-0.5C210.1,746.5,209.6,746.6,209.3,747z"/>
<path fill="#043F3A" d="M228.5,740.9c0,0.5-0.3,0.7-0.8,0.7h-3.5v7.7c0,0.9,0.4,1.2,1.2,1.2c0.5,0,1.2-0.3,2-0.8
	c0.2-0.1,0.4-0.2,0.6-0.2c0.2,0,0.4,0.1,0.5,0.4l0.3,0.7c0.1,0.3,0.2,0.5,0.2,0.6c0,0.1-0.1,0.4-0.4,0.6c-0.3,0.2-0.6,0.4-1,0.6
	c-0.9,0.4-1.7,0.6-2.4,0.6c-0.8,0-1.3-0.1-1.7-0.2c-0.4-0.2-0.8-0.4-1.1-0.7c-0.7-0.7-1-1.5-1-2.7v-7.8h-1.1c-0.5,0-0.8-0.2-0.8-0.7
	v-0.7c0-0.2,0.1-0.3,0.2-0.5c0.1-0.1,0.3-0.2,0.6-0.3l1.2-0.4l0.5-2.9c0.1-0.6,0.3-0.8,0.7-0.8h1c0.2,0,0.4,0.1,0.5,0.2
	c0.1,0.1,0.2,0.4,0.2,0.6v2.8h3.5c0.5,0,0.8,0.2,0.8,0.7v1.2h-0.2V740.9z"/>
<path fill="#043F3A" d="M248.4,739c0.5,0,0.8,0.3,0.8,0.8c0,0.6-0.3,1.9-1,3.9l-0.8,2.3c-1.7,5.2-3.9,9.4-6.7,12.8l-0.3,0.3
	c-0.4,0.5-0.8,0.7-1.2,0.7s-0.9-0.3-1.4-0.9c-0.2-0.2-0.2-0.4-0.2-0.6c0-0.4,0.2-0.7,0.6-1.1c0.4-0.4,0.7-0.8,1-1.2s0.6-0.8,0.9-1.2
	c0.5-0.7,1-1.4,1.3-2.2c-1.2-3.4-2-5.6-2.3-6.2l-1.3-3.3l-1-2.1c-0.4-0.8-0.5-1.3-0.5-1.4c0-0.2,0.1-0.3,0.2-0.5
	c0.2-0.1,0.4-0.2,0.7-0.2h1.5c0.4,0,0.7,0.2,0.9,0.6c0.2,0.3,0.4,0.8,0.6,1.4c0.5,1.5,0.9,2.6,1.2,3.4l1,3.3
	c0.1,0.3,0.2,0.6,0.2,0.8l0.1,0.5c0,0.1,0.1,0.2,0.1,0.4l0.1,0.5c0,0.2,0.1,0.3,0.1,0.3s0.1-0.1,0.2-0.2c0.1-0.1,0.1-0.2,0.2-0.4
	l0.2-0.5c0.9-2.2,1.6-5.3,2.4-9.2c0.1-0.5,0.4-0.8,0.9-0.8L248.4,739L248.4,739z"/>
<path fill="#043F3A" d="M251.6,745.8c0-1.1,0.2-2,0.6-2.9c0.4-0.9,0.9-1.6,1.4-2.2c1.2-1.3,2.9-1.9,5-1.9c2.2,0,3.9,0.7,5.2,1.9
	s1.7,3,1.7,5.3c0,2.1-0.7,3.8-2,5.3c-1.2,1.3-2.9,2-5,2c-2,0-3.7-0.7-5.1-2C252.3,749.7,251.6,748,251.6,745.8z M255.6,742.7
	c-0.3,0.5-0.5,1-0.7,1.5c-0.1,0.6-0.2,1.2-0.2,1.7s0.1,1.2,0.2,1.7c0.2,0.6,0.4,1.1,0.7,1.4c0.7,1,1.6,1.3,2.9,1.3
	c1.3,0,2.2-0.5,2.9-1.3c0.6-0.8,0.9-1.9,0.9-3.3c0-2-0.7-3.5-2-4.3c-0.5-0.3-1.1-0.4-1.8-0.4s-1.2,0.1-1.7,0.4
	C256.3,741.9,256,742.2,255.6,742.7z"/>
<path fill="#043F3A" d="M281.7,751.9c0,0.6-0.3,0.9-0.8,0.9h-0.6c-0.5,0-0.8-0.2-1-0.6c-0.2-0.5-0.4-1.1-0.6-1.8
	c-0.4,0.9-1,1.5-1.7,2c-0.8,0.5-1.8,0.8-3.1,0.8c-1.6,0-2.8-0.5-3.5-1.4c-0.8-1-1.2-2.5-1.2-4.5V740c0-0.2,0.1-0.4,0.2-0.6
	s0.4-0.2,0.6-0.2h1.3c0.6,0,0.8,0.3,0.8,0.8v7.3c0,1.9,0.5,3.1,1.3,3.4c0.3,0.1,0.7,0.2,1.1,0.2c0.4,0,0.8-0.1,1.2-0.3
	c0.5-0.2,0.8-0.5,1.2-0.8c0.8-0.7,1.2-1.5,1.2-2.4v-7.3c0-0.2,0.1-0.4,0.2-0.6s0.4-0.2,0.7-0.2h1.2c0.3,0,0.5,0.1,0.6,0.2
	c0.1,0.2,0.2,0.4,0.2,0.6v7.7c0,1.7,0.1,3.1,0.4,4.2C281.7,751.7,281.7,751.8,281.7,751.9z"/>
<path fill="#043F3A" d="M301.4,744.4c-0.7,0-1-0.3-1-1c0-0.8-0.2-1.3-0.7-1.7c-0.4-0.4-1-0.5-1.6-0.5c-0.7,0-1.2,0.1-1.6,0.4
	c-0.4,0.3-0.8,0.7-1.1,1.1c-0.6,0.9-0.8,1.8-0.8,3.1c0,2.2,0.7,3.6,2,4.4c0.5,0.3,1.1,0.4,1.6,0.4c0.5,0,1.1-0.1,1.4-0.2
	c0.4-0.1,0.8-0.3,1.1-0.4c0.3-0.1,0.6-0.3,0.8-0.4c0.2-0.1,0.4-0.2,0.6-0.2c0.3,0,0.5,0.1,0.7,0.4l0.3,0.5c0.1,0.2,0.2,0.4,0.2,0.6
	c0,0.2-0.1,0.4-0.3,0.6c-0.2,0.2-0.4,0.4-0.7,0.6s-0.6,0.4-1,0.5c-0.4,0.1-0.7,0.3-1.1,0.4c-1.8,0.5-3.4,0.4-5-0.2
	c-1.6-0.7-2.8-1.9-3.5-3.7c-0.3-0.9-0.5-1.9-0.5-3s0.2-2.1,0.5-3c0.3-0.9,0.8-1.6,1.3-2.2c1.2-1.2,2.8-1.8,4.8-1.8
	c1.7,0,3.1,0.5,3.9,1.3c0.8,0.8,1.2,1.7,1.2,2.9c0,1-0.5,1.4-1.5,1.4V744.4L301.4,744.4z"/>
<path fill="#043F3A" d="M306.2,745.8c0-1.1,0.2-2,0.6-2.9c0.4-0.9,0.9-1.6,1.4-2.2c1.2-1.3,2.9-1.9,5-1.9c2.2,0,3.9,0.7,5.2,1.9
	c1.2,1.2,1.7,3,1.7,5.3c0,2.1-0.7,3.8-2,5.3c-1.2,1.3-2.9,2-5,2s-3.7-0.7-5.1-2C306.7,749.7,306.2,748,306.2,745.8z M310.1,742.7
	c-0.3,0.5-0.5,1-0.7,1.5c-0.1,0.6-0.2,1.2-0.2,1.7s0.1,1.2,0.2,1.7c0.2,0.6,0.4,1.1,0.7,1.4c0.7,1,1.6,1.3,2.9,1.3
	c1.2,0,2.2-0.5,2.9-1.3c0.6-0.8,0.9-1.9,0.9-3.3c0-2-0.7-3.5-2-4.3c-0.5-0.3-1.1-0.4-1.8-0.4s-1.2,0.1-1.7,0.4
	C310.8,741.9,310.4,742.2,310.1,742.7z"/>
<path fill="#043F3A" d="M336.1,751.9c0,0.6-0.3,0.9-0.8,0.9h-0.6c-0.5,0-0.8-0.2-1-0.6c-0.2-0.5-0.4-1.1-0.6-1.8
	c-0.4,0.9-1,1.5-1.7,2c-0.8,0.5-1.8,0.8-3.1,0.8c-1.6,0-2.8-0.5-3.5-1.4c-0.8-1-1.2-2.5-1.2-4.5V740c0-0.2,0.1-0.4,0.2-0.6
	s0.4-0.2,0.6-0.2h1.3c0.6,0,0.8,0.3,0.8,0.8v7.3c0,1.9,0.5,3.1,1.3,3.4c0.3,0.1,0.7,0.2,1.1,0.2c0.4,0,0.8-0.1,1.2-0.3
	c0.4-0.2,0.8-0.5,1.2-0.8c0.8-0.7,1.2-1.5,1.2-2.4v-7.3c0-0.2,0.1-0.4,0.2-0.6c0.1-0.2,0.4-0.2,0.7-0.2h1.2c0.3,0,0.5,0.1,0.6,0.2
	c0.1,0.2,0.2,0.4,0.2,0.6v7.7c0,1.7,0.1,3.1,0.4,4.2C336.1,751.7,336.1,751.8,336.1,751.9z"/>
<path fill="#043F3A" d="M343.4,749.4c0,0.6,0.2,0.9,0.6,0.9c0.1,0,0.3,0,0.5-0.1c0.4-0.1,0.6-0.2,0.7-0.2c0.2,0,0.3,0.1,0.5,0.4
	l0.4,0.9c0.1,0.1,0.1,0.2,0.1,0.4s-0.2,0.4-0.5,0.7c-0.6,0.5-1.4,0.8-2.4,0.8c-1.8,0-2.7-1.2-2.7-3.6v-17.5c0-0.2,0.1-0.4,0.2-0.6
	s0.3-0.2,0.5-0.2h1.6c0.2,0,0.4,0.1,0.5,0.2c0.1,0.1,0.2,0.4,0.2,0.6L343.4,749.4L343.4,749.4z"/>
<path fill="#043F3A" d="M358,740.7v-8.8c0-0.2,0.1-0.4,0.2-0.6c0.1-0.2,0.3-0.2,0.5-0.2h1.7c0.2,0,0.4,0.1,0.5,0.2
	c0.1,0.1,0.2,0.3,0.2,0.6v15.7c0,1.6,0.1,3,0.4,4c0,0.1,0,0.3,0,0.4c0,0.2-0.1,0.3-0.2,0.5c-0.2,0.2-0.4,0.2-0.6,0.2h-0.6
	c-0.5,0-0.8-0.2-1-0.6c-0.2-0.5-0.4-1.2-0.5-1.9c-0.6,1.3-1.6,2.2-3.2,2.6c-0.5,0.1-1.1,0.2-1.8,0.2c-0.8,0-1.4-0.2-2.2-0.6
	c-0.7-0.4-1.3-0.9-1.8-1.5c-1.1-1.3-1.5-3-1.5-5.1s0.5-3.7,1.5-5.2c1.1-1.4,2.5-2.2,4.4-2.2C355.8,738.4,357,739.3,358,740.7z
	 M351.1,746c0,0.6,0.1,1.1,0.2,1.6c0.1,0.6,0.4,1,0.6,1.4c0.6,1,1.4,1.4,2.6,1.4c1,0,1.8-0.4,2.6-1.2c0.8-0.9,1.2-1.9,1.2-3.2
	c0-1.4-0.4-2.7-1.2-3.5c-0.8-0.9-1.6-1.2-2.7-1.2c-1.2,0-2,0.6-2.6,1.6C351.3,743.7,351.1,744.8,351.1,746z"/>
<path fill="#043F3A" d="M379.4,738.7c2,0,3.4,0.9,3.8,2.7c0.8-1.3,1.9-2.1,3.3-2.6c0.5-0.1,1.1-0.2,1.7-0.2c0.7,0,1.3,0.2,2,0.5
	c0.7,0.4,1.2,0.8,1.4,1.3c0.2,0.5,0.5,1.2,0.6,1.8c0.1,0.7,0.1,1.3,0.1,2.1v7.6c0,0.2-0.1,0.4-0.2,0.6c-0.2,0.2-0.4,0.2-0.7,0.2
	h-1.2c-0.3,0-0.6-0.1-0.7-0.2c-0.2-0.2-0.2-0.4-0.2-0.6v-7.7c0-1.1-0.2-1.8-0.6-2.3c-0.4-0.5-1-0.8-1.7-0.8c-0.9,0-1.6,0.4-2.3,1.2
	s-1.1,1.8-1.1,3v6.6c0,0.2-0.1,0.4-0.2,0.6c-0.2,0.2-0.4,0.2-0.7,0.2h-1.2c-0.3,0-0.6-0.1-0.7-0.2c-0.2-0.2-0.2-0.4-0.2-0.6v-7.7
	c0-1.1-0.2-1.8-0.6-2.3c-0.4-0.5-1-0.8-1.7-0.8c-0.9,0-1.6,0.4-2.3,1.2c-0.7,0.8-1.1,1.8-1.1,3v6.6c0,0.2-0.1,0.4-0.2,0.6
	s-0.4,0.2-0.7,0.2h-1.2c-0.3,0-0.5-0.1-0.7-0.2c-0.2-0.2-0.2-0.4-0.2-0.6v-7.5c0-1.6-0.1-2.8-0.2-3.4c-0.1-0.7-0.2-1.1-0.2-1.2
	c0-0.6,0.3-0.9,0.9-0.9h0.7c0.5,0,0.8,0.2,1,0.5c0.2,0.4,0.4,1.1,0.6,1.9c0.7-1.2,1.7-2.1,3.1-2.5
	C378.4,738.8,378.9,738.7,379.4,738.7z"/>
<path fill="#043F3A" d="M408.1,752.1c0,0.4-0.2,0.7-0.7,0.7h-1.2c-0.3,0-0.5-0.1-0.6-0.2c-0.1-0.1-0.1-0.2-0.1-0.4
	c0-0.1,0-0.2-0.1-0.4c-0.1-0.4-0.1-0.9-0.2-1.2c-0.7,1.2-1.6,1.9-3,2.3c-0.5,0.1-1,0.2-1.5,0.2c-0.5,0-1.2-0.1-1.7-0.3
	c-0.6-0.2-1.1-0.5-1.5-0.9c-1-0.9-1.5-1.9-1.5-3.4c0-1.5,0.6-2.7,1.6-3.5c0.9-0.7,2.1-1,3.5-1c1.3,0,2.6,0.4,3.6,1.2
	c0-0.3,0-0.6,0-1.1s-0.1-0.9-0.3-1.2c-0.2-0.4-0.4-0.8-0.7-1.1c-0.6-0.6-1.4-0.8-2.6-0.8c-1,0-2,0.3-3,0.8c-0.2,0.1-0.4,0.2-0.5,0.2
	c-0.2,0-0.4-0.2-0.7-0.7c-0.2-0.5-0.3-0.8-0.3-1c0-0.4,0.3-0.7,0.8-1.1c1.1-0.7,2.4-1,4.2-1c1.5,0,2.9,0.4,3.8,1.2
	c1.2,1.1,1.8,2.5,1.8,4.4c0,0.9-0.1,1.8-0.4,3.1C407.7,749.4,408.1,750.9,408.1,752.1z M399.8,747c-0.3,0.3-0.6,0.5-0.7,0.8
	c-0.1,0.3-0.2,0.6-0.2,0.9s0.1,0.6,0.2,0.9c0.1,0.3,0.3,0.5,0.5,0.7c0.5,0.4,1,0.5,1.5,0.5c0.5,0,1.1-0.1,1.3-0.2
	c0.4-0.1,0.7-0.3,1-0.5c0.6-0.5,0.9-0.9,0.9-1.3c-0.1-0.6-0.4-1.1-1-1.4s-1.2-0.5-2-0.5C400.7,746.5,400.2,746.6,399.8,747z"/>
<path fill="#043F3A" d="M415.4,750.6c1.5,0,2.3-0.5,2.3-1.5c0-0.6-0.5-1.1-1.3-1.4c-0.4-0.2-0.8-0.3-1.2-0.5
	c-0.5-0.2-0.9-0.3-1.2-0.5c-0.4-0.2-0.8-0.4-1.2-0.7c-0.4-0.2-0.7-0.5-1-0.9c-0.6-0.7-0.8-1.4-0.8-2.5c0-1.2,0.5-2.2,1.5-2.9
	c0.9-0.7,2-1,3.4-1c1.4,0,2.6,0.3,3.5,0.9c0.3,0.2,0.5,0.4,0.5,0.7c0,0.4-0.1,0.8-0.3,1.2c-0.2,0.4-0.4,0.7-0.7,0.7
	c-0.3,0-0.5-0.1-0.7-0.2c-0.2-0.1-0.4-0.2-0.6-0.3s-0.4-0.1-0.6-0.2c-0.4-0.1-0.8-0.2-1.2-0.2c-0.4,0-0.6,0-0.9,0.1
	c-0.3,0.1-0.4,0.1-0.6,0.2c-0.4,0.3-0.6,0.6-0.6,1s0.1,0.7,0.3,0.9c0.2,0.2,0.4,0.4,0.7,0.6s0.7,0.3,1.1,0.5l1.3,0.6
	c1.1,0.5,1.8,0.9,2.1,1.2c0.8,0.8,1.1,1.6,1.1,2.6c0,1.2-0.4,2.2-1.2,3.1c-1,0.9-2.2,1.3-3.9,1.3c-1.7,0-3.1-0.3-3.9-1
	c-0.4-0.3-0.7-0.6-0.7-0.9s0-0.5,0.1-0.7s0.2-0.5,0.4-0.8c0.2-0.3,0.4-0.4,0.6-0.4c0.3,0,0.5,0.1,0.8,0.4c0.3,0.2,0.7,0.5,1.2,0.6
	C414.4,750.5,415,750.6,415.4,750.6z"/>
<path fill="#043F3A" d="M431.7,740.9c0,0.5-0.3,0.7-0.8,0.7h-3.4v7.7c0,0.9,0.4,1.2,1.2,1.2c0.5,0,1.2-0.3,2-0.8
	c0.2-0.1,0.4-0.2,0.6-0.2c0.2,0,0.4,0.1,0.5,0.4l0.3,0.7c0.1,0.3,0.2,0.5,0.2,0.6c0,0.1-0.1,0.4-0.4,0.6s-0.6,0.4-1,0.6
	c-0.9,0.4-1.7,0.6-2.4,0.6s-1.3-0.1-1.7-0.2c-0.4-0.1-0.8-0.4-1.1-0.7c-0.7-0.7-1-1.5-1-2.7v-7.8h-1.1c-0.5,0-0.8-0.2-0.8-0.7v-0.7
	c0-0.2,0.1-0.3,0.2-0.5c0.1-0.1,0.3-0.2,0.6-0.3l1.2-0.4l0.5-2.9c0.1-0.6,0.3-0.8,0.7-0.8h1c0.2,0,0.4,0.1,0.5,0.2
	c0.1,0.2,0.2,0.4,0.2,0.6v2.8h3.5c0.5,0,0.8,0.2,0.8,0.7v1.2h-0.3V740.9z"/>
<path fill="#043F3A" d="M436.7,746.5v0.2c0,1.2,0.4,2,1.1,2.7c0.8,0.7,1.7,1.1,3,1.1c1.2,0,2.2-0.4,3.2-1.1c0.2-0.1,0.4-0.2,0.5-0.2
	c0.3,0,0.5,0.2,0.7,0.5l0.3,0.7c0.1,0.2,0.1,0.3,0.1,0.5s-0.1,0.4-0.3,0.6c-0.2,0.2-0.4,0.4-0.7,0.6s-0.6,0.3-1,0.4
	c-0.4,0.1-0.7,0.2-1.1,0.3c-0.8,0.2-1.5,0.3-2.3,0.3s-1.6-0.2-2.4-0.5c-0.9-0.3-1.5-0.8-2.1-1.3c-1.2-1.2-1.9-3-1.9-5.2
	c0-3.7,1.3-6.1,3.9-7.1c0.9-0.3,1.6-0.4,2.5-0.4s1.6,0.1,2.2,0.3c0.6,0.2,1.2,0.5,1.6,0.9c1,0.8,1.4,1.8,1.4,3.3
	c0,1.3-0.6,2.4-1.6,3.1c-1,0.6-2.2,1-3.8,1C439.1,747.1,438,746.9,436.7,746.5z M442.7,743c0-1.2-0.8-1.7-2.3-1.7
	c-1.4,0-2.5,0.6-3.1,1.6c-0.2,0.4-0.4,0.9-0.4,1.4c0.7,0.4,1.5,0.5,2.7,0.5C441.6,744.8,442.7,744.1,442.7,743z"/>
<path fill="#043F3A" d="M449,739.8c0-0.6,0.3-0.9,0.8-0.9h0.7c0.5,0,0.8,0.2,1,0.6c0.3,0.6,0.5,1.3,0.6,2.3l0,0c0,0,0-0.1,0.1-0.4
	c0-0.3,0.2-0.6,0.4-1.1c0.2-0.5,0.5-0.8,0.7-1.1c0.6-0.6,1.2-0.8,2.1-0.8c1,0,1.5,0.2,1.9,0.5c0.2,0.1,0.2,0.3,0.2,0.6l-0.2,1.5
	c-0.1,0.4-0.3,0.6-0.7,0.6c-0.2,0-0.4,0-0.7-0.1c-0.5-0.1-0.9-0.2-1.2-0.2c-0.3,0-0.6,0.1-1,0.4c-0.3,0.3-0.6,0.6-0.9,1
	c-0.5,0.8-0.7,1.6-0.7,2.5v6.5c0,0.2-0.1,0.4-0.2,0.6s-0.3,0.2-0.6,0.2h-1.4c-0.3,0-0.5-0.1-0.6-0.2c-0.1-0.2-0.2-0.4-0.2-0.6v-8.3
	c0-1.4,0-2.4-0.1-2.8S449,739.9,449,739.8z"/>
<path fill="#043F3A" d="M473.6,740.9c0,0.5-0.3,0.7-0.8,0.7h-3.5v7.7c0,0.9,0.4,1.2,1.2,1.2c0.5,0,1.2-0.3,2-0.8
	c0.2-0.1,0.4-0.2,0.6-0.2c0.2,0,0.4,0.1,0.5,0.4l0.3,0.7c0.1,0.3,0.2,0.5,0.2,0.6c0,0.1-0.1,0.4-0.4,0.6s-0.6,0.4-1,0.6
	c-0.9,0.4-1.7,0.6-2.4,0.6c-0.7,0-1.3-0.1-1.7-0.2c-0.4-0.1-0.8-0.4-1.1-0.7c-0.7-0.7-1-1.5-1-2.7v-7.8h-1.2c-0.5,0-0.8-0.2-0.8-0.7
	v-0.7c0-0.2,0.1-0.3,0.2-0.5c0.1-0.1,0.3-0.2,0.6-0.3l1.2-0.4l0.5-2.9c0.1-0.6,0.3-0.8,0.7-0.8h1c0.2,0,0.4,0.1,0.5,0.2
	c0.1,0.2,0.2,0.4,0.2,0.6v2.8h3.5c0.5,0,0.8,0.2,0.8,0.7L473.6,740.9L473.6,740.9z"/>
<path fill="#043F3A" d="M475.7,745.8c0-1.1,0.2-2,0.6-2.9c0.4-0.9,0.9-1.6,1.4-2.2c1.2-1.3,2.9-1.9,5-1.9c2.2,0,3.9,0.7,5.2,1.9
	c1.2,1.2,1.7,3,1.7,5.3c0,2.1-0.7,3.8-2,5.3c-1.2,1.3-2.9,2-5,2c-2,0-3.7-0.7-5.1-2C476.3,749.7,475.7,748,475.7,745.8z
	 M479.7,742.7c-0.3,0.5-0.5,1-0.7,1.5c-0.1,0.6-0.2,1.2-0.2,1.7s0.1,1.2,0.2,1.7c0.2,0.6,0.4,1.1,0.7,1.4c0.7,1,1.6,1.3,2.9,1.3
	c1.2,0,2.2-0.5,2.9-1.3c0.6-0.8,0.9-1.9,0.9-3.3c0-2-0.7-3.5-2-4.3c-0.5-0.3-1.1-0.4-1.8-0.4c-0.8,0-1.2,0.1-1.7,0.4
	C480.4,741.9,480,742.2,479.7,742.7z"/>
<path fill="#043F3A" d="M502.4,740.7v-8.8c0-0.2,0.1-0.4,0.2-0.6c0.1-0.2,0.3-0.2,0.5-0.2h1.7c0.2,0,0.4,0.1,0.5,0.2
	c0.1,0.2,0.2,0.3,0.2,0.6v15.7c0,1.6,0.1,3,0.4,4c0,0.1,0,0.3,0,0.4c0,0.2-0.1,0.3-0.2,0.5c-0.2,0.2-0.4,0.2-0.6,0.2h-0.6
	c-0.5,0-0.8-0.2-1-0.6c-0.2-0.5-0.4-1.2-0.5-1.9c-0.6,1.3-1.6,2.2-3.2,2.6c-0.5,0.1-1.1,0.2-1.8,0.2c-0.7,0-1.4-0.2-2.2-0.6
	c-0.7-0.4-1.3-0.9-1.8-1.5c-1.1-1.3-1.5-3-1.5-5.1s0.5-3.7,1.5-5.2c1.1-1.4,2.5-2.2,4.4-2.2C500.2,738.4,501.4,739.3,502.4,740.7z
	 M495.5,746c0,0.6,0.1,1.1,0.2,1.6c0.1,0.6,0.4,1,0.6,1.4c0.6,1,1.4,1.4,2.6,1.4c1,0,1.8-0.4,2.6-1.2c0.8-0.9,1.2-1.9,1.2-3.2
	c0-1.4-0.4-2.7-1.2-3.5c-0.8-0.9-1.6-1.2-2.7-1.2c-1.2,0-2,0.6-2.6,1.6C495.7,743.7,495.5,744.8,495.5,746z"/>
<path fill="#043F3A" d="M521.2,752.1c0,0.4-0.2,0.7-0.7,0.7h-1.2c-0.3,0-0.5-0.1-0.6-0.2c-0.1-0.1-0.1-0.2-0.1-0.4
	c0-0.1,0-0.2-0.1-0.4c-0.1-0.4-0.1-0.9-0.2-1.2c-0.7,1.2-1.6,1.9-3,2.3c-0.5,0.1-1,0.2-1.5,0.2c-0.6,0-1.2-0.1-1.7-0.3
	c-0.6-0.2-1.1-0.5-1.5-0.9c-1-0.9-1.5-1.9-1.5-3.4c0-1.5,0.6-2.7,1.6-3.5c0.9-0.7,2.1-1,3.5-1c1.3,0,2.6,0.4,3.6,1.2
	c0-0.3,0-0.6,0-1.1s-0.1-0.9-0.3-1.2c-0.2-0.4-0.4-0.8-0.7-1.1c-0.6-0.6-1.4-0.8-2.6-0.8c-1,0-2,0.3-3,0.8c-0.2,0.1-0.4,0.2-0.5,0.2
	c-0.2,0-0.4-0.2-0.7-0.7c-0.2-0.5-0.3-0.8-0.3-1c0-0.4,0.3-0.7,0.8-1.1c1.1-0.7,2.4-1,4.2-1c1.5,0,2.9,0.4,3.8,1.2
	c1.2,1.1,1.8,2.5,1.8,4.4c0,0.9-0.1,1.8-0.4,3.1C520.8,749.4,521.2,750.9,521.2,752.1z M512.9,747c-0.3,0.3-0.6,0.5-0.7,0.8
	c-0.1,0.3-0.2,0.6-0.2,0.9s0.1,0.6,0.2,0.9c0.1,0.3,0.3,0.5,0.5,0.7c0.5,0.4,1,0.5,1.5,0.5c0.6,0,1.1-0.1,1.3-0.2
	c0.4-0.1,0.7-0.3,1-0.5c0.6-0.5,0.9-0.9,0.9-1.3c-0.1-0.6-0.4-1.1-1-1.4c-0.6-0.3-1.2-0.5-2-0.5C513.7,746.5,513.3,746.6,512.9,747z
	"/>
<path fill="#043F3A" d="M535.2,739c0.5,0,0.8,0.3,0.8,0.8c0,0.6-0.3,1.9-1,3.9l-0.8,2.3c-1.7,5.2-3.9,9.4-6.7,12.8l-0.1,0.3
	c-0.4,0.5-0.8,0.7-1.2,0.7s-0.9-0.3-1.4-0.9c-0.2-0.2-0.2-0.4-0.2-0.6c0-0.4,0.2-0.7,0.6-1.1c0.4-0.4,0.7-0.8,1-1.2s0.6-0.8,0.9-1.2
	c0.5-0.7,1-1.4,1.3-2.2c-1.2-3.4-2-5.6-2.3-6.2l-1.3-3.3l-1-2.1c-0.4-0.8-0.5-1.3-0.5-1.4c0-0.2,0.1-0.3,0.2-0.5
	c0.2-0.1,0.4-0.2,0.7-0.2h1.5c0.4,0,0.7,0.2,0.9,0.6c0.2,0.3,0.4,0.8,0.6,1.4c0.5,1.5,0.9,2.6,1.2,3.4l1,3.3
	c0.1,0.3,0.2,0.6,0.2,0.8l0.1,0.5c0,0.1,0.1,0.2,0.1,0.4l0.1,0.5c0,0.2,0.1,0.3,0.1,0.3c0.1,0,0.1-0.1,0.2-0.2
	c0.1-0.1,0.1-0.2,0.2-0.4l0.2-0.5c0.9-2.2,1.6-5.3,2.4-9.2c0.1-0.5,0.4-0.8,0.9-0.8L535.2,739L535.2,739z"/>
<path fill="#043F3A" d="M538.2,750.9c0-0.6,0.2-1.1,0.6-1.5c0.4-0.4,0.9-0.6,1.4-0.6c0.6,0,1.1,0.2,1.4,0.6c0.4,0.4,0.6,1,0.6,1.5
	s-0.2,1.1-0.6,1.5c-0.4,0.4-0.9,0.7-1.4,0.7c-0.6,0-1.1-0.2-1.4-0.7C538.4,752,538.2,751.5,538.2,750.9z"/>
<path fill="#043F3A" d="M544.4,750.9c0-0.6,0.2-1.1,0.6-1.5c0.4-0.4,0.9-0.6,1.4-0.6c0.6,0,1.1,0.2,1.4,0.6c0.4,0.4,0.6,1,0.6,1.5
	s-0.2,1.1-0.6,1.5c-0.4,0.4-0.9,0.7-1.4,0.7c-0.6,0-1.1-0.2-1.4-0.7C544.6,752,544.4,751.5,544.4,750.9z"/>
<path fill="#043F3A" d="M550.7,750.9c0-0.6,0.2-1.1,0.6-1.5c0.4-0.4,0.9-0.6,1.4-0.6c0.6,0,1.1,0.2,1.4,0.6c0.4,0.4,0.6,1,0.6,1.5
	s-0.2,1.1-0.6,1.5c-0.4,0.4-0.9,0.7-1.4,0.7c-0.6,0-1.1-0.2-1.4-0.7C550.9,752,550.7,751.5,550.7,750.9z"/>
<path fill="#043F3A" d="M557,750.9c0-0.6,0.2-1.1,0.6-1.5c0.4-0.4,0.9-0.6,1.4-0.6c0.6,0,1.1,0.2,1.4,0.6c0.4,0.4,0.6,1,0.6,1.5
	s-0.2,1.1-0.6,1.5c-0.4,0.4-0.9,0.7-1.4,0.7c-0.6,0-1.1-0.2-1.4-0.7C557.3,752,557,751.5,557,750.9z"/>
<path fill="#FFFFFF" d="M111.3,777.6c-0.1,0-0.2,0-0.3-0.1c-0.1-0.1-0.1-0.2-0.1-0.3v-10.8c0-0.1,0-0.2,0.1-0.3
	c0.1-0.1,0.2-0.1,0.3-0.1h4.5c0.7,0,1.2,0.1,1.7,0.3c0.5,0.2,0.9,0.5,1.2,0.8c0.3,0.3,0.5,0.7,0.6,1.1c0.1,0.4,0.2,0.7,0.2,1
	c0,0.4-0.1,0.7-0.2,1c-0.1,0.3-0.2,0.5-0.4,0.7c-0.2,0.2-0.3,0.4-0.5,0.5c-0.2,0.1-0.3,0.2-0.3,0.2c0.4,0.3,0.8,0.7,1.1,1.2
	s0.5,1.1,0.5,1.6c0,0.4-0.1,0.9-0.2,1.2c-0.2,0.4-0.4,0.8-0.7,1.1c-0.3,0.3-0.7,0.6-1.2,0.8c-0.5,0.2-1,0.3-1.6,0.3h-4.7V777.6z
	 M112.3,767.4v3.4h3.2c0.8,0,1.2-0.1,1.6-0.4s0.6-0.7,0.6-1.2c0-0.6-0.2-1-0.6-1.2c-0.4-0.2-1-0.4-1.6-0.4L112.3,767.4L112.3,767.4z
	 M112.3,772.3v3.7h3.5c0.4,0,0.7-0.1,1-0.2s0.5-0.2,0.7-0.4s0.3-0.4,0.4-0.6c0.1-0.2,0.1-0.5,0.1-0.7c0-0.3,0-0.5-0.1-0.7
	c-0.1-0.2-0.2-0.5-0.4-0.6c-0.2-0.1-0.4-0.3-0.7-0.4c-0.3-0.1-0.6-0.2-1-0.2L112.3,772.3L112.3,772.3z"/>
<path fill="#FFFFFF" d="M121.3,772.4c0-0.5,0.2-1,0.4-1.4c0.2-0.4,0.5-0.9,0.8-1.2c0.3-0.3,0.7-0.6,1.2-0.8s1-0.3,1.5-0.3
	c0.6,0,1.2,0.1,1.6,0.3c0.5,0.2,0.9,0.5,1.2,0.9c0.3,0.4,0.6,0.8,0.8,1.3c0.2,0.5,0.3,1.1,0.3,1.7v0.5c0,0.1,0,0.2-0.1,0.3
	c-0.1,0.1-0.2,0.1-0.3,0.1H123v0.1c0,0.8,0.3,1.3,0.7,1.7c0.5,0.4,1,0.6,1.6,0.6c0.6,0,1.1-0.1,1.3-0.3c0.3-0.2,0.6-0.4,0.8-0.6
	c0.1-0.1,0.2-0.2,0.2-0.2s0.2-0.1,0.3-0.1h0.5c0.1,0,0.2,0,0.3,0.1s0.1,0.2,0.1,0.3c0,0.2-0.1,0.4-0.3,0.7c-0.2,0.2-0.4,0.5-0.7,0.7
	c-0.3,0.2-0.7,0.4-1.1,0.5c-0.5,0.1-1,0.2-1.5,0.2c-0.6,0-1.1-0.1-1.5-0.3c-0.5-0.2-0.9-0.5-1.2-0.8c-0.3-0.4-0.6-0.8-0.8-1.2
	c-0.2-0.5-0.3-1-0.4-1.5C121.3,773.5,121.3,772.9,121.3,772.4z M122.8,772.5h4.8v-0.1c0-0.7-0.2-1.2-0.7-1.6c-0.4-0.4-1-0.6-1.7-0.6
	c-0.3,0-0.6,0.1-0.9,0.2c-0.3,0.1-0.5,0.3-0.8,0.5c-0.2,0.2-0.4,0.4-0.5,0.7C122.9,771.8,122.9,772.2,122.8,772.5L122.8,772.5z"/>
<path fill="#FFFFFF" d="M130.6,772.7c0-0.6,0.2-1.2,0.4-1.6c0.2-0.5,0.5-0.9,0.8-1.2c0.3-0.3,0.8-0.6,1.2-0.8c0.5-0.2,1-0.3,1.4-0.3
	c0.7,0,1.2,0.1,1.6,0.4c0.4,0.2,0.7,0.5,1,0.8v-0.5c0-0.1,0-0.2,0.1-0.3c0.1-0.1,0.2-0.1,0.3-0.1h0.7c0.1,0,0.2,0,0.3,0.1
	c0.1,0.1,0.1,0.2,0.1,0.3v8.2c0,1.2-0.3,2-1,2.8c-0.7,0.7-1.6,1.1-3,1.1c-0.7,0-1.2-0.1-1.7-0.2c-0.5-0.2-0.9-0.4-1.2-0.6
	c-0.3-0.3-0.6-0.5-0.7-0.8c-0.2-0.3-0.2-0.6-0.3-0.9c0-0.1,0-0.2,0.1-0.3c0.1-0.1,0.2-0.1,0.3-0.1h0.5c0.1,0,0.2,0,0.3,0.1
	s0.2,0.2,0.3,0.4c0,0.1,0.1,0.2,0.2,0.3c0.1,0.1,0.2,0.2,0.4,0.4c0.2,0.1,0.4,0.2,0.7,0.3c0.3,0.1,0.6,0.1,1,0.1
	c0.4,0,0.7,0,1.1-0.1c0.3-0.1,0.6-0.2,0.9-0.4c0.3-0.2,0.4-0.4,0.6-0.7c0.1-0.3,0.2-0.6,0.2-1.1v-1.1c-0.2,0.3-0.6,0.6-1,0.8
	c-0.4,0.2-1,0.4-1.6,0.4c-0.5,0-1-0.1-1.4-0.3c-0.5-0.2-0.9-0.5-1.2-0.8c-0.3-0.4-0.6-0.8-0.8-1.2c-0.2-0.5-0.3-1.1-0.4-1.6
	c0-0.2,0-0.4,0-0.6S130.6,772.9,130.6,772.7z M137.1,772.6c0-0.8-0.3-1.3-0.7-1.8c-0.5-0.4-1-0.7-1.7-0.7c-0.8,0-1.3,0.2-1.7,0.7
	c-0.4,0.5-0.7,1.1-0.7,1.9c0,0.3,0,0.6,0,1c0,0.8,0.3,1.4,0.7,1.9c0.4,0.5,1,0.7,1.7,0.7s1.2-0.2,1.7-0.7c0.5-0.4,0.7-1.1,0.7-1.8
	c0-0.2,0-0.4,0-0.6S137.1,772.8,137.1,772.6z"/>
<path fill="#FFFFFF" d="M142.8,767.1c0,0.1,0,0.2-0.1,0.3s-0.2,0.1-0.3,0.1h-1c-0.1,0-0.2,0-0.3-0.1c-0.1-0.1-0.1-0.2-0.1-0.3v-1
	c0-0.1,0-0.2,0.1-0.3c0.1-0.1,0.2-0.1,0.3-0.1h1c0.1,0,0.2,0,0.3,0.1c0.1,0.1,0.1,0.2,0.1,0.3V767.1z M142.6,777.1
	c0,0.1,0,0.2-0.1,0.3c-0.1,0.1-0.2,0.1-0.3,0.1h-0.5c-0.1,0-0.2,0-0.3-0.1s-0.1-0.2-0.1-0.3v-7.8c0-0.1,0-0.2,0.1-0.3
	c0.1-0.1,0.2-0.1,0.3-0.1h0.6c0.1,0,0.2,0,0.3,0.1c0.1,0.1,0.1,0.2,0.1,0.3v7.8H142.6z"/>
<path fill="#FFFFFF" d="M152.9,777.1c0,0.1,0,0.2-0.1,0.3s-0.2,0.1-0.3,0.1h-0.6c-0.1,0-0.2,0-0.3-0.1c-0.1-0.1-0.1-0.2-0.1-0.3
	v-4.5c0-0.9-0.2-1.4-0.6-1.9c-0.4-0.4-1-0.7-1.7-0.7c-0.7,0-1.2,0.2-1.7,0.7c-0.4,0.4-0.7,1.1-0.7,1.9v4.5c0,0.1,0,0.2-0.1,0.3
	s-0.2,0.1-0.3,0.1h-0.6c-0.1,0-0.2,0-0.3-0.1c-0.1-0.1-0.1-0.2-0.1-0.3v-7.8c0-0.1,0-0.2,0.1-0.3c0.1-0.1,0.2-0.1,0.3-0.1h0.6
	c0.1,0,0.2,0,0.3,0.1s0.1,0.2,0.1,0.3v0.5c0.2-0.3,0.5-0.6,1-0.8c0.4-0.2,1-0.4,1.6-0.4c0.5,0,1,0.1,1.4,0.3
	c0.5,0.2,0.9,0.4,1.2,0.8c0.3,0.3,0.6,0.7,0.8,1.2c0.2,0.5,0.3,1,0.3,1.5v4.7H152.9z"/>
<path fill="#FFFFFF" d="M161.5,780.4c0,0.1-0.1,0.2-0.2,0.3c-0.1,0.1-0.2,0.1-0.3,0.1h-0.7c-0.1,0-0.2,0-0.3-0.1
	c-0.1-0.1-0.1-0.2-0.1-0.3v-0.1l1.6-3.5l-3.3-7.4v-0.1c0-0.1,0-0.2,0.1-0.3c0.1-0.1,0.2-0.1,0.3-0.1h0.7c0.1,0,0.2,0,0.3,0.1
	c0.1,0.1,0.1,0.2,0.2,0.3l2.6,5.8l2.6-5.8c0-0.1,0.1-0.2,0.2-0.3c0.1-0.1,0.2-0.1,0.3-0.1h0.7c0.1,0,0.2,0,0.3,0.1
	c0.1,0.1,0.1,0.2,0.1,0.3v0.1L161.5,780.4z"/>
<path fill="#FFFFFF" d="M171.5,768.7c0.6,0,1.2,0.1,1.6,0.3c0.5,0.2,0.9,0.5,1.2,0.8c0.3,0.3,0.6,0.7,0.8,1.2c0.2,0.5,0.3,1,0.4,1.5
	c0,0.1,0,0.2,0,0.4c0,0.1,0,0.3,0,0.4c0,0.2,0,0.3,0,0.4s0,0.3,0,0.4c-0.1,0.6-0.2,1.1-0.4,1.5c-0.2,0.5-0.5,0.9-0.8,1.2
	c-0.3,0.3-0.8,0.6-1.2,0.8c-0.5,0.2-1,0.3-1.6,0.3c-0.6,0-1.2-0.1-1.6-0.3c-0.5-0.2-0.9-0.5-1.2-0.8c-0.3-0.3-0.6-0.7-0.8-1.2
	c-0.2-0.5-0.3-1-0.4-1.5c0-0.1,0-0.2,0-0.4c0-0.1,0-0.3,0-0.4c0-0.2,0-0.3,0-0.4c0-0.1,0-0.3,0-0.4c0-0.6,0.2-1.1,0.4-1.5
	c0.2-0.5,0.5-0.9,0.8-1.2c0.3-0.3,0.8-0.6,1.2-0.8C170.4,768.8,170.9,768.7,171.5,768.7z M174,774c0-0.2,0-0.4,0-0.7
	c0-0.3,0-0.5,0-0.7c0-0.3-0.1-0.7-0.2-1s-0.3-0.6-0.5-0.8c-0.2-0.2-0.5-0.4-0.8-0.5c-0.3-0.1-0.7-0.2-1.1-0.2
	c-0.4,0-0.8,0.1-1.1,0.2c-0.3,0.1-0.6,0.3-0.8,0.5c-0.2,0.2-0.4,0.5-0.5,0.8s-0.2,0.6-0.2,1c0,0.2,0,0.5,0,0.7c0,0.3,0,0.5,0,0.7
	c0,0.3,0.1,0.7,0.2,1c0.1,0.3,0.3,0.6,0.5,0.8c0.2,0.2,0.5,0.4,0.8,0.5c0.3,0.1,0.6,0.2,1.1,0.2c0.4,0,0.8-0.1,1.1-0.2
	c0.3-0.1,0.6-0.3,0.8-0.5c0.2-0.2,0.4-0.5,0.5-0.8C173.9,774.6,174,774.3,174,774z"/>
<path fill="#FFFFFF" d="M177.6,769.3c0-0.1,0-0.2,0.1-0.3c0.1-0.1,0.2-0.1,0.3-0.1h0.6c0.1,0,0.2,0,0.3,0.1c0.1,0.1,0.1,0.2,0.1,0.3
	v4.5c0,0.9,0.2,1.4,0.6,1.9c0.4,0.4,1,0.7,1.6,0.7c0.7,0,1.2-0.2,1.6-0.7c0.4-0.4,0.6-1.1,0.6-1.9v-4.5c0-0.1,0-0.2,0.1-0.3
	c0.1-0.1,0.2-0.1,0.3-0.1h0.6c0.1,0,0.2,0,0.3,0.1c0.1,0.1,0.1,0.2,0.1,0.3v7.8c0,0.1,0,0.2-0.1,0.3c-0.1,0.1-0.2,0.1-0.3,0.1h-0.6
	c-0.1,0-0.2,0-0.3-0.1s-0.1-0.2-0.1-0.3v-0.5c-0.2,0.3-0.5,0.6-0.9,0.8c-0.4,0.2-1,0.4-1.6,0.4c-0.5,0-1-0.1-1.4-0.3
	c-0.5-0.2-0.8-0.4-1.2-0.8c-0.3-0.3-0.6-0.7-0.7-1.2c-0.2-0.5-0.3-1-0.3-1.5v-4.7L177.6,769.3L177.6,769.3z"/>
<path fill="#FFFFFF" d="M192.2,768.9c0.1,0,0.2,0,0.3,0.1c0.1,0.1,0.1,0.2,0.1,0.3v0.6c0,0.1,0,0.2-0.1,0.3s-0.2,0.1-0.3,0.1h-1
	c-1.2,0-1.9,0.7-1.9,1.9v4.9c0,0.1,0,0.2-0.1,0.3s-0.2,0.1-0.3,0.1h-0.6c-0.1,0-0.2,0-0.3-0.1s-0.1-0.2-0.1-0.3v-7.8
	c0-0.1,0-0.2,0.1-0.3c0.1-0.1,0.2-0.1,0.3-0.1h0.6c0.1,0,0.2,0,0.3,0.1s0.1,0.2,0.1,0.3v0.5c0.2-0.3,0.5-0.6,0.8-0.8
	c0.3-0.2,0.7-0.2,1.2-0.2L192.2,768.9L192.2,768.9z"/>
<path fill="#FFFFFF" d="M197,775.4c0-0.5,0.1-0.9,0.3-1.2s0.4-0.6,0.8-0.9c0.3-0.2,0.7-0.4,1.1-0.6c0.4-0.1,0.9-0.3,1.3-0.3l2.3-0.4
	v-0.2c0-0.6-0.2-1-0.6-1.2c-0.4-0.2-0.9-0.4-1.3-0.4s-0.9,0.1-1.1,0.3c-0.3,0.2-0.5,0.4-0.7,0.7c-0.1,0.1-0.1,0.2-0.2,0.2
	s-0.2,0.1-0.3,0.1h-0.5c-0.1,0-0.2,0-0.3-0.1c-0.1-0.1-0.1-0.2-0.1-0.3c0-0.3,0.1-0.5,0.3-0.8c0.2-0.3,0.4-0.5,0.7-0.7
	s0.7-0.4,1.1-0.5s0.8-0.2,1.2-0.2s1,0.1,1.3,0.2c0.3,0.1,0.8,0.4,1.1,0.7s0.6,0.6,0.7,1.1c0.1,0.5,0.3,0.9,0.3,1.4v5.2
	c0,0.1,0,0.2-0.1,0.3c-0.1,0.1-0.2,0.1-0.3,0.1h-0.6c-0.1,0-0.2,0-0.3-0.1c-0.1-0.1-0.1-0.2-0.1-0.3v-1.1c-0.1,0.2-0.3,0.4-0.5,0.6
	c-0.2,0.2-0.5,0.3-0.8,0.4c-0.3,0.1-0.6,0.2-0.9,0.3c-0.3,0.1-0.6,0.1-0.9,0.1c-0.4,0-0.9-0.1-1.2-0.2c-0.4-0.1-0.7-0.3-0.9-0.5
	c-0.3-0.2-0.5-0.5-0.6-0.8C197.1,776.1,197,775.7,197,775.4z M200.2,776.3c0.4,0,0.8-0.1,1.1-0.2c0.3-0.1,0.6-0.3,0.9-0.5
	c0.2-0.2,0.4-0.5,0.6-0.8c0.1-0.3,0.2-0.7,0.2-1v-0.4l-1.9,0.3c-0.7,0.1-1.2,0.3-1.6,0.6c-0.4,0.3-0.6,0.6-0.6,1
	c0,0.1,0,0.3,0.1,0.4c0.1,0.1,0.1,0.2,0.3,0.4c0.1,0.1,0.3,0.2,0.5,0.3C199.6,776.3,199.9,776.3,200.2,776.3z"/>
<path fill="#FFFFFF" d="M210.3,768.7c0.7,0,1.2,0.1,1.6,0.4c0.4,0.2,0.7,0.5,1,0.8v-3.6c0-0.1,0-0.2,0.1-0.3s0.2-0.1,0.3-0.1h0.6
	c0.1,0,0.2,0,0.3,0.1c0.1,0.1,0.1,0.2,0.1,0.3v10.9c0,0.1,0,0.2-0.1,0.3c-0.1,0.1-0.2,0.1-0.3,0.1h-0.6c-0.1,0-0.2,0-0.3-0.1
	s-0.1-0.2-0.1-0.3v-0.5c-0.2,0.3-0.6,0.6-1,0.8c-0.4,0.2-1,0.4-1.6,0.4c-0.5,0-1-0.1-1.4-0.3c-0.5-0.2-0.9-0.5-1.2-0.8
	c-0.3-0.3-0.6-0.8-0.8-1.2c-0.2-0.4-0.3-1.1-0.4-1.6c0-0.2,0-0.4,0-0.6s0-0.4,0-0.6c0-0.6,0.2-1.2,0.4-1.6s0.5-0.9,0.8-1.2
	c0.3-0.3,0.8-0.6,1.2-0.8C209.2,768.8,209.7,768.7,210.3,768.7z M212.8,774c0-0.2,0-0.4,0-0.7c0-0.3,0-0.5,0-0.7
	c0-0.8-0.3-1.3-0.7-1.8c-0.5-0.4-1-0.7-1.7-0.7c-0.8,0-1.3,0.2-1.7,0.7s-0.7,1.1-0.7,1.9c0,0.3,0,0.6,0,1c0,0.8,0.3,1.4,0.7,1.9
	c0.4,0.5,1,0.7,1.7,0.7c0.7,0,1.2-0.2,1.7-0.7C212.6,775.2,212.8,774.7,212.8,774z"/>
<path fill="#FFFFFF" d="M220,777.6c-0.1,0-0.3,0-0.3-0.1c-0.1-0.1-0.1-0.2-0.2-0.3l-3.3-7.8v-0.1c0-0.1,0-0.2,0.1-0.3
	c0.1-0.1,0.2-0.1,0.3-0.1h0.6c0.2,0,0.3,0,0.4,0.1c0.1,0.1,0.1,0.2,0.2,0.3l2.6,6.1l2.6-6.1c0-0.1,0.1-0.2,0.2-0.3
	c0.1-0.1,0.2-0.1,0.3-0.1h0.7c0.1,0,0.2,0,0.3,0.1c0.1,0.1,0.1,0.2,0.1,0.3v0.1l-3.3,7.8c0,0.1-0.1,0.2-0.2,0.3
	c-0.1,0.1-0.2,0.1-0.3,0.1L220,777.6L220,777.6z"/>
<path fill="#FFFFFF" d="M225.5,772.4c0-0.5,0.2-1,0.4-1.4c0.2-0.4,0.5-0.9,0.8-1.2c0.3-0.3,0.7-0.6,1.2-0.8s1-0.3,1.5-0.3
	s1.2,0.1,1.6,0.3c0.5,0.2,0.9,0.5,1.2,0.9c0.4,0.4,0.6,0.8,0.8,1.3c0.2,0.5,0.3,1.1,0.3,1.7v0.5c0,0.1,0,0.2-0.1,0.3
	s-0.2,0.1-0.3,0.1h-5.8v0.1c0,0.8,0.3,1.3,0.7,1.7c0.5,0.4,1,0.6,1.6,0.6s1.1-0.1,1.3-0.3c0.3-0.2,0.6-0.4,0.8-0.6
	c0.1-0.1,0.2-0.2,0.2-0.2s0.2-0.1,0.3-0.1h0.5c0.1,0,0.2,0,0.3,0.1s0.1,0.2,0.1,0.3c0,0.2-0.1,0.4-0.3,0.7c-0.2,0.2-0.4,0.5-0.7,0.7
	c-0.3,0.2-0.7,0.4-1.1,0.5c-0.5,0.1-1,0.2-1.5,0.2s-1.1-0.1-1.5-0.3c-0.4-0.2-0.9-0.5-1.2-0.8c-0.3-0.4-0.6-0.8-0.8-1.2
	c-0.2-0.5-0.3-1-0.4-1.5C225.5,773.5,225.5,772.9,225.5,772.4z M227,772.5h4.8v-0.1c0-0.7-0.2-1.2-0.7-1.6c-0.4-0.4-1-0.6-1.7-0.6
	c-0.3,0-0.6,0.1-0.9,0.2c-0.3,0.1-0.5,0.3-0.8,0.5c-0.2,0.2-0.4,0.4-0.5,0.7C227.1,771.8,227.1,772.2,227,772.5L227,772.5z"/>
<path fill="#FFFFFF" d="M243,777.1c0,0.1,0,0.2-0.1,0.3s-0.2,0.1-0.3,0.1H242c-0.1,0-0.2,0-0.3-0.1c-0.1-0.1-0.1-0.2-0.1-0.3v-4.5
	c0-0.9-0.2-1.4-0.6-1.9c-0.4-0.4-1-0.7-1.7-0.7c-0.7,0-1.2,0.2-1.7,0.7c-0.4,0.4-0.7,1.1-0.7,1.9v4.5c0,0.1,0,0.2-0.1,0.3
	s-0.2,0.1-0.3,0.1h-0.6c-0.1,0-0.2,0-0.3-0.1c-0.1-0.1-0.1-0.2-0.1-0.3v-7.8c0-0.1,0-0.2,0.1-0.3c0.1-0.1,0.2-0.1,0.3-0.1h0.6
	c0.1,0,0.2,0,0.3,0.1s0.1,0.2,0.1,0.3v0.5c0.2-0.3,0.5-0.6,1-0.8c0.4-0.2,1-0.4,1.6-0.4c0.5,0,1,0.1,1.4,0.3
	c0.5,0.2,0.9,0.4,1.2,0.8c0.3,0.3,0.6,0.7,0.8,1.2c0.2,0.5,0.3,1,0.3,1.5v4.7H243z"/>
<path fill="#FFFFFF" d="M247.5,774.6c0,0.2,0,0.4,0.1,0.6c0,0.2,0.1,0.4,0.2,0.5c0.1,0.1,0.3,0.2,0.4,0.3c0.2,0.1,0.4,0.1,0.7,0.1
	h0.9c0.1,0,0.2,0,0.3,0.1c0.1,0.1,0.1,0.2,0.1,0.3v0.6c0,0.1,0,0.2-0.1,0.3c-0.1,0.1-0.2,0.1-0.3,0.1h-1c-1,0-1.6-0.3-2.1-0.8
	s-0.7-1.2-0.7-2.1v-4.4h-1.2c-0.1,0-0.2,0-0.3-0.1c-0.1-0.1-0.1-0.2-0.1-0.3v-0.6c0-0.1,0-0.2,0.1-0.3c0.1-0.1,0.2-0.1,0.3-0.1h1.2
	v-2.7c0-0.1,0-0.2,0.1-0.3s0.2-0.1,0.3-0.1h0.6c0.1,0,0.2,0,0.3,0.1c0.1,0.1,0.1,0.2,0.1,0.3v2.7h2.1c0.1,0,0.2,0,0.3,0.1
	c0.1,0.1,0.1,0.2,0.1,0.3v0.6c0,0.1,0,0.2-0.1,0.3c-0.1,0.1-0.2,0.1-0.3,0.1h-2.1v4.5h0.1V774.6z"/>
<path fill="#FFFFFF" d="M251.9,769.3c0-0.1,0-0.2,0.1-0.3c0.1-0.1,0.2-0.1,0.3-0.1h0.6c0.1,0,0.2,0,0.3,0.1c0.1,0.1,0.1,0.2,0.1,0.3
	v4.5c0,0.9,0.2,1.4,0.6,1.9c0.4,0.4,1,0.7,1.6,0.7c0.7,0,1.2-0.2,1.6-0.7c0.4-0.4,0.6-1.1,0.6-1.9v-4.5c0-0.1,0-0.2,0.1-0.3
	c0.1-0.1,0.2-0.1,0.3-0.1h0.6c0.1,0,0.2,0,0.3,0.1s0.1,0.2,0.1,0.3v7.8c0,0.1,0,0.2-0.1,0.3s-0.2,0.1-0.3,0.1h-0.6
	c-0.1,0-0.2,0-0.3-0.1s-0.1-0.2-0.1-0.3v-0.5c-0.2,0.3-0.5,0.6-0.9,0.8c-0.4,0.2-1,0.4-1.6,0.4c-0.5,0-1-0.1-1.4-0.3
	c-0.5-0.2-0.8-0.4-1.2-0.8c-0.3-0.3-0.6-0.7-0.7-1.2c-0.2-0.5-0.3-1-0.3-1.5v-4.7L251.9,769.3L251.9,769.3z"/>
<path fill="#FFFFFF" d="M266.5,768.9c0.1,0,0.2,0,0.3,0.1c0.1,0.1,0.1,0.2,0.1,0.3v0.6c0,0.1,0,0.2-0.1,0.3s-0.2,0.1-0.3,0.1h-1
	c-1.2,0-1.9,0.7-1.9,1.9v4.9c0,0.1,0,0.2-0.1,0.3s-0.2,0.1-0.3,0.1h-0.6c-0.1,0-0.2,0-0.3-0.1s-0.1-0.2-0.1-0.3v-7.8
	c0-0.1,0-0.2,0.1-0.3c0.1-0.1,0.2-0.1,0.3-0.1h0.6c0.1,0,0.2,0,0.3,0.1s0.1,0.2,0.1,0.3v0.5c0.2-0.3,0.5-0.6,0.8-0.8
	c0.3-0.2,0.7-0.2,1.2-0.2L266.5,768.9L266.5,768.9z"/>
<path fill="#FFFFFF" d="M267.8,772.4c0-0.5,0.2-1,0.4-1.4c0.2-0.5,0.5-0.9,0.8-1.2c0.3-0.3,0.7-0.6,1.2-0.8c0.5-0.2,1-0.3,1.5-0.3
	c0.5,0,1.2,0.1,1.6,0.3c0.5,0.2,0.9,0.5,1.2,0.9s0.6,0.8,0.8,1.3c0.2,0.5,0.3,1.1,0.3,1.7v0.5c0,0.1,0,0.2-0.1,0.3
	c-0.1,0.1-0.2,0.1-0.3,0.1h-5.8v0.1c0,0.8,0.3,1.3,0.7,1.7c0.5,0.4,1,0.6,1.6,0.6c0.6,0,1.1-0.1,1.3-0.3c0.3-0.2,0.6-0.4,0.8-0.6
	c0.1-0.1,0.2-0.2,0.2-0.2s0.2-0.1,0.3-0.1h0.5c0.1,0,0.2,0,0.3,0.1c0.1,0.1,0.1,0.2,0.1,0.3c0,0.2-0.1,0.4-0.3,0.7
	c-0.2,0.2-0.4,0.5-0.7,0.7s-0.7,0.4-1.1,0.5c-0.5,0.1-1,0.2-1.5,0.2c-0.5,0-1.1-0.1-1.5-0.3c-0.4-0.2-0.9-0.5-1.2-0.8
	c-0.3-0.4-0.6-0.8-0.8-1.2c-0.2-0.5-0.3-1-0.4-1.5C267.8,773.5,267.8,772.9,267.8,772.4z M269.3,772.5h4.8v-0.1
	c0-0.7-0.2-1.2-0.7-1.6c-0.4-0.4-1-0.6-1.7-0.6c-0.3,0-0.6,0.1-0.9,0.2c-0.3,0.1-0.5,0.3-0.8,0.5c-0.2,0.2-0.4,0.4-0.5,0.7
	C269.3,771.8,269.3,772.2,269.3,772.5L269.3,772.5z"/>
<path fill="#FFFFFF" d="M285.7,768.7c0.5,0,1,0.1,1.4,0.3c0.5,0.2,0.9,0.5,1.2,0.8c0.3,0.4,0.6,0.8,0.8,1.2c0.2,0.5,0.3,1.1,0.4,1.6
	c0,0.2,0,0.4,0,0.6s0,0.4,0,0.6c0,0.6-0.2,1.2-0.4,1.6c-0.2,0.5-0.5,0.9-0.8,1.2c-0.3,0.4-0.8,0.6-1.2,0.8c-0.5,0.2-1,0.3-1.4,0.3
	c-0.7,0-1.2-0.1-1.6-0.4c-0.4-0.2-0.8-0.5-1-0.8v0.5c0,0.1,0,0.2-0.1,0.3s-0.2,0.1-0.3,0.1h-0.6c-0.1,0-0.2,0-0.3-0.1
	c-0.1-0.1-0.1-0.2-0.1-0.3v-10.9c0-0.1,0-0.2,0.1-0.3s0.2-0.1,0.3-0.1h0.6c0.1,0,0.2,0,0.3,0.1c0.1,0.1,0.1,0.2,0.1,0.3v3.6
	c0.2-0.3,0.5-0.6,1-0.8C284.5,768.8,285,768.7,285.7,768.7z M283.1,774c0.1,0.7,0.3,1.2,0.8,1.7c0.4,0.4,1,0.7,1.6,0.7
	c0.8,0,1.3-0.2,1.7-0.7c0.4-0.5,0.7-1.1,0.7-1.9c0-0.3,0-0.6,0-1c-0.1-0.8-0.3-1.4-0.7-1.9c-0.4-0.5-1-0.7-1.7-0.7s-1.2,0.2-1.6,0.7
	c-0.4,0.4-0.7,1.1-0.8,1.8c0,0.2,0,0.4,0,0.7C283.1,773.6,283.1,773.8,283.1,774z"/>
<path fill="#FFFFFF" d="M293.9,780.4c0,0.1-0.1,0.2-0.2,0.3c-0.1,0.1-0.2,0.1-0.3,0.1h-0.7c-0.1,0-0.2,0-0.3-0.1
	c-0.1-0.1-0.1-0.2-0.1-0.3v-0.1l1.6-3.5l-3.3-7.4v-0.1c0-0.1,0-0.2,0.1-0.3s0.2-0.1,0.3-0.1h0.7c0.1,0,0.2,0,0.3,0.1
	c0.1,0.1,0.1,0.2,0.2,0.3l2.6,5.8l2.6-5.8c0-0.1,0.1-0.2,0.2-0.3c0.1-0.1,0.2-0.1,0.3-0.1h0.7c0.1,0,0.2,0,0.3,0.1
	c0.1,0.1,0.1,0.2,0.1,0.3v0.1L293.9,780.4z"/>
<path fill="#FFFFFF" d="M308.4,768.7c0.5,0,1,0.1,1.4,0.3c0.5,0.2,0.9,0.5,1.2,0.8c0.3,0.4,0.6,0.8,0.8,1.2c0.2,0.5,0.3,1.1,0.4,1.6
	c0,0.2,0,0.4,0,0.6s0,0.4,0,0.6c0,0.6-0.2,1.2-0.4,1.6c-0.2,0.5-0.5,0.9-0.8,1.2c-0.3,0.4-0.8,0.6-1.2,0.8c-0.5,0.2-1,0.3-1.4,0.3
	c-0.7,0-1.2-0.1-1.6-0.4c-0.4-0.2-0.8-0.5-1-0.8v0.5c0,0.1,0,0.2-0.1,0.3s-0.2,0.1-0.3,0.1h-0.6c-0.1,0-0.2,0-0.3-0.1
	c-0.1-0.1-0.1-0.2-0.1-0.3v-10.9c0-0.1,0-0.2,0.1-0.3s0.2-0.1,0.3-0.1h0.6c0.1,0,0.2,0,0.3,0.1c0.1,0.1,0.1,0.2,0.1,0.3v3.6
	c0.2-0.3,0.5-0.6,1-0.8C307.2,768.8,307.7,768.7,308.4,768.7z M305.9,774c0.1,0.7,0.3,1.2,0.8,1.7c0.4,0.4,1,0.7,1.6,0.7
	c0.8,0,1.3-0.2,1.7-0.7c0.4-0.5,0.7-1.1,0.7-1.9c0-0.3,0-0.6,0-1c-0.1-0.8-0.3-1.4-0.7-1.9s-1-0.7-1.7-0.7s-1.2,0.2-1.6,0.7
	c-0.4,0.4-0.7,1.1-0.8,1.8c0,0.2,0,0.4,0,0.7C305.8,773.6,305.8,773.8,305.9,774z"/>
<path fill="#FFFFFF" d="M318.7,768.9c0.1,0,0.2,0,0.3,0.1c0.1,0.1,0.1,0.2,0.1,0.3v0.6c0,0.1,0,0.2-0.1,0.3s-0.2,0.1-0.3,0.1h-1
	c-1.2,0-1.9,0.7-1.9,1.9v4.9c0,0.1,0,0.2-0.1,0.3s-0.2,0.1-0.3,0.1h-0.6c-0.1,0-0.2,0-0.3-0.1c-0.1-0.1-0.1-0.2-0.1-0.3v-7.8
	c0-0.1,0-0.2,0.1-0.3c0.1-0.1,0.2-0.1,0.3-0.1h0.6c0.1,0,0.2,0,0.3,0.1c0.1,0.1,0.1,0.2,0.1,0.3v0.5c0.2-0.3,0.5-0.6,0.8-0.8
	c0.3-0.2,0.7-0.2,1.2-0.2L318.7,768.9L318.7,768.9z"/>
<path fill="#FFFFFF" d="M324,768.7c0.6,0,1.2,0.1,1.6,0.3c0.5,0.2,0.9,0.5,1.2,0.8c0.3,0.3,0.6,0.7,0.8,1.2c0.2,0.5,0.3,1,0.4,1.5
	c0,0.1,0,0.2,0,0.4c0,0.1,0,0.3,0,0.4c0,0.2,0,0.3,0,0.4s0,0.3,0,0.4c-0.1,0.6-0.2,1.1-0.4,1.5c-0.2,0.5-0.5,0.9-0.8,1.2
	c-0.3,0.3-0.8,0.6-1.2,0.8c-0.5,0.2-1,0.3-1.6,0.3c-0.6,0-1.2-0.1-1.6-0.3c-0.5-0.2-0.9-0.5-1.2-0.8c-0.3-0.3-0.6-0.7-0.8-1.2
	c-0.2-0.5-0.3-1-0.4-1.5c0-0.1,0-0.2,0-0.4c0-0.1,0-0.3,0-0.4c0-0.2,0-0.3,0-0.4c0-0.1,0-0.3,0-0.4c0-0.6,0.2-1.1,0.4-1.5
	c0.2-0.5,0.5-0.9,0.8-1.2c0.3-0.3,0.8-0.6,1.2-0.8C322.9,768.8,323.4,768.7,324,768.7z M326.4,774c0-0.2,0-0.4,0-0.7
	c0-0.3,0-0.5,0-0.7c0-0.3-0.1-0.7-0.2-1s-0.3-0.6-0.5-0.8c-0.2-0.2-0.5-0.4-0.8-0.5c-0.3-0.1-0.7-0.2-1.1-0.2
	c-0.4,0-0.8,0.1-1.1,0.2c-0.3,0.1-0.6,0.3-0.8,0.5s-0.4,0.5-0.5,0.8s-0.2,0.6-0.2,1c0,0.2,0,0.5,0,0.7c0,0.3,0,0.5,0,0.7
	c0,0.3,0.1,0.7,0.2,1s0.3,0.6,0.5,0.8c0.2,0.2,0.5,0.4,0.8,0.5s0.6,0.2,1.1,0.2c0.4,0,0.8-0.1,1.1-0.2c0.3-0.1,0.6-0.3,0.8-0.5
	c0.2-0.2,0.4-0.5,0.5-0.8C326.3,774.6,326.4,774.3,326.4,774z"/>
<path fill="#FFFFFF" d="M338,774.9l1.8-5.7c0-0.1,0.1-0.2,0.2-0.3s0.2-0.1,0.4-0.1h0.6c0.1,0,0.2,0,0.3,0.1c0.1,0.1,0.1,0.2,0.1,0.3
	v0.1L339,777c0,0.1-0.1,0.3-0.2,0.3c-0.1,0.1-0.2,0.1-0.3,0.1h-0.5c-0.1,0-0.3,0-0.3-0.1c-0.1-0.1-0.1-0.2-0.2-0.3l-2-5.6l-2,5.6
	c-0.1,0.1-0.1,0.2-0.2,0.3s-0.2,0.1-0.3,0.1h-0.6c-0.1,0-0.3,0-0.3-0.1c-0.1-0.1-0.1-0.2-0.2-0.3l-2.5-7.7v-0.1c0-0.1,0-0.2,0.1-0.3
	c0.1-0.1,0.2-0.1,0.3-0.1h0.6c0.2,0,0.3,0,0.4,0.1c0.1,0.1,0.2,0.2,0.2,0.3l1.8,5.7l2-5.7c0-0.1,0.1-0.2,0.2-0.3s0.2-0.1,0.4-0.1
	h0.4c0.2,0,0.3,0,0.4,0.1c0.1,0.1,0.1,0.2,0.2,0.3L338,774.9z"/>
<path fill="#FFFFFF" d="M348.1,775.2c0-0.2-0.1-0.4-0.2-0.5c-0.1-0.1-0.3-0.3-0.5-0.4c-0.2-0.1-0.6-0.2-0.9-0.3
	c-0.4-0.1-0.8-0.2-1.2-0.3c-0.9-0.2-1.5-0.5-1.9-1c-0.4-0.5-0.6-1-0.6-1.5c0-0.3,0.1-0.7,0.2-1s0.3-0.6,0.6-0.8
	c0.3-0.2,0.6-0.4,1-0.6c0.4-0.1,0.9-0.2,1.4-0.2c0.6,0,1.1,0.1,1.4,0.2c0.3,0.1,0.8,0.3,1.1,0.5s0.5,0.4,0.7,0.6
	c0.1,0.2,0.2,0.4,0.2,0.6c0,0.1,0,0.2-0.1,0.3s-0.2,0.1-0.3,0.1h-0.6c-0.1,0-0.2,0-0.3,0c-0.1,0-0.2-0.1-0.3-0.2
	c-0.1-0.2-0.4-0.4-0.7-0.5c-0.3-0.1-0.7-0.2-1.2-0.2c-0.5,0-1,0.1-1.2,0.3c-0.3,0.2-0.5,0.5-0.5,0.8c0,0.2,0,0.4,0.1,0.5
	c0.1,0.1,0.2,0.2,0.4,0.3c0.2,0.1,0.5,0.2,0.8,0.3s0.8,0.2,1.2,0.3c0.5,0.1,1,0.3,1.2,0.4c0.4,0.2,0.6,0.4,0.9,0.6
	c0.2,0.2,0.4,0.5,0.5,0.7c0.1,0.3,0.1,0.6,0.1,0.9s-0.1,0.7-0.3,1c-0.2,0.3-0.4,0.6-0.7,0.8c-0.3,0.2-0.7,0.4-1.1,0.6
	c-0.4,0.1-0.9,0.2-1.4,0.2c-0.6,0-1.1-0.1-1.4-0.2c-0.4-0.1-0.8-0.3-1.1-0.5s-0.5-0.4-0.7-0.7c-0.2-0.2-0.3-0.5-0.3-0.7
	c0-0.1,0-0.2,0.1-0.3s0.2-0.1,0.3-0.1h0.6c0.1,0,0.1,0,0.2,0s0.2,0.1,0.3,0.2c0.2,0.3,0.4,0.4,0.8,0.6c0.3,0.1,0.7,0.2,1.2,0.2
	c0.3,0,0.5,0,0.8-0.1c0.2-0.1,0.5-0.1,0.7-0.2c0.2-0.1,0.3-0.2,0.5-0.4C348,775.5,348.1,775.3,348.1,775.2z"/>
<path fill="#FFFFFF" d="M353.3,767.1c0,0.1,0,0.2-0.1,0.3s-0.2,0.1-0.3,0.1h-1c-0.1,0-0.2,0-0.3-0.1c-0.1-0.1-0.1-0.2-0.1-0.3v-1
	c0-0.1,0-0.2,0.1-0.3c0.1-0.1,0.2-0.1,0.3-0.1h1c0.1,0,0.2,0,0.3,0.1c0.1,0.1,0.1,0.2,0.1,0.3V767.1z M353.1,777.1
	c0,0.1,0,0.2-0.1,0.3s-0.2,0.1-0.3,0.1h-0.6c-0.1,0-0.2,0-0.3-0.1c-0.1-0.1-0.1-0.2-0.1-0.3v-7.8c0-0.1,0-0.2,0.1-0.3
	c0.1-0.1,0.2-0.1,0.3-0.1h0.6c0.1,0,0.2,0,0.3,0.1c0.1,0.1,0.1,0.2,0.1,0.3V777.1z"/>
<path fill="#FFFFFF" d="M363.3,777.1c0,0.1,0,0.2-0.1,0.3s-0.2,0.1-0.3,0.1h-0.6c-0.1,0-0.2,0-0.3-0.1c-0.1-0.1-0.1-0.2-0.1-0.3
	v-4.5c0-0.9-0.2-1.4-0.6-1.9c-0.4-0.4-1-0.7-1.7-0.7s-1.2,0.2-1.7,0.7c-0.4,0.4-0.7,1.1-0.7,1.9v4.5c0,0.1,0,0.2-0.1,0.3
	s-0.2,0.1-0.3,0.1h-0.5c-0.1,0-0.2,0-0.3-0.1c-0.1-0.1-0.1-0.2-0.1-0.3v-7.8c0-0.1,0-0.2,0.1-0.3c0.1-0.1,0.2-0.1,0.3-0.1h0.6
	c0.1,0,0.2,0,0.3,0.1s0.1,0.2,0.1,0.3v0.5c0.2-0.3,0.5-0.6,1-0.8c0.4-0.2,1-0.4,1.6-0.4c0.5,0,1,0.1,1.4,0.3
	c0.5,0.2,0.9,0.4,1.2,0.8c0.3,0.3,0.6,0.7,0.8,1.2c0.2,0.5,0.3,1,0.3,1.5v4.7H363.3z"/>
<path fill="#FFFFFF" d="M365.4,772.7c0-0.6,0.2-1.2,0.4-1.6c0.2-0.5,0.5-0.9,0.8-1.2c0.3-0.3,0.8-0.6,1.2-0.8c0.5-0.2,1-0.3,1.4-0.3
	c0.7,0,1.2,0.1,1.6,0.4c0.4,0.2,0.7,0.5,1,0.8v-0.5c0-0.1,0-0.2,0.1-0.3c0.1-0.1,0.2-0.1,0.3-0.1h0.6c0.1,0,0.2,0,0.3,0.1
	c0.1,0.1,0.1,0.2,0.1,0.3v8.2c0,1.2-0.3,2-1,2.8c-0.7,0.7-1.6,1.1-3,1.1c-0.7,0-1.2-0.1-1.7-0.2c-0.5-0.2-0.9-0.4-1.2-0.6
	c-0.3-0.3-0.6-0.5-0.7-0.8c-0.2-0.3-0.2-0.6-0.3-0.9c0-0.1,0-0.2,0.1-0.3s0.2-0.1,0.3-0.1h0.5c0.1,0,0.2,0,0.3,0.1
	c0.1,0.1,0.2,0.2,0.3,0.4c0,0.1,0.1,0.2,0.2,0.3s0.2,0.2,0.4,0.4c0.2,0.1,0.4,0.2,0.7,0.3c0.3,0.1,0.6,0.1,1,0.1s0.7,0,1.1-0.1
	c0.3-0.1,0.6-0.2,0.9-0.4c0.2-0.2,0.4-0.4,0.6-0.7c0.1-0.3,0.2-0.6,0.2-1.1v-1.1c-0.2,0.3-0.6,0.6-1,0.8c-0.4,0.2-1,0.4-1.6,0.4
	c-0.5,0-1-0.1-1.4-0.3c-0.5-0.2-0.9-0.5-1.2-0.8c-0.3-0.4-0.6-0.8-0.8-1.2c-0.2-0.5-0.3-1.1-0.4-1.6c0-0.2,0-0.4,0-0.6
	S365.4,772.9,365.4,772.7z M371.8,772.6c0-0.8-0.3-1.3-0.7-1.8c-0.5-0.4-1-0.7-1.7-0.7s-1.3,0.2-1.7,0.7c-0.4,0.5-0.7,1.1-0.7,1.9
	c0,0.3,0,0.6,0,1c0,0.8,0.3,1.4,0.7,1.9c0.4,0.5,1,0.7,1.7,0.7s1.2-0.2,1.7-0.7c0.5-0.5,0.7-1.1,0.7-1.8c0-0.2,0-0.4,0-0.6
	S371.8,772.8,371.8,772.6z"/>
<path fill="#FFFFFF" d="M383.5,768.7c0.6,0,1.2,0.1,1.6,0.3c0.5,0.2,0.9,0.5,1.2,0.8c0.3,0.3,0.6,0.7,0.8,1.2c0.2,0.5,0.3,1,0.4,1.5
	c0,0.1,0,0.2,0,0.4c0,0.1,0,0.3,0,0.4c0,0.2,0,0.3,0,0.4s0,0.3,0,0.4c-0.1,0.6-0.2,1.1-0.4,1.5c-0.2,0.5-0.5,0.9-0.8,1.2
	s-0.8,0.6-1.2,0.8c-0.5,0.2-1,0.3-1.6,0.3s-1.2-0.1-1.6-0.3c-0.5-0.2-0.9-0.5-1.2-0.8c-0.3-0.3-0.6-0.7-0.8-1.2
	c-0.2-0.5-0.3-1-0.4-1.5c0-0.1,0-0.2,0-0.4c0-0.1,0-0.3,0-0.4c0-0.2,0-0.3,0-0.4c0-0.1,0-0.3,0-0.4c0-0.6,0.2-1.1,0.4-1.5
	c0.2-0.5,0.5-0.9,0.8-1.2c0.3-0.3,0.8-0.6,1.2-0.8C382.3,768.8,382.9,768.7,383.5,768.7z M385.9,774c0-0.2,0-0.4,0-0.7
	c0-0.3,0-0.5,0-0.7c0-0.3-0.1-0.7-0.2-1c-0.1-0.3-0.3-0.6-0.5-0.8c-0.2-0.2-0.5-0.4-0.8-0.5c-0.3-0.1-0.7-0.2-1.1-0.2
	c-0.4,0-0.8,0.1-1.1,0.2c-0.3,0.1-0.6,0.3-0.8,0.5s-0.4,0.5-0.5,0.8s-0.2,0.6-0.2,1c0,0.2,0,0.5,0,0.7c0,0.3,0,0.5,0,0.7
	c0,0.3,0.1,0.7,0.2,1s0.3,0.6,0.5,0.8c0.2,0.2,0.5,0.4,0.8,0.5c0.3,0.1,0.6,0.2,1.1,0.2c0.4,0,0.8-0.1,1.1-0.2
	c0.3-0.1,0.6-0.3,0.8-0.5c0.2-0.2,0.4-0.5,0.5-0.8C385.8,774.6,385.9,774.3,385.9,774z"/>
<path fill="#FFFFFF" d="M389.5,769.3c0-0.1,0-0.2,0.1-0.3c0.1-0.1,0.2-0.1,0.3-0.1h0.6c0.1,0,0.2,0,0.3,0.1c0.1,0.1,0.1,0.2,0.1,0.3
	v4.5c0,0.9,0.2,1.4,0.6,1.9c0.4,0.4,1,0.7,1.6,0.7c0.7,0,1.2-0.2,1.6-0.7c0.4-0.4,0.6-1.1,0.6-1.9v-4.5c0-0.1,0-0.2,0.1-0.3
	c0.1-0.1,0.2-0.1,0.3-0.1h0.6c0.1,0,0.2,0,0.3,0.1s0.1,0.2,0.1,0.3v7.8c0,0.1,0,0.2-0.1,0.3s-0.2,0.1-0.3,0.1h-0.6
	c-0.1,0-0.2,0-0.3-0.1c-0.1-0.1-0.1-0.2-0.1-0.3v-0.5c-0.2,0.3-0.5,0.6-0.9,0.8c-0.4,0.2-1,0.4-1.6,0.4c-0.5,0-1-0.1-1.4-0.3
	c-0.5-0.2-0.8-0.4-1.2-0.8c-0.3-0.3-0.6-0.7-0.7-1.2c-0.2-0.5-0.3-1-0.3-1.5v-4.7L389.5,769.3L389.5,769.3z"/>
<path fill="#FFFFFF" d="M403.9,768.9c0.1,0,0.2,0,0.3,0.1c0.1,0.1,0.1,0.2,0.1,0.3v0.6c0,0.1,0,0.2-0.1,0.3s-0.2,0.1-0.3,0.1h-1
	c-1.2,0-1.9,0.7-1.9,1.9v4.9c0,0.1,0,0.2-0.1,0.3c-0.1,0.1-0.2,0.1-0.3,0.1H400c-0.1,0-0.2,0-0.3-0.1s-0.1-0.2-0.1-0.3v-7.8
	c0-0.1,0-0.2,0.1-0.3c0.1-0.1,0.2-0.1,0.3-0.1h0.6c0.1,0,0.2,0,0.3,0.1c0.1,0.1,0.1,0.2,0.1,0.3v0.5c0.2-0.3,0.5-0.6,0.8-0.8
	c0.3-0.2,0.7-0.2,1.2-0.2L403.9,768.9L403.9,768.9z"/>
<path fill="#FFFFFF" d="M417,776.1c0.1,0,0.2,0,0.3,0.1c0.1,0.1,0.1,0.2,0.1,0.3v0.6c0,0.1,0,0.2-0.1,0.3s-0.2,0.1-0.3,0.1h-6.8
	c-0.1,0-0.2,0-0.3-0.1c-0.1-0.1-0.1-0.2-0.1-0.3v-10.8c0-0.1,0-0.2,0.1-0.3s0.2-0.1,0.3-0.1h6.6c0.1,0,0.2,0,0.3,0.1
	c0.1,0.1,0.1,0.2,0.1,0.3v0.6c0,0.1,0,0.2-0.1,0.3c-0.1,0.1-0.2,0.1-0.3,0.1h-5.6v3.5h5.2c0.1,0,0.2,0,0.3,0.1
	c0.1,0.1,0.1,0.2,0.1,0.3v0.6c0,0.1,0,0.2-0.1,0.3s-0.2,0.1-0.3,0.1h-5.2v3.6h5.8V776.1z"/>
<path fill="#FFFFFF" d="M422.8,774.4l-2.3,3c0,0.1-0.1,0.1-0.2,0.2s-0.2,0.1-0.4,0.1H419c-0.1,0-0.2,0-0.3-0.1
	c-0.1-0.1-0.1-0.2-0.1-0.3s0-0.2,0.1-0.2l3.1-3.8l-2.9-3.5c0-0.1-0.1-0.1-0.1-0.2c0-0.1,0-0.2,0.1-0.3c0.1-0.1,0.2-0.1,0.3-0.1h0.8
	c0.1,0,0.3,0,0.4,0.1c0.1,0.1,0.2,0.1,0.2,0.2l2.2,2.8l2.2-2.8c0-0.1,0.1-0.1,0.2-0.2c0.1-0.1,0.2-0.1,0.4-0.1h0.8
	c0.1,0,0.2,0,0.3,0.1c0.1,0.1,0.1,0.2,0.1,0.3c0,0.1,0,0.2-0.1,0.2l-2.9,3.6l3,3.7c0,0.1,0.1,0.1,0.1,0.2c0,0.1,0,0.2-0.1,0.3
	c-0.1,0.1-0.2,0.1-0.3,0.1h-0.8c-0.1,0-0.3,0-0.4-0.1c-0.1-0.1-0.2-0.1-0.2-0.2L422.8,774.4z"/>
<path fill="#FFFFFF" d="M432.8,777.7c-0.7,0-1.2-0.1-1.6-0.4c-0.4-0.2-0.7-0.5-1-0.8v3.6c0,0.1,0,0.2-0.1,0.3s-0.2,0.1-0.3,0.1h-0.6
	c-0.1,0-0.2,0-0.3-0.1c-0.1-0.1-0.1-0.2-0.1-0.3v-10.9c0-0.1,0-0.2,0.1-0.3c0.1-0.1,0.2-0.1,0.3-0.1h0.6c0.1,0,0.2,0,0.3,0.1
	c0.1,0.1,0.1,0.2,0.1,0.3v0.5c0.2-0.3,0.6-0.6,1-0.8c0.4-0.2,1-0.4,1.6-0.4c0.5,0,1,0.1,1.4,0.3c0.4,0.2,0.9,0.5,1.2,0.8
	c0.3,0.4,0.6,0.8,0.8,1.2c0.2,0.5,0.3,1.1,0.4,1.6c0,0.2,0,0.4,0,0.6c0,0.2,0,0.4,0,0.6c0,0.6-0.2,1.2-0.4,1.6
	c-0.2,0.5-0.5,0.9-0.8,1.2c-0.3,0.4-0.8,0.6-1.2,0.8C433.9,777.6,433.4,777.7,432.8,777.7z M430.3,772.5c0,0.2,0,0.4,0,0.7
	c0,0.3,0,0.5,0,0.7c0,0.8,0.3,1.3,0.7,1.8c0.5,0.4,1,0.7,1.7,0.7c0.8,0,1.3-0.2,1.7-0.7c0.4-0.5,0.7-1.1,0.7-1.9c0-0.3,0-0.6,0-1
	c0-0.8-0.3-1.4-0.7-1.9s-1-0.7-1.7-0.7s-1.2,0.2-1.7,0.7C430.6,771.2,430.3,771.9,430.3,772.5z"/>
<path fill="#FFFFFF" d="M440.3,777.1c0,0.1,0,0.2-0.1,0.3s-0.2,0.1-0.3,0.1h-0.6c-0.1,0-0.2,0-0.3-0.1c-0.1-0.1-0.1-0.2-0.1-0.3
	v-10.9c0-0.1,0-0.2,0.1-0.3c0.1-0.1,0.2-0.1,0.3-0.1h0.6c0.1,0,0.2,0,0.3,0.1c0.1,0.1,0.1,0.2,0.1,0.3V777.1z"/>
<path fill="#FFFFFF" d="M446.4,768.7c0.6,0,1.2,0.1,1.6,0.3c0.5,0.2,0.9,0.5,1.2,0.8c0.3,0.3,0.6,0.7,0.8,1.2c0.2,0.5,0.3,1,0.4,1.5
	c0,0.1,0,0.2,0,0.4c0,0.1,0,0.3,0,0.4c0,0.2,0,0.3,0,0.4s0,0.3,0,0.4c-0.1,0.6-0.2,1.1-0.4,1.5c-0.2,0.4-0.5,0.9-0.8,1.2
	c-0.3,0.3-0.8,0.6-1.2,0.8c-0.5,0.2-1,0.3-1.6,0.3c-0.7,0-1.2-0.1-1.6-0.3c-0.5-0.2-0.9-0.5-1.2-0.8c-0.3-0.3-0.6-0.7-0.8-1.2
	c-0.2-0.5-0.3-1-0.4-1.5c0-0.1,0-0.2,0-0.4c0-0.1,0-0.3,0-0.4c0-0.2,0-0.3,0-0.4c0-0.1,0-0.3,0-0.4c0-0.6,0.2-1.1,0.4-1.5
	c0.2-0.5,0.5-0.9,0.8-1.2c0.3-0.3,0.8-0.6,1.2-0.8C445.2,768.8,445.7,768.7,446.4,768.7z M448.8,774c0-0.2,0-0.4,0-0.7
	c0-0.3,0-0.5,0-0.7c0-0.3-0.1-0.7-0.2-1s-0.3-0.6-0.5-0.8c-0.2-0.2-0.5-0.4-0.8-0.5c-0.3-0.1-0.7-0.2-1.1-0.2
	c-0.4,0-0.8,0.1-1.1,0.2c-0.3,0.1-0.6,0.3-0.8,0.5s-0.4,0.5-0.5,0.8c-0.1,0.3-0.2,0.6-0.2,1c0,0.2,0,0.5,0,0.7c0,0.3,0,0.5,0,0.7
	c0,0.3,0.1,0.7,0.2,1c0.1,0.3,0.3,0.6,0.5,0.8c0.2,0.2,0.5,0.4,0.8,0.5s0.6,0.2,1.1,0.2c0.4,0,0.8-0.1,1.1-0.2
	c0.3-0.1,0.6-0.3,0.8-0.5c0.2-0.2,0.4-0.5,0.5-0.8C448.7,774.6,448.7,774.3,448.8,774z"/>
<path fill="#FFFFFF" d="M456.9,768.9c0.1,0,0.2,0,0.3,0.1c0.1,0.1,0.1,0.2,0.1,0.3v0.6c0,0.1,0,0.2-0.1,0.3s-0.2,0.1-0.3,0.1h-1
	c-1.2,0-1.9,0.7-1.9,1.9v4.9c0,0.1,0,0.2-0.1,0.3s-0.2,0.1-0.3,0.1h-0.6c-0.1,0-0.2,0-0.3-0.1c-0.1-0.1-0.1-0.2-0.1-0.3v-7.8
	c0-0.1,0-0.2,0.1-0.3c0.1-0.1,0.2-0.1,0.3-0.1h0.6c0.1,0,0.2,0,0.3,0.1c0.1,0.1,0.1,0.2,0.1,0.3v0.5c0.2-0.3,0.5-0.6,0.8-0.8
	c0.3-0.2,0.7-0.2,1.2-0.2L456.9,768.9L456.9,768.9z"/>
<path fill="#FFFFFF" d="M458.1,775.4c0-0.5,0.1-0.9,0.3-1.2c0.2-0.3,0.4-0.6,0.8-0.9c0.3-0.2,0.7-0.4,1.1-0.6
	c0.4-0.1,0.9-0.3,1.3-0.3l2.3-0.4v-0.2c0-0.6-0.2-1-0.6-1.2c-0.4-0.2-0.9-0.4-1.3-0.4c-0.4,0-0.9,0.1-1.1,0.3
	c-0.3,0.2-0.5,0.4-0.7,0.7c-0.1,0.1-0.1,0.2-0.2,0.2s-0.2,0.1-0.3,0.1h-0.5c-0.1,0-0.2,0-0.3-0.1c-0.1-0.1-0.1-0.2-0.1-0.3
	c0-0.3,0.1-0.5,0.3-0.8c0.2-0.3,0.4-0.5,0.7-0.7c0.3-0.2,0.7-0.4,1.1-0.5c0.4-0.1,0.8-0.2,1.2-0.2s1,0.1,1.3,0.2
	c0.3,0.1,0.8,0.4,1.1,0.7c0.3,0.3,0.6,0.6,0.7,1.1c0.2,0.4,0.3,0.9,0.3,1.4v5.2c0,0.1,0,0.2-0.1,0.3c-0.1,0.1-0.2,0.1-0.3,0.1h-0.6
	c-0.1,0-0.2,0-0.3-0.1c-0.1-0.1-0.1-0.2-0.1-0.3v-1.1c-0.1,0.2-0.3,0.4-0.5,0.6c-0.2,0.2-0.5,0.3-0.8,0.4c-0.3,0.1-0.6,0.2-0.9,0.3
	c-0.3,0.1-0.6,0.1-0.9,0.1c-0.4,0-0.9-0.1-1.2-0.2c-0.4-0.1-0.7-0.3-0.9-0.5c-0.3-0.2-0.5-0.5-0.6-0.8
	C458.1,776.1,458.1,775.7,458.1,775.4z M461.1,776.3c0.4,0,0.8-0.1,1.1-0.2c0.3-0.1,0.6-0.3,0.9-0.5c0.2-0.2,0.4-0.5,0.6-0.8
	c0.1-0.3,0.2-0.7,0.2-1v-0.4l-1.9,0.3c-0.7,0.1-1.2,0.3-1.6,0.6c-0.4,0.3-0.6,0.6-0.6,1c0,0.1,0,0.3,0.1,0.4s0.1,0.2,0.3,0.4
	c0.2,0.2,0.3,0.2,0.5,0.3C460.5,776.3,460.8,776.3,461.1,776.3z"/>
<path fill="#FFFFFF" d="M469.9,774.6c0,0.2,0,0.4,0.1,0.6c0,0.2,0.1,0.4,0.2,0.5c0.1,0.1,0.3,0.2,0.4,0.3c0.2,0.1,0.4,0.1,0.7,0.1
	h0.9c0.1,0,0.2,0,0.3,0.1c0.1,0.1,0.1,0.2,0.1,0.3v0.6c0,0.1,0,0.2-0.1,0.3s-0.2,0.1-0.3,0.1h-1.1c-1,0-1.6-0.3-2.1-0.8
	c-0.5-0.5-0.7-1.2-0.7-2.1v-4.4h-1.1c-0.1,0-0.2,0-0.3-0.1c-0.1-0.1-0.1-0.2-0.1-0.3v-0.6c0-0.1,0-0.2,0.1-0.3s0.2-0.1,0.3-0.1h1.2
	v-2.7c0-0.1,0-0.2,0.1-0.3s0.2-0.1,0.3-0.1h0.6c0.1,0,0.2,0,0.3,0.1c0.1,0.1,0.1,0.2,0.1,0.3v2.7h2.1c0.1,0,0.2,0,0.3,0.1
	c0.1,0.1,0.1,0.2,0.1,0.3v0.6c0,0.1,0,0.2-0.1,0.3c-0.1,0.1-0.2,0.1-0.3,0.1h-2.1L469.9,774.6L469.9,774.6z"/>
<path fill="#FFFFFF" d="M476.1,767.1c0,0.1,0,0.2-0.1,0.3c-0.1,0.1-0.2,0.1-0.3,0.1h-1c-0.1,0-0.2,0-0.3-0.1
	c-0.1-0.1-0.1-0.2-0.1-0.3v-1c0-0.1,0-0.2,0.1-0.3c0.1-0.1,0.2-0.1,0.3-0.1h1c0.1,0,0.2,0,0.3,0.1c0.1,0.1,0.1,0.2,0.1,0.3V767.1z
	 M475.9,777.1c0,0.1,0,0.2-0.1,0.3s-0.2,0.1-0.3,0.1h-0.6c-0.1,0-0.2,0-0.3-0.1c-0.1-0.1-0.1-0.2-0.1-0.3v-7.8c0-0.1,0-0.2,0.1-0.3
	c0.1-0.1,0.2-0.1,0.3-0.1h0.6c0.1,0,0.2,0,0.3,0.1c0.1,0.1,0.1,0.2,0.1,0.3V777.1z"/>
<path fill="#FFFFFF" d="M482,768.7c0.6,0,1.2,0.1,1.6,0.3c0.5,0.2,0.9,0.5,1.2,0.8c0.3,0.3,0.6,0.7,0.8,1.2c0.2,0.5,0.3,1,0.4,1.5
	c0,0.1,0,0.2,0,0.4c0,0.1,0,0.3,0,0.4c0,0.2,0,0.3,0,0.4s0,0.3,0,0.4c-0.1,0.6-0.2,1.1-0.4,1.5c-0.2,0.5-0.5,0.9-0.8,1.2
	s-0.8,0.6-1.2,0.8c-0.5,0.2-1,0.3-1.6,0.3c-0.7,0-1.2-0.1-1.6-0.3c-0.5-0.2-0.9-0.5-1.2-0.8c-0.3-0.3-0.6-0.7-0.8-1.2
	c-0.2-0.5-0.3-1-0.4-1.5c0-0.1,0-0.2,0-0.4c0-0.1,0-0.3,0-0.4c0-0.2,0-0.3,0-0.4c0-0.1,0-0.3,0-0.4c0-0.6,0.2-1.1,0.4-1.5
	c0.2-0.5,0.5-0.9,0.8-1.2c0.3-0.3,0.8-0.6,1.2-0.8C480.9,768.8,481.5,768.7,482,768.7z M484.4,774c0-0.2,0-0.4,0-0.7
	c0-0.3,0-0.5,0-0.7c0-0.3-0.1-0.7-0.2-1s-0.3-0.6-0.5-0.8c-0.2-0.2-0.5-0.4-0.8-0.5c-0.3-0.1-0.7-0.2-1.1-0.2
	c-0.4,0-0.8,0.1-1.1,0.2c-0.3,0.1-0.6,0.3-0.8,0.5c-0.2,0.2-0.4,0.5-0.5,0.8s-0.2,0.6-0.2,1c0,0.2,0,0.5,0,0.7c0,0.3,0,0.5,0,0.7
	c0,0.3,0.1,0.7,0.2,1s0.3,0.6,0.5,0.8c0.2,0.2,0.5,0.4,0.8,0.5c0.3,0.1,0.6,0.2,1.1,0.2c0.4,0,0.8-0.1,1.1-0.2
	c0.3-0.1,0.6-0.3,0.8-0.5c0.2-0.2,0.4-0.5,0.5-0.8C484.3,774.6,484.4,774.3,484.4,774z"/>
<path fill="#FFFFFF" d="M496,777.1c0,0.1,0,0.2-0.1,0.3c-0.1,0.1-0.2,0.1-0.3,0.1h-0.6c-0.1,0-0.2,0-0.3-0.1
	c-0.1-0.1-0.1-0.2-0.1-0.3v-4.5c0-0.9-0.2-1.4-0.6-1.9c-0.4-0.4-1-0.7-1.7-0.7c-0.7,0-1.2,0.2-1.7,0.7c-0.4,0.4-0.7,1.1-0.7,1.9v4.5
	c0,0.1,0,0.2-0.1,0.3s-0.2,0.1-0.3,0.1h-0.8c-0.1,0-0.2,0-0.3-0.1s-0.1-0.2-0.1-0.3v-7.8c0-0.1,0-0.2,0.1-0.3
	c0.1-0.1,0.2-0.1,0.3-0.1h0.6c0.1,0,0.2,0,0.3,0.1s0.1,0.2,0.1,0.3v0.5c0.2-0.3,0.5-0.6,1-0.8c0.4-0.2,1-0.4,1.6-0.4
	c0.5,0,1,0.1,1.4,0.3c0.5,0.2,0.9,0.4,1.2,0.8c0.3,0.3,0.6,0.7,0.8,1.2c0.2,0.5,0.3,1,0.3,1.5L496,777.1L496,777.1z"/>
<path fill="#FFFFFF" d="M503.2,775.2c0-0.2-0.1-0.4-0.2-0.5c-0.1-0.1-0.3-0.3-0.5-0.4c-0.2-0.1-0.6-0.2-0.9-0.3
	c-0.4-0.1-0.8-0.2-1.2-0.3c-0.9-0.2-1.5-0.5-1.9-1c-0.4-0.5-0.6-1-0.6-1.5c0-0.3,0.1-0.7,0.2-1s0.3-0.6,0.6-0.8
	c0.3-0.2,0.6-0.4,1-0.6c0.4-0.1,0.9-0.2,1.4-0.2c0.5,0,1.1,0.1,1.4,0.2c0.3,0.1,0.8,0.3,1.1,0.5c0.3,0.2,0.5,0.4,0.7,0.6
	c0.1,0.2,0.2,0.4,0.2,0.6c0,0.1,0,0.2-0.1,0.3c-0.1,0.1-0.2,0.1-0.3,0.1h-0.6c-0.1,0-0.2,0-0.3,0c-0.1,0-0.2-0.1-0.3-0.2
	c-0.1-0.2-0.4-0.4-0.7-0.5c-0.3-0.1-0.7-0.2-1.2-0.2c-0.5,0-1,0.1-1.2,0.3c-0.3,0.2-0.5,0.5-0.5,0.8c0,0.2,0,0.4,0.1,0.5
	c0.1,0.1,0.2,0.2,0.4,0.3c0.2,0.1,0.5,0.2,0.8,0.3c0.3,0.1,0.8,0.2,1.2,0.3c0.5,0.1,1,0.3,1.2,0.4c0.4,0.2,0.6,0.4,0.9,0.6
	c0.2,0.2,0.4,0.5,0.5,0.7c0.1,0.3,0.1,0.6,0.1,0.9s-0.1,0.7-0.3,1s-0.4,0.6-0.7,0.8s-0.7,0.4-1.1,0.6c-0.4,0.1-0.9,0.2-1.4,0.2
	c-0.5,0-1.1-0.1-1.4-0.2c-0.4-0.1-0.8-0.3-1.1-0.5c-0.3-0.2-0.5-0.4-0.7-0.7c-0.2-0.2-0.3-0.5-0.3-0.7c0-0.1,0-0.2,0.1-0.3
	s0.2-0.1,0.3-0.1h0.6c0.1,0,0.1,0,0.2,0c0.1,0,0.2,0.1,0.3,0.2c0.2,0.3,0.4,0.4,0.8,0.6c0.3,0.1,0.7,0.2,1.2,0.2
	c0.3,0,0.5,0,0.8-0.1c0.2-0.1,0.5-0.1,0.7-0.2c0.2-0.1,0.3-0.2,0.5-0.4C503.2,775.5,503.2,775.3,503.2,775.2z"/>
<path fill="#FFFFFF" d="M508.1,775.6c0.1,0,0.2,0,0.3,0.1c0.1,0.1,0.1,0.2,0.1,0.3v1.2c0,0.1,0,0.2-0.1,0.3s-0.2,0.1-0.3,0.1h-1
	c-0.1,0-0.2,0-0.3-0.1c-0.1-0.1-0.1-0.2-0.1-0.3V776c0-0.1,0-0.2,0.1-0.3c0.1-0.1,0.2-0.1,0.3-0.1H508.1z"/>
<rect x="13.7" y="532.1" fill="none" width="592" height="272.3"/>
<path fill="#FFFFFF" d="M371.2,683.4h32c-7.8-3.4-14.1-9.4-18.2-16.8C382.7,673.8,377.7,679.8,371.2,683.4z"/>
<path fill="#FFFFFF" d="M380.5,653.9c-3.4,2.5-7.3,4.2-11.7,4.8h2.3c1.3,0,2.3,1.1,2.3,2.3v10.8c0,1.3-1.1,2.3-2.3,2.3h-10.8
	c-1.3,0-2.3-1.1-2.3-2.3V661c0-1.3,1.1-2.3,2.3-2.3h3.1c-3.5-0.4-6.9-1.6-9.8-3.4c-0.3,0.2-0.7,0.3-1.1,0.3h-10.8
	c-1.3,0-2.3-1.1-2.3-2.3v-10.8c0-1.3,1.1-2.3,2.3-2.3h1.2c-0.4-1.6-0.5-3.3-0.5-5c0-0.3,0-0.7,0-1c-3.7,2.4-7,5.8-9.2,9.7
	c0.7,2.2,1.1,4.7,1.1,7.1c0,4.8-1.4,9.2-3.7,13.1c2.9,11.8,13.7,20.6,26.5,20.6c12.7,0,23.4-8.7,26.5-20.5
	C382.1,660.9,381,657.5,380.5,653.9z M354.7,672c0,1.3-1.1,2.3-2.3,2.3h-10.8c-1.3,0-2.3-1.1-2.3-2.3v-10.8c0-1.3,1.1-2.3,2.3-2.3
	h10.8c1.3,0,2.3,1.1,2.3,2.3V672z"/>
</svg>
