<?xml version="1.0" encoding="utf-8"?>
<!-- Generator: Adobe Illustrator 18.1.1, SVG Export Plug-In . SVG Version: 6.00 Build 0)  -->
<svg version="1.1" id="Layer_3" xmlns="http://www.w3.org/2000/svg" xmlns:xlink="http://www.w3.org/1999/xlink" x="0px" y="0px"
	 viewBox="0 303.1 612 185.8" enable-background="new 0 303.1 612 185.8" xml:space="preserve">
<circle fill="#F70B4E" cx="305.3" cy="405.5" r="53.6"/>
<path fill="#EEECEB" d="M396.7,425.1v-19.6H254.9c-10.8,0-19.6,8.7-19.6,19.6h-92.8v19.6h321.2v-19.6H396.7z"/>
<g>
	<path fill="#A5A483" d="M575.5,478.5c0.2,0.1,0.2,0.2,0,0.2h-397c-0.2,0-0.2-0.1,0-0.1l47.8-16.2c0.2-0.1,0.5,0,0.7,0l14.8,7.3
		c0.2,0.1,0.5,0.1,0.7,0.1l62.5-18.7c0.2-0.1,0.5-0.1,0.7,0l39,8c0.2,0,0.5,0.1,0.7,0l54.4-6.6c0.2,0,0.5,0,0.7,0l40.6,6.2
		c0.2,0,0.5,0,0.7,0l58.8-17.4c0.2-0.1,0.5,0,0.7,0.1L575.5,478.5z"/>
</g>
<circle fill="#AFD2ED" cx="356.6" cy="413.2" r="28.7"/>
<g>
	<g>
		<path fill="#F7F5F5" d="M370.6,419.1h-9.1c-0.3,0-0.5,0.2-0.5,0.5v1.2c0,0.3,0.2,0.5,0.5,0.5h9.1c0.3,0,0.5-0.2,0.5-0.5v-1.1
			C371.2,419.4,370.9,419.1,370.6,419.1z"/>
		<path fill="#F7F5F5" d="M370.6,423.7h-9.1c-0.3,0-0.5,0.2-0.5,0.5v1.2c0,0.3,0.2,0.5,0.5,0.5h9.1c0.3,0,0.5-0.2,0.5-0.5v-1.1
			C371.2,424.1,370.9,423.7,370.6,423.7z"/>
		<path fill="#F7F5F5" d="M351.7,402.6h-2.8c-0.3,0-0.5-0.2-0.5-0.5v-2.8c0-0.3-0.2-0.5-0.5-0.5h-1.2c-0.3,0-0.5,0.2-0.5,0.5v2.8
			c0,0.3-0.2,0.5-0.5,0.5h-2.8c-0.3,0-0.5,0.2-0.5,0.5v1.2c0,0.3,0.2,0.5,0.5,0.5h2.8c0.3,0,0.5,0.2,0.5,0.5v2.8
			c0,0.3,0.2,0.5,0.5,0.5h1.2c0.3,0,0.5-0.2,0.5-0.5v-2.8c0-0.3,0.2-0.5,0.5-0.5h2.8c0.3,0,0.5-0.2,0.5-0.5v-1.2
			C352.2,402.8,352,402.6,351.7,402.6z"/>
		<path fill="#F7F5F5" d="M351.2,420.2c0.2-0.2,0.2-0.6,0-0.8l-0.8-0.8c-0.2-0.2-0.6-0.2-0.8,0l-2,2c-0.2,0.2-0.6,0.2-0.8,0l-2-2
			c-0.2-0.2-0.6-0.2-0.8,0l-0.8,0.8c-0.2,0.2-0.2,0.6,0,0.8l2,2c0.2,0.2,0.2,0.6,0,0.8l-2,2c-0.2,0.2-0.2,0.6,0,0.8l0.8,0.8
			c0.2,0.2,0.6,0.2,0.8,0l2-2c0.2-0.2,0.6-0.2,0.8,0l2,2c0.2,0.2,0.6,0.2,0.8,0l0.8-0.8c0.2-0.2,0.2-0.6,0-0.8l-2-2
			c-0.2-0.2-0.2-0.6,0-0.8L351.2,420.2z"/>
		<path fill="#F7F5F5" d="M356.6,382.1c-17.2,0-31.1,13.9-31.1,31.1s13.9,31.1,31.1,31.1s31.1-13.9,31.1-31.1
			S373.8,382.1,356.6,382.1z M355,428.1c0,1.3-1,2.4-2.4,2.4h-11c-1.3,0-2.4-1-2.4-2.4v-11c0-1.3,1-2.4,2.4-2.4h11
			c1.3,0,2.4,1,2.4,2.4V428.1z M355,409.2c0,1.3-1,2.4-2.4,2.4h-11c-1.3,0-2.4-1-2.4-2.4v-11c0-1.3,1-2.4,2.4-2.4h11
			c1.3,0,2.4,1,2.4,2.4V409.2z M373.9,428.1c0,1.3-1,2.4-2.4,2.4h-11c-1.3,0-2.4-1-2.4-2.4v-11c0-1.3,1-2.4,2.4-2.4h11
			c1.3,0,2.4,1,2.4,2.4V428.1z M373.9,409.2c0,1.3-1,2.4-2.4,2.4h-11c-1.3,0-2.4-1-2.4-2.4v-11c0-1.3,1-2.4,2.4-2.4h11
			c1.3,0,2.4,1,2.4,2.4V409.2z"/>
		<path fill="#F7F5F5" d="M370.6,402.6h-9.1c-0.3,0-0.5,0.2-0.5,0.5v1.2c0,0.3,0.2,0.5,0.5,0.5h9.1c0.3,0,0.5-0.2,0.5-0.5v-1.2
			C371.2,402.8,370.9,402.6,370.6,402.6z"/>
	</g>
</g>
<circle fill="#AFD2ED" cx="398" cy="368.4" r="27.6"/>
<g>
	<g>
		<circle fill="#F7F5F5" cx="398" cy="368.5" r="2.6"/>
		<path fill="#F7F5F5" d="M414,368.5c0-1.5,1.1-2.6,2.6-2.6c0.7,0,1.3,0.3,1.9,0.7c-0.9-9.9-8.7-17.6-18.6-18.6
			c0.5,0.5,0.7,1.1,0.7,1.9c0,1.5-1.1,2.6-2.6,2.6s-2.6-1.1-2.6-2.6c0-0.7,0.3-1.3,0.7-1.9c-9.9,0.9-17.6,8.7-18.6,18.6
			c0.5-0.5,1.1-0.7,1.9-0.7c1.5,0,2.6,1.1,2.6,2.6s-1.1,2.6-2.6,2.6c-0.7,0-1.3-0.3-1.9-0.7c0.9,9.9,8.7,17.6,18.6,18.6
			c-0.5-0.5-0.7-1.1-0.7-1.9c0-1.5,1.1-2.6,2.6-2.6s2.6,1.1,2.6,2.6c0,0.7-0.3,1.3-0.7,1.9c9.9-0.9,17.6-8.7,18.6-18.6
			c-0.5,0.5-1.1,0.7-1.9,0.7C415.2,371.1,414,369.8,414,368.5z M401.3,371.7L401.3,371.7l-14.6,8.1l8.1-14.6l0,0l14.6-8.1
			L401.3,371.7z"/>
		<path fill="#F7F5F5" d="M398,337.5c-17.1,0-30.9,13.9-30.9,30.9s13.9,30.9,30.9,30.9c17.1,0,30.9-13.9,30.9-30.9
			S415.2,337.5,398,337.5z M398,394.2c-14.2,0-25.8-11.5-25.8-25.8s11.5-25.8,25.8-25.8s25.8,11.5,25.8,25.8
			C423.9,382.7,412.3,394.2,398,394.2z"/>
	</g>
</g>
<circle fill="#AFD2ED" cx="421.8" cy="403.9" r="37.2"/>
<g>
	<path fill="#F3F4F5" d="M418.2,411.7c-0.4,0-0.7,0.2-0.9,0.6c-0.2,0.4-0.3,1-0.3,1.9c0,0.8,0.1,1.5,0.3,1.9
		c0.2,0.4,0.5,0.7,0.9,0.7s0.7-0.2,1-0.7s0.3-1,0.3-1.9c0-0.8-0.1-1.5-0.3-1.9C419,412,418.7,411.7,418.2,411.7z"/>
	<path fill="#F3F4F5" d="M418.2,421.7c-0.4,0-0.7,0.2-0.9,0.6c-0.2,0.4-0.3,1-0.3,1.9c0,0.8,0.1,1.5,0.3,1.9
		c0.2,0.4,0.5,0.6,0.9,0.6s0.7-0.2,1-0.6c0.2-0.4,0.3-1,0.3-1.9c0-0.8-0.1-1.5-0.3-1.9C419,421.9,418.7,421.7,418.2,421.7z"/>
	<path fill="#F3F4F5" d="M411,382.2c-0.4,0-0.7,0.2-0.9,0.6c-0.2,0.4-0.3,1-0.3,1.9s0.1,1.5,0.3,1.9c0.2,0.4,0.5,0.7,0.9,0.7
		s0.7-0.2,1-0.7s0.3-1,0.3-1.9s-0.1-1.5-0.3-1.9C411.8,382.4,411.4,382.2,411,382.2z"/>
	<path fill="#F3F4F5" d="M418.2,401.9c-0.4,0-0.7,0.2-0.9,0.6c-0.2,0.4-0.3,1-0.3,1.9c0,0.8,0.1,1.5,0.3,1.9
		c0.2,0.4,0.5,0.7,0.9,0.7s0.7-0.2,1-0.7c0.2-0.4,0.3-1,0.3-1.9c0-0.8-0.1-1.5-0.3-1.9C419,402.1,418.7,401.9,418.2,401.9z"/>
	<path fill="#F3F4F5" d="M418.2,392c-0.4,0-0.7,0.2-0.9,0.6c-0.2,0.4-0.3,1-0.3,1.9s0.1,1.5,0.3,1.9c0.2,0.4,0.5,0.7,0.9,0.7
		s0.7-0.2,1-0.7s0.3-1,0.3-1.9s-0.1-1.5-0.3-1.9C419,392.2,418.7,392,418.2,392z"/>
	<path fill="#F3F4F5" d="M403.9,382.2c-0.4,0-0.7,0.2-0.9,0.6c-0.2,0.4-0.3,1-0.3,1.9s0.1,1.5,0.3,1.9c0.2,0.4,0.5,0.7,0.9,0.7
		s0.7-0.2,1-0.7s0.3-1,0.3-1.9s-0.1-1.5-0.3-1.9C404.7,382.4,404.3,382.2,403.9,382.2z"/>
	<path fill="#F3F4F5" d="M411,411.7c-0.4,0-0.7,0.2-0.9,0.6c-0.2,0.4-0.3,1-0.3,1.9c0,0.8,0.1,1.5,0.3,1.9c0.2,0.4,0.5,0.7,0.9,0.7
		s0.7-0.2,1-0.7s0.3-1,0.3-1.9c0-0.8-0.1-1.5-0.3-1.9C411.7,412,411.4,411.7,411,411.7z"/>
	<path fill="#F3F4F5" d="M403.9,401.9c-0.4,0-0.7,0.2-0.9,0.6c-0.2,0.4-0.3,1-0.3,1.9c0,0.8,0.1,1.5,0.3,1.9
		c0.2,0.4,0.5,0.7,0.9,0.7s0.7-0.2,1-0.7c0.2-0.4,0.3-1,0.3-1.9c0-0.8-0.1-1.5-0.3-1.9S404.3,401.9,403.9,401.9z"/>
	<path fill="#F3F4F5" d="M403.9,421.7c-0.4,0-0.7,0.2-0.9,0.6c-0.2,0.4-0.3,1-0.3,1.9c0,0.8,0.1,1.5,0.3,1.9
		c0.2,0.4,0.5,0.6,0.9,0.6s0.7-0.2,1-0.6c0.2-0.4,0.3-1,0.3-1.9c0-0.8-0.1-1.5-0.3-1.9C404.6,421.9,404.3,421.7,403.9,421.7z"/>
	<path fill="#F3F4F5" d="M403.9,411.7c-0.4,0-0.7,0.2-0.9,0.6c-0.2,0.4-0.3,1-0.3,1.9c0,0.8,0.1,1.5,0.3,1.9
		c0.2,0.4,0.5,0.7,0.9,0.7s0.7-0.2,1-0.7s0.3-1,0.3-1.9c0-0.8-0.1-1.5-0.3-1.9C404.6,412,404.3,411.7,403.9,411.7z"/>
	<path fill="#F3F4F5" d="M432.6,411.7c-0.4,0-0.7,0.2-0.9,0.6c-0.2,0.4-0.3,1-0.3,1.9c0,0.8,0.1,1.5,0.3,1.9
		c0.2,0.4,0.5,0.7,0.9,0.7s0.7-0.2,1-0.7s0.3-1,0.3-1.9c0-0.8-0.1-1.5-0.3-1.9C433.4,412,433.1,411.7,432.6,411.7z"/>
	<path fill="#F3F4F5" d="M403.9,392c-0.4,0-0.7,0.2-0.9,0.6c-0.2,0.4-0.3,1-0.3,1.9s0.1,1.5,0.3,1.9c0.2,0.4,0.5,0.7,0.9,0.7
		s0.7-0.2,1-0.7s0.3-1,0.3-1.9s-0.1-1.5-0.3-1.9C404.6,392.2,404.3,392,403.9,392z"/>
	<path fill="#F3F4F5" d="M425.4,421.7c-0.4,0-0.7,0.2-0.9,0.6c-0.2,0.4-0.3,1-0.3,1.9c0,0.8,0.1,1.5,0.3,1.9
		c0.2,0.4,0.5,0.6,0.9,0.6s0.7-0.2,1-0.6c0.2-0.4,0.3-1,0.3-1.9c0-0.8-0.1-1.5-0.3-1.9C426.1,421.9,425.8,421.7,425.4,421.7z"/>
	<path fill="#F3F4F5" d="M439.8,392c-0.4,0-0.7,0.2-0.9,0.6c-0.2,0.4-0.3,1-0.3,1.9s0.1,1.5,0.3,1.9c0.2,0.4,0.5,0.7,0.9,0.7
		s0.7-0.2,1-0.7s0.3-1,0.3-1.9s-0.1-1.5-0.3-1.9S440.3,392,439.8,392z"/>
	<path fill="#F3F4F5" d="M439.8,401.9c-0.4,0-0.7,0.2-0.9,0.6c-0.2,0.4-0.3,1-0.3,1.9c0,0.8,0.1,1.5,0.3,1.9
		c0.2,0.4,0.5,0.7,0.9,0.7s0.7-0.2,1-0.7c0.2-0.4,0.3-1,0.3-1.9c0-0.8-0.1-1.5-0.3-1.9C440.6,402.2,440.3,401.9,439.8,401.9z"/>
	<path fill="#F3F4F5" d="M432.6,392c-0.4,0-0.7,0.2-0.9,0.6c-0.2,0.4-0.3,1-0.3,1.9s0.1,1.5,0.3,1.9c0.2,0.4,0.5,0.7,0.9,0.7
		s0.7-0.2,1-0.7s0.3-1,0.3-1.9s-0.1-1.5-0.3-1.9C433.4,392.2,433.1,392,432.6,392z"/>
	<path fill="#F3F4F5" d="M439.8,421.7c-0.4,0-0.7,0.2-0.9,0.6c-0.2,0.4-0.3,1-0.3,1.9c0,0.8,0.1,1.5,0.3,1.9s0.5,0.6,0.9,0.6
		s0.7-0.2,1-0.6c0.2-0.4,0.3-1,0.3-1.9c0-0.8-0.1-1.5-0.3-1.9C440.6,421.9,440.3,421.7,439.8,421.7z"/>
	<path fill="#F3F4F5" d="M421.9,363.7c-22.3,0-40.3,18-40.3,40.3c0,22.2,18,40.2,40.2,40.2s40.2-18,40.2-40.2
		C462.1,381.7,444.1,363.7,421.9,363.7z M416,387.3c0.1-0.1,0.3-0.1,0.5-0.1h1.1v-5l-0.6,0.1c-0.1,0-0.2,0-0.2,0h-0.1
		c-0.1,0-0.3,0-0.3-0.1c-0.1-0.1-0.1-0.2-0.1-0.4c0-0.1,0-0.2,0.1-0.3c0.1-0.1,0.2-0.1,0.4-0.2l1.5-0.4c0.1,0,0.2,0,0.3,0
		c0.1,0,0.1,0,0.2,0s0.2,0,0.3,0.1c0.1,0.1,0.1,0.2,0.1,0.4v5.7h0.9c0.2,0,0.4,0,0.5,0.1s0.1,0.2,0.1,0.5c0,0.2,0,0.3-0.1,0.4
		s-0.3,0.1-0.5,0.1h-3.4c-0.2,0-0.4,0-0.5-0.1s-0.1-0.2-0.1-0.4C415.9,387.5,415.9,387.3,416,387.3z M405.9,427.1
		c-0.5,0.7-1.2,1-2.2,1c-0.9,0-1.7-0.3-2.2-1s-0.7-1.7-0.7-2.8c0-1.1,0.2-2.2,0.7-2.8c0.5-0.7,1.2-1,2.2-1c0.9,0,1.7,0.3,2.2,1
		s0.8,1.7,0.8,2.8C406.8,425.4,406.4,426.3,405.9,427.1z M405.9,417.2c-0.5,0.7-1.2,1-2.2,1c-0.9,0-1.7-0.3-2.2-1s-0.7-1.7-0.7-2.8
		c0-1.2,0.2-2.2,0.7-2.8c0.5-0.7,1.2-1,2.2-1c0.9,0,1.7,0.3,2.2,1s0.8,1.7,0.8,2.8C406.8,415.5,406.4,416.5,405.9,417.2z
		 M405.9,407.3c-0.5,0.7-1.2,1-2.2,1c-0.9,0-1.7-0.3-2.2-1s-0.7-1.7-0.7-2.8c0-1.1,0.2-2.2,0.7-2.8c0.5-0.7,1.2-1,2.2-1
		c0.9,0,1.7,0.3,2.2,1s0.8,1.7,0.8,2.8C406.8,405.7,406.4,406.6,405.9,407.3z M405.9,397.4c-0.5,0.7-1.2,1-2.2,1
		c-0.9,0-1.7-0.3-2.2-1s-0.7-1.7-0.7-2.8c0-1.2,0.2-2.2,0.7-2.8c0.5-0.7,1.2-1,2.2-1c0.9,0,1.7,0.3,2.2,1s0.8,1.7,0.8,2.8
		C406.8,395.8,406.4,396.8,405.9,397.4z M405.9,387.5c-0.5,0.7-1.2,1-2.2,1c-0.9,0-1.7-0.3-2.2-1s-0.7-1.7-0.7-2.8
		c0-1.2,0.2-2.2,0.7-2.8c0.5-0.7,1.2-1,2.2-1c0.9,0,1.7,0.3,2.2,1s0.8,1.7,0.8,2.8C406.8,385.9,406.4,386.9,405.9,387.5z
		 M413.4,427.8c-0.1,0.1-0.3,0.1-0.5,0.1h-3.4c-0.2,0-0.4,0-0.5-0.1s-0.1-0.2-0.1-0.4s0-0.4,0.1-0.5s0.3-0.1,0.5-0.1h1.1v-5
		l-0.6,0.1c-0.1,0-0.2,0-0.2,0h-0.1c-0.1,0-0.3,0-0.3-0.1s-0.1-0.2-0.1-0.4c0-0.1,0-0.2,0.1-0.3c0.1-0.1,0.2-0.1,0.4-0.2l1.5-0.4
		c0.1,0,0.2,0,0.3,0c0.1,0,0.1,0,0.2,0s0.2,0,0.3,0.1c0.1,0.1,0.1,0.2,0.1,0.4v5.8h0.9c0.2,0,0.4,0,0.5,0.1s0.1,0.2,0.1,0.5
		C413.6,427.5,413.5,427.7,413.4,427.8z M413.2,417.2c-0.5,0.7-1.2,1-2.2,1c-0.9,0-1.7-0.3-2.2-1s-0.7-1.7-0.7-2.8
		c0-1.2,0.2-2.2,0.7-2.8c0.5-0.7,1.2-1,2.2-1c0.9,0,1.7,0.3,2.2,1s0.8,1.7,0.8,2.8C413.9,415.5,413.7,416.5,413.2,417.2z
		 M409.9,392.2c-0.1,0-0.2,0-0.2,0h-0.1c-0.1,0-0.3,0-0.3-0.1c-0.1-0.1-0.1-0.2-0.1-0.4c0-0.1,0-0.2,0.1-0.3
		c0.1-0.1,0.2-0.1,0.4-0.2l1.5-0.4c0.1,0,0.2,0,0.3,0c0.1,0,0.1,0,0.2,0s0.2,0,0.3,0.1c0.1,0.1,0.1,0.2,0.1,0.4v5.8h0.9
		c0.2,0,0.4,0,0.5,0.1s0.1,0.2,0.1,0.5c0,0.2,0,0.3-0.1,0.4s-0.3,0.1-0.5,0.1h-3.4c-0.2,0-0.4,0-0.5-0.1s-0.1-0.2-0.1-0.4
		s0-0.4,0.1-0.5s0.3-0.1,0.5-0.1h1.1v-5L409.9,392.2z M408.8,407c0.1-0.1,0.3-0.1,0.5-0.1h1.1v-5l-0.6,0.1c-0.1,0-0.2,0-0.2,0h-0.1
		c-0.1,0-0.3,0-0.3-0.1c-0.1-0.1-0.1-0.2-0.1-0.4c0-0.1,0-0.2,0.1-0.3c0.1-0.1,0.2-0.1,0.4-0.2l1.5-0.4c0.1,0,0.2,0,0.3,0
		c0.1,0,0.1,0,0.2,0s0.2,0,0.3,0.1c0.1,0.1,0.1,0.2,0.1,0.4v5.8h0.9c0.2,0,0.4,0,0.5,0.1s0.1,0.2,0.1,0.5c0,0.2,0,0.3-0.1,0.4
		s-0.3,0.1-0.5,0.1h-3.4c-0.2,0-0.4,0-0.5-0.1s-0.1-0.2-0.1-0.4C408.6,407.4,408.7,407.1,408.8,407z M413.2,387.5
		c-0.5,0.7-1.2,1-2.2,1c-0.9,0-1.7-0.3-2.2-1s-0.7-1.7-0.7-2.8c0-1.2,0.2-2.2,0.7-2.8c0.5-0.7,1.2-1,2.2-1c0.9,0,1.7,0.3,2.2,1
		s0.8,1.7,0.8,2.8C413.9,385.9,413.7,386.9,413.2,387.5z M420.3,427.1c-0.5,0.7-1.2,1-2.2,1c-0.9,0-1.7-0.3-2.2-1s-0.7-1.7-0.7-2.8
		c0-1.1,0.2-2.2,0.7-2.8c0.5-0.7,1.2-1,2.2-1c0.9,0,1.7,0.3,2.2,1s0.8,1.7,0.8,2.8C421.2,425.4,420.9,426.3,420.3,427.1z
		 M420.3,417.2c-0.5,0.7-1.2,1-2.2,1c-0.9,0-1.7-0.3-2.2-1s-0.7-1.7-0.7-2.8c0-1.2,0.2-2.2,0.7-2.8c0.5-0.7,1.2-1,2.2-1
		c0.9,0,1.7,0.3,2.2,1s0.8,1.7,0.8,2.8C421.2,415.5,420.9,416.5,420.3,417.2z M420.3,407.3c-0.5,0.7-1.2,1-2.2,1
		c-0.9,0-1.7-0.3-2.2-1s-0.7-1.7-0.7-2.8c0-1.1,0.2-2.2,0.7-2.8c0.5-0.7,1.2-1,2.2-1c0.9,0,1.7,0.3,2.2,1s0.8,1.7,0.8,2.8
		C421.2,405.7,420.9,406.6,420.3,407.3z M420.3,397.4c-0.5,0.7-1.2,1-2.2,1c-0.9,0-1.7-0.3-2.2-1s-0.7-1.7-0.7-2.8
		c0-1.2,0.2-2.2,0.7-2.8c0.5-0.7,1.2-1,2.2-1c0.9,0,1.7,0.3,2.2,1s0.8,1.7,0.8,2.8C421.2,395.8,420.9,396.8,420.3,397.4z
		 M437.7,387.3c0.1-0.1,0.3-0.1,0.5-0.1h1.1v-5l-0.6,0.1c-0.1,0-0.2,0-0.2,0h-0.1c-0.1,0-0.3,0-0.3-0.1c-0.1-0.1-0.1-0.2-0.1-0.4
		c0-0.1,0-0.2,0.1-0.3c0.1-0.1,0.2-0.1,0.4-0.2l1.5-0.4c0.1,0,0.2,0,0.3,0c0.1,0,0.1,0,0.2,0s0.2,0,0.3,0.1c0,0.1,0.1,0.2,0.1,0.4
		v5.7h0.9c0.2,0,0.4,0,0.5,0.1s0.1,0.2,0.1,0.5c0,0.2,0,0.3-0.1,0.4s-0.3,0.1-0.5,0.1h-3.4c-0.2,0-0.4,0-0.5-0.1s-0.1-0.2-0.1-0.4
		C437.5,387.5,437.6,387.3,437.7,387.3z M430.5,387.3c0.1-0.1,0.3-0.1,0.5-0.1h1.1v-5l-0.6,0.1c-0.1,0-0.2,0-0.2,0h-0.1
		c-0.1,0-0.3,0-0.3-0.1c-0.1-0.1-0.1-0.2-0.1-0.4c0-0.1,0-0.2,0.1-0.3c0.1-0.1,0.2-0.1,0.4-0.2l1.5-0.4c0.1,0,0.2,0,0.3,0
		c0.1,0,0.1,0,0.2,0s0.2,0,0.3,0.1c0,0.1,0.1,0.2,0.1,0.4v5.7h0.9c0.2,0,0.4,0,0.5,0.1s0.1,0.2,0.1,0.5c0,0.2,0,0.3-0.1,0.4
		s-0.3,0.1-0.5,0.1h-3.4c-0.2,0-0.4,0-0.5-0.1s-0.1-0.2-0.1-0.4C430.3,387.5,430.4,387.3,430.5,387.3z M423.2,387.3
		c0.1-0.1,0.3-0.1,0.5-0.1h1.1v-5l-0.6,0.1c-0.1,0-0.2,0-0.2,0l0,0c-0.1,0-0.3,0-0.3-0.1c-0.1-0.1-0.1-0.2-0.1-0.4
		c0-0.1,0-0.2,0.1-0.3c0.1-0.1,0.2-0.1,0.4-0.2l1.5-0.4c0.1,0,0.2,0,0.3,0c0.1,0,0.1,0,0.2,0s0.2,0,0.3,0.1c0.1,0.1,0.1,0.2,0.1,0.4
		v5.7h0.9c0.2,0,0.4,0,0.5,0.1s0.1,0.2,0.1,0.5c0,0.2,0,0.3-0.1,0.4s-0.3,0.1-0.5,0.1H424c-0.2,0-0.4,0-0.5-0.1s-0.1-0.2-0.1-0.4
		C423,387.5,423.1,387.3,423.2,387.3z M423.2,397.2c0.1-0.1,0.3-0.1,0.5-0.1h1.1v-5l-0.6,0.1c-0.1,0-0.2,0-0.2,0l0,0
		c-0.1,0-0.3,0-0.3-0.1c-0.1-0.1-0.1-0.2-0.1-0.4c0-0.1,0-0.2,0.1-0.3c0.1-0.1,0.2-0.1,0.4-0.2l1.5-0.4c0.1,0,0.2,0,0.3,0
		c0.1,0,0.1,0,0.2,0s0.2,0,0.3,0.1c0.1,0.1,0.1,0.2,0.1,0.4v5.8h0.9c0.2,0,0.4,0,0.5,0.1s0.1,0.2,0.1,0.5c0,0.2,0,0.3-0.1,0.4
		s-0.3,0.1-0.5,0.1H424c-0.2,0-0.4,0-0.5-0.1s-0.1-0.2-0.1-0.4C423,397.5,423.1,397.3,423.2,397.2z M423.2,407
		c0.1-0.1,0.3-0.1,0.5-0.1h1.1v-5l-0.6,0.1c-0.1,0-0.2,0-0.2,0l0,0c-0.1,0-0.3,0-0.3-0.1c-0.1-0.1-0.1-0.2-0.1-0.4
		c0-0.1,0-0.2,0.1-0.3c0.1-0.1,0.2-0.1,0.4-0.2l1.5-0.4c0.1,0,0.2,0,0.3,0c0.1,0,0.1,0,0.2,0s0.2,0,0.3,0.1c0.1,0.1,0.1,0.2,0.1,0.4
		v5.8h0.9c0.2,0,0.4,0,0.5,0.1s0.1,0.2,0.1,0.5c0,0.2,0,0.3-0.1,0.4s-0.3,0.1-0.5,0.1H424c-0.2,0-0.4,0-0.5-0.1s-0.1-0.2-0.1-0.4
		C423,407.4,423.1,407.1,423.2,407z M423.2,417c0.1-0.1,0.3-0.1,0.5-0.1h1.1v-5l-0.6,0.1c-0.1,0-0.2,0-0.2,0l0,0
		c-0.1,0-0.3,0-0.3-0.1c-0.1-0.1-0.1-0.2-0.1-0.4c0-0.1,0-0.2,0.1-0.3s0.2-0.1,0.4-0.2l1.5-0.4c0.1,0,0.2,0,0.3,0c0.1,0,0.1,0,0.2,0
		s0.2,0,0.3,0.1c0.1,0.1,0.1,0.2,0.1,0.4v5.8h0.9c0.2,0,0.4,0,0.5,0.1s0.1,0.2,0.1,0.5c0,0.2,0,0.3-0.1,0.4s-0.3,0.1-0.5,0.1H424
		c-0.2,0-0.4,0-0.5-0.1s-0.1-0.2-0.1-0.4C423,417.2,423.1,417,423.2,417z M427.6,427.1c-0.5,0.7-1.2,1-2.2,1c-0.9,0-1.7-0.3-2.2-1
		s-0.7-1.7-0.7-2.8c0-1.1,0.2-2.2,0.7-2.8c0.5-0.7,1.2-1,2.2-1c0.9,0,1.7,0.3,2.2,1s0.8,1.7,0.8,2.8
		C428.3,425.4,428.1,426.3,427.6,427.1z M435.1,427.8c-0.1,0.1-0.3,0.1-0.5,0.1h-3.4c-0.2,0-0.4,0-0.5-0.1s-0.1-0.2-0.1-0.4
		s0-0.4,0.1-0.5s0.3-0.1,0.5-0.1h1.1v-5l-0.6,0.1c-0.1,0-0.2,0-0.2,0h-0.1c-0.1,0-0.3,0-0.3-0.1s-0.1-0.2-0.1-0.4
		c0-0.1,0-0.2,0.1-0.3c0.1-0.1,0.2-0.1,0.4-0.2l1.5-0.4c0.1,0,0.2,0,0.3,0s0.1,0,0.2,0s0.2,0,0.3,0.1c0,0.1,0.1,0.2,0.1,0.4v5.8h0.9
		c0.2,0,0.4,0,0.5,0.1s0.1,0.2,0.1,0.5C435.2,427.5,435.2,427.7,435.1,427.8z M434.8,417.2c-0.5,0.7-1.2,1-2.2,1
		c-0.9,0-1.7-0.3-2.2-1s-0.7-1.7-0.7-2.8c0-1.2,0.2-2.2,0.7-2.8c0.5-0.7,1.2-1,2.2-1c0.9,0,1.7,0.3,2.2,1s0.8,1.7,0.8,2.8
		C435.6,415.5,435.3,416.5,434.8,417.2z M434.8,407.3c-0.5,0.7-1.2,1-2.2,1c-0.9,0-1.7-0.3-2.2-1s-0.7-1.7-0.7-2.8
		c0-1.1,0.2-2.2,0.7-2.8c0.5-0.7,1.2-1,2.2-1c0.9,0,1.7,0.3,2.2,1s0.8,1.7,0.8,2.8C435.6,405.7,435.3,406.6,434.8,407.3z
		 M434.8,397.4c-0.5,0.7-1.2,1-2.2,1c-0.9,0-1.7-0.3-2.2-1s-0.7-1.7-0.7-2.8c0-1.2,0.2-2.2,0.7-2.8c0.5-0.7,1.2-1,2.2-1
		c0.9,0,1.7,0.3,2.2,1s0.8,1.7,0.8,2.8C435.6,395.8,435.3,396.8,434.8,397.4z M442,427.1c-0.5,0.7-1.2,1-2.2,1c-0.9,0-1.7-0.3-2.2-1
		s-0.7-1.7-0.7-2.8c0-1.1,0.2-2.2,0.7-2.8c0.5-0.7,1.2-1,2.2-1c0.9,0,1.7,0.3,2.2,1s0.8,1.7,0.8,2.8
		C442.7,425.4,442.5,426.3,442,427.1z M438.7,412c-0.1,0-0.2,0-0.2,0h-0.1c-0.1,0-0.3,0-0.3-0.1c-0.1-0.1-0.1-0.2-0.1-0.4
		c0-0.1,0-0.2,0.1-0.3c0.1-0.1,0.2-0.1,0.4-0.2l1.5-0.4c0.1,0,0.2,0,0.3,0c0.1,0,0.1,0,0.2,0s0.2,0,0.3,0.1c0,0.1,0.1,0.2,0.1,0.4
		v5.8h0.9c0.2,0,0.4,0,0.5,0.1s0.1,0.2,0.1,0.5c0,0.2,0,0.3-0.1,0.4s-0.3,0.1-0.5,0.1h-3.4c-0.2,0-0.4,0-0.5-0.1s-0.1-0.2-0.1-0.4
		s0-0.4,0.1-0.5s0.3-0.1,0.5-0.1h1.1v-5L438.7,412z M442,407.3c-0.5,0.7-1.2,1-2.2,1c-0.9,0-1.7-0.3-2.2-1s-0.7-1.7-0.7-2.8
		c0-1.1,0.2-2.2,0.7-2.8c0.5-0.7,1.2-1,2.2-1c0.9,0,1.7,0.3,2.2,1s0.8,1.7,0.8,2.8C442.7,405.7,442.5,406.6,442,407.3z M442,397.4
		c-0.5,0.7-1.2,1-2.2,1c-0.9,0-1.7-0.3-2.2-1s-0.7-1.7-0.7-2.8c0-1.2,0.2-2.2,0.7-2.8c0.5-0.7,1.2-1,2.2-1c0.9,0,1.7,0.3,2.2,1
		s0.8,1.7,0.8,2.8C442.7,395.8,442.5,396.8,442,397.4z"/>
	<path fill="#F3F4F5" d="M432.6,401.9c-0.4,0-0.7,0.2-0.9,0.6c-0.2,0.4-0.3,1-0.3,1.9c0,0.8,0.1,1.5,0.3,1.9
		c0.2,0.4,0.5,0.7,0.9,0.7s0.7-0.2,1-0.7c0.2-0.4,0.3-1,0.3-1.9c0-0.8-0.1-1.5-0.3-1.9C433.4,402.2,433.1,401.9,432.6,401.9z"/>
</g>
<circle fill="#AFD2ED" cx="461.4" cy="414.4" r="28.8"/>
<g>
	<g>
		<path fill="#FFFFFF" d="M462.1,405.9h-1.5H459l-8.8,15.1H461h0.7h10.8l-8.8-15.1H462.1z M458.9,418.1c-0.8,0-1.6-0.7-1.6-1.6
			c0-0.8,0.7-1.6,1.6-1.6s1.6,0.7,1.6,1.6C460.5,417.5,459.8,418.1,458.9,418.1z M466.1,417.5c0,1-0.8,1.9-1.9,1.9s-1.9-0.8-1.9-1.9
			s0.8-1.9,1.9-1.9S466.1,416.5,466.1,417.5z M462.4,414.5c-0.8,0-1.5-0.6-1.5-1.5c0-0.8,0.6-1.5,1.5-1.5s1.5,0.6,1.5,1.5
			S463.2,414.5,462.4,414.5z"/>
		<path fill="#FFFFFF" d="M461.4,384c-16.8,0-30.4,13.6-30.4,30.4s13.6,30.4,30.4,30.4s30.4-13.6,30.4-30.4S478.1,384,461.4,384z
			 M476,431.3c-0.7,0.4-1.6,0.6-2.3,0.6l0,0H449l0,0c-0.8,0-1.6-0.2-2.3-0.6c-2.2-1.3-2.9-4.1-1.7-6.3l11.1-19.2V399h-0.6
			c-0.7,0-1.2-0.6-1.2-1.2c0-0.7,0.6-1.2,1.2-1.2h2.3l-1-3.8h8.9l-1,3.8h2.3c0.7,0,1.2,0.6,1.2,1.2s-0.6,1.2-1.2,1.2h-0.6v6.8
			l11.2,19.2C478.9,427.2,478.2,430.1,476,431.3z"/>
	</g>
</g>
<circle fill="#AFD2ED" cx="366.4" cy="390" r="23.2"/>
<path fill="#FFFFFF" d="M366.4,365c-13.8,0-25.1,11.2-25.1,25.1c0,13.8,11.2,25.1,25.1,25.1s25.1-11.2,25.1-25.1
	S380.3,365,366.4,365z M380,398.6L380,398.6L380,398.6c-0.3,1.9-2.3,3.6-4.9,4c-3.1,0.5-6-0.7-6.4-3s1.8-4.5,4.9-5.1
	c1.5-0.3,2.9-0.1,4,0.4V380l-16.6,2.2v18.3c0.1,0.3,0,0.6,0,0.9l0,0l0,0c-0.3,1.9-2.3,3.5-4.9,4c-3.1,0.5-6-0.7-6.4-3
	s1.8-4.5,4.9-5.1c1.5-0.3,2.9-0.1,4,0.4v-21.2L380,374v23.7C380.1,398,380.1,398.3,380,398.6z"/>
<path fill="#043F3A" d="M135.7,373.8c-3.3-1-5.4-3.4-5.5-6.9c-0.2-3.5-0.1-6.7-0.1-10.7c0.9,0.1,1.7,0.4,2.1,1.1
	c0.7,1.1,1,2.5,1.6,3.7c0.3-0.4,0.3-1,0.5-1.5c0,0,0-0.1,0.1-0.1h0.1c0.1,0,0.3,0,0.4,0c0.3,0.1,0.4,0.5,0.3,0.7c0,0,0,0.1,0,0.2
	s0,0.2,0,0.3v0.1v0.1l0,0v0.1c0,0,0,0.1,0.1,0.1c0,0.1,0,0.2,0.1,0.3c0.1,0.1,0.2,0.2,0.3,0.3c1.2-1,0.4-3.4-0.5-4.6
	c-1.9-2.4-2.8-2.8-6.8-3.9c-1.3-0.5-2.5-0.9-2.8-0.9c-2.4-0.4-4.8-0.9-7.2-1.5c-0.5-0.1-0.8-0.8-1.2-1.2c0.5-0.4,0.9-1,1.6-1.1
	c2.1-0.5,0.6-2.4,1.1-3.7c0-0.1,0.1-0.2,0.1-0.3v-0.1v-0.1v-0.1V344c0-0.1-0.1-0.1-0.1-0.2s-0.1-0.2-0.1-0.2
	c-0.1-0.1-0.2-0.3-0.3-0.4c-0.1-0.2-0.2-0.3-0.3-0.5c-0.1-0.1-0.1-0.1-0.1-0.2l0,0c0-0.1,0-0.1-0.1-0.2c0.1-0.1,0.2-0.2,0.3-0.3
	c0.1-0.1,0.2-0.2,0.1-0.3c-0.1-0.1-0.2-0.1-0.3-0.2s-0.2-0.2-0.2-0.3c-0.1-0.1-0.2-0.2-0.3-0.3c-0.1-0.1-0.1-0.1-0.2-0.1
	c-0.1-0.1-0.2-0.1-0.2-0.2c-0.1-0.1-0.2-0.1-0.3-0.2c-0.1,0-0.2-0.1-0.3-0.2c-0.1-0.1-0.2-0.1-0.3-0.2c-0.1-0.1-0.2-0.1-0.3-0.1
	c-0.1,0-0.2-0.1-0.3-0.1c-0.2-0.1-0.4-0.1-0.6-0.2c-0.1,0-0.2,0-0.3-0.1c0,0-0.1,0-0.2,0c0,0,0,0-0.1,0.1c-0.2,0-0.4-0.1-0.6-0.1
	c0,0-0.1,0-0.1-0.1v0.1c-1.2,0.1-2.8,0.8-3.1,1.7c-0.7,2-1,3.9-0.1,6c0.1,0.2,0,0.9-0.1,0.9c-1.8,0.3-2.7,2.8-3.3,4.3
	c-0.2,0.4-0.3,0.8-0.3,1.2c-1,5.2-1.7,10,0,15.1c0.5,1.6,1.6,2.5,3.1,2.9c3.8,1.1,7.2,0.1,9.9-2.7c1.2-1.3,2.4-2.9,3.8-4.6
	c0.8,2,2,3.7,2.4,5.7c0.3,1.6-0.2,3.2-0.4,5c3,1,6,1.9,9.3,1.7c0.6-0.1,1.6-0.5,1.7-0.9C137.4,374.4,136.5,374,135.7,373.8z
	 M118.2,358.2c-0.2-0.1-0.3-0.1-0.5-0.2c0.2-0.8,0.3-1.7,0.5-2.6c0.8,0,1.6,0,2.8,0.1C120,356.5,119.2,357.4,118.2,358.2z"/>
<polygon fill="#43ED14" points="235.8,488.9 204.1,450.1 197.9,448.2 170.8,411.6 157.8,406 136.3,384.3 131.9,380.3 130.3,375.9 
	111.4,367.1 104.7,369.1 91.6,384.3 75.8,404.5 66.2,430.3 49.7,455.7 35.6,488.9 "/>
<circle fill="#AFD2ED" cx="305.3" cy="405.5" r="22.7"/>
<g>
	<path fill="#F3F4F5" d="M309.7,400.4l-2.9-5.8c-0.4,0.1-0.8,0.2-1.2,0.2c-0.4,0-0.9-0.1-1.3-0.2l-3.1,6c0.9,0.7,1.5,1.9,1.5,3.1
		c0,1.3-0.6,2.5-1.7,3.2l3.1,5.9c0.4-0.2,0.9-0.2,1.3-0.2s0.8,0.1,1.2,0.2l2.8-5.8c-1-0.7-1.8-1.9-1.8-3.3
		C307.9,402.4,308.6,401.1,309.7,400.4z"/>
	<path fill="#F3F4F5" d="M305.4,379.9c-14.2,0-25.6,11.5-25.6,25.6s11.5,25.6,25.6,25.6s25.6-11.5,25.6-25.6
		C330.9,391.4,319.5,379.9,305.4,379.9z M318.3,420.5c-2.2,0-3.9-1.8-3.9-3.9c0-1.3,0.7-2.6,1.8-3.3l-2.9-5.9
		c-0.4,0.2-0.9,0.2-1.3,0.2s-0.8-0.1-1.2-0.2l-2.8,5.8c1,0.7,1.8,1.9,1.8,3.3c0,2.2-1.8,3.9-3.9,3.9c-2.2,0-3.9-1.8-3.9-3.9
		c0-1.3,0.6-2.5,1.7-3.2l-3.1-5.9c-0.4,0.2-0.9,0.2-1.3,0.2c-0.3,0-0.7-0.1-1-0.2l-3,5.8c1,0.7,1.7,1.9,1.7,3.2
		c0,2.2-1.8,3.9-3.9,3.9c-2.2,0-3.9-1.8-3.9-3.9c0-2.2,1.8-3.9,3.9-3.9c0.4,0,0.9,0.1,1.3,0.2l2.9-5.7c-1.1-0.7-2-2-2-3.4
		c0-2.2,1.8-3.9,3.9-3.9c0.5,0,1.1,0.1,1.6,0.3l3.1-5.9c-1-0.7-1.7-1.9-1.7-3.2c0-2.2,1.8-3.9,3.9-3.9s3.9,1.8,3.9,3.9
		c0,1.3-0.7,2.6-1.8,3.3l2.9,5.8c0.4-0.1,0.7-0.2,1.1-0.2c2.2,0,3.9,1.8,3.9,3.9c0,1.3-0.6,2.5-1.7,3.2l2.9,5.9
		c0.4-0.1,0.8-0.2,1.2-0.2c2.2,0,3.9,1.8,3.9,3.9C322.3,418.8,320.6,420.5,318.3,420.5z"/>
</g>
<rect y="303.1" fill="none" width="612" height="185.7"/>
</svg>
