<?xml version="1.0" encoding="utf-8"?>
<!-- Generator: Adobe Illustrator 18.1.1, SVG Export Plug-In . SVG Version: 6.00 Build 0)  -->
<svg version="1.1" id="Layer_3" xmlns="http://www.w3.org/2000/svg" xmlns:xlink="http://www.w3.org/1999/xlink" x="0px" y="0px"
	 viewBox="0 0 590.1 273.4" enable-background="new 0 0 590.1 273.4" xml:space="preserve">
<circle fill="#FFE48E" cx="294.4" cy="113.7" r="51.7"/>
<path fill="#E4E3E3" d="M382.5,132.6v-18.9H245.8c-10.4,0-18.9,8.4-18.9,18.9h-89.5v18.9h309.7v-18.9H382.5z"/>
<g>
	<path fill="#84A8A6" d="M554.9,184.1c0.2,0.1,0.2,0.2,0,0.2l-382.8,0c-0.2,0-0.2-0.1,0-0.1l46.1-15.6c0.2-0.1,0.5,0,0.7,0l14.3,7
		c0.2,0.1,0.5,0.1,0.7,0.1l60.3-18c0.2-0.1,0.5-0.1,0.7,0l37.6,7.7c0.2,0,0.5,0.1,0.7,0l52.5-6.4c0.2,0,0.5,0,0.7,0l39.1,6
		c0.2,0,0.5,0,0.7,0l56.7-16.8c0.2-0.1,0.5,0,0.7,0.1L554.9,184.1z"/>
</g>
<circle fill="#AFD2ED" cx="343.8" cy="121.1" r="27.7"/>
<g>
	<g>
		<path fill="#E7E9EA" d="M357.3,126.8h-8.8c-0.3,0-0.5,0.2-0.5,0.5v1.2c0,0.3,0.2,0.5,0.5,0.5h8.8c0.3,0,0.5-0.2,0.5-0.5v-1.1
			C357.9,127.1,357.6,126.8,357.3,126.8z"/>
		<path fill="#E7E9EA" d="M357.3,131.3h-8.8c-0.3,0-0.5,0.2-0.5,0.5v1.2c0,0.3,0.2,0.5,0.5,0.5h8.8c0.3,0,0.5-0.2,0.5-0.5v-1.1
			C357.9,131.6,357.6,131.3,357.3,131.3z"/>
		<path fill="#E7E9EA" d="M339.1,110.9h-2.7c-0.3,0-0.5-0.2-0.5-0.5v-2.7c0-0.3-0.2-0.5-0.5-0.5h-1.2c-0.3,0-0.5,0.2-0.5,0.5v2.7
			c0,0.3-0.2,0.5-0.5,0.5h-2.7c-0.3,0-0.5,0.2-0.5,0.5v1.2c0,0.3,0.2,0.5,0.5,0.5h2.7c0.3,0,0.5,0.2,0.5,0.5v2.7
			c0,0.3,0.2,0.5,0.5,0.5h1.2c0.3,0,0.5-0.2,0.5-0.5v-2.7c0-0.3,0.2-0.5,0.5-0.5h2.7c0.3,0,0.5-0.2,0.5-0.5v-1.2
			C339.6,111.1,339.4,110.9,339.1,110.9z"/>
		<path fill="#E7E9EA" d="M338.6,127.9c0.2-0.2,0.2-0.6,0-0.8l-0.8-0.8c-0.2-0.2-0.6-0.2-0.8,0l-1.9,1.9c-0.2,0.2-0.6,0.2-0.8,0
			l-1.9-1.9c-0.2-0.2-0.6-0.2-0.8,0l-0.8,0.8c-0.2,0.2-0.2,0.6,0,0.8l1.9,1.9c0.2,0.2,0.2,0.6,0,0.8l-1.9,1.9
			c-0.2,0.2-0.2,0.6,0,0.8l0.8,0.8c0.2,0.2,0.6,0.2,0.8,0l1.9-1.9c0.2-0.2,0.6-0.2,0.8,0l1.9,1.9c0.2,0.2,0.6,0.2,0.8,0l0.8-0.8
			c0.2-0.2,0.2-0.6,0-0.8l-1.9-1.9c-0.2-0.2-0.2-0.6,0-0.8L338.6,127.9z"/>
		<path fill="#E7E9EA" d="M343.8,91.1c-16.6,0-30,13.4-30,30s13.4,30,30,30c16.6,0,30-13.4,30-30S360.4,91.1,343.8,91.1z
			 M342.3,135.5c0,1.3-1,2.3-2.3,2.3h-10.6c-1.3,0-2.3-1-2.3-2.3v-10.6c0-1.3,1-2.3,2.3-2.3H340c1.3,0,2.3,1,2.3,2.3V135.5z
			 M342.3,117.3c0,1.3-1,2.3-2.3,2.3h-10.6c-1.3,0-2.3-1-2.3-2.3v-10.6c0-1.3,1-2.3,2.3-2.3H340c1.3,0,2.3,1,2.3,2.3V117.3z
			 M360.5,135.5c0,1.3-1,2.3-2.3,2.3h-10.6c-1.3,0-2.3-1-2.3-2.3v-10.6c0-1.3,1-2.3,2.3-2.3h10.6c1.3,0,2.3,1,2.3,2.3V135.5z
			 M360.5,117.3c0,1.3-1,2.3-2.3,2.3h-10.6c-1.3,0-2.3-1-2.3-2.3v-10.6c0-1.3,1-2.3,2.3-2.3h10.6c1.3,0,2.3,1,2.3,2.3V117.3z"/>
		<path fill="#E7E9EA" d="M357.3,110.9h-8.8c-0.3,0-0.5,0.2-0.5,0.5v1.2c0,0.3,0.2,0.5,0.5,0.5h8.8c0.3,0,0.5-0.2,0.5-0.5v-1.2
			C357.9,111.1,357.6,110.9,357.3,110.9z"/>
	</g>
</g>
<circle fill="#AFD2ED" cx="383.8" cy="77.9" r="26.6"/>
<g>
	<g>
		<circle fill="#E7E9EA" cx="383.8" cy="78" r="2.5"/>
		<path fill="#E7E9EA" d="M399.2,78c0-1.4,1.1-2.5,2.5-2.5c0.7,0,1.3,0.3,1.8,0.7c-0.9-9.5-8.4-17-17.9-17.9
			c0.5,0.5,0.7,1.1,0.7,1.8c0,1.4-1.1,2.5-2.5,2.5c-1.4,0-2.5-1.1-2.5-2.5c0-0.7,0.3-1.3,0.7-1.8c-9.5,0.9-17,8.4-17.9,17.9
			c0.5-0.5,1.1-0.7,1.8-0.7c1.4,0,2.5,1.1,2.5,2.5s-1.1,2.5-2.5,2.5c-0.7,0-1.3-0.3-1.8-0.7c0.9,9.5,8.4,17,17.9,17.9
			c-0.5-0.5-0.7-1.1-0.7-1.8c0-1.4,1.1-2.5,2.5-2.5c1.4,0,2.5,1.1,2.5,2.5c0,0.7-0.3,1.3-0.7,1.8c9.5-0.9,17-8.4,17.9-17.9
			c-0.5,0.5-1.1,0.7-1.8,0.7C400.3,80.5,399.2,79.3,399.2,78z M386.9,81.1L386.9,81.1l-14.1,7.8l7.8-14.1l0,0l14.1-7.8L386.9,81.1z"
			/>
		<path fill="#E7E9EA" d="M383.8,48.1c-16.5,0-29.8,13.4-29.8,29.8s13.4,29.8,29.8,29.8c16.5,0,29.8-13.4,29.8-29.8
			S400.3,48.1,383.8,48.1z M383.8,102.8c-13.7,0-24.9-11.1-24.9-24.9s11.1-24.9,24.9-24.9s24.9,11.1,24.9,24.9
			S397.5,102.8,383.8,102.8z"/>
	</g>
</g>
<circle fill="#AFD2ED" cx="406.7" cy="112.2" r="35.9"/>
<g>
	<path fill="#F0F2F2" d="M403.2,119.7c-0.4,0-0.7,0.2-0.9,0.6c-0.2,0.4-0.3,1-0.3,1.8c0,0.8,0.1,1.4,0.3,1.8
		c0.2,0.4,0.5,0.7,0.9,0.7c0.4,0,0.7-0.2,1-0.7s0.3-1,0.3-1.8c0-0.8-0.1-1.4-0.3-1.8C404,120,403.7,119.7,403.2,119.7z"/>
	<path fill="#F0F2F2" d="M403.2,129.3c-0.4,0-0.7,0.2-0.9,0.6c-0.2,0.4-0.3,1-0.3,1.8s0.1,1.4,0.3,1.8s0.5,0.6,0.9,0.6
		c0.4,0,0.7-0.2,1-0.6c0.2-0.4,0.3-1,0.3-1.8s-0.1-1.4-0.3-1.8C404,129.5,403.7,129.3,403.2,129.3z"/>
	<path fill="#F0F2F2" d="M396.3,91.2c-0.4,0-0.7,0.2-0.9,0.6s-0.3,1-0.3,1.8c0,0.8,0.1,1.4,0.3,1.8s0.5,0.7,0.9,0.7
		c0.4,0,0.7-0.2,1-0.7s0.3-1,0.3-1.8c0-0.8-0.1-1.4-0.3-1.8S396.7,91.2,396.3,91.2z"/>
	<path fill="#F0F2F2" d="M403.2,110.2c-0.4,0-0.7,0.2-0.9,0.6s-0.3,1-0.3,1.8s0.1,1.4,0.3,1.8s0.5,0.7,0.9,0.7c0.4,0,0.7-0.2,1-0.7
		c0.2-0.4,0.3-1,0.3-1.8s-0.1-1.4-0.3-1.8S403.7,110.2,403.2,110.2z"/>
	<path fill="#F0F2F2" d="M403.2,100.7c-0.4,0-0.7,0.2-0.9,0.6s-0.3,1-0.3,1.8s0.1,1.4,0.3,1.8c0.2,0.4,0.5,0.7,0.9,0.7
		c0.4,0,0.7-0.2,1-0.7s0.3-1,0.3-1.8s-0.1-1.4-0.3-1.8C404,100.9,403.7,100.7,403.2,100.7z"/>
	<path fill="#F0F2F2" d="M389.4,91.2c-0.4,0-0.7,0.2-0.9,0.6s-0.3,1-0.3,1.8c0,0.8,0.1,1.4,0.3,1.8s0.5,0.7,0.9,0.7
		c0.4,0,0.7-0.2,1-0.7s0.3-1,0.3-1.8c0-0.8-0.1-1.4-0.3-1.8S389.8,91.2,389.4,91.2z"/>
	<path fill="#F0F2F2" d="M396.3,119.7c-0.4,0-0.7,0.2-0.9,0.6c-0.2,0.4-0.3,1-0.3,1.8c0,0.8,0.1,1.4,0.3,1.8
		c0.2,0.4,0.5,0.7,0.9,0.7c0.4,0,0.7-0.2,1-0.7s0.3-1,0.3-1.8c0-0.8-0.1-1.4-0.3-1.8C397,120,396.7,119.7,396.3,119.7z"/>
	<path fill="#F0F2F2" d="M389.4,110.2c-0.4,0-0.7,0.2-0.9,0.6s-0.3,1-0.3,1.8s0.1,1.4,0.3,1.8s0.5,0.7,0.9,0.7c0.4,0,0.7-0.2,1-0.7
		c0.2-0.4,0.3-1,0.3-1.8s-0.1-1.4-0.3-1.8S389.8,110.2,389.4,110.2z"/>
	<path fill="#F0F2F2" d="M389.4,129.3c-0.4,0-0.7,0.2-0.9,0.6c-0.2,0.4-0.3,1-0.3,1.8s0.1,1.4,0.3,1.8s0.5,0.6,0.9,0.6
		c0.4,0,0.7-0.2,1-0.6c0.2-0.4,0.3-1,0.3-1.8s-0.1-1.4-0.3-1.8C390.1,129.5,389.8,129.3,389.4,129.3z"/>
	<path fill="#F0F2F2" d="M389.4,119.7c-0.4,0-0.7,0.2-0.9,0.6c-0.2,0.4-0.3,1-0.3,1.8c0,0.8,0.1,1.4,0.3,1.8
		c0.2,0.4,0.5,0.7,0.9,0.7c0.4,0,0.7-0.2,1-0.7s0.3-1,0.3-1.8c0-0.8-0.1-1.4-0.3-1.8C390.1,120,389.8,119.7,389.4,119.7z"/>
	<path fill="#F0F2F2" d="M417.1,119.7c-0.4,0-0.7,0.2-0.9,0.6c-0.2,0.4-0.3,1-0.3,1.8c0,0.8,0.1,1.4,0.3,1.8
		c0.2,0.4,0.5,0.7,0.9,0.7s0.7-0.2,1-0.7s0.3-1,0.3-1.8c0-0.8-0.1-1.4-0.3-1.8C417.9,120,417.6,119.7,417.1,119.7z"/>
	<path fill="#F0F2F2" d="M389.4,100.7c-0.4,0-0.7,0.2-0.9,0.6s-0.3,1-0.3,1.8s0.1,1.4,0.3,1.8c0.2,0.4,0.5,0.7,0.9,0.7
		c0.4,0,0.7-0.2,1-0.7s0.3-1,0.3-1.8s-0.1-1.4-0.3-1.8C390.1,100.9,389.8,100.7,389.4,100.7z"/>
	<path fill="#F0F2F2" d="M410.2,129.3c-0.4,0-0.7,0.2-0.9,0.6c-0.2,0.4-0.3,1-0.3,1.8s0.1,1.4,0.3,1.8s0.5,0.6,0.9,0.6
		c0.4,0,0.7-0.2,1-0.6c0.2-0.4,0.3-1,0.3-1.8s-0.1-1.4-0.3-1.8C410.9,129.5,410.6,129.3,410.2,129.3z"/>
	<path fill="#F0F2F2" d="M424.1,100.7c-0.4,0-0.7,0.2-0.9,0.6c-0.2,0.4-0.3,1-0.3,1.8s0.1,1.4,0.3,1.8s0.5,0.7,0.9,0.7
		s0.7-0.2,1-0.7s0.3-1,0.3-1.8s-0.1-1.4-0.3-1.8C424.8,100.9,424.5,100.7,424.1,100.7z"/>
	<path fill="#F0F2F2" d="M424.1,110.2c-0.4,0-0.7,0.2-0.9,0.6c-0.2,0.4-0.3,1-0.3,1.8s0.1,1.4,0.3,1.8s0.5,0.7,0.9,0.7
		s0.7-0.2,1-0.7c0.2-0.4,0.3-1,0.3-1.8s-0.1-1.4-0.3-1.8C424.8,110.5,424.5,110.2,424.1,110.2z"/>
	<path fill="#F0F2F2" d="M417.1,100.7c-0.4,0-0.7,0.2-0.9,0.6c-0.2,0.4-0.3,1-0.3,1.8s0.1,1.4,0.3,1.8s0.5,0.7,0.9,0.7
		s0.7-0.2,1-0.7s0.3-1,0.3-1.8s-0.1-1.4-0.3-1.8C417.9,100.9,417.6,100.7,417.1,100.7z"/>
	<path fill="#F0F2F2" d="M424.1,129.3c-0.4,0-0.7,0.2-0.9,0.6c-0.2,0.4-0.3,1-0.3,1.8s0.1,1.4,0.3,1.8s0.5,0.6,0.9,0.6
		s0.7-0.2,1-0.6c0.2-0.4,0.3-1,0.3-1.8s-0.1-1.4-0.3-1.8C424.8,129.5,424.5,129.3,424.1,129.3z"/>
	<path fill="#F0F2F2" d="M406.8,73.4c-21.5,0-38.9,17.4-38.9,38.9c0,21.4,17.4,38.8,38.8,38.8c21.4,0,38.8-17.4,38.8-38.8
		C445.6,90.8,428.2,73.4,406.8,73.4z M401.1,96.2c0.1-0.1,0.3-0.1,0.5-0.1h1.1v-4.8l-0.6,0.1c-0.1,0-0.2,0-0.2,0s-0.1,0-0.1,0
		c-0.1,0-0.3,0-0.3-0.1c-0.1-0.1-0.1-0.2-0.1-0.4c0-0.1,0-0.2,0.1-0.3c0.1-0.1,0.2-0.1,0.4-0.2l1.4-0.4c0.1,0,0.2,0,0.3,0
		c0.1,0,0.1,0,0.2,0c0.1,0,0.2,0,0.3,0.1c0.1,0.1,0.1,0.2,0.1,0.4V96h0.9c0.2,0,0.4,0,0.5,0.1c0.1,0.1,0.1,0.2,0.1,0.5
		c0,0.2,0,0.3-0.1,0.4c-0.1,0.1-0.3,0.1-0.5,0.1h-3.3c-0.2,0-0.4,0-0.5-0.1c-0.1-0.1-0.1-0.2-0.1-0.4C401,96.4,401,96.2,401.1,96.2z
		 M391.4,134.5c-0.5,0.7-1.2,1-2.1,1c-0.9,0-1.6-0.3-2.1-1c-0.5-0.7-0.7-1.6-0.7-2.7s0.2-2.1,0.7-2.7c0.5-0.7,1.2-1,2.1-1
		c0.9,0,1.6,0.3,2.1,1c0.5,0.7,0.8,1.6,0.8,2.7C392.2,132.9,391.9,133.8,391.4,134.5z M391.4,125c-0.5,0.7-1.2,1-2.1,1
		c-0.9,0-1.6-0.3-2.1-1c-0.5-0.7-0.7-1.6-0.7-2.7c0-1.2,0.2-2.1,0.7-2.7c0.5-0.7,1.2-1,2.1-1c0.9,0,1.6,0.3,2.1,1
		c0.5,0.7,0.8,1.6,0.8,2.7C392.2,123.4,391.9,124.3,391.4,125z M391.4,115.4c-0.5,0.7-1.2,1-2.1,1c-0.9,0-1.6-0.3-2.1-1
		c-0.5-0.7-0.7-1.6-0.7-2.7s0.2-2.1,0.7-2.7c0.5-0.7,1.2-1,2.1-1c0.9,0,1.6,0.3,2.1,1c0.5,0.7,0.8,1.6,0.8,2.7
		C392.2,113.9,391.9,114.8,391.4,115.4z M391.4,105.9c-0.5,0.7-1.2,1-2.1,1c-0.9,0-1.6-0.3-2.1-1c-0.5-0.7-0.7-1.6-0.7-2.7
		c0-1.2,0.2-2.1,0.7-2.7c0.5-0.7,1.2-1,2.1-1c0.9,0,1.6,0.3,2.1,1c0.5,0.7,0.8,1.6,0.8,2.7C392.2,104.4,391.9,105.3,391.4,105.9z
		 M391.4,96.4c-0.5,0.7-1.2,1-2.1,1c-0.9,0-1.6-0.3-2.1-1c-0.5-0.7-0.7-1.6-0.7-2.7c0-1.2,0.2-2.1,0.7-2.7c0.5-0.7,1.2-1,2.1-1
		c0.9,0,1.6,0.3,2.1,1c0.5,0.7,0.8,1.6,0.8,2.7C392.2,94.8,391.9,95.8,391.4,96.4z M398.6,135.2c-0.1,0.1-0.3,0.1-0.5,0.1h-3.3
		c-0.2,0-0.4,0-0.5-0.1c-0.1-0.1-0.1-0.2-0.1-0.4s0-0.4,0.1-0.5c0.1-0.1,0.3-0.1,0.5-0.1h1.1v-4.8l-0.6,0.1c-0.1,0-0.2,0-0.2,0
		s-0.1,0-0.1,0c-0.1,0-0.3,0-0.3-0.1c0-0.1-0.1-0.2-0.1-0.4c0-0.1,0-0.2,0.1-0.3s0.2-0.1,0.4-0.2l1.4-0.4c0.1,0,0.2,0,0.3,0
		s0.1,0,0.2,0c0.1,0,0.2,0,0.3,0.1c0.1,0.1,0.1,0.2,0.1,0.4v5.6h0.9c0.2,0,0.4,0,0.5,0.1c0.1,0.1,0.1,0.2,0.1,0.5
		C398.8,134.9,398.7,135.1,398.6,135.2z M398.4,125c-0.5,0.7-1.2,1-2.1,1c-0.9,0-1.6-0.3-2.1-1c-0.5-0.7-0.7-1.6-0.7-2.7
		c0-1.2,0.2-2.1,0.7-2.7c0.5-0.7,1.2-1,2.1-1c0.9,0,1.6,0.3,2.1,1c0.5,0.7,0.8,1.6,0.8,2.7C399.1,123.4,398.9,124.3,398.4,125z
		 M395.2,100.9c-0.1,0-0.2,0-0.2,0s-0.1,0-0.1,0c-0.1,0-0.3,0-0.3-0.1c-0.1-0.1-0.1-0.2-0.1-0.4c0-0.1,0-0.2,0.1-0.3
		c0.1-0.1,0.2-0.1,0.4-0.2l1.4-0.4c0.1,0,0.2,0,0.3,0c0.1,0,0.1,0,0.2,0c0.1,0,0.2,0,0.3,0.1s0.1,0.2,0.1,0.4v5.6h0.9
		c0.2,0,0.4,0,0.5,0.1s0.1,0.2,0.1,0.5c0,0.2,0,0.3-0.1,0.4s-0.3,0.1-0.5,0.1h-3.3c-0.2,0-0.4,0-0.5-0.1c-0.1-0.1-0.1-0.2-0.1-0.4
		c0-0.2,0-0.4,0.1-0.5c0.1-0.1,0.3-0.1,0.5-0.1h1.1v-4.8L395.2,100.9z M394.2,115.2c0.1-0.1,0.3-0.1,0.5-0.1h1.1v-4.8l-0.6,0.1
		c-0.1,0-0.2,0-0.2,0s-0.1,0-0.1,0c-0.1,0-0.3,0-0.3-0.1c-0.1-0.1-0.1-0.2-0.1-0.4c0-0.1,0-0.2,0.1-0.3c0.1-0.1,0.2-0.1,0.4-0.2
		l1.4-0.4c0.1,0,0.2,0,0.3,0s0.1,0,0.2,0c0.1,0,0.2,0,0.3,0.1c0.1,0.1,0.1,0.2,0.1,0.4v5.6h0.9c0.2,0,0.4,0,0.5,0.1s0.1,0.2,0.1,0.5
		c0,0.2,0,0.3-0.1,0.4s-0.3,0.1-0.5,0.1h-3.3c-0.2,0-0.4,0-0.5-0.1c-0.1-0.1-0.1-0.2-0.1-0.4C394,115.5,394.1,115.3,394.2,115.2z
		 M398.4,96.4c-0.5,0.7-1.2,1-2.1,1c-0.9,0-1.6-0.3-2.1-1c-0.5-0.7-0.7-1.6-0.7-2.7c0-1.2,0.2-2.1,0.7-2.7c0.5-0.7,1.2-1,2.1-1
		c0.9,0,1.6,0.3,2.1,1c0.5,0.7,0.8,1.6,0.8,2.7C399.1,94.8,398.9,95.8,398.4,96.4z M405.3,134.5c-0.5,0.7-1.2,1-2.1,1
		c-0.9,0-1.6-0.3-2.1-1c-0.5-0.7-0.7-1.6-0.7-2.7s0.2-2.1,0.7-2.7s1.2-1,2.1-1c0.9,0,1.6,0.3,2.1,1c0.5,0.7,0.8,1.6,0.8,2.7
		C406.1,132.9,405.8,133.8,405.3,134.5z M405.3,125c-0.5,0.7-1.2,1-2.1,1c-0.9,0-1.6-0.3-2.1-1c-0.5-0.7-0.7-1.6-0.7-2.7
		c0-1.2,0.2-2.1,0.7-2.7c0.5-0.7,1.2-1,2.1-1c0.9,0,1.6,0.3,2.1,1c0.5,0.7,0.8,1.6,0.8,2.7C406.1,123.4,405.8,124.3,405.3,125z
		 M405.3,115.4c-0.5,0.7-1.2,1-2.1,1c-0.9,0-1.6-0.3-2.1-1c-0.5-0.7-0.7-1.6-0.7-2.7s0.2-2.1,0.7-2.7c0.5-0.7,1.2-1,2.1-1
		c0.9,0,1.6,0.3,2.1,1c0.5,0.7,0.8,1.6,0.8,2.7C406.1,113.9,405.8,114.8,405.3,115.4z M405.3,105.9c-0.5,0.7-1.2,1-2.1,1
		c-0.9,0-1.6-0.3-2.1-1c-0.5-0.7-0.7-1.6-0.7-2.7c0-1.2,0.2-2.1,0.7-2.7c0.5-0.7,1.2-1,2.1-1c0.9,0,1.6,0.3,2.1,1
		c0.5,0.7,0.8,1.6,0.8,2.7C406.1,104.4,405.8,105.3,405.3,105.9z M422,96.2c0.1-0.1,0.3-0.1,0.5-0.1h1.1v-4.8l-0.6,0.1
		c-0.1,0-0.2,0-0.2,0s-0.1,0-0.1,0c-0.1,0-0.3,0-0.3-0.1c-0.1-0.1-0.1-0.2-0.1-0.4c0-0.1,0-0.2,0.1-0.3c0.1-0.1,0.2-0.1,0.4-0.2
		l1.4-0.4c0.1,0,0.2,0,0.3,0s0.1,0,0.2,0c0.1,0,0.2,0,0.3,0.1c0,0.1,0.1,0.2,0.1,0.4V96h0.9c0.2,0,0.4,0,0.5,0.1
		c0.1,0.1,0.1,0.2,0.1,0.5c0,0.2,0,0.3-0.1,0.4c-0.1,0.1-0.3,0.1-0.5,0.1h-3.3c-0.2,0-0.4,0-0.5-0.1c-0.1-0.1-0.1-0.2-0.1-0.4
		C421.8,96.4,421.9,96.2,422,96.2z M415.1,96.2c0.1-0.1,0.3-0.1,0.5-0.1h1.1v-4.8l-0.6,0.1c-0.1,0-0.2,0-0.2,0s-0.1,0-0.1,0
		c-0.1,0-0.3,0-0.3-0.1c-0.1-0.1-0.1-0.2-0.1-0.4c0-0.1,0-0.2,0.1-0.3c0.1-0.1,0.2-0.1,0.4-0.2l1.4-0.4c0.1,0,0.2,0,0.3,0
		s0.1,0,0.2,0c0.1,0,0.2,0,0.3,0.1c0,0.1,0.1,0.2,0.1,0.4V96h0.9c0.2,0,0.4,0,0.5,0.1c0.1,0.1,0.1,0.2,0.1,0.5c0,0.2,0,0.3-0.1,0.4
		c-0.1,0.1-0.3,0.1-0.5,0.1h-3.3c-0.2,0-0.4,0-0.5-0.1c-0.1-0.1-0.1-0.2-0.1-0.4C414.9,96.4,415,96.2,415.1,96.2z M408.1,96.2
		c0.1-0.1,0.3-0.1,0.5-0.1h1.1v-4.8l-0.6,0.1c-0.1,0-0.2,0-0.2,0s-0.1,0-0.1,0c-0.1,0-0.3,0-0.3-0.1c-0.1-0.1-0.1-0.2-0.1-0.4
		c0-0.1,0-0.2,0.1-0.3c0.1-0.1,0.2-0.1,0.4-0.2l1.4-0.4c0.1,0,0.2,0,0.3,0s0.1,0,0.2,0c0.1,0,0.2,0,0.3,0.1c0.1,0.1,0.1,0.2,0.1,0.4
		V96h0.9c0.2,0,0.4,0,0.5,0.1c0.1,0.1,0.1,0.2,0.1,0.5c0,0.2,0,0.3-0.1,0.4c-0.1,0.1-0.3,0.1-0.5,0.1h-3.3c-0.2,0-0.4,0-0.5-0.1
		c-0.1-0.1-0.1-0.2-0.1-0.4C407.9,96.4,408,96.2,408.1,96.2z M408.1,105.7c0.1-0.1,0.3-0.1,0.5-0.1h1.1v-4.8l-0.6,0.1
		c-0.1,0-0.2,0-0.2,0s-0.1,0-0.1,0c-0.1,0-0.3,0-0.3-0.1c-0.1-0.1-0.1-0.2-0.1-0.4c0-0.1,0-0.2,0.1-0.3c0.1-0.1,0.2-0.1,0.4-0.2
		l1.4-0.4c0.1,0,0.2,0,0.3,0s0.1,0,0.2,0c0.1,0,0.2,0,0.3,0.1s0.1,0.2,0.1,0.4v5.6h0.9c0.2,0,0.4,0,0.5,0.1s0.1,0.2,0.1,0.5
		c0,0.2,0,0.3-0.1,0.4s-0.3,0.1-0.5,0.1h-3.3c-0.2,0-0.4,0-0.5-0.1c-0.1-0.1-0.1-0.2-0.1-0.4C407.9,106,408,105.8,408.1,105.7z
		 M408.1,115.2c0.1-0.1,0.3-0.1,0.5-0.1h1.1v-4.8l-0.6,0.1c-0.1,0-0.2,0-0.2,0s-0.1,0-0.1,0c-0.1,0-0.3,0-0.3-0.1
		c-0.1-0.1-0.1-0.2-0.1-0.4c0-0.1,0-0.2,0.1-0.3c0.1-0.1,0.2-0.1,0.4-0.2l1.4-0.4c0.1,0,0.2,0,0.3,0s0.1,0,0.2,0
		c0.1,0,0.2,0,0.3,0.1c0.1,0.1,0.1,0.2,0.1,0.4v5.6h0.9c0.2,0,0.4,0,0.5,0.1s0.1,0.2,0.1,0.5c0,0.2,0,0.3-0.1,0.4s-0.3,0.1-0.5,0.1
		h-3.3c-0.2,0-0.4,0-0.5-0.1s-0.1-0.2-0.1-0.4C407.9,115.5,408,115.3,408.1,115.2z M408.1,124.8c0.1-0.1,0.3-0.1,0.5-0.1h1.1v-4.8
		l-0.6,0.1c-0.1,0-0.2,0-0.2,0s-0.1,0-0.1,0c-0.1,0-0.3,0-0.3-0.1c-0.1-0.1-0.1-0.2-0.1-0.4c0-0.1,0-0.2,0.1-0.3
		c0.1-0.1,0.2-0.1,0.4-0.2l1.4-0.4c0.1,0,0.2,0,0.3,0s0.1,0,0.2,0c0.1,0,0.2,0,0.3,0.1s0.1,0.2,0.1,0.4v5.6h0.9c0.2,0,0.4,0,0.5,0.1
		c0.1,0.1,0.1,0.2,0.1,0.5c0,0.2,0,0.3-0.1,0.4c-0.1,0.1-0.3,0.1-0.5,0.1h-3.3c-0.2,0-0.4,0-0.5-0.1s-0.1-0.2-0.1-0.4
		C407.9,125,408,124.8,408.1,124.8z M412.3,134.5c-0.5,0.7-1.2,1-2.1,1c-0.9,0-1.6-0.3-2.1-1s-0.7-1.6-0.7-2.7s0.2-2.1,0.7-2.7
		s1.2-1,2.1-1c0.9,0,1.6,0.3,2.1,1c0.5,0.7,0.8,1.6,0.8,2.7C413,132.9,412.8,133.8,412.3,134.5z M419.5,135.2
		c-0.1,0.1-0.3,0.1-0.5,0.1h-3.3c-0.2,0-0.4,0-0.5-0.1c-0.1-0.1-0.1-0.2-0.1-0.4s0-0.4,0.1-0.5c0.1-0.1,0.3-0.1,0.5-0.1h1.1v-4.8
		l-0.6,0.1c-0.1,0-0.2,0-0.2,0s-0.1,0-0.1,0c-0.1,0-0.3,0-0.3-0.1c0-0.1-0.1-0.2-0.1-0.4c0-0.1,0-0.2,0.1-0.3s0.2-0.1,0.4-0.2
		l1.4-0.4c0.1,0,0.2,0,0.3,0s0.1,0,0.2,0c0.1,0,0.2,0,0.3,0.1c0,0.1,0.1,0.2,0.1,0.4v5.6h0.9c0.2,0,0.4,0,0.5,0.1
		c0.1,0.1,0.1,0.2,0.1,0.5C419.6,134.9,419.6,135.1,419.5,135.2z M419.2,125c-0.5,0.7-1.2,1-2.1,1c-0.9,0-1.6-0.3-2.1-1
		c-0.5-0.7-0.7-1.6-0.7-2.7c0-1.2,0.2-2.1,0.7-2.7c0.5-0.7,1.2-1,2.1-1c0.9,0,1.6,0.3,2.1,1c0.5,0.7,0.8,1.6,0.8,2.7
		C420,123.4,419.7,124.3,419.2,125z M419.2,115.4c-0.5,0.7-1.2,1-2.1,1c-0.9,0-1.6-0.3-2.1-1c-0.5-0.7-0.7-1.6-0.7-2.7
		s0.2-2.1,0.7-2.7c0.5-0.7,1.2-1,2.1-1c0.9,0,1.6,0.3,2.1,1c0.5,0.7,0.8,1.6,0.8,2.7C420,113.9,419.7,114.8,419.2,115.4z
		 M419.2,105.9c-0.5,0.7-1.2,1-2.1,1c-0.9,0-1.6-0.3-2.1-1c-0.5-0.7-0.7-1.6-0.7-2.7c0-1.2,0.2-2.1,0.7-2.7c0.5-0.7,1.2-1,2.1-1
		c0.9,0,1.6,0.3,2.1,1c0.5,0.7,0.8,1.6,0.8,2.7C420,104.4,419.7,105.3,419.2,105.9z M426.2,134.5c-0.5,0.7-1.2,1-2.1,1
		c-0.9,0-1.6-0.3-2.1-1c-0.5-0.7-0.7-1.6-0.7-2.7s0.2-2.1,0.7-2.7s1.2-1,2.1-1c0.9,0,1.6,0.3,2.1,1c0.5,0.7,0.8,1.6,0.8,2.7
		C426.9,132.9,426.7,133.8,426.2,134.5z M423,120c-0.1,0-0.2,0-0.2,0s-0.1,0-0.1,0c-0.1,0-0.3,0-0.3-0.1c-0.1-0.1-0.1-0.2-0.1-0.4
		c0-0.1,0-0.2,0.1-0.3c0.1-0.1,0.2-0.1,0.4-0.2l1.4-0.4c0.1,0,0.2,0,0.3,0c0.1,0,0.1,0,0.2,0c0.1,0,0.2,0,0.3,0.1
		c0,0.1,0.1,0.2,0.1,0.4v5.6h0.9c0.2,0,0.4,0,0.5,0.1c0.1,0.1,0.1,0.2,0.1,0.5c0,0.2,0,0.3-0.1,0.4c-0.1,0.1-0.3,0.1-0.5,0.1h-3.3
		c-0.2,0-0.4,0-0.5-0.1c-0.1-0.1-0.1-0.2-0.1-0.4c0-0.2,0-0.4,0.1-0.5c0.1-0.1,0.3-0.1,0.5-0.1h1.1v-4.8L423,120z M426.2,115.4
		c-0.5,0.7-1.2,1-2.1,1c-0.9,0-1.6-0.3-2.1-1c-0.5-0.7-0.7-1.6-0.7-2.7s0.2-2.1,0.7-2.7c0.5-0.7,1.2-1,2.1-1c0.9,0,1.6,0.3,2.1,1
		c0.5,0.7,0.8,1.6,0.8,2.7C426.9,113.9,426.7,114.8,426.2,115.4z M426.2,105.9c-0.5,0.7-1.2,1-2.1,1c-0.9,0-1.6-0.3-2.1-1
		c-0.5-0.7-0.7-1.6-0.7-2.7c0-1.2,0.2-2.1,0.7-2.7c0.5-0.7,1.2-1,2.1-1c0.9,0,1.6,0.3,2.1,1c0.5,0.7,0.8,1.6,0.8,2.7
		C426.9,104.4,426.7,105.3,426.2,105.9z"/>
	<path fill="#F0F2F2" d="M417.1,110.2c-0.4,0-0.7,0.2-0.9,0.6c-0.2,0.4-0.3,1-0.3,1.8s0.1,1.4,0.3,1.8s0.5,0.7,0.9,0.7
		s0.7-0.2,1-0.7c0.2-0.4,0.3-1,0.3-1.8s-0.1-1.4-0.3-1.8C417.9,110.5,417.6,110.2,417.1,110.2z"/>
</g>
<circle fill="#AFD2ED" cx="444.9" cy="122.3" r="27.8"/>
<g>
	<g>
		<path fill="#FFFFFF" d="M445.6,114.1h-1.4h-1.5l-8.5,14.6h10.4h0.7h10.4l-8.5-14.6H445.6z M442.5,125.9c-0.8,0-1.5-0.7-1.5-1.5
			c0-0.8,0.7-1.5,1.5-1.5s1.5,0.7,1.5,1.5C444,125.3,443.3,125.9,442.5,125.9z M449.4,125.3c0,1-0.8,1.8-1.8,1.8
			c-1,0-1.8-0.8-1.8-1.8c0-1,0.8-1.8,1.8-1.8C448.6,123.5,449.4,124.3,449.4,125.3z M445.9,122.4c-0.8,0-1.4-0.6-1.4-1.4
			s0.6-1.4,1.4-1.4s1.4,0.6,1.4,1.4S446.6,122.4,445.9,122.4z"/>
		<path fill="#FFFFFF" d="M444.9,93c-16.2,0-29.3,13.1-29.3,29.3s13.1,29.3,29.3,29.3s29.3-13.1,29.3-29.3S461,93,444.9,93z
			 M459,138.6c-0.7,0.4-1.5,0.6-2.2,0.6l0,0H433l0,0c-0.8,0-1.5-0.2-2.2-0.6c-2.1-1.3-2.8-4-1.6-6.1l10.8-18.5v-6.6h-0.6
			c-0.7,0-1.2-0.6-1.2-1.2c0-0.7,0.6-1.2,1.2-1.2h2.2l-1-3.7h8.6l-1,3.7h2.2c0.7,0,1.2,0.6,1.2,1.2s-0.6,1.2-1.2,1.2h-0.6v6.6
			l10.8,18.5C461.8,134.6,461.1,137.4,459,138.6z"/>
	</g>
</g>
<circle fill="#AFD2ED" cx="353.3" cy="98.8" r="22.4"/>
<path fill="#FFFFFF" d="M353.3,74.7c-13.3,0-24.2,10.8-24.2,24.2c0,13.3,10.8,24.2,24.2,24.2s24.2-10.8,24.2-24.2
	S366.7,74.7,353.3,74.7z M366.4,107.1L366.4,107.1L366.4,107.1c-0.3,1.8-2.2,3.5-4.7,3.9c-3,0.5-5.8-0.7-6.2-2.9
	c-0.4-2.2,1.7-4.3,4.7-4.9c1.4-0.3,2.8-0.1,3.9,0.4V89.2l-16,2.1l0,17.6c0.1,0.3,0,0.6,0,0.9v0l0,0c-0.3,1.8-2.2,3.4-4.7,3.9
	c-3,0.5-5.8-0.7-6.2-2.9c-0.4-2.2,1.7-4.3,4.7-4.9c1.4-0.3,2.8-0.1,3.9,0.4V85.9l20.6-2.6l0,22.9
	C366.5,106.5,366.5,106.8,366.4,107.1z"/>
<path fill="#043F3A" d="M130.8,83.1c-3.2-1-5.2-3.3-5.3-6.7c-0.2-3.4-0.1-6.5-0.1-10.3c0.9,0.1,1.6,0.4,2,1.1c0.7,1.1,1,2.4,1.5,3.6
	c0.3-0.4,0.3-1,0.5-1.4c0,0,0-0.1,0.1-0.1c0,0,0.1,0,0.1,0c0.1,0,0.3,0,0.4,0c0.3,0.1,0.4,0.5,0.3,0.7c0,0,0,0.1,0,0.2
	c0,0.1,0,0.2,0,0.3c0,0,0,0.1,0,0.1c0,0,0,0.1,0,0.1c0,0,0,0,0,0c0,0,0,0.1,0,0.1c0,0,0,0.1,0.1,0.1c0,0.1,0,0.2,0.1,0.3
	c0.1,0.1,0.2,0.2,0.3,0.3c1.2-1,0.4-3.3-0.5-4.4c-1.8-2.3-2.7-2.7-6.6-3.8c-1.3-0.5-2.4-0.9-2.7-0.9c-2.3-0.4-4.6-0.9-6.9-1.4
	c-0.5-0.1-0.8-0.8-1.2-1.2c0.5-0.4,0.9-1,1.5-1.1c2-0.5,0.6-2.3,1.1-3.6c0-0.1,0.1-0.2,0.1-0.3c0,0,0-0.1,0-0.1c0,0,0-0.1,0-0.1
	c0,0,0-0.1,0-0.1c0,0,0-0.1,0-0.1c0-0.1-0.1-0.1-0.1-0.2c0-0.1-0.1-0.2-0.1-0.2c-0.1-0.1-0.2-0.3-0.3-0.4c-0.1-0.2-0.2-0.3-0.3-0.5
	c-0.1-0.1-0.1-0.1-0.1-0.2l0,0c0-0.1,0-0.1-0.1-0.2c0.1-0.1,0.2-0.2,0.3-0.3c0.1-0.1,0.2-0.2,0.1-0.3c-0.1-0.1-0.2-0.1-0.3-0.2
	c-0.1-0.1-0.2-0.2-0.2-0.3c-0.1-0.1-0.2-0.2-0.3-0.3c-0.1-0.1-0.1-0.1-0.2-0.1c-0.1-0.1-0.2-0.1-0.2-0.2c-0.1-0.1-0.2-0.1-0.3-0.2
	c-0.1,0-0.2-0.1-0.3-0.2c-0.1-0.1-0.2-0.1-0.3-0.2c-0.1-0.1-0.2-0.1-0.3-0.1c-0.1,0-0.2-0.1-0.3-0.1c-0.2-0.1-0.4-0.1-0.6-0.2
	c-0.1,0-0.2,0-0.3-0.1c0,0-0.1,0-0.2,0c0,0,0,0-0.1,0.1c-0.2,0-0.4-0.1-0.6-0.1c0,0-0.1,0-0.1-0.1l0,0.1c-1.2,0.1-2.7,0.8-3,1.6
	c-0.7,1.9-1,3.8-0.1,5.8c0.1,0.2,0,0.9-0.1,0.9c-1.7,0.3-2.6,2.7-3.2,4.1c-0.2,0.4-0.3,0.8-0.3,1.2c-1,5-1.6,9.6,0,14.6
	c0.5,1.5,1.5,2.4,3,2.8c3.7,1.1,6.9,0.1,9.5-2.6c1.2-1.3,2.3-2.8,3.7-4.4c0.8,1.9,1.9,3.6,2.3,5.5c0.3,1.5-0.2,3.1-0.4,4.8
	c2.9,1,5.8,1.8,9,1.6c0.6-0.1,1.5-0.5,1.6-0.9C132.5,83.7,131.6,83.3,130.8,83.1z M114,68.1c-0.2-0.1-0.3-0.1-0.5-0.2
	c0.2-0.8,0.3-1.6,0.5-2.5c0.8,0,1.5,0,2.7,0.1C115.7,66.5,114.9,67.3,114,68.1z"/>
<polygon fill="#043F3A" points="227.4,194.1 196.8,156.7 190.8,154.9 164.7,119.6 152.2,114.2 131.4,93.3 127.2,89.4 125.6,85.2 
	107.4,76.7 101,78.6 88.3,93.3 73.1,112.7 63.8,137.6 47.9,162.1 34.3,194.1 "/>
<circle fill="#AFD2ED" cx="294.4" cy="113.7" r="21.9"/>
<g>
	<path fill="#F0F2F2" d="M298.6,108.8l-2.8-5.6c-0.4,0.1-0.8,0.2-1.2,0.2c-0.4,0-0.9-0.1-1.3-0.2l-3,5.8c0.9,0.7,1.4,1.8,1.4,3
		c0,1.3-0.6,2.4-1.6,3.1l3,5.7c0.4-0.2,0.9-0.2,1.3-0.2c0.4,0,0.8,0.1,1.2,0.2l2.7-5.6c-1-0.7-1.7-1.8-1.7-3.2
		C296.9,110.7,297.6,109.5,298.6,108.8z"/>
	<path fill="#F0F2F2" d="M294.5,89c-13.7,0-24.7,11.1-24.7,24.7c0,13.6,11.1,24.7,24.7,24.7c13.6,0,24.7-11.1,24.7-24.7
		C319.1,100.1,308.1,89,294.5,89z M306.9,128.2c-2.1,0-3.8-1.7-3.8-3.8c0-1.3,0.7-2.5,1.7-3.2l-2.8-5.7c-0.4,0.2-0.9,0.2-1.3,0.2
		c-0.4,0-0.8-0.1-1.2-0.2l-2.7,5.6c1,0.7,1.7,1.8,1.7,3.2c0,2.1-1.7,3.8-3.8,3.8c-2.1,0-3.8-1.7-3.8-3.8c0-1.3,0.6-2.4,1.6-3.1
		l-3-5.7c-0.4,0.2-0.9,0.2-1.3,0.2c-0.3,0-0.7-0.1-1-0.2l-2.9,5.6c1,0.7,1.6,1.8,1.6,3.1c0,2.1-1.7,3.8-3.8,3.8
		c-2.1,0-3.8-1.7-3.8-3.8c0-2.1,1.7-3.8,3.8-3.8c0.4,0,0.9,0.1,1.3,0.2l2.8-5.5c-1.1-0.7-1.9-1.9-1.9-3.3c0-2.1,1.7-3.8,3.8-3.8
		c0.5,0,1.1,0.1,1.5,0.3l3-5.7c-1-0.7-1.6-1.8-1.6-3.1c0-2.1,1.7-3.8,3.8-3.8c2.1,0,3.8,1.7,3.8,3.8c0,1.3-0.7,2.5-1.7,3.2l2.8,5.6
		c0.4-0.1,0.7-0.2,1.1-0.2c2.1,0,3.8,1.7,3.8,3.8c0,1.3-0.6,2.4-1.6,3.1l2.8,5.7c0.4-0.1,0.8-0.2,1.2-0.2c2.1,0,3.8,1.7,3.8,3.8
		C310.8,126.5,309.1,128.2,306.9,128.2z"/>
</g>
<rect x="0" fill="none" width="590.1" height="273.4"/>
<g>
	<path fill="#043F3A" d="M35.9,201.7c0-0.2,0.1-0.4,0.2-0.6s0.3-0.2,0.5-0.2h1.8c0.2,0,0.4,0.1,0.5,0.2s0.2,0.3,0.2,0.6v17.8
		c0,0.2-0.1,0.4-0.2,0.6c-0.1,0.2-0.3,0.2-0.5,0.2h-1.8c-0.2,0-0.4-0.1-0.5-0.2c-0.1-0.2-0.2-0.3-0.2-0.6V201.7z"/>
	<path fill="#043F3A" d="M52,205.7c2.1,0,3.5,0.9,4,2.8c0.8-1.4,2-2.2,3.4-2.7c0.5-0.1,1.1-0.2,1.8-0.2c0.7,0,1.4,0.2,2.1,0.5
		c0.7,0.4,1.2,0.8,1.5,1.4c0.3,0.6,0.5,1.2,0.6,1.9c0.1,0.7,0.1,1.4,0.1,2.2v7.8c0,0.2-0.1,0.4-0.2,0.6c-0.2,0.2-0.4,0.2-0.7,0.2
		h-1.2c-0.3,0-0.6-0.1-0.7-0.2c-0.2-0.2-0.2-0.4-0.2-0.6v-7.9c0-1.1-0.2-1.9-0.6-2.4c-0.4-0.5-1-0.8-1.8-0.8c-0.9,0-1.7,0.4-2.4,1.2
		c-0.7,0.8-1.1,1.9-1.1,3.1v6.8c0,0.2-0.1,0.4-0.2,0.6c-0.2,0.2-0.4,0.2-0.7,0.2h-1.2c-0.3,0-0.6-0.1-0.7-0.2
		c-0.2-0.2-0.2-0.4-0.2-0.6v-7.9c0-1.1-0.2-1.9-0.6-2.4c-0.4-0.5-1-0.8-1.8-0.8c-0.9,0-1.7,0.4-2.4,1.2c-0.7,0.8-1.1,1.9-1.1,3.1
		v6.8c0,0.2-0.1,0.4-0.2,0.6c-0.1,0.2-0.4,0.2-0.7,0.2h-1.3c-0.3,0-0.5-0.1-0.7-0.2c-0.2-0.2-0.2-0.4-0.2-0.6v-7.8
		c0-1.7-0.1-2.9-0.2-3.5c-0.1-0.7-0.2-1.1-0.2-1.2c0-0.6,0.3-0.9,0.9-0.9h0.7c0.5,0,0.8,0.2,1,0.5c0.2,0.4,0.4,1.1,0.6,2
		c0.7-1.3,1.8-2.2,3.2-2.6C51,205.8,51.4,205.7,52,205.7z"/>
	<path fill="#043F3A" d="M81.5,219.6c0,0.4-0.2,0.7-0.7,0.7h-1.2c-0.3,0-0.5-0.1-0.6-0.2c-0.1-0.1-0.1-0.2-0.1-0.4
		c0-0.1,0-0.2-0.1-0.4c-0.1-0.4-0.1-0.9-0.2-1.3c-0.7,1.2-1.7,2-3.1,2.4c-0.5,0.1-1,0.2-1.6,0.2c-0.6,0-1.2-0.1-1.8-0.3
		c-0.6-0.2-1.1-0.5-1.6-0.9c-1-0.9-1.6-2-1.6-3.5c0-1.6,0.6-2.8,1.7-3.6c0.9-0.7,2.2-1,3.6-1c1.5,0,2.7,0.4,3.8,1.3
		c0-0.3,0-0.6,0-1.1s-0.1-0.9-0.3-1.3c-0.2-0.4-0.4-0.8-0.7-1.1c-0.6-0.6-1.5-0.8-2.7-0.8c-1,0-2.1,0.3-3.1,0.8
		c-0.2,0.1-0.4,0.2-0.5,0.2c-0.2,0-0.4-0.2-0.7-0.7c-0.2-0.5-0.3-0.8-0.3-1c0-0.4,0.3-0.7,0.8-1.1c1.1-0.7,2.5-1,4.3-1
		c1.6,0,3,0.4,4,1.3c1.3,1.1,1.9,2.6,1.9,4.5c0,0.9-0.1,1.9-0.4,3.2C81.1,216.8,81.5,218.4,81.5,219.6z M73,214.2
		c-0.3,0.3-0.6,0.5-0.7,0.8c-0.1,0.3-0.2,0.6-0.2,0.9s0.1,0.6,0.2,0.9c0.1,0.3,0.3,0.5,0.5,0.7c0.5,0.4,1,0.5,1.6,0.5
		c0.6,0,1.1-0.1,1.4-0.2s0.7-0.3,1-0.5c0.6-0.5,0.9-0.9,0.9-1.4c-0.1-0.6-0.4-1.1-1-1.5c-0.6-0.3-1.3-0.5-2.1-0.5
		C73.8,213.8,73.4,214,73,214.2z"/>
	<path fill="#043F3A" d="M88.6,218.9c0.8-0.4,1.6-0.6,2.5-0.6s1.7,0.1,2.4,0.2c0.7,0.2,1.3,0.4,1.9,0.8c1.2,0.8,1.9,1.9,1.9,3.3
		c0,1.5-0.7,2.7-2.1,3.6c-1.3,0.8-2.8,1.2-4.5,1.2c-1.8,0-3.3-0.4-4.5-1.2c-1.3-0.8-1.9-2-1.9-3.4c0-1.8,0.9-3.5,2.8-5.1
		c0.7-0.6,1.5-1.2,2.4-1.7c-1.4-0.1-2.5-0.6-3.5-1.5c-1.1-1-1.6-2.1-1.6-3.6c0-1.6,0.6-2.9,1.8-4c1.1-0.9,2.5-1.4,4-1.4
		c1.7,0,3,0.5,3.9,1.4c0.3,0.3,0.5,0.6,0.7,0.9c0-0.8-0.1-1.6-0.3-2.4s-0.3-1.3-0.3-1.5s0-0.3,0.1-0.4c0.1-0.1,0.1-0.2,0.2-0.2
		c0.1-0.1,0.3-0.1,0.4-0.1H96c0.7,0,1,1,1,2.9c0,1.6-0.3,3-0.9,4.3c0,0.2,0,0.4,0,0.7c0,0.3-0.1,0.7-0.2,1.1
		c-0.1,0.4-0.3,0.8-0.5,1.1s-0.5,0.7-0.8,1c-0.3,0.3-0.6,0.6-0.9,0.8c-0.3,0.3-0.7,0.5-1,0.7c-1.8,1.2-3,1.9-3.3,2.2
		C89,218.5,88.7,218.7,88.6,218.9z M87.4,221.3c-0.3,0.4-0.5,0.7-0.5,1.2s0.1,0.8,0.3,1.1c0.2,0.3,0.5,0.6,0.8,0.8
		c0.7,0.4,1.5,0.6,2.5,0.6c1.6,0,2.7-0.4,3.3-1.2c0.2-0.3,0.3-0.6,0.3-1c0-0.4-0.1-0.7-0.4-1s-0.6-0.5-0.9-0.6
		c-0.6-0.3-1.4-0.4-2.4-0.4C89,220.7,88,220.9,87.4,221.3z M88,213c0.3,0.2,0.6,0.4,1,0.6c0.4,0.1,0.8,0.2,1.2,0.2s0.8-0.1,1.2-0.2
		c0.4-0.1,0.7-0.3,1-0.6c0.6-0.5,0.9-1.2,0.9-2c0-0.9-0.3-1.5-1-2c-0.6-0.4-1.3-0.6-2.1-0.6c-1.3,0-2.3,0.5-2.8,1.5
		c-0.2,0.3-0.3,0.7-0.3,1.1s0.1,0.8,0.2,1.2C87.5,212.5,87.7,212.8,88,213z"/>
	<path fill="#043F3A" d="M101.8,203.6c-0.6,0-1.1-0.2-1.5-0.6c-0.4-0.4-0.6-0.9-0.6-1.5c0-0.6,0.2-1.1,0.6-1.5
		c0.4-0.4,0.9-0.6,1.5-0.6c0.9,0,1.5,0.4,1.9,1.2c0.1,0.2,0.2,0.5,0.2,0.8c0,0.6-0.2,1.1-0.6,1.5
		C102.8,203.4,102.3,203.6,101.8,203.6z M103.2,216.8c0,0.6,0.2,0.9,0.6,0.9c0.1,0,0.3,0,0.5-0.1c0.3-0.1,0.6-0.2,0.7-0.2
		c0.2,0,0.3,0.1,0.4,0.4l0.4,0.9c0.1,0.1,0.1,0.3,0.1,0.4c0,0.4-0.3,0.7-0.9,1c-0.6,0.3-1.2,0.5-1.8,0.5c-0.6,0-1-0.1-1.4-0.2
		c-0.3-0.1-0.6-0.3-0.9-0.6c-0.5-0.6-0.7-1.6-0.7-3v-9.9c0-0.2,0.1-0.4,0.2-0.6c0.1-0.2,0.3-0.2,0.5-0.2h1.7c0.2,0,0.4,0.1,0.5,0.2
		c0.1,0.2,0.2,0.4,0.2,0.6V216.8z"/>
	<path fill="#043F3A" d="M108.9,206.9c0-0.6,0.3-0.9,0.9-0.9h0.7c0.5,0,0.8,0.2,1,0.5c0.2,0.5,0.4,1.2,0.6,2
		c0.8-1.4,1.9-2.3,3.4-2.7c0.5-0.1,1.1-0.2,1.8-0.2c0.7,0,1.4,0.1,2,0.4c0.6,0.3,1.1,0.7,1.4,1.2c0.6,1,1,2.4,1,4.2v7.9
		c0,0.2-0.1,0.4-0.2,0.6c-0.2,0.2-0.4,0.2-0.7,0.2h-1.2c-0.3,0-0.6-0.1-0.7-0.2c-0.2-0.2-0.2-0.4-0.2-0.6v-7.9
		c0-2.2-0.8-3.2-2.4-3.2c-0.9,0-1.8,0.4-2.5,1.2c-0.8,0.8-1.2,1.8-1.2,2.9v7c0,0.2-0.1,0.4-0.2,0.6c-0.1,0.2-0.4,0.2-0.7,0.2h-1.3
		c-0.3,0-0.5-0.1-0.7-0.2c-0.2-0.2-0.2-0.4-0.2-0.6v-7.8c0-1.7-0.1-2.9-0.2-3.5C108.9,207.5,108.9,207.1,108.9,206.9z"/>
	<path fill="#043F3A" d="M128.2,213.8l0,0.2c0,1.2,0.4,2.1,1.1,2.8c0.8,0.7,1.8,1.1,3.1,1.1c1.2,0,2.3-0.4,3.3-1.1
		c0.2-0.1,0.4-0.2,0.5-0.2c0.3,0,0.5,0.2,0.7,0.5l0.3,0.7c0.1,0.2,0.1,0.3,0.1,0.5s-0.1,0.4-0.3,0.6c-0.2,0.2-0.4,0.4-0.7,0.6
		s-0.6,0.3-1,0.4c-0.4,0.1-0.7,0.2-1.1,0.3c-0.8,0.2-1.6,0.3-2.4,0.3c-0.8,0-1.7-0.2-2.5-0.5c-0.9-0.3-1.6-0.8-2.2-1.4
		c-1.3-1.3-2-3.1-2-5.3c0-3.9,1.4-6.3,4.1-7.3c0.9-0.3,1.7-0.4,2.6-0.4c0.9,0,1.7,0.1,2.3,0.3s1.2,0.5,1.7,0.9
		c1,0.8,1.5,1.9,1.5,3.4c0,1.4-0.6,2.5-1.7,3.2c-1,0.6-2.3,1-4,1C130.7,214.4,129.5,214.2,128.2,213.8z M134.4,210.1
		c0-1.2-0.8-1.8-2.4-1.8c-1.5,0-2.6,0.6-3.2,1.7c-0.2,0.4-0.4,0.9-0.4,1.5c0.7,0.4,1.6,0.5,2.8,0.5
		C133.3,212,134.4,211.4,134.4,210.1z"/>
	<path fill="#043F3A" d="M166.8,206c0.5,0,0.8,0.3,0.8,0.8c0,2-0.4,4.4-1.2,7.2c-0.6,2.2-1.4,3.9-2.4,5.2c-0.7,0.9-1.4,1.3-2.2,1.3
		c-0.8,0-1.4-0.2-1.8-0.6c-0.4-0.4-0.7-0.9-0.9-1.7c-0.5-1.9-0.8-3.2-1-3.9l-0.5-1.8c-0.1-0.5-0.2-0.8-0.3-1.1c0,0.1,0,0.2-0.1,0.3
		c0,0.2-0.1,0.3-0.1,0.5l-0.3,1.1c-0.5,1.8-0.9,3-1.2,3.6c-0.3,0.6-0.5,1.1-0.7,1.4c-0.2,0.3-0.4,0.7-0.7,1c-0.6,0.7-1.3,1-2,1
		c-1.5,0-2.5-0.8-2.8-2.4c-0.4-1.8-0.9-3.6-1.5-5.4l-1.7-5.3c-0.1-0.2-0.1-0.3-0.1-0.5c0-0.5,0.3-0.8,0.9-0.8h1.5
		c0.5,0,0.9,0.3,1,0.9c0.5,1.7,0.9,3.4,1.3,5.1l1.1,5c0.1,0.3,0.2,0.5,0.4,0.5c0.2,0,0.3-0.2,0.5-0.5c0.2-0.3,0.3-0.7,0.5-1.2
		c0.2-0.5,0.4-1,0.6-1.5c0.2-0.5,0.3-1.1,0.5-1.7c0.2-0.6,0.3-1.2,0.5-1.8c0.3-1.2,0.5-2.3,0.7-3.3l0.1-0.5c0.1-0.5,0.5-0.8,1.3-0.8
		c0.5,0,0.9,0,1,0.1c0.3,0.1,0.6,0.5,0.8,1.1c0.2,0.6,0.4,1.2,0.7,2.1c0.2,0.8,0.5,1.7,0.7,2.5c0.6,2.2,1,4,1.3,5.2
		c0.1,0.2,0.1,0.4,0.3,0.4c0.2,0,0.4-0.2,0.6-0.7c0.2-0.4,0.5-1.1,0.8-1.8c0.3-0.8,0.5-1.6,0.7-2.5c0.4-1.8,0.6-3.7,0.7-5.6
		c0-0.4,0.2-0.7,0.6-0.8c0.1,0,0.2,0,0.3,0H166.8z"/>
	<path fill="#043F3A" d="M171.7,198.6c0-0.2,0.1-0.4,0.2-0.6c0.1-0.2,0.3-0.2,0.5-0.2h1.7c0.2,0,0.4,0.1,0.5,0.2
		c0.1,0.2,0.2,0.3,0.2,0.6v9.6c0.7-1.2,1.8-2,3.2-2.4c0.4-0.1,1-0.2,1.7-0.2c0.7,0,1.3,0.1,1.9,0.4c0.6,0.3,1.1,0.7,1.4,1.2
		c0.6,1,0.9,2.4,0.9,4.2v7.9c0,0.3-0.1,0.5-0.2,0.6s-0.4,0.2-0.7,0.2h-1.2c-0.3,0-0.6-0.1-0.7-0.2c-0.2-0.2-0.2-0.4-0.2-0.6v-7.9
		c0-2.2-0.8-3.2-2.4-3.2c-0.9,0-1.7,0.4-2.5,1.2c-0.8,0.8-1.3,1.8-1.3,2.9v7c0,0.2-0.1,0.4-0.2,0.6c-0.1,0.2-0.4,0.2-0.7,0.2h-1.4
		c-0.2,0-0.4-0.1-0.6-0.2c-0.1-0.2-0.2-0.4-0.2-0.6V198.6z"/>
	<path fill="#043F3A" d="M200.1,219.6c0,0.4-0.2,0.7-0.7,0.7h-1.2c-0.3,0-0.5-0.1-0.6-0.2c-0.1-0.1-0.1-0.2-0.1-0.4
		c0-0.1,0-0.2-0.1-0.4c-0.1-0.4-0.1-0.9-0.2-1.3c-0.7,1.2-1.7,2-3.1,2.4c-0.5,0.1-1,0.2-1.6,0.2s-1.2-0.1-1.8-0.3
		c-0.6-0.2-1.1-0.5-1.6-0.9c-1-0.9-1.6-2-1.6-3.5c0-1.6,0.6-2.8,1.7-3.6c0.9-0.7,2.2-1,3.6-1c1.5,0,2.7,0.4,3.8,1.3
		c0-0.3,0-0.6,0-1.1s-0.1-0.9-0.3-1.3c-0.2-0.4-0.4-0.8-0.7-1.1c-0.6-0.6-1.5-0.8-2.7-0.8c-1,0-2.1,0.3-3.1,0.8
		c-0.2,0.1-0.4,0.2-0.5,0.2c-0.2,0-0.4-0.2-0.7-0.7c-0.2-0.5-0.3-0.8-0.3-1c0-0.4,0.3-0.7,0.8-1.1c1.1-0.7,2.5-1,4.3-1
		c1.6,0,3,0.4,4,1.3c1.3,1.1,1.9,2.6,1.9,4.5c0,0.9-0.1,1.9-0.4,3.2C199.7,216.8,200,218.4,200.1,219.6z M191.6,214.2
		c-0.3,0.3-0.6,0.5-0.7,0.8c-0.1,0.3-0.2,0.6-0.2,0.9s0.1,0.6,0.2,0.9c0.1,0.3,0.3,0.5,0.5,0.7c0.5,0.4,1,0.5,1.6,0.5
		c0.6,0,1.1-0.1,1.4-0.2c0.4-0.1,0.7-0.3,1-0.5c0.6-0.5,0.9-0.9,0.9-1.4c-0.1-0.6-0.4-1.1-1-1.5c-0.6-0.3-1.3-0.5-2.1-0.5
		C192.4,213.8,191.9,214,191.6,214.2z"/>
	<path fill="#043F3A" d="M211.4,207.9c0,0.5-0.3,0.7-0.8,0.7h-3.6v7.9c0,0.9,0.4,1.3,1.3,1.3c0.5,0,1.2-0.3,2.1-0.8
		c0.2-0.1,0.4-0.2,0.6-0.2c0.2,0,0.4,0.1,0.5,0.4l0.3,0.7c0.1,0.3,0.2,0.5,0.2,0.6c0,0.2-0.1,0.4-0.4,0.6c-0.3,0.2-0.6,0.4-1,0.6
		c-0.9,0.4-1.8,0.6-2.5,0.6s-1.4-0.1-1.8-0.2c-0.4-0.2-0.8-0.4-1.1-0.7c-0.7-0.7-1-1.6-1-2.8v-8.1H203c-0.5,0-0.8-0.2-0.8-0.7v-0.7
		c0-0.2,0.1-0.3,0.2-0.5c0.1-0.1,0.3-0.2,0.6-0.3l1.3-0.4l0.5-3c0.1-0.6,0.3-0.8,0.7-0.8h1c0.2,0,0.4,0.1,0.5,0.2
		c0.1,0.2,0.2,0.4,0.2,0.6v2.9h3.6c0.5,0,0.8,0.2,0.8,0.7V207.9z"/>
	<path fill="#043F3A" d="M231.9,206c0.5,0,0.8,0.3,0.8,0.8c0,0.6-0.3,2-1,4.1l-0.8,2.4c-1.8,5.3-4.1,9.7-6.9,13.1l-0.3,0.3
		c-0.4,0.5-0.8,0.7-1.2,0.7c-0.4,0-0.9-0.3-1.5-0.9c-0.2-0.2-0.2-0.4-0.2-0.6c0-0.4,0.2-0.7,0.6-1.1c0.4-0.4,0.7-0.8,1-1.2
		c0.3-0.4,0.6-0.8,0.9-1.2c0.5-0.7,1-1.5,1.4-2.3c-1.3-3.5-2.1-5.7-2.4-6.4l-1.4-3.4l-1-2.2c-0.4-0.8-0.5-1.4-0.5-1.5
		c0-0.2,0.1-0.3,0.2-0.5c0.2-0.1,0.4-0.2,0.7-0.2h1.6c0.4,0,0.7,0.2,0.9,0.6c0.2,0.3,0.4,0.8,0.6,1.5c0.5,1.6,0.9,2.7,1.2,3.5l1,3.4
		c0.1,0.3,0.2,0.6,0.2,0.8l0.1,0.5c0,0.1,0.1,0.2,0.1,0.4l0.1,0.5c0,0.2,0.1,0.3,0.1,0.3s0.1-0.1,0.2-0.2c0.1-0.1,0.1-0.2,0.2-0.4
		l0.2-0.5c0.9-2.3,1.7-5.4,2.5-9.5c0.1-0.5,0.4-0.8,0.9-0.8H231.9z"/>
	<path fill="#043F3A" d="M235.2,213.1c0-1.1,0.2-2.1,0.6-3s0.9-1.7,1.5-2.3c1.3-1.4,3-2,5.1-2c2.3,0,4.1,0.7,5.3,2
		c1.2,1.3,1.8,3.1,1.8,5.4c0,2.2-0.7,4-2.1,5.4c-1.3,1.4-3,2.1-5.1,2.1c-2.1,0-3.9-0.7-5.2-2.1C235.9,217.1,235.2,215.3,235.2,213.1
		z M239.3,209.9c-0.3,0.5-0.5,1-0.7,1.6c-0.1,0.6-0.2,1.2-0.2,1.8s0.1,1.2,0.2,1.8c0.2,0.6,0.4,1.1,0.7,1.5c0.7,1,1.7,1.4,3,1.4
		c1.3,0,2.3-0.5,3-1.4c0.6-0.8,0.9-2,0.9-3.4c0-2.1-0.7-3.6-2.1-4.4c-0.5-0.3-1.1-0.4-1.9-0.4s-1.3,0.1-1.8,0.4
		C240,209,239.6,209.4,239.3,209.9z"/>
	<path fill="#043F3A" d="M266.1,219.4c0,0.6-0.3,0.9-0.8,0.9h-0.6c-0.5,0-0.8-0.2-1-0.6c-0.2-0.5-0.4-1.1-0.6-1.9
		c-0.4,0.9-1,1.6-1.8,2.1c-0.8,0.5-1.9,0.8-3.2,0.8c-1.7,0-2.9-0.5-3.7-1.5s-1.2-2.6-1.2-4.6v-7.6c0-0.2,0.1-0.4,0.2-0.6
		c0.1-0.2,0.4-0.2,0.6-0.2h1.4c0.6,0,0.8,0.3,0.8,0.8v7.5c0,2,0.5,3.2,1.4,3.5c0.3,0.1,0.7,0.2,1.1,0.2s0.8-0.1,1.3-0.3
		c0.4-0.2,0.8-0.5,1.2-0.8c0.8-0.7,1.2-1.6,1.2-2.5v-7.5c0-0.2,0.1-0.4,0.2-0.6s0.4-0.2,0.7-0.2h1.3c0.3,0,0.5,0.1,0.6,0.2
		s0.2,0.4,0.2,0.6v7.9c0,1.8,0.1,3.2,0.4,4.3C266.1,219.1,266.1,219.3,266.1,219.4z"/>
	<path fill="#043F3A" d="M286.6,211.6c-0.7,0-1-0.3-1-1c0-0.8-0.2-1.4-0.7-1.8c-0.4-0.4-1-0.5-1.7-0.5s-1.3,0.1-1.7,0.4
		c-0.5,0.3-0.8,0.7-1.1,1.1c-0.6,0.9-0.8,1.9-0.8,3.2c0,2.3,0.7,3.8,2.1,4.5c0.5,0.3,1.1,0.4,1.7,0.4s1.1-0.1,1.5-0.2
		c0.4-0.1,0.8-0.3,1.1-0.4s0.6-0.3,0.8-0.4c0.2-0.1,0.4-0.2,0.6-0.2c0.3,0,0.5,0.1,0.7,0.4l0.3,0.5c0.1,0.2,0.2,0.4,0.2,0.6
		s-0.1,0.4-0.3,0.6c-0.2,0.2-0.4,0.4-0.7,0.6c-0.3,0.2-0.6,0.4-1,0.5c-0.4,0.2-0.7,0.3-1.1,0.4c-1.9,0.5-3.5,0.4-5.1-0.2
		c-1.7-0.7-2.9-2-3.6-3.9c-0.3-0.9-0.5-2-0.5-3.1c0-1.1,0.2-2.2,0.5-3.1s0.8-1.7,1.4-2.3c1.3-1.3,2.9-1.9,4.9-1.9
		c1.8,0,3.2,0.5,4.1,1.4c0.8,0.8,1.2,1.8,1.2,3c0,1-0.5,1.5-1.6,1.5H286.6z"/>
	<path fill="#043F3A" d="M291.3,213.1c0-1.1,0.2-2.1,0.6-3c0.4-0.9,0.9-1.7,1.5-2.3c1.3-1.4,3-2,5.1-2c2.3,0,4.1,0.7,5.3,2
		c1.2,1.3,1.8,3.1,1.8,5.4c0,2.2-0.7,4-2.1,5.4c-1.3,1.4-3,2.1-5.1,2.1c-2.1,0-3.9-0.7-5.2-2.1C292,217.1,291.3,215.3,291.3,213.1z
		 M295.4,209.9c-0.3,0.5-0.5,1-0.7,1.6c-0.1,0.6-0.2,1.2-0.2,1.8s0.1,1.2,0.2,1.8c0.2,0.6,0.4,1.1,0.7,1.5c0.7,1,1.7,1.4,3,1.4
		c1.3,0,2.3-0.5,3-1.4c0.6-0.8,0.9-2,0.9-3.4c0-2.1-0.7-3.6-2.1-4.4c-0.5-0.3-1.1-0.4-1.9-0.4s-1.3,0.1-1.8,0.4
		C296.1,209,295.7,209.4,295.4,209.9z"/>
	<path fill="#043F3A" d="M322.2,219.4c0,0.6-0.3,0.9-0.8,0.9h-0.6c-0.5,0-0.8-0.2-1-0.6c-0.2-0.5-0.4-1.1-0.6-1.9
		c-0.4,0.9-1,1.6-1.8,2.1c-0.8,0.5-1.9,0.8-3.2,0.8c-1.7,0-2.9-0.5-3.7-1.5c-0.8-1-1.2-2.6-1.2-4.6v-7.6c0-0.2,0.1-0.4,0.2-0.6
		s0.4-0.2,0.6-0.2h1.4c0.6,0,0.8,0.3,0.8,0.8v7.5c0,2,0.5,3.2,1.4,3.5c0.3,0.1,0.7,0.2,1.1,0.2s0.8-0.1,1.3-0.3
		c0.4-0.2,0.8-0.5,1.2-0.8c0.8-0.7,1.2-1.6,1.2-2.5v-7.5c0-0.2,0.1-0.4,0.2-0.6s0.4-0.2,0.7-0.2h1.3c0.3,0,0.5,0.1,0.6,0.2
		c0.1,0.2,0.2,0.4,0.2,0.6v7.9c0,1.8,0.1,3.2,0.4,4.3C322.2,219.1,322.2,219.3,322.2,219.4z"/>
	<path fill="#043F3A" d="M329.8,216.8c0,0.6,0.2,0.9,0.6,0.9c0.1,0,0.3,0,0.5-0.1c0.4-0.1,0.6-0.2,0.7-0.2c0.2,0,0.3,0.1,0.5,0.4
		l0.4,0.9c0.1,0.1,0.1,0.2,0.1,0.4c0,0.2-0.2,0.4-0.5,0.7c-0.6,0.5-1.5,0.8-2.5,0.8c-1.9,0-2.8-1.3-2.8-3.8v-18
		c0-0.2,0.1-0.4,0.2-0.6s0.3-0.2,0.5-0.2h1.7c0.2,0,0.4,0.1,0.5,0.2s0.2,0.4,0.2,0.6V216.8z"/>
	<path fill="#043F3A" d="M344.8,207.8v-9.1c0-0.2,0.1-0.4,0.2-0.6s0.3-0.2,0.5-0.2h1.8c0.2,0,0.4,0.1,0.5,0.2
		c0.1,0.2,0.2,0.3,0.2,0.6v16.2c0,1.7,0.1,3.1,0.4,4.2c0,0.1,0,0.3,0,0.4c0,0.2-0.1,0.3-0.2,0.5c-0.2,0.2-0.4,0.2-0.6,0.2h-0.6
		c-0.5,0-0.8-0.2-1-0.6c-0.2-0.5-0.4-1.2-0.5-2c-0.6,1.4-1.7,2.3-3.3,2.7c-0.5,0.1-1.1,0.2-1.9,0.2c-0.8,0-1.5-0.2-2.3-0.6
		c-0.7-0.4-1.4-0.9-1.9-1.6c-1.1-1.4-1.6-3.1-1.6-5.2c0-2.1,0.5-3.9,1.6-5.3c1.1-1.5,2.6-2.3,4.5-2.3S343.7,206.4,344.8,207.8z
		 M337.6,213.4c0,0.6,0.1,1.1,0.2,1.7c0.1,0.5,0.4,1,0.6,1.5c0.6,1,1.5,1.5,2.7,1.5c1,0,1.9-0.4,2.7-1.3c0.8-0.9,1.2-2,1.2-3.3
		c0-1.5-0.4-2.8-1.2-3.7c-0.8-0.9-1.7-1.3-2.8-1.3c-1.2,0-2.1,0.6-2.7,1.7C337.9,210.9,337.6,212,337.6,213.4z"/>
	<path fill="#043F3A" d="M366.8,205.7c2.1,0,3.5,0.9,4,2.8c0.8-1.4,2-2.2,3.4-2.7c0.5-0.1,1.1-0.2,1.8-0.2s1.4,0.2,2.1,0.5
		c0.7,0.4,1.2,0.8,1.5,1.4s0.5,1.2,0.6,1.9c0.1,0.7,0.1,1.4,0.1,2.2v7.8c0,0.2-0.1,0.4-0.2,0.6c-0.2,0.2-0.4,0.2-0.7,0.2h-1.2
		c-0.3,0-0.6-0.1-0.7-0.2c-0.2-0.2-0.2-0.4-0.2-0.6v-7.9c0-1.1-0.2-1.9-0.6-2.4c-0.4-0.5-1-0.8-1.8-0.8c-0.9,0-1.7,0.4-2.4,1.2
		c-0.7,0.8-1.1,1.9-1.1,3.1v6.8c0,0.2-0.1,0.4-0.2,0.6c-0.2,0.2-0.4,0.2-0.7,0.2h-1.2c-0.3,0-0.6-0.1-0.7-0.2
		c-0.2-0.2-0.2-0.4-0.2-0.6v-7.9c0-1.1-0.2-1.9-0.6-2.4c-0.4-0.5-1-0.8-1.8-0.8c-0.9,0-1.7,0.4-2.4,1.2c-0.7,0.8-1.1,1.9-1.1,3.1
		v6.8c0,0.2-0.1,0.4-0.2,0.6c-0.1,0.2-0.4,0.2-0.7,0.2h-1.3c-0.3,0-0.5-0.1-0.7-0.2c-0.2-0.2-0.2-0.4-0.2-0.6v-7.8
		c0-1.7-0.1-2.9-0.2-3.5c-0.1-0.7-0.2-1.1-0.2-1.2c0-0.6,0.3-0.9,0.9-0.9h0.7c0.5,0,0.8,0.2,1,0.5c0.2,0.4,0.4,1.1,0.6,2
		c0.7-1.3,1.8-2.2,3.2-2.6C365.8,205.8,366.3,205.7,366.8,205.7z"/>
	<path fill="#043F3A" d="M396.3,219.6c0,0.4-0.2,0.7-0.7,0.7h-1.2c-0.3,0-0.5-0.1-0.6-0.2c-0.1-0.1-0.1-0.2-0.1-0.4
		c0-0.1,0-0.2-0.1-0.4c-0.1-0.4-0.1-0.9-0.2-1.3c-0.7,1.2-1.7,2-3.1,2.4c-0.5,0.1-1,0.2-1.6,0.2s-1.2-0.1-1.8-0.3
		c-0.6-0.2-1.1-0.5-1.6-0.9c-1-0.9-1.6-2-1.6-3.5c0-1.6,0.6-2.8,1.7-3.6c0.9-0.7,2.2-1,3.6-1c1.5,0,2.7,0.4,3.8,1.3
		c0-0.3,0-0.6,0-1.1s-0.1-0.9-0.3-1.3s-0.4-0.8-0.7-1.1c-0.6-0.6-1.5-0.8-2.7-0.8c-1,0-2.1,0.3-3.1,0.8c-0.2,0.1-0.4,0.2-0.5,0.2
		c-0.2,0-0.4-0.2-0.7-0.7c-0.2-0.5-0.3-0.8-0.3-1c0-0.4,0.3-0.7,0.8-1.1c1.1-0.7,2.5-1,4.3-1c1.6,0,3,0.4,4,1.3
		c1.3,1.1,1.9,2.6,1.9,4.5c0,0.9-0.1,1.9-0.4,3.2C395.9,216.8,396.3,218.4,396.3,219.6z M387.9,214.2c-0.3,0.3-0.6,0.5-0.7,0.8
		c-0.1,0.3-0.2,0.6-0.2,0.9s0.1,0.6,0.2,0.9c0.1,0.3,0.3,0.5,0.5,0.7c0.5,0.4,1,0.5,1.6,0.5s1.1-0.1,1.4-0.2c0.4-0.1,0.7-0.3,1-0.5
		c0.6-0.5,0.9-0.9,0.9-1.4c-0.1-0.6-0.4-1.1-1-1.5c-0.6-0.3-1.3-0.5-2.1-0.5C388.7,213.8,388.2,214,387.9,214.2z"/>
	<path fill="#043F3A" d="M403.9,218c1.6,0,2.4-0.5,2.4-1.6c0-0.6-0.5-1.1-1.4-1.5c-0.4-0.2-0.8-0.3-1.3-0.5
		c-0.5-0.2-0.9-0.3-1.3-0.5s-0.8-0.4-1.2-0.7c-0.4-0.2-0.7-0.5-1-0.9c-0.6-0.7-0.8-1.5-0.8-2.6c0-1.3,0.5-2.3,1.6-3
		c0.9-0.7,2.1-1,3.5-1c1.5,0,2.7,0.3,3.7,0.9c0.3,0.2,0.5,0.4,0.5,0.7c0,0.4-0.1,0.8-0.3,1.2c-0.2,0.4-0.4,0.7-0.7,0.7
		s-0.5-0.1-0.7-0.2s-0.4-0.2-0.6-0.3c-0.2-0.1-0.4-0.1-0.6-0.2c-0.4-0.1-0.8-0.2-1.2-0.2c-0.4,0-0.6,0-0.9,0.1
		c-0.2,0.1-0.4,0.1-0.6,0.2c-0.4,0.3-0.6,0.6-0.6,1s0.1,0.7,0.3,0.9c0.2,0.2,0.4,0.4,0.7,0.6c0.3,0.2,0.7,0.3,1.1,0.5l1.4,0.6
		c1.1,0.5,1.9,0.9,2.2,1.3c0.8,0.8,1.1,1.7,1.1,2.7c0,1.3-0.4,2.3-1.3,3.2c-1,0.9-2.3,1.4-4.1,1.4c-1.8,0-3.2-0.3-4.1-1
		c-0.4-0.3-0.7-0.6-0.7-0.9c0-0.3,0-0.5,0.1-0.7c0.1-0.2,0.2-0.5,0.4-0.8c0.2-0.3,0.4-0.4,0.6-0.4s0.5,0.1,0.8,0.4
		c0.3,0.2,0.7,0.5,1.2,0.6S403.4,218,403.9,218z"/>
	<path fill="#043F3A" d="M420.7,207.9c0,0.5-0.3,0.7-0.8,0.7h-3.6v7.9c0,0.9,0.4,1.3,1.3,1.3c0.5,0,1.2-0.3,2.1-0.8
		c0.2-0.1,0.4-0.2,0.6-0.2c0.2,0,0.4,0.1,0.5,0.4l0.3,0.7c0.1,0.3,0.2,0.5,0.2,0.6c0,0.2-0.1,0.4-0.4,0.6c-0.3,0.2-0.6,0.4-1,0.6
		c-0.9,0.4-1.8,0.6-2.5,0.6s-1.4-0.1-1.8-0.2s-0.8-0.4-1.1-0.7c-0.7-0.7-1-1.6-1-2.8v-8.1h-1.1c-0.5,0-0.8-0.2-0.8-0.7v-0.7
		c0-0.2,0.1-0.3,0.2-0.5c0.1-0.1,0.3-0.2,0.6-0.3l1.3-0.4l0.5-3c0.1-0.6,0.3-0.8,0.7-0.8h1c0.2,0,0.4,0.1,0.5,0.2
		c0.1,0.2,0.2,0.4,0.2,0.6v2.9h3.6c0.5,0,0.8,0.2,0.8,0.7V207.9z"/>
	<path fill="#043F3A" d="M425.8,213.8l0,0.2c0,1.2,0.4,2.1,1.1,2.8c0.8,0.7,1.8,1.1,3.1,1.1c1.2,0,2.3-0.4,3.3-1.1
		c0.2-0.1,0.4-0.2,0.5-0.2c0.3,0,0.5,0.2,0.7,0.5l0.3,0.7c0.1,0.2,0.1,0.3,0.1,0.5s-0.1,0.4-0.3,0.6c-0.2,0.2-0.4,0.4-0.7,0.6
		s-0.6,0.3-1,0.4c-0.4,0.1-0.7,0.2-1.1,0.3c-0.8,0.2-1.6,0.3-2.4,0.3c-0.8,0-1.7-0.2-2.5-0.5c-0.9-0.3-1.6-0.8-2.2-1.4
		c-1.3-1.3-2-3.1-2-5.3c0-3.9,1.4-6.3,4.1-7.3c0.9-0.3,1.7-0.4,2.6-0.4s1.7,0.1,2.3,0.3s1.2,0.5,1.7,0.9c1,0.8,1.5,1.9,1.5,3.4
		c0,1.4-0.6,2.5-1.7,3.2c-1,0.6-2.3,1-4,1C428.3,214.4,427.1,214.2,425.8,213.8z M432,210.1c0-1.2-0.8-1.8-2.4-1.8
		c-1.5,0-2.6,0.6-3.2,1.7c-0.2,0.4-0.4,0.9-0.4,1.5c0.7,0.4,1.6,0.5,2.8,0.5C430.9,212,432,211.4,432,210.1z"/>
	<path fill="#043F3A" d="M438.5,206.9c0-0.6,0.3-0.9,0.8-0.9h0.7c0.5,0,0.8,0.2,1,0.6c0.3,0.6,0.5,1.4,0.6,2.4c0,0,0,0,0,0
		c0,0,0-0.1,0.1-0.4c0-0.3,0.2-0.6,0.4-1.1s0.5-0.8,0.7-1.1c0.6-0.6,1.3-0.8,2.2-0.8c1,0,1.6,0.2,2,0.5c0.2,0.1,0.2,0.3,0.2,0.6
		l-0.2,1.6c-0.1,0.4-0.3,0.6-0.7,0.6c-0.2,0-0.4,0-0.7-0.1c-0.5-0.1-0.9-0.2-1.2-0.2s-0.6,0.1-1,0.4c-0.3,0.3-0.6,0.6-0.9,1
		c-0.5,0.8-0.7,1.7-0.7,2.6v6.7c0,0.2-0.1,0.4-0.2,0.6c-0.1,0.2-0.3,0.2-0.6,0.2h-1.5c-0.3,0-0.5-0.1-0.6-0.2
		c-0.1-0.2-0.2-0.4-0.2-0.6v-8.7c0-1.5,0-2.5-0.1-2.9C438.5,207.3,438.5,207,438.5,206.9z"/>
	<path fill="#043F3A" d="M463.8,207.9c0,0.5-0.3,0.7-0.8,0.7h-3.6v7.9c0,0.9,0.4,1.3,1.3,1.3c0.5,0,1.2-0.3,2.1-0.8
		c0.2-0.1,0.4-0.2,0.6-0.2c0.2,0,0.4,0.1,0.5,0.4l0.3,0.7c0.1,0.3,0.2,0.5,0.2,0.6c0,0.2-0.1,0.4-0.4,0.6c-0.3,0.2-0.6,0.4-1,0.6
		c-0.9,0.4-1.8,0.6-2.5,0.6s-1.4-0.1-1.8-0.2s-0.8-0.4-1.1-0.7c-0.7-0.7-1-1.6-1-2.8v-8.1h-1.1c-0.5,0-0.8-0.2-0.8-0.7v-0.7
		c0-0.2,0.1-0.3,0.2-0.5c0.1-0.1,0.3-0.2,0.6-0.3l1.3-0.4l0.5-3c0.1-0.6,0.3-0.8,0.7-0.8h1c0.2,0,0.4,0.1,0.5,0.2s0.2,0.4,0.2,0.6
		v2.9h3.6c0.5,0,0.8,0.2,0.8,0.7V207.9z"/>
	<path fill="#043F3A" d="M466,213.1c0-1.1,0.2-2.1,0.6-3c0.4-0.9,0.9-1.7,1.5-2.3c1.3-1.4,3-2,5.1-2c2.3,0,4.1,0.7,5.3,2
		c1.2,1.3,1.8,3.1,1.8,5.4c0,2.2-0.7,4-2.1,5.4c-1.3,1.4-3,2.1-5.1,2.1c-2.1,0-3.9-0.7-5.2-2.1C466.7,217.1,466,215.3,466,213.1z
		 M470.1,209.9c-0.3,0.5-0.5,1-0.7,1.6c-0.1,0.6-0.2,1.2-0.2,1.8s0.1,1.2,0.2,1.8c0.2,0.6,0.4,1.1,0.7,1.5c0.7,1,1.7,1.4,3,1.4
		c1.3,0,2.3-0.5,3-1.4c0.6-0.8,0.9-2,0.9-3.4c0-2.1-0.7-3.6-2.1-4.4c-0.5-0.3-1.1-0.4-1.9-0.4s-1.3,0.1-1.8,0.4
		C470.8,209,470.4,209.4,470.1,209.9z"/>
	<path fill="#043F3A" d="M493.6,207.8v-9.1c0-0.2,0.1-0.4,0.2-0.6c0.1-0.2,0.3-0.2,0.5-0.2h1.8c0.2,0,0.4,0.1,0.5,0.2
		c0.1,0.2,0.2,0.3,0.2,0.6v16.2c0,1.7,0.1,3.1,0.4,4.2c0,0.1,0,0.3,0,0.4c0,0.2-0.1,0.3-0.2,0.5c-0.2,0.2-0.4,0.2-0.6,0.2h-0.6
		c-0.5,0-0.8-0.2-1-0.6c-0.2-0.5-0.4-1.2-0.5-2c-0.6,1.4-1.7,2.3-3.3,2.7c-0.5,0.1-1.1,0.2-1.9,0.2s-1.5-0.2-2.3-0.6
		c-0.7-0.4-1.4-0.9-1.9-1.6c-1.1-1.4-1.6-3.1-1.6-5.2c0-2.1,0.5-3.9,1.6-5.3c1.1-1.5,2.6-2.3,4.5-2.3S492.5,206.4,493.6,207.8z
		 M486.4,213.4c0,0.6,0.1,1.1,0.2,1.7c0.1,0.5,0.4,1,0.6,1.5c0.6,1,1.5,1.5,2.7,1.5c1,0,1.9-0.4,2.7-1.3c0.8-0.9,1.2-2,1.2-3.3
		c0-1.5-0.4-2.8-1.2-3.7c-0.8-0.9-1.7-1.3-2.8-1.3c-1.2,0-2.1,0.6-2.7,1.7C486.7,210.9,486.4,212,486.4,213.4z"/>
	<path fill="#043F3A" d="M512.8,219.6c0,0.4-0.2,0.7-0.7,0.7h-1.2c-0.3,0-0.5-0.1-0.6-0.2c-0.1-0.1-0.1-0.2-0.1-0.4
		c0-0.1,0-0.2-0.1-0.4c-0.1-0.4-0.1-0.9-0.2-1.3c-0.7,1.2-1.7,2-3.1,2.4c-0.5,0.1-1,0.2-1.6,0.2s-1.2-0.1-1.8-0.3
		c-0.6-0.2-1.1-0.5-1.6-0.9c-1-0.9-1.6-2-1.6-3.5c0-1.6,0.6-2.8,1.7-3.6c0.9-0.7,2.2-1,3.6-1c1.5,0,2.7,0.4,3.8,1.3
		c0-0.3,0-0.6,0-1.1s-0.1-0.9-0.3-1.3s-0.4-0.8-0.7-1.1c-0.6-0.6-1.5-0.8-2.7-0.8c-1,0-2.1,0.3-3.1,0.8c-0.2,0.1-0.4,0.2-0.5,0.2
		c-0.2,0-0.4-0.2-0.7-0.7c-0.2-0.5-0.3-0.8-0.3-1c0-0.4,0.3-0.7,0.8-1.1c1.1-0.7,2.5-1,4.3-1c1.6,0,3,0.4,4,1.3
		c1.3,1.1,1.9,2.6,1.9,4.5c0,0.9-0.1,1.9-0.4,3.2C512.4,216.8,512.8,218.4,512.8,219.6z M504.4,214.2c-0.3,0.3-0.6,0.5-0.7,0.8
		c-0.1,0.3-0.2,0.6-0.2,0.9s0.1,0.6,0.2,0.9c0.1,0.3,0.3,0.5,0.5,0.7c0.5,0.4,1,0.5,1.6,0.5s1.1-0.1,1.4-0.2c0.4-0.1,0.7-0.3,1-0.5
		c0.6-0.5,0.9-0.9,0.9-1.4c-0.1-0.6-0.4-1.1-1-1.5c-0.6-0.3-1.3-0.5-2.1-0.5C505.2,213.8,504.7,214,504.4,214.2z"/>
	<path fill="#043F3A" d="M527.4,206c0.5,0,0.8,0.3,0.8,0.8c0,0.6-0.3,2-1,4.1l-0.8,2.4c-1.8,5.3-4.1,9.7-6.9,13.1l-0.3,0.3
		c-0.4,0.5-0.8,0.7-1.2,0.7c-0.4,0-0.9-0.3-1.5-0.9c-0.2-0.2-0.2-0.4-0.2-0.6c0-0.4,0.2-0.7,0.6-1.1c0.4-0.4,0.7-0.8,1-1.2
		c0.3-0.4,0.6-0.8,0.9-1.2c0.5-0.7,1-1.5,1.4-2.3c-1.3-3.5-2.1-5.7-2.4-6.4l-1.4-3.4l-1-2.2c-0.4-0.8-0.5-1.4-0.5-1.5
		c0-0.2,0.1-0.3,0.2-0.5c0.2-0.1,0.4-0.2,0.7-0.2h1.6c0.4,0,0.7,0.2,0.9,0.6c0.2,0.3,0.4,0.8,0.6,1.5c0.5,1.6,0.9,2.7,1.2,3.5l1,3.4
		c0.1,0.3,0.2,0.6,0.2,0.8l0.1,0.5c0,0.1,0.1,0.2,0.1,0.4l0.1,0.5c0,0.2,0.1,0.3,0.1,0.3c0.1,0,0.1-0.1,0.2-0.2
		c0.1-0.1,0.1-0.2,0.2-0.4l0.2-0.5c0.9-2.3,1.7-5.4,2.5-9.5c0.1-0.5,0.4-0.8,0.9-0.8H527.4z"/>
	<path fill="#043F3A" d="M530.3,218.4c0-0.6,0.2-1.1,0.6-1.6c0.4-0.4,0.9-0.6,1.5-0.6c0.6,0,1.1,0.2,1.5,0.6c0.4,0.4,0.6,1,0.6,1.6
		c0,0.6-0.2,1.1-0.6,1.6c-0.4,0.4-0.9,0.7-1.5,0.7c-0.6,0-1.1-0.2-1.5-0.7C530.5,219.5,530.3,219,530.3,218.4z"/>
	<path fill="#043F3A" d="M536.8,218.4c0-0.6,0.2-1.1,0.6-1.6c0.4-0.4,0.9-0.6,1.5-0.6c0.6,0,1.1,0.2,1.5,0.6c0.4,0.4,0.6,1,0.6,1.6
		c0,0.6-0.2,1.1-0.6,1.6c-0.4,0.4-0.9,0.7-1.5,0.7c-0.6,0-1.1-0.2-1.5-0.7C537,219.5,536.8,219,536.8,218.4z"/>
	<path fill="#043F3A" d="M543.3,218.4c0-0.6,0.2-1.1,0.6-1.6c0.4-0.4,0.9-0.6,1.5-0.6c0.6,0,1.1,0.2,1.5,0.6c0.4,0.4,0.6,1,0.6,1.6
		c0,0.6-0.2,1.1-0.6,1.6c-0.4,0.4-0.9,0.7-1.5,0.7c-0.6,0-1.1-0.2-1.5-0.7C543.5,219.5,543.3,219,543.3,218.4z"/>
	<path fill="#043F3A" d="M549.8,218.4c0-0.6,0.2-1.1,0.6-1.6c0.4-0.4,0.9-0.6,1.5-0.6c0.6,0,1.1,0.2,1.5,0.6c0.4,0.4,0.6,1,0.6,1.6
		c0,0.6-0.2,1.1-0.6,1.6c-0.4,0.4-0.9,0.7-1.5,0.7c-0.6,0-1.1-0.2-1.5-0.7C550,219.5,549.8,219,549.8,218.4z"/>
</g>
<g>
	<path fill="#FFFFFF" d="M90.6,245.8c-0.1,0-0.2,0-0.3-0.1c-0.1-0.1-0.1-0.2-0.1-0.3v-11.2c0-0.1,0-0.2,0.1-0.3
		c0.1-0.1,0.2-0.1,0.3-0.1h4.6c0.7,0,1.3,0.1,1.8,0.3c0.5,0.2,0.9,0.5,1.2,0.8s0.5,0.7,0.6,1.1s0.2,0.7,0.2,1c0,0.4-0.1,0.7-0.2,1
		c-0.1,0.3-0.2,0.5-0.4,0.7c-0.2,0.2-0.3,0.4-0.5,0.5c-0.2,0.1-0.3,0.2-0.3,0.2c0.4,0.3,0.8,0.7,1.1,1.2s0.5,1.1,0.5,1.7
		c0,0.4-0.1,0.9-0.2,1.3c-0.2,0.4-0.4,0.8-0.7,1.1c-0.3,0.3-0.7,0.6-1.2,0.8c-0.5,0.2-1,0.3-1.7,0.3H90.6z M91.8,235.3v3.5h3.3
		c0.8,0,1.3-0.1,1.7-0.4c0.4-0.3,0.6-0.7,0.6-1.3s-0.2-1-0.6-1.3c-0.4-0.3-1-0.4-1.7-0.4H91.8z M91.8,240.3v3.9h3.5
		c0.4,0,0.7-0.1,1-0.2c0.3-0.1,0.5-0.2,0.7-0.4c0.2-0.2,0.3-0.4,0.4-0.6c0.1-0.2,0.1-0.5,0.1-0.7c0-0.3,0-0.5-0.1-0.7
		c-0.1-0.2-0.2-0.5-0.4-0.6c-0.2-0.2-0.4-0.3-0.7-0.4c-0.3-0.1-0.6-0.2-1-0.2H91.8z"/>
	<path fill="#FFFFFF" d="M101,240.5c0-0.5,0.2-1,0.4-1.5c0.2-0.5,0.5-0.9,0.8-1.2c0.3-0.3,0.7-0.6,1.2-0.8c0.5-0.2,1-0.3,1.6-0.3
		c0.6,0,1.2,0.1,1.7,0.3c0.5,0.2,0.9,0.5,1.3,0.9s0.6,0.8,0.8,1.4c0.2,0.5,0.3,1.1,0.3,1.8v0.5c0,0.1,0,0.2-0.1,0.3
		c-0.1,0.1-0.2,0.1-0.3,0.1h-5.9v0.1c0,0.8,0.3,1.4,0.7,1.8c0.5,0.4,1,0.6,1.7,0.6c0.6,0,1.1-0.1,1.4-0.3c0.3-0.2,0.6-0.4,0.8-0.6
		c0.1-0.1,0.2-0.2,0.2-0.2s0.2-0.1,0.3-0.1h0.5c0.1,0,0.2,0,0.3,0.1s0.1,0.2,0.1,0.3c0,0.2-0.1,0.4-0.3,0.7
		c-0.2,0.2-0.4,0.5-0.7,0.7c-0.3,0.2-0.7,0.4-1.1,0.5c-0.5,0.1-1,0.2-1.6,0.2c-0.6,0-1.1-0.1-1.6-0.3c-0.5-0.2-0.9-0.5-1.2-0.8
		c-0.3-0.4-0.6-0.8-0.8-1.2c-0.2-0.5-0.3-1-0.4-1.6C101,241.5,101,241,101,240.5z M102.6,240.5h4.9v-0.1c0-0.7-0.2-1.3-0.7-1.7
		c-0.4-0.4-1-0.6-1.8-0.6c-0.3,0-0.6,0.1-0.9,0.2c-0.3,0.1-0.5,0.3-0.8,0.5c-0.2,0.2-0.4,0.4-0.5,0.7
		C102.7,239.8,102.6,240.1,102.6,240.5L102.6,240.5z"/>
	<path fill="#FFFFFF" d="M398,240.5c0-0.5,0.2-1,0.4-1.5c0.2-0.5,0.5-0.9,0.8-1.2c0.3-0.3,0.7-0.6,1.2-0.8c0.5-0.2,1-0.3,1.6-0.3
		c0.6,0,1.2,0.1,1.7,0.3c0.5,0.2,0.9,0.5,1.3,0.9c0.3,0.4,0.6,0.8,0.8,1.4c0.2,0.5,0.3,1.1,0.3,1.8v0.5c0,0.1,0,0.2-0.1,0.3
		c-0.1,0.1-0.2,0.1-0.3,0.1h-5.9v0.1c0,0.8,0.3,1.4,0.7,1.8c0.5,0.4,1,0.6,1.7,0.6c0.6,0,1.1-0.1,1.4-0.3c0.3-0.2,0.6-0.4,0.8-0.6
		c0.1-0.1,0.2-0.2,0.2-0.2c0.1,0,0.2-0.1,0.3-0.1h0.5c0.1,0,0.2,0,0.3,0.1c0.1,0.1,0.1,0.2,0.1,0.3c0,0.2-0.1,0.4-0.3,0.7
		c-0.2,0.2-0.4,0.5-0.7,0.7c-0.3,0.2-0.7,0.4-1.1,0.5c-0.5,0.1-1,0.2-1.6,0.2c-0.6,0-1.1-0.1-1.6-0.3c-0.5-0.2-0.9-0.5-1.2-0.8
		c-0.3-0.4-0.6-0.8-0.8-1.2c-0.2-0.5-0.3-1-0.4-1.6C398,241.5,398,241,398,240.5z M399.6,240.5h4.9v-0.1c0-0.7-0.2-1.3-0.7-1.7
		c-0.4-0.4-1-0.6-1.8-0.6c-0.3,0-0.6,0.1-0.9,0.2c-0.3,0.1-0.5,0.3-0.8,0.5c-0.2,0.2-0.4,0.4-0.5,0.7
		C399.6,239.8,399.6,240.1,399.6,240.5L399.6,240.5z"/>
	<path fill="#FFFFFF" d="M110.6,240.8c0-0.6,0.2-1.2,0.4-1.7s0.5-0.9,0.8-1.3c0.3-0.4,0.8-0.6,1.2-0.8c0.5-0.2,1-0.3,1.5-0.3
		c0.7,0,1.3,0.1,1.7,0.4c0.4,0.2,0.7,0.5,1,0.8v-0.5c0-0.1,0-0.2,0.1-0.3c0.1-0.1,0.2-0.1,0.3-0.1h0.6c0.1,0,0.2,0,0.3,0.1
		c0.1,0.1,0.1,0.2,0.1,0.3v8.4c0,1.2-0.3,2.1-1,2.9c-0.7,0.7-1.7,1.1-3.1,1.1c-0.7,0-1.3-0.1-1.8-0.2c-0.5-0.2-0.9-0.4-1.2-0.6
		c-0.3-0.3-0.6-0.5-0.7-0.8c-0.2-0.3-0.2-0.6-0.3-0.9c0-0.1,0-0.2,0.1-0.3c0.1-0.1,0.2-0.1,0.3-0.1h0.5c0.1,0,0.2,0,0.3,0.1
		c0.1,0.1,0.2,0.2,0.3,0.4c0,0.1,0.1,0.2,0.2,0.3c0.1,0.1,0.2,0.2,0.4,0.4c0.2,0.1,0.4,0.2,0.7,0.3c0.3,0.1,0.6,0.1,1,0.1
		c0.4,0,0.7,0,1.1-0.1c0.3-0.1,0.6-0.2,0.9-0.4s0.4-0.4,0.6-0.7c0.1-0.3,0.2-0.6,0.2-1.1v-1.1c-0.2,0.3-0.6,0.6-1,0.8
		c-0.4,0.2-1,0.4-1.7,0.4c-0.5,0-1-0.1-1.5-0.3c-0.5-0.2-0.9-0.5-1.2-0.8c-0.3-0.4-0.6-0.8-0.8-1.3c-0.2-0.5-0.3-1.1-0.4-1.7
		c0-0.2,0-0.4,0-0.6S110.6,240.9,110.6,240.8z M117.2,240.7c0-0.8-0.3-1.4-0.7-1.9c-0.5-0.4-1-0.7-1.8-0.7c-0.8,0-1.4,0.2-1.8,0.7
		c-0.4,0.5-0.7,1.1-0.7,2c0,0.3,0,0.6,0,1c0,0.8,0.3,1.5,0.7,2c0.4,0.5,1,0.7,1.8,0.7c0.7,0,1.3-0.2,1.8-0.7
		c0.5-0.4,0.7-1.1,0.7-1.9c0-0.2,0-0.4,0-0.6S117.3,240.9,117.2,240.7z"/>
	<path fill="#FFFFFF" d="M123.1,235c0,0.1,0,0.2-0.1,0.3c-0.1,0.1-0.2,0.1-0.3,0.1h-1c-0.1,0-0.2,0-0.3-0.1
		c-0.1-0.1-0.1-0.2-0.1-0.3v-1c0-0.1,0-0.2,0.1-0.3c0.1-0.1,0.2-0.1,0.3-0.1h1c0.1,0,0.2,0,0.3,0.1c0.1,0.1,0.1,0.2,0.1,0.3V235z
		 M123,245.4c0,0.1,0,0.2-0.1,0.3c-0.1,0.1-0.2,0.1-0.3,0.1h-0.6c-0.1,0-0.2,0-0.3-0.1c-0.1-0.1-0.1-0.2-0.1-0.3v-8
		c0-0.1,0-0.2,0.1-0.3c0.1-0.1,0.2-0.1,0.3-0.1h0.6c0.1,0,0.2,0,0.3,0.1c0.1,0.1,0.1,0.2,0.1,0.3V245.4z"/>
	<path fill="#FFFFFF" d="M133.5,245.4c0,0.1,0,0.2-0.1,0.3c-0.1,0.1-0.2,0.1-0.3,0.1h-0.6c-0.1,0-0.2,0-0.3-0.1
		c-0.1-0.1-0.1-0.2-0.1-0.3v-4.6c0-0.9-0.2-1.5-0.6-2c-0.4-0.4-1-0.7-1.8-0.7c-0.7,0-1.3,0.2-1.8,0.7c-0.4,0.4-0.7,1.1-0.7,2v4.6
		c0,0.1,0,0.2-0.1,0.3c-0.1,0.1-0.2,0.1-0.3,0.1H126c-0.1,0-0.2,0-0.3-0.1c-0.1-0.1-0.1-0.2-0.1-0.3v-8c0-0.1,0-0.2,0.1-0.3
		c0.1-0.1,0.2-0.1,0.3-0.1h0.6c0.1,0,0.2,0,0.3,0.1c0.1,0.1,0.1,0.2,0.1,0.3v0.5c0.2-0.3,0.5-0.6,1-0.8c0.4-0.2,1-0.4,1.7-0.4
		c0.5,0,1,0.1,1.5,0.3c0.5,0.2,0.9,0.4,1.2,0.8c0.3,0.3,0.6,0.7,0.8,1.2c0.2,0.5,0.3,1,0.3,1.6V245.4z"/>
	<path fill="#FFFFFF" d="M142.4,248.7c0,0.1-0.1,0.2-0.2,0.3c-0.1,0.1-0.2,0.1-0.3,0.1h-0.7c-0.1,0-0.2,0-0.3-0.1
		c-0.1-0.1-0.1-0.2-0.1-0.3c0,0,0-0.1,0-0.1l1.7-3.6l-3.4-7.6c0,0,0-0.1,0-0.1c0-0.1,0-0.2,0.1-0.3c0.1-0.1,0.2-0.1,0.3-0.1h0.7
		c0.1,0,0.2,0,0.3,0.1c0.1,0.1,0.1,0.2,0.2,0.3l2.7,5.9l2.7-5.9c0-0.1,0.1-0.2,0.2-0.3c0.1-0.1,0.2-0.1,0.3-0.1h0.7
		c0.1,0,0.2,0,0.3,0.1c0.1,0.1,0.1,0.2,0.1,0.3c0,0,0,0.1,0,0.1L142.4,248.7z"/>
	<path fill="#FFFFFF" d="M152.8,236.7c0.6,0,1.2,0.1,1.7,0.3c0.5,0.2,0.9,0.5,1.2,0.8c0.3,0.3,0.6,0.7,0.8,1.2
		c0.2,0.5,0.3,1,0.4,1.6c0,0.1,0,0.2,0,0.4s0,0.3,0,0.4c0,0.2,0,0.3,0,0.4s0,0.3,0,0.4c-0.1,0.6-0.2,1.1-0.4,1.6s-0.5,0.9-0.8,1.2
		s-0.8,0.6-1.2,0.8c-0.5,0.2-1,0.3-1.7,0.3c-0.6,0-1.2-0.1-1.7-0.3c-0.5-0.2-0.9-0.5-1.2-0.8s-0.6-0.7-0.8-1.2
		c-0.2-0.5-0.3-1-0.4-1.6c0-0.1,0-0.2,0-0.4c0-0.1,0-0.3,0-0.4c0-0.2,0-0.3,0-0.4c0-0.1,0-0.3,0-0.4c0-0.6,0.2-1.1,0.4-1.6
		c0.2-0.5,0.5-0.9,0.8-1.2c0.3-0.3,0.8-0.6,1.2-0.8C151.6,236.8,152.1,236.7,152.8,236.7z M155.3,242.1c0-0.2,0-0.4,0-0.7
		c0-0.3,0-0.5,0-0.7c0-0.3-0.1-0.7-0.2-1c-0.1-0.3-0.3-0.6-0.5-0.8c-0.2-0.2-0.5-0.4-0.8-0.5c-0.3-0.1-0.7-0.2-1.1-0.2
		c-0.4,0-0.8,0.1-1.1,0.2c-0.3,0.1-0.6,0.3-0.8,0.5c-0.2,0.2-0.4,0.5-0.5,0.8c-0.1,0.3-0.2,0.6-0.2,1c0,0.2,0,0.5,0,0.7
		c0,0.3,0,0.5,0,0.7c0,0.3,0.1,0.7,0.2,1c0.1,0.3,0.3,0.6,0.5,0.8s0.5,0.4,0.8,0.5c0.3,0.1,0.6,0.2,1.1,0.2c0.4,0,0.8-0.1,1.1-0.2
		c0.3-0.1,0.6-0.3,0.8-0.5s0.4-0.5,0.5-0.8C155.2,242.7,155.2,242.4,155.3,242.1z"/>
	<path fill="#FFFFFF" d="M159,237.3c0-0.1,0-0.2,0.1-0.3c0.1-0.1,0.2-0.1,0.3-0.1h0.6c0.1,0,0.2,0,0.3,0.1c0.1,0.1,0.1,0.2,0.1,0.3
		v4.6c0,0.9,0.2,1.5,0.6,2c0.4,0.4,1,0.7,1.7,0.7c0.7,0,1.3-0.2,1.7-0.7c0.4-0.4,0.6-1.1,0.6-2v-4.6c0-0.1,0-0.2,0.1-0.3
		c0.1-0.1,0.2-0.1,0.3-0.1h0.6c0.1,0,0.2,0,0.3,0.1c0.1,0.1,0.1,0.2,0.1,0.3v8c0,0.1,0,0.2-0.1,0.3c-0.1,0.1-0.2,0.1-0.3,0.1h-0.6
		c-0.1,0-0.2,0-0.3-0.1c-0.1-0.1-0.1-0.2-0.1-0.3v-0.5c-0.2,0.3-0.5,0.6-0.9,0.8c-0.4,0.2-1,0.4-1.7,0.4c-0.5,0-1-0.1-1.5-0.3
		c-0.4-0.2-0.8-0.4-1.2-0.8c-0.3-0.3-0.6-0.7-0.7-1.2c-0.2-0.5-0.3-1-0.3-1.6V237.3z"/>
	<path fill="#FFFFFF" d="M173.9,236.8c0.1,0,0.2,0,0.3,0.1s0.1,0.2,0.1,0.3v0.6c0,0.1,0,0.2-0.1,0.3c-0.1,0.1-0.2,0.1-0.3,0.1h-1
		c-1.3,0-2,0.7-2,2v5c0,0.1,0,0.2-0.1,0.3c-0.1,0.1-0.2,0.1-0.3,0.1h-0.6c-0.1,0-0.2,0-0.3-0.1c-0.1-0.1-0.1-0.2-0.1-0.3v-8
		c0-0.1,0-0.2,0.1-0.3c0.1-0.1,0.2-0.1,0.3-0.1h0.6c0.1,0,0.2,0,0.3,0.1c0.1,0.1,0.1,0.2,0.1,0.3v0.5c0.2-0.3,0.5-0.6,0.8-0.8
		c0.3-0.2,0.7-0.2,1.3-0.2H173.9z"/>
	<path fill="#FFFFFF" d="M179.1,243.6c0-0.5,0.1-0.9,0.3-1.2c0.2-0.3,0.4-0.6,0.8-0.9c0.3-0.2,0.7-0.4,1.1-0.6
		c0.4-0.1,0.9-0.3,1.4-0.3l2.4-0.4v-0.2c0-0.6-0.2-1-0.6-1.3c-0.4-0.3-0.9-0.4-1.4-0.4c-0.5,0-0.9,0.1-1.1,0.3
		c-0.3,0.2-0.5,0.4-0.7,0.7c-0.1,0.1-0.1,0.2-0.2,0.2c-0.1,0-0.2,0.1-0.3,0.1h-0.5c-0.1,0-0.2,0-0.3-0.1c-0.1-0.1-0.1-0.2-0.1-0.3
		c0-0.3,0.1-0.5,0.3-0.8c0.2-0.3,0.4-0.5,0.7-0.7c0.3-0.2,0.7-0.4,1.1-0.5c0.4-0.1,0.8-0.2,1.3-0.2c0.5,0,1,0.1,1.4,0.2
		c0.4,0.1,0.8,0.4,1.1,0.7c0.3,0.3,0.6,0.6,0.7,1.1c0.2,0.4,0.3,0.9,0.3,1.5v5.3c0,0.1,0,0.2-0.1,0.3c-0.1,0.1-0.2,0.1-0.3,0.1h-0.6
		c-0.1,0-0.2,0-0.3-0.1c-0.1-0.1-0.1-0.2-0.1-0.3v-0.7c-0.1,0.2-0.3,0.4-0.5,0.6c-0.2,0.2-0.5,0.3-0.8,0.4c-0.3,0.1-0.6,0.2-0.9,0.3
		c-0.3,0.1-0.6,0.1-0.9,0.1c-0.4,0-0.9-0.1-1.2-0.2c-0.4-0.1-0.7-0.3-0.9-0.5c-0.3-0.2-0.5-0.5-0.6-0.8
		C179.1,244.2,179.1,243.9,179.1,243.6z M182.2,244.5c0.4,0,0.8-0.1,1.1-0.2c0.3-0.1,0.6-0.3,0.9-0.5c0.2-0.2,0.4-0.5,0.6-0.8
		c0.1-0.3,0.2-0.7,0.2-1v-0.4l-2,0.3c-0.7,0.1-1.3,0.3-1.7,0.6c-0.4,0.3-0.6,0.6-0.6,1c0,0.1,0,0.3,0.1,0.4c0.1,0.1,0.1,0.2,0.3,0.4
		c0.1,0.1,0.3,0.2,0.5,0.3C181.7,244.5,181.9,244.5,182.2,244.5z"/>
	<path fill="#FFFFFF" d="M192.6,236.7c0.7,0,1.3,0.1,1.7,0.4c0.4,0.2,0.7,0.5,1,0.8V234c0-0.1,0-0.2,0.1-0.3
		c0.1-0.1,0.2-0.1,0.3-0.1h0.6c0.1,0,0.2,0,0.3,0.1c0.1,0.1,0.1,0.2,0.1,0.3v11.3c0,0.1,0,0.2-0.1,0.3c-0.1,0.1-0.2,0.1-0.3,0.1
		h-0.6c-0.1,0-0.2,0-0.3-0.1c-0.1-0.1-0.1-0.2-0.1-0.3v-0.5c-0.2,0.3-0.6,0.6-1,0.8c-0.4,0.2-1,0.4-1.7,0.4c-0.5,0-1-0.1-1.5-0.3
		c-0.5-0.2-0.9-0.5-1.2-0.8s-0.6-0.8-0.8-1.3s-0.3-1.1-0.4-1.7c0-0.2,0-0.4,0-0.6s0-0.4,0-0.6c0-0.6,0.2-1.2,0.4-1.7
		s0.5-0.9,0.8-1.3c0.3-0.4,0.8-0.6,1.2-0.8C191.6,236.8,192.1,236.7,192.6,236.7z M195.3,242.1c0-0.2,0-0.4,0-0.7c0-0.3,0-0.5,0-0.7
		c0-0.8-0.3-1.4-0.7-1.9c-0.5-0.4-1-0.7-1.8-0.7c-0.8,0-1.4,0.2-1.8,0.7c-0.4,0.5-0.7,1.1-0.7,2c0,0.3,0,0.6,0,1
		c0,0.8,0.3,1.5,0.7,2c0.4,0.5,1,0.7,1.8,0.7c0.7,0,1.3-0.2,1.8-0.7C195,243.4,195.2,242.8,195.3,242.1z"/>
	<path fill="#FFFFFF" d="M202.7,245.8c-0.1,0-0.3,0-0.3-0.1c-0.1-0.1-0.1-0.2-0.2-0.3l-3.4-8c0,0,0-0.1,0-0.1c0-0.1,0-0.2,0.1-0.3
		c0.1-0.1,0.2-0.1,0.3-0.1h0.6c0.2,0,0.3,0,0.4,0.1s0.1,0.2,0.2,0.3l2.7,6.3l2.7-6.3c0-0.1,0.1-0.2,0.2-0.3c0.1-0.1,0.2-0.1,0.3-0.1
		h0.7c0.1,0,0.2,0,0.3,0.1c0.1,0.1,0.1,0.2,0.1,0.3c0,0,0,0.1,0,0.1l-3.4,8c0,0.1-0.1,0.2-0.2,0.3c-0.1,0.1-0.2,0.1-0.3,0.1H202.7z"
		/>
	<path fill="#FFFFFF" d="M208.4,240.5c0-0.5,0.2-1,0.4-1.5c0.2-0.5,0.5-0.9,0.8-1.2c0.3-0.3,0.7-0.6,1.2-0.8c0.5-0.2,1-0.3,1.6-0.3
		c0.6,0,1.2,0.1,1.7,0.3c0.5,0.2,0.9,0.5,1.3,0.9s0.6,0.8,0.8,1.4c0.2,0.5,0.3,1.1,0.3,1.8v0.5c0,0.1,0,0.2-0.1,0.3
		c-0.1,0.1-0.2,0.1-0.3,0.1h-5.9v0.1c0,0.8,0.3,1.4,0.7,1.8c0.5,0.4,1,0.6,1.7,0.6c0.6,0,1.1-0.1,1.4-0.3c0.3-0.2,0.6-0.4,0.8-0.6
		c0.1-0.1,0.2-0.2,0.2-0.2s0.2-0.1,0.3-0.1h0.5c0.1,0,0.2,0,0.3,0.1s0.1,0.2,0.1,0.3c0,0.2-0.1,0.4-0.3,0.7
		c-0.2,0.2-0.4,0.5-0.7,0.7c-0.3,0.2-0.7,0.4-1.1,0.5c-0.5,0.1-1,0.2-1.6,0.2c-0.6,0-1.1-0.1-1.6-0.3c-0.5-0.2-0.9-0.5-1.2-0.8
		c-0.3-0.4-0.6-0.8-0.8-1.2c-0.2-0.5-0.3-1-0.4-1.6C208.3,241.5,208.3,241,208.4,240.5z M209.9,240.5h4.9v-0.1
		c0-0.7-0.2-1.3-0.7-1.7c-0.4-0.4-1-0.6-1.8-0.6c-0.3,0-0.6,0.1-0.9,0.2c-0.3,0.1-0.5,0.3-0.8,0.5c-0.2,0.2-0.4,0.4-0.5,0.7
		C210,239.8,209.9,240.1,209.9,240.5L209.9,240.5z"/>
	<path fill="#FFFFFF" d="M226.4,245.4c0,0.1,0,0.2-0.1,0.3c-0.1,0.1-0.2,0.1-0.3,0.1h-0.6c-0.1,0-0.2,0-0.3-0.1
		c-0.1-0.1-0.1-0.2-0.1-0.3v-4.6c0-0.9-0.2-1.5-0.6-2c-0.4-0.4-1-0.7-1.8-0.7c-0.7,0-1.3,0.2-1.8,0.7c-0.4,0.4-0.7,1.1-0.7,2v4.6
		c0,0.1,0,0.2-0.1,0.3c-0.1,0.1-0.2,0.1-0.3,0.1h-0.6c-0.1,0-0.2,0-0.3-0.1c-0.1-0.1-0.1-0.2-0.1-0.3v-8c0-0.1,0-0.2,0.1-0.3
		c0.1-0.1,0.2-0.1,0.3-0.1h0.6c0.1,0,0.2,0,0.3,0.1c0.1,0.1,0.1,0.2,0.1,0.3v0.5c0.2-0.3,0.5-0.6,1-0.8c0.4-0.2,1-0.4,1.7-0.4
		c0.5,0,1,0.1,1.5,0.3c0.5,0.2,0.9,0.4,1.2,0.8c0.3,0.3,0.6,0.7,0.8,1.2c0.2,0.5,0.3,1,0.3,1.6V245.4z"/>
	<path fill="#FFFFFF" d="M231.1,242.8c0,0.2,0,0.4,0.1,0.6c0,0.2,0.1,0.4,0.2,0.5c0.1,0.1,0.3,0.2,0.4,0.3c0.2,0.1,0.4,0.1,0.7,0.1
		h0.9c0.1,0,0.2,0,0.3,0.1c0.1,0.1,0.1,0.2,0.1,0.3v0.6c0,0.1,0,0.2-0.1,0.3c-0.1,0.1-0.2,0.1-0.3,0.1h-1.1c-1,0-1.7-0.3-2.2-0.8
		s-0.7-1.3-0.7-2.2v-4.5h-1.3c-0.1,0-0.2,0-0.3-0.1c-0.1-0.1-0.1-0.2-0.1-0.3v-0.6c0-0.1,0-0.2,0.1-0.3c0.1-0.1,0.2-0.1,0.3-0.1h1.3
		V234c0-0.1,0-0.2,0.1-0.3c0.1-0.1,0.2-0.1,0.3-0.1h0.6c0.1,0,0.2,0,0.3,0.1c0.1,0.1,0.1,0.2,0.1,0.3v2.8h2.2c0.1,0,0.2,0,0.3,0.1
		c0.1,0.1,0.1,0.2,0.1,0.3v0.6c0,0.1,0,0.2-0.1,0.3c-0.1,0.1-0.2,0.1-0.3,0.1h-2.2V242.8z"/>
	<path fill="#FFFFFF" d="M235.5,237.3c0-0.1,0-0.2,0.1-0.3c0.1-0.1,0.2-0.1,0.3-0.1h0.6c0.1,0,0.2,0,0.3,0.1
		c0.1,0.1,0.1,0.2,0.1,0.3v4.6c0,0.9,0.2,1.5,0.6,2c0.4,0.4,1,0.7,1.7,0.7c0.7,0,1.3-0.2,1.7-0.7c0.4-0.4,0.6-1.1,0.6-2v-4.6
		c0-0.1,0-0.2,0.1-0.3c0.1-0.1,0.2-0.1,0.3-0.1h0.6c0.1,0,0.2,0,0.3,0.1c0.1,0.1,0.1,0.2,0.1,0.3v8c0,0.1,0,0.2-0.1,0.3
		c-0.1,0.1-0.2,0.1-0.3,0.1h-0.6c-0.1,0-0.2,0-0.3-0.1c-0.1-0.1-0.1-0.2-0.1-0.3v-0.5c-0.2,0.3-0.5,0.6-0.9,0.8
		c-0.4,0.2-1,0.4-1.7,0.4c-0.5,0-1-0.1-1.5-0.3c-0.4-0.2-0.8-0.4-1.2-0.8c-0.3-0.3-0.6-0.7-0.7-1.2c-0.2-0.5-0.3-1-0.3-1.6V237.3z"
		/>
	<path fill="#FFFFFF" d="M250.5,236.8c0.1,0,0.2,0,0.3,0.1c0.1,0.1,0.1,0.2,0.1,0.3v0.6c0,0.1,0,0.2-0.1,0.3
		c-0.1,0.1-0.2,0.1-0.3,0.1h-1c-1.3,0-2,0.7-2,2v5c0,0.1,0,0.2-0.1,0.3c-0.1,0.1-0.2,0.1-0.3,0.1h-0.6c-0.1,0-0.2,0-0.3-0.1
		c-0.1-0.1-0.1-0.2-0.1-0.3v-8c0-0.1,0-0.2,0.1-0.3c0.1-0.1,0.2-0.1,0.3-0.1h0.6c0.1,0,0.2,0,0.3,0.1c0.1,0.1,0.1,0.2,0.1,0.3v0.5
		c0.2-0.3,0.5-0.6,0.8-0.8c0.3-0.2,0.7-0.2,1.3-0.2H250.5z"/>
	<path fill="#FFFFFF" d="M251.9,240.5c0-0.5,0.2-1,0.4-1.5c0.2-0.5,0.5-0.9,0.8-1.2c0.3-0.3,0.7-0.6,1.2-0.8c0.5-0.2,1-0.3,1.6-0.3
		c0.6,0,1.2,0.1,1.7,0.3c0.5,0.2,0.9,0.5,1.3,0.9c0.3,0.4,0.6,0.8,0.8,1.4c0.2,0.5,0.3,1.1,0.3,1.8v0.5c0,0.1,0,0.2-0.1,0.3
		c-0.1,0.1-0.2,0.1-0.3,0.1h-5.9v0.1c0,0.8,0.3,1.4,0.7,1.8c0.5,0.4,1,0.6,1.7,0.6c0.6,0,1.1-0.1,1.4-0.3c0.3-0.2,0.6-0.4,0.8-0.6
		c0.1-0.1,0.2-0.2,0.2-0.2c0.1,0,0.2-0.1,0.3-0.1h0.5c0.1,0,0.2,0,0.3,0.1c0.1,0.1,0.1,0.2,0.1,0.3c0,0.2-0.1,0.4-0.3,0.7
		c-0.2,0.2-0.4,0.5-0.7,0.7c-0.3,0.2-0.7,0.4-1.1,0.5c-0.5,0.1-1,0.2-1.6,0.2c-0.6,0-1.1-0.1-1.6-0.3c-0.5-0.2-0.9-0.5-1.2-0.8
		c-0.3-0.4-0.6-0.8-0.8-1.2c-0.2-0.5-0.3-1-0.4-1.6C251.8,241.5,251.8,241,251.9,240.5z M253.4,240.5h4.9v-0.1
		c0-0.7-0.2-1.3-0.7-1.7c-0.4-0.4-1-0.6-1.8-0.6c-0.3,0-0.6,0.1-0.9,0.2c-0.3,0.1-0.5,0.3-0.8,0.5c-0.2,0.2-0.4,0.4-0.5,0.7
		C253.5,239.8,253.4,240.1,253.4,240.5L253.4,240.5z"/>
	<path fill="#FFFFFF" d="M270.3,236.7c0.5,0,1,0.1,1.5,0.3c0.5,0.2,0.9,0.5,1.2,0.8c0.3,0.4,0.6,0.8,0.8,1.3s0.3,1.1,0.4,1.7
		c0,0.2,0,0.4,0,0.6s0,0.4,0,0.6c0,0.6-0.2,1.2-0.4,1.7s-0.5,0.9-0.8,1.3c-0.3,0.4-0.8,0.6-1.2,0.8c-0.5,0.2-1,0.3-1.5,0.3
		c-0.7,0-1.3-0.1-1.7-0.4c-0.4-0.2-0.8-0.5-1-0.8v0.5c0,0.1,0,0.2-0.1,0.3c-0.1,0.1-0.2,0.1-0.3,0.1h-0.6c-0.1,0-0.2,0-0.3-0.1
		c-0.1-0.1-0.1-0.2-0.1-0.3V234c0-0.1,0-0.2,0.1-0.3c0.1-0.1,0.2-0.1,0.3-0.1h0.6c0.1,0,0.2,0,0.3,0.1c0.1,0.1,0.1,0.2,0.1,0.3v3.8
		c0.2-0.3,0.5-0.6,1-0.8C269.1,236.8,269.6,236.7,270.3,236.7z M267.7,242.1c0.1,0.7,0.3,1.3,0.8,1.8c0.4,0.4,1,0.7,1.7,0.7
		c0.8,0,1.4-0.2,1.8-0.7c0.4-0.5,0.7-1.1,0.7-2c0-0.3,0-0.6,0-1c-0.1-0.8-0.3-1.5-0.7-2c-0.4-0.5-1-0.7-1.8-0.7
		c-0.7,0-1.3,0.2-1.7,0.7c-0.4,0.4-0.7,1.1-0.8,1.9c0,0.2,0,0.4,0,0.7C267.6,241.7,267.6,241.9,267.7,242.1z"/>
	<path fill="#FFFFFF" d="M278.7,248.7c0,0.1-0.1,0.2-0.2,0.3c-0.1,0.1-0.2,0.1-0.3,0.1h-0.7c-0.1,0-0.2,0-0.3-0.1
		c-0.1-0.1-0.1-0.2-0.1-0.3c0,0,0-0.1,0-0.1l1.7-3.6l-3.4-7.6c0,0,0-0.1,0-0.1c0-0.1,0-0.2,0.1-0.3c0.1-0.1,0.2-0.1,0.3-0.1h0.7
		c0.1,0,0.2,0,0.3,0.1c0.1,0.1,0.1,0.2,0.2,0.3l2.7,5.9l2.7-5.9c0-0.1,0.1-0.2,0.2-0.3c0.1-0.1,0.2-0.1,0.3-0.1h0.7
		c0.1,0,0.2,0,0.3,0.1c0.1,0.1,0.1,0.2,0.1,0.3c0,0,0,0.1,0,0.1L278.7,248.7z"/>
	<path fill="#FFFFFF" d="M293.7,236.7c0.5,0,1,0.1,1.5,0.3c0.5,0.2,0.9,0.5,1.2,0.8c0.3,0.4,0.6,0.8,0.8,1.3s0.3,1.1,0.4,1.7
		c0,0.2,0,0.4,0,0.6s0,0.4,0,0.6c0,0.6-0.2,1.2-0.4,1.7s-0.5,0.9-0.8,1.3s-0.8,0.6-1.2,0.8c-0.5,0.2-1,0.3-1.5,0.3
		c-0.7,0-1.3-0.1-1.7-0.4c-0.4-0.2-0.8-0.5-1-0.8v0.5c0,0.1,0,0.2-0.1,0.3c-0.1,0.1-0.2,0.1-0.3,0.1h-0.6c-0.1,0-0.2,0-0.3-0.1
		c-0.1-0.1-0.1-0.2-0.1-0.3V234c0-0.1,0-0.2,0.1-0.3c0.1-0.1,0.2-0.1,0.3-0.1h0.6c0.1,0,0.2,0,0.3,0.1c0.1,0.1,0.1,0.2,0.1,0.3v3.8
		c0.2-0.3,0.5-0.6,1-0.8C292.4,236.8,293,236.7,293.7,236.7z M291,242.1c0.1,0.7,0.3,1.3,0.8,1.8c0.4,0.4,1,0.7,1.7,0.7
		c0.8,0,1.4-0.2,1.8-0.7c0.4-0.5,0.7-1.1,0.7-2c0-0.3,0-0.6,0-1c-0.1-0.8-0.3-1.5-0.7-2c-0.4-0.5-1-0.7-1.8-0.7
		c-0.7,0-1.3,0.2-1.7,0.7c-0.4,0.4-0.7,1.1-0.8,1.9c0,0.2,0,0.4,0,0.7C291,241.7,291,241.9,291,242.1z"/>
	<path fill="#FFFFFF" d="M304.3,236.8c0.1,0,0.2,0,0.3,0.1c0.1,0.1,0.1,0.2,0.1,0.3v0.6c0,0.1,0,0.2-0.1,0.3
		c-0.1,0.1-0.2,0.1-0.3,0.1h-1c-1.3,0-2,0.7-2,2v5c0,0.1,0,0.2-0.1,0.3c-0.1,0.1-0.2,0.1-0.3,0.1h-0.6c-0.1,0-0.2,0-0.3-0.1
		c-0.1-0.1-0.1-0.2-0.1-0.3v-8c0-0.1,0-0.2,0.1-0.3c0.1-0.1,0.2-0.1,0.3-0.1h0.6c0.1,0,0.2,0,0.3,0.1c0.1,0.1,0.1,0.2,0.1,0.3v0.5
		c0.2-0.3,0.5-0.6,0.8-0.8c0.3-0.2,0.7-0.2,1.3-0.2H304.3z"/>
	<path fill="#FFFFFF" d="M309.8,236.7c0.6,0,1.2,0.1,1.7,0.3c0.5,0.2,0.9,0.5,1.2,0.8c0.3,0.3,0.6,0.7,0.8,1.2
		c0.2,0.5,0.3,1,0.4,1.6c0,0.1,0,0.2,0,0.4s0,0.3,0,0.4c0,0.2,0,0.3,0,0.4s0,0.3,0,0.4c-0.1,0.6-0.2,1.1-0.4,1.6
		c-0.2,0.5-0.5,0.9-0.8,1.2c-0.3,0.3-0.8,0.6-1.2,0.8c-0.5,0.2-1,0.3-1.7,0.3c-0.6,0-1.2-0.1-1.7-0.3c-0.5-0.2-0.9-0.5-1.2-0.8
		c-0.3-0.3-0.6-0.7-0.8-1.2c-0.2-0.5-0.3-1-0.4-1.6c0-0.1,0-0.2,0-0.4c0-0.1,0-0.3,0-0.4c0-0.2,0-0.3,0-0.4c0-0.1,0-0.3,0-0.4
		c0-0.6,0.2-1.1,0.4-1.6c0.2-0.5,0.5-0.9,0.8-1.2c0.3-0.3,0.8-0.6,1.2-0.8C308.6,236.8,309.1,236.7,309.8,236.7z M312.3,242.1
		c0-0.2,0-0.4,0-0.7c0-0.3,0-0.5,0-0.7c0-0.3-0.1-0.7-0.2-1c-0.1-0.3-0.3-0.6-0.5-0.8c-0.2-0.2-0.5-0.4-0.8-0.5
		c-0.3-0.1-0.7-0.2-1.1-0.2c-0.4,0-0.8,0.1-1.1,0.2c-0.3,0.1-0.6,0.3-0.8,0.5c-0.2,0.2-0.4,0.5-0.5,0.8c-0.1,0.3-0.2,0.6-0.2,1
		c0,0.2,0,0.5,0,0.7c0,0.3,0,0.5,0,0.7c0,0.3,0.1,0.7,0.2,1c0.1,0.3,0.3,0.6,0.5,0.8s0.5,0.4,0.8,0.5c0.3,0.1,0.6,0.2,1.1,0.2
		c0.4,0,0.8-0.1,1.1-0.2c0.3-0.1,0.6-0.3,0.8-0.5s0.4-0.5,0.5-0.8C312.2,242.7,312.3,242.4,312.3,242.1z"/>
	<path fill="#FFFFFF" d="M324.2,243l1.9-5.8c0-0.1,0.1-0.2,0.2-0.3s0.2-0.1,0.4-0.1h0.6c0.1,0,0.2,0,0.3,0.1
		c0.1,0.1,0.1,0.2,0.1,0.3c0,0,0,0.1,0,0.1l-2.6,7.9c0,0.1-0.1,0.3-0.2,0.3c-0.1,0.1-0.2,0.1-0.3,0.1H324c-0.1,0-0.3,0-0.3-0.1
		c-0.1-0.1-0.1-0.2-0.2-0.3l-2.1-5.7l-2.1,5.7c-0.1,0.1-0.1,0.2-0.2,0.3c-0.1,0.1-0.2,0.1-0.3,0.1h-0.5c-0.1,0-0.3,0-0.3-0.1
		c-0.1-0.1-0.1-0.2-0.2-0.3l-2.6-7.9c0,0,0-0.1,0-0.1c0-0.1,0-0.2,0.1-0.3c0.1-0.1,0.2-0.1,0.3-0.1h0.6c0.2,0,0.3,0,0.4,0.1
		c0.1,0.1,0.2,0.2,0.2,0.3l1.9,5.8l2.1-5.8c0-0.1,0.1-0.2,0.2-0.3c0.1-0.1,0.2-0.1,0.4-0.1h0.4c0.2,0,0.3,0,0.4,0.1
		c0.1,0.1,0.1,0.2,0.2,0.3L324.2,243z"/>
	<path fill="#FFFFFF" d="M334.5,243.3c0-0.2-0.1-0.4-0.2-0.5c-0.1-0.1-0.3-0.3-0.5-0.4c-0.2-0.1-0.6-0.2-0.9-0.3
		c-0.4-0.1-0.8-0.2-1.3-0.3c-0.9-0.2-1.6-0.5-2-1c-0.4-0.5-0.6-1-0.6-1.6c0-0.3,0.1-0.7,0.2-1c0.1-0.3,0.3-0.6,0.6-0.8
		s0.6-0.4,1-0.6c0.4-0.1,0.9-0.2,1.5-0.2s1.1,0.1,1.5,0.2c0.4,0.1,0.8,0.3,1.1,0.5c0.3,0.2,0.5,0.4,0.7,0.6c0.1,0.2,0.2,0.4,0.2,0.6
		c0,0.1,0,0.2-0.1,0.3c-0.1,0.1-0.2,0.1-0.3,0.1h-0.6c-0.1,0-0.2,0-0.3,0c-0.1,0-0.2-0.1-0.3-0.2c-0.1-0.2-0.4-0.4-0.7-0.5
		c-0.3-0.1-0.7-0.2-1.2-0.2c-0.5,0-1,0.1-1.3,0.3c-0.3,0.2-0.5,0.5-0.5,0.8c0,0.2,0,0.4,0.1,0.5c0.1,0.1,0.2,0.2,0.4,0.3
		c0.2,0.1,0.5,0.2,0.8,0.3c0.3,0.1,0.8,0.2,1.3,0.3c0.5,0.1,1,0.3,1.3,0.4c0.4,0.2,0.6,0.4,0.9,0.6c0.2,0.2,0.4,0.5,0.5,0.7
		c0.1,0.3,0.1,0.6,0.1,0.9c0,0.3-0.1,0.7-0.3,1c-0.2,0.3-0.4,0.6-0.7,0.8s-0.7,0.4-1.1,0.6c-0.4,0.1-0.9,0.2-1.5,0.2
		c-0.6,0-1.1-0.1-1.5-0.2c-0.4-0.1-0.8-0.3-1.1-0.5c-0.3-0.2-0.5-0.4-0.7-0.7c-0.2-0.2-0.3-0.5-0.3-0.7c0-0.1,0-0.2,0.1-0.3
		c0.1-0.1,0.2-0.1,0.3-0.1h0.6c0.1,0,0.1,0,0.2,0c0.1,0,0.2,0.1,0.3,0.2c0.2,0.3,0.4,0.4,0.8,0.6c0.3,0.1,0.7,0.2,1.3,0.2
		c0.3,0,0.5,0,0.8-0.1c0.2-0.1,0.5-0.1,0.7-0.2c0.2-0.1,0.3-0.2,0.5-0.4C334.5,243.7,334.5,243.5,334.5,243.3z"/>
	<path fill="#FFFFFF" d="M339.9,235c0,0.1,0,0.2-0.1,0.3c-0.1,0.1-0.2,0.1-0.3,0.1h-1c-0.1,0-0.2,0-0.3-0.1
		c-0.1-0.1-0.1-0.2-0.1-0.3v-1c0-0.1,0-0.2,0.1-0.3c0.1-0.1,0.2-0.1,0.3-0.1h1c0.1,0,0.2,0,0.3,0.1c0.1,0.1,0.1,0.2,0.1,0.3V235z
		 M339.7,245.4c0,0.1,0,0.2-0.1,0.3c-0.1,0.1-0.2,0.1-0.3,0.1h-0.6c-0.1,0-0.2,0-0.3-0.1c-0.1-0.1-0.1-0.2-0.1-0.3v-8
		c0-0.1,0-0.2,0.1-0.3c0.1-0.1,0.2-0.1,0.3-0.1h0.6c0.1,0,0.2,0,0.3,0.1c0.1,0.1,0.1,0.2,0.1,0.3V245.4z"/>
	<path fill="#FFFFFF" d="M350.3,245.4c0,0.1,0,0.2-0.1,0.3c-0.1,0.1-0.2,0.1-0.3,0.1h-0.6c-0.1,0-0.2,0-0.3-0.1
		c-0.1-0.1-0.1-0.2-0.1-0.3v-4.6c0-0.9-0.2-1.5-0.6-2c-0.4-0.4-1-0.7-1.8-0.7c-0.7,0-1.3,0.2-1.8,0.7c-0.4,0.4-0.7,1.1-0.7,2v4.6
		c0,0.1,0,0.2-0.1,0.3c-0.1,0.1-0.2,0.1-0.3,0.1h-0.6c-0.1,0-0.2,0-0.3-0.1c-0.1-0.1-0.1-0.2-0.1-0.3v-8c0-0.1,0-0.2,0.1-0.3
		c0.1-0.1,0.2-0.1,0.3-0.1h0.6c0.1,0,0.2,0,0.3,0.1c0.1,0.1,0.1,0.2,0.1,0.3v0.5c0.2-0.3,0.5-0.6,1-0.8c0.4-0.2,1-0.4,1.7-0.4
		c0.5,0,1,0.1,1.5,0.3c0.5,0.2,0.9,0.4,1.2,0.8c0.3,0.3,0.6,0.7,0.8,1.2c0.2,0.5,0.3,1,0.3,1.6V245.4z"/>
	<path fill="#FFFFFF" d="M352.4,240.8c0-0.6,0.2-1.2,0.4-1.7s0.5-0.9,0.8-1.3c0.3-0.4,0.8-0.6,1.2-0.8c0.5-0.2,1-0.3,1.5-0.3
		c0.7,0,1.3,0.1,1.7,0.4c0.4,0.2,0.7,0.5,1,0.8v-0.5c0-0.1,0-0.2,0.1-0.3c0.1-0.1,0.2-0.1,0.3-0.1h0.6c0.1,0,0.2,0,0.3,0.1
		c0.1,0.1,0.1,0.2,0.1,0.3v8.4c0,1.2-0.3,2.1-1,2.9c-0.7,0.7-1.7,1.1-3.1,1.1c-0.7,0-1.3-0.1-1.8-0.2c-0.5-0.2-0.9-0.4-1.2-0.6
		c-0.3-0.3-0.6-0.5-0.7-0.8c-0.2-0.3-0.2-0.6-0.3-0.9c0-0.1,0-0.2,0.1-0.3c0.1-0.1,0.2-0.1,0.3-0.1h0.5c0.1,0,0.2,0,0.3,0.1
		c0.1,0.1,0.2,0.2,0.3,0.4c0,0.1,0.1,0.2,0.2,0.3c0.1,0.1,0.2,0.2,0.4,0.4c0.2,0.1,0.4,0.2,0.7,0.3c0.3,0.1,0.6,0.1,1,0.1
		c0.4,0,0.7,0,1.1-0.1c0.3-0.1,0.6-0.2,0.9-0.4c0.2-0.2,0.4-0.4,0.6-0.7c0.1-0.3,0.2-0.6,0.2-1.1v-1.1c-0.2,0.3-0.6,0.6-1,0.8
		c-0.4,0.2-1,0.4-1.7,0.4c-0.5,0-1-0.1-1.5-0.3c-0.5-0.2-0.9-0.5-1.2-0.8c-0.3-0.4-0.6-0.8-0.8-1.3c-0.2-0.5-0.3-1.1-0.4-1.7
		c0-0.2,0-0.4,0-0.6S352.4,240.9,352.4,240.8z M359,240.7c0-0.8-0.3-1.4-0.7-1.9c-0.5-0.4-1-0.7-1.8-0.7c-0.8,0-1.4,0.2-1.8,0.7
		c-0.4,0.5-0.7,1.1-0.7,2c0,0.3,0,0.6,0,1c0,0.8,0.3,1.5,0.7,2c0.4,0.5,1,0.7,1.8,0.7c0.7,0,1.3-0.2,1.8-0.7s0.7-1.1,0.7-1.9
		c0-0.2,0-0.4,0-0.6S359,240.9,359,240.7z"/>
	<path fill="#FFFFFF" d="M371,236.7c0.6,0,1.2,0.1,1.7,0.3c0.5,0.2,0.9,0.5,1.2,0.8c0.3,0.3,0.6,0.7,0.8,1.2c0.2,0.5,0.3,1,0.4,1.6
		c0,0.1,0,0.2,0,0.4s0,0.3,0,0.4c0,0.2,0,0.3,0,0.4s0,0.3,0,0.4c-0.1,0.6-0.2,1.1-0.4,1.6c-0.2,0.5-0.5,0.9-0.8,1.2
		c-0.3,0.3-0.8,0.6-1.2,0.8c-0.5,0.2-1,0.3-1.7,0.3s-1.2-0.1-1.7-0.3c-0.5-0.2-0.9-0.5-1.2-0.8c-0.3-0.3-0.6-0.7-0.8-1.2
		c-0.2-0.5-0.3-1-0.4-1.6c0-0.1,0-0.2,0-0.4c0-0.1,0-0.3,0-0.4c0-0.2,0-0.3,0-0.4c0-0.1,0-0.3,0-0.4c0-0.6,0.2-1.1,0.4-1.6
		c0.2-0.5,0.5-0.9,0.8-1.2c0.3-0.3,0.8-0.6,1.2-0.8C369.8,236.8,370.4,236.7,371,236.7z M373.5,242.1c0-0.2,0-0.4,0-0.7
		c0-0.3,0-0.5,0-0.7c0-0.3-0.1-0.7-0.2-1c-0.1-0.3-0.3-0.6-0.5-0.8c-0.2-0.2-0.5-0.4-0.8-0.5c-0.3-0.1-0.7-0.2-1.1-0.2
		c-0.4,0-0.8,0.1-1.1,0.2c-0.3,0.1-0.6,0.3-0.8,0.5c-0.2,0.2-0.4,0.5-0.5,0.8c-0.1,0.3-0.2,0.6-0.2,1c0,0.2,0,0.5,0,0.7
		c0,0.3,0,0.5,0,0.7c0,0.3,0.1,0.7,0.2,1c0.1,0.3,0.3,0.6,0.5,0.8c0.2,0.2,0.5,0.4,0.8,0.5c0.3,0.1,0.6,0.2,1.1,0.2
		c0.4,0,0.8-0.1,1.1-0.2c0.3-0.1,0.6-0.3,0.8-0.5s0.4-0.5,0.5-0.8C373.4,242.7,373.5,242.4,373.5,242.1z"/>
	<path fill="#FFFFFF" d="M377.2,237.3c0-0.1,0-0.2,0.1-0.3s0.2-0.1,0.3-0.1h0.6c0.1,0,0.2,0,0.3,0.1c0.1,0.1,0.1,0.2,0.1,0.3v4.6
		c0,0.9,0.2,1.5,0.6,2c0.4,0.4,1,0.7,1.7,0.7c0.7,0,1.3-0.2,1.7-0.7c0.4-0.4,0.6-1.1,0.6-2v-4.6c0-0.1,0-0.2,0.1-0.3
		c0.1-0.1,0.2-0.1,0.3-0.1h0.6c0.1,0,0.2,0,0.3,0.1c0.1,0.1,0.1,0.2,0.1,0.3v8c0,0.1,0,0.2-0.1,0.3c-0.1,0.1-0.2,0.1-0.3,0.1h-0.6
		c-0.1,0-0.2,0-0.3-0.1c-0.1-0.1-0.1-0.2-0.1-0.3v-0.5c-0.2,0.3-0.5,0.6-0.9,0.8c-0.4,0.2-1,0.4-1.7,0.4c-0.5,0-1-0.1-1.5-0.3
		c-0.4-0.2-0.8-0.4-1.2-0.8c-0.3-0.3-0.6-0.7-0.7-1.2c-0.2-0.5-0.3-1-0.3-1.6V237.3z"/>
	<path fill="#FFFFFF" d="M392.2,236.8c0.1,0,0.2,0,0.3,0.1s0.1,0.2,0.1,0.3v0.6c0,0.1,0,0.2-0.1,0.3c-0.1,0.1-0.2,0.1-0.3,0.1h-1
		c-1.3,0-2,0.7-2,2v5c0,0.1,0,0.2-0.1,0.3c-0.1,0.1-0.2,0.1-0.3,0.1h-0.6c-0.1,0-0.2,0-0.3-0.1c-0.1-0.1-0.1-0.2-0.1-0.3v-8
		c0-0.1,0-0.2,0.1-0.3c0.1-0.1,0.2-0.1,0.3-0.1h0.6c0.1,0,0.2,0,0.3,0.1c0.1,0.1,0.1,0.2,0.1,0.3v0.5c0.2-0.3,0.5-0.6,0.8-0.8
		c0.3-0.2,0.7-0.2,1.3-0.2H392.2z"/>
	<path fill="#FFFFFF" d="M411.6,242.4l-2.4,3.1c0,0.1-0.1,0.1-0.2,0.2c-0.1,0.1-0.2,0.1-0.4,0.1h-0.8c-0.1,0-0.2,0-0.3-0.1
		c-0.1-0.1-0.1-0.2-0.1-0.3c0-0.1,0-0.2,0.1-0.2l3.2-4l-3-3.7c0-0.1-0.1-0.1-0.1-0.2c0-0.1,0-0.2,0.1-0.3c0.1-0.1,0.2-0.1,0.3-0.1
		h0.8c0.1,0,0.3,0,0.4,0.1c0.1,0.1,0.2,0.1,0.2,0.2l2.3,2.9l2.3-2.9c0-0.1,0.1-0.1,0.2-0.2c0.1-0.1,0.2-0.1,0.4-0.1h0.8
		c0.1,0,0.2,0,0.3,0.1c0.1,0.1,0.1,0.2,0.1,0.3c0,0.1,0,0.2-0.1,0.2l-3,3.8l3.1,3.9c0,0.1,0.1,0.1,0.1,0.2c0,0.1,0,0.2-0.1,0.3
		c-0.1,0.1-0.2,0.1-0.3,0.1h-0.8c-0.1,0-0.3,0-0.4-0.1c-0.1-0.1-0.2-0.1-0.2-0.2L411.6,242.4z"/>
	<path fill="#FFFFFF" d="M421.9,246c-0.7,0-1.3-0.1-1.7-0.4c-0.4-0.2-0.7-0.5-1-0.8v3.8c0,0.1,0,0.2-0.1,0.3
		c-0.1,0.1-0.2,0.1-0.3,0.1h-0.6c-0.1,0-0.2,0-0.3-0.1c-0.1-0.1-0.1-0.2-0.1-0.3v-11.3c0-0.1,0-0.2,0.1-0.3c0.1-0.1,0.2-0.1,0.3-0.1
		h0.6c0.1,0,0.2,0,0.3,0.1c0.1,0.1,0.1,0.2,0.1,0.3v0.5c0.2-0.3,0.6-0.6,1-0.8c0.4-0.2,1-0.4,1.7-0.4c0.5,0,1,0.1,1.5,0.3
		c0.5,0.2,0.9,0.5,1.2,0.8c0.3,0.4,0.6,0.8,0.8,1.3c0.2,0.5,0.3,1.1,0.4,1.7c0,0.2,0,0.4,0,0.6c0,0.2,0,0.4,0,0.6
		c0,0.6-0.2,1.2-0.4,1.7c-0.2,0.5-0.5,0.9-0.8,1.3c-0.3,0.4-0.8,0.6-1.2,0.8C422.9,245.9,422.4,246,421.9,246z M419.2,240.6
		c0,0.2,0,0.4,0,0.7c0,0.3,0,0.5,0,0.7c0,0.8,0.3,1.4,0.7,1.9c0.5,0.4,1,0.7,1.8,0.7c0.8,0,1.4-0.2,1.8-0.7c0.4-0.5,0.7-1.1,0.7-2
		c0-0.3,0-0.6,0-1c0-0.8-0.3-1.5-0.7-2c-0.4-0.5-1-0.7-1.8-0.7c-0.7,0-1.3,0.2-1.8,0.7C419.5,239.3,419.2,239.8,419.2,240.6z"/>
	<path fill="#FFFFFF" d="M429.5,245.4c0,0.1,0,0.2-0.1,0.3c-0.1,0.1-0.2,0.1-0.3,0.1h-0.6c-0.1,0-0.2,0-0.3-0.1
		c-0.1-0.1-0.1-0.2-0.1-0.3V234c0-0.1,0-0.2,0.1-0.3c0.1-0.1,0.2-0.1,0.3-0.1h0.6c0.1,0,0.2,0,0.3,0.1c0.1,0.1,0.1,0.2,0.1,0.3
		V245.4z"/>
	<path fill="#FFFFFF" d="M435.8,236.7c0.6,0,1.2,0.1,1.7,0.3c0.5,0.2,0.9,0.5,1.2,0.8c0.3,0.3,0.6,0.7,0.8,1.2
		c0.2,0.5,0.3,1,0.4,1.6c0,0.1,0,0.2,0,0.4s0,0.3,0,0.4c0,0.2,0,0.3,0,0.4s0,0.3,0,0.4c-0.1,0.6-0.2,1.1-0.4,1.6
		c-0.2,0.5-0.5,0.9-0.8,1.2c-0.3,0.3-0.8,0.6-1.2,0.8c-0.5,0.2-1,0.3-1.7,0.3c-0.6,0-1.2-0.1-1.7-0.3c-0.5-0.2-0.9-0.5-1.2-0.8
		c-0.3-0.3-0.6-0.7-0.8-1.2c-0.2-0.5-0.3-1-0.4-1.6c0-0.1,0-0.2,0-0.4c0-0.1,0-0.3,0-0.4c0-0.2,0-0.3,0-0.4c0-0.1,0-0.3,0-0.4
		c0-0.6,0.2-1.1,0.4-1.6c0.2-0.5,0.5-0.9,0.8-1.2c0.3-0.3,0.8-0.6,1.2-0.8C434.6,236.8,435.2,236.7,435.8,236.7z M438.3,242.1
		c0-0.2,0-0.4,0-0.7c0-0.3,0-0.5,0-0.7c0-0.3-0.1-0.7-0.2-1c-0.1-0.3-0.3-0.6-0.5-0.8c-0.2-0.2-0.5-0.4-0.8-0.5
		c-0.3-0.1-0.7-0.2-1.1-0.2c-0.4,0-0.8,0.1-1.1,0.2c-0.3,0.1-0.6,0.3-0.8,0.5c-0.2,0.2-0.4,0.5-0.5,0.8c-0.1,0.3-0.2,0.6-0.2,1
		c0,0.2,0,0.5,0,0.7c0,0.3,0,0.5,0,0.7c0,0.3,0.1,0.7,0.2,1c0.1,0.3,0.3,0.6,0.5,0.8s0.5,0.4,0.8,0.5s0.6,0.2,1.1,0.2
		c0.4,0,0.8-0.1,1.1-0.2s0.6-0.3,0.8-0.5s0.4-0.5,0.5-0.8C438.2,242.7,438.3,242.4,438.3,242.1z"/>
	<path fill="#FFFFFF" d="M446.6,236.8c0.1,0,0.2,0,0.3,0.1s0.1,0.2,0.1,0.3v0.6c0,0.1,0,0.2-0.1,0.3c-0.1,0.1-0.2,0.1-0.3,0.1h-1
		c-1.3,0-2,0.7-2,2v5c0,0.1,0,0.2-0.1,0.3c-0.1,0.1-0.2,0.1-0.3,0.1h-0.6c-0.1,0-0.2,0-0.3-0.1c-0.1-0.1-0.1-0.2-0.1-0.3v-8
		c0-0.1,0-0.2,0.1-0.3c0.1-0.1,0.2-0.1,0.3-0.1h0.6c0.1,0,0.2,0,0.3,0.1c0.1,0.1,0.1,0.2,0.1,0.3v0.5c0.2-0.3,0.5-0.6,0.8-0.8
		c0.3-0.2,0.7-0.2,1.3-0.2H446.6z"/>
	<path fill="#FFFFFF" d="M447.8,243.6c0-0.5,0.1-0.9,0.3-1.2c0.2-0.3,0.4-0.6,0.8-0.9c0.3-0.2,0.7-0.4,1.1-0.6
		c0.4-0.1,0.9-0.3,1.4-0.3l2.4-0.4v-0.2c0-0.6-0.2-1-0.6-1.3s-0.9-0.4-1.4-0.4c-0.5,0-0.9,0.1-1.1,0.3c-0.3,0.2-0.5,0.4-0.7,0.7
		c-0.1,0.1-0.1,0.2-0.2,0.2c-0.1,0-0.2,0.1-0.3,0.1h-0.5c-0.1,0-0.2,0-0.3-0.1c-0.1-0.1-0.1-0.2-0.1-0.3c0-0.3,0.1-0.5,0.3-0.8
		s0.4-0.5,0.7-0.7s0.7-0.4,1.1-0.5c0.4-0.1,0.8-0.2,1.3-0.2c0.5,0,1,0.1,1.4,0.2c0.4,0.1,0.8,0.4,1.1,0.7c0.3,0.3,0.6,0.6,0.7,1.1
		c0.2,0.4,0.3,0.9,0.3,1.5v5.3c0,0.1,0,0.2-0.1,0.3c-0.1,0.1-0.2,0.1-0.3,0.1h-0.6c-0.1,0-0.2,0-0.3-0.1c-0.1-0.1-0.1-0.2-0.1-0.3
		v-0.7c-0.1,0.2-0.3,0.4-0.5,0.6c-0.2,0.2-0.5,0.3-0.8,0.4c-0.3,0.1-0.6,0.2-0.9,0.3c-0.3,0.1-0.6,0.1-0.9,0.1
		c-0.4,0-0.9-0.1-1.2-0.2c-0.4-0.1-0.7-0.3-0.9-0.5c-0.3-0.2-0.5-0.5-0.6-0.8S447.8,243.9,447.8,243.6z M451,244.5
		c0.4,0,0.8-0.1,1.1-0.2c0.3-0.1,0.6-0.3,0.9-0.5c0.2-0.2,0.4-0.5,0.6-0.8c0.1-0.3,0.2-0.7,0.2-1v-0.4l-2,0.3
		c-0.7,0.1-1.3,0.3-1.7,0.6c-0.4,0.3-0.6,0.6-0.6,1c0,0.1,0,0.3,0.1,0.4c0.1,0.1,0.1,0.2,0.3,0.4s0.3,0.2,0.5,0.3
		C450.5,244.5,450.7,244.5,451,244.5z"/>
	<path fill="#FFFFFF" d="M460.1,242.8c0,0.2,0,0.4,0.1,0.6c0,0.2,0.1,0.4,0.2,0.5c0.1,0.1,0.3,0.2,0.4,0.3c0.2,0.1,0.4,0.1,0.7,0.1
		h0.9c0.1,0,0.2,0,0.3,0.1c0.1,0.1,0.1,0.2,0.1,0.3v0.6c0,0.1,0,0.2-0.1,0.3c-0.1,0.1-0.2,0.1-0.3,0.1h-1.1c-1,0-1.7-0.3-2.2-0.8
		s-0.7-1.3-0.7-2.2v-4.5h-1.3c-0.1,0-0.2,0-0.3-0.1c-0.1-0.1-0.1-0.2-0.1-0.3v-0.6c0-0.1,0-0.2,0.1-0.3c0.1-0.1,0.2-0.1,0.3-0.1h1.3
		V234c0-0.1,0-0.2,0.1-0.3c0.1-0.1,0.2-0.1,0.3-0.1h0.6c0.1,0,0.2,0,0.3,0.1c0.1,0.1,0.1,0.2,0.1,0.3v2.8h2.2c0.1,0,0.2,0,0.3,0.1
		c0.1,0.1,0.1,0.2,0.1,0.3v0.6c0,0.1,0,0.2-0.1,0.3c-0.1,0.1-0.2,0.1-0.3,0.1h-2.2V242.8z"/>
	<path fill="#FFFFFF" d="M466.4,235c0,0.1,0,0.2-0.1,0.3c-0.1,0.1-0.2,0.1-0.3,0.1h-1c-0.1,0-0.2,0-0.3-0.1
		c-0.1-0.1-0.1-0.2-0.1-0.3v-1c0-0.1,0-0.2,0.1-0.3c0.1-0.1,0.2-0.1,0.3-0.1h1c0.1,0,0.2,0,0.3,0.1c0.1,0.1,0.1,0.2,0.1,0.3V235z
		 M466.3,245.4c0,0.1,0,0.2-0.1,0.3c-0.1,0.1-0.2,0.1-0.3,0.1h-0.6c-0.1,0-0.2,0-0.3-0.1c-0.1-0.1-0.1-0.2-0.1-0.3v-8
		c0-0.1,0-0.2,0.1-0.3c0.1-0.1,0.2-0.1,0.3-0.1h0.6c0.1,0,0.2,0,0.3,0.1c0.1,0.1,0.1,0.2,0.1,0.3V245.4z"/>
	<path fill="#FFFFFF" d="M472.5,236.7c0.6,0,1.2,0.1,1.7,0.3c0.5,0.2,0.9,0.5,1.2,0.8c0.3,0.3,0.6,0.7,0.8,1.2
		c0.2,0.5,0.3,1,0.4,1.6c0,0.1,0,0.2,0,0.4s0,0.3,0,0.4c0,0.2,0,0.3,0,0.4s0,0.3,0,0.4c-0.1,0.6-0.2,1.1-0.4,1.6
		c-0.2,0.5-0.5,0.9-0.8,1.2c-0.3,0.3-0.8,0.6-1.2,0.8c-0.5,0.2-1,0.3-1.7,0.3c-0.6,0-1.2-0.1-1.7-0.3c-0.5-0.2-0.9-0.5-1.2-0.8
		c-0.3-0.3-0.6-0.7-0.8-1.2c-0.2-0.5-0.3-1-0.4-1.6c0-0.1,0-0.2,0-0.4c0-0.1,0-0.3,0-0.4c0-0.2,0-0.3,0-0.4c0-0.1,0-0.3,0-0.4
		c0-0.6,0.2-1.1,0.4-1.6c0.2-0.5,0.5-0.9,0.8-1.2c0.3-0.3,0.8-0.6,1.2-0.8C471.4,236.8,471.9,236.7,472.5,236.7z M475.1,242.1
		c0-0.2,0-0.4,0-0.7c0-0.3,0-0.5,0-0.7c0-0.3-0.1-0.7-0.2-1c-0.1-0.3-0.3-0.6-0.5-0.8c-0.2-0.2-0.5-0.4-0.8-0.5
		c-0.3-0.1-0.7-0.2-1.1-0.2c-0.4,0-0.8,0.1-1.1,0.2c-0.3,0.1-0.6,0.3-0.8,0.5c-0.2,0.2-0.4,0.5-0.5,0.8c-0.1,0.3-0.2,0.6-0.2,1
		c0,0.2,0,0.5,0,0.7c0,0.3,0,0.5,0,0.7c0,0.3,0.1,0.7,0.2,1c0.1,0.3,0.3,0.6,0.5,0.8s0.5,0.4,0.8,0.5s0.6,0.2,1.1,0.2
		c0.4,0,0.8-0.1,1.1-0.2s0.6-0.3,0.8-0.5s0.4-0.5,0.5-0.8C474.9,242.7,475,242.4,475.1,242.1z"/>
	<path fill="#FFFFFF" d="M486.8,245.4c0,0.1,0,0.2-0.1,0.3c-0.1,0.1-0.2,0.1-0.3,0.1h-0.6c-0.1,0-0.2,0-0.3-0.1
		c-0.1-0.1-0.1-0.2-0.1-0.3v-4.6c0-0.9-0.2-1.5-0.6-2c-0.4-0.4-1-0.7-1.8-0.7c-0.7,0-1.3,0.2-1.8,0.7c-0.4,0.4-0.7,1.1-0.7,2v4.6
		c0,0.1,0,0.2-0.1,0.3c-0.1,0.1-0.2,0.1-0.3,0.1h-0.6c-0.1,0-0.2,0-0.3-0.1c-0.1-0.1-0.1-0.2-0.1-0.3v-8c0-0.1,0-0.2,0.1-0.3
		c0.1-0.1,0.2-0.1,0.3-0.1h0.6c0.1,0,0.2,0,0.3,0.1c0.1,0.1,0.1,0.2,0.1,0.3v0.5c0.2-0.3,0.5-0.6,1-0.8c0.4-0.2,1-0.4,1.7-0.4
		c0.5,0,1,0.1,1.5,0.3c0.5,0.2,0.9,0.4,1.2,0.8c0.3,0.3,0.6,0.7,0.8,1.2c0.2,0.5,0.3,1,0.3,1.6V245.4z"/>
	<path fill="#FFFFFF" d="M494.4,243.3c0-0.2-0.1-0.4-0.2-0.5c-0.1-0.1-0.3-0.3-0.5-0.4c-0.2-0.1-0.6-0.2-0.9-0.3
		c-0.4-0.1-0.8-0.2-1.3-0.3c-0.9-0.2-1.6-0.5-2-1c-0.4-0.5-0.6-1-0.6-1.6c0-0.3,0.1-0.7,0.2-1c0.1-0.3,0.3-0.6,0.6-0.8
		s0.6-0.4,1-0.6c0.4-0.1,0.9-0.2,1.5-0.2c0.6,0,1.1,0.1,1.5,0.2c0.4,0.1,0.8,0.3,1.1,0.5c0.3,0.2,0.5,0.4,0.7,0.6
		c0.1,0.2,0.2,0.4,0.2,0.6c0,0.1,0,0.2-0.1,0.3c-0.1,0.1-0.2,0.1-0.3,0.1h-0.6c-0.1,0-0.2,0-0.3,0c-0.1,0-0.2-0.1-0.3-0.2
		c-0.1-0.2-0.4-0.4-0.7-0.5c-0.3-0.1-0.7-0.2-1.2-0.2c-0.5,0-1,0.1-1.3,0.3c-0.3,0.2-0.5,0.5-0.5,0.8c0,0.2,0,0.4,0.1,0.5
		c0.1,0.1,0.2,0.2,0.4,0.3c0.2,0.1,0.5,0.2,0.8,0.3c0.3,0.1,0.8,0.2,1.3,0.3c0.5,0.1,1,0.3,1.3,0.4c0.4,0.2,0.6,0.4,0.9,0.6
		c0.2,0.2,0.4,0.5,0.5,0.7c0.1,0.3,0.1,0.6,0.1,0.9c0,0.3-0.1,0.7-0.3,1c-0.2,0.3-0.4,0.6-0.7,0.8c-0.3,0.2-0.7,0.4-1.1,0.6
		c-0.4,0.1-0.9,0.2-1.5,0.2c-0.6,0-1.1-0.1-1.5-0.2c-0.4-0.1-0.8-0.3-1.1-0.5c-0.3-0.2-0.5-0.4-0.7-0.7c-0.2-0.2-0.3-0.5-0.3-0.7
		c0-0.1,0-0.2,0.1-0.3c0.1-0.1,0.2-0.1,0.3-0.1h0.6c0.1,0,0.1,0,0.2,0c0.1,0,0.2,0.1,0.3,0.2c0.2,0.3,0.4,0.4,0.8,0.6
		c0.3,0.1,0.7,0.2,1.3,0.2c0.3,0,0.5,0,0.8-0.1c0.2-0.1,0.5-0.1,0.7-0.2c0.2-0.1,0.3-0.2,0.5-0.4
		C494.4,243.7,494.4,243.5,494.4,243.3z"/>
	<path fill="#FFFFFF" d="M499.5,243.7c0.1,0,0.2,0,0.3,0.1c0.1,0.1,0.1,0.2,0.1,0.3v1.2c0,0.1,0,0.2-0.1,0.3
		c-0.1,0.1-0.2,0.1-0.3,0.1h-1.2c-0.1,0-0.2,0-0.3-0.1c-0.1-0.1-0.1-0.2-0.1-0.3v-1.2c0-0.1,0-0.2,0.1-0.3s0.2-0.1,0.3-0.1H499.5z"
		/>
</g>
</svg>
