<?xml version="1.0" encoding="utf-8"?>
<!-- Generator: Adobe Illustrator 18.1.1, SVG Export Plug-In . SVG Version: 6.00 Build 0)  -->
<svg version="1.1" id="Layer_1" xmlns="http://www.w3.org/2000/svg" xmlns:xlink="http://www.w3.org/1999/xlink" x="0px" y="0px"
	 viewBox="0 280.2 612 185.8" enable-background="new 0 280.2 612 185.8" xml:space="preserve">
<g>
	<g>
		<path fill="#F7F5F5" d="M398,314.6c-17.1,0-30.9,13.9-30.9,30.9s13.9,30.9,30.9,30.9c17.1,0,30.9-13.9,30.9-30.9
			S415.2,314.6,398,314.6z"/>
	</g>
</g>
<g>
	<path fill="#AFD2ED" d="M394.6,339.5c-0.3-0.1-0.6-0.2-0.9-0.2c-1.9-0.2-3.7-0.7-5.4-1.6c-0.6-0.2-1-1.1-0.8-1.6
		c0.1-0.2,0.2-0.5,0.4-0.5c0.6-0.2,1.3-0.2,1.9,0.2c0.6,0.4,1.1,0.7,1.7,1c0.7,0.2,1.5,0.2,2.4,0.1c0.8,1.1,1.3,2.4,1.3,2.4
		s0.3-0.8,0-1.4c0,0,1.1,0.2,1.5,0c0,0-1.1-0.2-2.3-1.2c0.7-0.2,1.1-0.7,1.1-1.5c-0.1-1.3-1.1-2.6-2.5-3c-1.4-0.3-2.7-0.2-4.1-0.1
		c-1.7,0.2-3.3,0.6-4.5,1.9c-0.8,1.1-0.9,2.2-0.6,3.3c0.3,1.2,1.1,2.3,2.2,3.1c1.1,0.7,2.3,1.3,3.3,1.9
		C390.8,340.9,392.6,340.1,394.6,339.5z M392.9,333.4c0.5,0,0.9,0.3,1.1,0.6c-0.2-0.1-0.2-0.1-0.4-0.1c-0.4,0-0.7,0.2-0.7,0.6
		s0.3,0.6,0.7,0.6h0.1c-0.2,0.2-0.5,0.2-0.7,0.2c-0.6,0-1.1-0.4-1.1-1.1C391.8,333.9,392.2,333.4,392.9,333.4z"/>
	<path fill="#AFD2ED" d="M402,365c0.8-0.4,1.5-1.1,1.5-1.9c0.1-0.7,0.3-1.5-0.3-2c-1.3,0.9-2.6,1.5-4.1,1.6
		c-1.8,0.2-1.9,0.4-1.9,1.8c0,0,0,0,0,0.1c0.8-0.5,1.8-0.8,2.1-1.8c0.5,0.6,0.6,0.9,0,1.4c-0.4,0.4-0.9,0.7-1.4,1
		c-1.5,0.9-3,1.8-4.5,2.7c-0.4,0.3-0.8,0.6-1.2,1c0,0.1,0.1,0.1,0.1,0.2c0.4-0.2,0.9-0.2,1.5-0.3c1.5-0.6,2.8-1.1,4.2-1.7
		C399.4,366.3,400.7,365.7,402,365z"/>
	<path fill="#AFD2ED" d="M397.8,367.8c-0.4,0.2-0.6,0.3-0.6,0.7c0.2,1.7,0.3,3.3,0.5,5c0,0.2,0.4,0.4,0.6,0.4c0.2,0,0.6-0.2,0.6-0.4
		c0.2-1.9,0.3-3.8,0.4-5.7c0-0.2,0-0.4,0-0.6c1.7,0.4,3.2,1.4,4.9,1.4c0.1-0.1,0.1-0.2,0.2-0.2c-1-0.7-1.9-1.5-2.9-2.2
		C400.3,366.9,399.1,367.4,397.8,367.8z"/>
	<path fill="#AFD2ED" d="M396.3,325.8c0.5,0.2,0.6,0.5,0.6,1c0,0.2,0,0.3,0,0.5c0.1,5.8,0.2,11.8,0.2,11.9c0.8,0,1.5,0,2.4,0
		c0-0.2,0.2-6.4,0.2-12.5c0-0.1,0-0.2,0-0.2c-0.1-0.3,0.1-0.5,0.3-0.6c0.6-0.4,1.2-0.8,1.5-1.3c0.6-1.3,0.6-2.5-0.4-3.6
		c-0.8-0.9-1.8-1.4-3.1-1.3c-1,0.1-1.8,0.6-2.4,1.3C393.9,322.4,394.6,324.8,396.3,325.8z"/>
	<path fill="#AFD2ED" d="M384.6,329.3c0.4,0,0.8,0,1.1,0c0.2,0,0.3,0.1,0.4,0.2c0.2,0.4,0.5,0.8,1.1,1c0.9,0.2,1.8,0.2,2.6-0.2
		c0.2-0.1,0.3-0.1,0.4,0.1c0,0.2,0.2,0.3,0.2,0.4c0.6,0.5,1.4,0.8,2.2,0.8c1.1,0,2.1-0.1,3.2-0.2c0.2-0.1,0.3-0.2,0.3-0.3
		c0-0.7,0-1.5,0-2.3c0-0.6,0-1.2,0-1.9c-0.5,0-0.9,0-1.1-0.3c-0.2-0.2-0.2-0.4-0.3-0.6c-0.2-0.2-0.4-0.4-0.6-0.5
		c-0.6-0.2-1.3-0.1-1.9,0.2c-1.1,0.4-2.1,0.6-3.2,0.7c-1.1,0.1-2.3,0.2-3.4,0.2c-1.5,0.1-3.1,0.1-4.6,0.1c-0.2,0-0.2,0-0.4,0
		c0.5,1.1,1.1,1.7,3.1,1.5c0,0,0,0.1,0.1,0.2C383.7,328.8,383.9,329.3,384.6,329.3z"/>
	<path fill="#AFD2ED" d="M410.2,333c-1.6-0.6-3.3-0.7-5-0.7c-1.9,0-3.5,1.1-4,2.8c-0.3,1.1,0.1,1.7,1.1,1.9
		c-1.1,0.9-2.1,1.1-2.1,1.1c0.4,0.2,1.5,0,1.5,0c-0.4,0.6,0,1.4,0,1.4s0.5-1.1,1.2-2.3c0.1,0,0.2,0,0.3,0c0.9,0,1.8-0.1,2.6-0.6
		c0.6-0.6,1.4-1.1,2.4-1c0.5,0,0.7,0.2,0.7,0.6c0.1,0.9-0.2,1.5-1.1,1.9c-2.6,1.2-5.4,1.8-8.4,1.9c-2,0.1-3.9,0.2-5.8,0.9
		c-1.8,0.7-3.2,1.7-4.2,3.2c-1.1,1.5-1.5,3.3-0.5,5c0.6,1.1,1.8,1.9,2.8,2.4c1.5-0.7,3-1.5,4.5-2.2c-0.9-0.2-1.6-0.7-2.1-1.5
		c-0.6-0.9-0.5-2.4,0.5-2.9c0.5-0.3,1.1-0.6,1.7-0.6c1.8-0.2,3.6-0.4,5.4-0.6c1.9-0.2,3.8-0.7,5.6-1.5c1-0.4,1.9-1,2.7-1.6
		c1.2-0.9,2.3-1.9,2.6-3.5C413.1,335.2,411.7,333.5,410.2,333z M403.7,335.6c-0.2,0-0.6-0.1-0.7-0.2h0.1c0.4,0,0.7-0.2,0.7-0.6
		c0-0.4-0.3-0.6-0.7-0.6c-0.2,0-0.3,0-0.4,0.1c0.2-0.4,0.6-0.6,1.1-0.6c0.6,0,1.1,0.4,1.1,1.1C404.8,335.1,404.3,335.6,403.7,335.6z
		"/>
	<path fill="#AFD2ED" d="M404,353c-0.2-0.1-0.5-0.1-0.6,0c-0.9,0.3-1.9,0.6-2.8,1c-1.1,0.3-2.2,0.7-3.2,1.1c-0.2,0-0.3,0.2-0.3,0.3
		c0,1,0,1.9,0,3c0.8-0.2,1.5-0.5,2.3-0.7c0-1,0-2,0-3.1c0.1,0,0.2-0.1,0.2-0.1c0.6,0.4,1.1,0.8,1.7,1.3s0.6,1.5,0,1.9
		c-0.6,0.4-1.2,0.7-1.9,1c-1.6,0.7-3.6,1-5.1,2c-1.3,0.8-1.9,1-1.8,2.8c0.2,0.9,1.3,2.6,2,2.9c1.1-0.6,1-0.5,1.9-1.1
		c-0.6-1.2-0.5-1.9,0.5-2.3c1.5-0.7,3.2-1.2,4.9-1.8c1.9-0.6,3.4-1.4,4.1-3.2C406.4,356.4,405.7,353.7,404,353z"/>
	<path fill="#AFD2ED" d="M415.8,326.6c-1.5-0.1-3.1-0.1-4.6-0.1c-1.1,0-2.3-0.1-3.4-0.2c-1.1-0.1-2.2-0.4-3.2-0.7
		c-0.6-0.2-1.3-0.3-1.9-0.2c-0.2,0-0.5,0.3-0.6,0.5c-0.2,0.2-0.2,0.4-0.3,0.6c-0.2,0.3-0.6,0.3-1.1,0.3c0,0.6,0,1.3,0,1.9
		c0,0.7,0,1.5,0,2.3c0,0.2,0.1,0.3,0.3,0.3c1.1,0.2,2.1,0.2,3.2,0.2c0.8-0.1,1.5-0.3,2.2-0.8c0.1-0.2,0.2-0.3,0.2-0.4
		c0.1-0.2,0.2-0.2,0.4-0.1c0.7,0.5,1.7,0.5,2.6,0.2c0.6-0.2,0.9-0.6,1.1-1c0.1-0.2,0.2-0.2,0.4-0.2c0.4,0,0.8,0,1.1,0
		c0.7-0.1,0.9-0.5,1.1-1c0-0.1,0-0.2,0-0.2c1.9,0.2,2.6-0.5,3.2-1.5C416.1,326.6,415.9,326.6,415.8,326.6z"/>
	<path fill="#AFD2ED" d="M397.1,345.1c0,1.4,0,2.7,0,4.1c0.8-0.2,1.5-0.4,2.3-0.6c0.1-1.2,0.1-2.4,0.2-3.6
		C398.6,345,397.8,345.1,397.1,345.1z"/>
	<path fill="#AFD2ED" d="M406.2,343.8c-1.5,0.7-3.1,0.9-4.9,1c0.2,0.2,0.3,0.2,0.4,0.3c0.9,0.6,1.1,1.6,0.7,2.3
		c-0.6,1.1-1.7,1.8-2.8,2.3c-0.9,0.4-1.9,0.6-2.8,0.9c-2.1,0.7-4.1,1.6-5.6,3.2c-1,1-1.5,2.1-1.1,3.4c0.3,1.5,1.4,2.5,2.8,3.2
		c1.2-1.1,2.6-1.5,4.1-1.9c-1.2-0.5-2-1.1-1.9-2.3s1.1-1.6,1.9-1.9c1.7-0.6,3.4-1.1,5.1-1.6c1.6-0.6,3.1-1.5,4.5-2.6
		c1.8-1.5,1.6-4.3,0.6-5.9C406.9,343.6,406.6,343.6,406.2,343.8z"/>
</g>
<circle fill="#FFE48E" cx="305.3" cy="382.6" r="53.6"/>
<path fill="#EEECEB" d="M396.7,402.2v-19.6H254.9c-10.8,0-19.6,8.7-19.6,19.6h-92.8v19.6h321.2v-19.6H396.7z"/>
<g>
	<path fill="#F7F5F5" d="M356.6,359.2c-17.2,0-31.1,13.9-31.1,31.1s13.9,31.1,31.1,31.1s31.1-13.9,31.1-31.1
		S373.8,359.2,356.6,359.2z"/>
</g>
<path fill="#84A8A6" d="M575.5,455.6c0.2,0.1,0.2,0.2,0,0.2h-397c-0.2,0-0.2-0.1,0-0.1l47.8-16.2c0.2-0.1,0.5,0,0.7,0l14.8,7.3
	c0.2,0.1,0.5,0.1,0.7,0.1l62.5-18.7c0.2-0.1,0.5-0.1,0.7,0l39,8c0.2,0,0.5,0.1,0.7,0l54.4-6.6c0.2,0,0.5,0,0.7,0l40.6,6.2
	c0.2,0,0.5,0,0.7,0l58.8-17.4c0.2-0.1,0.5,0,0.7,0.1L575.5,455.6z"/>
<path fill="#043F3A" d="M135.7,350.9c-3.3-1-5.4-3.4-5.5-6.9c-0.2-3.5-0.1-6.7-0.1-10.7c0.9,0.1,1.7,0.4,2.1,1.1
	c0.7,1.1,1,2.5,1.6,3.7c0.3-0.4,0.3-1,0.5-1.5c0,0,0-0.1,0.1-0.1h0.1c0.1,0,0.3,0,0.4,0c0.3,0.1,0.4,0.5,0.3,0.7c0,0,0,0.1,0,0.2
	s0,0.2,0,0.3v0.1v0.1l0,0v0.1c0,0,0,0.1,0.1,0.1c0,0.1,0,0.2,0.1,0.3c0.1,0.1,0.2,0.2,0.3,0.3c1.2-1,0.4-3.4-0.5-4.6
	c-1.9-2.4-2.8-2.8-6.8-3.9c-1.3-0.5-2.5-0.9-2.8-0.9c-2.4-0.4-4.8-0.9-7.2-1.5c-0.5-0.1-0.8-0.8-1.2-1.2c0.5-0.4,0.9-1,1.6-1.1
	c2.1-0.5,0.6-2.4,1.1-3.7c0-0.1,0.1-0.2,0.1-0.3v-0.1v-0.1v-0.1v-0.1c0-0.1-0.1-0.1-0.1-0.2s-0.1-0.2-0.1-0.2
	c-0.1-0.1-0.2-0.3-0.3-0.4c-0.1-0.2-0.2-0.3-0.3-0.5c-0.1-0.1-0.1-0.1-0.1-0.2l0,0c0-0.1,0-0.1-0.1-0.2c0.1-0.1,0.2-0.2,0.3-0.3
	c0.1-0.1,0.2-0.2,0.1-0.3c-0.1-0.1-0.2-0.1-0.3-0.2s-0.2-0.2-0.2-0.3c-0.1-0.1-0.2-0.2-0.3-0.3c-0.1-0.1-0.1-0.1-0.2-0.1
	c-0.1-0.1-0.2-0.1-0.2-0.2c-0.1-0.1-0.2-0.1-0.3-0.2c-0.1,0-0.2-0.1-0.3-0.2c-0.1-0.1-0.2-0.1-0.3-0.2c-0.1-0.1-0.2-0.1-0.3-0.1
	c-0.1,0-0.2-0.1-0.3-0.1c-0.2-0.1-0.4-0.1-0.6-0.2c-0.1,0-0.2,0-0.3-0.1c0,0-0.1,0-0.2,0c0,0,0,0-0.1,0.1c-0.2,0-0.4-0.1-0.6-0.1
	c0,0-0.1,0-0.1-0.1v0.1c-1.2,0.1-2.8,0.8-3.1,1.7c-0.7,2-1,3.9-0.1,6c0.1,0.2,0,0.9-0.1,0.9c-1.8,0.3-2.7,2.8-3.3,4.3
	c-0.2,0.4-0.3,0.8-0.3,1.2c-1,5.2-1.7,10,0,15.1c0.5,1.6,1.6,2.5,3.1,2.9c3.8,1.1,7.2,0.1,9.9-2.7c1.2-1.3,2.4-2.9,3.8-4.6
	c0.8,2,2,3.7,2.4,5.7c0.3,1.6-0.2,3.2-0.4,5c3,1,6,1.9,9.3,1.7c0.6-0.1,1.6-0.5,1.7-0.9C137.4,351.5,136.5,351.1,135.7,350.9z
	 M118.2,335.3c-0.2-0.1-0.3-0.1-0.5-0.2c0.2-0.8,0.3-1.7,0.5-2.6c0.8,0,1.6,0,2.8,0.1C120,333.6,119.2,334.5,118.2,335.3z"/>
<polygon fill="#043F3A" points="235.8,466 204.1,427.2 197.9,425.3 170.8,388.7 157.8,383.1 136.3,361.4 131.9,357.4 130.3,353 
	111.4,344.2 104.7,346.2 91.6,361.4 75.8,381.6 66.2,407.4 49.7,432.8 35.6,466 "/>
<rect y="280.2" fill="none" width="612" height="185.7"/>
<path fill="#AFD2ED" d="M351.6,377.2c-1.9,0.6-3.1,2.8-2.4,4.8c0.6,1.9,2.8,3.1,4.8,2.4c1.9-0.6,3.1-2.8,2.5-4.7
	C355.9,377.7,353.6,376.5,351.6,377.2z"/>
<path fill="#F3F4F5" d="M421.9,340.8c-22.3,0-40.3,18-40.3,40.3c0,22.2,18,40.2,40.2,40.2s40.2-18,40.2-40.2
	C462.1,358.8,444.1,340.8,421.9,340.8z"/>
<g>
	<path fill="#F3F4F5" d="M305.4,357c-14.2,0-25.6,11.5-25.6,25.6s11.5,25.6,25.6,25.6s25.6-11.5,25.6-25.6
		C330.9,368.5,319.5,357,305.4,357z"/>
</g>
<path fill="#F42753" d="M396.8,356.8c-0.1,0-0.3,0-0.4,0H396.8z"/>
<path fill="#F42753" d="M417.4,409.1c-0.4,0.3-0.8,0.5-1.3,0.7C416.6,409.6,417,409.3,417.4,409.1z"/>
<path fill="#AFD2ED" d="M322.1,367.5C322.1,367.5,322.1,367.5,322.1,367.5c-0.4,1-0.7,2-1.1,2.9c-0.7,1.5-1.5,3-2.5,4.3
	c-0.6,0.7-1.2,1.5-1.9,2.1c-0.3,0.2-0.5,0.4-0.9,0.4c-1.1,0-2.1,0-3.2,0c-0.1,0-0.2,0-0.3,0c-0.5,0-1.1-0.1-1.6-0.1
	c1.3,0.9,2.9,1.1,4.5,1.4c-3.1,2.4-6.2,4.1-10.1,4.1c2-3.5,4.5-6.6,7.3-9.5c-4.5,2.9-7.9,6.9-10.7,11.7c0.7,0,1.3,0,1.9,0
	s1.2,0,1.9,0c0.7,0,1.1,0.3,1.3,1c0.1,0.5,0,1.1-0.5,1.5c0.3,0.1,0.6,0.1,0.9,0.1c0.9,0.1,1.8,0.5,2.4,1.2c0.7,0.8,1,1.8,1,2.8
	c0,1.7,0,3.4-0.1,5.1c0,1.2-0.6,2.2-1.5,2.9c-0.4,0.3-0.9,0.4-1.4,0.7c-4.5,0-8.9,0-13.4,0l-0.1-0.1c-0.9-0.2-1.7-0.7-2.3-1.6
	c-0.3-0.4-0.4-0.9-0.6-1.4c0-2.1,0-4.3,0-6.4c0.1-0.3,0.1-0.5,0.3-0.7c0.5-1.1,1.3-1.9,2.3-2.2c0.5-0.1,1-0.2,1.5-0.3
	c-0.1-0.1-0.2-0.2-0.3-0.3c-0.4-0.5-0.3-1.5,0.3-1.9c0.3-0.1,0.5-0.2,0.9-0.2c1.1,0,2.3,0,3.4,0c0.1,0,0.2,0,0.3-0.2
	c0.5-1,1.1-2,1.7-2.9c0.1-0.1,0.1-0.2,0.1-0.3c0-0.6,0.1-1.3,0.1-1.9c0.1-1.1,0.4-2.2,0.9-3.3c0.4-0.9,0.9-1.9,1.7-2.7
	c0.6-0.7,1.2-1.3,1.9-1.9c1-0.9,2.1-1.6,3.4-2.1c1-0.4,2-0.8,2.9-1.1c1.1-0.3,2.2-0.5,3.3-0.7c0.9-0.1,1.9-0.3,2.9-0.4
	c0.7-0.1,1.3-0.1,2-0.1c0.1,0,0.1,0,0.2-0.1C321.1,367.4,321.6,367.4,322.1,367.5C322.1,367.3,322.1,367.4,322.1,367.5z"/>
<g>
	<path fill="#AFD2ED" d="M412.8,407.6h-11.6V386h11.6V407.6z M412.8,384.6h-11.6c-0.9,0-1.6-0.7-1.6-1.6c0-0.9,0.7-1.6,1.6-1.6h11.6
		c0.9,0,1.6,0.7,1.6,1.6C414.4,383.8,413.6,384.6,412.8,384.6z M412.8,379.9h-11.6v-13.6h14.2l2,5.6
		C414.6,373.4,412.8,376.4,412.8,379.9z M421.8,370.9c-1,0-2,0.1-2.9,0.4l-1.8-5.1h9.5l-1.8,5.1C423.7,371,422.8,370.9,421.8,370.9z
		 M426.1,371.9l2-5.6h14.2v13.6h-11.6C430.7,376.4,428.9,373.4,426.1,371.9z M442.3,407.6h-11.6V386h11.6V407.6z M442.3,384.6h-11.6
		c-0.9,0-1.6-0.7-1.6-1.6c0-0.9,0.7-1.6,1.6-1.6h11.6c0.9,0,1.6,0.7,1.6,1.6C443.9,383.8,443.2,384.6,442.3,384.6z M444.3,364.7
		h-45.2c0-1.4-0.9-2.4-2-2.4V358h49.1v4.3C445.2,362.3,444.3,363.3,444.3,364.7z"/>
</g>
<g>
	<path fill="#AFD2ED" d="M374.2,395c-1.7,1.7-3.6,3.2-5.4,4.6c-0.4,0.3-1.4,0.6-1.8,0.2c-0.4-0.2-0.6-1.1-0.6-1.7
		c0.1-2.4-0.5-3.9-2.1-4.6c-1.7-0.8-4.1-0.2-5.6,1.3c-1.5,1.4-2.1,3.7-1.2,5.2c0.4,0.7,1.4,1.3,2.1,1.8c0.2,0.2,0.6,0.2,0.8,0.2
		c0.9,0.3,2.1,0.1,2.4,1.3s-0.6,1.9-1.4,2.4c-2.1,1.5-4.3,2.9-6.4,4.3c-0.7,0.5-1.2,0.3-1.7-0.5c-1.4-2.4-3-4.7-4.6-7.1
		c-0.2-0.2-0.4-0.4-0.6-0.6c-1-1-1.6-0.8-1.8,0.6c-0.4,2.3-1.3,4.1-3.8,4.7c-2.1,0.5-4.3-1-5.3-3.4c-0.9-2.1-0.5-4.4,1.2-5.2
		c1-0.6,2.4-0.5,3.6-0.8c0.6-0.1,1.4-0.2,1.5-0.6c0.2-0.5,0-1.3-0.3-1.7c-2-2.2-4-4.4-6-6.5c-0.6-0.6-0.7-1-0.1-1.6
		c2.1-1.9,4.1-3.9,6.2-5.7c0.5-0.4,1.6-0.6,2-0.4c0.6,0.3,1,1.3,1,2c0,1.7,0,3.4,1.9,4.3c1.9,1,3.7,0.2,5.1-1c0.8-0.7,1.6-1.7,2-2.7
		c0.8-2-0.3-4-2.5-4.4c-0.6-0.1-1.4-0.2-2-0.4c-1.4-0.5-1.7-1.9-0.6-2.7c2.4-1.9,4.9-3.6,7.4-5.3c0.6-0.4,1-0.1,1.4,0.5
		c1.4,2.1,2.9,4.3,4.4,6.4c0,0.1,0.1,0.2,0.2,0.2c0.7,0.5,1.5,1,2.2,1.4c0.3-0.7,0.8-1.4,1-2.1c0.6-2.3,1.8-3.6,3.9-3.6
		c2.2-0.1,4.5,1.9,5.2,4.2c0.5,1.9-0.3,4.1-2.1,4.8c-1,0.4-2.2,0.3-3.3,0.6c-0.5,0.1-1.2,0.2-1.3,0.4c-0.1,0.5,0,1.1,0.3,1.5
		c1.6,1.9,3.3,3.7,4.8,5.6C376.4,393.1,376.6,392.6,374.2,395z"/>
</g>
<path fill="#FFFFFF" d="M366.4,342.1c-13.8,0-25.1,11.2-25.1,25.1c0,13.8,11.2,25.1,25.1,25.1s25.1-11.2,25.1-25.1
	S380.3,342.1,366.4,342.1z"/>
<g>
	<g>
		<path fill="#FFFFFF" d="M461.4,361.1c-16.8,0-30.4,13.6-30.4,30.4s13.6,30.4,30.4,30.4s30.4-13.6,30.4-30.4
			S478.1,361.1,461.4,361.1z"/>
	</g>
</g>
<path fill="#AFD2ED" d="M379.1,378h-3.7l-4.4-4.8l-4.4,4.8h-3.7l6.2-6.9l-6.2-6.9h3.7l4.4,4.8l4.4-4.8h3.7l-6.2,6.9L379.1,378z
	 M378.7,357.4h-16.3l-6.6,22.6c-0.1,0.5-0.6,0.8-1,0.8c0,0,0,0-0.1,0c-0.5,0-0.9-0.3-1.1-0.7l-2.6-6.8h-3c-0.6,0-1.1-0.5-1.1-1.1
	s0.5-1.1,1.1-1.1h3.8c0.5,0,0.9,0.3,1.1,0.7l1.7,4.4l5.9-20.2c0.1-0.5,0.6-0.8,1.1-0.8h17.1c0.6,0,1.1,0.5,1.1,1.1
	S379.4,357.4,378.7,357.4z"/>
<path fill="#AFD2ED" d="M483.9,389c-0.2,0-0.5,0.1-0.7,0.1l-8.4-14.5c0.5-0.5,0.8-1.2,0.8-1.9c0-1.5-1.2-2.6-2.6-2.6
	c-1.2,0-2.2,0.8-2.5,1.9h-16.9c-0.3-1.1-1.3-1.9-2.5-1.9c-1.5,0-2.6,1.2-2.6,2.6c0,0.7,0.2,1.3,0.7,1.8l-8.4,14.6
	c-0.2-0.1-0.5-0.1-0.7-0.1c-1.5,0-2.6,1.2-2.6,2.6c0,1.5,1.2,2.6,2.6,2.6c0.2,0,0.5-0.1,0.7-0.1l8.4,14.6c-0.4,0.4-0.7,1.1-0.7,1.8
	c0,1.5,1.2,2.6,2.6,2.6c1.2,0,2.2-0.8,2.5-1.9h16.9c0.3,1.1,1.3,1.9,2.5,1.9c1.5,0,2.6-1.2,2.6-2.6c0-0.7-0.2-1.3-0.7-1.8l8.4-14.6
	c0.2,0.1,0.5,0.1,0.7,0.1c1.4,0,2.5-1.2,2.5-2.6C486.5,390.1,485.3,389,483.9,389z M470.4,373.2l-6.5,3.8c-0.4-0.5-1.1-0.8-1.8-0.8
	c-0.8,0-1.4,0.3-1.9,0.7l-6.5-3.7H470.4z M470.5,385.8l-6.6,3.9c-0.4-0.4-1.1-0.7-1.8-0.7c-0.7,0-1.3,0.2-1.8,0.7l-6.6-3.8
	c0.1-0.2,0.1-0.5,0.1-0.7c0-0.3-0.1-0.5-0.1-0.7l6.6-3.8c0.5,0.4,1.1,0.7,1.8,0.7s1.3-0.3,1.8-0.8l6.6,3.9c-0.1,0.2-0.1,0.5-0.1,0.7
	C470.4,385.4,470.5,385.6,470.5,385.8z M461.4,394.1v7.7c-0.4,0.1-0.8,0.3-1.1,0.6l-8.4-4.9v-9.8c0.4-0.2,0.8-0.4,1.1-0.7l6.5,3.9
	c-0.1,0.2-0.1,0.5-0.1,0.7C459.4,392.8,460.3,393.8,461.4,394.1z M450.5,408l-8.4-14.6l8.4,4.9V408z M448.5,385.2
	c0,1.2,0.8,2.2,1.9,2.5v9l-7.7-4.5c0.1-0.2,0.1-0.5,0.1-0.7c0-0.7-0.2-1.3-0.7-1.8l8.4-14.6c0.2,0.1,0.5,0.1,0.7,0.1
	c0.7,0,1.3-0.3,1.8-0.8l6.6,3.7c-0.1,0.2-0.1,0.5-0.1,0.7s0,0.5,0.1,0.7l-6.7,3.8c-0.4-0.4-1.1-0.7-1.8-0.7
	C449.6,382.7,448.5,383.8,448.5,385.2z M472.4,407.9c-0.9,0.2-1.6,0.9-1.8,1.8h-16.9c-0.2-0.9-0.9-1.6-1.8-1.8V399l7.7,4.5
	c-0.1,0.2-0.1,0.5-0.1,0.7c0,1.5,1.1,2.6,2.6,2.6s2.6-1.2,2.6-2.6c0-0.2-0.1-0.5-0.1-0.8l7.8-4.5V407.9z M472.4,397.5l-8.5,4.9
	c-0.3-0.3-0.6-0.5-1-0.6v-7.7c1-0.3,1.8-1.3,1.8-2.5c0-0.3-0.1-0.5-0.1-0.7l6.7-3.9c0.2,0.3,0.6,0.6,1.1,0.7V397.5z M473.7,408v-9.7
	l8.4-4.9L473.7,408z M481.4,391.4c0,0.3,0.1,0.5,0.1,0.7l-7.7,4.4v-9c1.1-0.3,1.9-1.3,1.9-2.5c0-1.5-1.2-2.6-2.6-2.6
	c-0.7,0-1.3,0.2-1.8,0.7l-6.7-3.8c0.1-0.2,0.1-0.4,0.1-0.6s-0.1-0.4-0.1-0.6l6.7-3.8c0.4,0.5,1.1,0.8,1.8,0.8c0.2,0,0.4,0,0.6-0.1
	l8.4,14.6C481.7,390,481.4,390.7,481.4,391.4z"/>
</svg>
