<?xml version="1.0" encoding="utf-8"?>
<!-- Generator: Adobe Illustrator 18.1.1, SVG Export Plug-In . SVG Version: 6.00 Build 0)  -->
<svg version="1.1" id="Layer_1" xmlns="http://www.w3.org/2000/svg" xmlns:xlink="http://www.w3.org/1999/xlink" x="0px" y="0px"
	 viewBox="0 583.3 612 185.8" enable-background="new 0 583.3 612 185.8" xml:space="preserve">
<g id="Layer_2" display="none">
	<g id="Layer_2_1_" display="inline">
		<g id="Layer_2_2_">
			<rect x="134.5" y="610.2" fill="#AFD2ED" width="340" height="175.9"/>
			<rect x="134.5" y="610.2" fill="#AFD2ED" width="340" height="175.9"/>
		</g>
	</g>
</g>
<g>
	<g>
		<path fill="#F7F5F5" d="M398,617.7c-17.1,0-30.9,13.9-30.9,30.9s13.9,30.9,30.9,30.9c17.1,0,30.9-13.9,30.9-30.9
			S415.2,617.7,398,617.7z"/>
	</g>
</g>
<g>
	<circle fill="#AFD2ED" cx="398" cy="648.7" r="3.4"/>
	<path fill="#AFD2ED" d="M419.5,636.7c-1.8-3.2-6.6-3.9-12.9-2.6c-1.9-6.1-5-10-8.6-10s-6.6,3.8-8.5,9.8c-6.1-1.4-10.9-0.7-12.7,2.4
		c-1.8,3.1-0.1,7.6,4.1,12.2c-4.3,4.6-6.1,9.1-4.4,12.2c1.8,3.2,6.6,3.9,12.9,2.6c1.9,6.1,5,10,8.6,10s6.6-3.8,8.5-9.8
		c6.1,1.4,10.9,0.7,12.7-2.4c1.8-3.1,0.1-7.6-4.1-12.2C419.5,644.3,421.3,639.8,419.5,636.7z M379.1,637.7c1.1-1.8,4.7-2.2,9.6-1.1
		c-0.4,1.9-0.7,4-1,6.2c-1.8,1.3-3.4,2.6-4.9,3.9C379.5,642.9,378.1,639.5,379.1,637.7z M387.5,651c-1-0.8-1.9-1.6-2.7-2.3
		c0.8-0.8,1.7-1.5,2.7-2.3c0,0.8,0,1.6,0,2.4C387.5,649.5,387.5,650.2,387.5,651z M379,659.5c-1-1.8,0.4-5.2,3.9-8.9
		c1.4,1.4,3.1,2.7,4.9,4.1c0.2,2.2,0.5,4.2,1,6.1C383.7,661.8,380,661.3,379,659.5z M405.2,640.8c-0.6-0.4-1.3-0.8-1.9-1.2
		c-0.6-0.4-1.3-0.7-2-1.1c1.1-0.4,2.2-0.8,3.2-1.1C404.8,638.5,405.1,639.7,405.2,640.8z M398,626.9c2.1,0,4.3,3,5.9,7.9
		c-1.8,0.5-3.8,1.3-5.7,2.2c-2.1-0.9-4-1.7-5.9-2.3C393.7,629.8,395.9,626.9,398,626.9z M391.5,637.3c1.1,0.4,2.2,0.7,3.4,1.2
		c-0.7,0.3-1.3,0.7-2,1.1c-0.7,0.4-1.4,0.8-2.1,1.2C391,639.6,391.3,638.4,391.5,637.3z M390.8,656.6c0.6,0.4,1.3,0.8,1.9,1.2
		s1.3,0.7,2,1.1c-1.1,0.4-2.2,0.8-3.2,1.1C391.2,658.9,390.9,657.8,390.8,656.6z M398,670.6c-2.1,0-4.3-3-5.9-7.9
		c1.9-0.5,3.8-1.3,5.7-2.2c2.1,0.9,4,1.7,5.9,2.3C402.3,667.7,400.1,670.6,398,670.6z M404.6,660.2c-1.1-0.4-2.2-0.7-3.4-1.2
		c0.7-0.4,1.3-0.7,2-1.1s1.4-0.8,2.1-1.2C405,657.9,404.8,659.1,404.6,660.2z M405.6,653.2c-1.2,0.8-2.5,1.6-3.8,2.3
		c-1.3,0.7-2.6,1.4-3.9,2c-1.3-0.6-2.5-1.3-3.8-2.1c-1.3-0.8-2.5-1.6-3.7-2.3c-0.1-1.4-0.2-2.8-0.2-4.3c0-1.6,0-3.1,0.2-4.5
		c1.2-0.8,2.4-1.6,3.8-2.3c1.3-0.7,2.6-1.4,3.9-2c1.3,0.6,2.5,1.3,3.8,2.1c1.3,0.8,2.5,1.6,3.7,2.4c0.1,1.4,0.2,2.8,0.2,4.3
		C405.8,650.3,405.7,651.8,405.6,653.2z M417.1,638c1,1.8-0.4,5.2-3.9,8.9c-1.4-1.3-3.1-2.7-4.9-4c-0.2-2.2-0.5-4.2-1-6.1
		C412.3,635.7,416,636.2,417.1,638z M408.5,646.5c1,0.8,1.9,1.6,2.7,2.3c-0.8,0.7-1.7,1.5-2.7,2.3c0-0.8,0-1.6,0-2.4
		C408.5,648,408.5,647.3,408.5,646.5z M416.9,659.8c-1.1,1.8-4.7,2.2-9.7,1.1c0.4-1.9,0.7-4,1-6.2c1.8-1.3,3.4-2.6,4.9-3.9
		C416.6,654.6,418,658,416.9,659.8z"/>
</g>
<circle fill="#FFE48E" cx="305.3" cy="685.7" r="53.6"/>
<path fill="#EEECEB" d="M396.7,705.3v-19.6H254.9c-10.8,0-19.6,8.7-19.6,19.6h-92.8v19.6h321.2v-19.6H396.7z"/>
<g>
	<path fill="#F7F5F5" d="M356.6,662.3c-17.2,0-31.1,13.9-31.1,31.1c0,17.2,13.9,31.1,31.1,31.1s31.1-13.9,31.1-31.1
		C387.7,676.2,373.8,662.3,356.6,662.3z"/>
</g>
<path fill="#84A8A6" d="M575.5,758.7c0.2,0.1,0.2,0.2,0,0.2h-397c-0.2,0-0.2-0.1,0-0.1l47.8-16.2c0.2-0.1,0.5,0,0.7,0l14.8,7.3
	c0.2,0.1,0.5,0.1,0.7,0.1l62.5-18.7c0.2-0.1,0.5-0.1,0.7,0l39,8c0.2,0,0.5,0.1,0.7,0l54.4-6.6c0.2,0,0.5,0,0.7,0l40.6,6.2
	c0.2,0,0.5,0,0.7,0l58.8-17.4c0.2-0.1,0.5,0,0.7,0.1L575.5,758.7z"/>
<path fill="#043F3A" d="M135.7,654c-3.3-1-5.4-3.4-5.5-6.9c-0.2-3.5-0.1-6.7-0.1-10.7c0.9,0.1,1.7,0.4,2.1,1.1
	c0.7,1.1,1,2.5,1.6,3.7c0.3-0.4,0.3-1,0.5-1.5c0,0,0-0.1,0.1-0.1h0.1c0.1,0,0.3,0,0.4,0c0.3,0.1,0.4,0.5,0.3,0.7c0,0,0,0.1,0,0.2
	s0,0.2,0,0.3v0.1v0.1l0,0v0.1c0,0,0,0.1,0.1,0.1c0,0.1,0,0.2,0.1,0.3c0.1,0.1,0.2,0.2,0.3,0.3c1.2-1,0.4-3.4-0.5-4.6
	c-1.9-2.4-2.8-2.8-6.8-3.9c-1.3-0.5-2.5-0.9-2.8-0.9c-2.4-0.4-4.8-0.9-7.2-1.5c-0.5-0.1-0.8-0.8-1.2-1.2c0.5-0.4,0.9-1,1.6-1.1
	c2.1-0.5,0.6-2.4,1.1-3.7c0-0.1,0.1-0.2,0.1-0.3v-0.1v-0.1v-0.1v-0.1c0-0.1-0.1-0.1-0.1-0.2s-0.1-0.2-0.1-0.2
	c-0.1-0.1-0.2-0.3-0.3-0.4c-0.1-0.2-0.2-0.3-0.3-0.5c-0.1-0.1-0.1-0.1-0.1-0.2l0,0c0-0.1,0-0.1-0.1-0.2c0.1-0.1,0.2-0.2,0.3-0.3
	c0.1-0.1,0.2-0.2,0.1-0.3c-0.1-0.1-0.2-0.1-0.3-0.2c-0.1-0.1-0.2-0.2-0.2-0.3c-0.1-0.1-0.2-0.2-0.3-0.3c-0.1-0.1-0.1-0.1-0.2-0.1
	c-0.1-0.1-0.2-0.1-0.2-0.2c-0.1-0.1-0.2-0.1-0.3-0.2c-0.1,0-0.2-0.1-0.3-0.2c-0.1-0.1-0.2-0.1-0.3-0.2c-0.1-0.1-0.2-0.1-0.3-0.1
	c-0.1,0-0.2-0.1-0.3-0.1c-0.2-0.1-0.4-0.1-0.6-0.2c-0.1,0-0.2,0-0.3-0.1c0,0-0.1,0-0.2,0c0,0,0,0-0.1,0.1c-0.2,0-0.4-0.1-0.6-0.1
	c0,0-0.1,0-0.1-0.1v0.1c-1.2,0.1-2.8,0.8-3.1,1.7c-0.7,2-1,3.9-0.1,6c0.1,0.2,0,0.9-0.1,0.9c-1.8,0.3-2.7,2.8-3.3,4.3
	c-0.2,0.4-0.3,0.8-0.3,1.2c-1,5.2-1.7,10,0,15.1c0.5,1.6,1.6,2.5,3.1,2.9c3.8,1.1,7.2,0.1,9.9-2.7c1.2-1.3,2.4-2.9,3.8-4.6
	c0.8,2,2,3.7,2.4,5.7c0.3,1.6-0.2,3.2-0.4,5c3,1,6,1.9,9.3,1.7c0.6-0.1,1.6-0.5,1.7-0.9C137.4,654.6,136.5,654.2,135.7,654z
	 M118.2,638.4c-0.2-0.1-0.3-0.1-0.5-0.2c0.2-0.8,0.3-1.7,0.5-2.6c0.8,0,1.6,0,2.8,0.1C120,636.7,119.2,637.6,118.2,638.4z"/>
<polygon fill="#043F3A" points="235.8,769.1 204.1,730.3 197.9,728.4 170.8,691.8 157.8,686.2 136.3,664.5 131.9,660.5 130.3,656.1 
	111.4,647.3 104.7,649.3 91.6,664.5 75.8,684.7 66.2,710.5 49.7,735.9 35.6,769.1 "/>
<rect y="583.3" fill="none" width="612" height="185.7"/>
<path fill="#AFD2ED" d="M351.6,680.3c-1.9,0.6-3.1,2.8-2.4,4.8c0.6,1.9,2.8,3.1,4.8,2.4c1.9-0.6,3.1-2.8,2.5-4.7
	C355.9,680.8,353.6,679.6,351.6,680.3z"/>
<path fill="#F3F4F5" d="M421.9,643.9c-22.3,0-40.3,18-40.3,40.3c0,22.2,18,40.2,40.2,40.2s40.2-18,40.2-40.2
	C462.1,661.9,444.1,643.9,421.9,643.9z"/>
<g>
	<path fill="#F3F4F5" d="M305.4,660.1c-14.2,0-25.6,11.5-25.6,25.6c0,14.1,11.5,25.6,25.6,25.6s25.6-11.5,25.6-25.6
		C330.9,671.6,319.5,660.1,305.4,660.1z"/>
</g>
<path fill="#F42753" d="M396.8,659.9c-0.1,0-0.3,0-0.4,0H396.8z"/>
<path fill="#F42753" d="M417.4,712.2c-0.4,0.3-0.8,0.5-1.3,0.7C416.6,712.7,417,712.4,417.4,712.2z"/>
<path fill="#E2048C" d="M417.1,711.2c-0.4,0.3-0.8,0.5-1.3,0.7C416.3,711.7,416.7,711.4,417.1,711.2z"/>
<g>
	<path fill="#AFD2ED" d="M397.9,662.3c-1.8,0.2-3.1,1.9-2.9,3.7s1.9,3.1,3.7,2.9c1.8-0.2,3.1-1.9,2.9-3.7
		C401.4,663.4,399.7,662.1,397.9,662.3z"/>
	<path fill="#AFD2ED" d="M396.8,659.6c-0.1,0-0.3,0-0.4,0H396.8z"/>
	<path fill="#AFD2ED" d="M452.6,701.9c-0.4-3.3-3.3-5.7-6.7-5.4l-6,0.7l-3.9-35.7c-0.4-3.3-3.3-5.7-6.7-5.4l-32.5,3.6
		c0.1,0,0.1,0,0.2,0c-3,0.6-5.1,3.4-4.8,6.6c0.4,3.3,3.3,5.7,6.7,5.4l4.9-0.6l3.9,35.7c0.4,3.3,3.3,5.7,6.7,5.4l32.9-3.6
		C450.6,708.2,453,705.2,452.6,701.9z M398.8,670.5c-2.7,0.3-5.2-1.7-5.5-4.4s1.7-5.2,4.4-5.5c2.1-0.3,4.1,0.9,5,2.7
		c0.2,0.5,0.4,1.1,0.5,1.6l0.6,4.9L398.8,670.5z M437.2,694.3l-27.5,3l-0.1-1.3l27.5-3L437.2,694.3z M406.3,666.7l27.5-3l0.1,1.3
		l-27.5,3L406.3,666.7z M407,672.6l27.5-3l0.1,1.3l-27.5,3L407,672.6z M407.6,678.4l27.5-3l0.1,1.3l-27.5,3L407.6,678.4z
		 M408.3,684.3l27.5-3l0.1,1.3l-27.5,3L408.3,684.3z M408.9,690.1l27.5-3l0.1,1.3l-27.5,3L408.9,690.1z M413.7,710.5
		c-2.4,0-4.4-2-4.4-4.4s2-4.4,4.4-4.4s4.4,2,4.4,4.4S416.1,710.5,413.7,710.5z M447.1,707.5l-27.7,3c1.1-1.4,1.6-3.2,1.4-5.1
		s-1.1-3.5-2.5-4.7l27.7-3c2.7-0.3,5.2,1.6,5.4,4.4C451.8,704.7,449.8,707.2,447.1,707.5z"/>
</g>
<g>
	<g>
		<path fill="#FFFFFF" d="M461.4,664.2c-16.8,0-30.4,13.6-30.4,30.4s13.6,30.4,30.4,30.4s30.4-13.6,30.4-30.4
			S478.1,664.2,461.4,664.2z"/>
	</g>
</g>
<path fill="#AFD2ED" d="M477,714.9v1.5h-1.5h-28.9h-1.5v-1.5v-3.2c0-0.8,0.7-1.5,1.5-1.5H458c-3.1-0.9-5.6-2.9-7.3-5.6h-6.3v-2.5
	h5.1h5.4h5.5v2.6h-3.1c1.3,0.9,2.9,1.4,4.6,1.4c4.4,0,8.1-3.6,8.1-8.1c0-1.7-0.5-3.3-1.4-4.5c-0.4,0.1-0.8,0.1-1.2,0.1
	c-2.1,0-4-1.2-5-2.9l-2.6,4.2l2.1,1.3l-2.1,3.4l-10.9-6.7l2.1-3.4l2.1,1.3l9.3-15.2c0.5-0.8,1.8-1.5,3-0.8l3.1-5.1l3.1,1.9l-3.1,5.1
	c1.2,0.8,1.1,2.3,0.6,3.1l-1.5,2.4c3.1,0.1,5.5,2.6,5.5,5.7c0,1-0.2,1.9-0.7,2.7c1.6,2.1,2.5,4.7,2.5,7.5c0,5.7-3.9,10.6-9.2,12.2
	h9.8c0.8,0,1.5,0.7,1.5,1.5V714.9L477,714.9z"/>
<g>
	<path fill="#AFD2ED" d="M350.7,679.7c-2,0.6-3.1,2.9-2.5,4.8c0.6,1.9,2.9,3.1,4.8,2.5c2-0.6,3.1-2.8,2.6-4.8
		C355,680.2,352.8,679.1,350.7,679.7z"/>
	<path fill="#AFD2ED" d="M355.8,669.4c-13.7,0-24.8,11.1-24.8,24.8s11.1,24.8,24.8,24.8c13.7,0,24.8-11.1,24.8-24.8
		S369.5,669.4,355.8,669.4z M360.4,708.8c-2,0.7-4.2-0.4-4.8-2.4c-0.7-2,0.4-4.1,2.4-4.8c2-0.7,4.2,0.4,4.8,2.4
		C363.4,705.9,362.3,708.1,360.4,708.8z M368.5,710.9c-1.1,0.9-2.4,1.6-3.6,2.4c0-0.1-0.1-0.1-0.1-0.2c0.2-0.2,0.5-0.4,0.7-0.6
		c3.8-3.2,5-8.8,2.7-13c-2.5-4.6-7.5-6.8-12.4-5.3c-5.5,1.7-10.5-0.4-13.1-5.5c-1.7-3.6-1.8-9.4,3.1-12.8c2.1-1.5,4.6-2.1,7.1-2.4
		c9.3-1.3,18.5,4,22.1,12.7C378.6,694.9,376,705.1,368.5,710.9z"/>
</g>
<path fill="#FFFFFF" d="M366.4,645.2c-13.8,0-25.1,11.2-25.1,25.1c0,13.8,11.2,25.1,25.1,25.1s25.1-11.2,25.1-25.1
	S380.3,645.2,366.4,645.2z"/>
<path fill="#AFD2ED" d="M323.1,676.5c-0.2-0.2-0.4-0.2-0.6,0c-5.2,5.6-9,8.3-11.3,7.7c-1.1-0.2-1.8-1-2.4-2.5c-0.8-2-1.8-4.1-4-4.6
	c-1.8-0.4-4.7,0.3-11.7,7v-10.8h2.3l-2.7-2.7l-2.7,2.7h2.3v11.9c-1.1,1.1-2.2,2.3-3.4,3.6c-0.2,0.2-0.2,0.4,0,0.6
	c0.1,0.1,0.2,0.1,0.4,0.1s0.3-0.1,0.4-0.2c1-1.1,1.9-2,2.8-2.9v11.9h25.1v2.3l2.7-2.7l-2.7-2.7v2.3h-4.7v-12.3
	c2.6-0.5,5.9-3.2,10.4-8C323.3,677,323.3,676.7,323.1,676.5z M293.2,697.5v-11.9c2.3-2.3,4.3-4,6.1-5.3v17.2H293.2z"/>
<path fill="#AFD2ED" d="M382.4,680.7c-0.1-0.2-3.2-3.6-8.8-4.5c0.6-2.9,1.3-7.5-1.5-10.9c-1.8-2.2-5-3.4-9.2-3.6
	c0.1-3.1-0.4-6.4-1.4-9.4c-0.3-1-1.4-1.5-2.4-1.2c-1,0.3-1.5,1.4-1.2,2.4c0,0.1,0.1,0.3,0.1,0.4l-5.6,4.1c-0.3-0.3-0.7-0.4-1.2-0.4
	s-0.9,0.2-1.2,0.5c-0.8,0.7-0.9,1.8-0.2,2.6c0.1,0.2,3.2,3.6,8.8,4.5c-0.6,2.9-1.3,7.5,1.5,10.9c1.8,2.2,5,3.4,9.2,3.6
	c-0.1,3.1,0.4,6.4,1.4,9.4c0.3,1,1.4,1.5,2.4,1.2c1-0.3,1.5-1.4,1.2-2.4c-0.1-0.2-0.1-0.4-0.2-0.6l5.5-4c0.4,0.3,0.8,0.5,1.3,0.5
	s0.9-0.2,1.2-0.5C383,682.6,383,681.4,382.4,680.7z M353.5,658.8l5-3.6c0.2,0.7,0.3,1.5,0.4,2.2l-3.6,2.6
	C354.5,659.6,353.9,659.1,353.5,658.8z M359.2,661.3c-1-0.2-1.8-0.4-2.6-0.7l2.5-1.8C359.2,659.7,359.2,660.5,359.2,661.3z
	 M362.5,665.6c0-0.1,0-0.2,0-0.2c1.8,0.1,3.3,0.3,4.5,0.8l-5.1,3.7C361.9,668.3,362.2,666.8,362.5,665.6z M363.1,673.6
	c-0.6-0.6-0.8-1.4-1-2.3l6.2-4.5c0.4,0.3,0.7,0.5,0.9,0.8c0.6,0.7,0.9,1.6,1.1,2.6l-6,4.4C363.8,674.3,363.4,674,363.1,673.6z
	 M369.9,675.7c0,0.1,0,0.2,0,0.2c-1.7-0.1-3.1-0.3-4.2-0.7l4.8-3.4C370.3,673.1,370.1,674.5,369.9,675.7z M373.1,679.9
	c1.1,0.2,2,0.5,2.9,0.9l-2.8,2C373.1,681.8,373.1,680.8,373.1,679.9z M373.8,685.9c-0.2-0.6-0.3-1.1-0.4-1.7l3.9-2.8
	c0.6,0.3,1,0.6,1.4,0.9L373.8,685.9z"/>
</svg>
