<svg width="491" height="180" viewBox="0 0 491 180" fill="none" xmlns="http://www.w3.org/2000/svg">
<g clip-path="url(#clip0_3077_9486)">
<path d="M0 4C0 1.79086 1.79086 0 4 0H487C489.209 0 491 1.79086 491 4V180H0V4Z" fill="#9DCCE4"/>
<circle cx="32" cy="31" r="29" fill="#AFD5EB"/>
<path d="M31.7799 48L40.3814 26.2937H42.4005L51 48H48.8684L46.5197 41.9814H36.2603L33.9135 48H31.7799ZM16.227 42.307L14.8296 40.9119L24.493 31.2111C23.3666 30.0601 22.2462 28.6432 21.1317 26.9607C20.0172 25.2781 19.1916 23.7402 18.6547 22.3471H20.7863C21.2679 23.4521 21.9962 24.7216 22.9712 26.1555C23.9449 27.5908 24.9173 28.8109 25.8884 29.816C27.6068 28.0729 29.1325 26.1595 30.4654 24.0757C31.7984 21.9919 32.6839 20.1001 33.1221 18.4005H13V16.4272H25.0693V14H27.043V16.4272H39.1123V18.4005H35.1747C34.5852 20.4659 33.5806 22.6654 32.1609 24.9992C30.7411 27.3329 29.1167 29.4115 27.2877 31.2348L32.2911 36.3733L31.5312 38.4058L25.8904 32.6201L16.227 42.307ZM36.9274 40.1976H45.8545L41.39 28.7307L36.9274 40.1976Z" fill="#9DCCE4"/>
<circle cx="32" cy="96" r="29" fill="#AFD5EB"/>
<path d="M31.7799 113L40.3814 91.2937H42.4005L51 113H48.8684L46.5197 106.981H36.2603L33.9135 113H31.7799ZM16.227 107.307L14.8296 105.912L24.493 96.2111C23.3666 95.0601 22.2462 93.6432 21.1317 91.9607C20.0172 90.2781 19.1916 88.7402 18.6547 87.3471H20.7863C21.2679 88.4521 21.9962 89.7216 22.9712 91.1555C23.9449 92.5908 24.9173 93.8109 25.8884 94.816C27.6068 93.0729 29.1325 91.1595 30.4654 89.0757C31.7984 86.9919 32.6839 85.1001 33.1221 83.4005H13V81.4272H25.0693V79H27.043V81.4272H39.1123V83.4005H35.1747C34.5852 85.4659 33.5806 87.6654 32.1609 89.9992C30.7411 92.3329 29.1167 94.4115 27.2877 96.2348L32.2911 101.373L31.5312 103.406L25.8904 97.6201L16.227 107.307ZM36.9274 105.198H45.8545L41.39 93.7307L36.9274 105.198Z" fill="#9DCCE4"/>
<circle cx="32" cy="161" r="29" fill="#AFD5EB"/>
<path d="M31.7799 178L40.3814 156.294H42.4005L51 178H48.8684L46.5197 171.981H36.2603L33.9135 178H31.7799ZM16.227 172.307L14.8296 170.912L24.493 161.211C23.3666 160.06 22.2462 158.643 21.1317 156.961C20.0172 155.278 19.1916 153.74 18.6547 152.347H20.7863C21.2679 153.452 21.9962 154.722 22.9712 156.156C23.9449 157.591 24.9173 158.811 25.8884 159.816C27.6068 158.073 29.1325 156.159 30.4654 154.076C31.7984 151.992 32.6839 150.1 33.1221 148.4H13V146.427H25.0693V144H27.043V146.427H39.1123V148.4H35.1747C34.5852 150.466 33.5806 152.665 32.1609 154.999C30.7411 157.333 29.1167 159.411 27.2877 161.235L32.2911 166.373L31.5312 168.406L25.8904 162.62L16.227 172.307ZM36.9274 170.198H45.8545L41.39 158.731L36.9274 170.198Z" fill="#9DCCE4"/>
<circle cx="162" cy="31" r="29" fill="#AFD5EB"/>
<path d="M161.78 48L170.381 26.2937H172.401L181 48H178.868L176.52 41.9814H166.26L163.914 48H161.78ZM146.227 42.307L144.83 40.9119L154.493 31.2111C153.367 30.0601 152.246 28.6432 151.132 26.9607C150.017 25.2781 149.192 23.7402 148.655 22.3471H150.786C151.268 23.4521 151.996 24.7216 152.971 26.1555C153.945 27.5908 154.917 28.8109 155.888 29.816C157.607 28.0729 159.133 26.1595 160.465 24.0757C161.798 21.9919 162.684 20.1001 163.122 18.4005H143V16.4272H155.069V14H157.043V16.4272H169.112V18.4005H165.175C164.585 20.4659 163.581 22.6654 162.161 24.9992C160.741 27.3329 159.117 29.4115 157.288 31.2348L162.291 36.3733L161.531 38.4058L155.89 32.6201L146.227 42.307ZM166.927 40.1976H175.855L171.39 28.7307L166.927 40.1976Z" fill="#9DCCE4"/>
<circle cx="162" cy="96" r="29" fill="#AFD5EB"/>
<path d="M161.78 113L170.381 91.2937H172.401L181 113H178.868L176.52 106.981H166.26L163.914 113H161.78ZM146.227 107.307L144.83 105.912L154.493 96.2111C153.367 95.0601 152.246 93.6432 151.132 91.9607C150.017 90.2781 149.192 88.7402 148.655 87.3471H150.786C151.268 88.4521 151.996 89.7216 152.971 91.1555C153.945 92.5908 154.917 93.8109 155.888 94.816C157.607 93.0729 159.133 91.1595 160.465 89.0757C161.798 86.9919 162.684 85.1001 163.122 83.4005H143V81.4272H155.069V79H157.043V81.4272H169.112V83.4005H165.175C164.585 85.4659 163.581 87.6654 162.161 89.9992C160.741 92.3329 159.117 94.4115 157.288 96.2348L162.291 101.373L161.531 103.406L155.89 97.6201L146.227 107.307ZM166.927 105.198H175.855L171.39 93.7307L166.927 105.198Z" fill="#9DCCE4"/>
<circle cx="162" cy="161" r="29" fill="#AFD5EB"/>
<path d="M161.78 178L170.381 156.294H172.401L181 178H178.868L176.52 171.981H166.26L163.914 178H161.78ZM146.227 172.307L144.83 170.912L154.493 161.211C153.367 160.06 152.246 158.643 151.132 156.961C150.017 155.278 149.192 153.74 148.655 152.347H150.786C151.268 153.452 151.996 154.722 152.971 156.156C153.945 157.591 154.917 158.811 155.888 159.816C157.607 158.073 159.133 156.159 160.465 154.076C161.798 151.992 162.684 150.1 163.122 148.4H143V146.427H155.069V144H157.043V146.427H169.112V148.4H165.175C164.585 150.466 163.581 152.665 162.161 154.999C160.741 157.333 159.117 159.411 157.288 161.235L162.291 166.373L161.531 168.406L155.89 162.62L146.227 172.307ZM166.927 170.198H175.855L171.39 158.731L166.927 170.198Z" fill="#9DCCE4"/>
<circle cx="292" cy="31" r="29" fill="#AFD5EB"/>
<path d="M291.78 48L300.381 26.2937H302.401L311 48H308.868L306.52 41.9814H296.26L293.914 48H291.78ZM276.227 42.307L274.83 40.9119L284.493 31.2111C283.367 30.0601 282.246 28.6432 281.132 26.9607C280.017 25.2781 279.192 23.7402 278.655 22.3471H280.786C281.268 23.4521 281.996 24.7216 282.971 26.1555C283.945 27.5908 284.917 28.8109 285.888 29.816C287.607 28.0729 289.133 26.1595 290.465 24.0757C291.798 21.9919 292.684 20.1001 293.122 18.4005H273V16.4272H285.069V14H287.043V16.4272H299.112V18.4005H295.175C294.585 20.4659 293.581 22.6654 292.161 24.9992C290.741 27.3329 289.117 29.4115 287.288 31.2348L292.291 36.3733L291.531 38.4058L285.89 32.6201L276.227 42.307ZM296.927 40.1976H305.855L301.39 28.7307L296.927 40.1976Z" fill="#9DCCE4"/>
<circle cx="292" cy="96" r="29" fill="#AFD5EB"/>
<path d="M291.78 113L300.381 91.2937H302.401L311 113H308.868L306.52 106.981H296.26L293.914 113H291.78ZM276.227 107.307L274.83 105.912L284.493 96.2111C283.367 95.0601 282.246 93.6432 281.132 91.9607C280.017 90.2781 279.192 88.7402 278.655 87.3471H280.786C281.268 88.4521 281.996 89.7216 282.971 91.1555C283.945 92.5908 284.917 93.8109 285.888 94.816C287.607 93.0729 289.133 91.1595 290.465 89.0757C291.798 86.9919 292.684 85.1001 293.122 83.4005H273V81.4272H285.069V79H287.043V81.4272H299.112V83.4005H295.175C294.585 85.4659 293.581 87.6654 292.161 89.9992C290.741 92.3329 289.117 94.4115 287.288 96.2348L292.291 101.373L291.531 103.406L285.89 97.6201L276.227 107.307ZM296.927 105.198H305.855L301.39 93.7307L296.927 105.198Z" fill="#9DCCE4"/>
<circle cx="292" cy="161" r="29" fill="#AFD5EB"/>
<path d="M291.78 178L300.381 156.294H302.401L311 178H308.868L306.52 171.981H296.26L293.914 178H291.78ZM276.227 172.307L274.83 170.912L284.493 161.211C283.367 160.06 282.246 158.643 281.132 156.961C280.017 155.278 279.192 153.74 278.655 152.347H280.786C281.268 153.452 281.996 154.722 282.971 156.156C283.945 157.591 284.917 158.811 285.888 159.816C287.607 158.073 289.133 156.159 290.465 154.076C291.798 151.992 292.684 150.1 293.122 148.4H273V146.427H285.069V144H287.043V146.427H299.112V148.4H295.175C294.585 150.466 293.581 152.665 292.161 154.999C290.741 157.333 289.117 159.411 287.288 161.235L292.291 166.373L291.531 168.406L285.89 162.62L276.227 172.307ZM296.927 170.198H305.855L301.39 158.731L296.927 170.198Z" fill="#9DCCE4"/>
<circle cx="422" cy="31" r="29" fill="#AFD5EB"/>
<path d="M421.78 48L430.381 26.2937H432.401L441 48H438.868L436.52 41.9814H426.26L423.914 48H421.78ZM406.227 42.307L404.83 40.9119L414.493 31.2111C413.367 30.0601 412.246 28.6432 411.132 26.9607C410.017 25.2781 409.192 23.7402 408.655 22.3471H410.786C411.268 23.4521 411.996 24.7216 412.971 26.1555C413.945 27.5908 414.917 28.8109 415.888 29.816C417.607 28.0729 419.133 26.1595 420.465 24.0757C421.798 21.9919 422.684 20.1001 423.122 18.4005H403V16.4272H415.069V14H417.043V16.4272H429.112V18.4005H425.175C424.585 20.4659 423.581 22.6654 422.161 24.9992C420.741 27.3329 419.117 29.4115 417.288 31.2348L422.291 36.3733L421.531 38.4058L415.89 32.6201L406.227 42.307ZM426.927 40.1976H435.855L431.39 28.7307L426.927 40.1976Z" fill="#9DCCE4"/>
<circle cx="422" cy="96" r="29" fill="#AFD5EB"/>
<path d="M421.78 113L430.381 91.2937H432.401L441 113H438.868L436.52 106.981H426.26L423.914 113H421.78ZM406.227 107.307L404.83 105.912L414.493 96.2111C413.367 95.0601 412.246 93.6432 411.132 91.9607C410.017 90.2781 409.192 88.7402 408.655 87.3471H410.786C411.268 88.4521 411.996 89.7216 412.971 91.1555C413.945 92.5908 414.917 93.8109 415.888 94.816C417.607 93.0729 419.133 91.1595 420.465 89.0757C421.798 86.9919 422.684 85.1001 423.122 83.4005H403V81.4272H415.069V79H417.043V81.4272H429.112V83.4005H425.175C424.585 85.4659 423.581 87.6654 422.161 89.9992C420.741 92.3329 419.117 94.4115 417.288 96.2348L422.291 101.373L421.531 103.406L415.89 97.6201L406.227 107.307ZM426.927 105.198H435.855L431.39 93.7307L426.927 105.198Z" fill="#9DCCE4"/>
<circle cx="422" cy="161" r="29" fill="#AFD5EB"/>
<path d="M421.78 178L430.381 156.294H432.401L441 178H438.868L436.52 171.981H426.26L423.914 178H421.78ZM406.227 172.307L404.83 170.912L414.493 161.211C413.367 160.06 412.246 158.643 411.132 156.961C410.017 155.278 409.192 153.74 408.655 152.347H410.786C411.268 153.452 411.996 154.722 412.971 156.156C413.945 157.591 414.917 158.811 415.888 159.816C417.607 158.073 419.133 156.159 420.465 154.076C421.798 151.992 422.684 150.1 423.122 148.4H403V146.427H415.069V144H417.043V146.427H429.112V148.4H425.175C424.585 150.466 423.581 152.665 422.161 154.999C420.741 157.333 419.117 159.411 417.288 161.235L422.291 166.373L421.531 168.406L415.89 162.62L406.227 172.307ZM426.927 170.198H435.855L431.39 158.731L426.927 170.198Z" fill="#9DCCE4"/>
<circle cx="97" cy="31" r="29" fill="#AFD5EB"/>
<path d="M97 50C94.385 50 91.9221 49.5004 89.6111 48.5011C87.3002 47.5018 85.2876 46.1437 83.5733 44.4267C81.8591 42.7096 80.501 40.697 79.4989 38.3889C78.4968 36.0807 77.9972 33.6178 78 31C78 28.378 78.4996 25.9129 79.4989 23.6048C80.4982 21.2966 81.8563 19.2861 83.5733 17.5733C85.2904 15.8605 87.303 14.5031 89.6111 13.501C91.9193 12.4989 94.3822 11.9986 97 12C99.622 12 102.087 12.4996 104.395 13.4989C106.703 14.4982 108.715 15.8563 110.429 17.5733C112.143 19.2904 113.5 21.3008 114.499 23.6048C115.498 25.9087 115.999 28.3738 116 31C116 33.615 115.5 36.0779 114.501 38.3889C113.502 40.6998 112.144 42.7124 110.427 44.4267C108.71 46.1409 106.699 47.499 104.395 48.5011C102.091 49.5032 99.6262 50.0028 97 50ZM97 47.9058C98.2385 46.314 99.2603 44.7511 100.065 43.217C100.87 41.6829 101.524 39.9659 102.027 38.0659H91.9735C92.5308 40.0728 93.1979 41.8434 93.9748 43.3774C94.7517 44.9115 95.7601 46.421 97 47.9058ZM94.3126 47.5891C93.3274 46.428 92.428 44.9924 91.6146 43.2824C90.8011 41.5738 90.1959 39.8343 89.799 38.0638H81.7008C82.9112 40.69 84.6261 42.8433 86.8456 44.5238C89.065 46.2042 91.5533 47.226 94.3105 47.5891M99.6853 47.5891C102.441 47.226 104.929 46.2042 107.15 44.5238C109.371 42.8433 111.086 40.69 112.295 38.0638H104.201C103.666 39.861 102.993 41.6147 102.181 43.3247C101.367 45.0332 100.535 46.4547 99.6853 47.5891ZM80.8395 35.9527H89.3578C89.1973 35.0871 89.0848 34.2434 89.02 33.4214C88.9525 32.5995 88.9187 31.7924 88.9187 31C88.9187 30.2076 88.9517 29.4005 89.0179 28.5786C89.084 27.7566 89.1966 26.9122 89.3557 26.0452H80.8437C80.6143 26.7771 80.4348 27.5744 80.3053 28.4371C80.1759 29.2998 80.1111 30.1541 80.1111 31C80.1111 31.8458 80.1752 32.7001 80.3032 33.5629C80.4313 34.4256 80.6108 35.2222 80.8416 35.9527M91.471 35.9527H102.529C102.689 35.0871 102.802 34.2567 102.867 33.4615C102.932 32.6664 102.966 31.8458 102.97 31C102.974 30.1541 102.941 29.3336 102.871 28.5384C102.801 27.7433 102.688 26.9129 102.533 26.0473H91.4689C91.3099 26.9129 91.1973 27.7433 91.1311 28.5384C91.065 29.3336 91.0319 30.1541 91.0319 31C91.0319 31.8458 91.065 32.6664 91.1311 33.4615C91.1973 34.2567 91.312 35.0871 91.471 35.9527ZM104.642 35.9527H113.158C113.388 35.2208 113.567 34.4242 113.697 33.5629C113.826 32.7015 113.89 31.8473 113.889 31C113.887 30.1527 113.823 29.2984 113.697 28.4371C113.57 27.5758 113.391 26.7792 113.158 26.0473H104.64C104.801 26.9129 104.913 27.7566 104.978 28.5786C105.045 29.4005 105.079 30.2076 105.079 31C105.079 31.7924 105.046 32.5995 104.98 33.4214C104.914 34.2434 104.801 35.0878 104.642 35.9548M104.203 23.9362H112.297C111.06 21.2565 109.365 19.1032 107.214 17.4762C105.06 15.8493 102.552 14.8148 99.6874 14.3729C100.673 15.6677 101.559 17.1497 102.345 18.8189C103.132 20.4881 103.751 22.1939 104.203 23.9362ZM91.9735 23.9362H102.027C101.469 21.9546 100.782 20.163 99.964 18.5613C99.1463 16.9597 98.1583 15.4707 97 14.0942C95.8417 15.4693 94.8537 16.9583 94.036 18.5613C93.2197 20.163 92.5322 21.9546 91.9735 23.9362ZM81.7029 23.9362H89.7969C90.2501 22.1924 90.8693 20.4867 91.6547 18.8189C92.44 17.1511 93.326 15.6684 94.3126 14.3708C91.4217 14.8141 88.9067 15.8556 86.7675 17.4952C84.6282 19.1349 82.9393 21.2811 81.7008 23.9341" fill="#9DCCE4"/>
<circle cx="97" cy="96" r="29" fill="#AFD5EB"/>
<path d="M97 115C94.385 115 91.9221 114.5 89.6111 113.501C87.3002 112.502 85.2876 111.144 83.5733 109.427C81.8591 107.71 80.501 105.697 79.4989 103.389C78.4968 101.081 77.9972 98.6178 78 96C78 93.378 78.4996 90.9129 79.4989 88.6048C80.4982 86.2966 81.8563 84.2861 83.5733 82.5733C85.2904 80.8605 87.303 79.5031 89.6111 78.501C91.9193 77.4989 94.3822 76.9986 97 77C99.622 77 102.087 77.4996 104.395 78.4989C106.703 79.4982 108.715 80.8563 110.429 82.5733C112.143 84.2904 113.5 86.3008 114.499 88.6048C115.498 90.9087 115.999 93.3738 116 96C116 98.615 115.5 101.078 114.501 103.389C113.502 105.7 112.144 107.712 110.427 109.427C108.71 111.141 106.699 112.499 104.395 113.501C102.091 114.503 99.6262 115.003 97 115ZM97 112.906C98.2385 111.314 99.2603 109.751 100.065 108.217C100.87 106.683 101.524 104.966 102.027 103.066H91.9735C92.5308 105.073 93.1979 106.843 93.9748 108.377C94.7517 109.912 95.7601 111.421 97 112.906ZM94.3126 112.589C93.3274 111.428 92.428 109.992 91.6146 108.282C90.8011 106.574 90.1959 104.834 89.799 103.064H81.7008C82.9112 105.69 84.6261 107.843 86.8456 109.524C89.065 111.204 91.5533 112.226 94.3105 112.589M99.6853 112.589C102.441 112.226 104.929 111.204 107.15 109.524C109.371 107.843 111.086 105.69 112.295 103.064H104.201C103.666 104.861 102.993 106.615 102.181 108.325C101.367 110.033 100.535 111.455 99.6853 112.589ZM80.8395 100.953H89.3578C89.1973 100.087 89.0848 99.2434 89.02 98.4214C88.9525 97.5995 88.9187 96.7924 88.9187 96C88.9187 95.2076 88.9517 94.4005 89.0179 93.5786C89.084 92.7566 89.1966 91.9122 89.3557 91.0452H80.8437C80.6143 91.7771 80.4348 92.5744 80.3053 93.4371C80.1759 94.2998 80.1111 95.1541 80.1111 96C80.1111 96.8458 80.1752 97.7001 80.3032 98.5629C80.4313 99.4256 80.6108 100.222 80.8416 100.953M91.471 100.953H102.529C102.689 100.087 102.802 99.2567 102.867 98.4615C102.932 97.6664 102.966 96.8458 102.97 96C102.974 95.1541 102.941 94.3336 102.871 93.5384C102.801 92.7433 102.688 91.9129 102.533 91.0473H91.4689C91.3099 91.9129 91.1973 92.7433 91.1311 93.5384C91.065 94.3336 91.0319 95.1541 91.0319 96C91.0319 96.8458 91.065 97.6664 91.1311 98.4615C91.1973 99.2567 91.312 100.087 91.471 100.953ZM104.642 100.953H113.158C113.388 100.221 113.567 99.4242 113.697 98.5629C113.826 97.7015 113.89 96.8473 113.889 96C113.887 95.1527 113.823 94.2984 113.697 93.4371C113.57 92.5758 113.391 91.7792 113.158 91.0473H104.64C104.801 91.9129 104.913 92.7566 104.978 93.5786C105.045 94.4005 105.079 95.2076 105.079 96C105.079 96.7924 105.046 97.5995 104.98 98.4214C104.914 99.2434 104.801 100.088 104.642 100.955M104.203 88.9362H112.297C111.06 86.2565 109.365 84.1032 107.214 82.4762C105.06 80.8493 102.552 79.8148 99.6874 79.3729C100.673 80.6677 101.559 82.1497 102.345 83.8189C103.132 85.4881 103.751 87.1939 104.203 88.9362ZM91.9735 88.9362H102.027C101.469 86.9546 100.782 85.163 99.964 83.5613C99.1463 81.9597 98.1583 80.4707 97 79.0942C95.8417 80.4693 94.8537 81.9583 94.036 83.5613C93.2197 85.163 92.5322 86.9546 91.9735 88.9362ZM81.7029 88.9362H89.7969C90.2501 87.1924 90.8693 85.4867 91.6547 83.8189C92.44 82.1511 93.326 80.6684 94.3126 79.3708C91.4217 79.8141 88.9067 80.8556 86.7675 82.4952C84.6282 84.1349 82.9393 86.2811 81.7008 88.9341" fill="#9DCCE4"/>
<circle cx="97" cy="161" r="29" fill="#AFD5EB"/>
<path d="M97 180C94.385 180 91.9221 179.5 89.6111 178.501C87.3002 177.502 85.2876 176.144 83.5733 174.427C81.8591 172.71 80.501 170.697 79.4989 168.389C78.4968 166.081 77.9972 163.618 78 161C78 158.378 78.4996 155.913 79.4989 153.605C80.4982 151.297 81.8563 149.286 83.5733 147.573C85.2904 145.861 87.303 144.503 89.6111 143.501C91.9193 142.499 94.3822 141.999 97 142C99.622 142 102.087 142.5 104.395 143.499C106.703 144.498 108.715 145.856 110.429 147.573C112.143 149.29 113.5 151.301 114.499 153.605C115.498 155.909 115.999 158.374 116 161C116 163.615 115.5 166.078 114.501 168.389C113.502 170.7 112.144 172.712 110.427 174.427C108.71 176.141 106.699 177.499 104.395 178.501C102.091 179.503 99.6262 180.003 97 180ZM97 177.906C98.2385 176.314 99.2603 174.751 100.065 173.217C100.87 171.683 101.524 169.966 102.027 168.066H91.9735C92.5308 170.073 93.1979 171.843 93.9748 173.377C94.7517 174.912 95.7601 176.421 97 177.906ZM94.3126 177.589C93.3274 176.428 92.428 174.992 91.6146 173.282C90.8011 171.574 90.1959 169.834 89.799 168.064H81.7008C82.9112 170.69 84.6261 172.843 86.8456 174.524C89.065 176.204 91.5533 177.226 94.3105 177.589M99.6853 177.589C102.441 177.226 104.929 176.204 107.15 174.524C109.371 172.843 111.086 170.69 112.295 168.064H104.201C103.666 169.861 102.993 171.615 102.181 173.325C101.367 175.033 100.535 176.455 99.6853 177.589ZM80.8395 165.953H89.3578C89.1973 165.087 89.0848 164.243 89.02 163.421C88.9525 162.6 88.9187 161.792 88.9187 161C88.9187 160.208 88.9517 159.4 89.0179 158.579C89.084 157.757 89.1966 156.912 89.3557 156.045H80.8437C80.6143 156.777 80.4348 157.574 80.3053 158.437C80.1759 159.3 80.1111 160.154 80.1111 161C80.1111 161.846 80.1752 162.7 80.3032 163.563C80.4313 164.426 80.6108 165.222 80.8416 165.953M91.471 165.953H102.529C102.689 165.087 102.802 164.257 102.867 163.462C102.932 162.666 102.966 161.846 102.97 161C102.974 160.154 102.941 159.334 102.871 158.538C102.801 157.743 102.688 156.913 102.533 156.047H91.4689C91.3099 156.913 91.1973 157.743 91.1311 158.538C91.065 159.334 91.0319 160.154 91.0319 161C91.0319 161.846 91.065 162.666 91.1311 163.462C91.1973 164.257 91.312 165.087 91.471 165.953ZM104.642 165.953H113.158C113.388 165.221 113.567 164.424 113.697 163.563C113.826 162.702 113.89 161.847 113.889 161C113.887 160.153 113.823 159.298 113.697 158.437C113.57 157.576 113.391 156.779 113.158 156.047H104.64C104.801 156.913 104.913 157.757 104.978 158.579C105.045 159.4 105.079 160.208 105.079 161C105.079 161.792 105.046 162.6 104.98 163.421C104.914 164.243 104.801 165.088 104.642 165.955M104.203 153.936H112.297C111.06 151.257 109.365 149.103 107.214 147.476C105.06 145.849 102.552 144.815 99.6874 144.373C100.673 145.668 101.559 147.15 102.345 148.819C103.132 150.488 103.751 152.194 104.203 153.936ZM91.9735 153.936H102.027C101.469 151.955 100.782 150.163 99.964 148.561C99.1463 146.96 98.1583 145.471 97 144.094C95.8417 145.469 94.8537 146.958 94.036 148.561C93.2197 150.163 92.5322 151.955 91.9735 153.936ZM81.7029 153.936H89.7969C90.2501 152.192 90.8693 150.487 91.6547 148.819C92.44 147.151 93.326 145.668 94.3126 144.371C91.4217 144.814 88.9067 145.856 86.7675 147.495C84.6282 149.135 82.9393 151.281 81.7008 153.934" fill="#9DCCE4"/>
<circle cx="227" cy="31" r="29" fill="#AFD5EB"/>
<path d="M227 50C224.385 50 221.922 49.5004 219.611 48.5011C217.3 47.5018 215.288 46.1437 213.573 44.4267C211.859 42.7096 210.501 40.697 209.499 38.3889C208.497 36.0807 207.997 33.6178 208 31C208 28.378 208.5 25.9129 209.499 23.6048C210.498 21.2966 211.856 19.2861 213.573 17.5733C215.29 15.8605 217.303 14.5031 219.611 13.501C221.919 12.4989 224.382 11.9986 227 12C229.622 12 232.087 12.4996 234.395 13.4989C236.703 14.4982 238.715 15.8563 240.429 17.5733C242.143 19.2904 243.5 21.3008 244.499 23.6048C245.498 25.9087 245.999 28.3738 246 31C246 33.615 245.5 36.0779 244.501 38.3889C243.502 40.6998 242.144 42.7124 240.427 44.4267C238.71 46.1409 236.699 47.499 234.395 48.5011C232.091 49.5032 229.626 50.0028 227 50ZM227 47.9058C228.239 46.314 229.26 44.7511 230.065 43.217C230.87 41.6829 231.524 39.9659 232.027 38.0659H221.973C222.531 40.0728 223.198 41.8434 223.975 43.3774C224.752 44.9115 225.76 46.421 227 47.9058ZM224.313 47.5891C223.327 46.428 222.428 44.9924 221.615 43.2824C220.801 41.5738 220.196 39.8343 219.799 38.0638H211.701C212.911 40.69 214.626 42.8433 216.846 44.5238C219.065 46.2042 221.553 47.226 224.31 47.5891M229.685 47.5891C232.441 47.226 234.929 46.2042 237.15 44.5238C239.371 42.8433 241.086 40.69 242.295 38.0638H234.201C233.666 39.861 232.993 41.6147 232.181 43.3247C231.367 45.0332 230.535 46.4547 229.685 47.5891ZM210.839 35.9527H219.358C219.197 35.0871 219.085 34.2434 219.02 33.4214C218.952 32.5995 218.919 31.7924 218.919 31C218.919 30.2076 218.952 29.4005 219.018 28.5786C219.084 27.7566 219.197 26.9122 219.356 26.0452H210.844C210.614 26.7771 210.435 27.5744 210.305 28.4371C210.176 29.2998 210.111 30.1541 210.111 31C210.111 31.8458 210.175 32.7001 210.303 33.5629C210.431 34.4256 210.611 35.2222 210.842 35.9527M221.471 35.9527H232.529C232.689 35.0871 232.802 34.2567 232.867 33.4615C232.932 32.6664 232.966 31.8458 232.97 31C232.974 30.1541 232.941 29.3336 232.871 28.5384C232.801 27.7433 232.688 26.9129 232.533 26.0473H221.469C221.31 26.9129 221.197 27.7433 221.131 28.5384C221.065 29.3336 221.032 30.1541 221.032 31C221.032 31.8458 221.065 32.6664 221.131 33.4615C221.197 34.2567 221.312 35.0871 221.471 35.9527ZM234.642 35.9527H243.158C243.388 35.2208 243.567 34.4242 243.697 33.5629C243.826 32.7015 243.89 31.8473 243.889 31C243.887 30.1527 243.823 29.2984 243.697 28.4371C243.57 27.5758 243.391 26.7792 243.158 26.0473H234.64C234.801 26.9129 234.913 27.7566 234.978 28.5786C235.045 29.4005 235.079 30.2076 235.079 31C235.079 31.7924 235.046 32.5995 234.98 33.4214C234.914 34.2434 234.801 35.0878 234.642 35.9548M234.203 23.9362H242.297C241.06 21.2565 239.365 19.1032 237.214 17.4762C235.06 15.8493 232.552 14.8148 229.687 14.3729C230.673 15.6677 231.559 17.1497 232.345 18.8189C233.132 20.4881 233.751 22.1939 234.203 23.9362ZM221.973 23.9362H232.027C231.469 21.9546 230.782 20.163 229.964 18.5613C229.146 16.9597 228.158 15.4707 227 14.0942C225.842 15.4693 224.854 16.9583 224.036 18.5613C223.22 20.163 222.532 21.9546 221.973 23.9362ZM211.703 23.9362H219.797C220.25 22.1924 220.869 20.4867 221.655 18.8189C222.44 17.1511 223.326 15.6684 224.313 14.3708C221.422 14.8141 218.907 15.8556 216.767 17.4952C214.628 19.1349 212.939 21.2811 211.701 23.9341" fill="#9DCCE4"/>
<circle cx="227" cy="96" r="29" fill="#AFD5EB"/>
<path d="M227 115C224.385 115 221.922 114.5 219.611 113.501C217.3 112.502 215.288 111.144 213.573 109.427C211.859 107.71 210.501 105.697 209.499 103.389C208.497 101.081 207.997 98.6178 208 96C208 93.378 208.5 90.9129 209.499 88.6048C210.498 86.2966 211.856 84.2861 213.573 82.5733C215.29 80.8605 217.303 79.5031 219.611 78.501C221.919 77.4989 224.382 76.9986 227 77C229.622 77 232.087 77.4996 234.395 78.4989C236.703 79.4982 238.715 80.8563 240.429 82.5733C242.143 84.2904 243.5 86.3008 244.499 88.6048C245.498 90.9087 245.999 93.3738 246 96C246 98.615 245.5 101.078 244.501 103.389C243.502 105.7 242.144 107.712 240.427 109.427C238.71 111.141 236.699 112.499 234.395 113.501C232.091 114.503 229.626 115.003 227 115ZM227 112.906C228.239 111.314 229.26 109.751 230.065 108.217C230.87 106.683 231.524 104.966 232.027 103.066H221.973C222.531 105.073 223.198 106.843 223.975 108.377C224.752 109.912 225.76 111.421 227 112.906ZM224.313 112.589C223.327 111.428 222.428 109.992 221.615 108.282C220.801 106.574 220.196 104.834 219.799 103.064H211.701C212.911 105.69 214.626 107.843 216.846 109.524C219.065 111.204 221.553 112.226 224.31 112.589M229.685 112.589C232.441 112.226 234.929 111.204 237.15 109.524C239.371 107.843 241.086 105.69 242.295 103.064H234.201C233.666 104.861 232.993 106.615 232.181 108.325C231.367 110.033 230.535 111.455 229.685 112.589ZM210.839 100.953H219.358C219.197 100.087 219.085 99.2434 219.02 98.4214C218.952 97.5995 218.919 96.7924 218.919 96C218.919 95.2076 218.952 94.4005 219.018 93.5786C219.084 92.7566 219.197 91.9122 219.356 91.0452H210.844C210.614 91.7771 210.435 92.5744 210.305 93.4371C210.176 94.2998 210.111 95.1541 210.111 96C210.111 96.8458 210.175 97.7001 210.303 98.5629C210.431 99.4256 210.611 100.222 210.842 100.953M221.471 100.953H232.529C232.689 100.087 232.802 99.2567 232.867 98.4615C232.932 97.6664 232.966 96.8458 232.97 96C232.974 95.1541 232.941 94.3336 232.871 93.5384C232.801 92.7433 232.688 91.9129 232.533 91.0473H221.469C221.31 91.9129 221.197 92.7433 221.131 93.5384C221.065 94.3336 221.032 95.1541 221.032 96C221.032 96.8458 221.065 97.6664 221.131 98.4615C221.197 99.2567 221.312 100.087 221.471 100.953ZM234.642 100.953H243.158C243.388 100.221 243.567 99.4242 243.697 98.5629C243.826 97.7015 243.89 96.8473 243.889 96C243.887 95.1527 243.823 94.2984 243.697 93.4371C243.57 92.5758 243.391 91.7792 243.158 91.0473H234.64C234.801 91.9129 234.913 92.7566 234.978 93.5786C235.045 94.4005 235.079 95.2076 235.079 96C235.079 96.7924 235.046 97.5995 234.98 98.4214C234.914 99.2434 234.801 100.088 234.642 100.955M234.203 88.9362H242.297C241.06 86.2565 239.365 84.1032 237.214 82.4762C235.06 80.8493 232.552 79.8148 229.687 79.3729C230.673 80.6677 231.559 82.1497 232.345 83.8189C233.132 85.4881 233.751 87.1939 234.203 88.9362ZM221.973 88.9362H232.027C231.469 86.9546 230.782 85.163 229.964 83.5613C229.146 81.9597 228.158 80.4707 227 79.0942C225.842 80.4693 224.854 81.9583 224.036 83.5613C223.22 85.163 222.532 86.9546 221.973 88.9362ZM211.703 88.9362H219.797C220.25 87.1924 220.869 85.4867 221.655 83.8189C222.44 82.1511 223.326 80.6684 224.313 79.3708C221.422 79.8141 218.907 80.8556 216.767 82.4952C214.628 84.1349 212.939 86.2811 211.701 88.9341" fill="#9DCCE4"/>
<circle cx="227" cy="161" r="29" fill="#AFD5EB"/>
<path d="M227 180C224.385 180 221.922 179.5 219.611 178.501C217.3 177.502 215.288 176.144 213.573 174.427C211.859 172.71 210.501 170.697 209.499 168.389C208.497 166.081 207.997 163.618 208 161C208 158.378 208.5 155.913 209.499 153.605C210.498 151.297 211.856 149.286 213.573 147.573C215.29 145.861 217.303 144.503 219.611 143.501C221.919 142.499 224.382 141.999 227 142C229.622 142 232.087 142.5 234.395 143.499C236.703 144.498 238.715 145.856 240.429 147.573C242.143 149.29 243.5 151.301 244.499 153.605C245.498 155.909 245.999 158.374 246 161C246 163.615 245.5 166.078 244.501 168.389C243.502 170.7 242.144 172.712 240.427 174.427C238.71 176.141 236.699 177.499 234.395 178.501C232.091 179.503 229.626 180.003 227 180ZM227 177.906C228.239 176.314 229.26 174.751 230.065 173.217C230.87 171.683 231.524 169.966 232.027 168.066H221.973C222.531 170.073 223.198 171.843 223.975 173.377C224.752 174.912 225.76 176.421 227 177.906ZM224.313 177.589C223.327 176.428 222.428 174.992 221.615 173.282C220.801 171.574 220.196 169.834 219.799 168.064H211.701C212.911 170.69 214.626 172.843 216.846 174.524C219.065 176.204 221.553 177.226 224.31 177.589M229.685 177.589C232.441 177.226 234.929 176.204 237.15 174.524C239.371 172.843 241.086 170.69 242.295 168.064H234.201C233.666 169.861 232.993 171.615 232.181 173.325C231.367 175.033 230.535 176.455 229.685 177.589ZM210.839 165.953H219.358C219.197 165.087 219.085 164.243 219.02 163.421C218.952 162.6 218.919 161.792 218.919 161C218.919 160.208 218.952 159.4 219.018 158.579C219.084 157.757 219.197 156.912 219.356 156.045H210.844C210.614 156.777 210.435 157.574 210.305 158.437C210.176 159.3 210.111 160.154 210.111 161C210.111 161.846 210.175 162.7 210.303 163.563C210.431 164.426 210.611 165.222 210.842 165.953M221.471 165.953H232.529C232.689 165.087 232.802 164.257 232.867 163.462C232.932 162.666 232.966 161.846 232.97 161C232.974 160.154 232.941 159.334 232.871 158.538C232.801 157.743 232.688 156.913 232.533 156.047H221.469C221.31 156.913 221.197 157.743 221.131 158.538C221.065 159.334 221.032 160.154 221.032 161C221.032 161.846 221.065 162.666 221.131 163.462C221.197 164.257 221.312 165.087 221.471 165.953ZM234.642 165.953H243.158C243.388 165.221 243.567 164.424 243.697 163.563C243.826 162.702 243.89 161.847 243.889 161C243.887 160.153 243.823 159.298 243.697 158.437C243.57 157.576 243.391 156.779 243.158 156.047H234.64C234.801 156.913 234.913 157.757 234.978 158.579C235.045 159.4 235.079 160.208 235.079 161C235.079 161.792 235.046 162.6 234.98 163.421C234.914 164.243 234.801 165.088 234.642 165.955M234.203 153.936H242.297C241.06 151.257 239.365 149.103 237.214 147.476C235.06 145.849 232.552 144.815 229.687 144.373C230.673 145.668 231.559 147.15 232.345 148.819C233.132 150.488 233.751 152.194 234.203 153.936ZM221.973 153.936H232.027C231.469 151.955 230.782 150.163 229.964 148.561C229.146 146.96 228.158 145.471 227 144.094C225.842 145.469 224.854 146.958 224.036 148.561C223.22 150.163 222.532 151.955 221.973 153.936ZM211.703 153.936H219.797C220.25 152.192 220.869 150.487 221.655 148.819C222.44 147.151 223.326 145.668 224.313 144.371C221.422 144.814 218.907 145.856 216.767 147.495C214.628 149.135 212.939 151.281 211.701 153.934" fill="#9DCCE4"/>
<circle cx="357" cy="31" r="29" fill="#AFD5EB"/>
<path d="M357 50C354.385 50 351.922 49.5004 349.611 48.5011C347.3 47.5018 345.288 46.1437 343.573 44.4267C341.859 42.7096 340.501 40.697 339.499 38.3889C338.497 36.0807 337.997 33.6178 338 31C338 28.378 338.5 25.9129 339.499 23.6048C340.498 21.2966 341.856 19.2861 343.573 17.5733C345.29 15.8605 347.303 14.5031 349.611 13.501C351.919 12.4989 354.382 11.9986 357 12C359.622 12 362.087 12.4996 364.395 13.4989C366.703 14.4982 368.715 15.8563 370.429 17.5733C372.143 19.2904 373.5 21.3008 374.499 23.6048C375.498 25.9087 375.999 28.3738 376 31C376 33.615 375.5 36.0779 374.501 38.3889C373.502 40.6998 372.144 42.7124 370.427 44.4267C368.71 46.1409 366.699 47.499 364.395 48.5011C362.091 49.5032 359.626 50.0028 357 50ZM357 47.9058C358.239 46.314 359.26 44.7511 360.065 43.217C360.87 41.6829 361.524 39.9659 362.027 38.0659H351.973C352.531 40.0728 353.198 41.8434 353.975 43.3774C354.752 44.9115 355.76 46.421 357 47.9058ZM354.313 47.5891C353.327 46.428 352.428 44.9924 351.615 43.2824C350.801 41.5738 350.196 39.8343 349.799 38.0638H341.701C342.911 40.69 344.626 42.8433 346.846 44.5238C349.065 46.2042 351.553 47.226 354.31 47.5891M359.685 47.5891C362.441 47.226 364.929 46.2042 367.15 44.5238C369.371 42.8433 371.086 40.69 372.295 38.0638H364.201C363.666 39.861 362.993 41.6147 362.181 43.3247C361.367 45.0332 360.535 46.4547 359.685 47.5891ZM340.839 35.9527H349.358C349.197 35.0871 349.085 34.2434 349.02 33.4214C348.952 32.5995 348.919 31.7924 348.919 31C348.919 30.2076 348.952 29.4005 349.018 28.5786C349.084 27.7566 349.197 26.9122 349.356 26.0452H340.844C340.614 26.7771 340.435 27.5744 340.305 28.4371C340.176 29.2998 340.111 30.1541 340.111 31C340.111 31.8458 340.175 32.7001 340.303 33.5629C340.431 34.4256 340.611 35.2222 340.842 35.9527M351.471 35.9527H362.529C362.689 35.0871 362.802 34.2567 362.867 33.4615C362.932 32.6664 362.966 31.8458 362.97 31C362.974 30.1541 362.941 29.3336 362.871 28.5384C362.801 27.7433 362.688 26.9129 362.533 26.0473H351.469C351.31 26.9129 351.197 27.7433 351.131 28.5384C351.065 29.3336 351.032 30.1541 351.032 31C351.032 31.8458 351.065 32.6664 351.131 33.4615C351.197 34.2567 351.312 35.0871 351.471 35.9527ZM364.642 35.9527H373.158C373.388 35.2208 373.567 34.4242 373.697 33.5629C373.826 32.7015 373.89 31.8473 373.889 31C373.887 30.1527 373.823 29.2984 373.697 28.4371C373.57 27.5758 373.391 26.7792 373.158 26.0473H364.64C364.801 26.9129 364.913 27.7566 364.978 28.5786C365.045 29.4005 365.079 30.2076 365.079 31C365.079 31.7924 365.046 32.5995 364.98 33.4214C364.914 34.2434 364.801 35.0878 364.642 35.9548M364.203 23.9362H372.297C371.06 21.2565 369.365 19.1032 367.214 17.4762C365.06 15.8493 362.552 14.8148 359.687 14.3729C360.673 15.6677 361.559 17.1497 362.345 18.8189C363.132 20.4881 363.751 22.1939 364.203 23.9362ZM351.973 23.9362H362.027C361.469 21.9546 360.782 20.163 359.964 18.5613C359.146 16.9597 358.158 15.4707 357 14.0942C355.842 15.4693 354.854 16.9583 354.036 18.5613C353.22 20.163 352.532 21.9546 351.973 23.9362ZM341.703 23.9362H349.797C350.25 22.1924 350.869 20.4867 351.655 18.8189C352.44 17.1511 353.326 15.6684 354.313 14.3708C351.422 14.8141 348.907 15.8556 346.767 17.4952C344.628 19.1349 342.939 21.2811 341.701 23.9341" fill="#9DCCE4"/>
<circle cx="357" cy="96" r="29" fill="#AFD5EB"/>
<path d="M357 115C354.385 115 351.922 114.5 349.611 113.501C347.3 112.502 345.288 111.144 343.573 109.427C341.859 107.71 340.501 105.697 339.499 103.389C338.497 101.081 337.997 98.6178 338 96C338 93.378 338.5 90.9129 339.499 88.6048C340.498 86.2966 341.856 84.2861 343.573 82.5733C345.29 80.8605 347.303 79.5031 349.611 78.501C351.919 77.4989 354.382 76.9986 357 77C359.622 77 362.087 77.4996 364.395 78.4989C366.703 79.4982 368.715 80.8563 370.429 82.5733C372.143 84.2904 373.5 86.3008 374.499 88.6048C375.498 90.9087 375.999 93.3738 376 96C376 98.615 375.5 101.078 374.501 103.389C373.502 105.7 372.144 107.712 370.427 109.427C368.71 111.141 366.699 112.499 364.395 113.501C362.091 114.503 359.626 115.003 357 115ZM357 112.906C358.239 111.314 359.26 109.751 360.065 108.217C360.87 106.683 361.524 104.966 362.027 103.066H351.973C352.531 105.073 353.198 106.843 353.975 108.377C354.752 109.912 355.76 111.421 357 112.906ZM354.313 112.589C353.327 111.428 352.428 109.992 351.615 108.282C350.801 106.574 350.196 104.834 349.799 103.064H341.701C342.911 105.69 344.626 107.843 346.846 109.524C349.065 111.204 351.553 112.226 354.31 112.589M359.685 112.589C362.441 112.226 364.929 111.204 367.15 109.524C369.371 107.843 371.086 105.69 372.295 103.064H364.201C363.666 104.861 362.993 106.615 362.181 108.325C361.367 110.033 360.535 111.455 359.685 112.589ZM340.839 100.953H349.358C349.197 100.087 349.085 99.2434 349.02 98.4214C348.952 97.5995 348.919 96.7924 348.919 96C348.919 95.2076 348.952 94.4005 349.018 93.5786C349.084 92.7566 349.197 91.9122 349.356 91.0452H340.844C340.614 91.7771 340.435 92.5744 340.305 93.4371C340.176 94.2998 340.111 95.1541 340.111 96C340.111 96.8458 340.175 97.7001 340.303 98.5629C340.431 99.4256 340.611 100.222 340.842 100.953M351.471 100.953H362.529C362.689 100.087 362.802 99.2567 362.867 98.4615C362.932 97.6664 362.966 96.8458 362.97 96C362.974 95.1541 362.941 94.3336 362.871 93.5384C362.801 92.7433 362.688 91.9129 362.533 91.0473H351.469C351.31 91.9129 351.197 92.7433 351.131 93.5384C351.065 94.3336 351.032 95.1541 351.032 96C351.032 96.8458 351.065 97.6664 351.131 98.4615C351.197 99.2567 351.312 100.087 351.471 100.953ZM364.642 100.953H373.158C373.388 100.221 373.567 99.4242 373.697 98.5629C373.826 97.7015 373.89 96.8473 373.889 96C373.887 95.1527 373.823 94.2984 373.697 93.4371C373.57 92.5758 373.391 91.7792 373.158 91.0473H364.64C364.801 91.9129 364.913 92.7566 364.978 93.5786C365.045 94.4005 365.079 95.2076 365.079 96C365.079 96.7924 365.046 97.5995 364.98 98.4214C364.914 99.2434 364.801 100.088 364.642 100.955M364.203 88.9362H372.297C371.06 86.2565 369.365 84.1032 367.214 82.4762C365.06 80.8493 362.552 79.8148 359.687 79.3729C360.673 80.6677 361.559 82.1497 362.345 83.8189C363.132 85.4881 363.751 87.1939 364.203 88.9362ZM351.973 88.9362H362.027C361.469 86.9546 360.782 85.163 359.964 83.5613C359.146 81.9597 358.158 80.4707 357 79.0942C355.842 80.4693 354.854 81.9583 354.036 83.5613C353.22 85.163 352.532 86.9546 351.973 88.9362ZM341.703 88.9362H349.797C350.25 87.1924 350.869 85.4867 351.655 83.8189C352.44 82.1511 353.326 80.6684 354.313 79.3708C351.422 79.8141 348.907 80.8556 346.767 82.4952C344.628 84.1349 342.939 86.2811 341.701 88.9341" fill="#9DCCE4"/>
<circle cx="357" cy="161" r="29" fill="#AFD5EB"/>
<path d="M357 180C354.385 180 351.922 179.5 349.611 178.501C347.3 177.502 345.288 176.144 343.573 174.427C341.859 172.71 340.501 170.697 339.499 168.389C338.497 166.081 337.997 163.618 338 161C338 158.378 338.5 155.913 339.499 153.605C340.498 151.297 341.856 149.286 343.573 147.573C345.29 145.861 347.303 144.503 349.611 143.501C351.919 142.499 354.382 141.999 357 142C359.622 142 362.087 142.5 364.395 143.499C366.703 144.498 368.715 145.856 370.429 147.573C372.143 149.29 373.5 151.301 374.499 153.605C375.498 155.909 375.999 158.374 376 161C376 163.615 375.5 166.078 374.501 168.389C373.502 170.7 372.144 172.712 370.427 174.427C368.71 176.141 366.699 177.499 364.395 178.501C362.091 179.503 359.626 180.003 357 180ZM357 177.906C358.239 176.314 359.26 174.751 360.065 173.217C360.87 171.683 361.524 169.966 362.027 168.066H351.973C352.531 170.073 353.198 171.843 353.975 173.377C354.752 174.912 355.76 176.421 357 177.906ZM354.313 177.589C353.327 176.428 352.428 174.992 351.615 173.282C350.801 171.574 350.196 169.834 349.799 168.064H341.701C342.911 170.69 344.626 172.843 346.846 174.524C349.065 176.204 351.553 177.226 354.31 177.589M359.685 177.589C362.441 177.226 364.929 176.204 367.15 174.524C369.371 172.843 371.086 170.69 372.295 168.064H364.201C363.666 169.861 362.993 171.615 362.181 173.325C361.367 175.033 360.535 176.455 359.685 177.589ZM340.839 165.953H349.358C349.197 165.087 349.085 164.243 349.02 163.421C348.952 162.6 348.919 161.792 348.919 161C348.919 160.208 348.952 159.4 349.018 158.579C349.084 157.757 349.197 156.912 349.356 156.045H340.844C340.614 156.777 340.435 157.574 340.305 158.437C340.176 159.3 340.111 160.154 340.111 161C340.111 161.846 340.175 162.7 340.303 163.563C340.431 164.426 340.611 165.222 340.842 165.953M351.471 165.953H362.529C362.689 165.087 362.802 164.257 362.867 163.462C362.932 162.666 362.966 161.846 362.97 161C362.974 160.154 362.941 159.334 362.871 158.538C362.801 157.743 362.688 156.913 362.533 156.047H351.469C351.31 156.913 351.197 157.743 351.131 158.538C351.065 159.334 351.032 160.154 351.032 161C351.032 161.846 351.065 162.666 351.131 163.462C351.197 164.257 351.312 165.087 351.471 165.953ZM364.642 165.953H373.158C373.388 165.221 373.567 164.424 373.697 163.563C373.826 162.702 373.89 161.847 373.889 161C373.887 160.153 373.823 159.298 373.697 158.437C373.57 157.576 373.391 156.779 373.158 156.047H364.64C364.801 156.913 364.913 157.757 364.978 158.579C365.045 159.4 365.079 160.208 365.079 161C365.079 161.792 365.046 162.6 364.98 163.421C364.914 164.243 364.801 165.088 364.642 165.955M364.203 153.936H372.297C371.06 151.257 369.365 149.103 367.214 147.476C365.06 145.849 362.552 144.815 359.687 144.373C360.673 145.668 361.559 147.15 362.345 148.819C363.132 150.488 363.751 152.194 364.203 153.936ZM351.973 153.936H362.027C361.469 151.955 360.782 150.163 359.964 148.561C359.146 146.96 358.158 145.471 357 144.094C355.842 145.469 354.854 146.958 354.036 148.561C353.22 150.163 352.532 151.955 351.973 153.936ZM341.703 153.936H349.797C350.25 152.192 350.869 150.487 351.655 148.819C352.44 147.151 353.326 145.668 354.313 144.371C351.422 144.814 348.907 145.856 346.767 147.495C344.628 149.135 342.939 151.281 341.701 153.934" fill="#9DCCE4"/>
<circle cx="487" cy="31" r="29" fill="#AFD5EB"/>
<path d="M487 50C484.385 50 481.922 49.5004 479.611 48.5011C477.3 47.5018 475.288 46.1437 473.573 44.4267C471.859 42.7096 470.501 40.697 469.499 38.3889C468.497 36.0807 467.997 33.6178 468 31C468 28.378 468.5 25.9129 469.499 23.6048C470.498 21.2966 471.856 19.2861 473.573 17.5733C475.29 15.8605 477.303 14.5031 479.611 13.501C481.919 12.4989 484.382 11.9986 487 12C489.622 12 492.087 12.4996 494.395 13.4989C496.703 14.4982 498.715 15.8563 500.429 17.5733C502.143 19.2904 503.5 21.3008 504.499 23.6048C505.498 25.9087 505.999 28.3738 506 31C506 33.615 505.5 36.0779 504.501 38.3889C503.502 40.6998 502.144 42.7124 500.427 44.4267C498.71 46.1409 496.699 47.499 494.395 48.5011C492.091 49.5032 489.626 50.0028 487 50ZM487 47.9058C488.239 46.314 489.26 44.7511 490.065 43.217C490.87 41.6829 491.524 39.9659 492.027 38.0659H481.973C482.531 40.0728 483.198 41.8434 483.975 43.3774C484.752 44.9115 485.76 46.421 487 47.9058ZM484.313 47.5891C483.327 46.428 482.428 44.9924 481.615 43.2824C480.801 41.5738 480.196 39.8343 479.799 38.0638H471.701C472.911 40.69 474.626 42.8433 476.846 44.5238C479.065 46.2042 481.553 47.226 484.31 47.5891M489.685 47.5891C492.441 47.226 494.929 46.2042 497.15 44.5238C499.371 42.8433 501.086 40.69 502.295 38.0638H494.201C493.666 39.861 492.993 41.6147 492.181 43.3247C491.367 45.0332 490.535 46.4547 489.685 47.5891ZM470.839 35.9527H479.358C479.197 35.0871 479.085 34.2434 479.02 33.4214C478.952 32.5995 478.919 31.7924 478.919 31C478.919 30.2076 478.952 29.4005 479.018 28.5786C479.084 27.7566 479.197 26.9122 479.356 26.0452H470.844C470.614 26.7771 470.435 27.5744 470.305 28.4371C470.176 29.2998 470.111 30.1541 470.111 31C470.111 31.8458 470.175 32.7001 470.303 33.5629C470.431 34.4256 470.611 35.2222 470.842 35.9527M481.471 35.9527H492.529C492.689 35.0871 492.802 34.2567 492.867 33.4615C492.932 32.6664 492.966 31.8458 492.97 31C492.974 30.1541 492.941 29.3336 492.871 28.5384C492.801 27.7433 492.688 26.9129 492.533 26.0473H481.469C481.31 26.9129 481.197 27.7433 481.131 28.5384C481.065 29.3336 481.032 30.1541 481.032 31C481.032 31.8458 481.065 32.6664 481.131 33.4615C481.197 34.2567 481.312 35.0871 481.471 35.9527ZM494.642 35.9527H503.158C503.388 35.2208 503.567 34.4242 503.697 33.5629C503.826 32.7015 503.89 31.8473 503.889 31C503.887 30.1527 503.823 29.2984 503.697 28.4371C503.57 27.5758 503.391 26.7792 503.158 26.0473H494.64C494.801 26.9129 494.913 27.7566 494.978 28.5786C495.045 29.4005 495.079 30.2076 495.079 31C495.079 31.7924 495.046 32.5995 494.98 33.4214C494.914 34.2434 494.801 35.0878 494.642 35.9548M494.203 23.9362H502.297C501.06 21.2565 499.365 19.1032 497.214 17.4762C495.06 15.8493 492.552 14.8148 489.687 14.3729C490.673 15.6677 491.559 17.1497 492.345 18.8189C493.132 20.4881 493.751 22.1939 494.203 23.9362ZM481.973 23.9362H492.027C491.469 21.9546 490.782 20.163 489.964 18.5613C489.146 16.9597 488.158 15.4707 487 14.0942C485.842 15.4693 484.854 16.9583 484.036 18.5613C483.22 20.163 482.532 21.9546 481.973 23.9362ZM471.703 23.9362H479.797C480.25 22.1924 480.869 20.4867 481.655 18.8189C482.44 17.1511 483.326 15.6684 484.313 14.3708C481.422 14.8141 478.907 15.8556 476.767 17.4952C474.628 19.1349 472.939 21.2811 471.701 23.9341" fill="#9DCCE4"/>
<circle cx="487" cy="96" r="29" fill="#AFD5EB"/>
<path d="M487 115C484.385 115 481.922 114.5 479.611 113.501C477.3 112.502 475.288 111.144 473.573 109.427C471.859 107.71 470.501 105.697 469.499 103.389C468.497 101.081 467.997 98.6178 468 96C468 93.378 468.5 90.9129 469.499 88.6048C470.498 86.2966 471.856 84.2861 473.573 82.5733C475.29 80.8605 477.303 79.5031 479.611 78.501C481.919 77.4989 484.382 76.9986 487 77C489.622 77 492.087 77.4996 494.395 78.4989C496.703 79.4982 498.715 80.8563 500.429 82.5733C502.143 84.2904 503.5 86.3008 504.499 88.6048C505.498 90.9087 505.999 93.3738 506 96C506 98.615 505.5 101.078 504.501 103.389C503.502 105.7 502.144 107.712 500.427 109.427C498.71 111.141 496.699 112.499 494.395 113.501C492.091 114.503 489.626 115.003 487 115ZM487 112.906C488.239 111.314 489.26 109.751 490.065 108.217C490.87 106.683 491.524 104.966 492.027 103.066H481.973C482.531 105.073 483.198 106.843 483.975 108.377C484.752 109.912 485.76 111.421 487 112.906ZM484.313 112.589C483.327 111.428 482.428 109.992 481.615 108.282C480.801 106.574 480.196 104.834 479.799 103.064H471.701C472.911 105.69 474.626 107.843 476.846 109.524C479.065 111.204 481.553 112.226 484.31 112.589M489.685 112.589C492.441 112.226 494.929 111.204 497.15 109.524C499.371 107.843 501.086 105.69 502.295 103.064H494.201C493.666 104.861 492.993 106.615 492.181 108.325C491.367 110.033 490.535 111.455 489.685 112.589ZM470.839 100.953H479.358C479.197 100.087 479.085 99.2434 479.02 98.4214C478.952 97.5995 478.919 96.7924 478.919 96C478.919 95.2076 478.952 94.4005 479.018 93.5786C479.084 92.7566 479.197 91.9122 479.356 91.0452H470.844C470.614 91.7771 470.435 92.5744 470.305 93.4371C470.176 94.2998 470.111 95.1541 470.111 96C470.111 96.8458 470.175 97.7001 470.303 98.5629C470.431 99.4256 470.611 100.222 470.842 100.953M481.471 100.953H492.529C492.689 100.087 492.802 99.2567 492.867 98.4615C492.932 97.6664 492.966 96.8458 492.97 96C492.974 95.1541 492.941 94.3336 492.871 93.5384C492.801 92.7433 492.688 91.9129 492.533 91.0473H481.469C481.31 91.9129 481.197 92.7433 481.131 93.5384C481.065 94.3336 481.032 95.1541 481.032 96C481.032 96.8458 481.065 97.6664 481.131 98.4615C481.197 99.2567 481.312 100.087 481.471 100.953ZM494.642 100.953H503.158C503.388 100.221 503.567 99.4242 503.697 98.5629C503.826 97.7015 503.89 96.8473 503.889 96C503.887 95.1527 503.823 94.2984 503.697 93.4371C503.57 92.5758 503.391 91.7792 503.158 91.0473H494.64C494.801 91.9129 494.913 92.7566 494.978 93.5786C495.045 94.4005 495.079 95.2076 495.079 96C495.079 96.7924 495.046 97.5995 494.98 98.4214C494.914 99.2434 494.801 100.088 494.642 100.955M494.203 88.9362H502.297C501.06 86.2565 499.365 84.1032 497.214 82.4762C495.06 80.8493 492.552 79.8148 489.687 79.3729C490.673 80.6677 491.559 82.1497 492.345 83.8189C493.132 85.4881 493.751 87.1939 494.203 88.9362ZM481.973 88.9362H492.027C491.469 86.9546 490.782 85.163 489.964 83.5613C489.146 81.9597 488.158 80.4707 487 79.0942C485.842 80.4693 484.854 81.9583 484.036 83.5613C483.22 85.163 482.532 86.9546 481.973 88.9362ZM471.703 88.9362H479.797C480.25 87.1924 480.869 85.4867 481.655 83.8189C482.44 82.1511 483.326 80.6684 484.313 79.3708C481.422 79.8141 478.907 80.8556 476.767 82.4952C474.628 84.1349 472.939 86.2811 471.701 88.9341" fill="#9DCCE4"/>
<circle cx="487" cy="161" r="29" fill="#AFD5EB"/>
<path d="M487 180C484.385 180 481.922 179.5 479.611 178.501C477.3 177.502 475.288 176.144 473.573 174.427C471.859 172.71 470.501 170.697 469.499 168.389C468.497 166.081 467.997 163.618 468 161C468 158.378 468.5 155.913 469.499 153.605C470.498 151.297 471.856 149.286 473.573 147.573C475.29 145.861 477.303 144.503 479.611 143.501C481.919 142.499 484.382 141.999 487 142C489.622 142 492.087 142.5 494.395 143.499C496.703 144.498 498.715 145.856 500.429 147.573C502.143 149.29 503.5 151.301 504.499 153.605C505.498 155.909 505.999 158.374 506 161C506 163.615 505.5 166.078 504.501 168.389C503.502 170.7 502.144 172.712 500.427 174.427C498.71 176.141 496.699 177.499 494.395 178.501C492.091 179.503 489.626 180.003 487 180ZM487 177.906C488.239 176.314 489.26 174.751 490.065 173.217C490.87 171.683 491.524 169.966 492.027 168.066H481.973C482.531 170.073 483.198 171.843 483.975 173.377C484.752 174.912 485.76 176.421 487 177.906ZM484.313 177.589C483.327 176.428 482.428 174.992 481.615 173.282C480.801 171.574 480.196 169.834 479.799 168.064H471.701C472.911 170.69 474.626 172.843 476.846 174.524C479.065 176.204 481.553 177.226 484.31 177.589M489.685 177.589C492.441 177.226 494.929 176.204 497.15 174.524C499.371 172.843 501.086 170.69 502.295 168.064H494.201C493.666 169.861 492.993 171.615 492.181 173.325C491.367 175.033 490.535 176.455 489.685 177.589ZM470.839 165.953H479.358C479.197 165.087 479.085 164.243 479.02 163.421C478.952 162.6 478.919 161.792 478.919 161C478.919 160.208 478.952 159.4 479.018 158.579C479.084 157.757 479.197 156.912 479.356 156.045H470.844C470.614 156.777 470.435 157.574 470.305 158.437C470.176 159.3 470.111 160.154 470.111 161C470.111 161.846 470.175 162.7 470.303 163.563C470.431 164.426 470.611 165.222 470.842 165.953M481.471 165.953H492.529C492.689 165.087 492.802 164.257 492.867 163.462C492.932 162.666 492.966 161.846 492.97 161C492.974 160.154 492.941 159.334 492.871 158.538C492.801 157.743 492.688 156.913 492.533 156.047H481.469C481.31 156.913 481.197 157.743 481.131 158.538C481.065 159.334 481.032 160.154 481.032 161C481.032 161.846 481.065 162.666 481.131 163.462C481.197 164.257 481.312 165.087 481.471 165.953ZM494.642 165.953H503.158C503.388 165.221 503.567 164.424 503.697 163.563C503.826 162.702 503.89 161.847 503.889 161C503.887 160.153 503.823 159.298 503.697 158.437C503.57 157.576 503.391 156.779 503.158 156.047H494.64C494.801 156.913 494.913 157.757 494.978 158.579C495.045 159.4 495.079 160.208 495.079 161C495.079 161.792 495.046 162.6 494.98 163.421C494.914 164.243 494.801 165.088 494.642 165.955M494.203 153.936H502.297C501.06 151.257 499.365 149.103 497.214 147.476C495.06 145.849 492.552 144.815 489.687 144.373C490.673 145.668 491.559 147.15 492.345 148.819C493.132 150.488 493.751 152.194 494.203 153.936ZM481.973 153.936H492.027C491.469 151.955 490.782 150.163 489.964 148.561C489.146 146.96 488.158 145.471 487 144.094C485.842 145.469 484.854 146.958 484.036 148.561C483.22 150.163 482.532 151.955 481.973 153.936ZM471.703 153.936H479.797C480.25 152.192 480.869 150.487 481.655 148.819C482.44 147.151 483.326 145.668 484.313 144.371C481.422 144.814 478.907 145.856 476.767 147.495C474.628 149.135 472.939 151.281 471.701 153.934" fill="#9DCCE4"/>
</g>
<defs>
<clipPath id="clip0_3077_9486">
<path d="M0 4C0 1.79086 1.79086 0 4 0H487C489.209 0 491 1.79086 491 4V180H0V4Z" fill="white"/>
</clipPath>
</defs>
</svg>
