<svg xmlns="http://www.w3.org/2000/svg" xmlns:xlink="http://www.w3.org/1999/xlink" viewBox="0 355.2 1172.7 81.7" xmlns:v="https://vecta.io/nano"><path fill="#aed2e9" d="M612 355.2h-51.3H0v81.6h560.7H612h560.7v-81.6z"/><g fill="#bddaef"><use xlink:href="#B"/><path d="M44 364.6H32.7c-.1 0-.2.1-.2.2v7.7c0 .1.1.2.2.2H44c.1 0 .2-.1.2-.2v-7.7c0-.1 0-.2-.2-.2zm-10.8 7.5v-6.9h10.4l-10.4 6.9zm5.3-13.8a11.3 11.3 0 1 0 0 22.6c6.3 0 11.3-5 11.3-11.3a11.29 11.29 0 0 0-11.3-11.3zm6.9 14.1c0 .8-.6 1.4-1.4 1.4h-2.7c-.6 0-.6.3-.6.5v.9h1.5a.65.65 0 0 1 .6.6.65.65 0 0 1-.6.6h-7.9a.65.65 0 0 1-.6-.6.65.65 0 0 1 .6-.6H36v-.9c0-.2-.1-.5-.6-.5h-2.7c-.8 0-1.4-.6-1.4-1.4v-7.7c0-.8.6-1.4 1.4-1.4H44c.8 0 1.4.6 1.4 1.4v7.7h0zM44 415.5H32.7c-.1 0-.2.1-.2.2v7.7c0 .1.1.2.2.2H44c.1 0 .2-.1.2-.2v-7.7c0-.1 0-.2-.2-.2zM33.2 423v-6.9h10.4L33.2 423zm5.3-13.8a11.29 11.29 0 0 0-11.3 11.3c0 6.3 5 11.3 11.3 11.3s11.3-5 11.3-11.3a11.29 11.29 0 0 0-11.3-11.3zm6.9 14.2c0 .8-.6 1.4-1.4 1.4h-2.7c-.6 0-.6.3-.6.5v.9h1.5a.65.65 0 0 1 .6.6.65.65 0 0 1-.6.6h-7.9a.65.65 0 0 1-.6-.6.65.65 0 0 1 .6-.6H36v-.9c0-.2-.1-.5-.6-.5h-2.7c-.8 0-1.4-.6-1.4-1.4v-7.7c0-.8.6-1.4 1.4-1.4H44c.8 0 1.4.6 1.4 1.4v7.7h0zM13 358.3c-6.3 0-11.4 5.1-11.4 11.4S6.7 381 13 381s11.4-5.1 11.4-11.4-5.1-11.3-11.4-11.3zm6.2 7.4h-2.3c-.2 0-.7-.1-.8 0s0 .9 0 1.1c-.1 1.4-.3 2.8-.4 4.2 0 1-.2 2.8 1 3.3.5.2 1.1.1 1.5-.3.2-.2.4-.5.4-.8 0-.1 0-.4.1-.5s.4 0 .5 0c0 1.4-.7 3.1-2 3.6-1.4.6-3-.1-3.5-1.5-.2-.7-.1-1.5-.1-2.3 0-.7.1-1.5.2-2.2.1-1.5.3-3 .4-4.5h-1.8-.8c-.5 0-.4 0-.4.5l-.3 3.1-.3 3.3c-.1 1.1-.3 2.3-.8 3.2-.5.7-1.5 1.1-2.2.5-.4-.3-.6-.7-.6-1.1 0-.6.3-1 .6-1.4.6-.9 1.2-1.8 1.6-2.8.4-1.1.6-2.2.7-3.4 0-.3.1-.6.1-1 0-.1.1-.7 0-.8s-.7 0-.8 0c-.3 0-.6 0-1 .1-.5.1-.9.4-1.2.8-.2.3-.3.6-.5.8-.2.3-.3.2-.6.2.4-1.1.8-2.9 2-3.4 1.3-.6 2.9-.5 4.3-.5H17h1.2c.1 0 1-.1 1 0 .1.1 0 .9 0 1.1v.7zM13 409.3c-6.3 0-11.4 5.1-11.4 11.4s5.1 11.4 11.4 11.4 11.4-5.1 11.4-11.4-5.1-11.4-11.4-11.4zm6.2 7.3h-2.3c-.2 0-.7-.1-.8 0s0 .9 0 1.1c-.1 1.4-.3 2.8-.4 4.2 0 1-.2 2.8 1 3.3.5.2 1.1.1 1.5-.3.2-.2.4-.5.4-.8 0-.1 0-.4.1-.5s.4 0 .5 0c0 1.4-.7 3.1-2 3.6-1.4.6-3-.1-3.5-1.5-.2-.7-.1-1.5-.1-2.3 0-.7.1-1.5.2-2.2.1-1.5.3-3 .4-4.5h-1.8-.8c-.5 0-.4 0-.4.5l-.3 3.1-.3 3.3c-.1 1.1-.3 2.3-.8 3.2-.5.7-1.5 1.1-2.2.5-.4-.3-.6-.7-.6-1.1 0-.6.3-1 .6-1.4.6-.9 1.2-1.8 1.6-2.8.4-1.1.6-2.2.7-3.4 0-.3.1-.6.1-1 0-.1.1-.7 0-.8s-.7 0-.8 0c-.3 0-.6 0-1 .1-.5.1-.9.4-1.2.8-.2.3-.3.6-.5.8-.2.3-.3.2-.6.2.4-1.1.8-2.9 2-3.4s2.9-.5 4.3-.5H17h1.2c.1 0 1-.1 1 0 .1.1 0 .9 0 1.1v.7zm-.7-26.5H7.2c-.1 0-.2.1-.2.2v7.7c0 .1.1.2.2.2h11.3c.1 0 .2-.1.2-.2v-7.6c.1-.1-.1-.3-.2-.3zm-10.8 7.5v-6.9h10.4l-10.4 6.9zm5.3-13.8a11.29 11.29 0 0 0-11.3 11.3c0 6.3 5 11.3 11.3 11.3s11.3-5 11.3-11.3-5-11.3-11.3-11.3zm7 14.2c0 .8-.6 1.4-1.4 1.4h-2.7c-.6 0-.6.3-.6.5v.9h1.5a.65.65 0 0 1 .6.6.65.65 0 0 1-.6.6H9a.65.65 0 0 1-.6-.6.65.65 0 0 1 .6-.6h1.5v-.9c0-.2-.1-.5-.6-.5H7.2c-.8 0-1.4-.6-1.4-1.4v-7.6c0-.8.6-1.4 1.4-1.4h11.3c.8 0 1.4.6 1.4 1.4l.1 7.6h0zm69.5-14.3c-6.3 0-11.4 5.1-11.4 11.4s5.1 11.4 11.4 11.4 11.4-5.1 11.4-11.4c-.1-6.3-5.1-11.4-11.4-11.4zm6.2 7.4h-2.3c-.2 0-.7-.1-.8 0s0 .9 0 1.1c-.1 1.4-.3 2.8-.4 4.2 0 1-.2 2.8 1 3.3.5.2 1.1.1 1.5-.3.2-.2.4-.5.4-.8 0-.1 0-.4.1-.5s.4 0 .5 0c0 1.4-.7 3.1-2 3.6-1.4.6-3-.1-3.5-1.5-.2-.7-.1-1.5-.1-2.3 0-.7.1-1.5.2-2.2.1-1.5.3-3 .4-4.5h-1.8-.8c-.5 0-.4 0-.4.5l-.3 3.1-.3 3.3c-.1 1.1-.3 2.3-.8 3.2-.5.7-1.5 1.1-2.2.5-.4-.3-.6-.7-.6-1.1 0-.6.3-1 .6-1.4.6-.9 1.2-1.8 1.6-2.8.4-1.1.6-2.2.7-3.4 0-.3.1-.6.1-1 0-.1.1-.7 0-.8s-.7 0-.8 0c-.3 0-.6 0-1 .1-.5.1-.9.4-1.2.8-.2.3-.3.6-.5.8-.2.3-.3.2-.6.2.4-1.1.8-2.9 2-3.4 1.3-.6 2.9-.5 4.3-.5h4.8 1.2c.1 0 1-.1 1 0 .1.1 0 .9 0 1.1v.7z"/><path d="M95 364.6H83.7c-.1 0-.2.1-.2.2v7.7c0 .1.1.2.2.2H95c.1 0 .2-.1.2-.2v-7.7c0-.1-.1-.2-.2-.2zm-10.8 7.5v-6.9h10.4l-10.4 6.9zm5.3-13.8a11.3 11.3 0 1 0 0 22.6c6.3 0 11.3-5 11.3-11.3a11.29 11.29 0 0 0-11.3-11.3zm6.9 14.1c0 .8-.6 1.4-1.4 1.4h-2.7c-.6 0-.6.3-.6.5v.9h1.5a.65.65 0 0 1 .6.6.65.65 0 0 1-.6.6h-7.9a.65.65 0 0 1-.6-.6.65.65 0 0 1 .6-.6h1.5v-.9c0-.2-.1-.5-.6-.5h-2.6c-.8 0-1.4-.6-1.4-1.4v-7.7c0-.8.6-1.4 1.4-1.4H95c.8 0 1.4.6 1.4 1.4v7.7h0zM95 415.5H83.7c-.1 0-.2.1-.2.2v7.7c0 .1.1.2.2.2H95c.1 0 .2-.1.2-.2v-7.7c0-.1-.1-.2-.2-.2zM84.2 423v-6.9h10.4L84.2 423zm5.3-13.8a11.29 11.29 0 0 0-11.3 11.3c0 6.3 5 11.3 11.3 11.3s11.3-5 11.3-11.3a11.29 11.29 0 0 0-11.3-11.3zm6.9 14.2c0 .8-.6 1.4-1.4 1.4h-2.7c-.6 0-.6.3-.6.5v.9h1.5a.65.65 0 0 1 .6.6.65.65 0 0 1-.6.6h-7.9a.65.65 0 0 1-.6-.6.65.65 0 0 1 .6-.6h1.5v-.9c0-.2-.1-.5-.6-.5h-2.6c-.8 0-1.4-.6-1.4-1.4v-7.7c0-.8.6-1.4 1.4-1.4H95c.8 0 1.4.6 1.4 1.4v7.7h0zM64 358.3c-6.3 0-11.4 5.1-11.4 11.4S57.7 381 64 381s11.4-5.1 11.4-11.4-5.1-11.3-11.4-11.3zm6.2 7.4h-2.3c-.2 0-.7-.1-.8 0s0 .9 0 1.1c-.1 1.4-.3 2.8-.4 4.2 0 1-.2 2.8 1 3.3.5.2 1.1.1 1.5-.3.2-.2.4-.5.4-.8 0-.1 0-.4.1-.5s.4 0 .5 0c0 1.4-.7 3.1-2 3.6-1.4.6-3-.1-3.5-1.5-.2-.7-.1-1.5-.1-2.3s.1-1.5.2-2.2c.1-1.5.3-3 .4-4.5h-1.8-.8c-.5 0-.4 0-.4.5l-.3 3.1-.3 3.3c-.1 1.1-.3 2.3-.8 3.2-.5.7-1.5 1.1-2.2.5-.4-.3-.6-.7-.6-1.1 0-.6.3-1 .6-1.4.6-.9 1.2-1.8 1.6-2.8.4-1.1.6-2.2.7-3.4 0-.3.1-.6.1-1 0-.1.1-.7 0-.8s-.7 0-.8 0c-.3 0-.6 0-1 .1-.5.1-.9.4-1.2.8-.2.3-.3.6-.5.8-.2.3-.3.2-.6.2.4-1.1.8-2.9 2-3.4 1.3-.6 2.9-.5 4.3-.5H68h1.2c.1 0 1-.1 1 0 .1.1 0 .9 0 1.1v.7zM64 409.3c-6.3 0-11.4 5.1-11.4 11.4s5.1 11.4 11.4 11.4 11.4-5.1 11.4-11.4-5.1-11.4-11.4-11.4zm6.2 7.3h-2.3c-.2 0-.7-.1-.8 0s0 .9 0 1.1c-.1 1.4-.3 2.8-.4 4.2 0 1-.2 2.8 1 3.3.5.2 1.1.1 1.5-.3.2-.2.4-.5.4-.8 0-.1 0-.4.1-.5s.4 0 .5 0c0 1.4-.7 3.1-2 3.6-1.4.6-3-.1-3.5-1.5-.2-.7-.1-1.5-.1-2.3s.1-1.5.2-2.2c.1-1.5.3-3 .4-4.5h-1.8-.8c-.5 0-.4 0-.4.5l-.3 3.1-.3 3.3c-.1 1.1-.3 2.3-.8 3.2-.5.7-1.5 1.1-2.2.5-.4-.3-.6-.7-.6-1.1 0-.6.3-1 .6-1.4.6-.9 1.2-1.8 1.6-2.8.4-1.1.6-2.2.7-3.4 0-.3.1-.6.1-1 0-.1.1-.7 0-.8s-.7 0-.8 0c-.3 0-.6 0-1 .1-.5.1-.9.4-1.2.8-.2.3-.3.6-.5.8-.2.3-.3.2-.6.2.4-1.1.8-2.9 2-3.4s2.9-.5 4.3-.5H68h1.2c.1 0 1-.1 1 0 .1.1 0 .9 0 1.1v.7z"/><path d="M69.5 390.1H58.2c-.1 0-.2.1-.2.2v7.7c0 .1.1.2.2.2h11.3c.1 0 .2-.1.2-.2v-7.6c0-.1-.1-.3-.2-.3zm-10.8 7.5v-6.9H69l-10.3 6.9zm5.3-13.8a11.29 11.29 0 0 0-11.3 11.3c0 6.3 5 11.3 11.3 11.3s11.3-5 11.3-11.3A11.29 11.29 0 0 0 64 383.8zm6.9 14.2c0 .8-.6 1.4-1.4 1.4h-2.7c-.6 0-.6.3-.6.5v.9h1.5a.65.65 0 0 1 .6.6.65.65 0 0 1-.6.6h-7.9a.65.65 0 0 1-.6-.6.65.65 0 0 1 .6-.6h1.5v-.9c0-.2-.1-.5-.6-.5H58c-.8 0-1.4-.6-1.4-1.4v-7.6c0-.8.6-1.4 1.4-1.4h11.3c.8 0 1.4.6 1.4 1.4v7.6h.2z"/><use xlink:href="#C"/><use xlink:href="#D"/><use xlink:href="#E"/><use xlink:href="#D" y="50.9"/><use xlink:href="#F"/><path d="M115 358.3c-6.3 0-11.4 5.1-11.4 11.4S108.7 381 115 381s11.4-5.1 11.4-11.4c-.1-6.3-5.1-11.3-11.4-11.3zm6.2 7.4h-2.3c-.2 0-.7-.1-.8 0s0 .9 0 1.1c-.1 1.4-.3 2.8-.4 4.2 0 1-.2 2.8 1 3.3.5.2 1.1.1 1.5-.3.2-.2.4-.5.4-.8 0-.1 0-.4.1-.5s.4 0 .5 0c0 1.4-.7 3.1-2 3.6-1.4.6-3-.1-3.5-1.5-.2-.7-.1-1.5-.1-2.3s.1-1.5.2-2.2c.1-1.5.3-3 .4-4.5h-1.8-.8c-.5 0-.4 0-.4.5l-.3 3.1-.3 3.3c-.1 1.1-.3 2.3-.8 3.2-.5.7-1.5 1.1-2.2.5-.4-.3-.6-.7-.6-1.1 0-.6.3-1 .6-1.4.6-.9 1.2-1.8 1.6-2.8.4-1.1.6-2.2.7-3.4 0-.3.1-.6.1-1 0-.1.1-.7 0-.8s-.7 0-.8 0c-.3 0-.6 0-1 .1-.5.1-.9.4-1.2.8-.2.3-.3.6-.5.8-.2.3-.3.2-.6.2.4-1.1.8-2.9 2-3.4 1.3-.6 2.9-.5 4.3-.5h4.8 1.2c.1 0 1-.1 1 0 .1.1 0 .9 0 1.1 0 0 0 .3 0 .7z"/><use xlink:href="#G"/><path d="M120.5 390.1h-11.3c-.1 0-.2.1-.2.2v7.7c0 .1.1.2.2.2h11.3c.1 0 .2-.1.2-.2v-7.6c0-.1-.1-.3-.2-.3zm-10.9 7.5v-6.9H120l-10.4 6.9zm5.4-13.8a11.29 11.29 0 0 0-11.3 11.3c0 6.3 5 11.3 11.3 11.3a11.3 11.3 0 1 0 0-22.6zm6.9 14.2c0 .8-.6 1.4-1.4 1.4h-2.7c-.6 0-.6.3-.6.5v.9h1.5a.65.65 0 0 1 .6.6.65.65 0 0 1-.6.6h-7.9a.65.65 0 0 1-.6-.6.65.65 0 0 1 .6-.6h1.5v-.9c0-.2-.1-.5-.6-.5H109c-.8 0-1.4-.6-1.4-1.4v-7.6c0-.8.6-1.4 1.4-1.4h11.3c.8 0 1.4.6 1.4 1.4v7.6h.2z"/><use xlink:href="#B" x="152.9"/><use xlink:href="#H"/><use xlink:href="#I"/><use xlink:href="#H" y="50.9"/><use xlink:href="#J"/><path d="M166 358.3c-6.3 0-11.4 5.1-11.4 11.4S159.7 381 166 381a11.29 11.29 0 0 0 11.3-11.3c0-6.2-5.1-11.4-11.3-11.4zm6.2 7.4h-2.3c-.2 0-.7-.1-.8 0s0 .9 0 1.1c-.1 1.4-.3 2.8-.4 4.2 0 1-.2 2.8 1 3.3.5.2 1.1.1 1.5-.3.2-.2.4-.5.4-.8 0-.1 0-.4.1-.5s.4 0 .5 0c0 1.4-.7 3.1-2 3.6-1.4.6-3-.1-3.5-1.5-.2-.7-.1-1.5-.1-2.3 0-.7.1-1.5.2-2.2.1-1.5.3-3 .4-4.5h-1.8-.8c-.5 0-.4 0-.4.5l-.3 3.1-.3 3.3c-.1 1.1-.3 2.3-.8 3.2-.5.7-1.5 1.1-2.2.5-.4-.3-.6-.7-.6-1.1 0-.6.3-1 .6-1.4.6-.9 1.2-1.8 1.6-2.8.4-1.1.6-2.2.7-3.4 0-.3.1-.6.1-1 0-.1.1-.7 0-.8s-.7 0-.8 0c-.3 0-.6 0-1 .1-.5.1-.9.4-1.2.8-.2.3-.3.6-.5.8-.2.3-.3.2-.6.2.4-1.1.8-2.9 2-3.4 1.3-.6 2.9-.5 4.3-.5h4.8 1.2c.1 0 1-.1 1 0 .1.1 0 .9 0 1.1 0 0 0 .3 0 .7z"/><use xlink:href="#K"/><path d="M171.5 390.1h-11.3c-.1 0-.2.1-.2.2v7.7c0 .1.1.2.2.2h11.3c.1 0 .2-.1.2-.2v-7.6c-.1-.1-.1-.3-.2-.3zm-10.9 7.5v-6.9H171l-10.4 6.9zm5.4-13.8a11.29 11.29 0 0 0-11.3 11.3c0 6.3 5 11.3 11.3 11.3a11.3 11.3 0 1 0 0-22.6zm6.9 14.2c0 .8-.6 1.4-1.4 1.4h-2.7c-.6 0-.6.3-.6.5v.9h1.5a.65.65 0 0 1 .6.6.65.65 0 0 1-.6.6h-7.9a.65.65 0 0 1-.6-.6.65.65 0 0 1 .6-.6h1.5v-.9c0-.2-.1-.5-.6-.5H160c-.8 0-1.4-.6-1.4-1.4v-7.6c0-.8.6-1.4 1.4-1.4h11.3c.8 0 1.4.6 1.4 1.4v7.6h.2z"/><use xlink:href="#B" x="203.9"/><use xlink:href="#L"/><use xlink:href="#M"/><use xlink:href="#L" y="50.9"/><use xlink:href="#N"/><use xlink:href="#O"/><use xlink:href="#P"/><path d="M222.4 390.1h-11.3c-.1 0-.2.1-.2.2v7.7c0 .1.1.2.2.2h11.3c.1 0 .2-.1.2-.2v-7.6c0-.1-.1-.3-.2-.3zm-10.8 7.5v-6.9H222l-10.4 6.9zm5.3-13.8a11.29 11.29 0 0 0-11.3 11.3c0 6.3 5 11.3 11.3 11.3a11.29 11.29 0 0 0 11.3-11.3c0-6.3-5-11.3-11.3-11.3zm6.9 14.2c0 .8-.6 1.4-1.4 1.4h-2.7c-.6 0-.6.3-.6.5v.9h1.5a.65.65 0 0 1 .6.6.65.65 0 0 1-.6.6h-7.9a.65.65 0 0 1-.6-.6.65.65 0 0 1 .6-.6h1.5v-.9c0-.2-.1-.5-.6-.5H211c-.8 0-1.4-.6-1.4-1.4v-7.6c0-.8.6-1.4 1.4-1.4h11.3c.8 0 1.4.6 1.4 1.4v7.6h.1z"/><use xlink:href="#C" x="152.9"/><use xlink:href="#Q"/><path d="M293.4 358.3a11.3 11.3 0 1 0 0 22.6 11.3 11.3 0 1 0 0-22.6zm6.9 14.1c0 .8-.6 1.4-1.4 1.4h-2.7c-.6 0-.6.3-.6.5v.9h1.5a.65.65 0 0 1 .6.6.65.65 0 0 1-.6.6h-7.9a.65.65 0 0 1-.6-.6.65.65 0 0 1 .6-.6h1.5v-.9c0-.2-.1-.5-.6-.5h-2.7c-.8 0-1.4-.6-1.4-1.4v-7.7c0-.8.6-1.4 1.4-1.4h11.3c.8 0 1.4.6 1.4 1.4v7.7h.2zm-1.4 43.1h-11.3c-.1 0-.2.1-.2.2v7.7c0 .1.1.2.2.2h11.3c.1 0 .2-.1.2-.2v-7.7c0-.1-.1-.2-.2-.2zM288 423v-6.9h10.4L288 423z"/><use xlink:href="#R"/><use xlink:href="#S"/><use xlink:href="#K" x="101.9"/><path d="M273.4 390.1H262c-.1 0-.2.1-.2.2v7.7c0 .1.1.2.2.2h11.3c.1 0 .2-.1.2-.2v-7.6c.1-.1 0-.3-.1-.3zm-10.8 7.5v-6.9H273l-10.4 6.9zm5.3-13.8a11.3 11.3 0 1 0 0 22.6 11.3 11.3 0 1 0 0-22.6zm6.9 14.2c0 .8-.6 1.4-1.4 1.4h-2.7c-.6 0-.6.3-.6.5v.9h1.5a.65.65 0 0 1 .6.6.65.65 0 0 1-.6.6h-7.9a.65.65 0 0 1-.6-.6.65.65 0 0 1 .6-.6h1.5v-.9c0-.2-.1-.5-.6-.5H262c-.8 0-1.4-.6-1.4-1.4v-7.6c0-.8.6-1.4 1.4-1.4h11.3c.8 0 1.4.6 1.4 1.4l.1 7.6h0z"/><use xlink:href="#B" x="305.8"/><path d="M349.8 364.6h-11.3c-.1 0-.2.1-.2.2v7.7c0 .1.1.2.2.2h11.3c.1 0 .2-.1.2-.2v-7.7c.1-.1 0-.2-.2-.2zm-10.8 7.5v-6.9h10.4l-10.4 6.9z"/><use xlink:href="#T"/><path d="M349.8 415.5h-11.3c-.1 0-.2.1-.2.2v7.7c0 .1.1.2.2.2h11.3c.1 0 .2-.1.2-.2v-7.7c.1-.1 0-.2-.2-.2zM339 423v-6.9h10.4L339 423z"/><use xlink:href="#U"/><use xlink:href="#V"/><use xlink:href="#W"/><use xlink:href="#X"/><path d="M318.8 383.8a11.29 11.29 0 0 0-11.3 11.3c0 6.3 5 11.3 11.3 11.3a11.29 11.29 0 0 0 11.3-11.3c0-6.3-5-11.3-11.3-11.3zm7 14.2c0 .8-.6 1.4-1.4 1.4h-2.7c-.6 0-.6.3-.6.5v.9h1.5a.65.65 0 0 1 .6.6.65.65 0 0 1-.6.6h-7.9a.65.65 0 0 1-.6-.6.65.65 0 0 1 .6-.6h1.5v-.9c0-.2-.1-.5-.6-.5H313c-.8 0-1.4-.6-1.4-1.4v-7.6c0-.8.6-1.4 1.4-1.4h11.3c.8 0 1.4.6 1.4 1.4l.1 7.6h0z"/><use xlink:href="#B" x="356.8"/><use xlink:href="#L" x="152.9"/><use xlink:href="#T" x="51"/><path d="M400.8 415.5h-11.3c-.1 0-.2.1-.2.2v7.7c0 .1.1.2.2.2h11.3c.1 0 .2-.1.2-.2v-7.7c0-.1-.1-.2-.2-.2zM390 423v-6.9h10.4L390 423z"/><use xlink:href="#U" x="51"/><use xlink:href="#O" x="152.9"/><use xlink:href="#P" x="152.9"/><path d="M375.3 390.1H364c-.1 0-.2.1-.2.2v7.7c0 .1.1.2.2.2h11.3c.1 0 .2-.1.2-.2v-7.6c0-.1 0-.3-.2-.3zm-10.8 7.5v-6.9h10.4l-10.4 6.9z"/><use xlink:href="#Y"/><use xlink:href="#C" x="305.8"/><use xlink:href="#Q" x="152.9"/><use xlink:href="#M" x="203.9"/><use xlink:href="#Q" x="152.9" y="50.9"/><use xlink:href="#N" x="203.9"/><path d="M420.8 358.3c-6.3 0-11.4 5.1-11.4 11.4s5.1 11.4 11.4 11.4 11.4-5.1 11.4-11.4c-.1-6.3-5.1-11.4-11.4-11.4zm6.2 7.4h-2.3c-.2 0-.7-.1-.8 0s0 .9 0 1.1c-.1 1.4-.3 2.8-.4 4.2 0 1-.2 2.8 1 3.3.5.2 1.1.1 1.5-.3.2-.2.4-.5.4-.8 0-.1 0-.4.1-.5s.4 0 .5 0c0 1.4-.7 3.1-2 3.6-1.4.6-3-.1-3.5-1.5-.2-.7-.1-1.5-.1-2.3 0-.7.1-1.5.2-2.2.1-1.5.3-3 .4-4.5h-1.8-.8c-.5 0-.4 0-.4.5l-.3 3.1-.3 3.3c-.1 1.1-.3 2.3-.8 3.2-.5.7-1.5 1.1-2.2.5-.4-.3-.6-.7-.6-1.1 0-.6.3-1 .6-1.4.6-.9 1.2-1.8 1.6-2.8.4-1.1.6-2.2.7-3.4 0-.3.1-.6.1-1 0-.1.1-.7 0-.8s-.7 0-.8 0c-.3 0-.6 0-1 .1-.5.1-.9.4-1.2.8-.2.3-.3.6-.5.8-.2.3-.3.2-.6.2.4-1.1.8-2.9 2-3.4 1.3-.6 2.9-.5 4.3-.5h4.8 1.2c.1 0 1-.1 1 0 .1.1 0 .9 0 1.1v.7zm-6.2 43.6c-6.3 0-11.4 5.1-11.4 11.4s5.1 11.4 11.4 11.4 11.4-5.1 11.4-11.4c-.1-6.3-5.1-11.4-11.4-11.4zm6.2 7.3h-2.3c-.2 0-.7-.1-.8 0s0 .9 0 1.1c-.1 1.4-.3 2.8-.4 4.2 0 1-.2 2.8 1 3.3.5.2 1.1.1 1.5-.3.2-.2.4-.5.4-.8 0-.1 0-.4.1-.5s.4 0 .5 0c0 1.4-.7 3.1-2 3.6-1.4.6-3-.1-3.5-1.5-.2-.7-.1-1.5-.1-2.3 0-.7.1-1.5.2-2.2.1-1.5.3-3 .4-4.5h-1.8-.8c-.5 0-.4 0-.4.5l-.3 3.1-.3 3.3c-.1 1.1-.3 2.3-.8 3.2-.5.7-1.5 1.1-2.2.5-.4-.3-.6-.7-.6-1.1 0-.6.3-1 .6-1.4.6-.9 1.2-1.8 1.6-2.8.4-1.1.6-2.2.7-3.4 0-.3.1-.6.1-1 0-.1.1-.7 0-.8s-.7 0-.8 0c-.3 0-.6 0-1 .1-.5.1-.9.4-1.2.8-.2.3-.3.6-.5.8-.2.3-.3.2-.6.2.4-1.1.8-2.9 2-3.4 1.3-.6 2.9-.5 4.3-.5h4.8 1.2c.1 0 1-.1 1 0 .1.1 0 .9 0 1.1v.7zm-.7-26.5H415c-.1 0-.2.1-.2.2v7.7c0 .1.1.2.2.2h11.3c.1 0 .2-.1.2-.2v-7.6c0-.1-.1-.3-.2-.3zm-10.8 7.5v-6.9h10.4l-10.4 6.9z"/><use xlink:href="#Y" x="51"/><use xlink:href="#Z"/><use xlink:href="#a"/><use xlink:href="#E" x="356.8"/><use xlink:href="#a" y="50.9"/><use xlink:href="#F" x="356.8"/><use xlink:href="#S" x="203.9"/><use xlink:href="#K" x="305.8"/><path d="M477.3 390.1H466c-.1 0-.2.1-.2.2v7.7c0 .1.1.2.2.2h11.3c.1 0 .2-.1.2-.2v-7.6c0-.1-.1-.3-.2-.3zm-10.9 7.5v-6.9h10.4l-10.4 6.9z"/><use xlink:href="#b"/><use xlink:href="#B" x="509.7"/><use xlink:href="#L" x="305.8"/><path d="M548.2 358.3a11.29 11.29 0 1 0 0 22.6 11.29 11.29 0 1 0 0-22.6zm6.9 14.1c0 .8-.6 1.4-1.4 1.4H551c-.6 0-.6.3-.6.5v.9h1.5a.65.65 0 0 1 .6.6.65.65 0 0 1-.6.6H544a.65.65 0 0 1-.6-.6.65.65 0 0 1 .6-.6h1.5v-.9c0-.2-.1-.5-.6-.5h-2.7c-.8 0-1.4-.6-1.4-1.4v-7.7c0-.8.6-1.4 1.4-1.4h11.3c.8 0 1.4.6 1.4 1.4v7.7h.2z"/><use xlink:href="#L" x="305.8" y="50.9"/><path d="M548.2 409.2a11.29 11.29 0 0 0-11.3 11.3c0 6.3 5 11.3 11.3 11.3a11.29 11.29 0 1 0 0-22.6zm6.9 14.2c0 .8-.6 1.4-1.4 1.4H551c-.6 0-.6.3-.6.5v.9h1.5a.65.65 0 0 1 .6.6.65.65 0 0 1-.6.6H544a.65.65 0 0 1-.6-.6.65.65 0 0 1 .6-.6h1.5v-.9c0-.2-.1-.5-.6-.5h-2.7c-.8 0-1.4-.6-1.4-1.4v-7.7c0-.8.6-1.4 1.4-1.4h11.3c.8 0 1.4.6 1.4 1.4v7.7h.2z"/><use xlink:href="#c"/><use xlink:href="#d"/><use xlink:href="#e"/><path d="M522.7 383.8a11.29 11.29 0 0 0-11.3 11.3c0 6.3 5 11.3 11.3 11.3s11.3-5 11.3-11.3-5-11.3-11.3-11.3zm7 14.2c0 .8-.6 1.4-1.4 1.4h-2.7c-.6 0-.6.3-.6.5v.9h1.5a.65.65 0 0 1 .6.6.65.65 0 0 1-.6.6h-7.9a.65.65 0 0 1-.6-.6.65.65 0 0 1 .6-.6h1.5v-.9c0-.2-.1-.5-.6-.5h-2.7c-.8 0-1.4-.6-1.4-1.4v-7.6c0-.8.6-1.4 1.4-1.4h11.3c.8 0 1.4.6 1.4 1.4v7.6h.2z"/><use xlink:href="#C" x="458.7"/><use xlink:href="#L" x="356.8"/><path d="M599.2 358.3a11.29 11.29 0 1 0 0 22.6 11.29 11.29 0 1 0 0-22.6zm6.9 14.1c0 .8-.6 1.4-1.4 1.4H602c-.6 0-.6.3-.6.5v.9h1.5a.65.65 0 0 1 .6.6.65.65 0 0 1-.6.6H595a.65.65 0 0 1-.6-.6.65.65 0 0 1 .6-.6h1.5v-.9c0-.2-.1-.5-.6-.5h-2.7c-.8 0-1.4-.6-1.4-1.4v-7.7c0-.8.6-1.4 1.4-1.4h11.3c.8 0 1.4.6 1.4 1.4v7.7h.2z"/><use xlink:href="#L" x="356.8" y="50.9"/><path d="M599.2 409.2a11.29 11.29 0 0 0-11.3 11.3c0 6.3 5 11.3 11.3 11.3a11.3 11.3 0 1 0 0-22.6zm6.9 14.2c0 .8-.6 1.4-1.4 1.4H602c-.6 0-.6.3-.6.5v.9h1.5a.65.65 0 0 1 .6.6.65.65 0 0 1-.6.6H595a.65.65 0 0 1-.6-.6.65.65 0 0 1 .6-.6h1.5v-.9c0-.2-.1-.5-.6-.5h-2.7c-.8 0-1.4-.6-1.4-1.4v-7.7c0-.8.6-1.4 1.4-1.4h11.3c.8 0 1.4.6 1.4 1.4v7.7h.2zm-32.4-65.1c-6.3 0-11.4 5.1-11.4 11.4s5.1 11.4 11.4 11.4 11.4-5.1 11.4-11.4-5.1-11.4-11.4-11.4zm6.2 7.4h-2.3c-.2 0-.7-.1-.8 0s0 .9 0 1.1c-.1 1.4-.3 2.8-.4 4.2 0 1-.2 2.8 1 3.3.5.2 1.1.1 1.5-.3.2-.2.4-.5.4-.8 0-.1 0-.4.1-.5s.4 0 .5 0c0 1.4-.7 3.1-2 3.6-1.4.6-3-.1-3.5-1.5-.2-.7-.1-1.5-.1-2.3s.1-1.5.2-2.2c.1-1.5.3-3 .4-4.5h-1.8-.8c-.5 0-.4 0-.4.5l-.3 3.1-.3 3.3c-.1 1.1-.3 2.3-.8 3.2-.5.7-1.5 1.1-2.2.5-.4-.3-.6-.7-.6-1.1 0-.6.3-1 .6-1.4.6-.9 1.2-1.8 1.6-2.8.4-1.1.6-2.2.7-3.4 0-.3.1-.6.1-1 0-.1.1-.7 0-.8s-.7 0-.8 0c-.3 0-.6 0-1 .1-.5.1-.9.4-1.2.8-.2.3-.3.6-.5.8-.2.3-.3.2-.6.2.4-1.1.8-2.9 2-3.4 1.3-.6 2.9-.5 4.3-.5h4.8 1.2c.1 0 1-.1 1 0 .1.1 0 .9 0 1.1v.7z"/><use xlink:href="#f"/><use xlink:href="#e" x="51"/><path d="M573.7 383.8a11.29 11.29 0 0 0-11.3 11.3c0 6.3 5 11.3 11.3 11.3a11.3 11.3 0 1 0 0-22.6zm6.9 14.2c0 .8-.6 1.4-1.4 1.4h-2.7c-.6 0-.6.3-.6.5v.9h1.5a.65.65 0 0 1 .6.6.65.65 0 0 1-.6.6h-7.9a.65.65 0 0 1-.6-.6.65.65 0 0 1 .6-.6h1.5v-.9c0-.2-.1-.5-.6-.5h-2.7c-.8 0-1.4-.6-1.4-1.4v-7.6c0-.8.6-1.4 1.4-1.4H579c.8 0 1.4.6 1.4 1.4v7.6h.2zm69.5-14.3c-6.3 0-11.4 5.1-11.4 11.4s5.1 11.4 11.4 11.4 11.4-5.1 11.4-11.4-5.1-11.4-11.4-11.4zm6.2 7.4H654c-.2 0-.7-.1-.8 0s0 .9 0 1.1c-.1 1.4-.3 2.8-.4 4.2 0 1-.2 2.8 1 3.3.5.2 1.1.1 1.5-.3.2-.2.4-.5.4-.8 0-.1 0-.4.1-.5s.4 0 .5 0c0 1.4-.7 3.1-2 3.6-1.4.6-3-.1-3.5-1.5-.2-.7-.1-1.5-.1-2.3 0-.7.1-1.5.2-2.2.1-1.5.3-3 .4-4.5h-1.8-.8c-.5 0-.4 0-.4.5l-.3 3.1-.3 3.3c-.1 1.1-.3 2.3-.8 3.2-.5.7-1.5 1.1-2.2.5-.4-.3-.6-.7-.6-1.1 0-.6.3-1 .6-1.4.6-.9 1.2-1.8 1.6-2.8.4-1.1.6-2.2.7-3.4 0-.3.1-.6.1-1 0-.1.1-.7 0-.8s-.7 0-.8 0c-.3 0-.6 0-1 .1-.5.1-.9.4-1.2.8-.2.3-.3.6-.5.8-.2.3-.3.2-.6.2.4-1.1.8-2.9 2-3.4 1.3-.6 2.9-.5 4.3-.5h4.8 1.2c.1 0 1-.1 1 0 .1.1 0 .9 0 1.1v.7z"/><use xlink:href="#g"/><path d="M650.1 358.3a11.29 11.29 0 1 0 0 22.6 11.29 11.29 0 0 0 11.3-11.3c0-6.3-5-11.3-11.3-11.3zm7 14.1c0 .8-.6 1.4-1.4 1.4H653c-.6 0-.6.3-.6.5v.9h1.5a.65.65 0 0 1 .6.6.65.65 0 0 1-.6.6H646a.65.65 0 0 1-.6-.6.65.65 0 0 1 .6-.6h1.5v-.9c0-.2-.1-.5-.6-.5h-2.6c-.8 0-1.4-.6-1.4-1.4v-7.7c0-.8.6-1.4 1.4-1.4h11.3c.8 0 1.4.6 1.4 1.4l.1 7.7h0z"/><use xlink:href="#g" y="50.9"/><path d="M650.1 409.2a11.29 11.29 0 0 0-11.3 11.3c0 6.3 5 11.3 11.3 11.3a11.29 11.29 0 0 0 11.3-11.3c0-6.3-5-11.3-11.3-11.3zm7 14.2c0 .8-.6 1.4-1.4 1.4H653c-.6 0-.6.3-.6.5v.9h1.5a.65.65 0 0 1 .6.6.65.65 0 0 1-.6.6H646a.65.65 0 0 1-.6-.6.65.65 0 0 1 .6-.6h1.5v-.9c0-.2-.1-.5-.6-.5h-2.6c-.8 0-1.4-.6-1.4-1.4v-7.7c0-.8.6-1.4 1.4-1.4h11.3c.8 0 1.4.6 1.4 1.4l.1 7.7h0z"/><use xlink:href="#h"/><path d="M624.7 409.3c-6.3 0-11.4 5.1-11.4 11.4s5.1 11.4 11.4 11.4 11.4-5.1 11.4-11.4c-.1-6.3-5.2-11.4-11.4-11.4zm6.2 7.3h-2.3c-.2 0-.7-.1-.8 0s0 .9 0 1.1c-.1 1.4-.3 2.8-.4 4.2 0 1-.2 2.8 1 3.3.5.2 1.1.1 1.5-.3.2-.2.4-.5.4-.8 0-.1 0-.4.1-.5s.4 0 .5 0c0 1.4-.7 3.1-2 3.6-1.4.6-3-.1-3.5-1.5-.2-.7-.1-1.5-.1-2.3s.1-1.5.2-2.2c.1-1.5.3-3 .4-4.5h-1.8-.8c-.5 0-.4 0-.4.5l-.3 3.1-.3 3.3c-.1 1.1-.3 2.3-.8 3.2-.5.7-1.5 1.1-2.2.5-.4-.3-.6-.7-.6-1.1 0-.6.3-1 .6-1.4.6-.9 1.2-1.8 1.6-2.8.4-1.1.6-2.2.7-3.4 0-.3.1-.6.1-1 0-.1.1-.7 0-.8s-.7 0-.8 0c-.3 0-.6 0-1 .1-.5.1-.9.4-1.2.8-.2.3-.3.6-.5.8-.2.3-.3.2-.6.2.4-1.1.8-2.9 2-3.4s2.9-.5 4.3-.5h4.8 1.2c.1 0 1-.1 1 0 .1.1 0 .9 0 1.1v.7z"/><use xlink:href="#X" x="305.8"/><path d="M624.7 383.8a11.29 11.29 0 0 0-11.3 11.3c0 6.3 5 11.3 11.3 11.3a11.3 11.3 0 1 0 0-22.6zm6.9 14.2c0 .8-.6 1.4-1.4 1.4h-2.7c-.6 0-.6.3-.6.5v.9h1.5a.65.65 0 0 1 .6.6.65.65 0 0 1-.6.6h-7.9a.65.65 0 0 1-.6-.6.65.65 0 0 1 .6-.6h1.5v-.9c0-.2-.1-.5-.6-.5h-2.7c-.8 0-1.4-.6-1.4-1.4v-7.6c0-.8.6-1.4 1.4-1.4H630c.8 0 1.4.6 1.4 1.4v7.6h.2zm69.5-14.3c-6.3 0-11.4 5.1-11.4 11.4s5.1 11.4 11.4 11.4 11.4-5.1 11.4-11.4-5.1-11.4-11.4-11.4zm6.2 7.4H705c-.2 0-.7-.1-.8 0s0 .9 0 1.1c-.1 1.4-.3 2.8-.4 4.2 0 1-.2 2.8 1 3.3.5.2 1.1.1 1.5-.3.2-.2.4-.5.4-.8 0-.1 0-.4.1-.5s.4 0 .5 0c0 1.4-.7 3.1-2 3.6-1.4.6-3-.1-3.5-1.5-.2-.7-.1-1.5-.1-2.3 0-.7.1-1.5.2-2.2.1-1.5.3-3 .4-4.5h-1.8-.8c-.5 0-.4 0-.4.5l-.3 3.1-.3 3.3c-.1 1.1-.3 2.3-.8 3.2-.5.7-1.5 1.1-2.2.5-.4-.3-.6-.7-.6-1.1 0-.6.3-1 .6-1.4.6-.9 1.2-1.8 1.6-2.8.4-1.1.6-2.2.7-3.4 0-.3.1-.6.1-1 0-.1.1-.7 0-.8s-.7 0-.8 0c-.3 0-.6 0-1 .1-.5.1-.9.4-1.2.8-.2.3-.3.6-.5.8-.2.3-.3.2-.6.2.4-1.1.8-2.9 2-3.4 1.3-.6 2.9-.5 4.3-.5h4.8 1.2c.1 0 1-.1 1 0 .1.1 0 .9 0 1.1v.7z"/><use xlink:href="#H" x="509.7"/><path d="M701.1 358.3a11.29 11.29 0 1 0 0 22.6 11.29 11.29 0 1 0 0-22.6zm6.9 14.1c0 .8-.6 1.4-1.4 1.4H704c-.6 0-.6.3-.6.5v.9h1.5a.65.65 0 0 1 .6.6.65.65 0 0 1-.6.6H697a.65.65 0 0 1-.6-.6.65.65 0 0 1 .6-.6h1.5v-.9c0-.2-.1-.5-.6-.5h-2.7c-.8 0-1.4-.6-1.4-1.4v-7.7c0-.8.6-1.4 1.4-1.4h11.3c.8 0 1.4.6 1.4 1.4l.1 7.7h0z"/><use xlink:href="#H" x="509.7" y="50.9"/><path d="M701.1 409.2a11.29 11.29 0 0 0-11.3 11.3c0 6.3 5 11.3 11.3 11.3a11.3 11.3 0 1 0 0-22.6zm6.9 14.2c0 .8-.6 1.4-1.4 1.4H704c-.6 0-.6.3-.6.5v.9h1.5a.65.65 0 0 1 .6.6.65.65 0 0 1-.6.6H697a.65.65 0 0 1-.6-.6.65.65 0 0 1 .6-.6h1.5v-.9c0-.2-.1-.5-.6-.5h-2.7c-.8 0-1.4-.6-1.4-1.4v-7.7c0-.8.6-1.4 1.4-1.4h11.3c.8 0 1.4.6 1.4 1.4l.1 7.7h0zm-32.3-65.1c-6.3 0-11.4 5.1-11.4 11.4s5.1 11.3 11.4 11.3 11.4-5.1 11.4-11.4c-.1-6.3-5.2-11.3-11.4-11.3zm6.1 7.4h-2.3c-.2 0-.7-.1-.8 0s0 .9 0 1.1c-.1 1.4-.3 2.8-.4 4.2 0 1-.2 2.8 1 3.3.5.2 1.1.1 1.5-.3.2-.2.4-.5.4-.8 0-.1 0-.4.1-.5s.4 0 .5 0c0 1.4-.7 3.1-2 3.6-1.4.6-3-.1-3.5-1.5-.2-.7-.1-1.5-.1-2.3 0-.7.1-1.5.2-2.2.1-1.5.3-3 .4-4.5H675h-.8c-.5 0-.4 0-.4.5l-.3 3.1-.3 3.3c-.1 1.1-.3 2.3-.8 3.2-.5.7-1.5 1.1-2.2.5-.4-.3-.6-.7-.6-1.1 0-.6.3-1 .6-1.4.6-.9 1.2-1.8 1.6-2.8.4-1.1.6-2.2.7-3.4 0-.3.1-.6.1-1 0-.1.1-.7 0-.8s-.7 0-.8 0c-.3 0-.6 0-1 .1-.5.1-.9.4-1.2.8-.2.3-.3.6-.5.8-.2.3-.3.2-.6.2.4-1.1.8-2.9 2-3.4 1.3-.6 2.9-.5 4.3-.5h4.8 1.2c.1 0 1-.1 1 0 .1.1 0 .9 0 1.1v.7zm-6.1 43.6c-6.3 0-11.4 5.1-11.4 11.4s5.1 11.4 11.4 11.4 11.4-5.1 11.4-11.4c-.1-6.3-5.2-11.4-11.4-11.4zm6.1 7.3h-2.3c-.2 0-.7-.1-.8 0s0 .9 0 1.1c-.1 1.4-.3 2.8-.4 4.2 0 1-.2 2.8 1 3.3.5.2 1.1.1 1.5-.3.2-.2.4-.5.4-.8 0-.1 0-.4.1-.5s.4 0 .5 0c0 1.4-.7 3.1-2 3.6-1.4.6-3-.1-3.5-1.5-.2-.7-.1-1.5-.1-2.3 0-.7.1-1.5.2-2.2.1-1.5.3-3 .4-4.5H675h-.8c-.5 0-.4 0-.4.5l-.3 3.1-.3 3.3c-.1 1.1-.3 2.3-.8 3.2-.5.7-1.5 1.1-2.2.5-.4-.3-.6-.7-.6-1.1 0-.6.3-1 .6-1.4.6-.9 1.2-1.8 1.6-2.8.4-1.1.6-2.2.7-3.4 0-.3.1-.6.1-1 0-.1.1-.7 0-.8s-.7 0-.8 0c-.3 0-.6 0-1 .1-.5.1-.9.4-1.2.8-.2.3-.3.6-.5.8-.2.3-.3.2-.6.2.4-1.1.8-2.9 2-3.4s2.9-.5 4.3-.5h4.8 1.2c.1 0 1-.1 1 0 .1.1 0 .9 0 1.1v.7z"/><path d="M681.1 390.1h-11.3c-.1 0-.2.1-.2.2v7.7c0 .1.1.2.2.2h11.3c.1 0 .2-.1.2-.2v-7.6c0-.1 0-.3-.2-.3zm-10.8 7.5v-6.9h10.4l-10.4 6.9zm5.4-13.8a11.29 11.29 0 0 0-11.3 11.3c0 6.3 5 11.3 11.3 11.3a11.3 11.3 0 1 0 0-22.6zm6.9 14.2c0 .8-.6 1.4-1.4 1.4h-2.7c-.6 0-.6.3-.6.5v.9h1.5a.65.65 0 0 1 .6.6.65.65 0 0 1-.6.6h-7.9a.65.65 0 0 1-.6-.6.65.65 0 0 1 .6-.6h1.5v-.9c0-.2-.1-.5-.6-.5h-2.7c-.8 0-1.4-.6-1.4-1.4v-7.6c0-.8.6-1.4 1.4-1.4H681c.8 0 1.4.6 1.4 1.4v7.6h.2zm69.5-14.3c-6.3 0-11.4 5.1-11.4 11.4s5.1 11.4 11.4 11.4 11.4-5.1 11.4-11.4c-.1-6.3-5.1-11.4-11.4-11.4zm6.2 7.4H756c-.2 0-.7-.1-.8 0s0 .9 0 1.1c-.1 1.4-.3 2.8-.4 4.2 0 1-.2 2.8 1 3.3.5.2 1.1.1 1.5-.3.2-.2.4-.5.4-.8 0-.1 0-.4.1-.5s.4 0 .5 0c0 1.4-.7 3.1-2 3.6-1.4.6-3-.1-3.5-1.5-.2-.7-.1-1.5-.1-2.3 0-.7.1-1.5.2-2.2.1-1.5.3-3 .4-4.5h-1.8-.8c-.5 0-.4 0-.4.5l-.3 3.1-.3 3.3c-.1 1.1-.3 2.3-.8 3.2-.5.7-1.5 1.1-2.2.5-.4-.3-.6-.7-.6-1.1 0-.6.3-1 .6-1.4.6-.9 1.2-1.8 1.6-2.8.4-1.1.6-2.2.7-3.4 0-.3.1-.6.1-1 0-.1.1-.7 0-.8s-.7 0-.8 0c-.3 0-.6 0-1 .1-.5.1-.9.4-1.2.8-.2.3-.3.6-.5.8-.2.3-.3.2-.6.2.4-1.1.8-2.9 2-3.4 1.3-.6 2.9-.5 4.3-.5h4.8 1.2c.1 0 1-.1 1 0 .1.1 0 .9 0 1.1v.7z"/><use xlink:href="#Q" x="458.7"/><path d="M752.1 358.3a11.29 11.29 0 1 0 0 22.6 11.29 11.29 0 1 0 0-22.6zm6.9 14.1c0 .8-.6 1.4-1.4 1.4h-2.7c-.6 0-.6.3-.6.5v.9h1.5a.65.65 0 0 1 .6.6.65.65 0 0 1-.6.6H748a.65.65 0 0 1-.6-.6.65.65 0 0 1 .6-.6h1.5v-.9c0-.2-.1-.5-.6-.5h-2.7c-.8 0-1.4-.6-1.4-1.4v-7.7c0-.8.6-1.4 1.4-1.4h11.3c.8 0 1.4.6 1.4 1.4v7.7h.1z"/><use xlink:href="#Q" x="458.7" y="50.9"/><path d="M752.1 409.2a11.29 11.29 0 0 0-11.3 11.3c0 6.3 5 11.3 11.3 11.3a11.3 11.3 0 1 0 0-22.6zm6.9 14.2c0 .8-.6 1.4-1.4 1.4h-2.7c-.6 0-.6.3-.6.5v.9h1.5a.65.65 0 0 1 .6.6.65.65 0 0 1-.6.6H748a.65.65 0 0 1-.6-.6.65.65 0 0 1 .6-.6h1.5v-.9c0-.2-.1-.5-.6-.5h-2.7c-.8 0-1.4-.6-1.4-1.4v-7.7c0-.8.6-1.4 1.4-1.4h11.3c.8 0 1.4.6 1.4 1.4v7.7h.1zm-32.4-65.1c-6.3 0-11.4 5.1-11.4 11.4s5.1 11.3 11.4 11.3a11.29 11.29 0 0 0 11.3-11.3c0-6.2-5-11.4-11.3-11.4zm6.2 7.4h-2.3c-.2 0-.7-.1-.8 0s0 .9 0 1.1c-.1 1.4-.3 2.8-.4 4.2 0 1-.2 2.8 1 3.3.5.2 1.1.1 1.5-.3.2-.2.4-.5.4-.8 0-.1 0-.4.1-.5s.4 0 .5 0c0 1.4-.7 3.1-2 3.6-1.4.6-3-.1-3.5-1.5-.2-.7-.1-1.5-.1-2.3s.1-1.5.2-2.2c.1-1.5.3-3 .4-4.5H726h-.8c-.5 0-.4 0-.4.5l-.3 3.1-.3 3.3c-.1 1.1-.3 2.3-.8 3.2-.5.7-1.5 1.1-2.2.5-.4-.3-.6-.7-.6-1.1 0-.6.3-1 .6-1.4.6-.9 1.2-1.8 1.6-2.8.4-1.1.6-2.2.7-3.4 0-.3.1-.6.1-1 0-.1.1-.7 0-.8s-.7 0-.8 0c-.3 0-.6 0-1 .1-.5.1-.9.4-1.2.8-.2.3-.3.6-.5.8-.2.3-.3.2-.6.2.4-1.1.8-2.9 2-3.4 1.3-.6 2.9-.5 4.3-.5h4.8 1.2c.1 0 1-.1 1 0 .1.1 0 .9 0 1.1v.7zm-6.2 43.6c-6.3 0-11.4 5.1-11.4 11.4s5.1 11.4 11.4 11.4S738 427 738 420.7s-5.1-11.4-11.4-11.4zm6.2 7.3h-2.3c-.2 0-.7-.1-.8 0s0 .9 0 1.1c-.1 1.4-.3 2.8-.4 4.2 0 1-.2 2.8 1 3.3.5.2 1.1.1 1.5-.3.2-.2.4-.5.4-.8 0-.1 0-.4.1-.5s.4 0 .5 0c0 1.4-.7 3.1-2 3.6-1.4.6-3-.1-3.5-1.5-.2-.7-.1-1.5-.1-2.3s.1-1.5.2-2.2c.1-1.5.3-3 .4-4.5H726h-.8c-.5 0-.4 0-.4.5l-.3 3.1-.3 3.3c-.1 1.1-.3 2.3-.8 3.2-.5.7-1.5 1.1-2.2.5-.4-.3-.6-.7-.6-1.1 0-.6.3-1 .6-1.4.6-.9 1.2-1.8 1.6-2.8.4-1.1.6-2.2.7-3.4 0-.3.1-.6.1-1 0-.1.1-.7 0-.8s-.7 0-.8 0c-.3 0-.6 0-1 .1-.5.1-.9.4-1.2.8-.2.3-.3.6-.5.8-.2.3-.3.2-.6.2.4-1.1.8-2.9 2-3.4s2.9-.5 4.3-.5h4.8 1.2c.1 0 1-.1 1 0 .1.1 0 .9 0 1.1v.7z"/><use xlink:href="#e" x="203.9"/><path d="M726.6 383.8a11.29 11.29 0 0 0-11.3 11.3c0 6.3 5 11.3 11.3 11.3a11.29 11.29 0 0 0 11.3-11.3c0-6.3-5-11.3-11.3-11.3zm6.9 14.2c0 .8-.6 1.4-1.4 1.4h-2.7c-.6 0-.6.3-.6.5v.9h1.5a.65.65 0 0 1 .6.6.65.65 0 0 1-.6.6h-7.9a.65.65 0 0 1-.6-.6.65.65 0 0 1 .6-.6h1.5v-.9c0-.2-.1-.5-.6-.5h-2.7c-.8 0-1.4-.6-1.4-1.4v-7.6c0-.8.6-1.4 1.4-1.4H732c.8 0 1.4.6 1.4 1.4v7.6h.1zm69.6-14.3c-6.3 0-11.4 5.1-11.4 11.4s5.1 11.4 11.4 11.4 11.4-5.1 11.4-11.4c-.1-6.3-5.2-11.4-11.4-11.4zm6.2 7.4H807c-.2 0-.7-.1-.8 0s0 .9 0 1.1c-.1 1.4-.3 2.8-.4 4.2 0 1-.2 2.8 1 3.3.5.2 1.1.1 1.5-.3.2-.2.4-.5.4-.8 0-.1 0-.4.1-.5s.4 0 .5 0c0 1.4-.7 3.1-2 3.6-1.4.6-3-.1-3.5-1.5-.2-.7-.1-1.5-.1-2.3 0-.7.1-1.5.2-2.2.1-1.5.3-3 .4-4.5h-1.8-.8c-.5 0-.4 0-.4.5l-.3 3.1-.3 3.3c-.1 1.1-.3 2.3-.8 3.2-.5.7-1.5 1.1-2.2.5-.4-.3-.6-.7-.6-1.1 0-.6.3-1 .6-1.4.6-.9 1.2-1.8 1.6-2.8.4-1.1.6-2.2.7-3.4 0-.3.1-.6.1-1 0-.1.1-.7 0-.8s-.7 0-.8 0c-.3 0-.6 0-1 .1-.5.1-.9.4-1.2.8-.2.3-.3.6-.5.8-.2.3-.3.2-.6.2.4-1.1.8-2.9 2-3.4 1.3-.6 2.9-.5 4.3-.5h4.8 1.2c.1 0 1-.1 1 0 .1.1 0 .9 0 1.1v.7z"/><use xlink:href="#Q" x="509.7"/><path d="M803.1 358.3a11.29 11.29 0 1 0 0 22.6 11.29 11.29 0 0 0 11.3-11.3c-.1-6.3-5.1-11.3-11.3-11.3zm6.9 14.1c0 .8-.6 1.4-1.4 1.4h-2.7c-.6 0-.6.3-.6.5v.9h1.5a.65.65 0 0 1 .6.6.65.65 0 0 1-.6.6h-7.9a.65.65 0 0 1-.6-.6.65.65 0 0 1 .6-.6h1.5v-.9c0-.2-.1-.5-.6-.5h-2.7c-.8 0-1.4-.6-1.4-1.4v-7.7c0-.8.6-1.4 1.4-1.4h11.3c.8 0 1.4.6 1.4 1.4v7.7h.2z"/><use xlink:href="#Q" x="509.7" y="50.9"/><use xlink:href="#R" x="509.7"/><path d="M777.6 358.3c-6.3 0-11.4 5.1-11.4 11.4s5.1 11.3 11.4 11.3 11.4-5.1 11.4-11.4c-.1-6.3-5.2-11.3-11.4-11.3zm6.2 7.4h-2.3c-.2 0-.7-.1-.8 0s0 .9 0 1.1c-.1 1.4-.3 2.8-.4 4.2 0 1-.2 2.8 1 3.3.5.2 1.1.1 1.5-.3.2-.2.4-.5.4-.8 0-.1 0-.4.1-.5s.4 0 .5 0c0 1.4-.7 3.1-2 3.6-1.4.6-3-.1-3.5-1.5-.2-.7-.1-1.5-.1-2.3s.1-1.5.2-2.2c.1-1.5.3-3 .4-4.5H777h-.8c-.5 0-.4 0-.4.5l-.3 3.1-.3 3.3c-.1 1.1-.3 2.3-.8 3.2-.5.7-1.5 1.1-2.2.5-.4-.3-.6-.7-.6-1.1 0-.6.3-1 .6-1.4.6-.9 1.2-1.8 1.6-2.8.4-1.1.6-2.2.7-3.4 0-.3.1-.6.1-1 0-.1.1-.7 0-.8s-.7 0-.8 0c-.3 0-.6 0-1 .1-.5.1-.9.4-1.2.8-.2.3-.3.6-.5.8-.2.3-.3.2-.6.2.4-1.1.8-2.9 2-3.4 1.3-.6 2.9-.5 4.3-.5h4.8 1.2c.1 0 1-.1 1 0 .1.1 0 .9 0 1.1v.7zm-6.2 43.6c-6.3 0-11.4 5.1-11.4 11.4s5.1 11.4 11.4 11.4S789 427 789 420.7c-.1-6.3-5.2-11.4-11.4-11.4zm6.2 7.3h-2.3c-.2 0-.7-.1-.8 0s0 .9 0 1.1c-.1 1.4-.3 2.8-.4 4.2 0 1-.2 2.8 1 3.3.5.2 1.1.1 1.5-.3.2-.2.4-.5.4-.8 0-.1 0-.4.1-.5s.4 0 .5 0c0 1.4-.7 3.1-2 3.6-1.4.6-3-.1-3.5-1.5-.2-.7-.1-1.5-.1-2.3s.1-1.5.2-2.2c.1-1.5.3-3 .4-4.5H777h-.8c-.5 0-.4 0-.4.5l-.3 3.1-.3 3.3c-.1 1.1-.3 2.3-.8 3.2-.5.7-1.5 1.1-2.2.5-.4-.3-.6-.7-.6-1.1 0-.6.3-1 .6-1.4.6-.9 1.2-1.8 1.6-2.8.4-1.1.6-2.2.7-3.4 0-.3.1-.6.1-1 0-.1.1-.7 0-.8s-.7 0-.8 0c-.3 0-.6 0-1 .1-.5.1-.9.4-1.2.8-.2.3-.3.6-.5.8-.2.3-.3.2-.6.2.4-1.1.8-2.9 2-3.4s2.9-.5 4.3-.5h4.8 1.2c.1 0 1-.1 1 0 .1.1 0 .9 0 1.1v.7z"/><use xlink:href="#e" x="254.9"/><path d="M777.6 383.8a11.29 11.29 0 0 0-11.3 11.3c0 6.3 5 11.3 11.3 11.3s11.3-5 11.3-11.3a11.29 11.29 0 0 0-11.3-11.3zm6.9 14.2c0 .8-.6 1.4-1.4 1.4h-2.7c-.6 0-.6.3-.6.5v.9h1.5a.65.65 0 0 1 .6.6.65.65 0 0 1-.6.6h-7.9a.65.65 0 0 1-.6-.6.65.65 0 0 1 .6-.6h1.5v-.9c0-.2-.1-.5-.6-.5h-2.7c-.8 0-1.4-.6-1.4-1.4v-7.6c0-.8.6-1.4 1.4-1.4H783c.8 0 1.4.6 1.4 1.4v7.6h.1z"/><use xlink:href="#B" x="815.5"/><use xlink:href="#i"/><use xlink:href="#T" x="509.7"/><use xlink:href="#i" y="50.9"/><use xlink:href="#U" x="509.7"/><use xlink:href="#V" x="509.7"/><use xlink:href="#f" x="254.8"/><path d="M834.1 390.1h-11.4c-.1 0-.2.1-.2.2v7.7c0 .1.1.2.2.2H834c.1 0 .2-.1.2-.2v-7.6c0-.1 0-.3-.1-.3zm-10.9 7.5v-6.9h10.4l-10.4 6.9zm5.3-13.8a11.3 11.3 0 1 0 0 22.6 11.29 11.29 0 0 0 11.3-11.3c0-6.3-5-11.3-11.3-11.3zm7 14.2c0 .8-.6 1.4-1.4 1.4h-2.7c-.6 0-.6.3-.6.5v.9h1.5a.65.65 0 0 1 .6.6.65.65 0 0 1-.6.6h-7.9a.65.65 0 0 1-.6-.6.65.65 0 0 1 .6-.6h1.5v-.9c0-.2-.1-.5-.6-.5h-2.6c-.8 0-1.4-.6-1.4-1.4v-7.6c0-.8.6-1.4 1.4-1.4H834c.8 0 1.4.6 1.4 1.4l.1 7.6h0z"/><use xlink:href="#B" x="866.5"/><use xlink:href="#j"/><path d="M905 358.3a11.29 11.29 0 1 0 0 22.6 11.29 11.29 0 1 0 0-22.6zm6.9 14.1c0 .8-.6 1.4-1.4 1.4h-2.7c-.6 0-.6.3-.6.5v.9h1.5a.65.65 0 0 1 .6.6.65.65 0 0 1-.6.6h-7.9a.65.65 0 0 1-.6-.6.65.65 0 0 1 .6-.6h1.5v-.9c0-.2-.1-.5-.6-.5H899c-.8 0-1.4-.6-1.4-1.4v-7.7c0-.8.6-1.4 1.4-1.4h11.3c.8 0 1.4.6 1.4 1.4v7.7h.2z"/><use xlink:href="#j" y="50.9"/><path d="M905 409.2a11.29 11.29 0 0 0-11.3 11.3c0 6.3 5 11.3 11.3 11.3a11.29 11.29 0 1 0 0-22.6zm6.9 14.2c0 .8-.6 1.4-1.4 1.4h-2.7c-.6 0-.6.3-.6.5v.9h1.5a.65.65 0 0 1 .6.6.65.65 0 0 1-.6.6h-7.9a.65.65 0 0 1-.6-.6.65.65 0 0 1 .6-.6h1.5v-.9c0-.2-.1-.5-.6-.5H899c-.8 0-1.4-.6-1.4-1.4v-7.7c0-.8.6-1.4 1.4-1.4h11.3c.8 0 1.4.6 1.4 1.4v7.7h.2z"/><use xlink:href="#V" x="560.7"/><use xlink:href="#W" x="560.7"/><path d="M885 390.1h-11.3c-.1 0-.2.1-.2.2v7.7c0 .1.1.2.2.2H885c.1 0 .2-.1.2-.2v-7.6c0-.1-.1-.3-.2-.3zm-10.8 7.5v-6.9h10.4l-10.4 6.9zm5.3-13.8a11.29 11.29 0 0 0-11.3 11.3c0 6.3 5 11.3 11.3 11.3a11.3 11.3 0 1 0 0-22.6zm6.9 14.2c0 .8-.6 1.4-1.4 1.4h-2.7c-.6 0-.6.3-.6.5v.9h1.5a.65.65 0 0 1 .6.6.65.65 0 0 1-.6.6h-7.9a.65.65 0 0 1-.6-.6.65.65 0 0 1 .6-.6h1.5v-.9c0-.2-.1-.5-.6-.5h-2.7c-.8 0-1.4-.6-1.4-1.4v-7.6c0-.8.6-1.4 1.4-1.4H885c.8 0 1.4.6 1.4 1.4v7.6h0z"/><use xlink:href="#C" x="815.5"/><use xlink:href="#k"/><path d="M956 358.3a11.29 11.29 0 1 0 0 22.6 11.29 11.29 0 1 0 0-22.6zm6.9 14.1c0 .8-.6 1.4-1.4 1.4h-2.7c-.6 0-.6.3-.6.5v.9h1.5a.65.65 0 0 1 .6.6.65.65 0 0 1-.6.6h-7.9a.65.65 0 0 1-.6-.6.65.65 0 0 1 .6-.6h1.5v-.9c0-.2-.1-.5-.6-.5H950c-.8 0-1.4-.6-1.4-1.4v-7.7c0-.8.6-1.4 1.4-1.4h11.3c.8 0 1.4.6 1.4 1.4v7.7h.2z"/><use xlink:href="#k" y="50.9"/><path d="M956 409.2a11.29 11.29 0 0 0-11.3 11.3c0 6.3 5 11.3 11.3 11.3a11.29 11.29 0 1 0 0-22.6zm6.9 14.2c0 .8-.6 1.4-1.4 1.4h-2.7c-.6 0-.6.3-.6.5v.9h1.5a.65.65 0 0 1 .6.6.65.65 0 0 1-.6.6h-7.9a.65.65 0 0 1-.6-.6.65.65 0 0 1 .6-.6h1.5v-.9c0-.2-.1-.5-.6-.5H950c-.8 0-1.4-.6-1.4-1.4v-7.7c0-.8.6-1.4 1.4-1.4h11.3c.8 0 1.4.6 1.4 1.4v7.7h.2z"/><use xlink:href="#h" x="305.8"/><path d="M930.5 409.3c-6.3 0-11.4 5.1-11.4 11.4s5.1 11.4 11.4 11.4 11.4-5.1 11.4-11.4c-.1-6.3-5.2-11.4-11.4-11.4zm6.2 7.3h-2.3c-.2 0-.7-.1-.8 0s0 .9 0 1.1c-.1 1.4-.3 2.8-.4 4.2 0 1-.2 2.8 1 3.3.5.2 1.1.1 1.5-.3.2-.2.4-.5.4-.8 0-.1 0-.4.1-.5s.4 0 .5 0c0 1.4-.7 3.1-2 3.6-1.4.6-3-.1-3.5-1.5-.2-.7-.1-1.5-.1-2.3s.1-1.5.2-2.2c.1-1.5.3-3 .4-4.5h-1.8-.8c-.5 0-.4 0-.4.5l-.3 3.1-.3 3.3c-.1 1.1-.3 2.3-.8 3.2-.5.7-1.5 1.1-2.2.5-.4-.3-.6-.7-.6-1.1 0-.6.3-1 .6-1.4.6-.9 1.2-1.8 1.6-2.8.4-1.1.6-2.2.7-3.4 0-.3.1-.6.1-1 0-.1.1-.7 0-.8s-.7 0-.8 0c-.3 0-.6 0-1 .1-.5.1-.9.4-1.2.8-.2.3-.3.6-.5.8-.2.3-.3.2-.6.2.4-1.1.8-2.9 2-3.4 1.3-.6 2.9-.5 4.3-.5h4.8 1.2c.1 0 1-.1 1 0 .1.1 0 .9 0 1.1v.7zm-.7-26.5h-11.3c-.1 0-.2.1-.2.2v7.7c0 .1.1.2.2.2H936c.1 0 .2-.1.2-.2v-7.6c0-.1-.1-.3-.2-.3zm-10.8 7.5v-6.9h10.4l-10.4 6.9z"/><use xlink:href="#Y" x="560.7"/><use xlink:href="#Z" x="509.7"/><use xlink:href="#H" x="815.5"/><path d="M1007 358.3a11.29 11.29 0 1 0 0 22.6 11.29 11.29 0 0 0 11.3-11.3c-.1-6.3-5.1-11.3-11.3-11.3zm6.8 14.1c0 .8-.6 1.4-1.4 1.4h-2.7c-.6 0-.6.3-.6.5v.9h1.5a.65.65 0 0 1 .6.6.65.65 0 0 1-.6.6h-7.9a.65.65 0 0 1-.6-.6.65.65 0 0 1 .6-.6h1.5v-.9c0-.2-.1-.5-.6-.5h-2.7c-.8 0-1.4-.6-1.4-1.4v-7.7c0-.8.6-1.4 1.4-1.4h11.3c.8 0 1.4.6 1.4 1.4v7.7h.2z"/><use xlink:href="#H" x="815.5" y="50.9"/><path d="M1007 409.2a11.29 11.29 0 0 0-11.3 11.3c0 6.3 5 11.3 11.3 11.3a11.29 11.29 0 1 0 0-22.6zm6.8 14.2c0 .8-.6 1.4-1.4 1.4h-2.7c-.6 0-.6.3-.6.5v.9h1.5a.65.65 0 0 1 .6.6.65.65 0 0 1-.6.6h-7.9a.65.65 0 0 1-.6-.6.65.65 0 0 1 .6-.6h1.5v-.9c0-.2-.1-.5-.6-.5h-2.7c-.8 0-1.4-.6-1.4-1.4v-7.7c0-.8.6-1.4 1.4-1.4h11.3c.8 0 1.4.6 1.4 1.4v7.7h.2z"/><use xlink:href="#c" x="458.7"/><use xlink:href="#d" x="458.7"/><path d="M987 390.1h-11.3c-.1 0-.2.1-.2.2v7.7c0 .1.1.2.2.2H987c.1 0 .2-.1.2-.2v-7.6c0-.1-.1-.3-.2-.3zm-10.9 7.5v-6.9h10.4l-10.4 6.9zm5.3-13.8a11.29 11.29 0 0 0-11.3 11.3c0 6.3 5 11.3 11.3 11.3a11.29 11.29 0 0 0 11.3-11.3c0-6.3-5-11.3-11.3-11.3zm7 14.2c0 .8-.6 1.4-1.4 1.4h-2.7c-.6 0-.6.3-.6.5v.9h1.5a.65.65 0 0 1 .6.6.65.65 0 0 1-.6.6h-7.9a.65.65 0 0 1-.6-.6.65.65 0 0 1 .6-.6h1.5v-.9c0-.2-.1-.5-.6-.5h-2.7c-.8 0-1.4-.6-1.4-1.4v-7.6c0-.8.6-1.4 1.4-1.4h11.3c.8 0 1.4.6 1.4 1.4v7.6h.2z"/><use xlink:href="#B" x="1019.4"/><use xlink:href="#L" x="815.5"/><path d="M1057.9 358.3a11.29 11.29 0 1 0 0 22.6c6.3 0 11.3-5 11.3-11.3a11.29 11.29 0 0 0-11.3-11.3zm6.9 14.1c0 .8-.6 1.4-1.4 1.4h-2.7c-.6 0-.6.3-.6.5v.9h1.5a.65.65 0 0 1 .6.6.65.65 0 0 1-.6.6h-7.9a.65.65 0 0 1-.6-.6.65.65 0 0 1 .6-.6h1.5v-.9c0-.2-.1-.5-.6-.5h-2.7c-.8 0-1.4-.6-1.4-1.4v-7.7c0-.8.6-1.4 1.4-1.4h11.3c.8 0 1.4.6 1.4 1.4l.2 7.7h0z"/><use xlink:href="#L" x="815.5" y="50.9"/><path d="M1057.9 409.2a11.29 11.29 0 0 0-11.3 11.3c0 6.3 5 11.3 11.3 11.3s11.3-5 11.3-11.3a11.29 11.29 0 0 0-11.3-11.3zm6.9 14.2c0 .8-.6 1.4-1.4 1.4h-2.7c-.6 0-.6.3-.6.5v.9h1.5a.65.65 0 0 1 .6.6.65.65 0 0 1-.6.6h-7.9a.65.65 0 0 1-.6-.6.65.65 0 0 1 .6-.6h1.5v-.9c0-.2-.1-.5-.6-.5h-2.7c-.8 0-1.4-.6-1.4-1.4v-7.7c0-.8.6-1.4 1.4-1.4h11.3c.8 0 1.4.6 1.4 1.4l.2 7.7h0z"/><use xlink:href="#O" x="815.5"/><use xlink:href="#d" x="509.7"/><use xlink:href="#e" x="509.7"/><use xlink:href="#Y" x="662.6"/><use xlink:href="#C" x="968.4"/><use xlink:href="#L" x="866.5"/><use xlink:href="#M" x="866.5"/><use xlink:href="#L" x="866.5" y="50.9"/><use xlink:href="#N" x="866.5"/><path d="M1083.4 358.3c-6.3 0-11.4 5.1-11.4 11.4s5.1 11.4 11.4 11.4 11.4-5.1 11.4-11.4c-.1-6.3-5.1-11.4-11.4-11.4zm6.2 7.4h-2.3c-.2 0-.7-.1-.8 0s0 .9 0 1.1c-.1 1.4-.3 2.8-.4 4.2 0 1-.2 2.8 1 3.3.5.2 1.1.1 1.5-.3.2-.2.4-.5.4-.8 0-.1 0-.4.1-.5s.4 0 .5 0c0 1.4-.7 3.1-2 3.6-1.4.6-3-.1-3.5-1.5-.2-.7-.1-1.5-.1-2.3s.1-1.5.2-2.2c.1-1.5.3-3 .4-4.5h-1.8-.8c-.5 0-.4 0-.4.5l-.3 3.1-.3 3.3c-.1 1.1-.3 2.3-.8 3.2-.5.7-1.5 1.1-2.2.5-.4-.3-.6-.7-.6-1.1 0-.6.3-1 .6-1.4.6-.9 1.2-1.8 1.6-2.8.4-1.1.6-2.2.7-3.4 0-.3.1-.6.1-1 0-.1.1-.7 0-.8s-.7 0-.8 0c-.3 0-.6 0-1 .1-.5.1-.9.4-1.2.8-.2.3-.3.6-.5.8-.2.3-.3.2-.6.2.4-1.1.8-2.9 2-3.4 1.3-.6 2.9-.5 4.3-.5h4.8 1.2c.1 0 1-.1 1 0 .1.1 0 .9 0 1.1 0 0 0 .3 0 .7z"/><use xlink:href="#G" x="968.4"/><use xlink:href="#X" x="764.5"/><use xlink:href="#b" x="611.6"/><use xlink:href="#B" x="1121.3"/><use xlink:href="#l"/><use xlink:href="#I" x="968.4"/><use xlink:href="#l" y="50.9"/><use xlink:href="#J" x="968.4"/><path d="M1134.4 358.3c-6.3 0-11.4 5.1-11.4 11.4s5.1 11.4 11.4 11.4 11.4-5.1 11.4-11.4c-.1-6.3-5.2-11.4-11.4-11.4zm6.2 7.4h-2.3c-.2 0-.7-.1-.8 0s0 .9 0 1.1c-.1 1.4-.3 2.8-.4 4.2 0 1-.2 2.8 1 3.3.5.2 1.1.1 1.5-.3.2-.2.4-.5.4-.8 0-.1 0-.4.1-.5s.4 0 .5 0c0 1.4-.7 3.1-2 3.6-1.4.6-3-.1-3.5-1.5-.2-.7-.1-1.5-.1-2.3 0-.7.1-1.5.2-2.2.1-1.5.3-3 .4-4.5h-1.8-.8c-.5 0-.4 0-.4.5l-.3 3.1-.3 3.3c-.1 1.1-.3 2.3-.8 3.2-.5.7-1.5 1.1-2.2.5-.4-.3-.6-.7-.6-1.1 0-.6.3-1 .6-1.4.6-.9 1.2-1.8 1.6-2.8.4-1.1.6-2.2.7-3.4 0-.3.1-.6.1-1 0-.1.1-.7 0-.8s-.7 0-.8 0c-.3 0-.6 0-1 .1-.5.1-.9.4-1.2.8-.2.3-.3.6-.5.8-.2.3-.3.2-.6.2.4-1.1.8-2.9 2-3.4 1.3-.6 2.9-.5 4.3-.5h4.8 1.2c.1 0 1-.1 1 0 .1.1 0 .9 0 1.1v.7zm-6.2 43.6c-6.3 0-11.4 5.1-11.4 11.4s5.1 11.4 11.4 11.4 11.4-5.1 11.4-11.4c-.1-6.3-5.2-11.4-11.4-11.4zm6.2 7.3h-2.3c-.2 0-.7-.1-.8 0s0 .9 0 1.1c-.1 1.4-.3 2.8-.4 4.2 0 1-.2 2.8 1 3.3.5.2 1.1.1 1.5-.3.2-.2.4-.5.4-.8 0-.1 0-.4.1-.5s.4 0 .5 0c0 1.4-.7 3.1-2 3.6-1.4.6-3-.1-3.5-1.5-.2-.7-.1-1.5-.1-2.3 0-.7.1-1.5.2-2.2.1-1.5.3-3 .4-4.5h-1.8-.8c-.5 0-.4 0-.4.5l-.3 3.1-.3 3.3c-.1 1.1-.3 2.3-.8 3.2-.5.7-1.5 1.1-2.2.5-.4-.3-.6-.7-.6-1.1 0-.6.3-1 .6-1.4.6-.9 1.2-1.8 1.6-2.8.4-1.1.6-2.2.7-3.4 0-.3.1-.6.1-1 0-.1.1-.7 0-.8s-.7 0-.8 0c-.3 0-.6 0-1 .1-.5.1-.9.4-1.2.8-.2.3-.3.6-.5.8-.2.3-.3.2-.6.2.4-1.1.8-2.9 2-3.4s2.9-.5 4.3-.5h4.8 1.2c.1 0 1-.1 1 0 .1.1 0 .9 0 1.1v.7z"/><use xlink:href="#X" x="815.5"/><use xlink:href="#Y" x="764.6"/></g><defs ><path id="B" d="M38.5 383.7c-6.3 0-11.4 5.1-11.4 11.4s5.1 11.4 11.4 11.4 11.4-5.1 11.4-11.4-5.1-11.4-11.4-11.4zm6.2 7.4h-2.3c-.2 0-.7-.1-.8 0s0 .9 0 1.1c-.1 1.4-.3 2.8-.4 4.2 0 1-.2 2.8 1 3.3.5.2 1.1.1 1.5-.3.2-.2.4-.5.4-.8 0-.1 0-.4.1-.5s.4 0 .5 0c0 1.4-.7 3.1-2 3.6-1.4.6-3-.1-3.5-1.5-.2-.7-.1-1.5-.1-2.3 0-.7.1-1.5.2-2.2.1-1.5.3-3 .4-4.5h-1.8-.8c-.5 0-.4 0-.4.5l-.3 3.1-.3 3.3c-.1 1.1-.3 2.3-.8 3.2-.5.7-1.5 1.1-2.2.5-.4-.3-.6-.7-.6-1.1 0-.6.3-1 .6-1.4.6-.9 1.2-1.8 1.6-2.8.4-1.1.6-2.2.7-3.4 0-.3.1-.6.1-1 0-.1.1-.7 0-.8s-.7 0-.8 0c-.3 0-.6 0-1 .1-.5.1-.9.4-1.2.8-.2.3-.3.6-.5.8-.2.3-.3.2-.6.2.4-1.1.8-2.9 2-3.4 1.3-.6 2.9-.5 4.3-.5h4.8 1.2c.1 0 1-.1 1 0 .1.1 0 .9 0 1.1 0 0 0 .4 0 .7z"/><path id="C" d="M140.5 383.7c-6.3 0-11.4 5.1-11.4 11.4s5.1 11.4 11.4 11.4 11.4-5.1 11.4-11.4c-.1-6.3-5.2-11.4-11.4-11.4zm6.2 7.4h-2.3c-.2 0-.7-.1-.8 0s0 .9 0 1.1c-.1 1.4-.3 2.8-.4 4.2 0 1-.2 2.8 1 3.3.5.2 1.1.1 1.5-.3.2-.2.4-.5.4-.8 0-.1 0-.4.1-.5s.4 0 .5 0c0 1.4-.7 3.1-2 3.6-1.4.6-3-.1-3.5-1.5-.2-.7-.1-1.5-.1-2.3 0-.7.1-1.5.2-2.2.1-1.5.3-3 .4-4.5h-1.8-.8c-.5 0-.4 0-.4.5l-.3 3.1-.3 3.3c-.1 1.1-.3 2.3-.8 3.2-.5.7-1.5 1.1-2.2.5-.4-.3-.6-.7-.6-1.1 0-.6.3-1 .6-1.4.6-.9 1.2-1.8 1.6-2.8.4-1.1.6-2.2.7-3.4 0-.3.1-.6.1-1 0-.1.1-.7 0-.8s-.7 0-.8 0c-.3 0-.6 0-1 .1-.5.1-.9.4-1.2.8-.2.3-.3.6-.5.8-.2.3-.3.2-.6.2.4-1.1.8-2.9 2-3.4 1.3-.6 2.9-.5 4.3-.5h4.8 1.2c.1 0 1-.1 1 0 .1.1 0 .9 0 1.1 0 0 0 .4 0 .7z"/><path id="D" d="M146 364.6h-11.3c-.1 0-.2.1-.2.2v7.7c0 .1.1.2.2.2H146c.1 0 .2-.1.2-.2v-7.7c0-.1-.1-.2-.2-.2zm-10.8 7.5v-6.9h10.4l-10.4 6.9z"/><path id="E" d="M140.5 358.3a11.29 11.29 0 1 0 0 22.6 11.29 11.29 0 0 0 11.3-11.3c-.1-6.3-5.1-11.3-11.3-11.3zm6.9 14.1c0 .8-.6 1.4-1.4 1.4h-2.7c-.6 0-.6.3-.6.5v.9h1.5a.65.65 0 0 1 .6.6.65.65 0 0 1-.6.6h-7.9a.65.65 0 0 1-.6-.6.65.65 0 0 1 .6-.6h1.5v-.9c0-.2-.1-.5-.6-.5h-2.7c-.8 0-1.4-.6-1.4-1.4v-7.7c0-.8.6-1.4 1.4-1.4h11.3c.8 0 1.4.6 1.4 1.4l.2 7.7h0z"/><path id="F" d="M140.5 409.2a11.29 11.29 0 0 0-11.3 11.3c0 6.3 5 11.3 11.3 11.3a11.29 11.29 0 1 0 0-22.6zm6.9 14.2c0 .8-.6 1.4-1.4 1.4h-2.7c-.6 0-.6.3-.6.5v.9h1.5a.65.65 0 0 1 .6.6.65.65 0 0 1-.6.6h-7.9a.65.65 0 0 1-.6-.6.65.65 0 0 1 .6-.6h1.5v-.9c0-.2-.1-.5-.6-.5h-2.7c-.8 0-1.4-.6-1.4-1.4v-7.7c0-.8.6-1.4 1.4-1.4h11.3c.8 0 1.4.6 1.4 1.4l.2 7.7h0z"/><path id="G" d="M115 409.3c-6.3 0-11.4 5.1-11.4 11.4s5.1 11.4 11.4 11.4 11.4-5.1 11.4-11.4c-.1-6.3-5.1-11.4-11.4-11.4zm6.2 7.3h-2.3c-.2 0-.7-.1-.8 0s0 .9 0 1.1c-.1 1.4-.3 2.8-.4 4.2 0 1-.2 2.8 1 3.3.5.2 1.1.1 1.5-.3.2-.2.4-.5.4-.8 0-.1 0-.4.1-.5s.4 0 .5 0c0 1.4-.7 3.1-2 3.6-1.4.6-3-.1-3.5-1.5-.2-.7-.1-1.5-.1-2.3s.1-1.5.2-2.2c.1-1.5.3-3 .4-4.5h-1.8-.8c-.5 0-.4 0-.4.5l-.3 3.1-.3 3.3c-.1 1.1-.3 2.3-.8 3.2-.5.7-1.5 1.1-2.2.5-.4-.3-.6-.7-.6-1.1 0-.6.3-1 .6-1.4.6-.9 1.2-1.8 1.6-2.8.4-1.1.6-2.2.7-3.4 0-.3.1-.6.1-1 0-.1.1-.7 0-.8s-.7 0-.8 0c-.3 0-.6 0-1 .1-.5.1-.9.4-1.2.8-.2.3-.3.6-.5.8-.2.3-.3.2-.6.2.4-1.1.8-2.9 2-3.4 1.3-.6 2.9-.5 4.3-.5h4.8 1.2c.1 0 1-.1 1 0 .1.1 0 .9 0 1.1v.7z"/><path id="H" d="M196.9 364.6h-11.3c-.1 0-.2.1-.2.2v7.7c0 .1.1.2.2.2h11.3c.1 0 .2-.1.2-.2v-7.7c0-.1 0-.2-.2-.2zm-10.8 7.5v-6.9h10.4l-10.4 6.9z"/><path id="I" d="M191.4 358.3a11.29 11.29 0 1 0 0 22.6c6.3 0 11.3-5 11.3-11.3s-5-11.3-11.3-11.3zm7 14.1c0 .8-.6 1.4-1.4 1.4h-2.7c-.6 0-.6.3-.6.5v.9h1.5a.65.65 0 0 1 .6.6.65.65 0 0 1-.6.6h-7.9a.65.65 0 0 1-.6-.6.65.65 0 0 1 .6-.6h1.5v-.9c0-.2-.1-.5-.6-.5h-2.7c-.8 0-1.4-.6-1.4-1.4v-7.7c0-.8.6-1.4 1.4-1.4h11.3c.8 0 1.4.6 1.4 1.4v7.7h.2z"/><path id="J" d="M191.4 409.2a11.29 11.29 0 0 0-11.3 11.3c0 6.3 5 11.3 11.3 11.3s11.3-5 11.3-11.3-5-11.3-11.3-11.3zm7 14.2c0 .8-.6 1.4-1.4 1.4h-2.7c-.6 0-.6.3-.6.5v.9h1.5a.65.65 0 0 1 .6.6.65.65 0 0 1-.6.6h-7.9a.65.65 0 0 1-.6-.6.65.65 0 0 1 .6-.6h1.5v-.9c0-.2-.1-.5-.6-.5h-2.7c-.8 0-1.4-.6-1.4-1.4v-7.7c0-.8.6-1.4 1.4-1.4h11.3c.8 0 1.4.6 1.4 1.4v7.7h.2z"/><path id="K" d="M166 409.3c-6.3 0-11.4 5.1-11.4 11.4s5.1 11.4 11.4 11.4 11.4-5.1 11.4-11.4c-.1-6.3-5.2-11.4-11.4-11.4zm6.2 7.3h-2.3c-.2 0-.7-.1-.8 0s0 .9 0 1.1c-.1 1.4-.3 2.8-.4 4.2 0 1-.2 2.8 1 3.3.5.2 1.1.1 1.5-.3.2-.2.4-.5.4-.8 0-.1 0-.4.1-.5s.4 0 .5 0c0 1.4-.7 3.1-2 3.6-1.4.6-3-.1-3.5-1.5-.2-.7-.1-1.5-.1-2.3 0-.7.1-1.5.2-2.2.1-1.5.3-3 .4-4.5h-1.8-.8c-.5 0-.4 0-.4.5l-.3 3.1-.3 3.3c-.1 1.1-.3 2.3-.8 3.2-.5.7-1.5 1.1-2.2.5-.4-.3-.6-.7-.6-1.1 0-.6.3-1 .6-1.4.6-.9 1.2-1.8 1.6-2.8.4-1.1.6-2.2.7-3.4 0-.3.1-.6.1-1 0-.1.1-.7 0-.8s-.7 0-.8 0c-.3 0-.6 0-1 .1-.5.1-.9.4-1.2.8-.2.3-.3.6-.5.8-.2.3-.3.2-.6.2.4-1.1.8-2.9 2-3.4 1.3-.6 2.9-.5 4.3-.5h4.8 1.2c.1 0 1-.1 1 0 .1.1 0 .9 0 1.1v.7z"/><path id="L" d="M247.9 364.6h-11.3c-.1 0-.2.1-.2.2v7.7c0 .1.1.2.2.2h11.3c.1 0 .2-.1.2-.2v-7.7c0-.1-.1-.2-.2-.2zm-10.8 7.5v-6.9h10.4l-10.4 6.9z"/><path id="M" d="M242.4 358.3a11.29 11.29 0 1 0 0 22.6c6.3 0 11.3-5 11.3-11.3a11.29 11.29 0 0 0-11.3-11.3zm6.9 14.1c0 .8-.6 1.4-1.4 1.4h-2.7c-.6 0-.6.3-.6.5v.9h1.5a.65.65 0 0 1 .6.6.65.65 0 0 1-.6.6h-7.9a.65.65 0 0 1-.6-.6.65.65 0 0 1 .6-.6h1.5v-.9c0-.2-.1-.5-.6-.5h-2.7c-.8 0-1.4-.6-1.4-1.4v-7.7c0-.8.6-1.4 1.4-1.4h11.3c.8 0 1.4.6 1.4 1.4v7.7h.2z"/><path id="N" d="M242.4 409.2a11.29 11.29 0 0 0-11.3 11.3c0 6.3 5 11.3 11.3 11.3s11.3-5 11.3-11.3a11.29 11.29 0 0 0-11.3-11.3zm6.9 14.2c0 .8-.6 1.4-1.4 1.4h-2.7c-.6 0-.6.3-.6.5v.9h1.5a.65.65 0 0 1 .6.6.65.65 0 0 1-.6.6h-7.9a.65.65 0 0 1-.6-.6.65.65 0 0 1 .6-.6h1.5v-.9c0-.2-.1-.5-.6-.5h-2.7c-.8 0-1.4-.6-1.4-1.4v-7.7c0-.8.6-1.4 1.4-1.4h11.3c.8 0 1.4.6 1.4 1.4v7.7h.2z"/><path id="O" d="M216.9 358.3c-6.3 0-11.4 5.1-11.4 11.4s5.1 11.3 11.4 11.3 11.4-5.1 11.4-11.4-5.1-11.3-11.4-11.3zm6.2 7.4h-2.3c-.2 0-.7-.1-.8 0s0 .9 0 1.1c-.1 1.4-.3 2.8-.4 4.2 0 1-.2 2.8 1 3.3.5.2 1.1.1 1.5-.3.2-.2.4-.5.4-.8 0-.1 0-.4.1-.5s.4 0 .5 0c0 1.4-.7 3.1-2 3.6-1.4.6-3-.1-3.5-1.5-.2-.7-.1-1.5-.1-2.3 0-.7.1-1.5.2-2.2.1-1.5.3-3 .4-4.5h-1.8-.8c-.5 0-.4 0-.4.5l-.3 3.1-.3 3.3c-.1 1.1-.3 2.3-.8 3.2-.5.7-1.5 1.1-2.2.5-.4-.3-.6-.7-.6-1.1 0-.6.3-1 .6-1.4.6-.9 1.2-1.8 1.6-2.8.4-1.1.6-2.2.7-3.4 0-.3.1-.6.1-1 0-.1.1-.7 0-.8s-.7 0-.8 0c-.3 0-.6 0-1 .1-.5.1-.9.4-1.2.8-.2.3-.3.6-.5.8-.2.3-.3.2-.6.2.4-1.1.8-2.9 2-3.4 1.3-.6 2.9-.5 4.3-.5h4.8 1.2c.1 0 1-.1 1 0 .1.1 0 .9 0 1.1 0 0 0 .3 0 .7z"/><path id="P" d="M216.9 409.3c-6.3 0-11.4 5.1-11.4 11.4s5.1 11.4 11.4 11.4 11.4-5.1 11.4-11.4-5.1-11.4-11.4-11.4zm6.2 7.3h-2.3c-.2 0-.7-.1-.8 0s0 .9 0 1.1c-.1 1.4-.3 2.8-.4 4.2 0 1-.2 2.8 1 3.3.5.2 1.1.1 1.5-.3.2-.2.4-.5.4-.8 0-.1 0-.4.1-.5s.4 0 .5 0c0 1.4-.7 3.1-2 3.6-1.4.6-3-.1-3.5-1.5-.2-.7-.1-1.5-.1-2.3 0-.7.1-1.5.2-2.2.1-1.5.3-3 .4-4.5h-1.8-.8c-.5 0-.4 0-.4.5l-.3 3.1-.3 3.3c-.1 1.1-.3 2.3-.8 3.2-.5.7-1.5 1.1-2.2.5-.4-.3-.6-.7-.6-1.1 0-.6.3-1 .6-1.4.6-.9 1.2-1.8 1.6-2.8.4-1.1.6-2.2.7-3.4 0-.3.1-.6.1-1 0-.1.1-.7 0-.8s-.7 0-.8 0c-.3 0-.6 0-1 .1-.5.1-.9.4-1.2.8-.2.3-.3.6-.5.8-.2.3-.3.2-.6.2.4-1.1.8-2.9 2-3.4s2.9-.5 4.3-.5h4.8 1.2c.1 0 1-.1 1 0 .1.1 0 .9 0 1.1v.7z"/><path id="Q" d="M298.9 364.6h-11.3c-.1 0-.2.1-.2.2v7.7c0 .1.1.2.2.2h11.3c.1 0 .2-.1.2-.2v-7.7c0-.1-.1-.2-.2-.2zm-10.9 7.5v-6.9h10.4l-10.4 6.9z"/><path id="R" d="M293.4 409.2a11.29 11.29 0 0 0-11.3 11.3c0 6.3 5 11.3 11.3 11.3a11.29 11.29 0 1 0 0-22.6zm6.9 14.2c0 .8-.6 1.4-1.4 1.4h-2.7c-.6 0-.6.3-.6.5v.9h1.5a.65.65 0 0 1 .6.6.65.65 0 0 1-.6.6h-7.9a.65.65 0 0 1-.6-.6.65.65 0 0 1 .6-.6h1.5v-.9c0-.2-.1-.5-.6-.5h-2.7c-.8 0-1.4-.6-1.4-1.4v-7.7c0-.8.6-1.4 1.4-1.4h11.3c.8 0 1.4.6 1.4 1.4v7.7h.2z"/><path id="S" d="M267.9 358.3c-6.3 0-11.4 5.1-11.4 11.4s5.1 11.3 11.4 11.3 11.4-5.1 11.4-11.4c-.1-6.3-5.2-11.3-11.4-11.3zm6.2 7.4h-2.3c-.2 0-.7-.1-.8 0s0 .9 0 1.1c-.1 1.4-.3 2.8-.4 4.2 0 1-.2 2.8 1 3.3.5.2 1.1.1 1.5-.3.2-.2.4-.5.4-.8 0-.1 0-.4.1-.5s.4 0 .5 0c0 1.4-.7 3.1-2 3.6-1.4.6-3-.1-3.5-1.5-.2-.7-.1-1.5-.1-2.3 0-.7.1-1.5.2-2.2.1-1.5.3-3 .4-4.5h-1.8-.8c-.5 0-.4 0-.4.5l-.3 3.1-.3 3.3c-.1 1.1-.3 2.3-.8 3.2-.5.7-1.5 1.1-2.2.5-.4-.3-.6-.7-.6-1.1 0-.6.3-1 .6-1.4.6-.9 1.2-1.8 1.6-2.8.4-1.1.6-2.2.7-3.4 0-.3.1-.6.1-1 0-.1.1-.7 0-.8s-.7 0-.8 0c-.3 0-.6 0-1 .1-.5.1-.9.4-1.2.8-.2.3-.3.6-.5.8-.2.3-.3.2-.6.2.4-1.1.8-2.9 2-3.4 1.3-.6 2.9-.5 4.3-.5h4.8 1.2c.1 0 1-.1 1 0 .1.1 0 .9 0 1.1 0 0 0 .3 0 .7z"/><path id="T" d="M344.3 358.3a11.29 11.29 0 1 0 0 22.6 11.29 11.29 0 0 0 11.3-11.3c0-6.3-5-11.3-11.3-11.3zm7 14.1c0 .8-.6 1.4-1.4 1.4h-2.7c-.6 0-.6.3-.6.5v.9h1.5a.65.65 0 0 1 .6.6.65.65 0 0 1-.6.6h-7.9a.65.65 0 0 1-.6-.6.65.65 0 0 1 .6-.6h1.5v-.9c0-.2-.1-.5-.6-.5h-2.7c-.8 0-1.4-.6-1.4-1.4v-7.7c0-.8.6-1.4 1.4-1.4h11.3c.8 0 1.4.6 1.4 1.4v7.7h.2z"/><path id="U" d="M344.3 409.2a11.29 11.29 0 0 0-11.3 11.3c0 6.3 5 11.3 11.3 11.3a11.29 11.29 0 0 0 11.3-11.3c0-6.3-5-11.3-11.3-11.3zm7 14.2c0 .8-.6 1.4-1.4 1.4h-2.7c-.6 0-.6.3-.6.5v.9h1.5a.65.65 0 0 1 .6.6.65.65 0 0 1-.6.6h-7.9a.65.65 0 0 1-.6-.6.65.65 0 0 1 .6-.6h1.5v-.9c0-.2-.1-.5-.6-.5h-2.7c-.8 0-1.4-.6-1.4-1.4v-7.7c0-.8.6-1.4 1.4-1.4h11.3c.8 0 1.4.6 1.4 1.4v7.7h.2z"/><path id="V" d="M318.8 358.3c-6.3 0-11.4 5.1-11.4 11.4s5.1 11.3 11.4 11.3 11.4-5.1 11.4-11.4-5.1-11.3-11.4-11.3zm6.2 7.4h-2.3c-.2 0-.7-.1-.8 0s0 .9 0 1.1c-.1 1.4-.3 2.8-.4 4.2 0 1-.2 2.8 1 3.3.5.2 1.1.1 1.5-.3.2-.2.4-.5.4-.8 0-.1 0-.4.1-.5s.4 0 .5 0c0 1.4-.7 3.1-2 3.6-1.4.6-3-.1-3.5-1.5-.2-.7-.1-1.5-.1-2.3s.1-1.5.2-2.2c.1-1.5.3-3 .4-4.5h-1.8-.8c-.5 0-.4 0-.4.5l-.3 3.1-.3 3.3c-.1 1.1-.3 2.3-.8 3.2-.5.7-1.5 1.1-2.2.5-.4-.3-.6-.7-.6-1.1 0-.6.3-1 .6-1.4.6-.9 1.2-1.8 1.6-2.8.4-1.1.6-2.2.7-3.4 0-.3.1-.6.1-1 0-.1.1-.7 0-.8s-.7 0-.8 0c-.3 0-.6 0-1 .1-.5.1-.9.4-1.2.8-.2.3-.3.6-.5.8-.2.3-.3.2-.6.2.4-1.1.8-2.9 2-3.4 1.3-.6 2.9-.5 4.3-.5h4.8 1.2c.1 0 1-.1 1 0 .1.1 0 .9 0 1.1 0 0 0 .3 0 .7z"/><path id="W" d="M318.8 409.3c-6.3 0-11.4 5.1-11.4 11.4s5.1 11.4 11.4 11.4 11.4-5.1 11.4-11.4-5.1-11.4-11.4-11.4zm6.2 7.3h-2.3c-.2 0-.7-.1-.8 0s0 .9 0 1.1c-.1 1.4-.3 2.8-.4 4.2 0 1-.2 2.8 1 3.3.5.2 1.1.1 1.5-.3.2-.2.4-.5.4-.8 0-.1 0-.4.1-.5s.4 0 .5 0c0 1.4-.7 3.1-2 3.6-1.4.6-3-.1-3.5-1.5-.2-.7-.1-1.5-.1-2.3s.1-1.5.2-2.2c.1-1.5.3-3 .4-4.5h-1.8-.8c-.5 0-.4 0-.4.5l-.3 3.1-.3 3.3c-.1 1.1-.3 2.3-.8 3.2-.5.7-1.5 1.1-2.2.5-.4-.3-.6-.7-.6-1.1 0-.6.3-1 .6-1.4.6-.9 1.2-1.8 1.6-2.8.4-1.1.6-2.2.7-3.4 0-.3.1-.6.1-1 0-.1.1-.7 0-.8s-.7 0-.8 0c-.3 0-.6 0-1 .1-.5.1-.9.4-1.2.8-.2.3-.3.6-.5.8-.2.3-.3.2-.6.2.4-1.1.8-2.9 2-3.4 1.3-.6 2.9-.5 4.3-.5h4.8 1.2c.1 0 1-.1 1 0 .1.1 0 .9 0 1.1v.7z"/><path id="X" d="M324.4 390.1h-11.3c-.1 0-.2.1-.2.2v7.7c0 .1.1.2.2.2h11.3c.1 0 .2-.1.2-.2v-7.6c0-.1-.1-.3-.2-.3zm-10.9 7.5v-6.9h10.4l-10.4 6.9z"/><path id="Y" d="M369.8 383.8a11.29 11.29 0 0 0-11.3 11.3c0 6.3 5 11.3 11.3 11.3a11.29 11.29 0 1 0 0-22.6zm6.9 14.2c0 .8-.6 1.4-1.4 1.4h-2.7c-.6 0-.6.3-.6.5v.9h1.5a.65.65 0 0 1 .6.6.65.65 0 0 1-.6.6h-7.9a.65.65 0 0 1-.6-.6.65.65 0 0 1 .6-.6h1.5v-.9c0-.2-.1-.5-.6-.5h-2.7c-.8 0-1.4-.6-1.4-1.4v-7.6c0-.8.6-1.4 1.4-1.4h11.3c.8 0 1.4.6 1.4 1.4v7.6h.2z"/><path id="Z" d="M497.3 383.7c-6.3 0-11.4 5.1-11.4 11.4s5.1 11.4 11.4 11.4 11.4-5.1 11.4-11.4c-.1-6.3-5.2-11.4-11.4-11.4zm6.1 7.4h-2.3c-.2 0-.7-.1-.8 0s0 .9 0 1.1c-.1 1.4-.3 2.8-.4 4.2 0 1-.2 2.8 1 3.3.5.2 1.1.1 1.5-.3.2-.2.4-.5.4-.8 0-.1 0-.4.1-.5s.4 0 .5 0c0 1.4-.7 3.1-2 3.6-1.4.6-3-.1-3.5-1.5-.2-.7-.1-1.5-.1-2.3 0-.7.1-1.5.2-2.2.1-1.5.3-3 .4-4.5h-1.8-.8c-.5 0-.4 0-.4.5l-.3 3.1-.3 3.3c-.1 1.1-.3 2.3-.8 3.2-.5.7-1.5 1.1-2.2.5-.4-.3-.6-.7-.6-1.1 0-.6.3-1 .6-1.4.6-.9 1.2-1.8 1.6-2.8.4-1.1.6-2.2.7-3.4 0-.3.1-.6.1-1 0-.1.1-.7 0-.8s-.7 0-.8 0c-.3 0-.6 0-1 .1-.5.1-.9.4-1.2.8-.2.3-.3.6-.5.8-.2.3-.3.2-.6.2.4-1.1.8-2.9 2-3.4 1.3-.6 2.9-.5 4.3-.5h4.8 1.2c.1 0 1-.1 1 0 .1.1 0 .9 0 1.1 0 0 0 .4 0 .7z"/><path id="a" d="M502.8 364.6h-11.3c-.1 0-.2.1-.2.2v7.7c0 .1.1.2.2.2h11.3c.1 0 .2-.1.2-.2v-7.7c-.1-.1-.1-.2-.2-.2zm-10.9 7.5v-6.9h10.4l-10.4 6.9z"/><path id="b" d="M471.8 383.8a11.29 11.29 0 0 0-11.3 11.3c0 6.3 5 11.3 11.3 11.3s11.3-5 11.3-11.3a11.29 11.29 0 0 0-11.3-11.3zm6.9 14.2c0 .8-.6 1.4-1.4 1.4h-2.7c-.6 0-.6.3-.6.5v.9h1.5a.65.65 0 0 1 .6.6.65.65 0 0 1-.6.6h-7.9a.65.65 0 0 1-.6-.6.65.65 0 0 1 .6-.6h1.5v-.9c0-.2-.1-.5-.6-.5h-2.7c-.8 0-1.4-.6-1.4-1.4v-7.6c0-.8.6-1.4 1.4-1.4h11.3c.8 0 1.4.6 1.4 1.4v7.6h.2z"/><path id="c" d="M522.7 358.3c-6.3 0-11.4 5.1-11.4 11.4s5.1 11.4 11.4 11.4 11.4-5.1 11.4-11.4-5.1-11.4-11.4-11.4zm6.2 7.4h-2.3c-.2 0-.7-.1-.8 0s0 .9 0 1.1c-.1 1.4-.3 2.8-.4 4.2 0 1-.2 2.8 1 3.3.5.2 1.1.1 1.5-.3.2-.2.4-.5.4-.8 0-.1 0-.4.1-.5s.4 0 .5 0c0 1.4-.7 3.1-2 3.6-1.4.6-3-.1-3.5-1.5-.2-.7-.1-1.5-.1-2.3 0-.7.1-1.5.2-2.2.1-1.5.3-3 .4-4.5h-1.8-.8c-.5 0-.4 0-.4.5l-.3 3.1-.3 3.3c-.1 1.1-.3 2.3-.8 3.2-.5.7-1.5 1.1-2.2.5-.4-.3-.6-.7-.6-1.1 0-.6.3-1 .6-1.4.6-.9 1.2-1.8 1.6-2.8.4-1.1.6-2.2.7-3.4 0-.3.1-.6.1-1 0-.1.1-.7 0-.8s-.7 0-.8 0c-.3 0-.6 0-1 .1-.5.1-.9.4-1.2.8-.2.3-.3.6-.5.8-.2.3-.3.2-.6.2.4-1.1.8-2.9 2-3.4 1.3-.6 2.9-.5 4.3-.5h4.8 1.2c.1 0 1-.1 1 0 .1.1 0 .9 0 1.1 0 0 0 .3 0 .7z"/><path id="d" d="M522.7 409.3c-6.3 0-11.4 5.1-11.4 11.4s5.1 11.4 11.4 11.4 11.4-5.1 11.4-11.4-5.1-11.4-11.4-11.4zm6.2 7.3h-2.3c-.2 0-.7-.1-.8 0s0 .9 0 1.1c-.1 1.4-.3 2.8-.4 4.2 0 1-.2 2.8 1 3.3.5.2 1.1.1 1.5-.3.2-.2.4-.5.4-.8 0-.1 0-.4.1-.5s.4 0 .5 0c0 1.4-.7 3.1-2 3.6-1.4.6-3-.1-3.5-1.5-.2-.7-.1-1.5-.1-2.3 0-.7.1-1.5.2-2.2.1-1.5.3-3 .4-4.5h-1.8-.8c-.5 0-.4 0-.4.5l-.3 3.1-.3 3.3c-.1 1.1-.3 2.3-.8 3.2-.5.7-1.5 1.1-2.2.5-.4-.3-.6-.7-.6-1.1 0-.6.3-1 .6-1.4.6-.9 1.2-1.8 1.6-2.8.4-1.1.6-2.2.7-3.4 0-.3.1-.6.1-1 0-.1.1-.7 0-.8s-.7 0-.8 0c-.3 0-.6 0-1 .1-.5.1-.9.4-1.2.8-.2.3-.3.6-.5.8-.2.3-.3.2-.6.2.4-1.1.8-2.9 2-3.4 1.3-.6 2.9-.5 4.3-.5h4.8 1.2c.1 0 1-.1 1 0 .1.1 0 .9 0 1.1v.7z"/><path id="e" d="M528.2 390.1h-11.3c-.1 0-.2.1-.2.2v7.7c0 .1.1.2.2.2h11.3c.1 0 .2-.1.2-.2v-7.6c0-.1-.1-.3-.2-.3zm-10.8 7.5v-6.9h10.4l-10.4 6.9z"/><path id="f" d="M573.7 409.3c-6.3 0-11.4 5.1-11.4 11.4s5.1 11.4 11.4 11.4 11.4-5.1 11.4-11.4-5.1-11.4-11.4-11.4zm6.2 7.3h-2.3c-.2 0-.7-.1-.8 0s0 .9 0 1.1c-.1 1.4-.3 2.8-.4 4.2 0 1-.2 2.8 1 3.3.5.2 1.1.1 1.5-.3.2-.2.4-.5.4-.8 0-.1 0-.4.1-.5s.4 0 .5 0c0 1.4-.7 3.1-2 3.6-1.4.6-3-.1-3.5-1.5-.2-.7-.1-1.5-.1-2.3s.1-1.5.2-2.2c.1-1.5.3-3 .4-4.5h-1.8-.8c-.5 0-.4 0-.4.5l-.3 3.1-.3 3.3c-.1 1.1-.3 2.3-.8 3.2-.5.7-1.5 1.1-2.2.5-.4-.3-.6-.7-.6-1.1 0-.6.3-1 .6-1.4.6-.9 1.2-1.8 1.6-2.8.4-1.1.6-2.2.7-3.4 0-.3.1-.6.1-1 0-.1.1-.7 0-.8s-.7 0-.8 0c-.3 0-.6 0-1 .1-.5.1-.9.4-1.2.8-.2.3-.3.6-.5.8-.2.3-.3.2-.6.2.4-1.1.8-2.9 2-3.4s2.9-.5 4.3-.5h4.8 1.2c.1 0 1-.1 1 0 .1.1 0 .9 0 1.1v.7z"/><path id="g" d="M655.7 364.6h-11.4c-.1 0-.2.1-.2.2v7.7c0 .1.1.2.2.2h11.3c.1 0 .2-.1.2-.2v-7.7c.1-.1 0-.2-.1-.2zm-10.9 7.5v-6.9h10.4l-10.4 6.9z"/><path id="h" d="M624.7 358.3c-6.3 0-11.4 5.1-11.4 11.4s5.1 11.3 11.4 11.3 11.4-5.1 11.4-11.4c-.1-6.3-5.2-11.3-11.4-11.3zm6.2 7.4h-2.3c-.2 0-.7-.1-.8 0s0 .9 0 1.1c-.1 1.4-.3 2.8-.4 4.2 0 1-.2 2.8 1 3.3.5.2 1.1.1 1.5-.3.2-.2.4-.5.4-.8 0-.1 0-.4.1-.5s.4 0 .5 0c0 1.4-.7 3.1-2 3.6-1.4.6-3-.1-3.5-1.5-.2-.7-.1-1.5-.1-2.3s.1-1.5.2-2.2c.1-1.5.3-3 .4-4.5h-1.8-.8c-.5 0-.4 0-.4.5l-.3 3.1-.3 3.3c-.1 1.1-.3 2.3-.8 3.2-.5.7-1.5 1.1-2.2.5-.4-.3-.6-.7-.6-1.1 0-.6.3-1 .6-1.4.6-.9 1.2-1.8 1.6-2.8.4-1.1.6-2.2.7-3.4 0-.3.1-.6.1-1 0-.1.1-.7 0-.8s-.7 0-.8 0c-.3 0-.6 0-1 .1-.5.1-.9.4-1.2.8-.2.3-.3.6-.5.8-.2.3-.3.2-.6.2.4-1.1.8-2.9 2-3.4 1.3-.6 2.9-.5 4.3-.5h4.8 1.2c.1 0 1-.1 1 0 .1.1 0 .9 0 1.1 0 0 0 .3 0 .7z"/><path id="i" d="M859.5 364.6h-11.3c-.1 0-.2.1-.2.2v7.7c0 .1.1.2.2.2h11.3c.1 0 .2-.1.2-.2v-7.7c0-.1-.1-.2-.2-.2zm-10.8 7.5v-6.9H859l-10.3 6.9z"/><path id="j" d="M910.5 364.6h-11.3c-.1 0-.2.1-.2.2v7.7c0 .1.1.2.2.2h11.3c.1 0 .2-.1.2-.2v-7.7c0-.1-.1-.2-.2-.2zm-10.8 7.5v-6.9H910l-10.3 6.9z"/><path id="k" d="M961.5 364.6h-11.3c-.1 0-.2.1-.2.2v7.7c0 .1.1.2.2.2h11.3c.1 0 .2-.1.2-.2v-7.7c0-.1-.1-.2-.2-.2zm-10.9 7.5v-6.9H961l-10.4 6.9z"/><path id="l" d="M1165.4 364.6H1154c-.1 0-.2.1-.2.2v7.7c0 .1.1.2.2.2h11.3c.1 0 .2-.1.2-.2v-7.7c0-.1 0-.2-.1-.2zm-10.9 7.5v-6.9h10.4l-10.4 6.9z"/></defs></svg>