<svg xmlns="http://www.w3.org/2000/svg" xmlns:xlink="http://www.w3.org/1999/xlink" viewBox="0 355.2 1172.8 81.7" xmlns:v="https://vecta.io/nano"><path fill="#aed2e9" d="M612 355.2h-51.2H0v81.6h560.8H612h560.8v-81.6z"/><g fill="#bddaef"><use xlink:href="#B"/><use xlink:href="#B" y="1.7"/><use xlink:href="#C"/><use xlink:href="#D"/><use xlink:href="#E"/><use xlink:href="#B" y="-6"/><use xlink:href="#F"/><path d="M38.4 358.3a11.29 11.29 0 0 0-11.3 11.3c0 6.2 5 11.2 11.2 11.2s11.2-5 11.2-11.2c.1-6.3-4.9-11.3-11.1-11.3zm5.6 17.9c-1 0-1.7-.8-1.7-1.7 0-.6.3-1.1.8-1.4l-1.3-2.6c-.2.1-.4.1-.6.1s-.4 0-.6-.1l-1.3 2.5c.5.3.8.8.8 1.4 0 1-.8 1.7-1.7 1.7-1 0-1.7-.8-1.7-1.7a1.75 1.75 0 0 1 .7-1.4l-1.4-2.6c-.2.1-.4.1-.6.1-.1 0-.3 0-.5-.1l-1.3 2.5a1.75 1.75 0 0 1 .7 1.4c0 1-.8 1.7-1.7 1.7-1 0-1.7-.8-1.7-1.7 0-1 .8-1.7 1.7-1.7.2 0 .4 0 .6.1l1.3-2.5c-.5-.3-.8-.8-.8-1.5 0-1 .8-1.7 1.7-1.7.3 0 .5.1.7.1l1.3-2.6a1.75 1.75 0 0 1-.7-1.4c0-1 .8-1.7 1.7-1.7 1 0 1.7.8 1.7 1.7 0 .6-.3 1.1-.8 1.4l1.3 2.5c.2-.1.3-.1.5-.1 1 0 1.7.8 1.7 1.7a1.75 1.75 0 0 1-.7 1.4l1.3 2.6c.2-.1.4-.1.6-.1 1 0 1.7.8 1.7 1.7.1 1.2-.7 2-1.7 2z"/><use xlink:href="#B" x="51"/><use xlink:href="#B" x="51" y="1.7"/><use xlink:href="#C" x="51"/><use xlink:href="#G"/><use xlink:href="#H"/><use xlink:href="#B" x="51" y="-6"/><use xlink:href="#I"/><path d="M89.3 358.3A11.29 11.29 0 0 0 78 369.6c0 6.2 5 11.2 11.2 11.2s11.2-5 11.2-11.2c.2-6.3-4.8-11.3-11.1-11.3zm5.8 17.9c-1 0-1.7-.8-1.7-1.7 0-.6.3-1.1.8-1.4l-1.3-2.6c-.2.1-.4.1-.6.1s-.4 0-.6-.1l-1.3 2.5c.5.3.8.8.8 1.4 0 1-.8 1.7-1.7 1.7-1 0-1.7-.8-1.7-1.7a1.75 1.75 0 0 1 .7-1.4l-1.4-2.6c-.2.1-.4.1-.6.1-.1 0-.3 0-.5-.1l-1.3 2.5a1.75 1.75 0 0 1 .7 1.4c0 1-.8 1.7-1.7 1.7-1 0-1.7-.8-1.7-1.7 0-1 .8-1.7 1.7-1.7.2 0 .4 0 .6.1l1.3-2.5c-.5-.3-.8-.8-.8-1.5 0-1 .8-1.7 1.7-1.7.3 0 .5.1.7.1l1.3-2.6a1.75 1.75 0 0 1-.7-1.4c0-1 .8-1.7 1.7-1.7s1.7.8 1.7 1.7c0 .6-.3 1.1-.8 1.4l1.3 2.5c.2-.1.3-.1.5-.1 1 0 1.7.8 1.7 1.7a1.75 1.75 0 0 1-.7 1.4l1.3 2.6c.2-.1.4-.1.6-.1 1 0 1.7.8 1.7 1.7 0 1.2-.8 2-1.7 2z"/><use xlink:href="#B" x="102"/><use xlink:href="#B" x="102" y="1.7"/><use xlink:href="#J"/><use xlink:href="#G" x="51"/><use xlink:href="#K"/><use xlink:href="#B" x="102" y="-6"/><use xlink:href="#F" x="101.9"/><path d="M140.3 358.3a11.29 11.29 0 0 0-11.3 11.3c0 6.2 5 11.2 11.2 11.2s11.2-5 11.2-11.2c.2-6.3-4.9-11.3-11.1-11.3zm5.7 17.9c-1 0-1.7-.8-1.7-1.7 0-.6.3-1.1.8-1.4l-1.3-2.6c-.2.1-.4.1-.6.1s-.4 0-.6-.1l-1.3 2.5c.5.3.8.8.8 1.4 0 1-.8 1.7-1.7 1.7s-1.7-.8-1.7-1.7a1.75 1.75 0 0 1 .7-1.4l-1.4-2.6c-.2.1-.4.1-.6.1-.1 0-.3 0-.5-.1l-1.3 2.5a1.75 1.75 0 0 1 .7 1.4c0 1-.8 1.7-1.7 1.7s-1.7-.8-1.7-1.7c0-1 .8-1.7 1.7-1.7.2 0 .4 0 .6.1l1.3-2.5c-.5-.3-.8-.8-.8-1.5 0-1 .8-1.7 1.7-1.7.3 0 .5.1.7.1l1.3-2.6a1.75 1.75 0 0 1-.7-1.4c0-1 .8-1.7 1.7-1.7s1.7.8 1.7 1.7c0 .6-.3 1.1-.8 1.4l1.3 2.5c.2-.1.3-.1.5-.1 1 0 1.7.8 1.7 1.7a1.75 1.75 0 0 1-.7 1.4l1.3 2.6c.2-.1.4-.1.6-.1 1 0 1.7.8 1.7 1.7.1 1.2-.7 2-1.7 2z"/><use xlink:href="#B" x="153"/><use xlink:href="#B" x="153" y="1.7"/><use xlink:href="#L"/><use xlink:href="#G" x="102"/><use xlink:href="#M"/><use xlink:href="#B" x="153" y="-6"/><use xlink:href="#N"/><path d="M191.3 358.3a11.29 11.29 0 0 0-11.3 11.3c0 6.2 5 11.2 11.2 11.2s11.2-5 11.2-11.2c.2-6.3-4.8-11.3-11.1-11.3zm5.7 17.9c-1 0-1.7-.8-1.7-1.7 0-.6.3-1.1.8-1.4l-1.3-2.6c-.2.1-.4.1-.6.1s-.4 0-.6-.1l-1.3 2.5c.5.3.8.8.8 1.4 0 1-.8 1.7-1.7 1.7s-1.7-.8-1.7-1.7a1.75 1.75 0 0 1 .7-1.4l-1.4-2.6c-.2.1-.4.1-.6.1-.1 0-.3 0-.5-.1l-1.3 2.5a1.75 1.75 0 0 1 .7 1.4c0 1-.8 1.7-1.7 1.7s-1.7-.8-1.7-1.7c0-1 .8-1.7 1.7-1.7.2 0 .4 0 .6.1l1.3-2.5c-.5-.3-.8-.8-.8-1.5 0-1 .8-1.7 1.7-1.7.3 0 .5.1.7.1l1.3-2.6a1.75 1.75 0 0 1-.7-1.4c0-1 .8-1.7 1.7-1.7 1 0 1.7.8 1.7 1.7 0 .6-.3 1.1-.8 1.4l1.3 2.5c.2-.1.3-.1.5-.1 1 0 1.7.8 1.7 1.7a1.75 1.75 0 0 1-.7 1.4l1.3 2.6c.2-.1.4-.1.6-.1 1 0 1.7.8 1.7 1.7.1 1.2-.7 2-1.7 2z"/><use xlink:href="#B" x="204"/><use xlink:href="#B" x="204" y="1.7"/><use xlink:href="#C" x="203.9"/><use xlink:href="#G" x="152.9"/><use xlink:href="#O"/><use xlink:href="#B" x="204" y="-6"/><use xlink:href="#F" x="203.9"/><path d="M242.3 358.3a11.29 11.29 0 0 0-11.3 11.3c0 6.2 5 11.2 11.2 11.2s11.2-5 11.2-11.2c.2-6.3-4.9-11.3-11.1-11.3zm5.7 17.9c-1 0-1.7-.8-1.7-1.7 0-.6.3-1.1.8-1.4l-1.3-2.6c-.2.1-.4.1-.6.1s-.4 0-.6-.1l-1.3 2.5c.5.3.8.8.8 1.4 0 1-.8 1.7-1.7 1.7-1 0-1.7-.8-1.7-1.7a1.75 1.75 0 0 1 .7-1.4l-1.4-2.6c-.2.1-.4.1-.6.1-.1 0-.3 0-.5-.1l-1.3 2.5a1.75 1.75 0 0 1 .7 1.4c0 1-.8 1.7-1.7 1.7-1 0-1.7-.8-1.7-1.7 0-1 .8-1.7 1.7-1.7.2 0 .4 0 .6.1l1.3-2.5c-.5-.3-.8-.8-.8-1.5 0-1 .8-1.7 1.7-1.7.3 0 .5.1.7.1l1.3-2.6a1.75 1.75 0 0 1-.7-1.4c0-1 .8-1.7 1.7-1.7 1 0 1.7.8 1.7 1.7 0 .6-.3 1.1-.8 1.4l1.3 2.5c.2-.1.3-.1.5-.1 1 0 1.7.8 1.7 1.7a1.75 1.75 0 0 1-.7 1.4l1.3 2.6c.2-.1.4-.1.6-.1 1 0 1.7.8 1.7 1.7 0 1.2-.7 2-1.7 2z"/><use xlink:href="#P"/><use xlink:href="#P" y="1.7"/><use xlink:href="#C" x="254.9"/><use xlink:href="#G" x="203.9"/><use xlink:href="#Q"/><use xlink:href="#P" y="-6"/><path d="M14.8 392.8l-1.3-2.5c-.2.1-.4.1-.6.1s-.4 0-.6-.1l-1.4 2.7a1.75 1.75 0 0 1 0 2.8l1.4 2.6c.2-.1.4-.1.6-.1s.4 0 .6.1l1.2-2.5c-.5-.3-.8-.8-.8-1.4.1-.9.4-1.4.9-1.7z"/><path d="M12.9 383.8c-6.2 0-11.2 5-11.2 11.2s5 11.2 11.2 11.2 11.2-5 11.2-11.2-5-11.2-11.2-11.2zm5.7 17.8c-1 0-1.7-.8-1.7-1.7 0-.6.3-1.1.8-1.4l-1.3-2.6c-.2.1-.4.1-.6.1s-.4 0-.6-.1l-1.3 2.5c.5.3.8.8.8 1.4 0 1-.8 1.7-1.7 1.7s-1.7-.8-1.7-1.7a1.75 1.75 0 0 1 .7-1.4l-1.4-2.6c-.2.1-.4.1-.6.1-.1 0-.3 0-.5-.1l-1.3 2.5a1.75 1.75 0 0 1 .7 1.4c0 1-.8 1.7-1.7 1.7s-1.7-.8-1.7-1.7c0-1 .8-1.7 1.7-1.7.2 0 .4 0 .6.1l1.3-2.5c-.5-.3-.8-.8-.8-1.5 0-1 .8-1.7 1.7-1.7.3 0 .5.1.7.1l1.3-2.6a1.75 1.75 0 0 1-.7-1.4c0-1 .8-1.7 1.7-1.7s1.7.8 1.7 1.7c0 .6-.3 1.1-.8 1.4l1.3 2.5c.2-.1.3-.1.5-.1 1 0 1.7.8 1.7 1.7a1.75 1.75 0 0 1-.7 1.4L18 398c.2-.1.4-.1.6-.1 1 0 1.7.8 1.7 1.7 0 1.3-.8 2-1.7 2z"/><use xlink:href="#B" x="25.5" y="25.5"/><use xlink:href="#B" x="25.5" y="27.2"/><use xlink:href="#C" x="25.5" y="25.5"/><use xlink:href="#G" x="-25.5" y="25.5"/><path d="M38.4 383.8c-6.2 0-11.2 5-11.2 11.2s5 11.2 11.2 11.2 11.2-5 11.2-11.2-5-11.2-11.2-11.2zm-.6 16.7c0 .5-.4.8-.8.8h-4c-.5 0-.8-.4-.8-.8v-4c0-.5.4-.8.8-.8h4c.5 0 .8.4.8.8v4zm0-6.9c0 .5-.4.8-.8.8h-4c-.5 0-.8-.4-.8-.8v-3.9c0-.5.4-.8.8-.8h4c.5 0 .8.4.8.8 0 0 0 3.9 0 3.9zm6.8 6.9c0 .5-.4.8-.8.8h-4c-.5 0-.8-.4-.8-.8v-4c0-.5.4-.8.8-.8h4c.5 0 .8.4.8.8v4zm0-6.9c0 .5-.4.8-.8.8h-4c-.5 0-.8-.4-.8-.8v-3.9c0-.5.4-.8.8-.8h4c.5 0 .8.4.8.8v3.9z"/><use xlink:href="#B" x="25.5" y="19.5"/><use xlink:href="#R"/><path d="M63.9 383.8a11.29 11.29 0 0 0-11.3 11.3c0 6.3 5 11.2 11.2 11.2s11.2-5 11.2-11.2c.1-6.3-4.9-11.3-11.1-11.3zm5.6 17.8c-1 0-1.7-.8-1.7-1.7 0-.6.3-1.1.8-1.4l-1.3-2.6c-.2.1-.4.1-.6.1s-.4 0-.6-.1l-1.3 2.5c.5.3.8.8.8 1.4 0 1-.8 1.7-1.7 1.7-1 0-1.7-.8-1.7-1.7a1.75 1.75 0 0 1 .7-1.4l-1.4-2.6c-.2.1-.4.1-.6.1-.1 0-.3 0-.5-.1l-1.3 2.5a1.75 1.75 0 0 1 .7 1.4c0 1-.8 1.7-1.7 1.7-1 0-1.7-.8-1.7-1.7 0-1 .8-1.7 1.7-1.7.2 0 .4 0 .6.1l1.3-2.5c-.5-.3-.8-.8-.8-1.5 0-1 .8-1.7 1.7-1.7.3 0 .5.1.7.1l1.3-2.6a1.75 1.75 0 0 1-.7-1.4c0-1 .8-1.7 1.7-1.7 1 0 1.7.8 1.7 1.7 0 .6-.3 1.1-.8 1.4l1.3 2.5c.2-.1.3-.1.5-.1 1 0 1.7.8 1.7 1.7a1.75 1.75 0 0 1-.7 1.4l1.3 2.6c.2-.1.4-.1.6-.1 1 0 1.7.8 1.7 1.7.1 1.3-.7 2-1.7 2z"/><use xlink:href="#B" x="76.5" y="25.5"/><use xlink:href="#B" x="76.5" y="27.2"/><use xlink:href="#C" x="76.5" y="25.5"/><use xlink:href="#S"/><use xlink:href="#T"/><use xlink:href="#B" x="76.5" y="19.5"/><use xlink:href="#U"/><use xlink:href="#V"/><use xlink:href="#B" x="127.5" y="25.5"/><use xlink:href="#B" x="127.5" y="27.2"/><use xlink:href="#L" x="-25.5" y="25.5"/><use xlink:href="#S" x="51"/><use xlink:href="#K" x="25.5" y="25.5"/><use xlink:href="#B" x="127.5" y="19.5"/><use xlink:href="#W"/><path d="M165.8 383.8a11.29 11.29 0 0 0-11.3 11.3c0 6.3 5 11.2 11.2 11.2s11.2-5 11.2-11.2c.2-6.3-4.9-11.3-11.1-11.3zm5.7 17.8c-1 0-1.7-.8-1.7-1.7 0-.6.3-1.1.8-1.4l-1.3-2.6c-.2.1-.4.1-.6.1s-.4 0-.6-.1l-1.3 2.5c.5.3.8.8.8 1.4 0 1-.8 1.7-1.7 1.7s-1.7-.8-1.7-1.7a1.75 1.75 0 0 1 .7-1.4l-1.4-2.6c-.2.1-.4.1-.6.1-.1 0-.3 0-.5-.1l-1.3 2.5a1.75 1.75 0 0 1 .7 1.4c0 1-.8 1.7-1.7 1.7s-1.7-.8-1.7-1.7c0-1 .8-1.7 1.7-1.7.2 0 .4 0 .6.1l1.3-2.5c-.5-.3-.8-.8-.8-1.5 0-1 .8-1.7 1.7-1.7.3 0 .5.1.7.1l1.3-2.6a1.75 1.75 0 0 1-.7-1.4c0-1 .8-1.7 1.7-1.7s1.7.8 1.7 1.7c0 .6-.3 1.1-.8 1.4l1.3 2.5c.2-.1.3-.1.5-.1 1 0 1.7.8 1.7 1.7a1.75 1.75 0 0 1-.7 1.4l1.3 2.6c.2-.1.4-.1.6-.1 1 0 1.7.8 1.7 1.7.1 1.3-.7 2-1.7 2z"/><use xlink:href="#B" x="178.5" y="25.5"/><use xlink:href="#B" x="178.5" y="27.2"/><use xlink:href="#X"/><use xlink:href="#S" x="102"/><use xlink:href="#O" x="-25.5" y="25.5"/><use xlink:href="#B" x="178.5" y="19.5"/><use xlink:href="#U" x="101.9"/><path d="M216.8 383.8a11.29 11.29 0 0 0-11.3 11.3c0 6.3 5 11.2 11.2 11.2s11.2-5 11.2-11.2c.2-6.3-4.9-11.3-11.1-11.3zm5.7 17.8c-1 0-1.7-.8-1.7-1.7 0-.6.3-1.1.8-1.4l-1.3-2.6c-.2.1-.4.1-.6.1s-.4 0-.6-.1l-1.3 2.5c.5.3.8.8.8 1.4 0 1-.8 1.7-1.7 1.7-1 0-1.7-.8-1.7-1.7a1.75 1.75 0 0 1 .7-1.4l-1.4-2.6c-.2.1-.4.1-.6.1-.1 0-.3 0-.5-.1l-1.3 2.5a1.75 1.75 0 0 1 .7 1.4c0 1-.8 1.7-1.7 1.7s-1.7-.8-1.7-1.7c0-1 .8-1.7 1.7-1.7.2 0 .4 0 .6.1l1.3-2.5c-.5-.3-.8-.8-.8-1.5 0-1 .8-1.7 1.7-1.7.3 0 .5.1.7.1l1.3-2.6a1.75 1.75 0 0 1-.7-1.4c0-1 .8-1.7 1.7-1.7 1 0 1.7.8 1.7 1.7 0 .6-.3 1.1-.8 1.4l1.3 2.5c.2-.1.3-.1.5-.1 1 0 1.7.8 1.7 1.7a1.75 1.75 0 0 1-.7 1.4l1.3 2.6c.2-.1.4-.1.6-.1 1 0 1.7.8 1.7 1.7 0 1.3-.7 2-1.7 2z"/><use xlink:href="#Y"/><use xlink:href="#Y" y="1.7"/><use xlink:href="#C" x="229.4" y="25.5"/><use xlink:href="#G" x="178.4" y="25.5"/><path d="M242.3 383.8c-6.2 0-11.2 5-11.2 11.2s5 11.2 11.2 11.2 11.2-5 11.2-11.2-5-11.2-11.2-11.2zm-.6 16.7c0 .5-.4.8-.8.8h-4c-.5 0-.8-.4-.8-.8v-4c0-.5.4-.8.8-.8h4c.5 0 .8.4.8.8v4zm0-6.9c0 .5-.4.8-.8.8h-4c-.5 0-.8-.4-.8-.8v-3.9c0-.5.4-.8.8-.8h4c.5 0 .8.4.8.8v3.9zm6.9 6.9c0 .5-.4.8-.8.8h-4c-.5 0-.8-.4-.8-.8v-4c0-.5.4-.8.8-.8h3.9c.5 0 .8.4.8.8l.1 4h0zm0-6.9c0 .5-.4.8-.8.8h-4c-.5 0-.8-.4-.8-.8v-3.9c0-.5.4-.8.8-.8h3.9c.5 0 .8.4.8.8l.1 3.9h0z"/><use xlink:href="#Y" y="-6"/><use xlink:href="#U" x="152.9"/><use xlink:href="#Z"/><use xlink:href="#B" y="51"/><use xlink:href="#B" y="52.7"/><use xlink:href="#C" y="51"/><use xlink:href="#D" y="51"/><use xlink:href="#E" y="51"/><use xlink:href="#B" y="45"/><use xlink:href="#U" x="-76.5" y="25.5"/><path d="M38.4 409.3a11.29 11.29 0 0 0-11.3 11.3c0 6.3 5 11.2 11.2 11.2s11.2-5 11.2-11.2c.1-6.3-4.9-11.3-11.1-11.3zm5.6 17.8c-1 0-1.7-.8-1.7-1.7 0-.6.3-1.1.8-1.4l-1.3-2.6c-.2.1-.4.1-.6.1s-.4 0-.6-.1l-1.3 2.5c.5.3.8.8.8 1.4 0 1-.8 1.7-1.7 1.7-1 0-1.7-.8-1.7-1.7a1.75 1.75 0 0 1 .7-1.4l-1.4-2.6c-.2.1-.4.1-.6.1-.1 0-.3 0-.5-.1l-1.3 2.5a1.75 1.75 0 0 1 .7 1.4c0 1-.8 1.7-1.7 1.7-1 0-1.7-.8-1.7-1.7s.8-1.7 1.7-1.7c.2 0 .4 0 .6.1l1.3-2.5c-.5-.3-.8-.8-.8-1.5 0-1 .8-1.7 1.7-1.7.3 0 .5.1.7.1l1.3-2.6a1.75 1.75 0 0 1-.7-1.4c0-1 .8-1.7 1.7-1.7 1 0 1.7.8 1.7 1.7 0 .6-.3 1.1-.8 1.4l1.3 2.5c.2-.1.3-.1.5-.1 1 0 1.7.8 1.7 1.7a1.75 1.75 0 0 1-.7 1.4l1.3 2.6c.2-.1.4-.1.6-.1 1 0 1.7.8 1.7 1.7.1 1.3-.7 2-1.7 2z"/><use xlink:href="#B" x="51" y="51"/><use xlink:href="#B" x="51" y="52.7"/><use xlink:href="#C" x="51" y="51"/><use xlink:href="#G" y="51"/><use xlink:href="#a"/><use xlink:href="#B" x="51" y="45"/><use xlink:href="#R" x="25.5" y="25.5"/><path d="M89.3 409.3A11.29 11.29 0 0 0 78 420.6c0 6.3 5 11.2 11.2 11.2s11.2-5 11.2-11.2c.2-6.3-4.8-11.3-11.1-11.3zm5.8 17.8c-1 0-1.7-.8-1.7-1.7 0-.6.3-1.1.8-1.4l-1.3-2.6c-.2.1-.4.1-.6.1s-.4 0-.6-.1l-1.3 2.5c.5.3.8.8.8 1.4 0 1-.8 1.7-1.7 1.7-1 0-1.7-.8-1.7-1.7a1.75 1.75 0 0 1 .7-1.4l-1.4-2.6c-.2.1-.4.1-.6.1-.1 0-.3 0-.5-.1l-1.3 2.5a1.75 1.75 0 0 1 .7 1.4c0 1-.8 1.7-1.7 1.7-1 0-1.7-.8-1.7-1.7s.8-1.7 1.7-1.7c.2 0 .4 0 .6.1l1.3-2.5c-.5-.3-.8-.8-.8-1.5 0-1 .8-1.7 1.7-1.7.3 0 .5.1.7.1l1.3-2.6a1.75 1.75 0 0 1-.7-1.4c0-1 .8-1.7 1.7-1.7 1 0 1.7.8 1.7 1.7 0 .6-.3 1.1-.8 1.4l1.3 2.5c.2-.1.3-.1.5-.1 1 0 1.7.8 1.7 1.7a1.75 1.75 0 0 1-.7 1.4l1.3 2.6c.2-.1.4-.1.6-.1 1 0 1.7.8 1.7 1.7 0 1.3-.8 2-1.7 2z"/><use xlink:href="#B" x="102" y="51"/><use xlink:href="#B" x="102" y="52.7"/><use xlink:href="#J" y="51"/><use xlink:href="#G" x="51" y="51"/><use xlink:href="#b"/><use xlink:href="#B" x="102" y="45"/><use xlink:href="#U" x="25.4" y="25.5"/><path d="M140.3 409.3a11.29 11.29 0 0 0-11.3 11.3c0 6.3 5 11.2 11.2 11.2s11.2-5 11.2-11.2c.2-6.3-4.9-11.3-11.1-11.3zm5.7 17.8c-1 0-1.7-.8-1.7-1.7 0-.6.3-1.1.8-1.4l-1.3-2.6c-.2.1-.4.1-.6.1s-.4 0-.6-.1l-1.3 2.5c.5.3.8.8.8 1.4 0 1-.8 1.7-1.7 1.7s-1.7-.8-1.7-1.7a1.75 1.75 0 0 1 .7-1.4l-1.4-2.6c-.2.1-.4.1-.6.1-.1 0-.3 0-.5-.1l-1.3 2.5a1.75 1.75 0 0 1 .7 1.4c0 1-.8 1.7-1.7 1.7s-1.7-.8-1.7-1.7.8-1.7 1.7-1.7c.2 0 .4 0 .6.1l1.3-2.5c-.5-.3-.8-.8-.8-1.5 0-1 .8-1.7 1.7-1.7.3 0 .5.1.7.1l1.3-2.6a1.75 1.75 0 0 1-.7-1.4c0-1 .8-1.7 1.7-1.7s1.7.8 1.7 1.7c0 .6-.3 1.1-.8 1.4l1.3 2.5c.2-.1.3-.1.5-.1 1 0 1.7.8 1.7 1.7a1.75 1.75 0 0 1-.7 1.4l1.3 2.6c.2-.1.4-.1.6-.1 1 0 1.7.8 1.7 1.7.1 1.3-.7 2-1.7 2z"/><use xlink:href="#B" x="153" y="51"/><use xlink:href="#B" x="153" y="52.7"/><use xlink:href="#L" y="51"/><use xlink:href="#G" x="102" y="51"/><use xlink:href="#c"/><use xlink:href="#B" x="153" y="45"/><use xlink:href="#W" x="25.5" y="25.5"/><path d="M191.3 409.3a11.29 11.29 0 0 0-11.3 11.3c0 6.3 5 11.2 11.2 11.2s11.2-5 11.2-11.2c.2-6.3-4.8-11.3-11.1-11.3zm5.7 17.8c-1 0-1.7-.8-1.7-1.7 0-.6.3-1.1.8-1.4l-1.3-2.6c-.2.1-.4.1-.6.1s-.4 0-.6-.1l-1.3 2.5c.5.3.8.8.8 1.4 0 1-.8 1.7-1.7 1.7s-1.7-.8-1.7-1.7a1.75 1.75 0 0 1 .7-1.4l-1.4-2.6c-.2.1-.4.1-.6.1-.1 0-.3 0-.5-.1l-1.3 2.5a1.75 1.75 0 0 1 .7 1.4c0 1-.8 1.7-1.7 1.7s-1.7-.8-1.7-1.7.8-1.7 1.7-1.7c.2 0 .4 0 .6.1l1.3-2.5c-.5-.3-.8-.8-.8-1.5 0-1 .8-1.7 1.7-1.7.3 0 .5.1.7.1l1.3-2.6a1.75 1.75 0 0 1-.7-1.4c0-1 .8-1.7 1.7-1.7 1 0 1.7.8 1.7 1.7 0 .6-.3 1.1-.8 1.4l1.3 2.5c.2-.1.3-.1.5-.1 1 0 1.7.8 1.7 1.7a1.75 1.75 0 0 1-.7 1.4l1.3 2.6c.2-.1.4-.1.6-.1 1 0 1.7.8 1.7 1.7.1 1.3-.7 2-1.7 2z"/><use xlink:href="#B" x="204" y="51"/><use xlink:href="#B" x="204" y="52.7"/><use xlink:href="#C" x="203.9" y="51"/><use xlink:href="#G" x="152.9" y="51"/><use xlink:href="#O" y="51"/><use xlink:href="#B" x="204" y="45"/><use xlink:href="#U" x="127.4" y="25.5"/><path d="M242.3 409.3a11.29 11.29 0 0 0-11.3 11.3c0 6.3 5 11.2 11.2 11.2s11.2-5 11.2-11.2c.2-6.3-4.9-11.3-11.1-11.3zm5.7 17.8c-1 0-1.7-.8-1.7-1.7 0-.6.3-1.1.8-1.4l-1.3-2.6c-.2.1-.4.1-.6.1s-.4 0-.6-.1l-1.3 2.5c.5.3.8.8.8 1.4 0 1-.8 1.7-1.7 1.7-1 0-1.7-.8-1.7-1.7a1.75 1.75 0 0 1 .7-1.4l-1.4-2.6c-.2.1-.4.1-.6.1-.1 0-.3 0-.5-.1l-1.3 2.5a1.75 1.75 0 0 1 .7 1.4c0 1-.8 1.7-1.7 1.7-1 0-1.7-.8-1.7-1.7s.8-1.7 1.7-1.7c.2 0 .4 0 .6.1l1.3-2.5c-.5-.3-.8-.8-.8-1.5 0-1 .8-1.7 1.7-1.7.3 0 .5.1.7.1l1.3-2.6a1.75 1.75 0 0 1-.7-1.4c0-1 .8-1.7 1.7-1.7 1 0 1.7.8 1.7 1.7 0 .6-.3 1.1-.8 1.4l1.3 2.5c.2-.1.3-.1.5-.1 1 0 1.7.8 1.7 1.7a1.75 1.75 0 0 1-.7 1.4l1.3 2.6c.2-.1.4-.1.6-.1 1 0 1.7.8 1.7 1.7 0 1.3-.7 2-1.7 2z"/><use xlink:href="#P" y="51"/><use xlink:href="#P" y="52.7"/><use xlink:href="#C" x="254.9" y="51"/><use xlink:href="#G" x="203.9" y="51"/><use xlink:href="#Q" y="51"/><use xlink:href="#P" y="45"/><use xlink:href="#F" x="254.9"/><path d="M293.3 358.3a11.29 11.29 0 0 0-11.3 11.3c0 6.2 5 11.2 11.2 11.2s11.2-5 11.2-11.2c.1-6.3-4.9-11.3-11.1-11.3zm5.7 17.9c-1 0-1.7-.8-1.7-1.7 0-.6.3-1.1.8-1.4l-1.3-2.6c-.2.1-.4.1-.6.1s-.4 0-.6-.1l-1.3 2.5c.5.3.8.8.8 1.4 0 1-.8 1.7-1.7 1.7-1 0-1.7-.8-1.7-1.7a1.75 1.75 0 0 1 .7-1.4l-1.4-2.6c-.2.1-.4.1-.6.1-.1 0-.3 0-.5-.1l-1.3 2.5a1.75 1.75 0 0 1 .7 1.4c0 1-.8 1.7-1.7 1.7-1 0-1.7-.8-1.7-1.7 0-1 .8-1.7 1.7-1.7.2 0 .4 0 .6.1l1.3-2.5c-.5-.3-.8-.8-.8-1.5 0-1 .8-1.7 1.7-1.7.3 0 .5.1.7.1l1.3-2.6a1.75 1.75 0 0 1-.7-1.4c0-1 .8-1.7 1.7-1.7s1.7.8 1.7 1.7c0 .6-.3 1.1-.8 1.4l1.3 2.5c.2-.1.3-.1.5-.1 1 0 1.7.8 1.7 1.7a1.75 1.75 0 0 1-.7 1.4l1.3 2.6c.2-.1.4-.1.6-.1 1 0 1.7.8 1.7 1.7 0 1.2-.8 2-1.7 2z"/><use xlink:href="#B" x="305.9"/><use xlink:href="#B" x="305.9" y="1.7"/><use xlink:href="#C" x="305.9"/><use xlink:href="#G" x="254.9"/><use xlink:href="#d"/><use xlink:href="#B" x="305.9" y="-6"/><use xlink:href="#F" x="305.9"/><path d="M344.3 358.3a11.29 11.29 0 0 0-11.3 11.3c0 6.2 5 11.2 11.2 11.2s11.2-5 11.2-11.2c.1-6.3-4.9-11.3-11.1-11.3zm5.7 17.9c-1 0-1.7-.8-1.7-1.7 0-.6.3-1.1.8-1.4l-1.3-2.6c-.2.1-.4.1-.6.1s-.4 0-.6-.1l-1.3 2.5c.5.3.8.8.8 1.4 0 1-.8 1.7-1.7 1.7-1 0-1.7-.8-1.7-1.7a1.75 1.75 0 0 1 .7-1.4l-1.4-2.6c-.2.1-.4.1-.6.1-.1 0-.3 0-.5-.1l-1.3 2.5a1.75 1.75 0 0 1 .7 1.4c0 1-.8 1.7-1.7 1.7-1 0-1.7-.8-1.7-1.7 0-1 .8-1.7 1.7-1.7.2 0 .4 0 .6.1l1.3-2.5c-.5-.3-.8-.8-.8-1.5 0-1 .8-1.7 1.7-1.7.3 0 .5.1.7.1l1.3-2.6a1.75 1.75 0 0 1-.7-1.4c0-1 .8-1.7 1.7-1.7 1 0 1.7.8 1.7 1.7 0 .6-.3 1.1-.8 1.4l1.3 2.5c.2-.1.3-.1.5-.1 1 0 1.7.8 1.7 1.7a1.75 1.75 0 0 1-.7 1.4l1.3 2.6c.2-.1.4-.1.6-.1 1 0 1.7.8 1.7 1.7 0 1.2-.8 2-1.7 2z"/><use xlink:href="#B" x="356.9"/><use xlink:href="#B" x="356.9" y="1.7"/><use xlink:href="#C" x="356.9"/><use xlink:href="#G" x="305.9"/><use xlink:href="#H" x="305.9"/><use xlink:href="#B" x="356.9" y="-6"/><use xlink:href="#F" x="356.9"/><path d="M395.2 358.3a11.29 11.29 0 0 0-11.3 11.3c0 6.2 5 11.2 11.2 11.2s11.2-5 11.2-11.2c.2-6.3-4.8-11.3-11.1-11.3zm5.8 17.9c-1 0-1.7-.8-1.7-1.7 0-.6.3-1.1.8-1.4l-1.3-2.6c-.2.1-.4.1-.6.1s-.4 0-.6-.1l-1.3 2.5c.5.3.8.8.8 1.4 0 1-.8 1.7-1.7 1.7s-1.7-.8-1.7-1.7a1.75 1.75 0 0 1 .7-1.4l-1.4-2.6c-.2.1-.4.1-.6.1-.1 0-.3 0-.5-.1l-1.3 2.5a1.75 1.75 0 0 1 .7 1.4c0 1-.8 1.7-1.7 1.7s-1.7-.8-1.7-1.7c0-1 .8-1.7 1.7-1.7.2 0 .4 0 .6.1l1.3-2.5c-.5-.3-.8-.8-.8-1.5 0-1 .8-1.7 1.7-1.7.3 0 .5.1.7.1l1.3-2.6a1.75 1.75 0 0 1-.7-1.4c0-1 .8-1.7 1.7-1.7s1.7.8 1.7 1.7c0 .6-.3 1.1-.8 1.4l1.3 2.5c.2-.1.3-.1.5-.1 1 0 1.7.8 1.7 1.7a1.75 1.75 0 0 1-.7 1.4l1.3 2.6c.2-.1.4-.1.6-.1 1 0 1.7.8 1.7 1.7 0 1.2-.8 2-1.7 2z"/><use xlink:href="#B" x="407.9"/><use xlink:href="#B" x="407.9" y="1.7"/><use xlink:href="#C" x="407.9"/><use xlink:href="#G" x="356.9"/><use xlink:href="#e"/><use xlink:href="#B" x="407.9" y="-6"/><use xlink:href="#N" x="254.9"/><path d="M446.3 358.3a11.29 11.29 0 0 0-11.3 11.3c0 6.2 5 11.2 11.2 11.2s11.2-5 11.2-11.2c.1-6.3-5-11.3-11.1-11.3zm5.6 17.9c-1 0-1.7-.8-1.7-1.7 0-.6.3-1.1.8-1.4l-1.3-2.6c-.2.1-.4.1-.6.1s-.4 0-.6-.1l-1.3 2.5c.5.3.8.8.8 1.4 0 1-.8 1.7-1.7 1.7s-1.7-.8-1.7-1.7a1.75 1.75 0 0 1 .7-1.4l-1.4-2.6c-.2.1-.4.1-.6.1-.1 0-.3 0-.5-.1l-1.3 2.5a1.75 1.75 0 0 1 .7 1.4c0 1-.8 1.7-1.7 1.7-1 0-1.7-.8-1.7-1.7 0-1 .8-1.7 1.7-1.7.2 0 .4 0 .6.1l1.3-2.5c-.5-.3-.8-.8-.8-1.5 0-1 .8-1.7 1.7-1.7.3 0 .5.1.7.1l1.3-2.6a1.75 1.75 0 0 1-.7-1.4c0-1 .8-1.7 1.7-1.7 1 0 1.7.8 1.7 1.7 0 .6-.3 1.1-.8 1.4l1.3 2.5c.2-.1.3-.1.5-.1 1 0 1.7.8 1.7 1.7a1.75 1.75 0 0 1-.7 1.4l1.3 2.6c.2-.1.4-.1.6-.1 1 0 1.7.8 1.7 1.7.1 1.2-.7 2-1.7 2z"/><use xlink:href="#B" x="458.9"/><use xlink:href="#B" x="458.9" y="1.7"/><use xlink:href="#C" x="458.9"/><use xlink:href="#G" x="407.9"/><use xlink:href="#K" x="356.9"/><use xlink:href="#B" x="458.9" y="-6"/><use xlink:href="#N" x="305.9"/><path d="M497.2 358.3a11.29 11.29 0 0 0-11.3 11.3c0 6.2 5 11.2 11.2 11.2s11.2-5 11.2-11.2c.2-6.3-4.8-11.3-11.1-11.3zm5.7 17.9c-1 0-1.7-.8-1.7-1.7 0-.6.3-1.1.8-1.4l-1.3-2.6c-.2.1-.4.1-.6.1s-.4 0-.6-.1l-1.3 2.5c.5.3.8.8.8 1.4 0 1-.8 1.7-1.7 1.7s-1.7-.8-1.7-1.7a1.75 1.75 0 0 1 .7-1.4l-1.4-2.6c-.2.1-.4.1-.6.1-.1 0-.3 0-.5-.1l-1.3 2.5a1.75 1.75 0 0 1 .7 1.4c0 1-.8 1.7-1.7 1.7s-1.7-.8-1.7-1.7c0-1 .8-1.7 1.7-1.7.2 0 .4 0 .6.1l1.3-2.5c-.5-.3-.8-.8-.8-1.5 0-1 .8-1.7 1.7-1.7.3 0 .5.1.7.1l1.3-2.6a1.75 1.75 0 0 1-.7-1.4c0-1 .8-1.7 1.7-1.7s1.7.8 1.7 1.7c0 .6-.3 1.1-.8 1.4l1.3 2.5c.2-.1.3-.1.5-.1 1 0 1.7.8 1.7 1.7a1.75 1.75 0 0 1-.7 1.4l1.3 2.6c.2-.1.4-.1.6-.1 1 0 1.7.8 1.7 1.7.1 1.2-.7 2-1.7 2z"/><use xlink:href="#B" x="509.9"/><use xlink:href="#B" x="509.9" y="1.7"/><use xlink:href="#C" x="509.8"/><use xlink:href="#G" x="458.8"/><use xlink:href="#O" x="305.9"/><use xlink:href="#B" x="509.9" y="-6"/><use xlink:href="#f"/><use xlink:href="#f" y="1.7"/><use xlink:href="#C" x="280.4" y="25.5"/><use xlink:href="#G" x="229.4" y="25.5"/><use xlink:href="#Q" x="25.5" y="25.5"/><use xlink:href="#f" y="-6"/><use xlink:href="#U" x="203.9"/><path d="M318.8 383.8a11.29 11.29 0 0 0-11.3 11.3c0 6.3 5 11.2 11.2 11.2s11.2-5 11.2-11.2c.1-6.3-4.9-11.3-11.1-11.3zm5.7 17.8c-1 0-1.7-.8-1.7-1.7 0-.6.3-1.1.8-1.4l-1.3-2.6c-.2.1-.4.1-.6.1s-.4 0-.6-.1l-1.3 2.5c.5.3.8.8.8 1.4 0 1-.8 1.7-1.7 1.7s-1.7-.8-1.7-1.7a1.75 1.75 0 0 1 .7-1.4l-1.4-2.6c-.2.1-.4.1-.6.1-.1 0-.3 0-.5-.1l-1.3 2.5a1.75 1.75 0 0 1 .7 1.4c0 1-.8 1.7-1.7 1.7s-1.7-.8-1.7-1.7c0-1 .8-1.7 1.7-1.7.2 0 .4 0 .6.1l1.3-2.5c-.5-.3-.8-.8-.8-1.5 0-1 .8-1.7 1.7-1.7.3 0 .5.1.7.1l1.3-2.6a1.75 1.75 0 0 1-.7-1.4c0-1 .8-1.7 1.7-1.7 1 0 1.7.8 1.7 1.7 0 .6-.3 1.1-.8 1.4l1.3 2.5c.2-.1.3-.1.5-.1 1 0 1.7.8 1.7 1.7a1.75 1.75 0 0 1-.7 1.4l1.3 2.6c.2-.1.4-.1.6-.1 1 0 1.7.8 1.7 1.7 0 1.3-.8 2-1.7 2z"/><use xlink:href="#g"/><use xlink:href="#g" y="1.7"/><use xlink:href="#C" x="331.4" y="25.5"/><use xlink:href="#G" x="280.4" y="25.5"/><use xlink:href="#Q" x="76.5" y="25.5"/><use xlink:href="#g" y="-6"/><use xlink:href="#R" x="305.9"/><use xlink:href="#h"/><use xlink:href="#i"/><use xlink:href="#i" y="1.7"/><use xlink:href="#C" x="382.4" y="25.5"/><use xlink:href="#G" x="331.4" y="25.5"/><use xlink:href="#K" x="280.4" y="25.5"/><use xlink:href="#i" y="-6"/><use xlink:href="#U" x="305.9"/><use xlink:href="#j"/><use xlink:href="#k"/><use xlink:href="#k" y="1.7"/><use xlink:href="#C" x="433.4" y="25.5"/><use xlink:href="#G" x="382.4" y="25.5"/><use xlink:href="#K" x="331.4" y="25.5"/><use xlink:href="#k" y="-6"/><use xlink:href="#W" x="305.9"/><use xlink:href="#V" x="356.9"/><use xlink:href="#l"/><use xlink:href="#l" y="1.7"/><use xlink:href="#X" x="305.9"/><use xlink:href="#G" x="433.4" y="25.5"/><use xlink:href="#O" x="280.4" y="25.5"/><use xlink:href="#l" y="-6"/><use xlink:href="#U" x="407.8"/><path d="M522.7 383.8a11.29 11.29 0 0 0-11.3 11.3c0 6.3 5 11.2 11.2 11.2s11.2-5 11.2-11.2c.2-6.3-4.9-11.3-11.1-11.3zm5.7 17.8c-1 0-1.7-.8-1.7-1.7 0-.6.3-1.1.8-1.4l-1.3-2.6c-.2.1-.4.1-.6.1s-.4 0-.6-.1l-1.3 2.5c.5.3.8.8.8 1.4 0 1-.8 1.7-1.7 1.7s-1.7-.8-1.7-1.7a1.75 1.75 0 0 1 .7-1.4l-1.4-2.6c-.2.1-.4.1-.6.1-.1 0-.3 0-.5-.1l-1.3 2.5a1.75 1.75 0 0 1 .7 1.4c0 1-.8 1.7-1.7 1.7s-1.7-.8-1.7-1.7c0-1 .8-1.7 1.7-1.7.2 0 .4 0 .6.1l1.3-2.5c-.5-.3-.8-.8-.8-1.5 0-1 .8-1.7 1.7-1.7.3 0 .5.1.7.1l1.3-2.6a1.75 1.75 0 0 1-.7-1.4c0-1 .8-1.7 1.7-1.7s1.7.8 1.7 1.7c0 .6-.3 1.1-.8 1.4l1.3 2.5c.2-.1.3-.1.5-.1 1 0 1.7.8 1.7 1.7a1.75 1.75 0 0 1-.7 1.4l1.3 2.6c.2-.1.4-.1.6-.1 1 0 1.7.8 1.7 1.7 0 1.3-.7 2-1.7 2z"/><use xlink:href="#U" x="178.4" y="25.5"/><path d="M293.3 409.3a11.29 11.29 0 0 0-11.3 11.3c0 6.3 5 11.2 11.2 11.2s11.2-5 11.2-11.2c.1-6.3-4.9-11.3-11.1-11.3zm5.7 17.8c-1 0-1.7-.8-1.7-1.7 0-.6.3-1.1.8-1.4l-1.3-2.6c-.2.1-.4.1-.6.1s-.4 0-.6-.1l-1.3 2.5c.5.3.8.8.8 1.4 0 1-.8 1.7-1.7 1.7-1 0-1.7-.8-1.7-1.7a1.75 1.75 0 0 1 .7-1.4l-1.4-2.6c-.2.1-.4.1-.6.1-.1 0-.3 0-.5-.1l-1.3 2.5a1.75 1.75 0 0 1 .7 1.4c0 1-.8 1.7-1.7 1.7-1 0-1.7-.8-1.7-1.7s.8-1.7 1.7-1.7c.2 0 .4 0 .6.1l1.3-2.5c-.5-.3-.8-.8-.8-1.5 0-1 .8-1.7 1.7-1.7.3 0 .5.1.7.1l1.3-2.6a1.75 1.75 0 0 1-.7-1.4c0-1 .8-1.7 1.7-1.7s1.7.8 1.7 1.7c0 .6-.3 1.1-.8 1.4l1.3 2.5c.2-.1.3-.1.5-.1 1 0 1.7.8 1.7 1.7a1.75 1.75 0 0 1-.7 1.4l1.3 2.6c.2-.1.4-.1.6-.1 1 0 1.7.8 1.7 1.7 0 1.3-.8 2-1.7 2z"/><use xlink:href="#B" x="305.9" y="51"/><use xlink:href="#B" x="305.9" y="52.7"/><use xlink:href="#C" x="305.9" y="51"/><use xlink:href="#G" x="254.9" y="51"/><use xlink:href="#d" y="51"/><use xlink:href="#B" x="305.9" y="45"/><use xlink:href="#U" x="229.4" y="25.5"/><path d="M344.3 409.3a11.29 11.29 0 0 0-11.3 11.3c0 6.3 5 11.2 11.2 11.2s11.2-5 11.2-11.2c.1-6.3-4.9-11.3-11.1-11.3zm5.7 17.8c-1 0-1.7-.8-1.7-1.7 0-.6.3-1.1.8-1.4l-1.3-2.6c-.2.1-.4.1-.6.1s-.4 0-.6-.1l-1.3 2.5c.5.3.8.8.8 1.4 0 1-.8 1.7-1.7 1.7-1 0-1.7-.8-1.7-1.7a1.75 1.75 0 0 1 .7-1.4l-1.4-2.6c-.2.1-.4.1-.6.1-.1 0-.3 0-.5-.1l-1.3 2.5a1.75 1.75 0 0 1 .7 1.4c0 1-.8 1.7-1.7 1.7-1 0-1.7-.8-1.7-1.7s.8-1.7 1.7-1.7c.2 0 .4 0 .6.1l1.3-2.5c-.5-.3-.8-.8-.8-1.5 0-1 .8-1.7 1.7-1.7.3 0 .5.1.7.1l1.3-2.6a1.75 1.75 0 0 1-.7-1.4c0-1 .8-1.7 1.7-1.7 1 0 1.7.8 1.7 1.7 0 .6-.3 1.1-.8 1.4l1.3 2.5c.2-.1.3-.1.5-.1 1 0 1.7.8 1.7 1.7a1.75 1.75 0 0 1-.7 1.4l1.3 2.6c.2-.1.4-.1.6-.1 1 0 1.7.8 1.7 1.7 0 1.3-.8 2-1.7 2z"/><use xlink:href="#B" x="356.9" y="51"/><use xlink:href="#B" x="356.9" y="52.7"/><use xlink:href="#C" x="356.9" y="51"/><use xlink:href="#G" x="305.9" y="51"/><use xlink:href="#a" x="305.9"/><use xlink:href="#B" x="356.9" y="45"/><use xlink:href="#U" x="280.4" y="25.5"/><path d="M395.2 409.3a11.29 11.29 0 0 0-11.3 11.3c0 6.3 5 11.2 11.2 11.2s11.2-5 11.2-11.2c.2-6.3-4.8-11.3-11.1-11.3zm5.8 17.8c-1 0-1.7-.8-1.7-1.7 0-.6.3-1.1.8-1.4l-1.3-2.6c-.2.1-.4.1-.6.1s-.4 0-.6-.1l-1.3 2.5c.5.3.8.8.8 1.4 0 1-.8 1.7-1.7 1.7s-1.7-.8-1.7-1.7a1.75 1.75 0 0 1 .7-1.4l-1.4-2.6c-.2.1-.4.1-.6.1-.1 0-.3 0-.5-.1l-1.3 2.5a1.75 1.75 0 0 1 .7 1.4c0 1-.8 1.7-1.7 1.7s-1.7-.8-1.7-1.7.8-1.7 1.7-1.7c.2 0 .4 0 .6.1l1.3-2.5c-.5-.3-.8-.8-.8-1.5 0-1 .8-1.7 1.7-1.7.3 0 .5.1.7.1l1.3-2.6a1.75 1.75 0 0 1-.7-1.4c0-1 .8-1.7 1.7-1.7s1.7.8 1.7 1.7c0 .6-.3 1.1-.8 1.4l1.3 2.5c.2-.1.3-.1.5-.1 1 0 1.7.8 1.7 1.7a1.75 1.75 0 0 1-.7 1.4l1.3 2.6c.2-.1.4-.1.6-.1 1 0 1.7.8 1.7 1.7 0 1.3-.8 2-1.7 2z"/><use xlink:href="#B" x="407.9" y="51"/><use xlink:href="#B" x="407.9" y="52.7"/><use xlink:href="#C" x="407.9" y="51"/><use xlink:href="#G" x="356.9" y="51"/><use xlink:href="#e" y="51"/><use xlink:href="#B" x="407.9" y="45"/><use xlink:href="#W" x="280.4" y="25.5"/><path d="M446.3 409.3a11.29 11.29 0 0 0-11.3 11.3c0 6.3 5 11.2 11.2 11.2s11.2-5 11.2-11.2c.1-6.3-5-11.3-11.1-11.3zm5.6 17.8c-1 0-1.7-.8-1.7-1.7 0-.6.3-1.1.8-1.4l-1.3-2.6c-.2.1-.4.1-.6.1s-.4 0-.6-.1l-1.3 2.5c.5.3.8.8.8 1.4 0 1-.8 1.7-1.7 1.7s-1.7-.8-1.7-1.7a1.75 1.75 0 0 1 .7-1.4l-1.4-2.6c-.2.1-.4.1-.6.1-.1 0-.3 0-.5-.1l-1.3 2.5a1.75 1.75 0 0 1 .7 1.4c0 1-.8 1.7-1.7 1.7-1 0-1.7-.8-1.7-1.7s.8-1.7 1.7-1.7c.2 0 .4 0 .6.1l1.3-2.5c-.5-.3-.8-.8-.8-1.5 0-1 .8-1.7 1.7-1.7.3 0 .5.1.7.1l1.3-2.6a1.75 1.75 0 0 1-.7-1.4c0-1 .8-1.7 1.7-1.7 1 0 1.7.8 1.7 1.7 0 .6-.3 1.1-.8 1.4l1.3 2.5c.2-.1.3-.1.5-.1 1 0 1.7.8 1.7 1.7a1.75 1.75 0 0 1-.7 1.4l1.3 2.6c.2-.1.4-.1.6-.1 1 0 1.7.8 1.7 1.7.1 1.3-.7 2-1.7 2z"/><use xlink:href="#B" x="458.9" y="51"/><use xlink:href="#B" x="458.9" y="52.7"/><use xlink:href="#C" x="458.9" y="51"/><use xlink:href="#G" x="407.9" y="51"/><use xlink:href="#b" x="356.9"/><use xlink:href="#B" x="458.9" y="45"/><use xlink:href="#W" x="331.4" y="25.5"/><path d="M497.2 409.3a11.29 11.29 0 0 0-11.3 11.3c0 6.3 5 11.2 11.2 11.2s11.2-5 11.2-11.2c.2-6.3-4.8-11.3-11.1-11.3zm5.7 17.8c-1 0-1.7-.8-1.7-1.7 0-.6.3-1.1.8-1.4l-1.3-2.6c-.2.1-.4.1-.6.1s-.4 0-.6-.1l-1.3 2.5c.5.3.8.8.8 1.4 0 1-.8 1.7-1.7 1.7s-1.7-.8-1.7-1.7a1.75 1.75 0 0 1 .7-1.4l-1.4-2.6c-.2.1-.4.1-.6.1-.1 0-.3 0-.5-.1l-1.3 2.5a1.75 1.75 0 0 1 .7 1.4c0 1-.8 1.7-1.7 1.7s-1.7-.8-1.7-1.7.8-1.7 1.7-1.7c.2 0 .4 0 .6.1l1.3-2.5c-.5-.3-.8-.8-.8-1.5 0-1 .8-1.7 1.7-1.7.3 0 .5.1.7.1l1.3-2.6a1.75 1.75 0 0 1-.7-1.4c0-1 .8-1.7 1.7-1.7s1.7.8 1.7 1.7c0 .6-.3 1.1-.8 1.4l1.3 2.5c.2-.1.3-.1.5-.1 1 0 1.7.8 1.7 1.7a1.75 1.75 0 0 1-.7 1.4l1.3 2.6c.2-.1.4-.1.6-.1 1 0 1.7.8 1.7 1.7.1 1.3-.7 2-1.7 2z"/><use xlink:href="#B" x="509.9" y="51"/><use xlink:href="#B" x="509.9" y="52.7"/><use xlink:href="#C" x="509.8" y="51"/><use xlink:href="#G" x="458.8" y="51"/><use xlink:href="#O" x="305.9" y="51"/><use xlink:href="#B" x="509.9" y="45"/><use xlink:href="#F" x="509.8"/><use xlink:href="#m"/><use xlink:href="#f" x="280.4" y="-25.5"/><use xlink:href="#f" x="280.4" y="-23.8"/><use xlink:href="#C" x="560.8"/><use xlink:href="#G" x="509.9"/><use xlink:href="#Q" x="305.9"/><use xlink:href="#f" x="280.4" y="-31.5"/><use xlink:href="#F" x="560.8"/><path d="M599.2 358.3a11.29 11.29 0 0 0-11.3 11.3c0 6.2 5 11.2 11.2 11.2s11.2-5 11.2-11.2c.2-6.3-4.9-11.3-11.1-11.3zm5.7 17.9c-1 0-1.7-.8-1.7-1.7 0-.6.3-1.1.8-1.4l-1.3-2.6c-.2.1-.4.1-.6.1s-.4 0-.6-.1l-1.3 2.5c.5.3.8.8.8 1.4 0 1-.8 1.7-1.7 1.7s-1.7-.8-1.7-1.7a1.75 1.75 0 0 1 .7-1.4l-1.4-2.6c-.2.1-.4.1-.6.1-.1 0-.3 0-.5-.1l-1.3 2.5a1.75 1.75 0 0 1 .7 1.4c0 1-.8 1.7-1.7 1.7s-1.7-.8-1.7-1.7c0-1 .8-1.7 1.7-1.7.2 0 .4 0 .6.1l1.3-2.5c-.5-.3-.8-.8-.8-1.5 0-1 .8-1.7 1.7-1.7.3 0 .5.1.7.1l1.3-2.6a1.75 1.75 0 0 1-.7-1.4c0-1 .8-1.7 1.7-1.7s1.7.8 1.7 1.7c0 .6-.3 1.1-.8 1.4l1.3 2.5c.2-.1.3-.1.5-.1 1 0 1.7.8 1.7 1.7a1.75 1.75 0 0 1-.7 1.4l1.3 2.6c.2-.1.4-.1.6-.1 1 0 1.7.8 1.7 1.7 0 1.2-.8 2-1.7 2z"/><use xlink:href="#n"/><use xlink:href="#n" y="1.7"/><path d="M546.4 391.2h-1c-.1 0-.2-.1-.2-.2v-1c0-.1-.1-.2-.2-.2h-.4c-.1 0-.2.1-.2.2v1c0 .1-.1.2-.2.2h-1c-.1 0-.2.1-.2.2v.4c0 .1.1.2.2.2h1c.1 0 .2.1.2.2v1c0 .1.1.2.2.2h.4c.1 0 .2-.1.2-.2v-1c0-.1.1-.2.2-.2h1c.1 0 .2-.1.2-.2v-.4c.1-.1-.1-.2-.2-.2zm-.2 6.4c.1-.1.1-.2 0-.3l-.2-.3c-.1-.1-.2-.1-.3 0l-.7.7c-.1.1-.2.1-.3 0l-.7-.7c-.1-.1-.2-.1-.3 0l-.3.3c-.1.1-.1.2 0 .3l.7.7c.1.1.1.2 0 .3l-.7.7c-.1.1-.1.2 0 .3l.3.3c.1.1.2.1.3 0l.7-.7c.1-.1.2-.1.3 0l.7.7c.1.1.2.1.3 0l.3-.3c.1-.1.1-.2 0-.3l-.7-.7c-.1-.1-.1-.2 0-.3l.6-.7z"/><use xlink:href="#O" x="331.4" y="25.5"/><use xlink:href="#n" y="-6"/><use xlink:href="#U" x="458.8"/><path d="M573.7 383.8a11.29 11.29 0 0 0-11.3 11.3c0 6.3 5 11.2 11.2 11.2s11.2-5 11.2-11.2c.1-6.3-4.9-11.3-11.1-11.3zm5.7 17.8c-1 0-1.7-.8-1.7-1.7 0-.6.3-1.1.8-1.4l-1.3-2.6c-.2.1-.4.1-.6.1s-.4 0-.6-.1l-1.3 2.5c.5.3.8.8.8 1.4 0 1-.8 1.7-1.7 1.7s-1.7-.8-1.7-1.7a1.75 1.75 0 0 1 .7-1.4l-1.4-2.6c-.2.1-.4.1-.6.1-.1 0-.3 0-.5-.1l-1.3 2.5a1.75 1.75 0 0 1 .7 1.4c0 1-.8 1.7-1.7 1.7s-1.7-.8-1.7-1.7c0-1 .8-1.7 1.7-1.7.2 0 .4 0 .6.1l1.3-2.5c-.5-.3-.8-.8-.8-1.5 0-1 .8-1.7 1.7-1.7.3 0 .5.1.7.1l1.3-2.6a1.75 1.75 0 0 1-.7-1.4c0-1 .8-1.7 1.7-1.7s1.7.8 1.7 1.7c0 .6-.3 1.1-.8 1.4l1.3 2.5c.2-.1.3-.1.5-.1 1 0 1.7.8 1.7 1.7a1.75 1.75 0 0 1-.7 1.4l1.3 2.6c.2-.1.4-.1.6-.1 1 0 1.7.8 1.7 1.7.1 1.3-.7 2-1.7 2z"/><use xlink:href="#o"/><use xlink:href="#o" y="1.7"/><use xlink:href="#C" x="586.3" y="25.5"/><use xlink:href="#G" x="535.3" y="25.5"/><use xlink:href="#Q" x="331.4" y="25.5"/><use xlink:href="#o" y="-6"/><use xlink:href="#U" x="433.3" y="25.5"/><use xlink:href="#p"/><use xlink:href="#f" x="280.4" y="25.5"/><use xlink:href="#f" x="280.4" y="27.2"/><use xlink:href="#C" x="560.8" y="51"/><use xlink:href="#G" x="509.9" y="51"/><use xlink:href="#Q" x="305.9" y="51"/><use xlink:href="#f" x="280.4" y="19.5"/><use xlink:href="#U" x="484.3" y="25.5"/><path d="M599.2 409.3a11.29 11.29 0 0 0-11.3 11.3c0 6.3 5 11.2 11.2 11.2s11.2-5 11.2-11.2c.2-6.3-4.9-11.3-11.1-11.3zm5.7 17.8c-1 0-1.7-.8-1.7-1.7 0-.6.3-1.1.8-1.4l-1.3-2.6c-.2.1-.4.1-.6.1s-.4 0-.6-.1l-1.3 2.5c.5.3.8.8.8 1.4 0 1-.8 1.7-1.7 1.7s-1.7-.8-1.7-1.7a1.75 1.75 0 0 1 .7-1.4l-1.4-2.6c-.2.1-.4.1-.6.1-.1 0-.3 0-.5-.1l-1.3 2.5a1.75 1.75 0 0 1 .7 1.4c0 1-.8 1.7-1.7 1.7s-1.7-.8-1.7-1.7.8-1.7 1.7-1.7c.2 0 .4 0 .6.1l1.3-2.5c-.5-.3-.8-.8-.8-1.5 0-1 .8-1.7 1.7-1.7.3 0 .5.1.7.1l1.3-2.6a1.75 1.75 0 0 1-.7-1.4c0-1 .8-1.7 1.7-1.7s1.7.8 1.7 1.7c0 .6-.3 1.1-.8 1.4l1.3 2.5c.2-.1.3-.1.5-.1 1 0 1.7.8 1.7 1.7a1.75 1.75 0 0 1-.7 1.4l1.3 2.6c.2-.1.4-.1.6-.1 1 0 1.7.8 1.7 1.7 0 1.3-.8 2-1.7 2z"/><use xlink:href="#f" x="331.4" y="-25.5"/><use xlink:href="#f" x="331.4" y="-23.8"/><use xlink:href="#C" x="611.8"/><use xlink:href="#G" x="560.8"/><use xlink:href="#Q" x="356.9"/><use xlink:href="#f" x="331.4" y="-31.5"/><use xlink:href="#F" x="611.8"/><use xlink:href="#m" x="102"/><use xlink:href="#B" x="662.8"/><use xlink:href="#B" x="662.8" y="1.7"/><use xlink:href="#C" x="662.8"/><use xlink:href="#G" x="611.8"/><use xlink:href="#Q" x="407.9"/><use xlink:href="#B" x="662.8" y="-6"/><use xlink:href="#F" x="662.8"/><path d="M701.2 358.3a11.29 11.29 0 0 0-11.3 11.3c0 6.2 5 11.2 11.2 11.2s11.2-5 11.2-11.2c.1-6.3-4.9-11.3-11.1-11.3zm5.7 17.9c-1 0-1.7-.8-1.7-1.7 0-.6.3-1.1.8-1.4l-1.3-2.6c-.2.1-.4.1-.6.1s-.4 0-.6-.1l-1.3 2.5c.5.3.8.8.8 1.4 0 1-.8 1.7-1.7 1.7s-1.7-.8-1.7-1.7a1.75 1.75 0 0 1 .7-1.4l-1.4-2.6c-.2.1-.4.1-.6.1-.1 0-.3 0-.5-.1l-1.3 2.5a1.75 1.75 0 0 1 .7 1.4c0 1-.8 1.7-1.7 1.7s-1.7-.8-1.7-1.7c0-1 .8-1.7 1.7-1.7.2 0 .4 0 .6.1l1.3-2.5c-.5-.3-.8-.8-.8-1.5 0-1 .8-1.7 1.7-1.7.3 0 .5.1.7.1l1.3-2.6a1.75 1.75 0 0 1-.7-1.4c0-1 .8-1.7 1.7-1.7 1 0 1.7.8 1.7 1.7 0 .6-.3 1.1-.8 1.4l1.3 2.5c.2-.1.3-.1.5-.1 1 0 1.7.8 1.7 1.7a1.75 1.75 0 0 1-.7 1.4l1.3 2.6c.2-.1.4-.1.6-.1 1 0 1.7.8 1.7 1.7 0 1.2-.8 2-1.7 2z"/><use xlink:href="#B" x="713.8"/><use xlink:href="#B" x="713.8" y="1.7"/><use xlink:href="#q"/><use xlink:href="#G" x="662.8"/><use xlink:href="#d" x="407.9"/><use xlink:href="#B" x="713.8" y="-6"/><use xlink:href="#F" x="713.8"/><path d="M752.2 358.3a11.29 11.29 0 0 0-11.3 11.3c0 6.2 5 11.2 11.2 11.2s11.2-5 11.2-11.2c.1-6.3-4.9-11.3-11.1-11.3zm5.6 17.9c-1 0-1.7-.8-1.7-1.7 0-.6.3-1.1.8-1.4l-1.3-2.6c-.2.1-.4.1-.6.1s-.4 0-.6-.1l-1.3 2.5c.5.3.8.8.8 1.4 0 1-.8 1.7-1.7 1.7-1 0-1.7-.8-1.7-1.7a1.75 1.75 0 0 1 .7-1.4l-1.4-2.6c-.2.1-.4.1-.6.1-.1 0-.3 0-.5-.1l-1.3 2.5a1.75 1.75 0 0 1 .7 1.4c0 1-.8 1.7-1.7 1.7s-1.7-.8-1.7-1.7c0-1 .8-1.7 1.7-1.7.2 0 .4 0 .6.1l1.3-2.5c-.5-.3-.8-.8-.8-1.5 0-1 .8-1.7 1.7-1.7.3 0 .5.1.7.1l1.3-2.6a1.75 1.75 0 0 1-.7-1.4c0-1 .8-1.7 1.7-1.7 1 0 1.7.8 1.7 1.7 0 .6-.3 1.1-.8 1.4l1.3 2.5c.2-.1.3-.1.5-.1 1 0 1.7.8 1.7 1.7a1.75 1.75 0 0 1-.7 1.4l1.3 2.6c.2-.1.4-.1.6-.1 1 0 1.7.8 1.7 1.7.1 1.2-.7 2-1.7 2z"/><use xlink:href="#B" x="764.8"/><use xlink:href="#B" x="764.8" y="1.7"/><use xlink:href="#q" x="51"/><use xlink:href="#G" x="713.8"/><use xlink:href="#H" x="713.8"/><use xlink:href="#B" x="764.8" y="-6"/><use xlink:href="#I" x="713.8"/><path d="M803.1 358.3a11.29 11.29 0 0 0-11.3 11.3c0 6.2 5 11.2 11.2 11.2s11.2-5 11.2-11.2c.2-6.3-4.8-11.3-11.1-11.3zm5.7 17.9c-1 0-1.7-.8-1.7-1.7 0-.6.3-1.1.8-1.4l-1.3-2.6c-.2.1-.4.1-.6.1s-.4 0-.6-.1l-1.3 2.5c.5.3.8.8.8 1.4 0 1-.8 1.7-1.7 1.7s-1.7-.8-1.7-1.7a1.75 1.75 0 0 1 .7-1.4l-1.4-2.6c-.2.1-.4.1-.6.1-.1 0-.3 0-.5-.1l-1.3 2.5a1.75 1.75 0 0 1 .7 1.4c0 1-.8 1.7-1.7 1.7-1 0-1.7-.8-1.7-1.7 0-1 .8-1.7 1.7-1.7.2 0 .4 0 .6.1l1.3-2.5c-.5-.3-.8-.8-.8-1.5 0-1 .8-1.7 1.7-1.7.3 0 .5.1.7.1l1.3-2.6a1.75 1.75 0 0 1-.7-1.4c0-1 .8-1.7 1.7-1.7s1.7.8 1.7 1.7c0 .6-.3 1.1-.8 1.4l1.3 2.5c.2-.1.3-.1.5-.1 1 0 1.7.8 1.7 1.7a1.75 1.75 0 0 1-.7 1.4l1.3 2.6c.2-.1.4-.1.6-.1 1 0 1.7.8 1.7 1.7.1 1.2-.7 2-1.7 2z"/><use xlink:href="#B" x="815.8"/><use xlink:href="#B" x="815.8" y="1.7"/><use xlink:href="#r"/><use xlink:href="#G" x="764.8"/><use xlink:href="#K" x="713.8"/><use xlink:href="#B" x="815.8" y="-6"/><use xlink:href="#U" x="509.8"/><path d="M624.7 383.8a11.29 11.29 0 0 0-11.3 11.3c0 6.3 5 11.2 11.2 11.2s11.2-5 11.2-11.2c.2-6.3-4.9-11.3-11.1-11.3zm5.7 17.8c-1 0-1.7-.8-1.7-1.7 0-.6.3-1.1.8-1.4l-1.3-2.6c-.2.1-.4.1-.6.1s-.4 0-.6-.1l-1.3 2.5c.5.3.8.8.8 1.4 0 1-.8 1.7-1.7 1.7-1 0-1.7-.8-1.7-1.7a1.75 1.75 0 0 1 .7-1.4l-1.4-2.6c-.2.1-.4.1-.6.1-.1 0-.3 0-.5-.1l-1.3 2.5a1.75 1.75 0 0 1 .7 1.4c0 1-.8 1.7-1.7 1.7-1 0-1.7-.8-1.7-1.7 0-1 .8-1.7 1.7-1.7.2 0 .4 0 .6.1l1.3-2.5c-.5-.3-.8-.8-.8-1.5 0-1 .8-1.7 1.7-1.7.3 0 .5.1.7.1l1.3-2.6a1.75 1.75 0 0 1-.7-1.4c0-1 .8-1.7 1.7-1.7s1.7.8 1.7 1.7c0 .6-.3 1.1-.8 1.4l1.3 2.5c.2-.1.3-.1.5-.1 1 0 1.7.8 1.7 1.7a1.75 1.75 0 0 1-.7 1.4l1.3 2.6c.2-.1.4-.1.6-.1 1 0 1.7.8 1.7 1.7 0 1.3-.8 2-1.7 2z"/><use xlink:href="#s"/><use xlink:href="#s" y="1.7"/><use xlink:href="#C" x="637.3" y="25.5"/><use xlink:href="#G" x="586.3" y="25.5"/><path d="M650.2 383.8c-6.2 0-11.2 5-11.2 11.2s5 11.2 11.2 11.2 11.2-5 11.2-11.2-5-11.2-11.2-11.2zm-.6 16.7c0 .5-.4.8-.8.8h-4c-.5 0-.8-.4-.8-.8v-4c0-.5.4-.8.8-.8h4c.5 0 .8.4.8.8v4zm0-6.9c0 .5-.4.8-.8.8h-4c-.5 0-.8-.4-.8-.8v-3.9c0-.5.4-.8.8-.8h4c.5 0 .8.4.8.8v3.9zm6.8 6.9c0 .5-.4.8-.8.8h-4c-.5 0-.8-.4-.8-.8v-4c0-.5.4-.8.8-.8h3.9c.5 0 .8.4.8.8l.1 4h0zm0-6.9c0 .5-.4.8-.8.8h-4c-.5 0-.8-.4-.8-.8v-3.9c0-.5.4-.8.8-.8h3.9c.5 0 .8.4.8.8l.1 3.9h0z"/><use xlink:href="#s" y="-6"/><use xlink:href="#U" x="560.8"/><use xlink:href="#Z" x="407.9"/><use xlink:href="#t"/><use xlink:href="#t" y="1.7"/><use xlink:href="#C" x="688.3" y="25.5"/><use xlink:href="#G" x="637.3" y="25.5"/><use xlink:href="#Q" x="433.4" y="25.5"/><use xlink:href="#t" y="-6"/><use xlink:href="#U" x="611.8"/><use xlink:href="#h" x="356.9"/><use xlink:href="#B" x="739.3" y="25.5"/><use xlink:href="#B" x="739.3" y="27.2"/><use xlink:href="#C" x="739.3" y="25.5"/><use xlink:href="#G" x="688.3" y="25.5"/><use xlink:href="#Q" x="484.4" y="25.5"/><use xlink:href="#B" x="739.3" y="19.5"/><use xlink:href="#W" x="611.8"/><use xlink:href="#j" x="356.9"/><use xlink:href="#B" x="790.3" y="25.5"/><use xlink:href="#B" x="790.3" y="27.2"/><use xlink:href="#C" x="790.3" y="25.5"/><use xlink:href="#G" x="739.3" y="25.5"/><use xlink:href="#T" x="713.8"/><use xlink:href="#B" x="790.3" y="19.5"/><use xlink:href="#R" x="764.8"/><path d="M828.6 383.8a11.29 11.29 0 0 0-11.3 11.3c0 6.3 5 11.2 11.2 11.2s11.2-5 11.2-11.2c.2-6.3-4.8-11.3-11.1-11.3zm5.7 17.8c-1 0-1.7-.8-1.7-1.7 0-.6.3-1.1.8-1.4l-1.3-2.6c-.2.1-.4.1-.6.1s-.4 0-.6-.1l-1.3 2.5c.5.3.8.8.8 1.4 0 1-.8 1.7-1.7 1.7-1 0-1.7-.8-1.7-1.7a1.75 1.75 0 0 1 .7-1.4l-1.4-2.6c-.2.1-.4.1-.6.1-.1 0-.3 0-.5-.1l-1.3 2.5a1.75 1.75 0 0 1 .7 1.4c0 1-.8 1.7-1.7 1.7-1 0-1.7-.8-1.7-1.7 0-1 .8-1.7 1.7-1.7.2 0 .4 0 .6.1l1.3-2.5c-.5-.3-.8-.8-.8-1.5 0-1 .8-1.7 1.7-1.7.3 0 .5.1.7.1l1.3-2.6a1.75 1.75 0 0 1-.7-1.4c0-1 .8-1.7 1.7-1.7s1.7.8 1.7 1.7c0 .6-.3 1.1-.8 1.4l1.3 2.5c.2-.1.3-.1.5-.1 1 0 1.7.8 1.7 1.7a1.75 1.75 0 0 1-.7 1.4l1.3 2.6c.2-.1.4-.1.6-.1 1 0 1.7.8 1.7 1.7.1 1.3-.7 2-1.7 2z"/><use xlink:href="#f" x="331.4" y="25.5"/><use xlink:href="#f" x="331.4" y="27.2"/><use xlink:href="#C" x="611.8" y="51"/><use xlink:href="#G" x="560.8" y="51"/><use xlink:href="#Q" x="356.9" y="51"/><use xlink:href="#f" x="331.4" y="19.5"/><use xlink:href="#U" x="535.3" y="25.5"/><use xlink:href="#p" x="102"/><use xlink:href="#B" x="662.8" y="51"/><use xlink:href="#B" x="662.8" y="52.7"/><use xlink:href="#C" x="662.8" y="51"/><use xlink:href="#G" x="611.8" y="51"/><use xlink:href="#Q" x="407.9" y="51"/><use xlink:href="#B" x="662.8" y="45"/><use xlink:href="#U" x="586.3" y="25.5"/><path d="M701.2 409.3a11.29 11.29 0 0 0-11.3 11.3c0 6.3 5 11.2 11.2 11.2s11.2-5 11.2-11.2c.1-6.3-4.9-11.3-11.1-11.3zm5.7 17.8c-1 0-1.7-.8-1.7-1.7 0-.6.3-1.1.8-1.4l-1.3-2.6c-.2.1-.4.1-.6.1s-.4 0-.6-.1l-1.3 2.5c.5.3.8.8.8 1.4 0 1-.8 1.7-1.7 1.7s-1.7-.8-1.7-1.7a1.75 1.75 0 0 1 .7-1.4l-1.4-2.6c-.2.1-.4.1-.6.1-.1 0-.3 0-.5-.1l-1.3 2.5a1.75 1.75 0 0 1 .7 1.4c0 1-.8 1.7-1.7 1.7s-1.7-.8-1.7-1.7.8-1.7 1.7-1.7c.2 0 .4 0 .6.1l1.3-2.5c-.5-.3-.8-.8-.8-1.5 0-1 .8-1.7 1.7-1.7.3 0 .5.1.7.1l1.3-2.6a1.75 1.75 0 0 1-.7-1.4c0-1 .8-1.7 1.7-1.7 1 0 1.7.8 1.7 1.7 0 .6-.3 1.1-.8 1.4l1.3 2.5c.2-.1.3-.1.5-.1 1 0 1.7.8 1.7 1.7a1.75 1.75 0 0 1-.7 1.4l1.3 2.6c.2-.1.4-.1.6-.1 1 0 1.7.8 1.7 1.7 0 1.3-.8 2-1.7 2z"/><use xlink:href="#B" x="713.8" y="51"/><use xlink:href="#B" x="713.8" y="52.7"/><use xlink:href="#q" y="51"/><use xlink:href="#G" x="662.8" y="51"/><use xlink:href="#d" x="407.9" y="51"/><use xlink:href="#B" x="713.8" y="45"/><use xlink:href="#U" x="637.3" y="25.5"/><path d="M752.2 409.3a11.29 11.29 0 0 0-11.3 11.3c0 6.3 5 11.2 11.2 11.2s11.2-5 11.2-11.2c.1-6.3-4.9-11.3-11.1-11.3zm5.6 17.8c-1 0-1.7-.8-1.7-1.7 0-.6.3-1.1.8-1.4l-1.3-2.6c-.2.1-.4.1-.6.1s-.4 0-.6-.1l-1.3 2.5c.5.3.8.8.8 1.4 0 1-.8 1.7-1.7 1.7-1 0-1.7-.8-1.7-1.7a1.75 1.75 0 0 1 .7-1.4l-1.4-2.6c-.2.1-.4.1-.6.1-.1 0-.3 0-.5-.1l-1.3 2.5a1.75 1.75 0 0 1 .7 1.4c0 1-.8 1.7-1.7 1.7s-1.7-.8-1.7-1.7.8-1.7 1.7-1.7c.2 0 .4 0 .6.1l1.3-2.5c-.5-.3-.8-.8-.8-1.5 0-1 .8-1.7 1.7-1.7.3 0 .5.1.7.1l1.3-2.6a1.75 1.75 0 0 1-.7-1.4c0-1 .8-1.7 1.7-1.7 1 0 1.7.8 1.7 1.7 0 .6-.3 1.1-.8 1.4l1.3 2.5c.2-.1.3-.1.5-.1 1 0 1.7.8 1.7 1.7a1.75 1.75 0 0 1-.7 1.4l1.3 2.6c.2-.1.4-.1.6-.1 1 0 1.7.8 1.7 1.7.1 1.3-.7 2-1.7 2z"/><use xlink:href="#B" x="764.8" y="51"/><use xlink:href="#B" x="764.8" y="52.7"/><use xlink:href="#q" x="51" y="51"/><use xlink:href="#G" x="713.8" y="51"/><use xlink:href="#a" x="713.8"/><use xlink:href="#B" x="764.8" y="45"/><use xlink:href="#R" x="739.3" y="25.5"/><path d="M803.1 409.3a11.29 11.29 0 0 0-11.3 11.3c0 6.3 5 11.2 11.2 11.2s11.2-5 11.2-11.2c.2-6.3-4.8-11.3-11.1-11.3zm5.7 17.8c-1 0-1.7-.8-1.7-1.7 0-.6.3-1.1.8-1.4l-1.3-2.6c-.2.1-.4.1-.6.1s-.4 0-.6-.1l-1.3 2.5c.5.3.8.8.8 1.4 0 1-.8 1.7-1.7 1.7s-1.7-.8-1.7-1.7a1.75 1.75 0 0 1 .7-1.4l-1.4-2.6c-.2.1-.4.1-.6.1-.1 0-.3 0-.5-.1l-1.3 2.5a1.75 1.75 0 0 1 .7 1.4c0 1-.8 1.7-1.7 1.7-1 0-1.7-.8-1.7-1.7s.8-1.7 1.7-1.7c.2 0 .4 0 .6.1l1.3-2.5c-.5-.3-.8-.8-.8-1.5 0-1 .8-1.7 1.7-1.7.3 0 .5.1.7.1l1.3-2.6a1.75 1.75 0 0 1-.7-1.4c0-1 .8-1.7 1.7-1.7 1 0 1.7.8 1.7 1.7 0 .6-.3 1.1-.8 1.4l1.3 2.5c.2-.1.3-.1.5-.1 1 0 1.7.8 1.7 1.7a1.75 1.75 0 0 1-.7 1.4l1.3 2.6c.2-.1.4-.1.6-.1 1 0 1.7.8 1.7 1.7.1 1.3-.7 2-1.7 2z"/><use xlink:href="#B" x="815.8" y="51"/><use xlink:href="#B" x="815.8" y="52.7"/><use xlink:href="#r" y="51"/><use xlink:href="#G" x="764.8" y="51"/><use xlink:href="#b" x="713.8"/><use xlink:href="#B" x="815.8" y="45"/><use xlink:href="#F" x="815.7"/><path d="M854.1 358.3a11.29 11.29 0 0 0-11.3 11.3c0 6.2 5 11.2 11.2 11.2s11.2-5 11.2-11.2c.2-6.3-4.9-11.3-11.1-11.3zm5.7 17.9c-1 0-1.7-.8-1.7-1.7 0-.6.3-1.1.8-1.4l-1.3-2.6c-.2.1-.4.1-.6.1s-.4 0-.6-.1l-1.3 2.5c.5.3.8.8.8 1.4 0 1-.8 1.7-1.7 1.7s-1.7-.8-1.7-1.7a1.75 1.75 0 0 1 .7-1.4l-1.4-2.6c-.2.1-.4.1-.6.1-.1 0-.3 0-.5-.1l-1.3 2.5a1.75 1.75 0 0 1 .7 1.4c0 1-.8 1.7-1.7 1.7-1 0-1.7-.8-1.7-1.7 0-1 .8-1.7 1.7-1.7.2 0 .4 0 .6.1l1.3-2.5c-.5-.3-.8-.8-.8-1.5 0-1 .8-1.7 1.7-1.7.3 0 .5.1.7.1l1.3-2.6a1.75 1.75 0 0 1-.7-1.4c0-1 .8-1.7 1.7-1.7 1 0 1.7.8 1.7 1.7 0 .6-.3 1.1-.8 1.4l1.3 2.5c.2-.1.3-.1.5-.1 1 0 1.7.8 1.7 1.7a1.75 1.75 0 0 1-.7 1.4l1.3 2.6c.2-.1.4-.1.6-.1 1 0 1.7.8 1.7 1.7.1 1.2-.7 2-1.7 2z"/><use xlink:href="#B" x="866.8"/><use xlink:href="#B" x="866.8" y="1.7"/><use xlink:href="#L" x="713.8"/><use xlink:href="#G" x="815.8"/><use xlink:href="#M" x="713.8"/><use xlink:href="#B" x="866.8" y="-6"/><use xlink:href="#N" x="713.8"/><path d="M905.1 358.3a11.29 11.29 0 0 0-11.3 11.3c0 6.2 5 11.2 11.2 11.2s11.2-5 11.2-11.2c.2-6.3-4.9-11.3-11.1-11.3zm5.7 17.9c-1 0-1.7-.8-1.7-1.7 0-.6.3-1.1.8-1.4l-1.3-2.6c-.2.1-.4.1-.6.1s-.4 0-.6-.1l-1.3 2.5c.5.3.8.8.8 1.4 0 1-.8 1.7-1.7 1.7-1 0-1.7-.8-1.7-1.7a1.75 1.75 0 0 1 .7-1.4l-1.4-2.6c-.2.1-.4.1-.6.1-.1 0-.3 0-.5-.1l-1.3 2.5a1.75 1.75 0 0 1 .7 1.4c0 1-.8 1.7-1.7 1.7-1 0-1.7-.8-1.7-1.7 0-1 .8-1.7 1.7-1.7.2 0 .4 0 .6.1l1.3-2.5c-.5-.3-.8-.8-.8-1.5 0-1 .8-1.7 1.7-1.7.3 0 .5.1.7.1l1.3-2.6a1.75 1.75 0 0 1-.7-1.4c0-1 .8-1.7 1.7-1.7 1 0 1.7.8 1.7 1.7 0 .6-.3 1.1-.8 1.4l1.3 2.5c.2-.1.3-.1.5-.1 1 0 1.7.8 1.7 1.7a1.75 1.75 0 0 1-.7 1.4l1.3 2.6c.2-.1.4-.1.6-.1 1 0 1.7.8 1.7 1.7.1 1.2-.7 2-1.7 2z"/><use xlink:href="#B" x="917.8"/><use xlink:href="#B" x="917.8" y="1.7"/><use xlink:href="#C" x="917.7"/><use xlink:href="#G" x="866.7"/><path d="M930.6 358.3c-6.2 0-11.2 5-11.2 11.2s5 11.2 11.2 11.2 11.2-5 11.2-11.2-5-11.2-11.2-11.2zM930 375c0 .5-.4.8-.8.8h-4c-.5 0-.8-.4-.8-.8v-4c0-.5.4-.8.8-.8h4c.5 0 .8.4.8.8v4zm0-6.9c0 .5-.4.8-.8.8h-4c-.5 0-.8-.4-.8-.8v-3.9c0-.5.4-.8.8-.8h4c.5 0 .8.4.8.8v3.9zm6.9 6.9c0 .5-.4.8-.8.8h-4c-.5 0-.8-.4-.8-.8v-4c0-.5.4-.8.8-.8h4c.5 0 .8.4.8.8v4zm0-6.9c0 .5-.4.8-.8.8h-4c-.5 0-.8-.4-.8-.8v-3.9c0-.5.4-.8.8-.8h4c.5 0 .8.4.8.8v3.9z"/><use xlink:href="#B" x="917.8" y="-6"/><use xlink:href="#F" x="917.7"/><use xlink:href="#m" x="407.9"/><use xlink:href="#P" x="713.8"/><use xlink:href="#P" x="713.8" y="1.7"/><use xlink:href="#C" x="968.7"/><use xlink:href="#G" x="917.7"/><path d="M981.6 358.3c-6.2 0-11.2 5-11.2 11.2s5 11.2 11.2 11.2 11.2-5 11.2-11.2-5-11.2-11.2-11.2zM981 375c0 .5-.4.8-.8.8h-4c-.5 0-.8-.4-.8-.8v-4c0-.5.4-.8.8-.8h4c.5 0 .8.4.8.8v4zm0-6.9c0 .5-.4.8-.8.8h-4c-.5 0-.8-.4-.8-.8v-3.9c0-.5.4-.8.8-.8h4c.5 0 .8.4.8.8v3.9zm6.8 6.9c0 .5-.4.8-.8.8h-4c-.5 0-.8-.4-.8-.8v-4c0-.5.4-.8.8-.8h4c.5 0 .8.4.8.8v4zm0-6.9c0 .5-.4.8-.8.8h-4c-.5 0-.8-.4-.8-.8v-3.9c0-.5.4-.8.8-.8h4c.5 0 .8.4.8.8v3.9z"/><use xlink:href="#P" x="713.8" y="-6"/><use xlink:href="#F" x="968.7"/><path d="M1007.1 358.3a11.29 11.29 0 0 0-11.3 11.3c0 6.2 5 11.2 11.2 11.2s11.2-5 11.2-11.2c.1-6.3-4.9-11.3-11.1-11.3zm5.7 17.9c-1 0-1.7-.8-1.7-1.7 0-.6.3-1.1.8-1.4l-1.3-2.6c-.2.1-.4.1-.6.1s-.4 0-.6-.1l-1.3 2.5c.5.3.8.8.8 1.4 0 1-.8 1.7-1.7 1.7-1 0-1.7-.8-1.7-1.7a1.75 1.75 0 0 1 .7-1.4l-1.4-2.6c-.2.1-.4.1-.6.1-.1 0-.3 0-.5-.1l-1.3 2.5a1.75 1.75 0 0 1 .7 1.4c0 1-.8 1.7-1.7 1.7s-1.7-.8-1.7-1.7c0-1 .8-1.7 1.7-1.7.2 0 .4 0 .6.1l1.3-2.5c-.5-.3-.8-.8-.8-1.5 0-1 .8-1.7 1.7-1.7.3 0 .5.1.7.1l1.3-2.6a1.75 1.75 0 0 1-.7-1.4c0-1 .8-1.7 1.7-1.7s1.7.8 1.7 1.7c0 .6-.3 1.1-.8 1.4l1.3 2.5c.2-.1.3-.1.5-.1 1 0 1.7.8 1.7 1.7a1.75 1.75 0 0 1-.7 1.4l1.3 2.6c.2-.1.4-.1.6-.1 1 0 1.7.8 1.7 1.7 0 1.2-.8 2-1.7 2z"/><use xlink:href="#B" x="1019.7"/><use xlink:href="#B" x="1019.7" y="1.7"/><use xlink:href="#C" x="1019.7"/><use xlink:href="#G" x="968.7"/><use xlink:href="#Q" x="764.8"/><use xlink:href="#B" x="1019.7" y="-6"/><use xlink:href="#F" x="1019.7"/><path d="M1058.1 358.3a11.29 11.29 0 0 0-11.3 11.3c0 6.2 5 11.2 11.2 11.2s11.2-5 11.2-11.2c.1-6.3-4.9-11.3-11.1-11.3zm5.6 17.9c-1 0-1.7-.8-1.7-1.7 0-.6.3-1.1.8-1.4l-1.3-2.6c-.2.1-.4.1-.6.1s-.4 0-.6-.1l-1.3 2.5c.5.3.8.8.8 1.4 0 1-.8 1.7-1.7 1.7s-1.7-.8-1.7-1.7a1.75 1.75 0 0 1 .7-1.4l-1.4-2.6c-.2.1-.4.1-.6.1-.1 0-.3 0-.5-.1l-1.3 2.5a1.75 1.75 0 0 1 .7 1.4c0 1-.8 1.7-1.7 1.7-1 0-1.7-.8-1.7-1.7 0-1 .8-1.7 1.7-1.7.2 0 .4 0 .6.1l1.3-2.5c-.5-.3-.8-.8-.8-1.5 0-1 .8-1.7 1.7-1.7.3 0 .5.1.7.1l1.3-2.6a1.75 1.75 0 0 1-.7-1.4c0-1 .8-1.7 1.7-1.7s1.7.8 1.7 1.7c0 .6-.3 1.1-.8 1.4l1.3 2.5c.2-.1.3-.1.5-.1 1 0 1.7.8 1.7 1.7a1.75 1.75 0 0 1-.7 1.4l1.3 2.6c.2-.1.4-.1.6-.1 1 0 1.7.8 1.7 1.7.1 1.2-.7 2-1.7 2z"/><use xlink:href="#B" x="1070.7"/><use xlink:href="#B" x="1070.7" y="1.7"/><use xlink:href="#C" x="1070.7"/><use xlink:href="#G" x="1019.7"/><use xlink:href="#H" x="1019.7"/><use xlink:href="#B" x="1070.7" y="-6"/><use xlink:href="#B" x="841.3" y="25.5"/><use xlink:href="#B" x="841.3" y="27.2"/><use xlink:href="#L" x="688.3" y="25.5"/><use xlink:href="#G" x="790.3" y="25.5"/><use xlink:href="#K" x="739.3" y="25.5"/><use xlink:href="#B" x="841.3" y="19.5"/><use xlink:href="#W" x="713.8"/><path d="M879.6 383.8a11.29 11.29 0 0 0-11.3 11.3c0 6.3 5 11.2 11.2 11.2s11.2-5 11.2-11.2c.2-6.3-4.9-11.3-11.1-11.3zm5.7 17.8c-1 0-1.7-.8-1.7-1.7 0-.6.3-1.1.8-1.4l-1.3-2.6c-.2.1-.4.1-.6.1s-.4 0-.6-.1l-1.3 2.5c.5.3.8.8.8 1.4 0 1-.8 1.7-1.7 1.7-1 0-1.7-.8-1.7-1.7a1.75 1.75 0 0 1 .7-1.4l-1.4-2.6c-.2.1-.4.1-.6.1-.1 0-.3 0-.5-.1l-1.3 2.5a1.75 1.75 0 0 1 .7 1.4c0 1-.8 1.7-1.7 1.7-1 0-1.7-.8-1.7-1.7 0-1 .8-1.7 1.7-1.7.2 0 .4 0 .6.1l1.3-2.5c-.5-.3-.8-.8-.8-1.5 0-1 .8-1.7 1.7-1.7.3 0 .5.1.7.1l1.3-2.6a1.75 1.75 0 0 1-.7-1.4c0-1 .8-1.7 1.7-1.7 1 0 1.7.8 1.7 1.7 0 .6-.3 1.1-.8 1.4l1.3 2.5c.2-.1.3-.1.5-.1 1 0 1.7.8 1.7 1.7a1.75 1.75 0 0 1-.7 1.4l1.3 2.6c.2-.1.4-.1.6-.1 1 0 1.7.8 1.7 1.7.1 1.3-.7 2-1.7 2z"/><use xlink:href="#B" x="892.3" y="25.5"/><use xlink:href="#B" x="892.3" y="27.2"/><use xlink:href="#C" x="892.2" y="25.5"/><use xlink:href="#G" x="841.3" y="25.5"/><use xlink:href="#Q" x="637.3" y="25.5"/><use xlink:href="#B" x="892.3" y="19.5"/><use xlink:href="#U" x="815.7"/><path d="M930.6 383.8a11.29 11.29 0 0 0-11.3 11.3c0 6.3 5 11.2 11.2 11.2s11.2-5 11.2-11.2c.2-6.3-4.9-11.3-11.1-11.3zm5.7 17.8c-1 0-1.7-.8-1.7-1.7 0-.6.3-1.1.8-1.4l-1.3-2.6c-.2.1-.4.1-.6.1s-.4 0-.6-.1l-1.3 2.5c.5.3.8.8.8 1.4 0 1-.8 1.7-1.7 1.7-1 0-1.7-.8-1.7-1.7a1.75 1.75 0 0 1 .7-1.4l-1.4-2.6c-.2.1-.4.1-.6.1-.1 0-.3 0-.5-.1l-1.3 2.5a1.75 1.75 0 0 1 .7 1.4c0 1-.8 1.7-1.7 1.7-1 0-1.7-.8-1.7-1.7 0-1 .8-1.7 1.7-1.7.2 0 .4 0 .6.1l1.3-2.5c-.5-.3-.8-.8-.8-1.5 0-1 .8-1.7 1.7-1.7.3 0 .5.1.7.1l1.3-2.6a1.75 1.75 0 0 1-.7-1.4c0-1 .8-1.7 1.7-1.7s1.7.8 1.7 1.7c0 .6-.3 1.1-.8 1.4l1.3 2.5c.2-.1.3-.1.5-.1 1 0 1.7.8 1.7 1.7a1.75 1.75 0 0 1-.7 1.4l1.3 2.6c.2-.1.4-.1.6-.1 1 0 1.7.8 1.7 1.7 0 1.3-.7 2-1.7 2z"/><use xlink:href="#u"/><use xlink:href="#u" y="1.7"/><use xlink:href="#C" x="943.2" y="25.5"/><use xlink:href="#G" x="892.2" y="25.5"/><use xlink:href="#O" x="739.3" y="25.5"/><use xlink:href="#u" y="-6"/><use xlink:href="#U" x="866.7"/><path d="M981.6 383.8a11.29 11.29 0 0 0-11.3 11.3c0 6.3 5 11.2 11.2 11.2s11.2-5 11.2-11.2c.1-6.3-4.9-11.3-11.1-11.3zm5.7 17.8c-1 0-1.7-.8-1.7-1.7 0-.6.3-1.1.8-1.4l-1.3-2.6c-.2.1-.4.1-.6.1s-.4 0-.6-.1l-1.3 2.5c.5.3.8.8.8 1.4 0 1-.8 1.7-1.7 1.7s-1.7-.8-1.7-1.7a1.75 1.75 0 0 1 .7-1.4l-1.4-2.6c-.2.1-.4.1-.6.1-.1 0-.3 0-.5-.1l-1.3 2.5a1.75 1.75 0 0 1 .7 1.4c0 1-.8 1.7-1.7 1.7-1 0-1.7-.8-1.7-1.7 0-1 .8-1.7 1.7-1.7.2 0 .4 0 .6.1l1.3-2.5c-.5-.3-.8-.8-.8-1.5 0-1 .8-1.7 1.7-1.7.3 0 .5.1.7.1l1.3-2.6a1.75 1.75 0 0 1-.7-1.4c0-1 .8-1.7 1.7-1.7s1.7.8 1.7 1.7c0 .6-.3 1.1-.8 1.4l1.3 2.5c.2-.1.3-.1.5-.1 1 0 1.7.8 1.7 1.7a1.75 1.75 0 0 1-.7 1.4l1.3 2.6c.2-.1.4-.1.6-.1 1 0 1.7.8 1.7 1.7 0 1.3-.7 2-1.7 2z"/><use xlink:href="#P" x="739.3" y="25.5"/><use xlink:href="#P" x="739.3" y="27.2"/><use xlink:href="#C" x="994.2" y="25.5"/><use xlink:href="#G" x="943.2" y="25.5"/><use xlink:href="#Q" x="739.3" y="25.5"/><use xlink:href="#P" x="739.3" y="19.5"/><use xlink:href="#U" x="917.7"/><use xlink:href="#v"/><use xlink:href="#B" x="1045.2" y="25.5"/><use xlink:href="#B" x="1045.2" y="27.2"/><use xlink:href="#C" x="1045.2" y="25.5"/><use xlink:href="#G" x="994.2" y="25.5"/><use xlink:href="#Q" x="790.3" y="25.5"/><use xlink:href="#B" x="1045.2" y="19.5"/><use xlink:href="#R" x="1019.7"/><use xlink:href="#v" x="51"/><use xlink:href="#U" x="739.2" y="25.5"/><path d="M854.1 409.3a11.29 11.29 0 0 0-11.3 11.3c0 6.3 5 11.2 11.2 11.2s11.2-5 11.2-11.2c.2-6.3-4.9-11.3-11.1-11.3zm5.7 17.8c-1 0-1.7-.8-1.7-1.7 0-.6.3-1.1.8-1.4l-1.3-2.6c-.2.1-.4.1-.6.1s-.4 0-.6-.1l-1.3 2.5c.5.3.8.8.8 1.4 0 1-.8 1.7-1.7 1.7s-1.7-.8-1.7-1.7a1.75 1.75 0 0 1 .7-1.4l-1.4-2.6c-.2.1-.4.1-.6.1-.1 0-.3 0-.5-.1l-1.3 2.5a1.75 1.75 0 0 1 .7 1.4c0 1-.8 1.7-1.7 1.7-1 0-1.7-.8-1.7-1.7s.8-1.7 1.7-1.7c.2 0 .4 0 .6.1l1.3-2.5c-.5-.3-.8-.8-.8-1.5 0-1 .8-1.7 1.7-1.7.3 0 .5.1.7.1l1.3-2.6a1.75 1.75 0 0 1-.7-1.4c0-1 .8-1.7 1.7-1.7 1 0 1.7.8 1.7 1.7 0 .6-.3 1.1-.8 1.4l1.3 2.5c.2-.1.3-.1.5-.1 1 0 1.7.8 1.7 1.7a1.75 1.75 0 0 1-.7 1.4l1.3 2.6c.2-.1.4-.1.6-.1 1 0 1.7.8 1.7 1.7.1 1.3-.7 2-1.7 2z"/><use xlink:href="#B" x="866.8" y="51"/><use xlink:href="#B" x="866.8" y="52.7"/><use xlink:href="#L" x="713.8" y="51"/><use xlink:href="#G" x="815.8" y="51"/><use xlink:href="#c" x="713.8"/><use xlink:href="#B" x="866.8" y="45"/><use xlink:href="#W" x="739.3" y="25.5"/><path d="M905.1 409.3a11.29 11.29 0 0 0-11.3 11.3c0 6.3 5 11.2 11.2 11.2s11.2-5 11.2-11.2c.2-6.3-4.9-11.3-11.1-11.3zm5.7 17.8c-1 0-1.7-.8-1.7-1.7 0-.6.3-1.1.8-1.4l-1.3-2.6c-.2.1-.4.1-.6.1s-.4 0-.6-.1l-1.3 2.5c.5.3.8.8.8 1.4 0 1-.8 1.7-1.7 1.7-1 0-1.7-.8-1.7-1.7a1.75 1.75 0 0 1 .7-1.4l-1.4-2.6c-.2.1-.4.1-.6.1-.1 0-.3 0-.5-.1l-1.3 2.5a1.75 1.75 0 0 1 .7 1.4c0 1-.8 1.7-1.7 1.7-1 0-1.7-.8-1.7-1.7s.8-1.7 1.7-1.7c.2 0 .4 0 .6.1l1.3-2.5c-.5-.3-.8-.8-.8-1.5 0-1 .8-1.7 1.7-1.7.3 0 .5.1.7.1l1.3-2.6a1.75 1.75 0 0 1-.7-1.4c0-1 .8-1.7 1.7-1.7 1 0 1.7.8 1.7 1.7 0 .6-.3 1.1-.8 1.4l1.3 2.5c.2-.1.3-.1.5-.1 1 0 1.7.8 1.7 1.7a1.75 1.75 0 0 1-.7 1.4l1.3 2.6c.2-.1.4-.1.6-.1 1 0 1.7.8 1.7 1.7.1 1.3-.7 2-1.7 2z"/><use xlink:href="#B" x="917.8" y="51"/><use xlink:href="#B" x="917.8" y="52.7"/><use xlink:href="#C" x="917.7" y="51"/><use xlink:href="#G" x="866.7" y="51"/><path d="M930.6 409.3c-6.2 0-11.2 5-11.2 11.2s5 11.2 11.2 11.2 11.2-5 11.2-11.2-5-11.2-11.2-11.2zM930 426c0 .5-.4.8-.8.8h-4c-.5 0-.8-.4-.8-.8v-4c0-.5.4-.8.8-.8h4c.5 0 .8.4.8.8v4zm0-6.9c0 .5-.4.8-.8.8h-4c-.5 0-.8-.4-.8-.8v-3.9c0-.5.4-.8.8-.8h4c.5 0 .8.4.8.8v3.9zm6.9 6.9c0 .5-.4.8-.8.8h-4c-.5 0-.8-.4-.8-.8v-4c0-.5.4-.8.8-.8h4c.5 0 .8.4.8.8v4zm0-6.9c0 .5-.4.8-.8.8h-4c-.5 0-.8-.4-.8-.8v-3.9c0-.5.4-.8.8-.8h4c.5 0 .8.4.8.8v3.9z"/><use xlink:href="#B" x="917.8" y="45"/><use xlink:href="#U" x="841.2" y="25.5"/><use xlink:href="#p" x="407.9"/><use xlink:href="#P" x="713.8" y="51"/><use xlink:href="#P" x="713.8" y="52.7"/><use xlink:href="#C" x="968.7" y="51"/><use xlink:href="#G" x="917.7" y="51"/><path d="M981.6 409.3c-6.2 0-11.2 5-11.2 11.2s5 11.2 11.2 11.2 11.2-5 11.2-11.2-5-11.2-11.2-11.2zM981 426c0 .5-.4.8-.8.8h-4c-.5 0-.8-.4-.8-.8v-4c0-.5.4-.8.8-.8h4c.5 0 .8.4.8.8v4zm0-6.9c0 .5-.4.8-.8.8h-4c-.5 0-.8-.4-.8-.8v-3.9c0-.5.4-.8.8-.8h4c.5 0 .8.4.8.8v3.9zm6.8 6.9c0 .5-.4.8-.8.8h-4c-.5 0-.8-.4-.8-.8v-4c0-.5.4-.8.8-.8h4c.5 0 .8.4.8.8v4zm0-6.9c0 .5-.4.8-.8.8h-4c-.5 0-.8-.4-.8-.8v-3.9c0-.5.4-.8.8-.8h4c.5 0 .8.4.8.8v3.9z"/><use xlink:href="#P" x="713.8" y="45"/><use xlink:href="#U" x="892.2" y="25.5"/><path d="M1007.1 409.3a11.29 11.29 0 0 0-11.3 11.3c0 6.3 5 11.2 11.2 11.2s11.2-5 11.2-11.2c.1-6.3-4.9-11.3-11.1-11.3zm5.7 17.8c-1 0-1.7-.8-1.7-1.7 0-.6.3-1.1.8-1.4l-1.3-2.6c-.2.1-.4.1-.6.1s-.4 0-.6-.1l-1.3 2.5c.5.3.8.8.8 1.4 0 1-.8 1.7-1.7 1.7-1 0-1.7-.8-1.7-1.7a1.75 1.75 0 0 1 .7-1.4l-1.4-2.6c-.2.1-.4.1-.6.1-.1 0-.3 0-.5-.1l-1.3 2.5a1.75 1.75 0 0 1 .7 1.4c0 1-.8 1.7-1.7 1.7s-1.7-.8-1.7-1.7.8-1.7 1.7-1.7c.2 0 .4 0 .6.1l1.3-2.5c-.5-.3-.8-.8-.8-1.5 0-1 .8-1.7 1.7-1.7.3 0 .5.1.7.1l1.3-2.6a1.75 1.75 0 0 1-.7-1.4c0-1 .8-1.7 1.7-1.7s1.7.8 1.7 1.7c0 .6-.3 1.1-.8 1.4l1.3 2.5c.2-.1.3-.1.5-.1 1 0 1.7.8 1.7 1.7a1.75 1.75 0 0 1-.7 1.4l1.3 2.6c.2-.1.4-.1.6-.1 1 0 1.7.8 1.7 1.7 0 1.3-.8 2-1.7 2z"/><use xlink:href="#B" x="1019.7" y="51"/><use xlink:href="#B" x="1019.7" y="52.7"/><use xlink:href="#C" x="1019.7" y="51"/><use xlink:href="#G" x="968.7" y="51"/><use xlink:href="#Q" x="764.8" y="51"/><use xlink:href="#B" x="1019.7" y="45"/><use xlink:href="#U" x="943.2" y="25.5"/><path d="M1058.1 409.3a11.29 11.29 0 0 0-11.3 11.3c0 6.3 5 11.2 11.2 11.2s11.2-5 11.2-11.2c.1-6.3-4.9-11.3-11.1-11.3zm5.6 17.8c-1 0-1.7-.8-1.7-1.7 0-.6.3-1.1.8-1.4l-1.3-2.6c-.2.1-.4.1-.6.1s-.4 0-.6-.1l-1.3 2.5c.5.3.8.8.8 1.4 0 1-.8 1.7-1.7 1.7s-1.7-.8-1.7-1.7a1.75 1.75 0 0 1 .7-1.4l-1.4-2.6c-.2.1-.4.1-.6.1-.1 0-.3 0-.5-.1l-1.3 2.5a1.75 1.75 0 0 1 .7 1.4c0 1-.8 1.7-1.7 1.7-1 0-1.7-.8-1.7-1.7s.8-1.7 1.7-1.7c.2 0 .4 0 .6.1l1.3-2.5c-.5-.3-.8-.8-.8-1.5 0-1 .8-1.7 1.7-1.7.3 0 .5.1.7.1l1.3-2.6a1.75 1.75 0 0 1-.7-1.4c0-1 .8-1.7 1.7-1.7s1.7.8 1.7 1.7c0 .6-.3 1.1-.8 1.4l1.3 2.5c.2-.1.3-.1.5-.1 1 0 1.7.8 1.7 1.7a1.75 1.75 0 0 1-.7 1.4l1.3 2.6c.2-.1.4-.1.6-.1 1 0 1.7.8 1.7 1.7.1 1.3-.7 2-1.7 2z"/><use xlink:href="#B" x="1070.7" y="51"/><use xlink:href="#B" x="1070.7" y="52.7"/><use xlink:href="#C" x="1070.7" y="51"/><use xlink:href="#G" x="1019.7" y="51"/><use xlink:href="#a" x="1019.7"/><use xlink:href="#B" x="1070.7" y="45"/><use xlink:href="#F" x="1070.7"/><path d="M1109 358.3a11.29 11.29 0 0 0-11.3 11.3c0 6.2 5 11.2 11.2 11.2s11.2-5 11.2-11.2c.2-6.3-4.8-11.3-11.1-11.3zm5.8 17.9c-1 0-1.7-.8-1.7-1.7 0-.6.3-1.1.8-1.4l-1.3-2.6c-.2.1-.4.1-.6.1s-.4 0-.6-.1l-1.3 2.5c.5.3.8.8.8 1.4 0 1-.8 1.7-1.7 1.7-1 0-1.7-.8-1.7-1.7a1.75 1.75 0 0 1 .7-1.4l-1.4-2.6c-.2.1-.4.1-.6.1-.1 0-.3 0-.5-.1l-1.3 2.5a1.75 1.75 0 0 1 .7 1.4c0 1-.8 1.7-1.7 1.7s-1.7-.8-1.7-1.7c0-1 .8-1.7 1.7-1.7.2 0 .4 0 .6.1l1.3-2.5c-.5-.3-.8-.8-.8-1.5 0-1 .8-1.7 1.7-1.7.3 0 .5.1.7.1l1.3-2.6a1.75 1.75 0 0 1-.7-1.4c0-1 .8-1.7 1.7-1.7s1.7.8 1.7 1.7c0 .6-.3 1.1-.8 1.4l1.3 2.5c.2-.1.3-.1.5-.1 1 0 1.7.8 1.7 1.7a1.75 1.75 0 0 1-.7 1.4l1.3 2.6c.2-.1.4-.1.6-.1 1 0 1.7.8 1.7 1.7 0 1.2-.8 2-1.7 2z"/><use xlink:href="#B" x="1121.7"/><use xlink:href="#B" x="1121.7" y="1.7"/><use xlink:href="#C" x="1121.7"/><use xlink:href="#G" x="1070.7"/><use xlink:href="#K" x="1019.7"/><use xlink:href="#B" x="1121.7" y="-6"/><use xlink:href="#N" x="968.7"/><path d="M1160.1 358.3a11.29 11.29 0 0 0-11.3 11.3c0 6.2 5 11.2 11.2 11.2s11.2-5 11.2-11.2c.1-6.3-5-11.3-11.1-11.3zm5.6 17.9c-1 0-1.7-.8-1.7-1.7 0-.6.3-1.1.8-1.4l-1.3-2.6c-.2.1-.4.1-.6.1s-.4 0-.6-.1l-1.3 2.5c.5.3.8.8.8 1.4 0 1-.8 1.7-1.7 1.7s-1.7-.8-1.7-1.7a1.75 1.75 0 0 1 .7-1.4l-1.4-2.6c-.2.1-.4.1-.6.1-.1 0-.3 0-.5-.1l-1.3 2.5a1.75 1.75 0 0 1 .7 1.4c0 1-.8 1.7-1.7 1.7s-1.7-.8-1.7-1.7c0-1 .8-1.7 1.7-1.7.2 0 .4 0 .6.1l1.3-2.5c-.5-.3-.8-.8-.8-1.5 0-1 .8-1.7 1.7-1.7.3 0 .5.1.7.1l1.3-2.6a1.75 1.75 0 0 1-.7-1.4c0-1 .8-1.7 1.7-1.7s1.7.8 1.7 1.7c0 .6-.3 1.1-.8 1.4l1.3 2.5c.2-.1.3-.1.5-.1 1 0 1.7.8 1.7 1.7a1.75 1.75 0 0 1-.7 1.4l1.3 2.6c.2-.1.4-.1.6-.1 1 0 1.7.8 1.7 1.7.1 1.2-.7 2-1.7 2z"/><use xlink:href="#B" x="1096.2" y="25.5"/><use xlink:href="#B" x="1096.2" y="27.2"/><use xlink:href="#C" x="1096.2" y="25.5"/><use xlink:href="#G" x="1045.2" y="25.5"/><use xlink:href="#K" x="994.2" y="25.5"/><use xlink:href="#B" x="1096.2" y="19.5"/><use xlink:href="#U" x="1019.7"/><use xlink:href="#V" x="1019.7"/><use xlink:href="#B" x="1147.2" y="25.5"/><use xlink:href="#B" x="1147.2" y="27.2"/><use xlink:href="#L" x="994.2" y="25.5"/><use xlink:href="#G" x="1096.2" y="25.5"/><use xlink:href="#K" x="1045.2" y="25.5"/><use xlink:href="#B" x="1147.2" y="19.5"/><use xlink:href="#U" x="994.2" y="25.5"/><path d="M1109 409.3a11.29 11.29 0 0 0-11.3 11.3c0 6.3 5 11.2 11.2 11.2s11.2-5 11.2-11.2c.2-6.3-4.8-11.3-11.1-11.3zm5.8 17.8c-1 0-1.7-.8-1.7-1.7 0-.6.3-1.1.8-1.4l-1.3-2.6c-.2.1-.4.1-.6.1s-.4 0-.6-.1l-1.3 2.5c.5.3.8.8.8 1.4 0 1-.8 1.7-1.7 1.7-1 0-1.7-.8-1.7-1.7a1.75 1.75 0 0 1 .7-1.4l-1.4-2.6c-.2.1-.4.1-.6.1-.1 0-.3 0-.5-.1l-1.3 2.5a1.75 1.75 0 0 1 .7 1.4c0 1-.8 1.7-1.7 1.7s-1.7-.8-1.7-1.7.8-1.7 1.7-1.7c.2 0 .4 0 .6.1l1.3-2.5c-.5-.3-.8-.8-.8-1.5 0-1 .8-1.7 1.7-1.7.3 0 .5.1.7.1l1.3-2.6a1.75 1.75 0 0 1-.7-1.4c0-1 .8-1.7 1.7-1.7s1.7.8 1.7 1.7c0 .6-.3 1.1-.8 1.4l1.3 2.5c.2-.1.3-.1.5-.1 1 0 1.7.8 1.7 1.7a1.75 1.75 0 0 1-.7 1.4l1.3 2.6c.2-.1.4-.1.6-.1 1 0 1.7.8 1.7 1.7 0 1.3-.8 2-1.7 2z"/><use xlink:href="#B" x="1121.7" y="51"/><use xlink:href="#B" x="1121.7" y="52.7"/><use xlink:href="#C" x="1121.7" y="51"/><use xlink:href="#G" x="1070.7" y="51"/><use xlink:href="#b" x="1019.7"/><use xlink:href="#B" x="1121.7" y="45"/><use xlink:href="#W" x="994.2" y="25.5"/><path d="M1160.1 409.3a11.29 11.29 0 0 0-11.3 11.3c0 6.3 5 11.2 11.2 11.2s11.2-5 11.2-11.2c.1-6.3-5-11.3-11.1-11.3zm5.6 17.8c-1 0-1.7-.8-1.7-1.7 0-.6.3-1.1.8-1.4l-1.3-2.6c-.2.1-.4.1-.6.1s-.4 0-.6-.1l-1.3 2.5c.5.3.8.8.8 1.4 0 1-.8 1.7-1.7 1.7s-1.7-.8-1.7-1.7a1.75 1.75 0 0 1 .7-1.4l-1.4-2.6c-.2.1-.4.1-.6.1-.1 0-.3 0-.5-.1l-1.3 2.5a1.75 1.75 0 0 1 .7 1.4c0 1-.8 1.7-1.7 1.7s-1.7-.8-1.7-1.7.8-1.7 1.7-1.7c.2 0 .4 0 .6.1l1.3-2.5c-.5-.3-.8-.8-.8-1.5 0-1 .8-1.7 1.7-1.7.3 0 .5.1.7.1l1.3-2.6a1.75 1.75 0 0 1-.7-1.4c0-1 .8-1.7 1.7-1.7s1.7.8 1.7 1.7c0 .6-.3 1.1-.8 1.4l1.3 2.5c.2-.1.3-.1.5-.1 1 0 1.7.8 1.7 1.7a1.75 1.75 0 0 1-.7 1.4l1.3 2.6c.2-.1.4-.1.6-.1 1 0 1.7.8 1.7 1.7.1 1.3-.7 2-1.7 2z"/></g><defs ><path id="B" d="M17.9 371.7h-3.3c-.1 0-.2.1-.2.2v.4c0 .1.1.2.2.2h3.3c.1 0 .2-.1.2-.2v-.4c0-.1-.1-.2-.2-.2z"/><path id="C" d="M11.1 365.7h-1c-.1 0-.2-.1-.2-.2v-1c0-.1-.1-.2-.2-.2h-.4c-.1 0-.2.1-.2.2v1c0 .1-.1.2-.2.2h-1c-.1 0-.2.1-.2.2v.4c0 .1.1.2.2.2h1c.1 0 .2.1.2.2v1c0 .1.1.2.2.2h.4c.1 0 .2-.1.2-.2v-1c0-.1.1-.2.2-.2h1c.1 0 .2-.1.2-.2v-.4c0-.1-.1-.2-.2-.2z"/><path id="D" d="M10.9 372.1c.1-.1.1-.2 0-.3l-.3-.3c-.1-.1-.2-.1-.3 0l-.7.7c-.1.1-.2.1-.3 0l-.7-.7c-.1-.1-.2-.1-.3 0l-.3.3c-.1.1-.1.2 0 .3l.7.7c.1.1.1.2 0 .3l-.7.8c-.1.1-.1.2 0 .3l.3.3c.1.1.2.1.3 0l.7-.7c.1-.1.2-.1.3 0l.7.7c.1.1.2.1.3 0l.3-.3c.1-.1.1-.2 0-.3l-.7-.7c-.1-.1-.1-.2 0-.3l.7-.8z"/><path id="E" d="M12.9 358.3c-6.2 0-11.2 5-11.2 11.2s5 11.2 11.2 11.2 11.2-5 11.2-11.2-5-11.2-11.2-11.2zm-.6 16.7c0 .5-.4.8-.8.8h-4c-.5 0-.8-.4-.8-.8v-4c0-.5.4-.8.8-.8h3.9c.5 0 .8.4.8.8l.1 4h0zm0-6.9c0 .5-.4.8-.8.8h-4c-.5 0-.8-.4-.8-.8v-3.9c0-.5.4-.8.8-.8h3.9c.5 0 .8.4.8.8l.1 3.9h0zm6.8 6.9c0 .5-.4.8-.8.8h-4c-.5 0-.8-.4-.8-.8v-4c0-.5.4-.8.8-.8h4c.5 0 .8.4.8.8v4zm0-6.9c0 .5-.4.8-.8.8h-4c-.5 0-.8-.4-.8-.8v-3.9c0-.5.4-.8.8-.8h4c.5 0 .8.4.8.8 0 0 0 3.9 0 3.9z"/><path id="F" d="M40.3 367.3l-1.3-2.5c-.2.1-.4.1-.6.1s-.4 0-.6-.1l-1.4 2.7a1.75 1.75 0 0 1 0 2.8l1.4 2.6c.2-.1.4-.1.6-.1s.4 0 .6.1l1.3-2.5c-.5-.3-.8-.8-.8-1.4 0-.8.3-1.4.8-1.7z"/><path id="G" d="M61.9 372.1c.1-.1.1-.2 0-.3l-.3-.3c-.1-.1-.2-.1-.3 0l-.7.7c-.1.1-.2.1-.3 0l-.7-.7c-.1-.1-.2-.1-.3 0l-.3.3c-.1.1-.1.2 0 .3l.7.7c.1.1.1.2 0 .3l-.7.7c-.1.1-.1.2 0 .3l.3.3c.1.1.2.1.3 0l.7-.7c.1-.1.2-.1.3 0l.7.7c.1.1.2.1.3 0l.3-.3c.1-.1.1-.2 0-.3l-.7-.7c-.1-.1-.1-.2 0-.3l.7-.7z"/><path id="H" d="M63.8 358.3c-6.2 0-11.2 5-11.2 11.2s5 11.2 11.2 11.2 11.2-5 11.2-11.2-4.9-11.2-11.2-11.2zm-.5 16.7c0 .5-.4.8-.8.8h-4c-.5 0-.8-.4-.8-.8v-4c0-.5.4-.8.8-.8h4c.5 0 .8.4.8.8v4zm0-6.9c0 .5-.4.8-.8.8h-4c-.5 0-.8-.4-.8-.8v-3.9c0-.5.4-.8.8-.8h4c.5 0 .8.4.8.8v3.9zm6.8 6.9c0 .5-.4.8-.8.8h-4c-.5 0-.8-.4-.8-.8v-4c0-.5.4-.8.8-.8h4c.5 0 .8.4.8.8v4zm0-6.9c0 .5-.4.8-.8.8h-4c-.5 0-.8-.4-.8-.8v-3.9c0-.5.4-.8.8-.8h4c.5 0 .8.4.8.8v3.9z"/><path id="I" d="M91.3 367.3l-1.3-2.5c-.2.1-.4.1-.6.1s-.4 0-.6-.1l-1.4 2.7a1.75 1.75 0 0 1 0 2.8l1.4 2.6c.2-.1.4-.1.6-.1s.4 0 .6.1l1.3-2.5c-.5-.3-.8-.8-.8-1.4a1.69 1.69 0 0 1 .8-1.7z"/><path id="J" d="M113.1 365.7h-1c-.1 0-.2-.1-.2-.2v-1c0-.1-.1-.2-.2-.2h-.4c-.1 0-.2.1-.2.2v1c0 .1-.1.2-.2.2h-1c-.1 0-.2.1-.2.2v.4c0 .1.1.2.2.2h1c.1 0 .2.1.2.2v1c0 .1.1.2.2.2h.4c.1 0 .2-.1.2-.2v-1c0-.1.1-.2.2-.2h1c.1 0 .2-.1.2-.2v-.4c0-.1-.2-.2-.2-.2z"/><path id="K" d="M114.8 358.3c-6.2 0-11.2 5-11.2 11.2s5 11.2 11.2 11.2 11.2-5 11.2-11.2-5-11.2-11.2-11.2zm-.5 16.7c0 .5-.4.8-.8.8h-4c-.5 0-.8-.4-.8-.8v-4c0-.5.4-.8.8-.8h4c.5 0 .8.4.8.8v4zm0-6.9c0 .5-.4.8-.8.8h-4c-.5 0-.8-.4-.8-.8v-3.9c0-.5.4-.8.8-.8h4c.5 0 .8.4.8.8v3.9zm6.8 6.9c0 .5-.4.8-.8.8h-4c-.5 0-.8-.4-.8-.8v-4c0-.5.4-.8.8-.8h4c.5 0 .8.4.8.8v4zm0-6.9c0 .5-.4.8-.8.8h-4c-.5 0-.8-.4-.8-.8v-3.9c0-.5.4-.8.8-.8h4c.5 0 .8.4.8.8v3.9z"/><path id="L" d="M164 365.7h-1c-.1 0-.2-.1-.2-.2v-1c0-.1-.1-.2-.2-.2h-.4c-.1 0-.2.1-.2.2v1c0 .1-.1.2-.2.2h-1c-.1 0-.2.1-.2.2v.4c0 .1.1.2.2.2h1c.1 0 .2.1.2.2v1c0 .1.1.2.2.2h.4c.1 0 .2-.1.2-.2v-1c0-.1.1-.2.2-.2h1c.1 0 .2-.1.2-.2v-.4c.1-.1 0-.2-.2-.2z"/><path id="M" d="M165.8 358.3c-6.2 0-11.2 5-11.2 11.2s5 11.2 11.2 11.2 11.2-5 11.2-11.2-5-11.2-11.2-11.2zm-.5 16.7c0 .5-.4.8-.8.8h-4c-.5 0-.8-.4-.8-.8v-4c0-.5.4-.8.8-.8h3.9c.5 0 .8.4.8.8l.1 4h0zm0-6.9c0 .5-.4.8-.8.8h-4c-.5 0-.8-.4-.8-.8v-3.9c0-.5.4-.8.8-.8h3.9c.5 0 .8.4.8.8l.1 3.9h0zm6.8 6.9c0 .5-.4.8-.8.8h-4c-.5 0-.8-.4-.8-.8v-4c0-.5.4-.8.8-.8h4c.5 0 .8.4.8.8v4zm0-6.9c0 .5-.4.8-.8.8h-4c-.5 0-.8-.4-.8-.8v-3.9c0-.5.4-.8.8-.8h4c.5 0 .8.4.8.8v3.9z"/><path id="N" d="M193.2 367.3l-1.3-2.5c-.2.1-.4.1-.6.1s-.4 0-.6-.1l-1.4 2.7a1.75 1.75 0 0 1 0 2.8l1.4 2.6c.2-.1.4-.1.6-.1s.4 0 .6.1l1.3-2.5c-.5-.3-.8-.8-.8-1.4 0-.8.4-1.4.8-1.7z"/><path id="O" d="M216.8 358.3c-6.2 0-11.2 5-11.2 11.2s5 11.2 11.2 11.2 11.2-5 11.2-11.2-5-11.2-11.2-11.2zm-.6 16.7c0 .5-.4.8-.8.8h-4c-.5 0-.8-.4-.8-.8v-4c0-.5.4-.8.8-.8h4c.5 0 .8.4.8.8v4zm0-6.9c0 .5-.4.8-.8.8h-4c-.5 0-.8-.4-.8-.8v-3.9c0-.5.4-.8.8-.8h4c.5 0 .8.4.8.8v3.9zm6.9 6.9c0 .5-.4.8-.8.8h-4c-.5 0-.8-.4-.8-.8v-4c0-.5.4-.8.8-.8h4c.5 0 .8.4.8.8v4zm0-6.9c0 .5-.4.8-.8.8h-4c-.5 0-.8-.4-.8-.8v-3.9c0-.5.4-.8.8-.8h4c.5 0 .8.4.8.8v3.9z"/><path id="P" d="M272.8 371.7h-3.3c-.1 0-.2.1-.2.2v.4c0 .1.1.2.2.2h3.3c.1 0 .2-.1.2-.2v-.4c0-.1 0-.2-.2-.2z"/><path id="Q" d="M267.8 358.3c-6.2 0-11.2 5-11.2 11.2s5 11.2 11.2 11.2 11.2-5 11.2-11.2-5-11.2-11.2-11.2zm-.6 16.7c0 .5-.4.8-.8.8h-4c-.5 0-.8-.4-.8-.8v-4c0-.5.4-.8.8-.8h4c.5 0 .8.4.8.8v4zm0-6.9c0 .5-.4.8-.8.8h-4c-.5 0-.8-.4-.8-.8v-3.9c0-.5.4-.8.8-.8h4c.5 0 .8.4.8.8v3.9zm6.8 6.9c0 .5-.4.8-.8.8h-4c-.5 0-.8-.4-.8-.8v-4c0-.5.4-.8.8-.8h4c.5 0 .8.4.8.8v4zm0-6.9c0 .5-.4.8-.8.8h-4c-.5 0-.8-.4-.8-.8v-3.9c0-.5.4-.8.8-.8h4c.5 0 .8.4.8.8v3.9z"/><path id="R" d="M65.8 392.8l-1.3-2.5c-.2.1-.4.1-.6.1s-.4 0-.6-.1l-1.4 2.7a1.75 1.75 0 0 1 0 2.8l1.4 2.6c.2-.1.4-.1.6-.1s.4 0 .6.1l1.3-2.5c-.5-.3-.8-.8-.8-1.4-.1-.9.3-1.4.8-1.7z"/><path id="S" d="M87.4 397.6c.1-.1.1-.2 0-.3l-.3-.3c-.1-.1-.2-.1-.3 0l-.7.7c-.1.1-.2.1-.3 0l-.8-.7c-.1-.1-.2-.1-.3 0l-.3.3c-.1.1-.1.2 0 .3l.7.7c.1.1.1.2 0 .3l-.7.7c-.1.1-.1.2 0 .3l.3.3c.1.1.2.1.3 0l.7-.7c.1-.1.2-.1.3 0l.7.7c.1.1.2.1.3 0l.3-.3c.1-.1.1-.2 0-.3l-.7-.7c-.1-.1-.1-.2 0-.3l.8-.7z"/><path id="T" d="M89.3 383.8c-6.2 0-11.2 5-11.2 11.2s5 11.2 11.2 11.2 11.2-5 11.2-11.2-5-11.2-11.2-11.2zm-.5 16.7c0 .5-.4.8-.8.8h-4c-.5 0-.8-.4-.8-.8v-4c0-.5.4-.8.8-.8h4c.5 0 .8.4.8.8v4zm0-6.9c0 .5-.4.8-.8.8h-4c-.5 0-.8-.4-.8-.8v-3.9c0-.5.4-.8.8-.8h4c.5 0 .8.4.8.8v3.9zm6.8 6.9c0 .5-.4.8-.8.8h-4c-.5 0-.8-.4-.8-.8v-4c0-.5.4-.8.8-.8h3.9c.5 0 .8.4.8.8l.1 4h0zm0-6.9c0 .5-.4.8-.8.8h-4c-.5 0-.8-.4-.8-.8v-3.9c0-.5.4-.8.8-.8h3.9c.5 0 .8.4.8.8l.1 3.9h0z"/><path id="U" d="M116.8 392.8l-1.3-2.5c-.2.1-.4.1-.6.1s-.4 0-.6-.1l-1.4 2.7a1.75 1.75 0 0 1 0 2.8l1.4 2.6c.2-.1.4-.1.6-.1s.4 0 .6.1l1.3-2.5c-.5-.3-.8-.8-.8-1.4 0-.9.3-1.4.8-1.7z"/><path id="V" d="M114.8 383.8a11.29 11.29 0 0 0-11.3 11.3c0 6.3 5 11.2 11.2 11.2s11.2-5 11.2-11.2c.2-6.3-4.8-11.3-11.1-11.3zm5.7 17.8c-1 0-1.7-.8-1.7-1.7 0-.6.3-1.1.8-1.4l-1.3-2.6c-.2.1-.4.1-.6.1s-.4 0-.6-.1l-1.3 2.5c.5.3.8.8.8 1.4 0 1-.8 1.7-1.7 1.7s-1.7-.8-1.7-1.7a1.75 1.75 0 0 1 .7-1.4l-1.4-2.6c-.2.1-.4.1-.6.1-.1 0-.3 0-.5-.1l-1.3 2.5a1.75 1.75 0 0 1 .7 1.4c0 1-.8 1.7-1.7 1.7s-1.7-.8-1.7-1.7c0-1 .8-1.7 1.7-1.7.2 0 .4 0 .6.1l1.3-2.5c-.5-.3-.8-.8-.8-1.5 0-1 .8-1.7 1.7-1.7.3 0 .5.1.7.1l1.3-2.6a1.75 1.75 0 0 1-.7-1.4c0-1 .8-1.7 1.7-1.7s1.7.8 1.7 1.7c0 .6-.3 1.1-.8 1.4l1.3 2.5c.2-.1.3-.1.5-.1 1 0 1.7.8 1.7 1.7a1.75 1.75 0 0 1-.7 1.4l1.3 2.6c.2-.1.4-.1.6-.1 1 0 1.7.8 1.7 1.7.1 1.3-.7 2-1.7 2z"/><path id="W" d="M167.7 392.8l-1.3-2.5c-.2.1-.4.1-.6.1s-.4 0-.6-.1l-1.4 2.7a1.75 1.75 0 0 1 0 2.8l1.4 2.6c.2-.1.4-.1.6-.1s.4 0 .6.1l1.3-2.5c-.5-.3-.8-.8-.8-1.4 0-.9.4-1.4.8-1.7z"/><path id="X" d="M189.6 391.2h-1c-.1 0-.2-.1-.2-.2v-1c0-.1-.1-.2-.2-.2h-.4c-.1 0-.2.1-.2.2v1c0 .1-.1.2-.2.2h-1c-.1 0-.2.1-.2.2v.4c0 .1.1.2.2.2h1c.1 0 .2.1.2.2v1c0 .1.1.2.2.2h.4c.1 0 .2-.1.2-.2v-1c0-.1.1-.2.2-.2h1c.1 0 .2-.1.2-.2v-.4l-.2-.2z"/><path id="Y" d="M247.3 397.2H244c-.1 0-.2.1-.2.2v.4c0 .1.1.2.2.2h3.3c.1 0 .2-.1.2-.2v-.4c.1-.1 0-.2-.2-.2z"/><path id="Z" d="M267.8 383.8a11.29 11.29 0 0 0-11.3 11.3c0 6.3 5 11.2 11.2 11.2s11.2-5 11.2-11.2c.1-6.3-4.9-11.3-11.1-11.3zm5.7 17.8c-1 0-1.7-.8-1.7-1.7 0-.6.3-1.1.8-1.4l-1.3-2.6c-.2.1-.4.1-.6.1s-.4 0-.6-.1l-1.3 2.5c.5.3.8.8.8 1.4 0 1-.8 1.7-1.7 1.7-1 0-1.7-.8-1.7-1.7a1.75 1.75 0 0 1 .7-1.4l-1.4-2.6c-.2.1-.4.1-.6.1-.1 0-.3 0-.5-.1l-1.3 2.5a1.75 1.75 0 0 1 .7 1.4c0 1-.8 1.7-1.7 1.7s-1.7-.8-1.7-1.7c0-1 .8-1.7 1.7-1.7.2 0 .4 0 .6.1l1.3-2.5c-.5-.3-.8-.8-.8-1.5 0-1 .8-1.7 1.7-1.7.3 0 .5.1.7.1l1.3-2.6a1.75 1.75 0 0 1-.7-1.4c0-1 .8-1.7 1.7-1.7s1.7.8 1.7 1.7c0 .6-.3 1.1-.8 1.4l1.3 2.5c.2-.1.3-.1.5-.1 1 0 1.7.8 1.7 1.7a1.75 1.75 0 0 1-.7 1.4l1.3 2.6c.2-.1.4-.1.6-.1 1 0 1.7.8 1.7 1.7 0 1.3-.7 2-1.7 2z"/><path id="a" d="M63.8 409.3c-6.2 0-11.2 5-11.2 11.2s5 11.2 11.2 11.2 11.2-5 11.2-11.2c.1-6.2-4.9-11.2-11.2-11.2zm-.5 16.7c0 .5-.4.8-.8.8h-4c-.5 0-.8-.4-.8-.8v-4c0-.5.4-.8.8-.8h4c.5 0 .8.4.8.8v4zm0-6.9c0 .5-.4.8-.8.8h-4c-.5 0-.8-.4-.8-.8v-3.9c0-.5.4-.8.8-.8h4c.5 0 .8.4.8.8v3.9zm6.8 6.9c0 .5-.4.8-.8.8h-4c-.5 0-.8-.4-.8-.8v-4c0-.5.4-.8.8-.8h4c.5 0 .8.4.8.8v4zm0-6.9c0 .5-.4.8-.8.8h-4c-.5 0-.8-.4-.8-.8v-3.9c0-.5.4-.8.8-.8h4c.5 0 .8.4.8.8v3.9z"/><path id="b" d="M114.8 409.3c-6.2 0-11.2 5-11.2 11.2s5 11.2 11.2 11.2 11.2-5 11.2-11.2c.1-6.2-5-11.2-11.2-11.2zm-.5 16.7c0 .5-.4.8-.8.8h-4c-.5 0-.8-.4-.8-.8v-4c0-.5.4-.8.8-.8h4c.5 0 .8.4.8.8v4zm0-6.9c0 .5-.4.8-.8.8h-4c-.5 0-.8-.4-.8-.8v-3.9c0-.5.4-.8.8-.8h4c.5 0 .8.4.8.8v3.9zm6.8 6.9c0 .5-.4.8-.8.8h-4c-.5 0-.8-.4-.8-.8v-4c0-.5.4-.8.8-.8h4c.5 0 .8.4.8.8v4zm0-6.9c0 .5-.4.8-.8.8h-4c-.5 0-.8-.4-.8-.8v-3.9c0-.5.4-.8.8-.8h4c.5 0 .8.4.8.8v3.9z"/><path id="c" d="M165.8 409.3c-6.2 0-11.2 5-11.2 11.2s5 11.2 11.2 11.2 11.2-5 11.2-11.2c.1-6.2-5-11.2-11.2-11.2zm-.5 16.7c0 .5-.4.8-.8.8h-4c-.5 0-.8-.4-.8-.8v-4c0-.5.4-.8.8-.8h3.9c.5 0 .8.4.8.8l.1 4h0zm0-6.9c0 .5-.4.8-.8.8h-4c-.5 0-.8-.4-.8-.8v-3.9c0-.5.4-.8.8-.8h3.9c.5 0 .8.4.8.8l.1 3.9h0zm6.8 6.9c0 .5-.4.8-.8.8h-4c-.5 0-.8-.4-.8-.8v-4c0-.5.4-.8.8-.8h4c.5 0 .8.4.8.8v4zm0-6.9c0 .5-.4.8-.8.8h-4c-.5 0-.8-.4-.8-.8v-3.9c0-.5.4-.8.8-.8h4c.5 0 .8.4.8.8v3.9z"/><path id="d" d="M318.8 358.3c-6.2 0-11.2 5-11.2 11.2s5 11.2 11.2 11.2 11.2-5 11.2-11.2-5-11.2-11.2-11.2zm-.6 16.7c0 .5-.4.8-.8.8h-4c-.5 0-.8-.4-.8-.8v-4c0-.5.4-.8.8-.8h3.9c.5 0 .8.4.8.8l.1 4h0zm0-6.9c0 .5-.4.8-.8.8h-4c-.5 0-.8-.4-.8-.8v-3.9c0-.5.4-.8.8-.8h3.9c.5 0 .8.4.8.8l.1 3.9h0zm6.8 6.9c0 .5-.4.8-.8.8h-4c-.5 0-.8-.4-.8-.8v-4c0-.5.4-.8.8-.8h4c.5 0 .8.4.8.8v4zm0-6.9c0 .5-.4.8-.8.8h-4c-.5 0-.8-.4-.8-.8v-3.9c0-.5.4-.8.8-.8h4c.5 0 .8.4.8.8v3.9z"/><path id="e" d="M420.8 358.3c-6.2 0-11.2 5-11.2 11.2s5 11.2 11.2 11.2 11.2-5 11.2-11.2-5.1-11.2-11.2-11.2zm-.6 16.7c0 .5-.4.8-.8.8h-4c-.5 0-.8-.4-.8-.8v-4c0-.5.4-.8.8-.8h4c.5 0 .8.4.8.8v4zm0-6.9c0 .5-.4.8-.8.8h-4c-.5 0-.8-.4-.8-.8v-3.9c0-.5.4-.8.8-.8h4c.5 0 .8.4.8.8v3.9zm6.8 6.9c0 .5-.4.8-.8.8h-4c-.5 0-.8-.4-.8-.8v-4c0-.5.4-.8.8-.8h4c.5 0 .8.4.8.8v4zm0-6.9c0 .5-.4.8-.8.8h-4c-.5 0-.8-.4-.8-.8v-3.9c0-.5.4-.8.8-.8h4c.5 0 .8.4.8.8v3.9z"/><path id="f" d="M298.4 397.2h-3.3c-.1 0-.2.1-.2.2v.4c0 .1.1.2.2.2h3.3c.1 0 .2-.1.2-.2v-.4c-.1-.1-.1-.2-.2-.2z"/><path id="g" d="M349.3 397.2H346c-.1 0-.2.1-.2.2v.4c0 .1.1.2.2.2h3.3c.1 0 .2-.1.2-.2v-.4c0-.1-.1-.2-.2-.2z"/><path id="h" d="M369.8 383.8a11.29 11.29 0 0 0-11.3 11.3c0 6.3 5 11.2 11.2 11.2s11.2-5 11.2-11.2c.1-6.3-4.9-11.3-11.1-11.3zm5.7 17.8c-1 0-1.7-.8-1.7-1.7 0-.6.3-1.1.8-1.4l-1.3-2.6c-.2.1-.4.1-.6.1s-.4 0-.6-.1l-1.3 2.5c.5.3.8.8.8 1.4 0 1-.8 1.7-1.7 1.7-1 0-1.7-.8-1.7-1.7a1.75 1.75 0 0 1 .7-1.4l-1.4-2.6c-.2.1-.4.1-.6.1-.1 0-.3 0-.5-.1l-1.3 2.5a1.75 1.75 0 0 1 .7 1.4c0 1-.8 1.7-1.7 1.7s-1.7-.8-1.7-1.7c0-1 .8-1.7 1.7-1.7.2 0 .4 0 .6.1l1.3-2.5c-.5-.3-.8-.8-.8-1.5 0-1 .8-1.7 1.7-1.7.3 0 .5.1.7.1l1.3-2.6a1.75 1.75 0 0 1-.7-1.4c0-1 .8-1.7 1.7-1.7 1 0 1.7.8 1.7 1.7 0 .6-.3 1.1-.8 1.4l1.3 2.5c.2-.1.3-.1.5-.1 1 0 1.7.8 1.7 1.7a1.75 1.75 0 0 1-.7 1.4l1.3 2.6c.2-.1.4-.1.6-.1 1 0 1.7.8 1.7 1.7 0 1.3-.8 2-1.7 2z"/><path id="i" d="M400.3 397.2H397c-.1 0-.2.1-.2.2v.4c0 .1.1.2.2.2h3.3c.1 0 .2-.1.2-.2v-.4c0-.1-.1-.2-.2-.2z"/><path id="j" d="M420.8 383.8a11.29 11.29 0 0 0-11.3 11.3c0 6.3 5 11.2 11.2 11.2s11.2-5 11.2-11.2c.1-6.3-4.9-11.3-11.1-11.3zm5.6 17.8c-1 0-1.7-.8-1.7-1.7 0-.6.3-1.1.8-1.4l-1.3-2.6c-.2.1-.4.1-.6.1s-.4 0-.6-.1l-1.3 2.5c.5.3.8.8.8 1.4 0 1-.8 1.7-1.7 1.7s-1.7-.8-1.7-1.7a1.75 1.75 0 0 1 .7-1.4l-1.4-2.6c-.2.1-.4.1-.6.1-.1 0-.3 0-.5-.1l-1.3 2.5a1.75 1.75 0 0 1 .7 1.4c0 1-.8 1.7-1.7 1.7s-1.7-.8-1.7-1.7c0-1 .8-1.7 1.7-1.7.2 0 .4 0 .6.1l1.3-2.5c-.5-.3-.8-.8-.8-1.5 0-1 .8-1.7 1.7-1.7.3 0 .5.1.7.1l1.3-2.6a1.75 1.75 0 0 1-.7-1.4c0-1 .8-1.7 1.7-1.7s1.7.8 1.7 1.7c0 .6-.3 1.1-.8 1.4l1.3 2.5c.2-.1.3-.1.5-.1 1 0 1.7.8 1.7 1.7a1.75 1.75 0 0 1-.7 1.4l1.3 2.6c.2-.1.4-.1.6-.1 1 0 1.7.8 1.7 1.7.1 1.3-.7 2-1.7 2z"/><path id="k" d="M451.3 397.2H448c-.1 0-.2.1-.2.2v.4c0 .1.1.2.2.2h3.3c.1 0 .2-.1.2-.2v-.4c0-.1-.1-.2-.2-.2z"/><path id="l" d="M502.3 397.2H499c-.1 0-.2.1-.2.2v.4c0 .1.1.2.2.2h3.3c.1 0 .2-.1.2-.2v-.4c0-.1-.1-.2-.2-.2z"/><path id="m" d="M548.2 358.3a11.29 11.29 0 0 0-11.3 11.3c0 6.2 5 11.2 11.2 11.2s11.2-5 11.2-11.2c.2-6.3-4.9-11.3-11.1-11.3zm5.7 17.9c-1 0-1.7-.8-1.7-1.7 0-.6.3-1.1.8-1.4l-1.3-2.6c-.2.1-.4.1-.6.1s-.4 0-.6-.1l-1.3 2.5c.5.3.8.8.8 1.4 0 1-.8 1.7-1.7 1.7s-1.7-.8-1.7-1.7a1.75 1.75 0 0 1 .7-1.4l-1.4-2.6c-.2.1-.4.1-.6.1-.1 0-.3 0-.5-.1l-1.3 2.5a1.75 1.75 0 0 1 .7 1.4c0 1-.8 1.7-1.7 1.7s-1.7-.8-1.7-1.7c0-1 .8-1.7 1.7-1.7.2 0 .4 0 .6.1l1.3-2.5c-.5-.3-.8-.8-.8-1.5 0-1 .8-1.7 1.7-1.7.3 0 .5.1.7.1l1.3-2.6a1.75 1.75 0 0 1-.7-1.4c0-1 .8-1.7 1.7-1.7s1.7.8 1.7 1.7c0 .6-.3 1.1-.8 1.4l1.3 2.5c.2-.1.3-.1.5-.1 1 0 1.7.8 1.7 1.7a1.75 1.75 0 0 1-.7 1.4l1.3 2.6c.2-.1.4-.1.6-.1 1 0 1.7.8 1.7 1.7 0 1.2-.7 2-1.7 2z"/><path id="n" d="M553.3 397.2H550c-.1 0-.2.1-.2.2v.4c0 .1.1.2.2.2h3.3c.1 0 .2-.1.2-.2v-.4c0-.1-.1-.2-.2-.2z"/><path id="o" d="M604.3 397.2H601c-.1 0-.2.1-.2.2v.4c0 .1.1.2.2.2h3.3c.1 0 .2-.1.2-.2v-.4c-.1-.1-.1-.2-.2-.2z"/><path id="p" d="M548.2 409.3a11.29 11.29 0 0 0-11.3 11.3c0 6.3 5 11.2 11.2 11.2s11.2-5 11.2-11.2c.2-6.3-4.9-11.3-11.1-11.3zm5.7 17.8c-1 0-1.7-.8-1.7-1.7 0-.6.3-1.1.8-1.4l-1.3-2.6c-.2.1-.4.1-.6.1s-.4 0-.6-.1l-1.3 2.5c.5.3.8.8.8 1.4 0 1-.8 1.7-1.7 1.7s-1.7-.8-1.7-1.7a1.75 1.75 0 0 1 .7-1.4l-1.4-2.6c-.2.1-.4.1-.6.1-.1 0-.3 0-.5-.1l-1.3 2.5a1.75 1.75 0 0 1 .7 1.4c0 1-.8 1.7-1.7 1.7s-1.7-.8-1.7-1.7.8-1.7 1.7-1.7c.2 0 .4 0 .6.1l1.3-2.5c-.5-.3-.8-.8-.8-1.5 0-1 .8-1.7 1.7-1.7.3 0 .5.1.7.1l1.3-2.6a1.75 1.75 0 0 1-.7-1.4c0-1 .8-1.7 1.7-1.7s1.7.8 1.7 1.7c0 .6-.3 1.1-.8 1.4l1.3 2.5c.2-.1.3-.1.5-.1 1 0 1.7.8 1.7 1.7a1.75 1.75 0 0 1-.7 1.4l1.3 2.6c.2-.1.4-.1.6-.1 1 0 1.7.8 1.7 1.7 0 1.3-.7 2-1.7 2z"/><path id="q" d="M724.9 365.7h-1c-.1 0-.2-.1-.2-.2v-1c0-.1-.1-.2-.2-.2h-.5c-.1 0-.2.1-.2.2v1c0 .1-.1.2-.2.2h-1c-.1 0-.2.1-.2.2v.4c0 .1.1.2.2.2h1c.1 0 .2.1.2.2v1c0 .1.1.2.2.2h.4c.1 0 .2-.1.2-.2v-1c0-.1.1-.2.2-.2h1c.1 0 .2-.1.2-.2v-.4c.1-.1 0-.2-.1-.2z"/><path id="r" d="M826.9 365.7h-1c-.1 0-.2-.1-.2-.2v-1c0-.1-.1-.2-.2-.2h-.5c-.1 0-.2.1-.2.2v1c0 .1-.1.2-.2.2h-1c-.1 0-.2.1-.2.2v.4c0 .1.1.2.2.2h1c.1 0 .2.1.2.2v1c0 .1.1.2.2.2h.4c.1 0 .2-.1.2-.2v-1c0-.1.1-.2.2-.2h1c.1 0 .2-.1.2-.2v-.4c.1-.1-.1-.2-.1-.2z"/><path id="s" d="M655.2 397.2H652c-.1 0-.2.1-.2.2v.4c0 .1.1.2.2.2h3.3c.1 0 .2-.1.2-.2v-.4c0-.1-.2-.2-.3-.2z"/><path id="t" d="M706.2 397.2H703c-.1 0-.2.1-.2.2v.4c0 .1.1.2.2.2h3.3c.1 0 .2-.1.2-.2v-.4c-.1-.1-.1-.2-.3-.2z"/><path id="u" d="M961.1 397.2h-3.3c-.1 0-.2.1-.2.2v.4c0 .1.1.2.2.2h3.3c.1 0 .2-.1.2-.2v-.4c.1-.1 0-.2-.2-.2z"/><path id="v" d="M1032.6 383.8a11.29 11.29 0 0 0-11.3 11.3c0 6.3 5 11.2 11.2 11.2s11.2-5 11.2-11.2c.1-6.3-4.9-11.3-11.1-11.3zm5.7 17.8c-1 0-1.7-.8-1.7-1.7 0-.6.3-1.1.8-1.4l-1.3-2.6c-.2.1-.4.1-.6.1s-.4 0-.6-.1l-1.3 2.5c.5.3.8.8.8 1.4 0 1-.8 1.7-1.7 1.7s-1.7-.8-1.7-1.7a1.75 1.75 0 0 1 .7-1.4l-1.4-2.6c-.2.1-.4.1-.6.1-.1 0-.3 0-.5-.1l-1.3 2.5a1.75 1.75 0 0 1 .7 1.4c0 1-.8 1.7-1.7 1.7s-1.7-.8-1.7-1.7c0-1 .8-1.7 1.7-1.7.2 0 .4 0 .6.1l1.3-2.5c-.5-.3-.8-.8-.8-1.5 0-1 .8-1.7 1.7-1.7.3 0 .5.1.7.1l1.3-2.6a1.75 1.75 0 0 1-.7-1.4c0-1 .8-1.7 1.7-1.7s1.7.8 1.7 1.7c0 .6-.3 1.1-.8 1.4l1.3 2.5c.2-.1.3-.1.5-.1 1 0 1.7.8 1.7 1.7a1.75 1.75 0 0 1-.7 1.4l1.3 2.6c.2-.1.4-.1.6-.1 1 0 1.7.8 1.7 1.7 0 1.3-.8 2-1.7 2z"/></defs></svg>