<svg xmlns="http://www.w3.org/2000/svg" xmlns:xlink="http://www.w3.org/1999/xlink" viewBox="0 355.2 1172.7 81.7" xmlns:v="https://vecta.io/nano"><path fill="#aed2e9" d="M612 355.2h-51.3H0v81.6h560.7H612h560.7v-81.6z"/><g fill="#bddaef"><use xlink:href="#B"/><use xlink:href="#C"/><circle cx="577.7" cy="394.7" r=".8"/><path d="M573.6 383.7a11.29 11.29 0 0 0-11.3 11.3c0 6.2 5.1 11.3 11.3 11.3s11.3-5.1 11.3-11.3a11.29 11.29 0 0 0-11.3-11.3zm2.7 2c1 0 1.7.8 1.7 1.7s-.8 1.7-1.7 1.7-1.7-.8-1.7-1.7.8-1.7 1.7-1.7zm-3.8 2.5c1.1 0 2 .9 2 2a1.93 1.93 0 0 1-.3 1c-.4 0-.7-.1-1.1-.1a8.33 8.33 0 0 0-2.2.3c-.3-.3-.4-.7-.4-1.2 0-1.1.9-2 2-2zm8.1 9.3c-.6.6-1.2 1.1-1.8 1.7-.4.4-1 .7-1.3 1.2s-.4 1.6-.5 2.2c-.1.3-.4.5-.7.5h-.8c-.3 0-.7-.2-.8-.5l-.6-1.1c-.3 0-.6.1-.9.1-.6 0-1.1-.1-1.6-.1l-.3 1.1c-.1.3-.4.5-.7.5h-.8c-.3 0-.7-.2-.8-.5l-.8-1.4c0-.1-.1-.1-.1-.2-.7-1.3-1.8-2.9-1.9-4.5v-.6c-.3.1-.6 0-.9-.1-.7-.3-.9-1.1-.6-1.8v-.1c0 .4.2.7.6.9.3.2.7.1 1 0 .3-1.1.8-2.2 1.7-3 .6-.6 1.4-1 2.1-1.3.1.3.2.6.4.9l.2.2.3-.1c.7-.2 1.4-.3 2.1-.3.3 0 .7 0 1 .1h.3l.1-.3c.1-.3.3-.6.3-1 .5.1 1 .3 1.4.4 1.1-.6 1.9-.8 2.8-.5.4.1.8.3 1 .7v.1c0 .1-.1.1-.1.1-.4.4-.9.7-1.4 1.1.6.6 1.1 1.4 1.3 2.2h.2.7a.47.47 0 0 1 .5.5c.2 1.6.2 2.2-.6 2.9zm18.5-13.7c-6.2 0-11.2 5-11.2 11.2s5 11.2 11.2 11.2 11.2-5 11.2-11.2-5-11.2-11.2-11.2zm5.5 15.9H603l-1.9-2.1-1.9 2.1h-1.6l2.7-2.9-2.7-2.9h1.6l1.9 2.1 1.9-2.1h1.6l-2.7 2.9 2.7 2.9zm-.2-8.9h-7l-2.8 9.7c-.1.2-.3.4-.4.4a.55.55 0 0 1-.5-.3l-1.1-2.9h-1.3a.5.5 0 1 1 0-1h1.6a.55.55 0 0 1 .5.3l.7 1.9 2.5-8.7c.1-.2.3-.4.5-.4h7.4a.47.47 0 0 1 .5.5c-.1.3-.3.5-.6.5z"/><circle cx="603.2" cy="369.2" r=".8"/><path d="M599.1 358.2a11.29 11.29 0 0 0-11.3 11.3c0 6.2 5.1 11.3 11.3 11.3a11.29 11.29 0 0 0 11.3-11.3c0-6.2-5.1-11.3-11.3-11.3zm2.7 1.9c1 0 1.7.8 1.7 1.7s-.8 1.7-1.7 1.7-1.7-.8-1.7-1.7.7-1.7 1.7-1.7zm-3.8 2.5c1.1 0 2 .9 2 2a1.93 1.93 0 0 1-.3 1c-.4 0-.7-.1-1.1-.1a8.33 8.33 0 0 0-2.2.3c-.3-.3-.4-.7-.4-1.2 0-1.1.9-2 2-2zm8 9.4c-.6.6-1.2 1.1-1.8 1.7-.4.4-1 .7-1.3 1.2s-.4 1.6-.5 2.2c-.1.3-.4.5-.7.5h-.7c-.3 0-.7-.2-.8-.5l-.6-1.1c-.3 0-.6.1-.9.1-.6 0-1.1-.1-1.6-.1l-.3 1.1c-.1.3-.4.5-.7.5h-.8c-.3 0-.7-.2-.8-.5l-.8-1.4c0-.1-.1-.1-.1-.2-.7-1.3-1.8-2.9-1.9-4.5v-.6c-.3.1-.6 0-.9-.1-.7-.3-.9-1.1-.6-1.8v-.1c0 .4.2.7.6.9.3.2.7.1 1 0 .3-1.1.8-2.2 1.7-3 .6-.6 1.4-1 2.1-1.3.1.3.2.6.4.9l.2.2.3-.1c.7-.2 1.4-.3 2.1-.3.3 0 .7 0 1 .1h.3l.1-.3c.1-.3.3-.6.3-1 .5.1 1 .3 1.4.4 1.1-.6 1.9-.8 2.8-.5.4.1.8.3 1 .7v.1c0 .1-.1.1-.1.1-.4.4-.9.7-1.4 1.1.6.6 1.1 1.4 1.3 2.2h.2.7a.47.47 0 0 1 .5.5c.2 1.5.2 2.1-.7 2.9z"/><circle cx="603.2" cy="420.3" r=".8"/><path d="M599.1 409.3a11.29 11.29 0 0 0-11.3 11.3c0 6.2 5.1 11.3 11.3 11.3a11.29 11.29 0 0 0 11.3-11.3c0-6.2-5.1-11.3-11.3-11.3zm2.7 1.9c1 0 1.7.8 1.7 1.7 0 1-.8 1.7-1.7 1.7s-1.7-.8-1.7-1.7.7-1.7 1.7-1.7zm-3.8 2.5c1.1 0 2 .9 2 2a1.93 1.93 0 0 1-.3 1c-.4 0-.7-.1-1.1-.1a8.33 8.33 0 0 0-2.2.3c-.3-.3-.4-.7-.4-1.2 0-1.1.9-2 2-2zm8 9.4c-.6.6-1.2 1.1-1.8 1.7-.4.4-1 .7-1.3 1.2s-.4 1.6-.5 2.2c-.1.3-.4.5-.7.5h-.7c-.3 0-.7-.2-.8-.5l-.6-1.1c-.3 0-.6.1-.9.1-.6 0-1.1-.1-1.6-.1l-.3 1.1c-.1.3-.4.5-.7.5h-.8c-.3 0-.7-.2-.8-.5l-.8-1.4c0-.1-.1-.1-.1-.2-.7-1.3-1.8-2.9-1.9-4.5v-.6c-.3.1-.6 0-.9-.1-.7-.3-.9-1.1-.6-1.8v-.1c0 .4.2.7.6.9s.7.1 1 0c.3-1.1.8-2.2 1.7-3 .6-.6 1.4-1 2.1-1.3.1.3.2.6.4.9l.2.2.3-.1c.7-.2 1.4-.3 2.1-.3.3 0 .7 0 1 .1h.3l.1-.3c.1-.3.3-.6.3-1 .5.1 1 .3 1.4.4 1.1-.6 1.9-.8 2.8-.5.4.1.8.3 1 .7v.1c0 .1-.1.1-.1.1-.4.4-.9.7-1.4 1.1.6.6 1.1 1.4 1.3 2.2h.2.7a.47.47 0 0 1 .5.5c.2 1.5.2 2.2-.7 2.9zm-83.4-64.8c-6.2 0-11.2 5-11.2 11.2s5 11.2 11.2 11.2 11.2-5 11.2-11.2-5-11.2-11.2-11.2zm5.5 15.8h-1.6l-1.9-2.1-1.9 2.1h-1.6l2.7-2.9-2.7-2.9h1.6l1.9 2.1 1.9-2.1h1.6l-2.7 2.9 2.7 2.9zm-.2-8.8h-7l-2.8 9.7c-.1.2-.3.4-.4.4a.55.55 0 0 1-.5-.3l-1.1-2.9h-1.3a.5.5 0 1 1 0-1h1.6a.55.55 0 0 1 .5.3l.7 1.9 2.5-8.7c.1-.2.3-.4.5-.4h7.4a.47.47 0 0 1 .5.5c-.1.2-.3.5-.6.5z"/><use xlink:href="#C" x="-51"/><circle cx="526.8" cy="394.7" r=".8"/><path d="M522.6 383.7a11.29 11.29 0 0 0-11.3 11.3c0 6.2 5 11.4 11.3 11.4a11.29 11.29 0 0 0 11.3-11.3c0-6.3-5-11.4-11.3-11.4zm2.7 2c1 0 1.7.8 1.7 1.7s-.8 1.7-1.7 1.7-1.7-.8-1.7-1.7.8-1.7 1.7-1.7zm-3.8 2.5c1.1 0 2 .9 2 2a1.93 1.93 0 0 1-.3 1c-.4 0-.7-.1-1.1-.1a8.33 8.33 0 0 0-2.2.3c-.3-.3-.4-.7-.4-1.2 0-1.1.9-2 2-2zm8.1 9.3c-.6.6-1.2 1.1-1.8 1.7-.4.4-1 .7-1.3 1.2s-.4 1.6-.5 2.2c-.1.3-.4.5-.7.5h-.8c-.3 0-.7-.2-.8-.5l-.6-1.1c-.3 0-.6.1-.9.1-.6 0-1.1-.1-1.6-.1l-.3 1.1c-.1.3-.4.5-.7.5h-.8c-.3 0-.7-.2-.8-.5l-.8-1.4c0-.1-.1-.1-.1-.2-.7-1.3-1.8-2.9-1.9-4.5v-.6c-.3.1-.6 0-.9-.1-.7-.3-.9-1.1-.6-1.8v-.1c0 .4.2.7.6.9.3.2.7.1 1 0 .3-1.1.8-2.2 1.7-3 .6-.6 1.4-1 2.1-1.3.1.3.2.6.4.9l.2.2.3-.1c.7-.2 1.4-.3 2.1-.3.3 0 .7 0 1 .1h.3l.1-.3c.1-.3.3-.6.3-1 .5.1 1 .3 1.4.4 1.1-.6 1.9-.8 2.8-.5.4.1.8.3 1 .7v.1c0 .1-.1.1-.1.1-.4.4-.9.7-1.4 1.1.6.6 1.1 1.4 1.3 2.2h.2.7a.47.47 0 0 1 .5.5c.2 1.6.2 2.2-.6 2.9zm18.5-13.7c-6.2 0-11.2 5-11.2 11.2s5 11.2 11.2 11.2 11.2-5 11.2-11.2-5-11.2-11.2-11.2zm5.5 15.9H552l-1.9-2.1-1.9 2.1h-1.6l2.7-2.9-2.7-2.9h1.6l1.9 2.1 1.9-2.1h1.6l-2.7 2.9 2.7 2.9zm-.2-8.9h-7l-2.8 9.7c-.1.2-.3.4-.4.4a.55.55 0 0 1-.5-.3l-1.1-2.9h-1.3a.5.5 0 1 1 0-1h1.6a.55.55 0 0 1 .5.3l.7 1.9 2.5-8.7c.1-.2.3-.4.5-.4h7.4a.47.47 0 0 1 .5.5c-.1.3-.3.5-.6.5z"/><circle cx="552.2" cy="369.2" r=".8"/><use xlink:href="#D"/><circle cx="552.2" cy="420.3" r=".8"/><use xlink:href="#E"/><path d="M471.7 358.3c-6.2 0-11.2 5-11.2 11.2s5 11.2 11.2 11.2 11.2-5 11.2-11.2-5.1-11.2-11.2-11.2zm5.4 15.8h-1.6l-1.9-2.1-1.9 2.1h-1.6l2.7-2.9-2.7-2.9h1.6l1.9 2.1 1.9-2.1h1.6l-2.7 2.9 2.7 2.9zm-.1-8.8h-7l-2.8 9.7c-.1.2-.3.4-.4.4a.55.55 0 0 1-.5-.3l-1.1-2.9h-1.3a.47.47 0 1 1 0-1h1.6a.55.55 0 0 1 .5.3l.7 1.9 2.5-8.7c.1-.2.3-.4.5-.4h7.4a.47.47 0 0 1 .5.5c0 .3-.3.5-.6.5z"/><use xlink:href="#F"/><circle cx="475.8" cy="394.7" r=".8"/><path d="M471.7 383.7a11.29 11.29 0 0 0-11.3 11.3c0 6.2 5.1 11.3 11.3 11.3S483 401.2 483 395s-5.1-11.3-11.3-11.3zm2.6 2c1 0 1.7.8 1.7 1.7s-.8 1.7-1.7 1.7-1.7-.8-1.7-1.7.8-1.7 1.7-1.7zm-3.8 2.5c1.1 0 2 .9 2 2a1.93 1.93 0 0 1-.3 1c-.4 0-.7-.1-1.1-.1a8.33 8.33 0 0 0-2.2.3c-.3-.3-.4-.7-.4-1.2.1-1.1.9-2 2-2zm8.1 9.3c-.6.6-1.2 1.1-1.8 1.7-.4.4-1 .7-1.3 1.2s-.4 1.6-.5 2.2c-.1.3-.4.5-.7.5h-.8c-.3 0-.7-.2-.8-.5l-.6-1.1c-.3 0-.6.1-.9.1-.6 0-1.1-.1-1.6-.1l-.3 1.1c-.1.3-.4.5-.7.5h-.8c-.3 0-.7-.2-.8-.5l-.8-1.4c0-.1-.1-.1-.1-.2-.7-1.3-1.8-2.9-1.9-4.5v-.6c-.3.1-.6 0-.9-.1-.7-.3-.9-1.1-.6-1.8v-.1c0 .4.2.7.6.9.3.2.7.1 1 0 .3-1.1.8-2.2 1.7-3 .6-.6 1.4-1 2.1-1.3.1.3.2.6.4.9l.2.2.3-.1c.7-.2 1.4-.3 2.1-.3.3 0 .7 0 1 .1h.3l.1-.3c.1-.3.3-.6.3-1 .5.1 1 .3 1.4.4 1.1-.6 1.9-.8 2.8-.5.4.1.8.3 1 .7v.1c0 .1-.1.1-.1.1-.4.4-.9.7-1.4 1.1.6.6 1.1 1.4 1.3 2.2h.2.7a.47.47 0 0 1 .5.5c.2 1.6.3 2.2-.6 2.9zm18.5-13.7c-6.2 0-11.2 5-11.2 11.2s5 11.2 11.2 11.2 11.2-5 11.2-11.2c.1-6.1-5-11.2-11.2-11.2zm5.5 15.9H501l-1.9-2.1-1.9 2.1h-1.6l2.7-2.9-2.7-2.9h1.6l1.9 2.1 1.9-2.1h1.6l-2.7 2.9 2.7 2.9zm-.1-8.9h-7l-2.8 9.7c-.1.2-.3.4-.4.4a.55.55 0 0 1-.5-.3l-1.1-2.9h-1.3a.5.5 0 1 1 0-1h1.6a.55.55 0 0 1 .5.3l.7 1.9 2.5-8.8c.1-.2.3-.4.5-.4h7.4a.47.47 0 0 1 .5.5c-.2.4-.4.6-.6.6z"/><circle cx="501.2" cy="369.2" r=".8"/><path d="M497.1 358.2a11.29 11.29 0 0 0-11.3 11.3c0 6.2 5.1 11.3 11.3 11.3s11.3-5.1 11.3-11.3a11.29 11.29 0 0 0-11.3-11.3zm2.7 1.9c1 0 1.7.8 1.7 1.7s-.8 1.7-1.7 1.7-1.7-.8-1.7-1.7c.1-.9.8-1.7 1.7-1.7zm-3.8 2.5c1.1 0 2 .9 2 2a1.93 1.93 0 0 1-.3 1c-.4 0-.7-.1-1.1-.1a8.33 8.33 0 0 0-2.2.3c-.3-.3-.4-.7-.4-1.2.1-1.1.9-2 2-2zm8.1 9.4c-.6.6-1.2 1.1-1.8 1.7-.4.4-1 .7-1.3 1.2s-.4 1.6-.5 2.2c-.1.3-.4.5-.7.5h-.8c-.3 0-.7-.2-.8-.5l-.6-1.1c-.3 0-.6.1-.9.1-.6 0-1.1-.1-1.6-.1l-.3 1.1c-.1.3-.4.5-.7.5h-.8c-.3 0-.7-.2-.8-.5l-.8-1.4c0-.1-.1-.1-.1-.2-.7-1.3-1.8-2.9-1.9-4.5v-.6c-.3.1-.6 0-.9-.1-.7-.3-.9-1.1-.6-1.8v-.1c0 .4.2.7.6.9.3.2.7.1 1 0 .3-1.1.8-2.2 1.7-3 .6-.6 1.4-1 2.1-1.3.1.3.2.6.4.9l.2.2.3-.1c.7-.2 1.4-.3 2.1-.3.3 0 .7 0 1 .1h.3l.1-.3c.1-.3.3-.6.3-1 .5.1 1 .3 1.4.4 1.1-.6 1.9-.8 2.8-.5.4.1.8.3 1 .7v.1c0 .1-.1.1-.1.1-.4.4-.9.7-1.4 1.1.6.6 1.1 1.4 1.3 2.2h.2.7a.47.47 0 0 1 .5.5c.2 1.5.2 2.1-.6 2.9z"/><circle cx="501.2" cy="420.3" r=".8"/><path d="M497.1 409.3a11.29 11.29 0 0 0-11.3 11.3c0 6.2 5.1 11.3 11.3 11.3s11.3-5.1 11.3-11.3a11.29 11.29 0 0 0-11.3-11.3zm2.7 1.9c1 0 1.7.8 1.7 1.7 0 1-.8 1.7-1.7 1.7s-1.7-.8-1.7-1.7.8-1.7 1.7-1.7zm-3.8 2.5c1.1 0 2 .9 2 2a1.93 1.93 0 0 1-.3 1c-.4 0-.7-.1-1.1-.1a8.33 8.33 0 0 0-2.2.3c-.3-.3-.4-.7-.4-1.2.1-1.1.9-2 2-2zm8.1 9.4c-.6.6-1.2 1.1-1.8 1.7-.4.4-1 .7-1.3 1.2s-.4 1.6-.5 2.2c-.1.3-.4.5-.7.5h-.8c-.3 0-.7-.2-.8-.5l-.6-1.1c-.3 0-.6.1-.9.1-.6 0-1.1-.1-1.6-.1l-.3 1.1c-.1.3-.4.5-.7.5h-.8c-.3 0-.7-.2-.8-.5l-.8-1.4c0-.1-.1-.1-.1-.2-.7-1.3-1.8-2.9-1.9-4.5v-.6c-.3.1-.6 0-.9-.1-.7-.3-.9-1.1-.6-1.8v-.1c0 .4.2.7.6.9.3.2.7.1 1 0 .3-1.1.8-2.2 1.7-3 .6-.6 1.4-1 2.1-1.3.1.3.2.6.4.9l.2.2.3-.1c.7-.2 1.4-.3 2.1-.3.3 0 .7 0 1 .1h.3l.1-.3c.1-.3.3-.6.3-1 .5.1 1 .3 1.4.4 1.1-.6 1.9-.8 2.8-.5.4.1.8.3 1 .7v.1c0 .1-.1.1-.1.1-.4.4-.9.7-1.4 1.1.6.6 1.1 1.4 1.3 2.2h.2.7a.47.47 0 0 1 .5.5c.2 1.5.2 2.2-.6 2.9z"/><use xlink:href="#B" x="-152.9"/><use xlink:href="#C" x="-152.9"/><circle cx="424.8" cy="394.7" r=".8"/><path d="M420.7 383.7a11.29 11.29 0 0 0-11.3 11.3c0 6.2 5.1 11.3 11.3 11.3A11.29 11.29 0 0 0 432 395c0-6.2-5.1-11.3-11.3-11.3zm2.7 2c1 0 1.7.8 1.7 1.7s-.8 1.7-1.7 1.7-1.7-.8-1.7-1.7.7-1.7 1.7-1.7zm-3.9 2.5c1.1 0 2 .9 2 2a1.93 1.93 0 0 1-.3 1c-.4 0-.7-.1-1.1-.1a8.33 8.33 0 0 0-2.2.3c-.3-.3-.4-.7-.4-1.2.1-1.1 1-2 2-2zm8.1 9.3c-.6.6-1.2 1.1-1.8 1.7-.4.4-1 .7-1.3 1.2s-.4 1.6-.5 2.2c-.1.3-.4.5-.7.5h-.8c-.3 0-.7-.2-.8-.5l-.6-1.1c-.3 0-.6.1-.9.1-.6 0-1.1-.1-1.6-.1l-.3 1.1c-.1.3-.4.5-.7.5h-.8c-.3 0-.7-.2-.8-.5l-.8-1.4c0-.1-.1-.1-.1-.2-.7-1.3-1.8-2.9-1.9-4.5v-.6c-.3.1-.6 0-.9-.1-.7-.3-.9-1.1-.6-1.8v-.1c0 .4.2.7.6.9.3.2.7.1 1 0 .3-1.1.8-2.2 1.7-3 .6-.6 1.4-1 2.1-1.3.1.3.2.6.4.9l.2.2.3-.1c.7-.2 1.4-.3 2.1-.3.3 0 .7 0 1 .1h.3l.1-.3c.1-.3.3-.6.3-1 .5.1 1 .3 1.4.4 1.1-.6 1.9-.8 2.8-.5.4.1.8.3 1 .7v.1c0 .1-.1.1-.1.1-.4.4-.9.7-1.4 1.1.6.6 1.1 1.4 1.3 2.2h.2.7a.47.47 0 0 1 .5.5c.3 1.6.3 2.2-.6 2.9zm18.5-13.7c-6.2 0-11.2 5-11.2 11.2s5 11.2 11.2 11.2 11.2-5 11.2-11.2c.1-6.2-5-11.2-11.2-11.2zm5.5 15.9H450l-1.9-2.1-1.9 2.1h-1.6l2.7-2.9-2.7-2.9h1.6l1.9 2.1 1.9-2.1h1.6l-2.7 2.9 2.7 2.9zm-.1-8.9h-7l-2.8 9.7c-.1.2-.3.4-.4.4a.55.55 0 0 1-.5-.3l-1.1-2.9h-1.3a.5.5 0 1 1 0-1h1.6a.55.55 0 0 1 .5.3l.7 1.9 2.5-8.7c.1-.2.3-.4.5-.4h7.4a.47.47 0 0 1 .5.5c-.1.3-.4.5-.6.5z"/><circle cx="450.3" cy="369.2" r=".8"/><path d="M446.1 358.2a11.29 11.29 0 0 0-11.3 11.3c0 6.2 5.1 11.3 11.3 11.3s11.3-5.1 11.3-11.3a11.29 11.29 0 0 0-11.3-11.3zm2.8 1.9c1 0 1.7.8 1.7 1.7s-.8 1.7-1.7 1.7-1.7-.8-1.7-1.7.7-1.7 1.7-1.7zm-3.9 2.5c1.1 0 2 .9 2 2a1.93 1.93 0 0 1-.3 1c-.4 0-.7-.1-1.1-.1a8.33 8.33 0 0 0-2.2.3c-.3-.3-.4-.7-.4-1.2.1-1.1 1-2 2-2zm8.1 9.4c-.6.6-1.2 1.1-1.8 1.7-.4.4-1 .7-1.3 1.2s-.4 1.6-.5 2.2c-.1.3-.4.5-.7.5h-.8c-.3 0-.7-.2-.8-.5l-.6-1.1c-.3 0-.6.1-.9.1-.6 0-1.1-.1-1.6-.1l-.3 1.1c-.1.3-.4.5-.7.5h-.8c-.3 0-.7-.2-.8-.5l-.8-1.4c0-.1-.1-.1-.1-.2-.7-1.3-1.8-2.9-1.9-4.5v-.6c-.3.1-.6 0-.9-.1-.7-.3-.9-1.1-.6-1.8v-.1c0 .4.2.7.6.9.3.2.7.1 1 0 .3-1.1.8-2.2 1.7-3 .6-.6 1.4-1 2.1-1.3.1.3.2.6.4.9l.2.2.3-.1c.7-.2 1.4-.3 2.1-.3.3 0 .7 0 1 .1h.3l.1-.3c.1-.3.3-.6.3-1 .5.1 1 .3 1.4.4 1.1-.6 1.9-.8 2.8-.5.4.1.8.3 1 .7v.1c0 .1-.1.1-.1.1-.4.4-.9.7-1.4 1.1.6.6 1.1 1.4 1.3 2.2h.2.7a.47.47 0 0 1 .5.5c.3 1.5.3 2.1-.6 2.9z"/><circle cx="450.3" cy="420.3" r=".8"/><path d="M446.1 409.3a11.29 11.29 0 0 0-11.3 11.3c0 6.2 5.1 11.3 11.3 11.3s11.3-5.1 11.3-11.3a11.29 11.29 0 0 0-11.3-11.3zm2.8 1.9c1 0 1.7.8 1.7 1.7 0 1-.8 1.7-1.7 1.7s-1.7-.8-1.7-1.7c-.1-.9.7-1.7 1.7-1.7zm-3.9 2.5c1.1 0 2 .9 2 2a1.93 1.93 0 0 1-.3 1c-.4 0-.7-.1-1.1-.1a8.33 8.33 0 0 0-2.2.3c-.3-.3-.4-.7-.4-1.2.1-1.1 1-2 2-2zm8.1 9.4c-.6.6-1.2 1.1-1.8 1.7-.4.4-1 .7-1.3 1.2s-.4 1.6-.5 2.2c-.1.3-.4.5-.7.5h-.8c-.3 0-.7-.2-.8-.5l-.6-1.1c-.3 0-.6.1-.9.1-.6 0-1.1-.1-1.6-.1l-.3 1.1c-.1.3-.4.5-.7.5h-.8c-.3 0-.7-.2-.8-.5l-.8-1.4c0-.1-.1-.1-.1-.2-.7-1.3-1.8-2.9-1.9-4.5v-.6c-.3.1-.6 0-.9-.1-.7-.3-.9-1.1-.6-1.8v-.1c0 .4.2.7.6.9s.7.1 1 0c.3-1.1.8-2.2 1.7-3 .6-.6 1.4-1 2.1-1.3.1.3.2.6.4.9l.2.2.3-.1c.7-.2 1.4-.3 2.1-.3.3 0 .7 0 1 .1h.3l.1-.3c.1-.3.3-.6.3-1 .5.1 1 .3 1.4.4 1.1-.6 1.9-.8 2.8-.5.4.1.8.3 1 .7v.1c0 .1-.1.1-.1.1-.4.4-.9.7-1.4 1.1.6.6 1.1 1.4 1.3 2.2h.2.7a.47.47 0 0 1 .5.5c.3 1.5.3 2.2-.6 2.9z"/><use xlink:href="#B" x="-203.9"/><use xlink:href="#C" x="-203.9"/><circle cx="373.8" cy="394.7" r=".8"/><path d="M369.7 383.7a11.29 11.29 0 0 0-11.3 11.3c0 6.2 5.1 11.3 11.3 11.3A11.29 11.29 0 0 0 381 395c0-6.2-5.1-11.3-11.3-11.3zm2.7 2c1 0 1.7.8 1.7 1.7s-.8 1.7-1.7 1.7-1.7-.8-1.7-1.7.7-1.7 1.7-1.7zm-3.8 2.5c1.1 0 2 .9 2 2a1.93 1.93 0 0 1-.3 1c-.4 0-.7-.1-1.1-.1a8.33 8.33 0 0 0-2.2.3c-.3-.3-.4-.7-.4-1.2 0-1.1.9-2 2-2zm8.1 9.3c-.6.6-1.2 1.1-1.8 1.7-.4.4-1 .7-1.3 1.2s-.4 1.6-.5 2.2c-.1.3-.4.5-.7.5h-.8c-.3 0-.7-.2-.8-.5l-.6-1.1c-.3 0-.6.1-.9.1-.6 0-1.1-.1-1.6-.1l-.3 1.1c-.1.3-.4.5-.7.5h-.8c-.3 0-.7-.2-.8-.5l-.8-1.4c0-.1-.1-.1-.1-.2-.7-1.3-1.8-2.9-1.9-4.5v-.6c-.3.1-.6 0-.9-.1-.7-.3-.9-1.1-.6-1.8v-.1c0 .4.2.7.6.9.3.2.7.1 1 0 .3-1.1.8-2.2 1.7-3 .6-.6 1.4-1 2.1-1.3.1.3.2.6.4.9l.2.2.3-.1c.7-.2 1.4-.3 2.1-.3.3 0 .7 0 1 .1h.3l.1-.3c.1-.3.3-.6.3-1 .5.1 1 .3 1.4.4 1.1-.6 1.9-.8 2.8-.5.4.1.8.3 1 .7v.1c0 .1-.1.1-.1.1-.4.4-.9.7-1.4 1.1.6.6 1.1 1.4 1.3 2.2h.2.7a.47.47 0 0 1 .5.5c.2 1.6.2 2.2-.6 2.9zm18.5-13.7c-6.2 0-11.2 5-11.2 11.2s5 11.2 11.2 11.2 11.2-5 11.2-11.2-5-11.2-11.2-11.2zm5.5 15.9H399l-1.9-2.1-1.9 2.1h-1.6l2.7-2.9-2.7-2.9h1.6l1.9 2.1 1.9-2.1h1.6l-2.7 2.9 2.8 2.9zm-.2-8.9h-7l-2.8 9.7c-.1.2-.3.4-.4.4a.55.55 0 0 1-.5-.3l-1.1-2.9h-1.3a.5.5 0 1 1 0-1h1.6a.55.55 0 0 1 .5.3l.7 1.9 2.5-8.7c.1-.2.3-.4.5-.4h7.4a.47.47 0 0 1 .5.5c-.1.3-.3.5-.6.5z"/><circle cx="399.3" cy="369.2" r=".8"/><use xlink:href="#G"/><circle cx="399.3" cy="420.3" r=".8"/><path d="M395.2 409.3a11.29 11.29 0 0 0-11.3 11.3c0 6.2 5.1 11.3 11.3 11.3s11.3-5.1 11.3-11.3-5.1-11.3-11.3-11.3zm2.7 1.9c1 0 1.7.8 1.7 1.7 0 1-.8 1.7-1.7 1.7s-1.7-.8-1.7-1.7.7-1.7 1.7-1.7zm-3.8 2.5c1.1 0 2 .9 2 2a1.93 1.93 0 0 1-.3 1c-.4 0-.7-.1-1.1-.1a8.33 8.33 0 0 0-2.2.3c-.3-.3-.4-.7-.4-1.2 0-1.1.9-2 2-2zm8 9.4c-.6.6-1.2 1.1-1.8 1.7-.4.4-1 .7-1.3 1.2s-.4 1.6-.5 2.2c-.1.3-.4.5-.7.5h-.8c-.3 0-.7-.2-.8-.5l-.6-1.1c-.3 0-.6.1-.9.1-.6 0-1.1-.1-1.6-.1l-.3 1.1c-.1.3-.4.5-.7.5h-.8c-.3 0-.7-.2-.8-.5l-.8-1.4c0-.1-.1-.1-.1-.2-.7-1.3-1.8-2.9-1.9-4.5v-.6c-.3.1-.6 0-.9-.1-.7-.3-.9-1.1-.6-1.8v-.1c0 .4.2.7.6.9.3.2.7.1 1 0 .3-1.1.8-2.2 1.7-3 .6-.6 1.4-1 2.1-1.3.1.3.2.6.4.9l.2.2.3-.1c.7-.2 1.4-.3 2.1-.3.3 0 .7 0 1 .1h.3l.1-.3c.1-.3.3-.6.3-1 .5.1 1 .3 1.4.4 1.1-.6 1.9-.8 2.8-.5.4.1.8.3 1 .7v.1c0 .1-.1.1-.1.1-.4.4-.9.7-1.4 1.1.6.6 1.1 1.4 1.3 2.2h.2.7a.47.47 0 0 1 .5.5c.3 1.5.3 2.2-.6 2.9zm-83.4-64.8c-6.2 0-11.2 5-11.2 11.2s5 11.2 11.2 11.2 11.2-5 11.2-11.2-5-11.2-11.2-11.2zm5.5 15.8h-1.6l-1.9-2.1-1.9 2.1h-1.6l2.7-2.9-2.7-2.9h1.6l1.9 2.1 1.9-2.1h1.6l-2.7 2.9 2.7 2.9zm-.2-8.8h-7l-2.8 9.7c-.1.2-.3.4-.4.4a.55.55 0 0 1-.5-.3l-1.1-2.9h-1.3a.5.5 0 1 1 0-1h1.6a.55.55 0 0 1 .5.3l.7 1.9 2.5-8.7c.1-.2.3-.4.5-.4h7.4a.47.47 0 0 1 .5.5c0 .2-.3.5-.6.5z"/><use xlink:href="#H"/><circle cx="322.9" cy="394.7" r=".8"/><path d="M318.7 383.7a11.29 11.29 0 0 0-11.3 11.3c0 6.2 5.1 11.3 11.3 11.3a11.3 11.3 0 1 0 0-22.6zm2.7 2c1 0 1.7.8 1.7 1.7s-.8 1.7-1.7 1.7-1.7-.8-1.7-1.7.8-1.7 1.7-1.7zm-3.8 2.5c1.1 0 2 .9 2 2a1.93 1.93 0 0 1-.3 1c-.4 0-.7-.1-1.1-.1a8.33 8.33 0 0 0-2.2.3c-.3-.3-.4-.7-.4-1.2 0-1.1.9-2 2-2zm8.1 9.3c-.6.6-1.2 1.1-1.8 1.7-.4.4-1 .7-1.3 1.2s-.4 1.6-.5 2.2c-.1.3-.4.5-.7.5h-.8c-.3 0-.7-.2-.8-.5l-.6-1c-.3 0-.6.1-.9.1-.6 0-1.1-.1-1.6-.1l-.3 1.1c-.1.3-.4.5-.7.5h-.8c-.3 0-.7-.2-.8-.5l-.8-1.4c0-.1-.1-.1-.1-.2-.7-1.3-1.8-2.9-1.9-4.5v-.6c-.3.1-.6 0-.9-.1-.7-.3-.9-1.1-.6-1.8v-.1c0 .4.2.7.6.9.3.2.7.1 1 0 .3-1.1.8-2.2 1.7-3 .6-.6 1.4-1 2.1-1.3.1.3.2.6.4.9l.2.2.3-.1c.7-.2 1.4-.3 2.1-.3.3 0 .7 0 1 .1h.3l.1-.3c.1-.3.3-.6.3-1 .5.1 1 .3 1.4.4 1.1-.6 1.9-.8 2.8-.5.4.1.8.3 1 .7v.1c0 .1-.1.1-.1.1-.4.4-.9.7-1.4 1.1.6.6 1.1 1.4 1.3 2.2h.2.7a.47.47 0 0 1 .5.5c.2 1.5.2 2.1-.6 2.8zm18.5-13.7c-6.2 0-11.2 5-11.2 11.2s5 11.2 11.2 11.2 11.2-5 11.2-11.2-5-11.2-11.2-11.2zm5.5 15.9h-1.6l-1.9-2.1-1.9 2.1h-1.6l2.7-2.9-2.7-2.9h1.6l1.9 2.1 1.9-2.1h1.6l-2.7 2.9 2.7 2.9zm-.2-8.9h-7l-2.8 9.7c-.1.2-.3.4-.4.4a.55.55 0 0 1-.5-.3l-1.1-2.9h-1.3a.5.5 0 1 1 0-1h1.6a.55.55 0 0 1 .5.3l.7 1.9 2.5-8.8c.1-.2.3-.4.5-.4h7.4a.47.47 0 0 1 .5.5c-.1.4-.3.6-.6.6z"/><circle cx="348.3" cy="369.2" r=".8"/><use xlink:href="#I"/><circle cx="348.3" cy="420.3" r=".8"/><use xlink:href="#J"/><path d="M267.7 358.3c-6.2 0-11.2 5-11.2 11.2s5 11.2 11.2 11.2 11.2-5 11.2-11.2-5-11.2-11.2-11.2zm5.5 15.8h-1.6l-1.9-2.1-1.9 2.1h-1.6l2.7-2.9-2.7-2.9h1.6l1.9 2.1 1.9-2.1h1.6l-2.7 2.9 2.7 2.9zm-.1-8.8h-7l-2.8 9.7c-.1.2-.3.4-.4.4a.55.55 0 0 1-.5-.3l-1.1-2.9H260a.5.5 0 1 1 0-1h1.6a.55.55 0 0 1 .5.3l.7 1.9 2.5-8.7c.1-.2.3-.4.5-.4h7.4a.47.47 0 0 1 .5.5c-.2.2-.4.5-.6.5zm-5.4 44.1c-6.2 0-11.2 5-11.2 11.2s5 11.2 11.2 11.2 11.2-5 11.2-11.2-5-11.2-11.2-11.2zm5.5 15.9h-1.6l-1.9-2.1-1.9 2.1h-1.6l2.7-2.9-2.7-2.9h1.6l1.9 2.1 1.9-2.1h1.6l-2.7 2.9 2.7 2.9zm-.1-8.9h-7l-2.8 9.7c-.1.2-.3.4-.4.4a.55.55 0 0 1-.5-.3l-1.1-2.9H260a.5.5 0 1 1 0-1h1.6a.55.55 0 0 1 .5.3l.7 1.9 2.5-8.7c.1-.2.3-.4.5-.4h7.4a.47.47 0 0 1 .5.5c0 .3-.4.5-.6.5z"/><circle cx="271.9" cy="394.7" r=".8"/><path d="M267.7 383.7a11.29 11.29 0 0 0-11.3 11.3c0 6.2 5.1 11.3 11.3 11.3a11.3 11.3 0 1 0 0-22.6zm2.8 2c1 0 1.7.8 1.7 1.7s-.8 1.7-1.7 1.7-1.7-.8-1.7-1.7.7-1.7 1.7-1.7zm-3.9 2.5c1.1 0 2 .9 2 2a1.93 1.93 0 0 1-.3 1c-.4 0-.7-.1-1.1-.1a8.33 8.33 0 0 0-2.2.3c-.3-.3-.4-.7-.4-1.2.1-1.1 1-2 2-2zm8.1 9.3c-.6.6-1.2 1.1-1.8 1.7-.4.4-1 .7-1.3 1.2s-.4 1.6-.5 2.2c-.1.3-.4.5-.7.5h-.8c-.3 0-.7-.2-.8-.5l-.6-1.1c-.3 0-.6.1-.9.1-.6 0-1.1-.1-1.6-.1l-.3 1.1c-.1.3-.4.5-.7.5h-.7c-.3 0-.7-.2-.8-.5l-.8-1.4c0-.1-.1-.1-.1-.2-.7-1.3-1.8-2.9-1.9-4.5v-.6c-.3.1-.6 0-.9-.1-.7-.3-.9-1.1-.6-1.8v-.1c0 .4.2.7.6.9.3.2.7.1 1 0 .3-1.1.8-2.2 1.7-3 .6-.6 1.4-1 2.1-1.3.1.3.2.6.4.9l.2.2.3-.1c.7-.2 1.4-.3 2.1-.3.3 0 .7 0 1 .1h.3l.1-.3c.1-.3.3-.6.3-1 .5.1 1 .3 1.4.4 1.1-.6 1.9-.8 2.8-.5.4.1.8.3 1 .7v.1c0 .1-.1.1-.1.1-.4.4-.9.7-1.4 1.1.6.6 1.1 1.4 1.3 2.2h.2.7a.47.47 0 0 1 .5.5c.1 1.6.1 2.2-.7 2.9zm18.5-13.7c-6.2 0-11.2 5-11.2 11.2s5 11.2 11.2 11.2 11.2-5 11.2-11.2c0-6.1-5-11.2-11.2-11.2zm5.5 15.9h-1.6l-1.9-2.1-1.9 2.1h-1.6l2.7-2.9-2.7-2.9h1.6l1.9 2.1 1.9-2.1h1.6l-2.7 2.9 2.7 2.9zm-.2-8.9h-7l-2.8 9.7c-.1.2-.3.4-.4.4a.55.55 0 0 1-.5-.3l-1.1-2.9h-1.3a.5.5 0 1 1 0-1h1.6a.55.55 0 0 1 .5.3l.7 1.9 2.5-8.7c.1-.2.3-.4.5-.4h7.4a.47.47 0 0 1 .5.5c0 .3-.3.5-.6.5z"/><circle cx="297.4" cy="369.2" r=".8"/><path d="M293.2 358.2a11.29 11.29 0 0 0-11.3 11.3c0 6.2 5.1 11.3 11.3 11.3a11.29 11.29 0 1 0 0-22.6zm2.7 1.9c1 0 1.7.8 1.7 1.7s-.8 1.7-1.7 1.7c-1 0-1.7-.8-1.7-1.7s.8-1.7 1.7-1.7zm-3.8 2.5c1.1 0 2 .9 2 2a1.93 1.93 0 0 1-.3 1c-.4 0-.7-.1-1.1-.1a8.33 8.33 0 0 0-2.2.3c-.3-.3-.4-.7-.4-1.2 0-1.1.9-2 2-2zm8.1 9.4c-.6.6-1.2 1.1-1.8 1.7-.4.4-1 .7-1.3 1.2s-.4 1.6-.5 2.2c-.1.3-.4.5-.7.5h-.8c-.3 0-.7-.2-.8-.5l-.6-1.1c-.3 0-.6.1-.9.1-.6 0-1.1-.1-1.6-.1l-.3 1.1c-.1.3-.4.5-.7.5h-.8c-.3 0-.7-.2-.8-.5l-.8-1.4c0-.1-.1-.1-.1-.2-.7-1.3-1.8-2.9-1.9-4.5v-.6c-.3.1-.6 0-.9-.1-.7-.3-.9-1.1-.6-1.8v-.1c0 .4.2.7.6.9.3.2.7.1 1 0 .3-1.1.8-2.2 1.7-3 .6-.6 1.4-1 2.1-1.3.1.3.2.6.4.9l.2.2.3-.1c.7-.2 1.4-.3 2.1-.3.3 0 .7 0 1 .1h.3l.1-.3c.1-.3.3-.6.3-1 .5.1 1 .3 1.4.4 1.1-.6 1.9-.8 2.8-.5.4.1.8.3 1 .7v.1c0 .1-.1.1-.1.1-.4.4-.9.7-1.4 1.1.6.6 1.1 1.4 1.3 2.2h.2.7a.47.47 0 0 1 .5.5c.2 1.5.2 2.1-.6 2.9z"/><circle cx="297.4" cy="420.3" r=".8"/><path d="M293.2 409.3a11.29 11.29 0 0 0-11.3 11.3c0 6.2 5.1 11.3 11.3 11.3a11.3 11.3 0 1 0 0-22.6zm2.7 1.9c1 0 1.7.8 1.7 1.7 0 1-.8 1.7-1.7 1.7-1 0-1.7-.8-1.7-1.7s.8-1.7 1.7-1.7zm-3.8 2.5c1.1 0 2 .9 2 2a1.93 1.93 0 0 1-.3 1c-.4 0-.7-.1-1.1-.1a8.33 8.33 0 0 0-2.2.3c-.3-.3-.4-.7-.4-1.2 0-1.1.9-2 2-2zm8.1 9.4c-.6.6-1.2 1.1-1.8 1.7-.4.4-1 .7-1.3 1.2s-.4 1.6-.5 2.2c-.1.3-.4.5-.7.5h-.8c-.3 0-.7-.2-.8-.5l-.6-1.1c-.3 0-.6.1-.9.1-.6 0-1.1-.1-1.6-.1l-.3 1.1c-.1.3-.4.5-.7.5h-.8c-.3 0-.7-.2-.8-.5l-.8-1.4c0-.1-.1-.1-.1-.2-.7-1.3-1.8-2.9-1.9-4.5v-.6c-.3.1-.6 0-.9-.1-.7-.3-.9-1.1-.6-1.8v-.1c0 .4.2.7.6.9.3.2.7.1 1 0 .3-1.1.8-2.2 1.7-3 .6-.6 1.4-1 2.1-1.3.1.3.2.6.4.9l.2.2.3-.1c.7-.2 1.4-.3 2.1-.3.3 0 .7 0 1 .1h.3l.1-.3c.1-.3.3-.6.3-1 .5.1 1 .3 1.4.4 1.1-.6 1.9-.8 2.8-.5.4.1.8.3 1 .7v.1c0 .1-.1.1-.1.1-.4.4-.9.7-1.4 1.1.6.6 1.1 1.4 1.3 2.2h.2.7a.47.47 0 0 1 .5.5c.2 1.5.2 2.2-.6 2.9zm-83.4-64.8c-6.2 0-11.2 5-11.2 11.2s5 11.2 11.2 11.2 11.2-5 11.2-11.2-5.1-11.2-11.2-11.2zm5.4 15.8h-1.6l-1.9-2.1-1.9 2.1h-1.6l2.7-2.9-2.7-2.9h1.6l1.9 2.1 1.9-2.1h1.6l-2.7 2.9 2.7 2.9zm-.1-8.8h-7l-2.8 9.7c-.1.2-.3.4-.4.4a.55.55 0 0 1-.5-.3l-1.1-2.9H209a.5.5 0 1 1 0-1h1.6a.55.55 0 0 1 .5.3l.7 1.9 2.5-8.7c.1-.2.3-.4.5-.4h7.4a.47.47 0 0 1 .5.5c0 .3-.3.5-.6.5zm-5.3 44.1c-6.2 0-11.2 5-11.2 11.2s5 11.2 11.2 11.2 11.2-5 11.2-11.2-5.1-11.2-11.2-11.2zm5.4 15.9h-1.6l-1.9-2.1-1.9 2.1h-1.6l2.7-2.9-2.7-2.9h1.6l1.9 2.1 1.9-2.1h1.6l-2.7 2.9 2.7 2.9zm-.1-8.9h-7l-2.8 9.7c-.1.2-.3.4-.4.4a.55.55 0 0 1-.5-.3l-1.1-2.9H209a.5.5 0 1 1 0-1h1.6a.55.55 0 0 1 .5.3l.7 1.9 2.5-8.7c.1-.2.3-.4.5-.4h7.4a.47.47 0 0 1 .5.5c0 .3-.3.5-.6.5z"/><circle cx="220.9" cy="394.7" r=".8"/><path d="M216.8 383.7a11.29 11.29 0 0 0-11.3 11.3c0 6.2 5.1 11.3 11.3 11.3a11.29 11.29 0 0 0 11.3-11.3c0-6.2-5.1-11.3-11.3-11.3zm2.7 2c1 0 1.7.8 1.7 1.7s-.8 1.7-1.7 1.7c-1 0-1.7-.8-1.7-1.7s.7-1.7 1.7-1.7zm-3.9 2.5c1.1 0 2 .9 2 2a1.93 1.93 0 0 1-.3 1c-.4 0-.7-.1-1.1-.1a8.33 8.33 0 0 0-2.2.3c-.3-.3-.4-.7-.4-1.2.1-1.1 1-2 2-2zm8.1 9.3c-.6.6-1.2 1.1-1.8 1.7-.4.4-1 .7-1.3 1.2s-.4 1.6-.5 2.2c-.1.3-.4.5-.7.5h-.8c-.3 0-.7-.2-.8-.5l-.6-1.1c-.3 0-.6.1-.9.1-.6 0-1.1-.1-1.6-.1l-.3 1.1c-.1.3-.4.5-.7.5h-.7c-.3 0-.7-.2-.8-.5l-.8-1.4c0-.1-.1-.1-.1-.2-.7-1.3-1.8-2.9-1.9-4.5v-.6c-.3.1-.6 0-.9-.1-.7-.3-.9-1.1-.6-1.8v-.1c0 .4.2.7.6.9.3.2.7.1 1 0 .3-1.1.8-2.2 1.7-3 .6-.6 1.4-1 2.1-1.3.1.3.2.6.4.9l.2.2.3-.1c.7-.2 1.4-.3 2.1-.3.3 0 .7 0 1 .1h.3l.1-.3c.1-.3.3-.6.3-1 .5.1 1 .3 1.4.4 1.1-.6 1.9-.8 2.8-.5.4.1.8.3 1 .7v.1c0 .1-.1.1-.1.1-.4.4-.9.7-1.4 1.1.6.6 1.1 1.4 1.3 2.2h.2.7a.47.47 0 0 1 .5.5c.2 1.6.2 2.2-.7 2.9zm18.6-13.7c-6.2 0-11.2 5-11.2 11.2s5 11.2 11.2 11.2 11.2-5 11.2-11.2c0-6.1-5.1-11.2-11.2-11.2zm5.4 15.9h-1.6l-1.9-2.1-1.9 2.1h-1.6l2.7-2.9-2.7-2.9h1.6l1.9 2.1 1.9-2.1h1.6l-2.7 2.9 2.7 2.9zm-.1-8.9h-7l-2.8 9.7c-.1.2-.3.4-.4.4a.55.55 0 0 1-.5-.3l-1.1-2.9h-1.3a.5.5 0 1 1 0-1h1.6a.55.55 0 0 1 .5.3l.7 1.9 2.5-8.7c.1-.2.3-.4.5-.4h7.4a.47.47 0 0 1 .5.5c-.1.3-.3.5-.6.5z"/><circle cx="246.4" cy="369.2" r=".8"/><path d="M242.3 358.2a11.29 11.29 0 0 0-11.3 11.3c0 6.2 5.1 11.3 11.3 11.3a11.29 11.29 0 1 0 0-22.6zm2.6 1.9c1 0 1.7.8 1.7 1.7s-.8 1.7-1.7 1.7-1.7-.8-1.7-1.7c.1-.9.8-1.7 1.7-1.7zm-3.7 2.5c1.1 0 2 .9 2 2a1.93 1.93 0 0 1-.3 1c-.4-.1-.7-.1-1.1-.1a8.33 8.33 0 0 0-2.2.3c-.3-.3-.4-.7-.4-1.2a1.94 1.94 0 0 1 2-2zm8 9.4c-.6.6-1.2 1.1-1.8 1.7-.4.4-1 .7-1.3 1.2s-.4 1.6-.5 2.2c-.1.3-.4.5-.7.5h-.8c-.3 0-.7-.2-.8-.5l-.6-1.1c-.3 0-.6.1-.9.1-.6 0-1.1-.1-1.6-.1l-.3 1.1c-.1.3-.4.5-.7.5h-.8c-.3 0-.7-.2-.8-.5l-.8-1.4c0-.1-.1-.1-.1-.2-.7-1.3-1.8-2.9-1.9-4.5v-.6c-.3.1-.6 0-.9-.1-.7-.3-.9-1.1-.6-1.8v-.1c0 .4.2.7.6.9.3.2.7.1 1 0 .3-1.1.8-2.2 1.7-3 .6-.6 1.4-1 2.1-1.3.1.3.2.6.4.9l.2.2.3-.1c.7-.2 1.4-.3 2.1-.3.3 0 .7 0 1 .1h.3l.1-.3c.1-.3.3-.6.3-1 .5.1 1 .3 1.4.4 1.1-.6 1.9-.8 2.8-.5.4.1.8.3 1 .7v.1c0 .1-.1.1-.1.1-.4.4-.9.7-1.4 1.1.6.6 1.1 1.4 1.3 2.2h.2.7a.47.47 0 0 1 .5.5c.2 1.5.3 2.1-.6 2.9z"/><circle cx="246.4" cy="420.3" r=".8"/><path d="M242.3 409.3a11.29 11.29 0 0 0-11.3 11.3c0 6.2 5.1 11.3 11.3 11.3s11.3-5.1 11.3-11.3-5.1-11.3-11.3-11.3zm2.6 1.9c1 0 1.7.8 1.7 1.7 0 1-.8 1.7-1.7 1.7s-1.7-.8-1.7-1.7.8-1.7 1.7-1.7zm-3.7 2.5c1.1 0 2 .9 2 2a1.93 1.93 0 0 1-.3 1c-.4 0-.7-.1-1.1-.1a8.33 8.33 0 0 0-2.2.3c-.3-.3-.4-.7-.4-1.2a1.94 1.94 0 0 1 2-2zm8 9.4c-.6.6-1.2 1.1-1.8 1.7-.4.4-1 .7-1.3 1.2s-.4 1.6-.5 2.2c-.1.3-.4.5-.7.5h-.8c-.3 0-.7-.2-.8-.5l-.6-1.1c-.3 0-.6.1-.9.1-.6 0-1.1-.1-1.6-.1l-.3 1.1c-.1.3-.4.5-.7.5h-.8c-.3 0-.7-.2-.8-.5l-.8-1.4c0-.1-.1-.1-.1-.2-.7-1.3-1.8-2.9-1.9-4.5v-.6c-.3.1-.6 0-.9-.1-.7-.3-.9-1.1-.6-1.8v-.1c0 .4.2.7.6.9.3.2.7.1 1 0 .3-1.1.8-2.2 1.7-3 .6-.6 1.4-1 2.1-1.3.1.3.2.6.4.9l.2.2.3-.1c.7-.2 1.4-.3 2.1-.3.3 0 .7 0 1 .1h.3l.1-.3c.1-.3.3-.6.3-1 .5.1 1 .3 1.4.4 1.1-.6 1.9-.8 2.8-.5.4.1.8.3 1 .7v.1c0 .1-.1.1-.1.1-.4.4-.9.7-1.4 1.1.6.6 1.1 1.4 1.3 2.2h.2.7a.47.47 0 0 1 .5.5c.2 1.5.3 2.2-.6 2.9zm-83.4-64.8c-6.2 0-11.2 5-11.2 11.2s5 11.2 11.2 11.2 11.2-5 11.2-11.2-5-11.2-11.2-11.2zm5.5 15.8h-1.6l-1.9-2.1-1.9 2.1h-1.6l2.7-2.9-2.7-2.9h1.6l1.9 2.1 1.9-2.1h1.6l-2.7 2.9 2.7 2.9zm-.2-8.8h-7l-2.8 9.7c-.1.2-.3.4-.4.4a.55.55 0 0 1-.5-.3l-1.1-2.9H158a.5.5 0 1 1 0-1h1.6a.55.55 0 0 1 .5.3l.7 1.9 2.5-8.7c.1-.2.3-.4.5-.4h7.4a.47.47 0 0 1 .5.5c-.1.2-.3.5-.6.5zm-5.3 44.1c-6.2 0-11.2 5-11.2 11.2s5 11.2 11.2 11.2 11.2-5 11.2-11.2-5-11.2-11.2-11.2zm5.5 15.9h-1.6l-1.9-2.1-1.9 2.1h-1.6l2.7-2.9-2.7-2.9h1.6l1.9 2.1 1.9-2.1h1.6l-2.7 2.9 2.7 2.9zm-.2-8.9h-7l-2.8 9.7c-.1.2-.3.4-.4.4a.55.55 0 0 1-.5-.3l-1.1-2.9H158a.5.5 0 1 1 0-1h1.6a.55.55 0 0 1 .5.3l.7 1.9 2.5-8.7c.1-.2.3-.4.5-.4h7.4a.47.47 0 0 1 .5.5c-.1.3-.3.5-.6.5z"/><circle cx="169.9" cy="394.7" r=".8"/><path d="M165.8 383.7a11.29 11.29 0 0 0-11.3 11.3c0 6.2 5.1 11.3 11.3 11.3s11.3-5.1 11.3-11.3-5.1-11.3-11.3-11.3zm2.7 2c1 0 1.7.8 1.7 1.7s-.8 1.7-1.7 1.7-1.7-.8-1.7-1.7.7-1.7 1.7-1.7zm-3.8 2.5c1.1 0 2 .9 2 2a1.93 1.93 0 0 1-.3 1c-.4 0-.7-.1-1.1-.1a8.33 8.33 0 0 0-2.2.3c-.3-.3-.4-.7-.4-1.2 0-1.1.9-2 2-2zm8 9.3c-.6.6-1.2 1.1-1.8 1.7-.4.4-1 .7-1.3 1.2s-.4 1.6-.5 2.2c-.1.3-.4.5-.7.5h-.8c-.3 0-.7-.2-.8-.5l-.6-1.1c-.3 0-.6.1-.9.1-.6 0-1.1-.1-1.6-.1l-.3 1.1c-.1.3-.4.5-.7.5h-.7c-.3 0-.7-.2-.8-.5l-.8-1.4c0-.1-.1-.1-.1-.2-.7-1.3-1.8-2.9-1.9-4.5v-.6c-.3.1-.6 0-.9-.1-.7-.3-.9-1.1-.6-1.8v-.1c0 .4.2.7.6.9.3.2.7.1 1 0 .3-1.1.8-2.2 1.7-3 .6-.6 1.4-1 2.1-1.3.1.3.2.6.4.9l.2.2.3-.1c.7-.2 1.4-.3 2.1-.3.3 0 .7 0 1 .1h.3l.1-.3c.1-.3.3-.6.3-1 .5.1 1 .3 1.4.4 1.1-.6 1.9-.8 2.8-.5.4.1.8.3 1 .7v.1c0 .1-.1.1-.1.1-.4.4-.9.7-1.4 1.1.6.6 1.1 1.4 1.3 2.2h.2.7a.47.47 0 0 1 .5.5c.2 1.6.2 2.2-.7 2.9z"/><use xlink:href="#C" x="-382.3" y="-25.6"/><circle cx="195.4" cy="369.2" r=".8"/><path d="M191.3 358.2a11.29 11.29 0 0 0-11.3 11.3c0 6.2 5 11.4 11.3 11.4a11.29 11.29 0 0 0 11.3-11.3c0-6.2-5.1-11.4-11.3-11.4zm2.7 1.9c1 0 1.7.8 1.7 1.7s-.8 1.7-1.7 1.7-1.7-.8-1.7-1.7.8-1.7 1.7-1.7zm-3.8 2.5c1.1 0 2 .9 2 2a1.93 1.93 0 0 1-.3 1c-.4 0-.7-.1-1.1-.1a8.33 8.33 0 0 0-2.2.3c-.3-.3-.4-.7-.4-1.2 0-1.1.9-2 2-2zm8.1 9.4c-.6.6-1.2 1.1-1.8 1.7-.4.4-1 .7-1.3 1.2s-.4 1.6-.5 2.2c-.1.3-.4.5-.7.5h-.8c-.3 0-.7-.2-.8-.5l-.6-1.1c-.3 0-.6.1-.9.1-.6 0-1.1-.1-1.6-.1l-.3 1c-.1.3-.4.5-.7.5h-.8c-.3 0-.7-.2-.8-.5l-.8-1.4c0-.1-.1-.1-.1-.2-.7-1.3-1.8-2.9-1.9-4.5v-.6c-.3.1-.6 0-.9-.1-.7-.3-.9-1.1-.6-1.8v-.1c0 .4.2.7.6.9.3.2.7.1 1 0 .3-1.1.8-2.2 1.7-3 .6-.6 1.4-1 2.1-1.3.1.3.2.6.4.9l.2.2.3-.1c.7-.2 1.4-.3 2.1-.3.3 0 .7 0 1 .1h.3l.1-.3c.1-.3.3-.6.3-1 .5.1 1 .3 1.4.4 1.1-.6 1.9-.8 2.8-.5.4.1.8.3 1 .7v.1c0 .1-.1.1-.1.1-.4.4-.9.7-1.4 1.1.6.6 1.1 1.4 1.3 2.2h.2.7a.47.47 0 0 1 .5.5c.2 1.6.2 2.2-.6 3z"/><circle cx="195.4" cy="420.3" r=".8"/><path d="M191.3 409.3a11.29 11.29 0 0 0-11.3 11.3c0 6.2 5.1 11.3 11.3 11.3a11.29 11.29 0 0 0 11.3-11.3c0-6.2-5.1-11.3-11.3-11.3zm2.7 1.9c1 0 1.7.8 1.7 1.7 0 1-.8 1.7-1.7 1.7s-1.7-.8-1.7-1.7.8-1.7 1.7-1.7zm-3.8 2.5c1.1 0 2 .9 2 2a1.93 1.93 0 0 1-.3 1c-.4 0-.7-.1-1.1-.1a8.33 8.33 0 0 0-2.2.3c-.3-.3-.4-.7-.4-1.2 0-1.1.9-2 2-2zm8.1 9.4c-.6.6-1.2 1.1-1.8 1.7-.4.4-1 .7-1.3 1.2s-.4 1.6-.5 2.2c-.1.3-.4.5-.7.5h-.8c-.3 0-.7-.2-.8-.5l-.6-1.1c-.3 0-.6.1-.9.1-.6 0-1.1-.1-1.6-.1l-.3 1.1c-.1.3-.4.5-.7.5h-.8c-.3 0-.7-.2-.8-.5l-.8-1.4c0-.1-.1-.1-.1-.2-.7-1.3-1.8-2.9-1.9-4.5v-.6c-.3.1-.6 0-.9-.1-.7-.3-.9-1.1-.6-1.8v-.1c0 .4.2.7.6.9.3.2.7.1 1 0 .3-1.1.8-2.2 1.7-3 .6-.6 1.4-1 2.1-1.3.1.3.2.6.4.9l.2.2.3-.1c.7-.2 1.4-.3 2.1-.3.3 0 .7 0 1 .1h.3l.1-.3c.1-.3.3-.6.3-1 .5.1 1 .3 1.4.4 1.1-.6 1.9-.8 2.8-.5.4.1.8.3 1 .7v.1c0 .1-.1.1-.1.1-.4.4-.9.7-1.4 1.1.6.6 1.1 1.4 1.3 2.2h.2.7a.47.47 0 0 1 .5.5c.2 1.5.2 2.2-.6 2.9zm-83.5-64.8c-6.2 0-11.2 5-11.2 11.2s5 11.2 11.2 11.2 11.2-5 11.2-11.2-5-11.2-11.2-11.2zm5.5 15.8h-1.6l-1.9-2.1-1.9 2.1h-1.6l2.7-2.9-2.7-2.9h1.6l1.9 2.1 1.9-2.1h1.6l-2.7 2.9 2.7 2.9zm-.2-8.8h-7l-2.8 9.7c-.1.2-.3.4-.4.4a.55.55 0 0 1-.5-.3l-1.1-2.9H107a.5.5 0 1 1 0-1h1.6a.55.55 0 0 1 .5.3l.7 1.9 2.5-8.7c.1-.2.3-.4.5-.4h7.4a.47.47 0 0 1 .5.5c0 .3-.3.5-.6.5zm-5.3 44.1c-6.2 0-11.2 5-11.2 11.2s5 11.2 11.2 11.2 11.2-5 11.2-11.2-5-11.2-11.2-11.2zm5.5 15.9h-1.6l-1.9-2.1-1.9 2.1h-1.6l2.7-2.9-2.7-2.9h1.6l1.9 2.1 1.9-2.1h1.6l-2.7 2.9 2.7 2.9zm-.2-8.9h-7l-2.8 9.7c-.1.2-.3.4-.4.4a.55.55 0 0 1-.5-.3l-1.1-2.9H107a.5.5 0 1 1 0-1h1.6a.55.55 0 0 1 .5.3l.7 1.9 2.5-8.7c.1-.2.3-.4.5-.4h7.4a.47.47 0 0 1 .5.5c-.1.3-.3.5-.6.5z"/><circle cx="118.9" cy="394.7" r=".8"/><use xlink:href="#K"/><use xlink:href="#L"/><circle cx="144.4" cy="369.2" r=".8"/><path d="M140.3 358.2a11.29 11.29 0 0 0-11.3 11.3c0 6.2 5.1 11.3 11.3 11.3s11.3-5.1 11.3-11.3-5.1-11.3-11.3-11.3zm2.7 1.9c1 0 1.7.8 1.7 1.7s-.8 1.7-1.7 1.7-1.7-.8-1.7-1.7.8-1.7 1.7-1.7zm-3.8 2.5c1.1 0 2 .9 2 2a1.93 1.93 0 0 1-.3 1c-.4 0-.7-.1-1.1-.1a8.33 8.33 0 0 0-2.2.3c-.3-.3-.4-.7-.4-1.2 0-1.1.9-2 2-2zm8.1 9.4c-.6.6-1.2 1.1-1.8 1.7-.4.4-1 .7-1.3 1.2s-.4 1.6-.5 2.2c-.1.3-.4.5-.7.5h-.8c-.3 0-.7-.2-.8-.5l-.6-1.1c-.3 0-.6.1-.9.1-.6 0-1.1-.1-1.6-.1l-.3 1c-.1.3-.4.5-.7.5h-.8c-.3 0-.7-.2-.8-.5l-.8-1.4c0-.1-.1-.1-.1-.2-.7-1.3-1.8-2.9-1.9-4.5v-.6c-.3.1-.6 0-.9-.1-.7-.3-.9-1.1-.6-1.8v-.1c0 .4.2.7.6.9.3.2.7.1 1 0 .3-1.1.8-2.2 1.7-3 .6-.6 1.4-1 2.1-1.3.1.3.2.6.4.9l.2.2.3-.1c.7-.2 1.4-.3 2.1-.3.3 0 .7 0 1 .1h.3l.1-.3c.1-.3.3-.6.3-1 .5.1 1 .3 1.4.4 1.1-.6 1.9-.8 2.8-.5.4.1.8.3 1 .7v.1c0 .1-.1.1-.1.1-.4.4-.9.7-1.4 1.1.6.6 1.1 1.4 1.3 2.2h.2.7a.47.47 0 0 1 .5.5c.2 1.6.2 2.2-.6 3z"/><circle cx="144.4" cy="420.3" r=".8"/><path d="M140.3 409.3a11.29 11.29 0 0 0-11.3 11.3c0 6.2 5.1 11.3 11.3 11.3s11.3-5.1 11.3-11.3-5.1-11.3-11.3-11.3zm2.7 1.9c1 0 1.7.8 1.7 1.7 0 1-.8 1.7-1.7 1.7s-1.7-.8-1.7-1.7.8-1.7 1.7-1.7zm-3.8 2.5c1.1 0 2 .9 2 2a1.93 1.93 0 0 1-.3 1c-.4 0-.7-.1-1.1-.1a8.33 8.33 0 0 0-2.2.3c-.3-.3-.4-.7-.4-1.2 0-1.1.9-2 2-2zm8.1 9.4c-.6.6-1.2 1.1-1.8 1.7-.4.4-1 .7-1.3 1.2s-.4 1.6-.5 2.2c-.1.3-.4.5-.7.5h-.8c-.3 0-.7-.2-.8-.5l-.6-1.1c-.3 0-.6.1-.9.1-.6 0-1.1-.1-1.6-.1l-.3 1.1c-.1.3-.4.5-.7.5h-.8c-.3 0-.7-.2-.8-.5l-.8-1.4c0-.1-.1-.1-.1-.2-.7-1.3-1.8-2.9-1.9-4.5v-.6c-.3.1-.6 0-.9-.1-.7-.3-.9-1.1-.6-1.8v-.1c0 .4.2.7.6.9s.7.1 1 0c.3-1.1.8-2.2 1.7-3 .6-.6 1.4-1 2.1-1.3.1.3.2.6.4.9l.2.2.3-.1c.7-.2 1.4-.3 2.1-.3.3 0 .7 0 1 .1h.3l.1-.3c.1-.3.3-.6.3-1 .5.1 1 .3 1.4.4 1.1-.6 1.9-.8 2.8-.5.4.1.8.3 1 .7v.1c0 .1-.1.1-.1.1-.4.4-.9.7-1.4 1.1.6.6 1.1 1.4 1.3 2.2h.2.7a.47.47 0 0 1 .5.5c.2 1.5.2 2.2-.6 2.9zm-83.5-64.8c-6.2 0-11.2 5-11.2 11.2s5 11.2 11.2 11.2 11.2-5 11.2-11.2-5-11.2-11.2-11.2zm5.5 15.8h-1.6l-1.9-2.1-1.9 2.1h-1.6l2.7-2.9-2.7-2.9H64l1.9 2.1 1.9-2.1h1.6l-2.7 2.9 2.6 2.9zm-.2-8.8h-7l-2.8 9.7c-.1.2-.3.4-.4.4a.55.55 0 0 1-.5-.3l-1.1-2.9H56a.5.5 0 1 1 0-1h1.6a.55.55 0 0 1 .5.3l.7 1.9 2.5-8.7c.1-.2.3-.4.5-.4h7.4a.47.47 0 0 1 .5.5c0 .2-.3.5-.6.5zm-5.3 44.1c-6.2 0-11.2 5-11.2 11.2s5 11.2 11.2 11.2 11.2-5 11.2-11.2-5-11.2-11.2-11.2zm5.5 15.9h-1.6l-1.9-2.1-1.9 2.1h-1.6l2.7-2.9-2.7-2.9H64l1.9 2.1 1.9-2.1h1.6l-2.7 2.9 2.6 2.9zm-.2-8.9h-7l-2.8 9.7c-.1.2-.3.4-.4.4a.55.55 0 0 1-.5-.3l-1.1-2.9H56a.5.5 0 1 1 0-1h1.6a.55.55 0 0 1 .5.3l.7 1.9 2.5-8.7c.1-.2.3-.4.5-.4h7.4a.47.47 0 0 1 .5.5c0 .3-.3.5-.6.5z"/><circle cx="68" cy="394.7" r=".8"/><path d="M63.8 383.7A11.29 11.29 0 0 0 52.5 395c0 6.2 5.1 11.3 11.3 11.3s11.3-5.1 11.3-11.3c.1-6.2-5-11.3-11.3-11.3zm2.7 2c1 0 1.7.8 1.7 1.7s-.8 1.7-1.7 1.7c-1 0-1.7-.8-1.7-1.7s.8-1.7 1.7-1.7zm-3.8 2.5c1.1 0 2 .9 2 2a1.93 1.93 0 0 1-.3 1c-.4 0-.7-.1-1.1-.1a8.33 8.33 0 0 0-2.2.3c-.3-.3-.4-.7-.4-1.2 0-1.1.9-2 2-2zm8.1 9.3c-.6.6-1.2 1.1-1.8 1.7-.4.4-1 .7-1.3 1.2s-.4 1.6-.5 2.2c-.1.3-.4.5-.7.5h-.8c-.3 0-.7-.2-.8-.5l-.6-1.1c-.3 0-.6.1-.9.1-.6 0-1.1-.1-1.6-.1l-.3 1.1c-.1.3-.4.5-.7.5H60c-.3 0-.7-.2-.8-.5l-.8-1.4c0-.1-.1-.1-.1-.2-.7-1.3-1.8-2.9-1.9-4.5v-.6c-.3.1-.6 0-.9-.1-.7-.3-.9-1.1-.6-1.8v-.1c0 .4.2.7.6.9.3.2.7.1 1 0 .3-1.1.8-2.2 1.7-3 .6-.6 1.4-1 2.1-1.3.1.3.2.6.4.9l.2.2.3-.1c.7-.2 1.4-.3 2.1-.3.3 0 .7 0 1 .1h.3l.1-.3c.1-.3.3-.6.3-1 .5.1 1 .3 1.4.4 1.1-.6 1.9-.8 2.8-.5.4.1.8.3 1 .7v.1c0 .1-.1.1-.1.1-.4.4-.9.7-1.4 1.1.6.6 1.1 1.4 1.3 2.2h.2.7a.47.47 0 0 1 .5.5c.2 1.6.2 2.2-.6 2.9zm18.5-13.7c-6.2 0-11.2 5-11.2 11.2s5 11.2 11.2 11.2 11.2-5 11.2-11.2-5-11.2-11.2-11.2zm5.5 15.9h-1.6l-1.9-2.1-1.9 2.1h-1.6l2.7-2.9-2.7-2.9h1.6l1.9 2.1 1.9-2.1h1.6l-2.7 2.9 2.7 2.9zm-.2-8.9h-7l-2.8 9.7c-.1.2-.3.4-.4.4a.55.55 0 0 1-.5-.3l-1.1-2.9h-1.3a.5.5 0 1 1 0-1H83a.55.55 0 0 1 .5.3l.7 1.9 2.5-8.7c.1-.2.3-.4.5-.4h7.4a.47.47 0 0 1 .5.5c.1.3-.2.5-.5.5z"/><circle cx="93.5" cy="369.2" r=".8"/><path d="M89.3 358.2A11.29 11.29 0 0 0 78 369.5c0 6.2 5.1 11.3 11.3 11.3s11.3-5.1 11.3-11.3a11.29 11.29 0 0 0-11.3-11.3zm2.7 1.9c1 0 1.7.8 1.7 1.7s-.8 1.7-1.7 1.7c-1 0-1.7-.8-1.7-1.7s.8-1.7 1.7-1.7zm-3.8 2.5c1.1 0 2 .9 2 2a1.93 1.93 0 0 1-.3 1c-.4 0-.7-.1-1.1-.1a8.33 8.33 0 0 0-2.2.3c-.3-.3-.4-.7-.4-1.2 0-1.1.9-2 2-2zm8.1 9.4c-.6.6-1.2 1.1-1.8 1.7-.4.4-1 .7-1.3 1.2s-.4 1.6-.5 2.2c-.1.3-.4.5-.7.5h-.8c-.3 0-.7-.2-.8-.5l-.6-1.1c-.3 0-.6.1-.9.1-.6 0-1.1-.1-1.6-.1l-.3 1c-.1.3-.4.5-.7.5h-.8c-.3 0-.7-.2-.8-.5l-.8-1.4c0-.1-.1-.1-.1-.2-.7-1.3-1.8-2.9-1.9-4.5v-.6c-.3.1-.6 0-.9-.1-.7-.3-.9-1.1-.6-1.8v-.1c0 .4.2.7.6.9.3.2.7.1 1 0 .3-1.1.8-2.2 1.7-3 .6-.6 1.4-1 2.1-1.3.1.3.2.6.4.9l.2.2.3-.1c.7-.2 1.4-.3 2.1-.3.3 0 .7 0 1 .1h.3l.1-.3c.1-.3.3-.6.3-1 .5.1 1 .3 1.4.4 1.1-.6 1.9-.8 2.8-.5.4.1.8.3 1 .7v.1c0 .1-.1.1-.1.1-.4.4-.9.7-1.4 1.1.6.6 1.1 1.4 1.3 2.2h.2.7a.47.47 0 0 1 .5.5c.2 1.6.2 2.2-.6 3z"/><circle cx="93.5" cy="420.3" r=".8"/><path d="M89.3 409.3A11.29 11.29 0 0 0 78 420.6c0 6.2 5.1 11.3 11.3 11.3s11.3-5.1 11.3-11.3a11.29 11.29 0 0 0-11.3-11.3zm2.7 1.9c1 0 1.7.8 1.7 1.7 0 1-.8 1.7-1.7 1.7-1 0-1.7-.8-1.7-1.7s.8-1.7 1.7-1.7zm-3.8 2.5c1.1 0 2 .9 2 2a1.93 1.93 0 0 1-.3 1c-.4 0-.7-.1-1.1-.1a8.33 8.33 0 0 0-2.2.3c-.3-.3-.4-.7-.4-1.2 0-1.1.9-2 2-2zm8.1 9.4c-.6.6-1.2 1.1-1.8 1.7-.4.4-1 .7-1.3 1.2s-.4 1.6-.5 2.2c-.1.3-.4.5-.7.5h-.8c-.3 0-.7-.2-.8-.5l-.6-1.1c-.3 0-.6.1-.9.1-.6 0-1.1-.1-1.6-.1l-.3 1.1c-.1.3-.4.5-.7.5h-.8c-.3 0-.7-.2-.8-.5l-.8-1.4c0-.1-.1-.1-.1-.2-.7-1.3-1.8-2.9-1.9-4.5v-.6c-.3.1-.6 0-.9-.1-.7-.3-.9-1.1-.6-1.8v-.1c0 .4.2.7.6.9.3.2.7.1 1 0 .3-1.1.8-2.2 1.7-3 .6-.6 1.4-1 2.1-1.3.1.3.2.6.4.9l.2.2.3-.1c.7-.2 1.4-.3 2.1-.3.3 0 .7 0 1 .1h.3l.1-.3c.1-.3.3-.6.3-1 .5.1 1 .3 1.4.4 1.1-.6 1.9-.8 2.8-.5.4.1.8.3 1 .7v.1c0 .1-.1.1-.1.1-.4.4-.9.7-1.4 1.1.6.6 1.1 1.4 1.3 2.2h.2.7a.47.47 0 0 1 .5.5c.2 1.5.2 2.2-.6 2.9zm-83.4-64.8c-6.2 0-11.2 5-11.2 11.2s5 11.2 11.2 11.2 11.2-5 11.2-11.2-5-11.2-11.2-11.2zm5.5 15.8h-1.6l-1.9-2.1-1.9 2.1h-1.6l2.7-2.9-2.7-2.9H13l1.9 2.1 1.9-2.1h1.6l-2.7 2.9 2.7 2.9zm-.2-8.8h-7L8.3 375c-.1.2-.3.4-.4.4a.55.55 0 0 1-.5-.3l-1.1-2.9H5a.5.5 0 1 1 0-1h1.6a.55.55 0 0 1 .5.3l.7 1.9 2.5-8.7c.1-.2.3-.4.5-.4h7.4a.47.47 0 0 1 .5.5c0 .2-.2.5-.5.5zm-5.3 44.1c-6.2 0-11.2 5-11.2 11.2s5 11.2 11.2 11.2 11.2-5 11.2-11.2-5-11.2-11.2-11.2zm5.5 15.9h-1.6l-1.9-2.1-1.9 2.1h-1.6l2.7-2.9-2.7-2.9H13l1.9 2.1 1.9-2.1h1.6l-2.7 2.9 2.7 2.9zm-.2-8.9h-7l-2.8 9.7c-.1.2-.3.4-.4.4a.55.55 0 0 1-.5-.3l-1.1-2.9H4.9a.5.5 0 1 1 0-1h1.6a.55.55 0 0 1 .5.3l.7 1.9 2.5-8.7c.1-.2.3-.4.5-.4h7.4a.47.47 0 0 1 .5.5c.1.3-.1.5-.4.5z"/><circle cx="17" cy="394.7" r=".8"/><path d="M12.9 383.7A11.29 11.29 0 0 0 1.6 395c0 6.2 5 11.4 11.3 11.4a11.29 11.29 0 0 0 11.3-11.3c0-6.3-5.1-11.4-11.3-11.4zm2.7 2c1 0 1.7.8 1.7 1.7s-.8 1.7-1.7 1.7c-1 0-1.7-.8-1.7-1.7s.7-1.7 1.7-1.7zm-3.8 2.5c1.1 0 2 .9 2 2a1.93 1.93 0 0 1-.3 1c-.4 0-.7-.1-1.1-.1a8.33 8.33 0 0 0-2.2.3c-.3-.3-.4-.7-.4-1.2 0-1.1.9-2 2-2zm8 9.3c-.6.6-1.2 1.1-1.8 1.7-.4.4-1 .7-1.3 1.2s-.4 1.6-.5 2.2c-.1.3-.4.5-.7.5h-.8c-.3 0-.7-.2-.8-.5l-.6-1.1c-.3 0-.6.1-.9.1-.6 0-1.1-.1-1.6-.1l-.3 1.1c-.1.3-.4.5-.7.5h-.7c-.3 0-.7-.2-.8-.5l-.8-1.4c0-.1-.1-.1-.1-.2-.7-1.3-1.8-2.9-1.9-4.5v-.6c-.3.1-.6 0-.9-.1-.7-.3-.9-1.1-.6-1.8v-.1c0 .4.2.7.6.9.3.2.7.1 1 0 .3-1.1.8-2.2 1.7-3 .6-.6 1.4-1 2.1-1.3.1.3.2.6.4.9l.2.2.3-.1c.7-.2 1.4-.3 2.1-.3.3 0 .7 0 1 .1h.3l.1-.3c.1-.3.3-.6.3-1 .5.1 1 .3 1.4.4 1.1-.6 1.9-.8 2.8-.5.4.1.8.3 1 .7v.1c0 .1-.1.1-.1.1-.4.4-.9.7-1.4 1.1.6.6 1.1 1.4 1.3 2.2h.2.7a.47.47 0 0 1 .5.5c.1 1.6.2 2.2-.7 2.9zm18.5-13.7c-6.2 0-11.2 5-11.2 11.2s5 11.2 11.2 11.2 11.2-5 11.2-11.2c.1-6.1-5-11.2-11.2-11.2zm5.5 15.9h-1.6l-1.9-2.1-1.9 2.1h-1.6l2.7-2.9-2.7-2.9h1.6l1.9 2.1 1.9-2.1h1.6l-2.7 2.9 2.7 2.9zm-.1-8.9h-7l-2.8 9.7c-.1.2-.3.4-.4.4a.55.55 0 0 1-.5-.3l-1.1-2.9h-1.3a.5.5 0 1 1 0-1h1.6a.55.55 0 0 1 .5.3l.7 1.9 2.5-8.8c.1-.2.3-.4.5-.4h7.4a.47.47 0 0 1 .5.5c-.1.4-.4.6-.6.6z"/><circle cx="42.5" cy="369.2" r=".8"/><path d="M38.3 358.2A11.29 11.29 0 0 0 27 369.5c0 6.2 5.1 11.4 11.3 11.4s11.3-5.1 11.3-11.3-5-11.4-11.3-11.4zm2.8 1.9c1 0 1.7.8 1.7 1.7s-.8 1.7-1.7 1.7c-1 0-1.7-.8-1.7-1.7s.7-1.7 1.7-1.7zm-3.9 2.5c1.1 0 2 .9 2 2a1.93 1.93 0 0 1-.3 1c-.4 0-.7-.1-1.1-.1a8.33 8.33 0 0 0-2.2.3c-.3-.3-.4-.7-.4-1.2.1-1.1 1-2 2-2zm8.1 9.4c-.6.6-1.2 1.1-1.8 1.7-.4.4-1 .7-1.3 1.2s-.4 1.6-.5 2.2c-.1.3-.4.5-.7.5h-.8c-.3 0-.7-.2-.8-.5l-.6-1.1c-.3 0-.6.1-.9.1-.6 0-1.1-.1-1.6-.1l-.3 1c-.1.3-.4.5-.7.5h-.8c-.3 0-.7-.2-.8-.5l-.8-1.4c0-.1-.1-.1-.1-.2-.7-1.3-1.8-2.9-1.9-4.5v-.6c-.3.1-.6 0-.9-.1-.7-.3-.9-1.1-.6-1.8v-.1c0 .4.2.7.6.9.3.2.7.1 1 0 .3-1.1.8-2.2 1.7-3 .6-.6 1.4-1 2.1-1.3.1.3.2.6.4.9l.2.2.3-.1c.7-.2 1.4-.3 2.1-.3.3 0 .7 0 1 .1h.3l.1-.3c.1-.3.3-.6.3-1 .5.1 1 .3 1.4.4 1.1-.6 1.9-.8 2.8-.5.4.1.8.3 1 .7v.1c0 .1-.1.1-.1.1-.4.4-.9.7-1.4 1.1.6.6 1.1 1.4 1.3 2.2h.2.7a.47.47 0 0 1 .5.5c.2 1.6.2 2.2-.6 3z"/><circle cx="42.5" cy="420.3" r=".8"/><path d="M38.3 409.3A11.29 11.29 0 0 0 27 420.6c0 6.2 5.1 11.3 11.3 11.3s11.3-5.1 11.3-11.3a11.29 11.29 0 0 0-11.3-11.3zm2.8 1.9c1 0 1.7.8 1.7 1.7 0 1-.8 1.7-1.7 1.7-1 0-1.7-.8-1.7-1.7-.1-.9.7-1.7 1.7-1.7zm-3.9 2.5c1.1 0 2 .9 2 2a1.93 1.93 0 0 1-.3 1c-.4 0-.7-.1-1.1-.1a8.33 8.33 0 0 0-2.2.3c-.3-.3-.4-.7-.4-1.2.1-1.1 1-2 2-2zm8.1 9.4c-.6.6-1.2 1.1-1.8 1.7-.4.4-1 .7-1.3 1.2s-.4 1.6-.5 2.2c-.1.3-.4.5-.7.5h-.8c-.3 0-.7-.2-.8-.5l-.6-1.1c-.3 0-.6.1-.9.1-.6 0-1.1-.1-1.6-.1l-.3 1.1c-.1.3-.4.5-.7.5h-.8c-.3 0-.7-.2-.8-.5l-.8-1.4c0-.1-.1-.1-.1-.2-.7-1.3-1.8-2.9-1.9-4.5v-.6c-.3.1-.6 0-.9-.1-.7-.3-.9-1.1-.6-1.8v-.1c0 .4.2.7.6.9.3.2.7.1 1 0 .3-1.1.8-2.2 1.7-3 .6-.6 1.4-1 2.1-1.3.1.3.2.6.4.9l.2.2.3-.1c.7-.2 1.4-.3 2.1-.3.3 0 .7 0 1 .1h.3l.1-.3c.1-.3.3-.6.3-1 .5.1 1 .3 1.4.4 1.1-.6 1.9-.8 2.8-.5.4.1.8.3 1 .7v.1c0 .1-.1.1-.1.1-.4.4-.9.7-1.4 1.1.6.6 1.1 1.4 1.3 2.2h.2.7a.47.47 0 0 1 .5.5c.2 1.5.2 2.2-.6 2.9z"/><use xlink:href="#B" x="560.7"/><use xlink:href="#H" x="815.6"/><circle cx="1138.5" cy="394.7" r=".8"/><path d="M1134.3 383.7A11.29 11.29 0 0 0 1123 395c0 6.2 5.1 11.3 11.3 11.3s11.3-5.1 11.3-11.3a11.29 11.29 0 0 0-11.3-11.3zm2.7 2c1 0 1.7.8 1.7 1.7s-.8 1.7-1.7 1.7-1.7-.8-1.7-1.7.8-1.7 1.7-1.7zm-3.8 2.5c1.1 0 2 .9 2 2a1.93 1.93 0 0 1-.3 1c-.4 0-.7-.1-1.1-.1a8.33 8.33 0 0 0-2.2.3c-.3-.3-.4-.7-.4-1.2 0-1.1.9-2 2-2zm8.1 9.3c-.6.6-1.2 1.1-1.8 1.7-.4.4-1 .7-1.3 1.2s-.4 1.6-.5 2.2c-.1.3-.4.5-.7.5h-.8c-.3 0-.7-.2-.8-.5l-.6-1.1c-.3 0-.6.1-.9.1-.6 0-1.1-.1-1.6-.1l-.3 1.1c-.1.3-.4.5-.7.5h-.8c-.3 0-.7-.2-.8-.5l-.8-1.4c0-.1-.1-.1-.1-.2-.7-1.3-1.8-2.9-1.9-4.5v-.6c-.3.1-.6 0-.9-.1-.7-.3-.9-1.1-.6-1.8v-.1c0 .4.2.7.6.9.3.2.7.1 1 0 .3-1.1.8-2.2 1.7-3 .6-.6 1.4-1 2.1-1.3.1.3.2.6.4.9l.2.2.3-.1c.7-.2 1.4-.3 2.1-.3.3 0 .7 0 1 .1h.3l.1-.3c.1-.3.3-.6.3-1 .5.1 1 .3 1.4.4 1.1-.6 1.9-.8 2.8-.5.4.1.8.3 1 .7v.1c0 .1-.1.1-.1.1-.4.4-.9.7-1.4 1.1.6.6 1.1 1.4 1.3 2.2h.2.7a.47.47 0 0 1 .5.5c.2 1.6.2 2.2-.6 2.9z"/><use xlink:href="#H" x="841.1" y="-25.6"/><circle cx="1164" cy="369.2" r=".8"/><use xlink:href="#I" x="815.6"/><circle cx="1164" cy="420.3" r=".8"/><use xlink:href="#J" x="815.6"/><path d="M1083.4 358.3c-6.2 0-11.2 5-11.2 11.2s5 11.2 11.2 11.2 11.2-5 11.2-11.2-5.1-11.2-11.2-11.2zm5.4 15.8h-1.6l-1.9-2.1-1.9 2.1h-1.6l2.7-2.9-2.7-2.9h1.6l1.9 2.1 1.9-2.1h1.6l-2.7 2.9 2.7 2.9zm-.1-8.8h-7l-2.8 9.7c-.1.2-.3.4-.4.4a.55.55 0 0 1-.5-.3l-1.1-2.9h-1.3a.47.47 0 1 1 0-1h1.6a.55.55 0 0 1 .5.3l.7 1.9 2.5-8.7c.1-.2.3-.4.5-.4h7.4a.47.47 0 0 1 .5.5c-.1.2-.3.5-.6.5z"/><use xlink:href="#F" x="611.7"/><circle cx="1087.5" cy="394.7" r=".8"/><path d="M1083.4 383.7a11.29 11.29 0 0 0-11.3 11.3c0 6.2 5 11.4 11.3 11.4a11.29 11.29 0 0 0 11.3-11.3c0-6.3-5.1-11.4-11.3-11.4zm2.6 2c1 0 1.7.8 1.7 1.7s-.8 1.7-1.7 1.7-1.7-.8-1.7-1.7.8-1.7 1.7-1.7zm-3.7 2.5c1.1 0 2 .9 2 2a1.93 1.93 0 0 1-.3 1c-.4 0-.7-.1-1.1-.1a8.33 8.33 0 0 0-2.2.3c-.3-.3-.4-.7-.4-1.2a1.94 1.94 0 0 1 2-2zm8 9.3c-.6.6-1.2 1.1-1.8 1.7-.4.4-1 .7-1.3 1.2s-.4 1.6-.5 2.2c-.1.3-.4.5-.7.5h-.8c-.3 0-.7-.2-.8-.5l-.6-1.1c-.3 0-.6.1-.9.1-.6 0-1.1-.1-1.6-.1l-.3 1.1c-.1.3-.4.5-.7.5h-.8c-.3 0-.7-.2-.8-.5l-.8-1.4c0-.1-.1-.1-.1-.2-.7-1.3-1.8-2.9-1.9-4.5v-.6c-.3.1-.6 0-.9-.1-.7-.3-.9-1.1-.6-1.8v-.1c0 .4.2.7.6.9.3.2.7.1 1 0 .3-1.1.8-2.2 1.7-3 .6-.6 1.4-1 2.1-1.3.1.3.2.6.4.9l.2.2.3-.1c.7-.2 1.4-.3 2.1-.3.3 0 .7 0 1 .1h.3l.1-.3c.1-.3.3-.6.3-1 .5.1 1 .3 1.4.4 1.1-.6 1.9-.8 2.8-.5.4.1.8.3 1 .7v.1c0 .1-.1.1-.1.1-.4.4-.9.7-1.4 1.1.6.6 1.1 1.4 1.3 2.2h.2.7a.47.47 0 0 1 .5.5c.2 1.6.3 2.2-.6 2.9zm18.5-13.7c-6.2 0-11.2 5-11.2 11.2s5 11.2 11.2 11.2 11.2-5 11.2-11.2-5-11.2-11.2-11.2zm5.5 15.9h-1.6l-1.9-2.1-1.9 2.1h-1.6l2.7-2.9-2.7-2.9h1.6l1.9 2.1 1.9-2.1h1.6l-2.7 2.9 2.7 2.9zm-.1-8.9h-7l-2.8 9.7c-.1.2-.3.4-.4.4a.55.55 0 0 1-.5-.3l-1.1-2.9h-1.3a.5.5 0 1 1 0-1h1.6a.55.55 0 0 1 .5.3l.7 1.9 2.5-8.7c.1-.2.3-.4.5-.4h7.4a.47.47 0 0 1 .5.5c-.2.3-.4.5-.6.5z"/><circle cx="1113" cy="369.2" r=".8"/><path d="M1108.8 358.2a11.29 11.29 0 0 0-11.3 11.3c0 6.2 5.1 11.3 11.3 11.3s11.3-5.1 11.3-11.3a11.29 11.29 0 0 0-11.3-11.3zm2.8 1.9c1 0 1.7.8 1.7 1.7s-.8 1.7-1.7 1.7-1.7-.8-1.7-1.7.7-1.7 1.7-1.7zm-3.9 2.5c1.1 0 2 .9 2 2a1.93 1.93 0 0 1-.3 1c-.4 0-.7-.1-1.1-.1a8.33 8.33 0 0 0-2.2.3c-.3-.3-.4-.7-.4-1.2.1-1.1.9-2 2-2zm8.1 9.4c-.6.6-1.2 1.1-1.8 1.7-.4.4-1 .7-1.3 1.2s-.4 1.6-.5 2.2c-.1.3-.4.5-.7.5h-.8c-.3 0-.7-.2-.8-.5l-.6-1.1c-.3 0-.6.1-.9.1-.6 0-1.1-.1-1.6-.1l-.3 1.1c-.1.3-.4.5-.7.5h-.8c-.3 0-.7-.2-.8-.5l-.8-1.4c0-.1-.1-.1-.1-.2-.7-1.3-1.8-2.9-1.9-4.5v-.6c-.3.1-.6 0-.9-.1-.7-.3-.9-1.1-.6-1.8v-.1c0 .4.2.7.6.9.3.2.7.1 1 0 .3-1.1.8-2.2 1.7-3 .6-.6 1.4-1 2.1-1.3.1.3.2.6.4.9l.2.2.3-.1c.7-.2 1.4-.3 2.1-.3.3 0 .7 0 1 .1h.3l.1-.3c.1-.3.3-.6.3-1 .5.1 1 .3 1.4.4 1.1-.6 1.9-.8 2.8-.5.4.1.8.3 1 .7v.1c0 .1-.1.1-.1.1-.4.4-.9.7-1.4 1.1.6.6 1.1 1.4 1.3 2.2h.2.7a.47.47 0 0 1 .5.5c.2 1.5.2 2.1-.6 2.9z"/><circle cx="1113" cy="420.3" r=".8"/><path d="M1108.8 409.3a11.29 11.29 0 0 0-11.3 11.3c0 6.2 5.1 11.3 11.3 11.3s11.3-5.1 11.3-11.3a11.29 11.29 0 0 0-11.3-11.3zm2.8 1.9c1 0 1.7.8 1.7 1.7 0 1-.8 1.7-1.7 1.7s-1.7-.8-1.7-1.7c-.1-.9.7-1.7 1.7-1.7zm-3.9 2.5c1.1 0 2 .9 2 2a1.93 1.93 0 0 1-.3 1c-.4 0-.7-.1-1.1-.1a8.33 8.33 0 0 0-2.2.3c-.3-.3-.4-.7-.4-1.2.1-1.1.9-2 2-2zm8.1 9.4c-.6.6-1.2 1.1-1.8 1.7-.4.4-1 .7-1.3 1.2s-.4 1.6-.5 2.2c-.1.3-.4.5-.7.5h-.8c-.3 0-.7-.2-.8-.5l-.6-1.1c-.3 0-.6.1-.9.1-.6 0-1.1-.1-1.6-.1l-.3 1.1c-.1.3-.4.5-.7.5h-.8c-.3 0-.7-.2-.8-.5l-.8-1.4c0-.1-.1-.1-.1-.2-.7-1.3-1.8-2.9-1.9-4.5v-.6c-.3.1-.6 0-.9-.1-.7-.3-.9-1.1-.6-1.8v-.1c0 .4.2.7.6.9.3.2.7.1 1 0 .3-1.1.8-2.2 1.7-3 .6-.6 1.4-1 2.1-1.3.1.3.2.6.4.9l.2.2.3-.1c.7-.2 1.4-.3 2.1-.3.3 0 .7 0 1 .1h.3l.1-.3c.1-.3.3-.6.3-1 .5.1 1 .3 1.4.4 1.1-.6 1.9-.8 2.8-.5.4.1.8.3 1 .7v.1c0 .1-.1.1-.1.1-.4.4-.9.7-1.4 1.1.6.6 1.1 1.4 1.3 2.2h.2.7a.47.47 0 0 1 .5.5c.2 1.5.2 2.2-.6 2.9z"/><use xlink:href="#B" x="458.8"/><use xlink:href="#C" x="458.8"/><circle cx="1036.5" cy="394.7" r=".8"/><path d="M1032.4 383.7a11.29 11.29 0 0 0-11.3 11.3c0 6.2 5.1 11.3 11.3 11.3s11.3-5.1 11.3-11.3-5.1-11.3-11.3-11.3zm2.7 2c1 0 1.7.8 1.7 1.7s-.8 1.7-1.7 1.7-1.7-.8-1.7-1.7.8-1.7 1.7-1.7zm-3.8 2.5c1.1 0 2 .9 2 2a1.93 1.93 0 0 1-.3 1c-.4 0-.7-.1-1.1-.1a8.33 8.33 0 0 0-2.2.3c-.3-.3-.4-.7-.4-1.2 0-1.1.9-2 2-2zm8 9.3c-.6.6-1.2 1.1-1.8 1.7-.4.4-1 .7-1.3 1.2s-.4 1.6-.5 2.2c-.1.3-.4.5-.7.5h-.8c-.3 0-.7-.2-.8-.5l-.6-1.1c-.3 0-.6.1-.9.1-.6 0-1.1-.1-1.6-.1l-.3 1.1c-.1.3-.4.5-.7.5h-.8c-.3 0-.7-.2-.8-.5l-.8-1.4c0-.1-.1-.1-.1-.2-.7-1.3-1.8-2.9-1.9-4.5v-.6c-.3.1-.6 0-.9-.1-.7-.3-.9-1.1-.6-1.8v-.1c0 .4.2.7.6.9.3.2.7.1 1 0 .3-1.1.8-2.2 1.7-3 .6-.6 1.4-1 2.1-1.3.1.3.2.6.4.9l.2.2.3-.1c.7-.2 1.4-.3 2.1-.3.3 0 .7 0 1 .1h.3l.1-.3c.1-.3.3-.6.3-1 .5.1 1 .3 1.4.4 1.1-.6 1.9-.8 2.8-.5.4.1.8.3 1 .7v.1c0 .1-.1.1-.1.1-.4.4-.9.7-1.4 1.1.6.6 1.1 1.4 1.3 2.2h.2.7a.47.47 0 0 1 .5.5c.3 1.6.3 2.2-.6 2.9zm18.6-13.7c-6.2 0-11.2 5-11.2 11.2s5 11.2 11.2 11.2 11.2-5 11.2-11.2c0-6.1-5.1-11.2-11.2-11.2zm5.4 15.9h-1.6l-1.9-2.1-1.9 2.1h-1.6l2.7-2.9-2.7-2.9h1.6l1.9 2.1 1.9-2.1h1.6l-2.7 2.9 2.7 2.9zm-.1-8.9h-7l-2.8 9.7c-.1.2-.3.4-.4.4a.55.55 0 0 1-.5-.3l-1.1-2.9h-1.3a.5.5 0 1 1 0-1h1.6a.55.55 0 0 1 .5.3l.7 1.9 2.5-8.8c.1-.2.3-.4.5-.4h7.4a.47.47 0 0 1 .5.5c-.1.4-.3.6-.6.6z"/><circle cx="1062" cy="369.2" r=".8"/><path d="M1057.9 358.2a11.29 11.29 0 0 0-11.3 11.3c0 6.2 5.1 11.3 11.3 11.3s11.3-5.1 11.3-11.3-5.1-11.3-11.3-11.3zm2.7 1.9c1 0 1.7.8 1.7 1.7s-.8 1.7-1.7 1.7-1.7-.8-1.7-1.7.7-1.7 1.7-1.7zm-3.9 2.5c1.1 0 2 .9 2 2a1.93 1.93 0 0 1-.3 1c-.4 0-.7-.1-1.1-.1a8.33 8.33 0 0 0-2.2.3c-.3-.3-.4-.7-.4-1.2.1-1.1 1-2 2-2zm8.1 9.4c-.6.6-1.2 1.1-1.8 1.7-.4.4-1 .7-1.3 1.2s-.4 1.6-.5 2.2c-.1.3-.4.5-.7.5h-.8c-.3 0-.7-.2-.8-.5l-.6-1.1c-.3 0-.6.1-.9.1-.6 0-1.1-.1-1.6-.1l-.3 1.1c-.1.3-.4.5-.7.5h-.8c-.3 0-.7-.2-.8-.5l-.8-1.4c0-.1-.1-.1-.1-.2-.7-1.3-1.8-2.9-1.9-4.5v-.6c-.3.1-.6 0-.9-.1-.7-.3-.9-1.1-.6-1.8v-.1c0 .4.2.7.6.9.3.2.7.1 1 0 .3-1.1.8-2.2 1.7-3 .6-.6 1.4-1 2.1-1.3.1.3.2.6.4.9l.2.2.3-.1c.7-.2 1.4-.3 2.1-.3.3 0 .7 0 1 .1h.3l.1-.3c.1-.3.3-.6.3-1 .5.1 1 .3 1.4.4 1.1-.6 1.9-.8 2.8-.5.4.1.8.3 1 .7v.1c0 .1-.1.1-.1.1-.4.4-.9.7-1.4 1.1.6.6 1.1 1.4 1.3 2.2h.2.7a.47.47 0 0 1 .5.5c.3 1.5.3 2.1-.6 2.9z"/><circle cx="1062" cy="420.3" r=".8"/><path d="M1057.9 409.3a11.29 11.29 0 0 0-11.3 11.3c0 6.2 5.1 11.3 11.3 11.3s11.3-5.1 11.3-11.3-5.1-11.3-11.3-11.3zm2.7 1.9c1 0 1.7.8 1.7 1.7 0 1-.8 1.7-1.7 1.7s-1.7-.8-1.7-1.7c-.1-.9.7-1.7 1.7-1.7zm-3.9 2.5c1.1 0 2 .9 2 2a1.93 1.93 0 0 1-.3 1c-.4 0-.7-.1-1.1-.1a8.33 8.33 0 0 0-2.2.3c-.3-.3-.4-.7-.4-1.2.1-1.1 1-2 2-2zm8.1 9.4c-.6.6-1.2 1.1-1.8 1.7-.4.4-1 .7-1.3 1.2s-.4 1.6-.5 2.2c-.1.3-.4.5-.7.5h-.8c-.3 0-.7-.2-.8-.5l-.6-1.1c-.3 0-.6.1-.9.1-.6 0-1.1-.1-1.6-.1l-.3 1.1c-.1.3-.4.5-.7.5h-.8c-.3 0-.7-.2-.8-.5l-.8-1.4c0-.1-.1-.1-.1-.2-.7-1.3-1.8-2.9-1.9-4.5v-.6c-.3.1-.6 0-.9-.1-.7-.3-.9-1.1-.6-1.8v-.1c0 .4.2.7.6.9.3.2.7.1 1 0 .3-1.1.8-2.2 1.7-3 .6-.6 1.4-1 2.1-1.3.1.3.2.6.4.9l.2.2.3-.1c.7-.2 1.4-.3 2.1-.3.3 0 .7 0 1 .1h.3l.1-.3c.1-.3.3-.6.3-1 .5.1 1 .3 1.4.4 1.1-.6 1.9-.8 2.8-.5.4.1.8.3 1 .7v.1c0 .1-.1.1-.1.1-.4.4-.9.7-1.4 1.1.6.6 1.1 1.4 1.3 2.2h.2.7a.47.47 0 0 1 .5.5c.3 1.5.3 2.2-.6 2.9z"/><use xlink:href="#B" x="407.8"/><use xlink:href="#C" x="407.8"/><circle cx="985.5" cy="394.7" r=".8"/><path d="M981.4 383.7a11.29 11.29 0 0 0-11.3 11.3c0 6.2 5.1 11.3 11.3 11.3s11.3-5.1 11.3-11.3-5.1-11.3-11.3-11.3zm2.7 2c1 0 1.7.8 1.7 1.7s-.8 1.7-1.7 1.7-1.7-.8-1.7-1.7.8-1.7 1.7-1.7zm-3.8 2.5c1.1 0 2 .9 2 2a1.93 1.93 0 0 1-.3 1c-.4 0-.7-.1-1.1-.1a8.33 8.33 0 0 0-2.2.3c-.3-.3-.4-.7-.4-1.2 0-1.1.9-2 2-2zm8.1 9.3c-.6.6-1.2 1.1-1.8 1.7-.4.4-1 .7-1.3 1.2s-.4 1.6-.5 2.2c-.1.3-.4.5-.7.5h-.8c-.3 0-.7-.2-.8-.5l-.6-1.1c-.3 0-.6.1-.9.1-.6 0-1.1-.1-1.6-.1l-.3 1.1c-.1.3-.4.5-.7.5h-.8c-.3 0-.7-.2-.8-.5l-.8-1.4c0-.1-.1-.1-.1-.2-.7-1.3-1.8-2.9-1.9-4.5v-.6c-.3.1-.6 0-.9-.1-.7-.3-.9-1.1-.6-1.8v-.1c0 .4.2.7.6.9.3.2.7.1 1 0 .3-1.1.8-2.2 1.7-3 .6-.6 1.4-1 2.1-1.3.1.3.2.6.4.9l.2.2.3-.1c.7-.2 1.4-.3 2.1-.3.3 0 .7 0 1 .1h.3l.1-.3c.1-.3.3-.6.3-1 .5.1 1 .3 1.4.4 1.1-.6 1.9-.8 2.8-.5.4.1.8.3 1 .7v.1c0 .1-.1.1-.1.1-.4.4-.9.7-1.4 1.1.6.6 1.1 1.4 1.3 2.2h.2.7a.47.47 0 0 1 .5.5c.2 1.6.2 2.2-.6 2.9zm18.5-13.7c-6.2 0-11.2 5-11.2 11.2s5 11.2 11.2 11.2 11.2-5 11.2-11.2-5-11.2-11.2-11.2zm5.5 15.9h-1.6l-1.9-2.1-1.9 2.1h-1.6l2.7-2.9-2.7-2.9h1.6l1.9 2.1 1.9-2.1h1.6l-2.7 2.9 2.7 2.9zm-.2-8.9h-7l-2.8 9.7c-.1.2-.3.4-.4.4a.55.55 0 0 1-.5-.3l-1.1-2.9H999a.5.5 0 1 1 0-1h1.6a.55.55 0 0 1 .5.3l.7 1.9 2.5-8.7c.1-.2.3-.4.5-.4h7.4a.5.5 0 1 1 0 1z"/><circle cx="1011" cy="369.2" r=".8"/><use xlink:href="#G" x="611.7"/><circle cx="1011" cy="420.3" r=".8"/><path d="M1006.9 409.3a11.29 11.29 0 0 0-11.3 11.3c0 6.2 5.1 11.3 11.3 11.3s11.3-5.1 11.3-11.3-5.1-11.3-11.3-11.3zm2.7 1.9c1 0 1.7.8 1.7 1.7 0 1-.8 1.7-1.7 1.7s-1.7-.8-1.7-1.7.7-1.7 1.7-1.7zm-3.8 2.5c1.1 0 2 .9 2 2a1.93 1.93 0 0 1-.3 1c-.4 0-.7-.1-1.1-.1a8.33 8.33 0 0 0-2.2.3c-.3-.3-.4-.7-.4-1.2 0-1.1.9-2 2-2zm8 9.4c-.6.6-1.2 1.1-1.8 1.7-.4.4-1 .7-1.3 1.2s-.4 1.6-.5 2.2c-.1.3-.4.5-.7.5h-.8c-.3 0-.7-.2-.8-.5l-.6-1.1c-.3 0-.6.1-.9.1-.6 0-1.1-.1-1.6-.1l-.3 1.1c-.1.3-.4.5-.7.5h-.8c-.3 0-.7-.2-.8-.5l-.8-1.4c0-.1-.1-.1-.1-.2-.7-1.3-1.8-2.9-1.9-4.5v-.6c-.3.1-.6 0-.9-.1-.7-.3-.9-1.1-.6-1.8v-.1c0 .4.2.7.6.9s.7.1 1 0c.3-1.1.8-2.2 1.7-3 .6-.6 1.4-1 2.1-1.3.1.3.2.6.4.9l.2.2.3-.1c.7-.2 1.4-.3 2.1-.3.3 0 .7 0 1 .1h.3l.1-.3c.1-.3.3-.6.3-1 .5.1 1 .3 1.4.4 1.1-.6 1.9-.8 2.8-.5.4.1.8.3 1 .7v.1c0 .1-.1.1-.1.1-.4.4-.9.7-1.4 1.1.6.6 1.1 1.4 1.3 2.2h.2.7a.47.47 0 0 1 .5.5c.3 1.5.3 2.2-.6 2.9z"/><use xlink:href="#B" x="356.8"/><use xlink:href="#H" x="611.7"/><circle cx="934.6" cy="394.7" r=".8"/><path d="M930.4 383.7a11.29 11.29 0 0 0-11.3 11.3c0 6.2 5.1 11.3 11.3 11.3a11.29 11.29 0 0 0 11.3-11.3c.1-6.2-5-11.3-11.3-11.3zm2.7 2c1 0 1.7.8 1.7 1.7s-.8 1.7-1.7 1.7-1.7-.8-1.7-1.7.8-1.7 1.7-1.7zm-3.8 2.5c1.1 0 2 .9 2 2a1.93 1.93 0 0 1-.3 1c-.4 0-.7-.1-1.1-.1a8.33 8.33 0 0 0-2.2.3c-.3-.3-.4-.7-.4-1.2 0-1.1.9-2 2-2zm8.1 9.3c-.6.6-1.2 1.1-1.8 1.7-.4.4-1 .7-1.3 1.2s-.4 1.6-.5 2.2c-.1.3-.4.5-.7.5h-.8c-.3 0-.7-.2-.8-.5l-.6-1.1c-.3 0-.6.1-.9.1-.6 0-1.1-.1-1.6-.1l-.3 1.1c-.1.3-.4.5-.7.5h-.8c-.3 0-.7-.2-.8-.5l-.8-1.4c0-.1-.1-.1-.1-.2-.7-1.3-1.8-2.9-1.9-4.5v-.6c-.3.1-.6 0-.9-.1-.7-.3-.9-1.1-.6-1.8v-.1c0 .4.2.7.6.9.3.2.7.1 1 0 .3-1.1.8-2.2 1.7-3 .6-.6 1.4-1 2.1-1.3.1.3.2.6.4.9l.2.2.3-.1c.7-.2 1.4-.3 2.1-.3.3 0 .7 0 1 .1h.3l.1-.3c.1-.3.3-.6.3-1 .5.1 1 .3 1.4.4 1.1-.6 1.9-.8 2.8-.5.4.1.8.3 1 .7v.1c0 .1-.1.1-.1.1-.4.4-.9.7-1.4 1.1.6.6 1.1 1.4 1.3 2.2h.2.7a.47.47 0 0 1 .5.5c.2 1.6.2 2.2-.6 2.9zm18.5-13.7c-6.2 0-11.2 5-11.2 11.2s5 11.2 11.2 11.2 11.2-5 11.2-11.2-5-11.2-11.2-11.2zm5.5 15.9h-1.6l-1.9-2.1-1.9 2.1h-1.6l2.7-2.9-2.7-2.9h1.6l1.9 2.1 1.9-2.1h1.6l-2.7 2.9 2.7 2.9zm-.2-8.9h-7l-2.8 9.7c-.1.2-.3.4-.4.4a.55.55 0 0 1-.5-.3l-1.1-2.9H948a.5.5 0 1 1 0-1h1.6a.55.55 0 0 1 .5.3l.7 1.9 2.5-8.7c.1-.2.3-.4.5-.4h7.4a.5.5 0 1 1 0 1z"/><circle cx="960" cy="369.2" r=".8"/><use xlink:href="#D" x="407.8"/><circle cx="960" cy="420.3" r=".8"/><use xlink:href="#E" x="407.8"/><path d="M879.4 358.3c-6.2 0-11.2 5-11.2 11.2s5 11.2 11.2 11.2 11.2-5 11.2-11.2c.1-6.2-5-11.2-11.2-11.2zm5.5 15.8h-1.6l-1.9-2.1-1.9 2.1H878l2.7-2.9-2.7-2.9h1.6l1.9 2.1 1.9-2.1h1.6l-2.7 2.9 2.6 2.9zm-.1-8.8h-7L875 375c-.1.2-.3.4-.4.4a.55.55 0 0 1-.5-.3l-1.1-2.9h-1.3a.5.5 0 1 1 0-1h1.6a.55.55 0 0 1 .5.3l.7 1.9 2.5-8.7c.1-.2.3-.4.5-.4h7.4a.47.47 0 0 1 .5.5c-.1.2-.4.5-.6.5zm-5.4 44.1c-6.2 0-11.2 5-11.2 11.2s5 11.2 11.2 11.2 11.2-5 11.2-11.2c.1-6.2-5-11.2-11.2-11.2zm5.5 15.9h-1.6l-1.9-2.1-1.9 2.1H878l2.7-2.9-2.7-2.9h1.6l1.9 2.1 1.9-2.1h1.6l-2.7 2.9 2.6 2.9zm-.1-8.9h-7l-2.8 9.7c-.1.2-.3.4-.4.4a.55.55 0 0 1-.5-.3l-1.1-2.9h-1.3a.5.5 0 1 1 0-1h1.6a.55.55 0 0 1 .5.3l.7 1.9 2.5-8.7c.1-.2.3-.4.5-.4h7.4a.47.47 0 0 1 .5.5c-.1.3-.4.5-.6.5z"/><circle cx="883.6" cy="394.7" r=".8"/><path d="M879.4 383.7a11.29 11.29 0 0 0-11.3 11.3c0 6.2 5.1 11.3 11.3 11.3s11.3-5.1 11.3-11.3a11.29 11.29 0 0 0-11.3-11.3zm2.8 2c1 0 1.7.8 1.7 1.7s-.8 1.7-1.7 1.7-1.7-.8-1.7-1.7.7-1.7 1.7-1.7zm-3.9 2.5c1.1 0 2 .9 2 2a1.93 1.93 0 0 1-.3 1c-.4 0-.7-.1-1.1-.1a8.33 8.33 0 0 0-2.2.3c-.3-.3-.4-.7-.4-1.2.1-1.1 1-2 2-2zm8.1 9.3c-.6.6-1.2 1.1-1.8 1.7-.4.4-1 .7-1.3 1.2s-.4 1.6-.5 2.2c-.1.3-.4.5-.7.5h-.8c-.3 0-.7-.2-.8-.5l-.6-1c-.3 0-.6.1-.9.1-.6 0-1.1-.1-1.6-.1l-.3 1.1c-.1.3-.4.5-.7.5h-.8c-.3 0-.7-.2-.8-.5l-.8-1.4c0-.1-.1-.1-.1-.2-.7-1.3-1.8-2.9-1.9-4.5v-.6c-.3.1-.6 0-.9-.1-.7-.3-.9-1.1-.6-1.8v-.1c0 .4.2.7.6.9.3.2.7.1 1 0 .3-1.1.8-2.2 1.7-3 .6-.6 1.4-1 2.1-1.3.1.3.2.6.4.9l.2.2.3-.1c.7-.2 1.4-.3 2.1-.3.3 0 .7 0 1 .1h.3l.1-.3c.1-.3.3-.6.3-1 .5.1 1 .3 1.4.4 1.1-.6 1.9-.8 2.8-.5.4.1.8.3 1 .7v.1c0 .1-.1.1-.1.1-.4.4-.9.7-1.4 1.1.6.6 1.1 1.4 1.3 2.2h.2.7a.47.47 0 0 1 .5.5c.2 1.5.2 2.1-.6 2.8zm18.5-13.7c-6.2 0-11.2 5-11.2 11.2s5 11.2 11.2 11.2 11.2-5 11.2-11.2-5-11.2-11.2-11.2zm5.5 15.9h-1.6l-1.9-2.1-1.9 2.1h-1.6l2.7-2.9-2.7-2.9h1.6l1.9 2.1 1.9-2.1h1.6l-2.7 2.9 2.7 2.9zm-.2-8.9h-7l-2.8 9.7c-.1.2-.3.4-.4.4a.55.55 0 0 1-.5-.3l-1.1-2.9H897a.5.5 0 1 1 0-1h1.6a.55.55 0 0 1 .5.3l.7 1.9 2.5-8.8c.1-.2.3-.4.5-.4h7.4a.47.47 0 0 1 .5.5c.1.4-.2.6-.5.6z"/><circle cx="909.1" cy="369.2" r=".8"/><use xlink:href="#I" x="560.7"/><circle cx="909.1" cy="420.3" r=".8"/><path d="M904.9 409.3a11.29 11.29 0 0 0-11.3 11.3c0 6.2 5.1 11.3 11.3 11.3a11.3 11.3 0 1 0 0-22.6zm2.7 1.9c1 0 1.7.8 1.7 1.7 0 1-.8 1.7-1.7 1.7s-1.7-.8-1.7-1.7.8-1.7 1.7-1.7zm-3.8 2.5c1.1 0 2 .9 2 2a1.93 1.93 0 0 1-.3 1c-.4 0-.7-.1-1.1-.1a8.33 8.33 0 0 0-2.2.3c-.3-.3-.4-.7-.4-1.2 0-1.1.9-2 2-2zm8.1 9.4c-.6.6-1.2 1.1-1.8 1.7-.4.4-1 .7-1.3 1.2s-.4 1.6-.5 2.2c-.1.3-.4.5-.7.5h-.8c-.3 0-.7-.2-.8-.5l-.6-1.1c-.3 0-.6.1-.9.1-.6 0-1.1-.1-1.6-.1l-.3 1.1c-.1.3-.4.5-.7.5h-.8c-.3 0-.7-.2-.8-.5l-.8-1.4c0-.1-.1-.1-.1-.2-.7-1.3-1.8-2.9-1.9-4.5v-.6c-.3.1-.6 0-.9-.1-.7-.3-.9-1.1-.6-1.8v-.1c0 .4.2.7.6.9s.7.1 1 0c.3-1.1.8-2.2 1.7-3 .6-.6 1.4-1 2.1-1.3.1.3.2.6.4.9l.2.2.3-.1c.7-.2 1.4-.3 2.1-.3.3 0 .7 0 1 .1h.3l.1-.3c.1-.3.3-.6.3-1 .5.1 1 .3 1.4.4 1.1-.6 1.9-.8 2.8-.5.4.1.8.3 1 .7v.1c0 .1-.1.1-.1.1-.4.4-.9.7-1.4 1.1.6.6 1.1 1.4 1.3 2.2h.2.7a.47.47 0 0 1 .5.5c.2 1.5.2 2.2-.6 2.9zm-83.4-64.8c-6.2 0-11.2 5-11.2 11.2s5 11.2 11.2 11.2 11.2-5 11.2-11.2-5.1-11.2-11.2-11.2zm5.4 15.8h-1.6l-1.9-2.1-1.9 2.1H827l2.7-2.9-2.7-2.9h1.6l1.9 2.1 1.9-2.1h1.6l-2.7 2.9 2.6 2.9zm-.1-8.8h-7L824 375c-.1.2-.3.4-.4.4a.55.55 0 0 1-.5-.3l-1.1-2.9h-1.3a.5.5 0 1 1 0-1h1.6a.55.55 0 0 1 .5.3l.7 1.9 2.5-8.7c.1-.2.3-.4.5-.4h7.4a.47.47 0 0 1 .5.5c-.1.2-.3.5-.6.5zm-5.3 44.1c-6.2 0-11.2 5-11.2 11.2s5 11.2 11.2 11.2 11.2-5 11.2-11.2-5.1-11.2-11.2-11.2zm5.4 15.9h-1.6l-1.9-2.1-1.9 2.1H827l2.7-2.9-2.7-2.9h1.6l1.9 2.1 1.9-2.1h1.6l-2.7 2.9 2.6 2.9zm-.1-8.9h-7l-2.8 9.7c-.1.2-.3.4-.4.4a.55.55 0 0 1-.5-.3l-1.1-2.9h-1.3a.5.5 0 1 1 0-1h1.6a.55.55 0 0 1 .5.3l.7 1.9 2.5-8.7c.1-.2.3-.4.5-.4h7.4a.47.47 0 0 1 .5.5c0 .3-.3.5-.6.5z"/><circle cx="832.6" cy="394.7" r=".8"/><path d="M828.5 383.7a11.29 11.29 0 0 0-11.3 11.3c0 6.2 5.1 11.3 11.3 11.3a11.29 11.29 0 0 0 11.3-11.3c0-6.2-5.1-11.3-11.3-11.3zm2.7 2c1 0 1.7.8 1.7 1.7s-.8 1.7-1.7 1.7-1.7-.8-1.7-1.7.7-1.7 1.7-1.7zm-3.8 2.5c1.1 0 2 .9 2 2a1.93 1.93 0 0 1-.3 1c-.4 0-.7-.1-1.1-.1a8.33 8.33 0 0 0-2.2.3c-.3-.3-.4-.7-.4-1.2 0-1.1.9-2 2-2zm8 9.3c-.6.6-1.2 1.1-1.8 1.7-.4.4-1 .7-1.3 1.2s-.4 1.6-.5 2.2c-.1.3-.4.5-.7.5h-.8c-.3 0-.7-.2-.8-.5l-.6-1.1c-.3 0-.6.1-.9.1-.6 0-1.1-.1-1.6-.1l-.3 1.1c-.1.3-.4.5-.7.5h-.8c-.3 0-.7-.2-.8-.5l-.8-1.4c0-.1-.1-.1-.1-.2-.7-1.3-1.8-2.9-1.9-4.5v-.6c-.3.1-.6 0-.9-.1-.7-.3-.9-1.1-.6-1.8v-.1c0 .4.2.7.6.9.3.2.7.1 1 0 .3-1.1.8-2.2 1.7-3 .6-.6 1.4-1 2.1-1.3.1.3.2.6.4.9l.2.2.3-.1c.7-.2 1.4-.3 2.1-.3.3 0 .7 0 1 .1h.3l.1-.3c.1-.3.3-.6.3-1 .5.1 1 .3 1.4.4 1.1-.6 1.9-.8 2.8-.5.4.1.8.3 1 .7v.1c0 .1-.1.1-.1.1-.4.4-.9.7-1.4 1.1.6.6 1.1 1.4 1.3 2.2h.2.7a.47.47 0 0 1 .5.5c.3 1.6.3 2.2-.6 2.9zm18.6-13.7c-6.2 0-11.2 5-11.2 11.2s5 11.2 11.2 11.2 11.2-5 11.2-11.2c0-6.1-5-11.2-11.2-11.2zm5.5 15.9h-1.6l-1.9-2.1-1.9 2.1h-1.6l2.7-2.9-2.7-2.9h1.6l1.9 2.1 1.9-2.1h1.6l-2.7 2.9 2.7 2.9zm-.2-8.9h-7l-2.8 9.7c-.1.2-.3.4-.4.4a.55.55 0 0 1-.5-.3l-1.1-2.9H846a.5.5 0 1 1 0-1h1.6a.55.55 0 0 1 .5.3l.7 1.9 2.5-8.7c.1-.2.3-.4.5-.4h7.4a.47.47 0 0 1 .5.5c.1.3-.1.5-.4.5z"/><circle cx="858.1" cy="369.2" r=".8"/><path d="M854 358.2a11.29 11.29 0 0 0-11.3 11.3c0 6.2 5.1 11.3 11.3 11.3a11.29 11.29 0 0 0 11.3-11.3c0-6.2-5.1-11.3-11.3-11.3zm2.7 1.9c1 0 1.7.8 1.7 1.7s-.8 1.7-1.7 1.7c-1 0-1.7-.8-1.7-1.7s.7-1.7 1.7-1.7zm-3.8 2.5c1.1 0 2 .9 2 2a1.93 1.93 0 0 1-.3 1c-.4 0-.7-.1-1.1-.1a8.33 8.33 0 0 0-2.2.3c-.3-.3-.4-.7-.4-1.2 0-1.1.9-2 2-2zm8 9.4c-.6.6-1.2 1.1-1.8 1.7-.4.4-1 .7-1.3 1.2s-.4 1.6-.5 2.2c-.1.3-.4.5-.7.5h-.8c-.3 0-.7-.2-.8-.5l-.6-1.1c-.3 0-.6.1-.9.1-.6 0-1.1-.1-1.6-.1l-.3 1.1c-.1.3-.4.5-.7.5h-.8c-.3 0-.7-.2-.8-.5l-.8-1.4c0-.1-.1-.1-.1-.2-.7-1.3-1.8-2.9-1.9-4.5v-.6c-.3.1-.6 0-.9-.1-.7-.3-.9-1.1-.6-1.8v-.1c0 .4.2.7.6.9.3.2.7.1 1 0 .3-1.1.8-2.2 1.7-3 .6-.6 1.4-1 2.1-1.3.1.3.2.6.4.9l.2.2.3-.1c.7-.2 1.4-.3 2.1-.3.3 0 .7 0 1 .1h.3l.1-.3c.1-.3.3-.6.3-1 .5.1 1 .3 1.4.4 1.1-.6 1.9-.8 2.8-.5.4.1.8.3 1 .7v.1c0 .1-.1.1-.1.1-.4.4-.9.7-1.4 1.1.6.6 1.1 1.4 1.3 2.2h.2.7a.47.47 0 0 1 .5.5c.2 1.5.3 2.1-.6 2.9z"/><circle cx="858.1" cy="420.3" r=".8"/><path d="M854 409.3a11.29 11.29 0 0 0-11.3 11.3c0 6.2 5.1 11.3 11.3 11.3a11.29 11.29 0 0 0 11.3-11.3c0-6.2-5.1-11.3-11.3-11.3zm2.7 1.9c1 0 1.7.8 1.7 1.7 0 1-.8 1.7-1.7 1.7-1 0-1.7-.8-1.7-1.7s.7-1.7 1.7-1.7zm-3.8 2.5c1.1 0 2 .9 2 2a1.93 1.93 0 0 1-.3 1c-.4 0-.7-.1-1.1-.1a8.33 8.33 0 0 0-2.2.3c-.3-.3-.4-.7-.4-1.2 0-1.1.9-2 2-2zm8 9.4c-.6.6-1.2 1.1-1.8 1.7-.4.4-1 .7-1.3 1.2s-.4 1.6-.5 2.2c-.1.3-.4.5-.7.5h-.8c-.3 0-.7-.2-.8-.5l-.6-1.1c-.3 0-.6.1-.9.1-.6 0-1.1-.1-1.6-.1l-.3 1.1c-.1.3-.4.5-.7.5h-.8c-.3 0-.7-.2-.8-.5l-.8-1.4c0-.1-.1-.1-.1-.2-.7-1.3-1.8-2.9-1.9-4.5v-.6c-.3.1-.6 0-.9-.1-.7-.3-.9-1.1-.6-1.8v-.1c0 .4.2.7.6.9s.7.1 1 0c.3-1.1.8-2.2 1.7-3 .6-.6 1.4-1 2.1-1.3.1.3.2.6.4.9l.2.2.3-.1c.7-.2 1.4-.3 2.1-.3.3 0 .7 0 1 .1h.3l.1-.3c.1-.3.3-.6.3-1 .5.1 1 .3 1.4.4 1.1-.6 1.9-.8 2.8-.5.4.1.8.3 1 .7v.1c0 .1-.1.1-.1.1-.4.4-.9.7-1.4 1.1.6.6 1.1 1.4 1.3 2.2h.2.7a.47.47 0 0 1 .5.5c.2 1.5.3 2.2-.6 2.9zm-83.4-64.8c-6.2 0-11.2 5-11.2 11.2s5 11.2 11.2 11.2 11.2-5 11.2-11.2-5-11.2-11.2-11.2zm5.5 15.8h-1.6l-1.9-2.1-1.9 2.1H776l2.7-2.9-2.7-2.9h1.6l1.9 2.1 1.9-2.1h1.6l-2.7 2.9 2.7 2.9zm-.2-8.8h-7L773 375c-.1.2-.3.4-.4.4a.55.55 0 0 1-.5-.3l-1.1-2.9h-1.3a.5.5 0 1 1 0-1h1.6a.55.55 0 0 1 .5.3l.7 1.9 2.5-8.7c.1-.2.3-.4.5-.4h7.4a.47.47 0 0 1 .5.5c0 .3-.3.5-.6.5zm-5.3 44.1c-6.2 0-11.2 5-11.2 11.2s5 11.2 11.2 11.2 11.2-5 11.2-11.2-5-11.2-11.2-11.2zm5.5 15.9h-1.6l-1.9-2.1-1.9 2.1H776l2.7-2.9-2.7-2.9h1.6l1.9 2.1 1.9-2.1h1.6l-2.7 2.9 2.7 2.9zm-.2-8.9h-7l-2.8 9.7c-.1.2-.3.4-.4.4a.55.55 0 0 1-.5-.3l-1.1-2.9h-1.3a.5.5 0 1 1 0-1h1.6a.55.55 0 0 1 .5.3l.7 1.9 2.5-8.7c.1-.2.3-.4.5-.4h7.4a.47.47 0 0 1 .5.5c0 .3-.3.5-.6.5z"/><circle cx="781.6" cy="394.7" r=".8"/><use xlink:href="#K" x="662.7"/><use xlink:href="#L" x="662.7"/><circle cx="807.1" cy="369.2" r=".8"/><path d="M803 358.2a11.29 11.29 0 0 0-11.3 11.3c0 6.2 5.1 11.3 11.3 11.3a11.29 11.29 0 1 0 0-22.6zm2.7 1.9c1 0 1.7.8 1.7 1.7s-.8 1.7-1.7 1.7-1.7-.8-1.7-1.7.8-1.7 1.7-1.7zm-3.8 2.5c1.1 0 2 .9 2 2a1.93 1.93 0 0 1-.3 1c-.4-.1-.7-.1-1.1-.1a8.33 8.33 0 0 0-2.2.3c-.3-.3-.4-.7-.4-1.2 0-1.1.9-2 2-2zm8.1 9.4c-.6.6-1.2 1.1-1.8 1.7-.4.4-1 .7-1.3 1.2s-.4 1.6-.5 2.2c-.1.3-.4.5-.7.5h-.8c-.3 0-.7-.2-.8-.5l-.6-1.1c-.3 0-.6.1-.9.1-.6 0-1.1-.1-1.6-.1l-.3 1.1c-.1.3-.4.5-.7.5h-.8c-.3 0-.7-.2-.8-.5l-.8-1.4c0-.1-.1-.1-.1-.2-.7-1.3-1.8-2.9-1.9-4.5v-.6c-.3.1-.6 0-.9-.1-.7-.3-.9-1.1-.6-1.8v-.1c0 .4.2.7.6.9.3.2.7.1 1 0 .3-1.1.8-2.2 1.7-3 .6-.6 1.4-1 2.1-1.3.1.3.2.6.4.9l.2.2.3-.1c.7-.2 1.4-.3 2.1-.3.3 0 .7 0 1 .1h.3l.1-.3c.1-.3.3-.6.3-1 .5.1 1 .3 1.4.4 1.1-.6 1.9-.8 2.8-.5.4.1.8.3 1 .7v.1c0 .1-.1.1-.1.1-.4.4-.9.7-1.4 1.1.6.6 1.1 1.4 1.3 2.2h.2.7a.47.47 0 0 1 .5.5c.2 1.5.2 2.1-.6 2.9z"/><circle cx="807.1" cy="420.3" r=".8"/><path d="M803 409.3a11.29 11.29 0 0 0-11.3 11.3c0 6.2 5.1 11.3 11.3 11.3s11.3-5.1 11.3-11.3-5.1-11.3-11.3-11.3zm2.7 1.9c1 0 1.7.8 1.7 1.7 0 1-.8 1.7-1.7 1.7s-1.7-.8-1.7-1.7.8-1.7 1.7-1.7zm-3.8 2.5c1.1 0 2 .9 2 2a1.93 1.93 0 0 1-.3 1c-.4 0-.7-.1-1.1-.1a8.33 8.33 0 0 0-2.2.3c-.3-.3-.4-.7-.4-1.2 0-1.1.9-2 2-2zm8.1 9.4c-.6.6-1.2 1.1-1.8 1.7-.4.4-1 .7-1.3 1.2s-.4 1.6-.5 2.2c-.1.3-.4.5-.7.5h-.8c-.3 0-.7-.2-.8-.5l-.6-1.1c-.3 0-.6.1-.9.1-.6 0-1.1-.1-1.6-.1l-.3 1.1c-.1.3-.4.5-.7.5h-.8c-.3 0-.7-.2-.8-.5l-.8-1.4c0-.1-.1-.1-.1-.2-.7-1.3-1.8-2.9-1.9-4.5v-.6c-.3.1-.6 0-.9-.1-.7-.3-.9-1.1-.6-1.8v-.1c0 .4.2.7.6.9.3.2.7.1 1 0 .3-1.1.8-2.2 1.7-3 .6-.6 1.4-1 2.1-1.3.1.3.2.6.4.9l.2.2.3-.1c.7-.2 1.4-.3 2.1-.3.3 0 .7 0 1 .1h.3l.1-.3c.1-.3.3-.6.3-1 .5.1 1 .3 1.4.4 1.1-.6 1.9-.8 2.8-.5.4.1.8.3 1 .7v.1c0 .1-.1.1-.1.1-.4.4-.9.7-1.4 1.1.6.6 1.1 1.4 1.3 2.2h.2.7a.47.47 0 0 1 .5.5c.2 1.5.2 2.2-.6 2.9zm-83.5-64.8c-6.2 0-11.2 5-11.2 11.2s5 11.2 11.2 11.2 11.2-5 11.2-11.2c.1-6.2-5-11.2-11.2-11.2zm5.5 15.8h-1.6l-1.9-2.1-1.9 2.1H725l2.7-2.9-2.7-2.9h1.6l1.9 2.1 1.9-2.1h1.6l-2.7 2.9 2.7 2.9zm-.2-8.8h-7L722 375c-.1.2-.3.4-.4.4a.55.55 0 0 1-.5-.3l-1.1-2.9h-1.3a.5.5 0 1 1 0-1h1.6a.55.55 0 0 1 .5.3l.7 1.9 2.5-8.7c.1-.2.3-.4.5-.4h7.4a.47.47 0 0 1 .5.5c-.1.2-.3.5-.6.5zm-5.3 44.1c-6.2 0-11.2 5-11.2 11.2s5 11.2 11.2 11.2 11.2-5 11.2-11.2c.1-6.2-5-11.2-11.2-11.2zm5.5 15.9h-1.6l-1.9-2.1-1.9 2.1H725l2.7-2.9-2.7-2.9h1.6l1.9 2.1 1.9-2.1h1.6l-2.7 2.9 2.7 2.9zm-.2-8.9h-7l-2.8 9.7c-.1.2-.3.4-.4.4a.55.55 0 0 1-.5-.3l-1.1-2.9h-1.3a.5.5 0 1 1 0-1h1.6a.55.55 0 0 1 .5.3l.7 1.9 2.5-8.7c.1-.2.3-.4.5-.4h7.4a.47.47 0 0 1 .5.5c-.1.3-.3.5-.6.5z"/><circle cx="730.6" cy="394.7" r=".8"/><path d="M726.5 383.7a11.29 11.29 0 0 0-11.3 11.3c0 6.2 5.1 11.3 11.3 11.3s11.3-5.1 11.3-11.3a11.29 11.29 0 0 0-11.3-11.3zm2.7 2c1 0 1.7.8 1.7 1.7s-.8 1.7-1.7 1.7-1.7-.8-1.7-1.7.8-1.7 1.7-1.7zm-3.8 2.5c1.1 0 2 .9 2 2a1.93 1.93 0 0 1-.3 1c-.4 0-.7-.1-1.1-.1a8.33 8.33 0 0 0-2.2.3c-.3-.3-.4-.7-.4-1.2.1-1.1.9-2 2-2zm8.1 9.3c-.6.6-1.2 1.1-1.8 1.7-.4.4-1 .7-1.3 1.2s-.4 1.6-.5 2.2c-.1.3-.4.5-.7.5h-.8c-.3 0-.7-.2-.8-.5l-.6-1.1c-.3 0-.6.1-.9.1-.6 0-1.1-.1-1.6-.1l-.3 1.1c-.1.3-.4.5-.7.5h-.8c-.3 0-.7-.2-.8-.5l-.8-1.4c0-.1-.1-.1-.1-.2-.7-1.3-1.8-2.9-1.9-4.5v-.6c-.3.1-.6 0-.9-.1-.7-.3-.9-1.1-.6-1.8v-.1c0 .4.2.7.6.9.3.2.7.1 1 0 .3-1.1.8-2.2 1.7-3 .6-.6 1.4-1 2.1-1.3.1.3.2.6.4.9l.2.2.3-.1c.7-.2 1.4-.3 2.1-.3.3 0 .7 0 1 .1h.3l.1-.3c.1-.3.3-.6.3-1 .5.1 1 .3 1.4.4 1.1-.6 1.9-.8 2.8-.5.4.1.8.3 1 .7v.1c0 .1-.1.1-.1.1-.4.4-.9.7-1.4 1.1.6.6 1.1 1.4 1.3 2.2h.2.7a.47.47 0 0 1 .5.5c.2 1.6.2 2.2-.6 2.9z"/><use xlink:href="#C" x="178.4" y="-25.6"/><circle cx="756.1" cy="369.2" r=".8"/><path d="M752 358.2a11.29 11.29 0 0 0-11.3 11.3c0 6.2 5 11.4 11.3 11.4a11.29 11.29 0 0 0 11.3-11.3c0-6.2-5.1-11.4-11.3-11.4zm2.7 1.9c1 0 1.7.8 1.7 1.7s-.8 1.7-1.7 1.7-1.7-.8-1.7-1.7.8-1.7 1.7-1.7zm-3.8 2.5c1.1 0 2 .9 2 2a1.93 1.93 0 0 1-.3 1c-.4 0-.7-.1-1.1-.1a8.33 8.33 0 0 0-2.2.3c-.3-.3-.4-.7-.4-1.2 0-1.1.9-2 2-2zm8.1 9.4c-.6.6-1.2 1.1-1.8 1.7-.4.4-1 .7-1.3 1.2s-.4 1.6-.5 2.2c-.1.3-.4.5-.7.5h-.7c-.3 0-.7-.2-.8-.5l-.6-1.1c-.3 0-.6.1-.9.1-.6 0-1.1-.1-1.6-.1l-.3 1.1c-.1.3-.4.5-.7.5h-.8c-.3 0-.7-.2-.8-.5l-.8-1.4c0-.1-.1-.1-.1-.2-.7-1.3-1.8-2.9-1.9-4.5v-.6c-.3.1-.6 0-.9-.1-.7-.3-.9-1.1-.6-1.8v-.1c0 .4.2.7.6.9.3.2.7.1 1 0 .3-1.1.8-2.2 1.7-3 .6-.6 1.4-1 2.1-1.3.1.3.2.6.4.9l.2.2.3-.1c.7-.2 1.4-.3 2.1-.3.3 0 .7 0 1 .1h.3l.1-.3c.1-.3.3-.6.3-1 .5.1 1 .3 1.4.4 1.1-.6 1.9-.8 2.8-.5.4.1.8.3 1 .7v.1c0 .1-.1.1-.1.1-.4.4-.9.7-1.4 1.1.6.6 1.1 1.4 1.3 2.2h.2.7a.47.47 0 0 1 .5.5c.1 1.5.1 2.1-.7 2.9z"/><circle cx="756.1" cy="420.3" r=".8"/><path d="M752 409.3a11.29 11.29 0 0 0-11.3 11.3c0 6.2 5.1 11.3 11.3 11.3a11.29 11.29 0 0 0 11.3-11.3c0-6.2-5.1-11.3-11.3-11.3zm2.7 1.9c1 0 1.7.8 1.7 1.7 0 1-.8 1.7-1.7 1.7s-1.7-.8-1.7-1.7.8-1.7 1.7-1.7zm-3.8 2.5c1.1 0 2 .9 2 2a1.93 1.93 0 0 1-.3 1c-.4 0-.7-.1-1.1-.1a8.33 8.33 0 0 0-2.2.3c-.3-.3-.4-.7-.4-1.2 0-1.1.9-2 2-2zm8.1 9.4c-.6.6-1.2 1.1-1.8 1.7-.4.4-1 .7-1.3 1.2s-.4 1.6-.5 2.2c-.1.3-.4.5-.7.5h-.7c-.3 0-.7-.2-.8-.5l-.6-1.1c-.3 0-.6.1-.9.1-.6 0-1.1-.1-1.6-.1l-.3 1.1c-.1.3-.4.5-.7.5h-.8c-.3 0-.7-.2-.8-.5l-.8-1.4c0-.1-.1-.1-.1-.2-.7-1.3-1.8-2.9-1.9-4.5v-.6c-.3.1-.6 0-.9-.1-.7-.3-.9-1.1-.6-1.8v-.1c0 .4.2.7.6.9.3.2.7.1 1 0 .3-1.1.8-2.2 1.7-3 .6-.6 1.4-1 2.1-1.3.1.3.2.6.4.9l.2.2.3-.1c.7-.2 1.4-.3 2.1-.3.3 0 .7 0 1 .1h.3l.1-.3c.1-.3.3-.6.3-1 .5.1 1 .3 1.4.4 1.1-.6 1.9-.8 2.8-.5.4.1.8.3 1 .7v.1c0 .1-.1.1-.1.1-.4.4-.9.7-1.4 1.1.6.6 1.1 1.4 1.3 2.2h.2.7a.47.47 0 0 1 .5.5c.1 1.5.1 2.2-.7 2.9zm-83.5-64.8c-6.2 0-11.2 5-11.2 11.2s5 11.2 11.2 11.2 11.2-5 11.2-11.2-5-11.2-11.2-11.2zm5.5 15.8h-1.6l-1.9-2.1-1.9 2.1H674l2.7-2.9-2.7-2.9h1.6l1.9 2.1 1.9-2.1h1.6l-2.7 2.9 2.7 2.9zm-.2-8.8h-7L671 375c-.1.2-.3.4-.4.4a.55.55 0 0 1-.5-.3l-1.1-2.9h-1.3a.5.5 0 1 1 0-1h1.6a.55.55 0 0 1 .5.3l.7 1.9 2.5-8.7c.1-.2.3-.4.5-.4h7.4a.47.47 0 0 1 .5.5c0 .3-.3.5-.6.5zm-5.3 44.1c-6.2 0-11.2 5-11.2 11.2s5 11.2 11.2 11.2 11.2-5 11.2-11.2-5-11.2-11.2-11.2zm5.5 15.9h-1.6l-1.9-2.1-1.9 2.1H674l2.7-2.9-2.7-2.9h1.6l1.9 2.1 1.9-2.1h1.6l-2.7 2.9 2.7 2.9zm-.2-8.9h-7l-2.8 9.7c-.1.2-.3.4-.4.4a.55.55 0 0 1-.5-.3l-1.1-2.9h-1.3a.5.5 0 1 1 0-1h1.6a.55.55 0 0 1 .5.3l.7 1.9 2.5-8.7c.1-.2.3-.4.5-.4h7.4a.47.47 0 0 1 .5.5c0 .3-.3.5-.6.5z"/><circle cx="679.7" cy="394.7" r=".8"/><path d="M675.5 383.7a11.29 11.29 0 0 0-11.3 11.3c0 6.2 5.1 11.3 11.3 11.3a11.29 11.29 0 0 0 11.3-11.3c.1-6.2-5-11.3-11.3-11.3zm2.7 2c1 0 1.7.8 1.7 1.7s-.8 1.7-1.7 1.7c-1 0-1.7-.8-1.7-1.7s.8-1.7 1.7-1.7zm-3.8 2.5c1.1 0 2 .9 2 2a1.93 1.93 0 0 1-.3 1c-.4 0-.7-.1-1.1-.1a8.33 8.33 0 0 0-2.2.3c-.3-.3-.4-.7-.4-1.2.1-1.1.9-2 2-2zm8.1 9.3c-.6.6-1.2 1.1-1.8 1.7-.4.4-1 .7-1.3 1.2s-.4 1.6-.5 2.2c-.1.3-.4.5-.7.5h-.8c-.3 0-.7-.2-.8-.5l-.6-1.1c-.3 0-.6.1-.9.1-.6 0-1.1-.1-1.6-.1l-.3 1.1c-.1.3-.4.5-.7.5h-.8c-.3 0-.7-.2-.8-.5l-.8-1.4c0-.1-.1-.1-.1-.2-.7-1.3-1.8-2.9-1.9-4.5v-.6c-.3.1-.6 0-.9-.1-.7-.3-.9-1.1-.6-1.8v-.1c0 .4.2.7.6.9.3.2.7.1 1 0 .3-1.1.8-2.2 1.7-3 .6-.6 1.4-1 2.1-1.3.1.3.2.6.4.9l.2.2.3-.1c.7-.2 1.4-.3 2.1-.3.3 0 .7 0 1 .1h.3l.1-.3c.1-.3.3-.6.3-1 .5.1 1 .3 1.4.4 1.1-.6 1.9-.8 2.8-.5.4.1.8.3 1 .7v.1c0 .1-.1.1-.1.1-.4.4-.9.7-1.4 1.1.6.6 1.1 1.4 1.3 2.2h.2.7a.47.47 0 0 1 .5.5c.3 1.6.3 2.2-.6 2.9zm18.5-13.7c-6.2 0-11.2 5-11.2 11.2s5 11.2 11.2 11.2 11.2-5 11.2-11.2c0-6.1-5-11.2-11.2-11.2zm5.5 15.9h-1.6l-1.9-2.1-1.9 2.1h-1.6l2.7-2.9-2.7-2.9h1.6l1.9 2.1 1.9-2.1h1.6l-2.7 2.9 2.7 2.9zm-.1-8.9h-7l-2.8 9.7c-.1.2-.3.4-.4.4a.55.55 0 0 1-.5-.3l-1.1-2.9h-1.3a.5.5 0 1 1 0-1h1.6a.55.55 0 0 1 .5.3l.7 1.9 2.5-8.7c.1-.2.3-.4.5-.4h7.4a.47.47 0 0 1 .5.5c-.1.3-.4.5-.6.5z"/><circle cx="705.2" cy="369.2" r=".8"/><path d="M701 358.2a11.29 11.29 0 0 0-11.3 11.3c0 6.2 5.1 11.3 11.3 11.3s11.3-5.1 11.3-11.3a11.29 11.29 0 0 0-11.3-11.3zm2.7 1.9c1 0 1.7.8 1.7 1.7s-.8 1.7-1.7 1.7-1.7-.8-1.7-1.7.8-1.7 1.7-1.7zm-3.8 2.5c1.1 0 2 .9 2 2a1.93 1.93 0 0 1-.3 1c-.4 0-.7-.1-1.1-.1a8.33 8.33 0 0 0-2.2.3c-.3-.3-.4-.7-.4-1.2 0-1.1.9-2 2-2zm8.1 9.4c-.6.6-1.2 1.1-1.8 1.7-.4.4-1 .7-1.3 1.2s-.4 1.6-.5 2.2c-.1.3-.4.5-.7.5h-.7c-.3 0-.7-.2-.8-.5l-.6-1.1c-.3 0-.6.1-.9.1-.6 0-1.1-.1-1.6-.1l-.3 1.1c-.1.3-.4.5-.7.5h-.8c-.3 0-.7-.2-.8-.5l-.8-1.4c0-.1-.1-.1-.1-.2-.7-1.3-1.8-2.9-1.9-4.5v-.6c-.3.1-.6 0-.9-.1-.7-.3-.9-1.1-.6-1.8v-.1c0 .4.2.7.6.9.3.2.7.1 1 0 .3-1.1.8-2.2 1.7-3 .6-.6 1.4-1 2.1-1.3.1.3.2.6.4.9l.2.2.3-.1c.7-.2 1.4-.3 2.1-.3.3 0 .7 0 1 .1h.3l.1-.3c.1-.3.3-.6.3-1 .5.1 1 .3 1.4.4 1.1-.6 1.9-.8 2.8-.5.4.1.8.3 1 .7v.1c0 .1-.1.1-.1.1-.4.4-.9.7-1.4 1.1.6.6 1.1 1.4 1.3 2.2h.2.7a.47.47 0 0 1 .5.5c.1 1.5.1 2.1-.7 2.9z"/><circle cx="705.2" cy="420.3" r=".8"/><path d="M701 409.3a11.29 11.29 0 0 0-11.3 11.3c0 6.2 5.1 11.3 11.3 11.3s11.3-5.1 11.3-11.3a11.29 11.29 0 0 0-11.3-11.3zm2.7 1.9c1 0 1.7.8 1.7 1.7 0 1-.8 1.7-1.7 1.7s-1.7-.8-1.7-1.7.8-1.7 1.7-1.7zm-3.8 2.5c1.1 0 2 .9 2 2a1.93 1.93 0 0 1-.3 1c-.4 0-.7-.1-1.1-.1a8.33 8.33 0 0 0-2.2.3c-.3-.3-.4-.7-.4-1.2 0-1.1.9-2 2-2zm8.1 9.4c-.6.6-1.2 1.1-1.8 1.7-.4.4-1 .7-1.3 1.2s-.4 1.6-.5 2.2c-.1.3-.4.5-.7.5h-.7c-.3 0-.7-.2-.8-.5l-.6-1.1c-.3 0-.6.1-.9.1-.6 0-1.1-.1-1.6-.1l-.3 1.1c-.1.3-.4.5-.7.5h-.8c-.3 0-.7-.2-.8-.5l-.8-1.4c0-.1-.1-.1-.1-.2-.7-1.3-1.8-2.9-1.9-4.5v-.6c-.3.1-.6 0-.9-.1-.7-.3-.9-1.1-.6-1.8v-.1c0 .4.2.7.6.9s.7.1 1 0c.3-1.1.8-2.2 1.7-3 .6-.6 1.4-1 2.1-1.3.1.3.2.6.4.9l.2.2.3-.1c.7-.2 1.4-.3 2.1-.3.3 0 .7 0 1 .1h.3l.1-.3c.1-.3.3-.6.3-1 .5.1 1 .3 1.4.4 1.1-.6 1.9-.8 2.8-.5.4.1.8.3 1 .7v.1c0 .1-.1.1-.1.1-.4.4-.9.7-1.4 1.1.6.6 1.1 1.4 1.3 2.2h.2.7a.47.47 0 0 1 .5.5c.1 1.5.1 2.2-.7 2.9zm-83.4-64.8c-6.2 0-11.2 5-11.2 11.2s5 11.2 11.2 11.2 11.2-5 11.2-11.2-5-11.2-11.2-11.2zm5.5 15.8h-1.6l-1.9-2.1-1.9 2.1h-1.6l2.7-2.9-2.7-2.9h1.6l1.9 2.1 1.9-2.1h1.6l-2.7 2.9 2.7 2.9zm-.2-8.8h-7L620 375c-.1.2-.3.4-.4.4a.55.55 0 0 1-.5-.3l-1.1-2.9h-1.3a.5.5 0 1 1 0-1h1.6a.55.55 0 0 1 .5.3l.7 1.9 2.5-8.7c.1-.2.3-.4.5-.4h7.4a.47.47 0 0 1 .5.5c0 .2-.2.5-.5.5z"/><use xlink:href="#C" x="51"/><circle cx="628.7" cy="394.7" r=".8"/><path d="M624.6 383.7a11.29 11.29 0 0 0-11.3 11.3c0 6.2 5.1 11.3 11.3 11.3s11.3-5.1 11.3-11.3-5.1-11.3-11.3-11.3zm2.7 2c1 0 1.7.8 1.7 1.7s-.8 1.7-1.7 1.7c-1 0-1.7-.8-1.7-1.7s.7-1.7 1.7-1.7zm-3.8 2.5c1.1 0 2 .9 2 2a1.93 1.93 0 0 1-.3 1c-.4 0-.7-.1-1.1-.1a8.33 8.33 0 0 0-2.2.3c-.3-.3-.4-.7-.4-1.2 0-1.1.9-2 2-2zm8 9.3c-.6.6-1.2 1.1-1.8 1.7-.4.4-1 .7-1.3 1.2s-.4 1.6-.5 2.2c-.1.3-.4.5-.7.5h-.8c-.3 0-.7-.2-.8-.5l-.6-1.1c-.3 0-.6.1-.9.1-.6 0-1.1-.1-1.6-.1l-.3 1.1c-.1.3-.4.5-.7.5h-.8c-.3 0-.7-.2-.8-.5l-.8-1.4c0-.1-.1-.1-.1-.2-.7-1.3-1.8-2.9-1.9-4.5v-.6c-.3.1-.6 0-.9-.1-.7-.3-.9-1.1-.6-1.8v-.1c0 .4.2.7.6.9.3.2.7.1 1 0 .3-1.1.8-2.2 1.7-3 .6-.6 1.4-1 2.1-1.3.1.3.2.6.4.9l.2.2.3-.1c.7-.2 1.4-.3 2.1-.3.3 0 .7 0 1 .1h.3l.1-.3c.1-.3.3-.6.3-1 .5.1 1 .3 1.4.4 1.1-.6 1.9-.8 2.8-.5.4.1.8.3 1 .7v.1c0 .1-.1.1-.1.1-.4.4-.9.7-1.4 1.1.6.6 1.1 1.4 1.3 2.2h.2.7a.47.47 0 0 1 .5.5c.2 1.6.3 2.2-.6 2.9zm18.5-13.7c-6.2 0-11.2 5-11.2 11.2s5 11.2 11.2 11.2 11.2-5 11.2-11.2-4.9-11.2-11.2-11.2zm5.5 15.9h-1.6l-1.9-2.1-1.9 2.1h-1.6l2.7-2.9-2.7-2.9h1.6l1.9 2.1 1.9-2.1h1.6l-2.7 2.9 2.7 2.9zm-.1-8.9h-7l-2.8 9.7c-.1.2-.3.4-.4.4a.55.55 0 0 1-.5-.3l-1.1-2.9h-1.3a.5.5 0 1 1 0-1h1.6a.55.55 0 0 1 .5.3l.7 1.9 2.5-8.7c.1-.2.3-.4.5-.4h7.4a.47.47 0 0 1 .5.5c-.1.3-.4.5-.6.5z"/><circle cx="654.2" cy="369.2" r=".8"/><path d="M650 358.2a11.29 11.29 0 0 0-11.3 11.3c0 6.2 5.1 11.3 11.3 11.3s11.3-5.1 11.3-11.3a11.29 11.29 0 0 0-11.3-11.3zm2.8 1.9c1 0 1.7.8 1.7 1.7s-.8 1.7-1.7 1.7c-1 0-1.7-.8-1.7-1.7s.7-1.7 1.7-1.7zm-3.9 2.5c1.1 0 2 .9 2 2a1.93 1.93 0 0 1-.3 1c-.4 0-.7-.1-1.1-.1a8.33 8.33 0 0 0-2.2.3c-.3-.3-.4-.7-.4-1.2.1-1.1 1-2 2-2zm8.1 9.4c-.6.6-1.2 1.1-1.8 1.7-.4.4-1 .7-1.3 1.2s-.4 1.6-.5 2.2c-.1.3-.4.5-.7.5h-.7c-.3 0-.7-.2-.8-.5l-.6-1.1c-.3 0-.6.1-.9.1-.6 0-1.1-.1-1.6-.1l-.3 1.1c-.1.3-.4.5-.7.5h-.8c-.3 0-.7-.2-.8-.5l-.8-1.4c0-.1-.1-.1-.1-.2-.7-1.3-1.8-2.9-1.9-4.5v-.6c-.3.1-.6 0-.9-.1-.7-.3-.9-1.1-.6-1.8v-.1c0 .4.2.7.6.9.3.2.7.1 1 0 .3-1.1.8-2.2 1.7-3 .6-.6 1.4-1 2.1-1.3.1.3.2.6.4.9l.2.2.3-.1c.7-.2 1.4-.3 2.1-.3.3 0 .7 0 1 .1h.3l.1-.3c.1-.3.3-.6.3-1 .5.1 1 .3 1.4.4 1.1-.6 1.9-.8 2.8-.5.4.1.8.3 1 .7v.1c0 .1-.1.1-.1.1-.4.4-.9.7-1.4 1.1.6.6 1.1 1.4 1.3 2.2h.2.7a.47.47 0 0 1 .5.5c.1 1.5.1 2.1-.7 2.9z"/><circle cx="654.2" cy="420.3" r=".8"/><path d="M650 409.3a11.29 11.29 0 0 0-11.3 11.3c0 6.2 5.1 11.3 11.3 11.3s11.3-5.1 11.3-11.3a11.29 11.29 0 0 0-11.3-11.3zm2.8 1.9c1 0 1.7.8 1.7 1.7 0 1-.8 1.7-1.7 1.7-1 0-1.7-.8-1.7-1.7s.7-1.7 1.7-1.7zm-3.9 2.5c1.1 0 2 .9 2 2a1.93 1.93 0 0 1-.3 1c-.4 0-.7-.1-1.1-.1a8.33 8.33 0 0 0-2.2.3c-.3-.3-.4-.7-.4-1.2.1-1.1 1-2 2-2zm8.1 9.4c-.6.6-1.2 1.1-1.8 1.7-.4.4-1 .7-1.3 1.2s-.4 1.6-.5 2.2c-.1.3-.4.5-.7.5h-.7c-.3 0-.7-.2-.8-.5l-.6-1.1c-.3 0-.6.1-.9.1-.6 0-1.1-.1-1.6-.1l-.3 1.1c-.1.3-.4.5-.7.5h-.8c-.3 0-.7-.2-.8-.5l-.8-1.4c0-.1-.1-.1-.1-.2-.7-1.3-1.8-2.9-1.9-4.5v-.6c-.3.1-.6 0-.9-.1-.7-.3-.9-1.1-.6-1.8v-.1c0 .4.2.7.6.9.3.2.7.1 1 0 .3-1.1.8-2.2 1.7-3 .6-.6 1.4-1 2.1-1.3.1.3.2.6.4.9l.2.2.3-.1c.7-.2 1.4-.3 2.1-.3.3 0 .7 0 1 .1h.3l.1-.3c.1-.3.3-.6.3-1 .5.1 1 .3 1.4.4 1.1-.6 1.9-.8 2.8-.5.4.1.8.3 1 .7v.1c0 .1-.1.1-.1.1-.4.4-.9.7-1.4 1.1.6.6 1.1 1.4 1.3 2.2h.2.7a.47.47 0 0 1 .5.5c.1 1.5.1 2.2-.7 2.9z"/></g><defs ><path id="B" d="M573.6 358.3c-6.2 0-11.2 5-11.2 11.2s5 11.2 11.2 11.2 11.2-5 11.2-11.2-5-11.2-11.2-11.2zm5.5 15.8h-1.6l-1.9-2.1-1.9 2.1h-1.6l2.7-2.9-2.7-2.9h1.6l1.9 2.1 1.9-2.1h1.6l-2.7 2.9 2.7 2.9zm-.2-8.8h-7l-2.8 9.7c-.1.2-.3.4-.4.4a.55.55 0 0 1-.5-.3l-1.1-2.9h-1.3a.47.47 0 1 1 0-1h1.6a.55.55 0 0 1 .5.3l.7 1.9 2.5-8.7c.1-.2.3-.4.5-.4h7.4a.47.47 0 0 1 .5.5c0 .3-.3.5-.6.5z"/><path id="C" d="M573.6 409.4c-6.2 0-11.2 5-11.2 11.2s5 11.2 11.2 11.2 11.2-5 11.2-11.2-5-11.2-11.2-11.2zm5.5 15.9h-1.6l-1.9-2.1-1.9 2.1h-1.6l2.7-2.9-2.7-2.9h1.6l1.9 2.1 1.9-2.1h1.6l-2.7 2.9 2.7 2.9zm-.2-8.9h-7l-2.8 9.7c-.1.2-.3.4-.4.4a.55.55 0 0 1-.5-.3l-1.1-2.9h-1.3a.47.47 0 1 1 0-1h1.6a.55.55 0 0 1 .5.3l.7 1.9 2.5-8.7c.1-.2.3-.4.5-.4h7.4a.47.47 0 0 1 .5.5c-.1.3-.3.5-.6.5z"/><path id="D" d="M548.1 358.2a11.29 11.29 0 0 0-11.3 11.3c0 6.2 5.1 11.3 11.3 11.3s11.3-5.1 11.3-11.3a11.29 11.29 0 0 0-11.3-11.3zm2.7 1.9c1 0 1.7.8 1.7 1.7s-.8 1.7-1.7 1.7-1.7-.8-1.7-1.7.8-1.7 1.7-1.7zm-3.8 2.5c1.1 0 2 .9 2 2a1.93 1.93 0 0 1-.3 1c-.4 0-.7-.1-1.1-.1a8.33 8.33 0 0 0-2.2.3c-.3-.3-.4-.7-.4-1.2 0-1.1.9-2 2-2zm8.1 9.4c-.6.6-1.2 1.1-1.8 1.7-.4.4-1 .7-1.3 1.2s-.4 1.6-.5 2.2c-.1.3-.4.5-.7.5h-.8c-.3 0-.7-.2-.8-.5l-.6-1.1c-.3 0-.6.1-.9.1-.6 0-1.1-.1-1.6-.1l-.3 1.1c-.1.3-.4.5-.7.5h-.8c-.3 0-.7-.2-.8-.5l-.8-1.4c0-.1-.1-.1-.1-.2-.7-1.3-1.8-2.9-1.9-4.5v-.6c-.3.1-.6 0-.9-.1-.7-.3-.9-1.1-.6-1.8v-.1c0 .4.2.7.6.9.3.2.7.1 1 0 .3-1.1.8-2.2 1.7-3 .6-.6 1.4-1 2.1-1.3.1.3.2.6.4.9l.2.2.3-.1c.7-.2 1.4-.3 2.1-.3.3 0 .7 0 1 .1h.3l.1-.3c.1-.3.3-.6.3-1 .5.1 1 .3 1.4.4 1.1-.6 1.9-.8 2.8-.5.4.1.8.3 1 .7v.1c0 .1-.1.1-.1.1-.4.4-.9.7-1.4 1.1.6.6 1.1 1.4 1.3 2.2h.2.7a.47.47 0 0 1 .5.5c.2 1.5.2 2.1-.6 2.9z"/><path id="E" d="M548.1 409.3a11.29 11.29 0 0 0-11.3 11.3c0 6.2 5.1 11.3 11.3 11.3s11.3-5.1 11.3-11.3a11.29 11.29 0 0 0-11.3-11.3zm2.7 1.9c1 0 1.7.8 1.7 1.7 0 1-.8 1.7-1.7 1.7s-1.7-.8-1.7-1.7.8-1.7 1.7-1.7zm-3.8 2.5c1.1 0 2 .9 2 2a1.93 1.93 0 0 1-.3 1c-.4 0-.7-.1-1.1-.1a8.33 8.33 0 0 0-2.2.3c-.3-.3-.4-.7-.4-1.2 0-1.1.9-2 2-2zm8.1 9.4c-.6.6-1.2 1.1-1.8 1.7-.4.4-1 .7-1.3 1.2s-.4 1.6-.5 2.2c-.1.3-.4.5-.7.5h-.8c-.3 0-.7-.2-.8-.5l-.6-1.1c-.3 0-.6.1-.9.1-.6 0-1.1-.1-1.6-.1l-.3 1.1c-.1.3-.4.5-.7.5h-.8c-.3 0-.7-.2-.8-.5l-.8-1.4c0-.1-.1-.1-.1-.2-.7-1.3-1.8-2.9-1.9-4.5v-.6c-.3.1-.6 0-.9-.1-.7-.3-.9-1.1-.6-1.8v-.1c0 .4.2.7.6.9.3.2.7.1 1 0 .3-1.1.8-2.2 1.7-3 .6-.6 1.4-1 2.1-1.3.1.3.2.6.4.9l.2.2.3-.1c.7-.2 1.4-.3 2.1-.3.3 0 .7 0 1 .1h.3l.1-.3c.1-.3.3-.6.3-1 .5.1 1 .3 1.4.4 1.1-.6 1.9-.8 2.8-.5.4.1.8.3 1 .7v.1c0 .1-.1.1-.1.1-.4.4-.9.7-1.4 1.1.6.6 1.1 1.4 1.3 2.2h.2.7a.47.47 0 0 1 .5.5c.2 1.5.2 2.2-.6 2.9z"/><path id="F" d="M471.7 409.4c-6.2 0-11.2 5-11.2 11.2s5 11.2 11.2 11.2 11.2-5 11.2-11.2-5.1-11.2-11.2-11.2zm5.4 15.9h-1.6l-1.9-2.1-1.9 2.1h-1.6l2.7-2.9-2.7-2.9h1.6l1.9 2.1 1.9-2.1h1.6l-2.7 2.9 2.7 2.9zm-.1-8.9h-7l-2.8 9.7c-.1.2-.3.4-.4.4a.55.55 0 0 1-.5-.3l-1.1-2.9h-1.3a.47.47 0 1 1 0-1h1.6a.55.55 0 0 1 .5.3l.7 1.9 2.5-8.7c.1-.2.3-.4.5-.4h7.4a.47.47 0 0 1 .5.5c-.1.3-.3.5-.6.5z"/><path id="G" d="M395.2 358.2a11.29 11.29 0 0 0-11.3 11.3c0 6.2 5.1 11.3 11.3 11.3s11.3-5.1 11.3-11.3-5.1-11.3-11.3-11.3zm2.7 1.9c1 0 1.7.8 1.7 1.7s-.8 1.7-1.7 1.7-1.7-.8-1.7-1.7.7-1.7 1.7-1.7zm-3.8 2.5c1.1 0 2 .9 2 2a1.93 1.93 0 0 1-.3 1c-.4 0-.7-.1-1.1-.1a8.33 8.33 0 0 0-2.2.3c-.3-.3-.4-.7-.4-1.2 0-1.1.9-2 2-2zm8 9.4c-.6.6-1.2 1.1-1.8 1.7-.4.4-1 .7-1.3 1.2s-.4 1.6-.5 2.2c-.1.3-.4.5-.7.5h-.8c-.3 0-.7-.2-.8-.5l-.6-1.1c-.3 0-.6.1-.9.1-.6 0-1.1-.1-1.6-.1l-.3 1.1c-.1.3-.4.5-.7.5h-.8c-.3 0-.7-.2-.8-.5l-.8-1.4c0-.1-.1-.1-.1-.2-.7-1.3-1.8-2.9-1.9-4.5v-.6c-.3.1-.6 0-.9-.1-.7-.3-.9-1.1-.6-1.8v-.1c0 .4.2.7.6.9.3.2.7.1 1 0 .3-1.1.8-2.2 1.7-3 .6-.6 1.4-1 2.1-1.3.1.3.2.6.4.9l.2.2.3-.1c.7-.2 1.4-.3 2.1-.3.3 0 .7 0 1 .1h.3l.1-.3c.1-.3.3-.6.3-1 .5.1 1 .3 1.4.4 1.1-.6 1.9-.8 2.8-.5.4.1.8.3 1 .7v.1c0 .1-.1.1-.1.1-.4.4-.9.7-1.4 1.1.6.6 1.1 1.4 1.3 2.2h.2.7a.47.47 0 0 1 .5.5c.3 1.5.3 2.1-.6 2.9z"/><path id="H" d="M318.7 409.4c-6.2 0-11.2 5-11.2 11.2s5 11.2 11.2 11.2 11.2-5 11.2-11.2-5-11.2-11.2-11.2zm5.5 15.9h-1.6l-1.9-2.1-1.9 2.1h-1.6l2.7-2.9-2.7-2.9h1.6l1.9 2.1 1.9-2.1h1.6l-2.7 2.9 2.7 2.9zm-.2-8.9h-7l-2.8 9.7c-.1.2-.3.4-.4.4a.55.55 0 0 1-.5-.3l-1.1-2.9h-1.3a.47.47 0 1 1 0-1h1.6a.55.55 0 0 1 .5.3l.7 1.9 2.5-8.7c.1-.2.3-.4.5-.4h7.4a.47.47 0 0 1 .5.5c0 .3-.3.5-.6.5z"/><path id="I" d="M344.2 358.2a11.29 11.29 0 0 0-11.3 11.3c0 6.2 5.1 11.3 11.3 11.3a11.29 11.29 0 1 0 0-22.6zm2.7 1.9c1 0 1.7.8 1.7 1.7s-.8 1.7-1.7 1.7-1.7-.8-1.7-1.7.8-1.7 1.7-1.7zm-3.8 2.5c1.1 0 2 .9 2 2a1.93 1.93 0 0 1-.3 1c-.4 0-.7-.1-1.1-.1a8.33 8.33 0 0 0-2.2.3c-.3-.3-.4-.7-.4-1.2 0-1.1.9-2 2-2zm8.1 9.4c-.6.6-1.2 1.1-1.8 1.7-.4.4-1 .7-1.3 1.2s-.4 1.6-.5 2.2c-.1.3-.4.5-.7.5h-.8c-.3 0-.7-.2-.8-.5l-.6-1.1c-.3 0-.6.1-.9.1-.6 0-1.1-.1-1.6-.1l-.3 1.1c-.1.3-.4.5-.7.5h-.8c-.3 0-.7-.2-.8-.5l-.8-1.4c0-.1-.1-.1-.1-.2-.7-1.3-1.8-2.9-1.9-4.5v-.6c-.3.1-.6 0-.9-.1-.7-.3-.9-1.1-.6-1.8v-.1c0 .4.2.7.6.9.3.2.7.1 1 0 .3-1.1.8-2.2 1.7-3 .6-.6 1.4-1 2.1-1.3.1.3.2.6.4.9l.2.2.3-.1c.7-.2 1.4-.3 2.1-.3.3 0 .7 0 1 .1h.3l.1-.3c.1-.3.3-.6.3-1 .5.1 1 .3 1.4.4 1.1-.6 1.9-.8 2.8-.5.4.1.8.3 1 .7v.1c0 .1-.1.1-.1.1-.4.4-.9.7-1.4 1.1.6.6 1.1 1.4 1.3 2.2h.2.7a.47.47 0 0 1 .5.5c.2 1.5.2 2.1-.6 2.9z"/><path id="J" d="M344.2 409.3a11.29 11.29 0 0 0-11.3 11.3c0 6.2 5.1 11.3 11.3 11.3a11.29 11.29 0 1 0 0-22.6zm2.7 1.9c1 0 1.7.8 1.7 1.7 0 1-.8 1.7-1.7 1.7s-1.7-.8-1.7-1.7.8-1.7 1.7-1.7zm-3.8 2.5c1.1 0 2 .9 2 2a1.93 1.93 0 0 1-.3 1c-.4 0-.7-.1-1.1-.1a8.33 8.33 0 0 0-2.2.3c-.3-.3-.4-.7-.4-1.2 0-1.1.9-2 2-2zm8.1 9.4c-.6.6-1.2 1.1-1.8 1.7-.4.4-1 .7-1.3 1.2s-.4 1.6-.5 2.2c-.1.3-.4.5-.7.5h-.8c-.3 0-.7-.2-.8-.5l-.6-1.1c-.3 0-.6.1-.9.1-.6 0-1.1-.1-1.6-.1l-.3 1.1c-.1.3-.4.5-.7.5h-.8c-.3 0-.7-.2-.8-.5l-.8-1.4c0-.1-.1-.1-.1-.2-.7-1.3-1.8-2.9-1.9-4.5v-.6c-.3.1-.6 0-.9-.1-.7-.3-.9-1.1-.6-1.8v-.1c0 .4.2.7.6.9.3.2.7.1 1 0 .3-1.1.8-2.2 1.7-3 .6-.6 1.4-1 2.1-1.3.1.3.2.6.4.9l.2.2.3-.1c.7-.2 1.4-.3 2.1-.3.3 0 .7 0 1 .1h.3l.1-.3c.1-.3.3-.6.3-1 .5.1 1 .3 1.4.4 1.1-.6 1.9-.8 2.8-.5.4.1.8.3 1 .7v.1c0 .1-.1.1-.1.1-.4.4-.9.7-1.4 1.1.6.6 1.1 1.4 1.3 2.2h.2.7a.47.47 0 0 1 .5.5c.2 1.5.2 2.2-.6 2.9z"/><path id="K" d="M114.8 383.7a11.29 11.29 0 0 0-11.3 11.3c0 6.2 5.1 11.3 11.3 11.3a11.29 11.29 0 1 0 0-22.6zm2.7 2c1 0 1.7.8 1.7 1.7s-.8 1.7-1.7 1.7c-1 0-1.7-.8-1.7-1.7s.8-1.7 1.7-1.7zm-3.8 2.5c1.1 0 2 .9 2 2a1.93 1.93 0 0 1-.3 1c-.4 0-.7-.1-1.1-.1a8.33 8.33 0 0 0-2.2.3c-.3-.3-.4-.7-.4-1.2 0-1.1.9-2 2-2zm8.1 9.3c-.6.6-1.2 1.1-1.8 1.7-.4.4-1 .7-1.3 1.2s-.4 1.6-.5 2.2c-.1.3-.4.5-.7.5h-.8c-.3 0-.7-.2-.8-.5l-.6-1.1c-.3 0-.6.1-.9.1-.6 0-1.1-.1-1.6-.1l-.3 1.1c-.1.3-.4.5-.7.5h-.8c-.3 0-.7-.2-.8-.5l-.8-1.4c0-.1-.1-.1-.1-.2-.7-1.3-1.8-2.9-1.9-4.5v-.6c-.3.1-.6 0-.9-.1-.7-.3-.9-1.1-.6-1.8v-.1c0 .4.2.7.6.9.3.2.7.1 1 0 .3-1.1.8-2.2 1.7-3 .6-.6 1.4-1 2.1-1.3.1.3.2.6.4.9l.2.2.3-.1c.7-.2 1.4-.3 2.1-.3.3 0 .7 0 1 .1h.3l.1-.3c.1-.3.3-.6.3-1 .5.1 1 .3 1.4.4 1.1-.6 1.9-.8 2.8-.5.4.1.8.3 1 .7v.1c0 .1-.1.1-.1.1-.4.4-.9.7-1.4 1.1.6.6 1.1 1.4 1.3 2.2h.2.7a.47.47 0 0 1 .5.5c.2 1.6.2 2.2-.6 2.9z"/><path id="L" d="M140.3 383.8c-6.2 0-11.2 5-11.2 11.2s5 11.2 11.2 11.2 11.2-5 11.2-11.2c0-6.1-5-11.2-11.2-11.2zm5.5 15.9h-1.6l-1.9-2.1-1.9 2.1h-1.6l2.7-2.9-2.7-2.9h1.6l1.9 2.1 1.9-2.1h1.6l-2.7 2.9 2.7 2.9zm-.2-8.9h-7l-2.8 9.7c-.1.2-.3.4-.4.4a.55.55 0 0 1-.5-.3l-1.1-2.9h-1.3a.47.47 0 1 1 0-1h1.6a.55.55 0 0 1 .5.3l.7 1.9 2.5-8.7c.1-.2.3-.4.5-.4h7.4a.47.47 0 0 1 .5.5c-.1.3-.3.5-.6.5z"/></defs></svg>