<svg width="30" height="22" viewBox="0 0 30 22" fill="none" xmlns="http://www.w3.org/2000/svg">
<path d="M0.741089 21.9267V18.1934C0.741089 17.4378 0.930128 16.7434 1.30821 16.11C1.68628 15.4767 2.18859 14.9934 2.81512 14.66C4.15459 13.9711 5.51567 13.4545 6.89836 13.11C8.28104 12.7656 9.68533 12.5934 11.1112 12.5934C12.5371 12.5934 13.9414 12.7656 15.3241 13.11C16.7068 13.4545 18.0679 13.9711 19.4073 14.66C20.0339 14.9934 20.5362 15.4767 20.9142 16.11C21.2923 16.7434 21.4814 17.4378 21.4814 18.1934V21.9267H0.741089ZM24.0739 21.9267V17.9267C24.0739 16.9489 23.8092 16.01 23.2799 15.11C22.7506 14.21 21.9999 13.4378 21.0277 12.7934C22.1295 12.9267 23.1665 13.1545 24.1387 13.4767C25.1109 13.7989 26.0183 14.1934 26.8609 14.66C27.6386 15.1045 28.2328 15.5989 28.6432 16.1434C29.0537 16.6878 29.259 17.2822 29.259 17.9267V21.9267H24.0739ZM11.1112 11.26C9.68533 11.26 8.46468 10.7378 7.44927 9.69335C6.43386 8.64891 5.92616 7.39335 5.92616 5.92669C5.92616 4.46002 6.43386 3.20446 7.44927 2.16002C8.46468 1.11558 9.68533 0.593353 11.1112 0.593353C12.5371 0.593353 13.7578 1.11558 14.7732 2.16002C15.7886 3.20446 16.2963 4.46002 16.2963 5.92669C16.2963 7.39335 15.7886 8.64891 14.7732 9.69335C13.7578 10.7378 12.5371 11.26 11.1112 11.26ZM24.0739 5.92669C24.0739 7.39335 23.5662 8.64891 22.5508 9.69335C21.5354 10.7378 20.3147 11.26 18.8888 11.26C18.6512 11.26 18.3487 11.2322 17.9814 11.1767C17.6142 11.1211 17.3117 11.06 17.0741 10.9934C17.6574 10.2822 18.1057 9.49335 18.4189 8.62669C18.7322 7.76002 18.8888 6.86002 18.8888 5.92669C18.8888 4.99335 18.7322 4.09335 18.4189 3.22669C18.1057 2.36002 17.6574 1.57113 17.0741 0.86002C17.3765 0.748909 17.679 0.676687 17.9814 0.643353C18.2839 0.61002 18.5864 0.593353 18.8888 0.593353C20.3147 0.593353 21.5354 1.11558 22.5508 2.16002C23.5662 3.20446 24.0739 4.46002 24.0739 5.92669ZM3.33362 19.26H18.8888V18.1934C18.8888 17.9489 18.8294 17.7267 18.7106 17.5267C18.5918 17.3267 18.4351 17.1711 18.2407 17.06C17.0741 16.46 15.8966 16.01 14.7084 15.71C13.5201 15.41 12.3211 15.26 11.1112 15.26C9.90138 15.26 8.70233 15.41 7.51408 15.71C6.32584 16.01 5.1484 16.46 3.98176 17.06C3.78732 17.1711 3.63068 17.3267 3.51186 17.5267C3.39304 17.7267 3.33362 17.9489 3.33362 18.1934V19.26ZM11.1112 8.59335C11.8242 8.59335 12.4345 8.33224 12.9422 7.81002C13.4499 7.2878 13.7038 6.66002 13.7038 5.92669C13.7038 5.19335 13.4499 4.56558 12.9422 4.04335C12.4345 3.52113 11.8242 3.26002 11.1112 3.26002C10.3983 3.26002 9.78795 3.52113 9.28025 4.04335C8.77254 4.56558 8.51869 5.19335 8.51869 5.92669C8.51869 6.66002 8.77254 7.2878 9.28025 7.81002C9.78795 8.33224 10.3983 8.59335 11.1112 8.59335Z" fill="#333333"/>
</svg>
