<svg width="20" height="30" viewBox="0 0 20 30" fill="none" xmlns="http://www.w3.org/2000/svg">
<path d="M3.50649 29.9267C2.79221 29.9267 2.18073 29.6656 1.67208 29.1434C1.16342 28.6211 0.909088 27.9934 0.909088 27.26V3.26002C0.909088 2.52669 1.16342 1.89891 1.67208 1.37669C2.18073 0.854464 2.79221 0.593353 3.50649 0.593353H16.4935C17.2078 0.593353 17.8193 0.854464 18.3279 1.37669C18.8366 1.89891 19.0909 2.52669 19.0909 3.26002V27.26C19.0909 27.9934 18.8366 28.6211 18.3279 29.1434C17.8193 29.6656 17.2078 29.9267 16.4935 29.9267H3.50649ZM3.50649 25.9267V27.26H16.4935V25.9267H3.50649ZM3.50649 23.26H16.4935V7.26002H3.50649V23.26ZM3.50649 4.59335H16.4935V3.26002H3.50649V4.59335Z" fill="#333333"/>
</svg>
