<svg width="32" height="27" viewBox="0 0 32 27" fill="none" xmlns="http://www.w3.org/2000/svg">
<path d="M1.45455 26.3509C1.04242 26.3509 0.69697 26.2115 0.418182 25.9327C0.139394 25.6539 0 25.3085 0 24.8964C0 24.4842 0.139394 24.1388 0.418182 23.86C0.69697 23.5812 1.04242 23.4418 1.45455 23.4418H30.5455C30.9576 23.4418 31.303 23.5812 31.5818 23.86C31.8606 24.1388 32 24.4842 32 24.8964C32 25.3085 31.8606 25.6539 31.5818 25.9327C31.303 26.2115 30.9576 26.3509 30.5455 26.3509H1.45455ZM4.36364 21.9873C3.56364 21.9873 2.87879 21.7024 2.30909 21.1327C1.73939 20.563 1.45455 19.8782 1.45455 19.0782V3.07819C1.45455 2.27819 1.73939 1.59334 2.30909 1.02364C2.87879 0.453946 3.56364 0.169098 4.36364 0.169098H27.6364C28.4364 0.169098 29.1212 0.453946 29.6909 1.02364C30.2606 1.59334 30.5455 2.27819 30.5455 3.07819V19.0782C30.5455 19.8782 30.2606 20.563 29.6909 21.1327C29.1212 21.7024 28.4364 21.9873 27.6364 21.9873H4.36364ZM4.36364 19.0782H27.6364V3.07819H4.36364V19.0782Z" fill="#333333"/>
</svg>
