<svg width="14" height="13" viewBox="0 0 14 13" fill="none" xmlns="http://www.w3.org/2000/svg">
<path d="M6.53951 12.5L5.59128 11.6499C4.49046 10.658 3.58038 9.80245 2.86104 9.08311C2.14169 8.36376 1.56948 7.71798 1.14441 7.14578C0.719346 6.57357 0.422343 6.04768 0.253406 5.56812C0.0844687 5.08856 0 4.59809 0 4.09673C0 3.07221 0.343324 2.21662 1.02997 1.52997C1.71662 0.843324 2.57221 0.5 3.59673 0.5C4.16349 0.5 4.703 0.619891 5.21526 0.859673C5.72752 1.09946 6.16894 1.43733 6.53951 1.8733C6.91008 1.43733 7.3515 1.09946 7.86376 0.859673C8.37602 0.619891 8.91553 0.5 9.48229 0.5C10.5068 0.5 11.3624 0.843324 12.049 1.52997C12.7357 2.21662 13.079 3.07221 13.079 4.09673C13.079 4.59809 12.9946 5.08856 12.8256 5.56812C12.6567 6.04768 12.3597 6.57357 11.9346 7.14578C11.5095 7.71798 10.9373 8.36376 10.218 9.08311C9.49864 9.80245 8.58856 10.658 7.48774 11.6499L6.53951 12.5Z" fill="white"/>
</svg>
