<svg width="72" height="62" viewBox="0 0 72 62" fill="none" xmlns="http://www.w3.org/2000/svg">
<path d="M66.1715 27.7437C65.9547 26.6138 64.9665 25.7968 63.8159 25.7961H61.4987L61.3283 24.7749C61.1583 23.7492 60.3502 22.9479 59.3231 22.7865C59.0951 22.7505 58.8647 22.7265 58.6379 22.6953C59.0309 20.8608 58.7044 18.9453 57.7259 17.3445C58.2429 16.0035 58.1464 14.5033 57.4619 13.2395C56.7774 11.9758 55.5736 11.0754 54.1679 10.7757C53.2693 5.96611 49.0851 2.46999 44.1923 2.44053C44.0723 2.44053 43.9655 2.45613 43.8515 2.45973C43.0697 1.23195 41.7808 0.417087 40.3364 0.237432C38.8919 0.0577773 37.4427 0.532068 36.3839 1.53093C35.0502 0.663947 33.4939 0.201733 31.9031 0.200128C29.34 0.210617 26.9243 1.4003 25.3535 3.42573C23.6094 2.91713 21.7286 3.22941 20.2424 4.27438C18.7562 5.31935 17.8259 6.98355 17.7143 8.79693C15.8823 9.56702 14.6903 11.3601 14.6891 13.3473C14.6929 13.6918 14.7331 14.0349 14.8091 14.3709C13.189 16.8133 12.7657 19.8593 13.6583 22.6509C13.3367 22.6953 13.0079 22.7349 12.6983 22.7805C11.6659 22.9363 10.8506 23.7381 10.6775 24.7677L10.5071 25.7925H8.18394C7.03536 25.7933 6.04835 26.6078 5.82954 27.7353L0.574742 54.7137C0.369524 55.7703 0.64781 56.8632 1.33332 57.693C2.01883 58.5228 3.03964 59.0023 4.11594 59.0001H29.1407C30.1343 60.6393 33.1535 61.4001 35.9999 61.4001C38.8163 61.4001 41.8067 60.6573 42.8291 59.0001H67.8839C68.96 59.0022 69.9806 58.5229 70.666 57.6934C71.3515 56.8639 71.63 55.7713 71.4251 54.7149L66.1715 27.7437ZM18.3179 15.5193C17.3436 14.9335 16.8786 13.7705 17.1804 12.6745C17.4823 11.5784 18.4771 10.8174 19.6139 10.8129C20.4096 10.8106 21.1584 11.1888 21.6287 11.8305C21.8843 12.1748 22.304 12.3566 22.7299 12.3074C23.1558 12.2583 23.5231 11.9856 23.6935 11.5922C23.8639 11.1988 23.8115 10.7444 23.5559 10.4001C22.7411 9.31107 21.5063 8.61439 20.1527 8.48013C20.5105 6.79955 21.9925 5.59646 23.7107 5.59173C23.8572 5.59915 24.003 5.61518 24.1475 5.63973C24.051 5.88575 23.9669 6.13646 23.8955 6.39093C23.7462 7.02615 24.1318 7.66428 24.7636 7.82746C25.3954 7.99063 26.0418 7.61903 26.2187 6.99093C26.3552 6.46351 26.5648 5.9578 26.8415 5.48853C27.906 3.70526 29.8264 2.60941 31.9031 2.60013C33.0334 2.60513 34.1378 2.93867 35.0819 3.56013C34.9021 4.06546 34.8068 4.59699 34.7999 5.13333C34.7999 5.79607 35.3372 6.33333 35.9999 6.33333C36.6627 6.33333 37.1999 5.79607 37.1999 5.13333C37.1999 3.73925 38.3301 2.60913 39.7241 2.60913C41.1182 2.60913 42.2483 3.73925 42.2483 5.13333C42.2483 5.79607 42.7856 6.33333 43.4483 6.33333C44.1111 6.33333 44.6483 5.79607 44.6483 5.13333C44.6483 5.04093 44.6255 4.95333 44.6207 4.86093C48.0568 5.07293 50.9461 7.51535 51.7271 10.8681C51.1674 11.0311 50.6414 11.2933 50.1743 11.6421C49.8314 11.8994 49.6517 12.32 49.703 12.7457C49.7542 13.1713 50.0287 13.5373 50.423 13.7057C50.8172 13.8741 51.2714 13.8194 51.6143 13.5621C52.5733 12.8522 53.8979 12.9088 54.7928 13.698C55.6876 14.4872 55.9093 15.7944 55.3247 16.8345C55.0635 17.2938 54.6666 17.661 54.1883 17.8857C53.6868 18.1285 53.4185 18.6846 53.5404 19.2283C53.6623 19.772 54.1424 20.1603 54.6995 20.1657C54.8755 20.166 55.0493 20.1271 55.2083 20.0517C55.5264 19.8976 55.8269 19.7097 56.1047 19.4913C56.7251 21.2548 56.336 23.2161 55.0895 24.6093L55.0607 24.6393C53.4974 26.3329 51.0036 26.7906 48.9407 25.7625C48.7387 25.6558 48.5446 25.5347 48.3599 25.4001C49.2438 24.161 49.3659 22.5333 48.6767 21.1761C48.4838 20.7931 48.1012 20.542 47.673 20.5176C47.2448 20.4931 46.8361 20.699 46.6008 21.0576C46.3655 21.4162 46.3394 21.8731 46.5323 22.2561C46.9269 23.0493 46.6808 24.0118 45.9539 24.5181C45.5271 24.8023 44.9998 24.8922 44.5029 24.7655C44.006 24.6387 43.5861 24.3072 43.3475 23.8533C43.1557 23.4698 42.7738 23.2178 42.3458 23.1922C41.9178 23.1666 41.5086 23.3713 41.2724 23.7292C41.0362 24.0871 41.0089 24.5438 41.2007 24.9273C41.9045 26.348 43.3545 27.2452 44.9399 27.2409C45.4561 27.2374 45.967 27.1369 46.4459 26.9445C46.8745 27.3198 47.3467 27.6421 47.8523 27.9045C49.5626 28.791 51.5514 28.9749 53.3951 28.4169C52.2093 30.0361 50.4345 31.1244 48.4535 31.4469C47.8373 31.5473 47.4009 32.1034 47.4501 32.7259C47.4993 33.3483 48.0176 33.829 48.6419 33.8313C48.7058 33.8313 48.7696 33.8265 48.8327 33.8169C49.5635 33.6904 50.2776 33.4819 50.9615 33.1953C51.3312 33.8489 51.6313 34.5395 51.8567 35.2557C51.898 35.3808 51.9191 35.5116 51.9191 35.6433C51.9188 36.162 51.6091 36.6304 51.1319 36.8337C50.58 37.0472 49.9533 36.8788 49.5827 36.4173C48.6534 35.326 47.4365 34.5173 46.0703 34.0833C43.4771 33.2145 42.4763 32.4381 42.0515 31.5933C42.6742 31.5156 43.2894 31.3872 43.8911 31.2093C44.301 31.0833 44.6125 30.7482 44.7082 30.3302C44.804 29.9122 44.6695 29.4749 44.3554 29.183C44.0414 28.8911 43.5954 28.7889 43.1855 28.9149C42.5122 29.1215 41.8171 29.2492 41.1143 29.2953C39.7603 29.4012 38.4001 29.1959 37.1375 28.6953C36.6635 28.5105 36.1244 28.6446 35.7923 29.0301C34.0452 31.0371 31.0549 31.3782 28.9006 29.8163C26.7464 28.2544 26.1409 25.3063 27.5051 23.0217C27.7261 22.6528 27.7336 22.194 27.5246 21.8182C27.3156 21.4423 26.922 21.2065 26.492 21.1996C26.062 21.1926 25.6609 21.4156 25.4399 21.7845C25.1536 22.2718 24.9234 22.7899 24.7535 23.3289C23.8086 23.2792 23.0634 22.5063 23.0483 21.5601V21.5301C23.0477 21.2135 22.9206 20.9102 22.6952 20.6878C22.4699 20.4654 22.165 20.3422 21.8483 20.3457C21.1827 20.3523 20.647 20.8945 20.6483 21.5601C20.6537 23.6883 22.2586 25.472 24.3743 25.7013C24.3786 26.1036 24.4152 26.5049 24.4835 26.9013C21.8042 27.4811 19.0252 26.518 17.2792 24.4046C15.5332 22.2911 15.1118 19.3803 16.1867 16.8585C16.4552 17.1301 16.7549 17.369 17.0795 17.5701C17.6464 17.9022 18.3749 17.7167 18.714 17.1539C19.053 16.5912 18.8765 15.8605 18.3179 15.5145V15.5193ZM13.0379 25.1589C13.5911 25.0773 14.1623 25.0053 14.7299 24.9309C16.9487 28.4765 21.1921 30.1981 25.2539 29.2005C26.3453 31.2719 28.3396 32.7165 30.648 33.1077C32.9565 33.499 35.3154 32.7922 37.0283 31.1961C37.8438 31.4394 38.6838 31.5915 39.5327 31.6497C40.1123 33.8481 41.7875 35.1801 45.3071 36.3597C46.256 36.6572 47.1024 37.2147 47.7503 37.9689C48.4707 38.8255 49.5303 39.3233 50.6495 39.3309C51.139 39.3308 51.6235 39.232 52.0739 39.0405C53.4342 38.4592 54.3166 37.1226 54.3167 35.6433C54.3178 35.2575 54.2562 34.8741 54.1343 34.5081C53.8645 33.6603 53.5091 32.842 53.0735 32.0661C55.1141 30.5992 56.5356 28.4253 57.0611 25.9677C57.3167 25.6641 57.5478 25.3407 57.7523 25.0005C58.1543 25.0521 58.5563 25.0977 58.9607 25.1649L63.2927 51.2217C54.825 48.3942 45.6677 48.3942 37.1999 51.2217V36.2001C37.1999 35.5374 36.6627 35.0001 35.9999 35.0001C35.3372 35.0001 34.7999 35.5374 34.7999 36.2001V51.2265C26.3331 48.3964 17.1761 48.393 8.70714 51.2169L13.0379 25.1589ZM3.18114 56.1585C2.95439 55.8846 2.86196 55.5237 2.92914 55.1745L8.18394 28.1961H10.1039L6.33834 50.8269C6.20589 51.6507 6.5092 52.4843 7.14002 53.0303C7.77084 53.5763 8.63932 53.7569 9.43554 53.5077C15.8327 51.4352 22.6481 51.0027 29.2559 52.2501L28.8983 56.6001H4.11594C3.75392 56.6004 3.41086 56.4383 3.18114 56.1585ZM35.9999 59.0001C33.1091 59.0001 31.4507 58.1457 31.2071 57.7653L31.6199 52.7853C32.9394 53.1139 34.2307 53.5468 35.4815 54.0801C35.6433 54.1581 35.8204 54.1991 35.9999 54.2001C36.18 54.1999 36.3576 54.1588 36.5195 54.0801C37.7696 53.5437 39.0605 53.1079 40.3799 52.7769L40.7927 57.7641C40.5491 58.1457 38.8907 59.0001 35.9999 59.0001ZM68.8187 56.1585C68.589 56.4383 68.246 56.6004 67.8839 56.6001H43.1051L42.7451 52.2417C49.3566 50.9969 56.1749 51.433 62.5739 53.5101C63.37 53.756 64.2366 53.5728 64.865 53.0258C65.4934 52.4787 65.7942 51.6457 65.6603 50.8233L61.8983 28.1973H63.8183L69.0743 55.1733C69.1409 55.5234 69.0471 55.8849 68.8187 56.1585Z" fill="black"/>
</svg>
