<svg width="72" height="72" viewBox="0 0 72 72" fill="none" xmlns="http://www.w3.org/2000/svg">
<path d="M70.8 28.8H50.4V25.2C50.4 24.816 50.2163 24.4551 49.9056 24.2292L37.2 14.9892V10.8H50.4C51.0627 10.8 51.6 10.2627 51.6 9.6V2.4C51.6 1.7373 51.0627 1.2 50.4 1.2H37.2C37.2 0.5373 36.6627 0 36 0C35.3373 0 34.8 0.5373 34.8 1.2V14.9892L22.0944 24.2292C21.7838 24.4551 21.6 24.816 21.6 25.2V28.8H1.2C0.5373 28.8 0 29.3373 0 30V70.8C0 71.4627 0.5373 72 1.2 72H70.8C71.4627 72 72 71.4627 72 70.8V30C72 29.3373 71.4627 28.8 70.8 28.8ZM37.2 3.6H49.2V8.4H37.2V3.6ZM21.6 69.6H2.4V31.2H21.6V69.6ZM40.8 69.6H31.2V57.6H40.8V69.6ZM48 69.6H43.2V56.4C43.2 55.7373 42.6627 55.2 42 55.2H30C29.3373 55.2 28.8 55.7373 28.8 56.4V69.6H24V25.8108L36 17.0832L48 25.8108V69.6ZM69.6 69.6H50.4V31.2H69.6V69.6Z" fill="black"/>
</svg>
