<svg width="70" height="70" viewBox="0 0 70 70" fill="none" xmlns="http://www.w3.org/2000/svg">
<path d="M66.5 4.625H30.8555C29.5899 1.96887 26.8865 0.125 23.7534 0.125H18.6211C8.42188 0.125 0.125 8.423 0.125 18.6211C0.125 25.0404 3.37512 30.9039 8.819 34.307L9.125 34.4994V40.013C3.4775 43.7851 0.125 50.0367 0.125 56.8632V69.875H63.125C64.3659 69.875 65.375 68.8659 65.375 67.625V65.375C65.375 64.1341 64.3659 63.125 63.125 63.125H56.0611L54.5615 58.625H66.5C68.3607 58.625 69.875 57.1107 69.875 55.25V8C69.875 6.13925 68.3607 4.625 66.5 4.625ZM2.375 18.6211C2.375 9.66388 9.66388 2.375 18.6211 2.375H23.7534C26.8528 2.375 29.375 4.89612 29.375 8.0045C29.375 9.50525 28.79 10.916 27.7291 11.9757C26.6694 13.0344 25.2609 13.6183 23.7624 13.6183C23.7612 13.6183 23.759 13.6183 23.7579 13.6183C23.381 13.6183 23.0019 13.6182 22.6227 13.6171V13.616C22.6216 13.616 22.6194 13.616 22.6171 13.616C22.0198 13.616 21.4584 13.3843 21.0354 12.9624C20.609 12.5371 20.375 11.9724 20.375 11.3705C20.375 10.133 21.383 9.125 22.6205 9.125V6.875C20.141 6.875 18.125 8.89213 18.125 11.3705C18.125 12.1749 18.3511 12.9388 18.7449 13.6149C17.522 13.6149 16.4915 13.6149 15.8728 13.616C15.8716 13.616 15.8694 13.616 15.8671 13.616C15.2697 13.616 14.7084 13.3843 14.2854 12.9624C13.859 12.5371 13.625 11.9724 13.625 11.3705C13.625 10.133 14.633 9.125 15.8705 9.125H15.875L15.8705 6.875C13.391 6.875 11.375 8.89213 11.375 11.3705C11.375 11.7091 11.4211 12.0387 11.4931 12.3616C10.016 13.4967 9.125 15.2574 9.125 17.1597V18.1396C6.61175 18.332 4.625 20.438 4.625 22.9996C4.625 24.5251 5.354 25.9831 6.57463 26.9L9.125 28.8125V31.805C4.87925 28.754 2.375 23.9019 2.375 18.6211ZM27.125 24.1798V29.375H24.875C23.6341 29.375 22.625 28.3659 22.625 27.125H20.375C20.375 29.6068 22.3932 31.625 24.875 31.625H26.504C26.3094 31.9603 26.0866 32.2798 25.8054 32.561C24.9571 33.4093 23.8299 33.875 22.6295 33.875C22.6284 33.875 22.6261 33.875 22.625 33.875H15.875V36.125H18.125V41.435L11.375 39.7475V27.6875L7.92575 25.1C7.26762 24.6073 6.875 23.8209 6.875 22.9996C6.875 21.5529 8.05288 20.375 9.49963 20.375H11.375V17.1597C11.375 16.0978 11.816 15.1044 12.5641 14.3956C12.6114 14.4463 12.6462 14.5059 12.6957 14.5554C13.544 15.4014 14.669 15.8671 15.8671 15.8671H15.8784C17.2531 15.8638 20.5921 15.866 23.7556 15.8694H23.7624C24.8109 15.8694 25.8279 15.6658 26.7684 15.2765C27.5885 16.8436 29.1297 20.1309 29.3491 23.0682L27.125 24.1798ZM16.6839 43.3925L14.9469 44.6953L13.2099 42.524L16.6839 43.3925ZM2.375 56.8632C2.375 50.9435 5.21563 45.5109 10.0171 42.1348L14.5531 47.8047L19.2612 44.2734C19.8856 44.7414 20.4673 45.2589 21.0039 45.8225C20.6157 46.2264 20.375 46.772 20.375 47.375V58.625C20.375 59.8659 21.3841 60.875 22.625 60.875H24.875V67.625H11.375V56.1815C11.375 53.828 10.4592 51.6162 8.79537 49.9546L7.20463 51.5454C8.44325 52.784 9.125 54.4299 9.125 56.1815V67.625H2.375V56.8632ZM40.625 30.1355V27.125H40.7386C41.0638 28.7214 42.0807 30.0545 43.4476 30.8487L43.3452 31.1559C43.2181 31.5384 42.8941 31.8252 42.4981 31.904C41.9604 32.012 41.4395 32.1616 40.9287 32.3304C40.7454 31.6216 40.625 30.8915 40.625 30.1355ZM38.375 17.531C38.375 14.1357 41.1369 11.375 44.531 11.375H52.469C55.8631 11.375 58.625 14.1357 58.625 17.531C58.625 17.918 58.5811 18.3061 58.508 18.6875C57.8701 18.3399 57.1501 18.125 56.375 18.125H55.7495C54.9688 16.7862 53.5332 15.875 51.875 15.875V18.125C53.1159 18.125 54.125 19.1341 54.125 20.375V26C54.125 27.8608 52.6107 29.375 50.75 29.375H46.25C44.3893 29.375 42.875 27.8608 42.875 26V20.375C42.875 19.1341 43.8841 18.125 45.125 18.125V15.875C43.4668 15.875 42.0312 16.7862 41.2505 18.125H40.625C39.8499 18.125 39.1299 18.3399 38.492 18.6875C38.4189 18.305 38.375 17.918 38.375 17.531ZM56.375 30.1355C56.375 30.8915 56.2535 31.6216 56.0701 32.3293C55.5594 32.1605 55.0385 32.0109 54.5007 31.9029C54.1059 31.8241 53.7819 31.5373 53.6548 31.1548L53.5524 30.8476C54.9193 30.0545 55.9362 28.7214 56.2614 27.125H56.375V30.1355ZM56.375 24.875V20.375C57.6159 20.375 58.625 21.3841 58.625 22.625C58.625 23.8659 57.6159 24.875 56.375 24.875ZM40.625 24.875C39.3841 24.875 38.375 23.8659 38.375 22.625C38.375 21.3841 39.3841 20.375 40.625 20.375V24.875ZM42.9402 34.109C44.126 33.8727 45.0991 33.0121 45.4805 31.8669L45.584 31.5575C45.8045 31.5845 46.0216 31.625 46.25 31.625H50.75C50.9784 31.625 51.1955 31.5845 51.4171 31.5575L51.5206 31.8669C51.902 33.0132 52.8763 33.8727 54.0609 34.109C54.4625 34.1889 54.8517 34.2969 55.2354 34.4184C54.4377 35.8348 53.261 37.0227 51.7974 37.8159C51.5454 36.8461 50.6712 36.125 49.625 36.125H47.375C46.3288 36.125 45.4546 36.8461 45.2038 37.8148C43.7401 37.0216 42.5634 35.8348 41.7658 34.4173C42.1494 34.2969 42.5386 34.1889 42.9402 34.109ZM63.125 47.375H49.625V42.875C50.8659 42.875 51.875 41.8659 51.875 40.625V40.2762C54.251 39.2829 56.15 37.5121 57.3211 35.3218C60.8154 37.2725 63.125 41.0019 63.125 45.1666V47.375ZM47.375 40.625V38.375H49.625L49.6261 40.625H47.375ZM45.125 40.2762V40.625C45.125 41.8659 46.1341 42.875 47.375 42.875V47.375H33.875V45.1666C33.875 41.0019 36.1846 37.2725 39.6789 35.3218C40.85 37.5121 42.749 39.2829 45.125 40.2762ZM46.9813 63.125H34.2687C34.019 62.4196 33.875 61.6647 33.875 60.875V58.625H47.375V60.875C47.375 61.6647 47.231 62.4196 46.9813 63.125ZM40.625 67.625C38.6326 67.625 36.845 66.752 35.6075 65.375H45.6414C44.405 66.752 42.6174 67.625 40.625 67.625ZM36.125 56.375V49.625H47.375V56.375H36.125ZM33.875 49.625V56.375H31.625V49.625H33.875ZM31.9209 63.125H27.125V59.9615C27.5683 58.7397 28.4007 57.7014 29.4729 56.996C29.7451 57.9331 30.6012 58.625 31.625 58.625V60.875C31.625 61.6535 31.7341 62.4039 31.9209 63.125ZM29.375 54.4861C28.5425 54.8619 27.7843 55.3749 27.125 55.9936V50.0086C27.7843 50.6263 28.5425 51.1404 29.375 51.5161V54.4861ZM24.875 58.625H22.625V47.375H24.875V58.625ZM27.125 67.625V65.375H32.8423C33.3339 66.2221 33.9605 66.9815 34.6917 67.625H27.125ZM63.125 67.625H46.5582C47.2895 66.9815 47.915 66.2221 48.4077 65.375H63.125V67.625ZM53.6885 63.125H49.328C49.5159 62.4039 49.625 61.6535 49.625 60.875V58.625H52.1889L53.6885 63.125ZM67.625 55.25C67.625 55.871 67.1199 56.375 66.5 56.375H49.625V49.625H67.625V55.25ZM67.625 47.375H65.375V45.1666C65.375 40.0771 62.4995 35.5288 58.175 33.227C58.4641 32.2393 58.625 31.2031 58.625 30.1355V26.4995C59.9637 25.7188 60.875 24.2833 60.875 22.625C60.875 21.8544 60.6624 21.1389 60.3193 20.5044C60.677 19.5571 60.875 18.5424 60.875 17.531C60.875 12.896 57.104 9.125 52.469 9.125H44.531C39.896 9.125 36.125 12.896 36.125 17.531C36.125 18.5435 36.323 19.5571 36.6807 20.5044C36.3376 21.1389 36.125 21.8544 36.125 22.625C36.125 24.2833 37.0363 25.7188 38.375 26.4995V30.1355C38.375 31.2031 38.5359 32.2393 38.825 33.227C34.5005 35.5288 31.625 40.0771 31.625 45.1666V47.375C30.6012 47.375 29.7451 48.0669 29.4729 49.004C28.358 48.2705 27.4951 47.1804 27.0665 45.8945L26.8111 45.125H23.3855C22.5058 44.0585 21.4966 43.1135 20.375 42.3035V36.125H22.6239H22.6306C24.4306 36.125 26.1226 35.4253 27.395 34.1529C28.6719 32.8783 29.375 31.1806 29.375 29.375V25.5702L31.625 24.4452V23.75C31.625 20.0814 29.6754 15.9504 28.7045 14.12C28.9171 13.9479 29.123 13.7645 29.3199 13.5687C30.806 12.0826 31.625 10.106 31.625 7.99663C31.625 7.61525 31.5879 7.24288 31.5361 6.875H66.5C67.1199 6.875 67.625 7.379 67.625 8V47.375Z" fill="black"/>
</svg>
