<svg width="40" height="40" viewBox="0 0 40 40" version="1.1" xmlns="http://www.w3.org/2000/svg" xmlns:xlink="http://www.w3.org/1999/xlink">
<title>Active</title>
<desc>Created using Figma</desc>
<g id="Canvas" transform="translate(-3070 137)">
<g id="Button/Hint/Active">
<g id="BG">
<use xlink:href="#path0_fill" transform="translate(3070 -137)" fill="#009688"/>
</g>
<g id="Vector">
<use xlink:href="#path1_fill" transform="translate(3081 -129)" fill="#FFFFFF"/>
</g>
</g>
</g>
<defs>
<path id="path0_fill" d="M 40 20C 40 31.0457 31.0457 40 20 40C 8.9543 40 0 31.0457 0 20C 0 8.9543 8.9543 0 20 0C 31.0457 0 40 8.9543 40 20Z"/>
<path id="path1_fill" d="M 5.14286 22.8C 5.14286 23.46 5.72143 24 6.42857 24L 11.5714 24C 12.2786 24 12.8571 23.46 12.8571 22.8L 12.8571 21.6L 5.14286 21.6L 5.14286 22.8ZM 9 0C 4.03714 0 0 3.768 0 8.4C 0 11.256 1.53 13.764 3.85714 15.288L 3.85714 18C 3.85714 18.66 4.43571 19.2 5.14286 19.2L 12.8571 19.2C 13.5643 19.2 14.1429 18.66 14.1429 18L 14.1429 15.288C 16.47 13.764 18 11.256 18 8.4C 18 3.768 13.9629 0 9 0ZM 12.6643 13.32L 11.5714 14.04L 11.5714 16.8L 6.42857 16.8L 6.42857 14.04L 5.33571 13.32C 3.6 12.192 2.57143 10.356 2.57143 8.4C 2.57143 5.088 5.45143 2.4 9 2.4C 12.5486 2.4 15.4286 5.088 15.4286 8.4C 15.4286 10.356 14.4 12.192 12.6643 13.32Z"/>
</defs>
</svg>
