<svg width="42" height="42" viewBox="0 0 42 42" fill="none" xmlns="http://www.w3.org/2000/svg">
<path d="M11.9619 12.8447C15.3903 12.8447 18.1696 10.0655 18.1696 6.63719C18.1696 3.20888 15.3903 0.429688 11.9619 0.429688C8.53345 0.429688 5.75415 3.20888 5.75415 6.63719C5.75415 10.0655 8.53345 12.8447 11.9619 12.8447ZM0.581055 18.5724C0.581055 16.5521 2.21884 14.9144 4.23914 14.9144H14.1038C13.3996 16.1318 12.9965 17.5452 12.9965 19.0528C12.9965 21.525 14.0803 23.744 15.7986 25.2605H13.5507C11.0949 25.2605 9.0001 26.8063 8.18606 28.9777C5.08488 28.2198 3.16278 26.5286 2.0313 24.6454C0.580931 22.2312 0.581034 19.7471 0.581055 19.316V18.5724ZM29.5506 19.0528C29.5506 17.5452 29.1477 16.1318 28.4433 14.9144H38.3078C40.328 14.9144 41.9658 16.5521 41.9658 18.5724V19.316C41.9658 19.7471 41.966 22.2312 40.5155 24.6454C39.384 26.5286 37.4619 28.2198 34.3607 28.9777C33.5467 26.8063 31.452 25.2605 28.9962 25.2605H26.7484C28.4669 23.744 29.5506 21.525 29.5506 19.0528ZM36.7927 6.63719C36.7927 10.0655 34.0135 12.8447 30.585 12.8447C27.1565 12.8447 24.3773 10.0655 24.3773 6.63719C24.3773 3.20888 27.1565 0.429688 30.585 0.429688C34.0135 0.429688 36.7927 3.20888 36.7927 6.63719ZM9.89263 30.9878C9.89263 28.9676 11.5304 27.3298 13.5507 27.3298H28.9962C31.0164 27.3298 32.6542 28.9676 32.6542 30.9878V31.7315C32.6542 32.1625 32.6545 34.6466 31.2039 37.0608C29.67 39.6142 26.6824 41.8145 21.2734 41.8145C15.8644 41.8145 12.877 39.6142 11.3429 37.0608C9.8925 34.6466 9.89261 32.1625 9.89263 31.7315V30.9878ZM21.2734 25.2601C24.702 25.2601 27.4812 22.4809 27.4812 19.0526C27.4812 15.6243 24.702 12.8451 21.2734 12.8451C17.8449 12.8451 15.0657 15.6243 15.0657 19.0526C15.0657 22.4809 17.8449 25.2601 21.2734 25.2601Z" fill="#00645C"/>
</svg>
