<svg xmlns="http://www.w3.org/2000/svg" xmlns:xlink="http://www.w3.org/1999/xlink" width="48" height="48" xmlns:v="https://vecta.io/nano"><defs><path id="A" fill="none" d="M0 0h600v956H0z"/><path id="B" d="M28 16.997a1 1 0 0 1 .997-.997h6.006a1 1 0 0 1 .997.997v6.006a1 1 0 0 1-.997.997h-6.006a1 1 0 0 1-.997-.997v-6.006zM30 18h4v4h-4v-4z"/><path id="C" d="M14 21.001c0-.553.456-1.001 1.002-1.001h9.995A1 1 0 0 1 26 21.001v13.998c0 .553-.456 1.001-1.002 1.001h-9.995A1 1 0 0 1 14 34.999V21.001zM16 22h8v12h-8V22z"/></defs><g fill="none" fill-rule="evenodd"><path fill-opacity="0" fill="#f08" d="M0 0h48v48H0z"/><g fill="#3b3e40"><use xlink:href="#B"/><use xlink:href="#C"/></g><g transform="translate(-502 -654)"><mask id="D" fill="#fff"><use xlink:href="#A"/></mask><use fill="#fafafa" xlink:href="#A"/><g mask="url(#D)"><g transform="translate(502 654)"><path fill-opacity="0" fill="#f08" d="M0 0h48v48H0z"/><g fill="#3b3e40"><use xlink:href="#B"/><use xlink:href="#C"/></g></g></g></g></g></svg>