<svg xmlns="http://www.w3.org/2000/svg" xmlns:xlink="http://www.w3.org/1999/xlink" width="48" height="48" xmlns:v="https://vecta.io/nano"><defs><path id="A" fill="none" d="M0 0h600v956H0z"/></defs><g fill="none" fill-rule="evenodd"><g fill="#f08"><path fill-opacity="0" d="M0 0h48v48H0z"/><path fill-opacity="0" d="M12 12h24v24H12z"/></g><g fill="#3b3e40"><path d="M20 28.997a1 1 0 0 1 .997-.997h6.006a1 1 0 0 1 .997.997v6.006a1 1 0 0 1-.997.997h-6.006a1 1 0 0 1-.997-.997v-6.006zM22 30h4v4h-4v-4z"/><rect x="14" y="23" width="20" height="2" rx="1"/><path d="M20 12.997a1 1 0 0 1 .997-.997h6.006a1 1 0 0 1 .997.997v6.006a1 1 0 0 1-.997.997h-6.006a1 1 0 0 1-.997-.997v-6.006zM22 14h4v4h-4v-4z"/></g><g transform="translate(-118 -450)"><mask id="B" fill="#fff"><use xlink:href="#A"/></mask><use fill="#fafafa" xlink:href="#A"/><g mask="url(#B)"><g transform="translate(118 450)"><path fill-opacity="0" fill="#f08" d="M0 0h48v48H0z"/><g transform="translate(12 12)"><path fill-opacity="0" fill="#f08" d="M0 0h24v24H0z"/><g fill="#3b3e40"><path d="M8 16.997A1 1 0 0 1 8.997 16h6.006a1 1 0 0 1 .997.997v6.006a1 1 0 0 1-.997.997H8.997A1 1 0 0 1 8 23.003v-6.006zM10 18h4v4h-4v-4z"/><rect x="2" y="11" width="20" height="2" rx="1"/><path d="M8 .997A1 1 0 0 1 8.997 0h6.006A1 1 0 0 1 16 .997v6.006a1 1 0 0 1-.997.997H8.997A1 1 0 0 1 8 7.003V.997zM10 2h4v4h-4V2z"/></g></g></g></g></g></g></svg>