<?xml version="1.0" encoding="UTF-8" standalone="no"?>
<svg width="48px" height="48px" viewBox="0 0 48 48" version="1.1" xmlns="http://www.w3.org/2000/svg" xmlns:xlink="http://www.w3.org/1999/xlink">
    <!-- Generator: sketchtool 39.1 (31720) - http://www.bohemiancoding.com/sketch -->
    <title>F920A12E-7090-48CB-9225-7B2EE1F67311</title>
    <desc>Created with sketchtool.</desc>
    <defs>
        <rect id="path-1" x="0" y="0" width="600" height="956" fill="none"></rect>
    </defs>
    <g id="Page-1" stroke="none" stroke-width="1" fill="none" fill-rule="evenodd">
        <g id="Math-Input" transform="translate(-566.000000, -1750.000000)"></g>
        <g id="Asset-Sheet" transform="translate(-366.000000, -654.000000)">
            <g id="math_keypad_icon_exponent_2" transform="translate(366.000000, 654.000000)">
                <g id="icon">
                    <rect id="bounds" fill-opacity="0" fill="#FF0088" x="0" y="0" width="48" height="48"></rect>
                    <path d="M14,21.0008717 C14,20.4481055 14.455761,20 15.0024733,20 L24.9975267,20 C25.5511774,20 26,20.4446309 26,21.0008717 L26,34.9991283 C26,35.5518945 25.544239,36 24.9975267,36 L15.0024733,36 C14.4488226,36 14,35.5553691 14,34.9991283 L14,21.0008717 Z M16,22 L24,22 L24,34 L16,34 L16,22 Z" id="block" fill="#3B3E40"></path>
                    <path d="M33.67,23 L33.67,21.5 L31.23,21.5 C32.89,20.34 33.62,19.47 33.62,18.45 C33.62,17.11 32.49,16.23 30.92,16.23 C29.99,16.23 28.93,16.56 28.22,17.34 L29.17,18.48 C29.65,18.03 30.21,17.75 30.95,17.75 C31.44,17.75 31.87,17.99 31.87,18.45 C31.87,19.11 31.33,19.57 28.44,21.66 L28.44,23 L33.67,23 Z" id="2" fill="#3B3E40"></path>
                </g>
            </g>
        </g>
        <g id="Math-Input" transform="translate(-566.000000, -1750.000000)">
            <g id="Asset-Sheet" transform="translate(200.000000, 1096.000000)">
                <mask id="mask-2" fill="white">
                    <use xlink:href="#path-1"></use>
                </mask>
                <use id="Mask" fill="#FAFAFA" xlink:href="#path-1"></use>
                <g id="math_keypad_icon_exponent_2" mask="url(#mask-2)">
                    <g transform="translate(366.000000, 654.000000)" id="icon">
                        <g>
                            <rect id="bounds" fill-opacity="0" fill="#FF0088" x="0" y="0" width="48" height="48"></rect>
                            <path d="M14,21.0008717 C14,20.4481055 14.455761,20 15.0024733,20 L24.9975267,20 C25.5511774,20 26,20.4446309 26,21.0008717 L26,34.9991283 C26,35.5518945 25.544239,36 24.9975267,36 L15.0024733,36 C14.4488226,36 14,35.5553691 14,34.9991283 L14,21.0008717 Z M16,22 L24,22 L24,34 L16,34 L16,22 Z" id="block" fill="#3B3E40"></path>
                            <path d="M33.67,23 L33.67,21.5 L31.23,21.5 C32.89,20.34 33.62,19.47 33.62,18.45 C33.62,17.11 32.49,16.23 30.92,16.23 C29.99,16.23 28.93,16.56 28.22,17.34 L29.17,18.48 C29.65,18.03 30.21,17.75 30.95,17.75 C31.44,17.75 31.87,17.99 31.87,18.45 C31.87,19.11 31.33,19.57 28.44,21.66 L28.44,23 L33.67,23 Z" id="2" fill="#3B3E40"></path>
                        </g>
                    </g>
                </g>
            </g>
        </g>
    </g>
</svg>
