<svg xmlns="http://www.w3.org/2000/svg" xmlns:xlink="http://www.w3.org/1999/xlink" width="48" height="48" xmlns:v="https://vecta.io/nano"><defs><path id="A" fill="none" d="M0 0h600v956H0z"/><path id="B" d="M13 24h0l6 6h14V18H19l-6 6zm-1.414-1.414h0l6-6A2 2 0 0 1 19 16h14a2 2 0 0 1 2 2v12a2 2 0 0 1-2 2H19a2 2 0 0 1-1.414-.586l-6-6a2 2 0 0 1 0-2.828h0z"/></defs><g fill="none" fill-rule="evenodd"><path fill-opacity="0" fill="#f08" d="M0 0h48v48H0z"/><use xlink:href="#B" fill="#888d93"/><g stroke="#888d93" stroke-width="2" stroke-linecap="round" stroke-linejoin="round"><path d="M23 21l6 6"/><path d="M29 21l-6 6"/></g><g transform="translate(-50 -50)"><mask id="C" fill="#fff"><use xlink:href="#A"/></mask><use fill="#fafafa" xlink:href="#A"/><g mask="url(#C)"><g transform="translate(50 50)"><path fill-opacity="0" fill="#f08" d="M0 0h48v48H0z"/><use xlink:href="#B" fill="#888d93"/><g stroke="#888d93" stroke-width="2" stroke-linecap="round" stroke-linejoin="round"><path d="M23 21l6 6"/><path d="M23 21l6 6" transform="matrix(-1 0 0 1 52 0)"/></g></g></g></g></g></svg>