<svg xmlns="http://www.w3.org/2000/svg" xmlns:xlink="http://www.w3.org/1999/xlink" width="48" height="48" xmlns:v="https://vecta.io/nano"><defs><path id="A" fill="none" d="M0 0h600v956H0z"/><path id="B" d="M14 21.001c0-.553.456-1.001 1.002-1.001h9.995A1 1 0 0 1 26 21.001v13.998c0 .553-.456 1.001-1.002 1.001h-9.995A1 1 0 0 1 14 34.999V21.001zM16 22h8v12h-8V22z"/><path id="C" d="M30.92 23.12c1.66 0 2.76-.81 2.76-1.98 0-.96-.86-1.51-1.57-1.58.79-.13 1.46-.72 1.46-1.5 0-1.1-.95-1.83-2.65-1.83-1.23 0-2.11.45-2.67 1.08l.83 1.08a2.47 2.47 0 0 1 1.66-.64c.64 0 1.12.19 1.12.61 0 .35-.39.52-1.08.52-.25 0-.77 0-.9-.01v1.53c.1-.01.61-.01.9-.01.91 0 1.19.18 1.19.56 0 .37-.38.65-1.12.65-.58 0-1.34-.23-1.82-.7l-.87 1.17c.52.6 1.48 1.05 2.76 1.05h0z"/></defs><g fill="none" fill-rule="evenodd"><path fill-opacity="0" fill="#f08" d="M0 0h48v48H0z"/><g fill="#3b3e40"><use xlink:href="#B"/><use xlink:href="#C"/></g><g transform="translate(-434 -654)"><mask id="D" fill="#fff"><use xlink:href="#A"/></mask><use fill="#fafafa" xlink:href="#A"/><g mask="url(#D)"><g transform="translate(434 654)"><path fill-opacity="0" fill="#f08" d="M0 0h48v48H0z"/><g fill="#3b3e40"><use xlink:href="#B"/><use xlink:href="#C"/></g></g></g></g></g></svg>