<?xml version="1.0" encoding="UTF-8" standalone="no"?>
<svg width="48px" height="48px" viewBox="0 0 48 48" version="1.1" xmlns="http://www.w3.org/2000/svg" xmlns:xlink="http://www.w3.org/1999/xlink">
    <!-- Generator: sketchtool 39.1 (31720) - http://www.bohemiancoding.com/sketch -->
    <title>E26A7B0C-2446-4BCD-822A-3E8737D8FBC3</title>
    <desc>Created with sketchtool.</desc>
    <defs>
        <rect id="path-1" x="0" y="0" width="600" height="956" fill="none"></rect>
    </defs>
    <g id="Page-1" stroke="none" stroke-width="1" fill="none" fill-rule="evenodd">
        <g id="Math-Input" transform="translate(-702.000000, -1750.000000)"></g>
        <g id="Asset-Sheet" transform="translate(-502.000000, -654.000000)">
            <g id="math_keypad_icon_exponent" transform="translate(502.000000, 654.000000)">
                <g id="icon">
                    <rect id="bounds" fill-opacity="0" fill="#FF0088" x="0" y="0" width="48" height="48"></rect>
                    <path d="M28,16.9970301 C28,16.4463856 28.4530363,16 28.9970301,16 L35.0029699,16 C35.5536144,16 36,16.4530363 36,16.9970301 L36,23.0029699 C36,23.5536144 35.5469637,24 35.0029699,24 L28.9970301,24 C28.4463856,24 28,23.5469637 28,23.0029699 L28,16.9970301 Z M30,18 L34,18 L34,22 L30,22 L30,18 Z" id="block" fill="#3B3E40"></path>
                    <path d="M14,21.0008717 C14,20.4481055 14.455761,20 15.0024733,20 L24.9975267,20 C25.5511774,20 26,20.4446309 26,21.0008717 L26,34.9991283 C26,35.5518945 25.544239,36 24.9975267,36 L15.0024733,36 C14.4488226,36 14,35.5553691 14,34.9991283 L14,21.0008717 Z M16,22 L24,22 L24,34 L16,34 L16,22 Z" id="block" fill="#3B3E40"></path>
                </g>
            </g>
        </g>
        <g id="Math-Input" transform="translate(-702.000000, -1750.000000)">
            <g id="Asset-Sheet" transform="translate(200.000000, 1096.000000)">
                <mask id="mask-2" fill="white">
                    <use xlink:href="#path-1"></use>
                </mask>
                <use id="Mask" fill="#FAFAFA" xlink:href="#path-1"></use>
                <g id="math_keypad_icon_exponent" mask="url(#mask-2)">
                    <g transform="translate(502.000000, 654.000000)" id="icon">
                        <g>
                            <rect id="bounds" fill-opacity="0" fill="#FF0088" x="0" y="0" width="48" height="48"></rect>
                            <path d="M28,16.9970301 C28,16.4463856 28.4530363,16 28.9970301,16 L35.0029699,16 C35.5536144,16 36,16.4530363 36,16.9970301 L36,23.0029699 C36,23.5536144 35.5469637,24 35.0029699,24 L28.9970301,24 C28.4463856,24 28,23.5469637 28,23.0029699 L28,16.9970301 Z M30,18 L34,18 L34,22 L30,22 L30,18 Z" id="block" fill="#3B3E40"></path>
                            <path d="M14,21.0008717 C14,20.4481055 14.455761,20 15.0024733,20 L24.9975267,20 C25.5511774,20 26,20.4446309 26,21.0008717 L26,34.9991283 C26,35.5518945 25.544239,36 24.9975267,36 L15.0024733,36 C14.4488226,36 14,35.5553691 14,34.9991283 L14,21.0008717 Z M16,22 L24,22 L24,34 L16,34 L16,22 Z" id="block" fill="#3B3E40"></path>
                        </g>
                    </g>
                </g>
            </g>
        </g>
    </g>
</svg>
