<?xml version="1.0" standalone="no"?>
<!DOCTYPE svg PUBLIC "-//W3C//DTD SVG 20010904//EN"
 "http://www.w3.org/TR/2001/REC-SVG-20010904/DTD/svg10.dtd">
<svg version="1.0" xmlns="http://www.w3.org/2000/svg"
 width="204.000000pt" height="204.000000pt" viewBox="0 0 204.000000 204.000000"
 preserveAspectRatio="xMidYMid meet">
<metadata>
Created by potrace 1.14, written by Peter Selinger 2001-2017
</metadata>
<g transform="translate(0.000000,204.000000) scale(0.100000,-0.100000)"
fill="#000000" stroke="none">
<path d="M511 1730 c-44 -10 -81 -39 -106 -81 -19 -33 -20 -52 -20 -630 l0
-595 27 -42 c16 -23 42 -49 59 -58 41 -21 106 -21 149 0 110 53 987 575 1002
597 41 55 41 143 0 198 -16 23 -917 560 -997 595 -45 20 -76 24 -114 16z"/>
</g>
</svg>
