<svg xmlns="http://www.w3.org/2000/svg" viewBox="0 0 24 24" xmlns:v="https://vecta.io/nano"><path d="M16.101.026h-.2c-2.1.4-3.2 2.6-3.3 4.6-.2 1.8.5 4.1 2.4 4.5.3.1.6 0 .8 0 2.3-.8 3.3-3.6 3-6 0-1.5-1.1-3.1-2.7-3.1zm-8.7.1c-1.3 0-2.3 1.4-2.5 2.6-.4 2.5.7 5.6 3.2 6.4.2.1.5.1.7 0 1.7-.3 2.4-2.3 2.3-3.9-.1-2.1-1.1-4.5-3.2-5.1h-.5zm14.3 7.1c-2.2.1-3.7 2.4-3.9 4.6-.3 1.5.5 3.6 2.2 3.7 2.4 0 4-2.6 4-4.9.1-1.5-.7-3.3-2.3-3.4zm-19.3.5c-.9 0-1.9.6-2.2 1.6-.8 2.7.8 6 3.5 6.6 1.1.2 2.1-.7 2.4-1.8.6-2.3-.6-5-2.7-6.1a1.93 1.93 0 0 0-1-.3zm9.9 4.7c-1.8 0-3.7 1-4.9 2.4-1.3 1.7-2.3 3.6-2.8 5.8-.5 1.5.6 3.3 2.2 3.3 1.9.1 3.5-1.3 5.4-1.4 1.6-.3 3 .6 4.5 1.2 1.2.5 2.9.3 3.5-1 .5-1.4-.2-2.9-.8-4.1-1.2-2-2.5-4.1-4.5-5.4-.8-.6-1.7-.9-2.6-.8z" fill="#fff"/></svg>