<svg width="29" height="36" viewBox="0 0 29 36" fill="none" xmlns="http://www.w3.org/2000/svg">
<path d="M17.3058 0.804688H11.2411C9.23458 0.804688 7.58212 2.32039 7.36618 4.26929L4.30991 4.27026C2.15667 4.27026 0.411133 6.01581 0.411133 8.16904V31.5617C0.411133 33.7148 2.15667 35.4604 4.30991 35.4604H24.237C26.3901 35.4604 28.1357 33.7148 28.1357 31.5617V8.16904C28.1357 6.01581 26.3901 4.27026 24.237 4.27026L21.1807 4.26929C20.9648 2.32039 19.3122 0.804688 17.3058 0.804688ZM11.2411 3.40387H17.3058C18.0235 3.40387 18.6054 3.98572 18.6054 4.70346C18.6054 5.4212 18.0235 6.00305 17.3058 6.00305H11.2411C10.5233 6.00305 9.94147 5.4212 9.94147 4.70346C9.94147 3.98572 10.5233 3.40387 11.2411 3.40387ZM22.9899 16.4523L13.4595 25.9826C12.952 26.4902 12.1293 26.4902 11.6218 25.9826L7.28973 21.6506C6.78221 21.1431 6.78221 20.3204 7.28973 19.8129C7.79725 19.3053 8.62011 19.3053 9.12763 19.8129L12.5406 23.2258L21.1521 14.6144C21.6596 14.1069 22.4823 14.1069 22.9899 14.6144C23.4974 15.122 23.4974 15.9448 22.9899 16.4523Z" fill="#00645C"/>
</svg>
