<svg xmlns="http://www.w3.org/2000/svg" viewBox="0 0 24 24" fill="#fff" xmlns:v="https://vecta.io/nano"><path d="M21.6 3v-.2h0c-.1-1.3-.9-2.4-2.1-2.7h0L19 0h0 0H5h0c-.3 0-.5.1-.7.2h0 0c-1 .4-1.7 1.4-1.8 2.5h0 0V3v18 .2h0 0c.1 1.6 1.3 2.8 2.7 2.8h0 0H14v-2H5.2c-.6 0-1-.6-1-1.2v-.1h0V3.2h0c0-.7.5-1.2 1-1.2h0 0 13.5 0 0c.1 0 .2 0 .3.1h0 0c.5.1.8.6.8 1.2h0 0v11.1h1.8V3.3h0V3zM12 17.7h0 0zm7.2-1.7h0 0zm-5.1 5.7h0 0zm5.9 1.7h0 0z"/><path d="M21.3 21.9h0l-1.2-1.2h0c-.1-.1-.3-.3-.5-.4l.3-.6h0 0c.2-.5.3-1 .3-1.6 0-.8-.2-1.5-.6-2.1-.7-1.1-1.9-1.7-3.2-1.7h-.2-.2 0 0c-.2 0-.4.1-.6.1h0 0c-1.5.4-2.6 1.7-2.8 3.3h0v.4c0 1.5.8 2.8 2.1 3.5.5.3 1.1.4 1.7.4.2 0 .5 0 .7-.1h0 0c.5-.1 1-.3 1.5-.6.1.1.1.2.2.3h0 0l1.4 1.4h0 0c.1.1.2.1.3.2.1 0 .2.1.3.1.3 0 .7-.2.8-.5h0 0c0-.1.1-.2.1-.3-.1-.2-.2-.5-.4-.6zm-7-3.8h0c0-1.2 1-2.1 2.1-2.1h0 .1c.4 0 .7.2 1 .3h0 0c.4.2.7.6.9 1.1h0 0c.1.3.2.5.2.8 0 .9-.5 1.7-1.4 2h0 0c-.3.1-.5.2-.8.2-.8 0-1.6-.5-1.9-1.2h0 0c-.2-.3-.2-.7-.2-1v-.1h0 0zM6.2 5.3c0 .5.3 1 .8 1.1h0 9.7 0c.1 0 .3 0 .4-.1a1.1 1.1 0 0 0 .6-1c0-.1 0-.3-.1-.4h0 0c-.2-.4-.5-.7-.9-.7h0 0-4.8-5 0c-.3.2-.6.5-.7.9h0v.2z"/><path d="M17.1 6.3h0 0zm-3.2 5.1c.5-.1.9-.6.9-1.1v-.1h0 0c-.1-.5-.5-.9-1-.9h0 0-6.9 0c-.5.1-.8.6-.8 1.1v.2h0 0c.1.5.5.9 1 .9h0 3.3 0l3.5-.1h0zM7 16h0 1.7 1.7 0 0c.5 0 .9-.4 1-1h0v-.1h0 0 0c0-.6-.4-1.1-.9-1.1h0-3.7 0c-.3.1-.6.5-.6.9h0v.2c0 .5.3 1 .8 1.1z"/></svg>