<?xml version="1.0" encoding="utf-8"?>
<!-- Generator: Adobe Illustrator 23.1.1, SVG Export Plug-In . SVG Version: 6.00 Build 0)  -->
<svg version="1.1" id="a65a18e9-8493-4b12-80b2-10889163f1fc"
	 xmlns="http://www.w3.org/2000/svg" xmlns:xlink="http://www.w3.org/1999/xlink" x="0px" y="0px" viewBox="0 0 24 24"
	 style="enable-background:new 0 0 24 24;" xml:space="preserve">
<title>review_icon_24px</title>
<g fill="white">
	<path d="M21.6,3l0-0.2v0c-0.1-1.3-0.9-2.4-2.1-2.7l0,0L19,0l0,0h0H5l0,0C4.7,0,4.5,0.1,4.3,0.2l0,0l0,0c-1,0.4-1.7,1.4-1.8,2.5l0,0
		v0c0,0.1,0,0.2,0,0.3v18v0.2v0l0,0C2.6,22.8,3.8,24,5.2,24h0h0h8.8v-2H5.2c-0.6,0-1-0.6-1-1.2l0-0.1l0,0V3.2v0C4.2,2.5,4.7,2,5.2,2
		l0,0l0,0h13.5h0h0c0.1,0,0.2,0,0.3,0.1l0,0l0,0c0.5,0.1,0.8,0.6,0.8,1.2l0,0l0,0v11.1h1.8V3.3l0,0L21.6,3z"/>
	<polygon points="12,17.7 12,17.7 12,17.7 	"/>
	<polygon points="19.2,16 19.2,16 19.2,16 	"/>
	<polygon points="14.1,21.7 14.1,21.7 14.1,21.7 	"/>
	<polygon points="20,23.4 20,23.4 20,23.4 	"/>
	<path d="M21.3,21.9L21.3,21.9l-1.2-1.2l0,0c-0.1-0.1-0.3-0.3-0.5-0.4c0.1-0.2,0.2-0.4,0.3-0.6l0,0l0,0c0.2-0.5,0.3-1,0.3-1.6
		c0-0.8-0.2-1.5-0.6-2.1c-0.7-1.1-1.9-1.7-3.2-1.7l-0.2,0H16h0l0,0c-0.2,0-0.4,0.1-0.6,0.1l0,0l0,0c-1.5,0.4-2.6,1.7-2.8,3.3v0
		c0,0.1,0,0.3,0,0.4c0,1.5,0.8,2.8,2.1,3.5c0.5,0.3,1.1,0.4,1.7,0.4c0.2,0,0.5,0,0.7-0.1l0,0l0,0c0.5-0.1,1-0.3,1.5-0.6
		c0.1,0.1,0.1,0.2,0.2,0.3l0,0l0,0c0.5,0.5,1,1,1.4,1.4l0,0l0,0c0.1,0.1,0.2,0.1,0.3,0.2c0.1,0,0.2,0.1,0.3,0.1
		c0.3,0,0.7-0.2,0.8-0.5l0,0c0,0,0,0,0,0c0,0,0,0,0,0l0,0c0-0.1,0.1-0.2,0.1-0.3C21.6,22.3,21.5,22,21.3,21.9z M14.3,18.1L14.3,18.1
		c0-1.2,1-2.1,2.1-2.1v0l0.1,0c0.4,0,0.7,0.2,1,0.3l0,0l0,0c0.4,0.2,0.7,0.6,0.9,1.1l0,0l0,0c0.1,0.3,0.2,0.5,0.2,0.8
		c0,0.9-0.5,1.7-1.4,2l0,0l0,0c-0.3,0.1-0.5,0.2-0.8,0.2c-0.8,0-1.6-0.5-1.9-1.2l0,0l0,0c-0.2-0.3-0.2-0.7-0.2-1L14.3,18.1
		L14.3,18.1L14.3,18.1z"/>
	<path d="M6.2,5.3c0,0.5,0.3,1,0.8,1.1l0,0h9.7l0,0c0.1,0,0.3,0,0.4-0.1c0.4-0.2,0.6-0.6,0.6-1c0-0.1,0-0.3-0.1-0.4l0,0l0,0
		c-0.2-0.4-0.5-0.7-0.9-0.7l0,0l0,0h-4.8H6.9l0,0C6.6,4.4,6.3,4.7,6.2,5.1v0L6.2,5.3z"/>
	<polygon points="17.1,6.3 17.1,6.3 17.1,6.3 	"/>
	<path d="M13.9,11.4c0.5-0.1,0.9-0.6,0.9-1.1l0-0.1l0,0l0,0c-0.1-0.5-0.5-0.9-1-0.9l0,0v0H6.9l0,0c-0.5,0.1-0.8,0.6-0.8,1.1l0,0.2
		l0,0l0,0c0.1,0.5,0.5,0.9,1,0.9l0,0h3.3h0L13.9,11.4L13.9,11.4z"/>
	<path d="M7,16L7,16l1.7,0l1.7,0h0h0c0.5,0,0.9-0.4,1-1l0,0v-0.1v0v0v0c0-0.6-0.4-1.1-0.9-1.1l0,0H6.8l0,0c-0.3,0.1-0.6,0.5-0.6,0.9
		l0,0l0,0.2C6.2,15.4,6.5,15.9,7,16z"/>
</g>
</svg>
