<?xml version="1.0" standalone="no"?>
<!DOCTYPE svg PUBLIC "-//W3C//DTD SVG 20010904//EN"
 "http://www.w3.org/TR/2001/REC-SVG-20010904/DTD/svg10.dtd">
<svg version="1.0" xmlns="http://www.w3.org/2000/svg"
 width="666.000000pt" height="666.000000pt" viewBox="0 0 666.000000 666.000000"
 preserveAspectRatio="xMidYMid meet">
<metadata>
Created by potrace 1.14, written by Peter Selinger 2001-2017
</metadata>
<g transform="translate(0.000000,666.000000) scale(0.100000,-0.100000)"
fill="#000000" stroke="none">
<path d="M3014 6052 c-532 -400 -1272 -971 -1298 -1003 -33 -38 -33 -54 0 -84
49 -46 1177 -918 1452 -1123 71 -53 133 -92 146 -92 13 0 31 9 41 20 17 19 17
23 2 79 -9 32 -77 215 -152 406 -106 272 -133 350 -123 357 7 5 121 7 258 4
200 -3 263 -8 343 -25 577 -126 1046 -523 1262 -1070 123 -311 150 -715 69
-1034 -90 -358 -274 -660 -547 -898 -420 -367 -965 -506 -1517 -387 -312 67
-579 211 -819 443 -322 311 -491 666 -531 1118 -5 62 -10 147 -10 190 l0 77
-385 0 -385 0 5 -42 c2 -24 7 -104 10 -179 14 -378 101 -716 268 -1044 130
-255 282 -460 490 -661 370 -358 812 -582 1328 -674 173 -31 531 -39 709 -16
459 60 888 240 1252 526 112 88 298 274 390 390 221 278 392 620 477 952 55
215 66 317 66 613 0 313 -13 414 -80 661 -254 924 -1034 1633 -1976 1794 -103
18 -259 31 -562 46 -113 5 -128 8 -124 23 2 9 73 191 156 404 122 313 149 391
141 407 -10 19 -40 40 -57 40 -5 0 -139 -98 -299 -218z"/>
<path d="M2840 2995 l0 -464 48 20 c142 61 381 82 507 45 168 -50 258 -149
287 -314 31 -180 -60 -358 -217 -427 -152 -68 -431 -54 -624 31 -83 37 -81 40
-81 -92 l0 -115 33 -14 c19 -8 81 -24 138 -36 88 -19 135 -23 309 -23 196 0
209 1 285 27 205 68 338 204 391 397 13 47 18 100 18 190 -1 108 -4 136 -27
206 -80 243 -279 388 -552 401 -89 5 -130 1 -237 -23 l-28 -6 0 221 0 221 355
0 355 0 0 110 0 110 -480 0 -480 0 0 -465z"/>
</g>
</svg>
