<svg xmlns="http://www.w3.org/2000/svg" width="778.667" height="778.667" viewBox="0 0 584 584" preserveAspectRatio="xMidYMid meet" xmlns:v="https://vecta.io/nano"><path d="M287 15.7c-5.3 2.3-10.8 4.8-19 8.6-4.1 1.9-10 4.5-13 5.7a386.21 386.21 0 0 0-10 4.2c-2.5 1.1-6.3 2.9-8.5 3.9-2.2.9-7.4 3.3-11.5 5.2L207.7 51c-11.1 4.9-13.7 7.4-13.7 13.2 0 7.6 4.4 12.5 18.5 20.8 5 2.9 10.1 6.3 11.5 7.5s6.4 4.5 11.2 7.4 9 5.6 9.3 6.1c.3.4 4.9 3.6 10.2 6.9l12.3 8c1.4 1.1 7.3 4.9 13.2 8.5 12.3 7.6 15.3 8.2 19.9 3.7 2.9-2.9 2.9-3.1 2.9-14.5V107l5.8.6c29.7 3 55.8 11.1 79.2 24.5 15.5 8.8 26.8 17.6 40.5 31.3 27.5 27.7 43.8 59.5 51.2 99.6 1.2 6.9 1.7 14.8 1.7 29s-.5 22.1-1.7 29c-5.5 29.8-15.5 54-32.5 78-8.2 11.6-27.6 31.3-39.5 40.2-23.8 17.6-51.3 29.4-81.7 35-16.5 3.1-48.5 3.1-65 0-38.7-7.1-71.4-23.6-99.1-50-32.4-30.8-52-71.8-56.1-117.2l-1.2-13H75.2 45.7l.7 11.2c4.1 66.2 30.4 124.5 76.2 168.8 37.6 36.4 83.5 59.1 135.9 67.2 19.8 3 51.2 3 71 0 70.8-10.9 130.9-49.3 170.5-108.9 49.5-74.5 55.3-169.6 15.3-251.1-31.3-63.7-90-111.6-158.6-129.7-13.9-3.7-36.6-7.5-44.7-7.5-9.2 0-9 .3-9-12.7 0-11.3 0-11.5-2.9-14.4-3.4-3.3-7.5-3.7-13.1-1.2zM244 251v39.9l6.8-2.5c18.7-7.1 37.2-7.1 50.5-.1 6.9 3.6 11.1 8.1 14.6 15.7 2.2 4.8 2.6 6.8 2.6 15.5s-.4 10.7-2.6 15.5c-3.6 7.7-8 12.4-15 15.9-8.5 4.2-15.6 5.5-27.4 4.8-11.7-.8-19.2-2.6-29.2-7.2l-7.3-3.4V356v10.9l4.9 1.5c13.5 4 21.6 5.1 37.6 5 14-.1 17-.4 24.2-2.6 24.1-7.3 37.3-25.4 37.3-51.3 0-25.6-13.9-45.1-37-51.9-10.6-3.2-28.3-3.1-36.6.1-1.2.4-1.4-2.7-1.4-19.1V229h31.5H329v-9-9h-42.5H244v40z"/></svg>