<?xml version="1.0" standalone="no"?>
<!DOCTYPE svg PUBLIC "-//W3C//DTD SVG 20010904//EN"
 "http://www.w3.org/TR/2001/REC-SVG-20010904/DTD/svg10.dtd">
<svg version="1.0" xmlns="http://www.w3.org/2000/svg"
 width="584.000000pt" height="584.000000pt" viewBox="0 0 584.000000 584.000000"
 preserveAspectRatio="xMidYMid meet">
<metadata>
Created by potrace 1.14, written by Peter Selinger 2001-2017
</metadata>
<g transform="translate(0.000000,584.000000) scale(0.100000,-0.100000)"
fill="#000000" stroke="none">
<path d="M2870 5683 c-53 -23 -108 -48 -190 -86 -41 -19 -100 -45 -130 -57
-30 -12 -75 -31 -100 -42 -25 -11 -63 -29 -85 -39 -22 -9 -74 -33 -115 -52
-41 -19 -119 -54 -173 -77 -111 -49 -137 -74 -137 -132 0 -76 44 -125 185
-208 50 -29 101 -63 115 -75 14 -12 64 -45 112 -74 48 -29 90 -56 93 -61 3 -4
49 -36 102 -69 54 -34 109 -70 123 -80 14 -11 73 -49 132 -85 123 -76 153 -82
199 -37 29 29 29 31 29 145 l0 116 58 -6 c297 -30 558 -111 792 -245 155 -88
268 -176 405 -313 275 -277 438 -595 512 -996 12 -69 17 -148 17 -290 0 -142
-5 -221 -17 -290 -55 -298 -155 -540 -325 -780 -82 -116 -276 -313 -395 -402
-238 -176 -513 -294 -817 -350 -165 -31 -485 -31 -650 0 -387 71 -714 236
-991 500 -324 308 -520 718 -561 1172 l-12 130 -294 0 -295 0 7 -112 c41 -662
304 -1245 762 -1688 376 -364 835 -591 1359 -672 198 -30 512 -30 710 0 708
109 1309 493 1705 1089 495 745 553 1696 153 2511 -313 637 -900 1116 -1586
1297 -139 37 -366 75 -447 75 -92 0 -90 -3 -90 127 0 113 0 115 -29 144 -34
33 -75 37 -131 12z"/>
<path d="M2440 3330 l0 -399 68 25 c187 71 372 71 505 1 69 -36 111 -81 146
-157 22 -48 26 -68 26 -155 0 -87 -4 -107 -26 -155 -36 -77 -80 -124 -150
-159 -85 -42 -156 -55 -274 -48 -117 8 -192 26 -292 72 l-73 34 0 -109 0 -109
49 -15 c135 -40 216 -51 376 -50 140 1 170 4 242 26 241 73 373 254 373 513 0
256 -139 451 -370 519 -106 32 -283 31 -366 -1 -12 -4 -14 27 -14 191 l0 196
315 0 315 0 0 90 0 90 -425 0 -425 0 0 -400z"/>
</g>
</svg>
