<?xml version="1.0" standalone="no"?>
<!DOCTYPE svg PUBLIC "-//W3C//DTD SVG 20010904//EN"
 "http://www.w3.org/TR/2001/REC-SVG-20010904/DTD/svg10.dtd">
<svg version="1.0" xmlns="http://www.w3.org/2000/svg"
 width="620.000000pt" height="620.000000pt" viewBox="0 0 620.000000 620.000000"
 preserveAspectRatio="xMidYMid meet">
<metadata>
Created by potrace 1.14, written by Peter Selinger 2001-2017
</metadata>
<g transform="translate(0.000000,620.000000) scale(0.100000,-0.100000)"
fill="#000000" stroke="none">
<path d="M2507 5619 c-22 -12 -43 -33 -52 -52 -7 -18 -34 -176 -60 -352 -25
-176 -48 -330 -50 -341 -3 -15 -29 -33 -88 -62 -47 -22 -139 -76 -206 -121
-67 -45 -128 -84 -136 -87 -8 -3 -157 54 -332 126 -270 112 -324 131 -356 127
-81 -11 -88 -21 -367 -510 -290 -506 -282 -488 -226 -562 14 -18 145 -124 292
-236 l267 -203 -9 -80 c-11 -103 -12 -338 -1 -392 l8 -42 -275 -222 c-176
-143 -279 -233 -287 -251 -6 -16 -9 -44 -7 -62 2 -21 105 -212 263 -490 278
-488 277 -487 354 -487 17 0 177 59 356 130 179 72 329 130 333 130 5 0 49
-27 98 -59 49 -33 146 -89 217 -126 70 -37 127 -71 127 -76 0 -17 100 -664
106 -681 3 -9 19 -29 35 -43 l31 -25 556 0 c541 0 558 1 590 20 18 11 39 35
46 53 7 17 34 176 61 352 26 176 52 326 58 333 5 7 51 33 101 58 112 57 205
111 271 158 27 20 54 36 60 36 5 0 157 -59 338 -131 354 -142 368 -145 421
-96 33 30 544 931 552 972 13 69 33 51 -491 415 l-137 95 9 70 c10 87 11 358
0 405 l-7 36 275 223 c152 123 280 233 287 244 30 57 22 75 -253 557 -240 420
-267 464 -299 477 -22 10 -49 13 -75 9 -22 -3 -179 -62 -350 -131 -170 -69
-314 -125 -320 -125 -5 0 -50 27 -99 60 -50 34 -146 89 -215 124 l-126 64 -49
322 c-27 177 -50 341 -51 365 -1 24 -8 51 -15 60 -37 45 -40 45 -602 45 -513
-1 -534 -2 -571 -21z m735 -1653 c328 -65 586 -297 694 -626 26 -79 28 -96 28
-250 0 -154 -2 -171 -28 -250 -215 -653 -997 -854 -1477 -380 -164 161 -253
357 -266 580 -14 257 73 484 257 670 213 216 508 311 792 256z"/>
</g>
</svg>
