<svg width="33" height="35" viewBox="0 0 33 35" fill="none" xmlns="http://www.w3.org/2000/svg">
<path d="M14.6528 8.098C16.664 8.098 18.2946 6.46752 18.2946 4.45623C18.2946 2.44493 16.664 0.814453 14.6528 0.814453C12.6416 0.814453 11.011 2.44493 11.011 4.45623C11.011 6.46752 12.6416 8.098 14.6528 8.098ZM5.18382 4.33974C3.33357 3.55435 1.18942 4.41154 0.390533 6.25599C-0.411111 8.10683 0.4455 10.2495 2.30213 11.0376L7.19619 13.115C7.79407 13.3688 8.18233 13.9554 8.18233 14.605V19.5246L5.14108 28.3571C4.48625 30.2588 5.49708 32.3314 7.3988 32.9861C9.3005 33.6409 11.373 32.6301 12.0278 30.7283L13.1501 27.469C13.0737 26.9579 13.0342 26.4346 13.0342 25.9022C13.0342 20.9261 16.4891 16.7569 21.1308 15.6622V14.6016C21.1308 13.952 21.5191 13.3654 22.117 13.1117L27.0031 11.0376C28.8598 10.2495 29.7165 8.10683 28.9148 6.25599C28.1159 4.41154 25.9718 3.55435 24.1214 4.33974L21.522 5.44312C20.9705 5.67719 20.586 6.1275 20.3974 6.62619C19.5201 8.94774 17.2773 10.5954 14.6528 10.5954C12.0281 10.5954 9.78531 8.94775 8.90797 6.62624C8.7195 6.12756 8.33485 5.67726 7.78342 5.4432L5.18382 4.33974ZM32.457 25.9022C32.457 30.8188 28.4715 34.8044 23.5549 34.8044C18.6384 34.8044 14.6528 30.8188 14.6528 25.9022C14.6528 20.9857 18.6384 17.0001 23.5549 17.0001C28.4715 17.0001 32.457 20.9857 32.457 25.9022ZM28.9829 22.0928C28.6668 21.7768 28.1544 21.7768 27.8383 22.0928L21.9363 27.9949L19.2715 25.3299C18.9554 25.014 18.443 25.014 18.1269 25.3299C17.8109 25.646 17.8109 26.1585 18.1269 26.4746L21.364 29.7117C21.6801 30.0276 22.1926 30.0276 22.5087 29.7117L28.9829 23.2374C29.2989 22.9213 29.2989 22.4089 28.9829 22.0928Z" fill="#00645C"/>
</svg>
