<svg xmlns="http://www.w3.org/2000/svg" width="18" height="18" fill="#00829b" xmlns:v="https://vecta.io/nano"><path d="M16 8c0 .47-.041.931-.119 1.38-.198.078-.384.197-.544.358L12 13.073l-.045-.045A6.39 6.39 0 0 0 14.4 8 6.41 6.41 0 0 0 8 1.6c-1.969 0-3.723.9-4.898 2.302L4.8 5.6H0V.8l1.977 1.977C3.444 1.084 5.591 0 8 0a8.01 8.01 0 0 1 8 8zm-8 8a8.01 8.01 0 0 1-8-8h1.6c0 3.022 2.106 5.563 4.928 6.23a1.59 1.59 0 0 0 .341.502l1.267 1.267L8 16zm.8-12.8v4.469l2.166 2.166-1.131 1.131L7.2 8.331V3.2h1.6zM12.75 18L9 13.84l1.061-1.176 2.689 2.983L16.939 11 18 12.176z"/></svg>