<?xml version="1.0" encoding="UTF-8"?>
<svg width="18px" height="18px" viewBox="0 0 18 18" version="1.1" xmlns="http://www.w3.org/2000/svg" xmlns:xlink="http://www.w3.org/1999/xlink">
    <!-- Generator: sketchtool 53.2 (72643) - https://sketchapp.com -->
    <title>51EA3A70-CB55-468B-A003-EDCD03143B0F</title>
    <desc>Created with sketchtool.</desc>
    <g id="Improvements-tab" stroke="none" stroke-width="1" fill="none" fill-rule="evenodd">
        <g id="Improvements-tab--v5" transform="translate(-713.000000, -185.000000)" fill="#00829B" fill-rule="nonzero">
            <g id="Group-72" transform="translate(0.000000, 142.000000)">
                <g id="Group-67" transform="translate(713.000000, 43.000000)">
                    <g id="icons8-time-machine">
                        <path d="M16,8 C16,8.4703124 15.9593752,8.93125 15.88125,9.3796876 C15.6828124,9.4578124 15.4968752,9.5765624 15.3375,9.7375 L12,13.0734376 L11.9546876,13.0281248 C13.44375,11.8546876 14.4,10.0375 14.4,8 C14.4,4.4718752 11.5281248,1.6 8,1.6 C6.03125,1.6 4.2765624,2.5 3.1015624,3.9015624 L4.8,5.6 L0,5.6 L0,0.8 L1.9765624,2.7765624 C3.44375,1.0843752 5.5906248,0 8,0 C12.4109376,0 16,3.5890624 16,8 Z M8,16 C3.5890624,16 0,12.4109376 0,8 L1.6,8 C1.6,11.0218752 3.70625,13.5625 6.5281248,14.2296876 C6.60625,14.4125 6.7203124,14.5828124 6.86875,14.73125 L8.1359376,15.9984376 C8.0906248,16 8.0453124,16 8,16 Z M8.8,3.2 L8.8,7.66875 L10.9656248,9.8343752 L9.8343752,10.9656248 L7.2,8.33125 L7.2,3.2 L8.8,3.2 Z" id="Shape"></path>
                        <polygon id="Path" points="12.75 18 9 13.8402971 10.0605469 12.6638812 12.75 15.6471681 16.9394531 11 18 12.176416"></polygon>
                    </g>
                </g>
            </g>
        </g>
    </g>
</svg>

