<svg id="b8cc682b-b319-4604-818a-8f4d7fdc7de9" data-name="Layer 1" xmlns="http://www.w3.org/2000/svg" viewBox="0 0 24 24">
  <defs>
    <style>
      .a9fed3cc-b2bf-4ca4-a00a-f35299abe190 {
        fill: white;
      }
    </style>
  </defs>
  <title>train_icon_24px</title>
  <g>
    <path class="a9fed3cc-b2bf-4ca4-a00a-f35299abe190" d="M23.33,11.65a7.8,7.8,0,0,0,.67-3,5.58,5.58,0,0,0-3.42-5.05h0a2,2,0,0,1-.7-.58h0A4.91,4.91,0,0,0,15.76.77a4.57,4.57,0,0,0-1,.1h0l-.3,0a2.28,2.28,0,0,1-1-.24h0a5.15,5.15,0,0,0-5.93.63h0a1.85,1.85,0,0,1-.87.38h0A4.72,4.72,0,0,0,2.73,4.48h0A1.61,1.61,0,0,1,2.25,5h0a4.7,4.7,0,0,0-2,5.13h0a2.92,2.92,0,0,1,0,.51,2.82,2.82,0,0,1-.09.71h0A4.9,4.9,0,0,0,.9,15.57h0A5.27,5.27,0,0,0,5.34,18a4.35,4.35,0,0,0,.51,0h0a4,4,0,0,1,.91-.1,4.39,4.39,0,0,1,2.06.51h0a2.88,2.88,0,0,0,1.29.3h.26c.4,0,.79-.05,1.16-.05a2.13,2.13,0,0,1,1.74.67h0a.54.54,0,0,0,.37.13h.21A1.16,1.16,0,0,1,15,20a5.49,5.49,0,0,1,.56,1.35c.16.46.33.91.48,1.36l0,.11h0A1.61,1.61,0,0,0,17.57,24a1.52,1.52,0,0,0,.42-.06,6.66,6.66,0,0,0,2.38-1.15h0A2.26,2.26,0,0,0,21.31,21,2.19,2.19,0,0,0,21,19.9h0c-.17-.48-.37-1-.57-1.46a5.67,5.67,0,0,0,2.71-4.83,6,6,0,0,0-.05-.74h0v-.09a3.1,3.1,0,0,1,.21-1.13ZM22,10s0,.05,0,.08a5.8,5.8,0,0,0-4-2h-.21a1.19,1.19,0,0,0-.63.14.7.7,0,0,0-.35.64V9a1,1,0,0,0,.39.61,2,2,0,0,0,.59.38c.61.27,1.24.29,1.71.52a3.39,3.39,0,0,1,1.85,3,3.52,3.52,0,0,1,0,.56v0h0A3,3,0,0,1,18.66,17h-.05a4.22,4.22,0,0,0-.45.18l-.22.1.09.22c.42,1,.87,1.93,1.2,2.9a1.53,1.53,0,0,1,.06.47,1.45,1.45,0,0,1,0,.32l0,.1v0a5.46,5.46,0,0,1-1.42.68,2,2,0,0,1-.2-.35h0c-.39-1-.75-2-1.14-3h0a1.34,1.34,0,0,0-1.29-1l-.21,0a4.3,4.3,0,0,1-.87-.1,29.8,29.8,0,0,1,1.78-2.72,2.61,2.61,0,0,1,1.33-.73h0a2.29,2.29,0,0,0,.62-.22.69.69,0,0,0,.36-.61,1,1,0,0,0,0-.29v0A1.45,1.45,0,0,0,17,12.23h0a3.62,3.62,0,0,0-3.07,2.32h0a3.58,3.58,0,0,1-6.62,0h0a2.38,2.38,0,0,1-.12-.33.92.92,0,0,0-.25-.4,3.07,3.07,0,0,0-.4-.26A1,1,0,0,0,6,13.44l-.2,0h0l0,0a1.24,1.24,0,0,0-.44,1v.17A9.65,9.65,0,0,0,5.85,16c-.13,0-.26.05-.4.06H5.32a3.48,3.48,0,0,1-3.47-3.34h0v-.15A1.58,1.58,0,0,1,3.27,11c.21,0,.42,0,.62,0a9.89,9.89,0,0,1,1.54.12h0a2.22,2.22,0,0,0,.37,0A.89.89,0,0,0,6.39,11a.74.74,0,0,0,.29-.63v-.05a1.4,1.4,0,0,0-.79-1h0a5.45,5.45,0,0,0-1.78-.3,5.57,5.57,0,0,0-2,.39A2.24,2.24,0,0,1,2,8.76,2.41,2.41,0,0,1,3.28,6.63h0a3,3,0,0,0,1-1.16h0A3.07,3.07,0,0,1,7.07,3.61h0A2.64,2.64,0,0,0,8.48,3h0a3.88,3.88,0,0,1,2.45-1.08,2.41,2.41,0,0,1,1,.25c-.42.93-.86,1.86-1.25,2.81a2.31,2.31,0,0,1-.4.72,1.07,1.07,0,0,1-.66.33h0a.81.81,0,0,0-.51.38c-.11.16-.22.33-.31.44l-.17.19.2.16a4,4,0,0,1,.38.36.88.88,0,0,0,.54.28h.1a13.09,13.09,0,0,0,2-.68,6.4,6.4,0,0,0,1.27.45h.09a.87.87,0,0,0,.52-.24c.14-.11.27-.22.38-.29L14.35,7l-.12-.2c-.07-.12-.14-.29-.22-.45a1,1,0,0,0-.39-.46h0A2.13,2.13,0,0,1,13,5.35a.8.8,0,0,1-.2-.53,1.49,1.49,0,0,1,.46-1h0a2.91,2.91,0,0,1,.64-.57,3.2,3.2,0,0,1,1.84-.57A3.26,3.26,0,0,1,18.4,4.16h0a3.21,3.21,0,0,0,1.23,1.08h0c1.7.84,2.53,2,2.54,3.47A4.39,4.39,0,0,1,22,10Z"/>
    <polygon class="a9fed3cc-b2bf-4ca4-a00a-f35299abe190" points="17.99 23.94 17.99 23.94 17.99 23.95 17.99 23.94"/>
    <polygon class="a9fed3cc-b2bf-4ca4-a00a-f35299abe190" points="16.75 8.97 16.75 8.97 16.75 8.97 16.75 8.97"/>
    <polygon class="a9fed3cc-b2bf-4ca4-a00a-f35299abe190" points="17.93 8.08 17.93 8.08 17.93 8.08 17.93 8.08"/>
    <path class="a9fed3cc-b2bf-4ca4-a00a-f35299abe190" d="M13.65,9.55a1.09,1.09,0,0,0-.45-.24h0a3.55,3.55,0,0,0-.46,0h-.1a2.91,2.91,0,0,0-2.82,2.91v.09h0v0s0,.14,0,.24a.73.73,0,0,0,.11.43h0a4.86,4.86,0,0,0,.81.76l.18.15.15-.18c.1-.12.26-.26.41-.41a1,1,0,0,0,.34-.58c0-.34.06-.59.1-.77s.1-.31.25-.41a5.16,5.16,0,0,1,1.06-.33h0a1.36,1.36,0,0,0,.85-.91v-.06h0a.68.68,0,0,0-.1-.33A1.37,1.37,0,0,0,13.65,9.55Z"/>
  </g>
</svg>
