<?xml version="1.0" encoding="utf-8"?>
<!-- Generator: Adobe Illustrator 18.1.1, SVG Export Plug-In . SVG Version: 6.00 Build 0)  -->
<svg version="1.1" id="Layer_1" xmlns="http://www.w3.org/2000/svg" xmlns:xlink="http://www.w3.org/1999/xlink" x="0px" y="0px"
	 viewBox="0 0 271.9 246.1" enable-background="new 0 0 271.9 246.1" xml:space="preserve">
<path d="M145.1,145.1c2.5-2.5,3.8-5.7,3.8-9.2c0-3.5-1.4-6.7-3.8-9.2L119.4,101c5-2.4,10.7-3.7,16.6-3.7c21.4,0,38.7,17.4,38.7,38.7
	s-17.4,38.7-38.7,38.7s-38.7-17.4-38.7-38.7c0-5.9,1.3-11.6,3.7-16.6l25.8,25.8c2.5,2.5,5.7,3.8,9.2,3.8
	C139.4,148.9,142.7,147.6,145.1,145.1z M31.4,60.9h21.1l79.3,79.3c1.2,1.2,2.7,1.8,4.2,1.8s3.1-0.6,4.2-1.8c2.3-2.3,2.3-6.1,0-8.5
	L60.9,52.4V31.4L31.4,1.8v27.4c-0.4,0.3-0.9,0.5-1.2,0.9c-0.4,0.4-0.7,0.8-0.9,1.2H1.8L31.4,60.9z M251.1,55.4l-34.6,0V20.8l-25.4,0
	l0,34.6l-34.6,0l0,25.4l34.6,0l0,34.6l25.4,0l0-34.6l34.6,0L251.1,55.4z M135.9,45.4v-15c-24.5,0-47,8.3-64.9,22.3l10.7,10.7
	C96.9,52.1,115.7,45.4,135.9,45.4z M226.5,135.9L226.5,135.9c0,49.9-40.6,90.6-90.6,90.6s-90.6-40.6-90.6-90.6
	c0-20.3,6.7-39,18-54.2L52.7,71.1c-14,17.9-22.3,40.4-22.3,64.9c0,58.3,47.3,105.6,105.6,105.6s105.6-47.3,105.6-105.6v0H226.5z
	 M135.9,75.6v-15c-16.1,0-31,5.1-43.3,13.7l10.8,10.8C112.9,79.1,124,75.6,135.9,75.6z M135.9,196.3c-33.3,0-60.4-27.1-60.4-60.4
	c0-11.9,3.5-23.1,9.5-32.5L74.3,92.7c-8.6,12.3-13.7,27.2-13.7,43.3c0,41.6,33.7,75.4,75.4,75.4s75.4-33.7,75.4-75.4h-15
	C196.3,169.2,169.2,196.3,135.9,196.3z"/>
<rect x="0" y="0" fill="none" width="271.9" height="246.1"/>
</svg>
