<?xml version="1.0" encoding="utf-8"?>
<!-- Generator: Adobe Illustrator 18.1.1, SVG Export Plug-In . SVG Version: 6.00 Build 0)  -->
<svg version="1.1" id="Layer_1" xmlns="http://www.w3.org/2000/svg" xmlns:xlink="http://www.w3.org/1999/xlink" x="0px" y="0px"
	 viewBox="0 316.7 611.7 158.8" enable-background="new 0 316.7 611.7 158.8" xml:space="preserve">
<g>
	<path fill="#015D53" d="M200.4,391.2h-11.1v-11.1c0-2.6-2.1-4.7-4.7-4.7s-4.7,2.1-4.7,4.7v11.1h-11.1c-2.6,0-4.7,2.1-4.7,4.7
		s2.1,4.7,4.7,4.7h11.1v11.1c0,2.6,2.1,4.7,4.7,4.7s4.7-2.1,4.7-4.7v-11.1h11.1c2.6,0,4.7-2.1,4.7-4.7S202.9,391.2,200.4,391.2z"/>
	<g>
		<path fill="#CF972B" enable-background="new    " d="M79.4,371.9c-1.9,0-3.4,1.5-3.4,3.4v6.6h3.4h3.4v-6.6
			C82.6,373.4,81.1,371.9,79.4,371.9z"/>
		<path fill="#CF972B" enable-background="new    " d="M79.4,316.7C35.5,316.7,0,352.2,0,396.1s35.5,79.4,79.4,79.4
			s79.4-35.5,79.4-79.4S123.1,316.7,79.4,316.7z M51.4,342.2h7.9v7.1h4.1v-7.1h7.9v7.1h4.1v-7.1h7.9v7.1h4.1v-7.1h7.9v7.1h4.1v-7.1
			h7.9v11.6l-6,8.6H79.4h-22l-6-8.6V342.2z M34,447.3v-53.7v-0.4l-2.4-2.4v-3.6V378h6.8v7.3h5.1v-7.5h7.1v7.5h3.9l-4.1,62.1
			L34,447.3L34,447.3z M88.2,447.3v-26.1c0-4.9-3.9-8.8-8.8-8.8s-8.8,3.9-8.8,8.8v26.1H53.1l4.1-62.1l0,0l1.5-21h20.8h20.8l1.5,21
			l0,0l4.1,62.1H88.2z M127.2,386.9v3.6l-2.4,2.4v0.4v53.9h-16.5l-4.1-62.1h3.9v-7.5h7.1v7.5h5.1v-7.5h7.1v9.2h-0.2V386.9z"/>
	</g>
	<path fill="#015D53" d="M410.8,391.2h-11.1v-11.1c0-2.6-2.1-4.7-4.7-4.7s-4.7,2.1-4.7,4.7v11.1H379c-2.6,0-4.7,2.1-4.7,4.7
		s2.1,4.7,4.7,4.7h11v11.1c0,2.6,2.1,4.7,4.7,4.7s4.7-2.1,4.7-4.7v-11.1h11.1c2.6,0,4.7-2.1,4.7-4.7S413.4,391.2,410.8,391.2z"/>
	<path fill="#CF972B" enable-background="new    " d="M289.6,316.7c-43.9,0-79.4,35.5-79.4,79.4s35.5,79.4,79.4,79.4
		S369,440,369,396.1S333.5,316.7,289.6,316.7z M307,448.8c-0.6,1.1-1.5,1.1-2.6,0.6c-1.3-0.6-2.8-1.1-4.1-1.7
		c-2.6-1.1-3-0.6-2.8,2.1c0,0,0,0,0,0.2c0.2,2.4-1.1,3.4-3,2.4c-1.9-1.1-4.1-2.1-6-3.2s-3.9-1.3-5.8-0.2c-3.2,1.5-6.4,2.6-10.1,3
		c-1.1,0.2-1.9,0-2.6-1.1c-0.4-1.1,0-1.9,0.9-2.8c1.3-1.1,2.6-2.4,3.6-3.6c2.4-2.8,3.6-5.8,3.4-9.4c-0.2-2.6-0.2-5.1,0-7.9
		c0.2-6.4-1.1-12.6-3.6-18.4c-0.4-0.9-0.6-1.9-0.9-3c0.2-3,2.6-4.9,5.1-4.3c1.5,0.4,2.4,1.3,3.2,2.6c0.6,1.1,1.1,2.1,1.7,3.2
		c2.8,4.3,5.8,4.5,8.6,0.2c1.7-2.6,3-5.8,4.3-8.6c0.4-1.1,0.9-2.4,1.5-3.4c1.3-2.4,4.1-3.2,6.4-1.7c2.4,1.3,3.2,3.9,2.1,6.4
		c-0.2,0.6-0.6,1.3-0.9,2.1c-5.1,10.9-4.1,22.5-4.1,34v0.2c0.6,3.6,2.6,6.8,4.9,9.6C307.2,446.8,307.6,447.7,307,448.8z
		 M327.7,407.5c-2.4,7.5-10.3,12.8-19.9,12.8c-0.6,0-1.3,0-1.9,0c0.2-5.6,1.3-10.9,3.6-16.1c0.2-0.4,0.4-1.1,0.6-1.5
		c0-0.2,0.2-0.4,0.2-0.6c2.1-4.7,0.6-9.8-3.9-12.4c-1.5-0.9-3-1.3-4.5-1.3c-3.2,0-6,1.7-7.7,4.7c-0.4,0.9-0.9,1.7-1.1,2.4
		c-0.2,0.4-0.4,0.9-0.4,1.1c-0.4,0.9-0.9,1.7-1.3,2.6c-0.9,1.9-1.9,3.9-3,5.6c-0.2,0.4-0.4,0.6-0.6,0.9c-0.2-0.2-0.4-0.4-0.9-1.1
		c-0.4-0.6-0.6-1.3-1.1-1.9c-0.2-0.2-0.4-0.6-0.4-0.9c-1.7-3.2-4.3-4.5-6-4.7c-0.6-0.2-1.3-0.2-1.9-0.2c-4.5,0-8.3,3.9-8.6,8.8v0.9
		l0.2,0.9c0,0.2,0.2,0.4,0.2,0.9c0.2,0.9,0.4,1.9,0.9,2.8c0.9,1.7,1.5,3.4,1.9,5.1c0,0,0,0-0.2,0c-9.4,0-17.1-5.4-19.7-12.6
		c-9.8-1.3-17.3-8.6-17.3-17.3c0-6.8,4.7-12.8,11.6-15.8c-2.1-2.8-3.4-6-3.4-9.4c0-9.6,9.6-17.3,21.2-17.3c3,0,6,0.6,8.6,1.5
		c3.4-5.8,10.5-9.6,18.8-9.6c9.8,0,18.2,5.8,20.5,13.5c2.4-0.6,4.7-1.1,7.3-1.1c11.3,0,20.5,7.9,20.5,17.6c0,4.1-1.7,7.7-4.3,10.7
		c5.1,3.2,8.3,8.3,8.3,14.1C344.6,398.9,337.4,406.2,327.7,407.5z"/>
	<path fill="#CF972B" enable-background="new    " d="M500,316.7c-43.9,0-79.4,35.5-79.4,79.4s35.5,79.4,79.4,79.4
		s79.4-35.5,79.4-79.4S543.7,316.7,500,316.7z M467.3,440.4c-3,0-5.4-2.4-5.4-5.4s2.4-5.4,5.4-5.4s5.4,2.4,5.4,5.4
		S470.3,440.4,467.3,440.4z M489.1,440.4c-3,0-5.4-2.4-5.4-5.4s2.4-5.4,5.4-5.4s5.4,2.4,5.4,5.4S492.1,440.4,489.1,440.4z
		 M511,440.4c-3,0-5.4-2.4-5.4-5.4s2.4-5.4,5.4-5.4s5.4,2.4,5.4,5.4S514,440.4,511,440.4z M532.8,440.4c-3,0-5.4-2.4-5.4-5.4
		s2.4-5.4,5.4-5.4s5.4,2.4,5.4,5.4S535.6,440.4,532.8,440.4z"/>
	<path fill="#015D53" d="M597.4,416.4c-4.1-0.4-6.8-4.1-6.4-7.7l6.2-52.4c0.4-3.9,4.1-6.4,8.1-5.8c4.1,0.4,6.8,4.1,6.4,7.7
		l-6.2,52.4C605.2,414.5,601.5,417.1,597.4,416.4z"/>
	
		<ellipse transform="matrix(-0.9918 -0.1278 0.1278 -0.9918 1130.6906 933.709)" fill="#015D53" cx="595.3" cy="430.6" rx="9.4" ry="8.8"/>
</g>
</svg>
