<?xml version="1.0" encoding="utf-8"?>
<!-- Generator: Adobe Illustrator 18.1.1, SVG Export Plug-In . SVG Version: 6.00 Build 0)  -->
<svg version="1.1" id="Layer_1" xmlns="http://www.w3.org/2000/svg" xmlns:xlink="http://www.w3.org/1999/xlink" x="0px" y="0px"
	 viewBox="-2 354.3 612 593.5" enable-background="new -2 354.3 612 593.5" xml:space="preserve">
<g>
	<path fill="#83C5EB" d="M306.1,557.1c-37.1,0-67.2,30.2-67.2,67.1c0,37,30.2,67.2,67.2,67.2s67.1-30.2,67.1-67.2
		C373.2,587.2,343.1,557.1,306.1,557.1z M359,597.8v0.2c0,0.2,0,0.3-0.2,0.3c0,0.2,0,0.3,0,0.3c0,0.2,0,0.4-0.2,0.4
		c-0.3,1.2-0.6,2.6-1.2,4.1c-0.9,2.4-1.8,4.7-2.6,6.5c-0.4,0.8-0.7,1.7-1.1,2.4c-0.3,0.9-0.9,1.8-1.2,2.6c-0.6,1.2-0.9,2.6-1.3,4.3
		c-0.4,1.5-0.6,3.1-0.9,4.7c0,0.3-0.2,0.4-0.2,0.7c-0.3,1.3-0.4,2.7-0.9,4.2c-0.4,1.4-0.7,2.6-1.3,3.8c-0.6,1.2-1.2,2.2-1.9,3.3
		c-1.1,1.4-2.2,2.5-3.5,3.2s-2.6,1.2-4.1,1.3c-0.3,0-0.3,0-0.4,0c-0.3,0-0.6,0-0.9,0c1.2,1.1,2.4,2.4,3.4,3.9
		c0.3,0.3,0.4,0.4,0.6,0.9c0.7,1.2,1.1,2.6,1.1,4.5c0,1.3-0.2,2.5-0.4,3.9c-0.3,1.4-0.9,3-1.4,4.5c-0.9,2.6-2.2,5-3.7,7.3
		c-1.7,2.7-3.3,4.9-5.2,6.7c-0.9,0.9-1.9,1.8-2.7,2.4c-0.9,0.6-1.5,0.8-2.1,1.1c0,0-0.2,0-0.2,0.2h-0.2l0,0h-1.4l0,0c0,0,0,0-0.2,0
		c0,0,0,0-0.2,0s-0.2,0-0.3,0c-0.4-0.2-0.9-0.3-1.2-0.4c-1.4-0.4-2.8-1.3-4.2-2.4c-1.5-1.3-2.8-2.8-4.2-4.8c-1.7-2.5-3.1-5-4.3-7.6
		c-0.4-0.9-0.8-1.8-1.3-2.7c-0.9-1.7-1.4-3.4-1.9-5.2v0.2c0,0.8,0,1.5,0,2.4c0,0.3,0,0.4,0,0.7c0,1.7-0.2,3.3-0.2,4.9l0,0
		c0,1.1-0.2,2.1-0.3,3.1c0,0.4-0.2,0.9-0.3,1.3c-0.1,0.4-0.4,0.7-0.7,0.8h-0.2c-0.3,0-0.6-0.3-0.9-0.6c-0.2-0.3-0.2-0.4-0.3-0.6
		c-0.2-0.3-0.2-0.7-0.2-1.2c0-0.9-0.2-1.5-0.2-2.4c0-0.3,0-0.4,0-0.6c0-0.6,0-1.2-0.2-1.7c0-0.3,0-0.6,0-0.8c0-1.1-0.2-2.2-0.2-3.4
		c0-0.6,0-1.2-0.2-1.9c0-0.2,0-0.3,0-0.4l0,0c-0.3,0.6-0.4,1.2-0.6,1.8c-0.7,2.1-1.7,4.2-2.8,6.6c-1.1,2-2.2,4.2-3.8,6.5
		c-0.9,1.5-2,3-3.2,4.2c-1.3,1.4-2.7,2.4-4.2,3.1c-1.2,0.6-2.2,0.9-3.4,0.9c-0.2,0-0.2,0-0.3,0c-0.4,0-0.9-0.2-1.3-0.3
		c-0.7-0.3-1.4-0.7-2.1-1.2c-1.3-0.9-2.6-2.1-4.1-3.8c-1.4-1.8-2.8-3.7-4.2-5.8c-1.4-2.4-2.6-4.7-3.4-7.1c-0.8-2.1-1.3-4.1-1.5-6
		c-0.2-1.2-0.3-2.2-0.2-3.2c0.2-1.5,0.6-3,1.4-4.1c1.2-1.7,2.5-3.1,3.7-4.2c-0.3,0-0.6,0.2-0.9,0.2s-0.9,0-1.2-0.2
		c-0.9-0.2-1.7-0.4-2.6-0.7c-1.3-0.6-2.5-1.5-3.5-2.7c-0.9-1.1-1.9-2.5-2.6-4.2c-0.6-1.3-1.1-2.7-1.5-4.8c-0.3-1.3-0.4-2.7-0.7-4.1
		c0-0.3-0.2-0.4-0.2-0.6c-0.3-1.2-0.3-2.5-0.7-3.8c-0.3-1.8-0.8-3.2-1.4-4.7c-0.7-1.7-1.4-3.2-2-4.7c-0.6-1.4-1.4-3.2-2.1-5.1
		c-0.7-1.9-1.5-4.2-1.9-6.7c0,0,0-0.2,0-0.3l-0.2-0.2l-0.3-2.4l0.2-0.2c0,0,0-0.2,0-0.3V594c0-2.1,0.6-4.1,1.7-5.4
		c0.3-0.4,0.8-0.9,1.3-1.2c1.7-1.2,3.5-1.9,5.4-2.1h0.2h0.2l0,0h2.5l0,0h0.2h0.2c0.9,0,2,0.4,2.8,0.4c1.7,0.4,3.2,1.1,4.9,2
		c2.1,1.1,4.2,2.4,6.5,3.9c3.9,2.8,7.3,5.6,10.5,8.4c3,2.7,5.4,5.4,7.5,8.4c2,2.7,3.7,5.8,5,8.8c0.4,1.2,0.9,2.2,1.3,3.5
		c0.2-0.8,0.2-1.5,0.3-2.4c0.2-0.7,0.3-1.5,0.6-2.5c0.3-0.4,0.4-0.9,0.7-1.3c-0.3-0.3-0.4-0.7-0.4-1.3c-0.1-0.6-0.2-1.2,0.2-1.8
		c0.2-0.4,0.3-0.9,0.7-1.2c0-0.2,0-0.2-0.2-0.3c-0.3-1.2-0.9-2.4-1.3-3.6c-0.7-1.7-1.5-3.2-2.4-4.5c-0.9-1.3-1.8-2.6-2.7-3.7
		c-0.3,0.2-0.4,0.3-0.7,0.3c-0.9,0-1.7-1.1-1.8-2.4c0-1.3,0.7-2.4,1.7-2.4c0.9,0,1.7,1.1,1.8,2.4c0,0.2,0,0.4,0,0.4
		c1.4,1.8,2.7,3.8,3.9,6c1.2,2.1,2.1,4.5,2.8,7.1v0.2l0,0c0.2,0,0.2,0,0.3,0s0.2,0,0.3,0c0.1,0,0.3,0,0.4,0v0.6
		c0.7-2.6,1.7-5,2.8-7.3c1.1-2,2.2-3.8,3.7-5.6c0-0.3-0.2-0.4-0.2-0.7c0-1.3,0.9-2.4,1.8-2.4c0.9,0,1.7,1.1,1.7,2.4
		c0,1.3-0.9,2.4-1.8,2.4c-0.3,0-0.4,0-0.6-0.2l-0.2,0.2c-0.3,0.4-0.7,0.8-1.1,1.3c-1.1,1.4-2.1,3.1-3,4.9c-0.9,1.7-1.5,3.6-2.1,5.6
		c0,0.2,0,0.2-0.2,0.3l0,0c0.2,0.2,0.2,0.3,0.3,0.4c0.3,0.8,0.4,1.5,0.3,2.4c-0.2,0.3-0.3,0.9-0.3,1.3l0,0c0.3,0.6,0.7,1.3,0.9,2.1
		c0.3,1.2,0.6,2.5,0.7,3.9c0.3-0.6,0.3-1.2,0.6-1.7c0.7-2,1.7-4.1,2.7-6c0.9-1.8,2.1-3.6,3.4-5.4c1.5-2.1,3.2-4.1,5.2-6
		c1.9-1.9,4.1-3.9,6.5-5.8c3-2.4,5.4-4.2,7.6-5.8c2.7-1.8,5.1-3,7.5-3.9c2-0.8,3.9-1.2,5.8-1.3c0.3,0,0.4,0,0.7,0
		c1.3,0,2.5,0.3,3.7,0.6c1.2,0.4,2.2,0.9,3.2,1.8c0.9,0.7,1.7,1.7,2.1,2.7c0.4,1.2,0.7,2.4,0.7,3.7v0.2v0.2l0,0L359,597.8L359,597.8
		z"/>
	<g>
		<path fill="#DBDAD7" d="M503.1,637h-19.6c-0.7,0-1.2,0.4-1.2,1.2v2.6c0,0.7,0.4,1.2,1.2,1.2h19.7c0.7,0,1.2-0.4,1.2-1.2v-2.5
			C504.4,637.6,503.9,637,503.1,637z"/>
		<path fill="#DBDAD7" d="M503.1,647.2h-19.6c-0.7,0-1.2,0.4-1.2,1.2v2.6c0,0.7,0.4,1.2,1.2,1.2h19.7c0.7,0,1.2-0.4,1.2-1.2v-2.5
			C504.4,647.8,503.9,647.2,503.1,647.2z"/>
		<path fill="#DBDAD7" d="M462.3,601.2h-6c-0.7,0-1.2-0.4-1.2-1.2v-6c0-0.7-0.4-1.2-1.2-1.2h-2.6c-0.7,0-1.2,0.4-1.2,1.2v6
			c0,0.7-0.4,1.2-1.2,1.2h-6c-0.7,0-1.2,0.4-1.2,1.2v2.6c0,0.7,0.4,1.2,1.2,1.2h6c0.7,0,1.2,0.4,1.2,1.2v6c0,0.7,0.4,1.2,1.2,1.2
			h2.6c0.7,0,1.2-0.4,1.2-1.2v-6c0-0.7,0.4-1.2,1.2-1.2h6c0.7,0,1.2-0.4,1.2-1.2v-2.6C463.5,601.8,462.9,601.2,462.3,601.2z"/>
		<path fill="#DBDAD7" d="M457,645.5c-0.4-0.4-0.4-1.3,0-1.7l4.2-4.2c0.4-0.4,0.4-1.3,0-1.7l-1.9-1.9c-0.4-0.4-1.3-0.4-1.7,0
			l-4.2,4.2c-0.4,0.4-1.3,0.4-1.7,0l-4.2-4.2c-0.4-0.4-1.3-0.4-1.7,0l-1.9,1.9c-0.4,0.4-0.4,1.3,0,1.7l4.2,4.2
			c0.4,0.4,0.4,1.3,0,1.7l-4.2,4.2c-0.4,0.4-0.4,1.3,0,1.7l1.9,1.9c0.4,0.4,1.3,0.4,1.7,0l4.2-4.2c0.4-0.4,1.3-0.4,1.7,0l4.2,4.2
			c0.4,0.4,1.3,0.4,1.7,0l1.9-1.9c0.4-0.4,0.4-1.3,0-1.7L457,645.5z"/>
		<path fill="#DBDAD7" d="M472.9,557.1c-37.1,0-67.1,30.2-67.1,67.1c0,37,30.2,67.2,67.1,67.2s67.2-30.2,67.2-67.2
			C540.1,587.2,510,557.1,472.9,557.1z M469.5,656.6c0,2.8-2.2,5.1-5.1,5.1h-23.7c-2.8,0-5.1-2.2-5.1-5.1v-23.7
			c0-2.8,2.2-5.1,5.1-5.1h23.7c2.8,0,5.1,2.2,5.1,5.1V656.6z M469.5,615.7c0,2.8-2.2,5.1-5.1,5.1h-23.7c-2.8,0-5.1-2.2-5.1-5.1
			v-23.6c0-2.8,2.2-5.1,5.1-5.1h23.7c2.8,0,5.1,2.2,5.1,5.1V615.7z M510.4,656.6c0,2.8-2.2,5.1-5.1,5.1h-23.7
			c-2.8,0-5.1-2.2-5.1-5.1v-23.7c0-2.8,2.2-5.1,5.1-5.1h23.7c2.8,0,5.1,2.2,5.1,5.1V656.6z M510.4,615.7c0,2.8-2.2,5.1-5.1,5.1
			h-23.7c-2.8,0-5.1-2.2-5.1-5.1v-23.6c0-2.8,2.2-5.1,5.1-5.1h23.7c2.8,0,5.1,2.2,5.1,5.1V615.7z"/>
		<path fill="#DBDAD7" d="M503.1,601.2h-19.6c-0.7,0-1.2,0.4-1.2,1.2v2.6c0,0.7,0.4,1.2,1.2,1.2h19.7c0.7,0,1.2-0.4,1.2-1.2v-2.6
			C504.4,601.8,503.9,601.2,503.1,601.2z"/>
	</g>
	<path fill="#DBDAD7" d="M139.1,557.1c-37.1,0-67.1,30.1-67.1,67.2c0,37.1,30.2,67.2,67.1,67.2c37.1,0,67.2-30.2,67.2-67.2
		C206.2,587.2,176.3,557.1,139.1,557.1z M174.5,669h-0.2v3.3H171h-63.8H104V669v-7.1c0-1.8,1.4-3.3,3.3-3.3h25.2
		c-6.7-2-12.5-6.5-16.1-12.2h-13.9v-5.7h11.1h11.9h12.2v5.8h-6.9c2.8,2,6.3,3.1,10.2,3.1c9.9,0,17.8-8,17.8-17.9
		c0-3.7-1.1-7.2-3.1-9.9c-0.9,0.2-1.8,0.3-2.7,0.3c-4.8,0-8.8-2.6-11.1-6.5l-5.8,9.3l4.7,2.8l-4.7,7.6l-24.1-14.8l4.7-7.6l4.7,2.8
		l20.4-33.3c1.1-1.8,3.9-3.4,6.6-1.9l6.9-11.1l6.7,4.2l-6.9,11.1c2.6,1.9,2.6,5.1,1.3,6.9l-3.2,5.2c6.7,0.3,12.2,5.8,12.2,12.7
		c0,2.1-0.4,4.2-1.4,6c3.4,4.7,5.4,10.3,5.4,16.5c0,12.7-8.6,23.4-20.2,26.9h21.8c1.8,0,3.3,1.4,3.3,3.3L174.5,669L174.5,669
		L174.5,669z"/>
	<path fill="#A19CCC" d="M471.2,542.3v-0.2c0-0.2,0-0.2,0-0.3c0.7-1.4,1.1-3,1.1-4.6c0-1.4-0.4-2.8-1.1-4.2
		c-0.8-1.4-1.8-2.5-2.8-3.4c-1.2-1.1-2.5-1.9-4.1-2.5c-0.3-0.2-0.5-0.3-0.8-0.3c-2.1-0.8-4.6-1.2-7.2-1.4c-3.1-0.2-6.5,0.2-10.4,0.8
		c-3.4,0.5-6.8,1.4-11.6,2.8c-3.7,1.1-7.1,2.2-10.4,3.5c-3.2,1.4-6.1,2.8-9,4.4c-2.2,1.4-4.6,2.8-6.5,4.4c-2.1,1.7-4.2,3.4-6,5.4
		c-0.5,0.5-1.1,1.1-1.4,1.7c0.5-1.8,0.9-3.4,1.1-4.8c0.2-1.1,0.2-2,0-3l0,0c0.5-0.4,0.8-0.9,1.1-1.4c0.5-0.8,0.8-1.8,0.7-3
		c0-0.2,0-0.4,0-0.5l0,0c0-0.2,0.2-0.2,0.2-0.3c1.7-2,3.4-3.7,5.3-5.4c1.9-1.6,3.7-3,5.8-4.2c0.7-0.4,1.2-0.7,1.9-0.9
		c0,0,0.2,0,0.2-0.2c0.2,0.2,0.4,0.4,0.5,0.4c1.1,0.4,2.5-0.4,3.1-1.9c0.7-1.4,0.4-3.1-0.7-3.5c-1.2-0.3-2.5,0.4-3.1,1.9
		c-0.2,0.3-0.3,0.5-0.3,0.8c-2.5,1.4-4.7,2.8-6.8,4.6c-2.5,2-4.7,4.3-6.8,6.8c0,0,0,0.2-0.2,0.2c-0.2-0.2-0.3-0.2-0.4-0.3
		c-0.2,0-0.2-0.2-0.3-0.2s-0.2,0-0.3-0.2l0,0v-0.2c0.4-3.2,0.4-6.4,0.3-9.4c-0.3-3-0.8-5.8-1.7-8.6c0.2-0.2,0.2-0.4,0.3-0.5
		c0.7-1.4,0.3-3.1-0.8-3.7c-1.1-0.4-2.5,0.4-3.1,1.9c-0.7,1.4-0.3,3.1,0.8,3.7c0.3,0.2,0.7,0.2,0.9,0.2c0.5,1.8,1.1,3.7,1.4,5.5
		c0.3,2,0.4,4.2,0.4,6.4c0,1.4-0.2,3.1-0.3,4.7c0,0.2,0,0.3,0,0.3c-0.4,0.3-0.9,0.5-1.4,1.1c-0.4,0.5-0.8,1.2-0.9,2
		c-0.2,0.7-0.2,1.2,0,1.7c-0.4,0.3-0.9,0.5-1.4,1.1c-0.8,0.8-1.4,1.8-1.9,2.6c-0.5,0.8-1.1,1.8-1.4,2.5c0.2-1.7,0.2-3.1,0.2-4.7
		c0-4.2-0.5-8.3-1.4-12.5c-0.9-4.3-2.5-8.8-4.4-13.3c-2.1-4.8-4.7-9.7-7.8-14.9c-1.8-3-3.7-5.4-5.5-7.7c-1.7-1.9-3.2-3.4-4.8-4.7
		c-0.8-0.7-1.9-1.4-3-2c0,0,0,0-0.2-0.2c0,0,0,0-0.2-0.2l0,0l-3-1.2l0,0h-0.2c-0.2,0-0.2,0-0.2,0c-2.2-0.7-4.7-0.8-7.1-0.2
		c-0.7,0.2-1.4,0.4-2,0.8c-1.9,1.1-3.5,2.8-4.6,5.4v0.2c0,0.2-0.2,0.3-0.2,0.3l-0.2,0.2l-1,3l0.2,0.2c0,0,0,0.2,0,0.3
		c-0.8,3.1-0.9,6.1-1.1,8.8c-0.2,2.6-0.2,5.1,0,7.1c0,1.9,0.2,3.9,0.2,6.4c0,1.9-0.2,3.7-0.5,5.9c-0.3,1.7-0.7,3.2-1.1,4.7
		c0,0.3-0.2,0.5-0.2,0.7c-0.4,1.7-0.8,3.4-1.2,5c-0.5,2.5-0.7,4.4-0.5,6.1c0.2,2.1,0.4,4.2,1.1,6c0.7,1.9,1.4,3.4,2.6,4.8
		c0.7,0.8,1.4,1.4,2.5,2.1c0.4,0.3,0.8,0.5,1.4,0.7c0.4,0.2,0.8,0.3,1.2,0.4c-2,0.7-4.1,1.8-6.4,3.1c-1.4,0.8-2.6,2.1-3.5,3.9
		c-0.5,1.1-1.1,2.5-1.4,3.7c-0.7,2.2-0.9,4.7-1.1,7.6c-0.2,3.1,0,6.4,0.5,9.7c0.4,3.1,1.1,6,1.9,8.8c0.8,2.5,1.8,4.6,2.6,6.4
		c0.5,0.9,1.2,1.8,1.9,2.5c0.4,0.4,0.8,0.7,1.4,0.9c0.2,0,0.2,0.2,0.3,0.2c1.4,0.4,2.6,0.7,4.3,0.5c2-0.2,4.2-0.5,6.4-1.4
		c1.9-0.8,3.7-1.9,5.7-3.2c3-2,5.3-3.9,7.6-5.7c2.6-2.1,4.7-4.2,6.5-6.1c0.5-0.5,1.1-1.2,1.4-1.8l0,0c0,0.2-0.2,0.3-0.2,0.4
		c-0.3,0.7-0.5,1.4-0.8,2.1c-0.5,1.4-0.9,2.6-1.4,4.1c-0.2,0.3-0.3,0.7-0.4,0.9c-0.3,0.5-0.5,1.4-0.7,2c-0.2,0.3-0.2,0.5-0.3,0.8
		c-0.3,0.9-0.7,1.9-0.9,2.8c-0.2,0.5-0.3,0.9-0.4,1.4c0,0.3-0.2,0.5,0,0.8c0,0.5,0.3,0.8,0.7,1.1h0.2c0.4,0.2,0.9,0,1.2-0.5
		c0.4-0.5,0.7-0.9,0.8-1.4c0.7-1.1,1.2-2.2,1.8-3.5l0,0c0.9-1.9,1.8-3.7,2.5-5.5c0.2-0.3,0.3-0.5,0.4-0.8c0.4-0.9,0.8-1.9,1.2-2.6
		V583c-0.3,2.2-0.4,4.6-0.3,6.8c0,1.4,0.2,2.6,0.2,3.7c0.3,3.5,0.7,7.1,1.4,10.7c0.5,2.8,1.4,5.3,2.5,7.6c1.1,2,2.1,3.4,3.7,4.8
		c0.4,0.4,0.8,0.7,1.2,0.9c0.2,0,0.2,0.2,0.3,0.2c0,0,0,0,0,0.2c0,0,0,0,0,0.2l0,0l1.7,0.7l0,0h0.2c0.2,0,0.2,0,0.2,0
		c0.9,0.2,1.9,0,3-0.2c1.4-0.3,2.8-0.7,4.3-1.4c3-1.2,6-3,9.3-5.3c3-2,5.5-4.3,8-6.7c1.4-1.4,2.6-3,3.7-4.6c1.1-1.4,1.9-2.8,2.5-4.3
		c0.8-2,1.2-3.9,0.9-5.7c0-0.4-0.2-0.8-0.3-1.2c-0.5-2.2-1.2-4.4-2-6.1c0.3,0.2,0.7,0.4,0.9,0.5c0.2,0.2,0.4,0.2,0.5,0.3
		c1.7,0.5,3.4,0.8,5.3,0.5c1.8-0.3,3.7-0.9,5.5-2c1.4-0.8,2.6-1.8,3.9-2.8c1.2-1.1,2.2-2.5,3.4-3.7c1.1-1.4,2.1-3.1,3-4.4
		c0.2-0.3,0.3-0.5,0.4-0.7c0.9-1.7,2-3.2,3.2-4.8c1.2-1.8,2.5-3.1,3.7-4.2c0.9-0.8,1.8-1.7,2.6-2.5c0.8-0.7,1.7-1.4,2.5-2.1
		c1.9-1.8,4.1-3.7,6-6.1c1.4-1.4,2.5-2.6,3.2-4.1c0.2-0.2,0.3-0.3,0.3-0.5c0.2-0.2,0.2-0.3,0.3-0.3c0-0.2,0.2-0.2,0.3-0.3l0.2-0.2
		l0,0L471.2,542.3L471.2,542.3z"/>
	<g>
		<circle fill="#B3509E" cx="227.3" cy="479.8" r="2"/>
		<g>
			<path fill="#CB6EAC" d="M223.3,560.4c-0.4-1-0.9-2-1.1-3.4c-3.8-12.7,5.8-21.9,3.3-25.2c-2.6-3.5-24.8,5.2-34.4,26.1
				c-2,4.2-9.9,21.5-1.5,36.7c4.7,8.4,8.2,7.4,20.2,3.8c2.3-0.7,4.7-1.4,6.9-2.4c4.3,16.4,6.8,17.6,8.2,17.9
				c4.8,0.9,11.6-7.3,13-15.4C239.3,588.7,231.4,572.3,223.3,560.4z"/>
			<path fill="#CB6EAC" d="M297.5,552.7c-4.1-16.8-21.4-24.1-25.8-25.9c-21.2-9-43.4-0.4-42.9,3.9c0.3,4.1,13.7,4.5,19.5,16.5
				c0.5,1.1,1,2.3,1.4,3.3c2,14.2,7.2,31.6,15.2,37.8c6.5,5,16.9,6.5,19.9,2.6c0.8-1.1,1.9-3.6-6.1-18.7c2.3-0.8,4.5-2,6.8-3
				C296.5,563.7,299.7,561.9,297.5,552.7z"/>
			<path fill="#B3509E" d="M115.7,496c-3.6,9.2-1,23.4,3.3,31.4c7.9,14.8,13.1,12.5,21.8,29.4c5.8,11.5,6.9,34.2,12.5,34.4
				c39.2,1.9,39.8-60,81.2-55.8C236.8,535.6,137.4,440.4,115.7,496z"/>
			<path fill="#B3509E" d="M286.8,429.6c8.8,4.3,16.5,16.6,18.7,25.2c4.1,16.4-1.3,18,3.6,36.5c3.4,12.5,17.9,29.9,14.1,33.9
				c-27.6,27.8-69.8-17.6-97.6,13.5C224.1,540.5,233.4,403.3,286.8,429.6z"/>
			
				<ellipse transform="matrix(0.3614 0.9324 -0.9324 0.3614 651.9338 129.5658)" fill="#B3509E" cx="231.4" cy="540.7" rx="39.4" ry="5.9"/>
			<path fill="#B3509E" d="M217.6,511.3h-0.2c-0.4,0.2-1-0.3-1-0.7c-0.2-1.1-2.3-11.5-11.5-15.6c-3.9-1.9-7.9-1.8-10.5-1.4
				c-0.4,0-1-0.3-1-0.7s0.3-1,0.7-1c2.8-0.4,7.1-0.4,11.5,1.5c10,4.5,12.2,15.6,12.5,16.8C218.1,510.7,217.9,511.1,217.6,511.3z"/>
			<circle fill="#B3509E" cx="194.3" cy="492.8" r="2"/>
			<path fill="#B3509E" d="M221.8,509.5c0,0,0.2,0,0.2-0.2c0.4-0.3,0.5-0.9,0.3-1.3c-0.5-1-6.1-10-2-19.1c1.8-4.1,4.7-6.6,6.8-8
				c0.4-0.3,0.5-0.8,0.3-1.3c-0.3-0.4-0.8-0.5-1.3-0.3c-2.4,1.5-5.5,4.3-7.4,8.8c-4.3,10,1.4,19.7,2,20.7
				C220.9,509.5,221.4,509.8,221.8,509.5z"/>
			<path fill="#E0A4CA" d="M167.5,547.6c-5.2-13.5,1.4-28.7,15-34c3.6-1.4,7.4-2,11.1-1.8c-2-1.5-4.2-3-6.4-4.3
				c-23.8-16.1-43.7-23.2-54.1-19c-4.1,1.5-7.2,5-9.4,10.7c-2.4,6.2-0.5,17.8,2.8,24c3.1,5.9,5.7,8.3,8.7,11.5
				c3.8,3.8,8.2,8,13.3,18.1c3,5.9,4.8,13.7,6.4,20.6c0.7,2.8,1.5,6.6,2.3,9c2-0.2,3.9-0.7,5.7-1.3c7.4-3,13.3-10.3,19.1-18.4
				C175.7,559.9,170.3,554.7,167.5,547.6z"/>
			<path fill="#E0A4CA" d="M283.2,502.7c-5.2-13.5-20.4-20.2-34-15c-3.6,1.4-6.9,3.6-9.4,6.2c0.5-2.5,1.1-4.9,1.8-7.6
				c6.8-28.1,16.6-46.5,27.2-50.6c4.1-1.5,8.8-1.1,14.1,1.5c5.9,3,12.5,12.8,14.1,19.5c1.8,6.5,1.5,9.9,1.3,14.2
				c-0.3,5.4-0.5,11.5,2.4,22.4c1.8,6.4,5.7,13.3,9.2,19.5c1.4,2.5,3.3,5.9,4.3,8.3c-1.5,1.3-3.3,2-5,2.8c-7.4,3-16.8,1.4-26.6-0.7
				C285.5,517.3,285.9,509.9,283.2,502.7z"/>
		</g>
	</g>
	<path fill="#E0C69B" d="M386.2,720.9c-8,0-14.5,6.5-14.5,14.5v-15.5c0-8-6.5-14.5-14.4-14.5c-7.9,0-14.5,6.5-14.5,14.5v-15.5
		c0-8-6.5-14.4-14.5-14.4c-7.9,0-14.4,6.5-14.4,14.4v-46.1c0-8-6.5-14.4-14.5-14.4s-14.4,6.5-14.4,14.4v99.5c0,15.8-3.5,17.9-9.7,0
		l-5.1-15.2c-2.5-7.5-10.9-11.6-18.2-8.8c-7.5,2.5-11.6,10.9-8.8,18.2l19.9,58.7l29.3,42.4l7.3,21.8c0,0,78.4,0,78.5,0
		c1.9,0,10.1-34.2,11-37.4c7.5-27.3,11.1-51.7,11.1-80v-22.4C400.8,727.1,394.2,720.9,386.2,720.9z"/>
	<rect x="-2" y="354.3" fill="none" width="612" height="593.5"/>
</g>
</svg>
