<?xml version="1.0" encoding="utf-8"?>
<!-- Generator: Adobe Illustrator 18.1.1, SVG Export Plug-In . SVG Version: 6.00 Build 0)  -->
<svg version="1.1" id="Layer_2" xmlns="http://www.w3.org/2000/svg" xmlns:xlink="http://www.w3.org/1999/xlink" x="0px" y="0px"
	 viewBox="0 299 612 543.5" enable-background="new 0 299 612 543.5" xml:space="preserve">
<g>
	<path fill="#DADAD3" d="M43.7,711.3c90.5-1.4,125.7-99.8,125.7-99.8l79.9-197.2l299.1,121l-79.9,197.2c0,0-35.1,98.3-125.7,99.8
		L43.7,711.3z"/>
	<g>
		<path fill="none" stroke="#974E23" stroke-width="2" stroke-miterlimit="10" d="M362.9,547.3c0.8,0.4,1.7,0.7,2.5,1.2
			c1.7,2.4,1.7,4.8,0.6,7.3c-1.7,3.7-3.1,7.5-4.5,11.2c-1.4,3.4-4.1,4.8-6.7,3.7c-2.5-1.2-3.4-3.7-1.8-7.3c1.7-3.8,3.4-7.5,4.8-11.2
			C358.2,549.1,360,547.5,362.9,547.3z M283.7,560c4.1-1.8,5.4-1.7,8.5,1.7c3,3,6,6,8.9,9.1c2.4,2.4,2.5,5.1,0.7,6.9
			c-1.8,1.8-5.4,1.8-7.7-0.4c-3.6-3.7-6.9-7.3-10.3-11.2c-0.7-0.8-0.8-2.4-1.2-3.6C282.8,561.4,283.3,560.6,283.7,560z M286.2,608.5
			c-4.9-1.2-9.8-2.4-14.7-3.6c-2.8-0.7-3.8-2.8-4.3-5.4c0.1-0.6,0.6-1.2,0.7-1.8c2.3-1.8,4.5-1.8,7.3-1.2c3.6,0.8,6.7,1.4,10.3,2.4
			c1.2,0.4,2,0.6,3.1,0.8c2.5,1.2,4.1,2.8,3.4,5.5C291.1,608.2,288.6,609.1,286.2,608.5z M321.5,541.1c1.7,0,4.4,1.2,4.5,2.5
			c1.4,6,2.4,11.8,3.4,17.8c0.1,0.6-0.1,0.7-0.4,2c-0.8,0.6-2.4,1.8-3.7,1.8c-1.4-0.1-3.8-1.2-4.1-2.4c-1.4-5.7-2.5-11.6-3.6-17.4
			C317.2,542.9,319.2,541.1,321.5,541.1z M316.1,694.9c-3.8-1.7-7.7-3.1-11.6-4.8c-4.5-1.8-9.2-4.1-14-5.7c-2.5-1.2-3.1-2.4-2-4.8
			c2.4-6.7,2.4-6.7,9.2-3.8c8.3,3.4,16.3,6.7,24.7,10.1c3.7,1.4,3.8,1.8,2.5,5.5C322.3,697.4,322.3,697.4,316.1,694.9z M321.7,681.3
			c-3.8-1.7-7.7-3.1-11.6-4.8c-4.5-1.8-9.2-4.1-14-5.7c-2.5-1.2-3.1-2.4-2-4.8c2.4-6.7,2.4-6.7,9.2-3.8c8.3,3.4,16.3,6.7,24.7,10.1
			c3.7,1.4,3.8,1.8,2.5,5.5C327.8,683.9,327.8,683.9,321.7,681.3z M373.1,623.3c-3.1,6.3-7.5,11.8-13,16.3
			c-8.9,7.3-17.4,14.8-23.9,24.7c-2.4,3.8-3.4,3.7-7.7,2c-4.1-1.7-7.9-3.4-11.8-4.9c-4.5-1.8-9.1-3.7-13.6-5.7
			c-2-0.8-3.1-2.4-2.8-4.4c0.4-2.5,0.6-5.1,0.8-7.7c1.7-9.1,0.7-18.2,0-27.2c-0.7-9.3,0.1-18.7,4.8-27C312,578.1,322,572.2,335,573
			c11.2,0.7,21.5,4.9,30.2,12.3C376.8,595.3,379.5,609.8,373.1,623.3z M397,579.5c-3.8,3-7.9,5.7-11.8,8.3c-2.8,1.7-5.7,1.2-6.9-1.2
			c-1.4-2.3-0.7-4.8,2-6.7c3.7-2.8,7.5-5.7,11.6-7.9c1.7-0.8,4.4-0.6,6.2,0.1c1.2,0.6,1.2,3.1,1.7,4.4
			C398.3,578.1,397.7,579,397,579.5z M395.4,652.5c-2.4,2-4.9,2-7.7,0.4c-4.1-2.4-7.9-4.8-11.8-6.9c-2.4-1.4-3.1-4.4-1.8-6.7
			c1.7-2.4,3.8-3,6.2-1.4c4.5,2.5,9.2,5.5,13.4,8.5c1.2,0.7,1.4,3,2.3,4.4C395.9,651.4,395.7,651.9,395.4,652.5z M410.9,615.2
			c-1.8,0.7-3.7,1.4-5.7,1.7c-3.8,0.4-8.1,0.6-12.2,0.7c-3.8,0.1-6.3-2-6.3-4.9c0-2.5,2.3-4.4,6.1-4.4c4.3-0.1,8.5,0,12.8,0
			c4.4,0,5.5,0.8,6.2,5.4C411.2,613.8,411.2,614.6,410.9,615.2z"/>
	</g>
	<g>
		<path fill="none" stroke="#974E23" stroke-width="2" stroke-miterlimit="10" d="M303.2,519.2c-30.2,8.9-56,30.8-69.1,61.9
			c-22.4,54.5,3.6,116.9,57.9,139.3c54.5,22.4,116.9-3.6,139.3-57.9c16.3-39.6,7.3-83.7-20.2-113.2"/>
	</g>
	<path fill="none" stroke="#5E8CC9" stroke-miterlimit="10" d="M242.9,526.2"/>
	<path fill="none" stroke="#5E8CC9" stroke-miterlimit="10" d="M242.9,526.2"/>
	<g>
		<g>
			<path fill="none" stroke="#5E8CC9" stroke-miterlimit="10" d="M366.7,549c0.8,0.4,1.7,0.7,2.4,1.2c1.4,2.4,1.4,4.8,0.4,7.3
				c-1.8,3.7-3.4,7.3-5.1,11c-1.4,3.4-4.3,4.5-6.7,3.4c-2.5-1.2-3.1-3.8-1.4-7.3c1.8-3.8,3.6-7.3,5.1-11.2
				C361.9,550.7,363.8,549.1,366.7,549z M287,558.2c4.1-1.7,5.4-1.2,8.5,2c3,3.1,5.7,6.2,8.5,9.3c2.3,2.5,2.4,5.1,0.4,6.9
				c-2,1.8-5.5,1.7-7.7-0.7c-3.6-3.8-6.7-7.7-9.9-11.6c-0.7-0.8-0.7-2.4-1.2-3.7C286.4,560,286.8,558.9,287,558.2z M287.6,606.9
				c-4.9-1.2-9.5-2.8-14.5-4.3c-2.8-0.7-3.8-3-4.1-5.5c0.4-0.6,0.6-1.2,0.8-1.8c2.3-1.8,4.8-1.7,7.3-0.8c3.4,0.8,6.7,1.8,10.1,2.8
				c1.2,0.4,2,0.7,3.1,1.2c2.4,1.2,3.8,3,3,5.7C292.5,606.7,290.1,607.6,287.6,606.9z M325.8,541.1c1.7,0.1,4.3,1.4,4.5,2.8
				c1.2,6,1.8,11.8,2.5,18c0,0.6-0.1,0.7-0.6,2c-0.8,0.4-2.4,1.8-3.7,1.7c-1.4-0.1-3.8-1.4-4.1-2.5c-1.2-6-2.3-11.6-2.8-17.7
				C321.5,542.8,323.5,540.8,325.8,541.1z M314.2,694.5c-3.8-1.8-7.5-3.6-11.2-5.4c-4.5-2-9.1-4.4-13.6-6.2c-2.4-1.2-3-2.5-1.8-4.9
				c2.8-6.7,2.8-6.7,9.3-3.6c8.1,3.7,16.2,7.3,24.1,11.2c3.7,1.7,3.8,2,2.3,5.7C320.3,697.3,320.3,697.3,314.2,694.5z M320.3,681.1
				c-3.8-1.8-7.5-3.6-11.2-5.4c-4.5-2-9.1-4.4-13.6-6.2c-2.4-1.2-3-2.5-1.8-4.9c2.8-6.7,2.8-6.7,9.3-3.6c8.1,3.7,16.2,7.3,24.1,11.2
				c3.7,1.7,3.8,2,2.3,5.7C326.3,684,326.3,684,320.3,681.1z M360,641.3c-9.2,6.9-18,14.1-24.8,23.5c-2.5,3.7-3.6,3.7-7.7,1.7
				c-3.8-1.8-7.7-3.7-11.6-5.4c-4.5-2-8.9-4.1-13.4-6.2c-2-0.8-3-2.4-2.5-4.5c0.6-2.5,0.7-5.1,1.2-7.7c2-9.1,1.4-18,1.2-27.2
				 M399.6,582.5c-4.1,2.8-8.1,5.5-12.3,7.7c-2.8,1.4-5.7,0.7-6.9-1.4c-1.2-2.3-0.6-4.8,2.4-6.7c3.8-2.5,7.7-5.4,11.8-7.3
				c1.7-0.8,4.4-0.4,6.2,0.6c1.2,0.6,1.2,3.1,1.4,4.5C400.9,581.1,400.2,581.9,399.6,582.5z M395.1,655.4c-2.5,2-5.1,1.8-7.7,0.1
				c-3.8-2.5-7.7-4.9-11.2-7.5c-2.3-1.4-3-4.5-1.4-6.7c1.7-2.4,3.8-2.8,6.2-1.2c4.4,2.8,9.1,6,13.2,9.1c1.2,0.8,1.4,3,2,4.5
				C395.4,654.1,395.3,654.8,395.1,655.4z M412.1,618.8c-1.8,0.6-3.7,1.4-5.7,1.4c-4.1,0.1-8.1,0.1-12.2,0.1c-3.8,0-6.3-2.3-6.2-5.4
				c0-2.5,2.4-4.4,6.2-4.3c4.3,0,8.5,0.4,12.8,0.4c4.4,0,5.4,1.2,6.1,5.5C412.6,617.6,412.2,618.2,412.1,618.8z"/>
		</g>
		<g>
			<path fill="none" stroke="#5E8CC9" stroke-miterlimit="10" d="M378.6,524.9c-53.4-24.8-116.9-1.2-141.6,52.1
				c-24.7,53.4-1.2,116.9,52.1,141.6c53.4,24.8,116.9,1.2,141.6-52.1C455.3,613.3,432.1,549.7,378.6,524.9z"/>
		</g>
		<line fill="none" stroke="#5E8CC9" stroke-miterlimit="10" x1="262.7" y1="471.4" x2="494.4" y2="578.5"/>
		<line fill="none" stroke="#5E8CC9" stroke-miterlimit="10" x1="378.6" y1="524.9" x2="289.2" y2="718.9"/>
		<line fill="none" stroke="#5E8CC9" stroke-miterlimit="10" x1="484.1" y1="550.9" x2="377.4" y2="782.5"/>
		<path fill="none" stroke="#5E8CC9" stroke-miterlimit="10" d="M236.9,577.2"/>
		<line fill="none" stroke="#5E8CC9" stroke-miterlimit="10" x1="404.9" y1="772.3" x2="173.2" y2="665.3"/>
		<line fill="none" stroke="#5E8CC9" stroke-miterlimit="10" x1="183.4" y1="693.1" x2="290.5" y2="461.4"/>
		<path fill="none" stroke="#5E8CC9" stroke-miterlimit="10" d="M236.9,577.2"/>
		<circle fill="none" stroke="#5E8CC9" stroke-miterlimit="10" cx="339.1" cy="610.3" r="36.5"/>
	</g>
	<g>
		<polyline fill="#F9D129" points="244.1,362.7 367.4,521.3 394.1,500.3 270.9,341.7 244.1,362.7 		"/>
		<path fill="#F2C0CD" d="M226.8,312.7c6.7-5.1,13.8-7.7,18.9-3.1l0,0l1.2,1.7l10.1,12.8l13.8,17.7l-27,20.8L230,345.1l-9.9-12.8
			l-1.2-1.7l0.1-0.1C215.8,324.4,220.1,318.3,226.8,312.7"/>
		<path fill="#D0A6B0" d="M222.6,316.8l18.4,23.5l-6.3,10.3l-15.4-19.9l0.1-0.1C216.5,325.8,218.7,320.9,222.6,316.8"/>
		<polyline fill="#D6B432" points="252.9,355.7 376.5,514.2 367.4,521.3 244.1,362.7 252.9,355.7 		"/>
		<path fill="#E0C69B" d="M375,503.3c2.4-1.8,6.9-0.1,10.3,4.1c-3.1-4.1-3.8-9.1-1.2-11c2.4-1.8,6.9-0.1,10.3,4.1l12.8,35.9
			c-1.7,0.6-3.1,1.4-4.5,2.5c-1.4,1.2-2.5,2.4-3.7,3.8l-31.6-21.3l0,0c-3.1-4.1-3.8-9.1-1.2-11c2.5-2,6.9-0.1,10.3,4.1
			C373.1,510.1,372.6,505.4,375,503.3z"/>
		<path fill="#623726" d="M407,536.2l3.6,9.5l1.2,3.4c0,0.6-0.1,0.8-0.4,1.2c-0.4,0.1-0.7,0.1-1.2,0.1l-2.8-1.8l-8.5-5.7
			c0.8-1.4,2.3-2.8,3.7-3.8C403.9,537.7,405.7,536.7,407,536.2z"/>
		<path fill="#ACBEBF" d="M259.6,327.3L259.6,327.3l11.8,15.4l0,0c-4.5,2.5-9.3,5.7-14.1,9.3c-1.4,1.2-3,2.4-4.4,3.6l-11.1-14.4
			l-0.7-0.8c1.4-1.2,2.8-2.4,4.4-3.6C249.9,333.1,254.9,329.9,259.6,327.3z"/>
		<path fill="#99A6A5" d="M241.8,341.1l11.2,14.5c-3.1,2.5-6,5.4-8.3,7.9l0,0l-11.8-15.4l0,0c2.4-2.5,5.1-5.4,8.3-7.9L241.8,341.1z"
			/>
	</g>
</g>
<rect y="299" fill="none" width="612" height="543.5"/>
</svg>
