<?xml version="1.0" encoding="utf-8"?>
<!-- Generator: Adobe Illustrator 18.1.1, SVG Export Plug-In . SVG Version: 6.00 Build 0)  -->
<svg version="1.1" id="Layer_2" xmlns="http://www.w3.org/2000/svg" xmlns:xlink="http://www.w3.org/1999/xlink" x="0px" y="0px"
	 viewBox="0 547.5 612 543.5" enable-background="new 0 547.5 612 543.5" xml:space="preserve">
<g>
	<g>
		<path fill="#DADAD3" d="M103,926.5c69.2-1.1,96.1-76.3,96.1-76.3l61.2-150.9l228.8,92.6L428,942.8c0,0-26.9,75.2-96.1,76.3
			L103,926.5z"/>
		<g>
			<path fill="none" stroke="#974E23" stroke-width="2" stroke-miterlimit="10" d="M347.2,801.1c0.6,0.3,1.3,0.5,1.9,0.9
				c1.3,1.9,1.3,3.7,0.4,5.6c-1.3,2.8-2.4,5.8-3.5,8.6c-1.1,2.6-3.1,3.7-5.1,2.8c-1.9-0.9-2.6-2.8-1.4-5.6c1.3-2.9,2.6-5.8,3.7-8.6
				C343.6,802.4,345,801.3,347.2,801.1z M286.6,810.8c3.1-1.4,4.2-1.3,6.5,1.3c2.3,2.3,4.6,4.6,6.8,7c1.9,1.9,1.9,3.9,0.5,5.3
				c-1.4,1.4-4.2,1.4-5.9-0.3c-2.7-2.8-5.3-5.6-7.9-8.6c-0.5-0.6-0.6-1.9-0.9-2.7C285.9,811.9,286.3,811.3,286.6,810.8z
				 M288.5,847.9c-3.7-0.9-7.5-1.9-11.2-2.7c-2.1-0.5-2.9-2.1-3.3-4.2c0.1-0.4,0.4-0.9,0.5-1.4c1.8-1.4,3.4-1.4,5.6-0.9
				c2.7,0.6,5.1,1.1,7.9,1.9c0.9,0.3,1.5,0.4,2.4,0.6c1.9,0.9,3.1,2.1,2.6,4.2C292.3,847.7,290.3,848.3,288.5,847.9z M315.6,796.3
				c1.3,0,3.4,0.9,3.5,1.9c1.1,4.6,1.9,9,2.6,13.6c0.1,0.4-0.1,0.5-0.3,1.5c-0.6,0.4-1.9,1.4-2.8,1.4c-1.1-0.1-2.9-0.9-3.1-1.9
				c-1.1-4.3-1.9-8.8-2.7-13.3C312.2,797.7,313.8,796.3,315.6,796.3z M311.4,914c-2.9-1.3-5.9-2.4-8.8-3.7
				c-3.4-1.4-7.1-3.1-10.7-4.3c-1.9-0.9-2.4-1.9-1.5-3.7c1.9-5.1,1.9-5.1,7.1-2.9c6.4,2.6,12.5,5.1,18.9,7.7
				c2.8,1.1,2.9,1.4,1.9,4.2C316.2,915.9,316.2,915.9,311.4,914z M315.6,903.6c-2.9-1.3-5.9-2.4-8.8-3.7c-3.4-1.4-7.1-3.1-10.7-4.3
				c-1.9-0.9-2.4-1.9-1.5-3.7c1.9-5.1,1.9-5.1,7.1-2.9c6.4,2.6,12.5,5.1,18.9,7.7c2.8,1.1,2.9,1.4,1.9,4.2
				C320.3,905.6,320.3,905.6,315.6,903.6z M355,859.2c-2.4,4.8-5.8,9-9.9,12.5c-6.8,5.6-13.3,11.3-18.3,18.9
				c-1.9,2.9-2.6,2.8-5.9,1.5c-3.1-1.3-6-2.6-9-3.7c-3.4-1.4-7-2.8-10.4-4.3c-1.5-0.6-2.4-1.9-2.1-3.4c0.3-1.9,0.4-3.9,0.6-5.9
				c1.3-7,0.5-13.9,0-20.8c-0.5-7.1,0.1-14.3,3.7-20.7c4.7-8.7,12.3-13.2,22.3-12.6c8.6,0.5,16.4,3.7,23.1,9.4
				C357.8,837.8,359.9,848.9,355,859.2z M373.3,825.7c-2.9,2.3-6,4.3-9,6.4c-2.1,1.3-4.3,0.9-5.3-0.9c-1.1-1.8-0.5-3.7,1.5-5.1
				c2.8-2.1,5.8-4.3,8.8-6c1.3-0.6,3.4-0.4,4.8,0.1c0.9,0.4,0.9,2.4,1.3,3.4C374.3,824.6,373.8,825.3,373.3,825.7z M372.1,881.6
				c-1.9,1.5-3.7,1.5-5.9,0.3c-3.1-1.9-6-3.7-9-5.3c-1.9-1.1-2.4-3.4-1.4-5.1c1.3-1.9,2.9-2.3,4.8-1.1c3.4,1.9,7.1,4.2,10.3,6.5
				c0.9,0.5,1.1,2.3,1.8,3.4C372.4,880.7,372.3,881.1,372.1,881.6z M383.9,853c-1.4,0.5-2.8,1.1-4.3,1.3c-2.9,0.3-6.2,0.4-9.4,0.5
				c-2.9,0.1-4.8-1.5-4.8-3.7c0-1.9,1.8-3.4,4.7-3.4c3.3-0.1,6.5,0,9.8,0c3.4,0,4.2,0.6,4.8,4.2C384.2,851.9,384.2,852.6,383.9,853z
				"/>
		</g>
		<g>
			<path fill="none" stroke="#974E23" stroke-width="2" stroke-miterlimit="10" d="M301.5,779.6c-23.1,6.8-42.8,23.5-52.9,47.3
				c-17.2,41.7,2.7,89.4,44.3,106.6c41.6,17.2,89.4-2.7,106.6-44.3c12.5-30.3,5.6-64-15.5-86.6"/>
		</g>
		<path fill="none" stroke="#5E8CC9" stroke-miterlimit="10" d="M255.4,784.9"/>
		<path fill="none" stroke="#5E8CC9" stroke-miterlimit="10" d="M255.4,784.9"/>
		<g>
			<g>
				<path fill="none" stroke="#5E8CC9" stroke-miterlimit="10" d="M350.1,802.4c0.6,0.3,1.3,0.5,1.9,0.9c1.1,1.9,1.1,3.7,0.3,5.6
					c-1.4,2.8-2.6,5.6-3.9,8.4c-1.1,2.6-3.3,3.4-5.1,2.6c-1.9-0.9-2.4-2.9-1.1-5.6c1.4-2.9,2.7-5.6,3.9-8.6
					C346.4,803.7,347.9,802.4,350.1,802.4z M289.1,809.4c3.1-1.3,4.2-0.9,6.5,1.5c2.3,2.4,4.3,4.8,6.5,7.1c1.8,1.9,1.9,3.9,0.3,5.3
					c-1.5,1.4-4.2,1.3-5.9-0.5c-2.7-2.9-5.1-5.9-7.6-8.8c-0.5-0.6-0.5-1.9-0.9-2.8C288.7,810.8,289,809.9,289.1,809.4z M289.5,846.6
					c-3.7-0.9-7.2-2.1-11-3.3c-2.1-0.5-2.9-2.3-3.1-4.2c0.3-0.4,0.4-0.9,0.6-1.4c1.8-1.4,3.7-1.3,5.6-0.6c2.6,0.6,5.1,1.4,7.7,2.1
					c0.9,0.3,1.5,0.5,2.4,0.9c1.9,0.9,2.9,2.3,2.3,4.3C293.4,846.6,291.5,847.2,289.5,846.6z M318.8,796.3c1.3,0.1,3.3,1.1,3.5,2.1
					c0.9,4.6,1.4,9,1.9,13.8c0,0.4-0.1,0.5-0.4,1.5c-0.6,0.3-1.9,1.4-2.8,1.3c-1.1-0.1-2.9-1.1-3.1-1.9c-0.9-4.6-1.8-8.8-2.1-13.5
					C315.6,797.6,317.1,796.1,318.8,796.3z M309.9,913.7c-2.9-1.4-5.8-2.7-8.6-4.2c-3.4-1.5-7-3.4-10.4-4.8
					c-1.9-0.9-2.3-1.9-1.4-3.7c2.1-5.1,2.1-5.1,7.1-2.7c6.2,2.8,12.4,5.6,18.4,8.6c2.8,1.3,2.9,1.5,1.8,4.3
					C314.6,915.8,314.6,915.8,309.9,913.7z M314.6,903.4c-2.9-1.4-5.8-2.7-8.6-4.2c-3.5-1.5-7-3.4-10.4-4.8
					c-1.9-0.9-2.3-1.9-1.4-3.7c2.1-5.1,2.1-5.1,7.1-2.7c6.2,2.8,12.4,5.6,18.4,8.6c2.8,1.3,2.9,1.5,1.8,4.3
					C319.2,905.6,319.2,905.6,314.6,903.4z M345,873c-7.1,5.3-13.8,10.8-19,18c-1.9,2.8-2.7,2.8-5.9,1.3c-2.9-1.4-5.9-2.8-8.8-4.2
					c-3.5-1.5-6.8-3.1-10.3-4.8c-1.5-0.6-2.3-1.9-1.9-3.4c0.4-1.9,0.5-3.9,0.9-5.9c1.5-7,1.1-13.8,0.9-20.8 M375.2,828
					c-3.1,2.1-6.2,4.2-9.4,5.9c-2.1,1.1-4.3,0.5-5.3-1.1c-0.9-1.8-0.4-3.7,1.9-5.1c2.9-1.9,5.9-4.2,9-5.6c1.3-0.6,3.4-0.3,4.8,0.4
					c0.9,0.4,0.9,2.4,1.1,3.4C376.2,826.9,375.7,827.5,375.2,828z M371.8,883.8c-1.9,1.5-3.9,1.4-5.9,0.1c-2.9-1.9-5.9-3.7-8.6-5.8
					c-1.8-1.1-2.3-3.4-1.1-5.1c1.3-1.9,2.9-2.1,4.8-0.9c3.4,2.1,7,4.6,10.1,7c0.9,0.6,1.1,2.3,1.5,3.4
					C372.1,882.8,372,883.3,371.8,883.8z M384.8,855.7c-1.4,0.4-2.8,1.1-4.3,1.1c-3.1,0.1-6.2,0.1-9.4,0.1c-2.9,0-4.8-1.8-4.8-4.2
					c0-1.9,1.9-3.4,4.8-3.3c3.3,0,6.5,0.3,9.8,0.3c3.4,0,4.2,0.9,4.7,4.2C385.2,854.9,384.9,855.3,384.8,855.7z"/>
			</g>
			<g>
				<path fill="none" stroke="#5E8CC9" stroke-miterlimit="10" d="M359.2,783.9c-40.9-19-89.4-0.9-108.3,39.9
					c-18.9,40.9-0.9,89.4,39.9,108.3c40.9,19,89.4,0.9,108.3-39.9C417.9,851.6,400.1,803,359.2,783.9z"/>
			</g>
			<line fill="none" stroke="#5E8CC9" stroke-miterlimit="10" x1="270.5" y1="743" x2="447.8" y2="825"/>
			<line fill="none" stroke="#5E8CC9" stroke-miterlimit="10" x1="359.2" y1="783.9" x2="290.8" y2="932.3"/>
			<line fill="none" stroke="#5E8CC9" stroke-miterlimit="10" x1="439.9" y1="803.8" x2="358.3" y2="981"/>
			<path fill="none" stroke="#5E8CC9" stroke-miterlimit="10" d="M250.8,824"/>
			<line fill="none" stroke="#5E8CC9" stroke-miterlimit="10" x1="379.3" y1="973.2" x2="202.1" y2="891.4"/>
			<line fill="none" stroke="#5E8CC9" stroke-miterlimit="10" x1="209.9" y1="912.6" x2="291.8" y2="735.4"/>
			<path fill="none" stroke="#5E8CC9" stroke-miterlimit="10" d="M250.8,824"/>
			<circle fill="none" stroke="#5E8CC9" stroke-miterlimit="10" cx="329" cy="849.3" r="27.9"/>
		</g>
		<g>
			<polyline fill="#F9D129" points="256.3,659.9 350.7,781.2 371.1,765.1 276.8,643.8 256.3,659.9 			"/>
			<path fill="#F2C0CD" d="M243.1,621.7c5.1-3.9,10.5-5.9,14.4-2.4l0,0l0.9,1.3l7.7,9.8l10.5,13.5l-20.7,16l-10.5-13.4l-7.6-9.8
				l-0.9-1.3l0.1-0.1C234.6,630.6,238,625.9,243.1,621.7"/>
			<path fill="#D0A6B0" d="M239.8,624.7l14.1,17.9l-4.8,7.9l-11.7-15.1l0.1-0.1C235.2,631.6,236.8,627.9,239.8,624.7"/>
			<polyline fill="#D6B432" points="263,654.5 357.6,775.8 350.7,781.2 256.3,659.9 263,654.5 			"/>
			<path fill="#E0C69B" d="M356.4,767.4c1.9-1.4,5.3-0.1,7.9,3.1c-2.4-3.1-2.9-7-0.9-8.4c1.9-1.4,5.3-0.1,7.9,3.1l9.8,27.5
				c-1.3,0.4-2.4,1.1-3.5,1.9c-1.1,0.9-1.9,1.9-2.8,2.9l-24.1-16.3l0,0c-2.4-3.1-2.9-7-0.9-8.4c1.9-1.5,5.3-0.1,7.9,3.1
				C355,772.6,354.6,769,356.4,767.4z"/>
			<path fill="#623726" d="M380.9,792.6l2.7,7.2l0.9,2.6c0,0.4-0.1,0.6-0.3,0.9c-0.3,0.1-0.5,0.1-0.9,0.1l-2.1-1.4l-6.5-4.3
				c0.6-1.1,1.8-2.1,2.8-2.9C378.5,793.8,379.9,793,380.9,792.6z"/>
			<path fill="#ACBEBF" d="M268.1,632.8L268.1,632.8l9,11.8l0,0c-3.4,1.9-7.1,4.3-10.8,7.1c-1.1,0.9-2.3,1.9-3.4,2.7l-8.5-11
				l-0.5-0.6c1.1-0.9,2.1-1.9,3.4-2.7C260.7,637.2,264.6,634.7,268.1,632.8z"/>
			<path fill="#99A6A5" d="M254.5,643.3l8.6,11c-2.4,1.9-4.6,4.2-6.4,6l0,0l-9-11.8l0,0c1.9-1.9,3.9-4.2,6.4-6L254.5,643.3z"/>
		</g>
	</g>
	<rect y="547.5" fill="none" width="612" height="543.5"/>
</g>
</svg>
