<?xml version="1.0" encoding="utf-8"?>
<!-- Generator: Adobe Illustrator 18.1.1, SVG Export Plug-In . SVG Version: 6.00 Build 0)  -->
<svg version="1.1" id="Layer_1" xmlns="http://www.w3.org/2000/svg" xmlns:xlink="http://www.w3.org/1999/xlink" x="0px" y="0px"
	 viewBox="0 912.2 612 191.4" enable-background="new 0 912.2 612 191.4" xml:space="preserve">
<g>
	<path fill="#97A766" d="M83.9,970.6c-2,0-3.6,1.6-3.6,3.6v7h3.6h3.6v-7C87.3,972.2,85.7,970.6,83.9,970.6z"/>
	<path fill="#97A766" d="M83.9,912.2C37.5,912.2,0,949.8,0,996.1c0,46.3,37.5,83.9,83.9,83.9s83.9-37.5,83.9-83.9
		C167.7,949.7,130,912.2,83.9,912.2z M54.3,939.2h8.4v7.5H67v-7.5h8.4v7.5h4.3v-7.5H88v7.5h4.3v-7.5h8.4v7.5h4.3v-7.5h8.4v12.2
		l-6.3,9H83.9H60.6l-6.3-9V939.2z M36,1050.3v-57v-0.5l-2.5-2.5v-3.8v-9.7h7.2v7.9h5.4v-7.9h7.5v7.9h4.1l-4.3,65.6H36z M93.2,1050.3
		v-27.8c0-5.2-4.1-9.3-9.3-9.3c-5.2,0-9.3,4.1-9.3,9.3v27.8H56.1l4.3-65.6l0,0l1.6-22.2h21.9h21.9l1.6,22.2l0,0l4.3,65.6H93.2
		L93.2,1050.3z M134.3,986.6v3.8l-2.5,2.5v0.5v56.8h-17.4l-4.3-65.6h4.1v-7.9h7.5v7.9h5.4v-7.9h7.5v10L134.3,986.6L134.3,986.6z"/>
</g>
<path fill="#97A766" d="M305.9,912.2c-46.4,0-83.9,37.5-83.9,83.9c0,46.4,37.5,83.9,83.9,83.9s83.9-37.5,83.9-83.9
	C389.8,949.7,352.3,912.2,305.9,912.2z M301.2,928.3c0-0.9,0.7-1.6,1.6-1.6h6.1c0.9,0,1.6,0.7,1.6,1.6v7.5h-9.3L301.2,928.3
	L301.2,928.3z M354.5,984.2l-16.3,11.5c-0.7,0.5-1.6,0.7-2.3,0.7l0,0l-25.3-0.2v39.8c-0.5,0.5-0.9,0.9-1.1,1.6
	c-1.1,2-2.3,3.8-3.4,5.9c-1.1-2-2.3-4.1-3.4-5.9c-0.5-0.7-0.9-1.1-1.4-1.8v-39.6l-25.6-0.2c-0.7,0-1.4-0.7-1.4-1.4l0.2-23.7
	c0-0.7,0.7-1.4,1.4-1.4l0,0l25.1,0.2v-4.5h-25.3c-0.7,0-1.8-0.5-2.3-0.7L257.1,953c-0.7-0.5-0.7-1.1,0-1.6l16.3-11.5
	c0.7-0.5,1.6-0.7,2.3-0.7h20.2h5.2h9.3h2.7h22.6c0.7,0,1.4,0.7,1.4,1.4v23.7c0,0.7-0.7,1.4-1.4,1.4h-25.6v4.5l25.6,0.2
	c0.7,0,1.8,0.5,2.3,0.7l16.3,11.8C355.2,983,355.2,983.7,354.5,984.2z"/>
<g>
	<g>
		<path fill="#97A766" d="M528.1,912.2c-46.4,0-83.9,37.5-83.9,83.9c0,46.4,37.5,83.9,83.9,83.9s83.9-37.5,83.9-83.9
			C612,949.7,574.3,912.2,528.1,912.2z M475.4,1043.3l52.7-107.7l56.1,107.7H475.4z"/>
	</g>
	<polygon fill="#97A766" points="545.1,980.3 539,976.7 535.9,992.5 530,971 520.7,992.5 520,975.1 506.7,989.4 485.4,1036 
		574.4,1036 	"/>
</g>
<g>
	<path fill="#015D53" d="M462.3,968.6L441,951c-1.8-1.6-4.7-1.6-6.6,0s-1.8,4.1,0,5.4l11.3,9.5c-7.5,0.7-14.9,1.6-22.2,3.2
		c-3.2,0.7-5,3.2-4.3,5.9c0.7,2.3,2.9,3.8,5.7,3.8c0.5,0,0.9,0,1.4-0.2c6.8-1.4,13.8-2.3,21-2.9l-12.6,10.6c-1.8,1.6-1.8,4.1,0,5.4
		c0.9,0.7,2,1.1,3.4,1.1s2.5-0.5,3.4-1.1l21-17.4C464.1,972.4,464.1,969.9,462.3,968.6z"/>
	<path fill="#015D53" d="M322.9,1038.6c-2.9-1.1-6.3-0.2-7.9,2.3c-3.6,5.9-6.6,12-9,18.1c-2.3-6.1-5.4-12-9-18.1
		c-1.4-2.5-5-3.4-7.9-2.3s-4.1,4.1-2.5,6.6c4.1,6.8,7.5,13.8,9.7,20.6c0.7,2,3.2,3.6,5.7,3.6c0.5,0,7.5,0,8.1,0c2.5,0,5-1.4,5.7-3.6
		c2.3-6.8,5.7-13.8,9.7-20.6C326.7,1042.9,325.6,1039.9,322.9,1038.6z"/>
	<path fill="#015D53" d="M348.9,1002.7c-6.8,5.4-13.1,11.5-19,17.9c-1.8,2.3-1.4,5.2,1.1,6.8c1.1,0.7,2.3,0.9,3.4,0.9
		c1.8,0,3.6-0.7,4.7-2c5.4-5.9,11.3-11.5,17.6-16.7c2.3-1.8,2.5-5,0.2-6.8C355,1000.9,351.1,1000.9,348.9,1002.7z"/>
	<path fill="#015D53" d="M396.6,976.2c-8.8,3.2-17.2,7-25.3,11.3c-2.7,1.6-3.4,4.5-1.6,6.8c1.1,1.4,2.9,2.3,5,2.3
		c1.1,0,2.3-0.2,3.2-0.9c7.5-4.1,15.2-7.7,23.3-10.6c2.9-1.1,4.3-3.8,2.9-6.3C402.9,976.5,399.5,975.3,396.6,976.2z"/>
	<path fill="#015D53" d="M240.5,987.8c-7.9-4.5-16.5-8.1-25.3-11.3c-2.9-1.1-6.3,0-7.7,2.5s0,5.4,2.9,6.3
		c8.1,2.9,16.1,6.6,23.3,10.6c0.9,0.5,2,0.9,3.2,0.9c1.8,0,3.8-0.7,5-2.3C243.9,992.3,243.3,989.1,240.5,987.8z"/>
	<path fill="#015D53" d="M262.9,1002.7c-2.3-1.8-6.1-1.8-8.4,0.2c-2.3,2-2.3,5,0.2,6.8c6.3,5,12.2,10.6,17.6,16.7
		c1.1,1.4,2.9,2,4.7,2c1.1,0,2.5-0.2,3.4-0.9c2.5-1.6,3.2-4.7,1.1-6.8C276.3,1014.1,269.9,1008,262.9,1002.7z"/>
	<path fill="#015D53" d="M188.1,968.8c-7.2-1.4-14.7-2.5-22.2-3.2l11.3-9.5c1.8-1.6,1.8-4.1,0-5.4c-1.8-1.6-4.7-1.6-6.6,0
		l-21.2,17.9c-0.9,0.7-1.4,1.8-1.4,2.7s0.5,2,1.4,2.7l21,17.4c0.9,0.7,2,1.1,3.4,1.1s2.5-0.5,3.4-1.1c1.8-1.6,1.8-4.1,0-5.4
		l-12.7-10.6c7.2,0.7,14.2,1.6,21,2.9c0.5,0,0.9,0.2,1.4,0.2c2.7,0,5-1.6,5.7-3.8C193.3,972.2,191.2,969.5,188.1,968.8z"/>
	<path fill="#015D53" d="M305.9,1082.4L305.9,1082.4L305.9,1082.4c-3.2,0-5.9,2.3-5.9,4.7v11.8c0,2.7,2.7,4.7,5.9,4.7l0,0l0,0
		c3.2,0,5.9-2.3,5.9-4.7v-11.8C311.8,1084.5,309.1,1082.4,305.9,1082.4z"/>
</g>
</svg>
