<?xml version="1.0" encoding="utf-8"?>
<!-- Generator: Adobe Illustrator 18.1.1, SVG Export Plug-In . SVG Version: 6.00 Build 0)  -->
<svg version="1.1" id="Layer_1" xmlns="http://www.w3.org/2000/svg" xmlns:xlink="http://www.w3.org/1999/xlink" x="0px" y="0px"
	 viewBox="0 312.2 612.2 167.8" enable-background="new 0 312.2 612.2 167.8" xml:space="preserve">
<g>
	<g>
		<path fill="#CE672B" enable-background="new    " d="M83.9,370.6c-2,0-3.6,1.6-3.6,3.6v7h3.6h3.6v-7
			C87.3,372.1,85.7,370.6,83.9,370.6z"/>
		<path fill="#CE672B" enable-background="new    " d="M83.9,312.2C37.5,312.2,0,349.7,0,396.1S37.5,480,83.9,480
			s83.9-37.5,83.9-83.9S130,312.2,83.9,312.2z M54.3,339.1h8.4v7.5H67v-7.5h8.4v7.5h4.3v-7.5H88v7.5h4.3v-7.5h8.4v7.5h4.3v-7.5h8.4
			v12.2l-6.3,9H83.9H60.6l-6.3-9V339.1z M36,450.2v-56.8v-0.5l-2.5-2.5v-3.8v-9.7h7.2v7.7h5.4v-7.9h7.5v7.9h4.1l-4.3,65.6L36,450.2
			L36,450.2z M93.2,450.2v-27.6c0-5.2-4.1-9.3-9.3-9.3c-5.2,0-9.3,4.1-9.3,9.3v27.6H56.1l4.3-65.6l0,0l1.6-22.2h21.9h21.9l1.6,22.2
			l0,0l4.3,65.6H93.2z M134.3,386.4v3.8l-2.5,2.5v0.5v57h-17.4l-4.3-65.6h4.1v-7.9h7.5v7.9h5.4v-7.9h7.5v9.7H134.3z"/>
	</g>
	<g>
		<path fill="#CE672B" enable-background="new    " d="M306,378.7c-1.6,0-2.7,1.1-2.7,2.7v5.4h2.7h2.7v-5.4
			C308.9,380.1,307.6,378.7,306,378.7z"/>
		<path fill="#CE672B" enable-background="new    " d="M306,312.2c-46.4,0-83.9,37.5-83.9,83.9S259.6,480,306,480
			s83.9-37.5,83.9-83.9S352.4,312.2,306,312.2z M306,320.6l14.2,28.3H306h-14.2L306,320.6z M283.8,351.1h6.3v5.4h3.2v-5.4h6.3v5.4
			h3.2v-5.4h6.3v5.4h3.2v-5.4h6.3v5.4h3.2v-5.4h6.3v8.8l-4.7,6.6H306h-17.4l-4.7-6.6v-8.8H283.8z M239.5,373h5.2v4.7h2.7V373h5.2
			v4.7h2.7V373h5.2v4.7h2.7V373h5.2v4.7h2.7V373h5.2v7.7l-3.8,5.7h-14.2H244l-3.8-5.7V373H239.5z M240.6,443.4l2.7-41.4l0,0l0.9-14
			h13.3h13.3l0.9,14l0,0l2.7,41.4H240.6z M336.8,402L336.8,402l-2.7,41.4h-7l0,0h-13.8v-21.3c0-3.8-3.2-7.2-7-7.2s-7,3.2-7,7.2v21.3
			H292l0,0h-13.8l-2.7-41.4l0,0l-0.5-8.1h2.7v-5.2h5.2v5h5.9V393l0,0l1.1-25.3h32.8l1.1,25.3l0,0v0.7h5.7v-5.2h5.2v5.2h2.7
			L336.8,402z M337.7,443.4l2.7-41.4l0,0l0.9-14h13.3H368l0.9,14l0,0l2.7,41.4H337.7z M368.6,386.4h-14.2h-14.2l-3.8-5.7V373h5.2
			v4.7h2.7V373h5.2v4.7h2.7V373h5.2v4.7h2.7V373h5.2v4.7h2.7V373h5.2v7.7L368.6,386.4z"/>
		<path fill="#CE672B" enable-background="new    " d="M257.6,395.4c-1.6,0-2.7,1.1-2.7,2.7v5.4h2.7h2.7v-5.4
			C260.3,396.8,259,395.4,257.6,395.4z"/>
		<path fill="#CE672B" enable-background="new    " d="M354.6,395.4c-1.6,0-2.7,1.1-2.7,2.7v5.4h2.7h2.7v-5.4
			C357.3,396.8,356,395.4,354.6,395.4z"/>
	</g>
	<g>
		<path fill="#CE672B" enable-background="new    " d="M479.7,395.4c-1.6,0-2.7,1.1-2.7,2.7v5.4h2.7h2.7v-5.4
			C482.4,396.8,481.3,395.4,479.7,395.4z"/>
		<path fill="#CE672B" enable-background="new    " d="M528.3,378.7c-1.6,0-2.7,1.1-2.7,2.7v5.4h2.7h2.7v-5.4
			C531,380.1,529.9,378.7,528.3,378.7z"/>
		<path fill="#CE672B" enable-background="new    " d="M528.3,312.2c-46.4,0-83.9,37.5-83.9,83.9S482,480,528.3,480
			s83.9-37.5,83.9-83.9S574.5,312.2,528.3,312.2z M567.4,365.4c3.8-2.9,8.8-9,9.5-13.6c0.7,4.5,5.7,10.6,9.5,13.6
			c3.6,2.9,10,12.7-0.2,20.6h-9.5h-9.3C557.5,378,563.6,368.3,567.4,365.4z M516.6,340c4.7-3.6,10.9-11.1,11.5-16.7
			c0.7,5.7,6.8,13.1,11.5,16.7c4.5,3.4,12.2,15.6-0.2,25.3h-11.3h-11.3C504.6,355.6,512,343.6,516.6,340z M470.2,365.4
			c3.8-2.9,8.8-9,9.5-13.6c0.7,4.5,5.7,10.6,9.5,13.6c3.6,2.9,10,12.7-0.2,20.6h-9.3h-9.3C460.5,378,466.6,368.3,470.2,365.4z
			 M462.7,443.4l2.7-41.4l0,0l0.9-14h13.3H493l0.9,14l0,0l2.7,41.4H462.7z M558.9,402L558.9,402l-2.5,41.4h-7l0,0h-13.8v-21.3
			c0-3.8-3.2-7.2-7-7.2s-7,3.2-7,7.2v21.3h-7.2l0,0h-13.8l-2.9-41.4l0,0l-0.5-8.1h2.7v-5.2h5.2v5h5.9V393l0,0l1.1-25.3h32.8L546,393
			l0,0v0.7h5.7v-5.2h5.2v5.2h2.7L558.9,402z M559.8,443.4l2.7-41.4l0,0l0.9-14h13.3H590l0.9,14l0,0l2.7,41.4H559.8z"/>
		<path fill="#CE672B" enable-background="new    " d="M576.7,395.4c-1.6,0-2.7,1.1-2.7,2.7v5.4h2.7h2.7v-5.4
			C579.4,396.8,578.3,395.4,576.7,395.4z"/>
	</g>
	<path fill="#015D53" d="M226.6,397.9c0-0.2,0-0.5,0-0.7s0-0.5-0.2-0.7c0-0.2,0-0.2,0-0.5v-0.2c0-0.2-0.2-0.5-0.5-0.7
		c-0.2-0.2-0.2-0.5-0.5-0.5c0,0,0-0.2-0.2-0.2l-15.6-15.6c-1.8-1.8-4.5-1.8-6.3,0s-1.8,4.5,0,6.3l7.9,7.9h-48.9
		c-2.5,0-4.5,2-4.5,4.5s2,4.5,4.5,4.5h48.9l-7.7,7.9c-1.8,1.8-1.8,4.5,0,6.3c0.9,0.9,2,1.4,3.2,1.4c1.1,0,2.3-0.5,3.2-1.4l15.6-15.6
		c0,0,0-0.2,0.2-0.2c0.2-0.2,0.2-0.5,0.5-0.5c0.2-0.2,0.2-0.5,0.5-0.7V399c0-0.2,0-0.2,0-0.5s0.2-0.5,0.2-0.7
		C226.6,398.4,226.6,398.1,226.6,397.9z"/>
	<path fill="#015D53" d="M451.4,397.9c0-0.2,0-0.5,0-0.7s0-0.5-0.2-0.7c0-0.2,0-0.2,0-0.5v-0.2c0-0.2-0.2-0.5-0.5-0.7
		c-0.2-0.2-0.2-0.5-0.5-0.5c0,0,0-0.2-0.2-0.2l-15.6-15.6c-1.8-1.8-4.5-1.8-6.3,0s-1.8,4.5,0,6.3l7.9,7.9h-48.9
		c-2.5,0-4.5,2-4.5,4.5s2,4.5,4.5,4.5H436l-7.9,7.9c-1.8,1.8-1.8,4.5,0,6.3c0.9,0.9,2,1.4,3.2,1.4s2.3-0.5,3.2-1.4l15.6-15.6
		c0,0,0-0.2,0.2-0.2c0.2-0.2,0.2-0.5,0.5-0.5c0.2-0.2,0.2-0.5,0.5-0.7V399c0-0.2,0-0.2,0-0.5s0.2-0.5,0.2-0.7
		C451.4,398.4,451.4,398.1,451.4,397.9z"/>
</g>
</svg>
