<?xml version="1.0" encoding="utf-8"?>
<!-- Generator: Adobe Illustrator 18.1.1, SVG Export Plug-In . SVG Version: 6.00 Build 0)  -->
<svg version="1.1" id="Layer_1" xmlns="http://www.w3.org/2000/svg" xmlns:xlink="http://www.w3.org/1999/xlink" x="0px" y="0px"
	 viewBox="0 156 612 480" enable-background="new 0 156 612 480" xml:space="preserve">
<path fill="#83C5EB" d="M306.1,307.6c-48.6,0-87.8,39.4-87.8,87.8s39.4,87.8,87.8,87.8s87.8-39.4,87.8-87.8S354.5,307.6,306.1,307.6
	z M375.3,360.8v0.2c0,0.2,0,0.3-0.2,0.3c0,0.2,0,0.3,0,0.5s0,0.5-0.2,0.6c-0.3,1.6-0.8,3.3-1.6,5.3c-1.1,3.1-2.3,6.1-3.4,8.4
	c-0.5,1.1-0.9,2.2-1.4,3.1c-0.5,1.1-1.1,2.3-1.6,3.4c-0.8,1.6-1.2,3.4-1.7,5.6c-0.5,2-0.8,4-1.1,6.1c0,0.3-0.2,0.6-0.2,0.9
	c-0.3,1.7-0.6,3.6-1.1,5.4c-0.5,1.9-0.9,3.4-1.7,5c-0.8,1.6-1.6,2.9-2.5,4.3c-1.4,1.9-2.9,3.3-4.5,4.2c-1.7,0.9-3.4,1.6-5.3,1.7
	c-0.3,0-0.5,0-0.6,0c-0.5,0-0.8,0-1.1,0c1.6,1.4,3.1,3.1,4.5,5.1c0.3,0.3,0.5,0.6,0.8,1.1c0.9,1.6,1.4,3.4,1.4,5.9
	c0,1.7-0.2,3.3-0.6,5.1c-0.5,1.9-1.1,3.9-1.9,5.9c-1.2,3.3-2.9,6.5-4.8,9.6c-2.2,3.6-4.3,6.4-6.8,8.8c-1.2,1.2-2.5,2.3-3.6,3.1
	s-2,1.1-2.8,1.4c0,0-0.2,0-0.2,0.2h-0.2l0,0H331l0,0c0,0,0,0-0.2,0c0,0,0,0-0.2,0s-0.2,0-0.3,0c-0.5-0.2-1.1-0.3-1.6-0.5
	c-1.9-0.6-3.7-1.7-5.4-3.1c-2-1.7-3.7-3.7-5.4-6.2c-2.2-3.3-4-6.5-5.7-9.9c-0.6-1.1-1.1-2.3-1.7-3.6c-1.1-2.2-1.9-4.5-2.5-6.8v0.2
	c0,1.1,0,2,0,3.1c0,0.3,0,0.6,0,0.9c0,2.2-0.2,4.3-0.2,6.4l0,0c0,1.4-0.2,2.8-0.3,4c0,0.5-0.2,1.1-0.3,1.7s-0.5,0.9-0.9,1.1h-0.2
	c-0.5,0-0.8-0.3-1.1-0.8c-0.2-0.3-0.2-0.6-0.3-0.8c-0.2-0.5-0.2-0.9-0.2-1.6c0-1.1-0.2-2-0.2-3.1c0-0.3,0-0.6,0-0.8
	c0-0.8,0-1.6-0.2-2.2c0-0.3,0-0.8,0-1.1c0-1.4-0.2-2.9-0.2-4.5c0-0.8,0-1.6-0.2-2.5c0-0.2,0-0.3,0-0.5l0,0c-0.3,0.8-0.5,1.6-0.8,2.3
	c-0.9,2.8-2.2,5.4-3.7,8.7c-1.4,2.6-2.9,5.4-5,8.5c-1.2,2-2.6,3.9-4.2,5.4c-1.7,1.9-3.6,3.1-5.6,4c-1.6,0.8-2.9,1.1-4.5,1.2
	c-0.2,0-0.2,0-0.3,0c-0.6,0-1.2-0.2-1.7-0.3c-0.9-0.3-1.9-0.9-2.8-1.6c-1.7-1.2-3.4-2.8-5.3-5c-1.9-2.3-3.7-4.8-5.4-7.6
	c-1.9-3.1-3.3-6.1-4.5-9.2c-1.1-2.8-1.7-5.3-2-7.8c-0.2-1.6-0.3-2.9-0.2-4.2c0.2-2,0.8-3.9,1.9-5.3c1.6-2.2,3.3-4,4.8-5.6
	c-0.5,0-0.8,0.2-1.2,0.2s-1.1,0-1.6-0.2c-1.1-0.2-2.2-0.5-3.3-0.9c-1.7-0.8-3.3-2-4.5-3.6c-1.2-1.4-2.5-3.3-3.4-5.4
	c-0.8-1.7-1.4-3.6-2-6.2c-0.3-1.7-0.6-3.6-0.9-5.3c0-0.3-0.2-0.5-0.2-0.8c-0.3-1.6-0.5-3.3-0.9-5c-0.5-2.3-1.1-4.2-1.9-6.1
	c-0.9-2.2-1.9-4.2-2.6-6.1c-0.8-1.9-1.9-4.2-2.8-6.7c-0.9-2.5-2-5.6-2.5-8.8c0,0,0-0.2,0-0.3l-0.2-0.2l-0.3-3.1l0.2-0.2
	c0,0,0-0.2,0-0.3v-0.2c0-2.8,0.8-5.3,2.2-7c0.5-0.6,1.1-1.1,1.7-1.6c2.2-1.6,4.5-2.5,7-2.8h0.2h0.2l0,0h3.3l0,0h0.2h0.2
	c1.2,0,2.6,0.5,3.7,0.6c2.2,0.6,4.2,1.4,6.5,2.6c2.8,1.4,5.6,3.1,8.5,5.1c5.1,3.7,9.6,7.3,13.7,11c3.9,3.6,7,7.1,9.8,11
	c2.6,3.6,4.8,7.5,6.5,11.5c0.6,1.6,1.2,2.9,1.7,4.5c0.2-1.1,0.2-2,0.3-3.1c0.2-0.9,0.3-2,0.8-3.3c0.3-0.6,0.5-1.2,0.9-1.7
	c-0.3-0.5-0.5-0.9-0.6-1.7s-0.2-1.6,0.2-2.3c0.2-0.6,0.5-1.2,0.9-1.6c0-0.2,0-0.2-0.2-0.3c-0.5-1.6-1.1-3.1-1.7-4.7
	c-0.9-2.2-2-4.2-3.1-5.9s-2.3-3.4-3.6-4.8c-0.3,0.2-0.6,0.3-0.9,0.3c-1.2,0-2.2-1.4-2.3-3.1c0-1.7,0.9-3.1,2.2-3.1
	c1.2,0,2.2,1.4,2.3,3.1c0,0.2,0,0.5,0,0.6c1.9,2.3,3.6,5,5.1,7.8s2.8,5.9,3.7,9.2v0.2l0,0c0.2,0,0.2,0,0.3,0s0.2,0,0.3,0
	s0.3,0,0.5,0v0.8c0.9-3.3,2.2-6.5,3.7-9.5c1.4-2.6,2.9-5,4.8-7.3c0-0.3-0.2-0.6-0.2-0.9c0-1.7,1.1-3.1,2.3-3.1s2.2,1.4,2.2,3.1
	s-1.1,3.1-2.3,3.1c-0.3,0-0.5,0-0.8-0.2l-0.2,0.2c-0.5,0.6-0.9,1.1-1.4,1.7c-1.4,1.9-2.8,4-3.9,6.4c-1.1,2.2-2,4.7-2.8,7.3
	c0,0.2,0,0.2-0.2,0.3l0,0c0.2,0.2,0.2,0.3,0.3,0.5c0.5,1.1,0.6,2,0.5,3.1c-0.2,0.5-0.3,1.2-0.5,1.7l0,0c0.5,0.8,0.9,1.7,1.2,2.8
	c0.5,1.6,0.8,3.3,0.9,5.1c0.3-0.8,0.5-1.6,0.8-2.2c0.9-2.6,2.2-5.3,3.6-7.8c1.2-2.3,2.8-4.7,4.5-7c2-2.8,4.2-5.3,6.8-7.9
	c2.5-2.5,5.3-5.1,8.5-7.6c3.9-3.1,7-5.4,9.9-7.5c3.6-2.3,6.7-3.9,9.8-5.1c2.6-1.1,5.1-1.6,7.6-1.7c0.3,0,0.6,0,0.9,0
	c1.7,0,3.3,0.3,4.8,0.8c1.6,0.5,2.9,1.2,4.2,2.3c1.2,0.9,2.2,2.2,2.8,3.6c0.6,1.6,0.9,3.1,0.9,4.8v0.2v0.2l0,0L375.3,360.8
	L375.3,360.8z"/>
<g>
	<path fill="#DBDAD7" d="M563.7,412.2H538c-0.9,0-1.6,0.6-1.6,1.6v3.4c0,0.9,0.6,1.6,1.6,1.6h25.8c0.9,0,1.6-0.6,1.6-1.6v-3.3
		C565.3,413,564.7,412.2,563.7,412.2z"/>
	<path fill="#DBDAD7" d="M563.7,425.4H538c-0.9,0-1.6,0.6-1.6,1.6v3.4c0,0.9,0.6,1.6,1.6,1.6h25.8c0.9,0,1.6-0.6,1.6-1.6v-3.3
		C565.3,426.2,564.7,425.4,563.7,425.4z"/>
	<path fill="#DBDAD7" d="M510.3,365.3h-7.9c-0.9,0-1.6-0.6-1.6-1.6v-7.9c0-0.9-0.6-1.6-1.6-1.6h-3.4c-0.9,0-1.6,0.6-1.6,1.6v7.9
		c0,0.9-0.6,1.6-1.6,1.6h-7.9c-0.9,0-1.6,0.6-1.6,1.6v3.4c0,0.9,0.6,1.6,1.6,1.6h7.9c0.9,0,1.6,0.6,1.6,1.6v7.9
		c0,0.9,0.6,1.6,1.6,1.6h3.4c0.9,0,1.6-0.6,1.6-1.6v-7.9c0-0.9,0.6-1.6,1.6-1.6h7.9c0.9,0,1.6-0.6,1.6-1.6v-3.4
		C511.9,366.1,511.1,365.3,510.3,365.3z"/>
	<path fill="#DBDAD7" d="M503.4,423.2c-0.6-0.6-0.6-1.7,0-2.2l5.6-5.6c0.6-0.6,0.6-1.7,0-2.2l-2.5-2.5c-0.6-0.6-1.7-0.6-2.2,0
		l-5.6,5.6c-0.6,0.6-1.7,0.6-2.2,0l-5.6-5.6c-0.6-0.6-1.7-0.6-2.2,0l-2.5,2.5c-0.6,0.6-0.6,1.7,0,2.2l5.6,5.6c0.6,0.6,0.6,1.7,0,2.2
		l-5.6,5.6c-0.6,0.6-0.6,1.7,0,2.2l2.5,2.5c0.6,0.6,1.7,0.6,2.2,0l5.6-5.6c0.6-0.6,1.7-0.6,2.2,0l5.6,5.6c0.6,0.6,1.7,0.6,2.2,0
		l2.5-2.5c0.6-0.6,0.6-1.7,0-2.2L503.4,423.2z"/>
	<path fill="#DBDAD7" d="M524.2,307.6c-48.6,0-87.8,39.4-87.8,87.8s39.4,87.8,87.8,87.8s87.8-39.4,87.8-87.8
		S572.7,307.6,524.2,307.6z M519.8,437.7c0,3.7-2.9,6.7-6.7,6.7h-31c-3.7,0-6.7-2.9-6.7-6.7v-31c0-3.7,2.9-6.7,6.7-6.7h31
		c3.7,0,6.7,2.9,6.7,6.7V437.7z M519.8,384.3c0,3.7-2.9,6.7-6.7,6.7h-31c-3.7,0-6.7-2.9-6.7-6.7v-30.9c0-3.7,2.9-6.7,6.7-6.7h31
		c3.7,0,6.7,2.9,6.7,6.7V384.3z M573.2,437.7c0,3.7-2.9,6.7-6.7,6.7h-31c-3.7,0-6.7-2.9-6.7-6.7v-31c0-3.7,2.9-6.7,6.7-6.7h31
		c3.7,0,6.7,2.9,6.7,6.7V437.7z M573.2,384.3c0,3.7-2.9,6.7-6.7,6.7h-31c-3.7,0-6.7-2.9-6.7-6.7v-30.9c0-3.7,2.9-6.7,6.7-6.7h31
		c3.7,0,6.7,2.9,6.7,6.7V384.3z"/>
	<path fill="#DBDAD7" d="M563.7,365.3H538c-0.9,0-1.6,0.6-1.6,1.6v3.4c0,0.9,0.6,1.6,1.6,1.6h25.8c0.9,0,1.6-0.6,1.6-1.6v-3.4
		C565.3,366.1,564.7,365.3,563.7,365.3z"/>
</g>
<path fill="#DBDAD7" d="M87.8,307.6C39.4,307.6,0,346.9,0,395.5s39.4,87.8,87.8,87.8c48.6,0,87.8-39.4,87.8-87.8
	S136.4,307.6,87.8,307.6z M134.1,454h-0.2v4.3h-4.3H46.1h-4.2V454v-9.3c0-2.3,1.9-4.3,4.3-4.3h32.9c-8.8-2.6-16.3-8.4-21-16H40V417
	h14.6h15.5h16v7.5h-9c3.7,2.6,8.2,4,13.3,4c12.9,0,23.3-10.4,23.3-23.3c0-4.8-1.4-9.5-4-13c-1.1,0.2-2.3,0.3-3.6,0.3
	c-6.2,0-11.6-3.4-14.4-8.5l-7.5,12.1l6.1,3.7l-6.1,9.9l-31.5-19.4l6.1-9.9l6.1,3.7l26.7-43.6c1.4-2.3,5.1-4.5,8.7-2.5l9-14.6
	l8.8,5.4l-9,14.6c3.4,2.5,3.3,6.7,1.7,9l-4.2,6.8c8.8,0.3,16,7.6,16,16.6c0,2.8-0.6,5.4-1.9,7.8c4.5,6.1,7.1,13.5,7.1,21.6
	c0,16.6-11.2,30.6-26.4,35.2h28.4c2.3,0,4.3,1.9,4.3,4.3L134.1,454L134.1,454L134.1,454z"/>
<path fill="#A19CCC" d="M492,289.6v-0.2c0-0.2,0-0.2,0-0.3c0.8-1.7,1.2-3.4,1.2-5.3c0-1.7-0.5-3.3-1.2-4.8c-0.9-1.6-2-2.9-3.3-4
	c-1.4-1.2-2.9-2.2-4.7-2.9c-0.3-0.2-0.6-0.3-0.9-0.3c-2.5-0.9-5.3-1.4-8.4-1.6c-3.6-0.2-7.5,0.2-12,0.9c-3.9,0.6-7.9,1.7-13.3,3.3
	c-4.3,1.2-8.2,2.6-12,4c-3.7,1.6-7.1,3.3-10.4,5.1c-2.6,1.6-5.3,3.3-7.6,5.1c-2.5,1.9-4.8,4-7,6.2c-0.6,0.6-1.2,1.2-1.7,1.9
	c0.6-2,1.1-3.9,1.2-5.6c0.2-1.2,0.2-2.3,0-3.4l0,0c0.6-0.5,0.9-1.1,1.2-1.6c0.6-0.9,0.9-2,0.8-3.4c0-0.2,0-0.5,0-0.6l0,0
	c0-0.2,0.2-0.2,0.2-0.3c1.9-2.3,3.9-4.3,6.1-6.2c2.2-1.9,4.3-3.4,6.7-4.8c0.8-0.5,1.4-0.8,2.2-1.1c0,0,0.2,0,0.2-0.2
	c0.2,0.2,0.5,0.5,0.6,0.5c1.2,0.5,2.8-0.5,3.6-2.2c0.8-1.7,0.5-3.6-0.8-4s-2.8,0.5-3.6,2.2c-0.2,0.3-0.3,0.6-0.3,0.9
	c-2.8,1.6-5.4,3.3-7.9,5.3c-2.8,2.3-5.4,5-7.9,7.9c0,0,0,0.2-0.2,0.2c-0.2-0.2-0.3-0.2-0.5-0.3c-0.2,0-0.2-0.2-0.3-0.2
	s-0.2,0-0.3-0.2l0,0v-0.2c0.5-3.7,0.5-7.3,0.3-10.9c-0.3-3.4-0.9-6.7-1.9-9.9c0.2-0.2,0.2-0.5,0.3-0.6c0.8-1.7,0.3-3.6-0.9-4.2
	c-1.2-0.5-2.8,0.5-3.6,2.2c-0.8,1.7-0.3,3.6,0.9,4.2c0.3,0.2,0.8,0.2,1.1,0.2c0.6,2,1.2,4.2,1.6,6.4c0.3,2.3,0.5,4.8,0.5,7.3
	c0,1.7-0.2,3.6-0.3,5.4c0,0.2,0,0.3,0,0.3c-0.5,0.3-1.1,0.6-1.6,1.2s-0.9,1.4-1.1,2.3c-0.2,0.8-0.2,1.4,0,1.9
	c-0.5,0.3-1.1,0.6-1.6,1.2c-0.9,0.9-1.7,2-2.2,2.9c-0.6,0.9-1.2,2-1.7,2.9c0.2-1.9,0.2-3.6,0.2-5.4c0-4.8-0.6-9.6-1.7-14.4
	c-1.1-5-2.8-10.1-5.1-15.4c-2.5-5.6-5.4-11.2-9-17.1c-2-3.4-4.2-6.2-6.4-8.8c-1.9-2.2-3.7-4-5.6-5.4c-0.9-0.8-2.2-1.7-3.4-2.3
	c0,0,0,0-0.2-0.2c0,0,0,0-0.2-0.2l0,0l-3.4-1.4l0,0h-0.2c-0.2,0-0.2,0-0.2,0c-2.6-0.8-5.4-0.9-8.2-0.2c-0.8,0.2-1.6,0.5-2.3,0.9
	c-2.2,1.2-4,3.3-5.3,6.2v0.2c0,0.2-0.2,0.3-0.2,0.3l-0.2,0.2l-1.1,3.3l0.2,0.2c0,0,0,0.2,0,0.3c-0.9,3.6-1.1,7.1-1.2,10.1
	c-0.2,2.9-0.2,5.9,0,8.1c0,2.2,0.2,4.5,0.2,7.3c0,2.2-0.2,4.3-0.6,6.8c-0.3,1.9-0.8,3.7-1.2,5.4c0,0.3-0.2,0.6-0.2,0.8
	c-0.5,1.9-0.9,3.9-1.4,5.7c-0.6,2.9-0.8,5.1-0.6,7.1c0.2,2.5,0.5,4.8,1.2,7c0.8,2.2,1.7,4,3.1,5.6c0.8,0.9,1.7,1.7,2.8,2.5
	c0.5,0.3,0.9,0.6,1.6,0.8c0.5,0.2,0.9,0.3,1.4,0.5c-2.3,0.8-4.7,2-7.3,3.6c-1.7,0.9-2.9,2.5-4,4.5c-0.6,1.2-1.2,2.8-1.7,4.3
	c-0.8,2.6-1.1,5.4-1.2,8.7c-0.2,3.6,0,7.3,0.6,11.2c0.5,3.6,1.2,7,2.2,10.1c0.9,2.9,2,5.3,3.1,7.3c0.6,1.1,1.4,2,2.2,2.8
	c0.5,0.5,0.9,0.8,1.6,1.1c0.2,0,0.2,0.2,0.3,0.2c1.6,0.5,3.1,0.8,5,0.6c2.3-0.2,4.8-0.6,7.3-1.7c2.2-0.9,4.3-2.2,6.5-3.7
	c3.4-2.3,6.1-4.5,8.7-6.5c3.1-2.5,5.4-4.8,7.6-7.1c0.6-0.6,1.2-1.4,1.7-2l0,0c0,0.2-0.2,0.3-0.2,0.5c-0.3,0.8-0.6,1.7-0.9,2.5
	c-0.6,1.6-1.1,3.1-1.7,4.7c-0.2,0.3-0.3,0.8-0.5,1.1c-0.3,0.6-0.6,1.6-0.8,2.3c-0.2,0.3-0.2,0.6-0.3,0.9c-0.3,1.1-0.8,2.2-1.1,3.3
	c-0.2,0.6-0.3,1.1-0.5,1.6c0,0.3-0.2,0.6,0,0.9c0,0.6,0.3,0.9,0.8,1.2h0.2c0.5,0.2,1.1,0,1.4-0.6c0.5-0.6,0.8-1.1,0.9-1.6
	c0.8-1.2,1.4-2.6,2-4l0,0c1.1-2.2,2-4.3,2.9-6.4c0.2-0.3,0.3-0.6,0.5-0.9c0.5-1.1,0.9-2.2,1.4-3.1v-0.2c-0.3,2.6-0.5,5.3-0.3,7.9
	c0,1.6,0.2,3.1,0.2,4.3c0.3,4,0.8,8.2,1.6,12.4c0.6,3.3,1.6,6.1,2.8,8.7c1.2,2.3,2.5,4,4.2,5.6c0.5,0.5,0.9,0.8,1.4,1.1
	c0.2,0,0.2,0.2,0.3,0.2c0,0,0,0,0,0.2c0,0,0,0,0,0.2l0,0l1.9,0.8l0,0h0.2c0.2,0,0.2,0,0.2,0c1.1,0.2,2.2,0,3.4-0.2
	c1.6-0.3,3.3-0.8,5-1.6c3.4-1.4,7-3.4,10.7-6.1c3.4-2.3,6.4-5,9.2-7.8c1.7-1.7,3.1-3.4,4.3-5.3c1.2-1.7,2.2-3.3,2.8-5
	c0.9-2.3,1.4-4.5,1.1-6.5c0-0.5-0.2-0.9-0.3-1.4c-0.6-2.6-1.4-5.1-2.3-7.1c0.3,0.2,0.8,0.5,1.1,0.6c0.2,0.2,0.5,0.2,0.6,0.3
	c1.9,0.6,3.9,0.9,6.1,0.6c2-0.3,4.2-1.1,6.4-2.3c1.6-0.9,3.1-2,4.5-3.3c1.4-1.2,2.6-2.8,3.9-4.3c1.2-1.7,2.5-3.6,3.4-5.1
	c0.2-0.3,0.3-0.6,0.5-0.8c1.1-1.9,2.3-3.7,3.7-5.6c1.4-2,2.8-3.6,4.2-4.8c1.1-0.9,2-1.9,3.1-2.8c0.9-0.8,1.9-1.7,2.8-2.5
	c2.2-2,4.7-4.3,7-7.1c1.6-1.7,2.8-3.1,3.7-4.7c0.2-0.2,0.3-0.3,0.3-0.6c0.2-0.2,0.2-0.3,0.3-0.3c0-0.2,0.2-0.2,0.3-0.3l0.2-0.2l0,0
	L492,289.6L492,289.6z"/>
<g>
	<circle fill="#B3509E" cx="209.4" cy="214.9" r="2.2"/>
	<g>
		<path fill="#CB6EAC" d="M205,303.7c-0.5-1.1-0.9-2.3-1.2-3.7c-4.2-14,6.4-24.2,3.6-27.8c-2.9-3.9-27.3,5.7-37.9,28.7
			c-2.2,4.7-10.9,23.7-1.7,40.4c5.1,9.3,9,8.2,22.2,4.2c2.5-0.8,5.1-1.6,7.6-2.6c4.8,18,7.5,19.4,9,19.7c5.3,0.9,12.7-8.1,14.3-16.9
			C222.6,334.8,213.9,316.8,205,303.7z"/>
		<path fill="#CB6EAC" d="M286.7,295.2c-4.5-18.5-23.6-26.5-28.4-28.6c-23.3-9.9-47.8-0.5-47.3,4.3c0.3,4.5,15.1,5,21.4,18.2
			c0.6,1.2,1.1,2.5,1.6,3.6c2.2,15.7,7.9,34.8,16.8,41.6c7.1,5.6,18.6,7.1,21.9,2.9c0.9-1.2,2-4-6.7-20.6c2.5-0.9,5-2.2,7.5-3.3
			C285.6,307.3,289.2,305.4,286.7,295.2z"/>
		<path fill="#B3509E" d="M86.5,232.8c-4,10.1-1.1,25.8,3.6,34.5c8.7,16.3,14.4,13.7,24.1,32.4c6.4,12.6,7.6,37.7,13.7,37.9
			c43.1,2,43.8-66.1,89.4-61.5C219.9,276.4,110.4,171.5,86.5,232.8z"/>
		<path fill="#B3509E" d="M274.9,159.7c9.8,4.8,18.2,18.3,20.6,27.8c4.5,18-1.4,19.9,4,40.2c3.7,13.7,19.7,32.9,15.5,37.3
			c-30.4,30.6-76.8-19.4-107.4,14.9C205.8,281.8,216.1,130.7,274.9,159.7z"/>
		
			<ellipse transform="matrix(0.3614 0.9324 -0.9324 0.3614 399.5159 -19.3298)" fill="#B3509E" cx="213.9" cy="282" rx="43.5" ry="6.5"/>
		<path fill="#B3509E" d="M198.7,249.6h-0.2c-0.5,0.2-1.1-0.3-1.1-0.8c-0.2-1.2-2.5-12.6-12.6-17.1c-4.3-2-8.7-1.9-11.5-1.6
			c-0.5,0-1.1-0.3-1.1-0.8s0.3-1.1,0.8-1.1c3.1-0.5,7.8-0.5,12.6,1.7c11,5,13.5,17.1,13.7,18.5C199.3,248.9,199,249.4,198.7,249.6z"
			/>
		<circle fill="#B3509E" cx="173.1" cy="229.2" r="2.2"/>
		<path fill="#B3509E" d="M203.3,247.7c0,0,0.2,0,0.2-0.2c0.5-0.3,0.6-0.9,0.3-1.4c-0.6-1.1-6.7-11-2.2-21.1
			c1.9-4.5,5.1-7.3,7.5-8.8c0.5-0.3,0.6-0.9,0.3-1.4s-0.9-0.6-1.4-0.3c-2.6,1.7-6.1,4.8-8.2,9.6c-4.8,11,1.6,21.7,2.3,22.8
			C202.4,247.7,202.9,247.9,203.3,247.7z"/>
		<path fill="#E0A4CA" d="M143.6,289.6c-5.7-14.9,1.6-31.7,16.5-37.4c4-1.6,8.2-2.2,12.3-1.9c-2.3-1.7-4.7-3.3-7-4.8
			c-26.2-17.8-48.1-25.5-59.6-21c-4.5,1.7-7.9,5.6-10.4,11.8c-2.6,6.8-0.6,19.6,3.1,26.4c3.4,6.5,6.2,9.2,9.5,12.6
			c4.2,4.2,9,8.8,14.6,20c3.3,6.5,5.3,15.1,7,22.7c0.8,3.1,1.7,7.3,2.5,9.9c2.2-0.2,4.3-0.8,6.2-1.4c8.2-3.3,14.7-11.3,21.1-20.3
			C152.6,303.1,146.7,297.4,143.6,289.6z"/>
		<path fill="#E0A4CA" d="M271,240.2c-5.7-14.9-22.5-22.2-37.4-16.5c-4,1.6-7.6,4-10.4,6.8c0.6-2.8,1.2-5.4,1.9-8.4
			c7.5-30.9,18.3-51.2,30-55.7c4.5-1.7,9.6-1.2,15.5,1.7c6.5,3.3,13.7,14.1,15.5,21.6c1.9,7.1,1.7,10.9,1.4,15.7
			c-0.3,5.9-0.6,12.6,2.6,24.7c1.9,7,6.2,14.7,10.1,21.4c1.6,2.8,3.6,6.5,4.8,9.2c-1.7,1.4-3.6,2.3-5.6,3.1
			c-8.2,3.3-18.5,1.6-29.3-0.8C273.5,256.2,273.9,248,271,240.2z"/>
	</g>
</g>
<path fill="#E0C69B" d="M389.4,485.5c-7.8,0-14.1,6.4-14.1,14.1v-15.1c0-7.8-6.4-14.1-14.1-14.1s-14.1,6.4-14.1,14.1v-15.1
	c0-7.8-6.4-14.1-14.1-14.1s-14.1,6.4-14.1,14.1v-45c0-7.8-6.4-14.1-14.1-14.1s-14.1,6.4-14.1,14.1v97.2c0,15.5-3.4,17.5-9.5,0
	l-5-14.9c-2.5-7.3-10.6-11.3-17.8-8.7c-7.3,2.5-11.3,10.6-8.7,17.8l19.4,57.4l28.6,41.4l7.1,21.4c0,0,76.5,0,76.7,0
	c1.9,0,9.9-33.4,10.7-36.5c7.3-26.7,10.9-50.4,10.9-78.1v-21.9C403.6,491.7,397.2,485.5,389.4,485.5z"/>
</svg>
