<?xml version="1.0" encoding="utf-8"?>
<!-- Generator: Adobe Illustrator 18.1.1, SVG Export Plug-In . SVG Version: 6.00 Build 0)  -->
<svg version="1.1" id="Layer_3" xmlns="http://www.w3.org/2000/svg" xmlns:xlink="http://www.w3.org/1999/xlink" x="0px" y="0px"
	 viewBox="0 385 612 335.3" enable-background="new 0 385 612 335.3" xml:space="preserve">
<g>
	<path fill="#83C5EB" d="M405,387c-45.2,0-81.7,36.6-81.7,81.7s36.7,81.6,81.7,81.6c45.2,0,81.7-36.6,81.7-81.7S450,387,405,387z
		 M469.3,436.5v0.2c0,0.2,0,0.3-0.2,0.3c0,0.2,0,0.3,0,0.4c0,0.2,0,0.4-0.2,0.5c-0.3,1.4-0.7,3-1.4,4.9c-1.1,2.9-2.1,5.6-3.1,7.8
		c-0.3,1.1-0.9,2-1.2,2.9c-0.3,1.1-1.1,2.1-1.4,3.1c-0.7,1.4-1.2,3.1-1.6,5.2c-0.3,1.9-0.7,3.7-1.1,5.6c0,0.3-0.2,0.5-0.2,0.9
		c-0.3,1.6-0.5,3.4-1.1,5c-0.4,1.7-0.9,3.1-1.6,4.6c-0.7,1.4-1.4,2.7-2.3,4c-1.2,1.7-2.7,3-4.2,3.9c-1.6,0.9-3.1,1.4-4.9,1.6
		c-0.3,0-0.3,0-0.5,0c-0.3,0-0.7,0-1.1,0c1.4,1.2,2.9,2.9,4.2,4.8c0.3,0.3,0.4,0.5,0.7,1.1c0.9,1.4,1.2,3.1,1.2,5.4
		c0,1.6-0.2,3-0.5,4.8s-1.1,3.6-1.7,5.4c-1.2,3-2.7,6.1-4.5,8.9c-2,3.4-4,5.9-6.3,8.2c-1.2,1.1-2.3,2.1-3.4,2.9
		c-1.1,0.7-1.9,1.1-2.6,1.2c0,0-0.2,0-0.2,0.2H430l0,0h-1.7l0,0c0,0,0,0-0.2,0c0,0,0,0-0.2,0s-0.2,0-0.3,0c-0.4-0.2-1.1-0.3-1.4-0.4
		c-1.7-0.5-3.4-1.6-5-2.9c-1.9-1.6-3.4-3.4-5-5.8c-2-3-3.7-6.1-5.4-9.3c-0.5-1.1-1.1-2.1-1.6-3.4c-1.1-2-1.7-4.2-2.3-6.3v0.2
		c0,1.1,0,1.9,0,2.9c0,0.3,0,0.5,0,0.9c0,2-0.2,4-0.2,5.9l0,0c0,1.2-0.2,2.6-0.3,3.7c0,0.3-0.2,1.1-0.3,1.6
		c-0.3,0.5-0.3,0.9-0.8,1.1h0.2c-0.3,0-0.7-0.3-1.1-0.7c-0.2-0.3-0.2-0.5-0.3-0.7c-0.2-0.3-0.2-0.9-0.2-1.4c0-1.1-0.2-1.9-0.2-2.9
		c0-0.3,0-0.5,0-0.7c0-0.7,0-1.4-0.2-2c0-0.3,0-0.7,0-1.1c0-1.2-0.2-2.7-0.2-4.2c0-0.7,0-1.4-0.2-2.3c0-0.2,0-0.3,0-0.4l0,0
		c-0.3,0.7-0.3,1.4-0.7,2.1c-0.9,2.6-2,5-3.5,8.1c-1.2,2.5-2.7,5-4.6,7.9c-1.2,1.9-2.5,3.6-3.9,5c-1.6,1.7-3.4,2.9-5.2,3.7
		c-1.4,0.7-2.7,1.1-4.2,1.2c-0.2,0-0.2,0-0.3,0c-0.5,0-1.2-0.2-1.6-0.3c-0.9-0.3-1.7-0.9-2.6-1.4c-1.6-1.1-3.1-2.6-4.9-4.6
		c-1.7-2.1-3.5-4.5-5-7.1c-1.7-2.9-3-5.6-4.2-8.6c-1.1-2.6-1.6-4.9-1.9-7.2c-0.2-1.4-0.3-2.7-0.2-3.9c0.2-1.9,0.7-3.6,1.7-4.9
		c1.4-2,3-3.7,4.5-5.2c-0.3,0-0.7,0.2-1.1,0.2s-1.1,0-1.4-0.2c-1.1-0.2-2-0.4-3-0.9c-1.6-0.7-3-1.9-4.2-3.4c-1.1-1.2-2.3-3-3.1-5
		c-0.7-1.6-1.2-3.4-1.9-5.8c-0.3-1.6-0.5-3.4-0.9-4.9c0-0.3-0.2-0.3-0.2-0.7c-0.3-1.4-0.3-3-0.9-4.6c-0.4-2.1-1.1-3.9-1.7-5.6
		c-0.9-2-1.7-3.9-2.5-5.6c-0.7-1.7-1.7-3.9-2.6-6.2c-0.9-2.3-1.9-5.2-2.3-8.2c0,0,0-0.2,0-0.3l-0.2-0.2l-0.3-2.9l0.2-0.2
		c0,0,0-0.2,0-0.3c0,0,0,0,0-0.2c0-2.6,0.7-4.9,2-6.5c0.4-0.5,1.1-1.1,1.6-1.4c2-1.4,4.2-2.3,6.5-2.6h0.2h0.2l0,0h3l0,0h0.2h0.2
		c1.2,0,2.5,0.4,3.5,0.5c2,0.5,3.9,1.2,6.1,2.5c2.6,1.2,5.2,2.9,7.9,4.8c4.8,3.4,8.9,6.7,12.7,10.3c3.6,3.4,6.5,6.6,9,10.3
		c2.5,3.4,4.5,7,6.1,10.7c0.5,1.4,1.1,2.7,1.6,4.2c0.2-1.1,0.2-1.9,0.3-2.9c0.2-0.9,0.3-1.9,0.7-3c0.3-0.5,0.3-1.2,0.9-1.6
		c-0.3-0.4-0.4-0.8-0.5-1.6c-0.2-0.7-0.2-1.4,0.2-2.1c0.2-0.5,0.4-1.2,0.9-1.4c0-0.2,0-0.2-0.2-0.3c-0.3-1.4-1.1-2.9-1.6-4.3
		c-0.9-2-1.9-3.9-2.9-5.4c-1.1-1.6-2.1-3.1-3.4-4.5c-0.3,0.2-0.5,0.3-0.8,0.3c-1.2,0-2-1.2-2.1-2.9c0-1.6,0.8-2.9,2-2.9
		s2,1.2,2.1,2.9c0,0.2,0,0.4,0,0.5c1.7,2.1,3.4,4.6,4.8,7.2s2.6,5.4,3.5,8.6v0.2l0,0c0.2,0,0.2,0,0.3,0c0.2,0,0.2,0,0.3,0
		s0.3,0,0.4,0v-0.1c0.9-3,2-6.1,3.4-8.8c1.2-2.5,2.7-4.6,4.5-6.7c0-0.3-0.2-0.5-0.2-0.9c0-1.6,1.1-2.9,2.1-2.9c1.1,0,2,1.2,2,2.9
		c0,1.6-1.1,2.9-2.1,2.9c-0.3,0-0.3,0-0.7-0.2l-0.2,0.2c-0.4,0.5-0.9,1.1-1.2,1.6c-1.2,1.7-2.6,3.7-3.6,5.9c-1.1,2-1.9,4.3-2.6,6.7
		c0,0.2,0,0.2-0.2,0.3l0,0c0.2,0.2,0.2,0.3,0.3,0.4c0.4,1.1,0.5,1.9,0.4,2.9c-0.2,0.4-0.3,1.2-0.4,1.6l0,0c0.4,0.7,0.9,1.6,1.2,2.6
		c0.4,1.4,0.7,3,0.8,4.8c0.3-0.7,0.3-1.4,0.7-2c0.9-2.5,2-4.9,3.4-7.2c1.1-2.1,2.6-4.3,4.2-6.5c1.9-2.6,3.9-4.9,6.3-7.3
		c2.3-2.3,4.9-4.8,7.9-7.1c3.6-2.9,6.5-5,9.3-7c3.4-2.1,6.2-3.6,9-4.8c2.5-1.1,4.8-1.4,7.1-1.6c0.3,0,0.5,0,0.9,0
		c1.6,0,3,0.3,4.5,0.7c1.4,0.4,2.7,1.1,3.9,2.1c1.2,0.9,2,2,2.6,3.4c0.5,1.4,0.8,2.9,0.8,4.5v0.2v0.2l0,0L469.3,436.5L469.3,436.5z"
		/>
	<g>
		<path fill="#E0C69B" d="M118.7,454.2c46.5-0.2,114.7-0.7,161.2,0c7.6,0.2,16.5,4.2,22.1,9.3c21.9,19.9,43,40.7,64,61.4
			c8.6,8.2,8.7,18.7,1.2,26.1c-6.6,6.6-16.9,6.2-25.2-1.6c-9.5-8.9-18.5-18.3-28-27.2c-1.9-1.6-5.8-1.2-8.6,1.2
			c10.7,11,21,22.6,32.1,33c14,13.1,31.5,9.5,41.1-7.1c1.5-2.6,5.6-5.4,8.7-5.4c20.5-0.4,41-0.4,61.5-0.2c11.2,0.2,20.2,8.9,20.1,19
			c-0.2,10.5-7.1,17.9-19.3,18.2c-39.9,0.4-79.7,0.5-119.6-0.3c-7.1-0.2-15.1-4.5-21.2-8.9c-22.4-16-43.9-33.3-66.2-49.5
			c-5-3.6-12-5.9-18.2-6c-27.9-0.8-77.6-0.5-105.7-0.5C118.7,495,118.7,474.8,118.7,454.2z"/>
	</g>
	<g>
		<path fill="#D6B432" d="M204.7,524.1c-44.8,0-81.3,36.4-81.3,81.3s36.4,81.3,81.3,81.3s81.3-36.4,81.3-81.2
			C285.9,560.6,249.5,524.1,204.7,524.1z M204,544.6c0.7,0,1.4,0,2,0c1.9,1.2,2.6,2.8,2.6,5c-0.2,3.1,0,6.2,0,9.3
			c0,2.8-1.5,4.5-3.6,4.5s-3.5-1.6-3.5-4.6c0-3.2,0.2-6.2,0-9.4C201.5,547.3,202.2,545.5,204,544.6z M152,576.2
			c2.2-2.5,3.2-2.7,6.5-1.4c3,1.2,5.9,2.6,8.9,3.7c2.4,1.1,3.2,2.8,2.5,4.8s-3.2,2.8-5.4,2c-3.6-1.5-7-3.2-10.5-4.9
			c-0.9-0.4-1.4-1.4-2-2C152,577.7,152,576.9,152,576.2z M167.9,609.8c-3.7,0.7-7.6,1.2-11.2,1.6c-2,0.3-3.6-0.9-4.6-2.6
			c0-0.5,0-1.1,0-1.5c1.1-2,2.8-2.6,4.8-3c2.6-0.4,5.2-1.1,7.8-1.4c0.8-0.2,1.6-0.2,2.6-0.2c2,0,3.6,0.9,3.9,3
			C171.2,608.2,169.9,609.6,167.9,609.8z M173.3,552.4c1.1-0.4,3.5-0.3,4,0.4c2.8,3.6,5.2,7.7,7.6,11.6c0.2,0.3,0.2,0.5,0.3,1.5
			c-0.5,0.5-1.2,2-2,2.4c-1.1,0.3-3.1,0.2-3.6-0.5c-2.8-3.6-5.2-7.4-7.6-11.1C171,554.7,171.7,552.8,173.3,552.4z M214.2,661.8
			c-3.2,0-6.2,0-9.5,0c-3.7,0-7.7-0.2-11.5,0c-2,0-2.8-0.9-2.8-2.8c-0.2-5.4-0.2-5.4,5.4-5.4c6.6,0,13.5,0,20.2,0
			c3.1,0,3.2,0.2,3.5,3.2C219.3,661.8,219.3,661.8,214.2,661.8z M214.2,650.7c-3.2,0-6.2,0-9.5,0c-3.7,0-7.7-0.2-11.5,0
			c-2,0-2.8-0.8-2.8-2.8c-0.2-5.4-0.2-5.4,5.4-5.4c6.6,0,13.5,0,20.2,0c3.1,0,3.2,0.2,3.5,3.2C219.3,650.7,219.3,650.7,214.2,650.7z
			 M233.4,595.1c-0.3,5.4-1.9,10.5-4.3,15.4c-4,7.8-8,15.5-9.6,24.1c-0.5,3.4-1.2,3.6-4.8,3.6c-3.2,0-6.5,0-9.6,0
			c-3.7,0-7.4,0-11.1,0c-1.6,0-2.8-0.7-3.2-2.4c-0.5-2-1.2-3.7-1.5-5.8c-1.5-6.9-4.8-13.1-7.8-19.1c-3.2-6.5-5.4-13.1-4.5-20.4
			c1.2-9.9,6.5-16.7,15.8-20.1c8.1-2.8,16.5-2.8,24.8-0.2C227.9,574.1,234,583.7,233.4,595.1z M237.4,557.2c-2,3.2-3.9,6.2-5.9,9.4
			c-1.4,2-3.6,2.4-5.4,1.2c-1.6-1.2-2-3.1-0.5-5.4c1.9-3,3.6-6.2,5.9-8.9c1.1-1.2,3-1.6,4.5-1.6c1.1,0,1.6,1.9,2.6,2.7
			C238,555.7,237.7,556.6,237.4,557.2z M257.5,609c-1.1,2-3,2.8-5.4,2.5c-3.5-0.5-7-1.1-10.4-1.5c-2-0.3-3.5-2.2-3.2-4
			c0.3-2,1.9-3.2,4-2.8c4,0.5,8.1,1.2,12,2c1.2,0.2,2,1.6,2.8,2.5C257.5,608.1,257.5,608.6,257.5,609z M257.5,578.3
			c-1.1,1.1-2,2-3.5,2.8c-2.6,1.4-5.4,2.8-8.2,4c-2.7,1.2-5.2,0.5-6-1.6c-0.8-1.9,0.3-3.7,3-4.9c3-1.4,5.9-2.5,8.9-3.7
			c3.1-1.4,4-1.1,5.9,2C257.5,577.3,257.5,577.7,257.5,578.3z"/>
	</g>
	<g>
		<path fill="#CCA889" d="M490.4,591.5c-46.5-0.2-114.8-0.7-161.2,0c-7.6,0.2-16.5,4.2-22.1,9.3c-21.8,19.7-42.8,40.6-63.8,61.2
			c-8.6,8.2-8.7,18.7-1.2,26.1c6.6,6.6,16.9,6.2,25.2-1.6c9.5-8.9,18.5-18.3,28.1-27.2c1.9-1.6,5.8-1.2,8.6,1.2
			c-10.7,11-21,22.6-32.1,33c-14,13.1-31.5,9.5-41.1-7.1c-1.5-2.7-5.6-5.4-8.7-5.4c-20.5-0.3-41-0.3-61.5-0.2
			c-11.2,0.2-20.2,8.9-20.1,19c0.2,10.5,7.1,17.9,19.3,18.2c39.9,0.4,79.7,0.5,119.6-0.3c7.1-0.2,15.1-4.5,21.2-8.9
			c22.4-16,43.9-33.3,66.2-49.5c5-3.6,12-5.9,18.2-6c28-0.7,77.7-0.3,105.7-0.4C490.4,632.6,490.4,611.9,490.4,591.5z"/>
	</g>
	<rect y="385" fill="none" width="612" height="335.3"/>
</g>
</svg>
