<?xml version="1.0" encoding="utf-8"?>
<!-- Generator: Adobe Illustrator 18.1.1, SVG Export Plug-In . SVG Version: 6.00 Build 0)  -->
<svg version="1.1" id="Layer_3" xmlns="http://www.w3.org/2000/svg" xmlns:xlink="http://www.w3.org/1999/xlink" x="0px" y="0px"
	 viewBox="0 330.7 612 480" enable-background="new 0 330.7 612 480" xml:space="preserve">
<path fill="#83C5EB" d="M435.8,354.8c-59.1,0-106.8,47.8-106.8,106.8s48,106.7,106.8,106.7c59.1,0,106.8-47.8,106.8-106.8
	S494.7,354.8,435.8,354.8z M519.9,419.5v0.2c0,0.2,0,0.4-0.2,0.4c0,0.2,0,0.4,0,0.5c0,0.2,0,0.5-0.2,0.7c-0.4,1.9-0.9,3.9-1.9,6.4
	c-1.4,3.8-2.8,7.3-4.1,10.2c-0.5,1.4-1.1,2.7-1.6,3.8c-0.5,1.4-1.4,2.8-1.9,4.1c-0.9,1.9-1.5,4.1-2.1,6.8c-0.5,2.5-0.9,4.9-1.4,7.3
	c0,0.4-0.2,0.7-0.2,1.1c-0.4,2.1-0.7,4.4-1.4,6.6c-0.5,2.2-1.1,4.1-2.1,6c-0.9,1.9-1.9,3.6-3,5.2c-1.6,2.2-3.6,3.9-5.5,5.1
	c-2.1,1.1-4.1,1.9-6.4,2.1c-0.4,0-0.5,0-0.7,0c-0.5,0-0.9,0-1.4,0c1.9,1.6,3.8,3.8,5.5,6.2c0.4,0.4,0.5,0.7,0.9,1.4
	c1.1,1.9,1.6,4.1,1.6,7.1c0,2.1-0.2,3.9-0.7,6.2c-0.5,2.3-1.4,4.7-2.2,7.1c-1.5,3.9-3.6,8-5.9,11.7c-2.7,4.4-5.2,7.7-8.2,10.7
	c-1.5,1.5-3,2.8-4.4,3.8c-1.4,0.9-2.5,1.4-3.4,1.6c0,0-0.2,0-0.2,0.2h-0.1l0,0h-2.2l0,0c0,0,0,0-0.2,0c0,0,0,0-0.2,0s-0.2,0-0.4,0
	c-0.5-0.2-1.4-0.4-1.9-0.5c-2.2-0.7-4.5-2.1-6.6-3.8c-2.5-2.1-4.5-4.5-6.6-7.5c-2.7-3.9-4.9-8-7-12.1c-0.7-1.4-1.4-2.8-2.1-4.4
	c-1.4-2.7-2.2-5.5-3-8.2v0.2c0,1.4,0,2.5,0,3.8c0,0.4,0,0.7,0,1.1c0,2.7-0.2,5.2-0.2,7.7l0,0c0,1.6-0.2,3.4-0.4,4.9
	c0,0.5-0.2,1.4-0.4,2.1c-0.3,0.7-0.5,1.1-1.1,1.4h-0.2c-0.5,0-0.9-0.4-1.4-0.9c-0.2-0.4-0.2-0.7-0.4-0.9c-0.2-0.5-0.2-1.1-0.2-1.9
	c0-1.4-0.2-2.5-0.2-3.8c0-0.4,0-0.7,0-0.9c0-0.9,0-1.9-0.2-2.7c0-0.4,0-0.9,0-1.4c0-1.6-0.2-3.6-0.2-5.5c0-0.9,0-1.9-0.2-3
	c0-0.2,0-0.4,0-0.5l0,0c-0.4,0.9-0.5,1.9-0.9,2.8c-1.1,3.4-2.7,6.6-4.5,10.5c-1.6,3.2-3.6,6.6-6,10.3c-1.5,2.5-3.2,4.7-5.1,6.6
	c-2.1,2.2-4.4,3.8-6.8,4.9c-1.9,0.9-3.6,1.4-5.5,1.5c-0.2,0-0.2,0-0.4,0c-0.7,0-1.5-0.2-2.1-0.4c-1.1-0.4-2.2-1.1-3.4-1.9
	c-2.1-1.5-4.1-3.4-6.4-6c-2.2-2.8-4.5-5.9-6.6-9.2c-2.2-3.8-3.9-7.3-5.5-11.2c-1.4-3.4-2.1-6.4-2.5-9.4c-0.2-1.9-0.4-3.6-0.2-5.1
	c0.2-2.5,0.9-4.7,2.2-6.4c1.9-2.7,3.9-4.9,5.9-6.8c-0.5,0-0.9,0.2-1.5,0.2s-1.4,0-1.9-0.2c-1.4-0.2-2.7-0.5-3.9-1.1
	c-2.1-0.9-3.9-2.5-5.5-4.4c-1.5-1.6-3-3.9-4.1-6.6c-0.9-2.1-1.6-4.4-2.5-7.5c-0.4-2.1-0.7-4.4-1.1-6.4c0-0.4-0.2-0.5-0.2-0.9
	c-0.4-1.9-0.5-3.9-1.1-6c-0.5-2.8-1.4-5.1-2.2-7.3c-1.1-2.7-2.2-5.1-3.2-7.3c-0.9-2.2-2.2-5.1-3.4-8.1c-1.1-3-2.5-6.8-3-10.7
	c0,0,0-0.2,0-0.4l-0.2-0.2l-0.4-3.8l0.2-0.2c0,0,0-0.2,0-0.4c0,0,0,0,0-0.2c0-3.4,0.9-6.4,2.7-8.5c0.5-0.7,1.4-1.4,2.1-1.9
	c2.7-1.9,5.5-3,8.5-3.4h0.2h0.2l0,0h3.9l0,0h0.2h0.2c1.5,0,3.2,0.5,4.5,0.7c2.7,0.7,5.1,1.6,8,3.2c3.4,1.6,6.8,3.8,10.3,6.2
	c6.2,4.5,11.7,8.8,16.6,13.4c4.7,4.4,8.5,8.7,11.8,13.4c3.2,4.4,5.9,9.1,8,14c0.7,1.9,1.5,3.6,2.1,5.5c0.2-1.4,0.2-2.5,0.4-3.8
	c0.2-1.1,0.4-2.5,0.9-3.9c0.4-0.7,0.5-1.5,1.1-2.1c-0.4-0.5-0.5-1.1-0.7-2.1c-0.2-0.9-0.2-1.9,0.2-2.8c0.2-0.7,0.5-1.5,1.1-1.9
	c0-0.2,0-0.2-0.2-0.4c-0.5-1.9-1.4-3.8-2.1-5.7c-1.1-2.7-2.5-5.1-3.8-7.1c-1.4-2.1-2.8-4.1-4.4-5.9c-0.4,0.2-0.7,0.4-1.1,0.4
	c-1.5,0-2.7-1.6-2.8-3.8c0-2.1,1.1-3.8,2.7-3.8c1.5,0,2.7,1.6,2.8,3.8c0,0.2,0,0.5,0,0.7c2.2,2.8,4.4,6,6.2,9.4
	c1.9,3.4,3.4,7.1,4.5,11.2v0.2l0,0c0.2,0,0.2,0,0.4,0c0.2,0,0.2,0,0.4,0s0.4,0,0.5,0v-0.2c1.1-3.9,2.7-8,4.5-11.5
	c1.6-3.2,3.6-6,5.9-8.8c0-0.4-0.2-0.7-0.2-1.1c0-2.1,1.4-3.8,2.8-3.8s2.7,1.6,2.7,3.8c0,2.1-1.4,3.8-2.8,3.8c-0.4,0-0.5,0-0.9-0.2
	l-0.2,0.2c-0.5,0.7-1.1,1.4-1.6,2.1c-1.6,2.2-3.4,4.9-4.7,7.7c-1.4,2.7-2.5,5.7-3.4,8.8c0,0.2,0,0.2-0.2,0.4l0,0
	c0.2,0.2,0.2,0.4,0.4,0.5c0.5,1.4,0.7,2.5,0.5,3.8c-0.2,0.5-0.4,1.5-0.5,2.1l0,0c0.5,0.9,1.1,2.1,1.5,3.4c0.5,1.9,0.9,3.9,1.1,6.2
	c0.4-0.9,0.5-1.9,0.9-2.7c1.1-3.2,2.7-6.4,4.4-9.4c1.5-2.8,3.4-5.7,5.5-8.5c2.5-3.4,5.1-6.4,8.2-9.6c3-3,6.4-6.2,10.3-9.2
	c4.7-3.8,8.5-6.6,12.1-9.1c4.4-2.8,8.1-4.7,11.8-6.2c3.2-1.4,6.2-1.9,9.2-2.1c0.4,0,0.7,0,1.1,0c2.1,0,3.9,0.4,5.9,0.9
	c1.9,0.5,3.6,1.5,5.1,2.8c1.5,1.1,2.7,2.7,3.4,4.4c0.7,1.9,1.1,3.8,1.1,5.9v0.2v0.2l0,0L519.9,419.5L519.9,419.5z"/>
<g id="UZkkI3_2_">
	<g>
		<path fill="#E0C69B" d="M61.6,442.6c60.8-0.2,150-0.9,210.8,0c9.9,0.2,21.6,5.5,28.9,12.1c28.7,26,56.2,53.2,83.7,80.2
			c11.2,10.8,11.3,24.4,1.5,34.1c-8.7,8.7-22.1,8.1-33-2.1c-12.4-11.7-24.2-23.9-36.7-35.5c-2.4-2.1-7.5-1.5-11.2,1.6
			c14,14.4,27.4,29.5,42,43.1c18.3,17.1,41.2,12.4,53.8-9.3c2-3.5,7.3-7,11.3-7c26.8-0.5,53.6-0.5,80.4-0.2
			c14.7,0.2,26.4,11.7,26.3,24.9c-0.2,13.7-9.3,23.5-25.2,23.8c-52.1,0.5-104.2,0.7-156.3-0.4c-9.3-0.2-19.8-5.9-27.8-11.7
			c-29.3-20.9-57.4-43.6-86.6-64.7c-6.6-4.7-15.7-7.7-23.8-7.8c-36.5-1.1-101.5-0.7-138.1-0.7C61.6,496,61.6,469.5,61.6,442.6z"/>
	</g>
</g>
<g>
	<g>
		<path fill="#D6B432" d="M174,534c-58.6,0-106.2,47.6-106.2,106.2S115.3,746.4,174,746.4s106.3-47.5,106.3-106.1
			C280.2,581.7,232.6,534,174,534z M173.1,560.8c0.9,0,1.8,0,2.7,0c2.4,1.6,3.3,3.7,3.3,6.6c-0.2,4,0,8.1,0,12.1
			c0,3.7-2,5.9-4.7,5.9s-4.5-2.1-4.5-6c0-4.2,0.2-8.1,0-12.3C169.8,564.3,170.7,562,173.1,560.8z M105.2,602.2
			c2.9-3.3,4.2-3.5,8.4-1.8c3.9,1.6,7.7,3.3,11.7,4.9c3.1,1.4,4.2,3.7,3.3,6.2c-0.9,2.6-4.2,3.7-7.1,2.6c-4.7-2-9.1-4.2-13.7-6.4
			c-1.1-0.5-1.8-1.8-2.6-2.7C105.2,604.1,105.2,603.1,105.2,602.2z M125.9,646.1c-4.9,0.9-9.9,1.5-14.7,2.1c-2.7,0.4-4.7-1.1-6-3.3
			c0-0.7,0-1.4,0-2c1.4-2.6,3.7-3.5,6.2-3.9c3.5-0.5,6.8-1.4,10.2-1.8c1.1-0.2,2.1-0.2,3.3-0.2c2.7,0,4.7,1.1,5.1,3.9
			C130.2,643.9,128.5,645.7,125.9,646.1z M132.9,570.9c1.5-0.5,4.6-0.4,5.2,0.5c3.7,4.7,6.8,10.1,9.9,15.2c0.2,0.4,0.2,0.7,0.4,2
			c-0.7,0.7-1.5,2.7-2.7,3.1c-1.4,0.4-4,0.2-4.7-0.7c-3.7-4.7-6.8-9.7-9.9-14.6C129.9,574,130.9,571.5,132.9,570.9z M186.4,714
			c-4.2,0-8.1,0-12.4,0c-4.9,0-10.1-0.2-15,0c-2.7,0-3.7-1.1-3.7-3.7c-0.2-7.1-0.2-7.1,7-7.1c8.7,0,17.7,0,26.4,0
			c4,0,4.2,0.2,4.5,4.2C193,714,193,714,186.4,714z M186.4,699.5c-4.2,0-8.1,0-12.4,0c-4.9,0-10.1-0.2-15,0c-2.7,0-3.7-1.1-3.7-3.7
			c-0.2-7.1-0.2-7.1,7-7.1c8.7,0,17.7,0,26.4,0c4,0,4.2,0.2,4.5,4.2C193,699.5,193,699.5,186.4,699.5z M211.5,626.8
			c-0.4,7.1-2.4,13.7-5.7,20.1c-5.2,10.2-10.5,20.2-12.6,31.6c-0.7,4.5-1.6,4.7-6.2,4.7c-4.2,0-8.6,0-12.6,0c-4.9,0-9.7,0-14.6,0
			c-2.1,0-3.7-0.9-4.2-3.1c-0.7-2.6-1.5-4.9-2-7.5c-2-9-6.2-17.1-10.2-25c-4.2-8.4-7-17.1-5.9-26.7c1.5-13,8.4-21.8,20.7-26.2
			c10.6-3.7,21.6-3.7,32.4-0.2C204.4,599.4,212.3,611.9,211.5,626.8z M216.8,577.3c-2.6,4.2-5.1,8.1-7.8,12.3
			c-1.8,2.6-4.7,3.1-7,1.6c-2.1-1.5-2.6-4-0.7-7c2.4-3.9,4.7-8.1,7.7-11.7c1.4-1.5,3.9-2.1,5.9-2.1c1.4,0,2.1,2.4,3.3,3.5
			C217.5,575.3,217.2,576.5,216.8,577.3z M243,645c-1.5,2.7-3.9,3.7-7,3.3c-4.6-0.7-9.1-1.4-13.5-2c-2.7-0.4-4.6-2.9-4.2-5.2
			c0.5-2.7,2.4-4.2,5.2-3.7c5.2,0.7,10.6,1.6,15.7,2.7c1.5,0.2,2.6,2.1,3.7,3.3C243,643.8,243,644.5,243,645z M243,604.8
			c-1.5,1.4-2.7,2.7-4.6,3.7c-3.5,1.8-7.1,3.7-10.8,5.2c-3.5,1.6-6.8,0.7-7.8-2.1c-1.1-2.4,0.4-4.9,3.9-6.4
			c3.9-1.8,7.7-3.3,11.7-4.9c4-1.8,5.2-1.4,7.7,2.6C243,603.5,243,604.1,243,604.8z"/>
	</g>
</g>
<g id="UZkkI3_1_">
	<g>
		<path fill="#CCA889" d="M547.5,622.2c-60.8-0.2-150-0.9-210.8,0c-9.9,0.2-21.6,5.5-28.9,12.1c-28.5,25.8-55.9,53.1-83.5,80
			c-11.2,10.8-11.3,24.4-1.5,34.1c8.7,8.7,22.1,8.1,33-2.1c12.4-11.7,24.2-23.9,36.7-35.5c2.4-2.1,7.5-1.5,11.2,1.6
			c-14,14.4-27.4,29.5-42,43.1c-18.3,17.1-41.2,12.4-53.8-9.3c-2-3.5-7.3-7-11.3-7c-26.8-0.5-53.6-0.5-80.4-0.2
			c-14.7,0.2-26.4,11.7-26.3,24.9c0.2,13.7,9.3,23.5,25.2,23.8c52.1,0.5,104.2,0.7,156.3-0.4c9.3-0.2,19.8-5.9,27.8-11.7
			c29.3-20.9,57.4-43.6,86.6-64.7c6.6-4.7,15.7-7.7,23.8-7.8c36.5-0.9,101.5-0.4,138.1-0.5C547.5,675.8,547.5,648.8,547.5,622.2z"/>
	</g>
</g>
<rect y="330.7" fill="none" width="612" height="480"/>
</svg>
