<?xml version="1.0" encoding="utf-8"?>
<!-- Generator: Adobe Illustrator 18.1.1, SVG Export Plug-In . SVG Version: 6.00 Build 0)  -->
<svg version="1.1" id="Layer_1" xmlns="http://www.w3.org/2000/svg" xmlns:xlink="http://www.w3.org/1999/xlink" x="0px" y="0px"
	 viewBox="0 155.4 612 586.5" enable-background="new 0 155.4 612 586.5" xml:space="preserve">
<path fill="#83C5EB" d="M306.1,326.3c-48.6,0-87.8,39.4-87.8,87.8s39.4,87.8,87.8,87.8s87.8-39.4,87.8-87.8S354.5,326.3,306.1,326.3
	z M375.3,379.5v0.2c0,0.2,0,0.3-0.2,0.3c0,0.2,0,0.3,0,0.5s0,0.5-0.2,0.6c-0.3,1.6-0.8,3.3-1.6,5.3c-1.1,3.1-2.3,6.1-3.4,8.4
	c-0.5,1.1-0.9,2.2-1.4,3.1c-0.5,1.1-1.1,2.3-1.6,3.4c-0.8,1.6-1.2,3.4-1.7,5.6c-0.5,2-0.8,4-1.1,6.1c0,0.3-0.2,0.6-0.2,0.9
	c-0.3,1.7-0.6,3.6-1.1,5.4c-0.5,1.9-0.9,3.4-1.7,5c-0.8,1.6-1.6,2.9-2.5,4.3c-1.4,1.9-2.9,3.3-4.5,4.2c-1.7,0.9-3.4,1.6-5.3,1.7
	c-0.3,0-0.5,0-0.6,0c-0.5,0-0.8,0-1.1,0c1.6,1.4,3.1,3.1,4.5,5.1c0.3,0.3,0.5,0.6,0.8,1.1c0.9,1.6,1.4,3.4,1.4,5.9
	c0,1.7-0.2,3.3-0.6,5.1c-0.5,1.9-1.1,3.9-1.9,5.9c-1.2,3.3-2.9,6.5-4.8,9.6c-2.2,3.6-4.3,6.4-6.8,8.8c-1.2,1.2-2.5,2.3-3.6,3.1
	s-2,1.1-2.8,1.4c0,0-0.2,0-0.2,0.2h-0.2l0,0H331l0,0c0,0,0,0-0.2,0c0,0,0,0-0.2,0s-0.2,0-0.3,0c-0.5-0.2-1.1-0.3-1.6-0.5
	c-1.9-0.6-3.7-1.7-5.4-3.1c-2-1.7-3.7-3.7-5.4-6.2c-2.2-3.3-4-6.5-5.7-9.9c-0.6-1.1-1.1-2.3-1.7-3.6c-1.1-2.2-1.9-4.5-2.5-6.8v0.2
	c0,1.1,0,2,0,3.1c0,0.3,0,0.6,0,0.9c0,2.2-0.2,4.3-0.2,6.4l0,0c0,1.4-0.2,2.8-0.3,4c0,0.5-0.2,1.1-0.3,1.7s-0.5,0.9-0.9,1.1h-0.2
	c-0.5,0-0.8-0.3-1.1-0.8c-0.2-0.3-0.2-0.6-0.3-0.8c-0.2-0.5-0.2-0.9-0.2-1.6c0-1.1-0.2-2-0.2-3.1c0-0.3,0-0.6,0-0.8
	c0-0.8,0-1.6-0.2-2.2c0-0.3,0-0.8,0-1.1c0-1.4-0.2-2.9-0.2-4.5c0-0.8,0-1.6-0.2-2.5c0-0.2,0-0.3,0-0.5l0,0c-0.3,0.8-0.5,1.6-0.8,2.3
	c-0.9,2.8-2.2,5.4-3.7,8.7c-1.4,2.6-2.9,5.4-5,8.5c-1.2,2-2.6,3.9-4.2,5.4c-1.7,1.9-3.6,3.1-5.6,4c-1.6,0.8-2.9,1.1-4.5,1.2
	c-0.2,0-0.2,0-0.3,0c-0.6,0-1.2-0.2-1.7-0.3c-0.9-0.3-1.9-0.9-2.8-1.6c-1.7-1.2-3.4-2.8-5.3-5c-1.9-2.3-3.7-4.8-5.4-7.6
	c-1.9-3.1-3.3-6.1-4.5-9.2c-1.1-2.8-1.7-5.3-2-7.8c-0.2-1.6-0.3-2.9-0.2-4.2c0.2-2,0.8-3.9,1.9-5.3c1.6-2.2,3.3-4,4.8-5.6
	c-0.5,0-0.8,0.2-1.2,0.2s-1.1,0-1.6-0.2c-1.1-0.2-2.2-0.5-3.3-0.9c-1.7-0.8-3.3-2-4.5-3.6c-1.2-1.4-2.5-3.3-3.4-5.4
	c-0.8-1.7-1.4-3.6-2-6.2c-0.3-1.7-0.6-3.6-0.9-5.3c0-0.3-0.2-0.5-0.2-0.8c-0.3-1.6-0.5-3.3-0.9-5c-0.5-2.3-1.1-4.2-1.9-6.1
	c-0.9-2.2-1.9-4.2-2.6-6.1c-0.8-1.9-1.9-4.2-2.8-6.7c-0.9-2.5-2-5.6-2.5-8.8c0,0,0-0.2,0-0.3l-0.2-0.2l-0.3-3.1l0.2-0.2
	c0,0,0-0.2,0-0.3v-0.2c0-2.8,0.8-5.3,2.2-7c0.5-0.6,1.1-1.1,1.7-1.6c2.2-1.6,4.5-2.5,7-2.8h0.2h0.2l0,0h3.3l0,0h0.2h0.2
	c1.2,0,2.6,0.5,3.7,0.6c2.2,0.6,4.2,1.4,6.5,2.6c2.8,1.4,5.6,3.1,8.5,5.1c5.1,3.7,9.6,7.3,13.7,11c3.9,3.6,7,7.1,9.8,11
	c2.6,3.6,4.8,7.5,6.5,11.5c0.6,1.6,1.2,2.9,1.7,4.5c0.2-1.1,0.2-2,0.3-3.1c0.2-0.9,0.3-2,0.8-3.3c0.3-0.6,0.5-1.2,0.9-1.7
	c-0.3-0.5-0.5-0.9-0.6-1.7s-0.2-1.6,0.2-2.3c0.2-0.6,0.5-1.2,0.9-1.6c0-0.2,0-0.2-0.2-0.3c-0.5-1.6-1.1-3.1-1.7-4.7
	c-0.9-2.2-2-4.2-3.1-5.9s-2.3-3.4-3.6-4.8c-0.3,0.2-0.6,0.3-0.9,0.3c-1.2,0-2.2-1.4-2.3-3.1c0-1.7,0.9-3.1,2.2-3.1
	c1.2,0,2.2,1.4,2.3,3.1c0,0.2,0,0.5,0,0.6c1.9,2.3,3.6,5,5.1,7.8s2.8,5.9,3.7,9.2v0.2l0,0c0.2,0,0.2,0,0.3,0s0.2,0,0.3,0
	s0.3,0,0.5,0v0.8c0.9-3.3,2.2-6.5,3.7-9.5c1.4-2.6,2.9-5,4.8-7.3c0-0.3-0.2-0.6-0.2-0.9c0-1.7,1.1-3.1,2.3-3.1s2.2,1.4,2.2,3.1
	s-1.1,3.1-2.3,3.1c-0.3,0-0.5,0-0.8-0.2l-0.2,0.2c-0.5,0.6-0.9,1.1-1.4,1.7c-1.4,1.9-2.8,4-3.9,6.4c-1.1,2.2-2,4.7-2.8,7.3
	c0,0.2,0,0.2-0.2,0.3l0,0c0.2,0.2,0.2,0.3,0.3,0.5c0.5,1.1,0.6,2,0.5,3.1c-0.2,0.5-0.3,1.2-0.5,1.7l0,0c0.5,0.8,0.9,1.7,1.2,2.8
	c0.5,1.6,0.8,3.3,0.9,5.1c0.3-0.8,0.5-1.6,0.8-2.2c0.9-2.6,2.2-5.3,3.6-7.8c1.2-2.3,2.8-4.7,4.5-7c2-2.8,4.2-5.3,6.8-7.9
	c2.5-2.5,5.3-5.1,8.5-7.6c3.9-3.1,7-5.4,9.9-7.5c3.6-2.3,6.7-3.9,9.8-5.1c2.6-1.1,5.1-1.6,7.6-1.7c0.3,0,0.6,0,0.9,0
	c1.7,0,3.3,0.3,4.8,0.8c1.6,0.5,2.9,1.2,4.2,2.3c1.2,0.9,2.2,2.2,2.8,3.6c0.6,1.6,0.9,3.1,0.9,4.8v0.2v0.2l0,0L375.3,379.5
	L375.3,379.5z"/>
<g>
	<path fill="#DBDAD7" d="M563.7,430.9H538c-0.9,0-1.6,0.6-1.6,1.6v3.4c0,0.9,0.6,1.6,1.6,1.6h25.8c0.9,0,1.6-0.6,1.6-1.6v-3.3
		C565.3,431.7,564.7,430.9,563.7,430.9z"/>
	<path fill="#DBDAD7" d="M563.7,444.1H538c-0.9,0-1.6,0.6-1.6,1.6v3.4c0,0.9,0.6,1.6,1.6,1.6h25.8c0.9,0,1.6-0.6,1.6-1.6v-3.3
		C565.3,444.9,564.7,444.1,563.7,444.1z"/>
	<path fill="#DBDAD7" d="M510.3,384h-7.9c-0.9,0-1.6-0.6-1.6-1.6v-7.9c0-0.9-0.6-1.6-1.6-1.6h-3.4c-0.9,0-1.6,0.6-1.6,1.6v7.9
		c0,0.9-0.6,1.6-1.6,1.6h-7.9c-0.9,0-1.6,0.6-1.6,1.6v3.4c0,0.9,0.6,1.6,1.6,1.6h7.9c0.9,0,1.6,0.6,1.6,1.6v7.9
		c0,0.9,0.6,1.6,1.6,1.6h3.4c0.9,0,1.6-0.6,1.6-1.6v-7.9c0-0.9,0.6-1.6,1.6-1.6h7.9c0.9,0,1.6-0.6,1.6-1.6v-3.4
		C511.9,384.8,511.1,384,510.3,384z"/>
	<path fill="#DBDAD7" d="M503.4,441.9c-0.6-0.6-0.6-1.7,0-2.2l5.6-5.6c0.6-0.6,0.6-1.7,0-2.2l-2.5-2.5c-0.6-0.6-1.7-0.6-2.2,0
		l-5.6,5.6c-0.6,0.6-1.7,0.6-2.2,0l-5.6-5.6c-0.6-0.6-1.7-0.6-2.2,0l-2.5,2.5c-0.6,0.6-0.6,1.7,0,2.2l5.6,5.6c0.6,0.6,0.6,1.7,0,2.2
		l-5.6,5.6c-0.6,0.6-0.6,1.7,0,2.2l2.5,2.5c0.6,0.6,1.7,0.6,2.2,0l5.6-5.6c0.6-0.6,1.7-0.6,2.2,0l5.6,5.6c0.6,0.6,1.7,0.6,2.2,0
		l2.5-2.5c0.6-0.6,0.6-1.7,0-2.2L503.4,441.9z"/>
	<path fill="#DBDAD7" d="M524.2,326.3c-48.6,0-87.8,39.4-87.8,87.8s39.4,87.8,87.8,87.8s87.8-39.4,87.8-87.8
		S572.7,326.3,524.2,326.3z M519.8,456.4c0,3.7-2.9,6.7-6.7,6.7h-31c-3.7,0-6.7-2.9-6.7-6.7v-31c0-3.7,2.9-6.7,6.7-6.7h31
		c3.7,0,6.7,2.9,6.7,6.7V456.4z M519.8,403c0,3.7-2.9,6.7-6.7,6.7h-31c-3.7,0-6.7-2.9-6.7-6.7v-30.9c0-3.7,2.9-6.7,6.7-6.7h31
		c3.7,0,6.7,2.9,6.7,6.7V403z M573.2,456.4c0,3.7-2.9,6.7-6.7,6.7h-31c-3.7,0-6.7-2.9-6.7-6.7v-31c0-3.7,2.9-6.7,6.7-6.7h31
		c3.7,0,6.7,2.9,6.7,6.7V456.4z M573.2,403c0,3.7-2.9,6.7-6.7,6.7h-31c-3.7,0-6.7-2.9-6.7-6.7v-30.9c0-3.7,2.9-6.7,6.7-6.7h31
		c3.7,0,6.7,2.9,6.7,6.7V403z"/>
	<path fill="#DBDAD7" d="M563.7,384H538c-0.9,0-1.6,0.6-1.6,1.6v3.4c0,0.9,0.6,1.6,1.6,1.6h25.8c0.9,0,1.6-0.6,1.6-1.6v-3.4
		C565.3,384.8,564.7,384,563.7,384z"/>
</g>
<path fill="#DBDAD7" d="M87.8,326.3C39.4,326.3,0,365.6,0,414.2S39.4,502,87.8,502c48.6,0,87.8-39.4,87.8-87.8
	S136.4,326.3,87.8,326.3z M134.1,472.7h-0.2v4.3h-4.3H46.1h-4.2v-4.3v-9.3c0-2.3,1.9-4.3,4.3-4.3h32.9c-8.8-2.6-16.3-8.4-21-16H40
	v-7.4h14.6h15.5h16v7.5h-9c3.7,2.6,8.2,4,13.3,4c12.9,0,23.3-10.4,23.3-23.3c0-4.8-1.4-9.5-4-13c-1.1,0.2-2.3,0.3-3.6,0.3
	c-6.2,0-11.6-3.4-14.4-8.5l-7.5,12.1l6.1,3.7l-6.1,9.9L52.7,409l6.1-9.9l6.1,3.7l26.7-43.6c1.4-2.3,5.1-4.5,8.7-2.5l9-14.6l8.8,5.4
	l-9,14.6c3.4,2.5,3.3,6.7,1.7,9l-4.2,6.8c8.8,0.3,16,7.6,16,16.6c0,2.8-0.6,5.4-1.9,7.8c4.5,6.1,7.1,13.5,7.1,21.6
	c0,16.6-11.2,30.6-26.4,35.2h28.4c2.3,0,4.3,1.9,4.3,4.3V472.7L134.1,472.7L134.1,472.7z"/>
<path fill="#A19CCC" d="M522,307v-0.2c0-0.2,0-0.2,0-0.3c0.9-1.9,1.4-3.9,1.4-6c0-1.9-0.6-3.7-1.4-5.4c-1-1.8-2.3-3.3-3.7-4.5
	c-1.6-1.4-3.3-2.5-5.3-3.3c-0.3-0.2-0.7-0.3-1-0.3c-2.8-1-6-1.6-9.5-1.8c-4.1-0.2-8.5,0.2-13.6,1c-4.4,0.7-8.9,1.9-15.1,3.7
	c-4.9,1.4-9.3,2.9-13.6,4.5c-4.2,1.8-8,3.7-11.8,5.8c-2.9,1.8-6,3.7-8.6,5.8c-2.8,2.2-5.4,4.5-7.9,7c-0.7,0.7-1.4,1.4-1.9,2.2
	c0.7-2.3,1.2-4.4,1.4-6.3c0.2-1.4,0.2-2.6,0-3.9l0,0c0.7-0.6,1-1.2,1.4-1.8c0.7-1,1-2.3,0.9-3.9c0-0.2,0-0.6,0-0.7l0,0
	c0-0.2,0.2-0.2,0.2-0.3c2.2-2.6,4.4-4.9,6.9-7s4.9-3.9,7.6-5.4c0.9-0.6,1.6-0.9,2.5-1.2c0,0,0.2,0,0.2-0.2c0.2,0.2,0.6,0.6,0.7,0.6
	c1.4,0.6,3.2-0.6,4.1-2.5c0.9-1.9,0.6-4.1-0.9-4.5s-3.2,0.6-4.1,2.5c-0.2,0.3-0.3,0.7-0.3,1c-3.2,1.8-6.1,3.7-8.9,6
	c-3.2,2.6-6.1,5.7-8.9,8.9c0,0,0,0.2-0.2,0.2c-0.2-0.2-0.3-0.2-0.6-0.3c-0.2,0-0.2-0.2-0.3-0.2c-0.1,0-0.2,0-0.3-0.2l0,0v-0.2
	c0.6-4.2,0.6-8.3,0.3-12.3c-0.3-3.9-1-7.6-2.2-11.2c0.2-0.2,0.2-0.6,0.3-0.7c0.9-1.9,0.3-4.1-1-4.8c-1.4-0.6-3.2,0.6-4.1,2.5
	c-0.9,1.9-0.3,4.1,1,4.8c0.3,0.2,0.9,0.2,1.2,0.2c0.7,2.3,1.4,4.8,1.8,7.2c0.3,2.6,0.6,5.4,0.6,8.3c0,1.9-0.2,4.1-0.3,6.1
	c0,0.2,0,0.3,0,0.3c-0.6,0.3-1.2,0.7-1.8,1.4c-0.6,0.7-1,1.6-1.2,2.6c-0.2,0.9-0.2,1.6,0,2.2c-0.6,0.3-1.2,0.7-1.8,1.4
	c-1,1-1.9,2.3-2.5,3.3c-0.7,1-1.4,2.3-1.9,3.3c0.2-2.2,0.2-4.1,0.2-6.1c0-5.4-0.7-10.9-1.9-16.3c-1.2-5.7-3.2-11.4-5.8-17.4
	c-2.8-6.3-6.1-12.7-10.2-19.4c-2.3-3.9-4.8-7-7.2-10c-2.2-2.5-4.2-4.5-6.3-6.1c-1-0.9-2.5-1.9-3.9-2.6c0,0,0,0-0.2-0.2
	c0,0,0,0-0.2-0.2l0,0l-3.9-1.6l0,0h-0.2c-0.2,0-0.2,0-0.2,0c-2.9-0.9-6.1-1-9.3-0.2c-0.9,0.2-1.8,0.6-2.6,1c-2.5,1.4-4.5,3.7-6,7
	v0.2c0,0.2-0.2,0.3-0.2,0.3l-0.2,0.2l-1.2,3.7l0.2,0.2c0,0,0,0.2,0,0.3c-1,4.1-1.2,8-1.4,11.4c-0.2,3.3-0.2,6.7,0,9.2
	c0,2.5,0.2,5.1,0.2,8.3c0,2.5-0.2,4.9-0.7,7.7c-0.3,2.2-0.9,4.2-1.4,6.1c0,0.3-0.2,0.7-0.2,0.9c-0.6,2.2-1,4.4-1.6,6.5
	c-0.7,3.3-0.9,5.8-0.7,8c0.2,2.8,0.6,5.4,1.4,7.9c0.9,2.5,1.9,4.5,3.5,6.3c0.9,1,1.9,1.9,3.2,2.8c0.6,0.3,1,0.7,1.8,0.9
	c0.6,0.2,1,0.3,1.6,0.6c-2.6,0.9-5.3,2.3-8.3,4.1c-1.9,1-3.3,2.8-4.5,5.1c-0.7,1.4-1.4,3.2-1.9,4.9c-0.9,2.9-1.2,6.1-1.4,9.9
	c-0.2,4.1,0,8.3,0.7,12.7c0.6,4.1,1.4,7.9,2.5,11.4c1,3.3,2.3,6,3.5,8.3c0.7,1.2,1.6,2.3,2.5,3.2c0.6,0.6,1,0.9,1.8,1.2
	c0.2,0,0.2,0.2,0.3,0.2c1.8,0.6,3.5,0.9,5.7,0.7c2.6-0.2,5.4-0.7,8.3-1.9c2.5-1,4.9-2.5,7.4-4.2c3.9-2.6,6.9-5.1,9.9-7.4
	c3.5-2.8,6.1-5.4,8.6-8c0.7-0.7,1.4-1.6,1.9-2.3l0,0c0,0.2-0.2,0.3-0.2,0.6c-0.3,0.9-0.7,1.9-1,2.8c-0.7,1.8-1.2,3.5-1.9,5.3
	c-0.2,0.3-0.3,0.9-0.6,1.2c-0.3,0.7-0.7,1.8-0.9,2.6c-0.2,0.3-0.2,0.7-0.3,1c-0.3,1.2-0.9,2.5-1.2,3.7c-0.2,0.7-0.3,1.2-0.6,1.8
	c0,0.3-0.2,0.7,0,1c0,0.7,0.3,1,0.9,1.4h0.2c0.6,0.2,1.2,0,1.6-0.7c0.6-0.7,0.9-1.2,1-1.8c0.9-1.4,1.6-2.9,2.3-4.5l0,0
	c1.2-2.5,2.3-4.9,3.3-7.2c0.2-0.3,0.3-0.7,0.6-1c0.6-1.2,1-2.5,1.6-3.5v-0.2c-0.3,2.9-0.6,6-0.3,8.9c0,1.8,0.2,3.5,0.2,4.9
	c0.3,4.5,0.9,9.3,1.8,14c0.7,3.7,1.8,6.9,3.2,9.9c1.4,2.6,2.8,4.5,4.8,6.3c0.6,0.6,1,0.9,1.6,1.2c0.2,0,0.2,0.2,0.3,0.2
	c0,0,0,0,0,0.2c0,0,0,0,0,0.2l0,0l2.2,0.9l0,0h0.2c0.2,0,0.2,0,0.2,0c1.2,0.2,2.5,0,3.9-0.2c1.8-0.3,3.7-0.9,5.7-1.8
	c3.9-1.6,7.9-3.9,12.1-6.9c3.9-2.6,7.2-5.7,10.4-8.8c1.9-1.9,3.5-3.9,4.9-6c1.4-1.9,2.5-3.7,3.2-5.7c1-2.6,1.6-5.1,1.2-7.4
	c0-0.6-0.2-1-0.3-1.6c-0.7-2.9-1.6-5.8-2.6-8c0.3,0.2,0.9,0.6,1.2,0.7c0.2,0.2,0.6,0.2,0.7,0.3c2.2,0.7,4.4,1,6.9,0.7
	c2.3-0.3,4.8-1.2,7.2-2.6c1.8-1,3.5-2.3,5.1-3.7c1.6-1.4,2.9-3.2,4.4-4.9c1.4-1.9,2.8-4.1,3.9-5.8c0.2-0.3,0.3-0.7,0.6-0.9
	c1.2-2.2,2.6-4.2,4.2-6.3c1.6-2.3,3.2-4.1,4.8-5.4c1.2-1,2.3-2.2,3.5-3.2c1-0.9,2.2-1.9,3.2-2.8c2.5-2.3,5.3-4.9,7.9-8
	c1.8-1.9,3.2-3.5,4.2-5.3c0.2-0.2,0.3-0.3,0.3-0.7c0.2-0.2,0.2-0.3,0.3-0.3c0-0.2,0.2-0.2,0.3-0.3l0.2-0.2l0,0L522,307L522,307z"/>
<g>
	<circle fill="#B3509E" cx="203.1" cy="225.3" r="2.6"/>
	<g>
		<path fill="#CB6EAC" d="M197.9,330.7c-0.6-1.3-1.1-2.7-1.4-4.4c-5-16.6,7.6-28.7,4.3-33c-3.4-4.6-32.4,6.8-45,34.1
			c-2.6,5.6-12.9,28.1-2,48c6.1,11,10.7,9.7,26.4,5c3-0.9,6.1-1.9,9-3.1c5.7,21.4,8.9,23,10.7,23.4c6.3,1.1,15.1-9.6,17-20.1
			C218.8,367.6,208.5,346.2,197.9,330.7z"/>
		<path fill="#CB6EAC" d="M294.9,320.6c-5.3-22-28-31.5-33.7-33.9c-27.7-11.8-56.7-0.6-56.1,5.1c0.4,5.3,17.9,5.9,25.4,21.6
			c0.7,1.4,1.3,3,1.9,4.3c2.6,18.6,9.4,41.3,19.9,49.4c8.4,6.6,22.1,8.4,26,3.4c1.1-1.4,2.4-4.7-8-24.5c3-1.1,5.9-2.6,8.9-3.9
			C293.6,335,297.8,332.7,294.9,320.6z"/>
		<path fill="#B3509E" d="M57.2,246.5c-4.7,12-1.3,30.6,4.3,41c10.3,19.3,17.1,16.3,28.6,38.5c7.6,15,9,44.7,16.3,45
			c51.2,2.4,52-78.5,106.1-73C215.6,298.3,85.6,173.8,57.2,246.5z"/>
		<path fill="#B3509E" d="M280.9,159.8c11.6,5.7,21.6,21.7,24.5,33c5.3,21.4-1.7,23.6,4.7,47.7c4.4,16.3,23.4,39.1,18.4,44.3
			c-36.1,36.3-91.2-23-127.5,17.7C198.9,304.7,211.1,125.3,280.9,159.8z"/>
		
			<ellipse transform="matrix(-0.3614 -0.9324 0.9324 -0.3614 -0.4973 609.5127)" fill="#B3509E" cx="208.5" cy="304.9" rx="51.6" ry="7.7"/>
		<path fill="#B3509E" d="M190.4,266.5h-0.2c-0.6,0.2-1.3-0.4-1.3-0.9c-0.2-1.4-3-15-15-20.3c-5.1-2.4-10.3-2.3-13.7-1.9
			c-0.6,0-1.3-0.4-1.3-0.9s0.4-1.3,0.9-1.3c3.7-0.6,9.3-0.6,15,2c13.1,5.9,16,20.3,16.3,22C191.1,265.6,190.8,266.2,190.4,266.5z"/>
		<circle fill="#B3509E" cx="160" cy="242.3" r="2.6"/>
		<path fill="#B3509E" d="M195.9,264.2c0,0,0.2,0,0.2-0.2c0.6-0.4,0.7-1.1,0.4-1.7c-0.7-1.3-8-13.1-2.6-25c2.3-5.3,6.1-8.7,8.9-10.4
			c0.6-0.4,0.7-1.1,0.4-1.7s-1.1-0.7-1.7-0.4c-3.1,2-7.2,5.7-9.7,11.4c-5.7,13.1,1.9,25.8,2.7,27.1
			C194.8,264.2,195.4,264.5,195.9,264.2z"/>
		<path fill="#E0A4CA" d="M125,314c-6.8-17.7,1.9-37.6,19.6-44.4c4.7-1.9,9.7-2.6,14.6-2.3c-2.7-2-5.6-3.9-8.3-5.7
			c-31.1-21.1-57.1-30.3-70.7-24.9c-5.3,2-9.4,6.6-12.3,14c-3.1,8.1-0.7,23.3,3.7,31.3c4,7.7,7.4,10.9,11.3,15
			c5,5,10.7,10.4,17.3,23.7c3.9,7.7,6.3,17.9,8.3,26.9c0.9,3.7,2,8.7,3,11.8c2.6-0.2,5.1-0.9,7.4-1.7c9.7-3.9,17.4-13.4,25-24.1
			C135.7,330,128.7,323.2,125,314z"/>
		<path fill="#E0A4CA" d="M276.2,255.3c-6.8-17.7-26.7-26.4-44.4-19.6c-4.7,1.9-9,4.7-12.3,8.1c0.7-3.3,1.4-6.4,2.3-10
			c8.9-36.7,21.7-60.8,35.6-66.1c5.3-2,11.4-1.4,18.4,2c7.7,3.9,16.3,16.7,18.4,25.6c2.3,8.4,2,12.9,1.7,18.6
			c-0.4,7-0.7,15,3.1,29.3c2.3,8.3,7.4,17.4,12,25.4c1.9,3.3,4.3,7.7,5.7,10.9c-2,1.7-4.3,2.7-6.6,3.7c-9.7,3.9-22,1.9-34.8-0.9
			C279.2,274.3,279.7,264.6,276.2,255.3z"/>
	</g>
</g>
<path fill="#E0C69B" d="M410.8,540.4c-10.4,0-18.9,8.6-18.9,18.9v-20.2c0-10.4-8.6-18.9-18.9-18.9s-18.9,8.6-18.9,18.9v-20.2
	c0-10.4-8.6-18.9-18.9-18.9c-10.3,0-18.9,8.6-18.9,18.9v-60.2c0-10.4-8.6-18.9-18.9-18.9s-18.9,8.6-18.9,18.9v130.1
	c0,20.7-4.6,23.4-12.7,0l-6.7-19.9c-3.3-9.8-14.2-15.1-23.8-11.6c-9.8,3.3-15.1,14.2-11.6,23.8l26,76.8l38.3,55.4l9.5,28.6
	c0,0,102.4,0,102.7,0c2.5,0,13.2-44.7,14.3-48.9c9.8-35.7,14.6-67.5,14.6-104.5v-29.3C429.9,548.7,421.3,540.4,410.8,540.4z"/>
</svg>
