<?xml version="1.0" encoding="utf-8"?>
<!-- Generator: Adobe Illustrator 18.1.1, SVG Export Plug-In . SVG Version: 6.00 Build 0)  -->
<svg version="1.1" id="Layer_1" xmlns="http://www.w3.org/2000/svg" xmlns:xlink="http://www.w3.org/1999/xlink" x="0px" y="0px"
	 viewBox="92.5 183.2 313.1 345.6" enable-background="new 92.5 183.2 313.1 345.6" xml:space="preserve">
<path fill="#DADAD3" d="M92.5,453.8c56.2-0.9,77.9-61.9,77.9-61.9L220,269.5l185.6,75.1L356,467c0,0-21.8,61-77.9,61.9L92.5,453.8z"
	/>
<g>
	<path fill="none" stroke="#974E23" stroke-width="2" stroke-miterlimit="10" d="M286.7,352.7c0.6,0.3,1.2,0.5,1.8,0.8
		c1.2,1.7,1.2,3.4,0.4,5.2c-1.2,2.6-2.2,5.3-3.2,7.9c-1,2.3-2.9,3.4-4.7,2.6s-2.3-2.6-1.3-5.2c1.2-2.7,2.3-5.3,3.4-8
		C283.4,354,284.7,352.9,286.7,352.7z M230.8,361.6c2.9-1.3,3.8-1.2,6,1.2c2.1,2.1,4.2,4.2,6.2,6.4c1.7,1.7,1.8,3.6,0.5,4.9
		c-1.3,1.3-3.8,1.3-5.4-0.3c-2.5-2.6-4.9-5.2-7.3-7.9c-0.5-0.6-0.6-1.7-0.9-2.5C230.2,362.7,230.5,362.1,230.8,361.6z M232.6,395.9
		c-3.5-0.8-6.9-1.7-10.4-2.5c-1.9-0.5-2.7-1.9-3-3.8c0.1-0.4,0.4-0.9,0.5-1.3c1.6-1.3,3.2-1.3,5.2-0.8c2.5,0.6,4.8,1,7.3,1.7
		c0.8,0.3,1.4,0.4,2.2,0.6c1.8,0.8,2.9,1.9,2.3,3.9C236,395.7,234.3,396.3,232.6,395.9z M257.5,348.3c1.2,0,3.1,0.9,3.2,1.8
		c1,4.2,1.7,8.4,2.3,12.6c0.1,0.4-0.1,0.5-0.3,1.4c-0.6,0.4-1.7,1.3-2.6,1.3c-1-0.1-2.7-0.9-2.9-1.7c-1-4-1.8-8.2-2.5-12.3
		C254.5,349.6,255.9,348.3,257.5,348.3z M253.7,456.9c-2.7-1.2-5.4-2.2-8.2-3.4c-3.2-1.3-6.5-2.9-9.9-4c-1.8-0.8-2.2-1.7-1.4-3.4
		c1.7-4.7,1.7-4.7,6.5-2.7c5.8,2.3,11.5,4.8,17.4,7.1c2.6,1,2.7,1.3,1.8,3.9C258.1,458.7,258.1,458.7,253.7,456.9z M257.7,447.3
		c-2.7-1.2-5.4-2.2-8.2-3.4c-3.2-1.3-6.5-2.9-9.9-4c-1.8-0.8-2.2-1.7-1.4-3.4c1.7-4.7,1.7-4.7,6.5-2.7c5.8,2.3,11.5,4.8,17.4,7.1
		c2.6,1,2.7,1.3,1.8,3.9C262,449.1,262,449.1,257.7,447.3z M293.9,406.4c-2.2,4.5-5.3,8.4-9.2,11.5c-6.2,5.2-12.3,10.5-16.9,17.4
		c-1.7,2.7-2.3,2.6-5.4,1.4c-2.9-1.2-5.6-2.3-8.3-3.5c-3.2-1.3-6.4-2.6-9.6-4c-1.4-0.6-2.2-1.7-1.9-3.1c0.3-1.8,0.4-3.6,0.6-5.4
		c1.2-6.4,0.5-12.8,0-19.2c-0.5-6.6,0.1-13.2,3.4-19.1c4.4-8,11.4-12.1,20.6-11.5c8,0.5,15.2,3.5,21.3,8.7
		C296.5,386.6,298.5,396.8,293.9,406.4z M310.8,375.4c-2.7,2.1-5.6,4-8.4,5.8c-1.9,1.2-4,0.8-4.9-0.8c-1-1.6-0.5-3.4,1.4-4.8
		c2.6-1.9,5.3-4,8.2-5.6c1.2-0.6,3.1-0.4,4.4,0.1c0.8,0.4,0.8,2.2,1.2,3.1C311.7,374.4,311.3,375.1,310.8,375.4z M309.7,426.9
		c-1.7,1.4-3.5,1.4-5.4,0.3c-2.9-1.7-5.6-3.4-8.3-4.9c-1.7-1-2.2-3.1-1.3-4.7c1.2-1.7,2.7-2.1,4.4-1c3.2,1.8,6.5,3.9,9.5,6
		c0.9,0.5,1,2.1,1.6,3.1C310,426.2,309.9,426.5,309.7,426.9z M320.6,400.6c-1.3,0.5-2.6,1-4,1.2c-2.7,0.3-5.7,0.4-8.6,0.5
		c-2.7,0.1-4.5-1.4-4.5-3.5c0-1.8,1.6-3.1,4.3-3.1c3-0.1,6,0,9.1,0s3.9,0.6,4.4,3.8C320.9,399.7,320.8,400.2,320.6,400.6z"/>
</g>
<g>
	<path fill="none" stroke="#974E23" stroke-width="2" stroke-miterlimit="10" d="M244.6,332.8c-21.3,6.2-39.6,21.7-48.8,43.7
		c-15.8,38.5,2.5,82.6,40.9,98.4c38.5,15.8,82.6-2.5,98.4-40.9c11.5-28,5.1-59-14.3-79.9"/>
</g>
<path fill="none" stroke="#5E8CC9" stroke-miterlimit="10" d="M202,337.8"/>
<path fill="none" stroke="#5E8CC9" stroke-miterlimit="10" d="M202,337.8"/>
<g>
	<g>
		<path fill="none" stroke="#5E8CC9" stroke-miterlimit="10" d="M289.4,353.9c0.6,0.3,1.2,0.5,1.7,0.8c1,1.7,1,3.4,0.3,5.2
			c-1.3,2.6-2.3,5.2-3.6,7.8c-1,2.3-3,3.2-4.8,2.3c-1.8-0.8-2.2-2.7-1-5.2c1.3-2.7,2.5-5.2,3.6-7.9
			C286.1,355.1,287.4,354,289.4,353.9z M233.2,360.4c2.9-1.2,3.8-0.9,6,1.4c2.1,2.2,4,4.4,6,6.6c1.6,1.8,1.7,3.6,0.3,4.9
			c-1.4,1.3-3.9,1.2-5.4-0.5c-2.5-2.7-4.7-5.4-7-8.2c-0.5-0.6-0.5-1.7-0.8-2.6C232.7,361.6,233,360.9,233.2,360.4z M233.6,394.8
			c-3.5-0.9-6.7-1.9-10.2-3c-1.9-0.5-2.7-2.1-2.9-3.9c0.3-0.4,0.4-0.9,0.6-1.3c1.6-1.3,3.4-1.2,5.2-0.6c2.3,0.6,4.8,1.3,7.1,1.9
			c0.8,0.3,1.4,0.5,2.2,0.8c1.7,0.8,2.7,2.1,2.1,4C237.1,394.6,235.3,395.3,233.6,394.8z M260.5,348.3c1.2,0.1,3,1,3.2,1.9
			c0.9,4.2,1.3,8.4,1.8,12.7c0,0.4-0.1,0.5-0.4,1.4c-0.6,0.3-1.7,1.3-2.6,1.2c-1-0.1-2.7-1-2.9-1.8c-0.9-4.2-1.6-8.2-1.9-12.5
			C257.5,349.5,258.9,348.2,260.5,348.3z M252.3,456.6c-2.7-1.3-5.3-2.5-8-3.8c-3.2-1.4-6.4-3.1-9.6-4.4c-1.7-0.8-2.1-1.8-1.3-3.5
			c1.9-4.7,1.9-4.7,6.6-2.5c5.7,2.6,11.4,5.2,17,7.9c2.6,1.2,2.7,1.4,1.6,4C256.6,458.6,256.6,458.6,252.3,456.6z M256.6,447.2
			c-2.7-1.3-5.3-2.5-8-3.8c-3.2-1.4-6.4-3.1-9.6-4.4c-1.7-0.8-2.1-1.8-1.3-3.5c1.9-4.7,1.9-4.7,6.6-2.5c5.7,2.6,11.4,5.2,17,7.9
			c2.6,1.2,2.7,1.4,1.6,4C260.9,449.2,260.9,449.2,256.6,447.2z M284.7,419c-6.5,4.9-12.7,10-17.5,16.6c-1.8,2.6-2.5,2.6-5.4,1.2
			c-2.7-1.3-5.4-2.6-8.2-3.8c-3.2-1.4-6.2-2.9-9.5-4.4c-1.4-0.6-2.1-1.7-1.8-3.2c0.4-1.8,0.5-3.6,0.9-5.4c1.4-6.4,1-12.7,0.8-19.2
			 M312.6,377.5c-2.9,1.9-5.7,3.9-8.7,5.4c-1.9,1-4,0.5-4.9-1c-0.9-1.6-0.4-3.4,1.7-4.7c2.7-1.8,5.4-3.8,8.4-5.2
			c1.2-0.6,3.1-0.3,4.4,0.4c0.8,0.4,0.8,2.2,1,3.2C313.6,376.5,313.1,377.1,312.6,377.5z M309.4,429c-1.8,1.4-3.6,1.3-5.4,0.1
			c-2.7-1.8-5.4-3.5-8-5.3c-1.6-1-2.1-3.2-1-4.7c1.2-1.7,2.7-1.9,4.4-0.9c3.1,1.9,6.4,4.2,9.3,6.4c0.9,0.6,1,2.1,1.4,3.2
			C309.7,428.1,309.6,428.6,309.4,429z M321.4,403.1c-1.3,0.4-2.6,1-4,1c-2.9,0.1-5.7,0.1-8.6,0.1c-2.7,0-4.5-1.6-4.4-3.8
			c0-1.8,1.7-3.1,4.4-3c3,0,6,0.3,9.1,0.3s3.8,0.8,4.3,3.9C321.8,402.3,321.5,402.7,321.4,403.1z"/>
	</g>
	<g>
		<path fill="none" stroke="#5E8CC9" stroke-miterlimit="10" d="M297.8,336.9c-37.7-17.5-82.6-0.9-100,36.8s-0.9,82.6,36.8,100
			c37.7,17.5,82.6,0.9,100-36.8C352,399.2,335.6,354.4,297.8,336.9z"/>
	</g>
	<line fill="none" stroke="#5E8CC9" stroke-miterlimit="10" x1="216" y1="299.2" x2="379.6" y2="374.8"/>
	<line fill="none" stroke="#5E8CC9" stroke-miterlimit="10" x1="297.8" y1="336.9" x2="234.7" y2="473.9"/>
	<line fill="none" stroke="#5E8CC9" stroke-miterlimit="10" x1="372.4" y1="355.2" x2="296.9" y2="518.8"/>
	<path fill="none" stroke="#5E8CC9" stroke-miterlimit="10" d="M197.8,373.8"/>
	<line fill="none" stroke="#5E8CC9" stroke-miterlimit="10" x1="316.4" y1="511.6" x2="152.8" y2="436"/>
	<line fill="none" stroke="#5E8CC9" stroke-miterlimit="10" x1="160" y1="455.6" x2="235.6" y2="292.1"/>
	<path fill="none" stroke="#5E8CC9" stroke-miterlimit="10" d="M197.8,373.8"/>
	<circle fill="none" stroke="#5E8CC9" stroke-miterlimit="10" cx="269.9" cy="397.2" r="25.8"/>
</g>
<g>
	<polyline fill="#F9D129" points="202.8,222.3 289.9,334.3 308.8,319.5 221.7,207.5 202.8,222.3 	"/>
	<path fill="#F2C0CD" d="M190.7,187.1c4.8-3.6,9.7-5.4,13.4-2.2l0,0l0.9,1.2l7.1,9.1l9.7,12.5l-19.1,14.7l-9.7-12.5l-7.1-9.1
		l-0.9-1.2l0.1-0.1C182.9,195.2,185.9,190.9,190.7,187.1"/>
	<path fill="#D0A6B0" d="M187.7,189.9l13,16.6l-4.5,7.3l-10.9-14.1l0.1-0.1C183.4,196.2,184.9,192.8,187.7,189.9"/>
	<polyline fill="#D6B432" points="209.1,217.4 296.3,329.3 289.9,334.3 202.8,222.3 209.1,217.4 	"/>
	<path fill="#E0C69B" d="M295.2,321.6c1.7-1.3,4.9-0.1,7.3,2.9c-2.2-2.9-2.7-6.4-0.9-7.8c1.7-1.3,4.9-0.1,7.3,2.9l9.1,25.3
		c-1.2,0.4-2.2,1-3.2,1.8c-1,0.8-1.8,1.7-2.6,2.7l-22.3-15l0,0c-2.2-2.9-2.7-6.4-0.9-7.8s4.9-0.1,7.3,2.9
		C293.9,326.4,293.5,323.1,295.2,321.6z"/>
	<path fill="#623726" d="M317.9,344.8l2.5,6.7l0.8,2.3c0,0.4-0.1,0.6-0.3,0.8c-0.3,0.1-0.5,0.1-0.8,0.1l-1.9-1.3l-6-4
		c0.6-1,1.6-1.9,2.6-2.7C315.7,345.9,316.9,345.2,317.9,344.8z"/>
	<path fill="#ACBEBF" d="M213.8,197.4L213.8,197.4l8.4,10.9l0,0c-3.2,1.8-6.6,4-10,6.6c-1,0.8-2.1,1.7-3.1,2.5l-7.9-10.2l-0.5-0.6
		c1-0.8,1.9-1.7,3.1-2.5C207,201.4,210.5,199.1,213.8,197.4z"/>
	<path fill="#99A6A5" d="M201.2,207.1l7.9,10.2c-2.2,1.8-4.2,3.8-5.8,5.6l0,0l-8.4-10.9l0,0c1.7-1.8,3.6-3.8,5.8-5.6L201.2,207.1z"
		/>
</g>
</svg>
