<?xml version="1.0" encoding="utf-8"?>
<!-- Generator: Adobe Illustrator 18.1.1, SVG Export Plug-In . SVG Version: 6.00 Build 0)  -->
<svg version="1.1" id="Layer_1" xmlns="http://www.w3.org/2000/svg" xmlns:xlink="http://www.w3.org/1999/xlink" x="0px" y="0px"
	 viewBox="31.6 356.4 612 545.6" enable-background="new 31.6 356.4 612 545.6" xml:space="preserve">
<path fill="#83C5EB" d="M502.8,356.4c-74.4,0-134.4,60.2-134.4,134.4s60.4,134.4,134.4,134.4c74.4,0,134.4-60.2,134.4-134.4
	S577,356.4,502.8,356.4z M608.7,437.9v0.2c0,0.2,0,0.5-0.2,0.5c0,0.2,0,0.5,0,0.7s0,0.7-0.2,0.9c-0.5,2.4-1.2,5-2.4,8.1
	c-1.7,4.7-3.6,9.2-5.2,12.8c-0.7,1.7-1.4,3.3-2.1,4.7c-0.7,1.7-1.7,3.6-2.4,5.2c-1.2,2.4-1.9,5.2-2.6,8.5c-0.7,3.1-1.2,6.2-1.7,9.2
	c0,0.5-0.2,0.9-0.2,1.4c-0.5,2.6-0.9,5.5-1.7,8.3c-0.7,2.8-1.4,5.2-2.6,7.6c-1.2,2.4-2.4,4.5-3.8,6.6c-2.1,2.8-4.5,5-6.9,6.4
	c-2.6,1.4-5.2,2.4-8.1,2.6c-0.5,0-0.7,0-0.9,0c-0.7,0-1.2,0-1.7,0c2.4,2.1,4.7,4.7,6.9,7.8c0.5,0.5,0.7,0.9,1.2,1.7
	c1.4,2.4,2.1,5.2,2.1,9c0,2.6-0.2,5-0.9,7.8s-1.7,5.9-2.8,9c-1.9,5-4.5,10-7.4,14.7c-3.3,5.5-6.6,9.7-10.4,13.5
	c-1.9,1.9-3.8,3.6-5.5,4.7c-1.7,1.1-3.1,1.7-4.3,2.1c0,0-0.2,0-0.2,0.2h-0.4l0,0h-2.8l0,0c0,0,0,0-0.2,0c0,0,0,0-0.2,0s-0.2,0-0.5,0
	c-0.7-0.2-1.7-0.5-2.4-0.7c-2.8-0.9-5.7-2.6-8.3-4.7c-3.1-2.6-5.7-5.7-8.3-9.5c-3.3-5-6.2-10-8.8-15.2c-0.9-1.7-1.7-3.6-2.6-5.5
	c-1.7-3.3-2.8-6.9-3.8-10.4v0.2c0,1.7,0,3.1,0,4.7c0,0.5,0,0.9,0,1.4c0,3.3-0.2,6.6-0.2,9.7l0,0c0,2.1-0.2,4.3-0.5,6.2
	c0,0.7-0.2,1.7-0.5,2.6c-0.3,0.9-0.7,1.4-1.4,1.7h-0.2c-0.7,0-1.2-0.5-1.7-1.2c-0.2-0.5-0.2-0.9-0.5-1.2c-0.2-0.7-0.2-1.4-0.2-2.4
	c0-1.7-0.2-3.1-0.2-4.7c0-0.5,0-0.9,0-1.2c0-1.2,0-2.4-0.2-3.3c0-0.5,0-1.2,0-1.7c0-2.1-0.2-4.5-0.2-6.9c0-1.2,0-2.4-0.2-3.8
	c0-0.2,0-0.5,0-0.7l0,0c-0.5,1.2-0.7,2.4-1.2,3.6c-1.4,4.3-3.3,8.3-5.7,13.3c-2.1,4-4.5,8.3-7.6,13c-1.9,3.1-4,5.9-6.4,8.3
	c-2.6,2.8-5.5,4.7-8.5,6.2c-2.4,1.2-4.5,1.7-6.9,1.9c-0.2,0-0.2,0-0.5,0c-0.9,0-1.9-0.2-2.6-0.5c-1.4-0.5-2.8-1.4-4.3-2.4
	c-2.6-1.9-5.2-4.3-8.1-7.6c-2.8-3.6-5.7-7.4-8.3-11.6c-2.8-4.7-5-9.2-6.9-14c-1.7-4.3-2.6-8.1-3.1-11.9c-0.2-2.4-0.5-4.5-0.2-6.4
	c0.2-3.1,1.2-5.9,2.8-8.1c2.4-3.3,5-6.2,7.4-8.5c-0.7,0-1.2,0.2-1.9,0.2s-1.7,0-2.4-0.2c-1.7-0.2-3.3-0.7-5-1.4
	c-2.6-1.2-5-3.1-6.9-5.5c-1.9-2.1-3.8-5-5.2-8.3c-1.2-2.6-2.1-5.5-3.1-9.5c-0.5-2.6-0.9-5.5-1.4-8.1c0-0.5-0.2-0.7-0.2-1.2
	c-0.5-2.4-0.7-5-1.4-7.6c-0.7-3.6-1.7-6.4-2.8-9.2c-1.4-3.3-2.8-6.4-4-9.2c-1.2-2.8-2.8-6.4-4.3-10.2c-1.4-3.8-3.1-8.5-3.8-13.5
	c0,0,0-0.2,0-0.5l-0.2-0.2l-0.5-4.7l0.2-0.2c0,0,0-0.2,0-0.5c0,0,0,0,0-0.2c0-4.3,1.2-8.1,3.3-10.7c0.7-0.9,1.7-1.7,2.6-2.4
	c3.3-2.4,6.9-3.8,10.7-4.3h0.2h0.2l0,0h5l0,0h0.2h0.2c1.9,0,4,0.7,5.7,0.9c3.3,0.9,6.4,2.1,10,4c4.3,2.1,8.5,4.7,13,7.8
	c7.8,5.7,14.7,11.1,20.9,16.8c5.9,5.5,10.7,10.9,14.9,16.8c4,5.5,7.4,11.4,10,17.6c0.9,2.4,1.9,4.5,2.6,6.9c0.2-1.7,0.2-3.1,0.5-4.7
	c0.2-1.4,0.5-3.1,1.2-5c0.5-0.9,0.7-1.9,1.4-2.6c-0.5-0.7-0.7-1.4-0.9-2.6c-0.2-1.2-0.2-2.4,0.2-3.6c0.2-0.9,0.7-1.9,1.4-2.4
	c0-0.2,0-0.2-0.2-0.5c-0.7-2.4-1.7-4.7-2.6-7.1c-1.4-3.3-3.1-6.4-4.7-9c-1.7-2.6-3.6-5.2-5.5-7.4c-0.5,0.2-0.9,0.5-1.4,0.5
	c-1.9,0-3.3-2.1-3.6-4.7c0-2.6,1.4-4.7,3.3-4.7s3.3,2.1,3.6,4.7c0,0.2,0,0.7,0,0.9c2.8,3.6,5.5,7.6,7.8,11.9c2.4,4.3,4.3,9,5.7,14
	v0.2l0,0c0.2,0,0.2,0,0.5,0c0.2,0,0.2,0,0.5,0c0.2,0,0.5,0,0.7,0v-0.2c1.4-5,3.3-10,5.7-14.5c2.1-4,4.5-7.6,7.4-11.1
	c0-0.5-0.2-0.9-0.2-1.4c0-2.6,1.7-4.7,3.6-4.7s3.3,2.1,3.3,4.7c0,2.6-1.7,4.7-3.6,4.7c-0.5,0-0.7,0-1.2-0.2l-0.2,0.2
	c-0.7,0.9-1.4,1.7-2.1,2.6c-2.1,2.8-4.3,6.2-5.9,9.7c-1.7,3.3-3.1,7.1-4.3,11.1c0,0.2,0,0.2-0.2,0.5l0,0c0.2,0.2,0.2,0.5,0.5,0.7
	c0.7,1.7,0.9,3.1,0.7,4.7c-0.2,0.7-0.5,1.9-0.7,2.6l0,0c0.7,1.2,1.4,2.6,1.9,4.3c0.7,2.4,1.2,5,1.4,7.8c0.5-1.2,0.7-2.4,1.2-3.3
	c1.4-4,3.3-8.1,5.5-11.9c1.9-3.6,4.3-7.1,6.9-10.7c3.1-4.3,6.4-8.1,10.4-12.1c3.8-3.8,8.1-7.8,13-11.6c5.9-4.7,10.7-8.3,15.2-11.4
	c5.5-3.6,10.2-5.9,14.9-7.8c4-1.7,7.8-2.4,11.6-2.6c0.5,0,0.9,0,1.4,0c2.6,0,5,0.5,7.4,1.2s4.5,1.9,6.4,3.6c1.9,1.4,3.3,3.3,4.3,5.5
	c0.9,2.4,1.4,4.7,1.4,7.4v0.2v0.2l0,0L608.7,437.9L608.7,437.9z"/>
<g id="UZkkI3_2_">
	<g>
		<path fill="#E0C69B" d="M31.6,467c76.6-0.2,188.9-1.2,265.5,0c12.5,0.2,27.2,6.9,36.4,15.2c36.2,32.7,70.7,67,105.4,101
			c14,13.6,14.2,30.8,1.9,43c-11,11-27.9,10.1-41.6-2.7c-15.7-14.7-30.4-30.1-46.2-44.7c-3-2.7-9.5-1.9-14,2
			c17.6,18.1,34.5,37.1,52.9,54.3c23,21.6,51.8,15.7,67.7-11.7c2.5-4.4,9.2-8.8,14.2-8.8c33.8-0.7,67.5-0.7,101.3-0.2
			c18.6,0.2,33.3,14.7,33.2,31.3c-0.2,17.3-11.7,29.6-31.8,29.9c-65.6,0.7-131.2,0.9-196.8-0.5c-11.7-0.2-24.9-7.4-35-14.7
			c-36.9-26.4-72.2-55-109.1-81.5c-8.3-5.9-19.8-9.7-29.9-9.8c-46-1.4-127.8-0.9-174-0.9C31.6,534.3,31.6,500.8,31.6,467z"/>
	</g>
</g>
<g>
	<g>
		<path fill="#D6B432" d="M173.1,582.1c-73.9,0-133.8,59.9-133.8,133.8s59.9,133.8,133.8,133.8s133.8-59.9,133.8-133.8
			C306.8,642.2,246.9,582.1,173.1,582.1z M172,615.8c1.2,0,2.3,0,3.4,0c3,2,4.2,4.6,4.2,8.3c-0.2,5.1,0,10.1,0,15.2
			c0,4.6-2.5,7.4-5.9,7.4s-5.6-2.7-5.6-7.6c0-5.3,0.2-10.3,0-15.4C167.9,620.2,168.9,617.3,172,615.8z M86.4,668
			c3.7-4.2,5.3-4.4,10.6-2.3c4.9,2,9.7,4.2,14.7,6.2c3.9,1.7,5.3,4.6,4.2,7.8c-1.2,3.2-5.3,4.6-9,3.2c-5.9-2.5-11.5-5.3-17.3-8.1
			c-1.4-0.7-2.3-2.3-3.2-3.4C86.4,670.3,86.4,669.1,86.4,668z M112.6,723.2c-6.2,1.2-12.5,1.9-18.6,2.7c-3.4,0.5-5.9-1.4-7.6-4.2
			c0-0.9,0-1.7,0-2.5c1.7-3.2,4.6-4.4,7.8-4.9c4.4-0.7,8.5-1.7,12.9-2.3c1.4-0.2,2.7-0.2,4.2-0.2c3.4,0,5.9,1.4,6.4,4.9
			C118,720.5,115.8,722.7,112.6,723.2z M121.4,628.5c1.9-0.7,5.8-0.5,6.6,0.7c4.6,5.9,8.5,12.7,12.5,19.1c0.2,0.5,0.2,0.9,0.5,2.5
			c-0.9,0.9-1.9,3.4-3.4,3.9c-1.7,0.5-5.1,0.2-5.9-0.9c-4.6-5.9-8.5-12.2-12.5-18.4C117.5,632.4,118.8,629.3,121.4,628.5z
			 M188.7,808.8c-5.3,0-10.3,0-15.7,0c-6.2,0-12.7-0.2-18.9,0c-3.4,0-4.6-1.4-4.6-4.6c-0.2-9-0.2-9,8.8-9c11,0,22.3,0,33.3,0
			c5.1,0,5.3,0.2,5.6,5.3C197,808.8,197,808.8,188.7,808.8z M188.7,790.5c-5.3,0-10.3,0-15.7,0c-6.2,0-12.7-0.2-18.9,0
			c-3.4,0-4.6-1.4-4.6-4.6c-0.2-9-0.2-9,8.8-9c11,0,22.3,0,33.3,0c5.1,0,5.3,0.2,5.6,5.3C197,790.5,197,790.5,188.7,790.5z
			 M220.3,698.9c-0.5,9-3,17.3-7.1,25.4c-6.6,12.9-13.2,25.5-15.9,39.8c-0.9,5.6-2,5.9-7.8,5.9c-5.3,0-10.8,0-15.9,0
			c-6.2,0-12.2,0-18.4,0c-2.7,0-4.6-1.2-5.3-3.9c-0.9-3.2-1.9-6.2-2.5-9.5c-2.5-11.3-7.8-21.5-12.9-31.5
			c-5.3-10.6-8.8-21.6-7.4-33.6c1.9-16.4,10.6-27.4,26-33c13.4-4.6,27.2-4.6,40.8-0.2C211.4,664.5,221.4,680.2,220.3,698.9z
			 M227,636.7c-3.2,5.3-6.4,10.3-9.8,15.4c-2.3,3.2-5.9,3.9-8.8,2c-2.7-1.9-3.2-5.1-0.9-8.8c3-4.9,5.9-10.1,9.7-14.7
			c1.7-1.9,4.9-2.7,7.4-2.7c1.7,0,2.7,3,4.2,4.4C227.9,634.2,227.6,635.6,227,636.7z M260.1,721.9c-1.9,3.4-4.9,4.6-8.8,4.2
			c-5.8-0.9-11.5-1.7-17.1-2.5c-3.4-0.5-5.8-3.7-5.3-6.6c0.7-3.4,3-5.3,6.6-4.6c6.6,0.9,13.4,2,19.8,3.4c1.9,0.2,3.2,2.7,4.6,4.2
			C260.1,720.3,260.1,721.2,260.1,721.9z M260.1,671.3c-1.9,1.7-3.4,3.4-5.8,4.6c-4.4,2.3-9,4.6-13.6,6.6c-4.4,2-8.5,0.9-9.8-2.7
			c-1.4-3,0.5-6.2,4.9-8.1c4.9-2.3,9.7-4.2,14.7-6.2c5.1-2.3,6.6-1.7,9.7,3.2C260.1,669.6,260.1,670.3,260.1,671.3z"/>
	</g>
</g>
<g id="UZkkI3_1_">
	<g>
		<path fill="#CCA889" d="M643.5,693.1c-76.6-0.2-188.9-1.2-265.5,0c-12.5,0.2-27.2,6.9-36.4,15.2c-35.9,32.5-70.4,66.8-105.2,100.8
			c-14,13.6-14.2,30.8-1.9,43c11,11,27.9,10.1,41.6-2.7c15.7-14.7,30.4-30.1,46.2-44.7c3-2.7,9.5-1.9,14,2
			c-17.6,18.1-34.5,37.1-52.9,54.3c-23,21.6-51.8,15.7-67.7-11.7c-2.5-4.4-9.2-8.8-14.2-8.8c-33.8-0.7-67.5-0.7-101.3-0.2
			C81.6,840.5,66.9,855,67,871.6c0.2,17.3,11.7,29.6,31.8,29.9c65.6,0.7,131.2,0.9,196.8-0.5c11.7-0.2,24.9-7.4,35-14.7
			c36.9-26.4,72.2-55,109.1-81.5c8.3-5.9,19.8-9.7,29.9-9.8c46-1.2,127.8-0.5,174-0.7C643.5,760.6,643.5,726.7,643.5,693.1z"/>
	</g>
</g>
</svg>
