<?xml version="1.0" encoding="utf-8"?>
<!-- Generator: Adobe Illustrator 18.1.1, SVG Export Plug-In . SVG Version: 6.00 Build 0)  -->
<svg version="1.1" id="Layer_2" xmlns="http://www.w3.org/2000/svg" xmlns:xlink="http://www.w3.org/1999/xlink" x="0px" y="0px"
	 viewBox="0 211.7 612 405.8" enable-background="new 0 211.7 612 405.8" xml:space="preserve">
<g>
	<g>
		<path fill="#DADAD3" d="M103,521.9c69.2-1.1,96.1-76.3,96.1-76.3l61.2-150.9l228.8,92.6L428,538.2c0,0-26.9,75.2-96.1,76.3
			L103,521.9z"/>
		<g>
			<path fill="none" stroke="#974E23" stroke-width="2" stroke-miterlimit="10" d="M347.2,396.5c0.6,0.3,1.3,0.5,1.9,0.9
				c1.3,1.9,1.3,3.7,0.4,5.6c-1.3,2.8-2.4,5.8-3.5,8.6c-1.1,2.6-3.1,3.7-5.1,2.8c-1.9-0.9-2.6-2.8-1.4-5.6c1.3-2.9,2.6-5.8,3.7-8.6
				C343.6,397.8,345,396.7,347.2,396.5z M286.6,406.2c3.1-1.4,4.2-1.3,6.5,1.3c2.3,2.3,4.6,4.6,6.8,7c1.9,1.9,1.9,3.9,0.5,5.3
				c-1.4,1.4-4.2,1.4-5.9-0.3c-2.7-2.8-5.3-5.6-7.9-8.6c-0.5-0.6-0.6-1.9-0.9-2.7C285.9,407.3,286.3,406.7,286.6,406.2z
				 M288.5,443.3c-3.7-0.9-7.5-1.9-11.2-2.7c-2.1-0.5-2.9-2.1-3.3-4.2c0.1-0.4,0.4-0.9,0.5-1.4c1.8-1.4,3.4-1.4,5.6-0.9
				c2.7,0.6,5.1,1.1,7.9,1.9c0.9,0.3,1.5,0.4,2.4,0.6c1.9,0.9,3.1,2.1,2.6,4.2C292.3,443.1,290.3,443.7,288.5,443.3z M315.6,391.7
				c1.3,0,3.4,0.9,3.5,1.9c1.1,4.6,1.9,9,2.6,13.6c0.1,0.4-0.1,0.5-0.3,1.5c-0.6,0.4-1.9,1.4-2.8,1.4c-1.1-0.1-2.9-0.9-3.1-1.9
				c-1.1-4.3-1.9-8.8-2.7-13.3C312.2,393.1,313.8,391.7,315.6,391.7z M311.4,509.4c-2.9-1.3-5.9-2.4-8.8-3.7
				c-3.4-1.4-7.1-3.1-10.7-4.3c-1.9-0.9-2.4-1.9-1.5-3.7c1.9-5.1,1.9-5.1,7.1-2.9c6.4,2.6,12.5,5.1,18.9,7.7
				c2.8,1.1,2.9,1.4,1.9,4.2C316.2,511.3,316.2,511.3,311.4,509.4z M315.6,499c-2.9-1.3-5.9-2.4-8.8-3.7c-3.4-1.4-7.1-3.1-10.7-4.3
				c-1.9-0.9-2.4-1.9-1.5-3.7c1.9-5.1,1.9-5.1,7.1-2.9c6.4,2.6,12.5,5.1,18.9,7.7c2.8,1.1,2.9,1.4,1.9,4.2
				C320.3,501,320.3,501,315.6,499z M355,454.6c-2.4,4.8-5.8,9-9.9,12.5c-6.8,5.6-13.3,11.3-18.3,18.9c-1.9,2.9-2.6,2.8-5.9,1.5
				c-3.1-1.3-6-2.6-9-3.7c-3.4-1.4-7-2.8-10.4-4.3c-1.5-0.6-2.4-1.9-2.1-3.4c0.3-1.9,0.4-3.9,0.6-5.9c1.3-7,0.5-13.9,0-20.8
				c-0.5-7.1,0.1-14.3,3.7-20.7c4.7-8.7,12.3-13.2,22.3-12.6c8.6,0.5,16.4,3.7,23.1,9.4C357.8,433.2,359.9,444.3,355,454.6z
				 M373.3,421.1c-2.9,2.3-6,4.3-9,6.4c-2.1,1.3-4.3,0.9-5.3-0.9c-1.1-1.8-0.5-3.7,1.5-5.1c2.8-2.1,5.8-4.3,8.8-6
				c1.3-0.6,3.4-0.4,4.8,0.1c0.9,0.4,0.9,2.4,1.3,3.4C374.3,420,373.8,420.7,373.3,421.1z M372.1,477c-1.9,1.5-3.7,1.5-5.9,0.3
				c-3.1-1.9-6-3.7-9-5.3c-1.9-1.1-2.4-3.4-1.4-5.1c1.3-1.9,2.9-2.3,4.8-1.1c3.4,1.9,7.1,4.2,10.3,6.5c0.9,0.5,1.1,2.3,1.8,3.4
				C372.4,476.1,372.3,476.5,372.1,477z M383.9,448.4c-1.4,0.5-2.8,1.1-4.3,1.3c-2.9,0.3-6.2,0.4-9.4,0.5c-2.9,0.1-4.8-1.5-4.8-3.7
				c0-1.9,1.8-3.4,4.7-3.4c3.3-0.1,6.5,0,9.8,0c3.4,0,4.2,0.6,4.8,4.2C384.2,447.3,384.2,448,383.9,448.4z"/>
		</g>
		<g>
			<path fill="none" stroke="#974E23" stroke-width="2" stroke-miterlimit="10" d="M301.5,375c-23.1,6.8-42.8,23.5-52.9,47.3
				c-17.2,41.7,2.7,89.4,44.3,106.6c41.6,17.2,89.4-2.7,106.6-44.3c12.5-30.3,5.6-64-15.5-86.6"/>
		</g>
		<path fill="none" stroke="#5E8CC9" stroke-miterlimit="10" d="M255.4,380.3"/>
		<path fill="none" stroke="#5E8CC9" stroke-miterlimit="10" d="M255.4,380.3"/>
		<g>
			<g>
				<path fill="none" stroke="#5E8CC9" stroke-miterlimit="10" d="M350.1,397.8c0.6,0.3,1.3,0.5,1.9,0.9c1.1,1.9,1.1,3.7,0.3,5.6
					c-1.4,2.8-2.6,5.6-3.9,8.4c-1.1,2.6-3.3,3.4-5.1,2.6c-1.9-0.9-2.4-2.9-1.1-5.6c1.4-2.9,2.7-5.6,3.9-8.6
					C346.4,399.1,347.9,397.8,350.1,397.8z M289.1,404.8c3.1-1.3,4.2-0.9,6.5,1.5s4.3,4.8,6.5,7.1c1.8,1.9,1.9,3.9,0.3,5.3
					c-1.5,1.4-4.2,1.3-5.9-0.5c-2.7-2.9-5.1-5.9-7.6-8.8c-0.5-0.6-0.5-1.9-0.9-2.8C288.7,406.2,289,405.3,289.1,404.8z M289.5,442
					c-3.7-0.9-7.2-2.1-11-3.3c-2.1-0.5-2.9-2.3-3.1-4.2c0.3-0.4,0.4-0.9,0.6-1.4c1.8-1.4,3.7-1.3,5.6-0.6c2.6,0.6,5.1,1.4,7.7,2.1
					c0.9,0.3,1.5,0.5,2.4,0.9c1.9,0.9,2.9,2.3,2.3,4.3C293.4,442,291.5,442.6,289.5,442z M318.8,391.7c1.3,0.1,3.3,1.1,3.5,2.1
					c0.9,4.6,1.4,9,1.9,13.8c0,0.4-0.1,0.5-0.4,1.5c-0.6,0.3-1.9,1.4-2.8,1.3c-1.1-0.1-2.9-1.1-3.1-1.9c-0.9-4.6-1.8-8.8-2.1-13.5
					C315.6,393,317.1,391.5,318.8,391.7z M309.9,509.1c-2.9-1.4-5.8-2.7-8.6-4.2c-3.4-1.5-7-3.4-10.4-4.8c-1.9-0.9-2.3-1.9-1.4-3.7
					c2.1-5.1,2.1-5.1,7.1-2.7c6.2,2.8,12.4,5.6,18.4,8.6c2.8,1.3,2.9,1.5,1.8,4.3C314.6,511.2,314.6,511.2,309.9,509.1z
					 M314.6,498.8c-2.9-1.4-5.8-2.7-8.6-4.2c-3.5-1.5-7-3.4-10.4-4.8c-1.9-0.9-2.3-1.9-1.4-3.7c2.1-5.1,2.1-5.1,7.1-2.7
					c6.2,2.8,12.4,5.6,18.4,8.6c2.8,1.3,2.9,1.5,1.8,4.3C319.2,501,319.2,501,314.6,498.8z M345,468.4c-7.1,5.3-13.8,10.8-19,18
					c-1.9,2.8-2.7,2.8-5.9,1.3c-2.9-1.4-5.9-2.8-8.8-4.2c-3.5-1.5-6.8-3.1-10.3-4.8c-1.5-0.6-2.3-1.9-1.9-3.4
					c0.4-1.9,0.5-3.9,0.9-5.9c1.5-7,1.1-13.8,0.9-20.8 M375.2,423.4c-3.1,2.1-6.2,4.2-9.4,5.9c-2.1,1.1-4.3,0.5-5.3-1.1
					c-0.9-1.8-0.4-3.7,1.9-5.1c2.9-1.9,5.9-4.2,9-5.6c1.3-0.6,3.4-0.3,4.8,0.4c0.9,0.4,0.9,2.4,1.1,3.4
					C376.2,422.3,375.7,422.9,375.2,423.4z M371.8,479.2c-1.9,1.5-3.9,1.4-5.9,0.1c-2.9-1.9-5.9-3.7-8.6-5.8
					c-1.8-1.1-2.3-3.4-1.1-5.1c1.3-1.9,2.9-2.1,4.8-0.9c3.4,2.1,7,4.6,10.1,7c0.9,0.6,1.1,2.3,1.5,3.4
					C372.1,478.2,372,478.7,371.8,479.2z M384.8,451.1c-1.4,0.4-2.8,1.1-4.3,1.1c-3.1,0.1-6.2,0.1-9.4,0.1c-2.9,0-4.8-1.8-4.8-4.2
					c0-1.9,1.9-3.4,4.8-3.3c3.3,0,6.5,0.3,9.8,0.3c3.4,0,4.2,0.9,4.7,4.2C385.2,450.3,384.9,450.7,384.8,451.1z"/>
			</g>
			<g>
				<path fill="none" stroke="#5E8CC9" stroke-miterlimit="10" d="M359.2,379.3c-40.9-19-89.4-0.9-108.3,39.9
					c-18.9,40.9-0.9,89.4,39.9,108.3c40.9,19,89.4,0.9,108.3-39.9C417.9,447,400.1,398.4,359.2,379.3z"/>
			</g>
			<line fill="none" stroke="#5E8CC9" stroke-miterlimit="10" x1="270.5" y1="338.4" x2="447.8" y2="420.4"/>
			<line fill="none" stroke="#5E8CC9" stroke-miterlimit="10" x1="359.2" y1="379.3" x2="290.8" y2="527.7"/>
			<line fill="none" stroke="#5E8CC9" stroke-miterlimit="10" x1="439.9" y1="399.2" x2="358.3" y2="576.4"/>
			<path fill="none" stroke="#5E8CC9" stroke-miterlimit="10" d="M250.8,419.4"/>
			<line fill="none" stroke="#5E8CC9" stroke-miterlimit="10" x1="379.3" y1="568.6" x2="202.1" y2="486.8"/>
			<line fill="none" stroke="#5E8CC9" stroke-miterlimit="10" x1="209.9" y1="508" x2="291.8" y2="330.8"/>
			<path fill="none" stroke="#5E8CC9" stroke-miterlimit="10" d="M250.8,419.4"/>
			<circle fill="none" stroke="#5E8CC9" stroke-miterlimit="10" cx="329" cy="444.7" r="27.9"/>
		</g>
		<g>
			<polyline fill="#F9D129" points="256.3,255.3 350.7,376.6 371.1,360.5 276.8,239.2 256.3,255.3 			"/>
			<path fill="#F2C0CD" d="M243.1,217.1c5.1-3.9,10.5-5.9,14.4-2.4l0,0l0.9,1.3l7.7,9.8l10.5,13.5l-20.7,16l-10.5-13.4l-7.6-9.8
				l-0.9-1.3l0.1-0.1C234.6,226,238,221.3,243.1,217.1"/>
			<path fill="#D0A6B0" d="M239.8,220.1l14.1,17.9l-4.8,7.9l-11.7-15.1l0.1-0.1C235.2,227,236.8,223.3,239.8,220.1"/>
			<polyline fill="#D6B432" points="263,249.9 357.6,371.2 350.7,376.6 256.3,255.3 263,249.9 			"/>
			<path fill="#E0C69B" d="M356.4,362.8c1.9-1.4,5.3-0.1,7.9,3.1c-2.4-3.1-2.9-7-0.9-8.4c1.9-1.4,5.3-0.1,7.9,3.1l9.8,27.5
				c-1.3,0.4-2.4,1.1-3.5,1.9c-1.1,0.9-1.9,1.9-2.8,2.9l-24.1-16.3l0,0c-2.4-3.1-2.9-7-0.9-8.4c1.9-1.5,5.3-0.1,7.9,3.1
				C355,368,354.6,364.4,356.4,362.8z"/>
			<path fill="#623726" d="M380.9,388l2.7,7.2l0.9,2.6c0,0.4-0.1,0.6-0.3,0.9c-0.3,0.1-0.5,0.1-0.9,0.1l-2.1-1.4l-6.5-4.3
				c0.6-1.1,1.8-2.1,2.8-2.9C378.5,389.2,379.9,388.4,380.9,388z"/>
			<path fill="#ACBEBF" d="M268.1,228.2L268.1,228.2l9,11.8l0,0c-3.4,1.9-7.1,4.3-10.8,7.1c-1.1,0.9-2.3,1.9-3.4,2.7l-8.5-11
				l-0.5-0.6c1.1-0.9,2.1-1.9,3.4-2.7C260.7,232.6,264.6,230.1,268.1,228.2z"/>
			<path fill="#99A6A5" d="M254.5,238.7l8.6,11c-2.4,1.9-4.6,4.2-6.4,6l0,0l-9-11.8l0,0c1.9-1.9,3.9-4.2,6.4-6L254.5,238.7z"/>
		</g>
	</g>
	<rect y="211.7" fill="none" width="612" height="405.8"/>
</g>
</svg>
