<?xml version="1.0" encoding="UTF-8" standalone="no"?>
<svg width="60px" height="56px" viewBox="0 0 60 56" version="1.1" xmlns="http://www.w3.org/2000/svg" xmlns:xlink="http://www.w3.org/1999/xlink" xmlns:sketch="http://www.bohemiancoding.com/sketch/ns">
    <!-- Generator: Sketch 3.4.2 (15857) - http://www.bohemiancoding.com/sketch -->
    <title>Arithmetic</title>
    <desc>Created with Sketch.</desc>
    <defs>
        <path d="M42.2097394,44.7371913 L37.096535,49.8503957 C35.8784152,51.0685155 35.8760869,53.0494844 37.0964753,54.2698728 C38.3143804,55.487778 40.295531,55.4902345 41.5159523,54.2698131 L46.6291568,49.1566087 L51.6986114,54.2260633 C52.9167312,55.444183 54.8977001,55.4465114 56.1180885,54.226123 C57.3359937,53.0082178 57.3384502,51.0270673 56.1180288,49.8066459 L51.0485742,44.7371913 L56.0367758,39.7489897 C57.2548955,38.5308699 57.2572239,36.549901 56.0368355,35.3295126 C54.8189303,34.1116074 52.8377798,34.1091509 51.6173584,35.3295723 L46.6291568,40.3177739 L41.5972054,35.2858225 C40.3790857,34.0677027 38.3981167,34.0653744 37.1777283,35.2857628 C35.9598231,36.503668 35.9573666,38.4848185 37.177788,39.7052399 L42.2097394,44.7371913 Z M16.5625,10.3120535 L16.5625,3.12492814 C16.5625,1.40233283 15.1633898,0 13.4375,0 C11.715122,0 10.3125,1.39907799 10.3125,3.12492814 L10.3125,10.3120535 L3.12508443,10.3120535 C1.40240296,10.3120535 0,11.7111636 0,13.4370535 C0,15.1594315 1.39914796,16.5620535 3.12508443,16.5620535 L10.3125,16.5620535 L10.3125,23.6594466 C10.3125,25.3820419 11.7116102,26.7843747 13.4375,26.7843747 C15.159878,26.7843747 16.5625,25.3852967 16.5625,23.6594466 L16.5625,16.5620535 L23.6606299,16.5620535 C25.3833113,16.5620535 26.7857143,15.1629433 26.7857143,13.4370535 C26.7857143,11.7146755 25.3865663,10.3120535 23.6606299,10.3120535 L16.5625,10.3120535 Z M0,44.7776788 C0,43.0517889 1.40240296,41.6526788 3.12508443,41.6526788 L23.6606299,41.6526788 C25.3865663,41.6526788 26.7857143,43.0553008 26.7857143,44.7776788 C26.7857143,46.5035686 25.3833113,47.9026788 23.6606299,47.9026788 L3.12508443,47.9026788 C1.39914796,47.9026788 0,46.5000568 0,44.7776788 Z M33.2142857,13.4370535 C33.2142857,11.7111636 34.6166887,10.3120535 36.3393701,10.3120535 L56.8749156,10.3120535 C58.600852,10.3120535 60,11.7146755 60,13.4370535 C60,15.1629433 58.597597,16.5620535 56.8749156,16.5620535 L36.3393701,16.5620535 C34.6134337,16.5620535 33.2142857,15.1594315 33.2142857,13.4370535 Z M46.9656277,7.00892857 C48.8641065,7.00892857 50.4031277,5.4699074 50.4031277,3.57142857 C50.4031277,1.67294974 48.8641065,0.133928571 46.9656277,0.133928571 C45.0671488,0.133928571 43.5281277,1.67294974 43.5281277,3.57142857 C43.5281277,5.4699074 45.0671488,7.00892857 46.9656277,7.00892857 Z M46.9656277,26.7410714 C48.8641065,26.7410714 50.4031277,25.2020503 50.4031277,23.3035714 C50.4031277,21.4050926 48.8641065,19.8660714 46.9656277,19.8660714 C45.0671488,19.8660714 43.5281277,21.4050926 43.5281277,23.3035714 C43.5281277,25.2020503 45.0671488,26.7410714 46.9656277,26.7410714 Z" id="path-1"></path>
    </defs>
    <g id="Page-1" stroke="none" stroke-width="1" fill="none" fill-rule="evenodd" sketch:type="MSPage">
        <g id="1a_Explore" sketch:type="MSArtboardGroup" transform="translate(-92.000000, -237.000000)">
            <g id="PageContent" sketch:type="MSLayerGroup" transform="translate(26.000000, 88.000000)">
                <g id="Explorations" transform="translate(0.000000, 96.000000)">
                    <g id="Math-+-MathCards">
                        <g id="MathCards" transform="translate(2.000000, 38.000000)">
                            <g id="InfoCardSmall">
                                <g id="TopPart">
                                    <g id="Arithmetic" transform="translate(64.000000, 15.000000)">
                                        <g>
                                            <use fill="#FFFFFF" fill-rule="evenodd" sketch:type="MSShapeGroup" xlink:href="#path-1"></use>
                                            <use fill="none" xlink:href="#path-1"></use>
                                        </g>
                                    </g>
                                </g>
                            </g>
                        </g>
                    </g>
                </g>
            </g>
        </g>
    </g>
</svg>