<?xml version="1.0" encoding="UTF-8" standalone="no"?>
<svg width="38px" height="24px" viewBox="0 0 38 24" version="1.1" xmlns="http://www.w3.org/2000/svg" xmlns:xlink="http://www.w3.org/1999/xlink" xmlns:sketch="http://www.bohemiancoding.com/sketch/ns">
    <!-- Generator: Sketch 3.4.2 (15857) - http://www.bohemiancoding.com/sketch -->
    <title>Oval 340</title>
    <desc>Created with Sketch.</desc>
    <defs></defs>
    <g id="Scratch2" stroke="none" stroke-width="1" fill="none" fill-rule="evenodd" sketch:type="MSPage">
        <g id="1c_Explore_type_query-Copy" sketch:type="MSArtboardGroup" transform="translate(-844.000000, -249.000000)" fill="#FFFFFF">
            <g id="PageContent" sketch:type="MSLayerGroup" transform="translate(359.000000, 88.000000)">
                <g id="Explorations" transform="translate(416.000000, 96.000000)" sketch:type="MSShapeGroup">
                    <g id="Math-+-MathCards">
                        <g id="MathCards" transform="translate(0.000000, 38.000000)">
                            <g id="InfoCardSmall-Copy">
                                <g id="TopPart">
                                    <path d="M71,31 C72.1045695,31 73,30.1045695 73,29 C73,27.8954305 72.1045695,27 71,27 C69.8954305,27 69,27.8954305 69,29 C69,30.1045695 69.8954305,31 71,31 Z M71,41 C72.1045695,41 73,40.1045695 73,39 C73,37.8954305 72.1045695,37 71,37 C69.8954305,37 69,37.8954305 69,39 C69,40.1045695 69.8954305,41 71,41 Z M71,51 C72.1045695,51 73,50.1045695 73,49 C73,47.8954305 72.1045695,47 71,47 C69.8954305,47 69,47.8954305 69,49 C69,50.1045695 69.8954305,51 71,51 Z M77,29 C77,27.8954305 77.8978404,27 78.991617,27 L105.008383,27 C106.108323,27 107,27.8877296 107,29 C107,30.1045695 106.10216,31 105.008383,31 L78.991617,31 C77.8916773,31 77,30.1122704 77,29 Z M77,39 C77,37.8954305 77.8978404,37 78.991617,37 L105.008383,37 C106.108323,37 107,37.8877296 107,39 C107,40.1045695 106.10216,41 105.008383,41 L78.991617,41 C77.8916773,41 77,40.1122704 77,39 Z M77,49 C77,47.8954305 77.8978404,47 78.991617,47 L105.008383,47 C106.108323,47 107,47.8877296 107,49 C107,50.1045695 106.10216,51 105.008383,51 L78.991617,51 C77.8916773,51 77,50.1122704 77,49 Z" id="Oval-340"></path>
                                </g>
                            </g>
                        </g>
                    </g>
                </g>
            </g>
        </g>
    </g>
</svg>