<?xml version="1.0" encoding="UTF-8" standalone="no"?>
<svg width="40px" height="40px" viewBox="0 0 40 40" version="1.1" xmlns="http://www.w3.org/2000/svg" xmlns:xlink="http://www.w3.org/1999/xlink" xmlns:sketch="http://www.bohemiancoding.com/sketch/ns">
    <!-- Generator: Sketch 3.4.2 (15857) - http://www.bohemiancoding.com/sketch -->
    <title>Rectangle 279</title>
    <desc>Created with Sketch.</desc>
    <defs>
        <path d="M68,18.4993422 C68,17.1189936 69.1115772,16 70.5021791,16 L105.497821,16 C106.879736,16 108,17.1254964 108,18.4993422 L108,42.6673245 C108,44.0476731 106.888423,45.1666667 105.497821,45.1666667 L70.5021791,45.1666667 C69.1202638,45.1666667 68,44.0411703 68,42.6673245 L68,18.4993422 Z M72.1666667,22.6589602 C72.1666667,21.2825045 73.2937001,20.1666667 74.6647166,20.1666667 L101.335283,20.1666667 C102.714918,20.1666667 103.833333,21.2867572 103.833333,22.6589602 L103.833333,38.5077065 C103.833333,39.8841622 102.7063,41 101.335283,41 L74.6647166,41 C73.2850817,41 72.1666667,39.8799095 72.1666667,38.5077065 L72.1666667,22.6589602 Z M83.8333333,45.1666667 L92.1666667,45.1666667 L92.1666667,48.5 L83.8333333,48.5 L83.8333333,45.1666667 Z M68,50.9973914 C68,49.6181202 69.1115772,48.5 70.5021791,48.5 L105.497821,48.5 C106.879736,48.5 108,49.6228258 108,50.9973914 L108,53.5026086 C108,54.8818798 106.888423,56 105.497821,56 L70.5021791,56 C69.1202638,56 68,54.8771742 68,53.5026086 L68,50.9973914 Z M85.2867839,28.6049805 L85.6822917,28.6049805 C85.7913417,28.6049805 85.8702797,28.6253253 85.9191081,28.6660156 C85.9679364,28.7067059 85.9923503,28.773437 85.9923503,28.8662109 C85.9923503,28.9573572 85.9687502,29.0232745 85.9215495,29.0639648 C85.8743487,29.1046552 85.7945969,29.125 85.6822917,29.125 L84.241862,29.125 C84.1295567,29.125 84.0498049,29.1046552 84.0026042,29.0639648 C83.9554034,29.0232745 83.9318034,28.9573572 83.9318034,28.8662109 C83.9318034,28.773437 83.9558103,28.7067059 84.0038249,28.6660156 C84.0518394,28.6253253 84.1311843,28.6049805 84.241862,28.6049805 L84.6959635,28.6049805 L84.6959635,26.5444336 L84.422526,26.6152344 C84.3802081,26.625 84.345215,26.6323242 84.3175456,26.637207 C84.2898762,26.6420899 84.2695313,26.6445312 84.2565104,26.6445312 C84.1897783,26.6445312 84.1381024,26.6233726 84.1014811,26.5810547 C84.0648598,26.5387368 84.0465495,26.478516 84.0465495,26.4003906 C84.0465495,26.3434242 84.0668943,26.2954104 84.1075846,26.2563477 C84.1482749,26.217285 84.2109371,26.1871746 84.2955729,26.1660156 L84.9010417,26 C84.9514976,25.9869791 84.9930011,25.9772136 85.0255534,25.9707031 C85.0581056,25.9641927 85.0849608,25.9609375 85.1061198,25.9609375 C85.1712243,25.9609375 85.2176105,25.978841 85.2452799,26.0146484 C85.2729494,26.0504559 85.2867839,26.1106767 85.2867839,26.1953125 L85.2867839,28.6049805 Z M90.9166667,26.5151367 C90.7441398,26.5151367 90.6078293,26.6095368 90.5077311,26.7983398 C90.407633,26.9871429 90.3575846,27.2475569 90.3575846,27.5795898 C90.3575846,27.9165056 90.4072261,28.1797679 90.5065104,28.3693848 C90.6057948,28.5590016 90.7425122,28.6538086 90.9166667,28.6538086 C91.0908212,28.6538086 91.2279455,28.5590016 91.3280436,28.3693848 C91.4281418,28.1797679 91.4781901,27.9165056 91.4781901,27.5795898 C91.4781901,27.2475569 91.4281418,26.9871429 91.3280436,26.7983398 C91.2279455,26.6095368 91.0908212,26.5151367 90.9166667,26.5151367 L90.9166667,26.5151367 Z M90.9117839,25.9658203 C91.2861347,25.9658203 91.5831695,26.1110825 91.8028971,26.4016113 C92.0226248,26.6921401 92.132487,27.0864233 92.132487,27.5844727 C92.132487,28.0841496 92.0226248,28.4792466 91.8028971,28.7697754 C91.5831695,29.0603042 91.2861347,29.2055664 90.9117839,29.2055664 C90.5406882,29.2055664 90.2465017,29.0603042 90.0292155,28.7697754 C89.8119293,28.4792466 89.7032878,28.0841496 89.7032878,27.5844727 C89.7032878,27.0847957 89.8119293,26.6901056 90.0292155,26.4003906 C90.2465017,26.1106756 90.5406882,25.9658203 90.9117839,25.9658203 L90.9117839,25.9658203 Z M84.9156901,32.7651367 C84.7431632,32.7651367 84.6068527,32.8595368 84.5067546,33.0483398 C84.4066564,33.2371429 84.3566081,33.4975569 84.3566081,33.8295898 C84.3566081,34.1665056 84.4062495,34.4297679 84.5055339,34.6193848 C84.6048182,34.8090016 84.7415356,34.9038086 84.9156901,34.9038086 C85.0898446,34.9038086 85.2269689,34.8090016 85.3270671,34.6193848 C85.4271652,34.4297679 85.4772135,34.1665056 85.4772135,33.8295898 C85.4772135,33.4975569 85.4271652,33.2371429 85.3270671,33.0483398 C85.2269689,32.8595368 85.0898446,32.7651367 84.9156901,32.7651367 L84.9156901,32.7651367 Z M84.9108073,32.2158203 C85.2851581,32.2158203 85.5821929,32.3610825 85.8019206,32.6516113 C86.0216482,32.9421401 86.1315104,33.3364233 86.1315104,33.8344727 C86.1315104,34.3341496 86.0216482,34.7292466 85.8019206,35.0197754 C85.5821929,35.3103042 85.2851581,35.4555664 84.9108073,35.4555664 C84.5397117,35.4555664 84.2455252,35.3103042 84.0282389,35.0197754 C83.8109527,34.7292466 83.7023112,34.3341496 83.7023112,33.8344727 C83.7023112,33.3347957 83.8109527,32.9401056 84.0282389,32.6503906 C84.2455252,32.3606756 84.5397117,32.2158203 84.9108073,32.2158203 L84.9108073,32.2158203 Z M91.2877604,34.8549805 L91.6832682,34.8549805 C91.7923183,34.8549805 91.8712563,34.8753253 91.9200846,34.9160156 C91.968913,34.9567059 91.9933268,35.023437 91.9933268,35.1162109 C91.9933268,35.2073572 91.9697268,35.2732745 91.922526,35.3139648 C91.8753253,35.3546552 91.7955735,35.375 91.6832682,35.375 L90.2428385,35.375 C90.1305333,35.375 90.0507815,35.3546552 90.0035807,35.3139648 C89.95638,35.2732745 89.9327799,35.2073572 89.9327799,35.1162109 C89.9327799,35.023437 89.9567869,34.9567059 90.0048014,34.9160156 C90.052816,34.8753253 90.1321609,34.8549805 90.2428385,34.8549805 L90.6969401,34.8549805 L90.6969401,32.7944336 L90.4235026,32.8652344 C90.3811847,32.875 90.3461915,32.8823242 90.3185221,32.887207 C90.2908527,32.8920899 90.2705079,32.8945312 90.257487,32.8945312 C90.1907549,32.8945312 90.139079,32.8733726 90.1024577,32.8310547 C90.0658364,32.7887368 90.047526,32.728516 90.047526,32.6503906 C90.047526,32.5934242 90.0678709,32.5454104 90.1085612,32.5063477 C90.1492515,32.467285 90.2119136,32.4371746 90.2965495,32.4160156 L90.9020182,32.25 C90.9524742,32.2369791 90.9939777,32.2272136 91.0265299,32.2207031 C91.0590822,32.2141927 91.0859374,32.2109375 91.1070964,32.2109375 C91.1722008,32.2109375 91.2185871,32.228841 91.2462565,32.2646484 C91.2739259,32.3004559 91.2877604,32.3606767 91.2877604,32.4453125 L91.2877604,34.8549805 Z" id="path-1"></path>
    </defs>
    <g id="Page-1" stroke="none" stroke-width="1" fill="none" fill-rule="evenodd" sketch:type="MSPage">
        <g id="1a_Explore" sketch:type="MSArtboardGroup" transform="translate(-884.000000, -238.000000)">
            <g id="PageContent" sketch:type="MSLayerGroup" transform="translate(26.000000, 88.000000)">
                <g id="Explorations" transform="translate(0.000000, 96.000000)">
                    <g id="Math-+-MathCards-Copy-2" transform="translate(790.000000, 0.000000)">
                        <g id="MathCards" transform="translate(0.000000, 38.000000)">
                            <g id="InfoCardSmall">
                                <g id="TopPart">
                                    <g id="Rectangle-279">
                                        <use fill="#FFFFFF" fill-rule="evenodd" sketch:type="MSShapeGroup" xlink:href="#path-1"></use>
                                        <use fill="none" xlink:href="#path-1"></use>
                                    </g>
                                </g>
                            </g>
                        </g>
                    </g>
                </g>
            </g>
        </g>
    </g>
</svg>