<?xml version="1.0" encoding="utf-8"?>
<!-- Generator: Adobe Illustrator 18.1.1, SVG Export Plug-In . SVG Version: 6.00 Build 0)  -->
<svg version="1.1" id="Layer_1" xmlns="http://www.w3.org/2000/svg" xmlns:xlink="http://www.w3.org/1999/xlink" x="0px" y="0px"
	 viewBox="0 280.2 612 185.8" enable-background="new 0 280.2 612 185.8" xml:space="preserve">
<g>
	<g>
		<path fill="#F7F5F5" d="M398,314.6c-17.1,0-30.9,13.9-30.9,30.9s13.9,30.9,30.9,30.9c17.1,0,30.9-13.9,30.9-30.9
			S415.2,314.6,398,314.6z"/>
	</g>
</g>
<g>
	<path fill="#AFD2ED" d="M394.6,339c-0.3-0.1-0.6-0.1-0.9-0.2c-1.8-0.3-3.6-0.7-5.2-1.6c-0.5-0.3-0.9-1-0.8-1.6
		c0.1-0.2,0.2-0.5,0.4-0.5c0.6-0.1,1.2-0.2,1.8,0.2c0.5,0.3,1,0.7,1.6,0.9c0.7,0.3,1.6,0.2,2.3,0.1c0.8,1.2,1.2,2.4,1.2,2.4
		s0.4-0.8,0-1.3c0,0,1.1,0.3,1.5,0c0,0-1.1-0.2-2.2-1.2c0.7-0.2,1.1-0.7,1-1.4c-0.1-1.3-1.1-2.6-2.5-3c-1.3-0.4-2.6-0.2-3.9-0.1
		c-1.7,0.2-3.2,0.6-4.4,1.9c-0.8,1-0.9,2.1-0.7,3.3c0.3,1.2,1.1,2.2,2.1,3c1,0.7,2.2,1.2,3.2,1.9C390.9,340.3,392.6,339.5,394.6,339
		z M392.9,333.1c0.5,0,0.9,0.3,1,0.6c-0.1-0.1-0.2-0.1-0.4-0.1c-0.4,0-0.7,0.3-0.7,0.6c0,0.3,0.3,0.6,0.7,0.6c0,0,0.1,0,0.1,0
		c-0.2,0.2-0.5,0.3-0.7,0.3c-0.6,0-1.1-0.4-1.1-1C391.9,333.6,392.3,333.1,392.9,333.1z"/>
	<path fill="#AFD2ED" d="M401.8,363.9c0.7-0.4,1.4-1,1.5-1.8c0.1-0.7,0.3-1.4-0.3-1.9c-1.2,0.8-2.5,1.4-4,1.6
		c-1.7,0.2-1.9,0.3-1.8,1.7c0,0,0,0,0,0.1c0.8-0.4,1.7-0.8,2.1-1.7c0.5,0.6,0.5,0.8,0,1.3c-0.4,0.3-0.9,0.7-1.3,0.9
		c-1.5,0.9-3,1.7-4.5,2.6c-0.4,0.3-0.8,0.6-1.2,0.9c0,0.1,0.1,0.1,0.1,0.2c0.4-0.2,0.9-0.2,1.4-0.4c1.4-0.5,2.8-1,4.1-1.6
		C399.2,365.1,400.5,364.5,401.8,363.9z"/>
	<path fill="#AFD2ED" d="M384.8,328.9c0.4,0,0.7,0,1.1,0c0.2,0,0.3,0.1,0.4,0.3c0.2,0.4,0.5,0.8,1,1c0.9,0.3,1.8,0.3,2.6-0.2
		c0.2-0.1,0.3-0.1,0.4,0.1c0,0.2,0.2,0.3,0.3,0.4c0.6,0.5,1.3,0.7,2.1,0.8c1,0,2.1,0,3.1-0.2c0.2,0,0.3-0.1,0.3-0.3
		c0-0.7,0-1.5,0-2.2c0-0.6,0-1.2,0-1.8c-0.5,0-0.9,0-1.1-0.3c-0.1-0.2-0.2-0.4-0.3-0.5c-0.2-0.2-0.4-0.4-0.7-0.5
		c-0.6-0.2-1.3-0.1-1.9,0.2c-1,0.3-2.1,0.6-3.1,0.7c-1.1,0.1-2.2,0.2-3.3,0.2c-1.5,0-3,0.1-4.5,0.1c-0.1,0-0.2,0-0.4,0
		c0.4,1,1.1,1.7,3,1.4c0,0,0,0.1,0,0.1C383.9,328.4,384.1,328.9,384.8,328.9z"/>
	<path fill="#AFD2ED" d="M396.3,325.5c0.5,0.2,0.7,0.5,0.6,0.9c0,0.2,0,0.3,0,0.5c0,5.8,0.2,11.5,0.2,11.7c0.8,0,1.5,0,2.3,0
		c0-0.2,0.1-6.3,0.2-12.2c0,0,0-0.1,0-0.2c0-0.3,0.1-0.4,0.3-0.6c0.5-0.3,1.2-0.7,1.4-1.2c0.6-1.2,0.5-2.4-0.4-3.5
		c-0.8-0.9-1.8-1.4-3-1.3c-1,0-1.7,0.5-2.4,1.2C393.9,322.3,394.6,324.7,396.3,325.5z"/>
	<path fill="#AFD2ED" d="M397.7,366.6c-0.3,0.2-0.6,0.3-0.5,0.7c0.2,1.6,0.3,3.3,0.5,4.9c0,0.2,0.4,0.4,0.6,0.4s0.5-0.3,0.5-0.4
		c0.2-1.8,0.3-3.7,0.4-5.5c0-0.2,0-0.3,0-0.5c1.7,0.4,3.1,1.4,4.9,1.4c0,0,0.1-0.1,0.1-0.2c-1-0.7-1.9-1.4-2.9-2.1
		C400.1,365.6,398.9,366.2,397.7,366.6z"/>
	<path fill="#AFD2ED" d="M415.2,326.4c-1.5,0-3,0-4.5-0.1c-1.1,0-2.2-0.1-3.3-0.2s-2.1-0.3-3.1-0.7c-0.6-0.2-1.2-0.3-1.9-0.2
		c-0.3,0-0.5,0.3-0.7,0.5c-0.2,0.2-0.2,0.4-0.3,0.5c-0.2,0.3-0.6,0.3-1.1,0.3c0,0.6,0,1.2,0,1.8c0,0.7,0,1.5,0,2.2
		c0,0.2,0.1,0.3,0.3,0.3c1,0.2,2,0.3,3.1,0.2c0.8,0,1.5-0.3,2.1-0.8c0.1-0.1,0.2-0.3,0.3-0.4c0.1-0.2,0.2-0.2,0.4-0.1
		c0.8,0.5,1.7,0.5,2.6,0.2c0.5-0.2,0.8-0.6,1-1c0.1-0.2,0.2-0.3,0.4-0.3c0.4,0,0.7,0,1.1,0c0.7,0,0.9-0.5,1-0.9c0,0,0-0.1,0-0.2
		c1.9,0.2,2.6-0.4,2.9-1.4C415.4,326.4,415.3,326.4,415.2,326.4z"/>
	<path fill="#AFD2ED" d="M409.7,332.6c-1.6-0.6-3.3-0.7-4.9-0.7c-1.9,0-3.4,1.1-3.9,2.7c-0.3,1,0,1.7,1,1.9c-1,0.9-2,1.1-2,1.1
		c0.4,0.2,1.5,0,1.5,0c-0.3,0.5,0,1.3,0,1.3s0.4-1.1,1.2-2.3c0.1,0,0.2,0,0.3,0c0.9,0,1.7,0,2.5-0.5c0.7-0.5,1.4-1,2.4-0.9
		c0.5,0,0.7,0.2,0.7,0.6c0.1,0.9-0.2,1.4-1.1,1.8c-2.6,1.2-5.3,1.7-8.2,1.8c-1.9,0.1-3.8,0.2-5.6,0.9c-1.7,0.7-3.1,1.7-4.1,3.1
		c-1,1.6-1.5,3.3-0.5,4.9c0.7,1.1,1.7,1.9,2.8,2.4c1.5-0.7,3-1.4,4.4-2.1c-0.8-0.2-1.5-0.7-2-1.4c-0.7-0.9-0.5-2.3,0.5-2.8
		c0.5-0.3,1.1-0.5,1.7-0.6c1.7-0.2,3.5-0.4,5.2-0.6c1.9-0.2,3.7-0.7,5.4-1.4c0.9-0.4,1.8-0.9,2.6-1.6c1.2-0.9,2.2-1.9,2.5-3.4
		C412.7,334.8,411.3,333.1,409.7,332.6z M403.5,335.1c-0.3,0-0.5-0.1-0.7-0.3c0,0,0.1,0,0.1,0c0.4,0,0.7-0.3,0.7-0.6
		c0-0.3-0.3-0.6-0.7-0.6c-0.2,0-0.3,0-0.4,0.1c0.2-0.3,0.5-0.6,1-0.6c0.6,0,1.1,0.4,1.1,1C404.6,334.6,404.1,335.1,403.5,335.1z"/>
	<path fill="#AFD2ED" d="M403.9,352c-0.2-0.1-0.5,0-0.7,0c-0.9,0.3-1.8,0.7-2.7,1c-1,0.3-2.1,0.7-3.2,1c-0.2,0-0.3,0.2-0.3,0.3
		c0,0.9,0,1.9,0,2.9c0.8-0.2,1.4-0.5,2.2-0.7c0-1,0-2,0-3c0,0,0.1,0,0.2-0.1c0.6,0.4,1.2,0.8,1.7,1.3c0.5,0.5,0.5,1.4,0,1.8
		c-0.5,0.4-1.2,0.7-1.8,1c-1.6,0.7-3.5,1-5,2c-1.2,0.8-1.9,1-1.7,2.7c0.1,0.9,1.2,2.5,1.9,2.8c1-0.6,0.9-0.5,1.8-1
		c-0.7-1.1-0.5-1.7,0.5-2.2c1.6-0.7,3.2-1.2,4.9-1.7c1.8-0.6,3.3-1.4,4-3.2C406.2,355.5,405.5,352.9,403.9,352z"/>
	<path fill="#AFD2ED" d="M397.1,344.5c0,1.4,0,2.6,0,4c0.8-0.2,1.5-0.4,2.2-0.7c0.1-1.2,0.1-2.3,0.2-3.6
		C398.6,344.3,397.8,344.4,397.1,344.5z"/>
	<path fill="#AFD2ED" d="M405.9,343.1c-1.5,0.7-3.1,0.8-4.9,0.9c0.2,0.2,0.3,0.2,0.4,0.3c0.9,0.5,1,1.5,0.7,2.2
		c-0.6,1.1-1.7,1.7-2.8,2.3c-0.9,0.4-1.8,0.5-2.7,0.9c-2.1,0.7-3.9,1.6-5.4,3.1c-0.9,0.9-1.4,2.1-1.1,3.3c0.3,1.4,1.4,2.4,2.7,3.2
		c1.1-1,2.5-1.5,4-1.9c-1.2-0.5-1.9-1.1-1.9-2.2s1-1.6,1.9-1.9c1.6-0.6,3.3-1,5-1.6c1.6-0.6,3-1.4,4.4-2.5c1.7-1.5,1.6-4.2,0.6-5.8
		C406.6,343,406.4,343,405.9,343.1z"/>
</g>
<circle fill="#FFE48E" cx="305.3" cy="382.6" r="53.6"/>
<path fill="#EEECEB" d="M396.7,402.2v-19.6H254.9c-10.8,0-19.6,8.7-19.6,19.6h-92.8v19.6h321.2v-19.6H396.7z"/>
<g>
	<path fill="#F7F5F5" d="M356.6,359.2c-17.2,0-31.1,13.9-31.1,31.1s13.9,31.1,31.1,31.1s31.1-13.9,31.1-31.1
		S373.8,359.2,356.6,359.2z"/>
</g>
<g>
	<path fill="#AFD2ED" d="M374.3,394.9c-1.7,1.7-3.6,3.2-5.5,4.7c-0.4,0.4-1.4,0.6-1.8,0.3c-0.4-0.2-0.6-1.1-0.6-1.7
		c0.1-2.4-0.5-3.9-2.1-4.7c-1.7-0.8-4.1-0.3-5.7,1.3c-1.5,1.5-2.1,3.7-1.2,5.3c0.4,0.7,1.4,1.3,2.1,1.8c0.2,0.2,0.6,0.2,0.8,0.2
		c0.9,0.3,2.1,0.1,2.4,1.3c0.3,1.2-0.7,1.9-1.5,2.4c-2.1,1.5-4.3,2.9-6.5,4.3c-0.7,0.5-1.2,0.3-1.7-0.5c-1.5-2.4-3-4.7-4.6-7.1
		c-0.2-0.2-0.4-0.4-0.6-0.6c-1.1-0.9-1.6-0.8-1.8,0.6c-0.4,2.3-1.3,4.2-3.9,4.8c-2.1,0.5-4.3-0.9-5.4-3.5c-0.9-2.1-0.5-4.4,1.2-5.3
		c1.1-0.6,2.4-0.5,3.6-0.8c0.6-0.1,1.3-0.2,1.5-0.6c0.2-0.5,0-1.3-0.3-1.7c-2-2.2-4-4.4-6.1-6.6c-0.6-0.6-0.7-1-0.1-1.6
		c2.1-1.9,4.1-3.9,6.2-5.8c0.5-0.4,1.6-0.7,2-0.4c0.6,0.3,0.9,1.3,0.9,2c0,1.8,0,3.5,1.9,4.3c1.9,0.9,3.7,0.2,5.1-1.1
		c0.8-0.7,1.6-1.7,2-2.7c0.8-2-0.4-4-2.5-4.4c-0.7-0.1-1.3-0.2-2-0.4c-1.4-0.5-1.8-1.9-0.6-2.8c2.4-1.9,5-3.6,7.5-5.4
		c0.6-0.4,1-0.1,1.3,0.5c1.4,2.2,2.9,4.3,4.4,6.5c0,0.1,0.1,0.2,0.2,0.2c0.7,0.5,1.5,1,2.2,1.5c0.3-0.7,0.8-1.4,0.9-2.2
		c0.6-2.3,1.9-3.6,3.9-3.6c2.2-0.1,4.6,1.9,5.2,4.3c0.5,1.9-0.3,4.2-2.1,4.9c-1,0.4-2.2,0.4-3.3,0.6c-0.5,0.1-1.2,0.2-1.3,0.4
		c-0.1,0.5,0,1.1,0.4,1.5c1.6,1.9,3.3,3.7,4.9,5.6C376.5,393,376.7,392.5,374.3,394.9z"/>
</g>
<path fill="#84A8A6" d="M575.5,455.6c0.2,0.1,0.2,0.2,0,0.2h-397c-0.2,0-0.2-0.1,0-0.1l47.8-16.2c0.2-0.1,0.5,0,0.7,0l14.8,7.3
	c0.2,0.1,0.5,0.1,0.7,0.1l62.5-18.7c0.2-0.1,0.5-0.1,0.7,0l39,8c0.2,0,0.5,0.1,0.7,0l54.4-6.6c0.2,0,0.5,0,0.7,0l40.6,6.2
	c0.2,0,0.5,0,0.7,0l58.8-17.4c0.2-0.1,0.5,0,0.7,0.1L575.5,455.6z"/>
<path fill="#043F3A" d="M135.7,350.9c-3.3-1-5.4-3.4-5.5-6.9c-0.2-3.5-0.1-6.7-0.1-10.7c0.9,0.1,1.7,0.4,2.1,1.1
	c0.7,1.1,1,2.5,1.6,3.7c0.3-0.4,0.3-1,0.5-1.5c0,0,0-0.1,0.1-0.1h0.1c0.1,0,0.3,0,0.4,0c0.3,0.1,0.4,0.5,0.3,0.7c0,0,0,0.1,0,0.2
	s0,0.2,0,0.3v0.1v0.1l0,0v0.1c0,0,0,0.1,0.1,0.1c0,0.1,0,0.2,0.1,0.3c0.1,0.1,0.2,0.2,0.3,0.3c1.2-1,0.4-3.4-0.5-4.6
	c-1.9-2.4-2.8-2.8-6.8-3.9c-1.3-0.5-2.5-0.9-2.8-0.9c-2.4-0.4-4.8-0.9-7.2-1.5c-0.5-0.1-0.8-0.8-1.2-1.2c0.5-0.4,0.9-1,1.6-1.1
	c2.1-0.5,0.6-2.4,1.1-3.7c0-0.1,0.1-0.2,0.1-0.3v-0.1v-0.1v-0.1v-0.1c0-0.1-0.1-0.1-0.1-0.2s-0.1-0.2-0.1-0.2
	c-0.1-0.1-0.2-0.3-0.3-0.4c-0.1-0.2-0.2-0.3-0.3-0.5c-0.1-0.1-0.1-0.1-0.1-0.2l0,0c0-0.1,0-0.1-0.1-0.2c0.1-0.1,0.2-0.2,0.3-0.3
	c0.1-0.1,0.2-0.2,0.1-0.3c-0.1-0.1-0.2-0.1-0.3-0.2s-0.2-0.2-0.2-0.3c-0.1-0.1-0.2-0.2-0.3-0.3c-0.1-0.1-0.1-0.1-0.2-0.1
	c-0.1-0.1-0.2-0.1-0.2-0.2c-0.1-0.1-0.2-0.1-0.3-0.2c-0.1,0-0.2-0.1-0.3-0.2c-0.1-0.1-0.2-0.1-0.3-0.2c-0.1-0.1-0.2-0.1-0.3-0.1
	c-0.1,0-0.2-0.1-0.3-0.1c-0.2-0.1-0.4-0.1-0.6-0.2c-0.1,0-0.2,0-0.3-0.1c0,0-0.1,0-0.2,0c0,0,0,0-0.1,0.1c-0.2,0-0.4-0.1-0.6-0.1
	c0,0-0.1,0-0.1-0.1v0.1c-1.2,0.1-2.8,0.8-3.1,1.7c-0.7,2-1,3.9-0.1,6c0.1,0.2,0,0.9-0.1,0.9c-1.8,0.3-2.7,2.8-3.3,4.3
	c-0.2,0.4-0.3,0.8-0.3,1.2c-1,5.2-1.7,10,0,15.1c0.5,1.6,1.6,2.5,3.1,2.9c3.8,1.1,7.2,0.1,9.9-2.7c1.2-1.3,2.4-2.9,3.8-4.6
	c0.8,2,2,3.7,2.4,5.7c0.3,1.6-0.2,3.2-0.4,5c3,1,6,1.9,9.3,1.7c0.6-0.1,1.6-0.5,1.7-0.9C137.4,351.5,136.5,351.1,135.7,350.9z
	 M118.2,335.3c-0.2-0.1-0.3-0.1-0.5-0.2c0.2-0.8,0.3-1.7,0.5-2.6c0.8,0,1.6,0,2.8,0.1C120,333.6,119.2,334.5,118.2,335.3z"/>
<polygon fill="#043F3A" points="235.8,466 204.1,427.2 197.9,425.3 170.8,388.7 157.8,383.1 136.3,361.4 131.9,357.4 130.3,353 
	111.4,344.2 104.7,346.2 91.6,361.4 75.8,381.6 66.2,407.4 49.7,432.8 35.6,466 "/>
<rect y="280.2" fill="none" width="612" height="185.7"/>
<path fill="#AFD2ED" d="M351.6,377.2c-1.9,0.6-3.1,2.8-2.4,4.8c0.6,1.9,2.8,3.1,4.8,2.4c1.9-0.6,3.1-2.8,2.5-4.7
	C355.9,377.7,353.6,376.5,351.6,377.2z"/>
<path fill="#F3F4F5" d="M421.9,340.8c-22.3,0-40.3,18-40.3,40.3c0,22.2,18,40.2,40.2,40.2s40.2-18,40.2-40.2
	C462.1,358.8,444.1,340.8,421.9,340.8z"/>
<g>
	<path fill="#F3F4F5" d="M305.4,357c-14.2,0-25.6,11.5-25.6,25.6s11.5,25.6,25.6,25.6s25.6-11.5,25.6-25.6
		C330.9,368.5,319.5,357,305.4,357z"/>
</g>
<path fill="#F42753" d="M396.8,356.8c-0.1,0-0.3,0-0.4,0H396.8z"/>
<path fill="#F42753" d="M417.4,409.1c-0.4,0.3-0.8,0.5-1.3,0.7C416.6,409.6,417,409.3,417.4,409.1z"/>
<path fill="#FFFFFF" d="M366.4,342.1c-13.8,0-25.1,11.2-25.1,25.1c0,13.8,11.2,25.1,25.1,25.1s25.1-11.2,25.1-25.1
	S380.3,342.1,366.4,342.1z"/>
<path fill="#AFD2ED" d="M381.7,376.5h-3.8l-4.5-4.9l-4.5,4.9h-3.8l6.4-7l-6.4-7h3.8l4.5,4.9l4.5-4.9h3.8l-6.4,7L381.7,376.5z
	 M381.3,355.4h-16.7l-6.8,23.2c-0.1,0.5-0.6,0.8-1.1,0.8c0,0,0,0-0.1,0c-0.5,0-0.9-0.3-1.1-0.7l-2.7-7h-3.1c-0.6,0-1.2-0.5-1.2-1.2
	s0.5-1.2,1.2-1.2h3.9c0.5,0,0.9,0.3,1.1,0.7l1.7,4.5l6-20.7c0.1-0.5,0.6-0.8,1.1-0.8h17.6c0.6,0,1.2,0.5,1.2,1.2
	S381.9,355.4,381.3,355.4z"/>
<g>
	<path fill="#AFD2ED" d="M412.6,406.6h-11.3v-21.2h11.3V406.6z M412.6,384.1h-11.3c-0.9,0-1.6-0.7-1.6-1.6s0.7-1.6,1.6-1.6h11.3
		c0.9,0,1.6,0.7,1.6,1.6S413.5,384.1,412.6,384.1z M412.6,379.5h-11.3v-13.3h13.9l2,5.5C414.4,373.2,412.6,376.1,412.6,379.5z
		 M421.4,370.7c-1,0-1.9,0.2-2.8,0.5l-1.8-5h9.2l-1.8,5C423.4,370.8,422.4,370.7,421.4,370.7z M425.6,371.7l2-5.5h13.9v13.3h-11.3
		C430.2,376.1,428.4,373.2,425.6,371.7z M441.5,406.6h-11.3v-21.2h11.3V406.6z M441.5,384.1h-11.3c-0.9,0-1.6-0.7-1.6-1.6
		s0.7-1.6,1.6-1.6h11.3c0.9,0,1.6,0.7,1.6,1.6S442.4,384.1,441.5,384.1z M443.5,364.7h-44.1c0-1.3-0.9-2.3-1.9-2.3v-4.1h48v4.1
		C444.3,362.3,443.5,363.4,443.5,364.7z"/>
</g>
<g>
	<g>
		<path fill="#FFFFFF" d="M461.4,361.1c-16.8,0-30.4,13.6-30.4,30.4s13.6,30.4,30.4,30.4s30.4-13.6,30.4-30.4
			S478.1,361.1,461.4,361.1z"/>
	</g>
</g>
<path fill="#AFD2ED" d="M483.3,389.7c-0.2,0-0.5,0-0.7,0.1l-8.4-14.5c0.5-0.5,0.8-1.1,0.8-1.9c0-1.4-1.1-2.6-2.6-2.6
	c-1.2,0-2.2,0.8-2.5,1.9H453c-0.3-1.1-1.3-1.9-2.5-1.9c-1.4,0-2.6,1.1-2.6,2.6c0,0.7,0.3,1.4,0.7,1.8l-8.4,14.6
	c-0.2,0-0.4-0.1-0.7-0.1c-1.4,0-2.6,1.1-2.6,2.6c0,1.4,1.1,2.6,2.6,2.6c0.2,0,0.5,0,0.7-0.1l8.4,14.6c-0.5,0.5-0.7,1.1-0.7,1.8
	c0,1.4,1.1,2.6,2.6,2.6c1.2,0,2.2-0.8,2.5-1.9h16.9c0.3,1.1,1.3,1.9,2.5,1.9c1.4,0,2.6-1.1,2.6-2.6c0-0.7-0.3-1.4-0.7-1.8l8.4-14.6
	c0.2,0,0.4,0.1,0.7,0.1c1.4,0,2.6-1.1,2.5-2.6C485.8,390.8,484.7,389.7,483.3,389.7z M469.8,374.1l-6.5,3.8
	c-0.5-0.5-1.1-0.8-1.8-0.8s-1.4,0.3-1.8,0.7l-6.5-3.7H469.8z M463.9,391.7l6.6-3.9c0.3,0.3,0.7,0.6,1.1,0.7v9.8l-8.5,4.9
	c-0.3-0.3-0.6-0.5-1-0.6v-7.7c1.1-0.3,1.8-1.3,1.8-2.5C464,392.1,463.9,391.9,463.9,391.7z M469.9,386.5l-6.6,3.9
	c-0.5-0.5-1.1-0.7-1.8-0.7c-0.7,0-1.4,0.3-1.8,0.7l-6.6-3.8c0-0.2,0.1-0.4,0.1-0.7c0-0.2,0-0.5-0.1-0.7l6.6-3.8
	c0.5,0.5,1.1,0.7,1.8,0.7c0.7,0,1.4-0.3,1.8-0.8l6.6,3.8c0,0.2-0.1,0.5-0.1,0.7C469.8,386.1,469.8,386.3,469.9,386.5z M449.8,408.7
	l-8.4-14.5l8.4,4.8V408.7z M450.5,383.4c-1.4,0-2.6,1.1-2.6,2.6c0,1.2,0.8,2.2,1.9,2.5v9l-7.7-4.5c0-0.2,0.1-0.4,0.1-0.7
	c0-0.7-0.3-1.4-0.7-1.8l8.4-14.6c0.2,0,0.4,0.1,0.7,0.1c0.7,0,1.4-0.3,1.8-0.8l6.5,3.8c0,0.2-0.1,0.4-0.1,0.7c0,0.2,0,0.5,0.1,0.7
	l-6.6,3.8C451.8,383.6,451.2,383.4,450.5,383.4z M451.2,388.4c0.5-0.1,0.8-0.4,1.1-0.7l6.5,3.8c0,0.2-0.1,0.5-0.1,0.7
	c0,1.2,0.9,2.2,2,2.5v7.7c-0.5,0.1-0.8,0.3-1.1,0.6l-8.4-4.9V388.4z M471.7,408.7c-0.9,0.2-1.6,0.9-1.8,1.8h-16.9
	c-0.2-0.9-0.9-1.6-1.8-1.8v-8.9l7.7,4.5c-0.1,0.2-0.1,0.5-0.1,0.7c0,1.4,1.1,2.6,2.6,2.6c1.4,0,2.6-1.1,2.6-2.6c0-0.2,0-0.5-0.1-0.7
	l7.8-4.5V408.7z M473,408.7V399l8.4-4.8L473,408.7z M480.7,392.3c0,0.2,0,0.5,0.1,0.7l-7.7,4.4v-9c1.1-0.3,1.9-1.3,1.9-2.5
	c0-1.4-1.1-2.6-2.6-2.6c-0.7,0-1.4,0.3-1.8,0.7l-6.7-3.8c0-0.2,0.1-0.4,0.1-0.6s0-0.4-0.1-0.6l6.7-3.8c0.5,0.5,1.1,0.8,1.8,0.8
	c0.2,0,0.4,0,0.5-0.1l8.4,14.6C481,391,480.7,391.6,480.7,392.3z"/>
<path fill="#AFD2ED" d="M322.3,367C322.3,367.1,322.3,367.1,322.3,367c-0.4,1.1-0.7,2-1.1,2.9c-0.7,1.5-1.5,3-2.5,4.4
	c-0.6,0.8-1.2,1.5-1.9,2.1c-0.3,0.2-0.5,0.4-0.9,0.4c-1.1,0-2.1,0-3.2,0c-0.1,0-0.2,0-0.3,0c-0.5,0-1.1-0.1-1.6-0.1
	c1.4,0.9,2.9,1.1,4.5,1.4c-3.1,2.4-6.3,4.2-10.2,4.1c2-3.6,4.6-6.7,7.4-9.6c-4.6,2.9-8,7-10.8,11.8c0.7,0,1.3,0,1.9,0
	c0.6,0,1.2,0,1.8,0c0.7,0,1.1,0.3,1.3,1c0.1,0.6,0,1.1-0.6,1.5c0.3,0.1,0.6,0.1,0.9,0.1c1,0.1,1.8,0.5,2.4,1.2c0.7,0.8,1,1.8,1,2.8
	c0,1.7,0,3.4-0.1,5.1c0,1.2-0.6,2.2-1.5,2.9c-0.4,0.3-0.9,0.4-1.4,0.7c-4.5,0-9,0-13.5,0c0,0-0.1-0.1-0.1-0.1
	c-1-0.2-1.7-0.7-2.3-1.6c-0.3-0.4-0.4-1-0.6-1.4c0-2.2,0-4.4,0-6.5c0.1-0.3,0.2-0.5,0.3-0.8c0.5-1.1,1.3-1.9,2.4-2.2
	c0.5-0.1,1-0.2,1.5-0.3c-0.1-0.1-0.2-0.2-0.3-0.4c-0.4-0.5-0.3-1.5,0.3-1.8c0.3-0.1,0.6-0.2,0.9-0.2c1.1,0,2.3,0,3.4,0
	c0.2,0,0.2,0,0.3-0.2c0.6-1,1.2-2,1.7-3c0.1-0.1,0.1-0.2,0.1-0.3c0-0.6,0.1-1.3,0.1-1.9c0.1-1.2,0.4-2.2,0.9-3.3
	c0.4-1,0.9-1.9,1.6-2.7c0.6-0.7,1.2-1.4,1.9-1.9c1-0.9,2.2-1.6,3.4-2.1c1-0.4,2-0.8,3-1.1c1.1-0.3,2.2-0.5,3.3-0.7
	c1-0.2,1.9-0.3,2.9-0.4c0.7-0.1,1.3-0.1,2-0.1c0.1,0,0.1,0,0.2-0.1c0.4,0,0.9,0,1.3,0C322.4,366.8,322.3,366.9,322.3,367z"/>
</svg>
