<svg xmlns="http://www.w3.org/2000/svg" viewBox="0 280.2 612 185.8" xmlns:v="https://vecta.io/nano"><path fill="#f7f5f5" d="M398 314.6c-17.1 0-30.9 13.9-30.9 30.9s13.9 30.9 30.9 30.9c17.1 0 30.9-13.9 30.9-30.9s-13.7-30.9-30.9-30.9z"/><path d="M394.6 339c-.3-.1-.6-.1-.9-.2-1.8-.3-3.6-.7-5.2-1.6-.5-.3-.9-1-.8-1.6.1-.2.2-.5.4-.5.6-.1 1.2-.2 1.8.2.5.3 1 .7 1.6.9.7.3 1.6.2 2.3.1.8 1.2 1.2 2.4 1.2 2.4s.4-.8 0-1.3c0 0 1.1.3 1.5 0 0 0-1.1-.2-2.2-1.2.7-.2 1.1-.7 1-1.4-.1-1.3-1.1-2.6-2.5-3-1.3-.4-2.6-.2-3.9-.1-1.7.2-3.2.6-4.4 1.9-.8 1-.9 2.1-.7 3.3.3 1.2 1.1 2.2 2.1 3 1 .7 2.2 1.2 3.2 1.9 1.8-1.5 3.5-2.3 5.5-2.8zm-1.7-5.9c.5 0 .9.3 1 .6-.1-.1-.2-.1-.4-.1-.4 0-.7.3-.7.6s.3.6.7.6h.1a1.08 1.08 0 0 1-.7.3c-.6 0-1.1-.4-1.1-1 .1-.5.5-1 1.1-1zm8.9 30.8c.7-.4 1.4-1 1.5-1.8.1-.7.3-1.4-.3-1.9-1.2.8-2.5 1.4-4 1.6-1.7.2-1.9.3-1.8 1.7v.1c.8-.4 1.7-.8 2.1-1.7.5.6.5.8 0 1.3-.4.3-.9.7-1.3.9l-4.5 2.6-1.2.9c0 .1.1.1.1.2.4-.2.9-.2 1.4-.4l4.1-1.6 3.9-1.9zm-17-35h1.1c.2 0 .3.1.4.3.2.4.5.8 1 1 .9.3 1.8.3 2.6-.2.2-.1.3-.1.4.1 0 .2.2.3.3.4.6.5 1.3.7 2.1.8 1 0 2.1 0 3.1-.2.2 0 .3-.1.3-.3v-2.2-1.8c-.5 0-.9 0-1.1-.3-.1-.2-.2-.4-.3-.5-.2-.2-.4-.4-.7-.5-.6-.2-1.3-.1-1.9.2-1 .3-2.1.6-3.1.7l-3.3.2-4.5.1h-.4c.4 1 1.1 1.7 3 1.4v.1c.1.2.3.7 1 .7zm11.5-3.4c.5.2.7.5.6.9v.5c0 5.8.2 11.5.2 11.7h2.3c0-.2.1-6.3.2-12.2v-.2c0-.3.1-.4.3-.6.5-.3 1.2-.7 1.4-1.2.6-1.2.5-2.4-.4-3.5-.8-.9-1.8-1.4-3-1.3-1 0-1.7.5-2.4 1.2-1.6 1.5-.9 3.9.8 4.7zm1.4 41.1c-.3.2-.6.3-.5.7l.5 4.9c0 .2.4.4.6.4s.5-.3.5-.4l.4-5.5v-.5c1.7.4 3.1 1.4 4.9 1.4 0 0 .1-.1.1-.2l-2.9-2.1c-1.2.3-2.4.9-3.6 1.3zm17.5-40.2c-1.5 0-3 0-4.5-.1-1.1 0-2.2-.1-3.3-.2s-2.1-.3-3.1-.7c-.6-.2-1.2-.3-1.9-.2-.3 0-.5.3-.7.5s-.2.4-.3.5c-.2.3-.6.3-1.1.3v1.8 2.2c0 .2.1.3.3.3 1 .2 2 .3 3.1.2.8 0 1.5-.3 2.1-.8.1-.1.2-.3.3-.4.1-.2.2-.2.4-.1.8.5 1.7.5 2.6.2.5-.2.8-.6 1-1 .1-.2.2-.3.4-.3h1.1c.7 0 .9-.5 1-.9v-.2c1.9.2 2.6-.4 2.9-1.4-.1.3-.2.3-.3.3zm-5.5 6.2c-1.6-.6-3.3-.7-4.9-.7-1.9 0-3.4 1.1-3.9 2.7-.3 1 0 1.7 1 1.9-1 .9-2 1.1-2 1.1.4.2 1.5 0 1.5 0-.3.5 0 1.3 0 1.3s.4-1.1 1.2-2.3h.3c.9 0 1.7 0 2.5-.5.7-.5 1.4-1 2.4-.9.5 0 .7.2.7.6.1.9-.2 1.4-1.1 1.8-2.6 1.2-5.3 1.7-8.2 1.8-1.9.1-3.8.2-5.6.9-1.7.7-3.1 1.7-4.1 3.1-1 1.6-1.5 3.3-.5 4.9.7 1.1 1.7 1.9 2.8 2.4l4.4-2.1c-.8-.2-1.5-.7-2-1.4-.7-.9-.5-2.3.5-2.8.5-.3 1.1-.5 1.7-.6l5.2-.6c1.9-.2 3.7-.7 5.4-1.4.9-.4 1.8-.9 2.6-1.6 1.2-.9 2.2-1.9 2.5-3.4.6-2-.8-3.7-2.4-4.2zm-6.2 2.5c-.3 0-.5-.1-.7-.3h.1c.4 0 .7-.3.7-.6s-.3-.6-.7-.6c-.2 0-.3 0-.4.1.2-.3.5-.6 1-.6.6 0 1.1.4 1.1 1 0 .5-.5 1-1.1 1zm.4 16.9c-.2-.1-.5 0-.7 0l-2.7 1-3.2 1c-.2 0-.3.2-.3.3v2.9c.8-.2 1.4-.5 2.2-.7v-3s.1 0 .2-.1c.6.4 1.2.8 1.7 1.3s.5 1.4 0 1.8-1.2.7-1.8 1c-1.6.7-3.5 1-5 2-1.2.8-1.9 1-1.7 2.7.1.9 1.2 2.5 1.9 2.8l1.8-1c-.7-1.1-.5-1.7.5-2.2 1.6-.7 3.2-1.2 4.9-1.7 1.8-.6 3.3-1.4 4-3.2.5-1.4-.2-4-1.8-4.9zm-6.8-7.5v4c.8-.2 1.5-.4 2.2-.7l.2-3.6-2.4.3zm8.8-1.4c-1.5.7-3.1.8-4.9.9.2.2.3.2.4.3.9.5 1 1.5.7 2.2-.6 1.1-1.7 1.7-2.8 2.3-.9.4-1.8.5-2.7.9-2.1.7-3.9 1.6-5.4 3.1-.9.9-1.4 2.1-1.1 3.3.3 1.4 1.4 2.4 2.7 3.2 1.1-1 2.5-1.5 4-1.9-1.2-.5-1.9-1.1-1.9-2.2s1-1.6 1.9-1.9l5-1.6c1.6-.6 3-1.4 4.4-2.5 1.7-1.5 1.6-4.2.6-5.8-.2-.4-.4-.4-.9-.3z" fill="#afd2ed"/><circle fill="#ffe48e" cx="305.3" cy="382.6" r="53.6"/><path fill="#eeeceb" d="M396.7 402.2v-19.6H254.9a19.57 19.57 0 0 0-19.6 19.6h-92.8v19.6h321.2v-19.6h-67z"/><path fill="#f7f5f5" d="M356.6 359.2c-17.2 0-31.1 13.9-31.1 31.1s13.9 31.1 31.1 31.1 31.1-13.9 31.1-31.1-13.9-31.1-31.1-31.1z"/><path fill="#afd2ed" d="M374.3 394.9c-1.7 1.7-3.6 3.2-5.5 4.7-.4.4-1.4.6-1.8.3-.4-.2-.6-1.1-.6-1.7.1-2.4-.5-3.9-2.1-4.7-1.7-.8-4.1-.3-5.7 1.3-1.5 1.5-2.1 3.7-1.2 5.3.4.7 1.4 1.3 2.1 1.8.2.2.6.2.8.2.9.3 2.1.1 2.4 1.3s-.7 1.9-1.5 2.4l-6.5 4.3c-.7.5-1.2.3-1.7-.5l-4.6-7.1-.6-.6c-1.1-.9-1.6-.8-1.8.6-.4 2.3-1.3 4.2-3.9 4.8-2.1.5-4.3-.9-5.4-3.5-.9-2.1-.5-4.4 1.2-5.3 1.1-.6 2.4-.5 3.6-.8.6-.1 1.3-.2 1.5-.6.2-.5 0-1.3-.3-1.7l-6.1-6.6c-.6-.6-.7-1-.1-1.6l6.2-5.8c.5-.4 1.6-.7 2-.4.6.3.9 1.3.9 2 0 1.8 0 3.5 1.9 4.3 1.9.9 3.7.2 5.1-1.1.8-.7 1.6-1.7 2-2.7.8-2-.4-4-2.5-4.4-.7-.1-1.3-.2-2-.4-1.4-.5-1.8-1.9-.6-2.8l7.5-5.4c.6-.4 1-.1 1.3.5l4.4 6.5c0 .1.1.2.2.2l2.2 1.5c.3-.7.8-1.4.9-2.2.6-2.3 1.9-3.6 3.9-3.6 2.2-.1 4.6 1.9 5.2 4.3.5 1.9-.3 4.2-2.1 4.9-1 .4-2.2.4-3.3.6-.5.1-1.2.2-1.3.4-.1.5 0 1.1.4 1.5l4.9 5.6c2.8 2.3 3 1.8.6 4.2z"/><path fill="#84a8a6" d="M575.5 455.6c.2.1.2.2 0 .2h-397c-.2 0-.2-.1 0-.1l47.8-16.2c.2-.1.5 0 .7 0l14.8 7.3c.2.1.5.1.7.1l62.5-18.7c.2-.1.5-.1.7 0l39 8c.2 0 .5.1.7 0l54.4-6.6h.7l40.6 6.2h.7l58.8-17.4c.2-.1.5 0 .7.1l74.2 37.1z"/><g fill="#043f3a"><path d="M135.7 350.9c-3.3-1-5.4-3.4-5.5-6.9-.2-3.5-.1-6.7-.1-10.7.9.1 1.7.4 2.1 1.1.7 1.1 1 2.5 1.6 3.7.3-.4.3-1 .5-1.5 0 0 0-.1.1-.1h.1.4c.3.1.4.5.3.7v.2.3.1.1h0v.1s0 .1.1.1c0 .1 0 .2.1.3l.3.3c1.2-1 .4-3.4-.5-4.6-1.9-2.4-2.8-2.8-6.8-3.9-1.3-.5-2.5-.9-2.8-.9a92.12 92.12 0 0 1-7.2-1.5c-.5-.1-.8-.8-1.2-1.2.5-.4.9-1 1.6-1.1 2.1-.5.6-2.4 1.1-3.7 0-.1.1-.2.1-.3v-.1-.1-.1-.1c0-.1-.1-.1-.1-.2s-.1-.2-.1-.2c-.1-.1-.2-.3-.3-.4-.1-.2-.2-.3-.3-.5-.1-.1-.1-.1-.1-.2h0c0-.1 0-.1-.1-.2l.3-.3c.1-.1.2-.2.1-.3s-.2-.1-.3-.2-.2-.2-.2-.3l-.3-.3c-.1-.1-.1-.1-.2-.1-.1-.1-.2-.1-.2-.2-.1-.1-.2-.1-.3-.2-.1 0-.2-.1-.3-.2s-.2-.1-.3-.2-.2-.1-.3-.1-.2-.1-.3-.1c-.2-.1-.4-.1-.6-.2-.1 0-.2 0-.3-.1h-.2l-.1.1c-.2 0-.4-.1-.6-.1 0 0-.1 0-.1-.1v.1c-1.2.1-2.8.8-3.1 1.7-.7 2-1 3.9-.1 6 .1.2 0 .9-.1.9-1.8.3-2.7 2.8-3.3 4.3-.2.4-.3.8-.3 1.2-1 5.2-1.7 10 0 15.1.5 1.6 1.6 2.5 3.1 2.9 3.8 1.1 7.2.1 9.9-2.7 1.2-1.3 2.4-2.9 3.8-4.6.8 2 2 3.7 2.4 5.7.3 1.6-.2 3.2-.4 5 3 1 6 1.9 9.3 1.7.6-.1 1.6-.5 1.7-.9-.3-1.4-1.2-1.8-2-2zm-17.5-15.6c-.2-.1-.3-.1-.5-.2.2-.8.3-1.7.5-2.6.8 0 1.6 0 2.8.1-1 1-1.8 1.9-2.8 2.7z"/><path d="M235.8 466l-31.7-38.8-6.2-1.9-27.1-36.6-13-5.6-21.5-21.7-4.4-4-1.6-4.4-18.9-8.8-6.7 2-13.1 15.2-15.8 20.2-9.6 25.8-16.5 25.4L35.6 466z"/></g><path fill="#afd2ed" d="M351.6 377.2c-1.9.6-3.1 2.8-2.4 4.8.6 1.9 2.8 3.1 4.8 2.4 1.9-.6 3.1-2.8 2.5-4.7-.6-2-2.9-3.2-4.9-2.5z"/><path d="M421.9 340.8a40.25 40.25 0 0 0-40.3 40.3c0 22.2 18 40.2 40.2 40.2s40.2-18 40.2-40.2c.1-22.3-17.9-40.3-40.1-40.3zM305.4 357a25.59 25.59 0 0 0-25.6 25.6c0 14.1 11.5 25.6 25.6 25.6s25.6-11.5 25.6-25.6c-.1-14.1-11.5-25.6-25.6-25.6z" fill="#f3f4f5"/><path d="M396.8 356.8h-.4.4zm20.6 52.3c-.4.3-.8.5-1.3.7.5-.2.9-.5 1.3-.7z" fill="#f42753"/><path fill="#fff" d="M366.4 342.1c-13.8 0-25.1 11.2-25.1 25.1 0 13.8 11.2 25.1 25.1 25.1s25.1-11.2 25.1-25.1-11.2-25.1-25.1-25.1z"/><path d="M381.7 376.5h-3.8l-4.5-4.9-4.5 4.9h-3.8l6.4-7-6.4-7h3.8l4.5 4.9 4.5-4.9h3.8l-6.4 7 6.4 7zm-.4-21.1h-16.7l-6.8 23.2c-.1.5-.6.8-1.1.8h-.1c-.5 0-.9-.3-1.1-.7l-2.7-7h-3.1c-.6 0-1.2-.5-1.2-1.2s.5-1.2 1.2-1.2h3.9c.5 0 .9.3 1.1.7l1.7 4.5 6-20.7c.1-.5.6-.8 1.1-.8h17.6c.6 0 1.2.5 1.2 1.2s-.4 1.2-1 1.2zm31.3 51.2h-11.3v-21.2h11.3v21.2zm0-22.5h-11.3a1.6 1.6 0 1 1 0-3.2h11.3a1.6 1.6 0 1 1 0 3.2zm0-4.6h-11.3v-13.3h13.9l2 5.5c-2.8 1.5-4.6 4.4-4.6 7.8zm8.8-8.8c-1 0-1.9.2-2.8.5l-1.8-5h9.2l-1.8 5c-.8-.4-1.8-.5-2.8-.5zm4.2 1l2-5.5h13.9v13.3h-11.3c0-3.4-1.8-6.3-4.6-7.8zm15.9 34.9h-11.3v-21.2h11.3v21.2zm0-22.5h-11.3a1.6 1.6 0 1 1 0-3.2h11.3a1.6 1.6 0 1 1 0 3.2zm2-19.4h-44.1c0-1.3-.9-2.3-1.9-2.3v-4.1h48v4.1c-1.2-.1-2 1-2 2.3z" fill="#afd2ed"/><path fill="#fff" d="M461.4 361.1c-16.8 0-30.4 13.6-30.4 30.4s13.6 30.4 30.4 30.4 30.4-13.6 30.4-30.4-13.7-30.4-30.4-30.4z"/><path d="M483.3 389.7c-.2 0-.5 0-.7.1l-8.4-14.5c.5-.5.8-1.1.8-1.9 0-1.4-1.1-2.6-2.6-2.6a2.58 2.58 0 0 0-2.5 1.9H453a2.58 2.58 0 0 0-2.5-1.9c-1.4 0-2.6 1.1-2.6 2.6 0 .7.3 1.4.7 1.8l-8.4 14.6c-.2 0-.4-.1-.7-.1-1.4 0-2.6 1.1-2.6 2.6 0 1.4 1.1 2.6 2.6 2.6.2 0 .5 0 .7-.1l8.4 14.6c-.5.5-.7 1.1-.7 1.8 0 1.4 1.1 2.6 2.6 2.6a2.58 2.58 0 0 0 2.5-1.9h16.9a2.58 2.58 0 0 0 2.5 1.9c1.4 0 2.6-1.1 2.6-2.6 0-.7-.3-1.4-.7-1.8l8.4-14.6c.2 0 .4.1.7.1 1.4 0 2.6-1.1 2.5-2.6s-1.2-2.6-2.6-2.6zm-13.5-15.6l-6.5 3.8c-.5-.5-1.1-.8-1.8-.8s-1.4.3-1.8.7l-6.5-3.7h16.6zm-5.9 17.6l6.6-3.9c.3.3.7.6 1.1.7v9.8l-8.5 4.9c-.3-.3-.6-.5-1-.6v-7.7c1.1-.3 1.8-1.3 1.8-2.5.1-.3 0-.5 0-.7zm6-5.2l-6.6 3.9c-.5-.5-1.1-.7-1.8-.7s-1.4.3-1.8.7l-6.6-3.8c0-.2.1-.4.1-.7 0-.2 0-.5-.1-.7l6.6-3.8c.5.5 1.1.7 1.8.7s1.4-.3 1.8-.8l6.6 3.8c0 .2-.1.5-.1.7 0 .3 0 .5.1.7zm-20.1 22.2l-8.4-14.5 8.4 4.8v9.7zm.7-25.3c-1.4 0-2.6 1.1-2.6 2.6a2.58 2.58 0 0 0 1.9 2.5v9l-7.7-4.5c0-.2.1-.4.1-.7 0-.7-.3-1.4-.7-1.8l8.4-14.6c.2 0 .4.1.7.1.7 0 1.4-.3 1.8-.8l6.5 3.8c0 .2-.1.4-.1.7 0 .2 0 .5.1.7l-6.6 3.8c-.5-.6-1.1-.8-1.8-.8zm.7 5c.5-.1.8-.4 1.1-.7l6.5 3.8c0 .2-.1.5-.1.7 0 1.2.9 2.2 2 2.5v7.7c-.5.1-.8.3-1.1.6l-8.4-4.9v-9.7zm20.5 20.3a2.37 2.37 0 0 0-1.8 1.8H453a2.37 2.37 0 0 0-1.8-1.8v-8.9l7.7 4.5c-.1.2-.1.5-.1.7 0 1.4 1.1 2.6 2.6 2.6 1.4 0 2.6-1.1 2.6-2.6 0-.2 0-.5-.1-.7l7.8-4.5v8.9zm1.3 0V399l8.4-4.8-8.4 14.5zm7.7-16.4c0 .2 0 .5.1.7l-7.7 4.4v-9a2.58 2.58 0 0 0 1.9-2.5c0-1.4-1.1-2.6-2.6-2.6-.7 0-1.4.3-1.8.7l-6.7-3.8c0-.2.1-.4.1-.6s0-.4-.1-.6l6.7-3.8c.5.5 1.1.8 1.8.8.2 0 .4 0 .5-.1l8.4 14.6c-.3.5-.6 1.1-.6 1.8zM322.3 367c0 .1 0 .1 0 0l-1.1 2.9c-.7 1.5-1.5 3-2.5 4.4-.6.8-1.2 1.5-1.9 2.1-.3.2-.5.4-.9.4h-3.2-.3c-.5 0-1.1-.1-1.6-.1 1.4.9 2.9 1.1 4.5 1.4-3.1 2.4-6.3 4.2-10.2 4.1 2-3.6 4.6-6.7 7.4-9.6-4.6 2.9-8 7-10.8 11.8h1.9 1.8c.7 0 1.1.3 1.3 1 .1.6 0 1.1-.6 1.5.3.1.6.1.9.1 1 .1 1.8.5 2.4 1.2.7.8 1 1.8 1 2.8 0 1.7 0 3.4-.1 5.1 0 1.2-.6 2.2-1.5 2.9-.4.3-.9.4-1.4.7h-13.5l-.1-.1c-1-.2-1.7-.7-2.3-1.6-.3-.4-.4-1-.6-1.4v-6.5c.1-.3.2-.5.3-.8.5-1.1 1.3-1.9 2.4-2.2l1.5-.3c-.1-.1-.2-.2-.3-.4-.4-.5-.3-1.5.3-1.8.3-.1.6-.2.9-.2h3.4c.2 0 .2 0 .3-.2.6-1 1.2-2 1.7-3 .1-.1.1-.2.1-.3 0-.6.1-1.3.1-1.9.1-1.2.4-2.2.9-3.3.4-1 .9-1.9 1.6-2.7.6-.7 1.2-1.4 1.9-1.9 1-.9 2.2-1.6 3.4-2.1 1-.4 2-.8 3-1.1 1.1-.3 2.2-.5 3.3-.7 1-.2 1.9-.3 2.9-.4.7-.1 1.3-.1 2-.1.1 0 .1 0 .2-.1h1.3c.3.2.2.3.2.4z" fill="#afd2ed"/></svg>