<svg xmlns="http://www.w3.org/2000/svg" xmlns:xlink="http://www.w3.org/1999/xlink" viewBox="0 0 590.1 179.1" xmlns:v="https://vecta.io/nano"><circle fill="#ffe48e" cx="294.4" cy="98.7" r="51.7"/><path fill="#eeeceb" d="M382.5,117.6V98.7H245.8c-10.4,0-18.9,8.4-18.9,18.9h-89.5v18.9h309.7v-18.9H382.5z"/><path fill="#84a8a6" d="M554.9 169.1c.2.1.2.2 0 .2H172.1c-.2 0-.2-.1 0-.1l46.1-15.6c.2-.1.5 0 .7 0l14.3 7c.2.1.5.1.7.1l60.3-18c.2-.1.5-.1.7 0l37.6 7.7c.2 0 .5.1.7 0l52.5-6.4h.7l39.1 6h.7l56.7-16.8c.2-.1.5 0 .7.1l71.3 35.8z"/><circle fill="#afd2ed" cx="343.8" cy="106.1" r="27.7"/><g fill="#f7f5f5"><use xlink:href="#B"/><use xlink:href="#B" y="4.5"/><path d="M339.1 95.9h-2.7a.47.47 0 0 1-.5-.5v-2.7a.47.47 0 0 0-.5-.5h-1.2a.47.47 0 0 0-.5.5v2.7a.47.47 0 0 1-.5.5h-2.7a.47.47 0 0 0-.5.5v1.2a.47.47 0 0 0 .5.5h2.7a.47.47 0 0 1 .5.5v2.7a.47.47 0 0 0 .5.5h1.2a.47.47 0 0 0 .5-.5v-2.7a.47.47 0 0 1 .5-.5h2.7a.47.47 0 0 0 .5-.5v-1.2a.47.47 0 0 0-.5-.5zm-.5 17a.61.61 0 0 0 0-.8l-.8-.8a.61.61 0 0 0-.8 0l-1.9 1.9a.61.61 0 0 1-.8 0l-1.9-1.9a.61.61 0 0 0-.8 0l-.8.8a.61.61 0 0 0 0 .8l1.9 1.9a.61.61 0 0 1 0 .8l-1.9 1.9a.61.61 0 0 0 0 .8l.8.8a.61.61 0 0 0 .8 0l1.9-1.9a.61.61 0 0 1 .8 0l1.9 1.9a.61.61 0 0 0 .8 0l.8-.8a.61.61 0 0 0 0-.8l-1.9-1.9a.61.61 0 0 1 0-.8l1.9-1.9zm5.2-36.8c-16.6 0-30 13.4-30 30s13.4 30 30 30 30-13.4 30-30-13.4-30-30-30zm-1.5 44.4a2.26 2.26 0 0 1-2.3 2.3h-10.6a2.26 2.26 0 0 1-2.3-2.3v-10.6a2.26 2.26 0 0 1 2.3-2.3H340a2.26 2.26 0 0 1 2.3 2.3v10.6zm0-18.2a2.26 2.26 0 0 1-2.3 2.3h-10.6a2.26 2.26 0 0 1-2.3-2.3V91.7a2.26 2.26 0 0 1 2.3-2.3H340a2.26 2.26 0 0 1 2.3 2.3v10.6zm18.2 18.2a2.26 2.26 0 0 1-2.3 2.3h-10.6a2.26 2.26 0 0 1-2.3-2.3v-10.6a2.26 2.26 0 0 1 2.3-2.3h10.6a2.26 2.26 0 0 1 2.3 2.3v10.6zm0-18.2a2.26 2.26 0 0 1-2.3 2.3h-10.6a2.26 2.26 0 0 1-2.3-2.3V91.7a2.26 2.26 0 0 1 2.3-2.3h10.6a2.26 2.26 0 0 1 2.3 2.3v10.6zm-3.2-6.4h-8.8a.47.47 0 0 0-.5.5v1.2a.47.47 0 0 0 .5.5h8.8a.47.47 0 0 0 .5-.5v-1.2c.1-.3-.2-.5-.5-.5z"/></g><circle fill="#afd2ed" cx="383.8" cy="62.9" r="26.6"/><g fill="#f7f5f5"><circle cx="383.8" cy="63" r="2.5"/><path d="M399.2 63c0-1.4 1.1-2.5 2.5-2.5.7 0 1.3.3 1.8.7-.9-9.5-8.4-17-17.9-17.9.5.5.7 1.1.7 1.8 0 1.4-1.1 2.5-2.5 2.5s-2.5-1.1-2.5-2.5c0-.7.3-1.3.7-1.8-9.5.9-17 8.4-17.9 17.9.5-.5 1.1-.7 1.8-.7 1.4 0 2.5 1.1 2.5 2.5s-1.1 2.5-2.5 2.5c-.7 0-1.3-.3-1.8-.7.9 9.5 8.4 17 17.9 17.9-.5-.5-.7-1.1-.7-1.8 0-1.4 1.1-2.5 2.5-2.5s2.5 1.1 2.5 2.5c0 .7-.3 1.3-.7 1.8 9.5-.9 17-8.4 17.9-17.9-.5.5-1.1.7-1.8.7-1.4 0-2.5-1.2-2.5-2.5zm-12.3 3.1h0l-14.1 7.8 7.8-14.1h0l14.1-7.8-7.8 14.1zm-3.1-33c-16.5 0-29.8 13.4-29.8 29.8s13.4 29.8 29.8 29.8c16.5 0 29.8-13.4 29.8-29.8s-13.3-29.8-29.8-29.8zm0 54.7c-13.7 0-24.9-11.1-24.9-24.9a24.9 24.9 0 1 1 49.8 0c0 13.8-11.2 24.9-24.9 24.9z"/></g><circle fill="#afd2ed" cx="406.7" cy="97.2" r="35.9"/><g fill="#f3f4f5"><use xlink:href="#C"/><path d="M403.2 114.3c-.4 0-.7.2-.9.6s-.3 1-.3 1.8.1 1.4.3 1.8.5.6.9.6.7-.2 1-.6c.2-.4.3-1 .3-1.8s-.1-1.4-.3-1.8a1 1 0 0 0-1-.6z"/><use xlink:href="#D"/><path d="M403.2 95.2c-.4 0-.7.2-.9.6s-.3 1-.3 1.8.1 1.4.3 1.8.5.7.9.7.7-.2 1-.7c.2-.4.3-1 .3-1.8s-.1-1.4-.3-1.8a1 1 0 0 0-1-.6z"/><use xlink:href="#E"/><use xlink:href="#D" x="-6.9"/><use xlink:href="#F"/><path d="M389.4 95.2c-.4 0-.7.2-.9.6s-.3 1-.3 1.8.1 1.4.3 1.8.5.7.9.7.7-.2 1-.7c.2-.4.3-1 .3-1.8s-.1-1.4-.3-1.8a1.1 1.1 0 0 0-1-.6z"/><use xlink:href="#G"/><use xlink:href="#F" x="-6.9"/><use xlink:href="#C" x="13.9"/><use xlink:href="#H"/><use xlink:href="#G" x="20.8"/><use xlink:href="#H" x="34.7"/><path d="M424.1 95.2c-.4 0-.7.2-.9.6s-.3 1-.3 1.8.1 1.4.3 1.8.5.7.9.7.7-.2 1-.7c.2-.4.3-1 .3-1.8s-.1-1.4-.3-1.8c-.3-.3-.6-.6-1-.6z"/><use xlink:href="#E" x="13.9"/><use xlink:href="#G" x="34.7"/><path d="M406.8 58.4c-21.5 0-38.9 17.4-38.9 38.9 0 21.4 17.4 38.8 38.8 38.8s38.8-17.4 38.8-38.8c.1-21.5-17.3-38.9-38.7-38.9zm-5.7 22.8c.1-.1.3-.1.5-.1h1.1v-4.8l-.6.1h-.2-.1c-.1 0-.3 0-.3-.1-.1-.1-.1-.2-.1-.4 0-.1 0-.2.1-.3s.2-.1.4-.2l1.4-.4h.3.2c.1 0 .2 0 .3.1s.1.2.1.4V81h.9c.2 0 .4 0 .5.1s.1.2.1.5c0 .2 0 .3-.1.4s-.3.1-.5.1h-3.3c-.2 0-.4 0-.5-.1s-.1-.2-.1-.4c-.2-.2-.2-.4-.1-.4zm-9.7 38.3c-.5.7-1.2 1-2.1 1s-1.6-.3-2.1-1-.7-1.6-.7-2.7.2-2.1.7-2.7c.5-.7 1.2-1 2.1-1s1.6.3 2.1 1 .8 1.6.8 2.7-.3 2-.8 2.7zm0-9.5c-.5.7-1.2 1-2.1 1s-1.6-.3-2.1-1-.7-1.6-.7-2.7c0-1.2.2-2.1.7-2.7.5-.7 1.2-1 2.1-1s1.6.3 2.1 1 .8 1.6.8 2.7-.3 2-.8 2.7zm0-9.6c-.5.7-1.2 1-2.1 1s-1.6-.3-2.1-1-.7-1.6-.7-2.7.2-2.1.7-2.7c.5-.7 1.2-1 2.1-1s1.6.3 2.1 1 .8 1.6.8 2.7c0 1.2-.3 2.1-.8 2.7zm0-9.5c-.5.7-1.2 1-2.1 1s-1.6-.3-2.1-1-.7-1.6-.7-2.7c0-1.2.2-2.1.7-2.7.5-.7 1.2-1 2.1-1s1.6.3 2.1 1 .8 1.6.8 2.7c0 1.2-.3 2.1-.8 2.7zm0-9.5c-.5.7-1.2 1-2.1 1s-1.6-.3-2.1-1-.7-1.6-.7-2.7c0-1.2.2-2.1.7-2.7.5-.7 1.2-1 2.1-1s1.6.3 2.1 1 .8 1.6.8 2.7-.3 2.1-.8 2.7zm7.2 38.8c-.1.1-.3.1-.5.1h-3.3c-.2 0-.4 0-.5-.1s-.1-.2-.1-.4 0-.4.1-.5.3-.1.5-.1h1.1v-4.8l-.6.1h-.2-.1c-.1 0-.3 0-.3-.1s-.1-.2-.1-.4c0-.1 0-.2.1-.3s.2-.1.4-.2l1.4-.4h.3.2c.1 0 .2 0 .3.1s.1.2.1.4v5.6h.9c.2 0 .4 0 .5.1s.1.2.1.5c-.1.1-.2.3-.3.4zm-.2-10.2c-.5.7-1.2 1-2.1 1s-1.6-.3-2.1-1-.7-1.6-.7-2.7c0-1.2.2-2.1.7-2.7.5-.7 1.2-1 2.1-1s1.6.3 2.1 1 .8 1.6.8 2.7c-.1 1.1-.3 2-.8 2.7zm-3.2-24.1h-.2-.1c-.1 0-.3 0-.3-.1-.1-.1-.1-.2-.1-.4 0-.1 0-.2.1-.3s.2-.1.4-.2l1.4-.4h.3.2c.1 0 .2 0 .3.1s.1.2.1.4v5.6h.9c.2 0 .4 0 .5.1s.1.2.1.5c0 .2 0 .3-.1.4s-.3.1-.5.1h-3.3c-.2 0-.4 0-.5-.1s-.1-.2-.1-.4 0-.4.1-.5.3-.1.5-.1h1.1v-4.8l-.8.1zm-1 14.3c.1-.1.3-.1.5-.1h1.1v-4.8l-.6.1h-.2-.1c-.1 0-.3 0-.3-.1-.1-.1-.1-.2-.1-.4 0-.1 0-.2.1-.3s.2-.1.4-.2l1.4-.4h.3.2c.1 0 .2 0 .3.1s.1.2.1.4v5.6h.9c.2 0 .4 0 .5.1s.1.2.1.5c0 .2 0 .3-.1.4s-.3.1-.5.1h-3.3c-.2 0-.4 0-.5-.1s-.1-.2-.1-.4c-.3-.2-.2-.4-.1-.5zm4.2-18.8c-.5.7-1.2 1-2.1 1s-1.6-.3-2.1-1-.7-1.6-.7-2.7c0-1.2.2-2.1.7-2.7.5-.7 1.2-1 2.1-1s1.6.3 2.1 1 .8 1.6.8 2.7c-.1 1.1-.3 2.1-.8 2.7zm6.9 38.1c-.5.7-1.2 1-2.1 1s-1.6-.3-2.1-1-.7-1.6-.7-2.7.2-2.1.7-2.7c.5-.7 1.2-1 2.1-1s1.6.3 2.1 1 .8 1.6.8 2.7-.3 2-.8 2.7zm0-9.5c-.5.7-1.2 1-2.1 1s-1.6-.3-2.1-1-.7-1.6-.7-2.7c0-1.2.2-2.1.7-2.7.5-.7 1.2-1 2.1-1s1.6.3 2.1 1 .8 1.6.8 2.7-.3 2-.8 2.7zm0-9.6c-.5.7-1.2 1-2.1 1s-1.6-.3-2.1-1-.7-1.6-.7-2.7.2-2.1.7-2.7c.5-.7 1.2-1 2.1-1s1.6.3 2.1 1 .8 1.6.8 2.7c0 1.2-.3 2.1-.8 2.7zm0-9.5c-.5.7-1.2 1-2.1 1s-1.6-.3-2.1-1-.7-1.6-.7-2.7c0-1.2.2-2.1.7-2.7.5-.7 1.2-1 2.1-1s1.6.3 2.1 1 .8 1.6.8 2.7c0 1.2-.3 2.1-.8 2.7zm16.7-9.7c.1-.1.3-.1.5-.1h1.1v-4.8l-.6.1h-.2-.1c-.1 0-.3 0-.3-.1-.1-.1-.1-.2-.1-.4 0-.1 0-.2.1-.3s.2-.1.4-.2l1.4-.4h.3.2c.1 0 .2 0 .3.1 0 .1.1.2.1.4V81h.9c.2 0 .4 0 .5.1s.1.2.1.5c0 .2 0 .3-.1.4s-.3.1-.5.1h-3.3c-.2 0-.4 0-.5-.1s-.1-.2-.1-.4c-.3-.2-.2-.4-.1-.4zm-6.9 0c.1-.1.3-.1.5-.1h1.1v-4.8l-.6.1h-.2-.1c-.1 0-.3 0-.3-.1-.1-.1-.1-.2-.1-.4 0-.1 0-.2.1-.3s.2-.1.4-.2l1.4-.4h.3.2c.1 0 .2 0 .3.1 0 .1.1.2.1.4V81h.9c.2 0 .4 0 .5.1s.1.2.1.5c0 .2 0 .3-.1.4s-.3.1-.5.1h-3.3c-.2 0-.4 0-.5-.1s-.1-.2-.1-.4c-.3-.2-.2-.4-.1-.4zm-7 0c.1-.1.3-.1.5-.1h1.1v-4.8l-.6.1h-.2-.1c-.1 0-.3 0-.3-.1-.1-.1-.1-.2-.1-.4 0-.1 0-.2.1-.3s.2-.1.4-.2l1.4-.4h.3.2c.1 0 .2 0 .3.1s.1.2.1.4V81h.9c.2 0 .4 0 .5.1s.1.2.1.5c0 .2 0 .3-.1.4s-.3.1-.5.1h-3.3c-.2 0-.4 0-.5-.1s-.1-.2-.1-.4c-.3-.2-.2-.4-.1-.4zm0 9.5c.1-.1.3-.1.5-.1h1.1v-4.8l-.6.1h-.2-.1c-.1 0-.3 0-.3-.1-.1-.1-.1-.2-.1-.4 0-.1 0-.2.1-.3s.2-.1.4-.2l1.4-.4h.3.2c.1 0 .2 0 .3.1s.1.2.1.4v5.6h.9c.2 0 .4 0 .5.1s.1.2.1.5c0 .2 0 .3-.1.4s-.3.1-.5.1h-3.3c-.2 0-.4 0-.5-.1s-.1-.2-.1-.4c-.3-.2-.2-.4-.1-.5zm0 9.5c.1-.1.3-.1.5-.1h1.1v-4.8l-.6.1h-.2-.1c-.1 0-.3 0-.3-.1-.1-.1-.1-.2-.1-.4 0-.1 0-.2.1-.3s.2-.1.4-.2l1.4-.4h.3.2c.1 0 .2 0 .3.1s.1.2.1.4v5.6h.9c.2 0 .4 0 .5.1s.1.2.1.5c0 .2 0 .3-.1.4s-.3.1-.5.1h-3.3c-.2 0-.4 0-.5-.1s-.1-.2-.1-.4c-.3-.2-.2-.4-.1-.5zm0 9.6c.1-.1.3-.1.5-.1h1.1v-4.8l-.6.1h-.2-.1c-.1 0-.3 0-.3-.1-.1-.1-.1-.2-.1-.4 0-.1 0-.2.1-.3s.2-.1.4-.2l1.4-.4h.3.2c.1 0 .2 0 .3.1s.1.2.1.4v5.6h.9c.2 0 .4 0 .5.1s.1.2.1.5c0 .2 0 .3-.1.4s-.3.1-.5.1h-3.3c-.2 0-.4 0-.5-.1s-.1-.2-.1-.4c-.3-.3-.2-.5-.1-.5zm4.2 9.7c-.5.7-1.2 1-2.1 1s-1.6-.3-2.1-1-.7-1.6-.7-2.7.2-2.1.7-2.7c.5-.7 1.2-1 2.1-1s1.6.3 2.1 1 .8 1.6.8 2.7c-.1 1.1-.3 2-.8 2.7zm7.2.7c-.1.1-.3.1-.5.1h-3.3c-.2 0-.4 0-.5-.1s-.1-.2-.1-.4 0-.4.1-.5.3-.1.5-.1h1.1v-4.8l-.6.1h-.2-.1c-.1 0-.3 0-.3-.1s-.1-.2-.1-.4c0-.1 0-.2.1-.3s.2-.1.4-.2l1.4-.4h.3.2c.1 0 .2 0 .3.1 0 .1.1.2.1.4v5.6h.9c.2 0 .4 0 .5.1s.1.2.1.5c-.2.1-.2.3-.3.4zm-.3-10.2c-.5.7-1.2 1-2.1 1s-1.6-.3-2.1-1-.7-1.6-.7-2.7c0-1.2.2-2.1.7-2.7.5-.7 1.2-1 2.1-1s1.6.3 2.1 1 .8 1.6.8 2.7-.3 2-.8 2.7zm0-9.6c-.5.7-1.2 1-2.1 1s-1.6-.3-2.1-1-.7-1.6-.7-2.7.2-2.1.7-2.7c.5-.7 1.2-1 2.1-1s1.6.3 2.1 1 .8 1.6.8 2.7c0 1.2-.3 2.1-.8 2.7zm0-9.5c-.5.7-1.2 1-2.1 1s-1.6-.3-2.1-1-.7-1.6-.7-2.7c0-1.2.2-2.1.7-2.7.5-.7 1.2-1 2.1-1s1.6.3 2.1 1 .8 1.6.8 2.7c0 1.2-.3 2.1-.8 2.7zm7 28.6c-.5.7-1.2 1-2.1 1s-1.6-.3-2.1-1-.7-1.6-.7-2.7.2-2.1.7-2.7c.5-.7 1.2-1 2.1-1s1.6.3 2.1 1 .8 1.6.8 2.7c-.1 1.1-.3 2-.8 2.7zM423 105h-.2-.1c-.1 0-.3 0-.3-.1-.1-.1-.1-.2-.1-.4 0-.1 0-.2.1-.3s.2-.1.4-.2l1.4-.4h.3.2c.1 0 .2 0 .3.1 0 .1.1.2.1.4v5.6h.9c.2 0 .4 0 .5.1s.1.2.1.5c0 .2 0 .3-.1.4s-.3.1-.5.1h-3.3c-.2 0-.4 0-.5-.1s-.1-.2-.1-.4 0-.4.1-.5.3-.1.5-.1h1.1v-4.8l-.8.1zm3.2-4.6c-.5.7-1.2 1-2.1 1s-1.6-.3-2.1-1-.7-1.6-.7-2.7.2-2.1.7-2.7c.5-.7 1.2-1 2.1-1s1.6.3 2.1 1 .8 1.6.8 2.7c-.1 1.2-.3 2.1-.8 2.7zm0-9.5c-.5.7-1.2 1-2.1 1s-1.6-.3-2.1-1-.7-1.6-.7-2.7c0-1.2.2-2.1.7-2.7.5-.7 1.2-1 2.1-1s1.6.3 2.1 1 .8 1.6.8 2.7c-.1 1.2-.3 2.1-.8 2.7zm-9.1 4.3c-.4 0-.7.2-.9.6s-.3 1-.3 1.8.1 1.4.3 1.8.5.7.9.7.7-.2 1-.7c.2-.4.3-1 .3-1.8s-.1-1.4-.3-1.8c-.2-.3-.5-.6-1-.6z"/></g><circle fill="#afd2ed" cx="444.9" cy="107.3" r="27.8"/><path d="M445.6 99.1h-1.4-1.5l-8.5 14.6h10.4.7 10.4l-8.5-14.6h-1.6zm-3.1 11.8a1.54 1.54 0 0 1-1.5-1.5 1.54 1.54 0 0 1 1.5-1.5 1.54 1.54 0 0 1 1.5 1.5 1.47 1.47 0 0 1-1.5 1.5zm6.9-.6a1.8 1.8 0 1 1-3.6 0 1.8 1.8 0 1 1 3.6 0zm-3.5-2.9c-.8 0-1.4-.6-1.4-1.4s.6-1.4 1.4-1.4 1.4.6 1.4 1.4-.7 1.4-1.4 1.4zm-1-29.4c-16.2 0-29.3 13.1-29.3 29.3s13.1 29.3 29.3 29.3 29.3-13.1 29.3-29.3S461 78 444.9 78zm14.1 45.6a4.56 4.56 0 0 1-2.2.6h0H433h0c-.8 0-1.5-.2-2.2-.6-2.1-1.3-2.8-4-1.6-6.1L439.9 99v-6.6h-.6c-.7 0-1.2-.6-1.2-1.2 0-.7.6-1.2 1.2-1.2h2.2l-1-3.7h8.6l-1 3.7h2.2c.7 0 1.2.6 1.2 1.2s-.6 1.2-1.2 1.2h-.6V99l10.8 18.5c1.3 2.1.6 4.9-1.5 6.1z" fill="#fff"/><circle fill="#afd2ed" cx="353.3" cy="83.8" r="22.4"/><path fill="#fff" d="M353.3 59.7c-13.3 0-24.2 10.8-24.2 24.2 0 13.3 10.8 24.2 24.2 24.2a24.16 24.16 0 0 0 24.2-24.2 24.16 24.16 0 0 0-24.2-24.2zm13.1 32.4h0 0c-.3 1.8-2.2 3.5-4.7 3.9-3 .5-5.8-.7-6.2-2.9s1.7-4.3 4.7-4.9c1.4-.3 2.8-.1 3.9.4V74.2l-16 2.1v17.6c.1.3 0 .6 0 .9h0 0c-.3 1.8-2.2 3.4-4.7 3.9-3 .5-5.8-.7-6.2-2.9s1.7-4.3 4.7-4.9c1.4-.3 2.8-.1 3.9.4V70.9l20.6-2.6v22.9c.1.3.1.6 0 .9z"/><g fill="#043f3a"><path d="M130.8 68.1c-3.2-1-5.2-3.3-5.3-6.7-.2-3.4-.1-6.5-.1-10.3.9.1 1.6.4 2 1.1.7 1.1 1 2.4 1.5 3.6.3-.4.3-1 .5-1.4 0 0 0-.1.1-.1h.1.4c.3.1.4.5.3.7v.2.3.1.1.1s0 .1.1.1c0 .1 0 .2.1.3l.3.3c1.2-1 .4-3.3-.5-4.4-1.8-2.3-2.7-2.7-6.6-3.8-1.3-.5-2.4-.9-2.7-.9-2.3-.4-4.6-.9-6.9-1.4-.5-.1-.8-.8-1.2-1.2.5-.4.9-1 1.5-1.1 2-.5.6-2.3 1.1-3.6 0-.1.1-.2.1-.3v-.1-.1-.1-.1c0-.1-.1-.1-.1-.2s-.1-.2-.1-.2c-.1-.1-.2-.3-.3-.4-.1-.2-.2-.3-.3-.5-.1-.1-.1-.1-.1-.2h0c0-.1 0-.1-.1-.2l.3-.3c.1-.1.2-.2.1-.3s-.2-.1-.3-.2-.2-.2-.2-.3l-.3-.3c-.1-.1-.1-.1-.2-.1-.1-.1-.2-.1-.2-.2-.1-.1-.2-.1-.3-.2-.1 0-.2-.1-.3-.2s-.2-.1-.3-.2-.2-.1-.3-.1-.2-.1-.3-.1c-.2-.1-.4-.1-.6-.2-.1 0-.2 0-.3-.1h-.2l-.1.1c-.2 0-.4-.1-.6-.1 0 0-.1 0-.1-.1v.1c-1.2.1-2.7.8-3 1.6-.7 1.9-1 3.8-.1 5.8.1.2 0 .9-.1.9-1.7.3-2.6 2.7-3.2 4.1-.2.4-.3.8-.3 1.2-1 5-1.6 9.6 0 14.6.5 1.5 1.5 2.4 3 2.8 3.7 1.1 6.9.1 9.5-2.6 1.2-1.3 2.3-2.8 3.7-4.4.8 1.9 1.9 3.6 2.3 5.5.3 1.5-.2 3.1-.4 4.8 2.9 1 5.8 1.8 9 1.6.6-.1 1.5-.5 1.6-.9.1-1.2-.8-1.6-1.6-1.8zm-16.8-15c-.2-.1-.3-.1-.5-.2.2-.8.3-1.6.5-2.5.8 0 1.5 0 2.7.1-1 1-1.8 1.8-2.7 2.6z"/><path d="M227.4 179.1l-30.6-37.4-6-1.8-26.1-35.3-12.5-5.4-20.8-20.9-4.2-3.9-1.6-4.2-18.2-8.5-6.4 1.9-12.7 14.7-15.2 19.4-9.3 24.9-15.9 24.5-13.6 32z"/></g><circle fill="#afd2ed" cx="294.4" cy="98.7" r="21.9"/><path d="M298.6 93.8l-2.8-5.6c-.4.1-.8.2-1.2.2s-.9-.1-1.3-.2l-3 5.8c.9.7 1.4 1.8 1.4 3a3.7 3.7 0 0 1-1.6 3.1l3 5.7c.4-.2.9-.2 1.3-.2s.8.1 1.2.2l2.7-5.6c-1-.7-1.7-1.8-1.7-3.2.3-1.3 1-2.5 2-3.2zM294.5 74c-13.7 0-24.7 11.1-24.7 24.7s11.1 24.7 24.7 24.7 24.7-11.1 24.7-24.7c-.1-13.6-11.1-24.7-24.7-24.7zm12.4 39.2a3.8 3.8 0 0 1-3.8-3.8c0-1.3.7-2.5 1.7-3.2l-2.8-5.7c-.4.2-.9.2-1.3.2s-.8-.1-1.2-.2l-2.7 5.6c1 .7 1.7 1.8 1.7 3.2a3.8 3.8 0 1 1-7.6 0 3.7 3.7 0 0 1 1.6-3.1l-3-5.7c-.4.2-.9.2-1.3.2-.3 0-.7-.1-1-.2l-2.9 5.6a3.7 3.7 0 0 1 1.6 3.1 3.8 3.8 0 1 1-3.8-3.8c.4 0 .9.1 1.3.2l2.8-5.5c-1.1-.7-1.9-1.9-1.9-3.3a3.8 3.8 0 0 1 3.8-3.8c.5 0 1.1.1 1.5.3l3-5.7a3.7 3.7 0 0 1-1.6-3.1 3.8 3.8 0 1 1 7.6 0c0 1.3-.7 2.5-1.7 3.2l2.8 5.6c.4-.1.7-.2 1.1-.2a3.8 3.8 0 0 1 3.8 3.8 3.7 3.7 0 0 1-1.6 3.1l2.8 5.7c.4-.1.8-.2 1.2-.2a3.8 3.8 0 0 1 3.8 3.8 3.84 3.84 0 0 1-3.9 3.9z" fill="#f3f4f5"/><defs ><path id="B" d="M357.3 111.8h-8.8a.47.47 0 0 0-.5.5v1.2a.47.47 0 0 0 .5.5h8.8a.47.47 0 0 0 .5-.5v-1.1c.1-.3-.2-.6-.5-.6z"/><path id="C" d="M403.2 104.7c-.4 0-.7.2-.9.6s-.3 1-.3 1.8.1 1.4.3 1.8.5.7.9.7.7-.2 1-.7.3-1 .3-1.8-.1-1.4-.3-1.8c-.2-.3-.5-.6-1-.6z"/><path id="D" d="M396.3 76.2c-.4 0-.7.2-.9.6s-.3 1-.3 1.8.1 1.4.3 1.8.5.7.9.7.7-.2 1-.7.3-1 .3-1.8-.1-1.4-.3-1.8a1.1 1.1 0 0 0-1-.6z"/><path id="E" d="M403.2 85.7c-.4 0-.7.2-.9.6s-.3 1-.3 1.8.1 1.4.3 1.8.5.7.9.7.7-.2 1-.7.3-1 .3-1.8-.1-1.4-.3-1.8a1 1 0 0 0-1-.6z"/><path id="F" d="M396.3 104.7c-.4 0-.7.2-.9.6s-.3 1-.3 1.8.1 1.4.3 1.8.5.7.9.7.7-.2 1-.7.3-1 .3-1.8-.1-1.4-.3-1.8c-.3-.3-.6-.6-1-.6z"/><path id="G" d="M389.4 114.3c-.4 0-.7.2-.9.6s-.3 1-.3 1.8.1 1.4.3 1.8.5.6.9.6.7-.2 1-.6c.2-.4.3-1 .3-1.8s-.1-1.4-.3-1.8c-.3-.4-.6-.6-1-.6z"/><path id="H" d="M389.4 85.7c-.4 0-.7.2-.9.6s-.3 1-.3 1.8.1 1.4.3 1.8.5.7.9.7.7-.2 1-.7.3-1 .3-1.8-.1-1.4-.3-1.8c-.3-.4-.6-.6-1-.6z"/></defs></svg>