<svg xmlns="http://www.w3.org/2000/svg" viewBox="0 280.2 612 185.8" xmlns:v="https://vecta.io/nano"><path fill="#f7f5f5" d="M398 314.6c-17.1 0-30.9 13.9-30.9 30.9s13.9 30.9 30.9 30.9c17.1 0 30.9-13.9 30.9-30.9s-13.7-30.9-30.9-30.9z"/><path fill="#afd2ed" d="M414.4 333.6h-6.2c-.5 0-2-.2-2.2.1-.3.4-.1 2.3-.1 3-.2 3.7-.8 7.3-.9 11.1-.1 2.7-.5 7.6 2.7 8.7 1.4.5 3.1.2 4.1-.8.6-.6.9-1.3 1.1-2.1.1-.3 0-1.2.2-1.4s1.1 0 1.3 0c0 3.6-1.8 8.1-5.3 9.6-3.7 1.6-8-.3-9.2-4.1-.6-2-.4-4.1-.3-6.1s.3-4 .5-5.9l1.1-12h-4.7-2.1c-1.3 0-1.1 0-1.1 1.3l-.7 8.1c-.3 2.9-.5 5.9-.9 8.8-.3 2.8-.6 6.1-2.2 8.5-1.3 2-3.9 2.8-5.9 1.4-.9-.6-1.6-1.7-1.7-2.9-.1-1.5.8-2.7 1.7-3.8 1.7-2.4 3.3-4.8 4.3-7.5 1.1-2.9 1.7-6 2-9 .1-.9.2-1.7.2-2.6 0-.4.3-1.9.1-2.2s-1.8-.1-2.2-.1a10.68 10.68 0 0 0-2.5.3c-1.3.4-2.4 1.1-3.2 2.1-.5.7-.9 1.4-1.4 2.2s-.8.6-1.7.5c1.1-3.1 2.1-7.6 5.4-9.1 3.4-1.5 7.8-1.2 11.4-1.3h12.6 3.1c.4 0 2.5-.2 2.7 0 .3.3 0 2.4 0 2.8v2.4z"/><circle fill="#ffe48e" cx="305.3" cy="382.6" r="53.6"/><path fill="#eeeceb" d="M396.7 402.2v-19.6H254.9a19.57 19.57 0 0 0-19.6 19.6h-92.8v19.6h321.2v-19.6h-67z"/><path fill="#f7f5f5" d="M356.6 359.2c-17.2 0-31.1 13.9-31.1 31.1s13.9 31.1 31.1 31.1 31.1-13.9 31.1-31.1-13.9-31.1-31.1-31.1z"/><path d="M377.1 392.6c-.4-.3-.9-.5-1.4-.7-.3-.1-.3-.3-.3-.5.1-2 0-3.9-.6-5.8 0-.2 0-.4.1-.5l4.6-3.6h.1l-2.9-5.5-2.6 1-2.8.9c-.3.1-.5 0-.8-.2-1.2-1.4-2.7-2.6-4.3-3.5-.3-.2-.4-.3-.3-.7.3-1.7.4-3.4.6-5.1 0-.2.1-.4.1-.6l-5.9-1.8-2.6 5.4-4.6.3c-.5.1-1 .3-1.6.3-.2 0-.4 0-.5-.1l-3.5-4.4c0-.1-.1-.2-.1-.3l-5.5 2.9 1 2.6.9 2.8c.1.3.1.5-.2.8-1.4 1.2-2.6 2.6-3.5 4.3-.2.3-.4.4-.8.3l-5.6-.7-1.8 5.9 3.1 1.5 2.1 1.1c.1.1.3.3.3.5a18.78 18.78 0 0 0 .6 5.8c0 .1 0 .3-.1.4l-4.7 3.6h-.1l2.9 5.5 3-1 2.5-.8c.3-.1.5-.1.7.2 1.2 1.5 2.7 2.6 4.4 3.6.3.2.4.3.3.7l-.7 5.7 5.9 1.8 1.2-2.5 1.4-2.7c.1-.3.3-.3.6-.3a18.78 18.78 0 0 0 5.8-.6c.1 0 .4 0 .5.1l3.5 4.6s0 .1.1.2l5.5-2.9-1-2.9-.9-2.6c0-.2 0-.5.1-.6 1.6-1.4 2.9-3 3.9-4.9l6.1.7 1.6-5.9c-1.3-.5-2.6-1.1-3.8-1.8zm-20.4 6.6c-4.9 0-8.8-4-8.8-8.8 0-4.9 4-8.8 8.8-8.8s8.8 4 8.8 8.8-4 8.8-8.8 8.8zm0-16.1a7.2 7.2 0 1 0 0 14.4 7.17 7.17 0 0 0 7.2-7.2c0-4-3.3-7.2-7.2-7.2zm0 10.6a3.4 3.4 0 1 1 0-6.8 3.37 3.37 0 0 1 3.4 3.4 3.44 3.44 0 0 1-3.4 3.4z" fill="#afd2ed"/><path fill="#84a8a6" d="M575.5 455.6c.2.1.2.2 0 .2h-397c-.2 0-.2-.1 0-.1l47.8-16.2c.2-.1.5 0 .7 0l14.8 7.3c.2.1.5.1.7.1l62.5-18.7c.2-.1.5-.1.7 0l39 8c.2 0 .5.1.7 0l54.4-6.6h.7l40.6 6.2h.7l58.8-17.4c.2-.1.5 0 .7.1l74.2 37.1z"/><g fill="#043f3a"><path d="M135.7 350.9c-3.3-1-5.4-3.4-5.5-6.9-.2-3.5-.1-6.7-.1-10.7.9.1 1.7.4 2.1 1.1.7 1.1 1 2.5 1.6 3.7.3-.4.3-1 .5-1.5 0 0 0-.1.1-.1h.1.4c.3.1.4.5.3.7v.2.3.1.1h0v.1s0 .1.1.1c0 .1 0 .2.1.3l.3.3c1.2-1 .4-3.4-.5-4.6-1.9-2.4-2.8-2.8-6.8-3.9-1.3-.5-2.5-.9-2.8-.9a92.12 92.12 0 0 1-7.2-1.5c-.5-.1-.8-.8-1.2-1.2.5-.4.9-1 1.6-1.1 2.1-.5.6-2.4 1.1-3.7 0-.1.1-.2.1-.3v-.1-.1-.1-.1c0-.1-.1-.1-.1-.2s-.1-.2-.1-.2c-.1-.1-.2-.3-.3-.4-.1-.2-.2-.3-.3-.5-.1-.1-.1-.1-.1-.2h0c0-.1 0-.1-.1-.2l.3-.3c.1-.1.2-.2.1-.3s-.2-.1-.3-.2-.2-.2-.2-.3l-.3-.3c-.1-.1-.1-.1-.2-.1-.1-.1-.2-.1-.2-.2-.1-.1-.2-.1-.3-.2-.1 0-.2-.1-.3-.2s-.2-.1-.3-.2-.2-.1-.3-.1-.2-.1-.3-.1c-.2-.1-.4-.1-.6-.2-.1 0-.2 0-.3-.1h-.2l-.1.1c-.2 0-.4-.1-.6-.1 0 0-.1 0-.1-.1v.1c-1.2.1-2.8.8-3.1 1.7-.7 2-1 3.9-.1 6 .1.2 0 .9-.1.9-1.8.3-2.7 2.8-3.3 4.3-.2.4-.3.8-.3 1.2-1 5.2-1.7 10 0 15.1.5 1.6 1.6 2.5 3.1 2.9 3.8 1.1 7.2.1 9.9-2.7 1.2-1.3 2.4-2.9 3.8-4.6.8 2 2 3.7 2.4 5.7.3 1.6-.2 3.2-.4 5 3 1 6 1.9 9.3 1.7.6-.1 1.6-.5 1.7-.9-.3-1.4-1.2-1.8-2-2zm-17.5-15.6c-.2-.1-.3-.1-.5-.2.2-.8.3-1.7.5-2.6.8 0 1.6 0 2.8.1-1 1-1.8 1.9-2.8 2.7z"/><path d="M235.8 466l-31.7-38.8-6.2-1.9-27.1-36.6-13-5.6-21.5-21.7-4.4-4-1.6-4.4-18.9-8.8-6.7 2-13.1 15.2-15.8 20.2-9.6 25.8-16.5 25.4L35.6 466z"/></g><path fill="#afd2ed" d="M351.6 377.2c-1.9.6-3.1 2.8-2.4 4.8.6 1.9 2.8 3.1 4.8 2.4 1.9-.6 3.1-2.8 2.5-4.7-.6-2-2.9-3.2-4.9-2.5z"/><path d="M421.9 340.8a40.25 40.25 0 0 0-40.3 40.3c0 22.2 18 40.2 40.2 40.2s40.2-18 40.2-40.2c.1-22.3-17.9-40.3-40.1-40.3zM305.4 357a25.59 25.59 0 0 0-25.6 25.6c0 14.1 11.5 25.6 25.6 25.6s25.6-11.5 25.6-25.6c-.1-14.1-11.5-25.6-25.6-25.6z" fill="#f3f4f5"/><path d="M396.8 356.8h-.4.4zm20.6 52.3c-.4.3-.8.5-1.3.7.5-.2.9-.5 1.3-.7z" fill="#f42753"/><path d="M403 389.6l36.5-24.3H403zm38.2-30.6h-39.9c-2.7 0-5 2.2-5 5v27c0 2.7 2.2 5 5 5h9.4c1.9 0 2.1.9 2.1 1.7v3.1h-5.5c-1.1 0-2.1.9-2.1 2.1 0 1.1.9 2.1 2.1 2.1H435c1.1 0 2.1-.9 2.1-2.1 0-1.1-.9-2.1-2.1-2.1h-5.5v-3.1c0-.7.2-1.7 2.1-1.7h9.4c2.7 0 5-2.2 5-5v-27c.2-2.8-2.1-5-4.8-5zm.7 31.9a.68.68 0 0 1-.7.7h-39.9a.68.68 0 0 1-.7-.7v-27a.68.68 0 0 1 .7-.7h39.9a.68.68 0 0 1 .7.7v27z" fill="#afd2ed"/><path d="M366.4 342.1c-13.8 0-25.1 11.2-25.1 25.1 0 13.8 11.2 25.1 25.1 25.1s25.1-11.2 25.1-25.1-11.2-25.1-25.1-25.1zm95 19c-16.8 0-30.4 13.6-30.4 30.4s13.6 30.4 30.4 30.4 30.4-13.6 30.4-30.4-13.7-30.4-30.4-30.4z" fill="#fff"/><path d="M299.8 376.9h.8c-1-1.1-1.6-2.5-1.6-4.1 0-2 .9-3.7 2.4-4.9v3c0 1 .5 1.8 1.2 1.8l.1-5.9a2.7 2.7 0 1 1 5.4 0v.4c2.1 1 3.7 3.1 3.7 5.6 0 1.6-.6 3-1.6 4.1h.8c.8 0 1.4.6 1.4 1.4s-.6 1.4-1.4 1.4h-4.7-1.8-4.7c-.8 0-1.4-.6-1.4-1.4s.6-1.4 1.4-1.4zm-.5 11.3c1.7-1.1 2.3-5.4 2.2-7.7h7.7c-.1 2.3.5 6.5 2.2 7.7 1.7 1.1 1.7 1.9 1.1 2.6H298c-.5-.7-.5-1.5 1.3-2.6zm13.7 9.3h-15.2a2.7 2.7 0 1 1 0-5.4H313a2.7 2.7 0 1 1 0 5.4zm68.1-16.3H353a.65.65 0 0 1-.6-.6v-26.8a.65.65 0 0 1 .6-.6.65.65 0 0 1 .6.6V380h1.1v-21h5v21h1.5v-12.6h5V380h1.5v-23.9h5V380h1.5v-9.5h5v9.5h1.9a.65.65 0 0 1 .6.6c0 .4-.3.6-.6.6zm72.3 25.8h-.9c-.7 1.6-1.4 3.6-1.8 5.2 0 0-1.4.1-2.6.9v-.3c.1-.6.6-1.7.6-1.9l.8-2.4c.7-1.7 1.6-3.4 2.8-4.8 1.4-1.7 3.2-2.9 4.9-4.3 1.6-1.4 3.1-3.1 4.3-4.9 1.9-2.6 3.4-5.4 4.9-8.2.1-.2.3-.5.2-.7s-.2-.5-.5-.5-.4.3-.5.5c-2.6 5.2-6.2 10.1-10.8 13.6-7 5.2-6.7 6.4-6.7 6.4-.1-.2-.1-.3-.1-.3-3.1-8.5-4.2-17.1 5.4-24.3s11.8-4.2 17.7-10c0 0 1.2-1 1.5 0 .3.8 15.8 34.5-19.2 36z" fill="#afd2ed"/></svg>