<?xml version="1.0" encoding="utf-8"?>
<!-- Generator: Adobe Illustrator 18.1.1, SVG Export Plug-In . SVG Version: 6.00 Build 0)  -->
<svg version="1.1" id="Layer_1" xmlns="http://www.w3.org/2000/svg" xmlns:xlink="http://www.w3.org/1999/xlink" x="0px" y="0px"
	 viewBox="0 280.2 612 185.8" enable-background="new 0 280.2 612 185.8" xml:space="preserve">
<g>
	<g>
		<path fill="#F7F5F5" d="M398,314.6c-17.1,0-30.9,13.9-30.9,30.9s13.9,30.9,30.9,30.9c17.1,0,30.9-13.9,30.9-30.9
			S415.2,314.6,398,314.6z"/>
	</g>
</g>
<path fill="#AFD2ED" d="M414.4,333.6c-2.1,0-4.1,0-6.2,0c-0.5,0-2-0.2-2.2,0.1c-0.3,0.4-0.1,2.3-0.1,3c-0.2,3.7-0.8,7.3-0.9,11.1
	c-0.1,2.7-0.5,7.6,2.7,8.7c1.4,0.5,3.1,0.2,4.1-0.8c0.6-0.6,0.9-1.3,1.1-2.1c0.1-0.3,0-1.2,0.2-1.4c0.2-0.2,1.1,0,1.3,0
	c0,3.6-1.8,8.1-5.3,9.6c-3.7,1.6-8-0.3-9.2-4.1c-0.6-2-0.4-4.1-0.3-6.1c0.1-2,0.3-4,0.5-5.9c0.4-4,0.8-8,1.1-12c-1.6,0-3.1,0-4.7,0
	c-0.7,0-1.4,0-2.1,0c-1.3,0-1.1,0-1.1,1.3c-0.2,2.7-0.5,5.4-0.7,8.1c-0.3,2.9-0.5,5.9-0.9,8.8c-0.3,2.8-0.6,6.1-2.2,8.5
	c-1.3,2-3.9,2.8-5.9,1.4c-0.9-0.6-1.6-1.7-1.7-2.9c-0.1-1.5,0.8-2.7,1.7-3.8c1.7-2.4,3.3-4.8,4.3-7.5c1.1-2.9,1.7-6,2-9
	c0.1-0.9,0.2-1.7,0.2-2.6c0-0.4,0.3-1.9,0.1-2.2c-0.2-0.3-1.8-0.1-2.2-0.1c-0.8,0-1.7,0.1-2.5,0.3c-1.3,0.4-2.4,1.1-3.2,2.1
	c-0.5,0.7-0.9,1.4-1.4,2.2c-0.5,0.8-0.8,0.6-1.7,0.5c1.1-3.1,2.1-7.6,5.4-9.1c3.4-1.5,7.8-1.2,11.4-1.3c4.2,0,8.4,0,12.6,0
	c1.1,0,2.1,0,3.1,0c0.4,0,2.5-0.2,2.7,0c0.3,0.3,0,2.4,0,2.8C414.4,331.9,414.4,332.8,414.4,333.6z"/>
<circle fill="#FFE48E" cx="305.3" cy="382.6" r="53.6"/>
<path fill="#EEECEB" d="M396.7,402.2v-19.6H254.9c-10.8,0-19.6,8.7-19.6,19.6h-92.8v19.6h321.2v-19.6H396.7z"/>
<g>
	<path fill="#F7F5F5" d="M356.6,359.2c-17.2,0-31.1,13.9-31.1,31.1s13.9,31.1,31.1,31.1s31.1-13.9,31.1-31.1
		S373.8,359.2,356.6,359.2z"/>
</g>
<g>
	<path fill="#AFD2ED" d="M377.1,392.6c-0.4-0.3-0.9-0.5-1.4-0.7c-0.3-0.1-0.3-0.3-0.3-0.5c0.1-2,0-3.9-0.6-5.8c0-0.2,0-0.4,0.1-0.5
		c1.5-1.2,3.1-2.4,4.6-3.6c0,0,0.1,0,0.1,0c-1-1.8-2-3.7-2.9-5.5c-0.9,0.3-1.8,0.7-2.6,1c-0.9,0.3-1.9,0.6-2.8,0.9
		c-0.3,0.1-0.5,0-0.8-0.2c-1.2-1.4-2.7-2.6-4.3-3.5c-0.3-0.2-0.4-0.3-0.3-0.7c0.3-1.7,0.4-3.4,0.6-5.1c0-0.2,0.1-0.4,0.1-0.6
		c-2-0.6-3.9-1.2-5.9-1.8c-0.9,1.8-1.8,3.7-2.6,5.4c-1.6,0.1-3.1,0.2-4.6,0.3c-0.5,0.1-1,0.3-1.6,0.3c-0.2,0-0.4,0-0.5-0.1
		c-1.2-1.5-2.3-2.9-3.5-4.4c0-0.1-0.1-0.2-0.1-0.3c-1.8,1-3.7,2-5.5,2.9c0.3,0.9,0.7,1.8,1,2.6c0.3,0.9,0.6,1.9,0.9,2.8
		c0.1,0.3,0.1,0.5-0.2,0.8c-1.4,1.2-2.6,2.6-3.5,4.3c-0.2,0.3-0.4,0.4-0.8,0.3c-1.9-0.3-3.8-0.5-5.6-0.7c-0.6,2-1.2,3.9-1.8,5.9
		c1,0.5,2,1,3.1,1.5c0.7,0.4,1.5,0.7,2.1,1.1c0.1,0.1,0.3,0.3,0.3,0.5c-0.1,2,0.1,3.9,0.6,5.8c0,0.1,0,0.3-0.1,0.4
		c-1.5,1.2-3.1,2.4-4.7,3.6c0,0,0,0-0.1,0c1,1.8,2,3.7,2.9,5.5c1-0.3,2-0.7,3-1c0.9-0.3,1.7-0.5,2.5-0.8c0.3-0.1,0.5-0.1,0.7,0.2
		c1.2,1.5,2.7,2.6,4.4,3.6c0.3,0.2,0.4,0.3,0.3,0.7c-0.3,1.9-0.5,3.8-0.7,5.7c2,0.6,3.9,1.2,5.9,1.8c0.4-0.8,0.8-1.6,1.2-2.5
		c0.5-0.9,0.9-1.8,1.4-2.7c0.1-0.3,0.3-0.3,0.6-0.3c2,0.1,3.9-0.1,5.8-0.6c0.1,0,0.4,0,0.5,0.1c1.2,1.5,2.4,3,3.5,4.6
		c0,0,0,0.1,0.1,0.2c1.8-1,3.7-2,5.5-2.9c-0.3-1-0.7-2-1-2.9c-0.3-0.9-0.6-1.8-0.9-2.6c0-0.2,0-0.5,0.1-0.6c1.6-1.4,2.9-3,3.9-4.9
		c2,0.2,4.1,0.5,6.1,0.7c0.6-2,1.2-3.9,1.6-5.9C379.6,393.9,378.3,393.3,377.1,392.6z M356.7,399.2c-4.9,0-8.8-4-8.8-8.8
		c0-4.9,4-8.8,8.8-8.8s8.8,4,8.8,8.8C365.5,395.2,361.5,399.2,356.7,399.2z"/>
	<path fill="#AFD2ED" d="M356.7,383.1c-4,0-7.2,3.2-7.2,7.2s3.2,7.2,7.2,7.2s7.2-3.2,7.2-7.2S360.6,383.1,356.7,383.1z M356.7,393.7
		c-1.9,0-3.4-1.5-3.4-3.4c0-1.9,1.5-3.4,3.4-3.4s3.4,1.5,3.4,3.4C360.1,392.2,358.5,393.7,356.7,393.7z"/>
</g>
<path fill="#84A8A6" d="M575.5,455.6c0.2,0.1,0.2,0.2,0,0.2h-397c-0.2,0-0.2-0.1,0-0.1l47.8-16.2c0.2-0.1,0.5,0,0.7,0l14.8,7.3
	c0.2,0.1,0.5,0.1,0.7,0.1l62.5-18.7c0.2-0.1,0.5-0.1,0.7,0l39,8c0.2,0,0.5,0.1,0.7,0l54.4-6.6c0.2,0,0.5,0,0.7,0l40.6,6.2
	c0.2,0,0.5,0,0.7,0l58.8-17.4c0.2-0.1,0.5,0,0.7,0.1L575.5,455.6z"/>
<path fill="#043F3A" d="M135.7,350.9c-3.3-1-5.4-3.4-5.5-6.9c-0.2-3.5-0.1-6.7-0.1-10.7c0.9,0.1,1.7,0.4,2.1,1.1
	c0.7,1.1,1,2.5,1.6,3.7c0.3-0.4,0.3-1,0.5-1.5c0,0,0-0.1,0.1-0.1h0.1c0.1,0,0.3,0,0.4,0c0.3,0.1,0.4,0.5,0.3,0.7c0,0,0,0.1,0,0.2
	s0,0.2,0,0.3v0.1v0.1l0,0v0.1c0,0,0,0.1,0.1,0.1c0,0.1,0,0.2,0.1,0.3c0.1,0.1,0.2,0.2,0.3,0.3c1.2-1,0.4-3.4-0.5-4.6
	c-1.9-2.4-2.8-2.8-6.8-3.9c-1.3-0.5-2.5-0.9-2.8-0.9c-2.4-0.4-4.8-0.9-7.2-1.5c-0.5-0.1-0.8-0.8-1.2-1.2c0.5-0.4,0.9-1,1.6-1.1
	c2.1-0.5,0.6-2.4,1.1-3.7c0-0.1,0.1-0.2,0.1-0.3v-0.1v-0.1v-0.1v-0.1c0-0.1-0.1-0.1-0.1-0.2s-0.1-0.2-0.1-0.2
	c-0.1-0.1-0.2-0.3-0.3-0.4c-0.1-0.2-0.2-0.3-0.3-0.5c-0.1-0.1-0.1-0.1-0.1-0.2l0,0c0-0.1,0-0.1-0.1-0.2c0.1-0.1,0.2-0.2,0.3-0.3
	c0.1-0.1,0.2-0.2,0.1-0.3c-0.1-0.1-0.2-0.1-0.3-0.2s-0.2-0.2-0.2-0.3c-0.1-0.1-0.2-0.2-0.3-0.3c-0.1-0.1-0.1-0.1-0.2-0.1
	c-0.1-0.1-0.2-0.1-0.2-0.2c-0.1-0.1-0.2-0.1-0.3-0.2c-0.1,0-0.2-0.1-0.3-0.2c-0.1-0.1-0.2-0.1-0.3-0.2c-0.1-0.1-0.2-0.1-0.3-0.1
	c-0.1,0-0.2-0.1-0.3-0.1c-0.2-0.1-0.4-0.1-0.6-0.2c-0.1,0-0.2,0-0.3-0.1c0,0-0.1,0-0.2,0c0,0,0,0-0.1,0.1c-0.2,0-0.4-0.1-0.6-0.1
	c0,0-0.1,0-0.1-0.1v0.1c-1.2,0.1-2.8,0.8-3.1,1.7c-0.7,2-1,3.9-0.1,6c0.1,0.2,0,0.9-0.1,0.9c-1.8,0.3-2.7,2.8-3.3,4.3
	c-0.2,0.4-0.3,0.8-0.3,1.2c-1,5.2-1.7,10,0,15.1c0.5,1.6,1.6,2.5,3.1,2.9c3.8,1.1,7.2,0.1,9.9-2.7c1.2-1.3,2.4-2.9,3.8-4.6
	c0.8,2,2,3.7,2.4,5.7c0.3,1.6-0.2,3.2-0.4,5c3,1,6,1.9,9.3,1.7c0.6-0.1,1.6-0.5,1.7-0.9C137.4,351.5,136.5,351.1,135.7,350.9z
	 M118.2,335.3c-0.2-0.1-0.3-0.1-0.5-0.2c0.2-0.8,0.3-1.7,0.5-2.6c0.8,0,1.6,0,2.8,0.1C120,333.6,119.2,334.5,118.2,335.3z"/>
<polygon fill="#043F3A" points="235.8,466 204.1,427.2 197.9,425.3 170.8,388.7 157.8,383.1 136.3,361.4 131.9,357.4 130.3,353 
	111.4,344.2 104.7,346.2 91.6,361.4 75.8,381.6 66.2,407.4 49.7,432.8 35.6,466 "/>
<rect y="280.2" fill="none" width="612" height="185.7"/>
<path fill="#AFD2ED" d="M351.6,377.2c-1.9,0.6-3.1,2.8-2.4,4.8c0.6,1.9,2.8,3.1,4.8,2.4c1.9-0.6,3.1-2.8,2.5-4.7
	C355.9,377.7,353.6,376.5,351.6,377.2z"/>
<path fill="#F3F4F5" d="M421.9,340.8c-22.3,0-40.3,18-40.3,40.3c0,22.2,18,40.2,40.2,40.2s40.2-18,40.2-40.2
	C462.1,358.8,444.1,340.8,421.9,340.8z"/>
<g>
	<path fill="#F3F4F5" d="M305.4,357c-14.2,0-25.6,11.5-25.6,25.6s11.5,25.6,25.6,25.6s25.6-11.5,25.6-25.6
		C330.9,368.5,319.5,357,305.4,357z"/>
</g>
<path fill="#F42753" d="M396.8,356.8c-0.1,0-0.3,0-0.4,0H396.8z"/>
<path fill="#F42753" d="M417.4,409.1c-0.4,0.3-0.8,0.5-1.3,0.7C416.6,409.6,417,409.3,417.4,409.1z"/>
<g>
	<polygon fill="#AFD2ED" points="403,389.6 439.5,365.3 403,365.3 	"/>
	<path fill="#AFD2ED" d="M441.2,359h-39.9c-2.7,0-5,2.2-5,5v27c0,2.7,2.2,5,5,5h9.4c1.9,0,2.1,0.9,2.1,1.7v3.1h-5.5
		c-1.1,0-2.1,0.9-2.1,2.1c0,1.1,0.9,2.1,2.1,2.1h27.7c1.1,0,2.1-0.9,2.1-2.1c0-1.1-0.9-2.1-2.1-2.1h-5.5v-3.1c0-0.7,0.2-1.7,2.1-1.7
		h9.4c2.7,0,5-2.2,5-5v-27C446.2,361.2,443.9,359,441.2,359z M441.9,390.9c0,0.4-0.3,0.7-0.7,0.7h-39.9c-0.4,0-0.7-0.3-0.7-0.7v-27
		c0-0.4,0.3-0.7,0.7-0.7h39.9c0.4,0,0.7,0.3,0.7,0.7V390.9z"/>
</g>
<path fill="#FFFFFF" d="M366.4,342.1c-13.8,0-25.1,11.2-25.1,25.1c0,13.8,11.2,25.1,25.1,25.1s25.1-11.2,25.1-25.1
	S380.3,342.1,366.4,342.1z"/>
<g>
	<g>
		<path fill="#FFFFFF" d="M461.4,361.1c-16.8,0-30.4,13.6-30.4,30.4s13.6,30.4,30.4,30.4s30.4-13.6,30.4-30.4
			S478.1,361.1,461.4,361.1z"/>
	</g>
</g>
<path fill="#AFD2ED" d="M299.8,376.9h0.8c-1-1.1-1.6-2.5-1.6-4.1c0-2,0.9-3.7,2.4-4.9v3c0,1,0.5,1.8,1.2,1.8c0,0,0.1-5.8,0.1-5.9
	c0-1.5,1.2-2.7,2.7-2.7c1.5,0,2.7,1.2,2.7,2.7c0,0.1,0,0.3,0,0.4c2.1,1,3.7,3.1,3.7,5.6c0,1.6-0.6,3-1.6,4.1h0.8
	c0.8,0,1.4,0.6,1.4,1.4s-0.6,1.4-1.4,1.4h-4.7h-1.8h-4.7c-0.8,0-1.4-0.6-1.4-1.4S299,376.9,299.8,376.9z M299.3,388.2
	c1.7-1.1,2.3-5.4,2.2-7.7h7.7c-0.1,2.3,0.5,6.5,2.2,7.7c1.7,1.1,1.7,1.9,1.1,2.6h-14.5C297.5,390.1,297.5,389.3,299.3,388.2z
	 M313,397.5h-15.2c-1.5,0-2.7-1.2-2.7-2.7c0-1.5,1.2-2.7,2.7-2.7H313c1.5,0,2.7,1.2,2.7,2.7C315.7,396.3,314.5,397.5,313,397.5z"/>
<path fill="#AFD2ED" d="M381.1,381.2H353c-0.3,0-0.6-0.3-0.6-0.6v-26.8c0-0.3,0.3-0.6,0.6-0.6c0.3,0,0.6,0.3,0.6,0.6V380h1.1V359h5
	V380h1.5v-12.6h5V380h1.5v-23.9h5V380h1.5v-9.5h5v9.5h1.9c0.3,0,0.6,0.3,0.6,0.6C381.7,381,381.4,381.2,381.1,381.2z"/>
<path fill="#AFD2ED" d="M453.4,407c-0.3,0-0.6,0-0.9,0c-0.7,1.6-1.4,3.6-1.8,5.2c0,0-1.4,0.1-2.6,0.9v-0.3c0.1-0.6,0.6-1.7,0.6-1.9
	c0.3-0.8,0.5-1.6,0.8-2.4c0.7-1.7,1.6-3.4,2.8-4.8c1.4-1.7,3.2-2.9,4.9-4.3c1.6-1.4,3.1-3.1,4.3-4.9c1.9-2.6,3.4-5.4,4.9-8.2
	c0.1-0.2,0.3-0.5,0.2-0.7s-0.2-0.5-0.5-0.5s-0.4,0.3-0.5,0.5c-2.6,5.2-6.2,10.1-10.8,13.6c-7,5.2-6.7,6.4-6.7,6.4
	c-0.1-0.2-0.1-0.3-0.1-0.3c-3.1-8.5-4.2-17.1,5.4-24.3c9.6-7.2,11.8-4.2,17.7-10c0,0,1.2-1,1.5,0C472.9,371.8,488.4,405.5,453.4,407
	z"/>
</svg>
