<?xml version="1.0" encoding="utf-8"?>
<!-- Generator: Adobe Illustrator 18.1.1, SVG Export Plug-In . SVG Version: 6.00 Build 0)  -->
<svg version="1.1" id="Layer_3" xmlns="http://www.w3.org/2000/svg" xmlns:xlink="http://www.w3.org/1999/xlink" x="0px" y="0px"
	 viewBox="0 280.2 612 185.8" enable-background="new 0 280.2 612 185.8" xml:space="preserve">
<g>
	<g>
		<g>
			<path fill="#F7F5F5" d="M398,314.6c-17.1,0-30.9,13.9-30.9,30.9s13.9,30.9,30.9,30.9c17.1,0,30.9-13.9,30.9-30.9
				S415.2,314.6,398,314.6z"/>
		</g>
	</g>
	<g>
		<circle fill="#AFD2ED" cx="398" cy="345.5" r="3.5"/>
		<path fill="#AFD2ED" d="M419.8,333.3c-1.8-3.2-6.8-4-13.1-2.6c-1.9-6.2-5-10.1-8.7-10.1c-3.6,0-6.7,3.8-8.6,9.9
			c-6.2-1.4-11.1-0.7-13,2.4c-1.8,3.1-0.1,7.8,4.2,12.4c-4.4,4.7-6.2,9.2-4.5,12.4c1.8,3.2,6.8,4,13.1,2.6c1.9,6.2,5,10.1,8.7,10.1
			c3.6,0,6.7-3.8,8.6-9.9c6.2,1.4,11.1,0.7,13-2.4c1.8-3.1,0.1-7.7-4.2-12.4C419.8,341,421.6,336.4,419.8,333.3z M378.8,334.3
			c1.1-1.8,4.8-2.3,9.8-1.2c-0.4,1.9-0.8,4.1-1,6.3c-1.8,1.3-3.5,2.6-5,4C379.2,339.5,377.7,336.1,378.8,334.3z M387.3,347.8
			c-1-0.8-1.9-1.6-2.7-2.4c0.8-0.8,1.7-1.6,2.7-2.3c0,0.8,0,1.6,0,2.4C387.3,346.3,387.3,347,387.3,347.8z M378.6,356.4
			c-1-1.9,0.4-5.3,4-9.1c1.4,1.4,3.1,2.8,5,4.1c0.2,2.2,0.6,4.3,1,6.2C383.4,358.8,379.7,358.3,378.6,356.4z M405.3,337.5
			c-0.6-0.4-1.3-0.8-1.9-1.2c-0.6-0.4-1.3-0.8-2-1.1c1.2-0.4,2.2-0.8,3.3-1.1C404.9,335.1,405.2,336.3,405.3,337.5z M398,323.3
			c2.1,0,4.4,3,6,8.1c-1.9,0.6-3.9,1.3-5.8,2.2c-2.1-1-4.1-1.7-6-2.3C393.6,326.2,395.9,323.3,398,323.3z M391.4,333.9
			c1.1,0.4,2.2,0.8,3.4,1.2c-0.7,0.3-1.4,0.7-2,1.1c-0.7,0.4-1.4,0.8-2.1,1.2C390.9,336.2,391.1,335,391.4,333.9z M390.6,353.5
			c0.6,0.4,1.3,0.8,1.9,1.2c0.7,0.4,1.4,0.8,2,1.1c-1.2,0.4-2.2,0.8-3.3,1.1C391,355.8,390.8,354.7,390.6,353.5z M398,367.7
			c-2.1,0-4.4-3-6-8.1c1.9-0.6,3.9-1.3,5.8-2.2c2.1,1,4.1,1.7,6,2.3C402.3,364.8,400.1,367.7,398,367.7z M404.6,357.1
			c-1.1-0.4-2.2-0.8-3.4-1.2c0.7-0.4,1.3-0.7,2-1.1c0.7-0.4,1.4-0.8,2.1-1.2C405.1,354.8,404.9,356,404.6,357.1z M405.7,350
			c-1.2,0.8-2.5,1.6-3.9,2.3c-1.3,0.8-2.7,1.4-3.9,2c-1.3-0.6-2.6-1.4-3.9-2.1c-1.3-0.8-2.6-1.6-3.7-2.4c-0.1-1.4-0.2-2.9-0.2-4.4
			c0-1.6,0-3.1,0.2-4.5c1.2-0.8,2.5-1.6,3.9-2.4c1.3-0.8,2.7-1.4,3.9-2c1.3,0.6,2.6,1.4,3.9,2.1c1.3,0.8,2.6,1.6,3.7,2.4
			c0.1,1.4,0.2,2.9,0.2,4.4C405.9,347.1,405.8,348.6,405.7,350z M417.4,334.6c1,1.9-0.4,5.3-4,9.1c-1.5-1.4-3.1-2.7-5-4.1
			c-0.2-2.2-0.6-4.3-1-6.2C412.6,332.2,416.3,332.7,417.4,334.6z M408.6,343.2c1,0.8,1.9,1.6,2.7,2.4c-0.8,0.8-1.7,1.5-2.7,2.3
			c0-0.8,0-1.6,0-2.4C408.7,344.8,408.7,344,408.6,343.2z M417.2,356.7c-1.1,1.8-4.8,2.3-9.8,1.1c0.4-1.9,0.8-4.1,1-6.3
			c1.8-1.3,3.5-2.6,5-3.9C416.8,351.4,418.3,354.9,417.2,356.7z"/>
	</g>
</g>
<circle fill="#FFE48E" cx="305.3" cy="382.6" r="53.6"/>
<path fill="#EEECEB" d="M396.7,402.2v-19.6H254.9c-10.8,0-19.6,8.7-19.6,19.6h-92.8v19.6h321.2v-19.6H396.7z"/>
<g>
	<path fill="#84A8A6" d="M575.5,455.6c0.2,0.1,0.2,0.2,0,0.2h-397c-0.2,0-0.2-0.1,0-0.1l47.8-16.2c0.2-0.1,0.5,0,0.7,0l14.8,7.3
		c0.2,0.1,0.5,0.1,0.7,0.1l62.5-18.7c0.2-0.1,0.5-0.1,0.7,0l39,8c0.2,0,0.5,0.1,0.7,0l54.4-6.6c0.2,0,0.5,0,0.7,0l40.6,6.2
		c0.2,0,0.5,0,0.7,0l58.8-17.4c0.2-0.1,0.5,0,0.7,0.1L575.5,455.6z"/>
</g>
<g>
	<g>
		<path fill="#F7F5F5" d="M356.6,359.2c-17.2,0-31.1,13.9-31.1,31.1s13.9,31.1,31.1,31.1s31.1-13.9,31.1-31.1
			S373.8,359.2,356.6,359.2z"/>
	</g>
</g>
<path fill="#043F3A" d="M135.7,350.9c-3.3-1-5.4-3.4-5.5-6.9c-0.2-3.5-0.1-6.7-0.1-10.7c0.9,0.1,1.7,0.4,2.1,1.1
	c0.7,1.1,1,2.5,1.6,3.7c0.3-0.4,0.3-1,0.5-1.5c0,0,0-0.1,0.1-0.1h0.1c0.1,0,0.3,0,0.4,0c0.3,0.1,0.4,0.5,0.3,0.7c0,0,0,0.1,0,0.2
	s0,0.2,0,0.3v0.1v0.1l0,0v0.1c0,0,0,0.1,0.1,0.1c0,0.1,0,0.2,0.1,0.3c0.1,0.1,0.2,0.2,0.3,0.3c1.2-1,0.4-3.4-0.5-4.6
	c-1.9-2.4-2.8-2.8-6.8-3.9c-1.3-0.5-2.5-0.9-2.8-0.9c-2.4-0.4-4.8-0.9-7.2-1.5c-0.5-0.1-0.8-0.8-1.2-1.2c0.5-0.4,0.9-1,1.6-1.1
	c2.1-0.5,0.6-2.4,1.1-3.7c0-0.1,0.1-0.2,0.1-0.3v-0.1v-0.1v-0.1v-0.1c0-0.1-0.1-0.1-0.1-0.2s-0.1-0.2-0.1-0.2
	c-0.1-0.1-0.2-0.3-0.3-0.4c-0.1-0.2-0.2-0.3-0.3-0.5c-0.1-0.1-0.1-0.1-0.1-0.2l0,0c0-0.1,0-0.1-0.1-0.2c0.1-0.1,0.2-0.2,0.3-0.3
	c0.1-0.1,0.2-0.2,0.1-0.3c-0.1-0.1-0.2-0.1-0.3-0.2s-0.2-0.2-0.2-0.3c-0.1-0.1-0.2-0.2-0.3-0.3c-0.1-0.1-0.1-0.1-0.2-0.1
	c-0.1-0.1-0.2-0.1-0.2-0.2c-0.1-0.1-0.2-0.1-0.3-0.2c-0.1,0-0.2-0.1-0.3-0.2c-0.1-0.1-0.2-0.1-0.3-0.2c-0.1-0.1-0.2-0.1-0.3-0.1
	c-0.1,0-0.2-0.1-0.3-0.1c-0.2-0.1-0.4-0.1-0.6-0.2c-0.1,0-0.2,0-0.3-0.1c0,0-0.1,0-0.2,0c0,0,0,0-0.1,0.1c-0.2,0-0.4-0.1-0.6-0.1
	c0,0-0.1,0-0.1-0.1v0.1c-1.2,0.1-2.8,0.8-3.1,1.7c-0.7,2-1,3.9-0.1,6c0.1,0.2,0,0.9-0.1,0.9c-1.8,0.3-2.7,2.8-3.3,4.3
	c-0.2,0.4-0.3,0.8-0.3,1.2c-1,5.2-1.7,10,0,15.1c0.5,1.6,1.6,2.5,3.1,2.9c3.8,1.1,7.2,0.1,9.9-2.7c1.2-1.3,2.4-2.9,3.8-4.6
	c0.8,2,2,3.7,2.4,5.7c0.3,1.6-0.2,3.2-0.4,5c3,1,6,1.9,9.3,1.7c0.6-0.1,1.6-0.5,1.7-0.9C137.4,351.5,136.5,351.1,135.7,350.9z
	 M118.2,335.3c-0.2-0.1-0.3-0.1-0.5-0.2c0.2-0.8,0.3-1.7,0.5-2.6c0.8,0,1.6,0,2.8,0.1C120,333.6,119.2,334.5,118.2,335.3z"/>
<polygon fill="#043F3A" points="235.8,466 204.1,427.2 197.9,425.3 170.8,388.7 157.8,383.1 136.3,361.4 131.9,357.4 130.3,353 
	111.4,344.2 104.7,346.2 91.6,361.4 75.8,381.6 66.2,407.4 49.7,432.8 35.6,466 "/>
<rect y="280.2" fill="none" width="612" height="185.7"/>
<g>
	<path fill="#AFD2ED" d="M351.6,377.2c-1.9,0.6-3.1,2.8-2.4,4.8c0.6,1.9,2.8,3.1,4.8,2.4c1.9-0.6,3.1-2.8,2.5-4.7
		C355.9,377.7,353.6,376.5,351.6,377.2z"/>
	<path fill="#AFD2ED" d="M356.6,367c-13.5,0-24.5,11-24.5,24.5c0,13.5,11,24.5,24.5,24.5c13.5,0,24.5-10.9,24.5-24.5
		S370.1,367,356.6,367z M361.1,405.9c-1.9,0.7-4.1-0.4-4.8-2.4c-0.7-1.9,0.3-4,2.3-4.7c2-0.7,4.1,0.3,4.8,2.3
		C364.1,403.1,363.1,405.2,361.1,405.9z M369.1,407.9c-1.1,0.9-2.4,1.6-3.5,2.3c0-0.1-0.1-0.1-0.1-0.2c0.2-0.2,0.5-0.4,0.7-0.6
		c3.8-3.1,4.9-8.6,2.6-12.8c-2.5-4.5-7.4-6.7-12.3-5.2c-5.5,1.7-10.4-0.3-12.9-5.5c-1.7-3.5-1.8-9.2,3-12.6c2.1-1.4,4.5-2.1,7-2.4
		c9.2-1.3,18.2,3.9,21.8,12.5C379.1,392.1,376.5,402.2,369.1,407.9z"/>
</g>
<g>
	<path fill="#F3F4F5" d="M421.9,340.8c-22.3,0-40.3,18-40.3,40.3c0,22.2,18,40.2,40.2,40.2s40.2-18,40.2-40.2
		C462.1,358.8,444.1,340.8,421.9,340.8z"/>
</g>
<g>
	<path fill="#AFD2ED" d="M397.9,359.6c-1.9,0.2-3.2,1.9-3,3.8s1.9,3.2,3.8,3s3.2-1.9,3-3.8S399.7,359.3,397.9,359.6z"/>
	<path fill="#AFD2ED" d="M453.4,399.7c-0.4-3.4-3.4-5.8-6.8-5.5l-6.1,0.7l-4-36.2c-0.4-3.4-3.4-5.8-6.8-5.5l-32.9,3.6
		c0.1,0,0.1,0,0.2,0c-3,0.6-5.2,3.5-4.8,6.7c0.4,3.4,3.4,5.8,6.8,5.5l4.9-0.6l4,36.2c0.4,3.4,3.4,5.8,6.8,5.5l33.4-3.7
		C451.4,406.1,453.8,403,453.4,399.7z M398.9,367.9c-2.8,0.3-5.2-1.7-5.6-4.4c-0.3-2.8,1.7-5.2,4.4-5.6c2.2-0.3,4.1,0.9,5,2.8
		c0.2,0.5,0.4,1.1,0.5,1.6l0.6,5L398.9,367.9z M437.8,392l-27.9,3.1l-0.1-1.3l27.9-3.1L437.8,392z M406.5,364l27.9-3.1l0.1,1.3
		l-27.9,3.1L406.5,364z M407.1,369.9l27.9-3.1l0.1,1.3l-27.9,3.1L407.1,369.9z M407.8,375.9l27.9-3.1l0.1,1.3l-27.9,3.1L407.8,375.9
		z M408.4,381.8l27.9-3.1l0.1,1.3l-27.9,3.1L408.4,381.8z M409.1,387.7l27.9-3.1l0.1,1.3l-27.9,3.1L409.1,387.7z M414,408.4
		c-2.4,0-4.4-2-4.4-4.4c0-2.4,2-4.4,4.4-4.4c2.4,0,4.4,2,4.4,4.4C418.4,406.4,416.4,408.4,414,408.4z M447.9,405.3l-28.1,3.1
		c1.1-1.4,1.6-3.2,1.4-5.2c-0.2-2-1.1-3.6-2.5-4.8l28.1-3.1c2.8-0.3,5.2,1.6,5.5,4.4C452.6,402.6,450.6,405,447.9,405.3z"/>
</g>
<path fill="#FFFFFF" d="M366.4,342.1c-13.8,0-25.1,11.2-25.1,25.1c0,13.8,11.2,25.1,25.1,25.1s25.1-11.2,25.1-25.1
	S380.3,342.1,366.4,342.1z"/>
<g>
	<g>
		<g>
			<path fill="#FFFFFF" d="M461.4,361.1c-16.8,0-30.4,13.6-30.4,30.4s13.6,30.4,30.4,30.4s30.4-13.6,30.4-30.4
				S478.1,361.1,461.4,361.1z"/>
		</g>
	</g>
	<g>
		<path fill="#AFD2ED" d="M478.6,412.2v1.6H477h-30.1h-1.6v-1.6v-3.4c0-0.8,0.7-1.6,1.6-1.6h11.9c-3.2-1-5.9-3-7.6-5.8h-6.5v-2.6
			h5.3h5.6h5.7v2.7H458c1.4,1,3,1.5,4.8,1.5c4.6,0,8.4-3.8,8.4-8.4c0-1.8-0.5-3.4-1.5-4.7c-0.4,0.1-0.8,0.1-1.3,0.1
			c-2.2,0-4.2-1.2-5.2-3.1l-2.7,4.4l2.2,1.4l-2.2,3.6l-11.4-7l2.2-3.6l2.2,1.4l9.7-15.8c0.5-0.8,1.8-1.6,3.2-0.9l3.2-5.3l3.2,2
			l-3.2,5.3c1.2,0.9,1.2,2.4,0.6,3.2l-1.5,2.5c3.2,0.1,5.7,2.8,5.7,6c0,1-0.2,2-0.7,2.8c1.6,2.2,2.6,4.9,2.6,7.8c0,6-4,11-9.5,12.7
			h10.2c0.8,0,1.6,0.7,1.6,1.6L478.6,412.2L478.6,412.2z"/>
	</g>
</g>
<g>
	<g>
		<path fill="#F3F4F5" d="M305.4,357c-14.2,0-25.6,11.5-25.6,25.6s11.5,25.6,25.6,25.6s25.6-11.5,25.6-25.6
			C330.9,368.5,319.5,357,305.4,357z"/>
	</g>
	<path fill="#AFD2ED" d="M321.6,393.3c-0.1-0.2-3.2-3.6-8.9-4.6c0.6-2.9,1.3-7.6-1.5-11c-1.9-2.2-5-3.5-9.3-3.7
		c0.1-3.1-0.4-6.5-1.4-9.5c-0.3-1-1.4-1.5-2.4-1.2s-1.5,1.4-1.2,2.4c0,0.1,0.1,0.3,0.1,0.4l-5.7,4.1c-0.3-0.3-0.8-0.4-1.2-0.4
		c-0.5,0-0.9,0.2-1.2,0.5c-0.8,0.7-0.9,1.9-0.2,2.7c0.1,0.2,3.2,3.6,8.9,4.6c-0.6,2.9-1.3,7.6,1.5,11c1.9,2.2,5,3.5,9.3,3.7
		c-0.1,3.1,0.4,6.5,1.4,9.5c0.3,1,1.4,1.5,2.4,1.2s1.5-1.4,1.2-2.4c-0.1-0.2-0.1-0.4-0.2-0.6l5.6-4.1c0.4,0.3,0.8,0.5,1.3,0.5
		c0.5,0,0.9-0.2,1.2-0.5C322.2,395.2,322.3,394,321.6,393.3z M292.4,371.1l5.1-3.7c0.2,0.8,0.3,1.5,0.4,2.2l-3.7,2.7
		C293.5,371.9,292.9,371.5,292.4,371.1z M298.2,373.7c-1-0.2-1.8-0.4-2.6-0.7l2.5-1.8C298.2,372,298.2,372.8,298.2,373.7z
		 M301.5,378c0-0.1,0-0.2,0-0.2c1.8,0.1,3.4,0.3,4.6,0.8l-5.1,3.7C301,380.8,301.3,379.2,301.5,378z M302.1,386
		c-0.6-0.7-0.9-1.4-1-2.3l6.3-4.6c0.4,0.3,0.7,0.5,1,0.9c0.6,0.8,0.9,1.6,1.1,2.6l-6.1,4.4C302.9,386.8,302.5,386.4,302.1,386z
		 M309,388.2c0,0.1,0,0.2,0,0.2c-1.7-0.1-3.1-0.3-4.3-0.7l4.8-3.5C309.5,385.6,309.2,387,309,388.2z M312.3,392.4
		c1.1,0.2,2.1,0.5,2.9,0.9l-2.8,2C312.3,394.3,312.3,393.4,312.3,392.4z M313,398.5c-0.2-0.6-0.3-1.1-0.4-1.7l3.9-2.8
		c0.6,0.3,1,0.7,1.4,1L313,398.5z"/>
</g>
<path fill="#F42753" d="M396.8,356.8c-0.1,0-0.3,0-0.4,0L396.8,356.8z"/>
<path fill="#F42753" d="M417.4,409.1c-0.4,0.3-0.8,0.5-1.3,0.7C416.6,409.6,417,409.3,417.4,409.1z"/>
<path fill="#AFD2ED" d="M387,356.7c-0.2-0.2-0.5-0.2-0.7,0c-5.9,6.5-10.3,9.5-13,8.9c-1.2-0.2-2.1-1.2-2.7-2.8
	c-0.9-2.3-2.1-4.8-4.5-5.2c-2.1-0.4-5.4,0.3-13.4,8.1v-12.6h2.6l-3.1-3.1l-3.1,3.1h2.6v13.7c-1.2,1.2-2.5,2.6-4,4.2
	c-0.2,0.2-0.2,0.5,0,0.7c0.1,0.1,0.2,0.1,0.4,0.1c0.1,0,0.3-0.1,0.4-0.2c1.1-1.2,2.2-2.3,3.2-3.4v13.6h28.8v2.6l3.1-3.1l-3.1-3.1
	v2.6h-5.3v-14.2c3-0.6,6.8-3.6,11.9-9.2C387.3,357.2,387.3,356.9,387,356.7z M359.7,380.8h-6.9v-13.6c2.7-2.7,5-4.7,6.9-6.1V380.8z"
	/>
</svg>
