<svg xmlns="http://www.w3.org/2000/svg" viewBox="0 280.2 612 185.8" xmlns:v="https://vecta.io/nano"><path fill="#f7f5f5" d="M398 314.6c-17.1 0-30.9 13.9-30.9 30.9s13.9 30.9 30.9 30.9c17.1 0 30.9-13.9 30.9-30.9s-13.7-30.9-30.9-30.9z"/><g fill="#afd2ed"><circle cx="398" cy="345.5" r="3.5"/><path d="M419.8 333.3c-1.8-3.2-6.8-4-13.1-2.6-1.9-6.2-5-10.1-8.7-10.1-3.6 0-6.7 3.8-8.6 9.9-6.2-1.4-11.1-.7-13 2.4-1.8 3.1-.1 7.8 4.2 12.4-4.4 4.7-6.2 9.2-4.5 12.4 1.8 3.2 6.8 4 13.1 2.6 1.9 6.2 5 10.1 8.7 10.1 3.6 0 6.7-3.8 8.6-9.9 6.2 1.4 11.1.7 13-2.4 1.8-3.1.1-7.7-4.2-12.4 4.5-4.7 6.3-9.3 4.5-12.4zm-41 1c1.1-1.8 4.8-2.3 9.8-1.2-.4 1.9-.8 4.1-1 6.3-1.8 1.3-3.5 2.6-5 4-3.4-3.9-4.9-7.3-3.8-9.1zm8.5 13.5c-1-.8-1.9-1.6-2.7-2.4.8-.8 1.7-1.6 2.7-2.3v2.4 2.3zm-8.7 8.6c-1-1.9.4-5.3 4-9.1 1.4 1.4 3.1 2.8 5 4.1.2 2.2.6 4.3 1 6.2-5.2 1.2-8.9.7-10-1.2zm26.7-18.9c-.6-.4-1.3-.8-1.9-1.2a12.81 12.81 0 0 0-2-1.1c1.2-.4 2.2-.8 3.3-1.1.2 1 .5 2.2.6 3.4zm-7.3-14.2c2.1 0 4.4 3 6 8.1-1.9.6-3.9 1.3-5.8 2.2-2.1-1-4.1-1.7-6-2.3 1.4-5.1 3.7-8 5.8-8zm-6.6 10.6l3.4 1.2a12.81 12.81 0 0 0-2 1.1l-2.1 1.2c.2-1.2.4-2.4.7-3.5zm-.8 19.6c.6.4 1.3.8 1.9 1.2.7.4 1.4.8 2 1.1-1.2.4-2.2.8-3.3 1.1l-.6-3.4zm7.4 14.2c-2.1 0-4.4-3-6-8.1 1.9-.6 3.9-1.3 5.8-2.2 2.1 1 4.1 1.7 6 2.3-1.5 5.1-3.7 8-5.8 8zm6.6-10.6l-3.4-1.2c.7-.4 1.3-.7 2-1.1l2.1-1.2c-.2 1.2-.4 2.4-.7 3.5zm1.1-7.1c-1.2.8-2.5 1.6-3.9 2.3-1.3.8-2.7 1.4-3.9 2-1.3-.6-2.6-1.4-3.9-2.1-1.3-.8-2.6-1.6-3.7-2.4-.1-1.4-.2-2.9-.2-4.4 0-1.6 0-3.1.2-4.5 1.2-.8 2.5-1.6 3.9-2.4 1.3-.8 2.7-1.4 3.9-2 1.3.6 2.6 1.4 3.9 2.1 1.3.8 2.6 1.6 3.7 2.4.1 1.4.2 2.9.2 4.4 0 1.7-.1 3.2-.2 4.6zm11.7-15.4c1 1.9-.4 5.3-4 9.1-1.5-1.4-3.1-2.7-5-4.1-.2-2.2-.6-4.3-1-6.2 5.2-1.2 8.9-.7 10 1.2zm-8.8 8.6c1 .8 1.9 1.6 2.7 2.4-.8.8-1.7 1.5-2.7 2.3v-2.4c.1-.7.1-1.5 0-2.3zm8.6 13.5c-1.1 1.8-4.8 2.3-9.8 1.1.4-1.9.8-4.1 1-6.3 1.8-1.3 3.5-2.6 5-3.9 3.4 3.8 4.9 7.3 3.8 9.1z"/></g><circle fill="#ffe48e" cx="305.3" cy="382.6" r="53.6"/><path fill="#eeeceb" d="M396.7 402.2v-19.6H254.9a19.57 19.57 0 0 0-19.6 19.6h-92.8v19.6h321.2v-19.6h-67z"/><path fill="#84a8a6" d="M575.5 455.6c.2.1.2.2 0 .2h-397c-.2 0-.2-.1 0-.1l47.8-16.2c.2-.1.5 0 .7 0l14.8 7.3c.2.1.5.1.7.1l62.5-18.7c.2-.1.5-.1.7 0l39 8c.2 0 .5.1.7 0l54.4-6.6h.7l40.6 6.2h.7l58.8-17.4c.2-.1.5 0 .7.1l74.2 37.1z"/><path fill="#f7f5f5" d="M356.6 359.2c-17.2 0-31.1 13.9-31.1 31.1s13.9 31.1 31.1 31.1 31.1-13.9 31.1-31.1-13.9-31.1-31.1-31.1z"/><g fill="#043f3a"><path d="M135.7 350.9c-3.3-1-5.4-3.4-5.5-6.9-.2-3.5-.1-6.7-.1-10.7.9.1 1.7.4 2.1 1.1.7 1.1 1 2.5 1.6 3.7.3-.4.3-1 .5-1.5 0 0 0-.1.1-.1h.1.4c.3.1.4.5.3.7v.2.3.1.1h0v.1s0 .1.1.1c0 .1 0 .2.1.3l.3.3c1.2-1 .4-3.4-.5-4.6-1.9-2.4-2.8-2.8-6.8-3.9-1.3-.5-2.5-.9-2.8-.9a92.12 92.12 0 0 1-7.2-1.5c-.5-.1-.8-.8-1.2-1.2.5-.4.9-1 1.6-1.1 2.1-.5.6-2.4 1.1-3.7 0-.1.1-.2.1-.3v-.1-.1-.1-.1c0-.1-.1-.1-.1-.2s-.1-.2-.1-.2c-.1-.1-.2-.3-.3-.4-.1-.2-.2-.3-.3-.5-.1-.1-.1-.1-.1-.2h0c0-.1 0-.1-.1-.2l.3-.3c.1-.1.2-.2.1-.3s-.2-.1-.3-.2-.2-.2-.2-.3l-.3-.3c-.1-.1-.1-.1-.2-.1-.1-.1-.2-.1-.2-.2-.1-.1-.2-.1-.3-.2-.1 0-.2-.1-.3-.2s-.2-.1-.3-.2-.2-.1-.3-.1-.2-.1-.3-.1c-.2-.1-.4-.1-.6-.2-.1 0-.2 0-.3-.1h-.2l-.1.1c-.2 0-.4-.1-.6-.1 0 0-.1 0-.1-.1v.1c-1.2.1-2.8.8-3.1 1.7-.7 2-1 3.9-.1 6 .1.2 0 .9-.1.9-1.8.3-2.7 2.8-3.3 4.3-.2.4-.3.8-.3 1.2-1 5.2-1.7 10 0 15.1.5 1.6 1.6 2.5 3.1 2.9 3.8 1.1 7.2.1 9.9-2.7 1.2-1.3 2.4-2.9 3.8-4.6.8 2 2 3.7 2.4 5.7.3 1.6-.2 3.2-.4 5 3 1 6 1.9 9.3 1.7.6-.1 1.6-.5 1.7-.9-.3-1.4-1.2-1.8-2-2zm-17.5-15.6c-.2-.1-.3-.1-.5-.2.2-.8.3-1.7.5-2.6.8 0 1.6 0 2.8.1-1 1-1.8 1.9-2.8 2.7z"/><path d="M235.8 466l-31.7-38.8-6.2-1.9-27.1-36.6-13-5.6-21.5-21.7-4.4-4-1.6-4.4-18.9-8.8-6.7 2-13.1 15.2-15.8 20.2-9.6 25.8-16.5 25.4L35.6 466z"/></g><path d="M351.6 377.2c-1.9.6-3.1 2.8-2.4 4.8.6 1.9 2.8 3.1 4.8 2.4 1.9-.6 3.1-2.8 2.5-4.7-.6-2-2.9-3.2-4.9-2.5zm5-10.2c-13.5 0-24.5 11-24.5 24.5s11 24.5 24.5 24.5a24.5 24.5 0 1 0 0-49zm4.5 38.9c-1.9.7-4.1-.4-4.8-2.4-.7-1.9.3-4 2.3-4.7a3.764 3.764 0 1 1 2.5 7.1zm8 2c-1.1.9-2.4 1.6-3.5 2.3 0-.1-.1-.1-.1-.2.2-.2.5-.4.7-.6 3.8-3.1 4.9-8.6 2.6-12.8-2.5-4.5-7.4-6.7-12.3-5.2-5.5 1.7-10.4-.3-12.9-5.5-1.7-3.5-1.8-9.2 3-12.6 2.1-1.4 4.5-2.1 7-2.4 9.2-1.3 18.2 3.9 21.8 12.5 3.7 8.7 1.1 18.8-6.3 24.5z" fill="#afd2ed"/><path fill="#f3f4f5" d="M421.9 340.8a40.25 40.25 0 0 0-40.3 40.3c0 22.2 18 40.2 40.2 40.2s40.2-18 40.2-40.2c.1-22.3-17.9-40.3-40.1-40.3z"/><path d="M397.9 359.6c-1.9.2-3.2 1.9-3 3.8s1.9 3.2 3.8 3 3.2-1.9 3-3.8-2-3.3-3.8-3zm55.5 40.1c-.4-3.4-3.4-5.8-6.8-5.5l-6.1.7-4-36.2c-.4-3.4-3.4-5.8-6.8-5.5l-32.9 3.6h.2c-3 .6-5.2 3.5-4.8 6.7.4 3.4 3.4 5.8 6.8 5.5l4.9-.6 4 36.2c.4 3.4 3.4 5.8 6.8 5.5l33.4-3.7c3.3-.3 5.7-3.4 5.3-6.7zm-54.5-31.8c-2.8.3-5.2-1.7-5.6-4.4-.3-2.8 1.7-5.2 4.4-5.6 2.2-.3 4.1.9 5 2.8a9.83 9.83 0 0 1 .5 1.6l.6 5-4.9.6zm38.9 24.1l-27.9 3.1-.1-1.3 27.9-3.1.1 1.3zm-31.3-28l27.9-3.1.1 1.3-27.9 3.1-.1-1.3zm.6 5.9l27.9-3.1.1 1.3-27.9 3.1-.1-1.3zm.7 6l27.9-3.1.1 1.3-27.9 3.1-.1-1.3zm.6 5.9l27.9-3.1.1 1.3-27.9 3.1-.1-1.3zm.7 5.9l27.9-3.1.1 1.3-27.9 3.1-.1-1.3zm4.9 20.7c-2.4 0-4.4-2-4.4-4.4s2-4.4 4.4-4.4 4.4 2 4.4 4.4-2 4.4-4.4 4.4zm33.9-3.1l-28.1 3.1c1.1-1.4 1.6-3.2 1.4-5.2s-1.1-3.6-2.5-4.8l28.1-3.1c2.8-.3 5.2 1.6 5.5 4.4.3 2.9-1.7 5.3-4.4 5.6z" fill="#afd2ed"/><path d="M366.4 342.1c-13.8 0-25.1 11.2-25.1 25.1 0 13.8 11.2 25.1 25.1 25.1s25.1-11.2 25.1-25.1-11.2-25.1-25.1-25.1zm95 19c-16.8 0-30.4 13.6-30.4 30.4s13.6 30.4 30.4 30.4 30.4-13.6 30.4-30.4-13.7-30.4-30.4-30.4z" fill="#fff"/><path fill="#afd2ed" d="M478.6 412.2v1.6H477h-30.1-1.6v-1.6-3.4c0-.8.7-1.6 1.6-1.6h11.9c-3.2-1-5.9-3-7.6-5.8h-6.5v-2.6h5.3 5.6 5.7v2.7H458c1.4 1 3 1.5 4.8 1.5 4.6 0 8.4-3.8 8.4-8.4 0-1.8-.5-3.4-1.5-4.7-.4.1-.8.1-1.3.1-2.2 0-4.2-1.2-5.2-3.1l-2.7 4.4 2.2 1.4-2.2 3.6-11.4-7 2.2-3.6 2.2 1.4 9.7-15.8c.5-.8 1.8-1.6 3.2-.9l3.2-5.3 3.2 2-3.2 5.3c1.2.9 1.2 2.4.6 3.2l-1.5 2.5c3.2.1 5.7 2.8 5.7 6 0 1-.2 2-.7 2.8 1.6 2.2 2.6 4.9 2.6 7.8 0 6-4 11-9.5 12.7H477c.8 0 1.6.7 1.6 1.6v3.2h0z"/><path fill="#f3f4f5" d="M305.4 357a25.59 25.59 0 0 0-25.6 25.6c0 14.1 11.5 25.6 25.6 25.6s25.6-11.5 25.6-25.6c-.1-14.1-11.5-25.6-25.6-25.6z"/><path fill="#afd2ed" d="M321.6 393.3c-.1-.2-3.2-3.6-8.9-4.6.6-2.9 1.3-7.6-1.5-11-1.9-2.2-5-3.5-9.3-3.7a28.08 28.08 0 0 0-1.4-9.5c-.3-1-1.4-1.5-2.4-1.2s-1.5 1.4-1.2 2.4c0 .1.1.3.1.4l-5.7 4.1c-.3-.3-.8-.4-1.2-.4-.5 0-.9.2-1.2.5-.8.7-.9 1.9-.2 2.7.1.2 3.2 3.6 8.9 4.6-.6 2.9-1.3 7.6 1.5 11 1.9 2.2 5 3.5 9.3 3.7a28.08 28.08 0 0 0 1.4 9.5c.3 1 1.4 1.5 2.4 1.2s1.5-1.4 1.2-2.4c-.1-.2-.1-.4-.2-.6l5.6-4.1c.4.3.8.5 1.3.5s.9-.2 1.2-.5c.9-.7 1-1.9.3-2.6zm-29.2-22.2l5.1-3.7c.2.8.3 1.5.4 2.2l-3.7 2.7c-.7-.4-1.3-.8-1.8-1.2zm5.8 2.6c-1-.2-1.8-.4-2.6-.7l2.5-1.8c.1.8.1 1.6.1 2.5zm3.3 4.3v-.2c1.8.1 3.4.3 4.6.8l-5.1 3.7c0-1.5.3-3.1.5-4.3zm.6 8c-.6-.7-.9-1.4-1-2.3l6.3-4.6c.4.3.7.5 1 .9.6.8.9 1.6 1.1 2.6l-6.1 4.4c-.5-.2-.9-.6-1.3-1zm6.9 2.2v.2c-1.7-.1-3.1-.3-4.3-.7l4.8-3.5c0 1.4-.3 2.8-.5 4zm3.3 4.2c1.1.2 2.1.5 2.9.9l-2.8 2c-.1-1-.1-1.9-.1-2.9zm.7 6.1c-.2-.6-.3-1.1-.4-1.7l3.9-2.8c.6.3 1 .7 1.4 1l-4.9 3.5z"/><path d="M396.8 356.8h-.4.4zm20.6 52.3c-.4.3-.8.5-1.3.7.5-.2.9-.5 1.3-.7z" fill="#f42753"/><path fill="#afd2ed" d="M387 356.7c-.2-.2-.5-.2-.7 0-5.9 6.5-10.3 9.5-13 8.9-1.2-.2-2.1-1.2-2.7-2.8-.9-2.3-2.1-4.8-4.5-5.2-2.1-.4-5.4.3-13.4 8.1v-12.6h2.6l-3.1-3.1-3.1 3.1h2.6v13.7c-1.2 1.2-2.5 2.6-4 4.2-.2.2-.2.5 0 .7.1.1.2.1.4.1a.76.76 0 0 0 .4-.2l3.2-3.4v13.6h28.8v2.6l3.1-3.1-3.1-3.1v2.6h-5.3v-14.2c3-.6 6.8-3.6 11.9-9.2.2-.2.2-.5-.1-.7zm-27.3 24.1h-6.9v-13.6c2.7-2.7 5-4.7 6.9-6.1v19.7z"/></svg>