<?xml version="1.0" encoding="utf-8"?>
<!-- Generator: Adobe Illustrator 18.1.1, SVG Export Plug-In . SVG Version: 6.00 Build 0)  -->
<svg version="1.1" id="education" xmlns="http://www.w3.org/2000/svg" xmlns:xlink="http://www.w3.org/1999/xlink" x="0px" y="0px"
	 viewBox="150.1 184.1 311.5 401.2" enable-background="new 150.1 184.1 311.5 401.2" xml:space="preserve">
<path fill="#009788" d="M428.6,184.1c0.3,17.7,1.3,35.7-4.3,53c-6.9,21.3-21.6,36-40.6,46.8c-5.2,2.9-10.8,5.6-16.7,7.9
	c-18.3,7.9-36.7,15.7-51.7,30.8C311.1,250,349.7,194.9,428.6,184.1z"/>
<path fill="#DF473A" d="M437.5,516.8c-9.8,20.3-22.9,38.3-39.9,53c-18.3,15.7-38.6,19-60.9,10.2c-4.9-2-9.8-3.9-14.7-5.9
	c-10.8-4.9-21-4.6-31.8,0c-8.8,3.6-18,6.9-27.2,9.5c-15.7,4.3-29.8,0.3-42.9-9.2c-16.7-12.1-28.8-27.8-39-45.5
	c-21-36.7-32.4-75.6-30.8-118.2c1.6-39,16.7-71.1,51.4-91.4c16.4-9.5,34.1-15.1,53-9.2c9.2,2.6,17.7,7.9,26.2,12.1
	c6.5,3.3,13.1,6.5,20.6,6.9c-6.5-21.3-22.3-47.5-77.6-75.6c5.9-8.8,11.5-17.4,17.7-26.5c17.7,13.4,32.4,28.5,45.2,45.2
	c12.8,17,20,36.7,26.2,58c7.2-3.3,14.1-6.5,21-9.5c9.2-3.9,18.3-8.8,28.2-11.1c14.7-3.6,28.8,0.7,41.9,7.2
	c32.1,16,50.1,42.6,55.3,77.6C466.3,437.3,456.5,477.9,437.5,516.8z"/>
</svg>
