<?xml version="1.0" encoding="utf-8"?>
<!-- Generator: Adobe Illustrator 18.1.1, SVG Export Plug-In . SVG Version: 6.00 Build 0)  -->
<svg version="1.1" id="Layer_1" xmlns="http://www.w3.org/2000/svg" xmlns:xlink="http://www.w3.org/1999/xlink" x="0px" y="0px"
	 viewBox="0 0 341.5 100.9" enable-background="new 0 0 341.5 100.9" xml:space="preserve">
<g>
	<path fill="#E14738" d="M340.6,18.3l-28.8-18c-0.6-0.4-1.3-0.4-2-0.2s-1.1,0.7-1.2,1.3l-5.4,30c-0.1,0.4,0,0.7,0.1,1
		c0.3,0.6,0.8,1,1.6,1.1c1.1,0.2,2.2-0.5,2.3-1.4l4-22.7c2.3,4.2,3.9,8.7,4.6,13.3c1.5,10-1.1,20-7.3,28.3
		c-7.2,9.6-18.9,16-31.9,17.7c-1.5,0.2-2.6,1.6-2.4,3.1c0.2,1.4,1.4,2.4,2.7,2.4c0.1,0,0.2,0,0.4,0c14.5-1.8,27.5-9.1,35.6-19.8
		c7.1-9.4,10.1-20.9,8.3-32.4c-0.7-5-2.3-9.7-4.7-14.2l21.6,13.5c0.9,0.6,2.2,0.4,2.9-0.4C341.8,20,341.6,18.9,340.6,18.3z"/>
</g>
</svg>
