<svg xmlns="http://www.w3.org/2000/svg" viewBox="-1 89 613 613" xmlns:v="https://vecta.io/nano"><path fill="#fff" d="M322.6 413c-1-25.8-9.5-51.6-27.4-71.1-20-22.1-49.5-40.9-79.5-44.1-96.2-10.2-41.8 69.8-21.5 114.4 18.8 41.4-22.5 140.1 45.2 140.7 33.7.4 56-23.2 67.9-52.7 6.1-15 10.2-31.2 12.7-47.3 2.1-13.6 3.1-26.9 2.6-39.9z"/><path fill="#654221" d="M467.1 342.1c3.1 3.9-7.7-10.1 0 0h0z"/><path fill="#fff" d="M410.8 326.9c-30.7 3.1-55.4 48.4-18.3 70 29 16.8 100.9-21.4 74.5-54.8-9.4-12.3-39.5-16.9-56.2-15.2z"/><path fill="#654221" d="M406.1 268.1c3 3.9-7.8-10.1 0 0h0z"/><path fill="#fff" d="M331.5 322.9c29 16.8 100.9-21.4 74.5-54.8-9.5-12.4-39.6-16.8-56.3-15.1-30.6 3.1-55.2 48.4-18.2 69.9z"/><path fill="#654221" d="M313.4 220.9c3.6 3.3-9-8.2 0 0h0z"/><path d="M251.6 285c30.2 11.4 92.2-36.7 61.7-64.1-11.1-10.2-40.2-9.5-55.9-5.2-28.4 8-44.3 55-5.8 69.3zm114.1 162.6c-19.5 38.2 25.8 62.9 53.3 49 15-7.7 37.7-27.7 39.2-43.3 3.8-42.4-77.4-35.6-92.5-5.7z" fill="#fff"/><path d="M458.1 453.2c-1.2 12.8.4-4.9 0 0h0zM405.7 543c-3.1 11.9 1.2-4.6 0 0h0z" fill="#654221"/><path fill="#fff" d="M319.1 522.6c-24.7 33 14.2 63.8 42.6 55.1 15.4-4.8 40.3-20.1 44.1-34.7 10.5-39.6-67.6-46.2-86.7-20.4z"/></svg>