<?xml version="1.0" encoding="utf-8"?>
<!-- Generator: Adobe Illustrator 18.1.1, SVG Export Plug-In . SVG Version: 6.00 Build 0)  -->
<svg version="1.1" id="Layer_1" xmlns="http://www.w3.org/2000/svg" xmlns:xlink="http://www.w3.org/1999/xlink" x="0px" y="0px"
	 viewBox="0 0 341.5 100.9" enable-background="new 0 0 341.5 100.9" xml:space="preserve">
<g>
	<path fill="#E14738" d="M340.6,18.3l-28.8-18c-0.6-0.4-1.3-0.4-2-0.2s-1.1,0.7-1.2,1.3l-5.4,30c-0.1,0.4,0,0.7,0.1,1
		c0.3,0.6,0.8,1,1.6,1.1c1.1,0.2,2.2-0.5,2.3-1.4l4-22.7c2.3,4.2,3.9,8.7,4.6,13.3c1.5,10-1.1,20-7.3,28.3
		c-7.2,9.6-18.9,16-31.9,17.7c-1.5,0.2-2.6,1.6-2.4,3.1c0.2,1.4,1.4,2.4,2.7,2.4c0.1,0,0.2,0,0.4,0c14.5-1.8,27.5-9.1,35.6-19.8
		c7.1-9.4,10.1-20.9,8.3-32.4c-0.7-5-2.3-9.7-4.7-14.2l21.6,13.5c0.9,0.6,2.2,0.4,2.9-0.4C341.8,20,341.6,18.9,340.6,18.3z"/>
	<path fill="#E14738" d="M17.7,74.3c-4.3-2-6.6-4.7-6.7-8.1c-0.1-1.9,0.2-3.6,0.9-5.1c0.8-1.7,1.8-2.6,3.2-2.7
		c1.4-0.1,2.1,0.5,2.1,1.7c0,0.2,0,0.4-0.1,0.6c0.1,0.1,0.1,0.2,0.1,0.2c0,0.1-0.2,0.4-0.6,1.1c-0.4,0.6-0.5,1.3-0.4,1.9
		c0.3,1.9,1,3.3,2.2,4.4c1.1,1,2.3,1.4,3.6,1.4c1.7,0,2.9-0.7,3.5-2.2c0.2-0.5,0.3-1.2,0.3-2c0-1.2-0.2-2.6-0.7-4.1
		c-0.2-2.9-0.8-5.4-2-7.4c-1.8-3.2-4.7-4.8-8.7-4.8c-3.4,0-6.3,1.8-8.6,5.4C3.7,58,2.6,61.8,2.7,66.1c0,2.7,0.8,5.2,2.3,7.7
		c1.6,2.7,3.8,4.6,6.4,5.7c3.3,1.4,5.2,2.3,5.7,2.7c1.1,1,1.6,3,1.6,6c0,3.3-1.2,5-3.5,5c-0.9,0-1.6-0.5-2.1-1.4
		c-0.5-1-1-1.9-1.5-2.9c-1-3.5-3-5.2-5.9-5.2c-1.4,0-2.8,0.4-4.5,1.3C0.4,85.5,0,86,0,86.7c0,1.4,1.5,3,4.5,4.9
		c2.7,5.6,7,8.3,12.9,8.3c2.9,0,5.3-1.2,7.3-3.5s2.9-5,2.9-8.1c0-4-0.9-7.1-2.8-9.4C23.5,77.5,21.1,75.9,17.7,74.3z"/>
	<path fill="#E14738" d="M46.1,63.5c-0.2-0.1-0.5-0.1-0.7-0.1c-0.5,0-1.1,0.3-1.7,0.8c-0.9,0.8-1.7,1.3-2.4,1.6v-2.9
		c0-0.4,0.2-0.9,0.7-1.4c0.5-0.5,0.7-1,0.7-1.5c0-0.4-0.2-0.9-0.5-1.5c-0.8-1.6-2.3-2.4-4.3-2.4c-1.7,0-3.1,0.8-4.2,2.4
		c-0.2,0.3-0.3,0.7-0.3,1c0,0.3,0.1,0.8,0.3,1.5c0.2,0.7,0.3,1.2,0.3,1.6v5.2c-2.4,1.4-4.1,2.2-5,2.6c-0.2,0.1-0.9,0.3-2.1,0.4
		c-0.8,0.1-1.3,0.4-1.5,1.1c-0.1,0.3-0.2,0.5-0.2,0.8c0,1,1.4,2,4.2,2.9c0.7,0.2,1.2,0.4,1.7,0.4c0.6,0,1.1-0.2,1.7-0.7
		c0.6-0.5,1-0.7,1.2-0.8c0,1.3,0,4.3-0.1,9.1c-0.1,4.2-0.1,7.3-0.1,9.3c0,3,0.2,4.7,0.4,5.3c0.8,1.9,2.2,2.8,4.4,2.8
		c1.1,0,2.2-0.3,3.1-0.8c1-0.5,1.6-1.2,1.8-2.1c0.2-0.7-0.2-1.7-1-2.9c-0.8-1.2-1.2-2.2-1.2-2.9V71.8l2.2-1.1
		c0.3-0.1,0.6-0.2,0.8-0.2c0.4,0,0.9,0.1,1.5,0.4c0.7,0.3,1.2,0.4,1.5,0.4c0.7,0,1.3-0.3,1.8-1c0.5-0.7,0.7-1.4,0.7-2.1
		C49.9,65.7,48.6,64.2,46.1,63.5z"/>
	<path fill="#E14738" d="M76.3,90.9c-0.5-2.6-1-6.8-1.3-12.5c-0.3-4.7-0.8-7.9-1.4-9.6c-1-2.5-2.8-3.8-5.5-3.8
		c-4.2,0-7.6,0.8-10.4,2.5c-1.8,1.1-3.2,2.4-4.1,3.9C53.2,72,53,72.6,53,73.2c0,1.1,0.4,2.1,1.3,2.9c0.8,0.8,1.8,1.2,2.8,1.1
		c0.7-0.1,1.4-0.6,2-1.5c0.8-1.2,1.4-1.9,1.8-2.2c0.5-0.5,1-1,1.5-1.5s1.2-0.8,2.1-0.8c0.5,0,1.1,0.1,1.7,0.3c0.7,0.2,1,0.9,1,2.2
		c0,0.6-0.1,1.3-0.2,2c-3.1,1.8-6.3,3.6-9.4,5.4c-3.8,2.6-5.7,5.8-5.7,9.5c0,1.3,0.2,2.6,0.6,4.1c1.1,3.9,3.1,5.8,6,5.8
		c2.3,0,4.6-1.1,6.9-3.4c2.3-2.2,3.5-4.5,3.6-6.6c0.5,1.3,1,3,1.4,5.3c0.2,1.3,0.7,2.2,1.3,2.6c0.5,0.3,1.1,0.4,1.9,0.4
		c2.3,0,3.8-1,4.4-2.9c0.1-0.3,0.1-0.6,0.1-0.8c0-0.6-0.3-1.3-0.9-2.1C76.7,92.1,76.3,91.4,76.3,90.9z M64.5,90.3
		c-1.2,2.3-2.3,3.5-3.4,3.5c-0.5,0-0.9-0.3-1.3-0.8c-0.7-1-1.1-2-1.1-3c0-1.2,0.7-2.5,2.1-4.2c1-1.1,2.1-2,3.2-2.7
		c1.2-0.7,2.4-1.3,3.5-2C66.8,84.9,65.7,88,64.5,90.3z"/>
	<path fill="#E14738" d="M105.6,67.9c0-0.2,0.1-0.4,0.1-0.6c0-1.2-0.6-2.1-1.9-2.8c-1.3-0.7-2.6-1-3.9-0.9c-0.9,0.1-1.6,0.5-2.3,1.1
		s-1.3,1.4-1.9,2l-5.1,5.4L90.5,70c0-0.2,0.2-0.5,0.5-0.7c0.3-0.2,0.5-0.6,0.5-1c0-0.3-0.1-0.6-0.2-1c-0.3-1-1.5-1.5-3.6-1.5
		c-2.7,0-4.3,0.5-4.8,1.4c-0.2,0.3-0.2,0.6-0.2,0.8c0,0.3,0.2,0.7,0.5,1.3c0.3,0.5,0.5,1,0.5,1.3v22.3c0,0.4,0,1-0.1,1.7
		c-0.1,0.7-0.1,1.2-0.1,1.5c0,0.9,0.3,1.7,0.8,2.3c0.8,0.9,2,1.4,3.4,1.4c2.1,0,3.4-0.8,4.1-2.3c0.3-0.6,0.4-1.1,0.4-1.6
		s-0.2-1.2-0.7-2.1c-0.5-0.9-0.7-1.8-0.7-2.7v-9.1l9.7-11.2c0.4-0.5,1.4-1,3-1.4C104.7,69.3,105.5,68.7,105.6,67.9z"/>
	<path fill="#E14738" d="M124.9,63.5c-0.2-0.1-0.5-0.1-0.7-0.1c-0.5,0-1.1,0.3-1.7,0.8c-0.9,0.8-1.7,1.3-2.4,1.6v-2.9
		c0-0.4,0.2-0.9,0.7-1.4c0.5-0.5,0.7-1,0.7-1.5c0-0.4-0.2-0.9-0.5-1.5c-0.8-1.6-2.3-2.4-4.3-2.4c-1.7,0-3.1,0.8-4.2,2.4
		c-0.2,0.3-0.3,0.7-0.3,1c0,0.3,0.1,0.8,0.3,1.5c0.2,0.7,0.3,1.2,0.3,1.6v5.2c-2.4,1.4-4.1,2.2-5,2.6c-0.2,0.1-0.9,0.3-2.1,0.4
		c-0.8,0.1-1.3,0.4-1.5,1.1c-0.1,0.3-0.2,0.5-0.2,0.8c0,1,1.4,2,4.2,2.9c0.7,0.2,1.2,0.4,1.7,0.4c0.6,0,1.1-0.2,1.7-0.7
		c0.6-0.5,1-0.7,1.2-0.8c0,1.3,0,4.3-0.1,9.1c-0.1,4.2-0.1,7.3-0.1,9.3c0,3,0.2,4.7,0.4,5.3c0.8,1.9,2.2,2.8,4.4,2.8
		c1.1,0,2.2-0.3,3.1-0.8c1-0.5,1.6-1.2,1.8-2.1c0.2-0.7-0.2-1.7-1-2.9c-0.8-1.2-1.2-2.2-1.2-2.9V71.8l2.2-1.1
		c0.3-0.1,0.6-0.2,0.8-0.2c0.4,0,0.9,0.1,1.5,0.4c0.7,0.3,1.2,0.4,1.5,0.4c0.7,0,1.3-0.3,1.8-1c0.5-0.7,0.7-1.4,0.7-2.1
		C128.7,65.7,127.5,64.2,124.9,63.5z"/>
	<path fill="#E14738" d="M172.6,70.4c-1.4-3.7-3.3-5.5-5.7-5.4c-4.4,0.3-7.7,3-10,8.1V53.9c0-0.3,0.2-0.6,0.5-1
		c0.3-0.3,0.5-0.6,0.6-0.8c0.2-0.9-0.2-1.7-1.2-2.4c-1.1-0.7-2.2-1-3.5-1c-1.4,0-2.4,0.4-2.8,1.3c-0.2,0.3-0.3,0.7-0.4,1.1
		c0,0.3,0,0.7,0.1,1.2c0,0.5,0.1,0.9,0.1,1.1c-0.2,14.1-0.3,23.1-0.3,27.1c0,10.8,0.3,16.8,0.9,17.8c1,1.7,2.1,2.6,3.2,2.6
		c1.1,0,2.1-0.8,3.2-2.3c0.3-0.4,0.4-0.7,0.4-1.1c0-0.4-0.2-0.9-0.5-1.6c-0.3-0.7-0.5-1.2-0.5-1.5c0-0.2,0.1-0.5,0.2-0.7
		c-0.2-2.8,0.4-6,1.7-9.7c1.1-3.1,2.5-5.9,4.2-8.4c1.6-2.4,2.7-3.5,3.5-3.4c1,0.2,1.4,3.6,1.4,10.4c0,3.9-0.2,6.9-0.7,8.9
		c0,0.5-0.2,1.1-0.7,1.7c-0.5,0.6-0.7,1.2-0.7,1.7c0,0.4,0.1,0.8,0.3,1.3c0.5,1.3,1.6,1.9,3.3,1.9c1.1,0,2.2-0.3,3.1-0.8
		s1.5-1.2,1.5-2.1c0-0.3-0.1-0.9-0.4-1.9c0.8-3.1,1.3-6.5,1.3-10.3C174.6,78,173.9,73.8,172.6,70.4z"/>
	<path fill="#E14738" d="M197.3,87.7c-0.3,0-0.6,0.1-0.8,0.2c-0.7,0.4-1.1,0.9-1.3,1.8c-0.2,0.8-0.3,1.3-0.5,1.3
		c-0.3,0.6-0.9,1.1-1.8,1.7c-1,0.7-2,1.1-2.9,1.1c-1,0-1.7-0.5-2.3-1.5c-0.2-0.5-0.6-1.5-1-3.1c4-1.4,7.2-3.8,9.8-7.3
		c2.3-3.1,3.4-6,3.2-8.7c-0.5-5.8-3.1-8.7-7.8-8.7c-0.6,0-1.2,0-1.8,0.1c-3.3,0.5-5.9,2.7-7.8,6.6c-1.7,3.5-2.6,7.6-2.6,12.3
		c0,4.3,0.8,8,2.3,11c1.7,3.2,4.1,4.9,7,5.1c1.6,0.1,3.5-0.2,5.7-1.1c1.9-0.7,3-1.3,3.3-1.7c1.8-1.7,2.9-3.3,3.2-4.8
		c0.2-1-0.1-2-1-2.9C199.1,88.2,198.2,87.7,197.3,87.7z M187.8,74.4c1-2.3,2.3-3.4,3.9-3.4c1.4,0,2.1,0.8,2.1,2.3
		c0,1.7-0.8,3.7-2.4,5.8c-1.6,2.2-3.3,3.6-5.2,4.2C186,80.4,186.5,77.5,187.8,74.4z"/>
	<path fill="#E14738" d="M226.6,64.5c-1.3-0.7-2.6-1-3.9-0.9c-0.9,0.1-1.6,0.5-2.3,1.1s-1.3,1.4-1.9,2l-5.1,5.4l-0.1-2.1
		c0-0.2,0.2-0.5,0.5-0.7c0.3-0.2,0.5-0.6,0.5-1c0-0.3-0.1-0.6-0.2-1c-0.3-1-1.5-1.5-3.6-1.5c-2.7,0-4.3,0.5-4.8,1.4
		c-0.2,0.3-0.2,0.6-0.2,0.8c0,0.3,0.2,0.7,0.5,1.3c0.3,0.5,0.5,1,0.5,1.3v22.3c0,0.4,0,1-0.1,1.7c-0.1,0.7-0.1,1.2-0.1,1.5
		c0,0.9,0.3,1.7,0.8,2.3c0.8,0.9,2,1.4,3.4,1.4c2.1,0,3.4-0.8,4.1-2.3c0.3-0.6,0.4-1.1,0.4-1.6s-0.2-1.2-0.7-2.1
		c-0.5-0.9-0.7-1.8-0.7-2.7v-9.1l9.7-11.2c0.4-0.5,1.5-1,3-1.4c1.4-0.3,2.1-0.9,2.3-1.7c0-0.2,0.1-0.4,0.1-0.6
		C228.4,66.1,227.8,65.2,226.6,64.5z"/>
	<path fill="#E14738" d="M246.1,87.7c-0.3,0-0.6,0.1-0.8,0.2c-0.7,0.4-1.1,0.9-1.3,1.8c-0.2,0.8-0.3,1.3-0.5,1.3
		c-0.3,0.6-0.9,1.1-1.8,1.7c-1,0.7-2,1.1-2.9,1.1c-1,0-1.7-0.5-2.3-1.5c-0.2-0.5-0.6-1.5-1-3.1c4-1.4,7.2-3.8,9.8-7.3
		c2.3-3.1,3.4-6,3.2-8.7c-0.5-5.8-3.1-8.7-7.8-8.7c-0.6,0-1.2,0-1.8,0.1c-3.3,0.5-5.9,2.7-7.8,6.6c-1.7,3.5-2.6,7.6-2.6,12.3
		c0,4.3,0.8,8,2.3,11c1.7,3.2,4.1,4.9,7,5.1c1.6,0.1,3.5-0.2,5.7-1.1c1.9-0.7,3-1.3,3.3-1.7c1.8-1.7,2.9-3.3,3.2-4.8
		c0.2-1-0.1-2-1-2.9C248,88.2,247.1,87.7,246.1,87.7z M236.7,74.4c1-2.3,2.3-3.4,3.9-3.4c1.4,0,2.1,0.8,2.1,2.3
		c0,1.7-0.8,3.7-2.4,5.8c-1.6,2.2-3.3,3.6-5.2,4.2C234.9,80.4,235.4,77.5,236.7,74.4z"/>
	<path fill="#E14738" d="M254.7,80.6c0,0.6,0.2,1.1,0.5,1.6c1.1,1.4,2.7,2.1,4.8,2.1c1,0,1.7-0.2,2.4-0.7c0.6-0.5,0.9-1.1,0.9-1.8
		c0-0.4-0.1-1.2-0.4-2.2s-0.4-1.8-0.4-2.4V57.4c0-0.5,0.1-1.2,0.4-1.9c0.3-0.8,0.4-1.4,0.4-1.8c0-0.3,0-0.6-0.1-0.8
		c-0.4-1.5-2-2.2-4.9-2.2c-1.5,0-2.5,0.3-3,0.8c-0.6,0.7-0.9,4.4-0.9,11.3c0,5.3,0.2,10.4,0.5,15.4c0,0.4,0,0.8-0.1,1.3
		C254.7,80,254.7,80.4,254.7,80.6z"/>
	<path fill="#E14738" d="M257.9,87.9c-1.5,0-2.4,0.4-2.7,1.1c-0.2,0.4-0.2,0.8-0.1,1.3c0.1,0.7,0.2,1.1,0.2,1.3c0,0.6,0,1.5-0.1,2.4
		c-0.1,1.1-0.1,1.8-0.1,2.1c0,0.8,0.1,1.5,0.4,1.8c1.1,1.4,2.6,2.1,4.7,2.1c1.2,0,2-0.4,2.4-1.1c0.3-0.5,0.5-1.1,0.4-1.7
		c-0.1-1.3-0.2-1.9-0.2-1.8c0-0.4,0.1-1.1,0.2-1.8c0.1-0.8,0.2-1.4,0.2-1.7c0-0.5-0.1-1-0.3-1.4C262.3,88.7,260.6,87.9,257.9,87.9z"
		/>
</g>
</svg>
