<?xml version="1.0" encoding="utf-8"?>
<!-- Generator: Adobe Illustrator 18.1.1, SVG Export Plug-In . SVG Version: 6.00 Build 0)  -->
<svg version="1.1" id="mouth" xmlns="http://www.w3.org/2000/svg" xmlns:xlink="http://www.w3.org/1999/xlink" x="0px" y="0px"
     viewBox="0 0 384.5 384.5" enable-background="new 0 0 384.5 384.5" xml:space="preserve">
<g>
    <path fill="#A6DACF" d="M254.2,89.5c3.3,1.9,6.5,3.9,9.6,6C260.7,93.3,257.5,91.3,254.2,89.5L254.2,89.5z"/>
    <path fill="#A6DACF" d="M102.7,341.6c0.1-0.3,0.2-0.6,0.3-0.9c0.1-0.3,0.2-0.5,0.3-0.8c0.2-0.5,0.4-1,0.7-1.5
        c0.2-0.4,0.4-0.8,0.7-1.3c0.3-0.6,0.7-1.2,1.1-1.8c2.6-4.7,6.9-8.7,12-11.6c1.5-0.9,3.2-1.6,4.8-2.3c0.6-0.2,1.1-0.4,1.7-0.6
        c1.1-0.4,2.3-0.7,3.5-1c0.1,0,0.1,0,0.2,0h0c14.1-3.3,31.7-0.9,45.8,5.6c3.8-13.8-4-27.1-8.2-34.3c-8.4-14.3-21.8-24.3-35.2-33.7
        c-9.1-1.5-17.3-4.9-24.1-9.7c-0.1,0.2-0.3,0.4-0.4,0.6c-0.1,0.2-0.3,0.2-0.4,0.2c-0.1,0-0.2,0-0.3-0.1c-0.2-0.1-0.3-0.4-0.2-0.7
        c0.1-0.2,0.3-0.5,0.4-0.7c-4.5-3.3-8.4-7.2-11.4-11.5c-2,2.2-3.8,4.6-5.4,7.2c-0.1,0.2-0.3,0.2-0.4,0.2c-0.1,0-0.2,0-0.3-0.1
        c-0.2-0.1-0.3-0.4-0.2-0.7c1.5-2.8,3.3-5.5,5.3-8.1c-2.6-4-4.4-8.5-5.3-13.1c-5,4-9.4,8.8-12.8,14.2c-0.1,0.2-0.3,0.2-0.4,0.2
        c-0.1,0-0.2,0-0.3-0.1c-0.2-0.1-0.3-0.4-0.2-0.7c3.4-6.2,7.8-11.7,13.2-16.3c-0.2-1.2-0.3-2.4-0.3-3.7c-2-3.5-3.8-7.1-5.3-10.7
        c-1.5-3.6-2.7-7.2-3.7-10.8c-0.9-3.5-1.6-7.2-2-10.8c-0.4-3.5-0.5-7.1-0.4-10.6c0.1-3.5,0.4-7,1-10.4c0-0.2,0.1-0.4,0.1-0.6
        c0,0,0-0.1,0-0.1c0.1-0.8,0.3-1.6,0.5-2.4c0.1-0.3,0.1-0.5,0.2-0.8c0.1-0.6,0.3-1.2,0.4-1.8c0.1-0.4,0.2-0.8,0.3-1.2
        c0.1-0.5,0.2-0.9,0.4-1.4c0.1-0.5,0.3-0.9,0.4-1.4c0.1-0.2,0.1-0.4,0.2-0.6c0.1-0.2,0.1-0.4,0.2-0.6c0.2-0.5,0.3-1,0.5-1.5
        c0.1-0.3,0.2-0.6,0.3-1c0.2-0.6,0.4-1.1,0.6-1.7c0.1-0.3,0.2-0.5,0.3-0.8c0.2-0.6,0.5-1.2,0.7-1.8c0.1-0.2,0.2-0.4,0.3-0.6
        c0.3-0.6,0.5-1.3,0.8-1.9c0,0,0,0,0,0c0,0,0-0.1,0.1-0.1c0.7-1.6,1.5-3.3,2.3-4.9c0.2-0.4,0.4-0.7,0.6-1.1c0.3-0.5,0.5-0.9,0.8-1.4
        c0.2-0.5,0.5-0.9,0.8-1.3c0.1-0.2,0.2-0.4,0.3-0.6c0.2-0.3,0.4-0.7,0.6-1c0.2-0.3,0.4-0.7,0.6-1c-1.9-1-3.6-2.2-5.3-3.5
        C71,116.7,71.7,95,85.1,78.4c13.4-16.6,43.1-27.2,46.9-11.8c1.4,5.8,2.2,13.5,2,21.5c0.4-0.2,0.8-0.4,1.2-0.7
        c1.6-0.9,3.2-1.7,4.9-2.5c0.9-0.4,1.7-0.8,2.6-1.2c2.7-1.2,5.3-2.3,7.9-3.3c-3.1-3.7-14-7.8-14-7.8c8.9-1.4,17.5-1.1,25.6,0.2
        c0.7-4.1-14.8-9.9-14.8-9.9c15.8-2.6,30.7,0.3,43.3,5c2.9-3.9-13.7-11.6-13.7-11.6c34.6-2.9,62.9,19.2,73.5,28.9
        c0-7,0.8-13.5,2-18.6c3.9-15.4,33.5-4.8,46.9,11.8c13.4,16.6,14.2,38.3,1.7,48.4c-1.4,1.1-2.9,2.2-4.5,3.1
        c-0.2-0.4-0.5-0.8-0.7-1.1c8.6,13.9,13.2,29,13.2,44.1c0,13.4-3.2,26.5-9.4,38.7c0,0.7,0.1,1.4,0.1,2.1c0,2.3-0.2,4.6-0.6,6.8
        c4.5,4.2,8.2,9.1,11.2,14.5c0.1,0.2,0,0.5-0.2,0.7c-0.1,0-0.2,0.1-0.3,0.1c-0.2,0-0.3-0.1-0.4-0.2c-3-4.7-6.6-9-10.8-12.6
        c-1.2,4.7-3.2,9.1-6,13.1c1.5,2.1,2.9,4.2,4.1,6.5c0.1,0.2,0,0.5-0.2,0.7c-0.1,0-0.2,0.1-0.3,0.1c-0.2,0-0.3-0.1-0.4-0.2
        c-1.2-2-2.6-3.9-4.1-5.7c-3,4-6.7,7.6-11.1,10.6c-0.2,1-0.2,2-0.2,3c0.6,7.5,8.4,16.1,17,22c5.9-8.6,13.4-16.1,21.4-20.7
        c11.3-6.6,24.3-6.5,35-1.5c2.5,1.2,4.9,2.6,7,4.3c1,0.8,1.9,1.7,2.8,2.6c7.7-20.2,11.9-42.1,11.9-65c0-101.1-82-183.1-183.1-183.1
        S9.2,91.1,9.2,192.3c0,67.9,36.9,127.1,91.8,158.8C101.1,347.7,101.7,344.5,102.7,341.6z M79.8,230.5c0-0.1-0.1-0.2-0.1-0.3
        C79.7,230.3,79.7,230.4,79.8,230.5C79.8,230.5,79.8,230.5,79.8,230.5z"/>
    <polygon fill="#A6DACF" points="150.7,80.5 150.7,80.5 150.7,80.5    "/>
    <path fill="#664220" d="M274.1,317.4c-6.5-11.6-14.8-19.6-24.3-26.2c-7.8-5.5-16.4-10.1-25.5-15.2c-1.6-0.9-3.2-1.9-4.8-3
        c-7.4,7.5-16.8,12-27.2,12c-16.4,0-30.6-11.4-37.7-28c-4.2,0.9-8.7,1.4-13.3,1.4c-3.3,0-6.5-0.3-9.7-0.7
        c13.3,9.4,26.3,19.2,34.5,33.3c4.8,8.1,12.1,21,8.2,34.8c3.9,1.8,7.5,3.9,10.6,6.4c10.4,7.9,15.2,20,14.7,31.8
        c-0.1,2.8-0.6,5.5-1.3,8.1c-0.4,1.2-0.8,2.4-1.4,3.5c23.3-0.6,45.6-5.5,65.9-14.1C274.8,349.3,283,333.2,274.1,317.4z"/>
    <path fill="#976B42" d="M254.9,89.5l-0.7-0.1c3.3,1.9,6.4,3.9,9.5,6c0.2,0.1,0.4,0.3,0.6,0.4c-0.5-5,1.1-9.9,4.9-12.9
        c6.4-5.1,16.5-3.1,22.5,4.5c6,7.6,5.7,17.8-0.7,22.9c-1.1,0.9-2.3,1.5-3.6,2c1,0.2,2.1,0.3,3.1,0.5l1,0.2c1.5,0.2,3.2,2.1,3.3,3.6
        c0.1,3.4,0.1,6.8,0,10.5c0.3,0.5,0.7,1.1,1,1.6c0.2,0.4,0.5,0.7,0.7,1.1c1.6-0.9,3.1-1.9,4.5-3.1c12.5-10.1,11.7-31.7-1.7-48.4
        c-13.4-16.6-43.1-27.2-46.9-11.8c-1.3,5.1-2,11.6-2,18.6C253.3,87.8,254.9,89.5,254.9,89.5z"/>
    <path fill="#B7885E" d="M85.1,136.6c-0.8,1.6-1.6,3.3-2.3,4.9c0.9-2,1.9-4,2.9-6C85.5,135.9,85.3,136.2,85.1,136.6z"/>
    <path fill="#B7885E" d="M86.5,134.1c0.2-0.5,0.5-0.9,0.8-1.3C87,133.2,86.7,133.7,86.5,134.1z"/>
    <path fill="#B7885E" d="M81.9,143.6c0.3-0.6,0.5-1.3,0.8-1.9C82.4,142.3,82.2,142.9,81.9,143.6z"/>
    <path fill="#B7885E" d="M77.9,155.9c0.1-0.4,0.2-0.8,0.3-1.2C78,155.2,77.9,155.6,77.9,155.9z"/>
    <path fill="#B7885E" d="M77.3,158.5c0.1-0.3,0.1-0.5,0.2-0.8C77.4,158,77.3,158.2,77.3,158.5z"/>
    <path fill="#B7885E" d="M81,146c0.2-0.6,0.5-1.2,0.7-1.8C81.4,144.8,81.2,145.4,81,146z"/>
    <path fill="#B7885E" d="M76.8,161C76.8,161,76.8,160.9,76.8,161C76.8,160.9,76.8,161,76.8,161z"/>
    <path fill="#B7885E" d="M191.8,137.2c-3.6,0.2-5,1.3-6,4.8c-0.6,2.2-1.3,4.3-2,6.3c2.7-0.7,5.5-1.1,8.4-1.1c2.5,0,5,0.3,7.5,0.9
        c-0.7-2-1.4-4-1.9-6.1C196.9,138.5,195.5,137.3,191.8,137.2z"/>
    <path fill="#B7885E" d="M79.3,150.9c0.2-0.5,0.3-1,0.5-1.5C79.6,149.9,79.4,150.4,79.3,150.9z"/>
    <path fill="#B7885E" d="M80.1,148.4c0.2-0.6,0.4-1.1,0.6-1.7C80.5,147.3,80.3,147.9,80.1,148.4z"/>
    <path fill="#B7885E" d="M78.5,153.4c0.1-0.5,0.3-0.9,0.4-1.4C78.8,152.5,78.6,153,78.5,153.4z"/>
    <path fill="#B7885E" d="M144.6,86.3C144.3,86.4,144.2,86.5,144.6,86.3L144.6,86.3z"/>
    <path fill="#B7885E" d="M145.2,86.1c-0.3,0.1-0.5,0.2-0.6,0.2C144.7,86.2,145,86.2,145.2,86.1z"/>
    <path fill="#B7885E" d="M166.2,123c-9.4-3.8-19.7-5.9-31.6-6.5c-2,0.3-3.9,0.5-5.9,0.8c-3.2,0.4-6.6,0.9-9.9,1.4
        c-0.4,1-0.8,2-1.2,3c-1.3,3.4-2.2,7-2.9,10.6c-0.7,3.6-1,7.4-1,11.1c0,10.2,2.5,20,7,28.8c6.3-2.1,13.2-3.3,20.5-3.3
        c5.7,0,11.1,0.7,16.3,2.1c0.2-0.1,0.3-0.2,0.5-0.3c3.5-6.5,8-11.9,13.2-15.9c2.4-4.9,3.9-10.3,4.7-16.3
        C176.9,130.8,173.9,126,166.2,123z M148.7,165.6c-9.1,0-16.4-7.4-16.4-16.4c0-9.1,7.4-16.4,16.4-16.4s16.4,7.4,16.4,16.4
        C165.2,158.2,157.8,165.6,148.7,165.6z"/>
    <path fill="#B7885E" d="M150.7,80.5C150.7,80.5,150.7,80.5,150.7,80.5C150.7,80.5,150.7,80.5,150.7,80.5c1.3,1.6,1.2,3.1-1.8,4.2
        l0.4,0.2c-1.4,0.8-2.9,1.8-4.4,2.8c-3.1,2.1-6.1,4.5-8.9,7c-2.7,2.5-5.3,5.2-7.6,8.1c-1.6,1.9-3,4-4.3,6.1
        c3.5-0.3,6.9-0.4,10.3-0.4c10.6,0,21.1,1.3,31.1,4c1.5,0.4,3.1,0.8,4.6,1.3c4.2,1.2,8.6,2.3,12.9,3.3c1.9,0.4,3.8,0.4,5.9,0.4
        c0.9,0,1.9,0,2.9,0.1c1,0,1.9-0.1,2.9-0.1c2.1,0,4.1,0,5.9-0.4c4.3-0.9,8.7-2.1,12.9-3.3c1.5-0.4,3.1-0.8,4.6-1.3
        c10-2.7,20.5-4,31.1-4c5,0,10.2,0.3,15.4,0.9c7.6,0.9,15.2,2,22.7,3.1c1.3-0.5,2.5-1.1,3.6-2c6.4-5.1,6.7-15.4,0.7-22.9
        c-6-7.6-16.1-9.6-22.5-4.5c-3.8,3-5.4,7.9-4.9,12.9c-0.2-0.1-0.4-0.3-0.6-0.4c-3.1-2.1-6.3-4.1-9.6-6l0,0l0.7,0.1
        c0,0-1.6-1.7-4.4-4.3c-10.5-9.6-38.9-31.8-73.5-28.9c0,0,16.7,7.7,13.7,11.6c-12.6-4.7-27.4-7.6-43.3-5c0,0,15.5,5.8,14.8,9.9
        c-8.1-1.4-16.7-1.6-25.6-0.2C136.6,72.7,147.6,76.7,150.7,80.5C150.7,80.5,150.7,80.5,150.7,80.5C150.7,80.5,150.7,80.5,150.7,80.5
        z"/>
    <path fill="#B7885E" d="M147.9,85.1c-0.6,0.2-1.4,0.5-2.1,0.8C146.4,85.7,147,85.4,147.9,85.1z"/>
    <path fill="#B7885E" d="M279.2,130.4c-1-6.3-4.5-10.1-10.6-11.1c-4.5-0.8-9.2-1.4-13.7-2c-2-0.3-3.9-0.5-5.9-0.8
        c-11.8,0.6-22.1,2.7-31.6,6.5c-7.7,3.1-10.7,7.8-9.7,15.4c0.7,5.6,2.1,10.7,4.2,15.3c6,4.2,11.1,10.3,15,17.6
        c0.1,0,0.1,0.1,0.2,0.1c5.7-1.7,11.9-2.7,18.4-2.7c6.8,0,13.2,1,19.2,2.9c6.7-3.2,11.1-8.8,13-16.8
        C279.9,145.9,280.3,137.9,279.2,130.4z M235.8,165.6c-9.1,0-16.4-7.4-16.4-16.4c0-9.1,7.4-16.4,16.4-16.4c9.1,0,16.4,7.4,16.4,16.4
        C252.3,158.2,244.9,165.6,235.8,165.6z"/>
    <path fill="#B7885E" d="M148.5,84.9c-0.2,0.1-0.4,0.2-0.6,0.2C148.2,85,148.4,84.9,148.5,84.9z"/>
    <path fill="#B7885E" d="M148.8,84.8c-0.1,0-0.2,0.1-0.2,0.1C148.7,84.8,148.7,84.8,148.8,84.8z"/>
    <path fill="#B7885E" d="M88.8,130.1c0,0-0.1,0.1-0.1,0.1c-0.2,0.3-0.4,0.7-0.6,1C88.4,130.9,88.6,130.5,88.8,130.1z"/>
    <path fill="#B7885E" d="M108,106.9c2.7-2.5,5.5-4.9,8.5-7.2c1.2-0.9,2.4-1.8,3.6-2.7c0.9-5.4-0.7-10.8-4.7-14
        c-6.4-5.1-16.5-3.1-22.5,4.5c-6,7.6-5.7,17.8,0.7,22.9c1,0.8,2.2,1.5,3.4,1.9c2.2-0.3,4.4-0.7,6.6-1
        C104.9,109.9,106.4,108.4,108,106.9z"/>
    <path fill="#B7885E" d="M294.8,127.6c0,1-0.5,2.7-1.8,3.3c-3.1,1.4-3.7,4-4.6,8l-0.1,0.6c-1.7,8.2-3.5,16.6-5.7,25
        c-1.2,4.6-4,8.4-8,11.3c14.4,7.6,24.2,20.7,25,35.7c6.2-12.2,9.4-25.3,9.4-38.7c0-15.1-4.7-30.2-13.2-44.1c-0.3-0.5-0.6-1.1-1-1.6
        C294.8,127.3,294.8,127.4,294.8,127.6z"/>
    <path fill="#976B42" d="M87.1,213.6c0-15.3,9.3-28.8,23.4-36.8c-4.8-2.9-8.1-7.1-9.4-12.2c-2.2-8.4-4-16.8-5.7-25l-0.1-0.6
        c-0.8-4-1.5-6.6-4.6-8c-1.3-0.6-1.8-2.3-1.8-3.3c-0.1-3.9-0.2-7.4,0-10.9c0.1-1.5,1.8-3.4,3.3-3.6l1-0.2c1.2-0.2,2.5-0.4,3.7-0.6
        c-1.2-0.5-2.3-1.1-3.4-1.9c-6.4-5.1-6.7-15.4-0.7-22.9c6-7.6,16.1-9.6,22.5-4.5c4.1,3.2,5.7,8.6,4.7,14c-1.2,0.9-2.4,1.8-3.6,2.7
        c-2.9,2.3-5.8,4.7-8.5,7.2c-1.5,1.4-3,2.9-4.5,4.4c5.2-0.8,10.4-1.5,15.6-2.1c1.7-0.2,3.4-0.3,5.1-0.5c1.3-2.1,2.8-4.1,4.3-6.1
        c2.3-2.8,4.8-5.6,7.6-8.1c2.7-2.5,5.7-4.9,8.9-7c1.5-1,2.9-1.9,4.4-2.8l-0.4-0.2c3-1.1,3.1-2.6,1.8-4.2c0,0,0,0,0,0c0,0,0,0,0,0
        c0,0,0,0,0,0c-2.6,1-5.2,2.1-7.9,3.3c-0.9,0.4-1.7,0.8-2.6,1.2c-1.6,0.8-3.3,1.6-4.9,2.5c-0.4,0.2-0.8,0.4-1.2,0.7
        c0.2-8-0.6-15.7-2-21.5c-3.9-15.4-33.5-4.8-46.9,11.8C71.7,95,71,116.7,83.5,126.8c1.6,1.3,3.4,2.5,5.3,3.5c0,0,0.1-0.1,0.1-0.1
        c-0.2,0.4-0.5,0.7-0.7,1.1c-0.2,0.3-0.4,0.7-0.6,1c-0.1,0.2-0.2,0.4-0.3,0.6c-0.3,0.4-0.5,0.9-0.8,1.3c-0.3,0.5-0.5,0.9-0.8,1.4
        c-1,2-2,4-2.9,6c0,0,0,0.1-0.1,0.1c0,0,0,0,0,0c-0.3,0.6-0.5,1.3-0.8,1.9c-0.1,0.2-0.2,0.4-0.3,0.6c-0.2,0.6-0.5,1.2-0.7,1.8
        c-0.1,0.3-0.2,0.5-0.3,0.8c-0.2,0.6-0.4,1.1-0.6,1.7c-0.1,0.3-0.2,0.6-0.3,1c-0.2,0.5-0.3,1-0.5,1.5c-0.1,0.2-0.1,0.4-0.2,0.6
        c-0.1,0.2-0.1,0.4-0.2,0.6c-0.1,0.5-0.3,0.9-0.4,1.4c-0.1,0.5-0.2,0.9-0.4,1.4c-0.1,0.4-0.2,0.8-0.3,1.2c-0.1,0.6-0.3,1.2-0.4,1.8
        c-0.1,0.3-0.1,0.5-0.2,0.8c-0.2,0.8-0.3,1.6-0.5,2.4c0,0,0,0.1,0,0.1c0,0.2-0.1,0.4-0.1,0.6c-0.6,3.5-0.9,7-1,10.4
        c-0.1,3.5,0,7.1,0.4,10.6c0.4,3.6,1.1,7.2,2,10.8c0.9,3.6,2.2,7.3,3.7,10.8c1.5,3.6,3.3,7.2,5.3,10.7
        C87.1,214.4,87.1,214,87.1,213.6z M144.6,86.3C144.2,86.5,144.3,86.4,144.6,86.3c0.2-0.1,0.4-0.1,0.6-0.2
        C145,86.2,144.7,86.2,144.6,86.3z M148.5,84.9c-0.2,0.1-0.4,0.1-0.6,0.2c-0.9,0.3-1.5,0.6-2.1,0.8c0.7-0.3,1.5-0.5,2.1-0.8
        C148.1,85,148.3,84.9,148.5,84.9c0.1,0,0.2-0.1,0.2-0.1C148.7,84.8,148.7,84.8,148.5,84.9z"/>
    <path fill="#976B42" d="M113.8,143.3c0-3.7,0.3-7.4,1-11.1c0.6-3.6,1.6-7.1,2.9-10.6c0.4-1,0.8-2,1.2-3c-1.3,0.2-2.6,0.4-3.8,0.6
        c-6.1,1-9.6,4.8-10.6,11.1c-1.1,7.5-0.6,15.5,1.5,24.5c2,8.5,6.8,14.4,14.3,17.4c0.2-0.1,0.4-0.1,0.5-0.2
        C116.3,163.3,113.8,153.5,113.8,143.3z"/>
    <path fill="#E0C69B" d="M192.3,269.1c-9.6,0-17.9-7.2-22.4-17.8c-4.6,2.5-9.7,4.4-15.3,5.6c7.1,16.7,21.3,28,37.7,28
        c10.3,0,19.8-4.5,27.2-12c4.4-4.5,8.1-10.1,10.7-16.4c-5.4-1.3-10.5-3.3-15.2-5.8C210.5,261.7,202,269.1,192.3,269.1z"/>
    <path fill="#9B350C" d="M192.3,269.1c9.7,0,18.2-7.4,22.7-18.4c-10-5.4-17.8-13.3-21.7-22.7c-0.8,1.4-1.9,0-1.9,0l0,0l-0.1,0.2l0,0
        c-4,9.6-11.5,17.7-21.4,23C174.4,262,182.7,269.1,192.3,269.1z"/>
    <path d="M148.7,132.7c-9.1,0-16.4,7.4-16.4,16.4c0,9.1,7.4,16.4,16.4,16.4s16.4-7.4,16.4-16.4C165.2,140.1,157.8,132.7,148.7,132.7
        z M148.7,150.6c-3.2,0-5.8-2.6-5.8-5.8c0-3.2,2.6-5.8,5.8-5.8c3.2,0,5.8,2.6,5.8,5.8C154.5,148,151.9,150.6,148.7,150.6z"/>
    <circle fill="#FFFFFF" cx="148.7" cy="144.7" r="5.8"/>
    <path d="M235.8,132.7c-9.1,0-16.4,7.4-16.4,16.4c0,9.1,7.4,16.4,16.4,16.4c9.1,0,16.4-7.4,16.4-16.4
        C252.3,140.1,244.9,132.7,235.8,132.7z M235.8,150.6c-3.2,0-5.8-2.6-5.8-5.8c0-3.2,2.6-5.8,5.8-5.8c3.2,0,5.8,2.6,5.8,5.8
        C241.6,148,239,150.6,235.8,150.6z"/>
    <circle fill="#FFFFFF" cx="235.8" cy="144.7" r="5.8"/>
    <path fill="#664220" d="M79.8,230.5C79.8,230.5,79.8,230.5,79.8,230.5c0-0.1-0.1-0.2-0.1-0.3C79.7,230.3,79.7,230.4,79.8,230.5z"/>
    <path fill="#FFEBC2" d="M141.3,258.3c4.6,0,9.1-0.5,13.3-1.4c5.5-1.2,10.6-3.1,15.3-5.6c9.9-5.4,17.4-13.4,21.4-23l0.1-0.4
        c-0.6-5.5-1.6-12.7-3.4-14.6c-1.6-1.8-3.5-2.8-5-3.5c-0.7-0.2-1.3-0.5-2-0.7c-0.2,0-0.3-0.1-0.5-0.1c0,0,0,0,0-0.1
        c-11.9-5.3-15-18.7-9.5-28c3.9-6.7,13.8-18.7,21.3-18.6c7,0.1,15.9,11.6,19.7,17.2c6.1,8.9,4,23.4-8,29.1c0,0,0,0,0,0
        c-1.5,0.8-4.7,1.8-7.4,4.7c-1.8,1.9-2.8,9.2-3.4,14.7l0,0c3.9,9.3,11.7,17.3,21.7,22.7c4.6,2.5,9.8,4.5,15.2,5.8
        c4.9,1.2,10.1,1.8,15.4,1.8c13.4,0,25.6-4,35-10.6c4.3-3,8.1-6.6,11.1-10.6c-4.6-5.6-10.2-10.3-16.6-13.8
        c-4.8-2.6-9.9-4.5-15.1-5.7c0.3-1.1,0.6-2.3,0.8-3.5c4.5,1.2,8.9,2.9,13,5.2c7.4,4.1,13.8,9.7,18.8,16.5c2.8-4,4.9-8.4,6-13.1
        c-3-2.6-6.3-5-9.9-6.9c-8.3-4.6-17.7-7-27.2-7c0.1-1.3,0.2-2.7,0.2-4c8.9,0.3,17.8,2.7,25.7,7.1c4.3,2.3,8.2,5.2,11.7,8.5
        c0.4-2.2,0.6-4.5,0.6-6.8c0-0.7,0-1.4-0.1-2.1c-0.8-15-10.6-28.1-25-35.7c-0.5,0.3-1,0.7-1.5,1c-5.3,3.2-11.4,5.1-18.6,6
        c-2.3,0.3-4.7,0.4-7.3,0.4c-2.5,0-5.1-0.1-8-0.4c-11.8-1-21.1-5.6-27.9-13.9c-5-6.1-8.7-12.9-11.5-20.8c-2.4-0.6-4.9-0.9-7.5-0.9
        c-2.9,0-5.7,0.4-8.4,1.1c-2.8,7.8-6.5,14.5-11.4,20.5c-6.7,8.3-16.1,12.9-27.9,13.9c-6,0.5-10.8,0.5-15.3,0
        c-7.2-0.8-13.3-2.8-18.6-6c0,0,0,0-0.1,0c-14.1,8.1-23.4,21.6-23.4,36.8c0,0.4,0,0.9,0,1.3c0,1.2,0.1,2.5,0.3,3.7
        c3-2.5,6.2-4.8,9.7-6.7c7.9-4.3,16.8-6.8,25.7-7.1c0,1.4,0.1,2.7,0.2,4c-9.5,0-18.9,2.4-27.2,7c-2.8,1.5-5.5,3.3-7.9,5.3
        c1,4.7,2.8,9.1,5.3,13.1c4.8-6.1,10.7-11.1,17.6-14.9c4.1-2.3,8.5-4,13-5.2c0.2,1.2,0.5,2.3,0.8,3.5c-5.3,1.2-10.4,3-15.1,5.7
        c-5.8,3.2-11,7.4-15.3,12.4c3,4.4,6.8,8.3,11.4,11.5c5.2-9.2,12.7-16.8,22-22c0.4,0.9,0.9,1.7,1.3,2.5c-0.7,0.4-1.5,0.7-2.2,1.1
        c-8.2,4.5-15.2,11.1-20.3,18.9c6.8,4.8,15.1,8.1,24.1,9.7c0.4,0.1,0.7,0.1,1.1,0.2C134.7,258,138,258.3,141.3,258.3z M279.3,248.5
        c-0.1,0-0.2,0.1-0.3,0.1c-0.2,0-0.3-0.1-0.4-0.2c-5.1-8.1-12.2-14.9-20.7-19.5c-0.7-0.4-1.4-0.8-2.2-1.1c0.5-0.8,0.9-1.7,1.3-2.5
        c9.5,5.3,17.2,13.2,22.4,22.7C279.6,248.1,279.5,248.4,279.3,248.5z"/>
    <path fill="#FFEBC2" d="M120.8,172.1c-0.2,0.1-0.4,0.1-0.5,0.2c1.1,0.5,2.3,0.8,3.5,1.2c4.3,1.1,7.8,1.8,11.1,1.9
        c1.3,0.1,2.6,0.1,3.8,0.1c7.8,0,13.9-1.5,18.9-4.6c-5.1-1.3-10.6-2.1-16.3-2.1C134,168.8,127.1,170,120.8,172.1z"/>
    <path fill="#FFEBC2" d="M227.2,171.4c4.8,2.7,10.7,4,17.9,4c1.2,0,2.5,0,3.8-0.1c3.2-0.2,6.7-0.8,11.1-1.9c1.7-0.5,3.3-1,4.8-1.7
        c-6-1.9-12.4-2.9-19.2-2.9C239.1,168.8,232.9,169.7,227.2,171.4z"/>
    <path fill="#FFEBC2" d="M158,170.5c1.2-0.8,2.3-1.7,3.4-2.6c4.1-3.8,7.4-8.2,9.8-13.2C166.1,158.7,161.5,164.1,158,170.5z"/>
    <path fill="#FFEBC2" d="M212,153.7c2.5,5.4,5.9,10.2,10.3,14.2c1.4,1.3,3,2.5,4.7,3.4C223.1,164,218,157.9,212,153.7z"/>
    <polygon fill="#FFEBC2" points="191.3,228.1 191.3,228.1 191.3,228.1     "/>
    <path d="M191.3,228.1L191.3,228.1L191.3,228.1c0,0,1.1,1.4,1.9,0l0,0c0.6-5.5,1.6-12.8,3.4-14.7c2.7-2.9,5.9-4,7.4-4.7c0,0,0,0,0,0
        c12-5.8,14-20.3,8-29.1c-3.8-5.6-12.7-17.1-19.7-17.2c-7.5-0.1-17.3,11.9-21.3,18.6c-5.4,9.3-2.4,22.8,9.5,28c0,0,0,0,0,0.1
        c0.1,0,0.3,0.1,0.5,0.1c0.6,0.3,1.3,0.5,2,0.7c1.5,0.7,3.3,1.8,5,3.5c1.8,1.9,2.8,9.1,3.4,14.6l-0.1,0.4l0,0L191.3,228.1z"/>
    <path fill="#664220" d="M95.8,215.8c8.3-4.6,17.7-7,27.2-7c-0.1-1.3-0.2-2.7-0.2-4c-8.9,0.3-17.8,2.7-25.7,7.1
        c-3.5,1.9-6.7,4.2-9.7,6.7c-5.3,4.6-9.8,10-13.2,16.3c-0.1,0.2,0,0.5,0.2,0.7c0.1,0,0.2,0.1,0.3,0.1c0.2,0,0.3-0.1,0.4-0.2
        c3.4-5.4,7.7-10.2,12.8-14.2C90.4,219.1,93,217.3,95.8,215.8z"/>
    <path fill="#664220" d="M109.5,223.2c4.8-2.6,9.9-4.5,15.1-5.7c-0.3-1.1-0.6-2.3-0.8-3.5c-4.5,1.2-8.9,2.9-13,5.2
        c-6.9,3.8-12.8,8.8-17.6,14.9c-2,2.5-3.8,5.2-5.3,8.1c-0.1,0.2,0,0.5,0.2,0.7c0.1,0,0.2,0.1,0.3,0.1c0.2,0,0.3-0.1,0.4-0.2
        c1.6-2.5,3.4-4.9,5.4-7.2C98.5,230.6,103.7,226.4,109.5,223.2z"/>
    <path fill="#664220" d="M126.7,228.8c0.7-0.4,1.4-0.8,2.2-1.1c-0.5-0.8-0.9-1.7-1.3-2.5c-9.3,5.2-16.8,12.8-22,22
        c-0.1,0.2-0.3,0.5-0.4,0.7c-0.1,0.2,0,0.5,0.2,0.7c0.1,0,0.2,0.1,0.3,0.1c0.2,0,0.3-0.1,0.4-0.2c0.1-0.2,0.3-0.4,0.4-0.6
        C111.4,239.9,118.4,233.4,126.7,228.8z"/>
    <path fill="#664220" d="M287.4,211.8c-7.9-4.3-16.8-6.8-25.7-7.1c0,1.4-0.1,2.7-0.2,4c9.5,0,18.9,2.4,27.2,7
        c3.5,1.9,6.8,4.3,9.9,6.9c4.2,3.7,7.9,7.9,10.8,12.6c0.1,0.2,0.3,0.2,0.4,0.2c0.1,0,0.2,0,0.3-0.1c0.2-0.1,0.3-0.4,0.2-0.7
        c-2.9-5.4-6.7-10.3-11.2-14.5C295.6,217,291.7,214.2,287.4,211.8z"/>
    <path fill="#664220" d="M273.8,219.3c-4.1-2.3-8.5-4-13-5.2c-0.2,1.2-0.5,2.3-0.8,3.5c5.3,1.2,10.4,3,15.1,5.7
        c6.4,3.5,12,8.2,16.6,13.8c1.5,1.8,2.9,3.7,4.1,5.7c0.1,0.2,0.3,0.2,0.4,0.2c0.1,0,0.2,0,0.3-0.1c0.2-0.1,0.3-0.4,0.2-0.7
        c-1.2-2.3-2.6-4.4-4.1-6.5C287.6,229,281.2,223.4,273.8,219.3z"/>
    <path fill="#664220" d="M257.1,225.2c-0.4,0.9-0.9,1.7-1.3,2.5c0.7,0.4,1.5,0.7,2.2,1.1c8.5,4.6,15.6,11.4,20.7,19.5
        c0.1,0.2,0.3,0.2,0.4,0.2c0.1,0,0.2,0,0.3-0.1c0.2-0.1,0.3-0.4,0.2-0.7C274.3,238.3,266.5,230.5,257.1,225.2z"/>
    <path fill="#76001E" d="M282.6,164.5c2.2-8.4,4-16.8,5.7-25l0.1-0.6c0.8-4,1.5-6.6,4.6-8c1.3-0.6,1.8-2.3,1.8-3.3
        c0-0.2,0-0.3,0-0.5c0.1-3.7,0.2-7.1,0-10.5c-0.1-1.5-1.8-3.4-3.3-3.6l-1-0.2c-1-0.2-2.1-0.3-3.1-0.5c-7.5-1.1-15.1-2.3-22.7-3.1
        c-5.2-0.6-10.4-0.9-15.4-0.9c-10.6,0-21.1,1.3-31.1,4c-1.5,0.4-3.1,0.8-4.6,1.3c-4.2,1.2-8.6,2.3-12.9,3.3
        c-1.9,0.4-3.8,0.4-5.9,0.4c-0.9,0-1.9,0-2.9,0.1c-1,0-1.9-0.1-2.9-0.1c-2.1,0-4.1,0-5.9-0.4c-4.3-0.9-8.7-2.1-12.9-3.3
        c-1.5-0.4-3.1-0.8-4.6-1.3c-10-2.7-20.5-4-31.1-4c-3.4,0-6.9,0.1-10.3,0.4c-1.7,0.1-3.4,0.3-5.1,0.5c-5.2,0.6-10.4,1.3-15.6,2.1
        c-2.2,0.3-4.4,0.6-6.6,1c-1.2,0.2-2.5,0.4-3.7,0.6l-1,0.2c-1.5,0.2-3.2,2.1-3.3,3.6c-0.2,3.5-0.1,7,0,10.9c0,1,0.5,2.7,1.8,3.3
        c3.1,1.4,3.7,4,4.6,8l0.1,0.6c1.7,8.2,3.5,16.6,5.7,25c1.3,5.1,4.6,9.3,9.4,12.2c0,0,0,0,0.1,0c5.3,3.2,11.4,5.1,18.6,6
        c4.5,0.5,9.3,0.5,15.3,0c11.8-1,21.1-5.6,27.9-13.9c4.9-6,8.7-12.8,11.4-20.5c0.7-2,1.4-4.2,2-6.3c0.9-3.5,2.3-4.6,6-4.8
        c3.6,0.2,5,1.3,6,4.8c0.6,2.1,1.2,4.1,1.9,6.1c2.8,7.9,6.6,14.7,11.5,20.8c6.7,8.3,16.1,12.9,27.9,13.9c2.9,0.2,5.6,0.4,8,0.4
        c2.6,0,5-0.1,7.3-0.4c7.2-0.8,13.3-2.8,18.6-6c0.5-0.3,1-0.6,1.5-1C278.6,172.9,281.4,169.1,282.6,164.5z M161.4,167.9
        c-1.1,1-2.2,1.9-3.4,2.6c-0.2,0.1-0.3,0.2-0.5,0.3c-5,3.1-11.1,4.6-18.9,4.6c-1.2,0-2.5,0-3.8-0.1c-3.2-0.2-6.7-0.8-11.1-1.9
        c-1.2-0.3-2.4-0.7-3.5-1.2c-7.5-3-12.3-8.9-14.3-17.4c-2.1-9-2.6-17-1.5-24.5c1-6.3,4.5-10.1,10.6-11.1c1.3-0.2,2.5-0.4,3.8-0.6
        c3.3-0.5,6.6-1,9.9-1.4c2-0.3,3.9-0.5,5.9-0.8c11.8,0.6,22.1,2.7,31.6,6.5c7.7,3.1,10.7,7.8,9.7,15.4c-0.8,6-2.3,11.5-4.7,16.3
        C168.8,159.7,165.5,164.2,161.4,167.9z M264.8,171.7c-1.5,0.7-3.1,1.3-4.8,1.7c-4.3,1.1-7.8,1.8-11.1,1.9c-1.3,0.1-2.6,0.1-3.8,0.1
        c-7.3,0-13.1-1.3-17.9-4c-0.1,0-0.1-0.1-0.2-0.1c-1.7-1-3.2-2.1-4.7-3.4c-4.4-4-7.8-8.8-10.3-14.2c-2.1-4.6-3.5-9.7-4.2-15.3
        c-0.9-7.6,2-12.3,9.7-15.4c9.4-3.8,19.7-5.9,31.6-6.5c2,0.3,3.9,0.5,5.9,0.8c4.5,0.6,9.1,1.2,13.7,2c6.1,1,9.6,4.8,10.6,11.1
        c1.1,7.5,0.6,15.5-1.5,24.5C275.8,162.9,271.5,168.5,264.8,171.7z"/>
    <path fill="#B7885E" d="M199.7,363.7c0.6-11.8-4.3-23.8-14.7-31.8c-3.2-2.4-6.8-4.5-10.6-6.4c3.8-13.7-3.5-26.6-8.2-34.8
        c-8.2-14.1-21.2-23.9-34.5-33.3c-0.4-0.1-0.7-0.1-1.1-0.2c13.4,9.4,26.8,19.4,35.2,33.7c4.2,7.2,12,20.5,8.2,34.3
        c-14.1-6.5-31.7-8.9-45.8-5.6c0.5-0.1,1.1-0.1,1.6-0.2c0.6-0.1,1.1,0.3,1.3,0.8c0.2,0.5-0.1,1-0.6,1.2c-7.9,2.9-14.4,9.2-17.8,17.5
        c-2.4,5.8-3,11.8-1.9,17.2c4.1,2,8.2,3.9,12.4,5.6c-0.1-2.2,0-4.4,0.4-6.7c2-11.6,10-20.9,20.3-23.7c0.5-0.1,1.1,0.1,1.4,0.6
        c0.3,0.5,0.1,1-0.4,1.3c-6.3,3.8-10.6,10.4-12,18.2c-0.9,5-0.4,9.9,1.3,14.3c6.4,2.1,12.9,3.9,19.6,5.3c-0.7-3.5-0.8-7.2-0.2-10.8
        c1.8-10.7,9.2-19.3,18.7-21.8c0.5-0.1,1.1,0.1,1.4,0.6c0.3,0.5,0.1,1-0.4,1.3c-5.7,3.5-9.7,9.5-11,16.7c-1,5.7-0.1,11.4,2.5,16.1
        c8.9,1.3,18.1,2,27.4,2c1.6,0,3.1,0,4.7-0.1c0.5-1.2,1-2.4,1.4-3.5C199.1,369.2,199.5,366.5,199.7,363.7z"/>
    <path fill="#976B42" d="M112.6,339.1c3.4-8.3,9.9-14.6,17.8-17.5c0.5-0.2,0.8-0.7,0.6-1.2c-0.2-0.5-0.7-0.9-1.3-0.8
        c-0.6,0-1.1,0.1-1.6,0.2h0c-0.1,0-0.2,0-0.2,0c-1.2,0.3-2.3,0.6-3.5,1c-0.6,0.2-1.1,0.4-1.7,0.6c-1.7,0.6-3.3,1.4-4.8,2.3
        c-5.1,2.8-9.4,6.8-12,11.6c-0.4,0.6-0.8,1.3-1.1,1.8c-0.3,0.4-0.5,0.9-0.7,1.3c-0.3,0.5-0.5,1-0.7,1.5c-0.1,0.3-0.2,0.6-0.3,0.8
        c-0.1,0.3-0.2,0.6-0.3,0.9c-1,2.9-1.6,6.2-1.8,9.5c3.2,1.8,6.4,3.6,9.7,5.2C109.6,350.9,110.2,344.9,112.6,339.1z"/>
    <path fill="#976B42" d="M132.9,351.7c1.3-7.8,5.7-14.5,12-18.2c0.5-0.3,0.6-0.8,0.4-1.3c-0.3-0.5-0.9-0.7-1.4-0.6
        c-10.3,2.7-18.3,12-20.3,23.7c-0.4,2.2-0.5,4.5-0.4,6.7c3.6,1.5,7.3,2.9,11.1,4.1C132.5,361.6,132,356.6,132.9,351.7z"/>
    <path fill="#976B42" d="M162.4,357.3c1.2-7.2,5.2-13.2,11-16.7c0.5-0.3,0.6-0.8,0.4-1.3c-0.3-0.5-0.9-0.7-1.4-0.6
        c-9.5,2.5-16.9,11.1-18.7,21.8c-0.6,3.6-0.5,7.3,0.2,10.8c3.7,0.8,7.4,1.5,11.1,2C162.3,368.7,161.4,363,162.4,357.3z"/>
    <path fill="#B7885E" d="M360.7,254.7c-2.1-1.7-4.4-3.1-7-4.3c-10.7-5-23.7-5-35,1.5c-8,4.7-15.5,12.1-21.4,20.7
        c-8.6-5.9-16.5-14.5-17-22c-0.1-0.9,0-1.9,0.2-3c-9.4,6.6-21.7,10.6-35,10.6c-5.3,0-10.5-0.6-15.4-1.8c-2.6,6.3-6.3,11.9-10.7,16.4
        c1.6,1.1,3.3,2.1,4.8,3c9.1,5,17.7,9.7,25.5,15.2c9.5,6.7,17.8,14.7,24.3,26.2c8.9,15.8,0.7,31.9-11.2,43.9
        c15-6.3,29-14.5,41.7-24.4c0,0,0,0,0,0c-1.3-0.6-2.5-1.3-3.7-2c-1.6-1-3-2-4.4-3.2c-0.6-0.5-1.3-1.2-2.1-2.1
        c-0.6-0.7-1.2-1.4-1.9-2.3c-0.2-0.3-0.4-0.6-0.6-0.9c-1-1.3-1.9-2.6-2.7-4.1c-0.5-1-1-2-1.4-3c-2.3-5.8-2.9-12.5-1.8-19
        c0-0.1,0-0.1,0-0.2c0.1-0.5,0.3-1.1,0.4-1.6c0.2-0.6,0.7-0.9,1.2-0.9c0.5,0,0.9,0.5,0.9,1.1c-0.3,8.4,3.1,16.8,9.5,23.1
        c4.5,4.4,9.8,7.2,15.1,8.3c3.4-3,6.7-6.1,9.9-9.4c-2.1-0.8-4.1-1.7-6-2.9c-10-6.3-15.6-17.1-14.2-27.7c0.1-0.6,0.5-1,1.1-1.1
        c0.5-0.1,1,0.3,1.1,0.8c1.1,7.2,5.6,13.8,12.3,18c4.3,2.7,9,4.1,13.7,4.2c4.4-5.1,8.6-10.5,12.4-16.1c-3.5-0.7-6.9-2-10-3.9
        c-9.2-5.8-14.4-15.8-13.1-25.6c0.1-0.6,0.5-1,1.1-1.1c0.5-0.1,1,0.3,1.1,0.8c1,6.6,5.1,12.6,11.3,16.5c4.9,3.1,10.5,4.4,15.8,3.7
        c5.5-9.1,10.2-18.8,14-28.9C362.6,256.3,361.7,255.5,360.7,254.7z"/>
    <path fill="#976B42" d="M333.7,282.4c-6.2-3.8-10.3-9.8-11.3-16.5c-0.1-0.5-0.5-0.9-1.1-0.8c-0.5,0.1-1,0.5-1.1,1.1
        c-1.3,9.8,3.9,19.8,13.1,25.6c3.1,1.9,6.5,3.3,10,3.9c2.1-3.1,4.2-6.3,6.1-9.5C344.2,286.8,338.6,285.5,333.7,282.4z"/>
    <path fill="#976B42" d="M304.9,289.6c-0.1-0.5-0.5-0.9-1.1-0.8c-0.5,0.1-1,0.5-1.1,1.1c-1.4,10.6,4.2,21.5,14.2,27.7
        c1.9,1.2,3.9,2.2,6,2.9c2.8-2.8,5.4-5.7,8-8.7c-4.7-0.1-9.4-1.6-13.7-4.2C310.6,303.4,306.1,296.8,304.9,289.6z"/>
    <path fill="#976B42" d="M288.5,298.5c0-0.6-0.4-1-0.9-1.1c-0.5,0-1.1,0.3-1.2,0.9c-0.2,0.5-0.3,1.1-0.4,1.6c0,0.1,0,0.1,0,0.2
        c-1,6.5-0.4,13.3,1.8,19c0.4,1,0.9,2.1,1.4,3c0.8,1.5,1.7,2.8,2.7,4.1c0.2,0.3,0.4,0.6,0.6,0.9c0.6,0.9,1.3,1.6,1.9,2.3
        c0.8,0.9,1.5,1.6,2.1,2.1c1.3,1.2,2.8,2.3,4.4,3.2c1.2,0.7,2.4,1.4,3.7,2c0,0,0,0,0,0c2.9-2.2,5.7-4.6,8.5-7
        c-5.3-1.1-10.7-3.8-15.1-8.3C291.6,315.3,288.2,306.9,288.5,298.5z"/>
    <path fill="#006553" d="M328.3,328c1.8-1.8,3.6-3.7,5.4-5.6c4.9-5.4,9.6-11,13.9-16.9c1.1-1.5,2.2-3.1,3.3-4.7
        c7.2-10.5,13.5-21.8,18.5-33.7c0,0,0,0,0,0c9.8-23,15.2-48.3,15.2-74.8C384.5,86.3,298.3,0,192.3,0S0,86.3,0,192.3
        c0,73.5,41.4,137.4,102.1,169.8c5.3,2.8,10.7,5.4,16.3,7.7c2.3,1,4.7,1.9,7.1,2.8c7,2.6,14.2,4.8,21.6,6.6c1.3,0.3,2.6,0.6,3.9,0.9
        c12.6,2.8,25.7,4.3,39.1,4.4c0,0,0,0,0,0c0.7,0,1.4,0,2.1,0c46.7,0,89.6-16.7,122.9-44.5C319.8,336.2,324.1,332.2,328.3,328z
         M9.2,192.3C9.2,91.1,91.1,9.2,192.3,9.2s183.1,82,183.1,183.1c0,22.9-4.2,44.8-11.9,65c-3.8,10.1-8.5,19.8-14,28.9
        c-1.9,3.2-4,6.4-6.1,9.5c-3.8,5.6-8,11-12.4,16.1c-2.6,3-5.2,5.9-8,8.7c-3.2,3.3-6.5,6.4-9.9,9.4c-2.8,2.4-5.6,4.8-8.5,7
        c-12.7,9.9-26.7,18.1-41.7,24.4c-20.4,8.5-42.6,13.5-65.9,14.1c-1.6,0-3.1,0.1-4.7,0.1c-9.3,0-18.4-0.7-27.4-2
        c-3.7-0.6-7.5-1.2-11.1-2c-6.7-1.4-13.2-3.2-19.6-5.3c-3.7-1.3-7.4-2.6-11.1-4.1c-4.2-1.7-8.4-3.6-12.4-5.6
        c-3.3-1.6-6.5-3.4-9.7-5.2C46.1,319.4,9.2,260.2,9.2,192.3z"/>
</g>
</svg>
