<?xml version="1.0" encoding="utf-8"?>
<!-- Generator: Adobe Illustrator 18.1.1, SVG Export Plug-In . SVG Version: 6.00 Build 0)  -->
<svg version="1.1" xmlns="http://www.w3.org/2000/svg" xmlns:xlink="http://www.w3.org/1999/xlink" x="0px" y="0px"
	 viewBox="0 0 244.8 258.1" enable-background="new 0 0 244.8 258.1" xml:space="preserve">
<g id="Layer_1" display="none">
</g>
<g id="Layer_2" display="none">
	<g display="inline">
		<g>
			<path fill="none" stroke="#305854" stroke-width="10" stroke-linecap="round" stroke-miterlimit="10" d="M95.9,883.5
				c-2.5,0-5,0-7.5-0.1"/>
			
				<path fill="none" stroke="#305854" stroke-width="10" stroke-linecap="round" stroke-miterlimit="10" stroke-dasharray="14.88,19.8401" d="
				M68.6,882C-5.6,873.8-62,833-62,783.9c0-55,70.7-99.6,157.9-99.6l83.6,0c87.2,0,157.9-44.6,157.9-99.6c0-51.3-61.5-93.5-140.5-99
				"/>
			<path fill="none" stroke="#305854" stroke-width="10" stroke-linecap="round" stroke-miterlimit="10" d="M187,485.2
				c-2.5-0.1-5-0.1-7.5-0.1h0.6l-4.4,0l-0.6,0.2c-0.8,0-1.7,0-2.5,0"/>
			
				<path fill="none" stroke="#305854" stroke-width="10" stroke-linecap="round" stroke-miterlimit="10" stroke-dasharray="15.154,20.2054" d="
				M152.4,484.2C76,477.3,17.2,435.8,17.2,385.6c0-55,70.7-99.6,157.9-99.6l4.4,0c87.2,0,157.9-44.6,157.9-99.6
				c0-55-70.7-99.6-157.9-99.6l-143.7,0"/>
			
				<line fill="none" stroke="#305854" stroke-width="10" stroke-linecap="round" stroke-miterlimit="10" x1="25.7" y1="86.8" x2="18.2" y2="86.8"/>
		</g>
	</g>
	
		<rect x="-139.1" y="5.1" display="inline" fill="none" stroke="#305854" stroke-width="9" stroke-linecap="round" stroke-miterlimit="10" stroke-dasharray="15,20" width="553.5" height="550.5"/>
</g>
<g id="Layer_3" display="none">
	<circle display="inline" fill="none" stroke="#000000" stroke-miterlimit="10" cx="-10.6" cy="18.1" r="56.3"/>
	<circle display="inline" fill="none" stroke="#000000" stroke-miterlimit="10" cx="-10.6" cy="268.2" r="56.3"/>
	<path fill="none" stroke="#000000" stroke-width="1.0385" stroke-miterlimit="10" d="M-62.8,271.8c-14-13.6-22.7-32.7-22.7-53.7
		c0-41.4,33.6-74.9,74.9-74.9s74.9-33.6,74.9-74.9c0-21.1-8.7-40.1-22.7-53.7"/>
	<g display="inline">
		<path fill="#296E5F" d="M-66.8,272.2c-5.3,0-10.7-0.6-15.8-1.9c-2.1-0.5-3.5-2.7-2.9-4.8c0.5-2.1,2.7-3.5,4.8-2.9
			c4.5,1.1,9.2,1.7,13.9,1.7c2.2,0,4,1.8,4,4C-62.8,270.4-64.6,272.2-66.8,272.2 M-100,262.7c-0.7,0-1.5-0.2-2.1-0.6
			c-4.5-2.8-8.7-6.2-12.4-10c-1.5-1.6-1.5-4.1,0.1-5.7c1.6-1.5,4.1-1.5,5.7,0.1c3.3,3.4,6.9,6.3,10.9,8.8c1.9,1.2,2.4,3.6,1.3,5.5
			C-97.4,262-98.7,262.7-100,262.7 M-123.1,237c-1.5,0-2.9-0.8-3.6-2.3c-2.3-4.8-4.1-9.9-5.2-15.1c-0.5-2.2,0.9-4.3,3.1-4.7
			c2.2-0.5,4.3,0.9,4.7,3.1c1,4.6,2.5,9,4.6,13.2c1,2,0.1,4.4-1.8,5.3C-121.9,236.8-122.5,237-123.1,237 M-129,202.9
			c-0.1,0-0.3,0-0.4,0c-2.2-0.2-3.8-2.2-3.6-4.4c0.6-5.3,1.8-10.5,3.6-15.5c0.8-2.1,3-3.1,5.1-2.4c2.1,0.8,3.1,3,2.4,5.1
			c-1.6,4.4-2.7,9-3.2,13.6C-125.2,201.4-127,202.9-129,202.9 M-115.9,171c-0.9,0-1.7-0.3-2.5-0.9c-1.7-1.4-2-3.9-0.7-5.6
			c3.3-4.2,7.1-8,11.3-11.2c1.7-1.4,4.3-1.1,5.6,0.7c1.4,1.7,1.1,4.3-0.7,5.6c-3.7,2.9-7,6.2-9.9,9.9
			C-113.6,170.4-114.8,171-115.9,171 M-87.9,150.8c-1.6,0-3.2-1-3.8-2.7c-0.7-2.1,0.3-4.4,2.4-5.1c5-1.8,10.2-3,15.5-3.5
			c2.2-0.2,4.2,1.4,4.4,3.6c0.2,2.2-1.4,4.2-3.6,4.4c-4.7,0.5-9.3,1.5-13.7,3.1C-87,150.7-87.5,150.8-87.9,150.8 M31.7,147.2h-15
			c-2.2,0-4-1.8-4-4s1.8-4,4-4h15c2.2,0,4,1.8,4,4S33.9,147.2,31.7,147.2 M-3.3,147.2h-15c-2.2,0-4-1.8-4-4s1.8-4,4-4h15
			c2.2,0,4,1.8,4,4S-1.1,147.2-3.3,147.2 M-38.3,147.2h-15c-2.2,0-4-1.8-4-4s1.8-4,4-4h15c2.2,0,4,1.8,4,4S-36.1,147.2-38.3,147.2
			 M51.7,146.9c-2,0-3.8-1.6-4-3.6c-0.2-2.2,1.4-4.2,3.6-4.4c4.7-0.4,9.3-1.4,13.7-3c2.1-0.7,4.4,0.4,5.1,2.5
			c0.7,2.1-0.4,4.4-2.5,5.1c-5,1.7-10.3,2.9-15.6,3.4C51.9,146.9,51.8,146.9,51.7,146.9 M83.8,134.2c-1.2,0-2.4-0.5-3.2-1.6
			c-1.3-1.7-1-4.3,0.7-5.6c3.7-2.9,7.1-6.2,10-9.8c1.4-1.7,3.9-2,5.6-0.6c1.7,1.4,2,3.9,0.6,5.6c-3.3,4.1-7.2,7.9-11.4,11.1
			C85.5,133.9,84.7,134.2,83.8,134.2 M104.3,106.4c-0.5,0-0.9-0.1-1.4-0.3c-2.1-0.8-3.1-3.1-2.4-5.1c1.6-4.4,2.7-9,3.3-13.6
			c0.3-2.2,2.2-3.8,4.4-3.5c2.2,0.3,3.8,2.2,3.5,4.4c-0.6,5.3-1.9,10.5-3.7,15.5C107.5,105.4,105.9,106.4,104.3,106.4 M106.9,72
			c-1.9,0-3.5-1.3-3.9-3.2c-0.9-4.6-2.4-9-4.5-13.3c-0.9-2-0.1-4.4,1.9-5.3c2-1,4.4-0.1,5.3,1.9c2.3,4.8,4,9.9,5.1,15.1
			c0.4,2.2-0.9,4.3-3.1,4.7C107.5,72,107.2,72,106.9,72 M90.9,41.4c-1.1,0-2.1-0.4-2.9-1.2c-3.2-3.4-6.9-6.4-10.8-8.9
			c-1.9-1.2-2.4-3.7-1.2-5.5c1.2-1.9,3.7-2.4,5.5-1.2c4.5,2.9,8.6,6.3,12.3,10.1c1.5,1.6,1.5,4.1-0.1,5.7
			C92.9,41,91.9,41.4,90.9,41.4 M61,24c-0.3,0-0.7,0-1-0.1c-4.5-1.1-9.2-1.7-13.9-1.8c-2.2,0-4-1.8-4-4c0-2.2,1.8-4,4-4h0
			c5.3,0,10.7,0.7,15.8,2c2.1,0.5,3.4,2.7,2.9,4.9C64.5,22.8,62.8,24,61,24"/>
		<path fill="#296E5F" d="M-81.7,262.4c-1.8,0-3.4,1.2-3.9,3.1c-0.1,0.3-0.1,0.6-0.1,1c0,1.8,1.2,3.4,3.1,3.9
			c5.1,1.3,10.5,1.9,15.8,1.9c2.2,0,4-1.8,4-4c0-2.2-1.8-4-4-4c-4.7,0-9.4-0.6-13.9-1.7C-81.1,262.5-81.4,262.4-81.7,262.4
			 M-111.7,245.3c-1,0-2,0.4-2.8,1.1c-0.8,0.8-1.2,1.8-1.2,2.9c0,1,0.4,2,1.1,2.8c3.7,3.8,7.9,7.2,12.4,10c0.7,0.4,1.4,0.6,2.1,0.6
			c1.3,0,2.6-0.7,3.4-1.9c0.4-0.7,0.6-1.4,0.6-2.1c0-1.3-0.7-2.6-1.9-3.4c-4-2.5-7.6-5.5-10.9-8.8
			C-109.6,245.7-110.6,245.3-111.7,245.3 M-128,214.8c-0.3,0-0.6,0-0.8,0.1c-1.9,0.4-3.2,2.1-3.2,3.9c0,0.3,0,0.6,0.1,0.8
			c1.1,5.2,2.9,10.3,5.2,15.1c0.7,1.4,2.1,2.3,3.6,2.3c0.6,0,1.2-0.1,1.7-0.4c1.4-0.7,2.3-2.1,2.3-3.6c0-0.6-0.1-1.2-0.4-1.7
			c-2-4.2-3.6-8.7-4.6-13.2C-124.5,216.1-126.1,214.8-128,214.8 M-125.6,180.4c-1.6,0-3.2,1-3.8,2.6c-1.8,5-3,10.2-3.6,15.5
			c0,0.1,0,0.3,0,0.4c0,2,1.5,3.7,3.6,4c0.1,0,0.3,0,0.4,0c2,0,3.8-1.5,4-3.6c0.5-4.7,1.6-9.3,3.2-13.6c0.2-0.5,0.2-0.9,0.2-1.4
			c0-1.6-1-3.2-2.6-3.8C-124.7,180.4-125.2,180.4-125.6,180.4 M-105.3,152.4c-0.9,0-1.7,0.3-2.5,0.8c-4.2,3.3-8,7.1-11.3,11.2
			c-0.6,0.7-0.9,1.6-0.9,2.5c0,1.2,0.5,2.4,1.5,3.1c0.7,0.6,1.6,0.9,2.5,0.9c1.2,0,2.4-0.5,3.1-1.5c2.9-3.7,6.2-7,9.9-9.9
			c1-0.8,1.5-2,1.5-3.2c0-0.9-0.3-1.7-0.8-2.5C-103,152.9-104.1,152.4-105.3,152.4 M-73.3,139.5c-0.1,0-0.3,0-0.4,0
			c-5.3,0.5-10.5,1.7-15.5,3.5c-1.6,0.6-2.7,2.1-2.7,3.8c0,0.4,0.1,0.9,0.2,1.4c0.6,1.6,2.1,2.7,3.8,2.7c0.4,0,0.9-0.1,1.3-0.2
			c4.4-1.6,9-2.6,13.7-3.1c2.1-0.2,3.6-2,3.6-4c0-0.1,0-0.3,0-0.4C-69.5,141-71.3,139.5-73.3,139.5 M-38.3,139.2h-15
			c-2.2,0-4,1.8-4,4s1.8,4,4,4h15c2.2,0,4-1.8,4-4S-36.1,139.2-38.3,139.2 M-3.3,139.2h-15c-2.2,0-4,1.8-4,4s1.8,4,4,4h15
			c2.2,0,4-1.8,4-4S-1.1,139.2-3.3,139.2 M31.7,139.2h-15c-2.2,0-4,1.8-4,4s1.8,4,4,4h15c2.2,0,4-1.8,4-4S33.9,139.2,31.7,139.2
			 M66.3,135.7c-0.4,0-0.9,0.1-1.3,0.2c-4.4,1.5-9,2.5-13.7,3c-2.1,0.2-3.6,1.9-3.6,4c0,0.1,0,0.3,0,0.4c0.2,2.1,1.9,3.6,4,3.6
			c0.1,0,0.3,0,0.4,0c5.3-0.5,10.5-1.6,15.6-3.4c1.7-0.6,2.7-2.1,2.7-3.8c0-0.4-0.1-0.9-0.2-1.3C69.5,136.7,67.9,135.7,66.3,135.7
			 M94.5,115.7c-1.2,0-2.3,0.5-3.1,1.5c-2.9,3.7-6.3,7-10,9.8c-1,0.8-1.6,2-1.6,3.2c0,0.9,0.3,1.7,0.8,2.4c0.8,1,2,1.6,3.2,1.6
			c0.9,0,1.7-0.3,2.4-0.8c4.2-3.2,8-7,11.4-11.1c0.6-0.7,0.9-1.6,0.9-2.5c0-1.2-0.5-2.3-1.5-3.1C96.3,116,95.4,115.7,94.5,115.7
			 M107.8,83.9c-2,0-3.7,1.5-4,3.5c-0.5,4.7-1.6,9.2-3.3,13.6c-0.2,0.5-0.3,0.9-0.3,1.4c0,1.6,1,3.1,2.6,3.7
			c0.5,0.2,0.9,0.3,1.4,0.3c1.6,0,3.2-1,3.7-2.6c1.9-5,3.1-10.2,3.7-15.5c0-0.2,0-0.3,0-0.5c0-2-1.5-3.7-3.5-4
			C108.1,83.9,107.9,83.9,107.8,83.9 M102.2,49.8c-0.6,0-1.2,0.1-1.7,0.4c-1.4,0.7-2.3,2.1-2.3,3.6c0,0.6,0.1,1.2,0.4,1.7
			c2,4.2,3.5,8.7,4.5,13.3c0.4,1.9,2.1,3.2,3.9,3.2c0.3,0,0.5,0,0.8-0.1c1.9-0.4,3.2-2.1,3.2-3.9c0-0.3,0-0.5-0.1-0.8
			c-1.1-5.2-2.8-10.3-5.1-15.1C105.1,50.6,103.7,49.8,102.2,49.8 M79.3,23.9c-1.3,0-2.6,0.7-3.4,1.8c-0.4,0.7-0.6,1.4-0.6,2.1
			c0,1.3,0.7,2.6,1.8,3.4c3.9,2.5,7.6,5.5,10.8,8.9c0.8,0.8,1.8,1.2,2.9,1.2c1,0,2-0.4,2.8-1.1c0.8-0.8,1.2-1.8,1.2-2.9
			c0-1-0.4-2-1.1-2.8c-3.7-3.8-7.8-7.2-12.3-10.1C80.8,24.1,80.1,23.9,79.3,23.9 M46.2,14.1L46.2,14.1c-2.2,0-4,1.8-4,4c0,0,0,0,0,0
			c0,2.2,1.8,4,4,4c4.7,0,9.4,0.6,13.9,1.8c0.3,0.1,0.7,0.1,1,0.1c1.8,0,3.4-1.2,3.9-3c0.1-0.3,0.1-0.7,0.1-1c0-1.8-1.2-3.4-3-3.9
			C56.9,14.8,51.6,14.2,46.2,14.1"/>
	</g>
	<path display="inline" fill="#296E5F" d="M-67.3,522.3C-67.4,522.3-67.4,522.3-67.3,522.3c-5.4,0-10.7-0.7-15.8-2
		c-2.1-0.5-3.4-2.7-2.9-4.9s2.7-3.4,4.9-2.9c4.5,1.1,9.2,1.7,13.9,1.8c2.2,0,4,1.8,4,4C-63.4,520.5-65.1,522.3-67.3,522.3z
		 M-100.5,512.5c-0.7,0-1.5-0.2-2.1-0.6c-4.5-2.9-8.6-6.3-12.3-10.1c-1.5-1.6-1.5-4.1,0.1-5.7c1.6-1.5,4.1-1.5,5.7,0.1
		c3.2,3.4,6.9,6.4,10.8,8.9c1.9,1.2,2.4,3.7,1.2,5.5C-97.8,511.8-99.1,512.5-100.5,512.5z M-123.3,486.6c-1.5,0-2.9-0.8-3.6-2.3
		c-2.3-4.8-4-9.9-5.1-15.1c-0.4-2.2,0.9-4.3,3.1-4.7c2.2-0.4,4.3,0.9,4.7,3.1c0.9,4.6,2.4,9,4.5,13.3c0.9,2,0.1,4.4-1.9,5.3
		C-122.2,486.5-122.7,486.6-123.3,486.6z M-128.9,452.5c-0.2,0-0.3,0-0.5,0c-2.2-0.3-3.8-2.2-3.5-4.4c0.6-5.3,1.9-10.5,3.7-15.5
		c0.8-2.1,3.1-3.1,5.1-2.4c2.1,0.8,3.1,3.1,2.4,5.1c-1.6,4.4-2.7,9-3.3,13.6C-125.2,451-126.9,452.5-128.9,452.5z M-115.6,420.7
		c-0.9,0-1.8-0.3-2.5-0.9c-1.7-1.4-2-3.9-0.6-5.6c3.3-4.1,7.2-7.9,11.4-11.1c1.8-1.3,4.3-1,5.6,0.7c1.3,1.8,1,4.3-0.7,5.6
		c-3.7,2.9-7.1,6.2-10,9.8C-113.3,420.1-114.5,420.7-115.6,420.7z M-87.4,400.7c-1.7,0-3.2-1-3.8-2.7c-0.7-2.1,0.4-4.4,2.5-5.1
		c5-1.7,10.3-2.9,15.6-3.4c2.2-0.2,4.2,1.4,4.4,3.6c0.2,2.2-1.4,4.2-3.6,4.4c-4.7,0.4-9.3,1.4-13.7,3
		C-86.5,400.6-87,400.7-87.4,400.7z M32.2,397.2h-15c-2.2,0-4-1.8-4-4s1.8-4,4-4h15c2.2,0,4,1.8,4,4S34.4,397.2,32.2,397.2z
		 M-2.8,397.2h-15c-2.2,0-4-1.8-4-4s1.8-4,4-4h15c2.2,0,4,1.8,4,4S-0.6,397.2-2.8,397.2z M-37.8,397.2h-15c-2.2,0-4-1.8-4-4
		s1.8-4,4-4h15c2.2,0,4,1.8,4,4S-35.6,397.2-37.8,397.2z M52.2,396.9c-2,0-3.8-1.5-4-3.6c-0.2-2.2,1.4-4.2,3.6-4.4
		c4.7-0.5,9.3-1.5,13.7-3.1c2.1-0.7,4.4,0.3,5.1,2.4c0.7,2.1-0.3,4.4-2.4,5.1c-5,1.8-10.2,3-15.5,3.5
		C52.4,396.9,52.3,396.9,52.2,396.9z M84.2,384c-1.2,0-2.4-0.5-3.2-1.5c-1.4-1.7-1.1-4.3,0.7-5.6c3.7-2.9,7-6.2,9.9-9.9
		c1.4-1.7,3.9-2,5.6-0.7c1.7,1.4,2,3.9,0.7,5.6c-3.3,4.2-7.1,8-11.3,11.2C85.9,383.7,85.1,384,84.2,384z M104.5,356
		c-0.5,0-0.9-0.1-1.4-0.2c-2.1-0.8-3.1-3-2.4-5.1c1.6-4.4,2.7-9,3.2-13.6c0.2-2.2,2.2-3.8,4.4-3.6c2.2,0.2,3.8,2.2,3.6,4.4
		c-0.6,5.3-1.8,10.5-3.6,15.5C107.7,355,106.1,356,104.5,356z M106.8,321.6c-1.8,0-3.5-1.3-3.9-3.2c-1-4.6-2.5-9-4.6-13.2
		c-1-2-0.1-4.4,1.8-5.3c2-1,4.4-0.1,5.3,1.8c2.3,4.8,4.1,9.9,5.2,15.1c0.5,2.2-0.9,4.3-3.1,4.7C107.4,321.5,107.1,321.6,106.8,321.6
		z M90.5,291.1c-1,0-2.1-0.4-2.9-1.2c-3.3-3.4-6.9-6.3-10.9-8.8c-1.9-1.2-2.4-3.6-1.3-5.5c1.2-1.9,3.6-2.4,5.5-1.3
		c4.5,2.8,8.7,6.2,12.4,10c1.5,1.6,1.5,4.1-0.1,5.7C92.5,290.8,91.5,291.1,90.5,291.1z M60.6,274c-0.3,0-0.6,0-0.9-0.1
		c-4.5-1.1-9.2-1.7-13.9-1.7c-2.2,0-4-1.8-4-4s1.8-4,4-4c5.3,0,10.7,0.6,15.8,1.9c2.1,0.5,3.5,2.7,2.9,4.8
		C64,272.7,62.4,274,60.6,274z"/>
	<path display="inline" fill="#296E5F" d="M-67.3,22.1C-67.4,22.1-67.4,22.1-67.3,22.1c-5.4,0-10.7-0.7-15.8-2
		c-2.1-0.5-3.4-2.7-2.9-4.9c0.5-2.1,2.7-3.4,4.9-2.9c4.5,1.1,9.2,1.7,13.9,1.8c2.2,0,4,1.8,4,4C-63.4,20.3-65.1,22.1-67.3,22.1z
		 M-100.5,12.3c-0.7,0-1.5-0.2-2.1-0.6c-4.5-2.9-8.6-6.3-12.3-10.1c-1.5-1.6-1.5-4.1,0.1-5.7c1.6-1.5,4.1-1.5,5.7,0.1
		c3.2,3.4,6.9,6.4,10.8,8.9c1.9,1.2,2.4,3.7,1.2,5.5C-97.8,11.7-99.1,12.3-100.5,12.3z M-123.3-13.6c-1.5,0-2.9-0.8-3.6-2.3
		c-2.3-4.8-4-9.9-5.1-15.1c-0.4-2.2,0.9-4.3,3.1-4.7c2.2-0.4,4.3,0.9,4.7,3.1c0.9,4.6,2.4,9,4.5,13.3c0.9,2,0.1,4.4-1.9,5.3
		C-122.2-13.7-122.7-13.6-123.3-13.6z M-128.9-47.6c-0.2,0-0.3,0-0.5,0c-2.2-0.3-3.8-2.2-3.5-4.4c0.6-5.3,1.9-10.5,3.7-15.5
		c0.8-2.1,3.1-3.1,5.1-2.4c2.1,0.8,3.1,3.1,2.4,5.1c-1.6,4.4-2.7,9-3.3,13.6C-125.2-49.1-126.9-47.6-128.9-47.6z M-115.6-79.5
		c-0.9,0-1.8-0.3-2.5-0.9c-1.7-1.4-2-3.9-0.6-5.6c3.3-4.1,7.2-7.9,11.4-11.1c1.8-1.3,4.3-1,5.6,0.7c1.3,1.8,1,4.3-0.7,5.6
		c-3.7,2.9-7.1,6.2-10,9.8C-113.3-80-114.5-79.5-115.6-79.5z M-87.4-99.4c-1.7,0-3.2-1-3.8-2.7c-0.7-2.1,0.4-4.4,2.5-5.1
		c5-1.7,10.3-2.9,15.6-3.4c2.2-0.2,4.2,1.4,4.4,3.6c0.2,2.2-1.4,4.2-3.6,4.4c-4.7,0.4-9.3,1.4-13.7,3C-86.5-99.5-87-99.4-87.4-99.4z
		 M32.2-102.9h-15c-2.2,0-4-1.8-4-4s1.8-4,4-4h15c2.2,0,4,1.8,4,4S34.4-102.9,32.2-102.9z M-2.8-102.9h-15c-2.2,0-4-1.8-4-4
		s1.8-4,4-4h15c2.2,0,4,1.8,4,4S-0.6-102.9-2.8-102.9z M-37.8-102.9h-15c-2.2,0-4-1.8-4-4s1.8-4,4-4h15c2.2,0,4,1.8,4,4
		S-35.6-102.9-37.8-102.9z M52.2-103.2c-2,0-3.8-1.5-4-3.6c-0.2-2.2,1.4-4.2,3.6-4.4c4.7-0.5,9.3-1.5,13.7-3.1
		c2.1-0.7,4.4,0.3,5.1,2.4c0.7,2.1-0.3,4.4-2.4,5.1c-5,1.8-10.2,3-15.5,3.5C52.4-103.3,52.3-103.2,52.2-103.2z M84.2-116.2
		c-1.2,0-2.4-0.5-3.2-1.5c-1.4-1.7-1.1-4.3,0.7-5.6c3.7-2.9,7-6.2,9.9-9.9c1.4-1.7,3.9-2,5.6-0.7c1.7,1.4,2,3.9,0.7,5.6
		c-3.3,4.2-7.1,8-11.3,11.2C85.9-116.4,85.1-116.2,84.2-116.2z M104.5-144.1c-0.5,0-0.9-0.1-1.4-0.2c-2.1-0.8-3.1-3-2.4-5.1
		c1.6-4.4,2.7-9,3.2-13.6c0.2-2.2,2.2-3.8,4.4-3.6c2.2,0.2,3.8,2.2,3.6,4.4c-0.6,5.3-1.8,10.5-3.6,15.5
		C107.7-145.1,106.1-144.1,104.5-144.1z M106.8-178.6c-1.8,0-3.5-1.3-3.9-3.2c-1-4.6-2.5-9-4.6-13.2c-1-2-0.1-4.4,1.8-5.3
		c2-1,4.4-0.1,5.3,1.8c2.3,4.8,4.1,9.9,5.2,15.1c0.5,2.2-0.9,4.3-3.1,4.7C107.4-178.6,107.1-178.6,106.8-178.6z M90.5-209
		c-1,0-2.1-0.4-2.9-1.2c-3.3-3.4-6.9-6.3-10.9-8.8c-1.9-1.2-2.4-3.6-1.3-5.5c1.2-1.9,3.6-2.4,5.5-1.3c4.5,2.8,8.7,6.2,12.4,10
		c1.5,1.6,1.5,4.1-0.1,5.7C92.5-209.4,91.5-209,90.5-209z M60.6-226.2c-0.3,0-0.6,0-1-0.1c-4.5-1.1-9.2-1.7-13.9-1.7
		c-2.2,0-4-1.8-4-4s1.8-4,4-4c5.3,0,10.7,0.6,15.8,1.9c2.1,0.5,3.5,2.7,2.9,4.8C64-227.4,62.4-226.2,60.6-226.2z"/>
</g>
<g id="Layer_4">
	<g>
		<path fill="#307A68" d="M66.2,258.1c-5.3,0-10.7-0.6-15.8-1.9c-2.1-0.5-3.5-2.7-2.9-4.8c0.5-2.1,2.7-3.5,4.8-2.9
			c4.5,1.1,9.2,1.7,13.9,1.7c2.2,0,4,1.8,4,4C70.2,256.3,68.4,258.1,66.2,258.1 M33,248.5c-0.7,0-1.5-0.2-2.1-0.6
			c-4.5-2.8-8.7-6.2-12.4-10c-1.5-1.6-1.5-4.1,0.1-5.7c1.6-1.5,4.1-1.5,5.7,0.1c3.3,3.4,6.9,6.3,10.9,8.8c1.9,1.2,2.4,3.6,1.3,5.5
			C35.6,247.9,34.3,248.5,33,248.5 M9.9,222.8c-1.5,0-2.9-0.8-3.6-2.3c-2.3-4.8-4.1-9.9-5.2-15.1c-0.5-2.2,0.9-4.3,3.1-4.7
			c2.2-0.5,4.3,0.9,4.7,3.1c1,4.6,2.5,9,4.6,13.2c1,2,0.1,4.4-1.8,5.3C11.1,222.7,10.5,222.8,9.9,222.8 M4,188.8c-0.1,0-0.3,0-0.4,0
			c-2.2-0.2-3.8-2.2-3.6-4.4c0.6-5.3,1.8-10.5,3.6-15.5c0.8-2.1,3-3.1,5.1-2.4c2.1,0.8,3.1,3,2.4,5.1c-1.6,4.4-2.7,9-3.2,13.6
			C7.8,187.3,6,188.8,4,188.8 M17.1,156.8c-0.9,0-1.7-0.3-2.5-0.9c-1.7-1.4-2-3.9-0.7-5.6c3.3-4.2,7.1-8,11.3-11.2
			c1.7-1.4,4.3-1.1,5.6,0.7c1.4,1.7,1.1,4.3-0.7,5.6c-3.7,2.9-7,6.2-9.9,9.9C19.4,156.3,18.2,156.8,17.1,156.8 M45.1,136.7
			c-1.6,0-3.2-1-3.8-2.7c-0.7-2.1,0.3-4.4,2.4-5.1c5-1.8,10.2-3,15.5-3.5c2.2-0.2,4.2,1.4,4.4,3.6c0.2,2.2-1.4,4.2-3.6,4.4
			c-4.7,0.5-9.3,1.5-13.7,3.1C46,136.6,45.5,136.7,45.1,136.7 M164.7,133h-15c-2.2,0-4-1.8-4-4s1.8-4,4-4h15c2.2,0,4,1.8,4,4
			S166.9,133,164.7,133 M129.7,133h-15c-2.2,0-4-1.8-4-4s1.8-4,4-4h15c2.2,0,4,1.8,4,4S131.9,133,129.7,133 M94.7,133h-15
			c-2.2,0-4-1.8-4-4s1.8-4,4-4h15c2.2,0,4,1.8,4,4S96.9,133,94.7,133 M184.7,132.8c-2,0-3.8-1.6-4-3.6c-0.2-2.2,1.4-4.2,3.6-4.4
			c4.7-0.4,9.3-1.4,13.7-3c2.1-0.7,4.4,0.4,5.1,2.5c0.7,2.1-0.4,4.4-2.5,5.1c-5,1.7-10.3,2.9-15.6,3.4
			C184.9,132.8,184.8,132.8,184.7,132.8 M216.8,120.1c-1.2,0-2.4-0.5-3.2-1.6c-1.3-1.7-1-4.3,0.7-5.6c3.7-2.9,7.1-6.2,10-9.8
			c1.4-1.7,3.9-2,5.6-0.6c1.7,1.4,2,3.9,0.6,5.6c-3.3,4.1-7.2,7.9-11.4,11.1C218.5,119.8,217.7,120.1,216.8,120.1 M237.3,92.3
			c-0.5,0-0.9-0.1-1.4-0.3c-2.1-0.8-3.1-3.1-2.4-5.1c1.6-4.4,2.7-9,3.3-13.6c0.3-2.2,2.2-3.8,4.4-3.5c2.2,0.3,3.8,2.2,3.5,4.4
			c-0.6,5.3-1.9,10.5-3.7,15.5C240.5,91.3,238.9,92.3,237.3,92.3 M239.9,57.9c-1.9,0-3.5-1.3-3.9-3.2c-0.9-4.6-2.4-9-4.5-13.3
			c-0.9-2-0.1-4.4,1.9-5.3c2-1,4.4-0.1,5.3,1.9c2.3,4.8,4,9.9,5.1,15.1c0.4,2.2-0.9,4.3-3.1,4.7C240.5,57.8,240.2,57.9,239.9,57.9
			 M223.9,27.3c-1.1,0-2.1-0.4-2.9-1.2c-3.2-3.4-6.9-6.4-10.8-8.9c-1.9-1.2-2.4-3.7-1.2-5.5c1.2-1.9,3.7-2.4,5.5-1.2
			c4.5,2.9,8.6,6.3,12.3,10.1c1.5,1.6,1.5,4.1-0.1,5.7C225.9,26.9,224.9,27.3,223.9,27.3 M194,9.9c-0.3,0-0.7,0-1-0.1
			c-4.5-1.1-9.2-1.7-13.9-1.8c-2.2,0-4-1.8-4-4c0-2.2,1.8-4,4-4h0c5.3,0,10.7,0.7,15.8,2c2.1,0.5,3.4,2.7,2.9,4.9
			C197.5,8.7,195.8,9.9,194,9.9"/>
		<path fill="#307A68" d="M51.3,248.3c-1.8,0-3.4,1.2-3.9,3.1c-0.1,0.3-0.1,0.6-0.1,1c0,1.8,1.2,3.4,3.1,3.9
			c5.1,1.3,10.5,1.9,15.8,1.9c2.2,0,4-1.8,4-4c0-2.2-1.8-4-4-4c-4.7,0-9.4-0.6-13.9-1.7C51.9,248.3,51.6,248.3,51.3,248.3
			 M21.3,231.1c-1,0-2,0.4-2.8,1.1c-0.8,0.8-1.2,1.8-1.2,2.9c0,1,0.4,2,1.1,2.8c3.7,3.8,7.9,7.2,12.4,10c0.7,0.4,1.4,0.6,2.1,0.6
			c1.3,0,2.6-0.7,3.4-1.9c0.4-0.7,0.6-1.4,0.6-2.1c0-1.3-0.7-2.6-1.9-3.4c-4-2.5-7.6-5.5-10.9-8.8C23.4,231.5,22.4,231.1,21.3,231.1
			 M5,200.7c-0.3,0-0.6,0-0.8,0.1c-1.9,0.4-3.2,2.1-3.2,3.9c0,0.3,0,0.6,0.1,0.8c1.1,5.2,2.9,10.3,5.2,15.1c0.7,1.4,2.1,2.3,3.6,2.3
			c0.6,0,1.2-0.1,1.7-0.4c1.4-0.7,2.3-2.1,2.3-3.6c0-0.6-0.1-1.2-0.4-1.7c-2-4.2-3.6-8.7-4.6-13.2C8.5,202,6.9,200.7,5,200.7
			 M7.4,166.2c-1.6,0-3.2,1-3.8,2.6c-1.8,5-3,10.2-3.6,15.5c0,0.1,0,0.3,0,0.4c0,2,1.5,3.7,3.6,4c0.1,0,0.3,0,0.4,0
			c2,0,3.8-1.5,4-3.6c0.5-4.7,1.6-9.3,3.2-13.6c0.2-0.5,0.2-0.9,0.2-1.4c0-1.6-1-3.2-2.6-3.8C8.3,166.3,7.8,166.2,7.4,166.2
			 M27.7,138.3c-0.9,0-1.7,0.3-2.5,0.8c-4.2,3.3-8,7.1-11.3,11.2c-0.6,0.7-0.9,1.6-0.9,2.5c0,1.2,0.5,2.4,1.5,3.1
			c0.7,0.6,1.6,0.9,2.5,0.9c1.2,0,2.4-0.5,3.1-1.5c2.9-3.7,6.2-7,9.9-9.9c1-0.8,1.5-2,1.5-3.2c0-0.9-0.3-1.7-0.8-2.5
			C30,138.8,28.9,138.3,27.7,138.3 M59.7,125.4c-0.1,0-0.3,0-0.4,0c-5.3,0.5-10.5,1.7-15.5,3.5c-1.6,0.6-2.7,2.1-2.7,3.8
			c0,0.4,0.1,0.9,0.2,1.4c0.6,1.6,2.1,2.7,3.8,2.7c0.4,0,0.9-0.1,1.3-0.2c4.4-1.6,9-2.6,13.7-3.1c2.1-0.2,3.6-2,3.6-4
			c0-0.1,0-0.3,0-0.4C63.5,126.9,61.7,125.4,59.7,125.4 M94.7,125h-15c-2.2,0-4,1.8-4,4s1.8,4,4,4h15c2.2,0,4-1.8,4-4
			S96.9,125,94.7,125 M129.7,125h-15c-2.2,0-4,1.8-4,4s1.8,4,4,4h15c2.2,0,4-1.8,4-4S131.9,125,129.7,125 M164.7,125h-15
			c-2.2,0-4,1.8-4,4s1.8,4,4,4h15c2.2,0,4-1.8,4-4S166.9,125,164.7,125 M199.3,121.6c-0.4,0-0.9,0.1-1.3,0.2c-4.4,1.5-9,2.5-13.7,3
			c-2.1,0.2-3.6,1.9-3.6,4c0,0.1,0,0.3,0,0.4c0.2,2.1,1.9,3.6,4,3.6c0.1,0,0.3,0,0.4,0c5.3-0.5,10.5-1.6,15.6-3.4
			c1.7-0.6,2.7-2.1,2.7-3.8c0-0.4-0.1-0.9-0.2-1.3C202.5,122.6,200.9,121.6,199.3,121.6 M227.5,101.6c-1.2,0-2.3,0.5-3.1,1.5
			c-2.9,3.7-6.3,7-10,9.8c-1,0.8-1.6,2-1.6,3.2c0,0.9,0.3,1.7,0.8,2.4c0.8,1,2,1.6,3.2,1.6c0.9,0,1.7-0.3,2.4-0.8
			c4.2-3.2,8-7,11.4-11.1c0.6-0.7,0.9-1.6,0.9-2.5c0-1.2-0.5-2.3-1.5-3.1C229.3,101.9,228.4,101.6,227.5,101.6 M240.8,69.8
			c-2,0-3.7,1.5-4,3.5c-0.5,4.7-1.6,9.2-3.3,13.6c-0.2,0.5-0.3,0.9-0.3,1.4c0,1.6,1,3.1,2.6,3.7c0.5,0.2,0.9,0.3,1.4,0.3
			c1.6,0,3.2-1,3.7-2.6c1.9-5,3.1-10.2,3.7-15.5c0-0.2,0-0.3,0-0.5c0-2-1.5-3.7-3.5-4C241.1,69.8,240.9,69.8,240.8,69.8 M235.2,35.7
			c-0.6,0-1.2,0.1-1.7,0.4c-1.4,0.7-2.3,2.1-2.3,3.6c0,0.6,0.1,1.2,0.4,1.7c2,4.2,3.5,8.7,4.5,13.3c0.4,1.9,2.1,3.2,3.9,3.2
			c0.3,0,0.5,0,0.8-0.1c1.9-0.4,3.2-2.1,3.2-3.9c0-0.3,0-0.5-0.1-0.8c-1.1-5.2-2.8-10.3-5.1-15.1C238.1,36.5,236.7,35.7,235.2,35.7
			 M212.3,9.8c-1.3,0-2.6,0.7-3.4,1.8c-0.4,0.7-0.6,1.4-0.6,2.1c0,1.3,0.7,2.6,1.8,3.4c3.9,2.5,7.6,5.5,10.8,8.9
			c0.8,0.8,1.8,1.2,2.9,1.2c1,0,2-0.4,2.8-1.1c0.8-0.8,1.2-1.8,1.2-2.9c0-1-0.4-2-1.1-2.8c-3.7-3.8-7.8-7.2-12.3-10.1
			C213.8,10,213.1,9.8,212.3,9.8 M179.2,0L179.2,0c-2.2,0-4,1.8-4,4c0,0,0,0,0,0c0,2.2,1.8,4,4,4c4.7,0,9.4,0.6,13.9,1.8
			c0.3,0.1,0.7,0.1,1,0.1c1.8,0,3.4-1.2,3.9-3c0.1-0.3,0.1-0.7,0.1-1c0-1.8-1.2-3.4-3-3.9C189.9,0.7,184.6,0,179.2,0"/>
	</g>
</g>
</svg>
