<svg xmlns="http://www.w3.org/2000/svg" viewBox="0 0 244.8 258.1" fill="#307a68" xmlns:v="https://vecta.io/nano"><path d="M66.2 258.1c-5.3 0-10.7-.6-15.8-1.9-2.1-.5-3.5-2.7-2.9-4.8.5-2.1 2.7-3.5 4.8-2.9 4.5 1.1 9.2 1.7 13.9 1.7 2.2 0 4 1.8 4 4 0 2.1-1.8 3.9-4 3.9M33 248.5c-.7 0-1.5-.2-2.1-.6-4.5-2.8-8.7-6.2-12.4-10-1.5-1.6-1.5-4.1.1-5.7 1.6-1.5 4.1-1.5 5.7.1 3.3 3.4 6.9 6.3 10.9 8.8 1.9 1.2 2.4 3.6 1.3 5.5-.9 1.3-2.2 1.9-3.5 1.9M9.9 222.8c-1.5 0-2.9-.8-3.6-2.3-2.3-4.8-4.1-9.9-5.2-15.1-.5-2.2.9-4.3 3.1-4.7 2.2-.5 4.3.9 4.7 3.1 1 4.6 2.5 9 4.6 13.2 1 2 .1 4.4-1.8 5.3-.6.4-1.2.5-1.8.5m-5.9-34h-.4c-2.2-.2-3.8-2.2-3.6-4.4.6-5.3 1.8-10.5 3.6-15.5.8-2.1 3-3.1 5.1-2.4 2.1.8 3.1 3 2.4 5.1-1.6 4.4-2.7 9-3.2 13.6-.1 2.1-1.9 3.6-3.9 3.6m13.1-32c-.9 0-1.7-.3-2.5-.9-1.7-1.4-2-3.9-.7-5.6 3.3-4.2 7.1-8 11.3-11.2 1.7-1.4 4.3-1.1 5.6.7 1.4 1.7 1.1 4.3-.7 5.6-3.7 2.9-7 6.2-9.9 9.9-.8 1-2 1.5-3.1 1.5m28-20.1c-1.6 0-3.2-1-3.8-2.7-.7-2.1.3-4.4 2.4-5.1 5-1.8 10.2-3 15.5-3.5 2.2-.2 4.2 1.4 4.4 3.6s-1.4 4.2-3.6 4.4c-4.7.5-9.3 1.5-13.7 3.1a4.3 4.3 0 0 1-1.2.2m119.6-3.7h-15c-2.2 0-4-1.8-4-4s1.8-4 4-4h15c2.2 0 4 1.8 4 4s-1.8 4-4 4m-35 0h-15c-2.2 0-4-1.8-4-4s1.8-4 4-4h15c2.2 0 4 1.8 4 4s-1.8 4-4 4m-35 0h-15c-2.2 0-4-1.8-4-4s1.8-4 4-4h15c2.2 0 4 1.8 4 4s-1.8 4-4 4m90-.2c-2 0-3.8-1.6-4-3.6-.2-2.2 1.4-4.2 3.6-4.4a53.26 53.26 0 0 0 13.7-3c2.1-.7 4.4.4 5.1 2.5s-.4 4.4-2.5 5.1c-5 1.7-10.3 2.9-15.6 3.4h-.3m32.1-12.7c-1.2 0-2.4-.5-3.2-1.6-1.3-1.7-1-4.3.7-5.6 3.7-2.9 7.1-6.2 10-9.8 1.4-1.7 3.9-2 5.6-.6s2 3.9.6 5.6a66.55 66.55 0 0 1-11.4 11.1c-.6.6-1.4.9-2.3.9m20.5-27.8c-.5 0-.9-.1-1.4-.3a4.05 4.05 0 0 1-2.4-5.1 64.26 64.26 0 0 0 3.3-13.6c.3-2.2 2.2-3.8 4.4-3.5s3.8 2.2 3.5 4.4c-.6 5.3-1.9 10.5-3.7 15.5-.5 1.6-2.1 2.6-3.7 2.6m2.6-34.4c-1.9 0-3.5-1.3-3.9-3.2-.9-4.6-2.4-9-4.5-13.3-.9-2-.1-4.4 1.9-5.3 2-1 4.4-.1 5.3 1.9 2.3 4.8 4 9.9 5.1 15.1.4 2.2-.9 4.3-3.1 4.7-.2 0-.5.1-.8.1m-16-30.6c-1.1 0-2.1-.4-2.9-1.2-3.2-3.4-6.9-6.4-10.8-8.9-1.9-1.2-2.4-3.7-1.2-5.5 1.2-1.9 3.7-2.4 5.5-1.2 4.5 2.9 8.6 6.3 12.3 10.1 1.5 1.6 1.5 4.1-.1 5.7-.8.6-1.8 1-2.8 1M194 9.9c-.3 0-.7 0-1-.1-4.5-1.1-9.2-1.7-13.9-1.8-2.2 0-4-1.8-4-4s1.8-4 4-4h0a64.55 64.55 0 0 1 15.8 2c2.1.5 3.4 2.7 2.9 4.9-.3 1.8-2 3-3.8 3"/><path d="M51.3 248.3c-1.8 0-3.4 1.2-3.9 3.1-.1.3-.1.6-.1 1 0 1.8 1.2 3.4 3.1 3.9 5.1 1.3 10.5 1.9 15.8 1.9 2.2 0 4-1.8 4-4s-1.8-4-4-4c-4.7 0-9.4-.6-13.9-1.7-.4-.2-.7-.2-1-.2m-30-17.2c-1 0-2 .4-2.8 1.1-.8.8-1.2 1.8-1.2 2.9 0 1 .4 2 1.1 2.8 3.7 3.8 7.9 7.2 12.4 10 .7.4 1.4.6 2.1.6 1.3 0 2.6-.7 3.4-1.9.4-.7.6-1.4.6-2.1 0-1.3-.7-2.6-1.9-3.4-4-2.5-7.6-5.5-10.9-8.8-.7-.8-1.7-1.2-2.8-1.2M5 200.7c-.3 0-.6 0-.8.1-1.9.4-3.2 2.1-3.2 3.9 0 .3 0 .6.1.8 1.1 5.2 2.9 10.3 5.2 15.1.7 1.4 2.1 2.3 3.6 2.3.6 0 1.2-.1 1.7-.4 1.4-.7 2.3-2.1 2.3-3.6 0-.6-.1-1.2-.4-1.7-2-4.2-3.6-8.7-4.6-13.2-.4-2-2-3.3-3.9-3.3m2.4-34.5c-1.6 0-3.2 1-3.8 2.6-1.8 5-3 10.2-3.6 15.5v.4c0 2 1.5 3.7 3.6 4H4c2 0 3.8-1.5 4-3.6.5-4.7 1.6-9.3 3.2-13.6.2-.5.2-.9.2-1.4 0-1.6-1-3.2-2.6-3.8-.5 0-1-.1-1.4-.1m20.3-27.9c-.9 0-1.7.3-2.5.8-4.2 3.3-8 7.1-11.3 11.2-.6.7-.9 1.6-.9 2.5 0 1.2.5 2.4 1.5 3.1.7.6 1.6.9 2.5.9 1.2 0 2.4-.5 3.1-1.5 2.9-3.7 6.2-7 9.9-9.9 1-.8 1.5-2 1.5-3.2 0-.9-.3-1.7-.8-2.5-.7-.9-1.8-1.4-3-1.4m32-12.9h-.4c-5.3.5-10.5 1.7-15.5 3.5-1.6.6-2.7 2.1-2.7 3.8 0 .4.1.9.2 1.4.6 1.6 2.1 2.7 3.8 2.7.4 0 .9-.1 1.3-.2 4.4-1.6 9-2.6 13.7-3.1 2.1-.2 3.6-2 3.6-4v-.4c-.2-2.2-2-3.7-4-3.7m35-.4h-15c-2.2 0-4 1.8-4 4s1.8 4 4 4h15c2.2 0 4-1.8 4-4s-1.8-4-4-4m35 0h-15c-2.2 0-4 1.8-4 4s1.8 4 4 4h15c2.2 0 4-1.8 4-4s-1.8-4-4-4m35 0h-15c-2.2 0-4 1.8-4 4s1.8 4 4 4h15c2.2 0 4-1.8 4-4s-1.8-4-4-4m34.6-3.4c-.4 0-.9.1-1.3.2-4.4 1.5-9 2.5-13.7 3-2.1.2-3.6 1.9-3.6 4v.4c.2 2.1 1.9 3.6 4 3.6h.4c5.3-.5 10.5-1.6 15.6-3.4 1.7-.6 2.7-2.1 2.7-3.8 0-.4-.1-.9-.2-1.3-.7-1.7-2.3-2.7-3.9-2.7m28.2-20c-1.2 0-2.3.5-3.1 1.5-2.9 3.7-6.3 7-10 9.8-1 .8-1.6 2-1.6 3.2 0 .9.3 1.7.8 2.4.8 1 2 1.6 3.2 1.6.9 0 1.7-.3 2.4-.8 4.2-3.2 8-7 11.4-11.1.6-.7.9-1.6.9-2.5 0-1.2-.5-2.3-1.5-3.1-.7-.7-1.6-1-2.5-1m13.3-31.8c-2 0-3.7 1.5-4 3.5a53.01 53.01 0 0 1-3.3 13.6c-.2.5-.3.9-.3 1.4 0 1.6 1 3.1 2.6 3.7.5.2.9.3 1.4.3 1.6 0 3.2-1 3.7-2.6 1.9-5 3.1-10.2 3.7-15.5v-.5c0-2-1.5-3.7-3.5-4 0 .1-.2.1-.3.1m-5.6-34.1c-.6 0-1.2.1-1.7.4-1.4.7-2.3 2.1-2.3 3.6 0 .6.1 1.2.4 1.7 2 4.2 3.5 8.7 4.5 13.3.4 1.9 2.1 3.2 3.9 3.2.3 0 .5 0 .8-.1 1.9-.4 3.2-2.1 3.2-3.9 0-.3 0-.5-.1-.8-1.1-5.2-2.8-10.3-5.1-15.1-.7-1.5-2.1-2.3-3.6-2.3M212.3 9.8c-1.3 0-2.6.7-3.4 1.8-.4.7-.6 1.4-.6 2.1 0 1.3.7 2.6 1.8 3.4 3.9 2.5 7.6 5.5 10.8 8.9.8.8 1.8 1.2 2.9 1.2 1 0 2-.4 2.8-1.1.8-.8 1.2-1.8 1.2-2.9 0-1-.4-2-1.1-2.8-3.7-3.8-7.8-7.2-12.3-10.1a4.65 4.65 0 0 0-2.1-.5M179.2 0h0c-2.2 0-4 1.8-4 4s1.8 4 4 4a54.09 54.09 0 0 1 13.9 1.8c.3.1.7.1 1 .1 1.8 0 3.4-1.2 3.9-3 .1-.3.1-.7.1-1 0-1.8-1.2-3.4-3-3.9-5.2-1.3-10.5-2-15.9-2"/></svg>