<?xml version="1.0" encoding="utf-8"?>
<!-- Generator: Adobe Illustrator 18.1.1, SVG Export Plug-In . SVG Version: 6.00 Build 0)  -->
<svg version="1.1" id="Layer_4_copy" xmlns="http://www.w3.org/2000/svg" xmlns:xlink="http://www.w3.org/1999/xlink" x="0px"
	 y="0px" viewBox="0 0 186.7 186.7" enable-background="new 0 0 186.7 186.7" xml:space="preserve">
<g>
	<rect x="0" y="0" fill="none" width="186.7" height="186.7"/>
	<g>
		<path fill="#EEF4FB" d="M115,110.6c-3.9-2.9-9.7-2-12.5,1.9c-2.8,3.9-1.9,9.5,1.9,12.3c3.9,2.9,9.7,2,12.5-1.9
			C119.7,119.1,118.8,113.5,115,110.6z"/>
		<path fill="#EEF4FB" d="M95.8,59.7c-3.9-2.9-9.4-2-12.3,1.9c-2.9,4-2.2,9.3,1.8,12.3c4,3,9.5,2.2,12.4-1.9
			C100.6,68,99.7,62.6,95.8,59.7z"/>
		<path fill="#EEF4FB" d="M111.1,76.6c4,2.9,9.4,2.2,12.3-1.6c2.9-3.8,2.2-9.5-1.6-12.4c-4-3.1-9.5-2.3-12.5,1.7
			C106.4,68.2,107.2,73.7,111.1,76.6z"/>
		<path fill="#EEF4FB" d="M131.8,88.5c-3.8-2.9-9.5-2-12.4,1.8c-3,3.9-2.1,9.7,1.9,12.5c3.9,2.8,9.5,1.9,12.4-2
			C136.5,97.1,135.7,91.5,131.8,88.5z"/>
		<path fill="#EEF4FB" d="M93.4,13.8c-43.9,0-79.5,35.6-79.5,79.5c0,43.9,35.6,79.5,79.5,79.5c43.9,0,79.5-35.6,79.5-79.5
			C172.9,49.4,137.3,13.8,93.4,13.8z M132.5,123.8c-18.4,17.4-39.9,21.8-63.9,14.3c-2.4-0.8-4.7-2.1-7.1-3.2
			c-1.7-1.3-3.5-2.5-5.2-3.8c-0.9-1-1.9-2-2.8-3.1c-1.6-2-2-4.4-0.9-6.7c1.1-2.4,3.3-2.8,5.7-2.6c0.9,0,1.8,0.3,2.7,0.3
			c2.2,0,4.5,0.2,6.6-0.2c2.3-0.4,3.3-2.2,1.8-4.1c-1.5-1.9-3.4-4-5.5-4.9c-5.3-2.1-10.8-3.4-16.2-5.3c-6.4-2.3-9.9-8.4-8.5-15
			c1.5-7.4,4.8-14.1,9.6-20c7.8-9.6,17.9-15.8,29.5-19.8c13.3-4.5,26.6-5.6,39.9-0.1c2.7,1.1,5.3,2.5,7.9,3.7
			c2.1,1.5,4.2,3.1,6.3,4.6c0.5,0.6,1,1.1,1.6,1.7c8.4,8.1,13.5,17.7,13.5,29.5C147.7,102.8,142.3,114.5,132.5,123.8z"/>
	</g>
</g>
</svg>
