<?xml version="1.0" encoding="utf-8"?>
<!-- Generator: Adobe Illustrator 18.1.1, SVG Export Plug-In . SVG Version: 6.00 Build 0)  -->
<svg version="1.1" id="calculus" xmlns="http://www.w3.org/2000/svg" xmlns:xlink="http://www.w3.org/1999/xlink" x="0px" y="0px"
	 viewBox="0 0 612 792" enable-background="new 0 0 612 792" xml:space="preserve">
<rect x="0.7" y="89.5" fill="none" width="611.3" height="611.3"/>
<g>
	<path fill="#EFF4FB" d="M170.9,530.3h65.5V343.9c-18.7,13.4-40.3,32.4-65.5,57.6L170.9,530.3L170.9,530.3z"/>
	<path fill="#EFF4FB" d="M306.5,134.7c-144.1,0-260.6,116.6-260.6,260.6c0,143.7,116.6,260.3,260.3,260.3s260.3-116.6,260.3-260.3
		C566.8,251.3,450.2,134.7,306.5,134.7z M382.8,396.7v133.6h50.1v-24.6l29.5,29.5l-29.5,29.5v-24.6H161.1V411.4
		c-9.5,9.8-19.6,20.3-30.1,31.8c-1,1-2.3,1.6-3.6,1.6c-1.3,0-2.3-0.3-3.3-1.3c-2-2-2-4.9-0.3-6.9c13.4-14.7,25.9-27.5,37.3-39V268.3
		h-24.6l29.5-29.5l29.5,29.5h-24.6v119.5c75.6-73.7,107.4-80.2,126.7-76.3c22.6,4.3,34.1,27.5,42.6,49.4
		c5.9,15.7,14.4,24.6,25.5,26.9c25.2,4.9,66.5-23.6,122.8-84.5c2-2,4.9-2,6.9-0.3c2,2,2,4.9,0.3,6.9
		C447.3,362.3,410.6,390.4,382.8,396.7z"/>
	<polygon fill="#EFF4FB" points="379.5,530.3 379.5,521.4 370.7,530.3 	"/>
</g>
</svg>
