<?xml version="1.0" encoding="utf-8"?>
<!-- Generator: Adobe Illustrator 18.1.1, SVG Export Plug-In . SVG Version: 6.00 Build 0)  -->
<svg version="1.1" id="Layer_4_copy" xmlns="http://www.w3.org/2000/svg" xmlns:xlink="http://www.w3.org/1999/xlink" x="0px"
	 y="0px" viewBox="0 0 186.7 186.7" enable-background="new 0 0 186.7 186.7" xml:space="preserve">
<g>
	<rect x="0" y="0" fill="none" width="186.7" height="186.7"/>
	<path fill="#EEF4FB" d="M93.4,13.8c-43.9,0-79.5,35.6-79.5,79.5c0,43.9,35.6,79.5,79.5,79.5c43.9,0,79.5-35.6,79.5-79.5
		C172.9,49.4,137.3,13.8,93.4,13.8z M75.3,75.7H78c-3.1-3.5-5-8.1-5-13.1c0-6.4,3-12,7.8-15.7v9.5c0,3.2,1.7,5.8,3.7,5.9
		c0,0,0.2-18.7,0.2-19.1c0-4.8,3.9-8.7,8.7-8.7s8.7,3.9,8.7,8.7c0,0.4,0,0.9-0.1,1.3c6.9,3.2,11.8,10.1,11.8,18.1
		c0,5-1.9,9.5-5,13.1h2.6c2.5,0,4.5,2,4.5,4.5c0,2.5-2,4.5-4.5,4.5H96.3h-5.9H75.3c-2.5,0-4.5-2-4.5-4.5
		C70.8,77.7,72.8,75.7,75.3,75.7z M73.8,112.2c5.6-3.6,7.5-17.3,7.2-24.6h24.9c-0.4,7.3,1.5,21,7.2,24.6c5.6,3.6,5.6,6.2,3.6,8.2
		H70.2C68.1,118.3,68.1,115.7,73.8,112.2z M117.8,141.9H68.9c-4.8,0-8.7-3.9-8.7-8.7c0-4.8,3.9-8.7,8.7-8.7h48.9
		c4.8,0,8.7,3.9,8.7,8.7C126.5,138,122.6,141.9,117.8,141.9z"/>
</g>
</svg>
