<?xml version="1.0" encoding="utf-8"?>
<!-- Generator: Adobe Illustrator 18.1.1, SVG Export Plug-In . SVG Version: 6.00 Build 0)  -->
<svg version="1.1" id="Layer_3_copy" xmlns="http://www.w3.org/2000/svg" xmlns:xlink="http://www.w3.org/1999/xlink" x="0px"
	 y="0px" viewBox="0 0 186.9 187.2" enable-background="new 0 0 186.9 187.2" xml:space="preserve">
<rect x="0.2" y="0" fill="none" width="186.7" height="186.7"/>
<g>
	
		<rect x="92.8" y="72.3" transform="matrix(-0.7071 -0.7071 0.7071 -0.7071 93.7274 225.5623)" fill="#EFF4FB" width="1.5" height="42.2"/>
	<circle fill="#EFF4FB" cx="91.7" cy="112" r="3.5"/>
	<circle fill="#EFF4FB" cx="74.9" cy="52.8" r="3.5"/>
	<circle fill="#EFF4FB" cx="74.9" cy="95.2" r="3.5"/>
	<circle fill="#EFF4FB" cx="112.9" cy="133.2" r="3.5"/>
	<circle fill="#EFF4FB" cx="74.9" cy="74" r="3.5"/>
	<circle fill="#EFF4FB" cx="134.1" cy="112" r="3.5"/>
	<path fill="#EFF4FB" d="M93.6,13.8C49.6,13.8,14,49.4,14,93.4c0,43.9,35.6,79.5,79.5,79.5c43.9,0,79.5-35.6,79.5-79.5
		C173.1,49.4,137.5,13.8,93.6,13.8z M143,115.7l-27.2,27.2c-1.8,1.8-4.8,1.8-6.6,0L44.1,77.7c-1.8-1.8-1.8-4.8,0-6.6l27.2-27.2
		c1.8-1.8,4.8-1.8,6.6,0l65.2,65.2C144.9,110.9,144.9,113.9,143,115.7z"/>
	<circle fill="#EFF4FB" cx="112.9" cy="90.8" r="3.5"/>
	<circle fill="#EFF4FB" cx="112.9" cy="112" r="3.5"/>
</g>
</svg>
