<?xml version="1.0" encoding="utf-8"?>
<!-- Generator: Adobe Illustrator 18.1.1, SVG Export Plug-In . SVG Version: 6.00 Build 0)  -->
<svg version="1.1" id="education" xmlns="http://www.w3.org/2000/svg" xmlns:xlink="http://www.w3.org/1999/xlink" x="0px" y="0px"
	 viewBox="0 0 186.9 187.2" enable-background="new 0 0 186.9 187.2" xml:space="preserve">
<rect x="0.2" y="0" fill="none" width="186.7" height="186.7"/>
<path fill="#EEF3FA" d="M93.6,13.8C49.6,13.8,14,49.4,14,93.4c0,43.9,35.6,79.5,79.5,79.5c43.9,0,79.5-35.6,79.5-79.5
	C173.1,49.4,137.5,13.8,93.6,13.8z M130.9,28.9c0.1,5.4,0.4,10.9-1.3,16.2c-2.1,6.5-6.6,11-12.4,14.3c-1.6,0.9-3.3,1.7-5.1,2.4
	c-5.6,2.4-11.2,4.8-15.8,9.4C95,49,106.8,32.2,130.9,28.9z M133.6,130.5c-3,6.2-7,11.7-12.2,16.2c-5.6,4.8-11.8,5.8-18.6,3.1
	c-1.5-0.6-3-1.2-4.5-1.8c-3.3-1.5-6.4-1.4-9.7,0c-2.7,1.1-5.5,2.1-8.3,2.9c-4.8,1.3-9.1,0.1-13.1-2.8c-5.1-3.7-8.8-8.5-11.9-13.9
	c-6.4-11.2-9.9-23.1-9.4-36.1c0.5-11.9,5.1-21.7,15.7-27.9c5-2.9,10.4-4.6,16.2-2.8c2.8,0.8,5.4,2.4,8,3.7c2,1,4,2,6.3,2.1
	c-2-6.5-6.8-14.5-23.7-23.1c1.8-2.7,3.5-5.3,5.4-8.1c5.4,4.1,9.9,8.7,13.8,13.8c3.9,5.2,6.1,11.2,8,17.7c2.2-1,4.3-2,6.4-2.9
	c2.8-1.2,5.6-2.7,8.6-3.4c4.5-1.1,8.8,0.2,12.8,2.2c9.8,4.9,15.3,13,16.9,23.7C142.4,106.2,139.4,118.6,133.6,130.5z"/>
</svg>
