<?xml version="1.0" encoding="utf-8"?>
<!-- Generator: Adobe Illustrator 18.1.1, SVG Export Plug-In . SVG Version: 6.00 Build 0)  -->
<svg version="1.1" id="English" xmlns="http://www.w3.org/2000/svg" xmlns:xlink="http://www.w3.org/1999/xlink" x="0px" y="0px"
	 viewBox="0 0 186.9 187.2" enable-background="new 0 0 186.9 187.2" xml:space="preserve">
<rect x="0.2" y="0" fill="none" width="186.7" height="186.7"/>
<g>
	<path fill="#EFF4FB" d="M97.4,77.6c-0.2-0.3-0.6-0.5-1.2-0.6C95.7,77,94.8,77,93.7,77c-1.1,0-2.3,0.1-3.6,0.2
		c-1.2,0.1-2.2,0.3-3,0.5c-0.7,0.2-1.1,0.6-1,1.3c0,0.7,0.1,1.1,0.2,1.3c0.1,0.2,0.2,0.3,0.3,0.4c0.1,0.1,0.2,1,0.2,2.6
		c0,1.7-0.1,2.8-0.3,3.4s-0.2,1.3,0.1,2.3c-0.1,2.1-0.2,4-0.2,5.6l0,1.1c0.1,1.3,0.3,2.2,0.6,2.5c0.3,0.3,0.9,0.5,1.6,0.5
		c0.7,0.1,1.7,0.1,2.9,0c1.3,0,1.9,0,2.1,0c1.1,0,1.9-0.1,2.5-0.3c0.8-0.3,1.2-0.8,1.2-1.3c0-0.2,0-0.5-0.1-0.8
		c-0.1-0.3-0.2-0.5-0.4-0.7s-0.4-0.3-0.8-0.3c-0.4,0-0.8,0.1-1,0.2c-0.3,0.1-1.2,0.2-2.6,0.2c-1.4,0.1-2.3,0-2.6-0.1
		c-0.3-0.1-0.4-0.4-0.5-0.8c0-0.4,0-1.1,0-2.2c0-1.1,0-1.8,0.1-2.1c0-0.3,0.1-0.9,0.1-1.5c0.5,0,1.1,0,1.7,0c0.6,0,1.2,0,1.8,0
		s1-0.1,1.4-0.2c0.3-0.1,0.5-0.7,0.4-1.7c-0.1-0.3-0.3-0.6-0.5-0.7c-0.4-0.3-1.7-0.4-3.9-0.4c-0.2,0-0.5,0-0.8,0c0-0.5,0-1.3,0-2.3
		s0-1.8,0-2.3c0-0.5,0-0.9,0-1.2c0.8-0.3,2.5-0.5,5.3-0.4c0.2,0,0.6,0.1,1,0.1s0.7,0,1,0c0.3-0.1,0.5-0.2,0.6-0.5
		c0.1-0.2,0.2-0.6,0.1-1C97.7,78.3,97.6,78,97.4,77.6z"/>
	<path fill="#EFF4FB" d="M83.4,76.7c-0.1,0-0.2,0-0.3,0c-0.2,0-0.4,0.1-0.6,0.2c-0.2,0.2-0.4,0.4-0.5,0.8l-0.8,2.6
		c-0.3,0.7-0.6,1.6-1,2.5s-0.8,2.1-1.4,3.2c-0.2-0.3-0.5-0.9-0.9-1.5c-0.4-0.6-0.8-1.3-1.2-2.1c-0.4-0.7-0.8-1.5-1.2-2.2
		c-0.4-0.7-0.7-1.3-1-1.8l-0.1-0.2c-0.2-0.3-0.3-0.6-0.5-0.9c-0.2-0.2-0.4-0.4-0.7-0.5c-0.1,0-0.3,0-0.4,0.1c-0.2,0-0.3,0.1-0.5,0.2
		c-0.6,0.4-0.8,0.9-0.8,1.4c0,0.3,0.1,0.7,0.3,1.1c0.1,0.2,0.3,0.6,0.5,1c0.2,0.4,0.5,0.9,0.8,1.3c0.2,0.5,0.5,0.9,0.7,1.2
		c0.2,0.4,0.4,0.6,0.4,0.8l2.9,5.3c-1.6,3.5-2.7,5.6-3.3,6.6l-0.1,0.1c-0.2,0.3-0.3,0.7-0.3,1c0,0.4,0.1,0.7,0.3,0.9
		s0.5,0.4,0.7,0.6c0.1,0,0.2,0.1,0.4,0.1c0.5,0,0.9-0.2,1.1-0.6s0.5-0.8,0.6-1.2l3.8-7.7c0.3-0.7,0.6-1.4,1-2.1
		c0.3-0.7,0.6-1.5,1-2.3c0.3-0.8,0.6-1.5,0.9-2.3c0.3-0.7,0.6-1.5,0.9-2.1l0.2-0.5c0.1-0.2,0.1-0.4,0.1-0.6c0-0.2,0.1-0.5,0.1-0.6
		v-0.1c0-0.4-0.1-0.8-0.2-1.1C84.4,77.1,84,76.9,83.4,76.7z"/>
	<path fill="#EFF4FB" d="M112.5,87.7c-0.9-1.1-2.5-2-4.7-2.5c-1.1-0.2-2.2-0.5-3.3-0.7c-1.3-0.3-2.1-0.8-2.3-1.6
		c-0.1-1.3,0.3-2.3,1.3-2.7c0.8-0.4,1.7-0.6,2.7-0.6c1.2,0,1.9,0.3,2.2,0.9c0.3,0.7,1,0.9,2.3,0.6c0.9-0.3,1.4-0.9,1.4-1.7
		c0-0.7-0.6-1.3-1.7-1.9c-1-0.5-2.2-0.8-3.8-0.9c-2.5,0-4.4,0.6-5.7,1.8c-1.2,1.1-1.8,2.6-1.8,4.4c0.1,1.7,0.7,2.8,1.9,3.4
		c1,0.5,2.2,1,3.9,1.3c0.8,0.2,1.6,0.3,2.2,0.5c0.9,0.2,1.5,0.4,2,0.6c0.5,0.2,0.8,0.5,1,0.8c0.3,0.3,0.5,0.7,0.6,1
		c0.1,0.4,0.2,0.7,0.2,1.1c0,0.3,0,0.6-0.1,0.9c-0.1,0.3-0.1,0.6-0.2,0.9c-0.2,0.4-0.4,0.8-0.6,1.1c-0.2,0.3-0.5,0.6-0.8,0.9
		c-0.6,0.4-1.5,0.6-2.9,0.6c-0.2,0-0.3,0-0.4,0s-0.3,0-0.5,0l-1.1-0.2c-0.5-0.2-1-0.3-1.3-0.5c-0.5-0.4-0.8-0.8-0.8-1.1
		c0-0.3,0-0.7,0-1.3c0-0.5-0.2-1-0.5-1.2c-0.4-0.3-0.7-0.4-1.1-0.5c-1.2,0-1.9,0.6-2,2c0,1.3,0.5,2.4,1.5,3.5s2.4,1.7,4.3,1.9
		c3.2,0.3,5.4-0.1,6.8-1.1c1.1-0.8,1.9-1.9,2.4-3.2c0.3-0.8,0.4-1.7,0.5-2.7c0-0.3,0-0.6,0-1C113.6,89.6,113.2,88.6,112.5,87.7z"/>
	<path fill="#EFF4FB" d="M117,92.3c1.1,0.2,1.7,0,1.8-0.8l0.1-14.3c0-0.4-0.2-0.8-0.7-1.1c-0.4-0.3-0.9-0.4-1.5-0.3
		c-0.6,0.2-0.9,0.6-0.9,1.5l0,10.5c0,0.4,0,1.4-0.2,2.9C115.6,91.5,116.1,92,117,92.3z"/>
	<path fill="#EFF4FB" d="M118.5,95.3c-0.1-0.1-0.3-0.2-0.5-0.2c-0.6-0.1-1.1-0.1-1.5,0.1c-0.5,0.2-0.7,0.6-0.9,1.5
		c-0.1,0.6-0.1,1.1,0.2,1.4c0.2,0.2,0.4,0.5,0.6,0.6c0.6,0.3,1.2,0.3,1.7,0.2c0.6-0.2,0.9-0.7,1-1.6c0.1-0.6,0-1-0.3-1.4
		C118.7,95.5,118.6,95.4,118.5,95.3z"/>
	<path fill="#EFF4FB" d="M93.6,13.8C49.6,13.8,14,49.4,14,93.4c0,43.9,35.6,79.5,79.5,79.5c43.9,0,79.5-35.6,79.5-79.5
		C173.1,49.4,137.5,13.8,93.6,13.8z M95.2,130.6c-5,0-10-0.6-14.6-1.8c-7.6,9.3-18.4,11.6-18.4,11.6c3.1-6.8,4.4-12.4,4.8-17
		c-14.2-7.6-23.5-21-23.5-36.2C43.5,63.4,66.7,44,95.2,44c28.5,0,51.6,19.4,51.6,43.3C146.8,111.2,123.6,130.6,95.2,130.6z"/>
</g>
</svg>
