<?xml version="1.0" encoding="utf-8"?>
<!-- Generator: Adobe Illustrator 18.1.1, SVG Export Plug-In . SVG Version: 6.00 Build 0)  -->
<svg version="1.1" id="Layer_4_copy" xmlns="http://www.w3.org/2000/svg" xmlns:xlink="http://www.w3.org/1999/xlink" x="0px"
	 y="0px" viewBox="0 0 186.7 186.7" enable-background="new 0 0 186.7 186.7" xml:space="preserve">
<g>
	<rect x="0" y="0" fill="none" width="186.7" height="186.7"/>
	<path fill="#EEF4FB" d="M93.4,13.8c-43.9,0-79.5,35.6-79.5,79.5c0,43.9,35.6,79.5,79.5,79.5c43.9,0,79.5-35.6,79.5-79.5
		C172.9,49.4,137.3,13.8,93.4,13.8z M95.4,131c-5,0-9.9-0.6-14.5-1.8c-7.6,9.2-18.3,11.6-18.3,11.6c3.1-6.8,4.4-12.3,4.8-16.9
		C53.3,116.3,44,103,44,87.9c0-23.8,23-43.1,51.4-43.1s51.4,19.3,51.4,43.1S123.7,131,95.4,131z"/>
</g>
</svg>
