<?xml version="1.0" encoding="utf-8"?>
<!-- Generator: Adobe Illustrator 18.1.1, SVG Export Plug-In . SVG Version: 6.00 Build 0)  -->
<svg version="1.1" id="Layer_10" xmlns="http://www.w3.org/2000/svg" xmlns:xlink="http://www.w3.org/1999/xlink" x="0px" y="0px"
	 viewBox="0 0 186.9 187.2" enable-background="new 0 0 186.9 187.2" xml:space="preserve">
<rect x="0.2" y="0" fill="none" width="186.7" height="186.7"/>
<g>
	
		<rect x="65.7" y="79.3" transform="matrix(0.994 -0.1094 0.1094 0.994 -8.2576 10.6583)" fill="#EFF4FB" width="54.6" height="2.6"/>
	
		<rect x="64.5" y="67.7" transform="matrix(0.994 -0.1094 0.1094 0.994 -7.0037 10.4503)" fill="#EFF4FB" width="54.6" height="2.6"/>
	
		<rect x="63.2" y="56.2" transform="matrix(0.994 -0.1094 0.1094 0.994 -5.7498 10.2422)" fill="#EFF4FB" width="54.6" height="2.6"/>
	<path fill="#EFF4FB" d="M56,52.7c-1.8-3.6-5.6-5.9-9.8-5.4c-5.3,0.6-9.2,5.4-8.6,10.8c0.6,5.3,5.4,9.2,10.8,8.6l9.6-1.1l-1.1-9.7
		C56.7,54.8,56.4,53.7,56,52.7z M48,63.6c-3.6,0.4-6.9-2.2-7.3-5.8s2.2-6.9,5.8-7.3s6.9,2.2,7.3,5.8C54.2,59.9,51.6,63.2,48,63.6z"
		/>
	
		<rect x="69.5" y="113.9" transform="matrix(-0.994 0.1094 -0.1094 -0.994 205.6638 219.0976)" fill="#EFF4FB" width="54.6" height="2.6"/>
	<rect x="67" y="90.8" transform="matrix(0.994 -0.1094 0.1094 0.994 -9.5115 10.8663)" fill="#EFF4FB" width="54.6" height="2.6"/>
	
		<rect x="68.3" y="102.3" transform="matrix(0.994 -0.1094 0.1094 0.994 -10.7655 11.0744)" fill="#EFF4FB" width="54.6" height="2.6"/>
	<path fill="#EFF4FB" d="M93.6,13.8C49.6,13.8,14,49.4,14,93.4c0,43.9,35.6,79.5,79.5,79.5c43.9,0,79.5-35.6,79.5-79.5
		C173.1,49.4,137.5,13.8,93.6,13.8z M144,141.6l-64.9,7.1c-6.6,0.7-12.5-4-13.2-10.6l-7.7-70.4l-9.6,1.1c-6.6,0.7-12.5-4-13.2-10.6
		c-0.7-6.2,3.5-11.8,9.4-13c-0.4,0-0.8,0-1.2,0.1l64.9-7.1c6.6-0.7,12.5,4,13.2,10.6l7.7,70.4l11.9-1.3c6.6-0.7,12.5,4,13.2,10.6
		C155.3,135,150.6,140.9,144,141.6z"/>
	<path fill="#EFF4FB" d="M141.6,120.1l-54.7,6c2.7,2.3,4.5,5.5,4.9,9.3c0.4,3.8-0.7,7.3-2.8,10.1l54.7-6c5.3-0.6,9.2-5.4,8.6-10.8
		C151.8,123.3,147,119.5,141.6,120.1z"/>
	<path fill="#EFF4FB" d="M84.4,146.8c-0.8,0.5-1.6,0.9-2.5,1.3C82.8,147.8,83.6,147.3,84.4,146.8z"/>
	<circle fill="#EFF4FB" cx="77.8" cy="136.9" r="8.6"/>
</g>
</svg>
