<?xml version="1.0" encoding="utf-8"?>
<!-- Generator: Adobe Illustrator 18.1.1, SVG Export Plug-In . SVG Version: 6.00 Build 0)  -->
<svg version="1.1" id="logic" xmlns="http://www.w3.org/2000/svg" xmlns:xlink="http://www.w3.org/1999/xlink" x="0px" y="0px"
	 viewBox="0 0 186.9 187.2" enable-background="new 0 0 186.9 187.2" xml:space="preserve">
<rect x="0.2" y="0" fill="none" width="186.7" height="186.7"/>
<g>
	<path fill="#EFF4FB" d="M141.3,82.4c-2.3,0-4.1,0.7-5.5,2.1c-1.4,1.4-2.2,3.4-2.4,5.9c-0.1,0.5-0.1,1.3-0.1,2.1
		c0,0.9,0,1.6,0.1,2.1c0.2,2.3,1,4.2,2.4,5.6c1.4,1.4,3.2,2.1,5.5,2.1c2.4,0,4.2-0.8,5.6-2.3c1.3-1.5,2.1-3.6,2.3-6.2c0-1,0-2,0-3
		c-0.2-2.6-0.9-4.6-2.3-6.2C145.5,83.2,143.7,82.4,141.3,82.4z"/>
	<path fill="#EFF4FB" d="M40.7,95.7c-1.3,0.8-2,1.8-2,3.1c0,0.4,0.1,0.8,0.3,1.2c0.2,0.4,0.5,0.8,0.9,1.1c0.4,0.4,0.9,0.6,1.5,0.9
		c0.6,0.2,1.4,0.3,2.3,0.3c1.3,0,2.5-0.2,3.6-0.6c1.1-0.4,2-0.9,2.8-1.6c0.8-0.7,1.4-1.5,1.8-2.5c0.4-1,0.6-2.1,0.6-3.2v-1.3l-6.4,1
		C43.9,94.3,42.1,94.9,40.7,95.7z"/>
	<path fill="#EFF4FB" d="M93.6,13.8C49.6,13.8,14,49.4,14,93.4c0,43.9,35.6,79.5,79.5,79.5c43.9,0,79.5-35.6,79.5-79.5
		C173.1,49.4,137.5,13.8,93.6,13.8z M57.4,104.9c0,0.4-0.1,0.7-0.4,1c-0.3,0.3-0.6,0.4-1,0.4h-2c-0.4,0-0.7-0.1-1-0.4
		c-0.3-0.3-0.4-0.6-0.4-1v-2.2c-0.3,0.7-0.8,1.3-1.5,1.8c-0.7,0.5-1.5,1-2.3,1.3c-0.9,0.4-1.8,0.6-2.8,0.8c-1,0.2-1.8,0.3-2.7,0.3
		c-1.4,0-2.7-0.2-3.9-0.6c-1.2-0.4-2.2-0.9-3-1.6c-0.8-0.7-1.4-1.5-1.9-2.4c-0.5-0.9-0.7-1.9-0.7-3c0-1.4,0.3-2.7,0.9-3.8
		c0.6-1.1,1.4-2,2.4-2.8c1-0.8,2.2-1.4,3.5-1.8c1.3-0.5,2.8-0.8,4.3-1.1l7.6-1.2v-0.7c0-1.8-0.6-3.2-1.8-4.1
		c-1.2-0.9-2.7-1.4-4.5-1.4c-1.6,0-2.8,0.3-3.6,0.9c-0.8,0.6-1.5,1.3-2.1,2.1c-0.2,0.3-0.5,0.5-0.7,0.6s-0.6,0.2-1,0.2h-1.6
		c-0.4,0-0.7-0.1-1.1-0.4c-0.3-0.3-0.4-0.6-0.4-1c0.1-0.8,0.4-1.6,0.9-2.4c0.6-0.8,1.3-1.6,2.3-2.2c1-0.6,2.1-1.2,3.3-1.6
		c1.2-0.4,2.6-0.6,4-0.6c1.6,0,3.1,0.2,4.5,0.7c1.4,0.5,2.6,1.2,3.6,2.1c1,0.9,1.8,2,2.3,3.3c0.6,1.3,0.8,2.9,0.8,4.6V104.9z
		 M122.1,94.9L100,117c-0.4,0.4-0.9,0.6-1.4,0.6c-0.5,0-1.1-0.2-1.5-0.7c-0.7-0.8-0.5-2,0.2-2.7L112,99.5H67c-1.2,0-2.1-1-1.9-2.2
		c0.1-1,1.1-1.6,2.1-1.6h48.7l2.1-2.1l-2.1-2.1H67c-1.2,0-2.1-1-1.9-2.2c0.1-1,1.1-1.6,2.1-1.6H112L97.8,73.4
		c-0.7-0.7-0.8-1.8-0.3-2.6c0.7-1,2.1-1.1,2.9-0.2l21.6,21.6c0.4,0.4,0.6,0.9,0.6,1.4S122.4,94.6,122.1,94.9z M153,99.4
		c-0.6,1.6-1.5,2.9-2.6,4.1c-1.1,1.1-2.3,2-3.8,2.6c-1.5,0.6-3,0.9-4.7,0.9c-2.2,0-4-0.4-5.3-1.1c-1.3-0.7-2.4-1.6-3.1-2.6v1.7
		c0,0.4-0.1,0.7-0.4,1c-0.3,0.3-0.6,0.4-1,0.4h-2c-0.4,0-0.7-0.1-1-0.4c-0.3-0.3-0.4-0.6-0.4-1V69.5c0-0.4,0.1-0.7,0.4-1
		c0.3-0.3,0.6-0.4,1-0.4h2c0.4,0,0.7,0.1,1,0.4c0.3,0.3,0.4,0.6,0.4,1v11.9c0.7-0.9,1.7-1.7,3-2.5c1.3-0.8,3.1-1.2,5.3-1.2
		c1.7,0,3.3,0.3,4.7,0.9s2.7,1.4,3.8,2.5c1.1,1.1,1.9,2.4,2.6,4c0.6,1.6,1,3.4,1.1,5.3c0,0.5,0.1,1.1,0.1,1.8c0,0.6,0,1.2-0.1,1.8
		C154,96.1,153.6,97.8,153,99.4z"/>
</g>
</svg>
