<?xml version="1.0" encoding="utf-8"?>
<!-- Generator: Adobe Illustrator 18.1.1, SVG Export Plug-In . SVG Version: 6.00 Build 0)  -->
<svg version="1.1" id="medicine" xmlns="http://www.w3.org/2000/svg" xmlns:xlink="http://www.w3.org/1999/xlink" x="0px" y="0px"
	 viewBox="0 0 186.9 187.2" enable-background="new 0 0 186.9 187.2" xml:space="preserve">
<rect x="0.2" y="0" fill="none" width="186.7" height="186.7"/>
<g>
	<path fill="#EFF4FB" d="M75.7,110.2c0,9.9,8,17.9,17.9,17.9s17.9-8,17.9-17.9c0-9.9-8-17.9-17.9-17.9S75.7,100.4,75.7,110.2z
		 M104.3,105.6v9.2h-6.1v6.1H89v-6.1h-6.1v-9.2H89v-6.1h9.2v6.1H104.3z"/>
	<path fill="#EFF4FB" d="M93.6,13.8C49.6,13.8,14,49.4,14,93.4c0,43.9,35.6,79.5,79.5,79.5c43.9,0,79.5-35.6,79.5-79.5
		C173.1,49.4,137.5,13.8,93.6,13.8z M63.8,32c3.8-0.5,7.3,2.2,7.8,6c0.3,2.2-0.5,4.3-1.9,5.7c2.2,4.4,4.1,11.3,5.2,19.2
		c0.2,1.7,0.4,3.4,0.5,5H61.6c-0.2-1.1-0.3-2.1-0.5-3.2c-1-7.9-0.9-15.1,0-19.9c-1.8-1-3-2.9-3.3-5C57.4,35.9,60,32.5,63.8,32z
		 M123.6,149.2H94.2H93H63.6c-3.2,0-5.8-2.6-5.8-5.8s2.6-5.8,5.8-5.8H93h1.2h29.4c3.2,0,5.8,2.6,5.8,5.8S126.8,149.2,123.6,149.2z
		 M123.6,135.3H94.2H93H63.6l-8.1-50.2H93h1.2h37.5L123.6,135.3z M137.4,82.3H49.7c-3.2,0-5.8-2.6-5.8-5.8s2.6-5.8,5.8-5.8h87.7
		c3.2,0,5.8,2.6,5.8,5.8S140.6,82.3,137.4,82.3z"/>
</g>
</svg>
