<?xml version="1.0" encoding="utf-8"?>
<!-- Generator: Adobe Illustrator 18.1.1, SVG Export Plug-In . SVG Version: 6.00 Build 0)  -->
<svg version="1.1" id="probability" xmlns="http://www.w3.org/2000/svg" xmlns:xlink="http://www.w3.org/1999/xlink" x="0px"
	 y="0px" viewBox="0 0 186.9 187.2" enable-background="new 0 0 186.9 187.2" xml:space="preserve">
<rect x="0.2" y="0" fill="none" width="186.7" height="186.7"/>
<g>
	<path fill="#EFF4FB" d="M71.9,108.2c-1.6-0.3-4.2,0.1-5,1.2c-1,1.2-1.1,3.8-0.5,5.4c1.3,3.5,4.1,5.7,7.8,6.7c2,0.5,4,0.4,5.4-1.3
		c1.4-1.7,1.2-3.6,0.4-5.5C78.2,111.2,75.6,108.8,71.9,108.2z"/>
	<path fill="#EFF4FB" d="M63.6,122.2c-1.5-0.3-3.9,0.1-4.8,1.2c-0.9,1-1,3.4-0.5,4.8c1.1,3.4,3.7,5.7,7.3,6.8c2,0.6,4.2,0.7,5.3-1.1
		c0.9-1.5,0.8-3.5,1-4.4C69.7,125.2,67.2,122.8,63.6,122.2z"/>
	<path fill="#EFF4FB" d="M80.6,93.3c-2.1-0.5-4.3-0.2-5.4,1.7c-0.8,1.5-0.7,3.5-1,5.3c2.1,3.5,5.7,6.3,9.3,6.8
		c4.3,0.6,7.1-2.6,5.6-6.7C87.7,96.5,84.6,94.3,80.6,93.3z"/>
	<path fill="#EFF4FB" d="M75.5,68.3c4.8,0.1,8.9-1.7,12.2-5.2c0.7-0.7,1.1-2.3,0.8-3.1c-0.4-0.8-1.9-1.6-2.8-1.6
		c-2.2,0-4.3,0.6-6.6,1c-1.9,1.4-3.9,2.7-5.6,4.3c-0.7,0.7-1.2,2.3-0.8,3.1C73,67.5,74.5,68.3,75.5,68.3z"/>
	<path fill="#EFF4FB" d="M129.1,90.1c-2.2,3.2-2.3,6.8-1.4,9.7c1.8,4.6,5.4,5.6,7.9,2.8c2.7-2.9,3.3-8.9,1.2-12.4
		C134.8,86.9,131.3,86.8,129.1,90.1z"/>
	<path fill="#EFF4FB" d="M93.6,13.8C49.6,13.8,14,49.4,14,93.4c0,43.9,35.6,79.5,79.5,79.5c43.9,0,79.5-35.6,79.5-79.5
		C173.1,49.4,137.5,13.8,93.6,13.8z M39.5,78.7c10.8-10,21.6-19.9,32.5-29.8c1.1-1,2.8-1.7,4.2-1.8c14.7-1,29.3-2,44-2.8
		c1.1-0.1,2.2,0.7,3.3,1.1c-0.5,1-0.8,2.2-1.5,2.9c-10.5,10.8-21,21.5-31.6,32.2c-0.4,0.4-0.9,0.8-1.4,1.2c-0.9,0.1-1.9,0.3-2.9,0.3
		c-15,0.2-30.1,0.4-45.1,0.4c-1,0-2-0.8-3.1-1.2C38.4,80.5,38.8,79.4,39.5,78.7z M110.6,144.1c-10.9-1-21.9-2-32.8-3.1
		c-5.4-0.5-10.8-1.1-16.2-1.6c-2-0.2-3.4-1.2-4.2-3.1C51.2,121.5,45,106.8,38.8,92c-1.5-3.5-1.4-3.6,2.5-3.6
		c14.5-0.1,28.9-0.1,43.4-0.3c3.2,0,5.1,1.2,6.3,4.3c6.7,16,13.5,32,20.2,48c0.4,1,0.2,2.2,0.3,3.3
		C111.2,143.8,110.9,144,110.6,144.1z M148.5,102.9c-9.8,12-19.4,24.1-29.1,36.2c-0.5,0.6-0.9,1.2-1.3,1.8c-0.3,0.1-0.6,0.3-0.9,0.4
		c-0.6-0.6-1.5-1.2-1.8-1.9c-6.9-16.3-13.7-32.6-20.6-48.9c-1.2-2.9-0.8-5.1,1.4-7.3c10.2-10.3,20.2-20.7,30.3-31.1
		c2.4-2.5,3.1-2.4,4.4,0.7c6.2,14.6,12.3,29.2,18.5,43.7C150.4,99,150.1,100.9,148.5,102.9z"/>
	<path fill="#EFF4FB" d="M110.4,84.7c-3,3.1-3.6,9.1-1.3,12.8c1.9,3.1,5.3,3.4,7.6,0.7c2.8-3.3,3.1-7.2,2.1-10.4
		C116.9,82.9,113.1,81.8,110.4,84.7z"/>
</g>
</svg>
