<?xml version="1.0" encoding="utf-8"?>
<!-- Generator: Adobe Illustrator 18.1.1, SVG Export Plug-In . SVG Version: 6.00 Build 0)  -->
<svg version="1.1" id="reading" xmlns="http://www.w3.org/2000/svg" xmlns:xlink="http://www.w3.org/1999/xlink" x="0px" y="0px"
	 viewBox="0 0 186.9 187.2" enable-background="new 0 0 186.9 187.2" xml:space="preserve">
<rect x="0.2" y="0" fill="none" width="186.7" height="186.7"/>
<g>
	<path fill="#EFF4FB" d="M146.7,61.6c-2.8-1.5-5.7-2.6-8.7-3.3c-7.3-1.7-14.7-1.6-22.1-0.3c-4.4,0.8-8.6,2.1-12.4,4.6
		c-3.7,2.6-5.9,6-5.9,10.7c0,0.9,0,1.9,0,2.8h0v5.1h0c0,15.5,0,30.9,0,46.4c0,0.4,0,0.7,0,1.3c0.6-0.6,1.1-1.1,1.6-1.6
		c2.1-1.8,4.5-3.1,7-4.1c6.2-2.5,12.6-3.4,19.2-2.9c6.5,0.5,12.5,2.5,18.3,5.6c1.1,0.6,2.3,1.3,3.5,2c0-0.4,0.1-0.7,0.1-1
		c0-1.4,0-2.8,0-4.2c0-19.9,0-39.8,0-59.7C147.3,62.5,147.4,62,146.7,61.6z M100.7,105.4c4.8-5.2,14.2-8.5,24.6-8.5
		c6.6,0,12.9,1.3,17.9,3.7c0.7,0.4,1.1,1.3,0.7,2c-0.4,0.8-1.2,1.1-2,0.7c-4.6-2.2-10.5-3.4-16.6-3.4c-9.4,0-18.2,2.9-22.4,7.5
		c-0.3,0.3-0.7,0.5-1.1,0.5c-0.4,0-0.7-0.1-1-0.4C100.1,107,100.1,106.1,100.7,105.4z M100.7,94.8c4.8-5.2,14.2-8.5,24.6-8.5
		c6.6,0,12.9,1.3,17.9,3.7c0.7,0.4,1.1,1.3,0.7,2c-0.4,0.8-1.2,1.1-2,0.7c-4.6-2.2-10.5-3.4-16.6-3.4c-9.4,0-18.2,2.9-22.4,7.5
		c-0.3,0.3-0.7,0.5-1.1,0.5c-0.4,0-0.7-0.1-1-0.4C100.1,96.4,100.1,95.5,100.7,94.8z M143.8,113.3c-0.4,0.8-1.2,1.1-2,0.7
		c-4.6-2.2-10.5-3.4-16.6-3.4c-9.4,0-18.2,2.9-22.4,7.5c-0.3,0.3-0.7,0.5-1.1,0.5c-0.4,0-0.7-0.1-1-0.4c-0.6-0.6-0.6-1.5-0.1-2.2
		c4.8-5.2,14.2-8.5,24.6-8.5c6.6,0,12.9,1.3,17.9,3.7C143.9,111.7,144.2,112.6,143.8,113.3z M143.8,81.5c-0.4,0.8-1.2,1.1-2,0.7
		c-4.6-2.2-10.5-3.4-16.6-3.4c-9.4,0-18.2,2.9-22.4,7.5c-0.3,0.3-0.7,0.5-1.1,0.5c-0.4,0-0.7-0.1-1-0.4c-0.6-0.6-0.6-1.5-0.1-2.2
		c4.8-5.2,14.2-8.5,24.6-8.5c6.6,0,12.9,1.3,17.9,3.7C143.9,79.8,144.2,80.7,143.8,81.5z M143.8,70.9c-0.4,0.8-1.2,1.1-2,0.7
		c-4.6-2.2-10.5-3.4-16.6-3.4c-9.4,0-18.2,2.9-22.4,7.5c-0.3,0.3-0.7,0.5-1.1,0.5c-0.4,0-0.7-0.1-1-0.4c-0.6-0.6-0.6-1.5-0.1-2.2
		c4.8-5.2,14.2-8.5,24.6-8.5c6.6,0,12.9,1.3,17.9,3.7C143.9,69.2,144.2,70.1,143.8,70.9z"/>
	<path fill="#EFF4FB" d="M87.9,66.7c-2-3-4.9-4.8-8.1-6.2c-4.8-2.1-9.9-3-15.1-3.3c-8.3-0.5-16.3,0.3-23.8,4.3
		C40.2,61.9,40,62.3,40,63c0,21.3,0,42.6,0,63.9c0,0.3,0,0.7,0.1,1.1c0.4-0.2,0.6-0.3,0.8-0.5c3.7-2.3,7.7-4.2,11.9-5.4
		c5.8-1.7,11.6-2.3,17.6-1.6c4.9,0.6,9.6,1.9,14,4.4c1.8,1,3.5,2.3,5.3,3.5c0-0.1,0-0.3,0-0.6c0-18.4,0-36.7,0-55.1
		C89.7,70.7,89.2,68.6,87.9,66.7z M86.4,118.2c-0.3,0.3-0.7,0.4-1,0.4c-0.4,0-0.8-0.2-1.1-0.5c-4.2-4.6-13-7.5-22.4-7.5
		c-6.1,0-12,1.2-16.6,3.4c-0.7,0.4-1.6,0-2-0.7c-0.4-0.8,0-1.7,0.7-2c5-2.4,11.3-3.7,17.9-3.7c10.4,0,19.8,3.2,24.6,8.5
		C87.1,116.7,87,117.6,86.4,118.2z M86.4,107.6c-0.3,0.3-0.7,0.4-1,0.4c-0.4,0-0.8-0.2-1.1-0.5c-4.2-4.6-13-7.5-22.4-7.5
		c-6.1,0-12,1.2-16.6,3.4c-0.8,0.4-1.6,0-2-0.7c-0.4-0.8,0-1.7,0.7-2c5-2.4,11.3-3.7,17.9-3.7c10.4,0,19.8,3.2,24.6,8.5
		C87.1,106.1,87,107,86.4,107.6z M86.4,97c-0.3,0.3-0.7,0.4-1,0.4c-0.4,0-0.8-0.2-1.1-0.5c-4.2-4.6-13-7.5-22.4-7.5
		c-6.1,0-12,1.2-16.6,3.4c-0.8,0.4-1.6,0-2-0.7c-0.4-0.8,0-1.7,0.7-2c5-2.4,11.3-3.7,17.9-3.7c10.4,0,19.8,3.2,24.6,8.5
		C87.1,95.5,87,96.4,86.4,97z M86.4,86.4c-0.3,0.3-0.7,0.4-1,0.4c-0.4,0-0.8-0.2-1.1-0.5c-4.2-4.6-13-7.5-22.4-7.5
		c-6.1,0-12,1.2-16.6,3.4c-0.7,0.4-1.6,0-2-0.7c-0.4-0.8,0-1.7,0.7-2c5-2.4,11.3-3.7,17.9-3.7c10.4,0,19.8,3.2,24.6,8.5
		C87.1,84.8,87,85.8,86.4,86.4z M86.4,75.8c-0.3,0.3-0.7,0.4-1,0.4c-0.4,0-0.8-0.2-1.1-0.5c-4.2-4.6-13-7.5-22.4-7.5
		c-6.1,0-12,1.2-16.6,3.4c-0.7,0.4-1.6,0-2-0.7c-0.4-0.8,0-1.7,0.7-2c5-2.4,11.3-3.7,17.9-3.7c10.4,0,19.8,3.2,24.6,8.5
		C87.1,74.2,87,75.2,86.4,75.8z"/>
	<path fill="#EFF4FB" d="M93.6,13.8C49.6,13.8,14,49.4,14,93.4c0,43.9,35.6,79.5,79.5,79.5c43.9,0,79.5-35.6,79.5-79.5
		C173.1,49.4,137.5,13.8,93.6,13.8z M151.8,134.2c-15.7,0-31.3,0-47,0c-0.6,0-1.2,0.3-1.8,0.5c-0.5,0.2-1,0.5-1.5,0.7
		c-3.8,1.4-7.6,1.5-11.5,1.1c-2.1-0.2-4.2-0.6-6-1.7c-0.9-0.5-1.7-0.7-2.7-0.6c-15.4,0-30.8,0-46.2,0c-0.4,0-0.8-0.1-1.2-0.1
		c0-26,0-52,0-78c1.5-0.5,2.9-1.1,4.4-1.6c6.6-2.5,13.4-4,20.5-4.4c7.5-0.4,14.8,0.4,21.9,2.8c4.7,1.6,9.2,3.5,13.1,6.7
		c0.2,0.1,0.6,0.1,0.8,0c2.3-1.3,4.6-2.8,7-3.9c6.4-3.1,13.3-4.7,20.4-5.2c9.4-0.7,18.6,0.7,27.4,4.2c1.3,0.5,2.5,0.9,3.8,1.4
		c0,26,0,52,0,78C152.7,134.1,152.3,134.2,151.8,134.2z"/>
</g>
</svg>
