<?xml version="1.0" encoding="UTF-8" standalone="no"?>
<svg width="50px" height="50px" viewBox="0 0 50 50" version="1.1" xmlns="http://www.w3.org/2000/svg" xmlns:xlink="http://www.w3.org/1999/xlink" xmlns:sketch="http://www.bohemiancoding.com/sketch/ns">
    <!-- Generator: Sketch 3.4.3 (16044) - http://www.bohemiancoding.com/sketch -->
    <title>Sports</title>
    <desc>Created with Sketch.</desc>
    <defs></defs>
    <g id="Gallery-Icons" stroke="none" stroke-width="1" fill="none" fill-rule="evenodd" sketch:type="MSPage">
        <g id="Sports" sketch:type="MSArtboardGroup" fill="#FFFFFF">
            <path d="M34.7546755,38.1302397 C32.0747611,39.861583 28.9054571,40.9003118 25.5,40.9931896 L25.5,23 L32.5059208,23 C32.6040572,27.3023761 33.9002544,34.0828889 34.7546755,38.1302397 Z M35.6276711,37.5291659 C40.0975519,34.2540238 43,28.9659635 43,23 L33.5058845,23 C33.5990004,27.1061138 34.7774566,33.4414752 35.6276711,37.5291659 Z M34.7181757,7.84624212 C32.0460032,6.12901274 28.8900093,5.09926686 25.5,5.00681041 L25.5,22 L32.5063732,22 C32.6065289,17.9577571 33.8651499,11.6816538 34.7181757,7.84624212 Z M35.5880205,8.44186432 C39.8284503,11.5312005 42.6675916,16.4281633 42.9726916,22 L33.5064144,22 C33.6018747,18.1706599 34.7428864,12.310034 35.5880205,8.44186432 Z M15.2453245,38.1302397 C17.9252389,39.861583 21.0945429,40.9003118 24.5,40.9931896 L24.5,23 L17.4940792,23 C17.3959428,27.3023761 16.0997456,34.0828889 15.2453245,38.1302397 Z M14.3723289,37.5291659 C9.90244807,34.2540238 7,28.9659635 7,23 L16.4941155,23 C16.4009996,27.1061138 15.2225434,33.4414752 14.3723289,37.5291659 Z M15.2818243,7.84624212 C17.9539968,6.12901274 21.1099907,5.09926686 24.5,5.00681041 L24.5,22 L17.4936268,22 C17.3934711,17.9577571 16.1348501,11.6816538 15.2818243,7.84624212 Z M14.4119795,8.44186432 C10.1715497,11.5312005 7.33240836,16.4281633 7.02730838,22 L16.4935856,22 C16.3981253,18.1706599 15.2571136,12.310034 14.4119795,8.44186432 Z" id="Oval-30" sketch:type="MSShapeGroup"></path>
        </g>
    </g>
</svg>