<?xml version="1.0" encoding="utf-8"?>
<!-- Generator: Adobe Illustrator 18.1.1, SVG Export Plug-In . SVG Version: 6.00 Build 0)  -->
<svg version="1.1" id="welcome" xmlns="http://www.w3.org/2000/svg" xmlns:xlink="http://www.w3.org/1999/xlink" x="0px" y="0px"
	 viewBox="0 0 186.9 187.2" enable-background="new 0 0 186.9 187.2" xml:space="preserve">
<rect x="0.2" y="0" fill="none" width="186.7" height="186.7"/>
<g>
	<path fill="#EFF4FB" d="M94.1,37.2c-31,0-56.1,25.2-56.1,56.1s25.2,56.1,56.1,56.1s56.1-25.2,56.1-56.1S125,37.2,94.1,37.2z
		 M101.5,69.9c1-1,2.3-1.5,3.7-1.5c1.4,0,2.6,0.5,3.7,1.5c1,1,1.5,2.2,1.5,3.6c0,1.4-0.5,2.6-1.5,3.6c-1,1-2.3,1.5-3.7,1.5
		c-1.4,0-2.7-0.5-3.7-1.5c-1-1-1.6-2.2-1.6-3.6C100,72.1,100.5,70.9,101.5,69.9z M91,88.9c0.3-0.3,0.6-0.5,1-0.5h2.8
		c0.4,0,0.7,0.2,1,0.5c0.3,0.3,0.4,0.7,0.4,1.2v18.2c0,0.5-0.1,0.9-0.4,1.2c-0.3,0.3-0.6,0.5-1,0.5H92c-0.4,0-0.7-0.2-1-0.5
		c-0.3-0.3-0.4-0.7-0.4-1.2l0-18.2C90.6,89.6,90.7,89.2,91,88.9z M78.1,69.9c1-1,2.3-1.5,3.7-1.5c1.4,0,2.6,0.5,3.7,1.5
		c1,1,1.5,2.2,1.5,3.6c0,1.4-0.5,2.6-1.5,3.6c-1,1-2.3,1.5-3.7,1.5c-1.4,0-2.7-0.5-3.7-1.5c-1-1-1.6-2.2-1.6-3.6
		C76.5,72.1,77,70.9,78.1,69.9z M126.4,121.5c-2.2,2-4.6,3.8-7.3,5.2c-7.8,4.3-16.3,6.4-25.5,6.4c-6,0-11.8-0.9-17.5-2.7
		c-6-2-11.1-4.7-15.2-8.2c-0.7-0.6-1-1.2-1-1.6c0-0.5,0.1-0.9,0.2-1.2c0.1-0.3,0.5-0.7,1-1.3c0.5-0.6,0.9-0.9,1.3-1.1
		c0.3-0.2,0.7-0.2,1.1-0.2c0.4,0,1.1,0.4,2.1,1.2c3.2,2.6,7.3,4.6,12.3,6.1c2.4,0.7,4.9,1.2,7.5,1.6c2.6,0.4,5.2,0.6,7.8,0.6
		s5.2-0.1,7.8-0.4c9.1-1,16.1-3.8,21-8.4c0.6-0.6,1.2-0.8,1.9-0.8c0.6,0,1.4,0.5,2.4,1.5c0.6,0.6,0.8,1.3,0.8,2.2
		C127.1,120.6,126.8,121,126.4,121.5z"/>
	<path fill="#EFF4FB" d="M93.6,13.8C49.6,13.8,14,49.4,14,93.4c0,43.9,35.6,79.5,79.5,79.5c43.9,0,79.5-35.6,79.5-79.5
		C173.1,49.4,137.5,13.8,93.6,13.8z M94.1,154.2c-33.6,0-60.8-27.2-60.8-60.8c0-33.6,27.2-60.8,60.8-60.8s60.8,27.2,60.8,60.8
		C154.9,126.9,127.7,154.2,94.1,154.2z"/>
</g>
</svg>
