<?xml version="1.0" encoding="UTF-8" standalone="no"?>
<svg width="50px" height="50px" viewBox="0 0 50 50" version="1.1" xmlns="http://www.w3.org/2000/svg" xmlns:xlink="http://www.w3.org/1999/xlink" xmlns:sketch="http://www.bohemiancoding.com/sketch/ns">
    <!-- Generator: Sketch 3.4.3 (16044) - http://www.bohemiancoding.com/sketch -->
    <title>Arithmetic</title>
    <desc>Created with Sketch.</desc>
    <defs>
        <path d="M11.9101124,7.54382016 L11.9101124,2.37555025 C11.9101124,1.13683003 10.9040107,0.128410915 9.66292135,0.128410915 C8.41317938,0.128410915 7.41573034,1.13448947 7.41573034,2.37555025 L7.41573034,7.54382016 L2.24725173,7.54382016 C1.00846955,7.54382016 0,8.54992184 0,9.79101117 C0,11.0407531 1.00612887,12.0382022 2.24725173,12.0382022 L7.41573034,12.0382022 L7.41573034,17.1419455 C7.41573034,18.3806658 8.42183202,19.3890849 9.66292135,19.3890849 C10.9126633,19.3890849 11.9101124,18.3830063 11.9101124,17.1419455 L11.9101124,12.0382022 L17.0143855,12.0382022 C18.2531677,12.0382022 19.2616372,11.0321005 19.2616372,9.79101117 C19.2616372,8.5412692 18.2555084,7.54382016 17.0143855,7.54382016 L11.9101124,7.54382016 Z" id="path-1"></path>
        <path d="M30.353071,32.2989754 L26.67616,35.9758865 C25.8002087,36.8518378 25.7985344,38.2763548 26.676117,39.1539374 C27.5598181,40.0376385 28.9765616,40.0315009 29.854168,39.1538945 L33.531079,35.4769834 L37.1765296,39.122434 C38.0524809,39.9983852 39.4769978,40.0000596 40.3545805,39.1224769 C41.2382815,38.2387759 41.232144,36.8220323 40.3545376,35.944426 L36.7090871,32.2989754 L40.2961084,28.7119541 C41.1720597,27.8360028 41.173734,26.4114858 40.2961514,25.5339031 C39.4124503,24.6502021 37.9957068,24.6563397 37.1181004,25.5339461 L33.531079,29.1209674 L29.9125971,25.5024855 C29.0366459,24.6265342 27.6121289,24.6248599 26.7345462,25.5024426 C25.8508452,26.3861436 25.8569827,27.8028871 26.7345891,28.6804935 L30.353071,32.2989754 Z" id="path-2"></path>
        <rect id="path-3" x="0" y="30.080899" width="19.2616372" height="4.49438202" rx="24"></rect>
        <path d="M23.8844302,9.79101117 C23.8844302,8.54992184 24.8928997,7.54382016 26.1316819,7.54382016 L40.8988157,7.54382016 C42.1399385,7.54382016 43.1460674,8.5412692 43.1460674,9.79101117 C43.1460674,11.0321005 42.1375979,12.0382022 40.8988157,12.0382022 L26.1316819,12.0382022 C24.890559,12.0382022 23.8844302,11.0407531 23.8844302,9.79101117 Z M33.7730356,5.16853933 C35.1382339,5.16853933 36.2449457,4.06182747 36.2449457,2.69662921 C36.2449457,1.33143096 35.1382339,0.224719101 33.7730356,0.224719101 C32.4078374,0.224719101 31.3011255,1.33143096 31.3011255,2.69662921 C31.3011255,4.06182747 32.4078374,5.16853933 33.7730356,5.16853933 Z M33.7730356,19.3579454 C35.1382339,19.3579454 36.2449457,18.2512336 36.2449457,16.8860353 C36.2449457,15.5208371 35.1382339,14.4141252 33.7730356,14.4141252 C32.4078374,14.4141252 31.3011255,15.5208371 31.3011255,16.8860353 C31.3011255,18.2512336 32.4078374,19.3579454 33.7730356,19.3579454 Z" id="path-4"></path>
    </defs>
    <g id="Gallery-Icons" stroke="none" stroke-width="1" fill="none" fill-rule="evenodd" sketch:type="MSPage">
        <g id="Arithmetic" sketch:type="MSArtboardGroup">
            <g sketch:type="MSLayerGroup" transform="translate(3.000000, 5.000000)">
                <g id="Add">
                    <use fill="#FFFFFF" fill-rule="evenodd" sketch:type="MSShapeGroup" xlink:href="#path-1"></use>
                    <use fill="none" xlink:href="#path-1"></use>
                </g>
                <g id="Multiply">
                    <use fill="#FFFFFF" fill-rule="evenodd" sketch:type="MSShapeGroup" xlink:href="#path-2"></use>
                    <use fill="none" xlink:href="#path-2"></use>
                </g>
                <g id="Subtract">
                    <use fill="#FFFFFF" fill-rule="evenodd" sketch:type="MSShapeGroup" xlink:href="#path-3"></use>
                    <use fill="none" xlink:href="#path-3"></use>
                </g>
                <g id="Divide">
                    <use fill="#FFFFFF" fill-rule="evenodd" sketch:type="MSShapeGroup" xlink:href="#path-4"></use>
                    <use fill="none" xlink:href="#path-4"></use>
                </g>
            </g>
        </g>
    </g>
</svg>