<?xml version="1.0" encoding="UTF-8" standalone="no"?>
<svg width="50px" height="50px" viewBox="0 0 50 50" version="1.1" xmlns="http://www.w3.org/2000/svg" xmlns:xlink="http://www.w3.org/1999/xlink" xmlns:sketch="http://www.bohemiancoding.com/sketch/ns">
    <!-- Generator: Sketch 3.4.3 (16044) - http://www.bohemiancoding.com/sketch -->
    <title>Art</title>
    <desc>Created with Sketch.</desc>
    <defs></defs>
    <g id="Gallery-Icons" stroke="none" stroke-width="1" fill="none" fill-rule="evenodd" sketch:type="MSPage">
        <g id="Art" sketch:type="MSArtboardGroup" fill="#FFFFFF">
            <path d="M40.24686,27.335398 C42.044806,28.4430956 44.2613193,29.3743226 44.8919611,29.3743226 C47.5414459,29.3743226 48.8043731,27.871284 50.393223,27.4448262 C50.8487315,27.3225647 52.2068736,30 52.6088302,30 C53.0107869,30 53.5950416,27.4448262 51.4818514,23.6322014 C50.6052696,22.0506696 48.4450874,20 45.4442682,20 C43.5983068,20 41.1128663,21.2028223 39.4732361,22.5136273 C40.4623356,22.9402205 41.1469804,23.9200266 41.1469804,25.0973121 L41.1469804,25.2376755 C41.1469804,26.0668917 40.8019255,26.8109492 40.24686,27.335398 Z M36.8194793,22.5085992 C38.4283044,22.4458166 39.7325148,23.6945155 39.7325148,25.3194018 L39.7325148,25.4597652 C39.7325148,27.0749112 38.4234045,28.366972 36.8031328,28.3423906 C36.8031328,28.3423906 -1,27.9219802 -1,25.972223 C-1,23.8548839 36.8194793,22.5085992 36.8194793,22.5085992 Z" id="Oval-1" sketch:type="MSShapeGroup" transform="translate(26.000000, 25.000000) rotate(-225.000000) translate(-26.000000, -25.000000) "></path>
        </g>
    </g>
</svg>