<?xml version="1.0" encoding="UTF-8" standalone="no"?>
<svg width="50px" height="50px" viewBox="0 0 50 50" version="1.1" xmlns="http://www.w3.org/2000/svg" xmlns:xlink="http://www.w3.org/1999/xlink" xmlns:sketch="http://www.bohemiancoding.com/sketch/ns">
    <!-- Generator: Sketch 3.4.3 (16044) - http://www.bohemiancoding.com/sketch -->
    <title>Chemistry</title>
    <desc>Created with Sketch.</desc>
    <defs>
        <path d="M28.577978,27.8524191 C26.2458797,24.4151262 23.0472093,19.7080871 23.0472093,18.5024695 L23.0472093,4.7839934 L23.0217219,5.02768207 C23.1236716,4.63008476 23.3403146,4.1298817 23.455008,4.01445022 C24.2196304,3.47577 24.5254793,2.65492395 24.2706052,1.82125218 C23.9265251,0.731066015 22.6903856,-3.55271368e-15 21.760095,-3.55271368e-15 L20.5749303,-3.55271368e-15 L16.891999,-3.55271368e-15 L16.1656078,-3.55271368e-15 L13.8335095,-3.55271368e-15 L12.6483447,-3.55271368e-15 C11.7180542,-3.55271368e-15 10.4819146,0.731066015 10.1378345,1.82125218 C9.8702167,2.64209823 10.1888094,3.47577 10.9789192,4.04010166 C11.0681251,4.14270742 11.2847681,4.63008476 11.3867178,5.04050779 L11.3612304,4.79681912 L11.3612304,18.5024695 C11.3612304,19.7209129 8.16256002,24.4151262 5.83046171,27.8524191 C4.14829243,30.3277829 2.41514833,32.8801011 1.24272732,34.9193905 C-0.566879015,38.0745176 -0.0698744573,40.2677156 0.669260526,41.5502876 C1.62503852,43.2176311 3.34543892,44 4.19926726,44 L16.1783515,44 L16.547919,44 L16.9047428,44 L30.2219162,44 C31.0757445,44 32.7961449,43.2176311 33.7519229,41.5502876 C34.4783142,40.2677156 34.9753187,38.0745176 33.1657124,34.9193905 C31.9932914,32.8929269 30.2601473,30.3277829 28.577978,27.8524191 Z M16.891999,42.1017935 L16.5351753,42.1017935 L16.1656078,42.1017935 L4.18652355,42.1017935 C3.95713683,42.0889678 2.83569065,41.6272419 2.23673644,40.5114043 C1.59955111,39.3057866 1.81619412,37.689746 2.86117806,35.8556681 C3.99536795,33.8805073 5.70302464,31.3538405 7.37245021,28.9169538 C11.0044066,23.5686287 13.2218115,20.2082902 13.2218115,18.5024695 L13.2218115,4.7839934 L13.2218115,4.6557362 C13.0816308,4.07857882 12.724807,2.96274122 12.0621342,2.4881896 C11.9474409,2.41123528 11.9219535,2.34710668 11.9219535,2.34710668 C11.9601846,2.2316752 12.4062143,1.88538078 12.6610885,1.88538078 L13.8462532,1.88538078 L16.1783515,1.88538078 L16.9047428,1.88538078 L20.5749303,1.88538078 L21.760095,1.88538078 C22.0022254,1.88538078 22.4482551,2.21884948 22.4864863,2.39840956 C22.4864863,2.34710668 22.4609988,2.39840956 22.3463055,2.4881896 C21.6836327,2.96274122 21.3268089,4.07857882 21.2121156,4.54030473 L21.1866282,4.7839934 L21.1866282,18.5024695 C21.1866282,20.2082902 23.4167768,23.5814545 27.0359895,28.9169538 C28.6926714,31.3666662 30.4130718,33.893333 31.5472617,35.8556681 C32.5922456,37.689746 32.8088886,39.2929609 32.1717033,40.4985786 C31.5727491,41.6272419 30.4385592,42.0889678 30.2091725,42.1017935 L16.891999,42.1017935 Z" id="path-1"></path>
        <filter x="-50%" y="-50%" width="200%" height="200%" filterUnits="objectBoundingBox" id="filter-2">
            <feOffset dx="0" dy="1" in="SourceAlpha" result="shadowOffsetOuter1"></feOffset>
            <feGaussianBlur stdDeviation="1" in="shadowOffsetOuter1" result="shadowBlurOuter1"></feGaussianBlur>
            <feColorMatrix values="0 0 0 0 0   0 0 0 0 0   0 0 0 0 0  0 0 0 0.168 0" in="shadowBlurOuter1" type="matrix" result="shadowMatrixOuter1"></feColorMatrix>
            <feOffset dx="0" dy="1" in="SourceAlpha" result="shadowOffsetOuter2"></feOffset>
            <feGaussianBlur stdDeviation="1.5" in="shadowOffsetOuter2" result="shadowBlurOuter2"></feGaussianBlur>
            <feColorMatrix values="0 0 0 0 0   0 0 0 0 0   0 0 0 0 0  0 0 0 0.084 0" in="shadowBlurOuter2" type="matrix" result="shadowMatrixOuter2"></feColorMatrix>
            <feMerge>
                <feMergeNode in="shadowMatrixOuter1"></feMergeNode>
                <feMergeNode in="shadowMatrixOuter2"></feMergeNode>
                <feMergeNode in="SourceGraphic"></feMergeNode>
            </feMerge>
        </filter>
        <path d="M16.891999,41.3602205 L16.5351753,41.3602205 L16.1656078,41.3602205 L3.94091318,41.3602205 C4.17089183,41.3602205 3.25316211,40.9842863 2.59267829,39.8897254 C1.89494336,38.7334315 3.24719707,36.3447773 4.08922991,34.866904 C5.2234198,32.8917432 7.17668686,30.3650765 8.84611242,27.9281897 C12.4780688,22.5798647 13.7130323,20.2082902 13.7130323,18.5024695 L20.6954074,18.5024695 C20.6954074,20.2082902 21.9431146,22.5926904 25.5623273,27.9281897 C27.2190092,30.3779022 28.9394095,32.9045689 30.0735994,34.866904 C31.1185834,36.7009819 32.3486032,38.6841078 31.7114179,39.8897254 C31.1124637,41.0183887 30.4385592,41.3473948 30.2091725,41.3602205 L16.891999,41.3602205 Z M19.1713483,36.5871062 C20.2573015,36.5871062 21.1376404,35.7011017 21.1376404,34.6081598 C21.1376404,33.5152179 20.2573015,32.6292135 19.1713483,32.6292135 C18.0853952,32.6292135 17.2050562,33.5152179 17.2050562,34.6081598 C17.2050562,35.7011017 18.0853952,36.5871062 19.1713483,36.5871062 Z M14.255618,29.6650487 C15.0700828,29.6650487 15.7303371,29.0005454 15.7303371,28.180839 C15.7303371,27.3611326 15.0700828,26.6966292 14.255618,26.6966292 C13.4411531,26.6966292 12.7808989,27.3611326 12.7808989,28.180839 C12.7808989,29.0005454 13.4411531,29.6650487 14.255618,29.6650487 Z M17.9424157,23.7317553 C18.4853923,23.7317553 18.9255618,23.2887531 18.9255618,22.7422822 C18.9255618,22.1958112 18.4853923,21.752809 17.9424157,21.752809 C17.3994392,21.752809 16.9592697,22.1958112 16.9592697,22.7422822 C16.9592697,23.2887531 17.3994392,23.7317553 17.9424157,23.7317553 Z" id="path-3"></path>
    </defs>
    <g id="Gallery-Icons" stroke="none" stroke-width="1" fill="none" fill-rule="evenodd" sketch:type="MSPage">
        <g id="Chemistry" sketch:type="MSArtboardGroup">
            <g id="Beaker" sketch:type="MSLayerGroup" transform="translate(7.000000, 3.000000)">
                <g id="Shape-Copy">
                    <use fill="#FFFFFF" fill-rule="evenodd" sketch:type="MSShapeGroup" xlink:href="#path-1"></use>
                    <use fill="none" xlink:href="#path-1"></use>
                </g>
                <g id="Path-Copy" filter="url(#filter-2)">
                    <use fill="#FFFFFF" fill-rule="evenodd" sketch:type="MSShapeGroup" xlink:href="#path-3"></use>
                    <use fill="none" xlink:href="#path-3"></use>
                </g>
            </g>
        </g>
    </g>
</svg>