<?xml version="1.0" encoding="UTF-8" standalone="no"?>
<svg width="50px" height="50px" viewBox="0 0 50 50" version="1.1" xmlns="http://www.w3.org/2000/svg" xmlns:xlink="http://www.w3.org/1999/xlink" xmlns:sketch="http://www.bohemiancoding.com/sketch/ns">
    <!-- Generator: Sketch 3.4.3 (16044) - http://www.bohemiancoding.com/sketch -->
    <title>Engineering</title>
    <desc>Created with Sketch.</desc>
    <defs></defs>
    <g id="Gallery-Icons" stroke="none" stroke-width="1" fill="none" fill-rule="evenodd" sketch:type="MSPage">
        <g id="Engineering" sketch:type="MSArtboardGroup" fill="#FFFFFF">
            <g id="Oval-7-Copy-+-Oval-7-Copy-2" sketch:type="MSLayerGroup" transform="translate(2.000000, -1.000000)">
                <path d="M36.3835791,31.6613367 C35.362037,32.2635742 34.2519444,32.7307221 33.0776497,33.038337 L32.1428571,35.8536585 L27.3809524,35.8536585 L26.4461599,33.038337 C25.2718651,32.7307221 24.1617725,32.2635742 23.1402304,31.6613367 L20.4972455,32.9866856 L17.1300704,29.6195105 L18.4615596,26.9642808 C17.8591042,25.9343135 17.3923783,24.8146847 17.0860466,23.630155 L14.2787456,22.6980256 L14.2787456,17.9361208 L17.0860466,17.0039914 C17.3923783,15.8194617 17.8591042,14.6998328 18.4615596,13.6698656 L17.1300704,11.0146359 L20.4972455,7.64746073 L23.1402304,8.97280965 C24.1617725,8.37057215 25.2718651,7.90342422 26.4461599,7.59580931 L27.3809524,4.7804878 L32.1428571,4.7804878 L33.0776497,7.59580931 C34.2519444,7.90342422 35.362037,8.37057215 36.3835791,8.97280965 L39.026564,7.64746073 L42.3937391,11.0146359 L41.0622499,13.6698656 C41.6647053,14.6998328 42.1314312,15.8194617 42.4377629,17.0039914 L45.2450639,17.9361208 L45.2450639,22.6980256 L42.4377629,23.630155 C42.1314312,24.8146847 41.6647053,25.9343135 41.0622499,26.9642808 L42.3937391,29.6195105 L39.026564,32.9866856 L36.3835791,31.6613367 Z M29.7619048,28.6829268 C34.3642777,28.6829268 38.0952381,24.9374066 38.0952381,20.3170732 C38.0952381,15.6967398 34.3642777,11.9512195 29.7619048,11.9512195 C25.1595318,11.9512195 21.4285714,15.6967398 21.4285714,20.3170732 C21.4285714,24.9374066 25.1595318,28.6829268 29.7619048,28.6829268 Z" id="Oval-7-Copy" sketch:type="MSShapeGroup" transform="translate(29.761905, 20.317073) rotate(-20.000000) translate(-29.761905, -20.317073) "></path>
                <path d="M15.2985218,46.0976233 C14.5913004,46.514557 13.8227747,46.8379671 13.0098014,47.0509313 L12.3626374,49 L9.06593407,49 L8.41877001,47.0509313 C7.60579672,46.8379671 6.83727106,46.514557 6.13004961,46.0976233 L4.30029086,47.0151726 L1.9691696,44.6840513 L2.89096983,42.8458154 C2.47388531,42.1327612 2.1507674,41.3576335 1.93869162,40.5375745 L-0.00482444385,39.8922541 L-0.00482444385,36.5955508 L1.93869162,35.9502304 C2.1507674,35.1301714 2.47388531,34.3550437 2.89096983,33.6419895 L1.9691696,31.8037535 L4.30029086,29.4726323 L6.13004961,30.3901815 C6.83727106,29.9732479 7.60579672,29.6498378 8.41877001,29.4368736 L9.06593407,27.4878049 L12.3626374,27.4878049 L13.0098014,29.4368736 C13.8227747,29.6498378 14.5913004,29.9732479 15.2985218,30.3901815 L17.1282806,29.4726323 L19.4594018,31.8037535 L18.5376016,33.6419895 C18.9546861,34.3550437 19.277804,35.1301714 19.4898798,35.9502304 L21.4333959,36.5955508 L21.4333959,39.8922541 L19.4898798,40.5375745 C19.277804,41.3576335 18.9546861,42.1327612 18.5376016,42.8458154 L19.4594018,44.6840513 L17.1282806,47.0151726 L15.2985218,46.0976233 Z M10.7142857,44.0356473 C13.9005439,44.0356473 16.4835165,41.4425948 16.4835165,38.2439024 C16.4835165,35.0452101 13.9005439,32.4521576 10.7142857,32.4521576 C7.52802754,32.4521576 4.94505495,35.0452101 4.94505495,38.2439024 C4.94505495,41.4425948 7.52802754,44.0356473 10.7142857,44.0356473 Z" id="Oval-7-Copy-2" sketch:type="MSShapeGroup"></path>
            </g>
        </g>
    </g>
</svg>