<?xml version="1.0" encoding="UTF-8" standalone="no"?>
<svg width="50px" height="50px" viewBox="0 0 50 50" version="1.1" xmlns="http://www.w3.org/2000/svg" xmlns:xlink="http://www.w3.org/1999/xlink" xmlns:sketch="http://www.bohemiancoding.com/sketch/ns">
    <!-- Generator: Sketch 3.4.3 (16044) - http://www.bohemiancoding.com/sketch -->
    <title>Environment</title>
    <desc>Created with Sketch.</desc>
    <defs></defs>
    <g id="Gallery-Icons" stroke="none" stroke-width="1" fill="none" fill-rule="evenodd" sketch:type="MSPage">
        <g id="Environment" sketch:type="MSArtboardGroup" fill="#FFFFFF">
            <path d="M37.3788245,40.6010213 C30.9485365,43.4977924 22.9512627,41.789831 18.1366862,36.4600523 C16.4061794,35.1642166 12.953096,27.4974832 12.953096,20.3985012 C12.953096,14.1037345 9.65978771,11.5908027 7,9.00202302 C13.5860293,7.30230297 25.5104307,7.09795101 34.5988219,13.8274286 C40.52989,19.7738785 43.0354829,30.271014 39.0992555,39.6904843 C38.8260778,39.8581646 38.5488922,40.0164424 38.2681243,40.165406 C38.012165,39.5141571 34.296604,30.1884665 28.8041061,23.4505033 C23.110222,16.4654882 16.6241082,13.2643125 16.6241082,13.2643125 C16.6241082,13.2643125 23.1454721,17.6288002 27.9364296,24.0904688 C32.5879871,30.3641254 37.1190843,40.0430848 37.3788245,40.6010213 Z" id="Path-23" sketch:type="MSShapeGroup"></path>
        </g>
    </g>
</svg>