<?xml version="1.0" encoding="UTF-8" standalone="no"?>
<svg width="50px" height="50px" viewBox="0 0 50 50" version="1.1" xmlns="http://www.w3.org/2000/svg" xmlns:xlink="http://www.w3.org/1999/xlink" xmlns:sketch="http://www.bohemiancoding.com/sketch/ns">
    <!-- Generator: Sketch 3.4.3 (16044) - http://www.bohemiancoding.com/sketch -->
    <title>Geography</title>
    <desc>Created with Sketch.</desc>
    <defs></defs>
    <g id="Gallery-Icons" stroke="none" stroke-width="1" fill="none" fill-rule="evenodd" sketch:type="MSPage">
        <g id="Geography" sketch:type="MSArtboardGroup" fill="#FFFFFF">
            <g id="Oval-11-+-Rectangle-54" sketch:type="MSLayerGroup" transform="translate(4.000000, -1.000000)">
                <path d="M17.6478146,39.666742 C26.5563908,40.396056 34.5940666,34.0526379 35.854021,25.0875965 C37.1139754,16.1225552 31.1361485,7.8093866 22.3716493,6.05491183 L22.0927629,8.03929117 C29.7630937,9.63692907 34.9796665,16.9383594 33.8734849,24.8092503 C32.7673033,32.6801413 25.7402647,38.2608442 17.9267009,37.6823626 L17.6478146,39.666742 Z M15.6672785,39.3883958 C15.0012559,39.2550716 14.3513254,39.0838734 13.71944,38.8773933 L13.4371465,40.8860162 C14.3832608,41.1755088 15.3643064,41.3946788 16.3751749,41.5367471 C26.766464,42.9971475 36.3741567,35.7572318 37.8345572,25.3659427 C39.2949576,14.9746536 32.0550419,5.36696094 21.6637528,3.90656049 C20.6528842,3.76449218 19.6494312,3.70475907 18.6601728,3.72225275 L18.3778793,5.7308757 C19.0422001,5.70656547 19.714142,5.72114437 20.3911131,5.77656562 L20.1122268,7.76094497 C12.298663,7.18246341 5.27162441,12.7631663 4.16544283,20.6340573 C3.05926125,28.5049482 8.27583406,35.8063785 15.9461648,37.4040164 L15.6672782,39.3883977 Z" id="Oval-11" sketch:type="MSShapeGroup" transform="translate(21.019713, 22.721654) rotate(-348.000000) translate(-21.019713, -22.721654) "></path>
                <path d="M9,45.0048815 C9,43.897616 9.89702623,43 11.0049466,43 L30.9950534,43 C32.1023548,43 33,43.8938998 33,45.0048815 L33,45.9951185 C33,47.102384 32.1029738,48 30.9950534,48 L11.0049466,48 C9.89764516,48 9,47.1061002 9,45.9951185 L9,45.0048815 Z M19,40 L23,40 L23,43 L19,43 L19,40 Z" id="Rectangle-54" sketch:type="MSShapeGroup"></path>
            </g>
        </g>
    </g>
</svg>