<?xml version="1.0" encoding="UTF-8" standalone="no"?>
<svg width="50px" height="50px" viewBox="0 0 50 50" version="1.1" xmlns="http://www.w3.org/2000/svg" xmlns:xlink="http://www.w3.org/1999/xlink" xmlns:sketch="http://www.bohemiancoding.com/sketch/ns">
    <!-- Generator: Sketch 3.4.3 (16044) - http://www.bohemiancoding.com/sketch -->
    <title>Graph Theory</title>
    <desc>Created with Sketch.</desc>
    <defs></defs>
    <g id="Gallery-Icons" stroke="none" stroke-width="1" fill="none" fill-rule="evenodd" sketch:type="MSPage">
        <g id="Graph-Theory" sketch:type="MSArtboardGroup" fill="#FFFFFF">
            <path d="M19.5285841,18.1143705 L23.0492764,11.4929113 C21.8265517,10.8085782 21,9.50081486 21,8 C21,5.790861 22.790861,4 25,4 C27.209139,4 29,5.790861 29,8 C29,9.50081486 28.1734483,10.8085782 26.9507236,11.4929113 L30.4714159,18.1143705 L38.5538191,10.0319673 C38.2019294,9.43645409 38,8.74180862 38,8 C38,5.790861 39.790861,4 42,4 C44.209139,4 46,5.790861 46,8 C46,9.86383943 44.7252272,11.4299397 43,11.8739825 L43,38.1260175 C44.7252272,38.5700603 46,40.1361606 46,42 C46,44.209139 44.209139,46 42,46 C39.790861,46 38,44.209139 38,42 C38,41.2581914 38.2019294,40.5635459 38.5538191,39.9680327 L31.1242813,32.5384948 L27.6748724,39.0258893 C28.4884404,39.7580776 29,40.8192982 29,42 C29,44.209139 27.209139,46 25,46 C22.790861,46 21,44.209139 21,42 C21,40.8192982 21.5115596,39.7580776 22.3251276,39.0258893 L18.8757187,32.5384948 L11.4461809,39.9680327 C11.7980706,40.5635459 12,41.2581914 12,42 C12,44.209139 10.209139,46 8,46 C5.790861,46 4,44.209139 4,42 C4,40.1361606 5.27477279,38.5700603 7,38.1260175 L7,11.8739825 C5.27477279,11.4299397 4,9.86383943 4,8 C4,5.790861 5.790861,4 8,4 C10.209139,4 12,5.790861 12,8 C12,8.74180862 11.7980706,9.43645409 11.4461809,10.0319673 L19.5285841,18.1143705 Z M18.546739,19.9609526 L16.5,23.8103088 L9.9507236,11.4929113 C9.97800361,11.4776433 10.0050864,11.4620649 10.0319672,11.446181 L18.546739,19.9609526 Z M32.1061263,30.6919128 L33.5,28.0704177 L38.0591553,36.6449417 L32.1061263,30.6919128 Z M24,22.5857864 L24,13.9649692 L21.0074155,19.593202 L24,22.5857864 Z M20.0255705,21.439784 L17.6325701,25.9403632 L19.3727051,29.2130813 L23.5857864,25 L20.0255705,21.439784 Z M26,27.4142136 L26,37.9157573 L29.6454498,31.0596634 L26,27.4142136 Z M30.6272949,29.2130813 L32.3674299,25.9403632 L29.9744295,21.439784 L26.4142136,25 L30.6272949,29.2130813 Z M31.453261,19.9609526 L33.5,23.8103088 L40.0492764,11.4929113 C40.0219964,11.4776433 39.9949136,11.4620649 39.9680328,11.446181 L31.453261,19.9609526 Z M17.8938737,30.6919128 L16.5,28.0704177 L11.9408447,36.6449417 L17.8938737,30.6919128 Z M24,27.4142136 L24,37.9157573 L20.3545502,31.0596634 L24,27.4142136 Z M26,22.5857864 L26,13.9649692 L28.9925845,19.593202 L26,22.5857864 Z M9,13.9649692 L15.3674299,25.9403632 L9,37.9157573 L9,13.9649692 Z M41,13.9649692 L34.6325701,25.9403632 L41,37.9157573 L41,13.9649692 Z" id="Oval-4" sketch:type="MSShapeGroup"></path>
        </g>
    </g>
</svg>