<?xml version="1.0" encoding="UTF-8" standalone="no"?>
<svg width="50px" height="50px" viewBox="0 0 50 50" version="1.1" xmlns="http://www.w3.org/2000/svg" xmlns:xlink="http://www.w3.org/1999/xlink" xmlns:sketch="http://www.bohemiancoding.com/sketch/ns">
    <!-- Generator: Sketch 3.4.3 (16044) - http://www.bohemiancoding.com/sketch -->
    <title>Hobbies</title>
    <desc>Created with Sketch.</desc>
    <defs></defs>
    <g id="Gallery-Icons" stroke="none" stroke-width="1" fill="none" fill-rule="evenodd" sketch:type="MSPage">
        <g id="Hobbies" sketch:type="MSArtboardGroup" fill="#FFFFFF">
            <path d="M8.14285714,25.424528 C8.77790318,25.0147558 9.53285341,24.7771893 10.3428571,24.7771893 C12.5993348,24.7771893 14.4285714,26.6208175 14.4285714,28.8950481 C14.4285714,31.1692787 12.5993348,33.0129069 10.3428571,33.0129069 C9.53285341,33.0129069 8.77790318,32.7753403 8.14285714,32.3655681 L8.14285714,32.3793901 C8.10967705,32.3520779 8.07681148,32.3255881 8.04425811,32.2999031 C7.9590607,32.2413649 7.87617403,32.1796634 7.79576449,32.1149662 C5.68647163,30.6420845 5,32.6961485 5,32.6961485 L5,25.0939477 C5,25.0939477 5.91773693,26.9749466 7.86711195,25.619011 C7.91984002,25.5784723 7.9735759,25.5391972 8.02827513,25.5012307 C8.06610079,25.4722682 8.10429454,25.4421048 8.14285714,25.410706 L8.14285714,25.424528 Z M18.834523,42.8447796 C18.412902,42.2036342 18.1678555,41.4377644 18.1678555,40.6151077 C18.1678555,38.35863 20.0114837,36.5293934 22.2857143,36.5293934 C24.5599449,36.5293934 26.4035731,38.35863 26.4035731,40.6151077 C26.4035731,41.4377644 26.1585266,42.2036342 25.7369055,42.8447796 L25.7700563,42.8447796 C23.8094953,45.2265527 26.0868147,45.9876367 26.0868147,45.9876367 L18.4846139,45.9876367 C18.4846139,45.9876367 20.542755,44.9834724 18.8013722,42.8447796 L18.834523,42.8447796 Z M18.834523,8.31811737 C18.412902,7.67697197 18.1678555,6.9111022 18.1678555,6.08844552 C18.1678555,3.83196783 20.0114837,2.00273123 22.2857143,2.00273123 C24.5599449,2.00273123 26.4035731,3.83196783 26.4035731,6.08844552 C26.4035731,6.9111022 26.1585266,7.67697197 25.7369055,8.31811737 L25.7700563,8.31811737 C23.8094953,10.6998905 26.0868147,11.4609745 26.0868147,11.4609745 L18.4846139,11.4609745 C18.4846139,11.4609745 20.542755,10.4568102 18.8013722,8.31811737 L18.834523,8.31811737 Z M42.7142857,25.424528 C43.3493318,25.0147558 44.104282,24.7771893 44.9142857,24.7771893 C47.1707634,24.7771893 49,26.6208175 49,28.8950481 C49,31.1692787 47.1707634,33.0129069 44.9142857,33.0129069 C44.104282,33.0129069 43.3493318,32.7753403 42.7142857,32.3655681 L42.7142857,32.3793901 C42.6811056,32.3520779 42.6482401,32.3255881 42.6156867,32.2999031 C42.5304893,32.2413649 42.4476026,32.1796634 42.3671931,32.1149662 C40.2579002,30.6420845 39.5714286,32.6961485 39.5714286,32.6961485 L39.5714286,25.0939477 C39.5714286,25.0939477 40.4891655,26.9749466 42.4385405,25.619011 C42.4912686,25.5784723 42.5450045,25.5391972 42.5997037,25.5012307 C42.6375294,25.4722682 42.6757231,25.4421048 42.7142857,25.410706 L42.7142857,25.424528 Z M5,12.582997 C5,11.9701491 5.48871258,11.4733378 6.09175307,11.4733378 L38.4796755,11.4733378 C39.0826341,11.4733378 39.5714286,11.9614175 39.5714286,12.582997 L39.5714286,44.8903408 C39.5714286,45.5031887 39.082716,46 38.4796755,46 L6.09175307,46 C5.4887945,46 5,45.5119202 5,44.8903408 L5,12.582997 Z" id="Oval-14" sketch:type="MSShapeGroup"></path>
        </g>
    </g>
</svg>