<?xml version="1.0" encoding="UTF-8" standalone="no"?>
<svg width="50px" height="50px" viewBox="0 0 50 50" version="1.1" xmlns="http://www.w3.org/2000/svg" xmlns:xlink="http://www.w3.org/1999/xlink" xmlns:sketch="http://www.bohemiancoding.com/sketch/ns">
    <!-- Generator: Sketch 3.4.3 (16044) - http://www.bohemiancoding.com/sketch -->
    <title>Music</title>
    <desc>Created with Sketch.</desc>
    <defs></defs>
    <g id="Gallery-Icons" stroke="none" stroke-width="1" fill="none" fill-rule="evenodd" sketch:type="MSPage">
        <g id="Music" sketch:type="MSArtboardGroup" fill="#FFFFFF">
            <path d="M38.2688921,15 L38.2688921,13 L40.2688921,13 L40.2688921,33.1121732 C40.3714827,33.677507 40.3709495,34.2860277 40.2688921,34.9084827 L40.2688921,35 L40.253173,35 C40.0475282,36.1453343 39.4998418,37.3328215 38.6200176,38.3813551 C36.4900068,40.9198031 33.2199279,41.6825856 31.316092,40.0850776 C29.412256,38.4875695 29.5956069,35.1347146 31.7256176,32.5962667 C33.5933824,30.3703513 36.3377675,29.5097794 38.2688921,30.4087345 L38.2688921,17 L17.2700005,17 L17.2700005,15 L38.2688921,15 Z M15.2688921,30.4087345 L15.2688921,11 L15.2688921,8 L40.2688921,8 L40.2688921,13 L17.2688921,13 L17.2688921,33.1121732 C17.3714827,33.677507 17.3709495,34.2860277 17.2688921,34.9084827 L17.2688921,35 L17.253173,35 C17.0475282,36.1453343 16.4998418,37.3328215 15.6200176,38.3813551 C13.4900068,40.9198031 10.2199279,41.6825856 8.31609196,40.0850776 C6.41225597,38.4875695 6.59560686,35.1347146 8.72561762,32.5962667 C10.5933824,30.3703513 13.3377675,29.5097794 15.2688921,30.4087345 Z" id="Rectangle-124" sketch:type="MSShapeGroup"></path>
        </g>
    </g>
</svg>