<?xml version="1.0" encoding="UTF-8" standalone="no"?>
<svg width="50px" height="50px" viewBox="0 0 50 50" version="1.1" xmlns="http://www.w3.org/2000/svg" xmlns:xlink="http://www.w3.org/1999/xlink" xmlns:sketch="http://www.bohemiancoding.com/sketch/ns">
    <!-- Generator: Sketch 3.4.3 (16044) - http://www.bohemiancoding.com/sketch -->
    <title>Religion</title>
    <desc>Created with Sketch.</desc>
    <defs></defs>
    <g id="Gallery-Icons" stroke="none" stroke-width="1" fill="none" fill-rule="evenodd" sketch:type="MSPage">
        <g id="Religion" sketch:type="MSArtboardGroup" fill="#FFFFFF">
            <path d="M17.7084337,39.0951513 L33.3614458,39.0951513 L33.3614458,41.3536795 L17.7084337,41.3536795 L17.7084337,39.0951513 Z M17.7084337,43.6122077 L33.3614458,43.6122077 L33.3614458,45.3061038 C33.3614458,46.2416169 32.6064685,47 31.671427,47 L19.3984526,47 C18.4650809,47 17.7084337,46.2481391 17.7084337,45.3061038 L17.7084337,43.6122077 Z M25.5000559,3 C17.4914159,3 11,9.58577751 11,17.7104672 C11,20.4181678 11.73312,22.9461944 12.9909513,25.1259892 C12.9822304,25.1375591 13.0336617,25.2117427 13.1057773,25.3172331 C13.317652,25.671023 13.5416019,26.014831 13.7800867,26.3479765 C15.1811431,28.5745047 17.7084337,33.4488308 17.7084337,36.8366231 C19.7922628,36.926737 30.1903897,36.926737 33.3614458,36.9267361 C33.3614458,33.4438511 35.7565802,28.6528852 37.1779855,26.4038977 C37.4355894,26.0494273 37.6758631,25.6838406 37.9005957,25.3065706 C37.9693571,25.207092 38.0177696,25.1375591 38.0177696,25.1375591 C39.26688,22.9471018 40,20.4181678 40,17.7104672 C40,9.58577751 33.5085841,3 25.5000559,3 Z" id="Lightbulb" sketch:type="MSShapeGroup"></path>
        </g>
    </g>
</svg>