<?xml version="1.0" encoding="UTF-8" standalone="no"?>
<svg width="50px" height="50px" viewBox="0 0 50 50" version="1.1" xmlns="http://www.w3.org/2000/svg" xmlns:xlink="http://www.w3.org/1999/xlink" xmlns:sketch="http://www.bohemiancoding.com/sketch/ns">
    <!-- Generator: Sketch 3.4.3 (16044) - http://www.bohemiancoding.com/sketch -->
    <title>Statistics</title>
    <desc>Created with Sketch.</desc>
    <defs></defs>
    <g id="Gallery-Icons" stroke="none" stroke-width="1" fill="none" fill-rule="evenodd" sketch:type="MSPage">
        <g id="Statistics" sketch:type="MSArtboardGroup" fill="#FFFFFF">
            <path d="M24,14 L26,14 L26,36 L24,36 L24,14 Z M29,16 L27,16 L27,36 L29,36 L29,16 Z M32,19 L30,19 L30,36 L32,36 L32,19 Z M35,23 L33,23 L33,36 L35,36 L35,23 Z M38,28 L36,28 L36,36 L38,36 L38,28 Z M41,31 L39,31 L39,36 L41,36 L41,31 Z M44,33 L42,33 L42,36 L44,36 L44,33 Z M47,34 L45,34 L45,36 L47,36 L47,34 Z M50,35 L48,35 L48,36 L50,36 L50,35 Z M21,16 L23,16 L23,36 L21,36 L21,16 Z M18,19 L20,19 L20,36 L18,36 L18,19 Z M15,23 L17,23 L17,36 L15,36 L15,23 Z M12,28 L14,28 L14,36 L12,36 L12,28 Z M9,31 L11,31 L11,36 L9,36 L9,31 Z M6,33 L8,33 L8,36 L6,36 L6,33 Z M3,34 L5,34 L5,36 L3,36 L3,34 Z M0,35 L2,35 L2,36 L0,36 L0,35 Z" id="Rectangle-173-Copy-5" sketch:type="MSShapeGroup"></path>
        </g>
    </g>
</svg>