<svg width="20" height="20" viewBox="0 0 20 20" fill="none" xmlns="http://www.w3.org/2000/svg">
<g id="Icon-Lesson">
<path id="Vector" d="M11.4545 8.425V7.15C11.8545 6.975 12.2638 6.84375 12.6822 6.75625C13.1006 6.66875 13.5399 6.625 14 6.625C14.3151 6.625 14.6242 6.65 14.9273 6.7C15.2303 6.75 15.5273 6.8125 15.8182 6.8875V8.0875C15.5273 7.975 15.2332 7.8905 14.936 7.834C14.6388 7.7775 14.3268 7.7495 14 7.75C13.5394 7.75 13.097 7.8095 12.6727 7.9285C12.2485 8.0475 11.8424 8.213 11.4545 8.425ZM11.4545 12.55V11.275C11.8545 11.1 12.2638 10.9688 12.6822 10.8813C13.1006 10.7938 13.5399 10.75 14 10.75C14.3151 10.75 14.6242 10.775 14.9273 10.825C15.2303 10.875 15.5273 10.9375 15.8182 11.0125V12.2125C15.5273 12.1 15.2332 12.0155 14.936 11.959C14.6388 11.9025 14.3268 11.8745 14 11.875C13.5394 11.875 13.097 11.9313 12.6727 12.0438C12.2485 12.1562 11.8424 12.325 11.4545 12.55ZM11.4545 10.4875V9.2125C11.8545 9.0375 12.2638 8.90625 12.6822 8.81875C13.1006 8.73125 13.5399 8.6875 14 8.6875C14.3151 8.6875 14.6242 8.7125 14.9273 8.7625C15.2303 8.8125 15.5273 8.875 15.8182 8.95V10.15C15.5273 10.0375 15.2332 9.953 14.936 9.8965C14.6388 9.84 14.3268 9.812 14 9.8125C13.5394 9.8125 13.097 9.872 12.6727 9.991C12.2485 10.11 11.8424 10.2755 11.4545 10.4875ZM6 13C6.5697 13 7.12436 13.0658 7.664 13.1973C8.20363 13.3288 8.73988 13.5255 9.27272 13.7875V6.4C8.77575 6.1 8.24848 5.875 7.69091 5.725C7.13333 5.575 6.5697 5.5 6 5.5C5.56364 5.5 5.13018 5.54375 4.69964 5.63125C4.26909 5.71875 3.85406 5.85 3.45454 6.025V13.45C3.87879 13.3 4.30012 13.1875 4.71854 13.1125C5.13697 13.0375 5.56412 13 6 13ZM10.7273 13.7875C11.2606 13.525 11.7968 13.328 12.336 13.1965C12.8751 13.065 13.4298 12.9995 14 13C14.4364 13 14.8638 13.0375 15.2822 13.1125C15.7006 13.1875 16.1217 13.3 16.5454 13.45V6.025C16.1454 5.85 15.7302 5.71875 15.2996 5.63125C14.8691 5.54375 14.4359 5.5 14 5.5C13.4303 5.5 12.8667 5.575 12.3091 5.725C11.7515 5.875 11.2242 6.1 10.7273 6.4V13.7875ZM10 16C9.41818 15.525 8.78788 15.1562 8.10909 14.8937C7.4303 14.6312 6.72727 14.5 6 14.5C5.49091 14.5 4.99079 14.5687 4.49964 14.7062C4.00848 14.8438 3.53891 15.0375 3.09091 15.2875C2.83636 15.425 2.59103 15.4187 2.35491 15.2687C2.11879 15.1187 2.00048 14.9 2 14.6125V5.575C2 5.4375 2.03345 5.30625 2.10036 5.18125C2.16727 5.05625 2.26715 4.9625 2.4 4.9C2.95758 4.6 3.53939 4.375 4.14545 4.225C4.75151 4.075 5.3697 4 6 4C6.70303 4 7.39103 4.09375 8.064 4.28125C8.73697 4.46875 9.3823 4.75 10 5.125C10.6182 4.75 11.2638 4.46875 11.9367 4.28125C12.6097 4.09375 13.2975 4 14 4C14.6303 4 15.2485 4.075 15.8545 4.225C16.4606 4.375 17.0424 4.6 17.6 4.9C17.7333 4.9625 17.8334 5.05625 17.9004 5.18125C17.9673 5.30625 18.0005 5.4375 18 5.575V14.6125C18 14.9 17.8819 15.1187 17.6458 15.2687C17.4097 15.4187 17.1641 15.425 16.9091 15.2875C16.4606 15.0375 15.991 14.8438 15.5004 14.7062C15.0097 14.5687 14.5096 14.5 14 14.5C13.2727 14.5 12.5697 14.6312 11.8909 14.8937C11.2121 15.1562 10.5818 15.525 10 16Z" fill="#00645C"/>
</g>
</svg>
