<svg width="24" height="24" viewBox="0 0 54 34" fill="#000000" xmlns="http://www.w3.org/2000/svg">
<path d="M36.8182 14.5714C40.8927 14.5714 44.1573 11.3171 44.1573 7.28571C44.1573 3.25429 40.8927 0 36.8182 0C32.7436 0 29.4545 3.25429 29.4545 7.28571C29.4545 11.3171 32.7436 14.5714 36.8182 14.5714ZM17.1818 14.5714C21.2564 14.5714 24.5209 11.3171 24.5209 7.28571C24.5209 3.25429 21.2564 0 17.1818 0C13.1073 0 9.81818 3.25429 9.81818 7.28571C9.81818 11.3171 13.1073 14.5714 17.1818 14.5714ZM17.1818 19.4286C11.4627 19.4286 0 22.27 0 27.9286V34H34.3636V27.9286C34.3636 22.27 22.9009 19.4286 17.1818 19.4286ZM36.8182 19.4286C36.1064 19.4286 35.2964 19.4771 34.4373 19.55C37.2845 21.59 39.2727 24.3343 39.2727 27.9286V34H54V27.9286C54 22.27 42.5373 19.4286 36.8182 19.4286Z" fill="#000000"/>
</svg>
