<!-- <svg xmlns="http://www.w3.org/2000/svg" height="24" width="24" fill="#000000" xmlns:v="https://vecta.io/nano"><path d="M21 8c-1.45 0-2.26 1.44-1.93 2.51l-3.55 3.56a2.04 2.04 0 0 0-1.04 0l-2.55-2.55C12.27 10.45 11.46 9 10 9c-1.45 0-2.27 1.44-1.93 2.52l-4.56 4.55C2.44 15.74 1 16.55 1 18c0 1.1.9 2 2 2 1.45 0 2.26-1.44 1.93-2.51l4.55-4.56a2.04 2.04 0 0 0 1.04 0l2.55 2.55C12.73 16.55 13.54 18 15 18c1.45 0 2.27-1.44 1.93-2.52l3.56-3.55c1.07.33 2.51-.48 2.51-1.93 0-1.1-.9-2-2-2zm-6 1l.94-2.07L18 6l-2.06-.93L15 3l-.92 2.07L12 6l2.08.93zM3.5 11L4 9l2-.5L4 8l-.5-2L3 8l-2 .5L3 9z"/></svg> -->
<svg xmlns="http://www.w3.org/2000/svg" width="21" height="22" viewBox="0 0 21 22" fill="none">
  <path d="M18.5859 1.76758L12.8281 3.93569L14.8945 5.24204C11.2031 9.90339 5.86328 12.7746 1.35156 13.8675L2.62969 16.2021C7.69922 14.5452 13.0664 11.5564 16.5234 6.27616L18.0977 7.2711L18.5859 1.76758ZM18.8867 6.33883L18.6992 8.4854L16.6953 7.21626C16.625 7.32202 16.5508 7.42387 16.4766 7.52963V20.0487H19.5234V6.33883H18.8867ZM13.0039 11.3527C12.5078 11.7836 11.9961 12.191 11.4766 12.5749V20.0487H14.5234V11.3527H13.0039ZM8.17188 14.6431C7.60938 14.9408 7.04688 15.215 6.47656 15.4735V20.0487H9.52344V14.6431H8.17188ZM1.47656 16.3666V20.0487H4.52344V16.3666H4.30156C3.72266 16.582 3.14414 16.7818 2.56914 16.9659L2.29336 17.0521L1.91836 16.3666H1.47656Z" fill="#EEF5FB"/>
</svg>