<!-- <svg xmlns="http://www.w3.org/2000/svg" height="24" width="24" fill="#000000" xmlns:v="https://vecta.io/nano"><path d="M20 3H4c-1.1 0-2 .9-2 2v14c0 1.1.9 2 2 2h16c1.1 0 2-.9 2-2V5c0-1.1-.9-2-2-2zM10 17H5v-2h5v2zm0-4H5v-2h5v2zm0-4H5V7h5v2zm4.82 6L12 12.16l1.41-1.41 1.41 1.42L17.99 9l1.42 1.42L14.82 15z" fill-rule="evenodd"/></svg> -->
<svg xmlns="http://www.w3.org/2000/svg" width="20" height="22" viewBox="0 0 20 22" fill="none">
  <path d="M17.0462 3.93453H17.045L19.14 4.35445C19.2525 4.37701 19.345 4.45974 19.3775 4.5713C19.3939 4.62549 19.3954 4.68313 19.3817 4.73809C19.3681 4.79305 19.3398 4.84327 19.3 4.88341L17.5837 6.60568C17.3784 6.81121 17.1001 6.92662 16.81 6.92657H15.3875L11.8125 10.5128C11.8807 10.771 11.8932 11.0408 11.8493 11.3043C11.8053 11.5678 11.7059 11.8189 11.5576 12.0408C11.4093 12.2627 11.2155 12.4504 10.9892 12.5914C10.7629 12.7323 10.5092 12.8233 10.2451 12.8582C9.98099 12.8931 9.71248 12.8712 9.45747 12.7939C9.20246 12.7166 8.96681 12.5857 8.7662 12.4099C8.5656 12.2341 8.40465 12.0175 8.29409 11.7744C8.18353 11.5314 8.12588 11.2675 8.125 11.0004C8.12519 10.7119 8.19151 10.4274 8.31883 10.1688C8.44615 9.91011 8.63107 9.68429 8.8593 9.50874C9.08752 9.33319 9.35294 9.21261 9.63505 9.15631C9.91715 9.10002 10.2084 9.10951 10.4862 9.18407L14.0625 5.59664V4.17144C14.0625 3.88064 14.1775 3.60111 14.3825 3.39554L16.1 1.67327C16.14 1.63332 16.1901 1.605 16.2449 1.59132C16.2997 1.57763 16.3572 1.5791 16.4112 1.59556C16.5225 1.62815 16.605 1.7209 16.6275 1.83372L17.0462 3.93453Z" fill="#EEF5FB"/>
  <path d="M2.49987 10.9997C2.50115 12.0751 2.73242 13.1377 3.17808 14.1159C3.62373 15.0941 4.27341 15.9651 5.08328 16.6701C5.89315 17.3751 6.84437 17.8977 7.87279 18.2027C8.90121 18.5077 9.98289 18.588 11.0449 18.4381C12.1069 18.2883 13.1245 17.9118 14.029 17.334C14.9336 16.7563 15.704 15.9907 16.2885 15.089C16.8729 14.1873 17.2576 13.1704 17.4168 12.1068C17.576 11.0433 17.5058 9.95794 17.2111 8.92392C17.1697 8.80311 17.1533 8.67512 17.1628 8.54775C17.1724 8.42037 17.2076 8.29627 17.2665 8.18301C17.3254 8.06974 17.4066 7.96967 17.5053 7.8889C17.604 7.80812 17.718 7.74833 17.8405 7.71316C17.9629 7.67799 18.0913 7.66818 18.2176 7.68432C18.344 7.70047 18.4657 7.74223 18.5755 7.80707C18.6852 7.87191 18.7807 7.95846 18.856 8.06147C18.9313 8.16448 18.9849 8.28178 19.0136 8.40623C19.5843 10.4087 19.4759 12.5445 18.7054 14.4785C17.935 16.4125 16.5461 18.0353 14.7566 19.0923C12.9672 20.1494 10.8784 20.5808 8.81806 20.319C6.75769 20.0571 4.84229 19.1168 3.37237 17.6456C1.90405 16.1719 0.965339 14.251 0.703625 12.1845C0.44191 10.1179 0.872011 8.02269 1.9264 6.22779C2.98079 4.43289 4.59975 3.03995 6.52911 2.26766C8.45848 1.49537 10.589 1.38746 12.5861 1.96088C12.8239 2.03059 13.0245 2.19186 13.1441 2.40944C13.2637 2.62702 13.2926 2.88323 13.2243 3.12207C13.1561 3.36091 12.9964 3.56296 12.7801 3.68407C12.5638 3.80517 12.3084 3.83549 12.0699 3.76839C10.9531 3.44708 9.77716 3.3903 8.63477 3.60251C7.49237 3.81473 6.41475 4.29014 5.48686 4.99127C4.55897 5.69241 3.80617 6.60009 3.28782 7.64277C2.76947 8.68544 2.49973 9.83461 2.49987 10.9997Z" fill="#EEF5FB"/>
  <path d="M6.24962 10.9997C6.2497 11.6848 6.43631 12.3569 6.78933 12.9435C7.14235 13.5301 7.64838 14.0089 8.25284 14.3283C8.85729 14.6477 9.53724 14.7955 10.2193 14.7559C10.9014 14.7162 11.5598 14.4906 12.1234 14.1033C12.6869 13.715 13.1338 13.1796 13.4158 12.5551C13.6978 11.9305 13.8042 11.2405 13.7234 10.5597C13.7015 10.3945 13.724 10.2264 13.7884 10.0728C13.8529 9.91922 13.957 9.78561 14.0901 9.68576C14.2231 9.58591 14.3803 9.52343 14.5455 9.50475C14.7106 9.48607 14.8777 9.51187 15.0296 9.57949C15.1815 9.64623 15.313 9.75216 15.4107 9.88648C15.5084 10.0208 15.5689 10.1787 15.5859 10.3441C15.7217 11.5075 15.493 12.6843 14.9315 13.7114C14.37 14.7385 13.5036 15.5649 12.4526 16.0758C11.4015 16.5867 10.2179 16.7568 9.06599 16.5625C7.91412 16.3682 6.85114 15.8191 6.02457 14.9916C5.19801 14.164 4.64887 13.0988 4.45338 11.9441C4.25788 10.7893 4.42572 9.60215 4.9336 8.54738C5.44149 7.49261 6.26422 6.62254 7.28761 6.05794C8.31101 5.49335 9.48429 5.26222 10.6446 5.39665C10.7689 5.40821 10.8896 5.44453 10.9996 5.50347C11.1097 5.56241 11.2069 5.64279 11.2856 5.7399C11.3643 5.83701 11.4229 5.94889 11.4579 6.06899C11.4929 6.18909 11.5036 6.31499 11.4895 6.43931C11.4753 6.56362 11.4366 6.68386 11.3755 6.79296C11.3144 6.90207 11.2322 6.99785 11.1337 7.07469C11.0353 7.15153 10.9225 7.20788 10.802 7.24045C10.6815 7.27301 10.5558 7.28113 10.4321 7.26433C9.90669 7.20315 9.3743 7.25413 8.86992 7.41393C8.36553 7.57372 7.90057 7.83871 7.50556 8.19149C7.11055 8.54427 6.79443 8.97685 6.57798 9.46083C6.36152 9.94482 6.24962 10.4692 6.24962 10.9997Z" fill="#EEF5FB"/>
</svg>