<?xml version="1.0" encoding="utf-8"?>
<!-- Generator: Adobe Illustrator 18.1.1, SVG Export Plug-In . SVG Version: 6.00 Build 0)  -->
<svg version="1.1" id="band" xmlns="http://www.w3.org/2000/svg" xmlns:xlink="http://www.w3.org/1999/xlink" x="0px" y="0px"
	 viewBox="0 0 1660.5 221.6" enable-background="new 0 0 1660.5 221.6" xml:space="preserve">
<rect x="0" y="0" fill="#AED2E9" width="1660.5" height="221.6"/>
<path fill="#BDDAEF" d="M1556.3,8.5c-16.8,0-30.4,13.6-30.4,30.4s13.6,30.4,30.4,30.4c16.8,0,30.4-13.6,30.4-30.4
	C1586.7,22.1,1573.1,8.5,1556.3,8.5z M1571.2,51.5l-4.4,0l-5.1-5.6l-5.1,5.6l-4.3,0l7.3-8l-7.3-8l4.4,0l5.1,5.6l5.1-5.6l4.4,0
	l-7.3,8L1571.2,51.5z M1570.7,27.4l-19,0l-7.7,26.4c-0.2,0.5-0.7,1-1.2,1c0,0,0,0-0.1,0c-0.5,0-1-0.3-1.3-0.8l-3.1-7.9l-3.5,0
	c-0.7,0-1.3-0.6-1.3-1.3s0.6-1.3,1.3-1.3l4.4,0c0.5,0,1,0.3,1.3,0.8l2,5.1l6.9-23.6c0.2-0.6,0.7-1,1.3-1l20,0c0.7,0,1.3,0.6,1.3,1.3
	S1571.5,27.4,1570.7,27.4z"/>
<path fill="#BDDAEF" d="M1556.3,147.2c-16.8,0-30.4,13.6-30.4,30.4s13.6,30.4,30.4,30.4c16.8,0,30.4-13.6,30.4-30.4
	C1586.7,160.8,1573.1,147.2,1556.3,147.2z M1571.2,190.2l-4.4,0l-5.1-5.6l-5.1,5.6h-4.3l7.3-8l-7.3-8l4.4,0l5.1,5.6l5.1-5.6h4.4
	l-7.3,8L1571.2,190.2z M1570.7,166.1l-19,0l-7.7,26.4c-0.2,0.5-0.7,1-1.2,1c0,0,0,0-0.1,0c-0.5,0-1-0.3-1.3-0.8l-3.1-7.9h-3.5
	c-0.7,0-1.3-0.6-1.3-1.3s0.6-1.3,1.3-1.3h4.4c0.5,0,1,0.3,1.3,0.8l2,5.1l6.9-23.6c0.2-0.6,0.7-1,1.3-1l20,0c0.7,0,1.3,0.6,1.3,1.3
	C1572.1,165.5,1571.5,166.1,1570.7,166.1z"/>
<g>
	<circle fill="#BDDAEF" cx="1567.5" cy="107.4" r="2.2"/>
	<path fill="#BDDAEF" d="M1556.3,77.5c-17,0-30.7,13.8-30.7,30.7s13.8,30.7,30.7,30.7s30.7-13.8,30.7-30.7S1573.3,77.5,1556.3,77.5z
		 M1563.6,82.8c2.6,0,4.6,2.1,4.6,4.6s-2.1,4.6-4.6,4.6s-4.6-2.1-4.6-4.6S1561.1,82.8,1563.6,82.8z M1553.3,89.6
		c3,0,5.4,2.4,5.4,5.4c0,0.9-0.2,1.8-0.7,2.6c-1-0.1-1.9-0.2-2.9-0.2c-2,0-4.1,0.3-6.1,0.8c-0.7-0.9-1.1-2-1.1-3.2
		C1547.9,92,1550.3,89.6,1553.3,89.6z M1575.2,115c-1.6,1.5-3.2,3-4.8,4.5c-1.1,1-2.6,2-3.5,3.3c-0.9,1.3-1,4.3-1.4,5.9
		c-0.2,0.8-1,1.4-1.8,1.4h-2.1c-0.8,0-1.9-0.6-2.3-1.3l-1.7-2.9c-0.8,0.1-1.7,0.2-2.5,0.2c-1.5,0-3-0.2-4.4-0.4l-0.7,2.9
		c-0.2,0.8-1,1.4-1.8,1.4h-2.1c-0.8,0-1.9-0.6-2.3-1.3l-2.3-3.7c-0.1-0.2-0.2-0.3-0.2-0.5c-2-3.6-4.9-8-5.2-12.2c0-0.5,0-1,0-1.5
		c-0.8,0.2-1.7,0.1-2.4-0.3c-1.8-0.9-2.5-3.1-1.5-4.9c0,0,0.1-0.1,0.1-0.2c0,1,0.6,1.9,1.5,2.4c0.9,0.5,1.9,0.4,2.7,0
		c0.7-3.1,2.3-6,4.7-8.2c1.7-1.5,3.7-2.7,5.8-3.5c0.2,0.9,0.6,1.7,1.1,2.4l0.5,0.6l0.8-0.2c1.9-0.5,3.8-0.8,5.8-0.8
		c0.9,0,1.9,0.1,2.8,0.2l0.8,0.1l0.4-0.7c0.4-0.8,0.7-1.7,0.8-2.6c1.3,0.3,2.6,0.7,3.8,1.2c3-1.5,5.2-2.2,7.7-1.3
		c1,0.4,2.1,0.9,2.6,2c0,0.1,0.1,0.2,0.1,0.3c0,0.2-0.2,0.2-0.3,0.3c-1.2,1-2.5,2-3.7,3c1.7,1.7,2.9,3.8,3.5,6
		c0.2,0,0.4-0.1,0.5-0.1h2c0.8,0,1.4,0.6,1.4,1.4C1577.4,111.3,1577.5,112.9,1575.2,115z"/>
</g>
<path fill="#BDDAEF" d="M1625.4,77.8c-16.8,0-30.4,13.6-30.4,30.4c0,16.8,13.6,30.4,30.4,30.4c16.8,0,30.4-13.6,30.4-30.4
	S1642.2,77.8,1625.4,77.8z M1640.3,120.9l-4.4,0l-5.1-5.6l-5.1,5.6l-4.3,0l7.3-8l-7.3-8l4.4,0l5.1,5.6l5.1-5.6l4.4,0l-7.3,8
	L1640.3,120.9z M1639.9,96.8l-19,0l-7.7,26.4c-0.2,0.5-0.7,1-1.2,1c0,0,0,0-0.1,0c-0.5,0-1-0.3-1.3-0.8l-3.1-7.9h-3.5
	c-0.7,0-1.3-0.6-1.3-1.3c0-0.7,0.6-1.3,1.3-1.3l4.4,0c0.5,0,1,0.3,1.3,0.8l2,5.1l6.9-23.6c0.2-0.6,0.7-1,1.3-1l20,0
	c0.7,0,1.3,0.6,1.3,1.3C1641.3,96.1,1640.6,96.8,1639.9,96.8z"/>
<g>
	<circle fill="#BDDAEF" cx="1636.7" cy="38" r="2.2"/>
	<path fill="#BDDAEF" d="M1625.4,8.2c-17,0-30.7,13.8-30.7,30.7s13.8,30.7,30.7,30.7c17,0,30.7-13.8,30.7-30.7
		S1642.4,8.2,1625.4,8.2z M1632.8,13.5c2.6,0,4.6,2.1,4.6,4.6s-2.1,4.6-4.6,4.6s-4.6-2.1-4.6-4.6S1630.2,13.5,1632.8,13.5z
		 M1622.4,20.2c3,0,5.4,2.4,5.4,5.4c0,0.9-0.2,1.8-0.7,2.6c-1-0.1-1.9-0.2-2.9-0.2c-2,0-4.1,0.3-6.1,0.8c-0.7-0.9-1.1-2-1.1-3.2
		C1617.1,22.7,1619.5,20.2,1622.4,20.2z M1644.3,45.7c-1.6,1.5-3.2,3-4.8,4.5c-1.1,1-2.6,2-3.5,3.3c-0.9,1.3-1,4.3-1.4,5.9
		c-0.2,0.8-1,1.4-1.8,1.4h-2.1c-0.8,0-1.9-0.6-2.3-1.3l-1.7-2.9c-0.8,0.1-1.7,0.2-2.5,0.2c-1.5,0-3-0.2-4.4-0.4l-0.7,2.9
		c-0.2,0.8-1,1.4-1.8,1.4h-2.1c-0.8,0-1.9-0.6-2.3-1.3l-2.3-3.7c-0.1-0.2-0.2-0.3-0.2-0.5c-2-3.6-4.9-8-5.2-12.2c0-0.5,0-1,0-1.5
		c-0.8,0.2-1.7,0.1-2.4-0.3c-1.8-0.9-2.5-3.1-1.5-4.9c0,0,0.1-0.1,0.1-0.2c0,1,0.6,1.9,1.5,2.4c0.9,0.5,1.9,0.4,2.7,0
		c0.7-3.1,2.3-6,4.7-8.2c1.7-1.5,3.7-2.7,5.8-3.5c0.2,0.9,0.6,1.7,1.1,2.4l0.5,0.6l0.8-0.2c1.9-0.5,3.8-0.8,5.8-0.8
		c0.9,0,1.9,0.1,2.8,0.2l0.8,0.1l0.4-0.7c0.4-0.8,0.7-1.7,0.8-2.6c1.3,0.3,2.6,0.7,3.8,1.2c3-1.5,5.2-2.2,7.7-1.3
		c1,0.4,2.1,0.9,2.6,2c0,0.1,0.1,0.2,0.1,0.3c0,0.2-0.2,0.2-0.3,0.3c-1.2,1-2.5,2-3.7,3c1.7,1.7,2.9,3.8,3.5,6
		c0.2,0,0.4-0.1,0.5-0.1h2c0.8,0,1.4,0.6,1.4,1.4C1646.6,42,1646.6,43.6,1644.3,45.7z"/>
</g>
<g>
	<circle fill="#BDDAEF" cx="1636.7" cy="176.7" r="2.2"/>
	<path fill="#BDDAEF" d="M1625.4,146.9c-17,0-30.7,13.8-30.7,30.7s13.8,30.7,30.7,30.7c17,0,30.7-13.8,30.7-30.7
		S1642.4,146.9,1625.4,146.9z M1632.8,152.1c2.6,0,4.6,2.1,4.6,4.6c0,2.6-2.1,4.6-4.6,4.6s-4.6-2.1-4.6-4.6
		C1628.1,154.2,1630.2,152.1,1632.8,152.1z M1622.4,158.9c3,0,5.4,2.4,5.4,5.4c0,0.9-0.2,1.8-0.7,2.6c-1-0.1-1.9-0.2-2.9-0.2
		c-2,0-4.1,0.3-6.1,0.8c-0.7-0.9-1.1-2-1.1-3.2C1617.1,161.4,1619.5,158.9,1622.4,158.9z M1644.3,184.4c-1.6,1.5-3.2,3-4.8,4.5
		c-1.1,1-2.6,2-3.5,3.3c-0.9,1.3-1,4.3-1.4,5.9c-0.2,0.8-1,1.4-1.8,1.4h-2.1c-0.8,0-1.9-0.6-2.3-1.3l-1.7-2.9
		c-0.8,0.1-1.7,0.2-2.5,0.2c-1.5,0-3-0.2-4.4-0.4l-0.7,2.9c-0.2,0.8-1,1.4-1.8,1.4h-2.1c-0.8,0-1.9-0.6-2.3-1.3l-2.3-3.7
		c-0.1-0.2-0.2-0.3-0.2-0.5c-2-3.6-4.9-8-5.2-12.2c0-0.5,0-1,0-1.5c-0.8,0.2-1.7,0.1-2.4-0.3c-1.8-0.9-2.5-3.1-1.5-4.9
		c0,0,0.1-0.1,0.1-0.2c0,1,0.6,1.9,1.5,2.4c0.9,0.5,1.9,0.4,2.7,0c0.7-3.1,2.3-6,4.7-8.2c1.7-1.5,3.7-2.7,5.8-3.5
		c0.2,0.9,0.6,1.7,1.1,2.4l0.5,0.6l0.8-0.2c1.9-0.5,3.8-0.8,5.8-0.8c0.9,0,1.9,0.1,2.8,0.2l0.8,0.1l0.4-0.7c0.4-0.8,0.7-1.7,0.8-2.6
		c1.3,0.3,2.6,0.7,3.8,1.2c3-1.5,5.2-2.2,7.7-1.3c1,0.4,2.1,0.9,2.6,2c0,0.1,0.1,0.2,0.1,0.3c0,0.2-0.2,0.2-0.3,0.3
		c-1.2,1-2.5,2-3.7,3c1.7,1.7,2.9,3.8,3.5,6c0.2,0,0.4-0.1,0.5-0.1h2c0.8,0,1.4,0.6,1.4,1.4C1646.6,180.6,1646.6,182.3,1644.3,184.4
		z"/>
</g>
<path fill="#BDDAEF" d="M1418,8.5c-16.8,0-30.4,13.6-30.4,30.4c0,16.8,13.6,30.4,30.4,30.4c16.8,0,30.4-13.6,30.4-30.4
	S1434.8,8.5,1418,8.5z M1432.9,51.5l-4.4,0l-5.1-5.6l-5.1,5.6l-4.3,0l7.3-8l-7.3-8l4.4,0l5.1,5.6l5.1-5.6l4.4,0l-7.3,8L1432.9,51.5z
	 M1432.4,27.4l-19,0l-7.7,26.4c-0.2,0.5-0.7,1-1.2,1c0,0,0,0-0.1,0c-0.5,0-1-0.3-1.3-0.8l-3.1-7.9l-3.5,0c-0.7,0-1.3-0.6-1.3-1.3
	s0.6-1.3,1.3-1.3l4.4,0c0.5,0,1,0.3,1.3,0.8l2,5.1l6.9-23.6c0.2-0.6,0.7-1,1.3-1l20,0c0.7,0,1.3,0.6,1.3,1.3
	C1433.8,26.8,1433.2,27.4,1432.4,27.4z"/>
<path fill="#BDDAEF" d="M1418,147.2c-16.8,0-30.4,13.6-30.4,30.4c0,16.8,13.6,30.4,30.4,30.4c16.8,0,30.4-13.6,30.4-30.4
	S1434.8,147.2,1418,147.2z M1432.9,190.2l-4.4,0l-5.1-5.6l-5.1,5.6h-4.3l7.3-8l-7.3-8l4.4,0l5.1,5.6l5.1-5.6h4.4l-7.3,8
	L1432.9,190.2z M1432.4,166.1l-19,0l-7.7,26.4c-0.2,0.5-0.7,1-1.2,1c0,0,0,0-0.1,0c-0.5,0-1-0.3-1.3-0.8l-3.1-7.9h-3.5
	c-0.7,0-1.3-0.6-1.3-1.3s0.6-1.3,1.3-1.3h4.4c0.5,0,1,0.3,1.3,0.8l2,5.1l6.9-23.6c0.2-0.6,0.7-1,1.3-1l20,0c0.7,0,1.3,0.6,1.3,1.3
	C1433.8,165.5,1433.2,166.1,1432.4,166.1z"/>
<g>
	<circle fill="#BDDAEF" cx="1429.2" cy="107.4" r="2.2"/>
	<path fill="#BDDAEF" d="M1418,77.5c-17,0-30.7,13.8-30.7,30.7S1401,139,1418,139c17,0,30.7-13.8,30.7-30.7S1435,77.5,1418,77.5z
		 M1425.3,82.8c2.6,0,4.6,2.1,4.6,4.6s-2.1,4.6-4.6,4.6s-4.6-2.1-4.6-4.6S1422.8,82.8,1425.3,82.8z M1415,89.6c3,0,5.4,2.4,5.4,5.4
		c0,0.9-0.2,1.8-0.7,2.6c-1-0.1-1.9-0.2-2.9-0.2c-2,0-4.1,0.3-6.1,0.8c-0.7-0.9-1.1-2-1.1-3.2C1409.6,92,1412,89.6,1415,89.6z
		 M1436.9,115c-1.6,1.5-3.2,3-4.8,4.5c-1.1,1-2.6,2-3.5,3.3c-0.9,1.3-1,4.3-1.4,5.9c-0.2,0.8-1,1.4-1.8,1.4h-2.1
		c-0.8,0-1.9-0.6-2.3-1.3l-1.7-2.9c-0.8,0.1-1.7,0.2-2.5,0.2c-1.5,0-3-0.2-4.4-0.4l-0.7,2.9c-0.2,0.8-1,1.4-1.8,1.4h-2.1
		c-0.8,0-1.9-0.6-2.3-1.3l-2.3-3.7c-0.1-0.2-0.2-0.3-0.2-0.5c-2-3.6-4.9-8-5.2-12.2c0-0.5,0-1,0-1.5c-0.8,0.2-1.7,0.1-2.4-0.3
		c-1.8-0.9-2.5-3.1-1.5-4.9c0,0,0.1-0.1,0.1-0.2c0,1,0.6,1.9,1.5,2.4c0.9,0.5,1.9,0.4,2.7,0c0.7-3.1,2.3-6,4.7-8.2
		c1.7-1.5,3.7-2.7,5.8-3.5c0.2,0.9,0.6,1.7,1.1,2.4l0.5,0.6l0.8-0.2c1.9-0.5,3.8-0.8,5.8-0.8c0.9,0,1.9,0.1,2.8,0.2l0.8,0.1l0.4-0.7
		c0.4-0.8,0.7-1.7,0.8-2.6c1.3,0.3,2.6,0.7,3.8,1.2c3-1.5,5.2-2.2,7.7-1.3c1,0.4,2.1,0.9,2.6,2c0,0.1,0.1,0.2,0.1,0.3
		c0,0.2-0.2,0.2-0.3,0.3c-1.2,1-2.5,2-3.7,3c1.7,1.7,2.9,3.8,3.5,6c0.2,0,0.4-0.1,0.5-0.1h2c0.8,0,1.4,0.6,1.4,1.4
		C1439.1,111.3,1439.2,112.9,1436.9,115z"/>
</g>
<path fill="#BDDAEF" d="M1487.1,77.8c-16.8,0-30.4,13.6-30.4,30.4s13.6,30.4,30.4,30.4c16.8,0,30.4-13.6,30.4-30.4
	S1503.9,77.8,1487.1,77.8z M1502,120.9l-4.4,0l-5.1-5.6l-5.1,5.6l-4.3,0l7.3-8l-7.3-8l4.4,0l5.1,5.6l5.1-5.6l4.4,0l-7.3,8
	L1502,120.9z M1501.6,96.8l-19,0l-7.7,26.4c-0.2,0.5-0.7,1-1.2,1c0,0,0,0-0.1,0c-0.5,0-1-0.3-1.3-0.8l-3.1-7.9h-3.5
	c-0.7,0-1.3-0.6-1.3-1.3c0-0.7,0.6-1.3,1.3-1.3l4.4,0c0.5,0,1,0.3,1.3,0.8l2,5.1l6.9-23.6c0.2-0.6,0.7-1,1.3-1l20,0
	c0.7,0,1.3,0.6,1.3,1.3C1502.9,96.1,1502.3,96.8,1501.6,96.8z"/>
<g>
	<circle fill="#BDDAEF" cx="1498.3" cy="38" r="2.2"/>
	<path fill="#BDDAEF" d="M1487.1,8.2c-17,0-30.7,13.8-30.7,30.7s13.8,30.7,30.7,30.7s30.7-13.8,30.7-30.7S1504.1,8.2,1487.1,8.2z
		 M1494.5,13.5c2.6,0,4.6,2.1,4.6,4.6s-2.1,4.6-4.6,4.6s-4.6-2.1-4.6-4.6S1491.9,13.5,1494.5,13.5z M1484.1,20.2
		c3,0,5.4,2.4,5.4,5.4c0,0.9-0.2,1.8-0.7,2.6c-1-0.1-1.9-0.2-2.9-0.2c-2,0-4.1,0.3-6.1,0.8c-0.7-0.9-1.1-2-1.1-3.2
		C1478.8,22.7,1481.2,20.2,1484.1,20.2z M1506,45.7c-1.6,1.5-3.2,3-4.8,4.5c-1.1,1-2.6,2-3.5,3.3c-0.9,1.3-1,4.3-1.4,5.9
		c-0.2,0.8-1,1.4-1.8,1.4h-2.1c-0.8,0-1.9-0.6-2.3-1.3l-1.7-2.9c-0.8,0.1-1.7,0.2-2.5,0.2c-1.5,0-3-0.2-4.4-0.4l-0.7,2.9
		c-0.2,0.8-1,1.4-1.8,1.4h-2.1c-0.8,0-1.9-0.6-2.3-1.3l-2.3-3.7c-0.1-0.2-0.2-0.3-0.2-0.5c-2-3.6-4.9-8-5.2-12.2c0-0.5,0-1,0-1.5
		c-0.8,0.2-1.7,0.1-2.4-0.3c-1.8-0.9-2.5-3.1-1.5-4.9c0,0,0.1-0.1,0.1-0.2c0,1,0.6,1.9,1.5,2.4c0.9,0.5,1.9,0.4,2.7,0
		c0.7-3.1,2.3-6,4.7-8.2c1.7-1.5,3.7-2.7,5.8-3.5c0.2,0.9,0.6,1.7,1.1,2.4l0.5,0.6l0.8-0.2c1.9-0.5,3.8-0.8,5.8-0.8
		c0.9,0,1.9,0.1,2.8,0.2l0.8,0.1l0.4-0.7c0.4-0.8,0.7-1.7,0.8-2.6c1.3,0.3,2.6,0.7,3.8,1.2c3-1.5,5.2-2.2,7.7-1.3
		c1,0.4,2.1,0.9,2.6,2c0,0.1,0.1,0.2,0.1,0.3c0,0.2-0.2,0.2-0.3,0.3c-1.2,1-2.5,2-3.7,3c1.7,1.7,2.9,3.8,3.5,6
		c0.2,0,0.4-0.1,0.5-0.1h2c0.8,0,1.4,0.6,1.4,1.4C1508.3,42,1508.3,43.6,1506,45.7z"/>
</g>
<g>
	<circle fill="#BDDAEF" cx="1498.3" cy="176.7" r="2.2"/>
	<path fill="#BDDAEF" d="M1487.1,146.9c-17,0-30.7,13.8-30.7,30.7s13.8,30.7,30.7,30.7s30.7-13.8,30.7-30.7
		S1504.1,146.9,1487.1,146.9z M1494.5,152.1c2.6,0,4.6,2.1,4.6,4.6c0,2.6-2.1,4.6-4.6,4.6s-4.6-2.1-4.6-4.6
		C1489.8,154.2,1491.9,152.1,1494.5,152.1z M1484.1,158.9c3,0,5.4,2.4,5.4,5.4c0,0.9-0.2,1.8-0.7,2.6c-1-0.1-1.9-0.2-2.9-0.2
		c-2,0-4.1,0.3-6.1,0.8c-0.7-0.9-1.1-2-1.1-3.2C1478.8,161.4,1481.2,158.9,1484.1,158.9z M1506,184.4c-1.6,1.5-3.2,3-4.8,4.5
		c-1.1,1-2.6,2-3.5,3.3c-0.9,1.3-1,4.3-1.4,5.9c-0.2,0.8-1,1.4-1.8,1.4h-2.1c-0.8,0-1.9-0.6-2.3-1.3l-1.7-2.9
		c-0.8,0.1-1.7,0.2-2.5,0.2c-1.5,0-3-0.2-4.4-0.4l-0.7,2.9c-0.2,0.8-1,1.4-1.8,1.4h-2.1c-0.8,0-1.9-0.6-2.3-1.3l-2.3-3.7
		c-0.1-0.2-0.2-0.3-0.2-0.5c-2-3.6-4.9-8-5.2-12.2c0-0.5,0-1,0-1.5c-0.8,0.2-1.7,0.1-2.4-0.3c-1.8-0.9-2.5-3.1-1.5-4.9
		c0,0,0.1-0.1,0.1-0.2c0,1,0.6,1.9,1.5,2.4c0.9,0.5,1.9,0.4,2.7,0c0.7-3.1,2.3-6,4.7-8.2c1.7-1.5,3.7-2.7,5.8-3.5
		c0.2,0.9,0.6,1.7,1.1,2.4l0.5,0.6l0.8-0.2c1.9-0.5,3.8-0.8,5.8-0.8c0.9,0,1.9,0.1,2.8,0.2l0.8,0.1l0.4-0.7c0.4-0.8,0.7-1.7,0.8-2.6
		c1.3,0.3,2.6,0.7,3.8,1.2c3-1.5,5.2-2.2,7.7-1.3c1,0.4,2.1,0.9,2.6,2c0,0.1,0.1,0.2,0.1,0.3c0,0.2-0.2,0.2-0.3,0.3
		c-1.2,1-2.5,2-3.7,3c1.7,1.7,2.9,3.8,3.5,6c0.2,0,0.4-0.1,0.5-0.1h2c0.8,0,1.4,0.6,1.4,1.4C1508.3,180.6,1508.3,182.3,1506,184.4z"
		/>
</g>
<path fill="#BDDAEF" d="M1279.7,8.5c-16.8,0-30.4,13.6-30.4,30.4s13.6,30.4,30.4,30.4c16.8,0,30.4-13.6,30.4-30.4
	S1296.5,8.5,1279.7,8.5z M1294.6,51.5l-4.4,0l-5.1-5.6l-5.1,5.6l-4.3,0l7.3-8l-7.3-8l4.4,0l5.1,5.6l5.1-5.6l4.4,0l-7.3,8
	L1294.6,51.5z M1294.1,27.4l-19,0l-7.7,26.4c-0.2,0.5-0.7,1-1.2,1c0,0,0,0-0.1,0c-0.5,0-1-0.3-1.3-0.8l-3.1-7.9l-3.5,0
	c-0.7,0-1.3-0.6-1.3-1.3c0-0.7,0.6-1.3,1.3-1.3l4.4,0c0.5,0,1,0.3,1.3,0.8l2,5.1l6.9-23.6c0.2-0.6,0.7-1,1.3-1l20,0
	c0.7,0,1.3,0.6,1.3,1.3S1294.9,27.4,1294.1,27.4z"/>
<path fill="#BDDAEF" d="M1279.7,147.2c-16.8,0-30.4,13.6-30.4,30.4s13.6,30.4,30.4,30.4c16.8,0,30.4-13.6,30.4-30.4
	S1296.5,147.2,1279.7,147.2z M1294.6,190.2l-4.4,0l-5.1-5.6l-5.1,5.6h-4.3l7.3-8l-7.3-8l4.4,0l5.1,5.6l5.1-5.6h4.4l-7.3,8
	L1294.6,190.2z M1294.1,166.1l-19,0l-7.7,26.4c-0.2,0.5-0.7,1-1.2,1c0,0,0,0-0.1,0c-0.5,0-1-0.3-1.3-0.8l-3.1-7.9h-3.5
	c-0.7,0-1.3-0.6-1.3-1.3c0-0.7,0.6-1.3,1.3-1.3h4.4c0.5,0,1,0.3,1.3,0.8l2,5.1l6.9-23.6c0.2-0.6,0.7-1,1.3-1l20,0
	c0.7,0,1.3,0.6,1.3,1.3C1295.5,165.5,1294.9,166.1,1294.1,166.1z"/>
<g>
	<circle fill="#BDDAEF" cx="1290.9" cy="107.4" r="2.2"/>
	<path fill="#BDDAEF" d="M1279.7,77.5c-17,0-30.7,13.8-30.7,30.7s13.8,30.7,30.7,30.7s30.7-13.8,30.7-30.7S1296.6,77.5,1279.7,77.5z
		 M1287,82.8c2.6,0,4.6,2.1,4.6,4.6s-2.1,4.6-4.6,4.6s-4.6-2.1-4.6-4.6S1284.5,82.8,1287,82.8z M1276.7,89.6c3,0,5.4,2.4,5.4,5.4
		c0,0.9-0.2,1.8-0.7,2.6c-1-0.1-1.9-0.2-2.9-0.2c-2,0-4.1,0.3-6.1,0.8c-0.7-0.9-1.1-2-1.1-3.2C1271.3,92,1273.7,89.6,1276.7,89.6z
		 M1298.6,115c-1.6,1.5-3.2,3-4.8,4.5c-1.1,1-2.6,2-3.5,3.3c-0.9,1.3-1,4.3-1.4,5.9c-0.2,0.8-1,1.4-1.8,1.4h-2.1
		c-0.8,0-1.9-0.6-2.3-1.3l-1.7-2.9c-0.8,0.1-1.7,0.2-2.5,0.2c-1.5,0-3-0.2-4.4-0.4l-0.7,2.9c-0.2,0.8-1,1.4-1.8,1.4h-2.1
		c-0.8,0-1.9-0.6-2.3-1.3l-2.3-3.7c-0.1-0.2-0.2-0.3-0.2-0.5c-2-3.6-4.9-8-5.2-12.2c0-0.5,0-1,0-1.5c-0.8,0.2-1.7,0.1-2.4-0.3
		c-1.8-0.9-2.5-3.1-1.5-4.9c0,0,0.1-0.1,0.1-0.2c0,1,0.6,1.9,1.5,2.4c0.9,0.5,1.9,0.4,2.7,0c0.7-3.1,2.3-6,4.7-8.2
		c1.7-1.5,3.7-2.7,5.8-3.5c0.2,0.9,0.6,1.7,1.1,2.4l0.5,0.6l0.8-0.2c1.9-0.5,3.8-0.8,5.8-0.8c0.9,0,1.9,0.1,2.8,0.2l0.8,0.1l0.4-0.7
		c0.4-0.8,0.7-1.7,0.8-2.6c1.3,0.3,2.6,0.7,3.8,1.2c3-1.5,5.2-2.2,7.7-1.3c1,0.4,2.1,0.9,2.6,2c0,0.1,0.1,0.2,0.1,0.3
		c0,0.2-0.2,0.2-0.3,0.3c-1.2,1-2.5,2-3.7,3c1.7,1.7,2.9,3.8,3.5,6c0.2,0,0.4-0.1,0.5-0.1h2c0.8,0,1.4,0.6,1.4,1.4
		C1300.8,111.3,1300.9,112.9,1298.6,115z"/>
</g>
<path fill="#BDDAEF" d="M1348.8,77.8c-16.8,0-30.4,13.6-30.4,30.4s13.6,30.4,30.4,30.4c16.8,0,30.4-13.6,30.4-30.4
	C1379.3,91.5,1365.6,77.8,1348.8,77.8z M1363.7,120.9l-4.4,0l-5.1-5.6l-5.1,5.6l-4.3,0l7.3-8l-7.3-8l4.4,0l5.1,5.6l5.1-5.6l4.4,0
	l-7.3,8L1363.7,120.9z M1363.3,96.8l-19,0l-7.7,26.4c-0.2,0.5-0.7,1-1.2,1c0,0,0,0-0.1,0c-0.5,0-1-0.3-1.3-0.8l-3.1-7.9h-3.5
	c-0.7,0-1.3-0.6-1.3-1.3c0-0.7,0.6-1.3,1.3-1.3l4.4,0c0.5,0,1,0.3,1.3,0.8l2,5.1L1342,95c0.2-0.6,0.7-1,1.3-1l20,0
	c0.7,0,1.3,0.6,1.3,1.3C1364.6,96.1,1364,96.8,1363.3,96.8z"/>
<g>
	<circle fill="#BDDAEF" cx="1360" cy="38" r="2.2"/>
	<path fill="#BDDAEF" d="M1348.8,8.2c-17,0-30.7,13.8-30.7,30.7s13.8,30.7,30.7,30.7s30.7-13.8,30.7-30.7S1365.8,8.2,1348.8,8.2z
		 M1356.2,13.5c2.6,0,4.6,2.1,4.6,4.6s-2.1,4.6-4.6,4.6s-4.6-2.1-4.6-4.6S1353.6,13.5,1356.2,13.5z M1345.8,20.2
		c3,0,5.4,2.4,5.4,5.4c0,0.9-0.2,1.8-0.7,2.6c-1-0.1-1.9-0.2-2.9-0.2c-2,0-4.1,0.3-6.1,0.8c-0.7-0.9-1.1-2-1.1-3.2
		C1340.5,22.7,1342.9,20.2,1345.8,20.2z M1367.7,45.7c-1.6,1.5-3.2,3-4.8,4.5c-1.1,1-2.6,2-3.5,3.3c-0.9,1.3-1,4.3-1.4,5.9
		c-0.2,0.8-1,1.4-1.8,1.4h-2.1c-0.8,0-1.9-0.6-2.3-1.3l-1.7-2.9c-0.8,0.1-1.7,0.2-2.5,0.2c-1.5,0-3-0.2-4.4-0.4l-0.7,2.9
		c-0.2,0.8-1,1.4-1.8,1.4h-2.1c-0.8,0-1.9-0.6-2.3-1.3l-2.3-3.7c-0.1-0.2-0.2-0.3-0.2-0.5c-2-3.6-4.9-8-5.2-12.2c0-0.5,0-1,0-1.5
		c-0.8,0.2-1.7,0.1-2.4-0.3c-1.8-0.9-2.5-3.1-1.5-4.9c0,0,0.1-0.1,0.1-0.2c0,1,0.6,1.9,1.5,2.4c0.9,0.5,1.9,0.4,2.7,0
		c0.7-3.1,2.3-6,4.7-8.2c1.7-1.5,3.7-2.7,5.8-3.5c0.2,0.9,0.6,1.7,1.1,2.4l0.5,0.6l0.8-0.2c1.9-0.5,3.8-0.8,5.8-0.8
		c0.9,0,1.9,0.1,2.8,0.2l0.8,0.1l0.4-0.7c0.4-0.8,0.7-1.7,0.8-2.6c1.3,0.3,2.6,0.7,3.8,1.2c3-1.5,5.2-2.2,7.7-1.3
		c1,0.4,2.1,0.9,2.6,2c0,0.1,0.1,0.2,0.1,0.3c0,0.2-0.2,0.2-0.3,0.3c-1.2,1-2.5,2-3.7,3c1.7,1.7,2.9,3.8,3.5,6
		c0.2,0,0.4-0.1,0.5-0.1h2c0.8,0,1.4,0.6,1.4,1.4C1370,42,1370,43.6,1367.7,45.7z"/>
</g>
<g>
	<circle fill="#BDDAEF" cx="1360" cy="176.7" r="2.2"/>
	<path fill="#BDDAEF" d="M1348.8,146.9c-17,0-30.7,13.8-30.7,30.7s13.8,30.7,30.7,30.7s30.7-13.8,30.7-30.7
		S1365.8,146.9,1348.8,146.9z M1356.2,152.1c2.6,0,4.6,2.1,4.6,4.6c0,2.6-2.1,4.6-4.6,4.6s-4.6-2.1-4.6-4.6
		C1351.5,154.2,1353.6,152.1,1356.2,152.1z M1345.8,158.9c3,0,5.4,2.4,5.4,5.4c0,0.9-0.2,1.8-0.7,2.6c-1-0.1-1.9-0.2-2.9-0.2
		c-2,0-4.1,0.3-6.1,0.8c-0.7-0.9-1.1-2-1.1-3.2C1340.5,161.4,1342.9,158.9,1345.8,158.9z M1367.7,184.4c-1.6,1.5-3.2,3-4.8,4.5
		c-1.1,1-2.6,2-3.5,3.3c-0.9,1.3-1,4.3-1.4,5.9c-0.2,0.8-1,1.4-1.8,1.4h-2.1c-0.8,0-1.9-0.6-2.3-1.3l-1.7-2.9
		c-0.8,0.1-1.7,0.2-2.5,0.2c-1.5,0-3-0.2-4.4-0.4l-0.7,2.9c-0.2,0.8-1,1.4-1.8,1.4h-2.1c-0.8,0-1.9-0.6-2.3-1.3l-2.3-3.7
		c-0.1-0.2-0.2-0.3-0.2-0.5c-2-3.6-4.9-8-5.2-12.2c0-0.5,0-1,0-1.5c-0.8,0.2-1.7,0.1-2.4-0.3c-1.8-0.9-2.5-3.1-1.5-4.9
		c0,0,0.1-0.1,0.1-0.2c0,1,0.6,1.9,1.5,2.4c0.9,0.5,1.9,0.4,2.7,0c0.7-3.1,2.3-6,4.7-8.2c1.7-1.5,3.7-2.7,5.8-3.5
		c0.2,0.9,0.6,1.7,1.1,2.4l0.5,0.6l0.8-0.2c1.9-0.5,3.8-0.8,5.8-0.8c0.9,0,1.9,0.1,2.8,0.2l0.8,0.1l0.4-0.7c0.4-0.8,0.7-1.7,0.8-2.6
		c1.3,0.3,2.6,0.7,3.8,1.2c3-1.5,5.2-2.2,7.7-1.3c1,0.4,2.1,0.9,2.6,2c0,0.1,0.1,0.2,0.1,0.3c0,0.2-0.2,0.2-0.3,0.3
		c-1.2,1-2.5,2-3.7,3c1.7,1.7,2.9,3.8,3.5,6c0.2,0,0.4-0.1,0.5-0.1h2c0.8,0,1.4,0.6,1.4,1.4C1370,180.6,1370,182.3,1367.7,184.4z"/>
</g>
<path fill="#BDDAEF" d="M1141.4,8.5c-16.8,0-30.4,13.6-30.4,30.4s13.6,30.4,30.4,30.4c16.8,0,30.4-13.6,30.4-30.4
	C1171.8,22.1,1158.2,8.5,1141.4,8.5z M1156.3,51.5l-4.4,0l-5.1-5.6l-5.1,5.6l-4.3,0l7.3-8l-7.3-8l4.4,0l5.1,5.6l5.1-5.6l4.4,0
	l-7.3,8L1156.3,51.5z M1155.8,27.4l-19,0l-7.7,26.4c-0.2,0.5-0.7,1-1.2,1c0,0,0,0-0.1,0c-0.5,0-1-0.3-1.3-0.8l-3.1-7.9l-3.5,0
	c-0.7,0-1.3-0.6-1.3-1.3s0.6-1.3,1.3-1.3l4.4,0c0.5,0,1,0.3,1.3,0.8l2,5.1l6.9-23.6c0.2-0.6,0.7-1,1.3-1l20,0c0.7,0,1.3,0.6,1.3,1.3
	S1156.6,27.4,1155.8,27.4z"/>
<path fill="#BDDAEF" d="M1141.4,147.2c-16.8,0-30.4,13.6-30.4,30.4s13.6,30.4,30.4,30.4c16.8,0,30.4-13.6,30.4-30.4
	C1171.8,160.8,1158.2,147.2,1141.4,147.2z M1156.3,190.2l-4.4,0l-5.1-5.6l-5.1,5.6h-4.3l7.3-8l-7.3-8l4.4,0l5.1,5.6l5.1-5.6h4.4
	l-7.3,8L1156.3,190.2z M1155.8,166.1l-19,0l-7.7,26.4c-0.2,0.5-0.7,1-1.2,1c0,0,0,0-0.1,0c-0.5,0-1-0.3-1.3-0.8l-3.1-7.9h-3.5
	c-0.7,0-1.3-0.6-1.3-1.3s0.6-1.3,1.3-1.3h4.4c0.5,0,1,0.3,1.3,0.8l2,5.1l6.9-23.6c0.2-0.6,0.7-1,1.3-1l20,0c0.7,0,1.3,0.6,1.3,1.3
	C1157.2,165.5,1156.6,166.1,1155.8,166.1z"/>
<g>
	<circle fill="#BDDAEF" cx="1152.6" cy="107.4" r="2.2"/>
	<path fill="#BDDAEF" d="M1141.4,77.5c-17,0-30.7,13.8-30.7,30.7s13.8,30.7,30.7,30.7s30.7-13.8,30.7-30.7S1158.3,77.5,1141.4,77.5z
		 M1148.7,82.8c2.6,0,4.6,2.1,4.6,4.6s-2.1,4.6-4.6,4.6s-4.6-2.1-4.6-4.6S1146.2,82.8,1148.7,82.8z M1138.3,89.6
		c3,0,5.4,2.4,5.4,5.4c0,0.9-0.2,1.8-0.7,2.6c-1-0.1-1.9-0.2-2.9-0.2c-2,0-4.1,0.3-6.1,0.8c-0.7-0.9-1.1-2-1.1-3.2
		C1133,92,1135.4,89.6,1138.3,89.6z M1160.3,115c-1.6,1.5-3.2,3-4.8,4.5c-1.1,1-2.6,2-3.5,3.3c-0.9,1.3-1,4.3-1.4,5.9
		c-0.2,0.8-1,1.4-1.8,1.4h-2.1c-0.8,0-1.9-0.6-2.3-1.3l-1.7-2.9c-0.8,0.1-1.7,0.2-2.5,0.2c-1.5,0-3-0.2-4.4-0.4l-0.7,2.9
		c-0.2,0.8-1,1.4-1.8,1.4h-2.1c-0.8,0-1.9-0.6-2.3-1.3l-2.3-3.7c-0.1-0.2-0.2-0.3-0.2-0.5c-2-3.6-4.9-8-5.2-12.2c0-0.5,0-1,0-1.5
		c-0.8,0.2-1.7,0.1-2.4-0.3c-1.8-0.9-2.5-3.1-1.5-4.9c0,0,0.1-0.1,0.1-0.2c0,1,0.6,1.9,1.5,2.4c0.9,0.5,1.9,0.4,2.7,0
		c0.7-3.1,2.3-6,4.7-8.2c1.7-1.5,3.7-2.7,5.8-3.5c0.2,0.9,0.6,1.7,1.1,2.4l0.5,0.6l0.8-0.2c1.9-0.5,3.8-0.8,5.8-0.8
		c0.9,0,1.9,0.1,2.8,0.2l0.8,0.1l0.4-0.7c0.4-0.8,0.7-1.7,0.8-2.6c1.3,0.3,2.6,0.7,3.8,1.2c3-1.5,5.2-2.2,7.7-1.3
		c1,0.4,2.1,0.9,2.6,2c0,0.1,0.1,0.2,0.1,0.3c0,0.2-0.2,0.2-0.3,0.3c-1.2,1-2.5,2-3.7,3c1.7,1.7,2.9,3.8,3.5,6
		c0.2,0,0.4-0.1,0.5-0.1h2c0.8,0,1.4,0.6,1.4,1.4C1162.5,111.3,1162.5,112.9,1160.3,115z"/>
</g>
<path fill="#BDDAEF" d="M1210.5,77.8c-16.8,0-30.4,13.6-30.4,30.4c0,16.8,13.6,30.4,30.4,30.4c16.8,0,30.4-13.6,30.4-30.4
	S1227.3,77.8,1210.5,77.8z M1225.4,120.9l-4.4,0l-5.1-5.6l-5.1,5.6l-4.3,0l7.3-8l-7.3-8l4.4,0l5.1,5.6l5.1-5.6l4.4,0l-7.3,8
	L1225.4,120.9z M1224.9,96.8l-19,0l-7.7,26.4c-0.2,0.5-0.7,1-1.2,1c0,0,0,0-0.1,0c-0.5,0-1-0.3-1.3-0.8l-3.1-7.9h-3.5
	c-0.7,0-1.3-0.6-1.3-1.3c0-0.7,0.6-1.3,1.3-1.3l4.4,0c0.5,0,1,0.3,1.3,0.8l2,5.1l6.9-23.6c0.2-0.6,0.7-1,1.3-1l20,0
	c0.7,0,1.3,0.6,1.3,1.3C1226.3,96.1,1225.7,96.8,1224.9,96.8z"/>
<g>
	<circle fill="#BDDAEF" cx="1221.7" cy="38" r="2.2"/>
	<path fill="#BDDAEF" d="M1210.5,8.2c-17,0-30.7,13.8-30.7,30.7s13.8,30.7,30.7,30.7s30.7-13.8,30.7-30.7S1227.5,8.2,1210.5,8.2z
		 M1217.9,13.5c2.6,0,4.6,2.1,4.6,4.6s-2.1,4.6-4.6,4.6s-4.6-2.1-4.6-4.6S1215.3,13.5,1217.9,13.5z M1207.5,20.2
		c3,0,5.4,2.4,5.4,5.4c0,0.9-0.2,1.8-0.7,2.6c-1-0.1-1.9-0.2-2.9-0.2c-2,0-4.1,0.3-6.1,0.8c-0.7-0.9-1.1-2-1.1-3.2
		C1202.2,22.7,1204.6,20.2,1207.5,20.2z M1229.4,45.7c-1.6,1.5-3.2,3-4.8,4.5c-1.1,1-2.6,2-3.5,3.3c-0.9,1.3-1,4.3-1.4,5.9
		c-0.2,0.8-1,1.4-1.8,1.4h-2.1c-0.8,0-1.9-0.6-2.3-1.3l-1.7-2.9c-0.8,0.1-1.7,0.2-2.5,0.2c-1.5,0-3-0.2-4.4-0.4l-0.7,2.9
		c-0.2,0.8-1,1.4-1.8,1.4h-2.1c-0.8,0-1.9-0.6-2.3-1.3l-2.3-3.7c-0.1-0.2-0.2-0.3-0.2-0.5c-2-3.6-4.9-8-5.2-12.2c0-0.5,0-1,0-1.5
		c-0.8,0.2-1.7,0.1-2.4-0.3c-1.8-0.9-2.5-3.1-1.5-4.9c0,0,0.1-0.1,0.1-0.2c0,1,0.6,1.9,1.5,2.4c0.9,0.5,1.9,0.4,2.7,0
		c0.7-3.1,2.3-6,4.7-8.2c1.7-1.5,3.7-2.7,5.8-3.5c0.2,0.9,0.6,1.7,1.1,2.4l0.5,0.6l0.8-0.2c1.9-0.5,3.8-0.8,5.8-0.8
		c0.9,0,1.9,0.1,2.8,0.2l0.8,0.1l0.4-0.7c0.4-0.8,0.7-1.7,0.8-2.6c1.3,0.3,2.6,0.7,3.8,1.2c3-1.5,5.2-2.2,7.7-1.3
		c1,0.4,2.1,0.9,2.6,2c0,0.1,0.1,0.2,0.1,0.3c0,0.2-0.2,0.2-0.3,0.3c-1.2,1-2.5,2-3.7,3c1.7,1.7,2.9,3.8,3.5,6
		c0.2,0,0.4-0.1,0.5-0.1h2c0.8,0,1.4,0.6,1.4,1.4C1231.7,42,1231.7,43.6,1229.4,45.7z"/>
</g>
<g>
	<circle fill="#BDDAEF" cx="1221.7" cy="176.7" r="2.2"/>
	<path fill="#BDDAEF" d="M1210.5,146.9c-17,0-30.7,13.8-30.7,30.7s13.8,30.7,30.7,30.7s30.7-13.8,30.7-30.7
		S1227.5,146.9,1210.5,146.9z M1217.9,152.1c2.6,0,4.6,2.1,4.6,4.6c0,2.6-2.1,4.6-4.6,4.6s-4.6-2.1-4.6-4.6
		C1213.2,154.2,1215.3,152.1,1217.9,152.1z M1207.5,158.9c3,0,5.4,2.4,5.4,5.4c0,0.9-0.2,1.8-0.7,2.6c-1-0.1-1.9-0.2-2.9-0.2
		c-2,0-4.1,0.3-6.1,0.8c-0.7-0.9-1.1-2-1.1-3.2C1202.2,161.4,1204.6,158.9,1207.5,158.9z M1229.4,184.4c-1.6,1.5-3.2,3-4.8,4.5
		c-1.1,1-2.6,2-3.5,3.3c-0.9,1.3-1,4.3-1.4,5.9c-0.2,0.8-1,1.4-1.8,1.4h-2.1c-0.8,0-1.9-0.6-2.3-1.3l-1.7-2.9
		c-0.8,0.1-1.7,0.2-2.5,0.2c-1.5,0-3-0.2-4.4-0.4l-0.7,2.9c-0.2,0.8-1,1.4-1.8,1.4h-2.1c-0.8,0-1.9-0.6-2.3-1.3l-2.3-3.7
		c-0.1-0.2-0.2-0.3-0.2-0.5c-2-3.6-4.9-8-5.2-12.2c0-0.5,0-1,0-1.5c-0.8,0.2-1.7,0.1-2.4-0.3c-1.8-0.9-2.5-3.1-1.5-4.9
		c0,0,0.1-0.1,0.1-0.2c0,1,0.6,1.9,1.5,2.4c0.9,0.5,1.9,0.4,2.7,0c0.7-3.1,2.3-6,4.7-8.2c1.7-1.5,3.7-2.7,5.8-3.5
		c0.2,0.9,0.6,1.7,1.1,2.4l0.5,0.6l0.8-0.2c1.9-0.5,3.8-0.8,5.8-0.8c0.9,0,1.9,0.1,2.8,0.2l0.8,0.1l0.4-0.7c0.4-0.8,0.7-1.7,0.8-2.6
		c1.3,0.3,2.6,0.7,3.8,1.2c3-1.5,5.2-2.2,7.7-1.3c1,0.4,2.1,0.9,2.6,2c0,0.1,0.1,0.2,0.1,0.3c0,0.2-0.2,0.2-0.3,0.3
		c-1.2,1-2.5,2-3.7,3c1.7,1.7,2.9,3.8,3.5,6c0.2,0,0.4-0.1,0.5-0.1h2c0.8,0,1.4,0.6,1.4,1.4C1231.7,180.6,1231.7,182.3,1229.4,184.4
		z"/>
</g>
<path fill="#BDDAEF" d="M1003,8.5c-16.8,0-30.4,13.6-30.4,30.4s13.6,30.4,30.4,30.4c16.8,0,30.4-13.6,30.4-30.4S1019.9,8.5,1003,8.5
	z M1017.9,51.5l-4.4,0l-5.1-5.6l-5.1,5.6l-4.3,0l7.3-8l-7.3-8l4.4,0l5.1,5.6l5.1-5.6l4.4,0l-7.3,8L1017.9,51.5z M1017.5,27.4l-19,0
	l-7.7,26.4c-0.2,0.5-0.7,1-1.2,1c0,0,0,0-0.1,0c-0.5,0-1-0.3-1.3-0.8l-3.1-7.9l-3.5,0c-0.7,0-1.3-0.6-1.3-1.3c0-0.7,0.6-1.3,1.3-1.3
	l4.4,0c0.5,0,1,0.3,1.3,0.8l2,5.1l6.9-23.6c0.2-0.6,0.7-1,1.3-1l20,0c0.7,0,1.3,0.6,1.3,1.3S1018.2,27.4,1017.5,27.4z"/>
<path fill="#BDDAEF" d="M1003,147.2c-16.8,0-30.4,13.6-30.4,30.4s13.6,30.4,30.4,30.4c16.8,0,30.4-13.6,30.4-30.4
	S1019.9,147.2,1003,147.2z M1017.9,190.2l-4.4,0l-5.1-5.6l-5.1,5.6H999l7.3-8l-7.3-8l4.4,0l5.1,5.6l5.1-5.6h4.4l-7.3,8L1017.9,190.2
	z M1017.5,166.1l-19,0l-7.7,26.4c-0.2,0.5-0.7,1-1.2,1c0,0,0,0-0.1,0c-0.5,0-1-0.3-1.3-0.8l-3.1-7.9h-3.5c-0.7,0-1.3-0.6-1.3-1.3
	c0-0.7,0.6-1.3,1.3-1.3h4.4c0.5,0,1,0.3,1.3,0.8l2,5.1l6.9-23.6c0.2-0.6,0.7-1,1.3-1l20,0c0.7,0,1.3,0.6,1.3,1.3
	C1018.9,165.5,1018.2,166.1,1017.5,166.1z"/>
<g>
	<circle fill="#BDDAEF" cx="1014.3" cy="107.4" r="2.2"/>
	<path fill="#BDDAEF" d="M1003.1,77.5c-17,0-30.7,13.8-30.7,30.7s13.8,30.7,30.7,30.7c17,0,30.7-13.8,30.7-30.7
		S1020,77.5,1003.1,77.5z M1010.4,82.8c2.6,0,4.6,2.1,4.6,4.6s-2.1,4.6-4.6,4.6s-4.6-2.1-4.6-4.6S1007.8,82.8,1010.4,82.8z
		 M1000,89.6c3,0,5.4,2.4,5.4,5.4c0,0.9-0.2,1.8-0.7,2.6c-1-0.1-1.9-0.2-2.9-0.2c-2,0-4.1,0.3-6.1,0.8c-0.7-0.9-1.1-2-1.1-3.2
		C994.7,92,997.1,89.6,1000,89.6z M1022,115c-1.6,1.5-3.2,3-4.8,4.5c-1.1,1-2.6,2-3.5,3.3c-0.9,1.3-1,4.3-1.4,5.9
		c-0.2,0.8-1,1.4-1.8,1.4h-2.1c-0.8,0-1.9-0.6-2.3-1.3l-1.7-2.9c-0.8,0.1-1.7,0.2-2.5,0.2c-1.5,0-3-0.2-4.4-0.4l-0.7,2.9
		c-0.2,0.8-1,1.4-1.8,1.4h-2.1c-0.8,0-1.9-0.6-2.3-1.3l-2.3-3.7c-0.1-0.2-0.2-0.3-0.2-0.5c-2-3.6-4.9-8-5.2-12.2c0-0.5,0-1,0-1.5
		c-0.8,0.2-1.7,0.1-2.4-0.3c-1.8-0.9-2.5-3.1-1.5-4.9c0,0,0.1-0.1,0.1-0.2c0,1,0.6,1.9,1.5,2.4c0.9,0.5,1.9,0.4,2.7,0
		c0.7-3.1,2.3-6,4.7-8.2c1.7-1.5,3.7-2.7,5.8-3.5c0.2,0.9,0.6,1.7,1.1,2.4l0.5,0.6l0.8-0.2c1.9-0.5,3.8-0.8,5.8-0.8
		c0.9,0,1.9,0.1,2.8,0.2l0.8,0.1l0.4-0.7c0.4-0.8,0.7-1.7,0.8-2.6c1.3,0.3,2.6,0.7,3.8,1.2c3-1.5,5.2-2.2,7.7-1.3
		c1,0.4,2.1,0.9,2.6,2c0,0.1,0.1,0.2,0.1,0.3c0,0.2-0.2,0.2-0.3,0.3c-1.2,1-2.5,2-3.7,3c1.7,1.7,2.9,3.8,3.5,6
		c0.2,0,0.4-0.1,0.5-0.1h2c0.8,0,1.4,0.6,1.4,1.4C1024.2,111.3,1024.2,112.9,1022,115z"/>
</g>
<path fill="#BDDAEF" d="M1072.2,77.8c-16.8,0-30.4,13.6-30.4,30.4s13.6,30.4,30.4,30.4c16.8,0,30.4-13.6,30.4-30.4
	S1089,77.8,1072.2,77.8z M1087.1,120.9l-4.4,0l-5.1-5.6l-5.1,5.6l-4.3,0l7.3-8l-7.3-8l4.4,0l5.1,5.6l5.1-5.6l4.4,0l-7.3,8
	L1087.1,120.9z M1086.6,96.8l-19,0l-7.7,26.4c-0.2,0.5-0.7,1-1.2,1c0,0,0,0-0.1,0c-0.5,0-1-0.3-1.3-0.8l-3.1-7.9h-3.5
	c-0.7,0-1.3-0.6-1.3-1.3c0-0.7,0.6-1.3,1.3-1.3l4.4,0c0.5,0,1,0.3,1.3,0.8l2,5.1l6.9-23.6c0.2-0.6,0.7-1,1.3-1l20,0
	c0.7,0,1.3,0.6,1.3,1.3C1088,96.1,1087.4,96.8,1086.6,96.8z"/>
<g>
	<circle fill="#BDDAEF" cx="1083.4" cy="38" r="2.2"/>
	<path fill="#BDDAEF" d="M1072.2,8.2c-17,0-30.7,13.8-30.7,30.7s13.8,30.7,30.7,30.7s30.7-13.8,30.7-30.7S1089.2,8.2,1072.2,8.2z
		 M1079.6,13.5c2.6,0,4.6,2.1,4.6,4.6s-2.1,4.6-4.6,4.6s-4.6-2.1-4.6-4.6S1077,13.5,1079.6,13.5z M1069.2,20.2c3,0,5.4,2.4,5.4,5.4
		c0,0.9-0.2,1.8-0.7,2.6c-1-0.1-1.9-0.2-2.9-0.2c-2,0-4.1,0.3-6.1,0.8c-0.7-0.9-1.1-2-1.1-3.2C1063.9,22.7,1066.3,20.2,1069.2,20.2z
		 M1091.1,45.7c-1.6,1.5-3.2,3-4.8,4.5c-1.1,1-2.6,2-3.5,3.3c-0.9,1.3-1,4.3-1.4,5.9c-0.2,0.8-1,1.4-1.8,1.4h-2.1
		c-0.8,0-1.9-0.6-2.3-1.3l-1.7-2.9c-0.8,0.1-1.7,0.2-2.5,0.2c-1.5,0-3-0.2-4.4-0.4l-0.7,2.9c-0.2,0.8-1,1.4-1.8,1.4h-2.1
		c-0.8,0-1.9-0.6-2.3-1.3l-2.3-3.7c-0.1-0.2-0.2-0.3-0.2-0.5c-2-3.6-4.9-8-5.2-12.2c0-0.5,0-1,0-1.5c-0.8,0.2-1.7,0.1-2.4-0.3
		c-1.8-0.9-2.5-3.1-1.5-4.9c0,0,0.1-0.1,0.1-0.2c0,1,0.6,1.9,1.5,2.4c0.9,0.5,1.9,0.4,2.7,0c0.7-3.1,2.3-6,4.7-8.2
		c1.7-1.5,3.7-2.7,5.8-3.5c0.2,0.9,0.6,1.7,1.1,2.4l0.5,0.6l0.8-0.2c1.9-0.5,3.8-0.8,5.8-0.8c0.9,0,1.9,0.1,2.8,0.2l0.8,0.1l0.4-0.7
		c0.4-0.8,0.7-1.7,0.8-2.6c1.3,0.3,2.6,0.7,3.8,1.2c3-1.5,5.2-2.2,7.7-1.3c1,0.4,2.1,0.9,2.6,2c0,0.1,0.1,0.2,0.1,0.3
		c0,0.2-0.2,0.2-0.3,0.3c-1.2,1-2.5,2-3.7,3c1.7,1.7,2.9,3.8,3.5,6c0.2,0,0.4-0.1,0.5-0.1h2c0.8,0,1.4,0.6,1.4,1.4
		C1093.4,42,1093.4,43.6,1091.1,45.7z"/>
</g>
<g>
	<circle fill="#BDDAEF" cx="1083.4" cy="176.7" r="2.2"/>
	<path fill="#BDDAEF" d="M1072.2,146.9c-17,0-30.7,13.8-30.7,30.7s13.8,30.7,30.7,30.7s30.7-13.8,30.7-30.7
		S1089.2,146.9,1072.2,146.9z M1079.6,152.1c2.6,0,4.6,2.1,4.6,4.6c0,2.6-2.1,4.6-4.6,4.6s-4.6-2.1-4.6-4.6
		C1074.9,154.2,1077,152.1,1079.6,152.1z M1069.2,158.9c3,0,5.4,2.4,5.4,5.4c0,0.9-0.2,1.8-0.7,2.6c-1-0.1-1.9-0.2-2.9-0.2
		c-2,0-4.1,0.3-6.1,0.8c-0.7-0.9-1.1-2-1.1-3.2C1063.9,161.4,1066.3,158.9,1069.2,158.9z M1091.1,184.4c-1.6,1.5-3.2,3-4.8,4.5
		c-1.1,1-2.6,2-3.5,3.3c-0.9,1.3-1,4.3-1.4,5.9c-0.2,0.8-1,1.4-1.8,1.4h-2.1c-0.8,0-1.9-0.6-2.3-1.3l-1.7-2.9
		c-0.8,0.1-1.7,0.2-2.5,0.2c-1.5,0-3-0.2-4.4-0.4l-0.7,2.9c-0.2,0.8-1,1.4-1.8,1.4h-2.1c-0.8,0-1.9-0.6-2.3-1.3l-2.3-3.7
		c-0.1-0.2-0.2-0.3-0.2-0.5c-2-3.6-4.9-8-5.2-12.2c0-0.5,0-1,0-1.5c-0.8,0.2-1.7,0.1-2.4-0.3c-1.8-0.9-2.5-3.1-1.5-4.9
		c0,0,0.1-0.1,0.1-0.2c0,1,0.6,1.9,1.5,2.4c0.9,0.5,1.9,0.4,2.7,0c0.7-3.1,2.3-6,4.7-8.2c1.7-1.5,3.7-2.7,5.8-3.5
		c0.2,0.9,0.6,1.7,1.1,2.4l0.5,0.6l0.8-0.2c1.9-0.5,3.8-0.8,5.8-0.8c0.9,0,1.9,0.1,2.8,0.2l0.8,0.1l0.4-0.7c0.4-0.8,0.7-1.7,0.8-2.6
		c1.3,0.3,2.6,0.7,3.8,1.2c3-1.5,5.2-2.2,7.7-1.3c1,0.4,2.1,0.9,2.6,2c0,0.1,0.1,0.2,0.1,0.3c0,0.2-0.2,0.2-0.3,0.3
		c-1.2,1-2.5,2-3.7,3c1.7,1.7,2.9,3.8,3.5,6c0.2,0,0.4-0.1,0.5-0.1h2c0.8,0,1.4,0.6,1.4,1.4C1093.4,180.6,1093.4,182.3,1091.1,184.4
		z"/>
</g>
<path fill="#BDDAEF" d="M864.7,8.5c-16.8,0-30.4,13.6-30.4,30.4c0,16.8,13.6,30.4,30.4,30.4c16.8,0,30.4-13.6,30.4-30.4
	C895.2,22.1,881.5,8.5,864.7,8.5z M879.6,51.5l-4.4,0l-5.1-5.6l-5.1,5.6l-4.3,0l7.3-8l-7.3-8l4.4,0l5.1,5.6l5.1-5.6l4.4,0l-7.3,8
	L879.6,51.5z M879.2,27.4l-19,0l-7.7,26.4c-0.2,0.5-0.7,1-1.2,1c0,0,0,0-0.1,0c-0.5,0-1-0.3-1.3-0.8l-3.1-7.9l-3.5,0
	c-0.7,0-1.3-0.6-1.3-1.3s0.6-1.3,1.3-1.3l4.4,0c0.5,0,1,0.3,1.3,0.8l2,5.1l6.9-23.6c0.2-0.6,0.7-1,1.3-1l20,0c0.7,0,1.3,0.6,1.3,1.3
	C880.6,26.8,879.9,27.4,879.2,27.4z"/>
<path fill="#BDDAEF" d="M864.7,147.2c-16.8,0-30.4,13.6-30.4,30.4c0,16.8,13.6,30.4,30.4,30.4c16.8,0,30.4-13.6,30.4-30.4
	C895.2,160.8,881.5,147.2,864.7,147.2z M879.6,190.2l-4.4,0l-5.1-5.6l-5.1,5.6h-4.3l7.3-8l-7.3-8l4.4,0l5.1,5.6l5.1-5.6h4.4l-7.3,8
	L879.6,190.2z M879.2,166.1l-19,0l-7.7,26.4c-0.2,0.5-0.7,1-1.2,1c0,0,0,0-0.1,0c-0.5,0-1-0.3-1.3-0.8l-3.1-7.9h-3.5
	c-0.7,0-1.3-0.6-1.3-1.3s0.6-1.3,1.3-1.3h4.4c0.5,0,1,0.3,1.3,0.8l2,5.1l6.9-23.6c0.2-0.6,0.7-1,1.3-1l20,0c0.7,0,1.3,0.6,1.3,1.3
	C880.6,165.5,879.9,166.1,879.2,166.1z"/>
<g>
	<circle fill="#BDDAEF" cx="876" cy="107.4" r="2.2"/>
	<path fill="#BDDAEF" d="M864.7,77.5c-17,0-30.7,13.8-30.7,30.7s13.8,30.7,30.7,30.7s30.7-13.8,30.7-30.7S881.7,77.5,864.7,77.5z
		 M872.1,82.8c2.6,0,4.6,2.1,4.6,4.6s-2.1,4.6-4.6,4.6s-4.6-2.1-4.6-4.6S869.5,82.8,872.1,82.8z M861.7,89.6c3,0,5.4,2.4,5.4,5.4
		c0,0.9-0.2,1.8-0.7,2.6c-1-0.1-1.9-0.2-2.9-0.2c-2,0-4.1,0.3-6.1,0.8c-0.7-0.9-1.1-2-1.1-3.2C856.4,92,858.8,89.6,861.7,89.6z
		 M883.6,115c-1.6,1.5-3.2,3-4.8,4.5c-1.1,1-2.6,2-3.5,3.3c-0.9,1.3-1,4.3-1.4,5.9c-0.2,0.8-1,1.4-1.8,1.4H870
		c-0.8,0-1.9-0.6-2.3-1.3L866,126c-0.8,0.1-1.7,0.2-2.5,0.2c-1.5,0-3-0.2-4.4-0.4l-0.7,2.9c-0.2,0.8-1,1.4-1.8,1.4h-2.1
		c-0.8,0-1.9-0.6-2.3-1.3l-2.3-3.7c-0.1-0.2-0.2-0.3-0.2-0.5c-2-3.6-4.9-8-5.2-12.2c0-0.5,0-1,0-1.5c-0.8,0.2-1.7,0.1-2.4-0.3
		c-1.8-0.9-2.5-3.1-1.5-4.9c0,0,0.1-0.1,0.1-0.2c0,1,0.6,1.9,1.5,2.4c0.9,0.5,1.9,0.4,2.7,0c0.7-3.1,2.3-6,4.7-8.2
		c1.7-1.5,3.7-2.7,5.8-3.5c0.2,0.9,0.6,1.7,1.1,2.4l0.5,0.6l0.8-0.2c1.9-0.5,3.8-0.8,5.8-0.8c0.9,0,1.9,0.1,2.8,0.2l0.8,0.1l0.4-0.7
		c0.4-0.8,0.7-1.7,0.8-2.6c1.3,0.3,2.6,0.7,3.8,1.2c3-1.5,5.2-2.2,7.7-1.3c1,0.4,2.1,0.9,2.6,2c0,0.1,0.1,0.2,0.1,0.3
		c0,0.2-0.2,0.2-0.3,0.3c-1.2,1-2.5,2-3.7,3c1.7,1.7,2.9,3.8,3.5,6c0.2,0,0.4-0.1,0.5-0.1h2c0.8,0,1.4,0.6,1.4,1.4
		C885.9,111.3,885.9,112.9,883.6,115z"/>
</g>
<path fill="#BDDAEF" d="M933.9,77.8c-16.8,0-30.4,13.6-30.4,30.4c0,16.8,13.6,30.4,30.4,30.4c16.8,0,30.4-13.6,30.4-30.4
	S950.7,77.8,933.9,77.8z M948.8,120.9l-4.4,0l-5.1-5.6l-5.1,5.6l-4.3,0l7.3-8l-7.3-8l4.4,0l5.1,5.6l5.1-5.6l4.4,0l-7.3,8
	L948.8,120.9z M948.3,96.8l-19,0l-7.7,26.4c-0.2,0.5-0.7,1-1.2,1c0,0,0,0-0.1,0c-0.5,0-1-0.3-1.3-0.8l-3.1-7.9h-3.5
	c-0.7,0-1.3-0.6-1.3-1.3c0-0.7,0.6-1.3,1.3-1.3l4.4,0c0.5,0,1,0.3,1.3,0.8l2,5.1L927,95c0.2-0.6,0.7-1,1.3-1l20,0
	c0.7,0,1.3,0.6,1.3,1.3C949.7,96.1,949.1,96.8,948.3,96.8z"/>
<g>
	<circle fill="#BDDAEF" cx="945.1" cy="38" r="2.2"/>
	<path fill="#BDDAEF" d="M933.9,8.2c-17,0-30.7,13.8-30.7,30.7s13.8,30.7,30.7,30.7c17,0,30.7-13.8,30.7-30.7S950.9,8.2,933.9,8.2z
		 M941.2,13.5c2.6,0,4.6,2.1,4.6,4.6s-2.1,4.6-4.6,4.6s-4.6-2.1-4.6-4.6S938.7,13.5,941.2,13.5z M930.9,20.2c3,0,5.4,2.4,5.4,5.4
		c0,0.9-0.2,1.8-0.7,2.6c-1-0.1-1.9-0.2-2.9-0.2c-2,0-4.1,0.3-6.1,0.8c-0.7-0.9-1.1-2-1.1-3.2C925.5,22.7,927.9,20.2,930.9,20.2z
		 M952.8,45.7c-1.6,1.5-3.2,3-4.8,4.5c-1.1,1-2.6,2-3.5,3.3c-0.9,1.3-1,4.3-1.4,5.9c-0.2,0.8-1,1.4-1.8,1.4h-2.1
		c-0.8,0-1.9-0.6-2.3-1.3l-1.7-2.9c-0.8,0.1-1.7,0.2-2.5,0.2c-1.5,0-3-0.2-4.4-0.4l-0.7,2.9c-0.2,0.8-1,1.4-1.8,1.4h-2.1
		c-0.8,0-1.9-0.6-2.3-1.3l-2.3-3.7c-0.1-0.2-0.2-0.3-0.2-0.5c-2-3.6-4.9-8-5.2-12.2c0-0.5,0-1,0-1.5c-0.8,0.2-1.7,0.1-2.4-0.3
		c-1.8-0.9-2.5-3.1-1.5-4.9c0,0,0.1-0.1,0.1-0.2c0,1,0.6,1.9,1.5,2.4c0.9,0.5,1.9,0.4,2.7,0c0.7-3.1,2.3-6,4.7-8.2
		c1.7-1.5,3.7-2.7,5.8-3.5c0.2,0.9,0.6,1.7,1.1,2.4l0.5,0.6l0.8-0.2c1.9-0.5,3.8-0.8,5.8-0.8c0.9,0,1.9,0.1,2.8,0.2l0.8,0.1l0.4-0.7
		c0.4-0.8,0.7-1.7,0.8-2.6c1.3,0.3,2.6,0.7,3.8,1.2c3-1.5,5.2-2.2,7.7-1.3c1,0.4,2.1,0.9,2.6,2c0,0.1,0.1,0.2,0.1,0.3
		c0,0.2-0.2,0.2-0.3,0.3c-1.2,1-2.5,2-3.7,3c1.7,1.7,2.9,3.8,3.5,6c0.2,0,0.4-0.1,0.5-0.1h2c0.8,0,1.4,0.6,1.4,1.4
		C955,42,955.1,43.6,952.8,45.7z"/>
</g>
<g>
	<circle fill="#BDDAEF" cx="945.1" cy="176.7" r="2.2"/>
	<path fill="#BDDAEF" d="M933.9,146.9c-17,0-30.7,13.8-30.7,30.7s13.8,30.7,30.7,30.7c17,0,30.7-13.8,30.7-30.7
		S950.9,146.9,933.9,146.9z M941.2,152.1c2.6,0,4.6,2.1,4.6,4.6c0,2.6-2.1,4.6-4.6,4.6s-4.6-2.1-4.6-4.6
		C936.6,154.2,938.7,152.1,941.2,152.1z M930.9,158.9c3,0,5.4,2.4,5.4,5.4c0,0.9-0.2,1.8-0.7,2.6c-1-0.1-1.9-0.2-2.9-0.2
		c-2,0-4.1,0.3-6.1,0.8c-0.7-0.9-1.1-2-1.1-3.2C925.5,161.4,927.9,158.9,930.9,158.9z M952.8,184.4c-1.6,1.5-3.2,3-4.8,4.5
		c-1.1,1-2.6,2-3.5,3.3c-0.9,1.3-1,4.3-1.4,5.9c-0.2,0.8-1,1.4-1.8,1.4h-2.1c-0.8,0-1.9-0.6-2.3-1.3l-1.7-2.9
		c-0.8,0.1-1.7,0.2-2.5,0.2c-1.5,0-3-0.2-4.4-0.4l-0.7,2.9c-0.2,0.8-1,1.4-1.8,1.4h-2.1c-0.8,0-1.9-0.6-2.3-1.3l-2.3-3.7
		c-0.1-0.2-0.2-0.3-0.2-0.5c-2-3.6-4.9-8-5.2-12.2c0-0.5,0-1,0-1.5c-0.8,0.2-1.7,0.1-2.4-0.3c-1.8-0.9-2.5-3.1-1.5-4.9
		c0,0,0.1-0.1,0.1-0.2c0,1,0.6,1.9,1.5,2.4c0.9,0.5,1.9,0.4,2.7,0c0.7-3.1,2.3-6,4.7-8.2c1.7-1.5,3.7-2.7,5.8-3.5
		c0.2,0.9,0.6,1.7,1.1,2.4l0.5,0.6l0.8-0.2c1.9-0.5,3.8-0.8,5.8-0.8c0.9,0,1.9,0.1,2.8,0.2l0.8,0.1l0.4-0.7c0.4-0.8,0.7-1.7,0.8-2.6
		c1.3,0.3,2.6,0.7,3.8,1.2c3-1.5,5.2-2.2,7.7-1.3c1,0.4,2.1,0.9,2.6,2c0,0.1,0.1,0.2,0.1,0.3c0,0.2-0.2,0.2-0.3,0.3
		c-1.2,1-2.5,2-3.7,3c1.7,1.7,2.9,3.8,3.5,6c0.2,0,0.4-0.1,0.5-0.1h2c0.8,0,1.4,0.6,1.4,1.4C955,180.6,955.1,182.3,952.8,184.4z"/>
</g>
<path fill="#BDDAEF" d="M726.4,8.5c-16.8,0-30.4,13.6-30.4,30.4c0,16.8,13.6,30.4,30.4,30.4c16.8,0,30.4-13.6,30.4-30.4
	S743.2,8.5,726.4,8.5z M741.3,51.5l-4.4,0l-5.1-5.6l-5.1,5.6l-4.3,0l7.3-8l-7.3-8l4.4,0l5.1,5.6l5.1-5.6l4.4,0l-7.3,8L741.3,51.5z
	 M740.9,27.4l-19,0l-7.7,26.4c-0.2,0.5-0.7,1-1.2,1c0,0,0,0-0.1,0c-0.5,0-1-0.3-1.3-0.8l-3.1-7.9l-3.5,0c-0.7,0-1.3-0.6-1.3-1.3
	c0-0.7,0.6-1.3,1.3-1.3l4.4,0c0.5,0,1,0.3,1.3,0.8l2,5.1l6.9-23.6c0.2-0.6,0.7-1,1.3-1l20,0c0.7,0,1.3,0.6,1.3,1.3
	C742.2,26.8,741.6,27.4,740.9,27.4z"/>
<path fill="#BDDAEF" d="M726.4,147.2c-16.8,0-30.4,13.6-30.4,30.4c0,16.8,13.6,30.4,30.4,30.4c16.8,0,30.4-13.6,30.4-30.4
	S743.2,147.2,726.4,147.2z M741.3,190.2l-4.4,0l-5.1-5.6l-5.1,5.6h-4.3l7.3-8l-7.3-8l4.4,0l5.1,5.6l5.1-5.6h4.4l-7.3,8L741.3,190.2z
	 M740.9,166.1l-19,0l-7.7,26.4c-0.2,0.5-0.7,1-1.2,1c0,0,0,0-0.1,0c-0.5,0-1-0.3-1.3-0.8l-3.1-7.9H705c-0.7,0-1.3-0.6-1.3-1.3
	c0-0.7,0.6-1.3,1.3-1.3h4.4c0.5,0,1,0.3,1.3,0.8l2,5.1l6.9-23.6c0.2-0.6,0.7-1,1.3-1l20,0c0.7,0,1.3,0.6,1.3,1.3
	C742.2,165.5,741.6,166.1,740.9,166.1z"/>
<g>
	<circle fill="#BDDAEF" cx="737.6" cy="107.4" r="2.2"/>
	<path fill="#BDDAEF" d="M726.4,77.5c-17,0-30.7,13.8-30.7,30.7s13.8,30.7,30.7,30.7c17,0,30.7-13.8,30.7-30.7
		S743.4,77.5,726.4,77.5z M733.8,82.8c2.6,0,4.6,2.1,4.6,4.6s-2.1,4.6-4.6,4.6s-4.6-2.1-4.6-4.6S731.2,82.8,733.8,82.8z M723.4,89.6
		c3,0,5.4,2.4,5.4,5.4c0,0.9-0.2,1.8-0.7,2.6c-1-0.1-1.9-0.2-2.9-0.2c-2,0-4.1,0.3-6.1,0.8c-0.7-0.9-1.1-2-1.1-3.2
		C718.1,92,720.5,89.6,723.4,89.6z M745.3,115c-1.6,1.5-3.2,3-4.8,4.5c-1.1,1-2.6,2-3.5,3.3c-0.9,1.3-1,4.3-1.4,5.9
		c-0.2,0.8-1,1.4-1.8,1.4h-2.1c-0.8,0-1.9-0.6-2.3-1.3l-1.7-2.9c-0.8,0.1-1.7,0.2-2.5,0.2c-1.5,0-3-0.2-4.4-0.4l-0.7,2.9
		c-0.2,0.8-1,1.4-1.8,1.4h-2.1c-0.8,0-1.9-0.6-2.3-1.3l-2.3-3.7c-0.1-0.2-0.2-0.3-0.2-0.5c-2-3.6-4.9-8-5.2-12.2c0-0.5,0-1,0-1.5
		c-0.8,0.2-1.7,0.1-2.4-0.3c-1.8-0.9-2.5-3.1-1.5-4.9c0,0,0.1-0.1,0.1-0.2c0,1,0.6,1.9,1.5,2.4c0.9,0.5,1.9,0.4,2.7,0
		c0.7-3.1,2.3-6,4.7-8.2c1.7-1.5,3.7-2.7,5.8-3.5c0.2,0.9,0.6,1.7,1.1,2.4l0.5,0.6l0.8-0.2c1.9-0.5,3.8-0.8,5.8-0.8
		c0.9,0,1.9,0.1,2.8,0.2l0.8,0.1l0.4-0.7c0.4-0.8,0.7-1.7,0.8-2.6c1.3,0.3,2.6,0.7,3.8,1.2c3-1.5,5.2-2.2,7.7-1.3
		c1,0.4,2.1,0.9,2.6,2c0,0.1,0.1,0.2,0.1,0.3c0,0.2-0.2,0.2-0.3,0.3c-1.2,1-2.5,2-3.7,3c1.7,1.7,2.9,3.8,3.5,6
		c0.2,0,0.4-0.1,0.5-0.1h2c0.8,0,1.4,0.6,1.4,1.4C747.6,111.3,747.6,112.9,745.3,115z"/>
</g>
<path fill="#BDDAEF" d="M795.6,77.8c-16.8,0-30.4,13.6-30.4,30.4c0,16.8,13.6,30.4,30.4,30.4c16.8,0,30.4-13.6,30.4-30.4
	C826,91.5,812.4,77.8,795.6,77.8z M810.5,120.9l-4.4,0l-5.1-5.6l-5.1,5.6l-4.3,0l7.3-8l-7.3-8l4.4,0l5.1,5.6l5.1-5.6l4.4,0l-7.3,8
	L810.5,120.9z M810,96.8l-19,0l-7.7,26.4c-0.2,0.5-0.7,1-1.2,1c0,0,0,0-0.1,0c-0.5,0-1-0.3-1.3-0.8l-3.1-7.9h-3.5
	c-0.7,0-1.3-0.6-1.3-1.3c0-0.7,0.6-1.3,1.3-1.3l4.4,0c0.5,0,1,0.3,1.3,0.8l2,5.1l6.9-23.6c0.2-0.6,0.7-1,1.3-1l20,0
	c0.7,0,1.3,0.6,1.3,1.3C811.4,96.1,810.8,96.8,810,96.8z"/>
<g>
	<circle fill="#BDDAEF" cx="806.8" cy="38" r="2.2"/>
	<path fill="#BDDAEF" d="M795.6,8.2c-17,0-30.7,13.8-30.7,30.7s13.8,30.7,30.7,30.7c17,0,30.7-13.8,30.7-30.7S812.6,8.2,795.6,8.2z
		 M802.9,13.5c2.6,0,4.6,2.1,4.6,4.6s-2.1,4.6-4.6,4.6c-2.6,0-4.6-2.1-4.6-4.6S800.4,13.5,802.9,13.5z M792.6,20.2
		c3,0,5.4,2.4,5.4,5.4c0,0.9-0.2,1.8-0.7,2.6c-1-0.1-1.9-0.2-2.9-0.2c-2,0-4.1,0.3-6.1,0.8c-0.7-0.9-1.1-2-1.1-3.2
		C787.2,22.7,789.6,20.2,792.6,20.2z M814.5,45.7c-1.6,1.5-3.2,3-4.8,4.5c-1.1,1-2.6,2-3.5,3.3c-0.9,1.3-1,4.3-1.4,5.9
		c-0.2,0.8-1,1.4-1.8,1.4h-2.1c-0.8,0-1.9-0.6-2.3-1.3l-1.7-2.9c-0.8,0.1-1.7,0.2-2.5,0.2c-1.5,0-3-0.2-4.4-0.4l-0.7,2.9
		c-0.2,0.8-1,1.4-1.8,1.4h-2.1c-0.8,0-1.9-0.6-2.3-1.3l-2.3-3.7c-0.1-0.2-0.2-0.3-0.2-0.5c-2-3.6-4.9-8-5.2-12.2c0-0.5,0-1,0-1.5
		c-0.8,0.2-1.7,0.1-2.4-0.3c-1.8-0.9-2.5-3.1-1.5-4.9c0,0,0.1-0.1,0.1-0.2c0,1,0.6,1.9,1.5,2.4c0.9,0.5,1.9,0.4,2.7,0
		c0.7-3.1,2.3-6,4.7-8.2c1.7-1.5,3.7-2.7,5.8-3.5c0.2,0.9,0.6,1.7,1.1,2.4l0.5,0.6l0.8-0.2c1.9-0.5,3.8-0.8,5.8-0.8
		c0.9,0,1.9,0.1,2.8,0.2l0.8,0.1l0.4-0.7c0.4-0.8,0.7-1.7,0.8-2.6c1.3,0.3,2.6,0.7,3.8,1.2c3-1.5,5.2-2.2,7.7-1.3
		c1,0.4,2.1,0.9,2.6,2c0,0.1,0.1,0.2,0.1,0.3c0,0.2-0.2,0.2-0.3,0.3c-1.2,1-2.5,2-3.7,3c1.7,1.7,2.9,3.8,3.5,6
		c0.2,0,0.4-0.1,0.5-0.1h2c0.8,0,1.4,0.6,1.4,1.4C816.7,42,816.8,43.6,814.5,45.7z"/>
</g>
<g>
	<circle fill="#BDDAEF" cx="806.8" cy="176.7" r="2.2"/>
	<path fill="#BDDAEF" d="M795.6,146.9c-17,0-30.7,13.8-30.7,30.7s13.8,30.7,30.7,30.7c17,0,30.7-13.8,30.7-30.7
		S812.6,146.9,795.6,146.9z M802.9,152.1c2.6,0,4.6,2.1,4.6,4.6c0,2.6-2.1,4.6-4.6,4.6c-2.6,0-4.6-2.1-4.6-4.6
		C798.3,154.2,800.4,152.1,802.9,152.1z M792.6,158.9c3,0,5.4,2.4,5.4,5.4c0,0.9-0.2,1.8-0.7,2.6c-1-0.1-1.9-0.2-2.9-0.2
		c-2,0-4.1,0.3-6.1,0.8c-0.7-0.9-1.1-2-1.1-3.2C787.2,161.4,789.6,158.9,792.6,158.9z M814.5,184.4c-1.6,1.5-3.2,3-4.8,4.5
		c-1.1,1-2.6,2-3.5,3.3c-0.9,1.3-1,4.3-1.4,5.9c-0.2,0.8-1,1.4-1.8,1.4h-2.1c-0.8,0-1.9-0.6-2.3-1.3l-1.7-2.9
		c-0.8,0.1-1.7,0.2-2.5,0.2c-1.5,0-3-0.2-4.4-0.4l-0.7,2.9c-0.2,0.8-1,1.4-1.8,1.4h-2.1c-0.8,0-1.9-0.6-2.3-1.3l-2.3-3.7
		c-0.1-0.2-0.2-0.3-0.2-0.5c-2-3.6-4.9-8-5.2-12.2c0-0.5,0-1,0-1.5c-0.8,0.2-1.7,0.1-2.4-0.3c-1.8-0.9-2.5-3.1-1.5-4.9
		c0,0,0.1-0.1,0.1-0.2c0,1,0.6,1.9,1.5,2.4c0.9,0.5,1.9,0.4,2.7,0c0.7-3.1,2.3-6,4.7-8.2c1.7-1.5,3.7-2.7,5.8-3.5
		c0.2,0.9,0.6,1.7,1.1,2.4l0.5,0.6l0.8-0.2c1.9-0.5,3.8-0.8,5.8-0.8c0.9,0,1.9,0.1,2.8,0.2l0.8,0.1l0.4-0.7c0.4-0.8,0.7-1.7,0.8-2.6
		c1.3,0.3,2.6,0.7,3.8,1.2c3-1.5,5.2-2.2,7.7-1.3c1,0.4,2.1,0.9,2.6,2c0,0.1,0.1,0.2,0.1,0.3c0,0.2-0.2,0.2-0.3,0.3
		c-1.2,1-2.5,2-3.7,3c1.7,1.7,2.9,3.8,3.5,6c0.2,0,0.4-0.1,0.5-0.1h2c0.8,0,1.4,0.6,1.4,1.4C816.7,180.6,816.8,182.3,814.5,184.4z"
		/>
</g>
<path fill="#BDDAEF" d="M588.1,8.5c-16.8,0-30.4,13.6-30.4,30.4s13.6,30.4,30.4,30.4c16.8,0,30.4-13.6,30.4-30.4
	C618.6,22.1,604.9,8.5,588.1,8.5z M603,51.5l-4.4,0l-5.1-5.6l-5.1,5.6l-4.3,0l7.3-8l-7.3-8l4.4,0l5.1,5.6l5.1-5.6l4.4,0l-7.3,8
	L603,51.5z M602.6,27.4l-19,0l-7.7,26.4c-0.2,0.5-0.7,1-1.2,1c0,0,0,0-0.1,0c-0.5,0-1-0.3-1.3-0.8l-3.1-7.9l-3.5,0
	c-0.7,0-1.3-0.6-1.3-1.3c0-0.7,0.6-1.3,1.3-1.3l4.4,0c0.5,0,1,0.3,1.3,0.8l2,5.1l6.9-23.6c0.2-0.6,0.7-1,1.3-1l20,0
	c0.7,0,1.3,0.6,1.3,1.3S603.3,27.4,602.6,27.4z"/>
<path fill="#BDDAEF" d="M588.1,147.2c-16.8,0-30.4,13.6-30.4,30.4s13.6,30.4,30.4,30.4c16.8,0,30.4-13.6,30.4-30.4
	C618.6,160.8,604.9,147.2,588.1,147.2z M603,190.2l-4.4,0l-5.1-5.6l-5.1,5.6h-4.3l7.3-8l-7.3-8l4.4,0l5.1,5.6l5.1-5.6h4.4l-7.3,8
	L603,190.2z M602.6,166.1l-19,0l-7.7,26.4c-0.2,0.5-0.7,1-1.2,1c0,0,0,0-0.1,0c-0.5,0-1-0.3-1.3-0.8l-3.1-7.9h-3.5
	c-0.7,0-1.3-0.6-1.3-1.3c0-0.7,0.6-1.3,1.3-1.3h4.4c0.5,0,1,0.3,1.3,0.8l2,5.1l6.9-23.6c0.2-0.6,0.7-1,1.3-1l20,0
	c0.7,0,1.3,0.6,1.3,1.3C603.9,165.5,603.3,166.1,602.6,166.1z"/>
<g>
	<circle fill="#BDDAEF" cx="599.3" cy="107.4" r="2.2"/>
	<path fill="#BDDAEF" d="M588.1,77.5c-17,0-30.7,13.8-30.7,30.7s13.8,30.7,30.7,30.7c17,0,30.7-13.8,30.7-30.7
		S605.1,77.5,588.1,77.5z M595.5,82.8c2.6,0,4.6,2.1,4.6,4.6s-2.1,4.6-4.6,4.6c-2.6,0-4.6-2.1-4.6-4.6S592.9,82.8,595.5,82.8z
		 M585.1,89.6c3,0,5.4,2.4,5.4,5.4c0,0.9-0.2,1.8-0.7,2.6c-1-0.1-1.9-0.2-2.9-0.2c-2,0-4.1,0.3-6.1,0.8c-0.7-0.9-1.1-2-1.1-3.2
		C579.8,92,582.2,89.6,585.1,89.6z M607,115c-1.6,1.5-3.2,3-4.8,4.5c-1.1,1-2.6,2-3.5,3.3c-0.9,1.3-1,4.3-1.4,5.9
		c-0.2,0.8-1,1.4-1.8,1.4h-2.1c-0.8,0-1.9-0.6-2.3-1.3l-1.7-2.9c-0.8,0.1-1.7,0.2-2.5,0.2c-1.5,0-3-0.2-4.4-0.4l-0.7,2.9
		c-0.2,0.8-1,1.4-1.8,1.4h-2.1c-0.8,0-1.9-0.6-2.3-1.3l-2.3-3.7c-0.1-0.2-0.2-0.3-0.2-0.5c-2-3.6-4.9-8-5.2-12.2c0-0.5,0-1,0-1.5
		c-0.8,0.2-1.7,0.1-2.4-0.3c-1.8-0.9-2.5-3.1-1.5-4.9c0,0,0.1-0.1,0.1-0.2c0,1,0.6,1.9,1.5,2.4c0.9,0.5,1.9,0.4,2.7,0
		c0.7-3.1,2.3-6,4.7-8.2c1.7-1.5,3.7-2.7,5.8-3.5c0.2,0.9,0.6,1.7,1.1,2.4l0.5,0.6l0.8-0.2c1.9-0.5,3.8-0.8,5.8-0.8
		c0.9,0,1.9,0.1,2.8,0.2l0.8,0.1l0.4-0.7c0.4-0.8,0.7-1.7,0.8-2.6c1.3,0.3,2.6,0.7,3.8,1.2c3-1.5,5.2-2.2,7.7-1.3
		c1,0.4,2.1,0.9,2.6,2c0,0.1,0.1,0.2,0.1,0.3c0,0.2-0.2,0.2-0.3,0.3c-1.2,1-2.5,2-3.7,3c1.7,1.7,2.9,3.8,3.5,6
		c0.2,0,0.4-0.1,0.5-0.1h2c0.8,0,1.4,0.6,1.4,1.4C609.3,111.3,609.3,112.9,607,115z"/>
</g>
<path fill="#BDDAEF" d="M657.3,77.8c-16.8,0-30.4,13.6-30.4,30.4s13.6,30.4,30.4,30.4c16.8,0,30.4-13.6,30.4-30.4
	C687.7,91.5,674.1,77.8,657.3,77.8z M672.2,120.9l-4.4,0l-5.1-5.6l-5.1,5.6l-4.3,0l7.3-8l-7.3-8l4.4,0l5.1,5.6l5.1-5.6l4.4,0l-7.3,8
	L672.2,120.9z M671.7,96.8l-19,0l-7.7,26.4c-0.2,0.5-0.7,1-1.2,1c0,0,0,0-0.1,0c-0.5,0-1-0.3-1.3-0.8l-3.1-7.9h-3.5
	c-0.7,0-1.3-0.6-1.3-1.3c0-0.7,0.6-1.3,1.3-1.3l4.4,0c0.5,0,1,0.3,1.3,0.8l2,5.1l6.9-23.6c0.2-0.6,0.7-1,1.3-1l20,0
	c0.7,0,1.3,0.6,1.3,1.3C673.1,96.1,672.5,96.8,671.7,96.8z"/>
<g>
	<circle fill="#BDDAEF" cx="668.5" cy="38" r="2.2"/>
	<path fill="#BDDAEF" d="M657.3,8.2c-17,0-30.7,13.8-30.7,30.7s13.8,30.7,30.7,30.7S688,55.9,688,38.9S674.2,8.2,657.3,8.2z
		 M664.6,13.5c2.6,0,4.6,2.1,4.6,4.6s-2.1,4.6-4.6,4.6s-4.6-2.1-4.6-4.6S662.1,13.5,664.6,13.5z M654.3,20.2c3,0,5.4,2.4,5.4,5.4
		c0,0.9-0.2,1.8-0.7,2.6C658,28,657,28,656,28c-2,0-4.1,0.3-6.1,0.8c-0.7-0.9-1.1-2-1.1-3.2C648.9,22.7,651.3,20.2,654.3,20.2z
		 M676.2,45.7c-1.6,1.5-3.2,3-4.8,4.5c-1.1,1-2.6,2-3.5,3.3c-0.9,1.3-1,4.3-1.4,5.9c-0.2,0.8-1,1.4-1.8,1.4h-2.1
		c-0.8,0-1.9-0.6-2.3-1.3l-1.7-2.9c-0.8,0.1-1.7,0.2-2.5,0.2c-1.5,0-3-0.2-4.4-0.4l-0.7,2.9c-0.2,0.8-1,1.4-1.8,1.4H647
		c-0.8,0-1.9-0.6-2.3-1.3l-2.3-3.7c-0.1-0.2-0.2-0.3-0.2-0.5c-2-3.6-4.9-8-5.2-12.2c0-0.5,0-1,0-1.5c-0.8,0.2-1.7,0.1-2.4-0.3
		c-1.8-0.9-2.5-3.1-1.5-4.9c0,0,0.1-0.1,0.1-0.2c0,1,0.6,1.9,1.5,2.4c0.9,0.5,1.9,0.4,2.7,0c0.7-3.1,2.3-6,4.7-8.2
		c1.7-1.5,3.7-2.7,5.8-3.5c0.2,0.9,0.6,1.7,1.1,2.4l0.5,0.6l0.8-0.2c1.9-0.5,3.8-0.8,5.8-0.8c0.9,0,1.9,0.1,2.8,0.2l0.8,0.1l0.4-0.7
		c0.4-0.8,0.7-1.7,0.8-2.6c1.3,0.3,2.6,0.7,3.8,1.2c3-1.5,5.2-2.2,7.7-1.3c1,0.4,2.1,0.9,2.6,2c0,0.1,0.1,0.2,0.1,0.3
		c0,0.2-0.2,0.2-0.3,0.3c-1.2,1-2.5,2-3.7,3c1.7,1.7,2.9,3.8,3.5,6c0.2,0,0.4-0.1,0.5-0.1h2c0.8,0,1.4,0.6,1.4,1.4
		C678.4,42,678.5,43.6,676.2,45.7z"/>
</g>
<g>
	<circle fill="#BDDAEF" cx="668.5" cy="176.7" r="2.2"/>
	<path fill="#BDDAEF" d="M657.3,146.9c-17,0-30.7,13.8-30.7,30.7s13.8,30.7,30.7,30.7s30.7-13.8,30.7-30.7S674.2,146.9,657.3,146.9z
		 M664.6,152.1c2.6,0,4.6,2.1,4.6,4.6c0,2.6-2.1,4.6-4.6,4.6s-4.6-2.1-4.6-4.6C660,154.2,662.1,152.1,664.6,152.1z M654.3,158.9
		c3,0,5.4,2.4,5.4,5.4c0,0.9-0.2,1.8-0.7,2.6c-1-0.1-1.9-0.2-2.9-0.2c-2,0-4.1,0.3-6.1,0.8c-0.7-0.9-1.1-2-1.1-3.2
		C648.9,161.4,651.3,158.9,654.3,158.9z M676.2,184.4c-1.6,1.5-3.2,3-4.8,4.5c-1.1,1-2.6,2-3.5,3.3c-0.9,1.3-1,4.3-1.4,5.9
		c-0.2,0.8-1,1.4-1.8,1.4h-2.1c-0.8,0-1.9-0.6-2.3-1.3l-1.7-2.9c-0.8,0.1-1.7,0.2-2.5,0.2c-1.5,0-3-0.2-4.4-0.4L651,198
		c-0.2,0.8-1,1.4-1.8,1.4H647c-0.8,0-1.9-0.6-2.3-1.3l-2.3-3.7c-0.1-0.2-0.2-0.3-0.2-0.5c-2-3.6-4.9-8-5.2-12.2c0-0.5,0-1,0-1.5
		c-0.8,0.2-1.7,0.1-2.4-0.3c-1.8-0.9-2.5-3.1-1.5-4.9c0,0,0.1-0.1,0.1-0.2c0,1,0.6,1.9,1.5,2.4c0.9,0.5,1.9,0.4,2.7,0
		c0.7-3.1,2.3-6,4.7-8.2c1.7-1.5,3.7-2.7,5.8-3.5c0.2,0.9,0.6,1.7,1.1,2.4l0.5,0.6l0.8-0.2c1.9-0.5,3.8-0.8,5.8-0.8
		c0.9,0,1.9,0.1,2.8,0.2l0.8,0.1l0.4-0.7c0.4-0.8,0.7-1.7,0.8-2.6c1.3,0.3,2.6,0.7,3.8,1.2c3-1.5,5.2-2.2,7.7-1.3
		c1,0.4,2.1,0.9,2.6,2c0,0.1,0.1,0.2,0.1,0.3c0,0.2-0.2,0.2-0.3,0.3c-1.2,1-2.5,2-3.7,3c1.7,1.7,2.9,3.8,3.5,6
		c0.2,0,0.4-0.1,0.5-0.1h2c0.8,0,1.4,0.6,1.4,1.4C678.4,180.6,678.5,182.3,676.2,184.4z"/>
</g>
<path fill="#BDDAEF" d="M449.8,8.5c-16.8,0-30.4,13.6-30.4,30.4c0,16.8,13.6,30.4,30.4,30.4c16.8,0,30.4-13.6,30.4-30.4
	C480.3,22.1,466.6,8.5,449.8,8.5z M464.7,51.5l-4.4,0l-5.1-5.6l-5.1,5.6l-4.3,0l7.3-8l-7.3-8l4.4,0l5.1,5.6l5.1-5.6l4.4,0l-7.3,8
	L464.7,51.5z M464.2,27.4l-19,0l-7.7,26.4c-0.2,0.5-0.7,1-1.2,1c0,0,0,0-0.1,0c-0.5,0-1-0.3-1.3-0.8l-3.1-7.9l-3.5,0
	c-0.7,0-1.3-0.6-1.3-1.3s0.6-1.3,1.3-1.3l4.4,0c0.5,0,1,0.3,1.3,0.8l2,5.1l6.9-23.6c0.2-0.6,0.7-1,1.3-1l20,0c0.7,0,1.3,0.6,1.3,1.3
	C465.6,26.8,465,27.4,464.2,27.4z"/>
<path fill="#BDDAEF" d="M449.8,147.2c-16.8,0-30.4,13.6-30.4,30.4c0,16.8,13.6,30.4,30.4,30.4c16.8,0,30.4-13.6,30.4-30.4
	C480.3,160.8,466.6,147.2,449.8,147.2z M464.7,190.2l-4.4,0l-5.1-5.6l-5.1,5.6h-4.3l7.3-8l-7.3-8l4.4,0l5.1,5.6l5.1-5.6h4.4l-7.3,8
	L464.7,190.2z M464.2,166.1l-19,0l-7.7,26.4c-0.2,0.5-0.7,1-1.2,1c0,0,0,0-0.1,0c-0.5,0-1-0.3-1.3-0.8l-3.1-7.9h-3.5
	c-0.7,0-1.3-0.6-1.3-1.3s0.6-1.3,1.3-1.3h4.4c0.5,0,1,0.3,1.3,0.8l2,5.1l6.9-23.6c0.2-0.6,0.7-1,1.3-1l20,0c0.7,0,1.3,0.6,1.3,1.3
	C465.6,165.5,465,166.1,464.2,166.1z"/>
<g>
	<circle fill="#BDDAEF" cx="461" cy="107.4" r="2.2"/>
	<path fill="#BDDAEF" d="M449.8,77.5c-17,0-30.7,13.8-30.7,30.7s13.8,30.7,30.7,30.7s30.7-13.8,30.7-30.7S466.8,77.5,449.8,77.5z
		 M457.2,82.8c2.6,0,4.6,2.1,4.6,4.6s-2.1,4.6-4.6,4.6s-4.6-2.1-4.6-4.6S454.6,82.8,457.2,82.8z M446.8,89.6c3,0,5.4,2.4,5.4,5.4
		c0,0.9-0.2,1.8-0.7,2.6c-1-0.1-1.9-0.2-2.9-0.2c-2,0-4.1,0.3-6.1,0.8c-0.7-0.9-1.1-2-1.1-3.2C441.5,92,443.9,89.6,446.8,89.6z
		 M468.7,115c-1.6,1.5-3.2,3-4.8,4.5c-1.1,1-2.6,2-3.5,3.3c-0.9,1.3-1,4.3-1.4,5.9c-0.2,0.8-1,1.4-1.8,1.4h-2.1
		c-0.8,0-1.9-0.6-2.3-1.3l-1.7-2.9c-0.8,0.1-1.7,0.2-2.5,0.2c-1.5,0-3-0.2-4.4-0.4l-0.7,2.9c-0.2,0.8-1,1.4-1.8,1.4h-2.1
		c-0.8,0-1.9-0.6-2.3-1.3l-2.3-3.7c-0.1-0.2-0.2-0.3-0.2-0.5c-2-3.6-4.9-8-5.2-12.2c0-0.5,0-1,0-1.5c-0.8,0.2-1.7,0.1-2.4-0.3
		c-1.8-0.9-2.5-3.1-1.5-4.9c0,0,0.1-0.1,0.1-0.2c0,1,0.6,1.9,1.5,2.4c0.9,0.5,1.9,0.4,2.7,0c0.7-3.1,2.3-6,4.7-8.2
		c1.7-1.5,3.7-2.7,5.8-3.5c0.2,0.9,0.6,1.7,1.1,2.4l0.5,0.6l0.8-0.2c1.9-0.5,3.8-0.8,5.8-0.8c0.9,0,1.9,0.1,2.8,0.2l0.8,0.1l0.4-0.7
		c0.4-0.8,0.7-1.7,0.8-2.6c1.3,0.3,2.6,0.7,3.8,1.2c3-1.5,5.2-2.2,7.7-1.3c1,0.4,2.1,0.9,2.6,2c0,0.1,0.1,0.2,0.1,0.3
		c0,0.2-0.2,0.2-0.3,0.3c-1.2,1-2.5,2-3.7,3c1.7,1.7,2.9,3.8,3.5,6c0.2,0,0.4-0.1,0.5-0.1h2c0.8,0,1.4,0.6,1.4,1.4
		C471,111.3,471,112.9,468.7,115z"/>
</g>
<path fill="#BDDAEF" d="M519,77.8c-16.8,0-30.4,13.6-30.4,30.4s13.6,30.4,30.4,30.4c16.8,0,30.4-13.6,30.4-30.4S535.8,77.8,519,77.8
	z M533.9,120.9l-4.4,0l-5.1-5.6l-5.1,5.6l-4.3,0l7.3-8l-7.3-8l4.4,0l5.1,5.6l5.1-5.6l4.4,0l-7.3,8L533.9,120.9z M533.4,96.8l-19,0
	l-7.7,26.4c-0.2,0.5-0.7,1-1.2,1c0,0,0,0-0.1,0c-0.5,0-1-0.3-1.3-0.8l-3.1-7.9h-3.5c-0.7,0-1.3-0.6-1.3-1.3c0-0.7,0.6-1.3,1.3-1.3
	l4.4,0c0.5,0,1,0.3,1.3,0.8l2,5.1l6.9-23.6c0.2-0.6,0.7-1,1.3-1l20,0c0.7,0,1.3,0.6,1.3,1.3C534.8,96.1,534.2,96.8,533.4,96.8z"/>
<g>
	<circle fill="#BDDAEF" cx="530.2" cy="38" r="2.2"/>
	<path fill="#BDDAEF" d="M519,8.2c-17,0-30.7,13.8-30.7,30.7S502,69.7,519,69.7c17,0,30.7-13.8,30.7-30.7S535.9,8.2,519,8.2z
		 M526.3,13.5c2.6,0,4.6,2.1,4.6,4.6s-2.1,4.6-4.6,4.6s-4.6-2.1-4.6-4.6S523.8,13.5,526.3,13.5z M516,20.2c3,0,5.4,2.4,5.4,5.4
		c0,0.9-0.2,1.8-0.7,2.6c-1-0.1-1.9-0.2-2.9-0.2c-2,0-4.1,0.3-6.1,0.8c-0.7-0.9-1.1-2-1.1-3.2C510.6,22.7,513,20.2,516,20.2z
		 M537.9,45.7c-1.6,1.5-3.2,3-4.8,4.5c-1.1,1-2.6,2-3.5,3.3c-0.9,1.3-1,4.3-1.4,5.9c-0.2,0.8-1,1.4-1.8,1.4h-2.1
		c-0.8,0-1.9-0.6-2.3-1.3l-1.7-2.9c-0.8,0.1-1.7,0.2-2.5,0.2c-1.5,0-3-0.2-4.4-0.4l-0.7,2.9c-0.2,0.8-1,1.4-1.8,1.4h-2.1
		c-0.8,0-1.9-0.6-2.3-1.3l-2.3-3.7c-0.1-0.2-0.2-0.3-0.2-0.5c-2-3.6-4.9-8-5.2-12.2c0-0.5,0-1,0-1.5c-0.8,0.2-1.7,0.1-2.4-0.3
		c-1.8-0.9-2.5-3.1-1.5-4.9c0,0,0.1-0.1,0.1-0.2c0,1,0.6,1.9,1.5,2.4c0.9,0.5,1.9,0.4,2.7,0c0.7-3.1,2.3-6,4.7-8.2
		c1.7-1.5,3.7-2.7,5.8-3.5c0.2,0.9,0.6,1.7,1.1,2.4l0.5,0.6l0.8-0.2c1.9-0.5,3.8-0.8,5.8-0.8c0.9,0,1.9,0.1,2.8,0.2l0.8,0.1l0.4-0.7
		c0.4-0.8,0.7-1.7,0.8-2.6c1.3,0.3,2.6,0.7,3.8,1.2c3-1.5,5.2-2.2,7.7-1.3c1,0.4,2.1,0.9,2.6,2c0,0.1,0.1,0.2,0.1,0.3
		c0,0.2-0.2,0.2-0.3,0.3c-1.2,1-2.5,2-3.7,3c1.7,1.7,2.9,3.8,3.5,6c0.2,0,0.4-0.1,0.5-0.1h2c0.8,0,1.4,0.6,1.4,1.4
		C540.1,42,540.2,43.6,537.9,45.7z"/>
</g>
<g>
	<circle fill="#BDDAEF" cx="530.2" cy="176.7" r="2.2"/>
	<path fill="#BDDAEF" d="M519,146.9c-17,0-30.7,13.8-30.7,30.7s13.8,30.7,30.7,30.7c17,0,30.7-13.8,30.7-30.7S535.9,146.9,519,146.9
		z M526.3,152.1c2.6,0,4.6,2.1,4.6,4.6c0,2.6-2.1,4.6-4.6,4.6s-4.6-2.1-4.6-4.6C521.7,154.2,523.8,152.1,526.3,152.1z M516,158.9
		c3,0,5.4,2.4,5.4,5.4c0,0.9-0.2,1.8-0.7,2.6c-1-0.1-1.9-0.2-2.9-0.2c-2,0-4.1,0.3-6.1,0.8c-0.7-0.9-1.1-2-1.1-3.2
		C510.6,161.4,513,158.9,516,158.9z M537.9,184.4c-1.6,1.5-3.2,3-4.8,4.5c-1.1,1-2.6,2-3.5,3.3c-0.9,1.3-1,4.3-1.4,5.9
		c-0.2,0.8-1,1.4-1.8,1.4h-2.1c-0.8,0-1.9-0.6-2.3-1.3l-1.7-2.9c-0.8,0.1-1.7,0.2-2.5,0.2c-1.5,0-3-0.2-4.4-0.4l-0.7,2.9
		c-0.2,0.8-1,1.4-1.8,1.4h-2.1c-0.8,0-1.9-0.6-2.3-1.3l-2.3-3.7c-0.1-0.2-0.2-0.3-0.2-0.5c-2-3.6-4.9-8-5.2-12.2c0-0.5,0-1,0-1.5
		c-0.8,0.2-1.7,0.1-2.4-0.3c-1.8-0.9-2.5-3.1-1.5-4.9c0,0,0.1-0.1,0.1-0.2c0,1,0.6,1.9,1.5,2.4c0.9,0.5,1.9,0.4,2.7,0
		c0.7-3.1,2.3-6,4.7-8.2c1.7-1.5,3.7-2.7,5.8-3.5c0.2,0.9,0.6,1.7,1.1,2.4l0.5,0.6l0.8-0.2c1.9-0.5,3.8-0.8,5.8-0.8
		c0.9,0,1.9,0.1,2.8,0.2l0.8,0.1l0.4-0.7c0.4-0.8,0.7-1.7,0.8-2.6c1.3,0.3,2.6,0.7,3.8,1.2c3-1.5,5.2-2.2,7.7-1.3
		c1,0.4,2.1,0.9,2.6,2c0,0.1,0.1,0.2,0.1,0.3c0,0.2-0.2,0.2-0.3,0.3c-1.2,1-2.5,2-3.7,3c1.7,1.7,2.9,3.8,3.5,6
		c0.2,0,0.4-0.1,0.5-0.1h2c0.8,0,1.4,0.6,1.4,1.4C540.1,180.6,540.2,182.3,537.9,184.4z"/>
</g>
<path fill="#BDDAEF" d="M311.5,8.5c-16.8,0-30.4,13.6-30.4,30.4s13.6,30.4,30.4,30.4c16.8,0,30.4-13.6,30.4-30.4
	S328.3,8.5,311.5,8.5z M326.4,51.5l-4.4,0l-5.1-5.6l-5.1,5.6l-4.3,0l7.3-8l-7.3-8l4.4,0l5.1,5.6l5.1-5.6l4.4,0l-7.3,8L326.4,51.5z
	 M325.9,27.4l-19,0l-7.7,26.4c-0.2,0.5-0.7,1-1.2,1c0,0,0,0-0.1,0c-0.5,0-1-0.3-1.3-0.8l-3.1-7.9l-3.5,0c-0.7,0-1.3-0.6-1.3-1.3
	s0.6-1.3,1.3-1.3l4.4,0c0.5,0,1,0.3,1.3,0.8l2,5.1l6.9-23.6c0.2-0.6,0.7-1,1.3-1l20,0c0.7,0,1.3,0.6,1.3,1.3S326.7,27.4,325.9,27.4z
	"/>
<path fill="#BDDAEF" d="M311.5,147.2c-16.8,0-30.4,13.6-30.4,30.4s13.6,30.4,30.4,30.4c16.8,0,30.4-13.6,30.4-30.4
	S328.3,147.2,311.5,147.2z M326.4,190.2l-4.4,0l-5.1-5.6l-5.1,5.6h-4.3l7.3-8l-7.3-8l4.4,0l5.1,5.6l5.1-5.6h4.4l-7.3,8L326.4,190.2z
	 M325.9,166.1l-19,0l-7.7,26.4c-0.2,0.5-0.7,1-1.2,1c0,0,0,0-0.1,0c-0.5,0-1-0.3-1.3-0.8l-3.1-7.9h-3.5c-0.7,0-1.3-0.6-1.3-1.3
	s0.6-1.3,1.3-1.3h4.4c0.5,0,1,0.3,1.3,0.8l2,5.1l6.9-23.6c0.2-0.6,0.7-1,1.3-1l20,0c0.7,0,1.3,0.6,1.3,1.3
	C327.3,165.5,326.7,166.1,325.9,166.1z"/>
<g>
	<circle fill="#BDDAEF" cx="322.7" cy="107.4" r="2.2"/>
	<path fill="#BDDAEF" d="M311.5,77.5c-17,0-30.7,13.8-30.7,30.7s13.8,30.7,30.7,30.7c17,0,30.7-13.8,30.7-30.7
		S328.5,77.5,311.5,77.5z M318.8,82.8c2.6,0,4.6,2.1,4.6,4.6s-2.1,4.6-4.6,4.6c-2.6,0-4.6-2.1-4.6-4.6S316.3,82.8,318.8,82.8z
		 M308.5,89.6c3,0,5.4,2.4,5.4,5.4c0,0.9-0.2,1.8-0.7,2.6c-1-0.1-1.9-0.2-2.9-0.2c-2,0-4.1,0.3-6.1,0.8c-0.7-0.9-1.1-2-1.1-3.2
		C303.2,92,305.5,89.6,308.5,89.6z M330.4,115c-1.6,1.5-3.2,3-4.8,4.5c-1.1,1-2.6,2-3.5,3.3c-0.9,1.3-1,4.3-1.4,5.9
		c-0.2,0.8-1,1.4-1.8,1.4h-2.1c-0.8,0-1.9-0.6-2.3-1.3l-1.7-2.9c-0.8,0.1-1.7,0.2-2.5,0.2c-1.5,0-3-0.2-4.4-0.4l-0.7,2.9
		c-0.2,0.8-1,1.4-1.8,1.4h-2.1c-0.8,0-1.9-0.6-2.3-1.3l-2.3-3.7c-0.1-0.2-0.2-0.3-0.2-0.5c-2-3.6-4.9-8-5.2-12.2c0-0.5,0-1,0-1.5
		c-0.8,0.2-1.7,0.1-2.4-0.3c-1.8-0.9-2.5-3.1-1.5-4.9c0,0,0.1-0.1,0.1-0.2c0,1,0.6,1.9,1.5,2.4c0.9,0.5,1.9,0.4,2.7,0
		c0.7-3.1,2.3-6,4.7-8.2c1.7-1.5,3.7-2.7,5.8-3.5c0.2,0.9,0.6,1.7,1.1,2.4l0.5,0.6l0.8-0.2c1.9-0.5,3.8-0.8,5.8-0.8
		c0.9,0,1.9,0.1,2.8,0.2l0.8,0.1l0.4-0.7c0.4-0.8,0.7-1.7,0.8-2.6c1.3,0.3,2.6,0.7,3.8,1.2c3-1.5,5.2-2.2,7.7-1.3
		c1,0.4,2.1,0.9,2.6,2c0,0.1,0.1,0.2,0.1,0.3c0,0.2-0.2,0.2-0.3,0.3c-1.2,1-2.5,2-3.7,3c1.7,1.7,2.9,3.8,3.5,6
		c0.2,0,0.4-0.1,0.5-0.1h2c0.8,0,1.4,0.6,1.4,1.4C332.7,111.3,332.7,112.9,330.4,115z"/>
</g>
<path fill="#BDDAEF" d="M380.7,77.8c-16.8,0-30.4,13.6-30.4,30.4c0,16.8,13.6,30.4,30.4,30.4c16.8,0,30.4-13.6,30.4-30.4
	C411.1,91.5,397.5,77.8,380.7,77.8z M395.6,120.9l-4.4,0l-5.1-5.6l-5.1,5.6l-4.3,0l7.3-8l-7.3-8l4.4,0l5.1,5.6l5.1-5.6l4.4,0l-7.3,8
	L395.6,120.9z M395.1,96.8l-19,0l-7.7,26.4c-0.2,0.5-0.7,1-1.2,1c0,0,0,0-0.1,0c-0.5,0-1-0.3-1.3-0.8l-3.1-7.9h-3.5
	c-0.7,0-1.3-0.6-1.3-1.3c0-0.7,0.6-1.3,1.3-1.3l4.4,0c0.5,0,1,0.3,1.3,0.8l2,5.1l6.9-23.6c0.2-0.6,0.7-1,1.3-1l20,0
	c0.7,0,1.3,0.6,1.3,1.3C396.5,96.1,395.9,96.8,395.1,96.8z"/>
<g>
	<circle fill="#BDDAEF" cx="391.9" cy="38" r="2.2"/>
	<path fill="#BDDAEF" d="M380.7,8.2c-17,0-30.7,13.8-30.7,30.7s13.8,30.7,30.7,30.7s30.7-13.8,30.7-30.7S397.6,8.2,380.7,8.2z
		 M388,13.5c2.6,0,4.6,2.1,4.6,4.6s-2.1,4.6-4.6,4.6s-4.6-2.1-4.6-4.6S385.5,13.5,388,13.5z M377.6,20.2c3,0,5.4,2.4,5.4,5.4
		c0,0.9-0.2,1.8-0.7,2.6c-1-0.1-1.9-0.2-2.9-0.2c-2,0-4.1,0.3-6.1,0.8c-0.7-0.9-1.1-2-1.1-3.2C372.3,22.7,374.7,20.2,377.6,20.2z
		 M399.6,45.7c-1.6,1.5-3.2,3-4.8,4.5c-1.1,1-2.6,2-3.5,3.3c-0.9,1.3-1,4.3-1.4,5.9c-0.2,0.8-1,1.4-1.8,1.4H386
		c-0.8,0-1.9-0.6-2.3-1.3l-1.7-2.9c-0.8,0.1-1.7,0.2-2.5,0.2c-1.5,0-3-0.2-4.4-0.4l-0.7,2.9c-0.2,0.8-1,1.4-1.8,1.4h-2.1
		c-0.8,0-1.9-0.6-2.3-1.3l-2.3-3.7c-0.1-0.2-0.2-0.3-0.2-0.5c-2-3.6-4.9-8-5.2-12.2c0-0.5,0-1,0-1.5c-0.8,0.2-1.7,0.1-2.4-0.3
		c-1.8-0.9-2.5-3.1-1.5-4.9c0,0,0.1-0.1,0.1-0.2c0,1,0.6,1.9,1.5,2.4c0.9,0.5,1.9,0.4,2.7,0c0.7-3.1,2.3-6,4.7-8.2
		c1.7-1.5,3.7-2.7,5.8-3.5c0.2,0.9,0.6,1.7,1.1,2.4l0.5,0.6l0.8-0.2c1.9-0.5,3.8-0.8,5.8-0.8c0.9,0,1.9,0.1,2.8,0.2l0.8,0.1l0.4-0.7
		c0.4-0.8,0.7-1.7,0.8-2.6c1.3,0.3,2.6,0.7,3.8,1.2c3-1.5,5.2-2.2,7.7-1.3c1,0.4,2.1,0.9,2.6,2c0,0.1,0.1,0.2,0.1,0.3
		c0,0.2-0.2,0.2-0.3,0.3c-1.2,1-2.5,2-3.7,3c1.7,1.7,2.9,3.8,3.5,6c0.2,0,0.4-0.1,0.5-0.1h2c0.8,0,1.4,0.6,1.4,1.4
		C401.8,42,401.8,43.6,399.6,45.7z"/>
</g>
<g>
	<circle fill="#BDDAEF" cx="391.9" cy="176.7" r="2.2"/>
	<path fill="#BDDAEF" d="M380.7,146.9c-17,0-30.7,13.8-30.7,30.7s13.8,30.7,30.7,30.7s30.7-13.8,30.7-30.7S397.6,146.9,380.7,146.9z
		 M388,152.1c2.6,0,4.6,2.1,4.6,4.6c0,2.6-2.1,4.6-4.6,4.6s-4.6-2.1-4.6-4.6C383.4,154.2,385.5,152.1,388,152.1z M377.6,158.9
		c3,0,5.4,2.4,5.4,5.4c0,0.9-0.2,1.8-0.7,2.6c-1-0.1-1.9-0.2-2.9-0.2c-2,0-4.1,0.3-6.1,0.8c-0.7-0.9-1.1-2-1.1-3.2
		C372.3,161.4,374.7,158.9,377.6,158.9z M399.6,184.4c-1.6,1.5-3.2,3-4.8,4.5c-1.1,1-2.6,2-3.5,3.3c-0.9,1.3-1,4.3-1.4,5.9
		c-0.2,0.8-1,1.4-1.8,1.4H386c-0.8,0-1.9-0.6-2.3-1.3l-1.7-2.9c-0.8,0.1-1.7,0.2-2.5,0.2c-1.5,0-3-0.2-4.4-0.4l-0.7,2.9
		c-0.2,0.8-1,1.4-1.8,1.4h-2.1c-0.8,0-1.9-0.6-2.3-1.3l-2.3-3.7c-0.1-0.2-0.2-0.3-0.2-0.5c-2-3.6-4.9-8-5.2-12.2c0-0.5,0-1,0-1.5
		c-0.8,0.2-1.7,0.1-2.4-0.3c-1.8-0.9-2.5-3.1-1.5-4.9c0,0,0.1-0.1,0.1-0.2c0,1,0.6,1.9,1.5,2.4c0.9,0.5,1.9,0.4,2.7,0
		c0.7-3.1,2.3-6,4.7-8.2c1.7-1.5,3.7-2.7,5.8-3.5c0.2,0.9,0.6,1.7,1.1,2.4l0.5,0.6l0.8-0.2c1.9-0.5,3.8-0.8,5.8-0.8
		c0.9,0,1.9,0.1,2.8,0.2l0.8,0.1l0.4-0.7c0.4-0.8,0.7-1.7,0.8-2.6c1.3,0.3,2.6,0.7,3.8,1.2c3-1.5,5.2-2.2,7.7-1.3
		c1,0.4,2.1,0.9,2.6,2c0,0.1,0.1,0.2,0.1,0.3c0,0.2-0.2,0.2-0.3,0.3c-1.2,1-2.5,2-3.7,3c1.7,1.7,2.9,3.8,3.5,6
		c0.2,0,0.4-0.1,0.5-0.1h2c0.8,0,1.4,0.6,1.4,1.4C401.8,180.6,401.8,182.3,399.6,184.4z"/>
</g>
<path fill="#BDDAEF" d="M173.2,8.5c-16.8,0-30.4,13.6-30.4,30.4c0,16.8,13.6,30.4,30.4,30.4c16.8,0,30.4-13.6,30.4-30.4
	C203.6,22.1,190,8.5,173.2,8.5z M188.1,51.5l-4.4,0l-5.1-5.6l-5.1,5.6l-4.3,0l7.3-8l-7.3-8l4.4,0l5.1,5.6l5.1-5.6l4.4,0l-7.3,8
	L188.1,51.5z M187.6,27.4l-19,0l-7.7,26.4c-0.2,0.5-0.7,1-1.2,1c0,0,0,0-0.1,0c-0.5,0-1-0.3-1.3-0.8l-3.1-7.9l-3.5,0
	c-0.7,0-1.3-0.6-1.3-1.3c0-0.7,0.6-1.3,1.3-1.3l4.4,0c0.5,0,1,0.3,1.3,0.8l2,5.1l6.9-23.6c0.2-0.6,0.7-1,1.3-1l20,0
	c0.7,0,1.3,0.6,1.3,1.3C189,26.8,188.4,27.4,187.6,27.4z"/>
<path fill="#BDDAEF" d="M173.2,147.2c-16.8,0-30.4,13.6-30.4,30.4c0,16.8,13.6,30.4,30.4,30.4c16.8,0,30.4-13.6,30.4-30.4
	C203.6,160.8,190,147.2,173.2,147.2z M188.1,190.2l-4.4,0l-5.1-5.6l-5.1,5.6h-4.3l7.3-8l-7.3-8l4.4,0l5.1,5.6l5.1-5.6h4.4l-7.3,8
	L188.1,190.2z M187.6,166.1l-19,0l-7.7,26.4c-0.2,0.5-0.7,1-1.2,1c0,0,0,0-0.1,0c-0.5,0-1-0.3-1.3-0.8l-3.1-7.9h-3.5
	c-0.7,0-1.3-0.6-1.3-1.3c0-0.7,0.6-1.3,1.3-1.3h4.4c0.5,0,1,0.3,1.3,0.8l2,5.1l6.9-23.6c0.2-0.6,0.7-1,1.3-1l20,0
	c0.7,0,1.3,0.6,1.3,1.3C189,165.5,188.4,166.1,187.6,166.1z"/>
<g>
	<circle fill="#BDDAEF" cx="184.4" cy="107.4" r="2.2"/>
	<path fill="#BDDAEF" d="M173.2,77.5c-17,0-30.7,13.8-30.7,30.7s13.8,30.7,30.7,30.7s30.7-13.8,30.7-30.7S190.2,77.5,173.2,77.5z
		 M180.5,82.8c2.6,0,4.6,2.1,4.6,4.6s-2.1,4.6-4.6,4.6c-2.6,0-4.6-2.1-4.6-4.6S178,82.8,180.5,82.8z M170.2,89.6
		c3,0,5.4,2.4,5.4,5.4c0,0.9-0.2,1.8-0.7,2.6c-1-0.1-1.9-0.2-2.9-0.2c-2,0-4.1,0.3-6.1,0.8c-0.7-0.9-1.1-2-1.1-3.2
		C164.8,92,167.2,89.6,170.2,89.6z M192.1,115c-1.6,1.5-3.2,3-4.8,4.5c-1.1,1-2.6,2-3.5,3.3c-0.9,1.3-1,4.3-1.4,5.9
		c-0.2,0.8-1,1.4-1.8,1.4h-2.1c-0.8,0-1.9-0.6-2.3-1.3l-1.7-2.9c-0.8,0.1-1.7,0.2-2.5,0.2c-1.5,0-3-0.2-4.4-0.4l-0.7,2.9
		c-0.2,0.8-1,1.4-1.8,1.4h-2.1c-0.8,0-1.9-0.6-2.3-1.3l-2.3-3.7c-0.1-0.2-0.2-0.3-0.2-0.5c-2-3.6-4.9-8-5.2-12.2c0-0.5,0-1,0-1.5
		c-0.8,0.2-1.7,0.1-2.4-0.3c-1.8-0.9-2.5-3.1-1.5-4.9c0,0,0.1-0.1,0.1-0.2c0,1,0.6,1.9,1.5,2.4c0.9,0.5,1.9,0.4,2.7,0
		c0.7-3.1,2.3-6,4.7-8.2c1.7-1.5,3.7-2.7,5.8-3.5c0.2,0.9,0.6,1.7,1.1,2.4l0.5,0.6l0.8-0.2c1.9-0.5,3.8-0.8,5.8-0.8
		c0.9,0,1.9,0.1,2.8,0.2l0.8,0.1l0.4-0.7c0.4-0.8,0.7-1.7,0.8-2.6c1.3,0.3,2.6,0.7,3.8,1.2c3-1.5,5.2-2.2,7.7-1.3
		c1,0.4,2.1,0.9,2.6,2c0,0.1,0.1,0.2,0.1,0.3c0,0.2-0.2,0.2-0.3,0.3c-1.2,1-2.5,2-3.7,3c1.7,1.7,2.9,3.8,3.5,6
		c0.2,0,0.4-0.1,0.5-0.1h2c0.8,0,1.4,0.6,1.4,1.4C194.3,111.3,194.4,112.9,192.1,115z"/>
</g>
<path fill="#BDDAEF" d="M242.3,77.8c-16.8,0-30.4,13.6-30.4,30.4c0,16.8,13.6,30.4,30.4,30.4c16.8,0,30.4-13.6,30.4-30.4
	S259.2,77.8,242.3,77.8z M257.2,120.9l-4.4,0l-5.1-5.6l-5.1,5.6l-4.3,0l7.3-8l-7.3-8l4.4,0l5.1,5.6l5.1-5.6l4.4,0l-7.3,8
	L257.2,120.9z M256.8,96.8l-19,0l-7.7,26.4c-0.2,0.5-0.7,1-1.2,1c0,0,0,0-0.1,0c-0.5,0-1-0.3-1.3-0.8l-3.1-7.9h-3.5
	c-0.7,0-1.3-0.6-1.3-1.3c0-0.7,0.6-1.3,1.3-1.3l4.4,0c0.5,0,1,0.3,1.3,0.8l2,5.1l6.9-23.6c0.2-0.6,0.7-1,1.3-1l20,0
	c0.7,0,1.3,0.6,1.3,1.3C258.2,96.1,257.5,96.8,256.8,96.8z"/>
<g>
	<circle fill="#BDDAEF" cx="253.6" cy="38" r="2.2"/>
	<path fill="#BDDAEF" d="M242.3,8.2c-17,0-30.7,13.8-30.7,30.7s13.8,30.7,30.7,30.7s30.7-13.8,30.7-30.7S259.3,8.2,242.3,8.2z
		 M249.7,13.5c2.6,0,4.6,2.1,4.6,4.6s-2.1,4.6-4.6,4.6c-2.6,0-4.6-2.1-4.6-4.6S247.1,13.5,249.7,13.5z M239.3,20.2
		c3,0,5.4,2.4,5.4,5.4c0,0.9-0.2,1.8-0.7,2.6c-1-0.1-1.9-0.2-2.9-0.2c-2,0-4.1,0.3-6.1,0.8c-0.7-0.9-1.1-2-1.1-3.2
		C234,22.7,236.4,20.2,239.3,20.2z M261.3,45.7c-1.6,1.5-3.2,3-4.8,4.5c-1.1,1-2.6,2-3.5,3.3c-0.9,1.3-1,4.3-1.4,5.9
		c-0.2,0.8-1,1.4-1.8,1.4h-2.1c-0.8,0-1.9-0.6-2.3-1.3l-1.7-2.9c-0.8,0.1-1.7,0.2-2.5,0.2c-1.5,0-3-0.2-4.4-0.4l-0.7,2.9
		c-0.2,0.8-1,1.4-1.8,1.4h-2.1c-0.8,0-1.9-0.6-2.3-1.3l-2.3-3.7c-0.1-0.2-0.2-0.3-0.2-0.5c-2-3.6-4.9-8-5.2-12.2c0-0.5,0-1,0-1.5
		c-0.8,0.2-1.7,0.1-2.4-0.3c-1.8-0.9-2.5-3.1-1.5-4.9c0,0,0.1-0.1,0.1-0.2c0,1,0.6,1.9,1.5,2.4c0.9,0.5,1.9,0.4,2.7,0
		c0.7-3.1,2.3-6,4.7-8.2c1.7-1.5,3.7-2.7,5.8-3.5c0.2,0.9,0.6,1.7,1.1,2.4l0.5,0.6l0.8-0.2c1.9-0.5,3.8-0.8,5.8-0.8
		c0.9,0,1.9,0.1,2.8,0.2l0.8,0.1l0.4-0.7c0.4-0.8,0.7-1.7,0.8-2.6c1.3,0.3,2.6,0.7,3.8,1.2c3-1.5,5.2-2.2,7.7-1.3
		c1,0.4,2.1,0.9,2.6,2c0,0.1,0.1,0.2,0.1,0.3c0,0.2-0.2,0.2-0.3,0.3c-1.2,1-2.5,2-3.7,3c1.7,1.7,2.9,3.8,3.5,6
		c0.2,0,0.4-0.1,0.5-0.1h2c0.8,0,1.4,0.6,1.4,1.4C263.5,42,263.5,43.6,261.3,45.7z"/>
</g>
<g>
	<circle fill="#BDDAEF" cx="253.6" cy="176.7" r="2.2"/>
	<path fill="#BDDAEF" d="M242.3,146.9c-17,0-30.7,13.8-30.7,30.7s13.8,30.7,30.7,30.7s30.7-13.8,30.7-30.7S259.3,146.9,242.3,146.9z
		 M249.7,152.1c2.6,0,4.6,2.1,4.6,4.6c0,2.6-2.1,4.6-4.6,4.6c-2.6,0-4.6-2.1-4.6-4.6C245.1,154.2,247.1,152.1,249.7,152.1z
		 M239.3,158.9c3,0,5.4,2.4,5.4,5.4c0,0.9-0.2,1.8-0.7,2.6c-1-0.1-1.9-0.2-2.9-0.2c-2,0-4.1,0.3-6.1,0.8c-0.7-0.9-1.1-2-1.1-3.2
		C234,161.4,236.4,158.9,239.3,158.9z M261.3,184.4c-1.6,1.5-3.2,3-4.8,4.5c-1.1,1-2.6,2-3.5,3.3c-0.9,1.3-1,4.3-1.4,5.9
		c-0.2,0.8-1,1.4-1.8,1.4h-2.1c-0.8,0-1.9-0.6-2.3-1.3l-1.7-2.9c-0.8,0.1-1.7,0.2-2.5,0.2c-1.5,0-3-0.2-4.4-0.4L236,198
		c-0.2,0.8-1,1.4-1.8,1.4h-2.1c-0.8,0-1.9-0.6-2.3-1.3l-2.3-3.7c-0.1-0.2-0.2-0.3-0.2-0.5c-2-3.6-4.9-8-5.2-12.2c0-0.5,0-1,0-1.5
		c-0.8,0.2-1.7,0.1-2.4-0.3c-1.8-0.9-2.5-3.1-1.5-4.9c0,0,0.1-0.1,0.1-0.2c0,1,0.6,1.9,1.5,2.4c0.9,0.5,1.9,0.4,2.7,0
		c0.7-3.1,2.3-6,4.7-8.2c1.7-1.5,3.7-2.7,5.8-3.5c0.2,0.9,0.6,1.7,1.1,2.4l0.5,0.6l0.8-0.2c1.9-0.5,3.8-0.8,5.8-0.8
		c0.9,0,1.9,0.1,2.8,0.2l0.8,0.1l0.4-0.7c0.4-0.8,0.7-1.7,0.8-2.6c1.3,0.3,2.6,0.7,3.8,1.2c3-1.5,5.2-2.2,7.7-1.3
		c1,0.4,2.1,0.9,2.6,2c0,0.1,0.1,0.2,0.1,0.3c0,0.2-0.2,0.2-0.3,0.3c-1.2,1-2.5,2-3.7,3c1.7,1.7,2.9,3.8,3.5,6
		c0.2,0,0.4-0.1,0.5-0.1h2c0.8,0,1.4,0.6,1.4,1.4C263.5,180.6,263.5,182.3,261.3,184.4z"/>
</g>
<path fill="#BDDAEF" d="M34.9,8.5C18.1,8.5,4.4,22.1,4.4,38.9c0,16.8,13.6,30.4,30.4,30.4c16.8,0,30.4-13.6,30.4-30.4
	S51.7,8.5,34.9,8.5z M49.8,51.5l-4.4,0l-5.1-5.6l-5.1,5.6l-4.3,0l7.3-8l-7.3-8l4.4,0l5.1,5.6l5.1-5.6l4.4,0l-7.3,8L49.8,51.5z
	 M49.3,27.4l-19,0l-7.7,26.4c-0.2,0.5-0.7,1-1.2,1c0,0,0,0-0.1,0c-0.5,0-1-0.3-1.3-0.8L17,46l-3.5,0c-0.7,0-1.3-0.6-1.3-1.3
	c0-0.7,0.6-1.3,1.3-1.3l4.4,0c0.5,0,1,0.3,1.3,0.8l2,5.1L28,25.7c0.2-0.6,0.7-1,1.3-1l20,0c0.7,0,1.3,0.6,1.3,1.3
	C50.7,26.8,50.1,27.4,49.3,27.4z"/>
<path fill="#BDDAEF" d="M34.9,147.2c-16.8,0-30.4,13.6-30.4,30.4c0,16.8,13.6,30.4,30.4,30.4c16.8,0,30.4-13.6,30.4-30.4
	S51.7,147.2,34.9,147.2z M49.8,190.2l-4.4,0l-5.1-5.6l-5.1,5.6h-4.3l7.3-8l-7.3-8l4.4,0l5.1,5.6l5.1-5.6h4.4l-7.3,8L49.8,190.2z
	 M49.3,166.1l-19,0l-7.7,26.4c-0.2,0.5-0.7,1-1.2,1c0,0,0,0-0.1,0c-0.5,0-1-0.3-1.3-0.8l-3.1-7.9h-3.5c-0.7,0-1.3-0.6-1.3-1.3
	c0-0.7,0.6-1.3,1.3-1.3h4.4c0.5,0,1,0.3,1.3,0.8l2,5.1l6.9-23.6c0.2-0.6,0.7-1,1.3-1l20,0c0.7,0,1.3,0.6,1.3,1.3
	C50.7,165.5,50.1,166.1,49.3,166.1z"/>
<g>
	<circle fill="#BDDAEF" cx="46.1" cy="107.4" r="2.2"/>
	<path fill="#BDDAEF" d="M34.9,77.5c-17,0-30.7,13.8-30.7,30.7S17.9,139,34.9,139s30.7-13.8,30.7-30.7S51.9,77.5,34.9,77.5z
		 M42.2,82.8c2.6,0,4.6,2.1,4.6,4.6s-2.1,4.6-4.6,4.6c-2.6,0-4.6-2.1-4.6-4.6S39.7,82.8,42.2,82.8z M31.9,89.6c3,0,5.4,2.4,5.4,5.4
		c0,0.9-0.2,1.8-0.7,2.6c-1-0.1-1.9-0.2-2.9-0.2c-2,0-4.1,0.3-6.1,0.8c-0.7-0.9-1.1-2-1.1-3.2C26.5,92,28.9,89.6,31.9,89.6z
		 M53.8,115c-1.6,1.5-3.2,3-4.8,4.5c-1.1,1-2.6,2-3.5,3.3c-0.9,1.3-1,4.3-1.4,5.9c-0.2,0.8-1,1.4-1.8,1.4h-2.1
		c-0.8,0-1.9-0.6-2.3-1.3l-1.7-2.9c-0.8,0.1-1.7,0.2-2.5,0.2c-1.5,0-3-0.2-4.4-0.4l-0.7,2.9c-0.2,0.8-1,1.4-1.8,1.4h-2.1
		c-0.8,0-1.9-0.6-2.3-1.3l-2.3-3.7c-0.1-0.2-0.2-0.3-0.2-0.5c-2-3.6-4.9-8-5.2-12.2c0-0.5,0-1,0-1.5c-0.8,0.2-1.7,0.1-2.4-0.3
		c-1.8-0.9-2.5-3.1-1.5-4.9c0,0,0.1-0.1,0.1-0.2c0,1,0.6,1.9,1.5,2.4c0.9,0.5,1.9,0.4,2.7,0c0.7-3.1,2.3-6,4.7-8.2
		c1.7-1.5,3.7-2.7,5.8-3.5c0.2,0.9,0.6,1.7,1.1,2.4l0.5,0.6l0.8-0.2c1.9-0.5,3.8-0.8,5.8-0.8c0.9,0,1.9,0.1,2.8,0.2l0.8,0.1l0.4-0.7
		c0.4-0.8,0.7-1.7,0.8-2.6c1.3,0.3,2.6,0.7,3.8,1.2c3-1.5,5.2-2.2,7.7-1.3c1,0.4,2.1,0.9,2.6,2c0,0.1,0.1,0.2,0.1,0.3
		c0,0.2-0.2,0.2-0.3,0.3c-1.2,1-2.5,2-3.7,3c1.7,1.7,2.9,3.8,3.5,6c0.2,0,0.4-0.1,0.5-0.1h2c0.8,0,1.4,0.6,1.4,1.4
		C56,111.3,56.1,112.9,53.8,115z"/>
</g>
<path fill="#BDDAEF" d="M104,77.8c-16.8,0-30.4,13.6-30.4,30.4s13.6,30.4,30.4,30.4c16.8,0,30.4-13.6,30.4-30.4
	C134.5,91.5,120.8,77.8,104,77.8z M118.9,120.9l-4.4,0l-5.1-5.6l-5.1,5.6l-4.3,0l7.3-8l-7.3-8l4.4,0l5.1,5.6l5.1-5.6l4.4,0l-7.3,8
	L118.9,120.9z M118.5,96.8l-19,0l-7.7,26.4c-0.2,0.5-0.7,1-1.2,1c0,0,0,0-0.1,0c-0.5,0-1-0.3-1.3-0.8l-3.1-7.9h-3.5
	c-0.7,0-1.3-0.6-1.3-1.3c0-0.7,0.6-1.3,1.3-1.3l4.4,0c0.5,0,1,0.3,1.3,0.8l2,5.1L97.2,95c0.2-0.6,0.7-1,1.3-1l20,0
	c0.7,0,1.3,0.6,1.3,1.3C119.9,96.1,119.2,96.8,118.5,96.8z"/>
<g>
	<circle fill="#BDDAEF" cx="115.3" cy="38" r="2.2"/>
	<path fill="#BDDAEF" d="M104,8.2c-17,0-30.7,13.8-30.7,30.7S87.1,69.7,104,69.7s30.7-13.8,30.7-30.7S121,8.2,104,8.2z M111.4,13.5
		c2.6,0,4.6,2.1,4.6,4.6s-2.1,4.6-4.6,4.6c-2.6,0-4.6-2.1-4.6-4.6S108.8,13.5,111.4,13.5z M101,20.2c3,0,5.4,2.4,5.4,5.4
		c0,0.9-0.2,1.8-0.7,2.6c-1-0.1-1.9-0.2-2.9-0.2c-2,0-4.1,0.3-6.1,0.8c-0.7-0.9-1.1-2-1.1-3.2C95.7,22.7,98.1,20.2,101,20.2z
		 M122.9,45.7c-1.6,1.5-3.2,3-4.8,4.5c-1.1,1-2.6,2-3.5,3.3c-0.9,1.3-1,4.3-1.4,5.9c-0.2,0.8-1,1.4-1.8,1.4h-2.1
		c-0.8,0-1.9-0.6-2.3-1.3l-1.7-2.9c-0.8,0.1-1.7,0.2-2.5,0.2c-1.5,0-3-0.2-4.4-0.4l-0.7,2.9c-0.2,0.8-1,1.4-1.8,1.4h-2.1
		c-0.8,0-1.9-0.6-2.3-1.3l-2.3-3.7c-0.1-0.2-0.2-0.3-0.2-0.5c-2-3.6-4.9-8-5.2-12.2c0-0.5,0-1,0-1.5c-0.8,0.2-1.7,0.1-2.4-0.3
		c-1.8-0.9-2.5-3.1-1.5-4.9c0,0,0.1-0.1,0.1-0.2c0,1,0.6,1.9,1.5,2.4c0.9,0.5,1.9,0.4,2.7,0c0.7-3.1,2.3-6,4.7-8.2
		c1.7-1.5,3.7-2.7,5.8-3.5c0.2,0.9,0.6,1.7,1.1,2.4l0.5,0.6l0.8-0.2c1.9-0.5,3.8-0.8,5.8-0.8c0.9,0,1.9,0.1,2.8,0.2l0.8,0.1l0.4-0.7
		c0.4-0.8,0.7-1.7,0.8-2.6c1.3,0.3,2.6,0.7,3.8,1.2c3-1.5,5.2-2.2,7.7-1.3c1,0.4,2.1,0.9,2.6,2c0,0.1,0.1,0.2,0.1,0.3
		c0,0.2-0.2,0.2-0.3,0.3c-1.2,1-2.5,2-3.7,3c1.7,1.7,2.9,3.8,3.5,6c0.2,0,0.4-0.1,0.5-0.1h2c0.8,0,1.4,0.6,1.4,1.4
		C125.2,42,125.2,43.6,122.9,45.7z"/>
</g>
<g>
	<circle fill="#BDDAEF" cx="115.3" cy="176.7" r="2.2"/>
	<path fill="#BDDAEF" d="M104,146.9c-17,0-30.7,13.8-30.7,30.7s13.8,30.7,30.7,30.7s30.7-13.8,30.7-30.7S121,146.9,104,146.9z
		 M111.4,152.1c2.6,0,4.6,2.1,4.6,4.6c0,2.6-2.1,4.6-4.6,4.6c-2.6,0-4.6-2.1-4.6-4.6C106.7,154.2,108.8,152.1,111.4,152.1z
		 M101,158.9c3,0,5.4,2.4,5.4,5.4c0,0.9-0.2,1.8-0.7,2.6c-1-0.1-1.9-0.2-2.9-0.2c-2,0-4.1,0.3-6.1,0.8c-0.7-0.9-1.1-2-1.1-3.2
		C95.7,161.4,98.1,158.9,101,158.9z M122.9,184.4c-1.6,1.5-3.2,3-4.8,4.5c-1.1,1-2.6,2-3.5,3.3c-0.9,1.3-1,4.3-1.4,5.9
		c-0.2,0.8-1,1.4-1.8,1.4h-2.1c-0.8,0-1.9-0.6-2.3-1.3l-1.7-2.9c-0.8,0.1-1.7,0.2-2.5,0.2c-1.5,0-3-0.2-4.4-0.4l-0.7,2.9
		c-0.2,0.8-1,1.4-1.8,1.4h-2.1c-0.8,0-1.9-0.6-2.3-1.3l-2.3-3.7c-0.1-0.2-0.2-0.3-0.2-0.5c-2-3.6-4.9-8-5.2-12.2c0-0.5,0-1,0-1.5
		c-0.8,0.2-1.7,0.1-2.4-0.3c-1.8-0.9-2.5-3.1-1.5-4.9c0,0,0.1-0.1,0.1-0.2c0,1,0.6,1.9,1.5,2.4c0.9,0.5,1.9,0.4,2.7,0
		c0.7-3.1,2.3-6,4.7-8.2c1.7-1.5,3.7-2.7,5.8-3.5c0.2,0.9,0.6,1.7,1.1,2.4l0.5,0.6l0.8-0.2c1.9-0.5,3.8-0.8,5.8-0.8
		c0.9,0,1.9,0.1,2.8,0.2l0.8,0.1l0.4-0.7c0.4-0.8,0.7-1.7,0.8-2.6c1.3,0.3,2.6,0.7,3.8,1.2c3-1.5,5.2-2.2,7.7-1.3
		c1,0.4,2.1,0.9,2.6,2c0,0.1,0.1,0.2,0.1,0.3c0,0.2-0.2,0.2-0.3,0.3c-1.2,1-2.5,2-3.7,3c1.7,1.7,2.9,3.8,3.5,6
		c0.2,0,0.4-0.1,0.5-0.1h2c0.8,0,1.4,0.6,1.4,1.4C125.2,180.6,125.2,182.3,122.9,184.4z"/>
</g>
</svg>
