<?xml version="1.0" encoding="utf-8"?>
<!-- Generator: Adobe Illustrator 18.1.1, SVG Export Plug-In . SVG Version: 6.00 Build 0)  -->
<svg version="1.1" id="band" xmlns="http://www.w3.org/2000/svg" xmlns:xlink="http://www.w3.org/1999/xlink" x="0px" y="0px"
	 viewBox="0 0 1660.5 221.6" enable-background="new 0 0 1660.5 221.6" xml:space="preserve">
<rect x="0" y="0" fill="#AED2E9" width="1660.5" height="221.6"/>
<g>
	<path fill="#BDDAEF" d="M104.5,77.4c-17,0-30.8,13.8-30.8,30.8S87.6,139,104.5,139s30.8-13.8,30.8-30.8S121.5,77.4,104.5,77.4z
		 M121.3,97.4c-2.1,0-4.2,0-6.3,0c-0.5,0-2-0.2-2.3,0.1c-0.3,0.4-0.1,2.4-0.1,3c-0.2,3.8-0.8,7.5-1,11.3c-0.1,2.7-0.5,7.7,2.8,8.9
		c1.4,0.5,3.1,0.2,4.2-0.9c0.6-0.6,1-1.4,1.2-2.2c0.1-0.3,0-1.2,0.2-1.4c0.2-0.2,1.2,0,1.4,0c0,3.7-1.8,8.3-5.4,9.8
		c-3.8,1.6-8.2-0.3-9.4-4.2c-0.6-2-0.4-4.2-0.3-6.2c0.1-2,0.3-4.1,0.5-6.1c0.4-4.1,0.9-8.2,1.1-12.3c-1.6,0-3.2,0-4.8,0
		c-0.7,0-1.4,0-2.1,0c-1.3,0-1.1,0-1.2,1.3c-0.2,2.7-0.5,5.5-0.7,8.3c-0.3,3-0.5,6-0.9,9c-0.3,2.9-0.7,6.2-2.2,8.7
		c-1.3,2-4,2.9-6.1,1.4c-1-0.7-1.6-1.8-1.7-3c-0.1-1.5,0.9-2.7,1.7-3.9c1.7-2.4,3.3-4.9,4.4-7.7c1.1-3,1.7-6.1,2-9.2
		c0.1-0.9,0.2-1.7,0.2-2.6c0-0.4,0.3-1.9,0.1-2.2c-0.2-0.3-1.9-0.1-2.2-0.1c-0.9,0-1.7,0.1-2.6,0.3c-1.3,0.4-2.4,1.1-3.3,2.2
		c-0.5,0.7-0.9,1.5-1.4,2.2c-0.5,0.8-0.8,0.6-1.7,0.5c1.1-3.1,2.1-7.8,5.5-9.3c3.4-1.5,8-1.3,11.7-1.3c4.3,0,8.6,0,12.9,0
		c1.1,0,2.1,0,3.2,0c0.4,0,2.6-0.2,2.8,0c0.3,0.3,0,2.5,0,2.9C121.3,95.7,121.3,96.6,121.3,97.4z"/>
	<g>
		<path fill="#BDDAEF" d="M119.5,25.6H88.7c-0.3,0-0.5,0.2-0.5,0.5v20.8c0,0.3,0.2,0.5,0.5,0.5h30.7c0.3,0,0.5-0.2,0.5-0.5V26.1
			C120,25.8,119.8,25.6,119.5,25.6z M90.1,45.9V27.2h28.1L90.1,45.9z"/>
		<path fill="#BDDAEF" d="M104.5,8.5c-16.9,0-30.6,13.7-30.6,30.6s13.7,30.6,30.6,30.6s30.6-13.7,30.6-30.6S121.4,8.5,104.5,8.5z
			 M123.3,46.9c0,2.1-1.7,3.8-3.8,3.8h-7.3c-1.5,0-1.7,0.7-1.7,1.3v2.4h4.2c0.9,0,1.6,0.7,1.6,1.6s-0.7,1.6-1.6,1.6H93.4
			c-0.9,0-1.6-0.7-1.6-1.6s0.7-1.6,1.6-1.6h4.2v-2.4c0-0.6-0.2-1.3-1.7-1.3h-7.3c-2.1,0-3.8-1.7-3.8-3.8V26.1c0-2.1,1.7-3.8,3.8-3.8
			h30.7c2.1,0,3.8,1.7,3.8,3.8V46.9z"/>
	</g>
	<g>
		<path fill="#BDDAEF" d="M119.5,163.8H88.7c-0.3,0-0.5,0.2-0.5,0.5v20.8c0,0.3,0.2,0.5,0.5,0.5h30.7c0.3,0,0.5-0.2,0.5-0.5v-20.8
			C120,164,119.8,163.8,119.5,163.8z M90.1,184.1v-18.7h28.1L90.1,184.1z"/>
		<path fill="#BDDAEF" d="M104.5,146.7c-16.9,0-30.6,13.7-30.6,30.6s13.7,30.6,30.6,30.6s30.6-13.7,30.6-30.6
			S121.4,146.7,104.5,146.7z M123.3,185.1c0,2.1-1.7,3.8-3.8,3.8h-7.3c-1.5,0-1.7,0.7-1.7,1.3v2.4h4.2c0.9,0,1.6,0.7,1.6,1.6
			c0,0.9-0.7,1.6-1.6,1.6H93.4c-0.9,0-1.6-0.7-1.6-1.6c0-0.9,0.7-1.6,1.6-1.6h4.2v-2.4c0-0.6-0.2-1.3-1.7-1.3h-7.3
			c-2.1,0-3.8-1.7-3.8-3.8v-20.8c0-2.1,1.7-3.8,3.8-3.8h30.7c2.1,0,3.8,1.7,3.8,3.8V185.1z"/>
	</g>
</g>
<g>
	<path fill="#BDDAEF" d="M35.4,8.5c-17,0-30.8,13.8-30.8,30.8S18.4,70,35.4,70s30.8-13.8,30.8-30.8S52.4,8.5,35.4,8.5z M52.2,28.5
		c-2.1,0-4.2,0-6.3,0c-0.5,0-2-0.2-2.3,0.1c-0.3,0.4-0.1,2.4-0.1,3c-0.2,3.8-0.8,7.5-1,11.3c-0.1,2.7-0.5,7.7,2.8,8.9
		c1.4,0.5,3.1,0.2,4.2-0.9c0.6-0.6,1-1.4,1.2-2.2c0.1-0.3,0-1.2,0.2-1.4s1.2,0,1.4,0c0,3.7-1.8,8.3-5.4,9.8
		c-3.8,1.6-8.2-0.3-9.4-4.2c-0.6-2-0.4-4.2-0.3-6.2c0.1-2,0.3-4.1,0.5-6.1c0.4-4.1,0.9-8.2,1.1-12.3c-1.6,0-3.2,0-4.8,0
		c-0.7,0-1.4,0-2.1,0c-1.3,0-1.1,0-1.2,1.3c-0.2,2.7-0.5,5.5-0.7,8.3c-0.3,3-0.5,6-0.9,9c-0.3,2.9-0.7,6.2-2.2,8.7
		c-1.3,2-4,2.9-6.1,1.4c-1-0.7-1.6-1.8-1.7-3c-0.1-1.5,0.9-2.7,1.7-3.9c1.7-2.4,3.3-4.9,4.4-7.7c1.1-3,1.7-6.1,2-9.2
		c0.1-0.9,0.2-1.7,0.2-2.6c0-0.4,0.3-1.9,0.1-2.2c-0.2-0.3-1.9-0.1-2.2-0.1c-0.9,0-1.7,0.1-2.6,0.3c-1.3,0.4-2.4,1.1-3.3,2.2
		c-0.5,0.7-0.9,1.5-1.4,2.2c-0.5,0.8-0.8,0.6-1.7,0.5c1.1-3.1,2.1-7.8,5.5-9.3c3.4-1.5,8-1.3,11.7-1.3c4.3,0,8.6,0,12.9,0
		c1.1,0,2.1,0,3.2,0c0.4,0,2.6-0.2,2.8,0c0.3,0.3,0,2.5,0,2.9C52.2,26.7,52.2,27.6,52.2,28.5z"/>
	<path fill="#BDDAEF" d="M35.4,146.9c-17,0-30.8,13.8-30.8,30.8s13.8,30.8,30.8,30.8s30.8-13.8,30.8-30.8S52.4,146.9,35.4,146.9z
		 M52.2,166.8c-2.1,0-4.2,0-6.3,0c-0.5,0-2-0.2-2.3,0.1c-0.3,0.4-0.1,2.4-0.1,3c-0.2,3.8-0.8,7.5-1,11.3c-0.1,2.7-0.5,7.7,2.8,8.9
		c1.4,0.5,3.1,0.2,4.2-0.9c0.6-0.6,1-1.4,1.2-2.2c0.1-0.3,0-1.2,0.2-1.4s1.2,0,1.4,0c0,3.7-1.8,8.3-5.4,9.8
		c-3.8,1.6-8.2-0.3-9.4-4.2c-0.6-2-0.4-4.2-0.3-6.2c0.1-2,0.3-4.1,0.5-6.1c0.4-4.1,0.9-8.2,1.1-12.3c-1.6,0-3.2,0-4.8,0
		c-0.7,0-1.4,0-2.1,0c-1.3,0-1.1,0-1.2,1.3c-0.2,2.7-0.5,5.5-0.7,8.3c-0.3,3-0.5,6-0.9,9c-0.3,2.9-0.7,6.2-2.2,8.7
		c-1.3,2-4,2.9-6.1,1.4c-1-0.7-1.6-1.8-1.7-3c-0.1-1.5,0.9-2.7,1.7-3.9c1.7-2.4,3.3-4.9,4.4-7.7c1.1-3,1.7-6.1,2-9.2
		c0.1-0.9,0.2-1.7,0.2-2.6c0-0.4,0.3-1.9,0.1-2.2c-0.2-0.3-1.9-0.1-2.2-0.1c-0.9,0-1.7,0.1-2.6,0.3c-1.3,0.4-2.4,1.1-3.3,2.2
		c-0.5,0.7-0.9,1.5-1.4,2.2c-0.5,0.8-0.8,0.6-1.7,0.5c1.1-3.1,2.1-7.8,5.5-9.3c3.4-1.5,8-1.3,11.7-1.3c4.3,0,8.6,0,12.9,0
		c1.1,0,2.1,0,3.2,0c0.4,0,2.6-0.2,2.8,0c0.3,0.3,0,2.5,0,2.9C52.2,165.1,52.2,166,52.2,166.8z"/>
	<g>
		<path fill="#BDDAEF" d="M50.3,94.9H19.6c-0.3,0-0.5,0.2-0.5,0.5v20.8c0,0.3,0.2,0.5,0.5,0.5h30.7c0.3,0,0.5-0.2,0.5-0.5V95.5
			C50.9,95.2,50.6,94.9,50.3,94.9z M20.9,115.2V96.5H49L20.9,115.2z"/>
		<path fill="#BDDAEF" d="M35.4,77.8c-16.9,0-30.6,13.7-30.6,30.6S18.5,139,35.4,139S66,125.3,66,108.4S52.3,77.8,35.4,77.8z
			 M54.2,116.2c0,2.1-1.7,3.8-3.8,3.8h-7.3c-1.5,0-1.7,0.7-1.7,1.3v2.4h4.2c0.9,0,1.6,0.7,1.6,1.6c0,0.9-0.7,1.6-1.6,1.6H24.3
			c-0.9,0-1.6-0.7-1.6-1.6c0-0.9,0.7-1.6,1.6-1.6h4.2v-2.4c0-0.6-0.2-1.3-1.7-1.3h-7.3c-2.1,0-3.8-1.7-3.8-3.8V95.5
			c0-2.1,1.7-3.8,3.8-3.8h30.7c2.1,0,3.8,1.7,3.8,3.8V116.2z"/>
	</g>
</g>
<g>
	<path fill="#BDDAEF" d="M242.8,77.4c-17,0-30.8,13.8-30.8,30.8s13.8,30.8,30.8,30.8c17,0,30.8-13.8,30.8-30.8
		S259.8,77.4,242.8,77.4z M259.6,97.4c-2.1,0-4.2,0-6.3,0c-0.5,0-2-0.2-2.3,0.1c-0.3,0.4-0.1,2.4-0.1,3c-0.2,3.8-0.8,7.5-1,11.3
		c-0.1,2.7-0.5,7.7,2.8,8.9c1.4,0.5,3.1,0.2,4.2-0.9c0.6-0.6,1-1.4,1.2-2.2c0.1-0.3,0-1.2,0.2-1.4c0.2-0.2,1.2,0,1.4,0
		c0,3.7-1.8,8.3-5.4,9.8c-3.8,1.6-8.2-0.3-9.4-4.2c-0.6-2-0.4-4.2-0.3-6.2c0.1-2,0.3-4.1,0.5-6.1c0.4-4.1,0.9-8.2,1.1-12.3
		c-1.6,0-3.2,0-4.8,0c-0.7,0-1.4,0-2.1,0c-1.3,0-1.1,0-1.2,1.3c-0.2,2.7-0.5,5.5-0.7,8.3c-0.3,3-0.5,6-0.9,9
		c-0.3,2.9-0.7,6.2-2.2,8.7c-1.3,2-4,2.9-6.1,1.4c-1-0.7-1.6-1.8-1.7-3c-0.1-1.5,0.9-2.7,1.7-3.9c1.7-2.4,3.3-4.9,4.4-7.7
		c1.1-3,1.7-6.1,2-9.2c0.1-0.9,0.2-1.7,0.2-2.6c0-0.4,0.3-1.9,0.1-2.2c-0.2-0.3-1.9-0.1-2.2-0.1c-0.9,0-1.7,0.1-2.6,0.3
		c-1.3,0.4-2.4,1.1-3.3,2.2c-0.5,0.7-0.9,1.5-1.4,2.2c-0.5,0.8-0.8,0.6-1.7,0.5c1.1-3.1,2.1-7.8,5.5-9.3c3.4-1.5,8-1.3,11.7-1.3
		c4.3,0,8.6,0,12.9,0c1.1,0,2.1,0,3.2,0c0.4,0,2.6-0.2,2.8,0c0.3,0.3,0,2.5,0,2.9C259.6,95.7,259.6,96.6,259.6,97.4z"/>
	<g>
		<path fill="#BDDAEF" d="M257.8,25.6H227c-0.3,0-0.5,0.2-0.5,0.5v20.8c0,0.3,0.2,0.5,0.5,0.5h30.7c0.3,0,0.5-0.2,0.5-0.5V26.1
			C258.3,25.8,258.1,25.6,257.8,25.6z M228.4,45.9V27.2h28.1L228.4,45.9z"/>
		<path fill="#BDDAEF" d="M242.8,8.5c-16.9,0-30.6,13.7-30.6,30.6s13.7,30.6,30.6,30.6s30.6-13.7,30.6-30.6S259.7,8.5,242.8,8.5z
			 M261.6,46.9c0,2.1-1.7,3.8-3.8,3.8h-7.3c-1.5,0-1.7,0.7-1.7,1.3v2.4h4.2c0.9,0,1.6,0.7,1.6,1.6s-0.7,1.6-1.6,1.6h-21.4
			c-0.9,0-1.6-0.7-1.6-1.6s0.7-1.6,1.6-1.6h4.2v-2.4c0-0.6-0.2-1.3-1.7-1.3H227c-2.1,0-3.8-1.7-3.8-3.8V26.1c0-2.1,1.7-3.8,3.8-3.8
			h30.7c2.1,0,3.8,1.7,3.8,3.8V46.9z"/>
	</g>
	<g>
		<path fill="#BDDAEF" d="M257.8,163.8H227c-0.3,0-0.5,0.2-0.5,0.5v20.8c0,0.3,0.2,0.5,0.5,0.5h30.7c0.3,0,0.5-0.2,0.5-0.5v-20.8
			C258.3,164,258.1,163.8,257.8,163.8z M228.4,184.1v-18.7h28.1L228.4,184.1z"/>
		<path fill="#BDDAEF" d="M242.8,146.7c-16.9,0-30.6,13.7-30.6,30.6s13.7,30.6,30.6,30.6s30.6-13.7,30.6-30.6
			S259.7,146.7,242.8,146.7z M261.6,185.1c0,2.1-1.7,3.8-3.8,3.8h-7.3c-1.5,0-1.7,0.7-1.7,1.3v2.4h4.2c0.9,0,1.6,0.7,1.6,1.6
			c0,0.9-0.7,1.6-1.6,1.6h-21.4c-0.9,0-1.6-0.7-1.6-1.6c0-0.9,0.7-1.6,1.6-1.6h4.2v-2.4c0-0.6-0.2-1.3-1.7-1.3H227
			c-2.1,0-3.8-1.7-3.8-3.8v-20.8c0-2.1,1.7-3.8,3.8-3.8h30.7c2.1,0,3.8,1.7,3.8,3.8V185.1z"/>
	</g>
</g>
<g>
	<path fill="#BDDAEF" d="M173.7,8.5c-17,0-30.8,13.8-30.8,30.8S156.7,70,173.7,70s30.8-13.8,30.8-30.8S190.7,8.5,173.7,8.5z
		 M190.5,28.5c-2.1,0-4.2,0-6.3,0c-0.5,0-2-0.2-2.3,0.1c-0.3,0.4-0.1,2.4-0.1,3c-0.2,3.8-0.8,7.5-1,11.3c-0.1,2.7-0.5,7.7,2.8,8.9
		c1.4,0.5,3.1,0.2,4.2-0.9c0.6-0.6,1-1.4,1.2-2.2c0.1-0.3,0-1.2,0.2-1.4c0.2-0.2,1.2,0,1.4,0c0,3.7-1.8,8.3-5.4,9.8
		c-3.8,1.6-8.2-0.3-9.4-4.2c-0.6-2-0.4-4.2-0.3-6.2c0.1-2,0.3-4.1,0.5-6.1c0.4-4.1,0.9-8.2,1.1-12.3c-1.6,0-3.2,0-4.8,0
		c-0.7,0-1.4,0-2.1,0c-1.3,0-1.1,0-1.2,1.3c-0.2,2.7-0.5,5.5-0.7,8.3c-0.3,3-0.5,6-0.9,9c-0.3,2.9-0.7,6.2-2.2,8.7
		c-1.3,2-4,2.9-6.1,1.4c-1-0.7-1.6-1.8-1.7-3c-0.1-1.5,0.9-2.7,1.7-3.9c1.7-2.4,3.3-4.9,4.4-7.7c1.1-3,1.7-6.1,2-9.2
		c0.1-0.9,0.2-1.7,0.2-2.6c0-0.4,0.3-1.9,0.1-2.2c-0.2-0.3-1.9-0.1-2.2-0.1c-0.9,0-1.7,0.1-2.6,0.3c-1.3,0.4-2.4,1.1-3.3,2.2
		c-0.5,0.7-0.9,1.5-1.4,2.2c-0.5,0.8-0.8,0.6-1.7,0.5c1.1-3.1,2.1-7.8,5.5-9.3c3.4-1.5,8-1.3,11.7-1.3c4.3,0,8.6,0,12.9,0
		c1.1,0,2.1,0,3.2,0c0.4,0,2.6-0.2,2.8,0c0.3,0.3,0,2.5,0,2.9C190.5,26.7,190.5,27.6,190.5,28.5z"/>
	<path fill="#BDDAEF" d="M173.7,146.9c-17,0-30.8,13.8-30.8,30.8s13.8,30.8,30.8,30.8s30.8-13.8,30.8-30.8S190.7,146.9,173.7,146.9z
		 M190.5,166.8c-2.1,0-4.2,0-6.3,0c-0.5,0-2-0.2-2.3,0.1c-0.3,0.4-0.1,2.4-0.1,3c-0.2,3.8-0.8,7.5-1,11.3c-0.1,2.7-0.5,7.7,2.8,8.9
		c1.4,0.5,3.1,0.2,4.2-0.9c0.6-0.6,1-1.4,1.2-2.2c0.1-0.3,0-1.2,0.2-1.4c0.2-0.2,1.2,0,1.4,0c0,3.7-1.8,8.3-5.4,9.8
		c-3.8,1.6-8.2-0.3-9.4-4.2c-0.6-2-0.4-4.2-0.3-6.2c0.1-2,0.3-4.1,0.5-6.1c0.4-4.1,0.9-8.2,1.1-12.3c-1.6,0-3.2,0-4.8,0
		c-0.7,0-1.4,0-2.1,0c-1.3,0-1.1,0-1.2,1.3c-0.2,2.7-0.5,5.5-0.7,8.3c-0.3,3-0.5,6-0.9,9c-0.3,2.9-0.7,6.2-2.2,8.7
		c-1.3,2-4,2.9-6.1,1.4c-1-0.7-1.6-1.8-1.7-3c-0.1-1.5,0.9-2.7,1.7-3.9c1.7-2.4,3.3-4.9,4.4-7.7c1.1-3,1.7-6.1,2-9.2
		c0.1-0.9,0.2-1.7,0.2-2.6c0-0.4,0.3-1.9,0.1-2.2c-0.2-0.3-1.9-0.1-2.2-0.1c-0.9,0-1.7,0.1-2.6,0.3c-1.3,0.4-2.4,1.1-3.3,2.2
		c-0.5,0.7-0.9,1.5-1.4,2.2c-0.5,0.8-0.8,0.6-1.7,0.5c1.1-3.1,2.1-7.8,5.5-9.3c3.4-1.5,8-1.3,11.7-1.3c4.3,0,8.6,0,12.9,0
		c1.1,0,2.1,0,3.2,0c0.4,0,2.6-0.2,2.8,0c0.3,0.3,0,2.5,0,2.9C190.5,165.1,190.5,166,190.5,166.8z"/>
	<g>
		<path fill="#BDDAEF" d="M188.6,94.9h-30.7c-0.3,0-0.5,0.2-0.5,0.5v20.8c0,0.3,0.2,0.5,0.5,0.5h30.7c0.3,0,0.5-0.2,0.5-0.5V95.5
			C189.2,95.2,188.9,94.9,188.6,94.9z M159.2,115.2V96.5h28.1L159.2,115.2z"/>
		<path fill="#BDDAEF" d="M173.7,77.8c-16.9,0-30.6,13.7-30.6,30.6s13.7,30.6,30.6,30.6s30.6-13.7,30.6-30.6S190.6,77.8,173.7,77.8z
			 M192.5,116.2c0,2.1-1.7,3.8-3.8,3.8h-7.3c-1.5,0-1.7,0.7-1.7,1.3v2.4h4.2c0.9,0,1.6,0.7,1.6,1.6c0,0.9-0.7,1.6-1.6,1.6h-21.4
			c-0.9,0-1.6-0.7-1.6-1.6c0-0.9,0.7-1.6,1.6-1.6h4.2v-2.4c0-0.6-0.2-1.3-1.7-1.3h-7.3c-2.1,0-3.8-1.7-3.8-3.8V95.5
			c0-2.1,1.7-3.8,3.8-3.8h30.7c2.1,0,3.8,1.7,3.8,3.8V116.2z"/>
	</g>
</g>
<g>
	<path fill="#BDDAEF" d="M381.1,77.4c-17,0-30.8,13.8-30.8,30.8s13.8,30.8,30.8,30.8s30.8-13.8,30.8-30.8S398.1,77.4,381.1,77.4z
		 M397.9,97.4c-2.1,0-4.2,0-6.3,0c-0.5,0-2-0.2-2.3,0.1c-0.3,0.4-0.1,2.4-0.1,3c-0.2,3.8-0.8,7.5-1,11.3c-0.1,2.7-0.5,7.7,2.8,8.9
		c1.4,0.5,3.1,0.2,4.2-0.9c0.6-0.6,1-1.4,1.2-2.2c0.1-0.3,0-1.2,0.2-1.4c0.2-0.2,1.2,0,1.4,0c0,3.7-1.8,8.3-5.4,9.8
		c-3.8,1.6-8.2-0.3-9.4-4.2c-0.6-2-0.4-4.2-0.3-6.2c0.1-2,0.3-4.1,0.5-6.1c0.4-4.1,0.9-8.2,1.1-12.3c-1.6,0-3.2,0-4.8,0
		c-0.7,0-1.4,0-2.1,0c-1.3,0-1.1,0-1.2,1.3c-0.2,2.7-0.5,5.5-0.7,8.3c-0.3,3-0.5,6-0.9,9c-0.3,2.9-0.7,6.2-2.2,8.7
		c-1.3,2-4,2.9-6.1,1.4c-1-0.7-1.6-1.8-1.7-3c-0.1-1.5,0.9-2.7,1.7-3.9c1.7-2.4,3.3-4.9,4.4-7.7c1.1-3,1.7-6.1,2-9.2
		c0.1-0.9,0.2-1.7,0.2-2.6c0-0.4,0.3-1.9,0.1-2.2c-0.2-0.3-1.9-0.1-2.2-0.1c-0.9,0-1.7,0.1-2.6,0.3c-1.3,0.4-2.4,1.1-3.3,2.2
		c-0.5,0.7-0.9,1.5-1.4,2.2c-0.5,0.8-0.8,0.6-1.7,0.5c1.1-3.1,2.1-7.8,5.5-9.3c3.4-1.5,8-1.3,11.7-1.3c4.3,0,8.6,0,12.9,0
		c1.1,0,2.1,0,3.2,0c0.4,0,2.6-0.2,2.8,0c0.3,0.3,0,2.5,0,2.9C397.9,95.7,397.9,96.6,397.9,97.4z"/>
	<g>
		<path fill="#BDDAEF" d="M396.1,25.6h-30.7c-0.3,0-0.5,0.2-0.5,0.5v20.8c0,0.3,0.2,0.5,0.5,0.5h30.7c0.3,0,0.5-0.2,0.5-0.5V26.1
			C396.6,25.8,396.4,25.6,396.1,25.6z M366.7,45.9V27.2h28.1L366.7,45.9z"/>
		<path fill="#BDDAEF" d="M381.1,8.5c-16.9,0-30.6,13.7-30.6,30.6s13.7,30.6,30.6,30.6s30.6-13.7,30.6-30.6S398,8.5,381.1,8.5z
			 M399.9,46.9c0,2.1-1.7,3.8-3.8,3.8h-7.3c-1.5,0-1.7,0.7-1.7,1.3v2.4h4.2c0.9,0,1.6,0.7,1.6,1.6s-0.7,1.6-1.6,1.6H370
			c-0.9,0-1.6-0.7-1.6-1.6s0.7-1.6,1.6-1.6h4.2v-2.4c0-0.6-0.2-1.3-1.7-1.3h-7.3c-2.1,0-3.8-1.7-3.8-3.8V26.1c0-2.1,1.7-3.8,3.8-3.8
			h30.7c2.1,0,3.8,1.7,3.8,3.8V46.9z"/>
	</g>
	<g>
		<path fill="#BDDAEF" d="M396.1,163.8h-30.7c-0.3,0-0.5,0.2-0.5,0.5v20.8c0,0.3,0.2,0.5,0.5,0.5h30.7c0.3,0,0.5-0.2,0.5-0.5v-20.8
			C396.6,164,396.4,163.8,396.1,163.8z M366.7,184.1v-18.7h28.1L366.7,184.1z"/>
		<path fill="#BDDAEF" d="M381.1,146.7c-16.9,0-30.6,13.7-30.6,30.6s13.7,30.6,30.6,30.6s30.6-13.7,30.6-30.6S398,146.7,381.1,146.7
			z M399.9,185.1c0,2.1-1.7,3.8-3.8,3.8h-7.3c-1.5,0-1.7,0.7-1.7,1.3v2.4h4.2c0.9,0,1.6,0.7,1.6,1.6c0,0.9-0.7,1.6-1.6,1.6H370
			c-0.9,0-1.6-0.7-1.6-1.6c0-0.9,0.7-1.6,1.6-1.6h4.2v-2.4c0-0.6-0.2-1.3-1.7-1.3h-7.3c-2.1,0-3.8-1.7-3.8-3.8v-20.8
			c0-2.1,1.7-3.8,3.8-3.8h30.7c2.1,0,3.8,1.7,3.8,3.8V185.1z"/>
	</g>
</g>
<g>
	<path fill="#BDDAEF" d="M312,8.5c-17,0-30.8,13.8-30.8,30.8S295,70,312,70c17,0,30.8-13.8,30.8-30.8S329,8.5,312,8.5z M328.8,28.5
		c-2.1,0-4.2,0-6.3,0c-0.5,0-2-0.2-2.3,0.1c-0.3,0.4-0.1,2.4-0.1,3c-0.2,3.8-0.8,7.5-1,11.3c-0.1,2.7-0.5,7.7,2.8,8.9
		c1.4,0.5,3.1,0.2,4.2-0.9c0.6-0.6,1-1.4,1.2-2.2c0.1-0.3,0-1.2,0.2-1.4s1.2,0,1.4,0c0,3.7-1.8,8.3-5.4,9.8
		c-3.8,1.6-8.2-0.3-9.4-4.2c-0.6-2-0.4-4.2-0.3-6.2c0.1-2,0.3-4.1,0.5-6.1c0.4-4.1,0.9-8.2,1.1-12.3c-1.6,0-3.2,0-4.8,0
		c-0.7,0-1.4,0-2.1,0c-1.3,0-1.1,0-1.2,1.3c-0.2,2.7-0.5,5.5-0.7,8.3c-0.3,3-0.5,6-0.9,9c-0.3,2.9-0.7,6.2-2.2,8.7
		c-1.3,2-4,2.9-6.1,1.4c-1-0.7-1.6-1.8-1.7-3c-0.1-1.5,0.9-2.7,1.7-3.9c1.7-2.4,3.3-4.9,4.4-7.7c1.1-3,1.7-6.1,2-9.2
		c0.1-0.9,0.2-1.7,0.2-2.6c0-0.4,0.3-1.9,0.1-2.2c-0.2-0.3-1.9-0.1-2.2-0.1c-0.9,0-1.7,0.1-2.6,0.3c-1.3,0.4-2.4,1.1-3.3,2.2
		c-0.5,0.7-0.9,1.5-1.4,2.2c-0.5,0.8-0.8,0.6-1.7,0.5c1.1-3.1,2.1-7.8,5.5-9.3c3.4-1.5,8-1.3,11.7-1.3c4.3,0,8.6,0,12.9,0
		c1.1,0,2.1,0,3.2,0c0.4,0,2.6-0.2,2.8,0c0.3,0.3,0,2.5,0,2.9C328.8,26.7,328.8,27.6,328.8,28.5z"/>
	<path fill="#BDDAEF" d="M312,146.9c-17,0-30.8,13.8-30.8,30.8s13.8,30.8,30.8,30.8c17,0,30.8-13.8,30.8-30.8S329,146.9,312,146.9z
		 M328.8,166.8c-2.1,0-4.2,0-6.3,0c-0.5,0-2-0.2-2.3,0.1c-0.3,0.4-0.1,2.4-0.1,3c-0.2,3.8-0.8,7.5-1,11.3c-0.1,2.7-0.5,7.7,2.8,8.9
		c1.4,0.5,3.1,0.2,4.2-0.9c0.6-0.6,1-1.4,1.2-2.2c0.1-0.3,0-1.2,0.2-1.4s1.2,0,1.4,0c0,3.7-1.8,8.3-5.4,9.8
		c-3.8,1.6-8.2-0.3-9.4-4.2c-0.6-2-0.4-4.2-0.3-6.2c0.1-2,0.3-4.1,0.5-6.1c0.4-4.1,0.9-8.2,1.1-12.3c-1.6,0-3.2,0-4.8,0
		c-0.7,0-1.4,0-2.1,0c-1.3,0-1.1,0-1.2,1.3c-0.2,2.7-0.5,5.5-0.7,8.3c-0.3,3-0.5,6-0.9,9c-0.3,2.9-0.7,6.2-2.2,8.7
		c-1.3,2-4,2.9-6.1,1.4c-1-0.7-1.6-1.8-1.7-3c-0.1-1.5,0.9-2.7,1.7-3.9c1.7-2.4,3.3-4.9,4.4-7.7c1.1-3,1.7-6.1,2-9.2
		c0.1-0.9,0.2-1.7,0.2-2.6c0-0.4,0.3-1.9,0.1-2.2c-0.2-0.3-1.9-0.1-2.2-0.1c-0.9,0-1.7,0.1-2.6,0.3c-1.3,0.4-2.4,1.1-3.3,2.2
		c-0.5,0.7-0.9,1.5-1.4,2.2c-0.5,0.8-0.8,0.6-1.7,0.5c1.1-3.1,2.1-7.8,5.5-9.3c3.4-1.5,8-1.3,11.7-1.3c4.3,0,8.6,0,12.9,0
		c1.1,0,2.1,0,3.2,0c0.4,0,2.6-0.2,2.8,0c0.3,0.3,0,2.5,0,2.9C328.8,165.1,328.8,166,328.8,166.8z"/>
	<g>
		<path fill="#BDDAEF" d="M326.9,94.9h-30.7c-0.3,0-0.5,0.2-0.5,0.5v20.8c0,0.3,0.2,0.5,0.5,0.5h30.7c0.3,0,0.5-0.2,0.5-0.5V95.5
			C327.4,95.2,327.2,94.9,326.9,94.9z M297.5,115.2V96.5h28.1L297.5,115.2z"/>
		<path fill="#BDDAEF" d="M312,77.8c-16.9,0-30.6,13.7-30.6,30.6S295.1,139,312,139c16.9,0,30.6-13.7,30.6-30.6S328.9,77.8,312,77.8
			z M330.8,116.2c0,2.1-1.7,3.8-3.8,3.8h-7.3c-1.5,0-1.7,0.7-1.7,1.3v2.4h4.2c0.9,0,1.6,0.7,1.6,1.6c0,0.9-0.7,1.6-1.6,1.6h-21.4
			c-0.9,0-1.6-0.7-1.6-1.6c0-0.9,0.7-1.6,1.6-1.6h4.2v-2.4c0-0.6-0.2-1.3-1.7-1.3h-7.3c-2.1,0-3.8-1.7-3.8-3.8V95.5
			c0-2.1,1.7-3.8,3.8-3.8h30.7c2.1,0,3.8,1.7,3.8,3.8V116.2z"/>
	</g>
</g>
<g>
	<path fill="#BDDAEF" d="M519.4,77.4c-17,0-30.8,13.8-30.8,30.8s13.8,30.8,30.8,30.8c17,0,30.8-13.8,30.8-30.8
		S536.4,77.4,519.4,77.4z M536.2,97.4c-2.1,0-4.2,0-6.3,0c-0.5,0-2-0.2-2.3,0.1c-0.3,0.4-0.1,2.4-0.1,3c-0.2,3.8-0.8,7.5-1,11.3
		c-0.1,2.7-0.5,7.7,2.8,8.9c1.4,0.5,3.1,0.2,4.2-0.9c0.6-0.6,1-1.4,1.2-2.2c0.1-0.3,0-1.2,0.2-1.4c0.2-0.2,1.2,0,1.4,0
		c0,3.7-1.8,8.3-5.4,9.8c-3.8,1.6-8.2-0.3-9.4-4.2c-0.6-2-0.4-4.2-0.3-6.2c0.1-2,0.3-4.1,0.5-6.1c0.4-4.1,0.9-8.2,1.1-12.3
		c-1.6,0-3.2,0-4.8,0c-0.7,0-1.4,0-2.1,0c-1.3,0-1.1,0-1.2,1.3c-0.2,2.7-0.5,5.5-0.7,8.3c-0.3,3-0.5,6-0.9,9
		c-0.3,2.9-0.7,6.2-2.2,8.7c-1.3,2-4,2.9-6.1,1.4c-1-0.7-1.6-1.8-1.7-3c-0.1-1.5,0.9-2.7,1.7-3.9c1.7-2.4,3.3-4.9,4.4-7.7
		c1.1-3,1.7-6.1,2-9.2c0.1-0.9,0.2-1.7,0.2-2.6c0-0.4,0.3-1.9,0.1-2.2c-0.2-0.3-1.9-0.1-2.2-0.1c-0.9,0-1.7,0.1-2.6,0.3
		c-1.3,0.4-2.4,1.1-3.3,2.2c-0.5,0.7-0.9,1.5-1.4,2.2c-0.5,0.8-0.8,0.6-1.7,0.5c1.1-3.1,2.1-7.8,5.5-9.3c3.4-1.5,8-1.3,11.7-1.3
		c4.3,0,8.6,0,12.9,0c1.1,0,2.1,0,3.2,0c0.4,0,2.6-0.2,2.8,0c0.3,0.3,0,2.5,0,2.9C536.2,95.7,536.2,96.6,536.2,97.4z"/>
	<g>
		<path fill="#BDDAEF" d="M534.3,25.6h-30.7c-0.3,0-0.5,0.2-0.5,0.5v20.8c0,0.3,0.2,0.5,0.5,0.5h30.7c0.3,0,0.5-0.2,0.5-0.5V26.1
			C534.9,25.8,534.7,25.6,534.3,25.6z M504.9,45.9V27.2H533L504.9,45.9z"/>
		<path fill="#BDDAEF" d="M519.4,8.5c-16.9,0-30.6,13.7-30.6,30.6s13.7,30.6,30.6,30.6c16.9,0,30.6-13.7,30.6-30.6
			S536.3,8.5,519.4,8.5z M538.2,46.9c0,2.1-1.7,3.8-3.8,3.8h-7.3c-1.5,0-1.7,0.7-1.7,1.3v2.4h4.2c0.9,0,1.6,0.7,1.6,1.6
			s-0.7,1.6-1.6,1.6h-21.4c-0.9,0-1.6-0.7-1.6-1.6s0.7-1.6,1.6-1.6h4.2v-2.4c0-0.6-0.2-1.3-1.7-1.3h-7.3c-2.1,0-3.8-1.7-3.8-3.8
			V26.1c0-2.1,1.7-3.8,3.8-3.8h30.7c2.1,0,3.8,1.7,3.8,3.8V46.9z"/>
	</g>
	<g>
		<path fill="#BDDAEF" d="M534.3,163.8h-30.7c-0.3,0-0.5,0.2-0.5,0.5v20.8c0,0.3,0.2,0.5,0.5,0.5h30.7c0.3,0,0.5-0.2,0.5-0.5v-20.8
			C534.9,164,534.7,163.8,534.3,163.8z M504.9,184.1v-18.7H533L504.9,184.1z"/>
		<path fill="#BDDAEF" d="M519.4,146.7c-16.9,0-30.6,13.7-30.6,30.6s13.7,30.6,30.6,30.6c16.9,0,30.6-13.7,30.6-30.6
			S536.3,146.7,519.4,146.7z M538.2,185.1c0,2.1-1.7,3.8-3.8,3.8h-7.3c-1.5,0-1.7,0.7-1.7,1.3v2.4h4.2c0.9,0,1.6,0.7,1.6,1.6
			c0,0.9-0.7,1.6-1.6,1.6h-21.4c-0.9,0-1.6-0.7-1.6-1.6c0-0.9,0.7-1.6,1.6-1.6h4.2v-2.4c0-0.6-0.2-1.3-1.7-1.3h-7.3
			c-2.1,0-3.8-1.7-3.8-3.8v-20.8c0-2.1,1.7-3.8,3.8-3.8h30.7c2.1,0,3.8,1.7,3.8,3.8V185.1z"/>
	</g>
</g>
<g>
	<path fill="#BDDAEF" d="M450.3,8.5c-17,0-30.8,13.8-30.8,30.8S433.3,70,450.3,70S481,56.2,481,39.3S467.3,8.5,450.3,8.5z
		 M467.1,28.5c-2.1,0-4.2,0-6.3,0c-0.5,0-2-0.2-2.3,0.1c-0.3,0.4-0.1,2.4-0.1,3c-0.2,3.8-0.8,7.5-1,11.3c-0.1,2.7-0.5,7.7,2.8,8.9
		c1.4,0.5,3.1,0.2,4.2-0.9c0.6-0.6,1-1.4,1.2-2.2c0.1-0.3,0-1.2,0.2-1.4c0.2-0.2,1.2,0,1.4,0c0,3.7-1.8,8.3-5.4,9.8
		c-3.8,1.6-8.2-0.3-9.4-4.2c-0.6-2-0.4-4.2-0.3-6.2c0.1-2,0.3-4.1,0.5-6.1c0.4-4.1,0.9-8.2,1.1-12.3c-1.6,0-3.2,0-4.8,0
		c-0.7,0-1.4,0-2.1,0c-1.3,0-1.1,0-1.2,1.3c-0.2,2.7-0.5,5.5-0.7,8.3c-0.3,3-0.5,6-0.9,9c-0.3,2.9-0.7,6.2-2.2,8.7
		c-1.3,2-4,2.9-6.1,1.4c-1-0.7-1.6-1.8-1.7-3c-0.1-1.5,0.9-2.7,1.7-3.9c1.7-2.4,3.3-4.9,4.4-7.7c1.1-3,1.7-6.1,2-9.2
		c0.1-0.9,0.2-1.7,0.2-2.6c0-0.4,0.3-1.9,0.1-2.2c-0.2-0.3-1.9-0.1-2.2-0.1c-0.9,0-1.7,0.1-2.6,0.3c-1.3,0.4-2.4,1.1-3.3,2.2
		c-0.5,0.7-0.9,1.5-1.4,2.2c-0.5,0.8-0.8,0.6-1.7,0.5c1.1-3.1,2.1-7.8,5.5-9.3c3.4-1.5,8-1.3,11.7-1.3c4.3,0,8.6,0,12.9,0
		c1.1,0,2.1,0,3.2,0c0.4,0,2.6-0.2,2.8,0c0.3,0.3,0,2.5,0,2.9C467.1,26.7,467.1,27.6,467.1,28.5z"/>
	<path fill="#BDDAEF" d="M450.3,146.9c-17,0-30.8,13.8-30.8,30.8s13.8,30.8,30.8,30.8s30.8-13.8,30.8-30.8S467.3,146.9,450.3,146.9z
		 M467.1,166.8c-2.1,0-4.2,0-6.3,0c-0.5,0-2-0.2-2.3,0.1c-0.3,0.4-0.1,2.4-0.1,3c-0.2,3.8-0.8,7.5-1,11.3c-0.1,2.7-0.5,7.7,2.8,8.9
		c1.4,0.5,3.1,0.2,4.2-0.9c0.6-0.6,1-1.4,1.2-2.2c0.1-0.3,0-1.2,0.2-1.4c0.2-0.2,1.2,0,1.4,0c0,3.7-1.8,8.3-5.4,9.8
		c-3.8,1.6-8.2-0.3-9.4-4.2c-0.6-2-0.4-4.2-0.3-6.2c0.1-2,0.3-4.1,0.5-6.1c0.4-4.1,0.9-8.2,1.1-12.3c-1.6,0-3.2,0-4.8,0
		c-0.7,0-1.4,0-2.1,0c-1.3,0-1.1,0-1.2,1.3c-0.2,2.7-0.5,5.5-0.7,8.3c-0.3,3-0.5,6-0.9,9c-0.3,2.9-0.7,6.2-2.2,8.7
		c-1.3,2-4,2.9-6.1,1.4c-1-0.7-1.6-1.8-1.7-3c-0.1-1.5,0.9-2.7,1.7-3.9c1.7-2.4,3.3-4.9,4.4-7.7c1.1-3,1.7-6.1,2-9.2
		c0.1-0.9,0.2-1.7,0.2-2.6c0-0.4,0.3-1.9,0.1-2.2c-0.2-0.3-1.9-0.1-2.2-0.1c-0.9,0-1.7,0.1-2.6,0.3c-1.3,0.4-2.4,1.1-3.3,2.2
		c-0.5,0.7-0.9,1.5-1.4,2.2c-0.5,0.8-0.8,0.6-1.7,0.5c1.1-3.1,2.1-7.8,5.5-9.3c3.4-1.5,8-1.3,11.7-1.3c4.3,0,8.6,0,12.9,0
		c1.1,0,2.1,0,3.2,0c0.4,0,2.6-0.2,2.8,0c0.3,0.3,0,2.5,0,2.9C467.1,165.1,467.1,166,467.1,166.8z"/>
	<g>
		<path fill="#BDDAEF" d="M465.2,94.9h-30.7c-0.3,0-0.5,0.2-0.5,0.5v20.8c0,0.3,0.2,0.5,0.5,0.5h30.7c0.3,0,0.5-0.2,0.5-0.5V95.5
			C465.7,95.2,465.5,94.9,465.2,94.9z M435.8,115.2V96.5h28.1L435.8,115.2z"/>
		<path fill="#BDDAEF" d="M450.3,77.8c-16.9,0-30.6,13.7-30.6,30.6s13.7,30.6,30.6,30.6s30.6-13.7,30.6-30.6S467.2,77.8,450.3,77.8z
			 M469,116.2c0,2.1-1.7,3.8-3.8,3.8h-7.3c-1.5,0-1.7,0.7-1.7,1.3v2.4h4.2c0.9,0,1.6,0.7,1.6,1.6c0,0.9-0.7,1.6-1.6,1.6h-21.4
			c-0.9,0-1.6-0.7-1.6-1.6c0-0.9,0.7-1.6,1.6-1.6h4.2v-2.4c0-0.6-0.2-1.3-1.7-1.3h-7.3c-2.1,0-3.8-1.7-3.8-3.8V95.5
			c0-2.1,1.7-3.8,3.8-3.8h30.7c2.1,0,3.8,1.7,3.8,3.8V116.2z"/>
	</g>
</g>
<g>
	<path fill="#BDDAEF" d="M657.7,77.4c-17,0-30.8,13.8-30.8,30.8s13.8,30.8,30.8,30.8s30.8-13.8,30.8-30.8S674.7,77.4,657.7,77.4z
		 M674.5,97.4c-2.1,0-4.2,0-6.3,0c-0.5,0-2-0.2-2.3,0.1c-0.3,0.4-0.1,2.4-0.1,3c-0.2,3.8-0.8,7.5-1,11.3c-0.1,2.7-0.5,7.7,2.8,8.9
		c1.4,0.5,3.1,0.2,4.2-0.9c0.6-0.6,1-1.4,1.2-2.2c0.1-0.3,0-1.2,0.2-1.4c0.2-0.2,1.2,0,1.4,0c0,3.7-1.8,8.3-5.4,9.8
		c-3.8,1.6-8.2-0.3-9.4-4.2c-0.6-2-0.4-4.2-0.3-6.2c0.1-2,0.3-4.1,0.5-6.1c0.4-4.1,0.9-8.2,1.1-12.3c-1.6,0-3.2,0-4.8,0
		c-0.7,0-1.4,0-2.1,0c-1.3,0-1.1,0-1.2,1.3c-0.2,2.7-0.5,5.5-0.7,8.3c-0.3,3-0.5,6-0.9,9c-0.3,2.9-0.7,6.2-2.2,8.7
		c-1.3,2-4,2.9-6.1,1.4c-1-0.7-1.6-1.8-1.7-3c-0.1-1.5,0.9-2.7,1.7-3.9c1.7-2.4,3.3-4.9,4.4-7.7c1.1-3,1.7-6.1,2-9.2
		c0.1-0.9,0.2-1.7,0.2-2.6c0-0.4,0.3-1.9,0.1-2.2c-0.2-0.3-1.9-0.1-2.2-0.1c-0.9,0-1.7,0.1-2.6,0.3c-1.3,0.4-2.4,1.1-3.3,2.2
		c-0.5,0.7-0.9,1.5-1.4,2.2c-0.5,0.8-0.8,0.6-1.7,0.5c1.1-3.1,2.1-7.8,5.5-9.3c3.4-1.5,8-1.3,11.7-1.3c4.3,0,8.6,0,12.9,0
		c1.1,0,2.1,0,3.2,0c0.4,0,2.6-0.2,2.8,0c0.3,0.3,0,2.5,0,2.9C674.5,95.7,674.5,96.6,674.5,97.4z"/>
	<g>
		<path fill="#BDDAEF" d="M672.6,25.6h-30.7c-0.3,0-0.5,0.2-0.5,0.5v20.8c0,0.3,0.2,0.5,0.5,0.5h30.7c0.3,0,0.5-0.2,0.5-0.5V26.1
			C673.2,25.8,672.9,25.6,672.6,25.6z M643.2,45.9V27.2h28.1L643.2,45.9z"/>
		<path fill="#BDDAEF" d="M657.7,8.5c-16.9,0-30.6,13.7-30.6,30.6s13.7,30.6,30.6,30.6s30.6-13.7,30.6-30.6S674.6,8.5,657.7,8.5z
			 M676.5,46.9c0,2.1-1.7,3.8-3.8,3.8h-7.3c-1.5,0-1.7,0.7-1.7,1.3v2.4h4.2c0.9,0,1.6,0.7,1.6,1.6s-0.7,1.6-1.6,1.6h-21.4
			c-0.9,0-1.6-0.7-1.6-1.6s0.7-1.6,1.6-1.6h4.2v-2.4c0-0.6-0.2-1.3-1.7-1.3h-7.3c-2.1,0-3.8-1.7-3.8-3.8V26.1c0-2.1,1.7-3.8,3.8-3.8
			h30.7c2.1,0,3.8,1.7,3.8,3.8V46.9z"/>
	</g>
	<g>
		<path fill="#BDDAEF" d="M672.6,163.8h-30.7c-0.3,0-0.5,0.2-0.5,0.5v20.8c0,0.3,0.2,0.5,0.5,0.5h30.7c0.3,0,0.5-0.2,0.5-0.5v-20.8
			C673.2,164,672.9,163.8,672.6,163.8z M643.2,184.1v-18.7h28.1L643.2,184.1z"/>
		<path fill="#BDDAEF" d="M657.7,146.7c-16.9,0-30.6,13.7-30.6,30.6s13.7,30.6,30.6,30.6s30.6-13.7,30.6-30.6
			S674.6,146.7,657.7,146.7z M676.5,185.1c0,2.1-1.7,3.8-3.8,3.8h-7.3c-1.5,0-1.7,0.7-1.7,1.3v2.4h4.2c0.9,0,1.6,0.7,1.6,1.6
			c0,0.9-0.7,1.6-1.6,1.6h-21.4c-0.9,0-1.6-0.7-1.6-1.6c0-0.9,0.7-1.6,1.6-1.6h4.2v-2.4c0-0.6-0.2-1.3-1.7-1.3h-7.3
			c-2.1,0-3.8-1.7-3.8-3.8v-20.8c0-2.1,1.7-3.8,3.8-3.8h30.7c2.1,0,3.8,1.7,3.8,3.8V185.1z"/>
	</g>
</g>
<g>
	<path fill="#BDDAEF" d="M588.6,8.5c-17,0-30.8,13.8-30.8,30.8S571.6,70,588.6,70c17,0,30.8-13.8,30.8-30.8S605.5,8.5,588.6,8.5z
		 M605.3,28.5c-2.1,0-4.2,0-6.3,0c-0.5,0-2-0.2-2.3,0.1c-0.3,0.4-0.1,2.4-0.1,3c-0.2,3.8-0.8,7.5-1,11.3c-0.1,2.7-0.5,7.7,2.8,8.9
		c1.4,0.5,3.1,0.2,4.2-0.9c0.6-0.6,1-1.4,1.2-2.2c0.1-0.3,0-1.2,0.2-1.4c0.2-0.2,1.2,0,1.4,0c0,3.7-1.8,8.3-5.4,9.8
		c-3.8,1.6-8.2-0.3-9.4-4.2c-0.6-2-0.4-4.2-0.3-6.2c0.1-2,0.3-4.1,0.5-6.1c0.4-4.1,0.9-8.2,1.1-12.3c-1.6,0-3.2,0-4.8,0
		c-0.7,0-1.4,0-2.1,0c-1.3,0-1.1,0-1.2,1.3c-0.2,2.7-0.5,5.5-0.7,8.3c-0.3,3-0.5,6-0.9,9c-0.3,2.9-0.7,6.2-2.2,8.7
		c-1.3,2-4,2.9-6.1,1.4c-1-0.7-1.6-1.8-1.7-3c-0.1-1.5,0.9-2.7,1.7-3.9c1.7-2.4,3.3-4.9,4.4-7.7c1.1-3,1.7-6.1,2-9.2
		c0.1-0.9,0.2-1.7,0.2-2.6c0-0.4,0.3-1.9,0.1-2.2c-0.2-0.3-1.9-0.1-2.2-0.1c-0.9,0-1.7,0.1-2.6,0.3c-1.3,0.4-2.4,1.1-3.3,2.2
		c-0.5,0.7-0.9,1.5-1.4,2.2c-0.5,0.8-0.8,0.6-1.7,0.5c1.1-3.1,2.1-7.8,5.5-9.3c3.4-1.5,8-1.3,11.7-1.3c4.3,0,8.6,0,12.9,0
		c1.1,0,2.1,0,3.2,0c0.4,0,2.6-0.2,2.8,0c0.3,0.3,0,2.5,0,2.9C605.3,26.7,605.3,27.6,605.3,28.5z"/>
	<path fill="#BDDAEF" d="M588.6,146.9c-17,0-30.8,13.8-30.8,30.8s13.8,30.8,30.8,30.8c17,0,30.8-13.8,30.8-30.8
		S605.5,146.9,588.6,146.9z M605.3,166.8c-2.1,0-4.2,0-6.3,0c-0.5,0-2-0.2-2.3,0.1c-0.3,0.4-0.1,2.4-0.1,3c-0.2,3.8-0.8,7.5-1,11.3
		c-0.1,2.7-0.5,7.7,2.8,8.9c1.4,0.5,3.1,0.2,4.2-0.9c0.6-0.6,1-1.4,1.2-2.2c0.1-0.3,0-1.2,0.2-1.4c0.2-0.2,1.2,0,1.4,0
		c0,3.7-1.8,8.3-5.4,9.8c-3.8,1.6-8.2-0.3-9.4-4.2c-0.6-2-0.4-4.2-0.3-6.2c0.1-2,0.3-4.1,0.5-6.1c0.4-4.1,0.9-8.2,1.1-12.3
		c-1.6,0-3.2,0-4.8,0c-0.7,0-1.4,0-2.1,0c-1.3,0-1.1,0-1.2,1.3c-0.2,2.7-0.5,5.5-0.7,8.3c-0.3,3-0.5,6-0.9,9
		c-0.3,2.9-0.7,6.2-2.2,8.7c-1.3,2-4,2.9-6.1,1.4c-1-0.7-1.6-1.8-1.7-3c-0.1-1.5,0.9-2.7,1.7-3.9c1.7-2.4,3.3-4.9,4.4-7.7
		c1.1-3,1.7-6.1,2-9.2c0.1-0.9,0.2-1.7,0.2-2.6c0-0.4,0.3-1.9,0.1-2.2c-0.2-0.3-1.9-0.1-2.2-0.1c-0.9,0-1.7,0.1-2.6,0.3
		c-1.3,0.4-2.4,1.1-3.3,2.2c-0.5,0.7-0.9,1.5-1.4,2.2c-0.5,0.8-0.8,0.6-1.7,0.5c1.1-3.1,2.1-7.8,5.5-9.3c3.4-1.5,8-1.3,11.7-1.3
		c4.3,0,8.6,0,12.9,0c1.1,0,2.1,0,3.2,0c0.4,0,2.6-0.2,2.8,0c0.3,0.3,0,2.5,0,2.9C605.3,165.1,605.3,166,605.3,166.8z"/>
	<g>
		<path fill="#BDDAEF" d="M603.5,94.9h-30.7c-0.3,0-0.5,0.2-0.5,0.5v20.8c0,0.3,0.2,0.5,0.5,0.5h30.7c0.3,0,0.5-0.2,0.5-0.5V95.5
			C604,95.2,603.8,94.9,603.5,94.9z M574.1,115.2V96.5h28.1L574.1,115.2z"/>
		<path fill="#BDDAEF" d="M588.6,77.8c-16.9,0-30.6,13.7-30.6,30.6s13.7,30.6,30.6,30.6c16.9,0,30.6-13.7,30.6-30.6
			S605.5,77.8,588.6,77.8z M607.3,116.2c0,2.1-1.7,3.8-3.8,3.8h-7.3c-1.5,0-1.7,0.7-1.7,1.3v2.4h4.2c0.9,0,1.6,0.7,1.6,1.6
			c0,0.9-0.7,1.6-1.6,1.6h-21.4c-0.9,0-1.6-0.7-1.6-1.6c0-0.9,0.7-1.6,1.6-1.6h4.2v-2.4c0-0.6-0.2-1.3-1.7-1.3h-7.3
			c-2.1,0-3.8-1.7-3.8-3.8V95.5c0-2.1,1.7-3.8,3.8-3.8h30.7c2.1,0,3.8,1.7,3.8,3.8V116.2z"/>
	</g>
</g>
<g>
	<path fill="#BDDAEF" d="M796,77.4c-17,0-30.8,13.8-30.8,30.8S779,139,796,139c17,0,30.8-13.8,30.8-30.8S813,77.4,796,77.4z
		 M812.8,97.4c-2.1,0-4.2,0-6.3,0c-0.5,0-2-0.2-2.3,0.1c-0.3,0.4-0.1,2.4-0.1,3c-0.2,3.8-0.8,7.5-1,11.3c-0.1,2.7-0.5,7.7,2.8,8.9
		c1.4,0.5,3.1,0.2,4.2-0.9c0.6-0.6,1-1.4,1.2-2.2c0.1-0.3,0-1.2,0.2-1.4c0.2-0.2,1.2,0,1.4,0c0,3.7-1.8,8.3-5.4,9.8
		c-3.8,1.6-8.2-0.3-9.4-4.2c-0.6-2-0.4-4.2-0.3-6.2c0.1-2,0.3-4.1,0.5-6.1c0.4-4.1,0.9-8.2,1.1-12.3c-1.6,0-3.2,0-4.8,0
		c-0.7,0-1.4,0-2.1,0c-1.3,0-1.1,0-1.2,1.3c-0.2,2.7-0.5,5.5-0.7,8.3c-0.3,3-0.5,6-0.9,9c-0.3,2.9-0.7,6.2-2.2,8.7
		c-1.3,2-4,2.9-6.1,1.4c-1-0.7-1.6-1.8-1.7-3c-0.1-1.5,0.9-2.7,1.7-3.9c1.7-2.4,3.3-4.9,4.4-7.7c1.1-3,1.7-6.1,2-9.2
		c0.1-0.9,0.2-1.7,0.2-2.6c0-0.4,0.3-1.9,0.1-2.2c-0.2-0.3-1.9-0.1-2.2-0.1c-0.9,0-1.7,0.1-2.6,0.3c-1.3,0.4-2.4,1.1-3.3,2.2
		c-0.5,0.7-0.9,1.5-1.4,2.2c-0.5,0.8-0.8,0.6-1.7,0.5c1.1-3.1,2.1-7.8,5.5-9.3c3.4-1.5,8-1.3,11.7-1.3c4.3,0,8.6,0,12.9,0
		c1.1,0,2.1,0,3.2,0c0.4,0,2.6-0.2,2.8,0c0.3,0.3,0,2.5,0,2.9C812.8,95.7,812.8,96.6,812.8,97.4z"/>
	<g>
		<path fill="#BDDAEF" d="M810.9,25.6h-30.7c-0.3,0-0.5,0.2-0.5,0.5v20.8c0,0.3,0.2,0.5,0.5,0.5h30.7c0.3,0,0.5-0.2,0.5-0.5V26.1
			C811.5,25.8,811.2,25.6,810.9,25.6z M781.5,45.9V27.2h28.1L781.5,45.9z"/>
		<path fill="#BDDAEF" d="M796,8.5c-16.9,0-30.6,13.7-30.6,30.6s13.7,30.6,30.6,30.6c16.9,0,30.6-13.7,30.6-30.6S812.9,8.5,796,8.5z
			 M814.8,46.9c0,2.1-1.7,3.8-3.8,3.8h-7.3c-1.5,0-1.7,0.7-1.7,1.3v2.4h4.2c0.9,0,1.6,0.7,1.6,1.6s-0.7,1.6-1.6,1.6h-21.4
			c-0.9,0-1.6-0.7-1.6-1.6s0.7-1.6,1.6-1.6h4.2v-2.4c0-0.6-0.2-1.3-1.7-1.3h-7.3c-2.1,0-3.8-1.7-3.8-3.8V26.1c0-2.1,1.7-3.8,3.8-3.8
			h30.7c2.1,0,3.8,1.7,3.8,3.8V46.9z"/>
	</g>
	<g>
		<path fill="#BDDAEF" d="M810.9,163.8h-30.7c-0.3,0-0.5,0.2-0.5,0.5v20.8c0,0.3,0.2,0.5,0.5,0.5h30.7c0.3,0,0.5-0.2,0.5-0.5v-20.8
			C811.5,164,811.2,163.8,810.9,163.8z M781.5,184.1v-18.7h28.1L781.5,184.1z"/>
		<path fill="#BDDAEF" d="M796,146.7c-16.9,0-30.6,13.7-30.6,30.6s13.7,30.6,30.6,30.6c16.9,0,30.6-13.7,30.6-30.6
			S812.9,146.7,796,146.7z M814.8,185.1c0,2.1-1.7,3.8-3.8,3.8h-7.3c-1.5,0-1.7,0.7-1.7,1.3v2.4h4.2c0.9,0,1.6,0.7,1.6,1.6
			c0,0.9-0.7,1.6-1.6,1.6h-21.4c-0.9,0-1.6-0.7-1.6-1.6c0-0.9,0.7-1.6,1.6-1.6h4.2v-2.4c0-0.6-0.2-1.3-1.7-1.3h-7.3
			c-2.1,0-3.8-1.7-3.8-3.8v-20.8c0-2.1,1.7-3.8,3.8-3.8h30.7c2.1,0,3.8,1.7,3.8,3.8V185.1z"/>
	</g>
</g>
<g>
	<path fill="#BDDAEF" d="M726.8,8.5c-17,0-30.8,13.8-30.8,30.8S709.9,70,726.8,70c17,0,30.8-13.8,30.8-30.8S743.8,8.5,726.8,8.5z
		 M743.6,28.5c-2.1,0-4.2,0-6.3,0c-0.5,0-2-0.2-2.3,0.1c-0.3,0.4-0.1,2.4-0.1,3c-0.2,3.8-0.8,7.5-1,11.3c-0.1,2.7-0.5,7.7,2.8,8.9
		c1.4,0.5,3.1,0.2,4.2-0.9c0.6-0.6,1-1.4,1.2-2.2c0.1-0.3,0-1.2,0.2-1.4c0.2-0.2,1.2,0,1.4,0c0,3.7-1.8,8.3-5.4,9.8
		c-3.8,1.6-8.2-0.3-9.4-4.2c-0.6-2-0.4-4.2-0.3-6.2c0.1-2,0.3-4.1,0.5-6.1c0.4-4.1,0.9-8.2,1.1-12.3c-1.6,0-3.2,0-4.8,0
		c-0.7,0-1.4,0-2.1,0c-1.3,0-1.1,0-1.2,1.3c-0.2,2.7-0.5,5.5-0.7,8.3c-0.3,3-0.5,6-0.9,9c-0.3,2.9-0.7,6.2-2.2,8.7
		c-1.3,2-4,2.9-6.1,1.4c-1-0.7-1.6-1.8-1.7-3c-0.1-1.5,0.9-2.7,1.7-3.9c1.7-2.4,3.3-4.9,4.4-7.7c1.1-3,1.7-6.1,2-9.2
		c0.1-0.9,0.2-1.7,0.2-2.6c0-0.4,0.3-1.9,0.1-2.2c-0.2-0.3-1.9-0.1-2.2-0.1c-0.9,0-1.7,0.1-2.6,0.3c-1.3,0.4-2.4,1.1-3.3,2.2
		c-0.5,0.7-0.9,1.5-1.4,2.2c-0.5,0.8-0.8,0.6-1.7,0.5c1.1-3.1,2.1-7.8,5.5-9.3c3.4-1.5,8-1.3,11.7-1.3c4.3,0,8.6,0,12.9,0
		c1.1,0,2.1,0,3.2,0c0.4,0,2.6-0.2,2.8,0c0.3,0.3,0,2.5,0,2.9C743.6,26.7,743.6,27.6,743.6,28.5z"/>
	<path fill="#BDDAEF" d="M726.8,146.9c-17,0-30.8,13.8-30.8,30.8s13.8,30.8,30.8,30.8c17,0,30.8-13.8,30.8-30.8
		S743.8,146.9,726.8,146.9z M743.6,166.8c-2.1,0-4.2,0-6.3,0c-0.5,0-2-0.2-2.3,0.1c-0.3,0.4-0.1,2.4-0.1,3c-0.2,3.8-0.8,7.5-1,11.3
		c-0.1,2.7-0.5,7.7,2.8,8.9c1.4,0.5,3.1,0.2,4.2-0.9c0.6-0.6,1-1.4,1.2-2.2c0.1-0.3,0-1.2,0.2-1.4c0.2-0.2,1.2,0,1.4,0
		c0,3.7-1.8,8.3-5.4,9.8c-3.8,1.6-8.2-0.3-9.4-4.2c-0.6-2-0.4-4.2-0.3-6.2c0.1-2,0.3-4.1,0.5-6.1c0.4-4.1,0.9-8.2,1.1-12.3
		c-1.6,0-3.2,0-4.8,0c-0.7,0-1.4,0-2.1,0c-1.3,0-1.1,0-1.2,1.3c-0.2,2.7-0.5,5.5-0.7,8.3c-0.3,3-0.5,6-0.9,9
		c-0.3,2.9-0.7,6.2-2.2,8.7c-1.3,2-4,2.9-6.1,1.4c-1-0.7-1.6-1.8-1.7-3c-0.1-1.5,0.9-2.7,1.7-3.9c1.7-2.4,3.3-4.9,4.4-7.7
		c1.1-3,1.7-6.1,2-9.2c0.1-0.9,0.2-1.7,0.2-2.6c0-0.4,0.3-1.9,0.1-2.2c-0.2-0.3-1.9-0.1-2.2-0.1c-0.9,0-1.7,0.1-2.6,0.3
		c-1.3,0.4-2.4,1.1-3.3,2.2c-0.5,0.7-0.9,1.5-1.4,2.2c-0.5,0.8-0.8,0.6-1.7,0.5c1.1-3.1,2.1-7.8,5.5-9.3c3.4-1.5,8-1.3,11.7-1.3
		c4.3,0,8.6,0,12.9,0c1.1,0,2.1,0,3.2,0c0.4,0,2.6-0.2,2.8,0c0.3,0.3,0,2.5,0,2.9C743.6,165.1,743.6,166,743.6,166.8z"/>
	<g>
		<path fill="#BDDAEF" d="M741.8,94.9H711c-0.3,0-0.5,0.2-0.5,0.5v20.8c0,0.3,0.2,0.5,0.5,0.5h30.7c0.3,0,0.5-0.2,0.5-0.5V95.5
			C742.3,95.2,742.1,94.9,741.8,94.9z M712.4,115.2V96.5h28.1L712.4,115.2z"/>
		<path fill="#BDDAEF" d="M726.8,77.8c-16.9,0-30.6,13.7-30.6,30.6S710,139,726.8,139c16.9,0,30.6-13.7,30.6-30.6
			S743.7,77.8,726.8,77.8z M745.6,116.2c0,2.1-1.7,3.8-3.8,3.8h-7.3c-1.5,0-1.7,0.7-1.7,1.3v2.4h4.2c0.9,0,1.6,0.7,1.6,1.6
			c0,0.9-0.7,1.6-1.6,1.6h-21.4c-0.9,0-1.6-0.7-1.6-1.6c0-0.9,0.7-1.6,1.6-1.6h4.2v-2.4c0-0.6-0.2-1.3-1.7-1.3H711
			c-2.1,0-3.8-1.7-3.8-3.8V95.5c0-2.1,1.7-3.8,3.8-3.8h30.7c2.1,0,3.8,1.7,3.8,3.8V116.2z"/>
	</g>
</g>
<g>
	<path fill="#BDDAEF" d="M934.3,77.4c-17,0-30.8,13.8-30.8,30.8s13.8,30.8,30.8,30.8c17,0,30.8-13.8,30.8-30.8
		S951.3,77.4,934.3,77.4z M951.1,97.4c-2.1,0-4.2,0-6.3,0c-0.5,0-2-0.2-2.3,0.1c-0.3,0.4-0.1,2.4-0.1,3c-0.2,3.8-0.8,7.5-1,11.3
		c-0.1,2.7-0.5,7.7,2.8,8.9c1.4,0.5,3.1,0.2,4.2-0.9c0.6-0.6,1-1.4,1.2-2.2c0.1-0.3,0-1.2,0.2-1.4c0.2-0.2,1.2,0,1.4,0
		c0,3.7-1.8,8.3-5.4,9.8c-3.8,1.6-8.2-0.3-9.4-4.2c-0.6-2-0.4-4.2-0.3-6.2c0.1-2,0.3-4.1,0.5-6.1c0.4-4.1,0.9-8.2,1.1-12.3
		c-1.6,0-3.2,0-4.8,0c-0.7,0-1.4,0-2.1,0c-1.3,0-1.1,0-1.2,1.3c-0.2,2.7-0.5,5.5-0.7,8.3c-0.3,3-0.5,6-0.9,9
		c-0.3,2.9-0.7,6.2-2.2,8.7c-1.3,2-4,2.9-6.1,1.4c-1-0.7-1.6-1.8-1.7-3c-0.1-1.5,0.9-2.7,1.7-3.9c1.7-2.4,3.3-4.9,4.4-7.7
		c1.1-3,1.7-6.1,2-9.2c0.1-0.9,0.2-1.7,0.2-2.6c0-0.4,0.3-1.9,0.1-2.2c-0.2-0.3-1.9-0.1-2.2-0.1c-0.9,0-1.7,0.1-2.6,0.3
		c-1.3,0.4-2.4,1.1-3.3,2.2c-0.5,0.7-0.9,1.5-1.4,2.2c-0.5,0.8-0.8,0.6-1.7,0.5c1.1-3.1,2.1-7.8,5.5-9.3c3.4-1.5,8-1.3,11.7-1.3
		c4.3,0,8.6,0,12.9,0c1.1,0,2.1,0,3.2,0c0.4,0,2.6-0.2,2.8,0c0.3,0.3,0,2.5,0,2.9C951.1,95.7,951.1,96.6,951.1,97.4z"/>
	<g>
		<path fill="#BDDAEF" d="M949.2,25.6h-30.7c-0.3,0-0.5,0.2-0.5,0.5v20.8c0,0.3,0.2,0.5,0.5,0.5h30.7c0.3,0,0.5-0.2,0.5-0.5V26.1
			C949.8,25.8,949.5,25.6,949.2,25.6z M919.8,45.9V27.2h28.1L919.8,45.9z"/>
		<path fill="#BDDAEF" d="M934.3,8.5c-16.9,0-30.6,13.7-30.6,30.6s13.7,30.6,30.6,30.6c16.9,0,30.6-13.7,30.6-30.6
			S951.2,8.5,934.3,8.5z M953.1,46.9c0,2.1-1.7,3.8-3.8,3.8h-7.3c-1.5,0-1.7,0.7-1.7,1.3v2.4h4.2c0.9,0,1.6,0.7,1.6,1.6
			s-0.7,1.6-1.6,1.6h-21.4c-0.9,0-1.6-0.7-1.6-1.6s0.7-1.6,1.6-1.6h4.2v-2.4c0-0.6-0.2-1.3-1.7-1.3h-7.3c-2.1,0-3.8-1.7-3.8-3.8
			V26.1c0-2.1,1.7-3.8,3.8-3.8h30.7c2.1,0,3.8,1.7,3.8,3.8V46.9z"/>
	</g>
	<g>
		<path fill="#BDDAEF" d="M949.2,163.8h-30.7c-0.3,0-0.5,0.2-0.5,0.5v20.8c0,0.3,0.2,0.5,0.5,0.5h30.7c0.3,0,0.5-0.2,0.5-0.5v-20.8
			C949.8,164,949.5,163.8,949.2,163.8z M919.8,184.1v-18.7h28.1L919.8,184.1z"/>
		<path fill="#BDDAEF" d="M934.3,146.7c-16.9,0-30.6,13.7-30.6,30.6s13.7,30.6,30.6,30.6c16.9,0,30.6-13.7,30.6-30.6
			S951.2,146.7,934.3,146.7z M953.1,185.1c0,2.1-1.7,3.8-3.8,3.8h-7.3c-1.5,0-1.7,0.7-1.7,1.3v2.4h4.2c0.9,0,1.6,0.7,1.6,1.6
			c0,0.9-0.7,1.6-1.6,1.6h-21.4c-0.9,0-1.6-0.7-1.6-1.6c0-0.9,0.7-1.6,1.6-1.6h4.2v-2.4c0-0.6-0.2-1.3-1.7-1.3h-7.3
			c-2.1,0-3.8-1.7-3.8-3.8v-20.8c0-2.1,1.7-3.8,3.8-3.8h30.7c2.1,0,3.8,1.7,3.8,3.8V185.1z"/>
	</g>
</g>
<g>
	<path fill="#BDDAEF" d="M865.1,8.5c-17,0-30.8,13.8-30.8,30.8S848.2,70,865.1,70c17,0,30.8-13.8,30.8-30.8S882.1,8.5,865.1,8.5z
		 M881.9,28.5c-2.1,0-4.2,0-6.3,0c-0.5,0-2-0.2-2.3,0.1c-0.3,0.4-0.1,2.4-0.1,3c-0.2,3.8-0.8,7.5-1,11.3c-0.1,2.7-0.5,7.7,2.8,8.9
		c1.4,0.5,3.1,0.2,4.2-0.9c0.6-0.6,1-1.4,1.2-2.2c0.1-0.3,0-1.2,0.2-1.4s1.2,0,1.4,0c0,3.7-1.8,8.3-5.4,9.8
		c-3.8,1.6-8.2-0.3-9.4-4.2c-0.6-2-0.4-4.2-0.3-6.2c0.1-2,0.3-4.1,0.5-6.1c0.4-4.1,0.9-8.2,1.1-12.3c-1.6,0-3.2,0-4.8,0
		c-0.7,0-1.4,0-2.1,0c-1.3,0-1.1,0-1.2,1.3c-0.2,2.7-0.5,5.5-0.7,8.3c-0.3,3-0.5,6-0.9,9c-0.3,2.9-0.7,6.2-2.2,8.7
		c-1.3,2-4,2.9-6.1,1.4c-1-0.7-1.6-1.8-1.7-3c-0.1-1.5,0.9-2.7,1.7-3.9c1.7-2.4,3.3-4.9,4.4-7.7c1.1-3,1.7-6.1,2-9.2
		c0.1-0.9,0.2-1.7,0.2-2.6c0-0.4,0.3-1.9,0.1-2.2c-0.2-0.3-1.9-0.1-2.2-0.1c-0.9,0-1.7,0.1-2.6,0.3c-1.3,0.4-2.4,1.1-3.3,2.2
		c-0.5,0.7-0.9,1.5-1.4,2.2c-0.5,0.8-0.8,0.6-1.7,0.5c1.1-3.1,2.1-7.8,5.5-9.3c3.4-1.5,8-1.3,11.7-1.3c4.3,0,8.6,0,12.9,0
		c1.1,0,2.1,0,3.2,0c0.4,0,2.6-0.2,2.8,0c0.3,0.3,0,2.5,0,2.9C881.9,26.7,881.9,27.6,881.9,28.5z"/>
	<path fill="#BDDAEF" d="M865.1,146.9c-17,0-30.8,13.8-30.8,30.8s13.8,30.8,30.8,30.8c17,0,30.8-13.8,30.8-30.8
		S882.1,146.9,865.1,146.9z M881.9,166.8c-2.1,0-4.2,0-6.3,0c-0.5,0-2-0.2-2.3,0.1c-0.3,0.4-0.1,2.4-0.1,3c-0.2,3.8-0.8,7.5-1,11.3
		c-0.1,2.7-0.5,7.7,2.8,8.9c1.4,0.5,3.1,0.2,4.2-0.9c0.6-0.6,1-1.4,1.2-2.2c0.1-0.3,0-1.2,0.2-1.4s1.2,0,1.4,0
		c0,3.7-1.8,8.3-5.4,9.8c-3.8,1.6-8.2-0.3-9.4-4.2c-0.6-2-0.4-4.2-0.3-6.2c0.1-2,0.3-4.1,0.5-6.1c0.4-4.1,0.9-8.2,1.1-12.3
		c-1.6,0-3.2,0-4.8,0c-0.7,0-1.4,0-2.1,0c-1.3,0-1.1,0-1.2,1.3c-0.2,2.7-0.5,5.5-0.7,8.3c-0.3,3-0.5,6-0.9,9
		c-0.3,2.9-0.7,6.2-2.2,8.7c-1.3,2-4,2.9-6.1,1.4c-1-0.7-1.6-1.8-1.7-3c-0.1-1.5,0.9-2.7,1.7-3.9c1.7-2.4,3.3-4.9,4.4-7.7
		c1.1-3,1.7-6.1,2-9.2c0.1-0.9,0.2-1.7,0.2-2.6c0-0.4,0.3-1.9,0.1-2.2c-0.2-0.3-1.9-0.1-2.2-0.1c-0.9,0-1.7,0.1-2.6,0.3
		c-1.3,0.4-2.4,1.1-3.3,2.2c-0.5,0.7-0.9,1.5-1.4,2.2c-0.5,0.8-0.8,0.6-1.7,0.5c1.1-3.1,2.1-7.8,5.5-9.3c3.4-1.5,8-1.3,11.7-1.3
		c4.3,0,8.6,0,12.9,0c1.1,0,2.1,0,3.2,0c0.4,0,2.6-0.2,2.8,0c0.3,0.3,0,2.5,0,2.9C881.9,165.1,881.9,166,881.9,166.8z"/>
	<g>
		<path fill="#BDDAEF" d="M880.1,94.9h-30.7c-0.3,0-0.5,0.2-0.5,0.5v20.8c0,0.3,0.2,0.5,0.5,0.5h30.7c0.3,0,0.5-0.2,0.5-0.5V95.5
			C880.6,95.2,880.4,94.9,880.1,94.9z M850.7,115.2V96.5h28.1L850.7,115.2z"/>
		<path fill="#BDDAEF" d="M865.1,77.8c-16.9,0-30.6,13.7-30.6,30.6s13.7,30.6,30.6,30.6c16.9,0,30.6-13.7,30.6-30.6
			S882,77.8,865.1,77.8z M883.9,116.2c0,2.1-1.7,3.8-3.8,3.8h-7.3c-1.5,0-1.7,0.7-1.7,1.3v2.4h4.2c0.9,0,1.6,0.7,1.6,1.6
			c0,0.9-0.7,1.6-1.6,1.6H854c-0.9,0-1.6-0.7-1.6-1.6c0-0.9,0.7-1.6,1.6-1.6h4.2v-2.4c0-0.6-0.2-1.3-1.7-1.3h-7.3
			c-2.1,0-3.8-1.7-3.8-3.8V95.5c0-2.1,1.7-3.8,3.8-3.8h30.7c2.1,0,3.8,1.7,3.8,3.8V116.2z"/>
	</g>
</g>
<g>
	<path fill="#BDDAEF" d="M1072.6,77.4c-17,0-30.8,13.8-30.8,30.8s13.8,30.8,30.8,30.8c17,0,30.8-13.8,30.8-30.8
		S1089.6,77.4,1072.6,77.4z M1089.4,97.4c-2.1,0-4.2,0-6.3,0c-0.5,0-2-0.2-2.3,0.1c-0.3,0.4-0.1,2.4-0.1,3c-0.2,3.8-0.8,7.5-1,11.3
		c-0.1,2.7-0.5,7.7,2.8,8.9c1.4,0.5,3.1,0.2,4.2-0.9c0.6-0.6,1-1.4,1.2-2.2c0.1-0.3,0-1.2,0.2-1.4c0.2-0.2,1.2,0,1.4,0
		c0,3.7-1.8,8.3-5.4,9.8c-3.8,1.6-8.2-0.3-9.4-4.2c-0.6-2-0.4-4.2-0.3-6.2c0.1-2,0.3-4.1,0.5-6.1c0.4-4.1,0.9-8.2,1.1-12.3
		c-1.6,0-3.2,0-4.8,0c-0.7,0-1.4,0-2.1,0c-1.3,0-1.1,0-1.2,1.3c-0.2,2.7-0.5,5.5-0.7,8.3c-0.3,3-0.5,6-0.9,9
		c-0.3,2.9-0.7,6.2-2.2,8.7c-1.3,2-4,2.9-6.1,1.4c-1-0.7-1.6-1.8-1.7-3c-0.1-1.5,0.9-2.7,1.7-3.9c1.7-2.4,3.3-4.9,4.4-7.7
		c1.1-3,1.7-6.1,2-9.2c0.1-0.9,0.2-1.7,0.2-2.6c0-0.4,0.3-1.9,0.1-2.2c-0.2-0.3-1.9-0.1-2.2-0.1c-0.9,0-1.7,0.1-2.6,0.3
		c-1.3,0.4-2.4,1.1-3.3,2.2c-0.5,0.7-0.9,1.5-1.4,2.2c-0.5,0.8-0.8,0.6-1.7,0.5c1.1-3.1,2.1-7.8,5.5-9.3c3.4-1.5,8-1.3,11.7-1.3
		c4.3,0,8.6,0,12.9,0c1.1,0,2.1,0,3.2,0c0.4,0,2.6-0.2,2.8,0c0.3,0.3,0,2.5,0,2.9C1089.4,95.7,1089.4,96.6,1089.4,97.4z"/>
	<g>
		<path fill="#BDDAEF" d="M1087.5,25.6h-30.7c-0.3,0-0.5,0.2-0.5,0.5v20.8c0,0.3,0.2,0.5,0.5,0.5h30.7c0.3,0,0.5-0.2,0.5-0.5V26.1
			C1088,25.8,1087.8,25.6,1087.5,25.6z M1058.1,45.9V27.2h28.1L1058.1,45.9z"/>
		<path fill="#BDDAEF" d="M1072.6,8.5c-16.9,0-30.6,13.7-30.6,30.6s13.7,30.6,30.6,30.6c16.9,0,30.6-13.7,30.6-30.6
			S1089.5,8.5,1072.6,8.5z M1091.4,46.9c0,2.1-1.7,3.8-3.8,3.8h-7.3c-1.5,0-1.7,0.7-1.7,1.3v2.4h4.2c0.9,0,1.6,0.7,1.6,1.6
			s-0.7,1.6-1.6,1.6h-21.4c-0.9,0-1.6-0.7-1.6-1.6s0.7-1.6,1.6-1.6h4.2v-2.4c0-0.6-0.2-1.3-1.7-1.3h-7.3c-2.1,0-3.8-1.7-3.8-3.8
			V26.1c0-2.1,1.7-3.8,3.8-3.8h30.7c2.1,0,3.8,1.7,3.8,3.8V46.9z"/>
	</g>
	<g>
		<path fill="#BDDAEF" d="M1087.5,163.8h-30.7c-0.3,0-0.5,0.2-0.5,0.5v20.8c0,0.3,0.2,0.5,0.5,0.5h30.7c0.3,0,0.5-0.2,0.5-0.5v-20.8
			C1088,164,1087.8,163.8,1087.5,163.8z M1058.1,184.1v-18.7h28.1L1058.1,184.1z"/>
		<path fill="#BDDAEF" d="M1072.6,146.7c-16.9,0-30.6,13.7-30.6,30.6s13.7,30.6,30.6,30.6c16.9,0,30.6-13.7,30.6-30.6
			S1089.5,146.7,1072.6,146.7z M1091.4,185.1c0,2.1-1.7,3.8-3.8,3.8h-7.3c-1.5,0-1.7,0.7-1.7,1.3v2.4h4.2c0.9,0,1.6,0.7,1.6,1.6
			c0,0.9-0.7,1.6-1.6,1.6h-21.4c-0.9,0-1.6-0.7-1.6-1.6c0-0.9,0.7-1.6,1.6-1.6h4.2v-2.4c0-0.6-0.2-1.3-1.7-1.3h-7.3
			c-2.1,0-3.8-1.7-3.8-3.8v-20.8c0-2.1,1.7-3.8,3.8-3.8h30.7c2.1,0,3.8,1.7,3.8,3.8V185.1z"/>
	</g>
</g>
<g>
	<path fill="#BDDAEF" d="M1003.4,8.5c-17,0-30.8,13.8-30.8,30.8S986.4,70,1003.4,70s30.8-13.8,30.8-30.8S1020.4,8.5,1003.4,8.5z
		 M1020.2,28.5c-2.1,0-4.2,0-6.3,0c-0.5,0-2-0.2-2.3,0.1c-0.3,0.4-0.1,2.4-0.1,3c-0.2,3.8-0.8,7.5-1,11.3c-0.1,2.7-0.5,7.7,2.8,8.9
		c1.4,0.5,3.1,0.2,4.2-0.9c0.6-0.6,1-1.4,1.2-2.2c0.1-0.3,0-1.2,0.2-1.4c0.2-0.2,1.2,0,1.4,0c0,3.7-1.8,8.3-5.4,9.8
		c-3.8,1.6-8.2-0.3-9.4-4.2c-0.6-2-0.4-4.2-0.3-6.2c0.1-2,0.3-4.1,0.5-6.1c0.4-4.1,0.9-8.2,1.1-12.3c-1.6,0-3.2,0-4.8,0
		c-0.7,0-1.4,0-2.1,0c-1.3,0-1.1,0-1.2,1.3c-0.2,2.7-0.5,5.5-0.7,8.3c-0.3,3-0.5,6-0.9,9c-0.3,2.9-0.7,6.2-2.2,8.7
		c-1.3,2-4,2.9-6.1,1.4c-1-0.7-1.6-1.8-1.7-3c-0.1-1.5,0.9-2.7,1.7-3.9c1.7-2.4,3.3-4.9,4.4-7.7c1.1-3,1.7-6.1,2-9.2
		c0.1-0.9,0.2-1.7,0.2-2.6c0-0.4,0.3-1.9,0.1-2.2c-0.2-0.3-1.9-0.1-2.2-0.1c-0.9,0-1.7,0.1-2.6,0.3c-1.3,0.4-2.4,1.1-3.3,2.2
		c-0.5,0.7-0.9,1.5-1.4,2.2c-0.5,0.8-0.8,0.6-1.7,0.5c1.1-3.1,2.1-7.8,5.5-9.3c3.4-1.5,8-1.3,11.7-1.3c4.3,0,8.6,0,12.9,0
		c1.1,0,2.1,0,3.2,0c0.4,0,2.6-0.2,2.8,0c0.3,0.3,0,2.5,0,2.9C1020.2,26.7,1020.2,27.6,1020.2,28.5z"/>
	<path fill="#BDDAEF" d="M1003.4,146.9c-17,0-30.8,13.8-30.8,30.8s13.8,30.8,30.8,30.8s30.8-13.8,30.8-30.8
		S1020.4,146.9,1003.4,146.9z M1020.2,166.8c-2.1,0-4.2,0-6.3,0c-0.5,0-2-0.2-2.3,0.1c-0.3,0.4-0.1,2.4-0.1,3
		c-0.2,3.8-0.8,7.5-1,11.3c-0.1,2.7-0.5,7.7,2.8,8.9c1.4,0.5,3.1,0.2,4.2-0.9c0.6-0.6,1-1.4,1.2-2.2c0.1-0.3,0-1.2,0.2-1.4
		c0.2-0.2,1.2,0,1.4,0c0,3.7-1.8,8.3-5.4,9.8c-3.8,1.6-8.2-0.3-9.4-4.2c-0.6-2-0.4-4.2-0.3-6.2c0.1-2,0.3-4.1,0.5-6.1
		c0.4-4.1,0.9-8.2,1.1-12.3c-1.6,0-3.2,0-4.8,0c-0.7,0-1.4,0-2.1,0c-1.3,0-1.1,0-1.2,1.3c-0.2,2.7-0.5,5.5-0.7,8.3
		c-0.3,3-0.5,6-0.9,9c-0.3,2.9-0.7,6.2-2.2,8.7c-1.3,2-4,2.9-6.1,1.4c-1-0.7-1.6-1.8-1.7-3c-0.1-1.5,0.9-2.7,1.7-3.9
		c1.7-2.4,3.3-4.9,4.4-7.7c1.1-3,1.7-6.1,2-9.2c0.1-0.9,0.2-1.7,0.2-2.6c0-0.4,0.3-1.9,0.1-2.2c-0.2-0.3-1.9-0.1-2.2-0.1
		c-0.9,0-1.7,0.1-2.6,0.3c-1.3,0.4-2.4,1.1-3.3,2.2c-0.5,0.7-0.9,1.5-1.4,2.2c-0.5,0.8-0.8,0.6-1.7,0.5c1.1-3.1,2.1-7.8,5.5-9.3
		c3.4-1.5,8-1.3,11.7-1.3c4.3,0,8.6,0,12.9,0c1.1,0,2.1,0,3.2,0c0.4,0,2.6-0.2,2.8,0c0.3,0.3,0,2.5,0,2.9
		C1020.2,165.1,1020.2,166,1020.2,166.8z"/>
	<g>
		<path fill="#BDDAEF" d="M1018.4,94.9h-30.7c-0.3,0-0.5,0.2-0.5,0.5v20.8c0,0.3,0.2,0.5,0.5,0.5h30.7c0.3,0,0.5-0.2,0.5-0.5V95.5
			C1018.9,95.2,1018.7,94.9,1018.4,94.9z M989,115.2V96.5h28.1L989,115.2z"/>
		<path fill="#BDDAEF" d="M1003.4,77.8c-16.9,0-30.6,13.7-30.6,30.6s13.7,30.6,30.6,30.6s30.6-13.7,30.6-30.6
			S1020.3,77.8,1003.4,77.8z M1022.2,116.2c0,2.1-1.7,3.8-3.8,3.8h-7.3c-1.5,0-1.7,0.7-1.7,1.3v2.4h4.2c0.9,0,1.6,0.7,1.6,1.6
			c0,0.9-0.7,1.6-1.6,1.6h-21.4c-0.9,0-1.6-0.7-1.6-1.6c0-0.9,0.7-1.6,1.6-1.6h4.2v-2.4c0-0.6-0.2-1.3-1.7-1.3h-7.3
			c-2.1,0-3.8-1.7-3.8-3.8V95.5c0-2.1,1.7-3.8,3.8-3.8h30.7c2.1,0,3.8,1.7,3.8,3.8V116.2z"/>
	</g>
</g>
<g>
	<path fill="#BDDAEF" d="M1210.9,77.4c-17,0-30.8,13.8-30.8,30.8s13.8,30.8,30.8,30.8s30.8-13.8,30.8-30.8S1227.8,77.4,1210.9,77.4z
		 M1227.7,97.4c-2.1,0-4.2,0-6.3,0c-0.5,0-2-0.2-2.3,0.1c-0.3,0.4-0.1,2.4-0.1,3c-0.2,3.8-0.8,7.5-1,11.3c-0.1,2.7-0.5,7.7,2.8,8.9
		c1.4,0.5,3.1,0.2,4.2-0.9c0.6-0.6,1-1.4,1.2-2.2c0.1-0.3,0-1.2,0.2-1.4c0.2-0.2,1.2,0,1.4,0c0,3.7-1.8,8.3-5.4,9.8
		c-3.8,1.6-8.2-0.3-9.4-4.2c-0.6-2-0.4-4.2-0.3-6.2c0.1-2,0.3-4.1,0.5-6.1c0.4-4.1,0.9-8.2,1.1-12.3c-1.6,0-3.2,0-4.8,0
		c-0.7,0-1.4,0-2.1,0c-1.3,0-1.1,0-1.2,1.3c-0.2,2.7-0.5,5.5-0.7,8.3c-0.3,3-0.5,6-0.9,9c-0.3,2.9-0.7,6.2-2.2,8.7
		c-1.3,2-4,2.9-6.1,1.4c-1-0.7-1.6-1.8-1.7-3c-0.1-1.5,0.9-2.7,1.7-3.9c1.7-2.4,3.3-4.9,4.4-7.7c1.1-3,1.7-6.1,2-9.2
		c0.1-0.9,0.2-1.7,0.2-2.6c0-0.4,0.3-1.9,0.1-2.2c-0.2-0.3-1.9-0.1-2.2-0.1c-0.9,0-1.7,0.1-2.6,0.3c-1.3,0.4-2.4,1.1-3.3,2.2
		c-0.5,0.7-0.9,1.5-1.4,2.2c-0.5,0.8-0.8,0.6-1.7,0.5c1.1-3.1,2.1-7.8,5.5-9.3c3.4-1.5,8-1.3,11.7-1.3c4.3,0,8.6,0,12.9,0
		c1.1,0,2.1,0,3.2,0c0.4,0,2.6-0.2,2.8,0c0.3,0.3,0,2.5,0,2.9C1227.7,95.7,1227.7,96.6,1227.7,97.4z"/>
	<g>
		<path fill="#BDDAEF" d="M1225.8,25.6h-30.7c-0.3,0-0.5,0.2-0.5,0.5v20.8c0,0.3,0.2,0.5,0.5,0.5h30.7c0.3,0,0.5-0.2,0.5-0.5V26.1
			C1226.3,25.8,1226.1,25.6,1225.8,25.6z M1196.4,45.9V27.2h28.1L1196.4,45.9z"/>
		<path fill="#BDDAEF" d="M1210.9,8.5c-16.9,0-30.6,13.7-30.6,30.6s13.7,30.6,30.6,30.6s30.6-13.7,30.6-30.6S1227.8,8.5,1210.9,8.5z
			 M1229.6,46.9c0,2.1-1.7,3.8-3.8,3.8h-7.3c-1.5,0-1.7,0.7-1.7,1.3v2.4h4.2c0.9,0,1.6,0.7,1.6,1.6s-0.7,1.6-1.6,1.6h-21.4
			c-0.9,0-1.6-0.7-1.6-1.6s0.7-1.6,1.6-1.6h4.2v-2.4c0-0.6-0.2-1.3-1.7-1.3h-7.3c-2.1,0-3.8-1.7-3.8-3.8V26.1c0-2.1,1.7-3.8,3.8-3.8
			h30.7c2.1,0,3.8,1.7,3.8,3.8V46.9z"/>
	</g>
	<g>
		<path fill="#BDDAEF" d="M1225.8,163.8h-30.7c-0.3,0-0.5,0.2-0.5,0.5v20.8c0,0.3,0.2,0.5,0.5,0.5h30.7c0.3,0,0.5-0.2,0.5-0.5v-20.8
			C1226.3,164,1226.1,163.8,1225.8,163.8z M1196.4,184.1v-18.7h28.1L1196.4,184.1z"/>
		<path fill="#BDDAEF" d="M1210.9,146.7c-16.9,0-30.6,13.7-30.6,30.6s13.7,30.6,30.6,30.6s30.6-13.7,30.6-30.6
			S1227.8,146.7,1210.9,146.7z M1229.6,185.1c0,2.1-1.7,3.8-3.8,3.8h-7.3c-1.5,0-1.7,0.7-1.7,1.3v2.4h4.2c0.9,0,1.6,0.7,1.6,1.6
			c0,0.9-0.7,1.6-1.6,1.6h-21.4c-0.9,0-1.6-0.7-1.6-1.6c0-0.9,0.7-1.6,1.6-1.6h4.2v-2.4c0-0.6-0.2-1.3-1.7-1.3h-7.3
			c-2.1,0-3.8-1.7-3.8-3.8v-20.8c0-2.1,1.7-3.8,3.8-3.8h30.7c2.1,0,3.8,1.7,3.8,3.8V185.1z"/>
	</g>
</g>
<g>
	<path fill="#BDDAEF" d="M1141.7,8.5c-17,0-30.8,13.8-30.8,30.8s13.8,30.8,30.8,30.8s30.8-13.8,30.8-30.8S1158.7,8.5,1141.7,8.5z
		 M1158.5,28.5c-2.1,0-4.2,0-6.3,0c-0.5,0-2-0.2-2.3,0.1c-0.3,0.4-0.1,2.4-0.1,3c-0.2,3.8-0.8,7.5-1,11.3c-0.1,2.7-0.5,7.7,2.8,8.9
		c1.4,0.5,3.1,0.2,4.2-0.9c0.6-0.6,1-1.4,1.2-2.2c0.1-0.3,0-1.2,0.2-1.4c0.2-0.2,1.2,0,1.4,0c0,3.7-1.8,8.3-5.4,9.8
		c-3.8,1.6-8.2-0.3-9.4-4.2c-0.6-2-0.4-4.2-0.3-6.2c0.1-2,0.3-4.1,0.5-6.1c0.4-4.1,0.9-8.2,1.1-12.3c-1.6,0-3.2,0-4.8,0
		c-0.7,0-1.4,0-2.1,0c-1.3,0-1.1,0-1.2,1.3c-0.2,2.7-0.5,5.5-0.7,8.3c-0.3,3-0.5,6-0.9,9c-0.3,2.9-0.7,6.2-2.2,8.7
		c-1.3,2-4,2.9-6.1,1.4c-1-0.7-1.6-1.8-1.7-3c-0.1-1.5,0.9-2.7,1.7-3.9c1.7-2.4,3.3-4.9,4.4-7.7c1.1-3,1.7-6.1,2-9.2
		c0.1-0.9,0.2-1.7,0.2-2.6c0-0.4,0.3-1.9,0.1-2.2c-0.2-0.3-1.9-0.1-2.2-0.1c-0.9,0-1.7,0.1-2.6,0.3c-1.3,0.4-2.4,1.1-3.3,2.2
		c-0.5,0.7-0.9,1.5-1.4,2.2c-0.5,0.8-0.8,0.6-1.7,0.5c1.1-3.1,2.1-7.8,5.5-9.3c3.4-1.5,8-1.3,11.7-1.3c4.3,0,8.6,0,12.9,0
		c1.1,0,2.1,0,3.2,0c0.4,0,2.6-0.2,2.8,0c0.3,0.3,0,2.5,0,2.9C1158.5,26.7,1158.5,27.6,1158.5,28.5z"/>
	<path fill="#BDDAEF" d="M1141.7,146.9c-17,0-30.8,13.8-30.8,30.8s13.8,30.8,30.8,30.8s30.8-13.8,30.8-30.8
		S1158.7,146.9,1141.7,146.9z M1158.5,166.8c-2.1,0-4.2,0-6.3,0c-0.5,0-2-0.2-2.3,0.1c-0.3,0.4-0.1,2.4-0.1,3
		c-0.2,3.8-0.8,7.5-1,11.3c-0.1,2.7-0.5,7.7,2.8,8.9c1.4,0.5,3.1,0.2,4.2-0.9c0.6-0.6,1-1.4,1.2-2.2c0.1-0.3,0-1.2,0.2-1.4
		c0.2-0.2,1.2,0,1.4,0c0,3.7-1.8,8.3-5.4,9.8c-3.8,1.6-8.2-0.3-9.4-4.2c-0.6-2-0.4-4.2-0.3-6.2c0.1-2,0.3-4.1,0.5-6.1
		c0.4-4.1,0.9-8.2,1.1-12.3c-1.6,0-3.2,0-4.8,0c-0.7,0-1.4,0-2.1,0c-1.3,0-1.1,0-1.2,1.3c-0.2,2.7-0.5,5.5-0.7,8.3
		c-0.3,3-0.5,6-0.9,9c-0.3,2.9-0.7,6.2-2.2,8.7c-1.3,2-4,2.9-6.1,1.4c-1-0.7-1.6-1.8-1.7-3c-0.1-1.5,0.9-2.7,1.7-3.9
		c1.7-2.4,3.3-4.9,4.4-7.7c1.1-3,1.7-6.1,2-9.2c0.1-0.9,0.2-1.7,0.2-2.6c0-0.4,0.3-1.9,0.1-2.2c-0.2-0.3-1.9-0.1-2.2-0.1
		c-0.9,0-1.7,0.1-2.6,0.3c-1.3,0.4-2.4,1.1-3.3,2.2c-0.5,0.7-0.9,1.5-1.4,2.2c-0.5,0.8-0.8,0.6-1.7,0.5c1.1-3.1,2.1-7.8,5.5-9.3
		c3.4-1.5,8-1.3,11.7-1.3c4.3,0,8.6,0,12.9,0c1.1,0,2.1,0,3.2,0c0.4,0,2.6-0.2,2.8,0c0.3,0.3,0,2.5,0,2.9
		C1158.5,165.1,1158.5,166,1158.5,166.8z"/>
	<g>
		<path fill="#BDDAEF" d="M1156.7,94.9h-30.7c-0.3,0-0.5,0.2-0.5,0.5v20.8c0,0.3,0.2,0.5,0.5,0.5h30.7c0.3,0,0.5-0.2,0.5-0.5V95.5
			C1157.2,95.2,1157,94.9,1156.7,94.9z M1127.3,115.2V96.5h28.1L1127.3,115.2z"/>
		<path fill="#BDDAEF" d="M1141.7,77.8c-16.9,0-30.6,13.7-30.6,30.6s13.7,30.6,30.6,30.6s30.6-13.7,30.6-30.6
			S1158.6,77.8,1141.7,77.8z M1160.5,116.2c0,2.1-1.7,3.8-3.8,3.8h-7.3c-1.5,0-1.7,0.7-1.7,1.3v2.4h4.2c0.9,0,1.6,0.7,1.6,1.6
			c0,0.9-0.7,1.6-1.6,1.6h-21.4c-0.9,0-1.6-0.7-1.6-1.6c0-0.9,0.7-1.6,1.6-1.6h4.2v-2.4c0-0.6-0.2-1.3-1.7-1.3h-7.3
			c-2.1,0-3.8-1.7-3.8-3.8V95.5c0-2.1,1.7-3.8,3.8-3.8h30.7c2.1,0,3.8,1.7,3.8,3.8V116.2z"/>
	</g>
</g>
<g>
	<path fill="#BDDAEF" d="M1349.2,77.4c-17,0-30.8,13.8-30.8,30.8s13.8,30.8,30.8,30.8c17,0,30.8-13.8,30.8-30.8
		S1366.1,77.4,1349.2,77.4z M1365.9,97.4c-2.1,0-4.2,0-6.3,0c-0.5,0-2-0.2-2.3,0.1c-0.3,0.4-0.1,2.4-0.1,3c-0.2,3.8-0.8,7.5-1,11.3
		c-0.1,2.7-0.5,7.7,2.8,8.9c1.4,0.5,3.1,0.2,4.2-0.9c0.6-0.6,1-1.4,1.2-2.2c0.1-0.3,0-1.2,0.2-1.4c0.2-0.2,1.2,0,1.4,0
		c0,3.7-1.8,8.3-5.4,9.8c-3.8,1.6-8.2-0.3-9.4-4.2c-0.6-2-0.4-4.2-0.3-6.2c0.1-2,0.3-4.1,0.5-6.1c0.4-4.1,0.9-8.2,1.1-12.3
		c-1.6,0-3.2,0-4.8,0c-0.7,0-1.4,0-2.1,0c-1.3,0-1.1,0-1.2,1.3c-0.2,2.7-0.5,5.5-0.7,8.3c-0.3,3-0.5,6-0.9,9
		c-0.3,2.9-0.7,6.2-2.2,8.7c-1.3,2-4,2.9-6.1,1.4c-1-0.7-1.6-1.8-1.7-3c-0.1-1.5,0.9-2.7,1.7-3.9c1.7-2.4,3.3-4.9,4.4-7.7
		c1.1-3,1.7-6.1,2-9.2c0.1-0.9,0.2-1.7,0.2-2.6c0-0.4,0.3-1.9,0.1-2.2c-0.2-0.3-1.9-0.1-2.2-0.1c-0.9,0-1.7,0.1-2.6,0.3
		c-1.3,0.4-2.4,1.1-3.3,2.2c-0.5,0.7-0.9,1.5-1.4,2.2c-0.5,0.8-0.8,0.6-1.7,0.5c1.1-3.1,2.1-7.8,5.5-9.3c3.4-1.5,8-1.3,11.7-1.3
		c4.3,0,8.6,0,12.9,0c1.1,0,2.1,0,3.2,0c0.4,0,2.6-0.2,2.8,0c0.3,0.3,0,2.5,0,2.9C1365.9,95.7,1365.9,96.6,1365.9,97.4z"/>
	<g>
		<path fill="#BDDAEF" d="M1364.1,25.6h-30.7c-0.3,0-0.5,0.2-0.5,0.5v20.8c0,0.3,0.2,0.5,0.5,0.5h30.7c0.3,0,0.5-0.2,0.5-0.5V26.1
			C1364.6,25.8,1364.4,25.6,1364.1,25.6z M1334.7,45.9V27.2h28.1L1334.7,45.9z"/>
		<path fill="#BDDAEF" d="M1349.2,8.5c-16.9,0-30.6,13.7-30.6,30.6s13.7,30.6,30.6,30.6c16.9,0,30.6-13.7,30.6-30.6
			S1366,8.5,1349.2,8.5z M1367.9,46.9c0,2.1-1.7,3.8-3.8,3.8h-7.3c-1.5,0-1.7,0.7-1.7,1.3v2.4h4.2c0.9,0,1.6,0.7,1.6,1.6
			s-0.7,1.6-1.6,1.6H1338c-0.9,0-1.6-0.7-1.6-1.6s0.7-1.6,1.6-1.6h4.2v-2.4c0-0.6-0.2-1.3-1.7-1.3h-7.3c-2.1,0-3.8-1.7-3.8-3.8V26.1
			c0-2.1,1.7-3.8,3.8-3.8h30.7c2.1,0,3.8,1.7,3.8,3.8V46.9z"/>
	</g>
	<g>
		<path fill="#BDDAEF" d="M1364.1,163.8h-30.7c-0.3,0-0.5,0.2-0.5,0.5v20.8c0,0.3,0.2,0.5,0.5,0.5h30.7c0.3,0,0.5-0.2,0.5-0.5v-20.8
			C1364.6,164,1364.4,163.8,1364.1,163.8z M1334.7,184.1v-18.7h28.1L1334.7,184.1z"/>
		<path fill="#BDDAEF" d="M1349.2,146.7c-16.9,0-30.6,13.7-30.6,30.6s13.7,30.6,30.6,30.6c16.9,0,30.6-13.7,30.6-30.6
			S1366,146.7,1349.2,146.7z M1367.9,185.1c0,2.1-1.7,3.8-3.8,3.8h-7.3c-1.5,0-1.7,0.7-1.7,1.3v2.4h4.2c0.9,0,1.6,0.7,1.6,1.6
			c0,0.9-0.7,1.6-1.6,1.6H1338c-0.9,0-1.6-0.7-1.6-1.6c0-0.9,0.7-1.6,1.6-1.6h4.2v-2.4c0-0.6-0.2-1.3-1.7-1.3h-7.3
			c-2.1,0-3.8-1.7-3.8-3.8v-20.8c0-2.1,1.7-3.8,3.8-3.8h30.7c2.1,0,3.8,1.7,3.8,3.8V185.1z"/>
	</g>
</g>
<g>
	<path fill="#BDDAEF" d="M1280,8.5c-17,0-30.8,13.8-30.8,30.8S1263,70,1280,70c17,0,30.8-13.8,30.8-30.8S1297,8.5,1280,8.5z
		 M1296.8,28.5c-2.1,0-4.2,0-6.3,0c-0.5,0-2-0.2-2.3,0.1c-0.3,0.4-0.1,2.4-0.1,3c-0.2,3.8-0.8,7.5-1,11.3c-0.1,2.7-0.5,7.7,2.8,8.9
		c1.4,0.5,3.1,0.2,4.2-0.9c0.6-0.6,1-1.4,1.2-2.2c0.1-0.3,0-1.2,0.2-1.4s1.2,0,1.4,0c0,3.7-1.8,8.3-5.4,9.8
		c-3.8,1.6-8.2-0.3-9.4-4.2c-0.6-2-0.4-4.2-0.3-6.2c0.1-2,0.3-4.1,0.5-6.1c0.4-4.1,0.9-8.2,1.1-12.3c-1.6,0-3.2,0-4.8,0
		c-0.7,0-1.4,0-2.1,0c-1.3,0-1.1,0-1.2,1.3c-0.2,2.7-0.5,5.5-0.7,8.3c-0.3,3-0.5,6-0.9,9c-0.3,2.9-0.7,6.2-2.2,8.7
		c-1.3,2-4,2.9-6.1,1.4c-1-0.7-1.6-1.8-1.7-3c-0.1-1.5,0.9-2.7,1.7-3.9c1.7-2.4,3.3-4.9,4.4-7.7c1.1-3,1.7-6.1,2-9.2
		c0.1-0.9,0.2-1.7,0.2-2.6c0-0.4,0.3-1.9,0.1-2.2c-0.2-0.3-1.9-0.1-2.2-0.1c-0.9,0-1.7,0.1-2.6,0.3c-1.3,0.4-2.4,1.1-3.3,2.2
		c-0.5,0.7-0.9,1.5-1.4,2.2c-0.5,0.8-0.8,0.6-1.7,0.5c1.1-3.1,2.1-7.8,5.5-9.3c3.4-1.5,8-1.3,11.7-1.3c4.3,0,8.6,0,12.9,0
		c1.1,0,2.1,0,3.2,0c0.4,0,2.6-0.2,2.8,0c0.3,0.3,0,2.5,0,2.9C1296.8,26.7,1296.8,27.6,1296.8,28.5z"/>
	<path fill="#BDDAEF" d="M1280,146.9c-17,0-30.8,13.8-30.8,30.8s13.8,30.8,30.8,30.8c17,0,30.8-13.8,30.8-30.8
		S1297,146.9,1280,146.9z M1296.8,166.8c-2.1,0-4.2,0-6.3,0c-0.5,0-2-0.2-2.3,0.1c-0.3,0.4-0.1,2.4-0.1,3c-0.2,3.8-0.8,7.5-1,11.3
		c-0.1,2.7-0.5,7.7,2.8,8.9c1.4,0.5,3.1,0.2,4.2-0.9c0.6-0.6,1-1.4,1.2-2.2c0.1-0.3,0-1.2,0.2-1.4s1.2,0,1.4,0
		c0,3.7-1.8,8.3-5.4,9.8c-3.8,1.6-8.2-0.3-9.4-4.2c-0.6-2-0.4-4.2-0.3-6.2c0.1-2,0.3-4.1,0.5-6.1c0.4-4.1,0.9-8.2,1.1-12.3
		c-1.6,0-3.2,0-4.8,0c-0.7,0-1.4,0-2.1,0c-1.3,0-1.1,0-1.2,1.3c-0.2,2.7-0.5,5.5-0.7,8.3c-0.3,3-0.5,6-0.9,9
		c-0.3,2.9-0.7,6.2-2.2,8.7c-1.3,2-4,2.9-6.1,1.4c-1-0.7-1.6-1.8-1.7-3c-0.1-1.5,0.9-2.7,1.7-3.9c1.7-2.4,3.3-4.9,4.4-7.7
		c1.1-3,1.7-6.1,2-9.2c0.1-0.9,0.2-1.7,0.2-2.6c0-0.4,0.3-1.9,0.1-2.2c-0.2-0.3-1.9-0.1-2.2-0.1c-0.9,0-1.7,0.1-2.6,0.3
		c-1.3,0.4-2.4,1.1-3.3,2.2c-0.5,0.7-0.9,1.5-1.4,2.2c-0.5,0.8-0.8,0.6-1.7,0.5c1.1-3.1,2.1-7.8,5.5-9.3c3.4-1.5,8-1.3,11.7-1.3
		c4.3,0,8.6,0,12.9,0c1.1,0,2.1,0,3.2,0c0.4,0,2.6-0.2,2.8,0c0.3,0.3,0,2.5,0,2.9C1296.8,165.1,1296.8,166,1296.8,166.8z"/>
	<g>
		<path fill="#BDDAEF" d="M1294.9,94.9h-30.7c-0.3,0-0.5,0.2-0.5,0.5v20.8c0,0.3,0.2,0.5,0.5,0.5h30.7c0.3,0,0.5-0.2,0.5-0.5V95.5
			C1295.5,95.2,1295.2,94.9,1294.9,94.9z M1265.5,115.2V96.5h28.1L1265.5,115.2z"/>
		<path fill="#BDDAEF" d="M1280,77.8c-16.9,0-30.6,13.7-30.6,30.6s13.7,30.6,30.6,30.6s30.6-13.7,30.6-30.6S1296.9,77.8,1280,77.8z
			 M1298.8,116.2c0,2.1-1.7,3.8-3.8,3.8h-7.3c-1.5,0-1.7,0.7-1.7,1.3v2.4h4.2c0.9,0,1.6,0.7,1.6,1.6c0,0.9-0.7,1.6-1.6,1.6h-21.4
			c-0.9,0-1.6-0.7-1.6-1.6c0-0.9,0.7-1.6,1.6-1.6h4.2v-2.4c0-0.6-0.2-1.3-1.7-1.3h-7.3c-2.1,0-3.8-1.7-3.8-3.8V95.5
			c0-2.1,1.7-3.8,3.8-3.8h30.7c2.1,0,3.8,1.7,3.8,3.8V116.2z"/>
	</g>
</g>
<g>
	<path fill="#BDDAEF" d="M1487.4,77.4c-17,0-30.8,13.8-30.8,30.8s13.8,30.8,30.8,30.8c17,0,30.8-13.8,30.8-30.8
		S1504.4,77.4,1487.4,77.4z M1504.2,97.4c-2.1,0-4.2,0-6.3,0c-0.5,0-2-0.2-2.3,0.1c-0.3,0.4-0.1,2.4-0.1,3c-0.2,3.8-0.8,7.5-1,11.3
		c-0.1,2.7-0.5,7.7,2.8,8.9c1.4,0.5,3.1,0.2,4.2-0.9c0.6-0.6,1-1.4,1.2-2.2c0.1-0.3,0-1.2,0.2-1.4c0.2-0.2,1.2,0,1.4,0
		c0,3.7-1.8,8.3-5.4,9.8c-3.8,1.6-8.2-0.3-9.4-4.2c-0.6-2-0.4-4.2-0.3-6.2c0.1-2,0.3-4.1,0.5-6.1c0.4-4.1,0.9-8.2,1.1-12.3
		c-1.6,0-3.2,0-4.8,0c-0.7,0-1.4,0-2.1,0c-1.3,0-1.1,0-1.2,1.3c-0.2,2.7-0.5,5.5-0.7,8.3c-0.3,3-0.5,6-0.9,9
		c-0.3,2.9-0.7,6.2-2.2,8.7c-1.3,2-4,2.9-6.1,1.4c-1-0.7-1.6-1.8-1.7-3c-0.1-1.5,0.9-2.7,1.7-3.9c1.7-2.4,3.3-4.9,4.4-7.7
		c1.1-3,1.7-6.1,2-9.2c0.1-0.9,0.2-1.7,0.2-2.6c0-0.4,0.3-1.9,0.1-2.2c-0.2-0.3-1.9-0.1-2.2-0.1c-0.9,0-1.7,0.1-2.6,0.3
		c-1.3,0.4-2.4,1.1-3.3,2.2c-0.5,0.7-0.9,1.5-1.4,2.2c-0.5,0.8-0.8,0.6-1.7,0.5c1.1-3.1,2.1-7.8,5.5-9.3c3.4-1.5,8-1.3,11.7-1.3
		c4.3,0,8.6,0,12.9,0c1.1,0,2.1,0,3.2,0c0.4,0,2.6-0.2,2.8,0c0.3,0.3,0,2.5,0,2.9C1504.2,95.7,1504.2,96.6,1504.2,97.4z"/>
	<g>
		<path fill="#BDDAEF" d="M1502.4,25.6h-30.7c-0.3,0-0.5,0.2-0.5,0.5v20.8c0,0.3,0.2,0.5,0.5,0.5h30.7c0.3,0,0.5-0.2,0.5-0.5V26.1
			C1502.9,25.8,1502.7,25.6,1502.4,25.6z M1473,45.9V27.2h28.1L1473,45.9z"/>
		<path fill="#BDDAEF" d="M1487.4,8.5c-16.9,0-30.6,13.7-30.6,30.6s13.7,30.6,30.6,30.6S1518,56,1518,39.1S1504.3,8.5,1487.4,8.5z
			 M1506.2,46.9c0,2.1-1.7,3.8-3.8,3.8h-7.3c-1.5,0-1.7,0.7-1.7,1.3v2.4h4.2c0.9,0,1.6,0.7,1.6,1.6s-0.7,1.6-1.6,1.6h-21.4
			c-0.9,0-1.6-0.7-1.6-1.6s0.7-1.6,1.6-1.6h4.2v-2.4c0-0.6-0.2-1.3-1.7-1.3h-7.3c-2.1,0-3.8-1.7-3.8-3.8V26.1c0-2.1,1.7-3.8,3.8-3.8
			h30.7c2.1,0,3.8,1.7,3.8,3.8V46.9z"/>
	</g>
	<g>
		<path fill="#BDDAEF" d="M1502.4,163.8h-30.7c-0.3,0-0.5,0.2-0.5,0.5v20.8c0,0.3,0.2,0.5,0.5,0.5h30.7c0.3,0,0.5-0.2,0.5-0.5v-20.8
			C1502.9,164,1502.7,163.8,1502.4,163.8z M1473,184.1v-18.7h28.1L1473,184.1z"/>
		<path fill="#BDDAEF" d="M1487.4,146.7c-16.9,0-30.6,13.7-30.6,30.6s13.7,30.6,30.6,30.6s30.6-13.7,30.6-30.6
			S1504.3,146.7,1487.4,146.7z M1506.2,185.1c0,2.1-1.7,3.8-3.8,3.8h-7.3c-1.5,0-1.7,0.7-1.7,1.3v2.4h4.2c0.9,0,1.6,0.7,1.6,1.6
			c0,0.9-0.7,1.6-1.6,1.6h-21.4c-0.9,0-1.6-0.7-1.6-1.6c0-0.9,0.7-1.6,1.6-1.6h4.2v-2.4c0-0.6-0.2-1.3-1.7-1.3h-7.3
			c-2.1,0-3.8-1.7-3.8-3.8v-20.8c0-2.1,1.7-3.8,3.8-3.8h30.7c2.1,0,3.8,1.7,3.8,3.8V185.1z"/>
	</g>
</g>
<g>
	<path fill="#BDDAEF" d="M1418.3,8.5c-17,0-30.8,13.8-30.8,30.8s13.8,30.8,30.8,30.8c17,0,30.8-13.8,30.8-30.8
		S1435.3,8.5,1418.3,8.5z M1435.1,28.5c-2.1,0-4.2,0-6.3,0c-0.5,0-2-0.2-2.3,0.1c-0.3,0.4-0.1,2.4-0.1,3c-0.2,3.8-0.8,7.5-1,11.3
		c-0.1,2.7-0.5,7.7,2.8,8.9c1.4,0.5,3.1,0.2,4.2-0.9c0.6-0.6,1-1.4,1.2-2.2c0.1-0.3,0-1.2,0.2-1.4c0.2-0.2,1.2,0,1.4,0
		c0,3.7-1.8,8.3-5.4,9.8c-3.8,1.6-8.2-0.3-9.4-4.2c-0.6-2-0.4-4.2-0.3-6.2c0.1-2,0.3-4.1,0.5-6.1c0.4-4.1,0.9-8.2,1.1-12.3
		c-1.6,0-3.2,0-4.8,0c-0.7,0-1.4,0-2.1,0c-1.3,0-1.1,0-1.2,1.3c-0.2,2.7-0.5,5.5-0.7,8.3c-0.3,3-0.5,6-0.9,9
		c-0.3,2.9-0.7,6.2-2.2,8.7c-1.3,2-4,2.9-6.1,1.4c-1-0.7-1.6-1.8-1.7-3c-0.1-1.5,0.9-2.7,1.7-3.9c1.7-2.4,3.3-4.9,4.4-7.7
		c1.1-3,1.7-6.1,2-9.2c0.1-0.9,0.2-1.7,0.2-2.6c0-0.4,0.3-1.9,0.1-2.2c-0.2-0.3-1.9-0.1-2.2-0.1c-0.9,0-1.7,0.1-2.6,0.3
		c-1.3,0.4-2.4,1.1-3.3,2.2c-0.5,0.7-0.9,1.5-1.4,2.2c-0.5,0.8-0.8,0.6-1.7,0.5c1.1-3.1,2.1-7.8,5.5-9.3c3.4-1.5,8-1.3,11.7-1.3
		c4.3,0,8.6,0,12.9,0c1.1,0,2.1,0,3.2,0c0.4,0,2.6-0.2,2.8,0c0.3,0.3,0,2.5,0,2.9C1435.1,26.7,1435.1,27.6,1435.1,28.5z"/>
	<path fill="#BDDAEF" d="M1418.3,146.9c-17,0-30.8,13.8-30.8,30.8s13.8,30.8,30.8,30.8c17,0,30.8-13.8,30.8-30.8
		S1435.3,146.9,1418.3,146.9z M1435.1,166.8c-2.1,0-4.2,0-6.3,0c-0.5,0-2-0.2-2.3,0.1c-0.3,0.4-0.1,2.4-0.1,3
		c-0.2,3.8-0.8,7.5-1,11.3c-0.1,2.7-0.5,7.7,2.8,8.9c1.4,0.5,3.1,0.2,4.2-0.9c0.6-0.6,1-1.4,1.2-2.2c0.1-0.3,0-1.2,0.2-1.4
		c0.2-0.2,1.2,0,1.4,0c0,3.7-1.8,8.3-5.4,9.8c-3.8,1.6-8.2-0.3-9.4-4.2c-0.6-2-0.4-4.2-0.3-6.2c0.1-2,0.3-4.1,0.5-6.1
		c0.4-4.1,0.9-8.2,1.1-12.3c-1.6,0-3.2,0-4.8,0c-0.7,0-1.4,0-2.1,0c-1.3,0-1.1,0-1.2,1.3c-0.2,2.7-0.5,5.5-0.7,8.3
		c-0.3,3-0.5,6-0.9,9c-0.3,2.9-0.7,6.2-2.2,8.7c-1.3,2-4,2.9-6.1,1.4c-1-0.7-1.6-1.8-1.7-3c-0.1-1.5,0.9-2.7,1.7-3.9
		c1.7-2.4,3.3-4.9,4.4-7.7c1.1-3,1.7-6.1,2-9.2c0.1-0.9,0.2-1.7,0.2-2.6c0-0.4,0.3-1.9,0.1-2.2c-0.2-0.3-1.9-0.1-2.2-0.1
		c-0.9,0-1.7,0.1-2.6,0.3c-1.3,0.4-2.4,1.1-3.3,2.2c-0.5,0.7-0.9,1.5-1.4,2.2c-0.5,0.8-0.8,0.6-1.7,0.5c1.1-3.1,2.1-7.8,5.5-9.3
		c3.4-1.5,8-1.3,11.7-1.3c4.3,0,8.6,0,12.9,0c1.1,0,2.1,0,3.2,0c0.4,0,2.6-0.2,2.8,0c0.3,0.3,0,2.5,0,2.9
		C1435.1,165.1,1435.1,166,1435.1,166.8z"/>
	<g>
		<path fill="#BDDAEF" d="M1433.2,94.9h-30.7c-0.3,0-0.5,0.2-0.5,0.5v20.8c0,0.3,0.2,0.5,0.5,0.5h30.7c0.3,0,0.5-0.2,0.5-0.5V95.5
			C1433.8,95.2,1433.5,94.9,1433.2,94.9z M1403.8,115.2V96.5h28.1L1403.8,115.2z"/>
		<path fill="#BDDAEF" d="M1418.3,77.8c-16.9,0-30.6,13.7-30.6,30.6s13.7,30.6,30.6,30.6c16.9,0,30.6-13.7,30.6-30.6
			S1435.2,77.8,1418.3,77.8z M1437.1,116.2c0,2.1-1.7,3.8-3.8,3.8h-7.3c-1.5,0-1.7,0.7-1.7,1.3v2.4h4.2c0.9,0,1.6,0.7,1.6,1.6
			c0,0.9-0.7,1.6-1.6,1.6h-21.4c-0.9,0-1.6-0.7-1.6-1.6c0-0.9,0.7-1.6,1.6-1.6h4.2v-2.4c0-0.6-0.2-1.3-1.7-1.3h-7.3
			c-2.1,0-3.8-1.7-3.8-3.8V95.5c0-2.1,1.7-3.8,3.8-3.8h30.7c2.1,0,3.8,1.7,3.8,3.8V116.2z"/>
	</g>
</g>
<g>
	<path fill="#BDDAEF" d="M1625.7,77.4c-17,0-30.8,13.8-30.8,30.8s13.8,30.8,30.8,30.8s30.8-13.8,30.8-30.8S1642.7,77.4,1625.7,77.4z
		 M1642.5,97.4c-2.1,0-4.2,0-6.3,0c-0.5,0-2-0.2-2.3,0.1c-0.3,0.4-0.1,2.4-0.1,3c-0.2,3.8-0.8,7.5-1,11.3c-0.1,2.7-0.5,7.7,2.8,8.9
		c1.4,0.5,3.1,0.2,4.2-0.9c0.6-0.6,1-1.4,1.2-2.2c0.1-0.3,0-1.2,0.2-1.4c0.2-0.2,1.2,0,1.4,0c0,3.7-1.8,8.3-5.4,9.8
		c-3.8,1.6-8.2-0.3-9.4-4.2c-0.6-2-0.4-4.2-0.3-6.2c0.1-2,0.3-4.1,0.5-6.1c0.4-4.1,0.9-8.2,1.1-12.3c-1.6,0-3.2,0-4.8,0
		c-0.7,0-1.4,0-2.1,0c-1.3,0-1.1,0-1.2,1.3c-0.2,2.7-0.5,5.5-0.7,8.3c-0.3,3-0.5,6-0.9,9c-0.3,2.9-0.7,6.2-2.2,8.7
		c-1.3,2-4,2.9-6.1,1.4c-1-0.7-1.6-1.8-1.7-3c-0.1-1.5,0.9-2.7,1.7-3.9c1.7-2.4,3.3-4.9,4.4-7.7c1.1-3,1.7-6.1,2-9.2
		c0.1-0.9,0.2-1.7,0.2-2.6c0-0.4,0.3-1.9,0.1-2.2c-0.2-0.3-1.9-0.1-2.2-0.1c-0.9,0-1.7,0.1-2.6,0.3c-1.3,0.4-2.4,1.1-3.3,2.2
		c-0.5,0.7-0.9,1.5-1.4,2.2c-0.5,0.8-0.8,0.6-1.7,0.5c1.1-3.1,2.1-7.8,5.5-9.3c3.4-1.5,8-1.3,11.7-1.3c4.3,0,8.6,0,12.9,0
		c1.1,0,2.1,0,3.2,0c0.4,0,2.6-0.2,2.8,0c0.3,0.3,0,2.5,0,2.9C1642.5,95.7,1642.5,96.6,1642.5,97.4z"/>
	<g>
		<path fill="#BDDAEF" d="M1640.7,25.6h-30.7c-0.3,0-0.5,0.2-0.5,0.5v20.8c0,0.3,0.2,0.5,0.5,0.5h30.7c0.3,0,0.5-0.2,0.5-0.5V26.1
			C1641.2,25.8,1641,25.6,1640.7,25.6z M1611.3,45.9V27.2h28.1L1611.3,45.9z"/>
		<path fill="#BDDAEF" d="M1625.7,8.5c-16.9,0-30.6,13.7-30.6,30.6s13.7,30.6,30.6,30.6s30.6-13.7,30.6-30.6S1642.6,8.5,1625.7,8.5z
			 M1644.5,46.9c0,2.1-1.7,3.8-3.8,3.8h-7.3c-1.5,0-1.7,0.7-1.7,1.3v2.4h4.2c0.9,0,1.6,0.7,1.6,1.6s-0.7,1.6-1.6,1.6h-21.4
			c-0.9,0-1.6-0.7-1.6-1.6s0.7-1.6,1.6-1.6h4.2v-2.4c0-0.6-0.2-1.3-1.7-1.3h-7.3c-2.1,0-3.8-1.7-3.8-3.8V26.1c0-2.1,1.7-3.8,3.8-3.8
			h30.7c2.1,0,3.8,1.7,3.8,3.8V46.9z"/>
	</g>
	<g>
		<path fill="#BDDAEF" d="M1640.7,163.8h-30.7c-0.3,0-0.5,0.2-0.5,0.5v20.8c0,0.3,0.2,0.5,0.5,0.5h30.7c0.3,0,0.5-0.2,0.5-0.5v-20.8
			C1641.2,164,1641,163.8,1640.7,163.8z M1611.3,184.1v-18.7h28.1L1611.3,184.1z"/>
		<path fill="#BDDAEF" d="M1625.7,146.7c-16.9,0-30.6,13.7-30.6,30.6s13.7,30.6,30.6,30.6s30.6-13.7,30.6-30.6
			S1642.6,146.7,1625.7,146.7z M1644.5,185.1c0,2.1-1.7,3.8-3.8,3.8h-7.3c-1.5,0-1.7,0.7-1.7,1.3v2.4h4.2c0.9,0,1.6,0.7,1.6,1.6
			c0,0.9-0.7,1.6-1.6,1.6h-21.4c-0.9,0-1.6-0.7-1.6-1.6c0-0.9,0.7-1.6,1.6-1.6h4.2v-2.4c0-0.6-0.2-1.3-1.7-1.3h-7.3
			c-2.1,0-3.8-1.7-3.8-3.8v-20.8c0-2.1,1.7-3.8,3.8-3.8h30.7c2.1,0,3.8,1.7,3.8,3.8V185.1z"/>
	</g>
</g>
<g>
	<path fill="#BDDAEF" d="M1556.6,8.5c-17,0-30.8,13.8-30.8,30.8s13.8,30.8,30.8,30.8s30.8-13.8,30.8-30.8S1573.6,8.5,1556.6,8.5z
		 M1573.4,28.5c-2.1,0-4.2,0-6.3,0c-0.5,0-2-0.2-2.3,0.1c-0.3,0.4-0.1,2.4-0.1,3c-0.2,3.8-0.8,7.5-1,11.3c-0.1,2.7-0.5,7.7,2.8,8.9
		c1.4,0.5,3.1,0.2,4.2-0.9c0.6-0.6,1-1.4,1.2-2.2c0.1-0.3,0-1.2,0.2-1.4s1.2,0,1.4,0c0,3.7-1.8,8.3-5.4,9.8
		c-3.8,1.6-8.2-0.3-9.4-4.2c-0.6-2-0.4-4.2-0.3-6.2c0.1-2,0.3-4.1,0.5-6.1c0.4-4.1,0.9-8.2,1.1-12.3c-1.6,0-3.2,0-4.8,0
		c-0.7,0-1.4,0-2.1,0c-1.3,0-1.1,0-1.2,1.3c-0.2,2.7-0.5,5.5-0.7,8.3c-0.3,3-0.5,6-0.9,9c-0.3,2.9-0.7,6.2-2.2,8.7
		c-1.3,2-4,2.9-6.1,1.4c-1-0.7-1.6-1.8-1.7-3c-0.1-1.5,0.9-2.7,1.7-3.9c1.7-2.4,3.3-4.9,4.4-7.7c1.1-3,1.7-6.1,2-9.2
		c0.1-0.9,0.2-1.7,0.2-2.6c0-0.4,0.3-1.9,0.1-2.2c-0.2-0.3-1.9-0.1-2.2-0.1c-0.9,0-1.7,0.1-2.6,0.3c-1.3,0.4-2.4,1.1-3.3,2.2
		c-0.5,0.7-0.9,1.5-1.4,2.2c-0.5,0.8-0.8,0.6-1.7,0.5c1.1-3.1,2.1-7.8,5.5-9.3c3.4-1.5,8-1.3,11.7-1.3c4.3,0,8.6,0,12.9,0
		c1.1,0,2.1,0,3.2,0c0.4,0,2.6-0.2,2.8,0c0.3,0.3,0,2.5,0,2.9C1573.4,26.7,1573.4,27.6,1573.4,28.5z"/>
	<path fill="#BDDAEF" d="M1556.6,146.9c-17,0-30.8,13.8-30.8,30.8s13.8,30.8,30.8,30.8s30.8-13.8,30.8-30.8
		S1573.6,146.9,1556.6,146.9z M1573.4,166.8c-2.1,0-4.2,0-6.3,0c-0.5,0-2-0.2-2.3,0.1c-0.3,0.4-0.1,2.4-0.1,3
		c-0.2,3.8-0.8,7.5-1,11.3c-0.1,2.7-0.5,7.7,2.8,8.9c1.4,0.5,3.1,0.2,4.2-0.9c0.6-0.6,1-1.4,1.2-2.2c0.1-0.3,0-1.2,0.2-1.4
		s1.2,0,1.4,0c0,3.7-1.8,8.3-5.4,9.8c-3.8,1.6-8.2-0.3-9.4-4.2c-0.6-2-0.4-4.2-0.3-6.2c0.1-2,0.3-4.1,0.5-6.1
		c0.4-4.1,0.9-8.2,1.1-12.3c-1.6,0-3.2,0-4.8,0c-0.7,0-1.4,0-2.1,0c-1.3,0-1.1,0-1.2,1.3c-0.2,2.7-0.5,5.5-0.7,8.3
		c-0.3,3-0.5,6-0.9,9c-0.3,2.9-0.7,6.2-2.2,8.7c-1.3,2-4,2.9-6.1,1.4c-1-0.7-1.6-1.8-1.7-3c-0.1-1.5,0.9-2.7,1.7-3.9
		c1.7-2.4,3.3-4.9,4.4-7.7c1.1-3,1.7-6.1,2-9.2c0.1-0.9,0.2-1.7,0.2-2.6c0-0.4,0.3-1.9,0.1-2.2c-0.2-0.3-1.9-0.1-2.2-0.1
		c-0.9,0-1.7,0.1-2.6,0.3c-1.3,0.4-2.4,1.1-3.3,2.2c-0.5,0.7-0.9,1.5-1.4,2.2c-0.5,0.8-0.8,0.6-1.7,0.5c1.1-3.1,2.1-7.8,5.5-9.3
		c3.4-1.5,8-1.3,11.7-1.3c4.3,0,8.6,0,12.9,0c1.1,0,2.1,0,3.2,0c0.4,0,2.6-0.2,2.8,0c0.3,0.3,0,2.5,0,2.9
		C1573.4,165.1,1573.4,166,1573.4,166.8z"/>
	<g>
		<path fill="#BDDAEF" d="M1571.5,94.9h-30.7c-0.3,0-0.5,0.2-0.5,0.5v20.8c0,0.3,0.2,0.5,0.5,0.5h30.7c0.3,0,0.5-0.2,0.5-0.5V95.5
			C1572.1,95.2,1571.8,94.9,1571.5,94.9z M1542.1,115.2V96.5h28.1L1542.1,115.2z"/>
		<path fill="#BDDAEF" d="M1556.6,77.8c-16.9,0-30.6,13.7-30.6,30.6s13.7,30.6,30.6,30.6s30.6-13.7,30.6-30.6
			S1573.5,77.8,1556.6,77.8z M1575.4,116.2c0,2.1-1.7,3.8-3.8,3.8h-7.3c-1.5,0-1.7,0.7-1.7,1.3v2.4h4.2c0.9,0,1.6,0.7,1.6,1.6
			c0,0.9-0.7,1.6-1.6,1.6h-21.4c-0.9,0-1.6-0.7-1.6-1.6c0-0.9,0.7-1.6,1.6-1.6h4.2v-2.4c0-0.6-0.2-1.3-1.7-1.3h-7.3
			c-2.1,0-3.8-1.7-3.8-3.8V95.5c0-2.1,1.7-3.8,3.8-3.8h30.7c2.1,0,3.8,1.7,3.8,3.8V116.2z"/>
	</g>
</g>
</svg>
