<?xml version="1.0" encoding="UTF-8" standalone="no"?>
<svg width="50px" height="50px" viewBox="0 0 50 50" version="1.1" xmlns="http://www.w3.org/2000/svg" xmlns:xlink="http://www.w3.org/1999/xlink" xmlns:sketch="http://www.bohemiancoding.com/sketch/ns">
    <!-- Generator: Sketch 3.4.3 (16044) - http://www.bohemiancoding.com/sketch -->
    <title>Business</title>
    <desc>Created with Sketch.</desc>
    <defs></defs>
    <g id="Gallery-Icons" stroke="none" stroke-width="1" fill="none" fill-rule="evenodd" sketch:type="MSPage">
        <g id="Business" sketch:type="MSArtboardGroup" fill="#FFFFFF">
            <g id="Rectangle-21-+-Rectangle-21-Copy-+-Rectangle-24" sketch:type="MSLayerGroup" transform="translate(3.000000, 6.000000)">
                <path d="M19.8,21.1607238 C12.3305219,21.0878173 5.4913399,20.6462035 3.55271368e-15,19.9494548 L0,21.1964682 C0,22.4119558 0.98363971,23.4 2.19702078,23.4 L41.8029792,23.4 C43.0193062,23.4 44,22.4134452 44,21.1964682 L44,19.9494548 C38.5086601,20.6462035 31.6694781,21.0878173 24.2,21.1607238 L24.2,20.0446231 C24.2,19.4368793 23.7079808,18.9428571 23.1010443,18.9428571 L20.8989557,18.9428571 C20.2876885,18.9428571 19.8,19.4361345 19.8,20.0446231 L19.8,21.1607238 Z M0,11.1143539 C0,9.8992898 0.98069381,8.91428571 2.19702078,8.91428571 L41.8029792,8.91428571 C43.0163603,8.91428571 44,9.8985592 44,11.1143539 L44,21.1999318 C44,22.4149959 43.0193062,23.4 41.8029792,23.4 L2.19702078,23.4 C0.98363971,23.4 0,22.4157265 0,21.1999318 L0,11.1143539 Z" id="Rectangle-21-Copy" sketch:type="MSShapeGroup"></path>
                <path d="M31.9,9.49004853 L31.9,2.19133151 C31.9,0.982333937 30.9174449,0 29.7054018,0 L14.2945982,0 C13.0818851,0 12.1,0.981092533 12.1,2.19133151 L12.1,8.91428571 L15.4,8.91428571 L15.4,4.43518073 C15.4,3.83190707 15.9013371,3.34285714 16.5027206,3.34285714 L27.4972794,3.34285714 C28.1062952,3.34285714 28.6,3.82655599 28.6,4.43518073 L28.6,8.91428571 L31.9,8.91428571 L31.9,9.49004853 Z" id="Rectangle-24" sketch:type="MSShapeGroup"></path>
                <path d="M19.8,23.4969833 C12.3305219,23.4240769 5.4913399,22.982463 0,22.2857143 L0,35.7963492 C0,37.0020514 0.98363971,37.9934024 2.19702078,37.9934024 L41.8029792,37.9934024 C43.0193062,37.9934024 44,37.0097481 44,35.7963492 L44,22.2857143 C38.5086601,22.982463 31.6694781,23.4240769 24.2,23.4969833 L24.2,24.5278364 C24.2,25.1357556 23.7123115,25.6285714 23.1010443,25.6285714 L20.8989557,25.6285714 C20.2920192,25.6285714 19.8,25.1341443 19.8,24.5278364 L19.8,23.4969833 Z" id="Rectangle-21" sketch:type="MSShapeGroup"></path>
            </g>
        </g>
    </g>
</svg>