<?xml version="1.0" encoding="UTF-8" standalone="no"?>
<svg width="50px" height="50px" viewBox="0 0 50 50" version="1.1" xmlns="http://www.w3.org/2000/svg" xmlns:xlink="http://www.w3.org/1999/xlink" xmlns:sketch="http://www.bohemiancoding.com/sketch/ns">
    <!-- Generator: Sketch 3.4.3 (16044) - http://www.bohemiancoding.com/sketch -->
    <title>Computing</title>
    <desc>Created with Sketch.</desc>
    <defs>
        <path d="M5,7.49934216 C5,6.1189936 6.11157715,5 7.50217915,5 L42.4978209,5 C43.8797362,5 45,6.12549639 45,7.49934216 L45,31.6673245 C45,33.0476731 43.8884228,34.1666667 42.4978209,34.1666667 L7.50217915,34.1666667 C6.12026376,34.1666667 5,33.0411703 5,31.6673245 L5,7.49934216 Z M9.16666667,11.6589602 C9.16666667,10.2825045 10.2937001,9.16666667 11.6647166,9.16666667 L38.3352834,9.16666667 C39.7149183,9.16666667 40.8333333,10.2867572 40.8333333,11.6589602 L40.8333333,27.5077065 C40.8333333,28.8841622 39.7062999,30 38.3352834,30 L11.6647166,30 C10.2850817,30 9.16666667,28.8799095 9.16666667,27.5077065 L9.16666667,11.6589602 Z M20.8333333,34.1666667 L29.1666667,34.1666667 L29.1666667,37.5 L20.8333333,37.5 L20.8333333,34.1666667 Z M5,39.9973914 C5,38.6181202 6.11157715,37.5 7.50217915,37.5 L42.4978209,37.5 C43.8797362,37.5 45,38.6228258 45,39.9973914 L45,42.5026086 C45,43.8818798 43.8884228,45 42.4978209,45 L7.50217915,45 C6.12026376,45 5,43.8771742 5,42.5026086 L5,39.9973914 Z M22.2867839,17.6049805 L22.6822917,17.6049805 C22.7913417,17.6049805 22.8702797,17.6253253 22.9191081,17.6660156 C22.9679364,17.7067059 22.9923503,17.773437 22.9923503,17.8662109 C22.9923503,17.9573572 22.9687502,18.0232745 22.9215495,18.0639648 C22.8743487,18.1046552 22.7945969,18.125 22.6822917,18.125 L21.241862,18.125 C21.1295567,18.125 21.0498049,18.1046552 21.0026042,18.0639648 C20.9554034,18.0232745 20.9318034,17.9573572 20.9318034,17.8662109 C20.9318034,17.773437 20.9558103,17.7067059 21.0038249,17.6660156 C21.0518394,17.6253253 21.1311843,17.6049805 21.241862,17.6049805 L21.6959635,17.6049805 L21.6959635,15.5444336 L21.422526,15.6152344 C21.3802081,15.625 21.345215,15.6323242 21.3175456,15.637207 C21.2898762,15.6420899 21.2695313,15.6445312 21.2565104,15.6445312 C21.1897783,15.6445312 21.1381024,15.6233726 21.1014811,15.5810547 C21.0648598,15.5387368 21.0465495,15.478516 21.0465495,15.4003906 C21.0465495,15.3434242 21.0668943,15.2954104 21.1075846,15.2563477 C21.1482749,15.217285 21.2109371,15.1871746 21.2955729,15.1660156 L21.9010417,15 C21.9514976,14.9869791 21.9930011,14.9772136 22.0255534,14.9707031 C22.0581056,14.9641927 22.0849608,14.9609375 22.1061198,14.9609375 C22.1712243,14.9609375 22.2176105,14.978841 22.2452799,15.0146484 C22.2729494,15.0504559 22.2867839,15.1106767 22.2867839,15.1953125 L22.2867839,17.6049805 Z M27.9166667,15.5151367 C27.7441398,15.5151367 27.6078293,15.6095368 27.5077311,15.7983398 C27.407633,15.9871429 27.3575846,16.2475569 27.3575846,16.5795898 C27.3575846,16.9165056 27.4072261,17.1797679 27.5065104,17.3693848 C27.6057948,17.5590016 27.7425122,17.6538086 27.9166667,17.6538086 C28.0908212,17.6538086 28.2279455,17.5590016 28.3280436,17.3693848 C28.4281418,17.1797679 28.4781901,16.9165056 28.4781901,16.5795898 C28.4781901,16.2475569 28.4281418,15.9871429 28.3280436,15.7983398 C28.2279455,15.6095368 28.0908212,15.5151367 27.9166667,15.5151367 L27.9166667,15.5151367 Z M27.9117839,14.9658203 C28.2861347,14.9658203 28.5831695,15.1110825 28.8028971,15.4016113 C29.0226248,15.6921401 29.132487,16.0864233 29.132487,16.5844727 C29.132487,17.0841496 29.0226248,17.4792466 28.8028971,17.7697754 C28.5831695,18.0603042 28.2861347,18.2055664 27.9117839,18.2055664 C27.5406882,18.2055664 27.2465017,18.0603042 27.0292155,17.7697754 C26.8119293,17.4792466 26.7032878,17.0841496 26.7032878,16.5844727 C26.7032878,16.0847957 26.8119293,15.6901056 27.0292155,15.4003906 C27.2465017,15.1106756 27.5406882,14.9658203 27.9117839,14.9658203 L27.9117839,14.9658203 Z M21.9156901,21.7651367 C21.7431632,21.7651367 21.6068527,21.8595368 21.5067546,22.0483398 C21.4066564,22.2371429 21.3566081,22.4975569 21.3566081,22.8295898 C21.3566081,23.1665056 21.4062495,23.4297679 21.5055339,23.6193848 C21.6048182,23.8090016 21.7415356,23.9038086 21.9156901,23.9038086 C22.0898446,23.9038086 22.2269689,23.8090016 22.3270671,23.6193848 C22.4271652,23.4297679 22.4772135,23.1665056 22.4772135,22.8295898 C22.4772135,22.4975569 22.4271652,22.2371429 22.3270671,22.0483398 C22.2269689,21.8595368 22.0898446,21.7651367 21.9156901,21.7651367 L21.9156901,21.7651367 Z M21.9108073,21.2158203 C22.2851581,21.2158203 22.5821929,21.3610825 22.8019206,21.6516113 C23.0216482,21.9421401 23.1315104,22.3364233 23.1315104,22.8344727 C23.1315104,23.3341496 23.0216482,23.7292466 22.8019206,24.0197754 C22.5821929,24.3103042 22.2851581,24.4555664 21.9108073,24.4555664 C21.5397117,24.4555664 21.2455252,24.3103042 21.0282389,24.0197754 C20.8109527,23.7292466 20.7023112,23.3341496 20.7023112,22.8344727 C20.7023112,22.3347957 20.8109527,21.9401056 21.0282389,21.6503906 C21.2455252,21.3606756 21.5397117,21.2158203 21.9108073,21.2158203 L21.9108073,21.2158203 Z M28.2877604,23.8549805 L28.6832682,23.8549805 C28.7923183,23.8549805 28.8712563,23.8753253 28.9200846,23.9160156 C28.968913,23.9567059 28.9933268,24.023437 28.9933268,24.1162109 C28.9933268,24.2073572 28.9697268,24.2732745 28.922526,24.3139648 C28.8753253,24.3546552 28.7955735,24.375 28.6832682,24.375 L27.2428385,24.375 C27.1305333,24.375 27.0507815,24.3546552 27.0035807,24.3139648 C26.95638,24.2732745 26.9327799,24.2073572 26.9327799,24.1162109 C26.9327799,24.023437 26.9567869,23.9567059 27.0048014,23.9160156 C27.052816,23.8753253 27.1321609,23.8549805 27.2428385,23.8549805 L27.6969401,23.8549805 L27.6969401,21.7944336 L27.4235026,21.8652344 C27.3811847,21.875 27.3461915,21.8823242 27.3185221,21.887207 C27.2908527,21.8920899 27.2705079,21.8945312 27.257487,21.8945312 C27.1907549,21.8945312 27.139079,21.8733726 27.1024577,21.8310547 C27.0658364,21.7887368 27.047526,21.728516 27.047526,21.6503906 C27.047526,21.5934242 27.0678709,21.5454104 27.1085612,21.5063477 C27.1492515,21.467285 27.2119136,21.4371746 27.2965495,21.4160156 L27.9020182,21.25 C27.9524742,21.2369791 27.9939777,21.2272136 28.0265299,21.2207031 C28.0590822,21.2141927 28.0859374,21.2109375 28.1070964,21.2109375 C28.1722008,21.2109375 28.2185871,21.228841 28.2462565,21.2646484 C28.2739259,21.3004559 28.2877604,21.3606767 28.2877604,21.4453125 L28.2877604,23.8549805 Z" id="path-1"></path>
    </defs>
    <g id="Gallery-Icons" stroke="none" stroke-width="1" fill="none" fill-rule="evenodd" sketch:type="MSPage">
        <g id="Computing" sketch:type="MSArtboardGroup">
            <g id="Rectangle-279-Copy-4">
                <use fill="#FFFFFF" fill-rule="evenodd" sketch:type="MSShapeGroup" xlink:href="#path-1"></use>
                <use fill="none" xlink:href="#path-1"></use>
            </g>
        </g>
    </g>
</svg>