<?xml version="1.0" encoding="UTF-8" standalone="no"?>
<svg width="50px" height="50px" viewBox="0 0 50 50" version="1.1" xmlns="http://www.w3.org/2000/svg" xmlns:xlink="http://www.w3.org/1999/xlink" xmlns:sketch="http://www.bohemiancoding.com/sketch/ns">
    <!-- Generator: Sketch 3.4.3 (16044) - http://www.bohemiancoding.com/sketch -->
    <title>Form</title>
    <desc>Created with Sketch.</desc>
    <defs></defs>
    <g id="Page-1" stroke="none" stroke-width="1" fill="none" fill-rule="evenodd" sketch:type="MSPage">
        <g id="Form" sketch:type="MSArtboardGroup" fill="#FFFFFF">
            <path d="M8,17 C9.1045695,17 10,16.1045695 10,15 C10,13.8954305 9.1045695,13 8,13 C6.8954305,13 6,13.8954305 6,15 C6,16.1045695 6.8954305,17 8,17 L8,17 Z M8,27 C9.1045695,27 10,26.1045695 10,25 C10,23.8954305 9.1045695,23 8,23 C6.8954305,23 6,23.8954305 6,25 C6,26.1045695 6.8954305,27 8,27 L8,27 Z M8,37 C9.1045695,37 10,36.1045695 10,35 C10,33.8954305 9.1045695,33 8,33 C6.8954305,33 6,33.8954305 6,35 C6,36.1045695 6.8954305,37 8,37 L8,37 Z M14,15 C14,13.8954305 14.8978404,13 15.991617,13 L42.008383,13 C43.1083227,13 44,13.8877296 44,15 C44,16.1045695 43.1021596,17 42.008383,17 L15.991617,17 C14.8916773,17 14,16.1122704 14,15 L14,15 Z M14,25 C14,23.8954305 14.8978404,23 15.991617,23 L42.008383,23 C43.1083227,23 44,23.8877296 44,25 C44,26.1045695 43.1021596,27 42.008383,27 L15.991617,27 C14.8916773,27 14,26.1122704 14,25 L14,25 Z M14,35 C14,33.8954305 14.8978404,33 15.991617,33 L42.008383,33 C43.1083227,33 44,33.8877296 44,35 C44,36.1045695 43.1021596,37 42.008383,37 L15.991617,37 C14.8916773,37 14,36.1122704 14,35 L14,35 Z" id="Oval-340" sketch:type="MSShapeGroup"></path>
        </g>
    </g>
</svg>