<?xml version="1.0" encoding="UTF-8" standalone="no"?>
<svg width="50px" height="50px" viewBox="0 0 50 50" version="1.1" xmlns="http://www.w3.org/2000/svg" xmlns:xlink="http://www.w3.org/1999/xlink" xmlns:sketch="http://www.bohemiancoding.com/sketch/ns">
    <!-- Generator: Sketch 3.4.3 (16044) - http://www.bohemiancoding.com/sketch -->
    <title>Law</title>
    <desc>Created with Sketch.</desc>
    <defs></defs>
    <g id="Gallery-Icons" stroke="none" stroke-width="1" fill="none" fill-rule="evenodd" sketch:type="MSPage">
        <g id="Law" sketch:type="MSArtboardGroup" fill="#FFFFFF">
            <g id="Triangle-2-+-Rectangle-56-+-Rectangle-71" sketch:type="MSLayerGroup" transform="translate(3.000000, 2.000000)">
                <path d="M21.8571429,1.31738999 L45,11.9117647 L45,13.2352941 L1.54580349e-09,13.2352941 L0,11.9117647 L21.8571429,1.31738999 Z M2.57142857,13.2352941 L41.1428571,13.2352941 L41.1428571,15.8823529 L2.57142857,15.8823529 L2.57142857,13.2352941 Z" id="Triangle-2" sketch:type="MSShapeGroup"></path>
                <path d="M39.8571429,37.0588235 L35.2623821,37.0588235 C34.9584434,37.0588235 34.7142857,37.3066907 34.7142857,37.6124504 L34.7142857,37.8287261 C34.7142857,38.1271632 34.9596768,38.3823529 35.2623821,38.3823529 L40.5947608,38.3823529 C40.8986995,38.3823529 41.1428571,38.1344857 41.1428571,37.8287261 L41.1428571,37.6124504 C41.1428571,37.3140133 40.897466,37.0588235 40.5947608,37.0588235 L39.8571429,37.0588235 C39.8574304,37.0531667 40.1142867,31.9995153 40.1142867,27.1323529 C40.1142867,21.8941015 39.8571429,17.2058824 39.8571429,17.2058824 L36,17.2058824 C36,17.2058824 35.7428574,22.1691176 35.7428574,27.1323529 C35.7428574,32.0955882 36,37.0588235 36,37.0588235 L39.8571429,37.0588235 C39.8571429,37.0588235 39.8571429,37.0588219 39.8571431,37.0588188 Z M32.1428571,37.0588235 L27.5480964,37.0588235 C27.2441577,37.0588235 27,37.3066907 27,37.6124504 L27,37.8287261 C27,38.1271632 27.2453911,38.3823529 27.5480964,38.3823529 L32.880475,38.3823529 C33.1844138,38.3823529 33.4285714,38.1344857 33.4285714,37.8287261 L33.4285714,37.6124504 C33.4285714,37.3140133 33.1831803,37.0588235 32.880475,37.0588235 L32.1428571,37.0588235 C32.1431763,37.0525459 32.400001,31.9992163 32.400001,27.1323529 C32.400001,21.8941015 32.1428571,17.2058824 32.1428571,17.2058824 L28.2857143,17.2058824 C28.2857143,17.2058824 28.0285717,22.1691176 28.0285717,27.1323529 C28.0285717,32.0955882 28.2857143,37.0588235 28.2857143,37.0588235 L32.1428571,37.0588235 C32.1428571,37.0588235 32.1428572,37.0588216 32.1428574,37.0588177 Z M24.4285714,37.0588235 L19.8338107,37.0588235 C19.5298719,37.0588235 19.2857143,37.3066907 19.2857143,37.6124504 L19.2857143,37.8287261 C19.2857143,38.1271632 19.5311054,38.3823529 19.8338107,38.3823529 L25.1661893,38.3823529 C25.4701281,38.3823529 25.7142857,38.1344857 25.7142857,37.8287261 L25.7142857,37.6124504 C25.7142857,37.3140133 25.4688946,37.0588235 25.1661893,37.0588235 L24.4285714,37.0588235 C24.4288906,37.0525459 24.6857153,31.9992163 24.6857153,27.1323529 C24.6857153,21.8941015 24.4285714,17.2058824 24.4285714,17.2058824 L20.5714286,17.2058824 C20.5714286,17.2058824 20.314286,22.1691176 20.314286,27.1323529 C20.314286,32.0955882 20.5714286,37.0588235 20.5714286,37.0588235 L24.4285714,37.0588235 C24.4285714,37.0588235 24.4285715,37.0588216 24.4285717,37.0588177 Z M12.8571429,37.0588235 L12.119525,37.0588235 C11.8155862,37.0588235 11.5714286,37.3066907 11.5714286,37.6124504 L11.5714286,37.8287261 C11.5714286,38.1271632 11.8168197,38.3823529 12.119525,38.3823529 L17.4519036,38.3823529 C17.7558423,38.3823529 18,38.1344857 18,37.8287261 L18,37.6124504 C18,37.3140133 17.7546089,37.0588235 17.4519036,37.0588235 L12.8571429,37.0588235 C12.8571428,37.0588228 12.8571429,37.0588235 12.8571429,37.0588235 L16.7142857,37.0588235 C16.7142857,37.0588235 16.9714296,32.0022393 16.9714296,27.1323529 C16.9714296,21.8941015 16.7142857,17.2058824 16.7142857,17.2058824 L12.8571429,17.2058824 C12.8571429,17.2058824 12.6000002,22.1691176 12.6000002,27.1323529 C12.6000002,32.0937276 12.8569501,37.0551023 12.8571427,37.0588214 Z M3.85714286,16.4359798 C3.85714286,16.1302201 4.10130051,15.8823529 4.40523924,15.8823529 L9.7376179,15.8823529 C10.0403232,15.8823529 10.2857143,16.1375427 10.2857143,16.4359798 L10.2857143,16.6522555 C10.2857143,16.9580152 10.0415566,17.2058824 9.7376179,17.2058824 L4.40523924,17.2058824 C4.10253397,17.2058824 3.85714286,16.9506926 3.85714286,16.6522555 L3.85714286,16.4359798 Z M3.85714286,37.6124504 C3.85714286,37.3066907 4.10130051,37.0588235 4.40523924,37.0588235 L9.7376179,37.0588235 C10.0403232,37.0588235 10.2857143,37.3140133 10.2857143,37.6124504 L10.2857143,37.8287261 C10.2857143,38.1344857 10.0415566,38.3823529 9.7376179,38.3823529 L4.40523924,38.3823529 C4.10253397,38.3823529 3.85714286,38.1271632 3.85714286,37.8287261 L3.85714286,37.6124504 Z M4.88571453,27.1323529 C4.88571453,22.1691176 5.14285714,17.2058824 5.14285714,17.2058824 L9,17.2058824 C9,17.2058824 9.25714384,21.8941015 9.25714384,27.1323529 C9.25714384,32.0022393 9,37.0588235 9,37.0588235 L5.14285714,37.0588235 C5.14285714,37.0588235 4.88571453,32.0955882 4.88571453,27.1323529 Z M11.5714286,16.4359798 C11.5714286,16.1302201 11.8155862,15.8823529 12.119525,15.8823529 L17.4519036,15.8823529 C17.7546089,15.8823529 18,16.1375427 18,16.4359798 L18,16.6522555 C18,16.9580152 17.7558423,17.2058824 17.4519036,17.2058824 L12.119525,17.2058824 C11.8168197,17.2058824 11.5714286,16.9506926 11.5714286,16.6522555 L11.5714286,16.4359798 Z M19.2857143,16.4359798 C19.2857143,16.1302201 19.5298719,15.8823529 19.8338107,15.8823529 L25.1661893,15.8823529 C25.4688946,15.8823529 25.7142857,16.1375427 25.7142857,16.4359798 L25.7142857,16.6522555 C25.7142857,16.9580152 25.4701281,17.2058824 25.1661893,17.2058824 L19.8338107,17.2058824 C19.5311054,17.2058824 19.2857143,16.9506926 19.2857143,16.6522555 L19.2857143,16.4359798 Z M27,16.4359798 C27,16.1302201 27.2441577,15.8823529 27.5480964,15.8823529 L32.880475,15.8823529 C33.1831803,15.8823529 33.4285714,16.1375427 33.4285714,16.4359798 L33.4285714,16.6522555 C33.4285714,16.9580152 33.1844138,17.2058824 32.880475,17.2058824 L27.5480964,17.2058824 C27.2453911,17.2058824 27,16.9506926 27,16.6522555 L27,16.4359798 Z M34.7142857,16.4359798 C34.7142857,16.1302201 34.9584434,15.8823529 35.2623821,15.8823529 L40.5947608,15.8823529 C40.897466,15.8823529 41.1428571,16.1375427 41.1428571,16.4359798 L41.1428571,16.6522555 C41.1428571,16.9580152 40.8986995,17.2058824 40.5947608,17.2058824 L35.2623821,17.2058824 C34.9596768,17.2058824 34.7142857,16.9506926 34.7142857,16.6522555 L34.7142857,16.4359798 Z" id="Rectangle-56" sketch:type="MSShapeGroup"></path>
                <path d="M2.57142857,38.3823529 L42.4285714,38.3823529 L42.4285714,41.0294118 L2.57142857,41.0294118 L2.57142857,38.3823529 Z M0,41.0294118 L45,41.0294118 L45,45 L0,45 L0,41.0294118 Z" id="Rectangle-71" sketch:type="MSShapeGroup"></path>
            </g>
        </g>
    </g>
</svg>