<?xml version="1.0" encoding="UTF-8" standalone="no"?>
<svg width="50px" height="50px" viewBox="0 0 50 50" version="1.1" xmlns="http://www.w3.org/2000/svg" xmlns:xlink="http://www.w3.org/1999/xlink" xmlns:sketch="http://www.bohemiancoding.com/sketch/ns">
    <!-- Generator: Sketch 3.4.3 (16044) - http://www.bohemiancoding.com/sketch -->
    <title>Lightbulb</title>
    <desc>Created with Sketch.</desc>
    <defs></defs>
    <g id="Page-1" stroke="none" stroke-width="1" fill="none" fill-rule="evenodd" sketch:type="MSPage">
        <g id="Lightbulb" sketch:type="MSArtboardGroup" fill="#FFFFFF">
            <path d="M18.0144578,37.8137739 L32.0481928,37.8137739 L32.0481928,39.8669813 L18.0144578,39.8669813 L18.0144578,37.8137739 Z M18.0144578,41.9201888 L32.0481928,41.9201888 L32.0481928,43.4600944 C32.0481928,44.3105608 31.3522577,45 30.5061934,45 L19.5564572,45 C18.7048344,45 18.0144578,44.3164901 18.0144578,43.4600944 L18.0144578,41.9201888 Z M25.0000501,5 C17.8198901,5 12,10.9870705 12,18.373152 C12,20.834698 12.65728,23.132904 13.7849908,25.1145356 C13.777172,25.1250537 13.8232829,25.1924934 13.8879383,25.2883937 C14.0778949,25.6100209 14.2786776,25.9225736 14.4924916,26.2254332 C15.7486111,28.2495497 18.0144578,32.6807552 18.0144578,35.7605664 C19.8827184,35.8424882 29.205177,35.8424882 32.0481928,35.8424873 C32.0481928,32.6762283 34.1955547,28.3208047 35.4699181,26.2762707 C35.7008733,25.9540248 35.9162911,25.6216733 36.1177754,25.2787006 C36.1794236,25.1882655 36.222828,25.1250537 36.222828,25.1250537 C37.34272,23.1337289 38,20.834698 38,18.373152 C38,10.9870705 32.1801099,5 25.0000501,5 Z" sketch:type="MSShapeGroup"></path>
        </g>
    </g>
</svg>