<?xml version="1.0" encoding="UTF-8" standalone="no"?>
<svg width="50px" height="50px" viewBox="0 0 50 50" version="1.1" xmlns="http://www.w3.org/2000/svg" xmlns:xlink="http://www.w3.org/1999/xlink" xmlns:sketch="http://www.bohemiancoding.com/sketch/ns">
    <!-- Generator: Sketch 3.4.3 (16044) - http://www.bohemiancoding.com/sketch -->
    <title>Mathematics</title>
    <desc>Created with Sketch.</desc>
    <defs></defs>
    <g id="Gallery-Icons" stroke="none" stroke-width="1" fill="none" fill-rule="evenodd" sketch:type="MSPage">
        <g id="Mathematics" sketch:type="MSArtboardGroup" fill="#FFFFFF">
            <path d="M12.8188175,38.6745779 C13.5290038,37.3981727 13.9808875,35.9476598 14.3511407,34.5259726 C15.3149649,30.8212842 15.176751,31.090076 16.0571954,27.364633 C16.1778921,26.8561464 16.215792,26.3182575 16.2181243,25.7936284 C16.2315351,23.1964262 14.2963065,21.6934503 11.7669237,22.4129416 C8.46904708,23.3509323 6.83585179,25.9366042 5.53675893,28.8088043 C5.45920985,28.9806059 5.49652671,29.2308136 5.3810777,29.3536114 C5.06738292,29.6885669 4.70004518,29.9745186 4.35369816,30.2800718 C4.24524606,29.8200124 3.93330051,29.2936538 4.06099411,28.9096945 C5.07846136,25.8385966 6.92331316,23.3688043 9.81945061,21.7845398 C10.4771601,21.4247941 11.2643124,21.2362736 12.0158971,21.1152053 C15.2041555,20.60153 17.5755248,21.8156716 19.1830647,24.5564262 C19.2769399,24.7166975 19.4145458,24.8516021 19.5521517,25.0239802 C20.9457028,22.9963753 22.4564522,21.1532553 25.132187,21.028728 C26.9945311,20.9422507 28.8026491,21.1665152 30.1810403,22.6764092 C31.1629399,23.7510341 31.186846,24.9184779 30.648667,26.1499149 C30.117485,27.3657861 29.1134285,28.014366 27.7962603,28.0137895 C26.8312698,28.0132129 25.7327551,27.6269476 25.7694888,26.5834546 C25.8038903,25.5981896 26.3881322,24.5962057 26.8808313,23.6806992 C27.0703309,23.3284482 27.6738144,23.1935436 28.1052904,22.9502541 C25.7222597,21.5666169 23.0873402,22.1569688 21.5719262,24.5120345 C20.9299598,25.5099828 20.3742886,26.6255402 20.0751707,27.7635817 C18.9673267,31.9761803 18.9533579,32.213569 17.9667936,36.4555699 C17.5592237,38.2081769 17.5691359,40.0195885 19.2524758,41.1437937 C20.9200725,42.2570451 22.6792122,41.6309493 24.1654724,40.6543321 C26.3257682,39.234951 27.7140716,37.1710256 28.5991807,34.7542727 C28.7618588,34.3103558 29.255724,33.9852011 29.5968233,33.6052774 C29.7041093,34.0976216 30.0189702,34.6545355 29.8854459,35.0713562 C28.96302,37.9591222 27.2295356,40.3020811 24.6103592,41.8938403 C20.9748816,44.1024711 17.1195845,42.9505932 14.5627972,38.9132553 C13.9441538,39.6413944 13.3878995,40.3937471 12.7331054,41.0486687 C10.7255754,43.0566721 7.61195069,43.5040481 5.09656173,42.197664 C2.60566196,40.9033868 2.26806108,37.9372147 4.44060147,36.4440396 C5.61666534,35.6363414 7.12216703,35.6928399 7.89882398,36.5737556 C8.65390713,37.4293045 8.55070271,38.7893045 7.55247696,39.831068 C7.1035086,40.2997751 6.49594363,40.6197411 5.86272332,41.0774944 C9.34776732,42.2201481 11.1710453,41.6355614 12.8188175,38.6745779 Z" id="Fill-4" sketch:type="MSShapeGroup"></path>
            <path d="M37.2461379,18.6884049 C39.8287986,18.6884049 42.2500172,18.7521057 44.6642344,18.6594855 C45.7449076,18.6180605 45.6361813,17.5468716 45.8593997,16.8516345 C46.0776759,16.1712478 46.0196062,16.1544433 46.9087728,16.2681668 C46.6357217,17.8294216 46.3634942,19.3891133 46.0822061,21 L34,21 C34.3809538,20.4423252 34.5955234,19.9741442 34.9484719,19.6368819 C37.0031512,17.6742731 39.0953081,15.748009 41.16399,13.7982968 C42.700984,12.3499838 43.8965611,10.7250282 44.149432,8.60062731 C44.3792398,6.66967357 43.0065707,4.5765369 41.1149808,4.14939008 C39.0055266,3.67300218 36.6201382,4.28069963 35.7738031,6.26363007 C36.2746029,6.66889196 36.9335499,6.96590165 37.1382354,7.43994473 C37.3128563,7.84364342 37.1382354,8.64166155 36.8013487,8.91678631 C36.4282199,9.22161203 35.6131848,9.32869184 35.1449205,9.15283084 C34.7330786,8.99807317 34.3200012,8.34934149 34.281288,7.89053969 C34.1569118,6.41799694 34.9670048,5.2631764 36.0793898,4.3291591 C38.5706215,2.23641324 44.3462925,2.48691746 46.345785,5.99905697 C47.30167,7.67794328 47.2007688,9.39356501 46.1040338,10.8899467 C45.2198092,12.0955715 44.0423531,13.1327606 42.8801353,14.1234442 C41.1985848,15.5565159 39.4124264,16.8793814 37.6740417,18.2526604 C37.5529602,18.348407 37.457001,18.4719005 37.2461379,18.6884049" id="Fill-6" sketch:type="MSShapeGroup"></path>
        </g>
    </g>
</svg>