<?xml version="1.0" encoding="UTF-8" standalone="no"?>
<svg width="50px" height="50px" viewBox="0 0 50 50" version="1.1" xmlns="http://www.w3.org/2000/svg" xmlns:xlink="http://www.w3.org/1999/xlink" xmlns:sketch="http://www.bohemiancoding.com/sketch/ns">
    <!-- Generator: Sketch 3.4.3 (16044) - http://www.bohemiancoding.com/sketch -->
    <title>Reading</title>
    <desc>Created with Sketch.</desc>
    <defs></defs>
    <g id="Gallery-Icons" stroke="none" stroke-width="1" fill="none" fill-rule="evenodd" sketch:type="MSPage">
        <g id="Reading" sketch:type="MSArtboardGroup" fill="#FFFFFF">
            <path d="M3,12.199088 C3,10.9845652 3.99023943,10 5.20154197,10 C5.20154197,10 15.330957,10 19.7919189,10 C25,10 25,13.444955 25,13.444955 L25,41 C25,41 25,38.7857143 19.7919189,38.7857143 L5.20195634,38.7857143 C3.98584943,38.7857143 3,37.7948448 3,36.5866263 L3,12.199088 Z M8.5,16.6428571 L19.5,16.6428571 L19.5,18.8571429 L8.5,18.8571429 L8.5,16.6428571 Z M8.5,21.0714286 L19.5,21.0714286 L19.5,23.2857143 L8.5,23.2857143 L8.5,21.0714286 Z M8.5,25.5 L19.5,25.5 L19.5,27.7142857 L8.5,27.7142857 L8.5,25.5 Z M8.5,29.9285714 L19.5,29.9285714 L19.5,32.1428571 L8.5,32.1428571 L8.5,29.9285714 Z M47,12.199088 C47,10.9845652 46.0097606,10 44.798458,10 C44.798458,10 34.669043,10 30.2080811,10 C25,10 25,13.444955 25,13.444955 L25,41 C25,41 25,38.7857143 30.2080811,38.7857143 L44.7980437,38.7857143 C46.0141506,38.7857143 47,37.7948448 47,36.5866263 L47,12.199088 Z M41.5,16.6428571 L30.5,16.6428571 L30.5,18.8571429 L41.5,18.8571429 L41.5,16.6428571 Z M41.5,21.0714286 L30.5,21.0714286 L30.5,23.2857143 L41.5,23.2857143 L41.5,21.0714286 Z M41.5,25.5 L30.5,25.5 L30.5,27.7142857 L41.5,27.7142857 L41.5,25.5 Z M41.5,29.9285714 L30.5,29.9285714 L30.5,32.1428571 L41.5,32.1428571 L41.5,29.9285714 Z" id="Rectangle-103" sketch:type="MSShapeGroup"></path>
        </g>
    </g>
</svg>