<svg width="24" height="24" viewBox="0 0 24 24" fill="none" xmlns="http://www.w3.org/2000/svg">
<g clip-path="url(#clip0_10309_92415)">
<path d="M18.3004 5.70876C18.1131 5.52251 17.8596 5.41797 17.5954 5.41797C17.3312 5.41797 17.0778 5.52251 16.8904 5.70876L12.0004 10.5888L7.11042 5.69876C6.91912 5.53494 6.67304 5.44933 6.42136 5.45905C6.16969 5.46877 5.93095 5.5731 5.75285 5.7512C5.57476 5.92929 5.47043 6.16803 5.46071 6.41971C5.45099 6.67138 5.53659 6.91746 5.70042 7.10876L10.5904 11.9988L5.70042 16.8888C5.53659 17.0801 5.45099 17.3261 5.46071 17.5778C5.47043 17.8295 5.57476 18.0682 5.75285 18.2463C5.93095 18.4244 6.16969 18.5288 6.42136 18.5385C6.67304 18.5482 6.91912 18.4626 7.11042 18.2988L12.0004 13.4088L16.8904 18.2988C17.0817 18.4626 17.3278 18.5482 17.5795 18.5385C17.8311 18.5288 18.0699 18.4244 18.248 18.2463C18.4261 18.0682 18.5304 17.8295 18.5401 17.5778C18.5499 17.3261 18.4642 17.0801 18.3004 16.8888L13.4104 11.9988L18.3004 7.10876C18.4836 6.92183 18.5863 6.67051 18.5863 6.40876C18.5863 6.14701 18.4836 5.89569 18.3004 5.70876Z" fill="#333333"/>
</g>
</svg>
