<svg width="24" height="24" viewBox="0 0 24 24" fill="none" xmlns="http://www.w3.org/2000/svg">
<g clip-path="url(#clip0_10309_92440)">
<path d="M12 24C9.62663 24 7.30655 23.2962 5.33316 21.9776C3.35977 20.6591 1.82171 18.7849 0.913457 16.5922C0.00520509 14.3995 -0.232443 11.9867 0.23058 9.65892C0.693603 7.33115 1.8365 5.19295 3.51473 3.51472C5.19296 1.83649 7.33115 0.693605 9.65893 0.230582C11.9867 -0.232441 14.3995 0.00519943 16.5922 0.913451C18.7849 1.8217 20.6591 3.35977 21.9776 5.33316C23.2962 7.30655 24 9.62662 24 12C24 15.1826 22.7357 18.2348 20.4853 20.4853C18.2349 22.7357 15.1826 24 12 24ZM12 2.378C10.097 2.378 8.23665 2.94232 6.65432 3.9996C5.07199 5.05688 3.83871 6.55963 3.11045 8.31782C2.38218 10.076 2.19163 12.0107 2.5629 13.8772C2.93417 15.7436 3.85057 17.4581 5.19623 18.8038C6.54189 20.1494 8.25637 21.0658 10.1229 21.4371C11.9893 21.8084 13.924 21.6178 15.6822 20.8896C17.4404 20.1613 18.9431 18.928 20.0004 17.3457C21.0577 15.7634 21.622 13.9031 21.622 12C21.622 9.44809 20.6083 7.00069 18.8038 5.19622C16.9993 3.39174 14.5519 2.378 12 2.378Z" fill="#333333"/>
<path d="M8.53357 10.1622C8.52689 9.64675 8.61153 9.13416 8.78357 8.64821C8.93897 8.21195 9.18698 7.81452 9.51056 7.48321C9.83629 7.15463 10.2283 6.89928 10.6606 6.73421C11.1413 6.55142 11.6523 6.4615 12.1666 6.46921C12.608 6.46331 13.0473 6.53091 13.4666 6.66922C13.8493 6.79688 14.2038 6.9972 14.5106 7.25922C14.8119 7.52403 15.0509 7.8522 15.2106 8.22021C15.387 8.63056 15.4746 9.0736 15.4676 9.52022C15.475 9.82912 15.4387 10.1375 15.3596 10.4362C15.294 10.6722 15.1928 10.8968 15.0596 11.1022C14.9356 11.2852 14.7906 11.453 14.6276 11.6022L14.1436 12.0342C13.9509 12.1955 13.7742 12.3519 13.6136 12.5032C13.4519 12.6541 13.3095 12.8244 13.1896 13.0102C13.061 13.2128 12.9664 13.4351 12.9096 13.6682C12.8376 13.9705 12.804 14.2806 12.8096 14.5912H11.1666C11.1622 14.2141 11.1849 13.8371 11.2346 13.4632C11.2703 13.1848 11.3429 12.9124 11.4506 12.6532C11.5442 12.4321 11.6691 12.2257 11.8216 12.0402C11.9795 11.8509 12.1543 11.6762 12.3436 11.5182C12.5049 11.3742 12.6589 11.2429 12.8056 11.1242C12.9502 11.0046 13.0822 10.8706 13.1996 10.7242C13.316 10.5758 13.4078 10.4097 13.4716 10.2322C13.5415 10.0231 13.5754 9.80366 13.5716 9.58322C13.5787 9.31482 13.5243 9.04834 13.4126 8.80421C13.3207 8.60581 13.1893 8.42819 13.0266 8.28221C12.8848 8.15651 12.7206 8.05879 12.5426 7.99422C12.3974 7.93875 12.2439 7.90799 12.0886 7.90321C11.825 7.88305 11.5606 7.92848 11.3189 8.03544C11.0773 8.14241 10.8658 8.3076 10.7036 8.51622C10.3845 9.00238 10.2283 9.57743 10.2576 10.1582L8.53357 10.1622ZM10.9396 15.6412H12.9676V17.5332H10.9396V15.6412Z" fill="#333333"/>
</g>
</svg>
