<svg width="24" height="24" viewBox="0 0 24 24" fill="none" xmlns="http://www.w3.org/2000/svg">
<g clip-path="url(#clip0_10091_52031)">
<path d="M12 24C9.62663 24 7.30655 23.2962 5.33316 21.9776C3.35977 20.6591 1.82171 18.7849 0.913457 16.5922C0.00520509 14.3995 -0.232443 11.9867 0.23058 9.65892C0.693603 7.33115 1.8365 5.19295 3.51473 3.51472C5.19296 1.83649 7.33115 0.693605 9.65893 0.230582C11.9867 -0.232441 14.3995 0.00519943 16.5922 0.913451C18.7849 1.8217 20.6591 3.35977 21.9776 5.33316C23.2962 7.30655 24 9.62662 24 12C24 15.1826 22.7357 18.2348 20.4853 20.4853C18.2349 22.7357 15.1826 24 12 24ZM12 2.378C10.097 2.378 8.23665 2.94232 6.65432 3.9996C5.07199 5.05688 3.83871 6.55963 3.11045 8.31782C2.38218 10.076 2.19163 12.0107 2.5629 13.8772C2.93417 15.7436 3.85057 17.4581 5.19623 18.8038C6.54189 20.1494 8.25637 21.0658 10.1229 21.4371C11.9893 21.8084 13.924 21.6178 15.6822 20.8896C17.4404 20.1613 18.9431 18.928 20.0004 17.3457C21.0577 15.7634 21.622 13.9031 21.622 12C21.622 9.44809 20.6083 7.00069 18.8038 5.19622C16.9993 3.39174 14.5519 2.378 12 2.378Z" fill="#0D48A1"/>
<path d="M8.53357 10.161C8.52689 9.64553 8.61153 9.13294 8.78357 8.64699C8.93897 8.21073 9.18698 7.8133 9.51056 7.48199C9.83629 7.15341 10.2283 6.89806 10.6606 6.73299C11.1413 6.5502 11.6523 6.46028 12.1666 6.46799C12.608 6.46209 13.0473 6.52969 13.4666 6.668C13.8493 6.79566 14.2038 6.99598 14.5106 7.25799C14.8119 7.52281 15.0509 7.85098 15.2106 8.21899C15.387 8.62934 15.4746 9.07238 15.4676 9.519C15.475 9.8279 15.4387 10.1363 15.3596 10.435C15.294 10.671 15.1928 10.8955 15.0596 11.101C14.9356 11.284 14.7906 11.4518 14.6276 11.601L14.1436 12.033C13.9509 12.1943 13.7742 12.3507 13.6136 12.502C13.4519 12.6529 13.3095 12.8232 13.1896 13.009C13.061 13.2116 12.9664 13.4339 12.9096 13.667C12.8376 13.9692 12.804 14.2794 12.8096 14.59H11.1666C11.1622 14.2129 11.1849 13.8359 11.2346 13.462C11.2703 13.1836 11.3429 12.9112 11.4506 12.652C11.5442 12.4309 11.6691 12.2245 11.8216 12.039C11.9795 11.8497 12.1543 11.675 12.3436 11.517C12.5049 11.373 12.6589 11.2417 12.8056 11.123C12.9502 11.0034 13.0822 10.8694 13.1996 10.723C13.316 10.5746 13.4078 10.4085 13.4716 10.231C13.5415 10.0219 13.5754 9.80244 13.5716 9.582C13.5787 9.3136 13.5243 9.04712 13.4126 8.80299C13.3207 8.60459 13.1893 8.42697 13.0266 8.28099C12.8848 8.15529 12.7206 8.05757 12.5426 7.993C12.3974 7.93753 12.2439 7.90677 12.0886 7.90199C11.825 7.88183 11.5606 7.92726 11.3189 8.03422C11.0773 8.14119 10.8658 8.30638 10.7036 8.515C10.3845 9.00116 10.2283 9.57621 10.2576 10.157L8.53357 10.161ZM10.9396 15.64H12.9676V17.532H10.9396V15.64Z" fill="#0D48A1"/>
</g>
<defs>
<clipPath id="clip0_10091_52031">
<rect width="24" height="24" fill="white"/>
</clipPath>
</defs>
</svg>
