<svg width="20" height="17" viewBox="0 0 20 17" fill="none" xmlns="http://www.w3.org/2000/svg">
<path d="M2.00088 17.0069H17.0609C17.4118 17.0066 17.7564 16.9139 18.0602 16.7382C18.3639 16.5625 18.6161 16.31 18.7914 16.0061C18.9667 15.7021 19.0589 15.3573 19.0588 15.0064C19.0587 14.6555 18.9663 14.3108 18.7909 14.0069L11.2609 0.996944C11.0851 0.693866 10.8327 0.442294 10.5291 0.267415C10.2255 0.0925362 9.88126 0.000488281 9.53088 0.000488281C9.1805 0.000488281 8.83627 0.0925362 8.53265 0.267415C8.22904 0.442294 7.97669 0.693866 7.80088 0.996944L0.27088 14.0069C0.0954296 14.3108 0.00301984 14.6555 0.00292975 15.0064C0.00283967 15.3573 0.0950723 15.7021 0.270366 16.0061C0.44566 16.31 0.697845 16.5625 1.0016 16.7382C1.30535 16.9139 1.64998 17.0066 2.00088 17.0069ZM9.53088 10.0069C9.26566 10.0069 9.01131 9.90159 8.82377 9.71405C8.63624 9.52652 8.53088 9.27216 8.53088 9.00694V7.00694C8.53088 6.74173 8.63624 6.48737 8.82377 6.29984C9.01131 6.1123 9.26566 6.00694 9.53088 6.00694C9.7961 6.00694 10.0505 6.1123 10.238 6.29984C10.4255 6.48737 10.5309 6.74173 10.5309 7.00694V9.00694C10.5309 9.27216 10.4255 9.52652 10.238 9.71405C10.0505 9.90159 9.7961 10.0069 9.53088 10.0069ZM10.5309 14.0069H8.53088V12.0069H10.5309V14.0069Z" fill="#0D48A1"/>
</svg>
