<svg width="24" height="24" viewBox="0 0 24 24" fill="none" xmlns="http://www.w3.org/2000/svg">
<g clip-path="url(#clip0_10309_92433)">
<path d="M4.00088 20.0065H19.0609C19.4118 20.0061 19.7564 19.9134 20.0602 19.7377C20.3639 19.5621 20.6161 19.3095 20.7914 19.0056C20.9667 18.7016 21.0589 18.3568 21.0588 18.0059C21.0587 17.655 20.9663 17.3103 20.7909 17.0065L13.2609 3.99646C13.0851 3.69338 12.8327 3.44181 12.5291 3.26693C12.2255 3.09205 11.8813 3 11.5309 3C11.1805 3 10.8363 3.09205 10.5327 3.26693C10.229 3.44181 9.97669 3.69338 9.80088 3.99646L2.27088 17.0065C2.09543 17.3103 2.00302 17.655 2.00293 18.0059C2.00284 18.3568 2.09507 18.7016 2.27037 19.0056C2.44566 19.3095 2.69785 19.5621 3.0016 19.7377C3.30535 19.9134 3.64998 20.0061 4.00088 20.0065ZM11.5309 13.0065C11.2657 13.0065 11.0113 12.9011 10.8238 12.7136C10.6362 12.526 10.5309 12.2717 10.5309 12.0065V10.0065C10.5309 9.74124 10.6362 9.48689 10.8238 9.29935C11.0113 9.11181 11.2657 9.00646 11.5309 9.00646C11.7961 9.00646 12.0505 9.11181 12.238 9.29935C12.4255 9.48689 12.5309 9.74124 12.5309 10.0065V12.0065C12.5309 12.2717 12.4255 12.526 12.238 12.7136C12.0505 12.9011 11.7961 13.0065 11.5309 13.0065ZM12.5309 17.0065H10.5309V15.0065H12.5309V17.0065Z" fill="#333333"/>
</g>
</svg>
