<svg width="19" height="20" viewBox="0 0 19 20" fill="none" xmlns="http://www.w3.org/2000/svg">
<path d="M15.9996 14.08C15.2731 14.0831 14.574 14.3578 14.0396 14.85L6.9096 10.7C6.96473 10.4705 6.99491 10.2359 6.9996 9.99996C6.99491 9.76406 6.96473 9.52937 6.9096 9.29996L13.9596 5.18996C14.4644 5.65712 15.1146 5.93619 15.801 5.98023C16.4873 6.02427 17.1679 5.83058 17.7282 5.43175C18.2885 5.03293 18.6944 4.45329 18.8775 3.79036C19.0607 3.12743 19.0099 2.42165 18.7338 1.79175C18.4577 1.16185 17.973 0.646261 17.3614 0.331719C16.7498 0.0171775 16.0485 -0.0771252 15.3755 0.0646747C14.7025 0.206475 14.0989 0.575724 13.6662 1.11031C13.2335 1.64489 12.9981 2.31219 12.9996 2.99996C13.0043 3.23585 13.0345 3.47055 13.0896 3.69996L6.0396 7.80996C5.6126 7.41018 5.07804 7.14396 4.5017 7.04405C3.92536 6.94413 3.33239 7.01488 2.79574 7.24759C2.25909 7.4803 1.80217 7.86482 1.48122 8.35383C1.16026 8.84285 0.989258 9.41502 0.989258 9.99996C0.989258 10.5849 1.16026 11.1571 1.48122 11.6461C1.80217 12.1351 2.25909 12.5196 2.79574 12.7523C3.33239 12.985 3.92536 13.0558 4.5017 12.9559C5.07804 12.856 5.6126 12.5897 6.0396 12.19L13.1596 16.35C13.1078 16.5628 13.0809 16.7809 13.0796 17C13.0796 17.5775 13.2509 18.142 13.5717 18.6222C13.8926 19.1024 14.3486 19.4767 14.8822 19.6977C15.4157 19.9187 16.0028 19.9765 16.5693 19.8638C17.1357 19.7512 17.656 19.4731 18.0644 19.0647C18.4727 18.6563 18.7508 18.136 18.8635 17.5696C18.9762 17.0032 18.9183 16.4161 18.6973 15.8825C18.4763 15.349 18.1021 14.8929 17.6219 14.5721C17.1417 14.2512 16.5771 14.08 15.9996 14.08Z" fill="#0D48A1"/>
</svg>