<svg width="24" height="24" viewBox="0 0 24 24" fill="none" xmlns="http://www.w3.org/2000/svg">
<g clip-path="url(#clip0_10309_92422)">
<path d="M17.9996 16.0796C17.2731 16.0828 16.574 16.3574 16.0396 16.8496L8.9096 12.6996C8.96473 12.4702 8.99491 12.2355 8.9996 11.9996C8.99491 11.7637 8.96473 11.529 8.9096 11.2996L15.9596 7.18959C16.4644 7.65675 17.1146 7.93583 17.801 7.97986C18.4873 8.0239 19.1679 7.83021 19.7282 7.43139C20.2885 7.03256 20.6944 6.45293 20.8775 5.79C21.0607 5.12706 21.0099 4.42129 20.7338 3.79138C20.4577 3.16148 19.973 2.64589 19.3614 2.33135C18.7498 2.01681 18.0485 1.92251 17.3755 2.06431C16.7025 2.20611 16.0989 2.57536 15.6662 3.10994C15.2335 3.64453 14.9981 4.31183 14.9996 4.99959C15.0043 5.23548 15.0345 5.47018 15.0896 5.69959L8.0396 9.80959C7.6126 9.40982 7.07804 9.1436 6.5017 9.04368C5.92536 8.94376 5.33239 9.01451 4.79574 9.24722C4.25909 9.47994 3.80217 9.86445 3.48122 10.3535C3.16026 10.8425 2.98926 11.4147 2.98926 11.9996C2.98926 12.5845 3.16026 13.1567 3.48122 13.6457C3.80217 14.1347 4.25909 14.5192 4.79574 14.752C5.33239 14.9847 5.92536 15.0554 6.5017 14.9555C7.07804 14.8556 7.6126 14.5894 8.0396 14.1896L15.1596 18.3496C15.1078 18.5624 15.0809 18.7806 15.0796 18.9996C15.0796 19.5771 15.2509 20.1417 15.5717 20.6219C15.8926 21.102 16.3486 21.4763 16.8822 21.6973C17.4157 21.9183 18.0028 21.9762 18.5693 21.8635C19.1357 21.7508 19.656 21.4727 20.0644 21.0643C20.4727 20.656 20.7508 20.1357 20.8635 19.5693C20.9762 19.0028 20.9183 18.4157 20.6973 17.8822C20.4763 17.3486 20.1021 16.8926 19.6219 16.5717C19.1417 16.2508 18.5771 16.0796 17.9996 16.0796Z" fill="#333333"/>
</g>
</svg>
