<?xml version="1.0" encoding="utf-8"?>
<!-- Generator: Adobe Illustrator 18.1.1, SVG Export Plug-In . SVG Version: 6.00 Build 0)  -->
<svg version="1.1" id="Layer_1" xmlns="http://www.w3.org/2000/svg" xmlns:xlink="http://www.w3.org/1999/xlink" x="0px" y="0px"
	 viewBox="0 0 285.9 74.1" enable-background="new 0 0 285.9 74.1" xml:space="preserve">
<g>
	<path fill="#015D53" d="M93.6,34.8h-5.2v-5.2c0-1.2-1-2.2-2.2-2.2s-2.2,1-2.2,2.2v5.2h-5.2c-1.2,0-2.2,1-2.2,2.2s1,2.2,2.2,2.2H84
		v5.2c0,1.2,1,2.2,2.2,2.2s2.2-1,2.2-2.2v-5.2h5.2c1.2,0,2.2-1,2.2-2.2S94.8,34.8,93.6,34.8z"/>
	<g>
		<path opacity="0.76" fill="#F7FBFC" d="M37.1,25.8c-0.9,0-1.6,0.7-1.6,1.6v3.1h1.6h1.6v-3.1C38.6,26.5,37.9,25.8,37.1,25.8z"/>
		<path opacity="0.76" fill="#F7FBFC" d="M37.1,0C16.6,0,0,16.6,0,37.1s16.6,37.1,37.1,37.1s37.1-16.6,37.1-37.1S57.5,0,37.1,0z
			 M24,11.9h3.7v3.3h1.9v-3.3h3.7v3.3h1.9v-3.3h3.7v3.3h1.9v-3.3h3.7v3.3h1.9v-3.3h3.7v5.4l-2.8,4H37.1H26.8l-2.8-4V11.9z M15.9,61
			V35.9v-0.2l-1.1-1.1v-1.7v-4.3H18V32h2.4v-3.5h3.3V32h1.8l-1.9,29H15.9z M41.2,61V48.8c0-2.3-1.8-4.1-4.1-4.1s-4.1,1.8-4.1,4.1V61
			h-8.2l1.9-29h0l0.7-9.8h9.7h9.7l0.7,9.8h0l1.9,29H41.2z M59.4,32.8v1.7l-1.1,1.1v0.2V61h-7.7l-1.9-29h1.8v-3.5h3.3V32h2.4v-3.5
			h3.3V32.8z"/>
	</g>
	<path fill="#015D53" d="M191.9,34.8h-5.2v-5.2c0-1.2-1-2.2-2.2-2.2s-2.2,1-2.2,2.2v5.2H177c-1.2,0-2.2,1-2.2,2.2s1,2.2,2.2,2.2h5.2
		v5.2c0,1.2,1,2.2,2.2,2.2s2.2-1,2.2-2.2v-5.2h5.2c1.2,0,2.2-1,2.2-2.2S193.1,34.8,191.9,34.8z"/>
	<path opacity="0.76" fill="#F7FBFC" d="M135.3,0c-20.5,0-37.1,16.6-37.1,37.1s16.6,37.1,37.1,37.1s37.1-16.6,37.1-37.1
		S155.8,0,135.3,0z M143.4,61.7c-0.3,0.5-0.7,0.5-1.2,0.3c-0.6-0.3-1.3-0.5-1.9-0.8c-1.2-0.5-1.4-0.3-1.3,1c0,0,0,0,0,0.1
		c0.1,1.1-0.5,1.6-1.4,1.1c-0.9-0.5-1.9-1-2.8-1.5c-0.9-0.5-1.8-0.6-2.7-0.1c-1.5,0.7-3,1.2-4.7,1.4c-0.5,0.1-0.9,0-1.2-0.5
		c-0.2-0.5,0-0.9,0.4-1.3c0.6-0.5,1.2-1.1,1.7-1.7c1.1-1.3,1.7-2.7,1.6-4.4c-0.1-1.2-0.1-2.4,0-3.7c0.1-3-0.5-5.9-1.7-8.6
		c-0.2-0.4-0.3-0.9-0.4-1.4c0.1-1.4,1.2-2.3,2.4-2c0.7,0.2,1.1,0.6,1.5,1.2c0.3,0.5,0.5,1,0.8,1.5c1.3,2,2.7,2.1,4,0.1
		c0.8-1.2,1.4-2.7,2-4c0.2-0.5,0.4-1.1,0.7-1.6c0.6-1.1,1.9-1.5,3-0.8c1.1,0.6,1.5,1.8,1,3c-0.1,0.3-0.3,0.6-0.4,1
		c-2.4,5.1-1.9,10.5-1.9,15.9c0,0,0,0.1,0,0.1c0.3,1.7,1.2,3.2,2.3,4.5C143.5,60.8,143.7,61.2,143.4,61.7z M153.1,42.4
		c-1.1,3.5-4.8,6-9.3,6c-0.3,0-0.6,0-0.9,0c0.1-2.6,0.6-5.1,1.7-7.5c0.1-0.2,0.2-0.5,0.3-0.7c0-0.1,0.1-0.2,0.1-0.3
		c1-2.2,0.3-4.6-1.8-5.8c-0.7-0.4-1.4-0.6-2.1-0.6c-1.5,0-2.8,0.8-3.6,2.2c-0.2,0.4-0.4,0.8-0.5,1.1c-0.1,0.2-0.2,0.4-0.2,0.5
		c-0.2,0.4-0.4,0.8-0.6,1.2c-0.4,0.9-0.9,1.8-1.4,2.6c-0.1,0.2-0.2,0.3-0.3,0.4c-0.1-0.1-0.2-0.2-0.4-0.5c-0.2-0.3-0.3-0.6-0.5-0.9
		c-0.1-0.1-0.2-0.3-0.2-0.4c-0.8-1.5-2-2.1-2.8-2.2c-0.3-0.1-0.6-0.1-0.9-0.1c-2.1,0-3.9,1.8-4,4.1l0,0.4l0.1,0.4
		c0,0.1,0.1,0.2,0.1,0.4c0.1,0.4,0.2,0.9,0.4,1.3c0.4,0.8,0.7,1.6,0.9,2.4c0,0,0,0-0.1,0c-4.4,0-8-2.5-9.2-5.9
		c-4.6-0.6-8.1-4-8.1-8.1c0-3.2,2.2-6,5.4-7.4c-1-1.3-1.6-2.8-1.6-4.4c0-4.5,4.5-8.1,9.9-8.1c1.4,0,2.8,0.3,4,0.7
		c1.6-2.7,4.9-4.5,8.8-4.5c4.6,0,8.5,2.7,9.6,6.3c1.1-0.3,2.2-0.5,3.4-0.5c5.3,0,9.6,3.7,9.6,8.2c0,1.9-0.8,3.6-2,5
		c2.4,1.5,3.9,3.9,3.9,6.6C161,38.4,157.6,41.8,153.1,42.4z"/>
	<path opacity="0.76" fill="#F7FBFC" d="M233.6,0c-20.5,0-37.1,16.6-37.1,37.1s16.6,37.1,37.1,37.1s37.1-16.6,37.1-37.1
		S254,0,233.6,0z M218.3,57.8c-1.4,0-2.5-1.1-2.5-2.5c0-1.4,1.1-2.5,2.5-2.5c1.4,0,2.5,1.1,2.5,2.5
		C220.8,56.7,219.7,57.8,218.3,57.8z M228.5,57.8c-1.4,0-2.5-1.1-2.5-2.5c0-1.4,1.1-2.5,2.5-2.5c1.4,0,2.5,1.1,2.5,2.5
		C231,56.7,229.9,57.8,228.5,57.8z M238.7,57.8c-1.4,0-2.5-1.1-2.5-2.5c0-1.4,1.1-2.5,2.5-2.5c1.4,0,2.5,1.1,2.5,2.5
		C241.2,56.7,240.1,57.8,238.7,57.8z M248.9,57.8c-1.4,0-2.5-1.1-2.5-2.5c0-1.4,1.1-2.5,2.5-2.5c1.4,0,2.5,1.1,2.5,2.5
		C251.4,56.7,250.2,57.8,248.9,57.8z"/>
	<path fill="#015D53" d="M279.1,46.6c-1.9-0.2-3.2-1.9-3-3.6l2.9-24.5c0.2-1.8,1.9-3,3.8-2.7c1.9,0.2,3.2,1.9,3,3.6l-2.9,24.5
		C282.7,45.7,281,46.9,279.1,46.6z"/>
	
		<ellipse transform="matrix(0.9918 0.1278 -0.1278 0.9918 9.0726 -35.0959)" fill="#015D53" cx="278.1" cy="53.2" rx="4.4" ry="4.1"/>
</g>
</svg>
