<?xml version="1.0" encoding="utf-8"?>
<!-- Generator: Adobe Illustrator 18.1.1, SVG Export Plug-In . SVG Version: 6.00 Build 0)  -->
<svg version="1.1" id="Layer_1" xmlns="http://www.w3.org/2000/svg" xmlns:xlink="http://www.w3.org/1999/xlink" x="0px" y="0px"
	 viewBox="0 0 270.6 94.8" enable-background="new 0 0 270.6 94.8" xml:space="preserve">
<g>
	<g>
		<path opacity="0.76" fill="#F7FBFC" d="M37.1,35.9c-0.9,0-1.6,0.7-1.6,1.6v3.1h1.6h1.6v-3.1C38.6,36.6,37.9,35.9,37.1,35.9z"/>
		<path opacity="0.76" fill="#F7FBFC" d="M37.1,10.1C16.6,10.1,0,26.7,0,47.2s16.6,37.1,37.1,37.1s37.1-16.6,37.1-37.1
			S57.5,10.1,37.1,10.1z M24,22h3.7v3.3h1.9V22h3.7v3.3h1.9V22h3.7v3.3h1.9V22h3.7v3.3h1.9V22h3.7v5.4l-2.8,4H37.1H26.8l-2.8-4V22z
			 M15.9,71.2V46v-0.2l-1.1-1.1V43v-4.3H18v3.5h2.4v-3.5h3.3v3.5h1.8l-1.9,29H15.9z M41.2,71.2V58.9c0-2.3-1.8-4.1-4.1-4.1
			s-4.1,1.8-4.1,4.1v12.3h-8.2l1.9-29h0l0.7-9.8h9.7h9.7l0.7,9.8h0l1.9,29H41.2z M59.4,43v1.7l-1.1,1.1V46v25.1h-7.7l-1.9-29h1.8
			v-3.5h3.3v3.5h2.4v-3.5h3.3V43z"/>
	</g>
	<g>
		<polygon opacity="0.76" fill="#F7FBFC" points="224.6,44.3 230.6,37.9 230.9,45.6 235,36.1 237.6,45.6 239,38.6 242.1,40.4 
			233.6,24.8 		"/>
		<path opacity="0.76" fill="#F7FBFC" d="M233.6,10.1c-20.5,0-37.1,16.6-37.1,37.1s16.6,37.1,37.1,37.1s37.1-16.6,37.1-37.1
			S254,10.1,233.6,10.1z M210.3,68.1l23.3-47.6l24.8,47.6H210.3z"/>
	</g>
	<path opacity="0.76" fill="#F7FBFC" d="M135.3,10.1c-20.5,0-37.1,16.6-37.1,37.1s16.6,37.1,37.1,37.1s37.1-16.6,37.1-37.1
		S155.8,10.1,135.3,10.1z M133.2,17.2c0-0.4,0.3-0.7,0.7-0.7h2.7c0.4,0,0.7,0.3,0.7,0.7v3.3h-4.1V17.2z M156.8,41.9l-7.2,5.1
		c-0.3,0.2-0.7,0.3-1,0.3c0,0,0,0,0,0l-11.2-0.1v17.6c-0.2,0.2-0.4,0.4-0.5,0.7c-0.5,0.9-1,1.7-1.5,2.6c-0.5-0.9-1-1.8-1.5-2.6
		c-0.2-0.3-0.4-0.5-0.6-0.8V47.2L122,47.1c-0.3,0-0.6-0.3-0.6-0.6l0.1-10.5c0-0.3,0.3-0.6,0.6-0.6c0,0,0,0,0,0l11.1,0.1v-2h-11.2
		c-0.3,0-0.8-0.2-1-0.3l-7.2-5.1c-0.3-0.2-0.3-0.5,0-0.7l7.2-5.1c0.3-0.2,0.7-0.3,1-0.3h8.9h2.3h4.1h1.2h10c0.3,0,0.6,0.3,0.6,0.6
		v10.5c0,0.3-0.3,0.6-0.6,0.6h-11.3v2l11.3,0.1c0.3,0,0.8,0.2,1,0.3l7.2,5.2C157.1,41.4,157.1,41.7,156.8,41.9z"/>
	<g>
		<path fill="#015D53" d="M204.5,35l-9.4-7.8c-0.8-0.7-2.1-0.7-2.9,0c-0.8,0.7-0.8,1.8,0,2.4l5,4.2c-3.3,0.3-6.6,0.7-9.8,1.4
			c-1.4,0.3-2.2,1.4-1.9,2.6c0.3,1,1.3,1.7,2.5,1.7c0.2,0,0.4,0,0.6-0.1c3-0.6,6.1-1,9.3-1.3l-5.6,4.7c-0.8,0.7-0.8,1.8,0,2.4
			c0.4,0.3,0.9,0.5,1.5,0.5s1.1-0.2,1.5-0.5l9.3-7.7C205.3,36.7,205.3,35.6,204.5,35z"/>
		<path fill="#015D53" d="M142.8,66c-1.3-0.5-2.8-0.1-3.5,1c-1.6,2.6-2.9,5.3-4,8c-1-2.7-2.4-5.3-4-8c-0.6-1.1-2.2-1.5-3.5-1
			c-1.3,0.5-1.8,1.8-1.1,2.9c1.8,3,3.3,6.1,4.3,9.1c0.3,0.9,1.4,1.6,2.5,1.6c0.2,0,3.3,0,3.6,0c1.1,0,2.2-0.6,2.5-1.6
			c1-3,2.5-6.1,4.3-9.1C144.5,67.9,144,66.6,142.8,66z"/>
		<path fill="#015D53" d="M154.3,50.1c-3,2.4-5.8,5.1-8.4,7.9c-0.8,1-0.6,2.3,0.5,3c0.5,0.3,1,0.4,1.5,0.4c0.8,0,1.6-0.3,2.1-0.9
			c2.4-2.6,5-5.1,7.8-7.4c1-0.8,1.1-2.2,0.1-3C157,49.3,155.3,49.3,154.3,50.1z"/>
		<path fill="#015D53" d="M175.4,38.4c-3.9,1.4-7.6,3.1-11.2,5c-1.2,0.7-1.5,2-0.7,3c0.5,0.6,1.3,1,2.2,1c0.5,0,1-0.1,1.4-0.4
			c3.3-1.8,6.7-3.4,10.3-4.7c1.3-0.5,1.9-1.7,1.3-2.8C178.2,38.5,176.7,38,175.4,38.4z"/>
		<path fill="#015D53" d="M106.4,43.5c-3.5-2-7.3-3.6-11.2-5c-1.3-0.5-2.8,0-3.4,1.1c-0.6,1.1,0,2.4,1.3,2.8
			c3.6,1.3,7.1,2.9,10.3,4.7c0.4,0.2,0.9,0.4,1.4,0.4c0.8,0,1.7-0.3,2.2-1C107.9,45.5,107.6,44.1,106.4,43.5z"/>
		<path fill="#015D53" d="M116.3,50.1c-1-0.8-2.7-0.8-3.7,0.1c-1,0.9-1,2.2,0.1,3c2.8,2.2,5.4,4.7,7.8,7.4c0.5,0.6,1.3,0.9,2.1,0.9
			c0.5,0,1.1-0.1,1.5-0.4c1.1-0.7,1.4-2.1,0.5-3C122.2,55.2,119.4,52.5,116.3,50.1z"/>
		<path fill="#015D53" d="M83.2,35.1c-3.2-0.6-6.5-1.1-9.8-1.4l5-4.2c0.8-0.7,0.8-1.8,0-2.4c-0.8-0.7-2.1-0.7-2.9,0L66.1,35
			c-0.4,0.3-0.6,0.8-0.6,1.2s0.2,0.9,0.6,1.2l9.3,7.7c0.4,0.3,0.9,0.5,1.5,0.5s1.1-0.2,1.5-0.5c0.8-0.7,0.8-1.8,0-2.4L72.8,38
			c3.2,0.3,6.3,0.7,9.3,1.3c0.2,0,0.4,0.1,0.6,0.1c1.2,0,2.2-0.7,2.5-1.7C85.5,36.6,84.6,35.4,83.2,35.1z"/>
		<path fill="#015D53" d="M135.3,85.4C135.3,85.4,135.3,85.4,135.3,85.4L135.3,85.4c-1.4,0-2.6,1-2.6,2.1v5.2c0,1.2,1.2,2.1,2.6,2.1
			h0c0,0,0,0,0,0c1.4,0,2.6-1,2.6-2.1v-5.2C137.9,86.3,136.7,85.4,135.3,85.4z"/>
	</g>
</g>
</svg>
