<?xml version="1.0" encoding="utf-8"?>
<!-- Generator: Adobe Illustrator 18.1.1, SVG Export Plug-In . SVG Version: 6.00 Build 0)  -->
<svg version="1.1" id="Layer_1" xmlns="http://www.w3.org/2000/svg" xmlns:xlink="http://www.w3.org/1999/xlink" x="0px" y="0px"
	 viewBox="0 0 270.6 74.1" enable-background="new 0 0 270.6 74.1" xml:space="preserve">
<g>
	<g>
		<path opacity="0.76" fill="#F7FBFC" d="M37.1,25.8c-0.9,0-1.6,0.7-1.6,1.6v3.1h1.6h1.6v-3.1C38.6,26.5,37.9,25.8,37.1,25.8z"/>
		<path opacity="0.76" fill="#F7FBFC" d="M37.1,0C16.6,0,0,16.6,0,37.1s16.6,37.1,37.1,37.1s37.1-16.6,37.1-37.1S57.5,0,37.1,0z
			 M24,11.9h3.7v3.3h1.9v-3.3h3.7v3.3h1.9v-3.3h3.7v3.3h1.9v-3.3h3.7v3.3h1.9v-3.3h3.7v5.4l-2.8,4H37.1H26.8l-2.8-4V11.9z M15.9,61
			V35.9v-0.2l-1.1-1.1v-1.7v-4.3H18V32h2.4v-3.5h3.3V32h1.8l-1.9,29H15.9z M41.2,61V48.8c0-2.3-1.8-4.1-4.1-4.1s-4.1,1.8-4.1,4.1V61
			h-8.2l1.9-29h0l0.7-9.8h9.7h9.7l0.7,9.8h0l1.9,29H41.2z M59.4,32.8v1.7l-1.1,1.1v0.2V61h-7.7l-1.9-29h1.8v-3.5h3.3V32h2.4v-3.5
			h3.3V32.8z"/>
	</g>
	<g>
		<path opacity="0.76" fill="#F7FBFC" d="M135.3,29.4c-0.7,0-1.2,0.5-1.2,1.2v2.4h1.2h1.2v-2.4C136.6,30,136,29.4,135.3,29.4z"/>
		<path opacity="0.76" fill="#F7FBFC" d="M135.3,0c-20.5,0-37.1,16.6-37.1,37.1s16.6,37.1,37.1,37.1s37.1-16.6,37.1-37.1
			S155.8,0,135.3,0z M135.3,3.7l6.3,12.5h-6.3h-6.3L135.3,3.7z M125.5,17.2l2.8,0v2.4h1.4v-2.4h2.8v2.4h1.4v-2.4h2.8v2.4h1.4l0-2.4
			h2.8v2.4h1.4v-2.4h2.8v3.9l-2.1,2.9h-7.7h-7.7l-2.1-2.9V17.2z M105.9,26.9l2.3,0V29h1.2l0-2.1h2.3V29h1.2v-2.1h2.3V29h1.2v-2.1
			h2.3V29h1.2v-2.1h2.3v3.4l-1.7,2.5h-6.3l-6.3,0l-1.7-2.5V26.9z M106.4,58l1.2-18.3h0l0.4-6.2h5.9h5.9l0.4,6.2h0l1.2,18.3H106.4z
			 M148.9,39.7L148.9,39.7L147.7,58l-3.1,0v0l-6.1,0v-9.4c0-1.7-1.4-3.2-3.1-3.2c-1.7,0-3.1,1.4-3.1,3.2V58l-3.2,0v0l-6.1,0
			l-1.2-18.3h0l-0.2-3.6h1.2v-2.3h2.3V36h2.6l0-0.3h0l0.5-11.2l14.5,0l0.5,11.2h0l0,0.3h2.5v-2.3h2.3V36h1.2L148.9,39.7z M149.3,58
			l1.2-18.3h0l0.4-6.2h5.9h5.9l0.4,6.2h0l1.2,18.3H149.3z M163,32.8l-6.3,0h-6.3l-1.7-2.5v-3.4h2.3V29h1.2v-2.1h2.3V29h1.2v-2.1h2.3
			V29h1.2v-2.1h2.3V29h1.2v-2.1l2.3,0v3.4L163,32.8z"/>
		<path opacity="0.76" fill="#F7FBFC" d="M113.9,36.8c-0.7,0-1.2,0.5-1.2,1.2v2.4h1.2h1.2v-2.4C115.1,37.4,114.5,36.8,113.9,36.8z"
			/>
		<path opacity="0.76" fill="#F7FBFC" d="M156.8,36.8c-0.7,0-1.2,0.5-1.2,1.2v2.4h1.2h1.2v-2.4C158,37.4,157.4,36.8,156.8,36.8z"/>
	</g>
	<g>
		<path opacity="0.76" fill="#F7FBFC" d="M212.1,36.8c-0.7,0-1.2,0.5-1.2,1.2v2.4h1.2h1.2v-2.4C213.3,37.4,212.8,36.8,212.1,36.8z"
			/>
		<path opacity="0.76" fill="#F7FBFC" d="M233.6,29.4c-0.7,0-1.2,0.5-1.2,1.2v2.4h1.2h1.2v-2.4C234.8,30,234.3,29.4,233.6,29.4z"/>
		<path opacity="0.76" fill="#F7FBFC" d="M233.6,0c-20.5,0-37.1,16.6-37.1,37.1s16.6,37.1,37.1,37.1s37.1-16.6,37.1-37.1
			S254,0,233.6,0z M250.9,23.5c1.7-1.3,3.9-4,4.2-6c0.3,2,2.5,4.7,4.2,6c1.6,1.3,4.4,5.6-0.1,9.1H255l-4.1,0
			C246.5,29.1,249.2,24.8,250.9,23.5z M228.4,12.3c2.1-1.6,4.8-4.9,5.1-7.4c0.3,2.5,3,5.8,5.1,7.4c2,1.5,5.4,6.9-0.1,11.2h-5h-5
			C223.1,19.2,226.4,13.9,228.4,12.3z M207.9,23.5c1.7-1.3,3.9-4,4.2-6c0.3,2,2.5,4.7,4.2,6c1.6,1.3,4.4,5.6-0.1,9.1l-4.1,0H208
			C203.6,29.1,206.3,24.8,207.9,23.5z M204.6,58l1.2-18.3h0l0.4-6.2h5.9h5.9l0.4,6.2h0l1.2,18.3H204.6z M247.1,39.7L247.1,39.7
			L246,58l-3.1,0v0l-6.1,0v-9.4c0-1.7-1.4-3.2-3.1-3.2s-3.1,1.4-3.1,3.2V58l-3.2,0v0l-6.1,0L220,39.7h0l-0.2-3.6h1.2v-2.3h2.3V36
			h2.6l0-0.3h0l0.5-11.2l14.5,0l0.5,11.2h0l0,0.3h2.5v-2.3h2.3V36h1.2L247.1,39.7z M247.5,58l1.2-18.3h0l0.4-6.2h5.9h5.9l0.4,6.2h0
			l1.2,18.3H247.5z"/>
		<path opacity="0.76" fill="#F7FBFC" d="M255,36.8c-0.7,0-1.2,0.5-1.2,1.2v2.4h1.2h1.2v-2.4C256.2,37.4,255.7,36.8,255,36.8z"/>
	</g>
	<path fill="#015D53" d="M100.2,37.9c0-0.1,0-0.2,0-0.3c0-0.1,0-0.2-0.1-0.3c0-0.1,0-0.1,0-0.2c0,0,0-0.1,0-0.1
		c0-0.1-0.1-0.2-0.2-0.3c-0.1-0.1-0.1-0.2-0.2-0.2c0,0,0-0.1-0.1-0.1l-6.9-6.9c-0.8-0.8-2-0.8-2.8,0c-0.8,0.8-0.8,2,0,2.8l3.5,3.5
		H71.8c-1.1,0-2,0.9-2,2s0.9,2,2,2h21.6L90,43.3c-0.8,0.8-0.8,2,0,2.8c0.4,0.4,0.9,0.6,1.4,0.6s1-0.2,1.4-0.6l6.9-6.9
		c0,0,0-0.1,0.1-0.1c0.1-0.1,0.1-0.2,0.2-0.2c0.1-0.1,0.1-0.2,0.2-0.3c0,0,0-0.1,0-0.1c0-0.1,0-0.1,0-0.2c0-0.1,0.1-0.2,0.1-0.3
		C100.2,38.1,100.2,38,100.2,37.9z"/>
	<path fill="#015D53" d="M199.6,37.9c0-0.1,0-0.2,0-0.3c0-0.1,0-0.2-0.1-0.3c0-0.1,0-0.1,0-0.2c0,0,0-0.1,0-0.1
		c0-0.1-0.1-0.2-0.2-0.3c-0.1-0.1-0.1-0.2-0.2-0.2c0,0,0-0.1-0.1-0.1l-6.9-6.9c-0.8-0.8-2-0.8-2.8,0c-0.8,0.8-0.8,2,0,2.8l3.5,3.5
		h-21.6c-1.1,0-2,0.9-2,2s0.9,2,2,2h21.6l-3.5,3.5c-0.8,0.8-0.8,2,0,2.8c0.4,0.4,0.9,0.6,1.4,0.6s1-0.2,1.4-0.6l6.9-6.9
		c0,0,0-0.1,0.1-0.1c0.1-0.1,0.1-0.2,0.2-0.2c0.1-0.1,0.1-0.2,0.2-0.3c0,0,0-0.1,0-0.1c0-0.1,0-0.1,0-0.2c0-0.1,0.1-0.2,0.1-0.3
		C199.6,38.1,199.6,38,199.6,37.9z"/>
</g>
</svg>
