<?xml version="1.0" encoding="utf-8"?>
<!-- Generator: Adobe Illustrator 18.1.1, SVG Export Plug-In . SVG Version: 6.00 Build 0)  -->
<svg version="1.1" id="Layer_4_copy" xmlns="http://www.w3.org/2000/svg" xmlns:xlink="http://www.w3.org/1999/xlink" x="0px"
	 y="0px" viewBox="0 0 186.7 186.7" enable-background="new 0 0 186.7 186.7" xml:space="preserve">
<g>
	<rect x="0" y="0" fill="none" width="186.7" height="186.7"/>
	<g>
		<circle fill="#EEF4FB" cx="93.4" cy="93.4" r="6.7"/>
		<path fill="#EEF4FB" d="M134.4,93.4c0-3.7,3-6.7,6.7-6.7c1.8,0,3.5,0.7,4.7,1.9c-2.3-25.2-22.4-45.3-47.6-47.6
			c1.2,1.2,1.9,2.9,1.9,4.7c0,3.7-3,6.7-6.7,6.7s-6.7-3-6.7-6.7c0-1.8,0.7-3.5,1.9-4.7C63.4,43.3,43.3,63.4,41,88.6
			c1.2-1.2,2.9-1.9,4.7-1.9c3.7,0,6.7,3,6.7,6.7s-3,6.7-6.7,6.7c-1.8,0-3.5-0.7-4.7-1.9c2.3,25.2,22.4,45.3,47.6,47.6
			c-1.2-1.2-1.9-2.9-1.9-4.7c0-3.7,3-6.7,6.7-6.7s6.7,3,6.7,6.7c0,1.8-0.7,3.5-1.9,4.7c25.2-2.3,45.3-22.4,47.6-47.6
			c-1.2,1.2-2.9,1.9-4.7,1.9C137.4,100.1,134.4,97.1,134.4,93.4z M101.7,101.7L101.7,101.7l-37.5,20.9l20.9-37.5l0,0l37.5-20.9
			L101.7,101.7z"/>
		<path fill="#EEF4FB" d="M93.4,13.8c-43.9,0-79.5,35.6-79.5,79.5c0,43.9,35.6,79.5,79.5,79.5s79.5-35.6,79.5-79.5
			C172.9,49.4,137.3,13.8,93.4,13.8z M93.4,159.7c-36.6,0-66.3-29.7-66.3-66.3s29.7-66.3,66.3-66.3s66.3,29.7,66.3,66.3
			S130,159.7,93.4,159.7z"/>
	</g>
</g>
</svg>
