<?xml version="1.0" encoding="utf-8"?>
<!-- Generator: Adobe Illustrator 18.1.1, SVG Export Plug-In . SVG Version: 6.00 Build 0)  -->
<svg version="1.1" id="books" xmlns="http://www.w3.org/2000/svg" xmlns:xlink="http://www.w3.org/1999/xlink" x="0px" y="0px"
	 viewBox="0 0 386.4 198.6" enable-background="new 0 0 386.4 198.6" xml:space="preserve">
<g>
	<g>
		<path fill="#CE672B" d="M193.2,0c-3.5,0-6.4,0.5-6.4,1v139h12.8V1C199.6,0.5,196.8,0,193.2,0z"/>
		<rect x="186.8" y="5.7" fill="#974D22" width="12.8" height="2.9"/>
		<rect x="186.8" y="21.5" fill="#974D22" width="12.8" height="2.9"/>
		<rect x="186.8" y="84" fill="#974D22" width="12.8" height="2.9"/>
		<rect x="186.8" y="99.7" fill="#974D22" width="12.8" height="2.9"/>
		<ellipse fill="#974D22" cx="193.2" cy="15.1" rx="3.3" ry="4.9"/>
		<path fill="#CF972B" d="M228.7,26.4c-7.8,0-14.2,0.5-14.2,1v124.3h28.3V27.4C242.8,26.9,236.5,26.4,228.7,26.4z"/>
		<path fill="#B1832C" d="M242.8,33.4h-28.3c-0.4,0-0.6,0.7-0.6,1.5c0,0.8,0.3,1.5,0.6,1.5h28.3c0.4,0,0.6-0.7,0.6-1.5
			C243.5,34.1,243.2,33.4,242.8,33.4z"/>
		<path fill="#B1832C" d="M242.8,98.8h-28.3c-0.4,0-0.6,0.7-0.6,1.5c0,0.8,0.3,1.5,0.6,1.5h28.3c0.4,0,0.6-0.7,0.6-1.5
			C243.5,99.5,243.2,98.8,242.8,98.8z"/>
		<path fill="#B1832C" d="M242.8,61h-28.3c-0.4,0-0.6,0.7-0.6,1.5c0,0.8,0.3,1.5,0.6,1.5h28.3c0.4,0,0.6-0.7,0.6-1.5
			C243.5,61.6,243.2,61,242.8,61z"/>
		<path fill="#B1832C" d="M242.8,67.8h-28.3c-0.4,0-0.6,0.7-0.6,1.5c0,0.8,0.3,1.5,0.6,1.5h28.3c0.4,0,0.6-0.7,0.6-1.5
			C243.5,68.5,243.2,67.8,242.8,67.8z"/>
		<path fill="#7C8952" d="M253.3,36.3c-5.1,0-9.3,0.5-9.3,1l0.2,124.3l18.6,0l-0.2-124.3C262.6,36.8,258.5,36.3,253.3,36.3z"/>
		<path fill="#005240" d="M262.5,43.8l-18.4,0c-0.2,0-0.4,0.7-0.4,1.5c0,0.8,0.2,1.5,0.4,1.5l18.4,0c0.2,0,0.4-0.7,0.4-1.5
			C263,44.4,262.8,43.8,262.5,43.8z"/>
		<path fill="#005240" d="M262.6,67.3l-18.4,0c-0.2,0-0.4,0.7-0.4,1.5c0,0.8,0.2,1.5,0.4,1.5l18.4,0c0.2,0,0.4-0.7,0.4-1.5
			C263,67.9,262.8,67.3,262.6,67.3z"/>
		<path fill="#005240" d="M262.6,90.8l-18.4,0c-0.2,0-0.4,0.7-0.4,1.5c0,0.8,0.2,1.5,0.4,1.5l18.4,0c0.2,0,0.4-0.7,0.4-1.5
			C263,91.4,262.8,90.8,262.6,90.8z"/>
		<path fill="#005240" d="M262.6,114.3l-18.4,0c-0.2,0-0.4,0.7-0.4,1.5c0,0.8,0.2,1.5,0.4,1.5l18.4,0c0.2,0,0.4-0.7,0.4-1.5
			C263.1,115,262.9,114.3,262.6,114.3z"/>
		<path fill="#657243" d="M257.4,63.6l-8,0c-1.8,0-3.2-1.4-3.2-3.2l0-6.8c0-1.8,1.4-3.2,3.2-3.2l8,0c1.8,0,3.2,1.4,3.2,3.2l0,6.8
			C260.6,62.1,259.1,63.6,257.4,63.6z"/>
		<path fill="#657243" d="M257.4,87.1l-8,0c-1.8,0-3.2-1.4-3.2-3.2l0-6.8c0-1.8,1.4-3.2,3.2-3.2l8,0c1.8,0,3.2,1.4,3.2,3.2l0,6.8
			C260.6,85.7,259.2,87.1,257.4,87.1z"/>
		<path fill="#657243" d="M257.4,110.6l-8,0c-1.8,0-3.2-1.4-3.2-3.2l0-6.8c0-1.8,1.4-3.2,3.2-3.2l8,0c1.8,0,3.2,1.4,3.2,3.2l0,6.8
			C260.6,109.2,259.2,110.6,257.4,110.6z"/>
		<path fill="#943D20" d="M207.1,15.1c-3.5,0-6.4,0.5-6.4,1v139h12.8v-139C213.5,15.5,210.6,15.1,207.1,15.1z"/>
		<rect x="200.7" y="25.8" fill="#9F5024" width="12.8" height="2.9"/>
		<rect x="200.7" y="31.2" fill="#9F5024" width="12.8" height="2.9"/>
		<rect x="200.7" y="36.6" fill="#9F5024" width="12.8" height="2.9"/>
		<rect x="200.7" y="50.1" fill="#9F5024" width="12.8" height="2.9"/>
		<rect x="200.7" y="55.5" fill="#9F5024" width="12.8" height="2.9"/>
		<rect x="200.7" y="60.9" fill="#9F5024" width="12.8" height="2.9"/>
		<rect x="200.7" y="74.5" fill="#9F5024" width="12.8" height="2.9"/>
		<rect x="200.7" y="79.8" fill="#9F5024" width="12.8" height="2.9"/>
		<rect x="200.7" y="85.2" fill="#9F5024" width="12.8" height="2.9"/>
		<rect x="200.7" y="98.8" fill="#9F5024" width="12.8" height="2.9"/>
		<rect x="200.7" y="104.2" fill="#9F5024" width="12.8" height="2.9"/>
		<rect x="200.7" y="109.5" fill="#9F5024" width="12.8" height="2.9"/>
		<path fill="#13475D" d="M173.5,28.9c-7.5-2.2-13.7-3.5-13.9-3l-34.5,119.4l27.2,7.8l34.5-119.4C187,33.3,181.1,31.1,173.5,28.9z"
			/>
		<path fill="#185269" d="M129.7,142.9l33.4-115.8c2.2,0.4,5.7,1.3,10.2,2.6c4.5,1.3,8,2.5,10,3.3l-33.4,115.8L129.7,142.9z"/>
		<path fill="#0B384B" d="M180.6,55.5l-27.2-7.8c-0.3-0.1-0.8,0.5-1,1.2c-0.2,0.8-0.1,1.5,0.2,1.6l27.2,7.8c0.3,0.1,0.8-0.5,1-1.2
			C181,56.4,180.9,55.6,180.6,55.5z"/>
		<path fill="#0B384B" d="M175.3,74l-27.2-7.8c-0.3-0.1-0.8,0.5-1,1.2c-0.2,0.8-0.1,1.5,0.2,1.6l27.2,7.8c0.3,0.1,0.8-0.5,1-1.2
			C175.7,74.8,175.6,74.1,175.3,74z"/>
		<path fill="#0B384B" d="M169,95.6l-27.2-7.8c-0.3-0.1-0.8,0.5-1,1.2c-0.2,0.8-0.1,1.5,0.2,1.6l27.2,7.8c0.3,0.1,0.8-0.5,1-1.2
			C169.5,96.4,169.4,95.7,169,95.6z"/>
		<path fill="#0B384B" d="M162.8,117.3l-27.2-7.8c-0.3-0.1-0.8,0.5-1,1.2c-0.2,0.8-0.1,1.5,0.2,1.6l27.2,7.8c0.3,0.1,0.8-0.5,1-1.2
			C163.2,118.1,163.1,117.4,162.8,117.3z"/>
		<path fill="#B1832C" d="M150.6,178l-0.4-0.2l0.6-0.1c1.5-0.2,1.4-0.9-0.2-1.6l0.1-16.7c1.5-0.2,1.4-0.9-0.2-1.6l-0.4-0.2l0.6-0.1
			c1.5-0.2,1.4-0.9-0.2-1.6l-32-14.2c-1.6-0.7-4.1-1.1-5.6-0.9c0,0-111.8,15.4-112,15.4c-0.4,0.2-0.7,0.5-0.9,0.9
			c-0.1,0.2-0.2,0.5-0.2,0.8c0,0.2,0,0.4,0.1,0.6c0.1,0.5,0.4,0.9,0.8,1.1c0,0,0.1,0,0.1,0.1c0.1,0,0.2,0.1,0.2,0.1l28.7,12.7
			c-16.4,2.3-28.7,4-28.8,4c-0.4,0.2-0.7,0.5-0.9,0.9c-0.1,0.2-0.2,0.5-0.2,0.8c0,0.2,0,0.4,0.1,0.6c0.1,0.5,0.4,0.9,0.8,1.1
			c0,0,0.1,0,0.1,0.1c0.1,0,0.2,0.1,0.2,0.1l32,14.2c1.6,0.7,4.1,1.1,5.6,0.9l111.9-15.4C152.3,179.4,152.2,178.7,150.6,178z"/>
		<path fill="#CF972B" d="M139.1,157.4l11.4-1.6l-31.9-14.1c-1.6-0.7-4.1-1.1-5.6-0.9c0,0-104.8,14.4-111.6,15.4l31.9,14.1
			c1.6,0.7,4.1,1.1,5.6,0.9l5.7-0.8l0,0c1,7.8,1,15.6,0,23.4c0,0.3,0.6,0.5,1.4,0.5c0.8,0,1.5-0.2,1.6-0.5c1.1-8.1,1.1-15.8,0-23.9
			l9.2-1.3c0,0,0,0,0,0.1c1,7.8,1,15.6,0,23.4c0,0.3,0.6,0.5,1.4,0.5c0.8,0,1.5-0.2,1.6-0.5c1.1-8.1,1.1-15.8,0-23.9l24.7-3.4
			c0,0,0,0.1,0,0.1c1,7.8,1,15.6,0,23.4c0,0.3,0.6,0.5,1.4,0.5c0.8,0,1.5-0.2,1.6-0.5c1.1-8.1,1.1-15.8,0-23.9c0,0,0,0,0,0l9.2-1.3
			c0,0.1-0.1,0.1-0.1,0.2c1,7.8,1,15.6,0,23.4c0,0.3,0.6,0.5,1.4,0.5c0.8,0,1.5-0.2,1.6-0.5c1.1-8.1,1.1-15.8,0-23.9
			c0,0,0-0.1,0-0.1l24.8-3.4c-0.1,0.1-0.1,0.2-0.1,0.2c1,7.8,1,15.6,0,23.4c0,0.3,0.6,0.5,1.4,0.5c0.8,0,1.5-0.2,1.6-0.5
			c1.1-8.1,1.1-15.8,0-23.9c0,0,0-0.1-0.1-0.1l9.4-1.3c-0.1,0.1-0.2,0.2-0.2,0.3c1,7.8,1,15.6,0,23.4c0,0.3,0.6,0.5,1.4,0.5
			c0.8,0,1.5-0.2,1.6-0.5c1.1-8.1,1.1-15.8,0-23.9C139.2,157.6,139.2,157.5,139.1,157.4z"/>
		<path fill="#B05A27" d="M152.1,149.3l-0.3-0.2l0.5-0.1c1.3-0.2,1.2-0.9-0.2-1.6l0.2-16.5c1.3-0.2,1.2-0.9-0.2-1.6l-0.3-0.2
			l0.5-0.1c1.3-0.2,1.2-0.9-0.2-1.6l-28.7-14.1c-1.4-0.7-3.7-1.1-5-0.9c0,0-100.4,14.9-100.6,15c-0.3,0.2-0.6,0.5-0.8,0.9
			c-0.1,0.2-0.1,0.5-0.1,0.8c0,0.2,0,0.4,0.1,0.6c0.1,0.5,0.4,0.9,0.7,1.1c0,0,0.1,0,0.1,0.1c0.1,0,0.1,0.1,0.2,0.1l25.7,12.7
			c-14.8,2.2-25.8,3.8-25.9,3.9c-0.3,0.2-0.6,0.5-0.8,0.9c-0.1,0.2-0.1,0.5-0.1,0.8c0,0.2,0,0.4,0.1,0.6c0.1,0.5,0.4,0.9,0.7,1.1
			c0,0,0.1,0,0.1,0.1c0.1,0,0.1,0.1,0.2,0.1L46.7,165c1.4,0.7,3.7,1.1,5,0.9l100.6-15C153.6,150.8,153.5,150,152.1,149.3z"/>
		<path fill="#CE672B" d="M141.8,128.9l10.2-1.5l-28.6-14.1c-1.4-0.7-3.7-1.1-5-0.9c0,0-94.2,14-100.3,14.9l28.6,14.1
			c1.4,0.7,3.7,1.1,5,0.9l5.1-0.8l0,0c0.9,7.7,0.9,15.5-0.1,23.2c0,0.3,0.5,0.5,1.3,0.5c0.7,0,1.4-0.2,1.4-0.5c1-8,1-15.6,0.1-23.7
			l8.2-1.2c0,0,0,0,0,0.1c0.9,7.7,0.9,15.5-0.1,23.2c0,0.3,0.5,0.5,1.3,0.5c0.7,0,1.4-0.2,1.4-0.5c1-8,1-15.7,0.1-23.7l22.2-3.3
			c0,0,0,0.1,0,0.1c0.9,7.7,0.9,15.5-0.1,23.2c0,0.3,0.5,0.5,1.3,0.5c0.7,0,1.4-0.2,1.4-0.5c1-8,1-15.7,0.1-23.7c0,0,0,0,0,0
			l8.3-1.2c0,0.1-0.1,0.1-0.1,0.2c0.9,7.7,0.9,15.5-0.1,23.2c0,0.3,0.5,0.5,1.3,0.5c0.7,0,1.4-0.2,1.4-0.5c1-8,1-15.7,0.1-23.7
			c0,0,0-0.1,0-0.1l22.3-3.3c-0.1,0.1-0.1,0.2-0.1,0.2c0.9,7.7,0.9,15.5-0.1,23.2c0,0.3,0.5,0.5,1.3,0.5c0.7,0,1.4-0.2,1.4-0.5
			c1-8,1-15.7,0.1-23.7c0,0,0-0.1-0.1-0.1l8.4-1.3c-0.1,0.1-0.1,0.2-0.1,0.3c0.9,7.7,0.9,15.5-0.1,23.2c0,0.3,0.5,0.5,1.3,0.5
			c0.7,0,1.4-0.2,1.4-0.5c1-8,1-15.7,0.1-23.7C141.9,129.1,141.9,129,141.8,128.9z"/>
		<path fill="#FFFFFF" d="M3.9,161c0.7,0.3,1.2,0.6,1.6,1v-0.2L3.9,161z"/>
		<path fill="#D9D9D9" d="M33.8,174.4v12.5c0,0-0.1,1.3-3,0L6.5,176.2v1.2c0,0-0.1,1.3-3,0l28.2,12.5c2.9,1.3,3,0,3,0v-13.6
			C34.8,176.4,35,175.4,33.8,174.4z"/>
		<path fill="#FFFFFF" d="M33.8,186.9v-12.5c-0.4-0.3-0.9-0.6-1.6-1L5.5,161.7v0.2c1.2,1,1,1.9,1,1.9v12.3l24.2,10.7
			C33.6,188.2,33.8,186.9,33.8,186.9z"/>
		<path fill="#D9D9D9" d="M47.1,145.4l0,12.5c0,0-0.1,1.3-2.7,0l-21.6-10.6l0,1.2c0,0-0.1,1.3-2.7,0l25.3,12.5c2.6,1.3,2.7,0,2.7,0
			l0-13.4C48.1,147.4,48.3,146.4,47.1,145.4z"/>
		<path fill="#FFFFFF" d="M20.4,132.1c0.6,0.3,1,0.6,1.3,0.9l0-0.2L20.4,132.1z"/>
		<path fill="#FFFFFF" d="M47,157.9l0-12.5c-0.3-0.3-0.8-0.6-1.3-0.9l-24-11.8l0,0.2c1.2,1.1,1,2,1,2l0,12.3l21.6,10.6
			C46.9,159.1,47,157.9,47,157.9z"/>
		<path fill="#B1832C" d="M235.8,178l0.4-0.2l-0.6-0.1c-1.5-0.2-1.4-0.9,0.2-1.6l-0.1-16.7c-1.5-0.2-1.4-0.9,0.2-1.6l0.4-0.2
			l-0.6-0.1c-1.5-0.2-1.4-0.9,0.2-1.6l32-14.2c1.6-0.7,4.1-1.1,5.6-0.9c0,0,111.8,15.4,112,15.4c0.4,0.2,0.7,0.5,0.9,0.9
			c0.1,0.2,0.2,0.5,0.2,0.8c0,0.2,0,0.4-0.1,0.6c-0.1,0.5-0.4,0.9-0.8,1.1c0,0-0.1,0-0.1,0.1c-0.1,0-0.2,0.1-0.2,0.1l-28.7,12.7
			c16.4,2.3,28.7,4,28.8,4c0.4,0.2,0.7,0.5,0.9,0.9c0.1,0.2,0.2,0.5,0.2,0.8c0,0.2,0,0.4-0.1,0.6c-0.1,0.5-0.4,0.9-0.8,1.1
			c0,0-0.1,0-0.1,0.1c-0.1,0-0.2,0.1-0.2,0.1l-32,14.2c-1.6,0.7-4.1,1.1-5.6,0.9l-111.9-15.4C234.2,179.4,234.2,178.7,235.8,178z"/>
		<path fill="#CF972B" d="M247.3,157.4l-11.4-1.6l31.9-14.1c1.6-0.7,4.1-1.1,5.6-0.9c0,0,104.8,14.4,111.6,15.4l-31.9,14.1
			c-1.6,0.7-4.1,1.1-5.6,0.9l-5.7-0.8l0,0c-1,7.8-1,15.6,0,23.4c0,0.3-0.6,0.5-1.4,0.5c-0.8,0-1.5-0.2-1.6-0.5
			c-1.1-8.1-1.1-15.8,0-23.9l-9.2-1.3c0,0,0,0,0,0.1c-1,7.8-1,15.6,0,23.4c0,0.3-0.6,0.5-1.4,0.5c-0.8,0-1.5-0.2-1.6-0.5
			c-1.1-8.1-1.1-15.8,0-23.9L302,165c0,0,0,0.1,0,0.1c-1,7.8-1,15.6,0,23.4c0,0.3-0.6,0.5-1.4,0.5c-0.8,0-1.5-0.2-1.6-0.5
			c-1.1-8.1-1.1-15.8,0-23.9c0,0,0,0,0,0l-9.2-1.3c0,0.1,0.1,0.1,0.1,0.2c-1,7.8-1,15.6,0,23.4c0,0.3-0.6,0.5-1.4,0.5
			c-0.8,0-1.5-0.2-1.6-0.5c-1.1-8.1-1.1-15.8,0-23.9c0,0,0-0.1,0-0.1l-24.8-3.4c0.1,0.1,0.1,0.2,0.1,0.2c-1,7.8-1,15.6,0,23.4
			c0,0.3-0.6,0.5-1.4,0.5c-0.8,0-1.5-0.2-1.6-0.5c-1.1-8.1-1.1-15.8,0-23.9c0,0,0-0.1,0.1-0.1l-9.4-1.3c0.1,0.1,0.2,0.2,0.2,0.3
			c-1,7.8-1,15.6,0,23.4c0,0.3-0.6,0.5-1.4,0.5c-0.8,0-1.5-0.2-1.6-0.5c-1.1-8.1-1.1-15.8,0-23.9
			C247.2,157.6,247.3,157.5,247.3,157.4z"/>
		<path fill="#0B384B" d="M234.4,149.3l0.3-0.2l-0.5-0.1c-1.3-0.2-1.2-0.9,0.2-1.6l-0.2-16.5c-1.3-0.2-1.2-0.9,0.2-1.6l0.3-0.2
			l-0.5-0.1c-1.3-0.2-1.2-0.9,0.2-1.6l28.7-14.1c1.4-0.7,3.7-1.1,5-0.9c0,0,100.4,14.9,100.6,15c0.3,0.2,0.6,0.5,0.8,0.9
			c0.1,0.2,0.1,0.5,0.1,0.8c0,0.2,0,0.4-0.1,0.6c-0.1,0.5-0.4,0.9-0.7,1.1c0,0-0.1,0-0.1,0.1c-0.1,0-0.1,0.1-0.2,0.1l-25.7,12.7
			c14.8,2.2,25.8,3.8,25.9,3.9c0.3,0.2,0.6,0.5,0.8,0.9c0.1,0.2,0.1,0.5,0.1,0.8c0,0.2,0,0.4-0.1,0.6c-0.1,0.5-0.4,0.9-0.7,1.1
			c0,0-0.1,0-0.1,0.1c-0.1,0-0.1,0.1-0.2,0.1L339.7,165c-1.4,0.7-3.7,1.1-5,0.9l-100.6-15C232.9,150.8,232.9,150,234.4,149.3z"/>
		<path fill="#D9D9D9" d="M382.5,161l-1,0.4v0.1C381.8,161.3,382.1,161.1,382.5,161z"/>
		<path fill="#D9D9D9" d="M379.9,177.4v-1.8l-23.6,10.4c-2.9,1.3-3,0-3,0V174c-1.9,1.2-1.6,2.4-1.6,2.4v13.6c0,0,0.1,1.3,3,0
			l28.2-12.5C380,178.7,379.9,177.4,379.9,177.4z"/>
		<path fill="#FFFFFF" d="M356.3,186.1l23.6-10.4v-11.8c0,0-0.3-1.2,1.6-2.4v-0.1l-27.3,12.1c-0.4,0.2-0.7,0.3-1,0.5v12.1
			C353.3,186.1,353.4,187.3,356.3,186.1z"/>
		<path fill="#D9D9D9" d="M366,132.1l-0.7,0.3l0,0C365.5,132.3,365.7,132.2,366,132.1z"/>
		<path fill="#D9D9D9" d="M363.7,148.4l0-1.7l-21,10.3c-2.6,1.3-2.7,0-2.7,0l0-12.1c-1.9,1.2-1.6,2.5-1.6,2.5l0,13.4
			c0,0,0.1,1.3,2.7,0l25.3-12.5C363.9,149.6,363.7,148.4,363.7,148.4z"/>
		<path fill="#FFFFFF" d="M342.8,157l21-10.3l0-11.7c0,0-0.3-1.3,1.6-2.5l0,0l-24.6,12.1c-0.3,0.1-0.5,0.3-0.7,0.4l0,12.1
			C340,157,340.2,158.3,342.8,157z"/>
		<path fill="#13475D" d="M244.6,128.9l-10.2-1.5l28.6-14.1c1.4-0.7,3.7-1.1,5-0.9c0,0,94.2,14,100.3,14.9l-28.6,14.1
			c-1.4,0.7-3.7,1.1-5,0.9l-5.1-0.8l0,0c-0.9,7.7-0.9,15.5,0.1,23.2c0,0.3-0.5,0.5-1.3,0.5c-0.7,0-1.4-0.2-1.4-0.5
			c-1-8-1-15.6-0.1-23.7l-8.2-1.2c0,0,0,0,0,0.1c-0.9,7.7-0.9,15.5,0.1,23.2c0,0.3-0.5,0.5-1.3,0.5c-0.7,0-1.4-0.2-1.4-0.5
			c-1-8-1-15.7-0.1-23.7l-22.2-3.3c0,0,0,0.1,0,0.1c-0.9,7.7-0.9,15.5,0.1,23.2c0,0.3-0.5,0.5-1.3,0.5c-0.7,0-1.4-0.2-1.4-0.5
			c-1-8-1-15.7-0.1-23.7c0,0,0,0,0,0l-8.3-1.2c0,0.1,0.1,0.1,0.1,0.2c-0.9,7.7-0.9,15.5,0.1,23.2c0,0.3-0.5,0.5-1.3,0.5
			c-0.7,0-1.4-0.2-1.4-0.5c-1-8-1-15.7-0.1-23.7c0,0,0-0.1,0-0.1l-22.3-3.3c0.1,0.1,0.1,0.2,0.1,0.2c-0.9,7.7-0.9,15.5,0.1,23.2
			c0,0.3-0.5,0.5-1.3,0.5c-0.7,0-1.4-0.2-1.4-0.5c-1-8-1-15.7-0.1-23.7c0,0,0-0.1,0.1-0.1l-8.4-1.3c0.1,0.1,0.1,0.2,0.1,0.3
			c-0.9,7.7-0.9,15.5,0.1,23.2c0,0.3-0.5,0.5-1.3,0.5c-0.7,0-1.4-0.2-1.4-0.5c-1-8-1-15.7-0.1-23.7
			C244.5,129.1,244.5,129,244.6,128.9z"/>
		<path fill="#7C8952" d="M128.9,120.4l-0.1-4.4c-0.1-1.6-0.2-3.2-0.4-4.9l-0.2-0.1l0.2,0c0-0.4-0.1-0.9-0.1-1.3l-25.9-9.5
			c-1.3-0.5-3.3-0.7-4.5-0.5c0,0-90.2,13.1-90.3,13.2c-0.3,0.1-0.6,0.4-0.7,0.7c-0.1,0.2-0.1,0.4-0.1,0.6c0,0.1,0,0.3,0.1,0.4
			c0.1,0.3,0.4,0.6,0.7,0.8c0,0,0.1,0,0.1,0c0.1,0,0.1,0.1,0.2,0.1l23.4,8.6C18,125.9,8.1,127.3,8,127.3c-0.3,0.1-0.6,0.4-0.7,0.7
			c-0.1,0.2-0.1,0.4-0.1,0.6c0,0.1,0,0.3,0.1,0.4c0.1,0.3,0.4,0.6,0.7,0.8c0,0,0.1,0,0.1,0c0.1,0,0.1,0.1,0.2,0.1l26.1,9.6
			c1.3,0.5,3.3,0.7,4.5,0.5l89.6-13.1C128.7,124.7,128.9,122.6,128.9,120.4z"/>
		<path fill="#FFFFFF" d="M10.1,116.1c0.5,0.2,0.9,0.4,1.2,0.6l0-0.1L10.1,116.1z"/>
		<path fill="#D9D9D9" d="M35.3,126.7c0,0,0.2-0.7-1-1.5l0.2,8.2c0,0-0.1,0.9-2.4,0.1l-19.7-7.2l0,1.7c0,0-0.1,0.9-2.4,0.1l23.1,8.5
			c2.3,0.9,2.4-0.1,2.4-0.1L35.3,126.7z"/>
		<path fill="#FFFFFF" d="M34.5,133.4l-0.2-8.2c-0.3-0.2-0.7-0.4-1.2-0.6l-21.9-8l0,0.1c1.1,0.7,1,1.5,1,1.5l0.2,8.1l19.7,7.2
			C34.4,134.3,34.5,133.4,34.5,133.4z"/>
		<path fill="#97A766" d="M119.4,111.1l9-1.3c0,0,0-0.1,0-0.1l-25.9-9.5c-1.3-0.5-3.3-0.7-4.5-0.5c0,0-84.6,12.3-90.1,13.1l26.1,9.6
			c1.3,0.5,3.3,0.7,4.5,0.5l4.6-0.7c1,5.6,1.1,11.2,0.4,16.8c0,0.2,0.5,0.4,1.2,0.4c0.7,0,1.2-0.2,1.2-0.4
			c0.7-5.8,0.6-11.4-0.4-17.2l7.4-1.1c0,0,0,0,0,0c1,5.6,1.1,11.2,0.4,16.8c0,0.2,0.5,0.4,1.2,0.4c0.7,0,1.2-0.2,1.2-0.4
			c0.7-5.8,0.6-11.4-0.4-17.2l20-2.9c0,0,0,0.1,0,0.1c1,5.6,1.1,11.2,0.4,16.8c0,0.2,0.5,0.4,1.2,0.4c0.7,0,1.2-0.2,1.2-0.4
			c0.7-5.8,0.6-11.4-0.4-17.2c0,0,0,0,0,0l7.4-1.1c0,0,0,0.1,0,0.1c1,5.6,1.1,11.2,0.4,16.8c0,0.2,0.5,0.4,1.2,0.4
			c0.7,0,1.2-0.2,1.2-0.4c0.7-5.8,0.6-11.4-0.4-17.2c0,0,0,0,0-0.1l20-2.9c0,0.1-0.1,0.1-0.1,0.2c1,5.6,1.1,11.2,0.4,16.8
			c0,0.2,0.5,0.4,1.2,0.4c0.7,0,1.2-0.2,1.2-0.4c0.7-5.8,0.6-11.4-0.4-17.2c0,0,0-0.1-0.1-0.1l7.6-1.1c-0.1,0.1-0.1,0.2-0.1,0.2
			c1,5.6,1.1,11.2,0.4,16.8c0,0.2,0.5,0.4,1.2,0.4c0.7,0,1.2-0.2,1.2-0.4c0.7-5.8,0.6-11.4-0.4-17.2
			C119.5,111.2,119.4,111.1,119.4,111.1z"/>
	</g>
	<path fill="#83351B" d="M311.8,190.6l-12.1-45.4c-0.9-3.3-4.2-6-7.4-6h-70.5h-4.4h-70.5c-3.2,0-6.6,2.7-7.4,6l-12.1,45.4
		c-1.2,4.4,1,8,4.8,8h86.3h2.3h86.3C310.9,198.6,313,195,311.8,190.6z"/>
	<path fill="#96968A" d="M219.3,196.9c-26.9-5.4-53.9-5.3-64-3.5c-10,1.7-18.4-1.3-24.3-4.8l12.3-50.2c5,2.7,12.1,4.8,20.5,3.1
		c8.5-1.7,31.2-2.6,55.5-0.6V196.9z"/>
	<path fill="#9E9E92" d="M219.3,195.1c-24.6-6.8-51.7-6.6-61.8-4.9c-10,1.7-18.4-1.2-24.3-4.7l12.2-50c5,2.6,12.1,4.7,20.5,3.1
		c8.5-1.7,31.2-2.7,53.4,0.8V195.1z"/>
	<path fill="#A5A496" d="M219.3,193.7c-22.4-8.7-49.5-8.4-59.6-6.7c-10,1.7-18.4-1.2-24.3-4.7l12.1-49.9c5,2.6,12.1,4.7,20.6,3
		c8.5-1.7,31.2-2.7,51.2,2.5V193.7z"/>
	<path fill="#ABAA9D" d="M219.3,191.9c-20.1-10.1-47.3-9.8-57.4-8c-10,1.8-18.4-1.1-24.3-4.6l12-49.7c5,2.6,12.2,4.7,20.6,2.9
		c8.5-1.7,31.2-2.8,49.1,3.8V191.9z"/>
	<path fill="#B7B7A8" d="M219.3,190.2c-17.9-11.5-45-11.2-55.1-9.4c-10,1.8-18.4-1.1-24.3-4.5l11.9-49.5c5,2.6,12.2,4.6,20.6,2.9
		c8.5-1.7,31.2-2.9,47,5.2V190.2z"/>
	<path fill="#C6C6C0" d="M219.3,188.6c-15.7-13.1-42.8-12.7-52.9-10.9c-10,1.8-18.4-1-24.4-4.4l11.9-49.4c5,2.6,12.2,4.6,20.6,2.8
		c8.5-1.8,31.2-2.9,44.8,6.6V188.6z"/>
	<path fill="#DADAD3" d="M219.3,186.6c-13.4-14.3-40.6-13.9-50.7-12c-10,1.8-18.4-1-24.4-4.4l11.8-49.2c5.1,2.5,12.2,4.5,20.6,2.8
		c8.5-1.8,31.2-3,42.7,7.8V186.6z"/>
	<path fill="#FFFFFF" d="M219.3,185.3c-11.1-16.3-38.1-15.7-48.2-13.9c-9.9,1.8-18.3-0.9-24.3-4.3l11.6-49.1
		c5,2.5,12.1,4.5,20.5,2.7c8.4-1.8,31-3,40.3,9.6V185.3z"/>
	<path fill="#96968A" d="M219.6,196.9c26.9-5.4,53.9-5.3,64-3.5c10,1.7,18.4-1.3,24.3-4.8l-12.3-50.2c-5,2.7-12.1,4.8-20.5,3.1
		c-8.5-1.7-31.2-2.6-55.5-0.6V196.9z"/>
	<path fill="#9E9E92" d="M219.6,195.1c24.6-6.8,51.7-6.6,61.8-4.9c10,1.7,18.4-1.2,24.3-4.7l-12.2-50c-5,2.6-12.1,4.7-20.5,3.1
		c-8.5-1.7-31.2-2.7-53.4,0.8V195.1z"/>
	<path fill="#A5A496" d="M219.6,193.7c22.4-8.7,49.5-8.4,59.6-6.7c10,1.7,18.4-1.2,24.3-4.7l-12.1-49.9c-5,2.6-12.1,4.7-20.6,3
		c-8.5-1.7-31.2-2.7-51.2,2.5V193.7z"/>
	<path fill="#ABAA9D" d="M219.6,191.9c20.1-10.1,47.3-9.8,57.4-8c10,1.8,18.4-1.1,24.3-4.6l-12-49.7c-5,2.6-12.2,4.7-20.6,2.9
		c-8.5-1.7-31.2-2.8-49.1,3.8V191.9z"/>
	<path fill="#B7B7A8" d="M219.6,190.2c17.9-11.5,45-11.2,55.1-9.4c10,1.8,18.4-1.1,24.3-4.5l-11.9-49.5c-5,2.6-12.2,4.6-20.6,2.9
		c-8.5-1.7-31.2-2.9-47,5.2V190.2z"/>
	<path fill="#C6C6C0" d="M219.6,188.6c15.7-13.1,42.8-12.7,52.9-10.9c10,1.8,18.4-1,24.4-4.4L285,123.8c-5,2.6-12.2,4.6-20.6,2.8
		c-8.5-1.8-31.2-2.9-44.8,6.6V188.6z"/>
	<path fill="#DADAD3" d="M219.6,186.6c13.4-14.3,40.6-13.9,50.7-12c10,1.8,18.4-1,24.4-4.4l-11.8-49.2c-5.1,2.5-12.2,4.5-20.6,2.8
		c-8.5-1.8-31.2-3-42.7,7.8V186.6z"/>
	<path fill="#FFFFFF" d="M219.6,185.3c11.1-16.3,38.1-15.7,48.2-13.9c9.9,1.8,18.3-0.9,24.3-4.3L280.4,118c-5,2.5-12.1,4.5-20.5,2.7
		c-8.4-1.8-31-3-40.3,9.6V185.3z"/>
	<g>
		<path fill="#F3F2EF" d="M214.6,175.4c-0.3,0-0.5-0.1-0.7-0.2c-7.9-5.4-18.5-8.1-31.5-8.1c-4.3,0-8.5,0.3-11.8,1
			c-6.3,1.2-12.6,0.4-18.7-2.3c-0.7-0.3-1-1.1-0.7-1.7s1.1-1,1.7-0.7c5.6,2.4,11.4,3.2,17.1,2.1c3.5-0.6,7.9-1,12.3-1
			c13.5,0,24.6,2.9,33,8.6c0.6,0.4,0.8,1.2,0.3,1.8C215.4,175.2,215,175.4,214.6,175.4z"/>
		<path fill="#F3F2EF" d="M214.6,169.4c-0.3,0-0.5-0.1-0.8-0.3c-7-5.2-17.7-8-30.2-8c-4.2,0-8.4,0.3-11.7,1
			c-6.3,1.2-12.6,0.5-18.7-2.1c-0.7-0.3-1-1.1-0.7-1.7c0.3-0.7,1.1-1,1.7-0.7c5.6,2.4,11.4,3,17.2,1.9c3.5-0.6,7.8-1,12.1-1
			c16.7,0,26.5,4.6,31.8,8.5c0.6,0.4,0.7,1.3,0.3,1.8C215.4,169.2,215,169.4,214.6,169.4z"/>
		<path fill="#F3F2EF" d="M214.6,163.4c-0.3,0-0.6-0.1-0.8-0.3c-6.4-5.1-16.7-7.9-29-7.9c-4.1,0-8.3,0.4-11.5,1
			c-6.2,1.2-12.6,0.6-18.7-1.9c-0.7-0.3-1-1-0.7-1.7c0.3-0.7,1-1,1.7-0.7c5.7,2.3,11.5,2.9,17.2,1.8c3.4-0.7,7.7-1,12-1
			c12.9,0,23.8,3,30.6,8.4c0.6,0.5,0.7,1.3,0.2,1.9C215.4,163.2,215,163.4,214.6,163.4z"/>
		<path fill="#F3F2EF" d="M214.6,157.4c-0.3,0-0.6-0.1-0.9-0.3c-5.7-4.9-15.8-7.7-27.7-7.7c-4,0-8.2,0.4-11.3,1
			c-6.2,1.2-12.5,0.7-18.7-1.7c-0.7-0.3-1-1-0.8-1.7c0.3-0.7,1-1,1.7-0.8c5.7,2.2,11.5,2.7,17.3,1.6c3.3-0.6,7.6-1,11.8-1
			c12.5,0,23.2,3,29.4,8.4c0.6,0.5,0.6,1.3,0.1,1.9C215.3,157.2,215,157.4,214.6,157.4z"/>
		<path fill="#F3F2EF" d="M214.6,151.4c-0.3,0-0.6-0.1-0.9-0.3c-5.3-4.8-14.9-7.6-26.5-7.6c-4,0-8,0.4-11.1,1
			c-6.2,1.2-12.6,0.8-18.7-1.5c-0.7-0.3-1-1-0.8-1.7c0.3-0.7,1-1,1.7-0.8c5.7,2.1,11.6,2.6,17.3,1.4c3.3-0.6,7.5-1,11.6-1
			c12.2,0,22.5,3,28.3,8.3c0.5,0.5,0.6,1.3,0.1,1.9C215.3,151.2,214.9,151.4,214.6,151.4z"/>
		<path fill="#F3F2EF" d="M214.6,145.4c-0.3,0-0.7-0.1-0.9-0.4c-6.9-6.7-19.9-7.5-25.2-7.5c-3.9,0-7.9,0.4-11,1
			c-6.2,1.3-12.6,0.9-18.8-1.3c-0.7-0.2-1.1-1-0.8-1.7c0.2-0.7,1-1.1,1.7-0.8c5.7,2,11.6,2.4,17.4,1.2c3.2-0.6,7.4-1,11.5-1
			c5.6,0,19.5,0.8,27.1,8.2c0.5,0.5,0.5,1.3,0,1.9C215.3,145.2,214.9,145.4,214.6,145.4z"/>
		<path fill="#F3F2EF" d="M214.6,139.4c-0.3,0-0.7-0.1-1-0.4c-6.3-6.6-18.9-7.3-24-7.3c-3.8,0-7.8,0.4-10.8,1
			c-6.3,1.3-12.7,0.9-18.8-1.1c-0.7-0.2-1.1-1-0.8-1.7c0.2-0.7,1-1.1,1.7-0.8c5.7,1.9,11.6,2.2,17.4,1c3.1-0.6,7.3-1,11.3-1
			c6.8,0,19.1,1.1,25.9,8.1c0.5,0.5,0.5,1.4,0,1.9C215.2,139.2,214.9,139.4,214.6,139.4z"/>
		<path fill="#F3F2EF" d="M214.6,133.3c-0.4,0-0.7-0.1-1-0.4c-5.6-6.3-16.7-7.2-22.7-7.2c-3.7,0-7.7,0.4-10.6,1
			c-6.3,1.3-12.8,1-18.8-0.9c-0.7-0.2-1.1-1-0.9-1.7c0.2-0.7,1-1.1,1.7-0.9c5.6,1.8,11.6,2.1,17.5,0.9c3.1-0.6,7.2-1,11.1-1
			c6.5,0,18.4,1,24.7,8.1c0.5,0.5,0.4,1.4-0.1,1.9C215.2,133.2,214.9,133.3,214.6,133.3z"/>
	</g>
	<g>
		<path fill="#F3F2EF" d="M224.4,175.4c-0.4,0-0.8-0.2-1.1-0.6c-0.4-0.6-0.3-1.4,0.3-1.8c8.4-5.7,19.5-8.6,33-8.6
			c4.4,0,8.8,0.4,12.3,1c5.8,1.1,11.6,0.3,17.1-2.1c0.7-0.3,1.4,0,1.7,0.7c0.3,0.7,0,1.4-0.7,1.7c-6.1,2.7-12.4,3.4-18.7,2.3
			c-3.4-0.6-7.6-1-11.8-1c-13,0-23.6,2.7-31.5,8.1C224.9,175.4,224.6,175.4,224.4,175.4z"/>
		<path fill="#F3F2EF" d="M224.4,169.4c-0.4,0-0.8-0.2-1.1-0.5c-0.4-0.6-0.3-1.4,0.3-1.8c5.3-3.9,15.1-8.5,31.8-8.5
			c4.4,0,8.7,0.4,12.1,1c5.8,1.1,11.5,0.4,17.2-1.9c0.7-0.3,1.4,0,1.7,0.7c0.3,0.7,0,1.4-0.7,1.7c-6.1,2.6-12.4,3.3-18.7,2.1
			c-3.3-0.6-7.5-1-11.7-1c-12.5,0-23.2,2.8-30.2,8C224.9,169.3,224.6,169.4,224.4,169.4z"/>
		<path fill="#F3F2EF" d="M224.4,163.4c-0.4,0-0.8-0.2-1-0.5c-0.5-0.6-0.4-1.4,0.2-1.9c6.8-5.4,17.7-8.4,30.6-8.4
			c4.3,0,8.6,0.4,12,1c5.7,1.1,11.5,0.5,17.2-1.8c0.7-0.3,1.4,0.1,1.7,0.7c0.3,0.7-0.1,1.4-0.7,1.7c-6.2,2.5-12.5,3.1-18.7,1.9
			c-3.2-0.6-7.4-1-11.5-1c-12.3,0-22.6,2.8-29,7.9C224.9,163.3,224.6,163.4,224.4,163.4z"/>
		<path fill="#F3F2EF" d="M224.4,157.4c-0.4,0-0.7-0.2-1-0.5c-0.5-0.6-0.4-1.4,0.1-1.9c6.2-5.3,16.9-8.4,29.4-8.4
			c4.2,0,8.5,0.4,11.8,1c5.7,1.1,11.6,0.6,17.3-1.6c0.7-0.3,1.4,0.1,1.7,0.8c0.3,0.7-0.1,1.4-0.8,1.7c-6.2,2.4-12.5,2.9-18.7,1.7
			c-3.2-0.6-7.3-1-11.3-1c-11.9,0-22,2.8-27.7,7.7C225,157.3,224.7,157.4,224.4,157.4z"/>
		<path fill="#F3F2EF" d="M224.4,151.4c-0.4,0-0.7-0.1-1-0.4c-0.5-0.5-0.5-1.4,0.1-1.9c5.8-5.3,16-8.3,28.3-8.3
			c4.1,0,8.4,0.4,11.6,1c5.8,1.2,11.6,0.7,17.3-1.4c0.7-0.3,1.4,0.1,1.7,0.8c0.3,0.7-0.1,1.4-0.8,1.7c-6.2,2.3-12.5,2.8-18.8,1.5
			c-3.1-0.6-7.2-1-11.1-1c-11.6,0-21.2,2.8-26.5,7.6C225,151.3,224.7,151.4,224.4,151.4z"/>
		<path fill="#F3F2EF" d="M224.4,145.4c-0.3,0-0.7-0.1-0.9-0.4c-0.5-0.5-0.5-1.4,0-1.9c7.6-7.4,21.5-8.2,27.1-8.2
			c4.1,0,8.3,0.4,11.5,1c5.8,1.2,11.6,0.8,17.4-1.2c0.7-0.2,1.4,0.1,1.7,0.8c0.2,0.7-0.1,1.4-0.8,1.7c-6.2,2.2-12.5,2.6-18.8,1.3
			c-3-0.6-7-1-11-1c-5.3,0-18.3,0.7-25.2,7.5C225,145.2,224.7,145.4,224.4,145.4z"/>
		<path fill="#F3F2EF" d="M224.4,139.4c-0.3,0-0.7-0.1-0.9-0.4c-0.5-0.5-0.5-1.3,0-1.9c6.8-7.1,19.1-8.1,25.9-8.1
			c4,0,8.2,0.4,11.3,1c5.8,1.2,11.7,0.9,17.4-1c0.7-0.2,1.4,0.1,1.7,0.8c0.2,0.7-0.1,1.4-0.8,1.7c-6.1,2.1-12.5,2.4-18.8,1.1
			c-2.9-0.6-7-1-10.8-1c-5.1,0-17.6,0.7-24,7.3C225,139.2,224.7,139.4,224.4,139.4z"/>
		<path fill="#F3F2EF" d="M224.4,133.3c-0.3,0-0.6-0.1-0.9-0.3c-0.5-0.5-0.6-1.3-0.1-1.9c6.3-7,18.2-8.1,24.7-8.1
			c3.9,0,8.1,0.4,11.1,1c5.9,1.2,11.8,0.9,17.5-0.9c0.7-0.2,1.4,0.2,1.7,0.9c0.2,0.7-0.2,1.4-0.9,1.7c-6.1,1.9-12.5,2.3-18.8,0.9
			c-2.9-0.6-6.9-1-10.6-1c-6.1,0-17.1,0.9-22.7,7.2C225.1,133.2,224.7,133.3,224.4,133.3z"/>
	</g>
</g>
</svg>
