<svg width="25" height="33" viewBox="0 0 25 33" fill="none" xmlns="http://www.w3.org/2000/svg">
<path d="M1.44983 33L0 32.9932C0.0311713 32.6073 0.937315 23.5135 15.8341 21L16.6667 21.2851C2.37084 23.6973 1.45691 32.9073 1.44983 33Z" fill="#094142"/>
<path d="M1.18622 33L0 32.9834C0.0255038 32.0429 0.766893 9.87668 12.9552 3.75L13.6364 4.44503C1.93978 10.3246 1.19202 32.774 1.18622 33Z" fill="#094142"/>
<path d="M10.606 12C13.9532 12 16.6667 9.31371 16.6667 6C16.6667 2.68629 13.9532 0 10.606 0C7.25887 0 4.54544 2.68629 4.54544 6C4.54544 9.31371 7.25887 12 10.606 12Z" fill="#009688"/>
<path d="M18.9394 26.25C22.2866 26.25 25 23.5637 25 20.25C25 16.9363 22.2866 14.25 18.9394 14.25C15.5922 14.25 12.8788 16.9363 12.8788 20.25C12.8788 23.5637 15.5922 26.25 18.9394 26.25Z" fill="#009688"/>
</svg>
