<svg xmlns="http://www.w3.org/2000/svg" xmlns:xlink="http://www.w3.org/1999/xlink" viewBox="0 0 386.4 198.6" xmlns:v="https://vecta.io/nano"><path fill="#ce672b" d="M193.2 0c-3.5 0-6.4.5-6.4 1v139h12.8V1c0-.5-2.8-1-6.4-1z"/><g fill="#974d22"><path d="M186.8 5.7h12.8v2.9h-12.8zm0 15.8h12.8v2.9h-12.8zm0 62.5h12.8v2.9h-12.8zm0 15.7h12.8v2.9h-12.8z"/><ellipse cx="193.2" cy="15.1" rx="3.3" ry="4.9"/></g><path fill="#cf972b" d="M228.7 26.4c-7.8 0-14.2.5-14.2 1v124.3h28.3V27.4c0-.5-6.3-1-14.1-1z"/><g fill="#b1832c"><use xlink:href="#B"/><use xlink:href="#B" y="65.4"/><path d="M242.8 61h-28.3c-.4 0-.6.7-.6 1.5s.3 1.5.6 1.5h28.3c.4 0 .6-.7.6-1.5.1-.9-.2-1.5-.6-1.5z"/><use xlink:href="#B" y="34.4"/></g><path fill="#7c8952" d="M253.3 36.3c-5.1 0-9.3.5-9.3 1l.2 124.3h18.6l-.2-124.3c0-.5-4.1-1-9.3-1z"/><path d="M262.5 43.8h-18.4c-.2 0-.4.7-.4 1.5s.2 1.5.4 1.5h18.4c.2 0 .4-.7.4-1.5.1-.9-.1-1.5-.4-1.5zm.1 23.5h-18.4c-.2 0-.4.7-.4 1.5s.2 1.5.4 1.5h18.4c.2 0 .4-.7.4-1.5 0-.9-.2-1.5-.4-1.5zm0 23.5h-18.4c-.2 0-.4.7-.4 1.5s.2 1.5.4 1.5h18.4c.2 0 .4-.7.4-1.5 0-.9-.2-1.5-.4-1.5zm0 23.5h-18.4c-.2 0-.4.7-.4 1.5s.2 1.5.4 1.5h18.4c.2 0 .4-.7.4-1.5.1-.8-.1-1.5-.4-1.5z" fill="#005240"/><g fill="#657243"><path d="M257.4 63.6h-8c-1.8 0-3.2-1.4-3.2-3.2v-6.8c0-1.8 1.4-3.2 3.2-3.2h8c1.8 0 3.2 1.4 3.2 3.2v6.8c0 1.7-1.5 3.2-3.2 3.2z"/><use xlink:href="#C"/><use xlink:href="#C" y="23.5"/></g><path fill="#943d20" d="M207.1 15.1c-3.5 0-6.4.5-6.4 1v139h12.8v-139c0-.6-2.9-1-6.4-1z"/><path d="M200.7 25.8h12.8v2.9h-12.8zm0 5.4h12.8v2.9h-12.8zm0 5.4h12.8v2.9h-12.8zm0 13.5h12.8V53h-12.8zm0 5.4h12.8v2.9h-12.8zm0 5.4h12.8v2.9h-12.8zm0 13.6h12.8v2.9h-12.8zm0 5.3h12.8v2.9h-12.8zm0 5.4h12.8v2.9h-12.8zm0 13.6h12.8v2.9h-12.8zm0 5.4h12.8v2.9h-12.8zm0 5.3h12.8v2.9h-12.8z" fill="#9f5024"/><path fill="#13475d" d="M173.5 28.9c-7.5-2.2-13.7-3.5-13.9-3l-34.5 119.4 27.2 7.8 34.5-119.4c.2-.4-5.7-2.6-13.3-4.8z"/><path fill="#185269" d="M129.7 142.9l33.4-115.8c2.2.4 5.7 1.3 10.2 2.6s8 2.5 10 3.3l-33.4 115.8-20.2-5.9z"/><g fill="#0b384b"><path d="M180.6 55.5l-27.2-7.8c-.3-.1-.8.5-1 1.2-.2.8-.1 1.5.2 1.6l27.2 7.8c.3.1.8-.5 1-1.2s.1-1.5-.2-1.6z"/><use xlink:href="#D"/><path d="M169 95.6l-27.2-7.8c-.3-.1-.8.5-1 1.2-.2.8-.1 1.5.2 1.6l27.2 7.8c.3.1.8-.5 1-1.2.3-.8.2-1.5-.2-1.6z"/><use xlink:href="#D" x="-12.5" y="43.3"/></g><path fill="#b1832c" d="M150.6 178l-.4-.2.6-.1c1.5-.2 1.4-.9-.2-1.6l.1-16.7c1.5-.2 1.4-.9-.2-1.6l-.4-.2.6-.1c1.5-.2 1.4-.9-.2-1.6l-32-14.2c-1.6-.7-4.1-1.1-5.6-.9L.9 156.2a1.96 1.96 0 0 0-.9.9c-.1.2-.2.5-.2.8 0 .2 0 .4.1.6.1.5.4.9.8 1.1 0 0 .1 0 .1.1.1 0 .2.1.2.1l28.7 12.7-28.8 4a1.96 1.96 0 0 0-.9.9c-.1.2-.2.5-.2.8 0 .2 0 .4.1.6.1.5.4.9.8 1.1 0 0 .1 0 .1.1.1 0 .2.1.2.1l32 14.2c1.6.7 4.1 1.1 5.6.9l111.9-15.4c1.8-.4 1.7-1.1.1-1.8z"/><path fill="#cf972b" d="M139.1 157.4l11.4-1.6-31.9-14.1c-1.6-.7-4.1-1.1-5.6-.9L1.4 156.2l31.9 14.1c1.6.7 4.1 1.1 5.6.9l5.7-.8h0c1 7.8 1 15.6 0 23.4 0 .3.6.5 1.4.5s1.5-.2 1.6-.5c1.1-8.1 1.1-15.8 0-23.9l9.2-1.3v.1c1 7.8 1 15.6 0 23.4 0 .3.6.5 1.4.5s1.5-.2 1.6-.5c1.1-8.1 1.1-15.8 0-23.9l24.7-3.4v.1c1 7.8 1 15.6 0 23.4 0 .3.6.5 1.4.5s1.5-.2 1.6-.5c1.1-8.1 1.1-15.8 0-23.9l9.2-1.3c0 .1-.1.1-.1.2 1 7.8 1 15.6 0 23.4 0 .3.6.5 1.4.5s1.5-.2 1.6-.5c1.1-8.1 1.1-15.8 0-23.9v-.1l24.8-3.4c-.1.1-.1.2-.1.2 1 7.8 1 15.6 0 23.4 0 .3.6.5 1.4.5s1.5-.2 1.6-.5c1.1-8.1 1.1-15.8 0-23.9 0 0 0-.1-.1-.1l9.4-1.3c-.1.1-.2.2-.2.3 1 7.8 1 15.6 0 23.4 0 .3.6.5 1.4.5s1.5-.2 1.6-.5c1.1-8.1 1.1-15.8 0-23.9-.2.2-.2.1-.3 0z"/><path fill="#b05a27" d="M152.1 149.3l-.3-.2.5-.1c1.3-.2 1.2-.9-.2-1.6l.2-16.5c1.3-.2 1.2-.9-.2-1.6l-.3-.2.5-.1c1.3-.2 1.2-.9-.2-1.6l-28.7-14.1c-1.4-.7-3.7-1.1-5-.9l-100.6 15a2.36 2.36 0 0 0-.8.9c-.1.2-.1.5-.1.8 0 .2 0 .4.1.6.1.5.4.9.7 1.1 0 0 .1 0 .1.1.1 0 .1.1.2.1l25.7 12.7-25.9 3.9a2.36 2.36 0 0 0-.8.9c-.1.2-.1.5-.1.8 0 .2 0 .4.1.6.1.5.4.9.7 1.1 0 0 .1 0 .1.1.1 0 .1.1.2.1L46.7 165c1.4.7 3.7 1.1 5 .9l100.6-15c1.3-.1 1.2-.9-.2-1.6z"/><path fill="#ce672b" d="M141.8 128.9l10.2-1.5-28.6-14.1c-1.4-.7-3.7-1.1-5-.9L18.1 127.3l28.6 14.1c1.4.7 3.7 1.1 5 .9l5.1-.8h0c.9 7.7.9 15.5-.1 23.2 0 .3.5.5 1.3.5.7 0 1.4-.2 1.4-.5 1-8 1-15.6.1-23.7l8.2-1.2v.1c.9 7.7.9 15.5-.1 23.2 0 .3.5.5 1.3.5.7 0 1.4-.2 1.4-.5 1-8 1-15.7.1-23.7l22.2-3.3v.1c.9 7.7.9 15.5-.1 23.2 0 .3.5.5 1.3.5.7 0 1.4-.2 1.4-.5 1-8 1-15.7.1-23.7l8.3-1.2c0 .1-.1.1-.1.2.9 7.7.9 15.5-.1 23.2 0 .3.5.5 1.3.5.7 0 1.4-.2 1.4-.5 1-8 1-15.7.1-23.7v-.1l22.3-3.3c-.1.1-.1.2-.1.2.9 7.7.9 15.5-.1 23.2 0 .3.5.5 1.3.5.7 0 1.4-.2 1.4-.5 1-8 1-15.7.1-23.7 0 0 0-.1-.1-.1l8.4-1.3c-.1.1-.1.2-.1.3.9 7.7.9 15.5-.1 23.2 0 .3.5.5 1.3.5.7 0 1.4-.2 1.4-.5 1-8 1-15.7.1-23.7-.1.2-.1.1-.2 0z"/><path fill="#fff" d="M3.9 161c.7.3 1.2.6 1.6 1v-.2l-1.6-.8z"/><path fill="#d9d9d9" d="M33.8 174.4v12.5s-.1 1.3-3 0L6.5 176.2v1.2s-.1 1.3-3 0l28.2 12.5c2.9 1.3 3 0 3 0v-13.6c.1.1.3-.9-.9-1.9z"/><path fill="#fff" d="M33.8 186.9v-12.5c-.4-.3-.9-.6-1.6-1L5.5 161.7v.2c1.2 1 1 1.9 1 1.9v12.3l24.2 10.7c2.9 1.4 3.1.1 3.1.1z"/><path fill="#d9d9d9" d="M47.1 145.4v12.5s-.1 1.3-2.7 0l-21.6-10.6v1.2s-.1 1.3-2.7 0L45.4 161c2.6 1.3 2.7 0 2.7 0v-13.4c0-.2.2-1.2-1-2.2z"/><g fill="#fff"><path d="M20.4 132.1c.6.3 1 .6 1.3.9v-.2l-1.3-.7z"/><path d="M47 157.9v-12.5c-.3-.3-.8-.6-1.3-.9l-24-11.8v.2c1.2 1.1 1 2 1 2v12.3l21.6 10.6c2.6 1.3 2.7.1 2.7.1z"/></g><path fill="#b1832c" d="M235.8 178l.4-.2-.6-.1c-1.5-.2-1.4-.9.2-1.6l-.1-16.7c-1.5-.2-1.4-.9.2-1.6l.4-.2-.6-.1c-1.5-.2-1.4-.9.2-1.6l32-14.2c1.6-.7 4.1-1.1 5.6-.9l112 15.4a1.96 1.96 0 0 1 .9.9c.1.2.2.5.2.8 0 .2 0 .4-.1.6-.1.5-.4.9-.8 1.1 0 0-.1 0-.1.1-.1 0-.2.1-.2.1l-28.7 12.7 28.8 4a1.96 1.96 0 0 1 .9.9c.1.2.2.5.2.8 0 .2 0 .4-.1.6-.1.5-.4.9-.8 1.1 0 0-.1 0-.1.1-.1 0-.2.1-.2.1l-32 14.2c-1.6.7-4.1 1.1-5.6.9l-111.9-15.4c-1.7-.4-1.7-1.1-.1-1.8z"/><path fill="#cf972b" d="M247.3 157.4l-11.4-1.6 31.9-14.1c1.6-.7 4.1-1.1 5.6-.9L385 156.2l-31.9 14.1c-1.6.7-4.1 1.1-5.6.9l-5.7-.8h0c-1 7.8-1 15.6 0 23.4 0 .3-.6.5-1.4.5s-1.5-.2-1.6-.5c-1.1-8.1-1.1-15.8 0-23.9l-9.2-1.3v.1c-1 7.8-1 15.6 0 23.4 0 .3-.6.5-1.4.5s-1.5-.2-1.6-.5c-1.1-8.1-1.1-15.8 0-23.9L302 165v.1c-1 7.8-1 15.6 0 23.4 0 .3-.6.5-1.4.5s-1.5-.2-1.6-.5c-1.1-8.1-1.1-15.8 0-23.9l-9.2-1.3c0 .1.1.1.1.2-1 7.8-1 15.6 0 23.4 0 .3-.6.5-1.4.5s-1.5-.2-1.6-.5c-1.1-8.1-1.1-15.8 0-23.9v-.1l-24.8-3.4c.1.1.1.2.1.2-1 7.8-1 15.6 0 23.4 0 .3-.6.5-1.4.5s-1.5-.2-1.6-.5c-1.1-8.1-1.1-15.8 0-23.9 0 0 0-.1.1-.1l-9.4-1.3c.1.1.2.2.2.3-1 7.8-1 15.6 0 23.4 0 .3-.6.5-1.4.5s-1.5-.2-1.6-.5c-1.1-8.1-1.1-15.8 0-23.9.1 0 .2-.1.2-.2z"/><path fill="#0b384b" d="M234.4 149.3l.3-.2-.5-.1c-1.3-.2-1.2-.9.2-1.6l-.2-16.5c-1.3-.2-1.2-.9.2-1.6l.3-.2-.5-.1c-1.3-.2-1.2-.9.2-1.6l28.7-14.1c1.4-.7 3.7-1.1 5-.9l100.6 15a2.36 2.36 0 0 1 .8.9c.1.2.1.5.1.8 0 .2 0 .4-.1.6-.1.5-.4.9-.7 1.1 0 0-.1 0-.1.1-.1 0-.1.1-.2.1l-25.7 12.7 25.9 3.9a2.36 2.36 0 0 1 .8.9c.1.2.1.5.1.8 0 .2 0 .4-.1.6-.1.5-.4.9-.7 1.1 0 0-.1 0-.1.1-.1 0-.1.1-.2.1L339.7 165c-1.4.7-3.7 1.1-5 .9l-100.6-15c-1.2-.1-1.2-.9.3-1.6z"/><path d="M382.5 161l-1 .4v.1c.3-.2.6-.4 1-.5zm-2.6 16.4v-1.8L356.3 186c-2.9 1.3-3 0-3 0v-12c-1.9 1.2-1.6 2.4-1.6 2.4V190s.1 1.3 3 0l28.2-12.5c-2.9 1.2-3-.1-3-.1z" fill="#d9d9d9"/><path fill="#fff" d="M356.3 186.1l23.6-10.4v-11.8s-.3-1.2 1.6-2.4v-.1l-27.3 12.1c-.4.2-.7.3-1 .5v12.1c.1 0 .2 1.2 3.1 0z"/><path d="M366 132.1l-.7.3h0c.2-.1.4-.2.7-.3zm-2.3 16.3v-1.7l-21 10.3c-2.6 1.3-2.7 0-2.7 0v-12.1c-1.9 1.2-1.6 2.5-1.6 2.5v13.4s.1 1.3 2.7 0l25.3-12.5c-2.5 1.3-2.7.1-2.7.1z" fill="#d9d9d9"/><path fill="#fff" d="M342.8 157l21-10.3V135s-.3-1.3 1.6-2.5h0l-24.6 12.1c-.3.1-.5.3-.7.4v12.1c-.1-.1.1 1.2 2.7-.1z"/><path fill="#13475d" d="M244.6 128.9l-10.2-1.5 28.6-14.1c1.4-.7 3.7-1.1 5-.9l100.3 14.9-28.6 14.1c-1.4.7-3.7 1.1-5 .9l-5.1-.8h0c-.9 7.7-.9 15.5.1 23.2 0 .3-.5.5-1.3.5-.7 0-1.4-.2-1.4-.5-1-8-1-15.6-.1-23.7l-8.2-1.2v.1c-.9 7.7-.9 15.5.1 23.2 0 .3-.5.5-1.3.5-.7 0-1.4-.2-1.4-.5-1-8-1-15.7-.1-23.7l-22.2-3.3v.1c-.9 7.7-.9 15.5.1 23.2 0 .3-.5.5-1.3.5-.7 0-1.4-.2-1.4-.5-1-8-1-15.7-.1-23.7l-8.3-1.2c0 .1.1.1.1.2-.9 7.7-.9 15.5.1 23.2 0 .3-.5.5-1.3.5-.7 0-1.4-.2-1.4-.5-1-8-1-15.7-.1-23.7v-.1l-22.3-3.3c.1.1.1.2.1.2-.9 7.7-.9 15.5.1 23.2 0 .3-.5.5-1.3.5-.7 0-1.4-.2-1.4-.5-1-8-1-15.7-.1-23.7 0 0 0-.1.1-.1l-8.4-1.3c.1.1.1.2.1.3-.9 7.7-.9 15.5.1 23.2 0 .3-.5.5-1.3.5-.7 0-1.4-.2-1.4-.5-1-8-1-15.7-.1-23.7.1.2.1.1.2 0z"/><path fill="#7c8952" d="M128.9 120.4l-.1-4.4-.4-4.9-.2-.1h.2c0-.4-.1-.9-.1-1.3l-25.9-9.5c-1.3-.5-3.3-.7-4.5-.5L7.6 112.9a1.21 1.21 0 0 0-.7.7c-.1.2-.1.4-.1.6 0 .1 0 .3.1.4.1.3.4.6.7.8h.1c.1 0 .1.1.2.1l23.4 8.6L8 127.3a1.21 1.21 0 0 0-.7.7c-.1.2-.1.4-.1.6 0 .1 0 .3.1.4.1.3.4.6.7.8h.1c.1 0 .1.1.2.1l26.1 9.6c1.3.5 3.3.7 4.5.5l89.6-13.1.4-6.5z"/><path fill="#fff" d="M10.1 116.1c.5.2.9.4 1.2.6v-.1l-1.2-.5z"/><path fill="#d9d9d9" d="M35.3 126.7s.2-.7-1-1.5l.2 8.2s-.1.9-2.4.1l-19.7-7.2v1.7s-.1.9-2.4.1l23.1 8.5c2.3.9 2.4-.1 2.4-.1l-.2-9.8z"/><path fill="#fff" d="M34.5 133.4l-.2-8.2c-.3-.2-.7-.4-1.2-.6l-21.9-8v.1c1.1.7 1 1.5 1 1.5l.2 8.1 19.7 7.2c2.3.8 2.4-.1 2.4-.1z"/><path fill="#657030" d="M119.4 111.1l9-1.3v-.1l-25.9-9.5c-1.3-.5-3.3-.7-4.5-.5L7.9 112.8l26.1 9.6c1.3.5 3.3.7 4.5.5l4.6-.7c1 5.6 1.1 11.2.4 16.8 0 .2.5.4 1.2.4s1.2-.2 1.2-.4c.7-5.8.6-11.4-.4-17.2l7.4-1.1c1 5.6 1.1 11.2.4 16.8 0 .2.5.4 1.2.4s1.2-.2 1.2-.4c.7-5.8.6-11.4-.4-17.2l20-2.9v.1c1 5.6 1.1 11.2.4 16.8 0 .2.5.4 1.2.4s1.2-.2 1.2-.4c.7-5.8.6-11.4-.4-17.2l7.4-1.1v.1c1 5.6 1.1 11.2.4 16.8 0 .2.5.4 1.2.4s1.2-.2 1.2-.4c.7-5.8.6-11.4-.4-17.2v-.1l20-2.9c0 .1-.1.1-.1.2 1 5.6 1.1 11.2.4 16.8 0 .2.5.4 1.2.4s1.2-.2 1.2-.4c.7-5.8.6-11.4-.4-17.2 0 0 0-.1-.1-.1l7.6-1.1c-.1.1-.1.2-.1.2 1 5.6 1.1 11.2.4 16.8 0 .2.5.4 1.2.4s1.2-.2 1.2-.4c.7-5.8.6-11.4-.4-17.2-.1.1-.2 0-.2 0z"/><path fill="#83351b" d="M311.8 190.6l-12.1-45.4c-.9-3.3-4.2-6-7.4-6h-70.5-4.4-70.5c-3.2 0-6.6 2.7-7.4 6l-12.1 45.4c-1.2 4.4 1 8 4.8 8h86.3 2.3 86.3c3.8 0 5.9-3.6 4.7-8z"/><path fill="#96968a" d="M219.3 196.9c-26.9-5.4-53.9-5.3-64-3.5-10 1.7-18.4-1.3-24.3-4.8l12.3-50.2c5 2.7 12.1 4.8 20.5 3.1 8.5-1.7 31.2-2.6 55.5-.6v56z"/><path fill="#9e9e92" d="M219.3 195.1c-24.6-6.8-51.7-6.6-61.8-4.9-10 1.7-18.4-1.2-24.3-4.7l12.2-50c5 2.6 12.1 4.7 20.5 3.1 8.5-1.7 31.2-2.7 53.4.8v55.7z"/><path fill="#a5a496" d="M219.3 193.7c-22.4-8.7-49.5-8.4-59.6-6.7-10 1.7-18.4-1.2-24.3-4.7l12.1-49.9c5 2.6 12.1 4.7 20.6 3s31.2-2.7 51.2 2.5v55.8z"/><path fill="#abaa9d" d="M219.3 191.9c-20.1-10.1-47.3-9.8-57.4-8-10 1.8-18.4-1.1-24.3-4.6l12-49.7c5 2.6 12.2 4.7 20.6 2.9 8.5-1.7 31.2-2.8 49.1 3.8v55.6z"/><path fill="#b7b7a8" d="M219.3 190.2c-17.9-11.5-45-11.2-55.1-9.4-10 1.8-18.4-1.1-24.3-4.5l11.9-49.5c5 2.6 12.2 4.6 20.6 2.9 8.5-1.7 31.2-2.9 47 5.2v55.3z"/><path fill="#c6c6c0" d="M219.3 188.6c-15.7-13.1-42.8-12.7-52.9-10.9-10 1.8-18.4-1-24.4-4.4l11.9-49.4c5 2.6 12.2 4.6 20.6 2.8 8.5-1.8 31.2-2.9 44.8 6.6v55.3z"/><path fill="#dadad3" d="M219.3 186.6c-13.4-14.3-40.6-13.9-50.7-12-10 1.8-18.4-1-24.4-4.4L156 121c5.1 2.5 12.2 4.5 20.6 2.8 8.5-1.8 31.2-3 42.7 7.8v55z"/><path fill="#fff" d="M219.3 185.3c-11.1-16.3-38.1-15.7-48.2-13.9-9.9 1.8-18.3-.9-24.3-4.3l11.6-49.1c5 2.5 12.1 4.5 20.5 2.7s31-3 40.3 9.6v55z"/><path fill="#96968a" d="M219.6 196.9c26.9-5.4 53.9-5.3 64-3.5 10 1.7 18.4-1.3 24.3-4.8l-12.3-50.2c-5 2.7-12.1 4.8-20.5 3.1-8.5-1.7-31.2-2.6-55.5-.6v56z"/><path fill="#9e9e92" d="M219.6 195.1c24.6-6.8 51.7-6.6 61.8-4.9 10 1.7 18.4-1.2 24.3-4.7l-12.2-50c-5 2.6-12.1 4.7-20.5 3.1-8.5-1.7-31.2-2.7-53.4.8v55.7z"/><path fill="#a5a496" d="M219.6 193.7c22.4-8.7 49.5-8.4 59.6-6.7 10 1.7 18.4-1.2 24.3-4.7l-12.1-49.9c-5 2.6-12.1 4.7-20.6 3s-31.2-2.7-51.2 2.5v55.8z"/><path fill="#abaa9d" d="M219.6 191.9c20.1-10.1 47.3-9.8 57.4-8 10 1.8 18.4-1.1 24.3-4.6l-12-49.7c-5 2.6-12.2 4.7-20.6 2.9-8.5-1.7-31.2-2.8-49.1 3.8v55.6z"/><path fill="#b7b7a8" d="M219.6 190.2c17.9-11.5 45-11.2 55.1-9.4 10 1.8 18.4-1.1 24.3-4.5l-11.9-49.5c-5 2.6-12.2 4.6-20.6 2.9-8.5-1.7-31.2-2.9-47 5.2v55.3z"/><path fill="#c6c6c0" d="M219.6 188.6c15.7-13.1 42.8-12.7 52.9-10.9 10 1.8 18.4-1 24.4-4.4L285 123.8c-5 2.6-12.2 4.6-20.6 2.8-8.5-1.8-31.2-2.9-44.8 6.6v55.4z"/><path fill="#dadad3" d="M219.6 186.6c13.4-14.3 40.6-13.9 50.7-12 10 1.8 18.4-1 24.4-4.4L282.9 121c-5.1 2.5-12.2 4.5-20.6 2.8-8.5-1.8-31.2-3-42.7 7.8v55z"/><path fill="#fff" d="M219.6 185.3c11.1-16.3 38.1-15.7 48.2-13.9 9.9 1.8 18.3-.9 24.3-4.3L280.4 118c-5 2.5-12.1 4.5-20.5 2.7s-31-3-40.3 9.6v55z"/><g fill="#f3f2ef"><path d="M214.6 175.4c-.3 0-.5-.1-.7-.2-7.9-5.4-18.5-8.1-31.5-8.1-4.3 0-8.5.3-11.8 1-6.3 1.2-12.6.4-18.7-2.3-.7-.3-1-1.1-.7-1.7s1.1-1 1.7-.7c5.6 2.4 11.4 3.2 17.1 2.1 3.5-.6 7.9-1 12.3-1 13.5 0 24.6 2.9 33 8.6.6.4.8 1.2.3 1.8-.2.3-.6.5-1 .5z"/><path d="M214.6 169.4c-.3 0-.5-.1-.8-.3-7-5.2-17.7-8-30.2-8-4.2 0-8.4.3-11.7 1-6.3 1.2-12.6.5-18.7-2.1-.7-.3-1-1.1-.7-1.7.3-.7 1.1-1 1.7-.7 5.6 2.4 11.4 3 17.2 1.9 3.5-.6 7.8-1 12.1-1 16.7 0 26.5 4.6 31.8 8.5.6.4.7 1.3.3 1.8a1.1 1.1 0 0 1-1 .6z"/><path d="M214.6 163.4c-.3 0-.6-.1-.8-.3-6.4-5.1-16.7-7.9-29-7.9-4.1 0-8.3.4-11.5 1-6.2 1.2-12.6.6-18.7-1.9-.7-.3-1-1-.7-1.7s1-1 1.7-.7c5.7 2.3 11.5 2.9 17.2 1.8 3.4-.7 7.7-1 12-1 12.9 0 23.8 3 30.6 8.4.6.5.7 1.3.2 1.9a1.53 1.53 0 0 1-1 .4zm0-6c-.3 0-.6-.1-.9-.3-5.7-4.9-15.8-7.7-27.7-7.7-4 0-8.2.4-11.3 1-6.2 1.2-12.5.7-18.7-1.7-.7-.3-1-1-.8-1.7.3-.7 1-1 1.7-.8 5.7 2.2 11.5 2.7 17.3 1.6 3.3-.6 7.6-1 11.8-1 12.5 0 23.2 3 29.4 8.4.6.5.6 1.3.1 1.9-.2.1-.5.3-.9.3z"/><path d="M214.6 151.4c-.3 0-.6-.1-.9-.3-5.3-4.8-14.9-7.6-26.5-7.6-4 0-8 .4-11.1 1-6.2 1.2-12.6.8-18.7-1.5-.7-.3-1-1-.8-1.7.3-.7 1-1 1.7-.8 5.7 2.1 11.6 2.6 17.3 1.4 3.3-.6 7.5-1 11.6-1 12.2 0 22.5 3 28.3 8.3.5.5.6 1.3.1 1.9-.3.1-.7.3-1 .3z"/><path d="M214.6 145.4c-.3 0-.7-.1-.9-.4-6.9-6.7-19.9-7.5-25.2-7.5-3.9 0-7.9.4-11 1-6.2 1.3-12.6.9-18.8-1.3-.7-.2-1.1-1-.8-1.7.2-.7 1-1.1 1.7-.8 5.7 2 11.6 2.4 17.4 1.2 3.2-.6 7.4-1 11.5-1 5.6 0 19.5.8 27.1 8.2.5.5.5 1.3 0 1.9-.3.2-.7.4-1 .4zm0-6c-.3 0-.7-.1-1-.4-6.3-6.6-18.9-7.3-24-7.3-3.8 0-7.8.4-10.8 1-6.3 1.3-12.7.9-18.8-1.1-.7-.2-1.1-1-.8-1.7.2-.7 1-1.1 1.7-.8 5.7 1.9 11.6 2.2 17.4 1 3.1-.6 7.3-1 11.3-1 6.8 0 19.1 1.1 25.9 8.1.5.5.5 1.4 0 1.9-.3.1-.6.3-.9.3zm0-6.1c-.4 0-.7-.1-1-.4-5.6-6.3-16.7-7.2-22.7-7.2-3.7 0-7.7.4-10.6 1-6.3 1.3-12.8 1-18.8-.9-.7-.2-1.1-1-.9-1.7s1-1.1 1.7-.9c5.6 1.8 11.6 2.1 17.5.9 3.1-.6 7.2-1 11.1-1 6.5 0 18.4 1 24.7 8.1.5.5.4 1.4-.1 1.9-.3.1-.6.2-.9.2zm9.8 42.1c-.4 0-.8-.2-1.1-.6-.4-.6-.3-1.4.3-1.8 8.4-5.7 19.5-8.6 33-8.6 4.4 0 8.8.4 12.3 1 5.8 1.1 11.6.3 17.1-2.1.7-.3 1.4 0 1.7.7s0 1.4-.7 1.7c-6.1 2.7-12.4 3.4-18.7 2.3-3.4-.6-7.6-1-11.8-1-13 0-23.6 2.7-31.5 8.1-.1.3-.4.3-.6.3z"/><path d="M224.4 169.4c-.4 0-.8-.2-1.1-.5-.4-.6-.3-1.4.3-1.8 5.3-3.9 15.1-8.5 31.8-8.5 4.4 0 8.7.4 12.1 1 5.8 1.1 11.5.4 17.2-1.9.7-.3 1.4 0 1.7.7s0 1.4-.7 1.7c-6.1 2.6-12.4 3.3-18.7 2.1-3.3-.6-7.5-1-11.7-1-12.5 0-23.2 2.8-30.2 8-.2.1-.5.2-.7.2zm0-6c-.4 0-.8-.2-1-.5-.5-.6-.4-1.4.2-1.9 6.8-5.4 17.7-8.4 30.6-8.4 4.3 0 8.6.4 12 1 5.7 1.1 11.5.5 17.2-1.8.7-.3 1.4.1 1.7.7.3.7-.1 1.4-.7 1.7-6.2 2.5-12.5 3.1-18.7 1.9-3.2-.6-7.4-1-11.5-1-12.3 0-22.6 2.8-29 7.9-.3.3-.6.4-.8.4z"/><path d="M224.4 157.4c-.4 0-.7-.2-1-.5-.5-.6-.4-1.4.1-1.9 6.2-5.3 16.9-8.4 29.4-8.4 4.2 0 8.5.4 11.8 1 5.7 1.1 11.6.6 17.3-1.6.7-.3 1.4.1 1.7.8s-.1 1.4-.8 1.7c-6.2 2.4-12.5 2.9-18.7 1.7-3.2-.6-7.3-1-11.3-1-11.9 0-22 2.8-27.7 7.7a.82.82 0 0 1-.8.5z"/><path d="M224.4 151.4c-.4 0-.7-.1-1-.4-.5-.5-.5-1.4.1-1.9 5.8-5.3 16-8.3 28.3-8.3 4.1 0 8.4.4 11.6 1 5.8 1.2 11.6.7 17.3-1.4.7-.3 1.4.1 1.7.8s-.1 1.4-.8 1.7c-6.2 2.3-12.5 2.8-18.8 1.5-3.1-.6-7.2-1-11.1-1-11.6 0-21.2 2.8-26.5 7.6-.2.3-.5.4-.8.4zm0-6c-.3 0-.7-.1-.9-.4-.5-.5-.5-1.4 0-1.9 7.6-7.4 21.5-8.2 27.1-8.2 4.1 0 8.3.4 11.5 1 5.8 1.2 11.6.8 17.4-1.2.7-.2 1.4.1 1.7.8.2.7-.1 1.4-.8 1.7-6.2 2.2-12.5 2.6-18.8 1.3-3-.6-7-1-11-1-5.3 0-18.3.7-25.2 7.5-.4.2-.7.4-1 .4zm0-6c-.3 0-.7-.1-.9-.4-.5-.5-.5-1.3 0-1.9 6.8-7.1 19.1-8.1 25.9-8.1 4 0 8.2.4 11.3 1 5.8 1.2 11.7.9 17.4-1 .7-.2 1.4.1 1.7.8.2.7-.1 1.4-.8 1.7-6.1 2.1-12.5 2.4-18.8 1.1-2.9-.6-7-1-10.8-1-5.1 0-17.6.7-24 7.3-.4.3-.7.5-1 .5z"/><path d="M224.4 133.3c-.3 0-.6-.1-.9-.3-.5-.5-.6-1.3-.1-1.9 6.3-7 18.2-8.1 24.7-8.1 3.9 0 8.1.4 11.1 1 5.9 1.2 11.8.9 17.5-.9.7-.2 1.4.2 1.7.9.2.7-.2 1.4-.9 1.7-6.1 1.9-12.5 2.3-18.8.9-2.9-.6-6.9-1-10.6-1-6.1 0-17.1.9-22.7 7.2-.3.4-.7.5-1 .5z"/></g><defs ><path id="B" d="M242.8 33.4h-28.3c-.4 0-.6.7-.6 1.5s.3 1.5.6 1.5h28.3c.4 0 .6-.7.6-1.5.1-.8-.2-1.5-.6-1.5z"/><path id="C" d="M257.4 87.1h-8c-1.8 0-3.2-1.4-3.2-3.2v-6.8c0-1.8 1.4-3.2 3.2-3.2h8c1.8 0 3.2 1.4 3.2 3.2v6.8c0 1.8-1.4 3.2-3.2 3.2z"/><path id="D" d="M175.3 74l-27.2-7.8c-.3-.1-.8.5-1 1.2-.2.8-.1 1.5.2 1.6l27.2 7.8c.3.1.8-.5 1-1.2.2-.8.1-1.5-.2-1.6z"/></defs></svg>