<?xml version="1.0" encoding="UTF-8" standalone="no"?>
<svg
   width="1000"
   height="778"
   fill="none"
   version="1.1"
   id="svg24"
   sodipodi:docname="books_dsk.svg"
   inkscape:version="1.1.2 (0a00cf5339, 2022-02-04)"
   xmlns:inkscape="http://www.inkscape.org/namespaces/inkscape"
   xmlns:sodipodi="http://sodipodi.sourceforge.net/DTD/sodipodi-0.dtd"
   xmlns="http://www.w3.org/2000/svg"
   xmlns:svg="http://www.w3.org/2000/svg">
  <defs
     id="defs28" />
  <sodipodi:namedview
     id="namedview26"
     pagecolor="#ffffff"
     bordercolor="#666666"
     borderopacity="1.0"
     inkscape:pageshadow="2"
     inkscape:pageopacity="0.0"
     inkscape:pagecheckerboard="0"
     showgrid="false"
     inkscape:zoom="0.30599214"
     inkscape:cx="1459.1878"
     inkscape:cy="419.94543"
     inkscape:window-width="1920"
     inkscape:window-height="1017"
     inkscape:window-x="1920"
     inkscape:window-y="30"
     inkscape:window-maximized="1"
     inkscape:current-layer="svg24"
     fit-margin-top="0"
     fit-margin-left="0"
     fit-margin-right="0"
     fit-margin-bottom="0" />
  <circle
     cx="561"
     cy="322.5"
     r="254"
     fill="#bcd9ed"
     id="circle4" />
  <path
     d="M 464.037,32.955004 296.336,199.737 c -3.634,3.615 -0.124,9.706 4.826,8.373 l 19.848,-5.343 a 5,5 0 0 0 1.795,-0.902 L 519.589,46.765004 c 2.669,-2.104 2.506,-6.201 -0.322,-8.087 l -5.546,-3.698 a 5.02,5.02 0 0 0 -1.561,-0.69 l -10.563,-2.641 c -0.396,-0.099 -0.804,-0.149 -1.213,-0.149 H 484.5 467.563 a 5,5 0 0 0 -3.526,1.455 z"
     fill="#eff0f3"
     id="path6" />
  <path
     d="M 289.358,204.162 452.692,7.583006 a 5,5 0 0 1 7.66,-0.037 l 14.171,16.720998 c 2.753,3.249 0.444,8.233 -3.814,8.233 h -5.121 a 5,5 0 0 0 -3.556,1.486 L 296.67,201.322 a 1.79,1.79 0 0 0 -0.483,1.612 c 0.178,0.893 0.997,1.51 1.904,1.436 l 21.415,-1.748 c 0.974,-0.08 1.904,-0.443 2.675,-1.046 L 542.235,29.338004 c 2.299,-1.799 5.643,-1.255 7.253,1.179 L 794.756,401.351 a 5,5 0 0 1 -1.391,6.914 L 585.023,547.614 C 582.879,549.048 560.468,564.751 558,565.5 535.6,572.3 519,560.667 513.5,554 L 289.017,210.09 a 5,5 0 0 1 0.341,-5.928 z"
     fill="#d98355"
     id="path8" />
  <path
     d="M 374.5,192 515.5,90.500002 M 368,232 557.5,517.5 m 25,10 151,-111.5 M 542,95.000002 738.5,376.5"
     stroke="#363455"
     stroke-width="3"
     id="path10" />
  <path
     d="M 310,194 487,30.500004 M 316,196.5 502,32.000004 M 321,196.5 514.5,35.000004"
     stroke="#272727"
     stroke-width="2"
     id="path12" />
  <path
     d="M 960.49999,778 H 195 c 4,0 57.667,-12.333 84,-18.5 -11.5,-81 29.333,-198.5 54,-258.5 -33.6,100.8 -36.667,190 -34,222 16.5,-29.5 65.5,-42 55,-38.5 -10.5,3.5 -63.5,77.5 -50.5,72 10.4,-4.4 114.667,-10.167 165.5,-12.5 l -15.5,-34 25.026,25.465 c 1.923,1.957 2.998,1.701 3.39,-1.015 0.748,-5.198 2.846,-15.496 7.584,-34.45 10.5,-42 27.5,-49.5 27.5,-48 0,1.5 -17,81 -16.5,80.5 0.4,-0.4 16.833,-9.5 25,-14 l -10,23.5 c 67.2,-0.8 219.333,9.667 287,15 l -13.5,-31 29,28 0.059,-0.513 c 1.507,-13.074 4.071,-35.313 13.941,-59.987 10.116,-25.29 19.667,-26.833 21,-25.5 -1.833,7.333 -5.5,22.4 -5.5,24 0,1.579 -7.793,37.381 -11.841,55.78 -0.083,0.376 0.206,0.72 0.591,0.72 0.16,0 0.313,-0.063 0.426,-0.175 C 845.701,739.422 861,733.506 861,734.5 c 0,0.796 -8.905,18.148 -13.428,26.861 -0.049,0.094 -0.072,0.194 -0.072,0.299 a 0.82,0.82 0 0 0 0.793,0.8 c 8.652,0.158 77.437,10.276 112.20699,15.54 z"
     fill="#06473f"
     id="path14" />
  <g
     stroke-width="3"
     stroke="#06473f"
     id="g22"
     transform="translate(-126,-125)">
    <path
       d="m 1089.5,655.5 h 35 v 35 h -35 z"
       id="path16" />
    <path
       transform="rotate(-45,239.252,632)"
       d="m 239.252,632 h 35 v 35 h -35 z"
       id="path18" />
    <circle
       cx="147"
       cy="146"
       r="19.5"
       id="circle20" />
  </g>
</svg>
