<svg xmlns="http://www.w3.org/2000/svg" xmlns:xlink="http://www.w3.org/1999/xlink" viewBox="-2 259.6 612 452.7" xmlns:v="https://vecta.io/nano"><g fill="#fff"><circle cx="138.9" cy="459.6" r="64.2"/><circle cx="305.8" cy="459.6" r="64.2"/><circle cx="472.7" cy="459.6" r="64.2"/></g><path fill="#83c5eb" d="M306.1 392.4c-37.1 0-67.2 30.2-67.2 67.1 0 37 30.2 67.2 67.2 67.2s67.1-30.2 67.1-67.2c0-36.9-30.1-67.1-67.1-67.1zm52.9 40.7v.2c0 .2 0 .3-.2.3v.3c0 .2 0 .4-.2.4-.3 1.2-.6 2.6-1.2 4.1-.9 2.4-1.8 4.7-2.6 6.5-.4.8-.7 1.7-1.1 2.4-.3.9-.9 1.8-1.2 2.6-.6 1.2-.9 2.6-1.3 4.3-.4 1.5-.6 3.1-.9 4.7 0 .3-.2.4-.2.7-.3 1.3-.4 2.7-.9 4.2-.4 1.4-.7 2.6-1.3 3.8s-1.2 2.2-1.9 3.3c-1.1 1.4-2.2 2.5-3.5 3.2s-2.6 1.2-4.1 1.3h-.4-.9c1.2 1.1 2.4 2.4 3.4 3.9a2.03 2.03 0 0 1 .6.9c.7 1.2 1.1 2.6 1.1 4.5 0 1.3-.2 2.5-.4 3.9-.3 1.4-.9 3-1.4 4.5-.9 2.6-2.2 5-3.7 7.3-1.7 2.7-3.3 4.9-5.2 6.7-.9.9-1.9 1.8-2.7 2.4-.9.6-1.5.8-2.1 1.1 0 0-.2 0-.2.2h-.2 0-1.4 0-.2-.2-.3c-.4-.2-.9-.3-1.2-.4-1.4-.4-2.8-1.3-4.2-2.4-1.5-1.3-2.8-2.8-4.2-4.8a52.55 52.55 0 0 1-4.3-7.6c-.4-.9-.8-1.8-1.3-2.7-.9-1.7-1.4-3.4-1.9-5.2v.2 2.4.7c0 1.7-.2 3.3-.2 4.9h0c0 1.1-.2 2.1-.3 3.1 0 .4-.2.9-.3 1.3s-.4.7-.7.8h-.2c-.3 0-.6-.3-.9-.6-.2-.3-.2-.4-.3-.6-.2-.3-.2-.7-.2-1.2 0-.9-.2-1.5-.2-2.4v-.6c0-.6 0-1.2-.2-1.7v-.8c0-1.1-.2-2.2-.2-3.4 0-.6 0-1.2-.2-1.9v-.4h0c-.3.6-.4 1.2-.6 1.8-.7 2.1-1.7 4.2-2.8 6.6-1.1 2-2.2 4.2-3.8 6.5-.9 1.5-2 3-3.2 4.2-1.3 1.4-2.7 2.4-4.2 3.1-1.2.6-2.2.9-3.4.9h-.3c-.4 0-.9-.2-1.3-.3-.7-.3-1.4-.7-2.1-1.2-1.3-.9-2.6-2.1-4.1-3.8-1.4-1.8-2.8-3.7-4.2-5.8-1.4-2.4-2.6-4.7-3.4-7.1-.8-2.1-1.3-4.1-1.5-6-.2-1.2-.3-2.2-.2-3.2.2-1.5.6-3 1.4-4.1a26.31 26.31 0 0 1 3.7-4.2c-.3 0-.6.2-.9.2s-.9 0-1.2-.2c-.9-.2-1.7-.4-2.6-.7-1.3-.6-2.5-1.5-3.5-2.7-.9-1.1-1.9-2.5-2.6-4.2-.6-1.3-1.1-2.7-1.5-4.8-.3-1.3-.4-2.7-.7-4.1 0-.3-.2-.4-.2-.6-.3-1.2-.3-2.5-.7-3.8-.3-1.8-.8-3.2-1.4-4.7l-2-4.7c-.6-1.4-1.4-3.2-2.1-5.1s-1.5-4.2-1.9-6.7v-.3l-.2-.2-.3-2.4.2-.2v-.3-.1c0-2.1.6-4.1 1.7-5.4.3-.4.8-.9 1.3-1.2 1.7-1.2 3.5-1.9 5.4-2.1h.2.2 0 2.5 0 .2.2c.9 0 2 .4 2.8.4 1.7.4 3.2 1.1 4.9 2 2.1 1.1 4.2 2.4 6.5 3.9 3.9 2.8 7.3 5.6 10.5 8.4 3 2.7 5.4 5.4 7.5 8.4 2 2.7 3.7 5.8 5 8.8.4 1.2.9 2.2 1.3 3.5.2-.8.2-1.5.3-2.4.2-.7.3-1.5.6-2.5.3-.4.4-.9.7-1.3-.3-.3-.4-.7-.4-1.3-.1-.6-.2-1.2.2-1.8.2-.4.3-.9.7-1.2 0-.2 0-.2-.2-.3-.3-1.2-.9-2.4-1.3-3.6-.7-1.7-1.5-3.2-2.4-4.5s-1.8-2.6-2.7-3.7c-.3.2-.4.3-.7.3-.9 0-1.7-1.1-1.8-2.4 0-1.3.7-2.4 1.7-2.4.9 0 1.7 1.1 1.8 2.4v.4c1.4 1.8 2.7 3.8 3.9 6 1.2 2.1 2.1 4.5 2.8 7.1v.2h0 .3.3.4v.6c.7-2.6 1.7-5 2.8-7.3 1.1-2 2.2-3.8 3.7-5.6 0-.3-.2-.4-.2-.7 0-1.3.9-2.4 1.8-2.4s1.7 1.1 1.7 2.4-.9 2.4-1.8 2.4c-.3 0-.4 0-.6-.2l-.2.2c-.3.4-.7.8-1.1 1.3-1.1 1.4-2.1 3.1-3 4.9-.9 1.7-1.5 3.6-2.1 5.6 0 .2 0 .2-.2.3h0c.2.2.2.3.3.4a4.84 4.84 0 0 1 .3 2.4c-.2.3-.3.9-.3 1.3h0c.3.6.7 1.3.9 2.1.3 1.2.6 2.5.7 3.9.3-.6.3-1.2.6-1.7.7-2 1.7-4.1 2.7-6 .9-1.8 2.1-3.6 3.4-5.4a41.38 41.38 0 0 1 5.2-6c1.9-1.9 4.1-3.9 6.5-5.8 3-2.4 5.4-4.2 7.6-5.8 2.7-1.8 5.1-3 7.5-3.9 2-.8 3.9-1.2 5.8-1.3h.7c1.3 0 2.5.3 3.7.6 1.2.4 2.2.9 3.2 1.8.9.7 1.7 1.7 2.1 2.7.4 1.2.7 2.4.7 3.7v.2.2h0l.6 3.2h0z"/><g fill="#c9c8c7"><use xlink:href="#B"/><use xlink:href="#B" y="10.2"/><path d="M462.3 436.6h-6c-.7 0-1.2-.4-1.2-1.2v-6c0-.7-.4-1.2-1.2-1.2h-2.6c-.7 0-1.2.4-1.2 1.2v6c0 .7-.4 1.2-1.2 1.2h-6c-.7 0-1.2.4-1.2 1.2v2.6c0 .7.4 1.2 1.2 1.2h6c.7 0 1.2.4 1.2 1.2v6c0 .7.4 1.2 1.2 1.2h2.6c.7 0 1.2-.4 1.2-1.2v-6c0-.7.4-1.2 1.2-1.2h6c.7 0 1.2-.4 1.2-1.2v-2.6c0-.7-.6-1.2-1.2-1.2zm-5.3 44.3c-.4-.4-.4-1.3 0-1.7l4.2-4.2c.4-.4.4-1.3 0-1.7l-1.9-1.9c-.4-.4-1.3-.4-1.7 0l-4.2 4.2c-.4.4-1.3.4-1.7 0l-4.2-4.2c-.4-.4-1.3-.4-1.7 0l-1.9 1.9c-.4.4-.4 1.3 0 1.7l4.2 4.2c.4.4.4 1.3 0 1.7l-4.2 4.2c-.4.4-.4 1.3 0 1.7l1.9 1.9c.4.4 1.3.4 1.7 0l4.2-4.2c.4-.4 1.3-.4 1.7 0l4.2 4.2c.4.4 1.3.4 1.7 0l1.9-1.9c.4-.4.4-1.3 0-1.7l-4.2-4.2zm15.9-88.5c-37.1 0-67.1 30.2-67.1 67.1 0 37 30.2 67.2 67.1 67.2s67.2-30.2 67.2-67.2c0-36.9-30.1-67.1-67.2-67.1zm-3.4 99.5c0 2.8-2.2 5.1-5.1 5.1h-23.7c-2.8 0-5.1-2.2-5.1-5.1v-23.7c0-2.8 2.2-5.1 5.1-5.1h23.7c2.8 0 5.1 2.2 5.1 5.1v23.7zm0-40.8c0 2.8-2.2 5.1-5.1 5.1h-23.7c-2.8 0-5.1-2.2-5.1-5.1v-23.6c0-2.8 2.2-5.1 5.1-5.1h23.7c2.8 0 5.1 2.2 5.1 5.1v23.6zm40.9 40.8c0 2.8-2.2 5.1-5.1 5.1h-23.7c-2.8 0-5.1-2.2-5.1-5.1v-23.7c0-2.8 2.2-5.1 5.1-5.1h23.7c2.8 0 5.1 2.2 5.1 5.1v23.7zm0-40.8c0 2.8-2.2 5.1-5.1 5.1h-23.7c-2.8 0-5.1-2.2-5.1-5.1v-23.6c0-2.8 2.2-5.1 5.1-5.1h23.7c2.8 0 5.1 2.2 5.1 5.1v23.6zm-7.3-14.5h-19.6c-.7 0-1.2.4-1.2 1.2v2.6c0 .7.4 1.2 1.2 1.2h19.7c.7 0 1.2-.4 1.2-1.2v-2.6c0-.7-.5-1.2-1.3-1.2zm-364-44.2c-37.1 0-67.1 30.1-67.1 67.2s30.2 67.2 67.1 67.2c37.1 0 67.2-30.2 67.2-67.2-.1-37-30-67.2-67.2-67.2zm35.4 112h-.2v3.3H171h-63.8-3.2v-3.3-7.1c0-1.8 1.4-3.3 3.3-3.3h25.2c-6.7-2-12.5-6.5-16.1-12.2h-13.9v-5.7h11.1 11.9 12.2v5.8h-6.9c2.8 2 6.3 3.1 10.2 3.1 9.9 0 17.8-8 17.8-17.9 0-3.7-1.1-7.2-3.1-9.9-.9.2-1.8.3-2.7.3-4.8 0-8.8-2.6-11.1-6.5l-5.8 9.3 4.7 2.8-4.7 7.6-24.1-14.9 4.7-7.6 4.7 2.8 20.4-33.3c1.1-1.8 3.9-3.4 6.6-1.9l6.9-11.1 6.7 4.2-6.9 11.1c2.6 1.9 2.6 5.1 1.3 6.9l-3.2 5.2c6.7.3 12.2 5.8 12.2 12.7 0 2.1-.4 4.2-1.4 6 3.4 4.7 5.4 10.3 5.4 16.5 0 12.7-8.6 23.4-20.2 26.9H171c1.8 0 3.3 1.4 3.3 3.3l.2 6.9h0 0z"/></g><path fill="#a19ccc" d="M471.2 377.7v-.2-.3a10.39 10.39 0 0 0 1.1-4.6c0-1.4-.4-2.8-1.1-4.2-.8-1.4-1.8-2.5-2.8-3.4-1.2-1.1-2.5-1.9-4.1-2.5-.3-.2-.5-.3-.8-.3-2.1-.8-4.6-1.2-7.2-1.4-3.1-.2-6.5.2-10.4.8-3.4.5-6.8 1.4-11.6 2.8-3.7 1.1-7.1 2.2-10.4 3.5-3.2 1.4-6.1 2.8-9 4.4-2.2 1.4-4.6 2.8-6.5 4.4-2.1 1.7-4.2 3.4-6 5.4-.5.5-1.1 1.1-1.4 1.7.5-1.8.9-3.4 1.1-4.8.2-1.1.2-2 0-3h0c.5-.4.8-.9 1.1-1.4.5-.8.8-1.8.7-3v-.5h0c0-.2.2-.2.2-.3 1.7-2 3.4-3.7 5.3-5.4 1.9-1.6 3.7-3 5.8-4.2.7-.4 1.2-.7 1.9-.9 0 0 .2 0 .2-.2.2.2.4.4.5.4 1.1.4 2.5-.4 3.1-1.9.7-1.4.4-3.1-.7-3.5-1.2-.3-2.5.4-3.1 1.9-.2.3-.3.5-.3.8-2.5 1.4-4.7 2.8-6.8 4.6-2.5 2-4.7 4.3-6.8 6.8 0 0 0 .2-.2.2-.2-.2-.3-.2-.4-.3-.2 0-.2-.2-.3-.2s-.2 0-.3-.2h0v-.2c.4-3.2.4-6.4.3-9.4-.3-3-.8-5.8-1.7-8.6.2-.2.2-.4.3-.5.7-1.4.3-3.1-.8-3.7-1.1-.4-2.5.4-3.1 1.9-.7 1.4-.3 3.1.8 3.7.3.2.7.2.9.2.5 1.8 1.1 3.7 1.4 5.5.3 2 .4 4.2.4 6.4 0 1.4-.2 3.1-.3 4.7v.3c-.4.3-.9.5-1.4 1.1-.4.5-.8 1.2-.9 2-.2.7-.2 1.2 0 1.7-.4.3-.9.5-1.4 1.1-.8.8-1.4 1.8-1.9 2.6s-1.1 1.8-1.4 2.5c.2-1.7.2-3.1.2-4.7 0-4.2-.5-8.3-1.4-12.5-.9-4.3-2.5-8.8-4.4-13.3-2.1-4.8-4.7-9.7-7.8-14.9-1.8-3-3.7-5.4-5.5-7.7-1.7-1.9-3.2-3.4-4.8-4.7-.8-.7-1.9-1.4-3-2l-.2-.2-.2-.2h0l-3-1.2h0-.2-.2c-2.2-.7-4.7-.8-7.1-.2-.7.2-1.4.4-2 .8-1.9 1.1-3.5 2.8-4.6 5.4v.2c0 .2-.2.3-.2.3l-.2.2-1 3 .2.2v.3c-.8 3.1-.9 6.1-1.1 8.8-.2 2.6-.2 5.1 0 7.1 0 1.9.2 3.9.2 6.4 0 1.9-.2 3.7-.5 5.9-.3 1.7-.7 3.2-1.1 4.7 0 .3-.2.5-.2.7l-1.2 5c-.5 2.5-.7 4.4-.5 6.1.2 2.1.4 4.2 1.1 6 .7 1.9 1.4 3.4 2.6 4.8.7.8 1.4 1.4 2.5 2.1.4.3.8.5 1.4.7.4.2.8.3 1.2.4-2 .7-4.1 1.8-6.4 3.1-1.4.8-2.6 2.1-3.5 3.9-.5 1.1-1.1 2.5-1.4 3.7-.7 2.2-.9 4.7-1.1 7.6-.2 3.1 0 6.4.5 9.7.4 3.1 1.1 6 1.9 8.8.8 2.5 1.8 4.6 2.6 6.4a11.78 11.78 0 0 0 1.9 2.5c.4.4.8.7 1.4.9.2 0 .2.2.3.2 1.4.4 2.6.7 4.3.5 2-.2 4.2-.5 6.4-1.4 1.9-.8 3.7-1.9 5.7-3.2 3-2 5.3-3.9 7.6-5.7 2.6-2.1 4.7-4.2 6.5-6.1.5-.5 1.1-1.2 1.4-1.8h0c0 .2-.2.3-.2.4-.3.7-.5 1.4-.8 2.1l-1.4 4.1c-.2.3-.3.7-.4.9-.3.5-.5 1.4-.7 2-.2.3-.2.5-.3.8-.3.9-.7 1.9-.9 2.8-.2.5-.3.9-.4 1.4 0 .3-.2.5 0 .8 0 .5.3.8.7 1.1h.2c.4.2.9 0 1.2-.5.4-.5.7-.9.8-1.4.7-1.1 1.2-2.2 1.8-3.5h0c.9-1.9 1.8-3.7 2.5-5.5.2-.3.3-.5.4-.8.4-.9.8-1.9 1.2-2.6v-.3a38.72 38.72 0 0 0-.3 6.8c0 1.4.2 2.6.2 3.7.3 3.5.7 7.1 1.4 10.7.5 2.8 1.4 5.3 2.5 7.6 1.1 2 2.1 3.4 3.7 4.8.4.4.8.7 1.2.9.2 0 .2.2.3.2v.2.2h0l1.7.7h0 .2.2c.9.2 1.9 0 3-.2 1.4-.3 2.8-.7 4.3-1.4 3-1.2 6-3 9.3-5.3 3-2 5.5-4.3 8-6.7 1.4-1.4 2.6-3 3.7-4.6a17.17 17.17 0 0 0 2.5-4.3c.8-2 1.2-3.9.9-5.7 0-.4-.2-.8-.3-1.2-.5-2.2-1.2-4.4-2-6.1.3.2.7.4.9.5.2.2.4.2.5.3 1.7.5 3.4.8 5.3.5 1.8-.3 3.7-.9 5.5-2 1.4-.8 2.6-1.8 3.9-2.8 1.2-1.1 2.2-2.5 3.4-3.7 1.1-1.4 2.1-3.1 3-4.4.2-.3.3-.5.4-.7.9-1.7 2-3.2 3.2-4.8 1.2-1.8 2.5-3.1 3.7-4.2.9-.8 1.8-1.7 2.6-2.5.8-.7 1.7-1.4 2.5-2.1 1.9-1.8 4.1-3.7 6-6.1 1.4-1.4 2.5-2.6 3.2-4.1.2-.2.3-.3.3-.5.2-.2.2-.3.3-.3 0-.2.2-.2.3-.3l.2-.2h0l1.5-3.6h0z"/><circle fill="#b3509e" cx="227.3" cy="315.1" r="2"/><path d="M223.3 395.8c-.4-1-.9-2-1.1-3.4-3.8-12.7 5.8-21.9 3.3-25.2-2.6-3.5-24.8 5.2-34.4 26.1-2 4.2-9.9 21.5-1.5 36.7 4.7 8.4 8.2 7.4 20.2 3.8 2.3-.7 4.7-1.4 6.9-2.4 4.3 16.4 6.8 17.6 8.2 17.9 4.8.9 11.6-7.3 13-15.4 1.4-9.8-6.5-26.2-14.6-38.1zm74.2-7.7c-4.1-16.8-21.4-24.1-25.8-25.9-21.2-9-43.4-.4-42.9 3.9.3 4.1 13.7 4.5 19.5 16.5.5 1.1 1 2.3 1.4 3.3 2 14.2 7.2 31.6 15.2 37.8 6.5 5 16.9 6.5 19.9 2.6.8-1.1 1.9-3.6-6.1-18.7 2.3-.8 4.5-2 6.8-3 11-5.5 14.2-7.3 12-16.5z" fill="#cb6eac"/><g fill="#b3509e"><path d="M115.7 331.4c-3.6 9.2-1 23.4 3.3 31.4 7.9 14.8 13.1 12.5 21.8 29.4 5.8 11.5 6.9 34.2 12.5 34.4 39.2 1.9 39.8-60 81.2-55.8 2.3.1-97.1-95-118.8-39.4z"/><path d="M286.8 265c8.8 4.3 16.5 16.6 18.7 25.2 4.1 16.4-1.3 18 3.6 36.5 3.4 12.5 17.9 29.9 14.1 33.9-27.6 27.8-69.8-17.6-97.6 13.5-1.5 1.8 7.8-135.4 61.2-109.1z"/><ellipse transform="matrix(-.3614 -.9324 .9324 -.3614 -35.692 727.8557)" cx="231.4" cy="376.2" rx="39.4" ry="5.9"/><path d="M217.6 346.7h-.2c-.4.2-1-.3-1-.7-.2-1.1-2.3-11.5-11.5-15.6-3.9-1.9-7.9-1.8-10.5-1.4-.4 0-1-.3-1-.7s.3-1 .7-1c2.8-.4 7.1-.4 11.5 1.5 10 4.5 12.2 15.6 12.5 16.8 0 .5-.2.9-.5 1.1z"/><circle cx="194.3" cy="328.1" r="2"/><path d="M221.8 344.9s.2 0 .2-.2c.4-.3.5-.9.3-1.3-.5-1-6.1-10-2-19.1 1.8-4.1 4.7-6.6 6.8-8 .4-.3.5-.8.3-1.3-.3-.4-.8-.5-1.3-.3-2.4 1.5-5.5 4.3-7.4 8.8-4.3 10 1.4 19.7 2 20.7.2.7.7.9 1.1.7z"/></g><path d="M167.5 382.9c-5.2-13.5 1.4-28.7 15-34 3.6-1.4 7.4-2 11.1-1.8-2-1.5-4.2-3-6.4-4.3-23.8-16.1-43.7-23.2-54.1-19-4.1 1.5-7.2 5-9.4 10.7-2.4 6.2-.5 17.8 2.8 24 3.1 5.9 5.7 8.3 8.7 11.5 3.8 3.8 8.2 8 13.3 18.1 3 5.9 4.8 13.7 6.4 20.6.7 2.8 1.5 6.6 2.3 9 2-.2 3.9-.7 5.7-1.3 7.4-3 13.3-10.3 19.1-18.4-6.3-2.7-11.7-7.9-14.5-15.1zm115.7-44.8c-5.2-13.5-20.4-20.2-34-15-3.6 1.4-6.9 3.6-9.4 6.2.5-2.5 1.1-4.9 1.8-7.6 6.8-28.1 16.6-46.5 27.2-50.6 4.1-1.5 8.8-1.1 14.1 1.5 5.9 3 12.5 12.8 14.1 19.5 1.8 6.5 1.5 9.9 1.3 14.2-.3 5.4-.5 11.5 2.4 22.4 1.8 6.4 5.7 13.3 9.2 19.5 1.4 2.5 3.3 5.9 4.3 8.3-1.5 1.3-3.3 2-5 2.8-7.4 3-16.8 1.4-26.6-.7 2.9-5.9 3.3-13.3.6-20.5z" fill="#e0a4ca"/><path fill="#e0c69b" d="M386.2 556.3c-8 0-14.5 6.5-14.5 14.5v-15.5c0-8-6.5-14.5-14.4-14.5s-14.5 6.5-14.5 14.5v-15.5c0-8-6.5-14.4-14.5-14.4-7.9 0-14.4 6.5-14.4 14.4v-46.1c0-8-6.5-14.4-14.5-14.4s-14.4 6.5-14.4 14.4v99.5c0 15.8-3.5 17.9-9.7 0l-5.1-15.2c-2.5-7.5-10.9-11.6-18.2-8.8-7.5 2.5-11.6 10.9-8.8 18.2l19.9 58.7 29.3 42.4 7.3 21.8h78.5c1.9 0 10.1-34.2 11-37.4 7.5-27.3 11.1-51.7 11.1-80v-22.4c.5-8.1-6.1-14.2-14.1-14.2z"/><defs ><path id="B" d="M503.1 472.4h-19.6c-.7 0-1.2.4-1.2 1.2v2.6c0 .7.4 1.2 1.2 1.2h19.7c.7 0 1.2-.4 1.2-1.2v-2.5c0-.8-.5-1.3-1.3-1.3z"/></defs></svg>