<svg xmlns="http://www.w3.org/2000/svg" viewBox="0 258 612 335.3" xmlns:v="https://vecta.io/nano"><path d="M405 263.2c-43.4 0-78.5 35.2-78.5 78.5s35.2 78.4 78.5 78.4c43.4 0 78.5-35.2 78.5-78.5s-35.3-78.4-78.5-78.4zM204.7 400.3c-43 0-78.1 35-78.1 78.1s35 78.1 78.1 78.1 78.1-35 78.1-78c-.1-43.1-35.1-78.2-78.1-78.2z" fill="#fff"/><path fill="#83c5eb" d="M405 260c-45.2 0-81.7 36.6-81.7 81.7s36.7 81.6 81.7 81.6c45.2 0 81.7-36.6 81.7-81.7S450 260 405 260zm64.3 49.5v.2c0 .2 0 .3-.2.3v.4c0 .2 0 .4-.2.5-.3 1.4-.7 3-1.4 4.9-1.1 2.9-2.1 5.6-3.1 7.8-.3 1.1-.9 2-1.2 2.9-.3 1.1-1.1 2.1-1.4 3.1-.7 1.4-1.2 3.1-1.6 5.2-.3 1.9-.7 3.7-1.1 5.6 0 .3-.2.5-.2.9-.3 1.6-.5 3.4-1.1 5a22.71 22.71 0 0 1-1.6 4.6c-.7 1.4-1.4 2.7-2.3 4a13.98 13.98 0 0 1-4.2 3.9c-1.6.9-3.1 1.4-4.9 1.6h-.5-1.1c1.4 1.2 2.9 2.9 4.2 4.8.3.3.4.5.7 1.1.9 1.4 1.2 3.1 1.2 5.4 0 1.6-.2 3-.5 4.8s-1.1 3.6-1.7 5.4c-1.2 3-2.7 6.1-4.5 8.9-2 3.4-4 5.9-6.3 8.2-1.2 1.1-2.3 2.1-3.4 2.9-1.1.7-1.9 1.1-2.6 1.2 0 0-.2 0-.2.2h-.1 0-1.7 0-.2-.2-.3c-.4-.2-1.1-.3-1.4-.4-1.7-.5-3.4-1.6-5-2.9-1.9-1.6-3.4-3.4-5-5.8-2-3-3.7-6.1-5.4-9.3-.5-1.1-1.1-2.1-1.6-3.4-1.1-2-1.7-4.2-2.3-6.3v.2 2.9.9c0 2-.2 4-.2 5.9h0c0 1.2-.2 2.6-.3 3.7 0 .3-.2 1.1-.3 1.6-.3.5-.3.9-.8 1.1h.2c-.3 0-.7-.3-1.1-.7-.2-.3-.2-.5-.3-.7-.2-.3-.2-.9-.2-1.4 0-1.1-.2-1.9-.2-2.9v-.7c0-.7 0-1.4-.2-2V382c0-1.2-.2-2.7-.2-4.2 0-.7 0-1.4-.2-2.3v-.4h0c-.3.7-.3 1.4-.7 2.1-.9 2.6-2 5-3.5 8.1-1.2 2.5-2.7 5-4.6 7.9-1.2 1.9-2.5 3.6-3.9 5-1.6 1.7-3.4 2.9-5.2 3.7-1.4.7-2.7 1.1-4.2 1.2h-.3c-.5 0-1.2-.2-1.6-.3-.9-.3-1.7-.9-2.6-1.4-1.6-1.1-3.1-2.6-4.9-4.6-1.7-2.1-3.5-4.5-5-7.1-1.7-2.9-3-5.6-4.2-8.6-1.1-2.6-1.6-4.9-1.9-7.2-.2-1.4-.3-2.7-.2-3.9.2-1.9.7-3.6 1.7-4.9 1.4-2 3-3.7 4.5-5.2-.3 0-.7.2-1.1.2s-1.1 0-1.4-.2c-1.1-.2-2-.4-3-.9-1.6-.7-3-1.9-4.2-3.4-1.1-1.2-2.3-3-3.1-5-.7-1.6-1.2-3.4-1.9-5.8-.3-1.6-.5-3.4-.9-4.9 0-.3-.2-.3-.2-.7-.3-1.4-.3-3-.9-4.6-.4-2.1-1.1-3.9-1.7-5.6l-2.5-5.6-2.6-6.2c-.9-2.3-1.9-5.2-2.3-8.2v-.3l-.2-.2-.3-2.9.2-.2v-.3-.2c0-2.6.7-4.9 2-6.5.4-.5 1.1-1.1 1.6-1.4 2-1.4 4.2-2.3 6.5-2.6h.2.2 0 3 0 .2.2c1.2 0 2.5.4 3.5.5a21.86 21.86 0 0 1 6.1 2.5c2.6 1.2 5.2 2.9 7.9 4.8 4.8 3.4 8.9 6.7 12.7 10.3 3.6 3.4 6.5 6.6 9 10.3 2.5 3.4 4.5 7 6.1 10.7.5 1.4 1.1 2.7 1.6 4.2.2-1.1.2-1.9.3-2.9.2-.9.3-1.9.7-3 .3-.5.3-1.2.9-1.6-.3-.4-.4-.8-.5-1.6-.2-.7-.2-1.4.2-2.1.2-.5.4-1.2.9-1.4 0-.2 0-.2-.2-.3-.3-1.4-1.1-2.9-1.6-4.3-.9-2-1.9-3.9-2.9-5.4-1.1-1.6-2.1-3.1-3.4-4.5-.3.2-.5.3-.8.3-1.2 0-2-1.2-2.1-2.9 0-1.6.8-2.9 2-2.9s2 1.2 2.1 2.9v.5c1.7 2.1 3.4 4.6 4.8 7.2s2.6 5.4 3.5 8.6v.2h0 .3.3.4v-.1c.9-3 2-6.1 3.4-8.8 1.2-2.5 2.7-4.6 4.5-6.7 0-.3-.2-.5-.2-.9 0-1.6 1.1-2.9 2.1-2.9 1.1 0 2 1.2 2 2.9 0 1.6-1.1 2.9-2.1 2.9-.3 0-.3 0-.7-.2l-.2.2c-.4.5-.9 1.1-1.2 1.6-1.2 1.7-2.6 3.7-3.6 5.9-1.1 2-1.9 4.3-2.6 6.7 0 .2 0 .2-.2.3h0c.2.2.2.3.3.4.4 1.1.5 1.9.4 2.9-.2.4-.3 1.2-.4 1.6h0c.4.7.9 1.6 1.2 2.6a21.83 21.83 0 0 1 .8 4.8c.3-.7.3-1.4.7-2 .9-2.5 2-4.9 3.4-7.2 1.1-2.1 2.6-4.3 4.2-6.5 1.9-2.6 3.9-4.9 6.3-7.3 2.3-2.3 4.9-4.8 7.9-7.1 3.6-2.9 6.5-5 9.3-7 3.4-2.1 6.2-3.6 9-4.8 2.5-1.1 4.8-1.4 7.1-1.6h.9c1.6 0 3 .3 4.5.7 1.4.4 2.7 1.1 3.9 2.1 1.2.9 2 2 2.6 3.4a13.3 13.3 0 0 1 .8 4.5v.2.2h0l-.9 4.2h0z"/><path fill="#e0c69b" d="M118.7 327.2h161.2c7.6.2 16.5 4.2 22.1 9.3 21.9 19.9 43 40.7 64 61.4 8.6 8.2 8.7 18.7 1.2 26.1-6.6 6.6-16.9 6.2-25.2-1.6-9.5-8.9-18.5-18.3-28-27.2-1.9-1.6-5.8-1.2-8.6 1.2 10.7 11 21 22.6 32.1 33 14 13.1 31.5 9.5 41.1-7.1 1.5-2.6 5.6-5.4 8.7-5.4 20.5-.4 41-.4 61.5-.2 11.2.2 20.2 8.9 20.1 19-.2 10.5-7.1 17.9-19.3 18.2-39.9.4-79.7.5-119.6-.3-7.1-.2-15.1-4.5-21.2-8.9-22.4-16-43.9-33.3-66.2-49.5-5-3.6-12-5.9-18.2-6-27.9-.8-77.6-.5-105.7-.5v-61.5z"/><path fill="#d6b432" d="M204.7 397.1c-44.8 0-81.3 36.4-81.3 81.3s36.4 81.3 81.3 81.3 81.3-36.4 81.3-81.2c-.1-44.9-36.5-81.4-81.3-81.4zm-.7 20.5h2c1.9 1.2 2.6 2.8 2.6 5-.2 3.1 0 6.2 0 9.3 0 2.8-1.5 4.5-3.6 4.5s-3.5-1.6-3.5-4.6c0-3.2.2-6.2 0-9.4 0-2.1.7-3.9 2.5-4.8zm-52 31.6c2.2-2.5 3.2-2.7 6.5-1.4 3 1.2 5.9 2.6 8.9 3.7 2.4 1.1 3.2 2.8 2.5 4.8s-3.2 2.8-5.4 2c-3.6-1.5-7-3.2-10.5-4.9-.9-.4-1.4-1.4-2-2v-2.2zm15.9 33.6c-3.7.7-7.6 1.2-11.2 1.6-2 .3-3.6-.9-4.6-2.6v-1.5c1.1-2 2.8-2.6 4.8-3 2.6-.4 5.2-1.1 7.8-1.4.8-.2 1.6-.2 2.6-.2 2 0 3.6.9 3.9 3 0 2.5-1.3 3.9-3.3 4.1zm5.4-57.4c1.1-.4 3.5-.3 4 .4 2.8 3.6 5.2 7.7 7.6 11.6.2.3.2.5.3 1.5-.5.5-1.2 2-2 2.4-1.1.3-3.1.2-3.6-.5-2.8-3.6-5.2-7.4-7.6-11.1-1-2-.3-3.9 1.3-4.3zm40.9 109.4h-9.5c-3.7 0-7.7-.2-11.5 0-2 0-2.8-.9-2.8-2.8-.2-5.4-.2-5.4 5.4-5.4H216c3.1 0 3.2.2 3.5 3.2-.2 5-.2 5-5.3 5zm0-11.1h-9.5c-3.7 0-7.7-.2-11.5 0-2 0-2.8-.8-2.8-2.8-.2-5.4-.2-5.4 5.4-5.4H216c3.1 0 3.2.2 3.5 3.2-.2 5-.2 5-5.3 5zm19.2-55.6c-.3 5.4-1.9 10.5-4.3 15.4-4 7.8-8 15.5-9.6 24.1-.5 3.4-1.2 3.6-4.8 3.6h-9.6H194c-1.6 0-2.8-.7-3.2-2.4-.5-2-1.2-3.7-1.5-5.8-1.5-6.9-4.8-13.1-7.8-19.1-3.2-6.5-5.4-13.1-4.5-20.4 1.2-9.9 6.5-16.7 15.8-20.1 8.1-2.8 16.5-2.8 24.8-.2 10.3 3.9 16.4 13.5 15.8 24.9zm4-37.9l-5.9 9.4c-1.4 2-3.6 2.4-5.4 1.2-1.6-1.2-2-3.1-.5-5.4 1.9-3 3.6-6.2 5.9-8.9 1.1-1.2 3-1.6 4.5-1.6 1.1 0 1.6 1.9 2.6 2.7-.6 1.1-.9 2-1.2 2.6zm20.1 51.8c-1.1 2-3 2.8-5.4 2.5l-10.4-1.5c-2-.3-3.5-2.2-3.2-4 .3-2 1.9-3.2 4-2.8 4 .5 8.1 1.2 12 2 1.2.2 2 1.6 2.8 2.5.2.4.2.9.2 1.3zm0-30.7c-1.1 1.1-2 2-3.5 2.8-2.6 1.4-5.4 2.8-8.2 4-2.7 1.2-5.2.5-6-1.6-.8-1.9.3-3.7 3-4.9 3-1.4 5.9-2.5 8.9-3.7 3.1-1.4 4-1.1 5.9 2-.1.4-.1.8-.1 1.4z"/><path fill="#cca889" d="M490.4 464.5c-46.5-.2-114.8-.7-161.2 0-7.6.2-16.5 4.2-22.1 9.3-21.8 19.7-42.8 40.6-63.8 61.2-8.6 8.2-8.7 18.7-1.2 26.1 6.6 6.6 16.9 6.2 25.2-1.6 9.5-8.9 18.5-18.3 28.1-27.2 1.9-1.6 5.8-1.2 8.6 1.2-10.7 11-21 22.6-32.1 33-14 13.1-31.5 9.5-41.1-7.1-1.5-2.7-5.6-5.4-8.7-5.4l-61.5-.2c-11.2.2-20.2 8.9-20.1 19 .2 10.5 7.1 17.9 19.3 18.2l119.6-.3c7.1-.2 15.1-4.5 21.2-8.9 22.4-16 43.9-33.3 66.2-49.5 5-3.6 12-5.9 18.2-6 28-.7 77.7-.3 105.7-.4l-.3-61.4z"/></svg>