<svg xmlns="http://www.w3.org/2000/svg" width="25" height="33" fill="none" xmlns:v="https://vecta.io/nano"><g fill="#094142"><path d="M1.45 33L0 32.993c.031-.386.937-9.48 15.834-11.993l.833.285C2.371 23.697 1.457 32.907 1.45 33z"/><path d="M1.186 33L0 32.983C.026 32.043.767 9.877 12.955 3.75l.681.695C1.94 10.325 1.192 32.774 1.186 33z"/></g><path d="M10.606 12c3.347 0 6.061-2.686 6.061-6s-2.713-6-6.061-6-6.061 2.686-6.061 6 2.713 6 6.061 6zm8.333 14.25c3.347 0 6.061-2.686 6.061-6s-2.713-6-6.061-6-6.061 2.686-6.061 6 2.713 6 6.061 6z" fill="#009688"/></svg>