<svg xmlns="http://www.w3.org/2000/svg" width="39" height="33" fill="none" xmlns:v="https://vecta.io/nano"><g fill="#094142"><path d="M15.685 33l-1.435-.007c.031-.386.928-9.48 15.676-11.993l.824.285C16.597 23.697 15.692 32.907 15.685 33z"/><path d="M15.424 33l-1.174-.017c.025-.941.759-23.107 12.826-29.233l.674.695C16.17 10.325 15.43 32.774 15.424 33z"/></g><path d="M24.75 12a6 6 0 1 0 0-12 6 6 0 1 0 0 12zM33 26.25a6 6 0 1 0 0-12 6 6 0 1 0 0 12z" fill="#009688"/><path d="M15.587 33l.913-.007c-.02-.386-.591-9.48-9.976-11.993L6 21.285c9.006 2.412 9.582 11.622 9.587 11.715z" fill="#094142"/><path d="M6 26.25a6 6 0 1 0 0-12 6 6 0 1 0 0 12z" fill="#009688"/></svg>