<svg xmlns="http://www.w3.org/2000/svg" viewBox="0 404.8 612 405.8" xmlns:v="https://vecta.io/nano"><style><![CDATA[.B{stroke-miterlimit:10}]]></style><path fill="#fff" d="M103 715c69.2-1.1 96.1-76.3 96.1-76.3l61.2-150.9 228.8 92.6L428 731.3s-26.9 75.2-96.1 76.3L103 715z"/><g fill="none"><g stroke="#974e23" stroke-width="2" class="B"><path d="M347.2 589.6c.6.3 1.3.5 1.9.9 1.3 1.9 1.3 3.7.4 5.6l-3.5 8.6c-1.1 2.6-3.1 3.7-5.1 2.8-1.9-.9-2.6-2.8-1.4-5.6l3.7-8.6c.4-2.4 1.8-3.5 4-3.7zm-60.6 9.7c3.1-1.4 4.2-1.3 6.5 1.3l6.8 7c1.9 1.9 1.9 3.9.5 5.3s-4.2 1.4-5.9-.3c-2.7-2.8-5.3-5.6-7.9-8.6-.5-.6-.6-1.9-.9-2.7.2-.9.6-1.5.9-2zm1.9 37.1l-11.2-2.7c-2.1-.5-2.9-2.1-3.3-4.2.1-.4.4-.9.5-1.4 1.8-1.4 3.4-1.4 5.6-.9 2.7.6 5.1 1.1 7.9 1.9.9.3 1.5.4 2.4.6 1.9.9 3.1 2.1 2.6 4.2-.7 2.3-2.7 2.9-4.5 2.5zm27.1-51.6c1.3 0 3.4.9 3.5 1.9 1.1 4.6 1.9 9 2.6 13.6.1.4-.1.5-.3 1.5-.6.4-1.9 1.4-2.8 1.4-1.1-.1-2.9-.9-3.1-1.9-1.1-4.3-1.9-8.8-2.7-13.3-.6-1.8 1-3.2 2.8-3.2zm-4.2 117.7c-2.9-1.3-5.9-2.4-8.8-3.7-3.4-1.4-7.1-3.1-10.7-4.3-1.9-.9-2.4-1.9-1.5-3.7 1.9-5.1 1.9-5.1 7.1-2.9l18.9 7.7c2.8 1.1 2.9 1.4 1.9 4.2-2.1 4.6-2.1 4.6-6.9 2.7zm4.2-10.4c-2.9-1.3-5.9-2.4-8.8-3.7-3.4-1.4-7.1-3.1-10.7-4.3-1.9-.9-2.4-1.9-1.5-3.7 1.9-5.1 1.9-5.1 7.1-2.9l18.9 7.7c2.8 1.1 2.9 1.4 1.9 4.2-2.2 4.7-2.2 4.7-6.9 2.7zm39.4-44.4c-2.4 4.8-5.8 9-9.9 12.5-6.8 5.6-13.3 11.3-18.3 18.9-1.9 2.9-2.6 2.8-5.9 1.5-3.1-1.3-6-2.6-9-3.7l-10.4-4.3c-1.5-.6-2.4-1.9-2.1-3.4.3-1.9.4-3.9.6-5.9 1.3-7 .5-13.9 0-20.8-.5-7.1.1-14.3 3.7-20.7 4.7-8.7 12.3-13.2 22.3-12.6 8.6.5 16.4 3.7 23.1 9.4 8.7 7.7 10.8 18.8 5.9 29.1zm18.3-33.5c-2.9 2.3-6 4.3-9 6.4-2.1 1.3-4.3.9-5.3-.9-1.1-1.8-.5-3.7 1.5-5.1 2.8-2.1 5.8-4.3 8.8-6 1.3-.6 3.4-.4 4.8.1.9.4.9 2.4 1.3 3.4-1.1 1-1.6 1.7-2.1 2.1zm-1.2 55.9c-1.9 1.5-3.7 1.5-5.9.3-3.1-1.9-6-3.7-9-5.3-1.9-1.1-2.4-3.4-1.4-5.1 1.3-1.9 2.9-2.3 4.8-1.1 3.4 1.9 7.1 4.2 10.3 6.5.9.5 1.1 2.3 1.8 3.4-.3.4-.4.8-.6 1.3zm11.8-28.6c-1.4.5-2.8 1.1-4.3 1.3-2.9.3-6.2.4-9.4.5-2.9.1-4.8-1.5-4.8-3.7 0-1.9 1.8-3.4 4.7-3.4 3.3-.1 6.5 0 9.8 0 3.4 0 4.2.6 4.8 4.2-.5 0-.5.7-.8 1.1z"/><path d="M301.5 568.1c-23.1 6.8-42.8 23.5-52.9 47.3-17.2 41.7 2.7 89.4 44.3 106.6s89.4-2.7 106.6-44.3c12.5-30.3 5.6-64-15.5-86.6"/></g><g stroke="#5e8cc9"><path d="M350.1 590.9c.6.3 1.3.5 1.9.9 1.1 1.9 1.1 3.7.3 5.6l-3.9 8.4c-1.1 2.6-3.3 3.4-5.1 2.6-1.9-.9-2.4-2.9-1.1-5.6l3.9-8.6c.3-2 1.8-3.3 4-3.3zm-61 7c3.1-1.3 4.2-.9 6.5 1.5l6.5 7.1c1.8 1.9 1.9 3.9.3 5.3-1.5 1.4-4.2 1.3-5.9-.5-2.7-2.9-5.1-5.9-7.6-8.8-.5-.6-.5-1.9-.9-2.8.7-.4 1-1.3 1.1-1.8zm.4 37.2c-3.7-.9-7.2-2.1-11-3.3-2.1-.5-2.9-2.3-3.1-4.2.3-.4.4-.9.6-1.4 1.8-1.4 3.7-1.3 5.6-.6 2.6.6 5.1 1.4 7.7 2.1.9.3 1.5.5 2.4.9 1.9.9 2.9 2.3 2.3 4.3-.6 2.2-2.5 2.8-4.5 2.2zm29.3-50.3c1.3.1 3.3 1.1 3.5 2.1.9 4.6 1.4 9 1.9 13.8 0 .4-.1.5-.4 1.5-.6.3-1.9 1.4-2.8 1.3-1.1-.1-2.9-1.1-3.1-1.9-.9-4.6-1.8-8.8-2.1-13.5-.2-2 1.3-3.5 3-3.3zm-8.9 117.4c-2.9-1.4-5.8-2.7-8.6-4.2-3.4-1.5-7-3.4-10.4-4.8-1.9-.9-2.3-1.9-1.4-3.7 2.1-5.1 2.1-5.1 7.1-2.7l18.4 8.6c2.8 1.3 2.9 1.5 1.8 4.3-2.2 4.6-2.2 4.6-6.9 2.5zm4.7-10.3c-2.9-1.4-5.8-2.7-8.6-4.2-3.5-1.5-7-3.4-10.4-4.8-1.9-.9-2.3-1.9-1.4-3.7 2.1-5.1 2.1-5.1 7.1-2.7l18.4 8.6c2.8 1.3 2.9 1.5 1.8 4.3-2.3 4.7-2.3 4.7-6.9 2.5zm30.4-30.4c-7.1 5.3-13.8 10.8-19 18-1.9 2.8-2.7 2.8-5.9 1.3l-8.8-4.2c-3.5-1.5-6.8-3.1-10.3-4.8-1.5-.6-2.3-1.9-1.9-3.4.4-1.9.5-3.9.9-5.9 1.5-7 1.1-13.8.9-20.8m74.3-25.2c-3.1 2.1-6.2 4.2-9.4 5.9-2.1 1.1-4.3.5-5.3-1.1-.9-1.8-.4-3.7 1.9-5.1 2.9-1.9 5.9-4.2 9-5.6 1.3-.6 3.4-.3 4.8.4.9.4.9 2.4 1.1 3.4-1.1 1-1.6 1.6-2.1 2.1zm-3.4 55.8c-1.9 1.5-3.9 1.4-5.9.1-2.9-1.9-5.9-3.7-8.6-5.8-1.8-1.1-2.3-3.4-1.1-5.1 1.3-1.9 2.9-2.1 4.8-.9 3.4 2.1 7 4.6 10.1 7 .9.6 1.1 2.3 1.5 3.4-.5.3-.6.8-.8 1.3zm13-28.1c-1.4.4-2.8 1.1-4.3 1.1-3.1.1-6.2.1-9.4.1-2.9 0-4.8-1.8-4.8-4.2 0-1.9 1.9-3.4 4.8-3.3 3.3 0 6.5.3 9.8.3 3.4 0 4.2.9 4.7 4.2-.4 1-.7 1.4-.8 1.8z" class="B"/><path d="M359.2 572.4c-40.9-19-89.4-.9-108.3 39.9-18.9 40.9-.9 89.4 39.9 108.3 40.9 19 89.4.9 108.3-39.9 18.8-40.6 1-89.2-39.9-108.3z" class="B"/><path d="M270.5 531.5l177.3 82" class="B"/><path d="M359.2 572.4l-68.4 148.4m149.1-128.5l-81.6 177.2" class="B"/><path d="M379.3 761.7l-177.2-81.8" class="B"/><path d="M209.9 701.1l81.9-177.2" class="B"/><circle cx="329" cy="637.8" r="27.9"/></g></g><path fill="#f9d129" d="M256.3 448.4l94.4 121.3 20.4-16.1-94.3-121.3-20.5 16.1"/><path fill="#f2c0cd" d="M243.1 410.2c5.1-3.9 10.5-5.9 14.4-2.4h0l.9 1.3 7.7 9.8 10.5 13.5-20.7 16-10.5-13.4-7.6-9.8-.9-1.3.1-.1c-2.4-4.7 1-9.4 6.1-13.6"/><path fill="#d0a6b0" d="M239.8 413.2l14.1 17.9-4.8 7.9-11.7-15.1.1-.1c-2.3-3.7-.7-7.4 2.3-10.6"/><path fill="#d6b432" d="M263 443l94.6 121.3-6.9 5.4-94.4-121.3 6.7-5.4"/><path fill="#e0c69b" d="M356.4 555.9c1.9-1.4 5.3-.1 7.9 3.1-2.4-3.1-2.9-7-.9-8.4 1.9-1.4 5.3-.1 7.9 3.1l9.8 27.5c-1.3.4-2.4 1.1-3.5 1.9-1.1.9-1.9 1.9-2.8 2.9l-24.1-16.3h0c-2.4-3.1-2.9-7-.9-8.4 1.9-1.5 5.3-.1 7.9 3.1-2.7-3.3-3.1-6.9-1.3-8.5z"/><path fill="#623726" d="M380.9 581.1l2.7 7.2.9 2.6c0 .4-.1.6-.3.9-.3.1-.5.1-.9.1l-2.1-1.4-6.5-4.3c.6-1.1 1.8-2.1 2.8-2.9 1-1 2.4-1.8 3.4-2.2z"/><path fill="#acbebf" d="M268.1 421.3h0l9 11.8h0c-3.4 1.9-7.1 4.3-10.8 7.1-1.1.9-2.3 1.9-3.4 2.7l-8.5-11-.5-.6c1.1-.9 2.1-1.9 3.4-2.7 3.4-2.9 7.3-5.4 10.8-7.3z"/><path fill="#99a6a5" d="M254.5 431.8l8.6 11c-2.4 1.9-4.6 4.2-6.4 6h0l-9-11.8h0c1.9-1.9 3.9-4.2 6.4-6l.4.8z"/></svg>