<svg xmlns="http://www.w3.org/2000/svg" width="36" height="34" fill="none" xmlns:v="https://vecta.io/nano"><path d="M16.632 11.095l.202-.908-1.65-.321-.163.75c-.557-.082-1.151-.091-1.749-.031l.073-1.176h1.844V7.846h-1.623l.216-.863-1.611-.483a11.23 11.23 0 0 0-.316 1.346h-1.838v1.563h1.638l-.076 1.557C9.768 11.63 9 12.898 9 14.045c0 1.356 1.071 2.55 2.763 2.397 2.101-.192 3.505-1.779 4.327-3.731.851.491 1.207 1.314.887 2.078-.296.707-1.17 1.379-2.838 1.344v1.681c1.851.029 3.672-.675 4.387-2.374.696-1.66-.101-3.476-1.894-4.345zm-2.169 1.149c-.262.581-.607 1.158-1.047 1.613a16.61 16.61 0 0 1-.138-1.581c.4-.053.806-.062 1.185-.032zm-2.841.543c.045.71.126 1.364.237 1.947-1.497.274-1.557-1.201-.237-1.947zM3 13.028c0 2.81 1.274 4.414 2.524 5.914.046 1.5.128 2.502-.499 4.775 2.622-.837 3.057-1.167 4.512-2.061 1.5.366 2.211.572 3.916.736a9.01 9.01 0 0 0 .082 3.035 22.06 22.06 0 0 1-3.495-.561C7.946 26.152 3.32 27.454.068 28.039c1.217-2.392 2.562-5.677 2.492-7.968A11.05 11.05 0 0 1 0 13.028C0 5.789 7.079.5 15 .5c7.855 0 14.965 5.226 14.997 12.477-.966-.263-1.983-.415-3.032-.471C26.622 7.496 21.396 3.5 15 3.5c-6.616 0-12 4.275-12 9.528zm23.486 8.144l1.088 3.111h-2.168l1.08-3.111zM36 23.671c0-4.737-4.634-8.2-9.819-8.2-5.154 0-9.819 3.44-9.819 8.201 0 4.2 3.95 8.163 9.747 8.163 1.048 0 2.16-.131 3.319-.411 1.371.842 4.4 1.691 6.528 2.078-.795-1.567-1.675-3.718-1.632-5.218A7.23 7.23 0 0 0 36 23.671zM28.724 27.5l-.684-1.905h-3.093L24.27 27.5H22.5l3.148-8.25H27.3l3.136 8.25h-1.713z" fill="#4d4d4d"/></svg>