<svg width="248" height="248" viewBox="0 0 248 248" fill="none" xmlns="http://www.w3.org/2000/svg">
<circle cx="124" cy="124" r="124" fill="#FFF7CB"/>
<path d="M124 215C80.9214 215 46 208.984 46 201.561C46 197.818 54.8873 194.432 69.2246 191.995L74.5318 203.457C74.5318 204.106 76.6651 204.627 79.2978 204.627H168.861C168.923 204.627 168.983 204.627 169.043 204.627C171.563 204.627 173.031 204.614 173.802 203.457L179.392 192.101C193.368 194.53 202 197.871 202 201.561C202 208.984 167.078 215 124 215Z" fill="#BDBCBD"/>
<path d="M139.877 121.738H143.231L155.026 123.992C155.026 123.992 163.406 127.088 166.097 129.697L182.411 143.266L168.266 165.184L155.026 161.529C155.026 161.529 157.513 181.881 155.026 195.451H134.197H114.694H93.8663C91.3801 181.881 93.8663 161.529 93.8663 161.529L80.6271 165.184L66.4805 143.266L82.7943 129.697C85.4839 127.088 93.8663 123.992 93.8663 123.992L105.66 121.738H109.015H139.877Z" fill="#9D704F"/>
<path d="M139.877 121.738H143.231L155.026 123.992C155.026 123.992 163.406 127.088 166.097 129.697L182.411 143.266L168.266 165.184L155.026 161.529C155.026 161.529 157.513 181.881 155.026 195.451H134.197H114.694H93.8663C91.3801 181.881 93.8663 161.529 93.8663 161.529L80.6271 165.184L66.4805 143.266L82.7943 129.697C85.4839 127.088 93.8663 123.992 93.8663 123.992L105.66 121.738H109.015C109.015 121.738 106.671 134.915 124.445 136.221C124.445 136.221 140.138 135.959 139.877 121.738Z" fill="#429488"/>
<path d="M178.824 146.68L194.065 163.109C194.065 163.109 198.134 176.506 184.728 173.787L168.691 163.319L178.824 146.68Z" fill="#9D704F"/>
<path d="M69.1743 145.383L53.9355 161.811C53.9355 161.811 49.8657 175.207 63.2726 172.489L79.308 162.021L69.1743 145.383Z" fill="#9D704F"/>
<path d="M143.798 121.847L143.231 121.738H143.914C143.875 121.775 143.836 121.811 143.798 121.847ZM105.563 121.757C105.558 121.751 105.553 121.744 105.549 121.738H105.66L105.563 121.757Z" fill="#D3D2D2"/>
<path d="M125.359 129.263C122.027 129.263 118.82 128.48 115.613 127.45C113.69 126.833 111.167 125.936 108.992 124.647C108.934 124.122 108.914 123.645 108.913 123.236C108.913 122.314 109.015 121.738 109.015 121.738H115.503H118.38C120.664 123.416 123.486 124.407 126.541 124.407C129.596 124.407 132.418 123.416 134.701 121.738H139.877C139.877 121.754 139.877 121.771 139.877 121.788C139.88 121.971 139.869 122.146 139.868 122.328C139.871 122.33 139.875 122.331 139.878 122.332C139.866 123.292 139.778 124.185 139.627 125.018C136.035 127.238 131.901 128.665 127.62 129.139C126.858 129.224 126.106 129.263 125.359 129.263Z" fill="#7D5436"/>
<path d="M91.9371 149.012C92.4692 140.851 91.8862 131.629 94.7611 123.82L93.8663 123.992C93.8663 123.992 85.4839 127.088 82.7943 129.697L66.4805 143.266L80.6271 165.184L92.0575 162.028C91.4485 157.657 91.6731 153.052 91.9371 149.012Z" fill="#429488"/>
<path d="M166.097 129.697C163.555 127.229 155.941 124.336 155.111 124.022C155.467 124.156 156.731 138.254 156.882 139.431C157.85 146.943 158.322 154.616 157.256 162.144L168.266 165.184L182.411 143.266L166.097 129.697Z" fill="#429488"/>
<path d="M156.593 136.556C155.912 135.214 155.7 133.702 154.846 131.838C153.955 129.894 152.498 128.255 150.321 127.855C150.01 127.798 149.63 127.778 149.205 127.778C148.74 127.778 148.221 127.801 147.678 127.825C147.135 127.848 146.569 127.872 146.01 127.872C144.89 127.872 143.799 127.778 142.981 127.402C143.467 125.15 143.384 123.211 143.299 122.298C143.467 122.149 143.633 121.999 143.798 121.847L155.026 123.992C155.026 123.992 155.057 124.004 155.116 124.025C155.389 124.231 156.16 132.121 156.593 136.556Z" fill="#5C9E95"/>
<path d="M139.879 122.332C139.875 122.33 139.872 122.329 139.868 122.328C139.87 122.146 139.88 121.971 139.878 121.787C139.879 121.888 139.88 121.989 139.88 122.089C139.88 122.17 139.879 122.251 139.879 122.332Z" fill="#734D32"/>
<path d="M143.299 122.298C143.265 121.94 143.231 121.738 143.231 121.738L143.798 121.847C143.633 121.999 143.468 122.15 143.299 122.298Z" fill="#9F222C"/>
<path d="M178.801 148.86L179.014 146.852C179.014 144.823 176.907 143.178 174.308 143.178H165.263C165.176 143.102 165.089 143.027 164.998 142.953C163.212 141.481 161.099 140.433 159.144 139.213C157.794 138.37 157.075 137.506 156.593 136.556C156.16 132.121 155.389 124.231 155.116 124.025C156.027 124.368 163.571 127.247 166.097 129.697L182.412 143.266L178.801 148.86Z" fill="#5C9E95"/>
<path d="M142.981 127.402C142.103 126.998 141.54 126.27 141.595 124.985C141.653 123.578 140.882 122.695 139.879 122.332C139.879 122.252 139.88 122.171 139.88 122.09C139.88 121.99 139.879 121.889 139.877 121.788C139.877 121.772 139.877 121.755 139.877 121.738H143.231C143.231 121.738 143.265 121.94 143.299 122.298C143.384 123.212 143.467 125.15 142.981 127.402Z" fill="#5C9E95"/>
<path d="M93.0315 130.839C93.3947 128.423 93.9353 126.063 94.7604 123.821L105.562 121.757C105.594 121.798 105.625 121.839 105.657 121.88C105.65 122.413 105.657 122.927 105.68 123.428C101.397 125.992 97.0129 128.156 93.0315 130.839Z" fill="#5C9E95"/>
<path d="M105.657 121.88C105.625 121.839 105.594 121.799 105.562 121.757L105.659 121.738C105.659 121.786 105.658 121.833 105.657 121.88Z" fill="#9F222C"/>
<path d="M70.701 149.805L66.4805 143.266L82.7943 129.697C85.4839 127.088 93.8663 123.992 93.8663 123.992L94.7605 123.821C93.9353 126.064 93.3948 128.423 93.0315 130.84C89.0828 133.501 85.5293 136.672 82.8591 141.251C82.4892 141.885 82.1544 142.528 81.8536 143.178H75.1401C72.5413 143.178 70.4347 144.823 70.4347 146.852L70.701 149.805Z" fill="#5C9E95"/>
<path d="M105.68 123.428C105.658 122.927 105.65 122.413 105.658 121.88C105.658 121.833 105.66 121.786 105.66 121.738H108.182H108.38C107.488 122.325 106.586 122.885 105.68 123.428Z" fill="#5C9E95"/>
<path d="M54.1354 172.182C58.1768 174.093 62.7073 174.773 67.1294 175.096C70.7307 175.365 74.3459 175.461 77.9551 175.341C81.4722 175.231 84.9809 174.651 88.4962 174.656C88.969 174.656 96.0989 174.923 96.0759 175.297L96.691 166.635C87.9459 167.479 84.881 165.665 84.881 165.665C67.0156 159.556 54.8461 161.21 54.8461 161.21C54.8461 161.21 51.884 162.351 51.2339 166.7C51.2339 166.7 51.2454 170.816 54.1354 172.182Z" fill="#9D704F"/>
<path d="M84.881 165.666C84.881 165.666 84.4936 165.587 83.8234 165.427C83.1557 165.257 82.1932 165.041 81.0539 164.735C80.4813 164.604 79.8608 164.46 79.2045 164.31C78.5508 164.156 77.86 163.999 77.1518 163.818C76.4344 163.667 75.6898 163.526 74.9392 163.356C74.1891 163.186 73.4252 163.02 72.6533 162.894C71.8864 162.746 71.1188 162.599 70.3639 162.454C69.6029 162.343 68.8583 162.205 68.1349 162.086C67.4127 161.956 66.7099 161.87 66.0446 161.769C65.3787 161.678 64.7504 161.567 64.1668 161.504C63.5832 161.428 63.0481 161.359 62.5741 161.297C62.0983 161.242 61.6836 161.194 61.3422 161.155C60.6575 161.068 60.2659 161.018 60.2659 161.018C60.2659 161.018 60.66 160.998 61.3495 160.964C62.0402 160.925 63.0269 160.92 64.2116 160.956C64.8055 160.958 65.4447 161.006 66.1215 161.058C66.7983 161.111 67.5163 161.141 68.2494 161.249C68.9837 161.344 69.7458 161.427 70.5158 161.54C71.2816 161.676 72.0595 161.815 72.8374 161.953C73.6159 162.092 74.3853 162.27 75.1414 162.453C75.8993 162.628 76.639 162.823 77.3576 163.001C78.7796 163.427 80.1047 163.828 81.2216 164.213C82.3276 164.622 83.2375 165.002 83.8797 165.25C84.5196 165.506 84.881 165.666 84.881 165.666Z" fill="#825839"/>
<path d="M96.6913 166.634C96.6913 166.634 109.147 167.053 111.449 175.864C111.449 175.864 112.406 177.997 110.078 177.649C110.078 177.649 108.42 174.397 106.664 173.816C106.664 173.816 108.797 177.776 108.38 181.938C108.38 181.938 106.606 183.213 105.549 181.474C105.549 181.474 105.524 178.413 104.084 176.096C104.084 176.096 105.235 180.54 103.956 181.699C103.956 181.699 102.092 182.28 101.744 180.657L101 176.955L98.7876 179.62C98.7876 179.62 96.6913 180.657 96.796 178.43L97.9734 176.143C97.9734 176.143 96.2282 176.148 94.2493 174.987L96.6913 166.634Z" fill="#9D704F"/>
<path d="M193.865 173.481C189.823 175.391 185.291 176.071 180.868 176.395C177.269 176.662 173.654 176.757 170.044 176.642C166.528 176.531 163.019 175.948 159.503 175.954C159.03 175.954 151.897 176.222 151.924 176.595L151.308 167.935C160.055 168.775 163.118 166.965 163.118 166.965C180.985 160.851 193.153 162.508 193.153 162.508C193.153 162.508 196.115 163.649 196.766 167.997C196.766 167.997 196.755 172.114 193.865 173.481Z" fill="#9D704F"/>
<path d="M163.118 166.964C163.118 166.964 163.479 166.805 164.119 166.548C164.761 166.301 165.67 165.92 166.777 165.512C167.894 165.127 169.22 164.725 170.642 164.3C171.36 164.122 172.099 163.927 172.857 163.751C173.613 163.568 174.383 163.39 175.161 163.251C175.94 163.113 176.718 162.974 177.483 162.838C178.253 162.725 179.016 162.643 179.75 162.547C180.483 162.44 181.201 162.409 181.878 162.355C182.555 162.305 183.194 162.256 183.788 162.254C184.972 162.219 185.959 162.223 186.65 162.263C187.34 162.297 187.733 162.317 187.733 162.317C187.733 162.317 187.342 162.367 186.658 162.453C186.316 162.493 185.901 162.54 185.426 162.595C184.951 162.657 184.417 162.727 183.832 162.802C183.249 162.866 182.621 162.976 181.955 163.068C181.289 163.169 180.587 163.255 179.865 163.384C179.141 163.503 178.396 163.641 177.635 163.752C176.88 163.898 176.113 164.045 175.345 164.193C174.574 164.319 173.81 164.484 173.06 164.654C172.309 164.824 171.565 164.965 170.847 165.117C170.139 165.298 169.448 165.455 168.794 165.609C168.138 165.76 167.517 165.902 166.945 166.034C165.805 166.34 164.843 166.556 164.176 166.725C163.505 166.885 163.118 166.964 163.118 166.964Z" fill="#825839"/>
<path d="M151.308 167.934C151.308 167.934 138.852 168.352 136.551 177.16C136.551 177.16 135.594 179.296 137.922 178.948C137.922 178.948 139.58 175.693 141.335 175.115C141.335 175.115 139.202 179.074 139.619 183.235C139.619 183.235 141.392 184.509 142.451 182.771C142.451 182.771 142.475 179.711 143.915 177.394C143.915 177.394 142.764 181.837 144.046 182.997C144.046 182.997 145.909 183.578 146.256 181.956L147 178.251L149.211 180.918C149.211 180.918 151.308 181.956 151.204 179.728L150.025 177.441C150.025 177.441 151.772 177.446 153.751 176.284L151.308 167.934Z" fill="#9D704F"/>
<path d="M173.802 203.458C173.012 204.643 171.492 204.628 168.862 204.628H79.298C76.6653 204.628 74.532 204.107 74.532 203.458L69.0281 191.57C69.0281 190.921 67.0564 185.561 72.4096 185.561H176.503C182.392 186.058 179.598 191.037 179.598 191.684L173.802 203.458Z" fill="#17181C"/>
<path d="M173.437 199.36C173.437 201.389 171.329 203.035 168.731 203.035H79.8715C77.2721 203.035 75.1649 201.389 75.1649 199.36L70.4346 146.852C70.4346 144.823 72.5412 143.177 75.14 143.177H174.308C176.906 143.177 179.013 144.823 179.013 146.852L173.437 199.36Z" fill="#373E4B"/>
<path d="M139.298 189.359C137.689 189.359 136.076 189.308 134.466 189.216C123.262 188.577 111.537 185.29 103.968 176.58C99.1108 170.989 97.4763 163.572 97.8468 156.355C97.977 153.837 98.5381 149.501 99.9159 145.947H172.078C174.522 145.947 176.503 147.496 176.503 149.402L173.822 174.628C171.902 177.054 169.687 179.274 167.159 181.207C159.031 187.417 149.233 189.359 139.298 189.359Z" fill="#404755"/>
<path d="M168.731 203.035H79.8715C77.2721 203.035 75.1649 201.389 75.1649 199.36L70.4346 146.852C70.4346 144.823 72.5412 143.177 75.14 143.177H92.7118C92.1325 145.007 91.713 146.817 91.397 148.357C89.6142 157.042 90.6142 165.917 94.8094 173.757C101.724 186.687 116.586 191.926 130.334 193.557C133.454 193.926 136.6 194.128 139.741 194.128C150.7 194.128 161.555 191.665 170.707 185.28C172.358 184.129 173.889 182.867 175.329 181.528L173.437 199.36C173.437 201.389 171.329 203.035 168.731 203.035Z" fill="#303641"/>
<path d="M174.34 202.566C174.34 204.337 172.931 205.773 171.192 205.773H77.3573C75.6187 205.773 74.2083 204.337 74.2083 202.566C74.2083 200.795 75.6187 199.36 77.3573 199.36H171.192C172.931 199.36 174.34 200.795 174.34 202.566Z" fill="#292E36"/>
<path d="M166.595 80.315L164.67 85.9469C163.873 76.7984 158.656 70.2543 152.071 64.5167L160.289 62.8906C162.609 65.1208 164.384 67.8515 165.477 70.8724C166.57 73.8933 166.953 77.1238 166.595 80.315Z" fill="#321D15"/>
<path d="M83.527 105.195C88.6888 105.195 92.8732 100.886 92.8732 95.5709C92.8732 90.2555 88.6888 85.9465 83.527 85.9465C78.3651 85.9465 74.1807 90.2555 74.1807 95.5709C74.1807 100.886 78.3651 105.195 83.527 105.195Z" fill="#8E6649"/>
<path d="M165.48 100.384C170.641 100.384 174.826 96.075 174.826 90.7596C174.826 85.4442 170.641 81.1353 165.48 81.1353C160.318 81.1353 156.133 85.4442 156.133 90.7596C156.133 96.075 160.318 100.384 165.48 100.384Z" fill="#8E6649"/>
<path d="M165.082 90.8089C165.952 71.37 148.641 54.8127 126.417 53.8271C104.193 52.8415 85.4728 67.8009 84.6034 87.2398C83.7341 106.679 101.045 123.236 123.269 124.222C145.492 125.207 164.213 110.248 165.082 90.8089Z" fill="#9D704F"/>
<path d="M107.464 94.6987C108.974 94.6987 110.198 92.9704 110.198 90.8384C110.198 88.7064 108.974 86.978 107.464 86.978C105.953 86.978 104.729 88.7064 104.729 90.8384C104.729 92.9704 105.953 94.6987 107.464 94.6987Z" fill="#010101"/>
<path d="M140.607 94.6987C142.118 94.6987 143.342 92.9704 143.342 90.8384C143.342 88.7064 142.118 86.978 140.607 86.978C139.097 86.978 137.873 88.7064 137.873 90.8384C137.873 92.9704 139.097 94.6987 140.607 94.6987Z" fill="#010101"/>
<path d="M132.77 107.165C131.78 108.251 130.57 109.115 129.22 109.701C127.87 110.287 126.41 110.58 124.937 110.563C121.508 110.665 118.15 109.571 115.445 107.469L121.247 109.241C123.663 109.94 126.246 109.805 128.575 108.857L132.77 107.165Z" fill="white"/>
<path d="M100.467 83.9372C100.467 83.9372 102.339 79.7199 106.481 79.4952C110.849 79.244 113.743 83.4613 113.743 83.4613L109.309 81.2931C108.427 80.8368 107.435 80.6357 106.445 80.7128C105.455 80.79 104.506 81.1422 103.706 81.7294L100.467 83.9372Z" fill="#010101"/>
<path d="M133.571 83.9372C133.571 83.9372 135.443 79.7199 139.585 79.4952C143.953 79.244 146.847 83.4613 146.847 83.4613L142.413 81.2931C141.531 80.8368 140.539 80.6357 139.549 80.7128C138.559 80.79 137.61 81.1422 136.81 81.7294L133.571 83.9372Z" fill="#010101"/>
<path d="M140.606 44.5257L143.122 44.0246C143.122 44.0246 143.883 44.8381 145.135 45.0268C147.878 45.3204 150.588 48.1108 153.081 49.2873C155.932 50.6995 158.185 51.6324 160.028 54.666C161.871 57.6997 162.491 59.9715 162.163 61.459C161.936 62.6858 161.408 63.8378 160.626 64.813C159.845 65.7882 159.873 68.2947 158.722 68.7879C154.193 65.5725 150.557 64.9768 148.155 64.813C145.753 64.6492 136.58 64.813 136.58 64.813C133.561 64.813 130.542 65.5725 128.026 65.5725C126.164 65.7037 134.064 65.5725 128.026 65.5725C122.993 65.5725 117.145 67.2982 112.618 64.9441C111.941 64.5479 111.243 64.1885 110.526 63.8676C110.526 63.8676 106.788 66.0837 102.864 67.0497C98.9403 68.0157 99.3418 67.577 95.8192 68.0781C93.748 68.3728 92.7998 69.0803 92.7998 69.0803L90.2954 74.4455C89.5074 76.8142 88.8092 79.2183 88.2258 81.6493L85.996 90.8572C84.0301 88.5563 82.3576 86.0221 81.0165 83.3124C79.3515 79.2072 78.5857 77.7639 79.3399 73.8718C79.9399 70.2369 81.826 66.9357 84.6571 64.5648C83.8351 63.57 83.1854 62.4457 82.7348 61.2381C82.6849 60.8519 82.7685 60.4602 82.9718 60.1276C83.175 59.7949 83.4859 59.541 83.8533 59.4075C84.5107 59.1763 85.6729 59.5062 87.0556 60.4893C87.6005 60.9624 88.2373 61.3189 88.9264 61.5367C88.9264 61.5367 89.3214 61.5888 89.4937 61.0934C89.666 60.5981 89.089 59.7802 88.9635 59.6576C88.8379 59.5351 87.111 56.5168 87.0273 56.4351C86.8127 55.8368 86.8243 55.1812 87.0598 54.5908C87.1937 54.2945 87.3938 54.0326 87.6448 53.8249C87.8957 53.6172 88.191 53.4693 88.508 53.3924C89.0578 53.2527 89.6405 53.3296 90.1348 53.607C90.7014 54.1536 91.1838 54.7807 91.5663 55.4678C91.7572 55.8109 91.1434 54.5703 91.5663 54.5908C91.9893 54.6112 97.2454 47.174 104.054 43.8097C108.345 41.6111 113.027 40.2686 117.835 39.8578C122.326 39.1875 126.875 38.9787 131.409 39.2345C135.338 39.5643 136.941 39.8699 138.173 41.0097C138.697 41.6376 139.03 42.4022 139.132 43.2128C139.234 44.0234 139.953 43.2873 139.6 44.0246" fill="#321D15"/>
<path d="M97.8099 49.2804C97.8099 51.5888 95.9304 53.4585 93.6124 53.4585C91.2939 53.4585 89.4148 51.5888 89.4148 49.2804C89.4148 46.9712 91.2939 45.0995 93.6124 45.0995C95.9304 45.0995 97.8099 46.9712 97.8099 49.2804Z" fill="#321D15"/>
<path d="M92.9105 54.8757C92.9105 57.184 91.0315 59.0552 88.7135 59.0552C86.3959 59.0552 84.5159 57.184 84.5159 54.8757C84.5159 52.5678 86.3959 50.6962 88.7135 50.6962C91.0315 50.6962 92.9105 52.5678 92.9105 54.8757Z" fill="#321D15"/>
<path d="M90.5089 61.8137C90.5089 64.122 88.6294 65.9922 86.3109 65.9922C83.9933 65.9922 82.1138 64.122 82.1138 61.8137C82.1138 59.5063 83.9933 57.6346 86.3109 57.6346C88.6294 57.6346 90.5089 59.5063 90.5089 61.8137Z" fill="#321D15"/>
<path d="M87.6083 69.2507C87.6083 71.5585 85.7292 73.4287 83.4107 73.4287C81.0932 73.4287 79.2126 71.5585 79.2126 69.2507C79.2126 66.9428 81.0932 65.0712 83.4107 65.0712C85.7292 65.0712 87.6083 66.9428 87.6083 69.2507Z" fill="#321D15"/>
<path d="M86.6019 74.2619C86.6019 76.5697 84.7229 78.4399 82.4044 78.4399C80.0868 78.4399 78.2063 76.5697 78.2063 74.2619C78.2063 71.9541 80.0868 70.0824 82.4044 70.0824C84.7229 70.0824 86.6019 71.9541 86.6019 74.2619Z" fill="#321D15"/>
<path d="M86.6019 79.2731C86.6019 81.581 84.7229 83.4512 82.4044 83.4512C80.0868 83.4512 78.2063 81.581 78.2063 79.2731C78.2063 76.9653 80.0868 75.0936 82.4044 75.0936C84.7229 75.0936 86.6019 76.9653 86.6019 79.2731Z" fill="#321D15"/>
<path d="M161.52 55.278C161.52 57.5858 159.64 59.4575 157.322 59.4575C155.003 59.4575 153.124 57.5858 153.124 55.278C153.124 52.9692 155.003 51.1 157.322 51.1C159.64 51.1 161.52 52.9692 161.52 55.278Z" fill="#321D15"/>
<path d="M165.716 61.8137C165.716 64.122 163.837 65.9922 161.52 65.9922C159.202 65.9922 157.322 64.122 157.322 61.8137C157.322 59.5063 159.202 57.6346 161.52 57.6346C163.837 57.6346 165.716 59.5063 165.716 61.8137Z" fill="#321D15"/>
<path d="M166.614 68.6042C166.614 70.9125 164.735 72.7817 162.416 72.7817C160.099 72.7817 158.219 70.9125 158.219 68.6042C158.219 66.2963 160.099 64.4247 162.416 64.4247C164.735 64.4247 166.614 66.2963 166.614 68.6042Z" fill="#321D15"/>
<path d="M167.78 73.0902C167.78 74.7512 166.429 76.0962 164.761 76.0962C163.094 76.0962 161.742 74.7512 161.742 73.0902C161.742 71.4296 163.094 70.0828 164.761 70.0828C166.429 70.0828 167.78 71.4296 167.78 73.0902Z" fill="#321D15"/>
<path d="M104.308 46.1364C104.308 48.4447 102.429 50.3159 100.111 50.3159C97.7926 50.3159 95.9141 48.4447 95.9141 46.1364C95.9141 43.8286 97.7926 41.9569 100.111 41.9569C102.429 41.9569 104.308 43.8286 104.308 46.1364Z" fill="#321D15"/>
<path d="M111.192 43.4948C111.192 45.8026 109.313 47.6743 106.995 47.6743C104.677 47.6743 102.797 45.8026 102.797 43.4948C102.797 41.187 104.677 39.3153 106.995 39.3153C109.313 39.3153 111.192 41.187 111.192 43.4948Z" fill="#321D15"/>
<path d="M117.905 42.7267C117.905 45.0341 116.027 46.9043 113.709 46.9043C111.391 46.9043 109.51 45.0341 109.51 42.7267C109.51 40.4184 111.391 38.5467 113.709 38.5467C116.027 38.5467 117.905 40.4184 117.905 42.7267Z" fill="#321D15"/>
<path d="M125.295 41.1882C125.295 43.496 123.415 45.3677 121.097 45.3677C118.779 45.3677 116.899 43.496 116.899 41.1882C116.899 38.8804 118.779 37.0087 121.097 37.0087C123.415 37.0087 125.295 38.8804 125.295 41.1882Z" fill="#321D15"/>
<path d="M132.833 41.1882C132.833 43.496 130.954 45.3677 128.636 45.3677C126.318 45.3677 124.438 43.496 124.438 41.1882C124.438 38.8804 126.318 37.0087 128.636 37.0087C130.954 37.0087 132.833 38.8804 132.833 41.1882Z" fill="#321D15"/>
<path d="M139.534 41.9562C139.534 44.266 137.655 46.1357 135.336 46.1357C133.018 46.1357 131.139 44.266 131.139 41.9562C131.139 39.6479 133.018 37.7772 135.336 37.7772C137.655 37.7772 139.534 39.6479 139.534 41.9562Z" fill="#321D15"/>
<path d="M146.964 43.4948C146.964 45.8026 145.085 47.6743 142.767 47.6743C140.449 47.6743 138.57 45.8026 138.57 43.4948C138.57 41.187 140.449 39.3153 142.767 39.3153C145.085 39.3153 146.964 41.187 146.964 43.4948Z" fill="#321D15"/>
<path d="M154.07 46.904C154.07 49.2133 152.191 51.083 149.873 51.083C147.555 51.083 145.676 49.2133 145.676 46.904C145.676 44.5957 147.555 42.7245 149.873 42.7245C152.191 42.7245 154.07 44.5957 154.07 46.904Z" fill="#321D15"/>
<path d="M158.267 51.0842C158.267 53.3944 156.388 55.2642 154.07 55.2642C151.752 55.2642 149.873 53.3944 149.873 51.0842C149.873 48.7763 151.752 46.9052 154.07 46.9052C156.388 46.9052 158.267 48.7763 158.267 51.0842Z" fill="#321D15"/>
<path d="M123.24 47.2947C123.242 47.2306 123.259 47.1222 123.215 47.0697L123.149 47.073C123.106 47.1227 123.124 47.2234 123.126 47.2836C123.129 47.3555 123.237 47.3699 123.24 47.2947Z" fill="#1F0606"/>
<path d="M102.575 54.8765C102.55 54.8765 102.525 54.8755 102.501 54.874C101.641 54.8224 100.929 54.1805 100.478 53.4931C99.8203 52.4914 99.669 51.2032 100.149 50.3159C101.017 50.3081 101.823 50.0381 102.489 49.5812C102.498 49.7111 102.441 49.8478 102.307 49.9082C101.78 50.1463 101.076 50.5327 101.015 51.18C100.965 51.6973 101.147 52.2489 101.453 52.6696C101.718 53.0352 102.136 53.5057 102.557 53.5129C102.59 53.5129 102.692 53.5057 102.79 53.3704C103.027 53.0439 103.138 52.7575 103.57 52.6479C103.601 52.6396 103.635 52.6358 103.67 52.6358C103.826 52.6358 104.01 52.7126 104.091 52.8348C104.712 53.7752 103.532 54.8765 102.575 54.8765Z" fill="#27160F"/>
<path d="M100.148 50.3159C100.481 49.701 101.117 49.2794 102.098 49.2794C102.13 49.2794 102.163 49.2798 102.196 49.2808C102.376 49.2856 102.478 49.4291 102.489 49.5813C101.822 50.0382 101.017 50.3082 100.148 50.3159Z" fill="#27160F"/>
<path d="M98.0361 61.8135C97.7291 61.8135 97.4002 61.5613 97.5676 61.217C97.8014 60.7388 98.2825 60.4436 98.3121 59.8626C98.334 59.4515 98.2001 59.0246 97.9372 58.7038C97.5249 58.2015 96.9511 57.9286 96.3618 57.9286C95.9834 57.9286 95.5993 58.0411 95.2471 58.2778C95.1986 58.3107 95.1496 58.3252 95.104 58.3252C94.926 58.3252 94.8028 58.1059 94.9595 57.9392C95.4547 57.4099 96.0916 57.1514 96.7285 57.1514C97.4361 57.1514 98.1448 57.4707 98.6604 58.0924C99.0892 58.6077 99.386 59.2728 99.3201 59.9582C99.2565 60.6257 98.885 61.5541 98.1952 61.7884C98.1448 61.8053 98.091 61.8135 98.0361 61.8135Z" fill="#27160F"/>
<path d="M89.8704 70.2266C89.0497 70.2266 88.1912 69.7436 87.7566 69.035C87.6843 68.9166 87.6208 68.7925 87.5669 68.665C87.5946 68.4718 87.6087 68.2737 87.6087 68.0723C87.6087 67.6965 87.5587 67.3324 87.4656 66.9856C87.6426 66.46 88.02 66.1871 88.5506 65.9374C88.5822 65.9229 88.6122 65.9162 88.6408 65.9162C88.8092 65.9162 88.9139 66.1437 88.7708 66.2779C88.1626 66.8479 88.1631 67.827 88.7165 68.4187C88.9251 68.6404 89.2224 68.8838 89.5416 68.9123C89.5697 68.9152 89.5978 68.9161 89.6245 68.9161C89.9936 68.9161 90.2522 68.6993 90.5844 68.5447C90.6722 68.5041 90.7595 68.4858 90.8439 68.4858C91.3023 68.4858 91.6607 69.0263 91.3585 69.4571C90.9807 69.9981 90.4345 70.2266 89.8704 70.2266Z" fill="#27160F"/>
<path d="M87.5673 68.6655C87.3811 68.225 87.3093 67.7391 87.3951 67.2653C87.4131 67.1648 87.4368 67.0721 87.4659 66.9861C87.5591 67.3329 87.609 67.6971 87.609 68.0729C87.609 68.2743 87.595 68.4723 87.5673 68.6655Z" fill="#27160F"/>
<path d="M118.281 53.3237C117.218 53.3237 116.009 52.2273 115.529 51.5018C114.811 50.4203 114.658 48.6752 116.204 48.2598C116.22 48.2555 116.236 48.2536 116.25 48.2536C116.388 48.2536 116.463 48.4366 116.389 48.5482C115.776 49.477 115.874 50.3522 116.679 51.1487C117.308 51.7737 117.892 51.9761 118.705 51.9761C118.765 51.9761 118.826 51.9747 118.888 51.9727C118.895 51.9727 118.901 51.9723 118.907 51.9723C119.419 51.9723 119.516 52.6741 119.201 52.9644C118.925 53.2184 118.61 53.3237 118.281 53.3237Z" fill="#27160F"/>
<path d="M125.439 52.3921C124.959 52.3921 124.741 51.7502 125.104 51.4188C125.486 51.0691 125.784 50.8547 125.778 50.2847C125.772 49.8051 125.614 49.3235 125.387 48.9052C125.01 48.2102 124.47 47.5204 123.69 47.5204C123.582 47.5204 123.469 47.534 123.352 47.562C123.327 47.5678 123.303 47.5707 123.28 47.5707C123.011 47.5707 122.811 47.2176 122.991 46.9954C123.282 46.6356 123.619 46.4902 123.968 46.4902C124.955 46.4902 126.036 47.6518 126.431 48.4111C127.064 49.6288 127.397 52.0009 125.557 52.38C125.516 52.3882 125.477 52.3921 125.439 52.3921ZM123.215 47.0693L123.149 47.0727C123.106 47.1224 123.124 47.2234 123.126 47.2838C123.127 47.3229 123.16 47.3451 123.19 47.3451C123.215 47.3451 123.239 47.3292 123.24 47.2949C123.242 47.2306 123.26 47.122 123.215 47.0693Z" fill="#27160F"/>
<path d="M123.19 47.3452C123.16 47.3452 123.127 47.323 123.126 47.284C123.124 47.2238 123.106 47.123 123.149 47.0734L123.215 47.07C123.259 47.1226 123.242 47.231 123.24 47.2951C123.238 47.3293 123.215 47.3452 123.19 47.3452Z" fill="#1B0504"/>
<path d="M141.348 57.2236C140.918 57.2236 140.449 57.0918 140.135 56.9705C139.338 56.6624 138.488 56.1552 137.975 55.4558C136.99 54.113 137.149 52.5819 138.973 52.2771C138.986 52.2747 139 52.2737 139.012 52.2737C139.217 52.2737 139.285 52.5611 139.096 52.6611C137.829 53.3499 138.454 54.4536 139.37 55.1423C139.81 55.4737 140.332 55.8007 140.888 55.89C141.374 55.9702 141.879 55.8364 142.253 56.2165C142.364 56.3334 142.386 56.5271 142.332 56.6715C142.177 57.0889 141.782 57.2236 141.348 57.2236Z" fill="#27160F"/>
<path d="M148.573 60.7651C148.214 60.7651 147.868 60.6516 147.641 60.372C147.541 60.2474 147.531 60.0199 147.679 59.9228C148.095 59.645 148.759 59.8455 149.106 59.5045C149.386 59.2287 149.372 58.7148 149.315 58.3597C149.159 57.4111 148.74 56.4267 148.065 55.7269C147.892 55.5501 148.075 55.2791 148.28 55.2791C148.329 55.2791 148.38 55.295 148.427 55.3317C149.468 56.1471 150.307 57.586 150.342 58.922C150.358 59.5045 150.162 60.0633 149.686 60.4096L148.881 60.7386C148.779 60.756 148.675 60.7651 148.573 60.7651Z" fill="#27160F"/>
<path d="M148.88 60.7383L149.686 60.4101C149.654 60.4327 149.622 60.4544 149.589 60.4751C149.387 60.6009 149.138 60.6949 148.88 60.7383Z" fill="#27160F"/>
<path d="M130.065 62.0767C129.319 62.0767 128.548 61.7743 127.98 61.3111C126.597 60.1842 126.099 58.327 127.801 57.2325C127.87 57.1881 127.939 57.1693 128.004 57.1693C128.263 57.1693 128.446 57.4779 128.214 57.7175C127.33 58.6371 127.81 59.7548 128.797 60.3518C129.122 60.5494 129.563 60.7812 129.967 60.7812C130.002 60.7812 130.036 60.7793 130.07 60.7759C130.275 60.7542 130.441 60.7015 130.627 60.6165C130.703 60.5788 130.783 60.5503 130.867 60.5305C130.874 60.5301 130.881 60.5296 130.888 60.5291C130.971 60.4789 131.043 60.4581 131.139 60.4277C131.188 60.4107 131.238 60.4025 131.288 60.4025C131.451 60.4025 131.599 60.4948 131.633 60.6817C131.675 60.9082 131.652 61.0841 131.537 61.285C131.575 61.2183 131.592 61.1927 131.596 61.1927C131.61 61.1927 131.486 61.4589 131.473 61.4753C131.419 61.54 131.365 61.6033 131.305 61.6627C131.009 61.9062 130.681 62.0342 130.3 62.0665C130.222 62.0733 130.144 62.0767 130.065 62.0767Z" fill="#27160F"/>
<path d="M119.573 62.1646C119.527 62.1646 119.481 62.1621 119.437 62.1568C118.679 62.0665 117.992 61.6646 117.47 61.1203C116.383 59.9876 116.027 58.2353 117.684 57.4673C117.717 57.4518 117.749 57.445 117.78 57.445C117.964 57.445 118.086 57.6933 117.924 57.8368C117.068 58.5903 117.622 59.6935 118.4 60.2707C118.855 60.6068 119.217 60.7527 119.624 60.7527C119.865 60.7527 120.123 60.701 120.424 60.6078C120.449 60.6001 120.473 60.5967 120.497 60.5967C120.648 60.5967 120.77 60.7406 120.808 60.8768C121.011 61.6076 120.246 62.1646 119.573 62.1646Z" fill="#27160F"/>
<path d="M109.751 58.4189C108.917 58.4189 108.137 57.708 107.946 56.8506C107.701 55.745 108.155 54.6742 109.173 54.1549C109.216 54.1327 109.258 54.123 109.297 54.123C109.515 54.123 109.644 54.4312 109.464 54.6056C108.98 55.0784 108.682 55.8696 108.993 56.5173C109.285 57.1283 109.728 57.18 110.353 57.195C110.932 57.2056 110.931 57.9485 110.531 58.1939C110.276 58.3494 110.011 58.4189 109.751 58.4189Z" fill="#27160F"/>
<path d="M113.276 46.1714C112.854 46.1714 112.401 46.0105 112.082 45.8115C111.521 45.4618 111.178 44.8702 111.131 44.2157C111.028 42.8309 112.038 41.8306 113.3 41.4857C113.323 41.4794 113.344 41.477 113.364 41.477C113.582 41.477 113.646 41.819 113.442 41.9276C112.737 42.3005 112.037 43.2999 112.259 44.1389C112.504 45.0619 113.661 44.7209 114.164 45.3537C114.255 45.4691 114.264 45.6207 114.182 45.7429C113.971 46.0545 113.635 46.1714 113.276 46.1714Z" fill="#27160F"/>
<path d="M139.738 47.5981C139.451 47.5981 139.179 47.4054 139.251 47.0465C139.429 46.1578 139.117 45.3642 138.377 44.8416C138.376 44.8416 138.376 44.8411 138.375 44.8406C138.485 44.7252 138.59 44.6035 138.686 44.476C138.928 45.4743 139.529 46.3336 140.346 46.9089C140.337 46.9891 140.324 47.0688 140.308 47.148C140.247 47.4542 139.987 47.5981 139.738 47.5981Z" fill="#27160F"/>
<path d="M136.505 45.4561C136.458 45.4561 136.411 45.4184 136.409 45.3595C136.391 44.39 137.052 43.7544 137.895 43.7544C138.117 43.7544 138.351 43.7984 138.589 43.8916C138.608 44.0911 138.641 44.2862 138.686 44.476C138.59 44.6035 138.486 44.7253 138.375 44.8407C138.104 44.6489 137.841 44.5567 137.601 44.5567C137.169 44.5567 136.806 44.8528 136.583 45.3991C136.567 45.4392 136.536 45.4561 136.505 45.4561Z" fill="#27160F"/>
<path d="M140.346 46.9087C139.529 46.3334 138.928 45.4741 138.686 44.4758C138.641 44.2859 138.608 44.0908 138.589 43.8913C138.596 43.8942 138.603 43.8971 138.611 43.9C139.807 44.3816 140.487 45.662 140.346 46.9087Z" fill="#27160F"/>
<path d="M155.03 66.2983C154.822 66.2983 154.593 66.1742 154.519 65.9776C154.363 65.5613 154.39 65.2835 154.562 64.8686C154.609 64.7546 154.722 64.6817 154.839 64.6817C154.894 64.6817 154.949 64.6976 154.999 64.7334C155.168 64.8566 155.25 64.9488 155.31 65.0507C156.245 64.5808 156.127 63.4138 155.664 62.4908C155.107 61.3798 154.17 60.3863 152.879 60.2259C152.599 60.1897 152.572 59.7733 152.859 59.7246C153.005 59.7004 153.15 59.6888 153.293 59.6888C156.507 59.6888 159.039 65.5149 155.124 66.2896C155.094 66.2954 155.063 66.2983 155.03 66.2983Z" fill="#27160F"/>
<path d="M158.53 70.186C158.448 69.9861 158.381 69.7789 158.33 69.5649C158.377 69.5345 158.43 69.5209 158.483 69.5209C158.692 69.5209 158.894 69.732 158.722 69.93C158.649 70.0131 158.584 70.0986 158.53 70.186Z" fill="#27160F"/>
<path d="M139.565 63.1025C139.029 63.1025 138.505 62.8403 138.114 62.463C137.271 61.6458 136.146 59.4133 137.299 58.4347C137.347 58.3946 137.404 58.3763 137.459 58.3763C137.577 58.3763 137.691 58.4569 137.714 58.583C137.902 59.6249 137.972 60.6112 138.778 61.4115C138.942 61.5743 139.246 61.8583 139.523 61.8583C139.581 61.8583 139.638 61.8462 139.692 61.8172C140.148 61.5743 140.296 61.0024 140.788 60.8111C140.837 60.7918 140.889 60.7817 140.941 60.7817C141.071 60.7817 141.196 60.8454 141.253 60.9773C141.602 61.7612 140.863 62.7171 140.137 62.9963C139.949 63.0692 139.756 63.1025 139.565 63.1025Z" fill="#27160F"/>
<path d="M130.338 46.481C129.858 46.481 129.159 46.238 129.53 45.7101C129.833 45.2797 130.518 45.555 130.681 44.9831C130.696 44.931 130.707 44.8759 130.716 44.8189C131.081 44.6112 131.412 44.3504 131.697 44.0471C131.979 45.0677 131.721 46.1511 130.586 46.4534C130.518 46.4713 130.432 46.481 130.338 46.481Z" fill="#27160F"/>
<path d="M130.716 44.8198C130.851 43.9002 130.154 42.4806 129.143 42.4806C129.098 42.4806 129.053 42.4835 129.007 42.4893C129 42.4903 128.992 42.4903 128.984 42.4903C128.787 42.4903 128.673 42.1869 128.887 42.114C129.09 42.0449 129.288 42.0135 129.48 42.0135C130.248 42.0135 130.91 42.5236 131.328 43.2017C131.42 43.4954 131.544 43.7751 131.694 44.0369C131.695 44.0407 131.696 44.0441 131.697 44.048C131.412 44.3513 131.081 44.6121 130.716 44.8198Z" fill="#27160F"/>
<path d="M131.695 44.0361C131.544 43.7743 131.42 43.4947 131.328 43.201C131.489 43.4609 131.614 43.7458 131.695 44.0361Z" fill="#27160F"/>
<path d="M149.889 51.4585C149.597 51.3479 149.323 51.1948 149.073 51.0078C149.332 51.0576 149.599 51.0832 149.872 51.0832C149.872 51.2097 149.878 51.3348 149.889 51.4585Z" fill="#27160F"/>
<path d="M149.873 51.083C149.6 51.083 149.332 51.0574 149.074 51.0077C148.663 50.6995 148.322 50.2996 148.089 49.8446C147.261 48.2241 147.881 46.4273 149.778 46.1138C149.793 46.1114 149.807 46.1104 149.82 46.1104C150.041 46.1104 150.1 46.4094 149.909 46.5234C148.811 47.1759 148.329 48.424 149.146 49.5272C149.355 49.8088 149.625 50.1054 149.948 50.2904C149.898 50.5474 149.873 50.812 149.873 51.083Z" fill="#27160F"/>
<path d="M150.743 51.6157C150.462 51.6157 150.18 51.5631 149.942 51.4785C149.924 51.4718 149.907 51.4655 149.889 51.4587C149.878 51.3351 149.873 51.21 149.873 51.0834C149.873 50.8125 149.898 50.5478 149.948 50.2908C150.11 50.384 150.285 50.4483 150.472 50.4691C150.544 50.4773 150.615 50.4806 150.686 50.4806C150.811 50.4806 150.934 50.4705 151.057 50.4599C151.178 50.4497 151.3 50.4396 151.424 50.4396C151.56 50.4396 151.698 50.4521 151.841 50.4908C151.996 50.5304 152.044 50.7106 152.005 50.8439C151.842 51.4104 151.297 51.6157 150.743 51.6157Z" fill="#27160F"/>
<path fill-rule="evenodd" clip-rule="evenodd" d="M124.503 124.26C142.5 124.584 157.994 114.464 163.226 100.102C163.948 100.286 164.703 100.384 165.479 100.384C170.641 100.384 174.826 96.075 174.826 90.7596C174.826 85.7296 171.079 81.6008 166.302 81.172L166.595 80.3152C166.775 78.7073 166.768 77.0894 166.576 75.4934C167.308 74.945 167.781 74.0729 167.781 73.0902C167.781 71.9436 167.136 70.9466 166.188 70.4393C166.461 69.8854 166.614 69.2626 166.614 68.6041C166.614 66.992 165.697 65.5928 164.354 64.8956C165.191 64.1318 165.716 63.034 165.716 61.8138C165.716 59.517 163.855 57.6519 161.552 57.6349C161.45 57.3824 161.337 57.122 161.211 56.8536C161.41 56.3674 161.52 55.8355 161.52 55.2782C161.52 53.2923 160.129 51.6317 158.265 51.2059C158.266 51.1655 158.267 51.125 158.267 51.0843C158.267 48.7766 156.388 46.9055 154.07 46.9053V46.9042C154.07 44.5958 152.191 42.7247 149.873 42.7247C148.733 42.7247 147.7 43.1768 146.944 43.9107C146.957 43.7739 146.964 43.6353 146.964 43.495C146.964 41.1871 145.085 39.3155 142.767 39.3155C141.399 39.3155 140.184 39.9672 139.418 40.9756C138.975 39.1406 137.315 37.7773 135.337 37.7773C134.128 37.7773 133.038 38.2861 132.272 39.1003C131.547 37.8502 130.19 37.0088 128.636 37.0088C127.048 37.0088 125.665 37.8878 124.952 39.1839L124.785 39.1909C124.701 39.036 124.606 38.8871 124.503 38.7449V124.26Z" fill="#7D5436" fill-opacity="0.15"/>
<path d="M105.66 121.739H109.016C109.016 121.739 106.671 134.915 124.446 136.221C124.446 136.221 140.138 135.959 139.877 121.739H143.231C143.231 121.739 146.139 138.961 124.724 139.281C124.724 139.281 105.282 140.72 105.66 121.739Z" fill="#365A55"/>
</svg>
