<svg width="41" height="37" viewBox="0 0 41 37" fill="none" xmlns="http://www.w3.org/2000/svg">
<path d="M0.00938735 20.918C0.00938735 16.3922 0.00938735 11.8668 0.00938735 7.3419C0.00938735 5.43184 0.411704 4.97235 2.07998 4.95883C2.44673 4.93429 2.81453 4.9368 3.18099 4.96634C3.94002 5.07446 4.23908 4.78915 4.18141 3.88517C3.96818 0.535063 4.18141 -0.0190332 7.80226 0.000487806C12.4034 0.035025 16.605 1.22581 19.8959 5.10599C20.3452 5.63606 20.5463 5.52795 20.9486 5.06395C24.7827 0.634171 29.6494 -0.254788 34.8487 0.0635555C36.0355 0.135633 36.7074 0.842897 36.6538 2.25142C36.647 2.45714 36.6538 2.66286 36.6538 2.86858C36.6538 4.95583 36.6538 4.95583 38.5192 4.96033C40.4825 4.96033 40.8472 5.36577 40.8472 7.55363C40.8472 16.5533 40.8472 25.553 40.8472 34.5527C40.8472 36.7931 40.1244 37.3878 38.2 36.7676C33.104 35.1158 27.9409 34.365 22.7913 36.2255C21.0814 36.8442 19.6733 36.8142 17.9849 36.2105C12.9224 34.3981 7.84652 35.1188 2.83097 36.6895C0.603475 37.3878 0.00134106 36.9193 0 34.341C0.00536422 29.8672 0.00849332 25.3929 0.00938735 20.918ZM21.8686 30.6185C24.6205 28.2549 27.501 27.1377 30.6619 26.7638C31.6382 26.6497 33.0356 27.1422 33.5009 26.3134C33.981 25.4619 33.6484 24.0279 33.6498 22.8491C33.6498 16.7766 33.6592 10.7055 33.6377 4.63298C33.6377 4.17048 33.9783 3.37913 33.0932 3.37913C28.8998 3.37913 25.0831 4.41074 22.3648 8.38703C22.04 8.8182 21.861 9.3636 21.8592 9.92769C21.8807 16.7135 21.874 23.5008 21.874 30.6185H21.8686ZM18.8164 30.4969C18.8701 30.2549 18.9086 30.009 18.9317 29.7611C18.9317 23.1855 18.9317 16.6099 18.9464 10.0358C18.9545 9.41961 18.7694 8.81973 18.4234 8.34048C15.6944 4.38822 11.8844 3.37462 7.69498 3.37613C6.99093 3.37613 7.21086 3.97677 7.20952 4.3762C7.19879 11.4653 7.21622 18.5545 7.18404 25.6421C7.18404 26.495 7.45225 26.6137 8.12278 26.6407C9.35528 26.6967 10.5837 26.8356 11.8013 27.0567C14.3614 27.5071 16.6666 28.6619 18.8217 30.4969H18.8164ZM14.5692 31.8018C14.4794 31.6156 14.4593 31.5014 14.4016 31.4684C14.199 31.3525 13.9908 31.2492 13.778 31.1591C11.4298 30.123 8.9824 29.8827 6.48803 30.0239C4.50193 30.138 4.16934 29.7836 4.168 27.5177C4.168 21.4501 4.16532 15.3821 4.15996 9.31353C4.15996 8.92161 4.38123 8.35549 3.65706 8.33447C3.05761 8.31795 3.00262 8.64531 3.00262 9.17838C3.01157 16.8927 3.01157 24.6065 3.00262 32.3198C3.00262 33.1457 3.28291 33.0391 3.83676 32.9115C5.31192 32.5736 6.81525 32.3769 8.29846 32.0691C10.3623 31.6411 12.453 31.9414 14.5746 31.8018H14.5692ZM37.7481 33.0902C37.7722 32.6772 37.8111 32.3288 37.8111 31.9805C37.8111 24.5234 37.8057 17.0654 37.795 9.60634C37.795 9.17238 38.1973 8.40505 37.2948 8.34949C36.2809 8.29393 36.6725 9.16036 36.6712 9.64689C36.6457 15.7149 36.6618 21.783 36.6497 27.8495C36.6497 29.6289 36.1482 30.1305 34.5697 30.0359C32.9162 29.9368 31.264 29.9458 29.6387 30.3257C28.3526 30.626 27.0491 30.9263 25.6812 31.988C29.9619 31.533 33.8442 32.0525 37.7481 33.0902Z" fill="#4D4D4D"/>
<path d="M21.8739 30.6183C21.8739 23.5007 21.8807 16.7134 21.8619 9.92759C21.8661 9.3643 22.0469 8.82058 22.3728 8.39143C25.0885 4.41516 28.9051 3.38655 33.1013 3.38354C33.9864 3.38354 33.6444 4.1749 33.6457 4.63739C33.6672 10.7099 33.6618 16.781 33.6578 22.8535C33.6578 24.0323 33.989 25.4663 33.509 26.3177C33.0436 27.1421 31.6462 26.6496 30.6699 26.7682C27.5037 27.1376 24.6258 28.2548 21.8739 30.6183Z" fill="#FAF9F9"/>
<path d="M18.8218 30.4968C16.6667 28.6618 14.3614 27.5071 11.8094 27.0566C10.5918 26.8356 9.36339 26.6967 8.13088 26.6406C7.46036 26.6136 7.19214 26.4905 7.19214 25.6421C7.22433 18.5544 7.2069 11.4652 7.21763 4.37606C7.21763 3.97963 6.99903 3.37598 7.70309 3.37598C11.8899 3.37598 15.6998 4.38807 18.4315 8.34035C18.7775 8.8196 18.9626 9.41948 18.9545 10.0357C18.9384 16.6098 18.9451 23.1854 18.9398 29.761C18.9158 30.0091 18.8764 30.255 18.8218 30.4968Z" fill="#F9F9F8"/>
<path d="M14.5746 31.8019C12.453 31.9415 10.3623 31.6412 8.29977 32.0692C6.81656 32.377 5.31457 32.5737 3.83806 32.9116C3.28421 33.0392 3.00124 33.1458 3.00393 32.3199C3.02091 24.6056 3.02091 16.8918 3.00393 9.17849C3.00393 8.64542 3.05891 8.31806 3.65836 8.33458C4.38253 8.3556 4.15992 8.92171 4.16126 9.31364C4.17199 15.3812 4.17467 21.4492 4.16931 27.5178C4.16931 29.7837 4.50323 30.1381 6.48934 30.024C8.98371 29.8828 11.4311 30.1231 13.7793 31.1592C13.9921 31.2493 14.2003 31.3526 14.4029 31.4685C14.4646 31.5015 14.4834 31.6157 14.5746 31.8019Z" fill="#F7F6F6"/>
<path d="M37.748 33.0903C33.8442 32.0602 29.9619 31.5406 25.6785 31.9941C27.0464 30.9264 28.3499 30.6321 29.636 30.3318C31.2613 29.9519 32.9135 29.9429 34.567 30.042C36.1455 30.1366 36.6443 29.635 36.647 27.8556C36.6591 21.7891 36.647 15.721 36.6685 9.65297C36.6685 9.16644 36.2782 8.30151 37.2921 8.35557C38.1919 8.40512 37.7909 9.17846 37.7923 9.61242C37.8182 17.0675 37.8236 24.5255 37.8084 31.9866C37.8178 32.3214 37.7722 32.6698 37.748 33.0903Z" fill="#F7F6F6"/>
<path d="M23.5758 14.1368C23.3136 14.1357 23.0531 14.0896 22.8033 14.0001C22.6558 13.9476 22.5096 13.889 22.3675 13.8319L22.2052 13.7674C22.1119 13.7495 22.0243 13.7052 21.9506 13.6387C21.8769 13.5722 21.8196 13.4857 21.7841 13.3875C21.7748 13.3668 21.7645 13.3468 21.7533 13.3274V13.3154L21.7466 13.3019C21.7144 13.2268 21.6795 13.1517 21.646 13.0781C21.359 12.4459 21.0318 11.7267 21.2598 10.8407C21.5749 9.60935 22.5016 8.78345 23.5677 8.78345C23.7819 8.78339 23.995 8.81726 24.2007 8.88406C24.5117 8.9795 24.8024 9.14374 25.0558 9.3671C25.3092 9.59045 25.52 9.86838 25.6758 10.1845C25.8246 10.4831 25.9188 10.8119 25.9529 11.1517C25.9869 11.4915 25.9602 11.8355 25.8743 12.1636C25.5538 13.3619 24.6553 14.1368 23.5758 14.1368Z" fill="#4D4D4D"/>
<path d="M23.5624 9.08379C23.7516 9.08404 23.9398 9.11386 24.1216 9.17238C24.6158 9.32367 25.0443 9.67018 25.328 10.1479C25.6117 10.6255 25.7313 11.2021 25.6647 11.7709C25.5982 12.3396 25.3499 12.8622 24.9659 13.2419C24.5819 13.6216 24.0881 13.8328 23.5758 13.8364C23.3409 13.8352 23.1075 13.7937 22.8838 13.7133C22.6746 13.6397 22.4694 13.5526 22.2629 13.4715C22.0899 13.4625 22.0524 13.2958 21.9826 13.1712C21.6688 12.4639 21.2907 11.7942 21.5119 10.9188C21.7962 9.81057 22.6331 9.07929 23.5624 9.07929V9.08379ZM23.5624 8.47864C22.3756 8.47864 21.3443 9.39312 20.997 10.7536C20.7408 11.7567 21.0922 12.5285 21.3993 13.2102C21.4328 13.2838 21.4663 13.3604 21.4985 13.431L21.5106 13.4565L21.5227 13.4805C21.5306 13.4945 21.5378 13.5091 21.5441 13.5241C21.5974 13.6601 21.6795 13.7796 21.7832 13.8722C21.887 13.9648 22.0092 14.0277 22.1395 14.0557L22.2737 14.1097C22.4171 14.1683 22.566 14.2283 22.7189 14.2824C22.9947 14.3809 23.2823 14.4315 23.5718 14.4326C24.1517 14.429 24.7147 14.2132 25.1747 13.8178C25.6348 13.4225 25.9667 12.8695 26.1198 12.2432C26.2158 11.8773 26.2456 11.4936 26.2076 11.1146C26.1696 10.7355 26.0646 10.3688 25.8985 10.0358C25.7262 9.68714 25.4938 9.38019 25.2148 9.13275C24.9358 8.88531 24.6158 8.70228 24.2732 8.59426C24.0433 8.52091 23.8055 8.48352 23.5664 8.48314L23.5624 8.47864Z" fill="white"/>
<path d="M16.963 19.759C16.6369 19.7601 16.3141 19.6863 16.0145 19.542C15.7149 19.3978 15.4449 19.1863 15.2213 18.9205C14.9977 18.6548 14.8251 18.3404 14.7143 17.997C14.6036 17.6536 14.5569 17.2883 14.5773 16.9239C14.6132 16.2519 14.8751 15.6201 15.3103 15.1556C15.7455 14.6912 16.3216 14.4286 16.9228 14.4207C17.0151 14.4204 17.1074 14.427 17.199 14.4402C17.5347 14.4797 17.8592 14.5974 18.1518 14.7856C18.4444 14.9739 18.6986 15.2286 18.8981 15.5334C19.0881 15.8323 19.2201 16.1724 19.2857 16.5319C19.3513 16.8914 19.349 17.2622 19.279 17.6206C19.2457 17.796 19.2045 17.9694 19.1556 18.1402C19.1368 18.2138 19.1167 18.2904 19.0993 18.3594L19.0913 18.397C19.0688 18.546 18.9969 18.68 18.8901 18.7724C18.4194 19.2229 17.832 19.759 16.9885 19.759H16.963Z" fill="#4D4D4D"/>
<path d="M16.9228 14.7209C17.0039 14.7212 17.0849 14.7267 17.1655 14.7374C18.4516 14.9146 19.271 16.161 19.0162 17.562C18.9719 17.8037 18.8995 18.0395 18.8405 18.2797C18.8177 18.3728 18.811 18.4734 18.7278 18.5335C18.2196 19.011 17.71 19.4585 16.9845 19.4585H16.9617C16.4089 19.4505 15.8809 19.2007 15.4905 18.7624C15.1002 18.3241 14.8785 17.7321 14.8729 17.1132C14.8673 16.4942 15.0782 15.8974 15.4605 15.4503C15.8429 15.0033 16.3663 14.7415 16.9188 14.7209H16.9228ZM16.9188 14.1203C16.2254 14.1422 15.5672 14.4674 15.0854 15.0262C14.6036 15.585 14.3364 16.3328 14.3411 17.1096C14.3459 17.8863 14.6221 18.63 15.1107 19.1813C15.5993 19.7327 16.2614 20.0478 16.955 20.0591H16.9845C17.9232 20.0591 18.5723 19.4585 19.051 19.008C19.2062 18.8738 19.3117 18.6803 19.3474 18.4644C19.3474 18.4554 19.3474 18.4449 19.3541 18.4359C19.3716 18.3668 19.3903 18.2948 19.4091 18.2242C19.456 18.05 19.503 17.8713 19.5432 17.6791C19.6206 17.28 19.6226 16.8672 19.5492 16.4671C19.4757 16.0671 19.3284 15.6887 19.1168 15.3561C18.8956 15.0177 18.6138 14.7347 18.2893 14.5252C17.9649 14.3158 17.6049 14.1845 17.2326 14.1398C17.1302 14.1261 17.0272 14.119 16.9241 14.1188L16.9188 14.1203Z" fill="white"/>
<path d="M26.4671 19.7632C26.1072 19.7602 25.7526 19.6656 25.4302 19.4866C25.1077 19.3076 24.8258 19.0489 24.6057 18.7301C24.4143 18.4945 24.2795 18.2082 24.2141 17.8982C24.182 17.8671 24.1544 17.8306 24.1323 17.7901L24.0934 17.7165V17.6324C24.0934 15.874 24.6835 14.8529 25.8757 14.5121C26.0785 14.453 26.2871 14.4232 26.4966 14.4235C27.0164 14.4273 27.5207 14.6215 27.9327 14.9763C28.3447 15.3311 28.6417 15.8271 28.7785 16.3886C28.9153 16.95 28.8842 17.5462 28.6901 18.0861C28.4961 18.626 28.1496 19.08 27.7036 19.3788C27.3291 19.6272 26.9024 19.7598 26.4671 19.7632Z" fill="#4D4D4D"/>
<path d="M26.4966 14.7239C26.9582 14.7266 27.4064 14.8984 27.7726 15.2132C28.1388 15.5279 28.4028 15.9683 28.5245 16.4669C28.6461 16.9656 28.6186 17.4951 28.4461 17.9746C28.2737 18.4541 27.9658 18.8572 27.5694 19.1223C27.2359 19.3431 26.8559 19.4608 26.4684 19.4631C26.1489 19.4609 25.8341 19.3769 25.548 19.2176C25.2619 19.0583 25.0121 18.828 24.8176 18.5441C24.6511 18.342 24.5338 18.0953 24.4769 17.8278C24.5074 17.7729 24.5493 17.7271 24.599 17.6942C24.7398 17.6182 24.8923 17.5729 25.0482 17.5605C25.0697 17.5455 25.0804 17.538 25.0764 17.538L25.0389 17.5515C25.0198 17.5599 25 17.566 24.9798 17.5695C24.817 17.5861 24.6572 17.6285 24.5051 17.6957C24.4913 17.6976 24.4773 17.6976 24.4635 17.6957C24.4428 17.6952 24.4226 17.6886 24.4049 17.6764C24.3872 17.6643 24.3727 17.6471 24.363 17.6266C24.363 16.0168 24.882 15.0993 25.9427 14.7945C26.1242 14.743 26.3107 14.7168 26.4979 14.7164L26.4966 14.7239ZM26.4979 14.1157C26.2659 14.1162 26.0348 14.149 25.81 14.2133C24.5011 14.5872 23.8332 15.7345 23.8265 17.6236V17.7933L23.9057 17.9435C23.9244 17.9783 23.9454 18.0114 23.9687 18.0426C24.053 18.365 24.1995 18.6628 24.3978 18.915C24.6427 19.2694 24.9565 19.5566 25.3152 19.7551C25.6739 19.9537 26.0683 20.0582 26.4684 20.0608C26.9511 20.058 27.4245 19.9119 27.8403 19.6373C28.338 19.3057 28.7249 18.8006 28.9419 18.1994C29.1589 17.5982 29.1941 16.9339 29.042 16.3082C28.8899 15.6825 28.5589 15.1298 28.0997 14.7346C27.6405 14.3395 27.0784 14.1237 26.4993 14.1202L26.4979 14.1157Z" fill="white"/>
<path d="M20.2393 22.4556C20.1468 22.4623 20.0542 22.4458 19.9681 22.4073C19.882 22.3689 19.8047 22.3095 19.7417 22.2334C19.5808 22.0186 19.6197 21.7363 19.6425 21.5666C19.7484 20.7978 19.6425 20.1927 19.3113 19.6656C19.2755 19.6199 19.249 19.5661 19.2334 19.5079C19.2179 19.4497 19.2136 19.3884 19.221 19.3282C19.2284 19.268 19.2472 19.2103 19.2762 19.1589C19.3052 19.1075 19.3436 19.0637 19.389 19.0304L19.4454 18.9749H19.5218H19.5661C19.6782 18.9733 19.7874 19.0158 19.8745 19.095C20.1615 17.2765 20.651 15.0542 21.752 13.018L21.8418 12.8513L22.0148 12.8753C22.1431 12.8867 22.2641 12.9467 22.3578 13.0456C22.4514 13.1444 22.5121 13.2762 22.5298 13.4189L22.5459 13.5225L22.5003 13.6156C21.999 14.6415 21.6005 15.7262 21.3121 16.8501C21.0962 17.691 20.9446 18.5694 20.7945 19.4914C21.5106 18.7406 22.1958 18.0424 23.1829 17.7916C23.236 17.7688 23.2923 17.7566 23.3491 17.7556C23.3974 17.7547 23.4452 17.7657 23.4892 17.7877C23.5332 17.8098 23.5724 17.8424 23.6039 17.8832C23.6414 17.9389 23.6678 18.003 23.6812 18.0712C23.6946 18.1393 23.6948 18.2099 23.6817 18.2781L23.6603 18.4463L23.5195 18.5109C22.4234 19.0066 21.5184 19.919 20.9634 21.0876C20.8782 21.2406 20.8462 21.4234 20.8736 21.6012C20.9019 21.708 20.9087 21.8206 20.8934 21.9307C20.8781 22.0408 20.8411 22.1457 20.7851 22.2379C20.7195 22.3136 20.6399 22.3724 20.5518 22.41C20.4638 22.4476 20.3695 22.4632 20.2755 22.4556H20.2393Z" fill="#4D4D4D"/>
<path d="M21.9826 13.1697C22.0537 13.174 22.121 13.2067 22.1724 13.2617C22.2238 13.3168 22.2559 13.3907 22.2629 13.47C21.7527 14.5179 21.3479 15.6258 21.0559 16.7736C20.7716 17.8893 20.6013 19.026 20.3854 20.3189C21.3241 19.4059 22.0738 18.3788 23.2593 18.086C23.2867 18.0719 23.3163 18.0638 23.3464 18.062C23.4162 18.062 23.4283 18.1341 23.4135 18.2407C22.2617 18.7612 21.3116 19.7214 20.7314 20.9511C20.6158 21.1654 20.5743 21.4197 20.6147 21.6659C20.671 21.9857 20.6147 22.1614 20.2794 22.1614H20.2499C19.8651 22.1509 19.8718 21.9091 19.912 21.6178C20.0166 20.855 19.9388 20.1357 19.5298 19.49C19.5157 19.4762 19.5048 19.4587 19.4981 19.4391C19.4914 19.4195 19.489 19.3983 19.4913 19.3774C19.4935 19.3566 19.5003 19.3366 19.511 19.3194C19.5217 19.3021 19.5359 19.288 19.5526 19.2783H19.5754C19.8262 19.2783 19.8275 19.6507 20.0649 19.7108C20.3948 17.4118 20.903 15.1879 21.9866 13.1772L21.9826 13.1697ZM21.7063 12.533L21.5266 12.8664C20.4806 14.8095 19.9777 16.9118 19.6787 18.6852C19.6443 18.6828 19.6098 18.6828 19.5754 18.6852H19.511L19.3568 18.6987L19.2334 18.8023C19.1602 18.859 19.0983 18.9321 19.0515 19.0169C19.0046 19.1017 18.974 19.1964 18.9614 19.2951C18.9488 19.3938 18.9546 19.4943 18.9783 19.5904C19.002 19.6865 19.0432 19.776 19.0993 19.8534C19.3863 20.3039 19.4762 20.846 19.3823 21.5307C19.3555 21.7214 19.3018 22.1164 19.5392 22.4317C19.6268 22.5404 19.7347 22.6262 19.8552 22.6831C19.9757 22.7399 20.1059 22.7663 20.2365 22.7606H20.2768C20.4108 22.7712 20.5451 22.7472 20.6695 22.6904C20.7939 22.6336 20.905 22.5456 20.9942 22.4332C21.237 22.1013 21.1619 21.6824 21.1377 21.5473C21.1216 21.4379 21.1442 21.3258 21.2008 21.2349C21.7221 20.123 22.5817 19.2568 23.624 18.7933L23.9043 18.6626L23.9486 18.3263C23.9698 18.2159 23.9687 18.1016 23.9455 17.9917C23.9223 17.8819 23.8776 17.7792 23.8145 17.6911C23.7574 17.6179 23.6868 17.5593 23.6077 17.5194C23.5285 17.4795 23.4426 17.4592 23.3558 17.4598C23.2735 17.4601 23.1918 17.4764 23.1144 17.5079C22.3527 17.7061 21.7546 18.1596 21.2115 18.6762C21.3174 18.0755 21.4314 17.5034 21.5763 16.9373C21.8596 15.8347 22.2508 14.7706 22.743 13.7644L22.8328 13.5782L22.7993 13.3709C22.7735 13.1643 22.686 12.9736 22.5511 12.8296C22.4163 12.6857 22.2419 12.5971 22.0563 12.5781L21.7117 12.53L21.7063 12.533Z" fill="white"/>
<path d="M19.377 19.7332C19.2015 19.5889 19.0523 19.4085 18.9371 19.2017C18.8532 19.0397 18.7377 18.9011 18.5991 18.7963L18.3738 18.6581L18.8016 17.6912L19.0605 18.1086C19.1337 18.2086 19.218 18.2979 19.3112 18.3744C19.5151 18.5651 19.7699 18.8008 19.8168 19.2317V19.2678L19.7391 20.002L19.377 19.7332Z" fill="#4D4D4D"/>
<path d="M18.8405 18.2798C19.0564 18.6282 19.4936 18.7783 19.5486 19.2724L19.5258 19.4841C19.1945 19.2363 19.0859 18.7528 18.7212 18.5336L18.8338 18.2798H18.8405ZM18.756 17.101L18.3537 18.0125L18.241 18.2678L18.0144 18.7843L18.465 19.0606C18.5652 19.1461 18.6495 19.2527 18.7131 19.3745C18.8468 19.6096 19.0198 19.8136 19.2227 19.9751L19.9482 20.5202L20.0528 19.5487L20.0649 19.442L20.0756 19.3354L20.0837 19.2633L20.0756 19.1913C20.0153 18.6417 19.6894 18.3399 19.4748 18.1401C19.4012 18.0783 19.3342 18.0073 19.275 17.9284L18.7574 17.0935L18.756 17.101Z" fill="white"/>
<path d="M22.8315 18.055L23.0997 17.8362C23.3109 17.6411 23.573 17.528 23.8467 17.5139C23.901 17.5144 23.9553 17.5195 24.009 17.5289L24.0599 17.5394L24.1042 17.5694C24.1472 17.595 24.1846 17.631 24.2136 17.6748C24.2426 17.7187 24.2625 17.7692 24.2718 17.8227C24.279 17.8688 24.2775 17.9162 24.2674 17.9616C24.2572 18.0071 24.2386 18.0496 24.2128 18.0865C24.1892 18.1197 24.1612 18.1485 24.1296 18.172C23.9897 18.3348 23.807 18.4435 23.608 18.4822C23.5691 18.4942 23.5316 18.5047 23.494 18.5182L23.3478 18.5707L22.8315 18.055Z" fill="#4D4D4D"/>
<path d="M23.8493 17.8143C23.8888 17.8146 23.9283 17.8186 23.9673 17.8263C24.0089 17.8533 24.0209 17.8788 24.0048 17.8999C23.9999 17.9087 23.9933 17.9161 23.9853 17.9216C23.9774 17.9271 23.9685 17.9304 23.9592 17.9314C23.8251 18.1476 23.6092 18.1641 23.4134 18.2317L23.2592 18.0816C23.4253 17.9243 23.6322 17.8311 23.8493 17.8158V17.8143ZM23.8493 17.2151C23.5189 17.2294 23.2015 17.3626 22.9441 17.595L22.4077 18.035L22.9079 18.5306L23.0621 18.6807L23.2914 18.9075L23.5824 18.8024C23.6159 18.7903 23.6495 18.7813 23.6817 18.7723C23.9223 18.7195 24.1436 18.5878 24.3173 18.3939C24.3586 18.3579 24.3959 18.3165 24.4286 18.2708C24.4774 18.2013 24.5126 18.1212 24.532 18.0356C24.5514 17.95 24.5545 17.8608 24.5413 17.7737C24.5258 17.6779 24.4915 17.5872 24.4409 17.508C24.3904 17.4288 24.3248 17.3631 24.2489 17.3157L24.1604 17.2556L24.0598 17.2361C23.9911 17.2237 23.9216 17.2172 23.852 17.2166L23.8493 17.2151Z" fill="white"/>
<path d="M23.6964 17.8518L23.6468 17.6541L24.3173 17.3246L24.4515 17.3456C24.4886 17.3316 24.5276 17.3245 24.5668 17.3246C24.6131 17.324 24.6589 17.335 24.7009 17.3567C24.7429 17.3785 24.78 17.4105 24.8095 17.4504C24.8443 17.5048 24.8677 17.5672 24.8782 17.633C24.8886 17.6988 24.8858 17.7664 24.8699 17.8308L24.839 17.9956L24.5346 18.1169L23.4859 18.3266L23.6964 17.8518Z" fill="#4D4D4D"/>
<path d="M24.5762 17.6234C24.6285 17.6234 24.6311 17.685 24.6164 17.7735L24.4756 17.8291L23.9593 17.9327C23.9732 17.8999 23.9761 17.8626 23.9673 17.8276L24.3616 17.6354L24.4957 17.6534C24.5207 17.6385 24.548 17.6293 24.5762 17.6264V17.6234ZM24.2825 17.0228L24.1484 17.0889L23.7621 17.2781H23.7541L23.3276 17.4868L23.4121 17.8291L23.0312 18.73L24.0558 18.5258H24.0853L24.5708 18.4282L24.615 18.4192L24.6566 18.4027L24.7907 18.3501L25.0777 18.224L25.1381 17.8907C25.1635 17.7827 25.1663 17.6696 25.1463 17.5602C25.1263 17.4509 25.084 17.3481 25.0227 17.26C24.9679 17.1858 24.899 17.1262 24.8211 17.0854C24.7432 17.0447 24.6582 17.0238 24.5721 17.0243C24.5271 17.0239 24.4821 17.0289 24.438 17.0393H24.4219L24.2758 17.0183L24.2825 17.0228Z" fill="white"/>
<path d="M24.9772 17.863L24.9651 17.8555C24.9077 17.8241 24.8577 17.7778 24.8195 17.7205C24.7812 17.6632 24.7558 17.5965 24.7452 17.526L24.7224 17.3583L24.8377 17.2504C24.9708 17.1198 25.1396 17.0433 25.3165 17.0332C25.3962 17.0301 25.475 17.0534 25.5428 17.1003C25.6106 17.1473 25.6644 17.2157 25.6973 17.2968C25.7263 17.3585 25.7408 17.4274 25.7396 17.497C25.7384 17.5666 25.7216 17.6348 25.6906 17.6952C25.5807 17.9064 25.3527 17.9259 25.2012 17.9379L25.0577 17.9514L24.9772 17.863Z" fill="#4D4D4D"/>
<path d="M25.3165 17.3337C25.3445 17.3311 25.3724 17.3384 25.3965 17.3546C25.4206 17.3707 25.4395 17.395 25.4506 17.4238C25.5311 17.6205 25.2977 17.631 25.1542 17.643C25.106 17.589 25.0201 17.577 25.0067 17.4809C25.0918 17.3956 25.1989 17.343 25.3125 17.3307L25.3165 17.3337ZM25.3125 16.73C25.0729 16.7413 24.8437 16.8429 24.6621 17.0183L24.4301 17.2361L24.4756 17.5695C24.4912 17.6812 24.5294 17.7874 24.5873 17.8801C24.6452 17.9727 24.7212 18.0494 24.8096 18.1041L24.9531 18.2648L25.1985 18.2422H25.2186C25.3876 18.2272 25.7376 18.1972 25.92 17.8503C25.9722 17.7477 26.0012 17.6323 26.0045 17.5143C26.0078 17.3962 25.9852 17.279 25.9388 17.173C25.8834 17.0402 25.795 16.9282 25.6841 16.8504C25.5732 16.7726 25.4446 16.7323 25.3138 16.7345L25.3125 16.73Z" fill="white"/>
<path d="M24.139 17.6972L24.2731 17.4785C24.3397 17.381 24.4272 17.3038 24.5275 17.2541C24.6278 17.2044 24.7377 17.1837 24.8471 17.1939C24.8843 17.1937 24.9215 17.1907 24.9584 17.1849L25.0925 17.158L25.6973 17.8185L24.5414 18.0956L24.139 17.6972Z" fill="#4D4D4D"/>
<path d="M25.0106 17.4808L25.1582 17.6429L24.6217 17.7721L24.501 17.652C24.6351 17.4447 24.8376 17.5168 25.016 17.4808H25.0106ZM25.193 16.8351L24.9248 16.8891C24.9007 16.8911 24.8765 16.8911 24.8524 16.8891C24.7011 16.8795 24.55 16.9123 24.4128 16.9844C24.2757 17.0565 24.1566 17.1656 24.0665 17.3021L23.7889 17.7406L24.1497 18.0979L24.1966 18.1445L24.2704 18.2166L24.4715 18.4178L24.7397 18.3547L25.1126 18.2661L25.2815 18.2256L26.2618 17.9928L25.5457 17.209L25.3969 17.0468L25.1997 16.8306L25.193 16.8351Z" fill="white"/>
<path d="M21.9826 13.1697C21.6688 12.4624 21.2906 11.7927 21.5119 10.9172C21.8525 9.58977 22.987 8.80291 24.1216 9.16631C24.6608 9.35011 25.1127 9.76622 25.3779 10.3231C25.6431 10.88 25.6999 11.5321 25.5357 12.1358C25.3716 12.7396 25 13.2456 24.5026 13.5426C24.0053 13.8395 23.423 13.9031 22.8838 13.7193C22.6746 13.6457 22.4694 13.5586 22.2629 13.4775C22.0899 13.4625 22.0523 13.2958 21.9826 13.1697Z" fill="#4D4D4D"/>
<path d="M18.7278 18.5334C18.2142 19.0154 17.6992 19.4689 16.9657 19.4584C16.6787 19.4603 16.3943 19.3967 16.1299 19.2715C15.8656 19.1463 15.6268 18.9622 15.4281 18.7302C15.2293 18.4983 15.0749 18.2235 14.9741 17.9226C14.8734 17.6216 14.8284 17.3009 14.842 16.9798C14.8556 16.6588 14.9275 16.3443 15.0532 16.0553C15.1789 15.7664 15.3559 15.5092 15.5733 15.2994C15.7907 15.0895 16.044 14.9315 16.3177 14.8348C16.5915 14.7382 16.8799 14.705 17.1655 14.7373C18.4516 14.9145 19.271 16.1608 19.0162 17.5618C18.9719 17.8036 18.8995 18.0394 18.8405 18.2796C18.8177 18.3742 18.811 18.4733 18.7278 18.5334Z" fill="#4D4D4D"/>
<path d="M24.3616 17.634C24.3616 16.0243 24.8806 15.1067 25.9414 14.8019C26.3105 14.6923 26.6992 14.6966 27.0662 14.8145C27.4332 14.9325 27.7649 15.1595 28.0259 15.4716C28.2869 15.7836 28.4676 16.1691 28.5487 16.5869C28.6297 17.0047 28.6082 17.4393 28.4864 17.8445C28.3646 18.2497 28.147 18.6104 27.8567 18.8883C27.5665 19.1661 27.2144 19.3507 26.838 19.4224C26.4616 19.4942 26.0748 19.4504 25.7188 19.2957C25.3629 19.1411 25.0509 18.8813 24.8162 18.544C24.6497 18.3419 24.5324 18.0953 24.4756 17.8277C24.5061 17.7728 24.548 17.727 24.5977 17.6941C24.7385 17.6181 24.891 17.5728 25.0469 17.5605C25.0871 17.5334 25.0871 17.5304 25.0375 17.5514C25.0185 17.5598 24.9987 17.5659 24.9785 17.5695C24.8157 17.586 24.6559 17.6285 24.5038 17.6956C24.4775 17.7065 24.4485 17.7062 24.4223 17.6949C24.3962 17.6835 24.3746 17.6619 24.3616 17.634Z" fill="#4D4D4D"/>
<path d="M21.9826 13.1697C22.0537 13.174 22.121 13.2066 22.1725 13.2617C22.2239 13.3168 22.256 13.3907 22.2629 13.47C21.7528 14.5178 21.348 15.6258 21.056 16.7735C20.7717 17.8892 20.6013 19.0259 20.3854 20.3188C21.3242 19.4058 22.0738 18.3787 23.2593 18.0859C23.4055 18.0184 23.4323 18.1009 23.4135 18.2361C22.2617 18.7566 21.3116 19.7168 20.7314 20.9465C20.6158 21.1608 20.5743 21.415 20.6147 21.6613C20.6724 21.9901 20.6147 22.1673 20.2527 22.1568C19.8678 22.1463 19.8745 21.9045 19.9147 21.6132C20.0193 20.8504 19.9415 20.1311 19.5325 19.4854C19.5184 19.4716 19.5075 19.4541 19.5008 19.4345C19.4941 19.4148 19.4917 19.3937 19.494 19.3728C19.4962 19.352 19.503 19.332 19.5137 19.3148C19.5244 19.2975 19.5387 19.2834 19.5553 19.2737C19.8235 19.2497 19.8235 19.6431 20.0676 19.7047C20.3908 17.4042 20.8991 15.1803 21.9826 13.1697Z" fill="#4D4D4D"/>
<path d="M19.5486 19.2746L19.5258 19.4862C19.1946 19.2386 19.0859 18.7554 18.7212 18.5363L18.8338 18.2827C19.0564 18.6279 19.4936 18.7779 19.5486 19.2746Z" fill="#4D4D4D"/>
<path d="M23.4135 18.2344L23.2593 18.0843C23.4712 17.9132 23.6925 17.7841 23.9674 17.8306C24.0089 17.8576 24.021 17.8832 24.0049 17.9042C24 17.913 23.9933 17.9204 23.9854 17.9259C23.9775 17.9314 23.9686 17.9347 23.9593 17.9357C23.8292 18.1473 23.6093 18.1638 23.4135 18.2344Z" fill="#4D4D4D"/>
<path d="M23.9593 17.9293C23.9732 17.8968 23.9761 17.8597 23.9673 17.8249L24.3616 17.634L24.4957 17.6519C24.6231 17.5818 24.6378 17.6519 24.6164 17.7712L24.4756 17.8264L23.9593 17.9293Z" fill="#4D4D4D"/>
<path d="M25.0107 17.4799C25.1529 17.3471 25.3849 17.2561 25.4546 17.4232C25.5351 17.6186 25.3017 17.629 25.1583 17.6409C25.11 17.5872 25.0242 17.5753 25.0107 17.4799Z" fill="#4D4D4D"/>
<path d="M25.0107 17.481L25.1582 17.6423L24.6217 17.7708L24.501 17.6513C24.6271 17.4451 24.8323 17.5168 25.0107 17.481Z" fill="#4D4D4D"/>
<path d="M21.178 21.8745H18.9518V23.1952H21.178V21.8745Z" fill="#4D4D4D"/>
<path d="M20.9778 22.3429L21.6924 21.5427L21.2963 21.0991L20.5817 21.8993L20.9778 22.3429Z" fill="#4D4D4D"/>
<path d="M18.9484 20.9121L19.4706 22.2108L19.9144 21.987L19.3922 20.6883L18.9484 20.9121Z" fill="#4D4D4D"/>
</svg>
