<svg xmlns="http://www.w3.org/2000/svg" width="41" height="37" fill="none" xmlns:v="https://vecta.io/nano"><style><![CDATA[.B{fill:#4d4d4d}.C{fill:#fff}]]></style><path d="M.009 20.918V7.342c0-1.91.402-2.37 2.071-2.383a7.48 7.48 0 0 1 1.101.008c.759.108 1.058-.177 1-1.081C3.968.535 4.181-.019 7.802 0c4.601.035 8.803 1.225 12.094 5.106.449.53.65.422 1.053-.042 3.834-4.43 8.701-5.319 13.9-5 1.187.072 1.859.779 1.805 2.188-.007.206 0 .411 0 .617 0 2.087 0 2.087 1.865 2.092 1.963 0 2.328.405 2.328 2.593v26.999c0 2.24-.723 2.835-2.647 2.215-5.096-1.652-10.259-2.403-15.409-.542-1.71.619-3.118.589-4.806-.015-5.062-1.812-10.138-1.092-15.154.479-2.227.698-2.83.23-2.831-2.349l.009-13.423zm21.859 9.701a15.82 15.82 0 0 1 8.793-3.855c.976-.114 2.374.378 2.839-.45.48-.852.148-2.286.149-3.464l-.012-18.216c0-.462.341-1.254-.544-1.254-4.193 0-8.01 1.032-10.728 5.008a2.58 2.58 0 0 0-.506 1.541l.015 20.691h-.005zm-3.052-.122c.054-.242.092-.488.115-.736l.015-19.725a2.84 2.84 0 0 0-.523-1.695c-2.729-3.952-6.539-4.966-10.728-4.964-.704 0-.484.601-.485 1l-.025 21.266c0 .853.268.972.939.999 1.233.056 2.461.195 3.679.416 2.56.45 4.865 1.605 7.02 3.44h-.005zm-4.247 1.305c-.09-.186-.11-.3-.168-.333-.203-.116-.411-.219-.624-.309-2.348-1.036-4.796-1.276-7.29-1.135-1.986.114-2.319-.24-2.32-2.506L4.16 9.314c0-.392.221-.958-.503-.979-.599-.017-.654.311-.654.844V32.32c0 .826.28.719.834.592 1.475-.338 2.978-.535 4.462-.842 2.064-.428 4.155-.128 6.276-.267h-.005zm23.179 1.288c.024-.413.063-.761.063-1.11l-.016-22.374c0-.434.402-1.201-.5-1.257-1.014-.056-.622.811-.624 1.297L36.65 27.85c0 1.779-.502 2.281-2.08 2.186-1.653-.099-3.306-.09-4.931.29-1.286.3-2.59.601-3.957 1.662 4.281-.455 8.163.065 12.067 1.102z" class="B"/><path d="M21.874 30.618l-.012-20.691c.004-.563.185-1.107.511-1.536 2.716-3.976 6.532-5.005 10.729-5.008.885 0 .543.791.544 1.254l.012 18.216c0 1.179.331 2.613-.149 3.464-.465.824-1.863.332-2.839.451-3.166.369-6.044 1.487-8.796 3.85z" fill="#faf9f9"/><path d="M18.822 30.497c-2.155-1.835-4.46-2.99-7.012-3.44a27.63 27.63 0 0 0-3.679-.416c-.671-.027-.939-.15-.939-.998l.025-21.266c0-.396-.219-1 .485-1 4.187 0 7.997 1.012 10.728 4.964a2.84 2.84 0 0 1 .523 1.695l-.015 19.725c-.024.248-.063.494-.118.736z" fill="#f9f9f8"/><path d="M14.575 31.802c-2.122.14-4.212-.161-6.275.267l-4.462.842c-.554.128-.837.234-.834-.592V9.178c0-.533.055-.86.654-.844.724.021.502.587.503.979l.008 18.204c0 2.266.334 2.62 2.32 2.506 2.494-.141 4.942.099 7.29 1.135a5.83 5.83 0 0 1 .624.309c.062.033.08.147.172.333zm23.173 1.288c-3.904-1.03-7.786-1.55-12.069-1.096 1.368-1.068 2.671-1.362 3.957-1.662 1.625-.38 3.278-.389 4.931-.29 1.578.095 2.077-.407 2.08-2.186l.022-18.203c0-.487-.39-1.351.624-1.297.9.05.499.823.5 1.257l.016 22.374c.009.335-.036.683-.06 1.104z" fill="#f7f6f6"/><path d="M23.576 14.137c-.262-.001-.523-.047-.773-.137l-.436-.168-.162-.064a.53.53 0 0 1-.255-.129c-.074-.066-.131-.153-.167-.251-.009-.021-.02-.041-.031-.06v-.012l-.007-.014-.101-.224c-.287-.632-.614-1.351-.386-2.237.315-1.231 1.242-2.057 2.308-2.057.214 0 .427.034.633.101.311.095.602.26.855.483s.464.501.62.817c.149.299.243.627.277.967s.007.684-.079 1.012c-.321 1.198-1.219 1.973-2.299 1.973z" class="B"/><path d="M23.562 9.084a1.83 1.83 0 0 1 .559.089c.494.151.923.498 1.206.976a2.6 2.6 0 0 1 .337 1.623c-.067.569-.315 1.091-.699 1.471s-.878.591-1.39.595c-.235-.001-.468-.043-.692-.123l-.621-.242c-.173-.009-.21-.176-.28-.3-.314-.707-.692-1.377-.471-2.252.284-1.108 1.121-1.84 2.05-1.84v.005zm0-.605c-1.187 0-2.218.914-2.565 2.275-.256 1.003.095 1.775.402 2.457l.099.221.012.026.012.024a.42.42 0 0 1 .021.044.91.91 0 0 0 .239.348c.104.093.226.155.356.184l.134.054.445.173a2.56 2.56 0 0 0 .853.15 2.48 2.48 0 0 0 1.603-.615c.46-.395.792-.948.945-1.575a3.2 3.2 0 0 0 .088-1.129c-.038-.379-.143-.746-.309-1.079-.172-.349-.405-.656-.684-.903a2.6 2.6 0 0 0-.942-.538c-.23-.073-.468-.111-.707-.111l-.004-.005z" class="C"/><path d="M16.963 19.759c-.326.001-.649-.073-.948-.217a2.4 2.4 0 0 1-.793-.622 2.74 2.74 0 0 1-.507-.924c-.111-.343-.157-.709-.137-1.073.036-.672.298-1.304.733-1.768s1.011-.727 1.612-.735c.092 0 .185.006.276.02.336.039.66.157.953.345a2.54 2.54 0 0 1 .746.748 2.8 2.8 0 0 1 .388.999 2.94 2.94 0 0 1-.007 1.089l-.123.52-.056.219-.008.038c-.023.149-.094.283-.201.375-.471.45-1.058.987-1.902.987h-.025z" class="B"/><path d="M16.923 14.721c.081 0 .162.006.243.016 1.286.177 2.105 1.424 1.851 2.825-.044.242-.117.477-.176.718-.023.093-.029.194-.113.254-.508.477-1.018.925-1.743.925h-.023c-.553-.008-1.081-.258-1.471-.696a2.52 2.52 0 0 1-.618-1.649 2.53 2.53 0 0 1 .588-1.663c.382-.447.906-.709 1.458-.729h.004zm-.004-.601c-.693.022-1.352.347-1.833.906s-.749 1.307-.744 2.083.281 1.52.77 2.072 1.151.866 1.844.878h.03c.939 0 1.588-.601 2.066-1.051.155-.134.261-.328.296-.544 0-.009 0-.02.007-.029l.055-.212.134-.545c.077-.399.079-.812.006-1.212a3.12 3.12 0 0 0-.432-1.111c-.221-.338-.503-.621-.828-.831s-.684-.341-1.057-.385a2.36 2.36 0 0 0-.309-.021l-.005.002z" class="C"/><path d="M26.467 19.763a2.17 2.17 0 0 1-1.037-.277c-.322-.179-.604-.438-.825-.756a1.96 1.96 0 0 1-.392-.832.45.45 0 0 1-.082-.108l-.039-.074v-.084c0-1.758.59-2.78 1.782-3.12.203-.059.411-.089.621-.089.52.004 1.024.198 1.436.553s.709.851.846 1.412.106 1.158-.088 1.697-.541.994-.986 1.293c-.375.248-.801.381-1.237.384z" class="B"/><path d="M26.497 14.724c.462.003.91.175 1.276.489s.63.755.752 1.254.094 1.028-.078 1.508-.48.883-.877 1.148c-.334.221-.714.338-1.101.341-.319-.002-.634-.086-.92-.245a2.17 2.17 0 0 1-.73-.674c-.166-.202-.284-.449-.341-.716a.38.38 0 0 1 .122-.134c.141-.076.293-.121.449-.134.021-.015.032-.023.028-.023l-.037.014c-.019.008-.039.014-.059.018-.163.017-.323.059-.475.126-.014.002-.028.002-.042 0-.021 0-.041-.007-.059-.019s-.032-.029-.042-.05c0-1.61.519-2.527 1.58-2.832a2.05 2.05 0 0 1 .555-.078l-.001.008zm.001-.608a2.52 2.52 0 0 0-.688.098c-1.309.374-1.977 1.521-1.983 3.41v.17l.079.15a.79.79 0 0 0 .063.099 2.39 2.39 0 0 0 .429.872c.245.354.559.642.917.84a2.41 2.41 0 0 0 1.153.306 2.51 2.51 0 0 0 1.372-.424c.498-.332.885-.837 1.102-1.438a3.3 3.3 0 0 0 .1-1.891c-.152-.626-.483-1.178-.942-1.574s-1.021-.611-1.6-.614l-.001-.005z" class="C"/><path d="M20.239 22.456c-.093.007-.185-.01-.271-.048s-.163-.098-.226-.174c-.161-.215-.122-.497-.099-.667.106-.769 0-1.374-.331-1.901a.44.44 0 0 1-.078-.158c-.015-.058-.02-.119-.012-.18a.46.46 0 0 1 .055-.169c.029-.051.067-.095.113-.128l.056-.055h.076.044a.45.45 0 0 1 .308.12c.287-1.819.776-4.041 1.877-6.077l.09-.167.173.024a.54.54 0 0 1 .343.17.66.66 0 0 1 .172.373l.016.104-.046.093c-.501 1.026-.9 2.111-1.188 3.235-.216.841-.367 1.719-.518 2.641.716-.751 1.401-1.449 2.388-1.7a.44.44 0 0 1 .166-.036.3.3 0 0 1 .14.032c.044.022.083.055.115.095.038.056.064.12.077.188s.014.139 0 .207l-.021.168-.141.065c-1.096.496-2.001 1.408-2.556 2.577a.81.81 0 0 0-.09.514.84.84 0 0 1 .02.33c-.015.11-.052.215-.108.307-.066.076-.145.134-.233.172a.58.58 0 0 1-.276.046h-.036z" class="B"/><path d="M21.983 13.17c.071.004.138.037.19.092a.35.35 0 0 1 .09.208 17.28 17.28 0 0 0-1.207 3.304c-.284 1.116-.455 2.252-.671 3.545.939-.913 1.688-1.94 2.874-2.233.027-.014.057-.022.087-.024.07 0 .082.072.067.179-1.152.52-2.102 1.481-2.682 2.71a1.13 1.13 0 0 0-.117.715c.056.32 0 .495-.335.495h-.029c-.385-.011-.378-.252-.338-.544.105-.763.027-1.482-.382-2.128a.13.13 0 0 1-.032-.051c-.007-.02-.009-.041-.007-.062s.009-.041.02-.058a.12.12 0 0 1 .042-.041h.023c.251 0 .252.372.49.432.33-2.299.838-4.523 1.922-6.534l-.004-.007zm-.276-.637l-.18.333c-1.046 1.943-1.549 4.045-1.848 5.819a.74.74 0 0 0-.103 0h-.064l-.154.014-.123.104c-.073.057-.135.13-.182.215a.78.78 0 0 0-.09.278.81.81 0 0 0 .017.295c.024.096.065.186.121.263.287.45.377.993.283 1.677-.027.191-.081.586.157.901a.9.9 0 0 0 .316.251.81.81 0 0 0 .381.078h.04a.79.79 0 0 0 .393-.07c.124-.057.236-.145.325-.257.243-.332.168-.751.143-.886-.016-.109.007-.221.063-.312.521-1.112 1.381-1.978 2.423-2.442l.28-.131.044-.336a.85.85 0 0 0-.003-.335.8.8 0 0 0-.131-.301c-.057-.073-.128-.132-.207-.172a.55.55 0 0 0-.252-.06c-.082 0-.164.017-.241.048-.762.198-1.36.652-1.903 1.168l.365-1.739c.283-1.103.675-2.167 1.167-3.173l.09-.186-.034-.207c-.026-.207-.113-.397-.248-.541a.79.79 0 0 0-.495-.252l-.345-.048-.005.003z" class="C"/><path d="M19.377 19.733c-.175-.144-.325-.325-.44-.532-.084-.162-.199-.301-.338-.405l-.225-.138.428-.967.259.417c.073.1.157.189.251.266.204.191.459.426.506.857v.036l-.078.734-.362-.269z" class="B"/><path d="M18.841 18.28c.216.348.653.498.708.993l-.023.212c-.331-.248-.44-.731-.805-.951l.113-.254h.007zm-.084-1.179l-.402.912-.113.255-.227.517.451.276a1.05 1.05 0 0 1 .248.314 2.08 2.08 0 0 0 .51.601l.726.545.105-.971.012-.107.011-.107.008-.072-.008-.072c-.06-.55-.386-.851-.601-1.051-.074-.062-.141-.133-.2-.212l-.518-.835-.001.008z" class="C"/><path d="M22.832 18.055l.268-.219a1.19 1.19 0 0 1 .747-.322c.054 0 .109.006.162.015l.051.011.044.03a.34.34 0 0 1 .109.105.39.39 0 0 1 .058.148c.007.046.006.093-.004.139s-.029.088-.055.125-.052.062-.083.085c-.14.163-.323.271-.522.31l-.114.036-.146.052-.516-.516z" class="B"/><path d="M23.849 17.814c.04 0 .079.004.118.012.042.027.054.052.037.074-.005.009-.011.016-.02.022s-.017.009-.026.01c-.134.216-.35.233-.546.3l-.154-.15c.166-.157.373-.251.59-.266v-.002zm0-.599c-.33.014-.648.148-.905.38l-.536.44.5.496.154.15.229.227.291-.105c.034-.012.067-.021.099-.03.241-.053.462-.184.636-.378.041-.036.079-.077.111-.123.049-.07.084-.15.103-.235a.71.71 0 0 0 .009-.262.7.7 0 0 0-.1-.266c-.05-.079-.116-.145-.192-.192l-.088-.06-.101-.02a1.23 1.23 0 0 0-.208-.02l-.003-.002z" class="C"/><path d="M23.696 17.852l-.05-.198.671-.329.134.021c.037-.014.076-.021.115-.021.046-.001.092.01.134.032s.079.054.109.094a.48.48 0 0 1 .069.183.5.5 0 0 1-.008.198l-.031.165-.304.121-1.049.21.21-.475z" class="B"/><path d="M24.576 17.623c.052 0 .055.062.04.15l-.141.056-.516.104c.014-.033.017-.07.008-.105l.394-.192.134.018c.025-.015.052-.024.081-.027v-.003zm-.294-.601l-.134.066-.386.189h-.008l-.427.209.084.342-.381.901 1.025-.204h.029l.485-.098.044-.009.042-.017.134-.053.287-.126.06-.333a.81.81 0 0 0 .008-.331.77.77 0 0 0-.124-.3c-.055-.074-.124-.134-.202-.175a.53.53 0 0 0-.249-.061.56.56 0 0 0-.134.015h-.016l-.146-.021.007.005z" class="C"/><path d="M24.977 17.863l-.012-.008c-.057-.031-.107-.078-.146-.135a.48.48 0 0 1-.074-.195l-.023-.168.115-.108c.133-.131.302-.207.479-.217a.37.37 0 0 1 .226.067.44.44 0 0 1 .154.197c.029.062.044.131.042.2a.45.45 0 0 1-.049.198c-.11.211-.338.231-.489.243l-.143.014-.081-.088z" class="B"/><path d="M25.317 17.334c.028-.003.056.005.08.021s.043.04.054.069c.08.197-.153.207-.296.219-.048-.054-.134-.066-.148-.162a.51.51 0 0 1 .306-.15l.004.003zm-.004-.604c-.24.011-.469.113-.65.288l-.232.218.046.333c.016.112.054.218.112.311s.134.169.222.224l.143.161.245-.023h.02c.169-.015.519-.045.701-.392a.79.79 0 0 0 .084-.336.8.8 0 0 0-.066-.341.74.74 0 0 0-.255-.323c-.111-.078-.239-.118-.37-.116l-.001-.005z" class="C"/><path d="M24.139 17.697l.134-.219a.67.67 0 0 1 .254-.224c.1-.05.21-.07.32-.06a.74.74 0 0 0 .111-.009l.134-.027.605.66-1.156.277-.402-.398z" class="B"/><path d="M25.011 17.481l.148.162-.537.129-.121-.12c.134-.207.337-.135.515-.171h-.005zm.182-.646l-.268.054c-.024.002-.048.002-.072 0a.83.83 0 0 0-.44.095c-.137.072-.256.181-.346.318l-.278.439.361.357.047.047.074.072.201.201.268-.063.373-.089.169-.041.98-.233-.716-.784-.149-.162-.197-.216-.007.005z" class="C"/><g class="B"><path d="M21.983 13.17c-.314-.707-.692-1.377-.471-2.253.341-1.327 1.475-2.114 2.61-1.751.539.184.991.6 1.256 1.157a2.64 2.64 0 0 1 .158 1.813c-.164.604-.536 1.11-1.033 1.407a1.92 1.92 0 0 1-1.619.177l-.621-.242c-.173-.015-.211-.182-.28-.308zm-3.255 5.363c-.514.482-1.029.936-1.762.925a1.92 1.92 0 0 1-.836-.187c-.264-.125-.503-.309-.702-.541a2.42 2.42 0 0 1-.454-.808c-.101-.301-.146-.622-.132-.943a2.6 2.6 0 0 1 .211-.925c.126-.289.303-.546.52-.756s.471-.368.744-.465a1.9 1.9 0 0 1 .848-.098c1.286.177 2.105 1.423 1.851 2.825-.044.242-.117.478-.176.718-.023.095-.029.194-.113.254zm5.634-.899c0-1.61.519-2.527 1.58-2.832.369-.11.758-.105 1.125.013a2.09 2.09 0 0 1 .96.657 2.47 2.47 0 0 1 .523 1.115 2.64 2.64 0 0 1-.062 1.258c-.122.405-.339.766-.63 1.044s-.642.462-1.019.534-.763.028-1.119-.127a2.15 2.15 0 0 1-.903-.752c-.166-.202-.284-.449-.341-.716a.38.38 0 0 1 .122-.134 1.13 1.13 0 0 1 .449-.134c.04-.027.04-.03-.009-.009a.31.31 0 0 1-.059.018c-.163.016-.323.059-.475.126-.026.011-.055.011-.081-.001s-.048-.033-.061-.061z"/><path d="M21.983 13.17c.071.004.138.037.19.092a.35.35 0 0 1 .09.208c-.51 1.048-.915 2.156-1.207 3.303-.284 1.116-.455 2.252-.671 3.545.939-.913 1.688-1.94 2.874-2.233.146-.067.173.015.154.15-1.152.52-2.102 1.481-2.682 2.71a1.13 1.13 0 0 0-.117.715c.058.329 0 .506-.362.495-.385-.011-.378-.252-.338-.544.105-.763.027-1.482-.382-2.128a.13.13 0 0 1-.032-.051c-.007-.02-.009-.041-.007-.062s.009-.041.02-.058.025-.031.042-.041c.268-.024.268.369.512.431.323-2.3.832-4.524 1.915-6.535z"/><path d="M19.549 19.275l-.023.212c-.331-.248-.44-.731-.805-.95l.113-.254c.223.345.66.495.715.992zm3.865-1.041l-.154-.15c.212-.171.433-.3.708-.254.041.027.054.053.037.074-.005.009-.012.016-.02.022s-.017.009-.026.01c-.13.212-.35.228-.546.299z"/><path d="M23.959 17.929c.014-.033.017-.07.008-.104l.394-.191.134.018c.127-.07.142 0 .121.119l-.141.055-.516.103z"/><path d="M25.011 17.48c.142-.133.374-.224.444-.057.081.195-.153.206-.296.218-.048-.054-.134-.066-.148-.161z"/><path d="M25.011 17.481l.148.161-.537.129-.121-.12c.126-.206.331-.134.51-.17zm-3.833 4.394h-2.226v1.321h2.226v-1.321z"/><path d="M20.978 22.343l.715-.8-.396-.444-.715.8.396.444zm-2.03-1.431l.522 1.299.444-.224-.522-1.299-.444.224z"/></g></svg>