<svg xmlns="http://www.w3.org/2000/svg" width="988" height="559" fill="none" xmlns:v="https://vecta.io/nano"><style><![CDATA[.B{stroke-miterlimit:10}.C{fill:#eaad63}.D{fill:#ff83ff}.E{fill:#4e4ec6}.F{fill:#6eb540}.G{fill:#a89c2c}.H{fill:#1e499b}.I{fill:#bf3e36}.J{stroke-width:.25}]]></style><g filter="url(#A)"><rect x="320" y="27" width="469" height="440" rx="20" fill="#fff"/></g><rect x="350" y="57" width="409" height="137" rx="15" fill="#e9f0f3"/><path d="M560.473 132.171c-5 5.18-22-1.942-22-1.942s-5.4 2.374-11.5 1.942l2.5 35.826h44.5l2.1-31.186c-5.7 1.511-11.5-8.956-15.6-4.64z" class="C"/><path d="M577.673 126.236c-2.2-2.05-4.8-3.453-7.2-5.287-2.1-1.619-4-3.561-5.4-6.043-1.2-2.051-2-4.317-2.6-6.583-4.9.756-9.2-2.59-12.2-6.906-.2-.216-.3-.54-.5-.755-3.8-1.08-6.9-3.993-7.9-7.662-3.3 0-35.1.755-30.4 23.201 2.5 11.978 9.3 15.431 15.5 15.97 6.1.432 11.5-1.942 11.5-1.942s17 7.122 22 1.942c4.1-4.316 9.9 6.043 15.6 4.64 1.2-.323 2.4-1.079 3.6-2.697.9-1.295 2.9-1.403 4.9-1.619-2.5-1.835-4.6-4.101-6.9-6.259z" fill="#bc6644"/><path d="M551.473 114.042c2.7-2.913 6.8-3.992 10.5-2.697-2.7 2.913-6.8 3.992-10.5 2.697z" class="D"/><path d="M521.473 114.042c3.1-3.453 7.6-5.071 12-4.316-3.1 3.453-7.6 5.072-12 4.316z" class="E"/><path d="M565.973 119.977c3.7 3.022 6 7.878 6 12.949-3.7-3.021-6-7.877-6-12.949z" class="F"/><path d="M529.873 96.669c4.4.755 8.2 3.885 10.1 8.201-4.4-.755-8.2-3.885-10.1-8.201z" class="G"/><path d="M539.873 118.574c3.5 1.727 5.9 5.504 6 9.712-3.5-1.726-5.8-5.503-6-9.712z" fill="#9cf"/><g fill="#464646"><rect x="479.35" y="109" width="9.132" height="40.823" rx="4.566"/><rect x="465" y="134.338" width="9.854" height="37.831" rx="4.927" transform="rotate(270 465 134.338)"/><rect x="610.963" y="143.291" width="9.153" height="32.037" rx="4.577" transform="rotate(270 610.963 143.291)"/><rect x="610.963" y="123.153" width="9.153" height="32.037" rx="4.577" transform="rotate(270 610.963 123.153)"/><path d="M688.703 140.772a1.73 1.73 0 0 1-1.73-1.73h0c0-3.966.314-7.127.943-9.482s1.561-4.242 2.796-5.661c1.234-1.442 2.746-2.74 4.537-3.893l4.139-2.921c1.234-.937 2.202-1.934 2.904-2.992.726-1.058 1.089-2.259 1.089-3.605 0-1.202-.291-2.26-.871-3.173s-1.368-1.622-2.36-2.127-2.093-.757-3.303-.757c-1.307 0-2.517.3-3.631.901a7.28 7.28 0 0 0-2.65 2.488h0c-1.119 1.811-2.706 3.677-4.836 3.677h-5.394c-5.142 0-9.628-4.364-7.731-9.143a17.19 17.19 0 0 1 2.025-3.728c2.372-3.317 5.518-5.745 9.438-7.283 3.921-1.562 8.229-2.344 12.924-2.344 5.179 0 9.801.757 13.867 2.271 4.066 1.49 7.272 3.75 9.62 6.778 2.347 3.005 3.521 6.766 3.521 11.285 0 2.908-.508 5.468-1.525 7.679-.992 2.188-2.383 4.122-4.174 5.805-1.767 1.658-3.836 3.173-6.208 4.543-1.742 1.009-3.206 2.055-4.392 3.136-1.186 1.058-2.082 2.271-2.687 3.642-.605 1.346-.907 2.98-.907 4.903h0a1.73 1.73 0 0 1-1.731 1.73h-13.673zM695.83 165c-2.807 0-5.215-.973-7.224-2.92-1.984-1.971-2.964-4.363-2.94-7.175-.024-2.74.956-5.083 2.94-7.03 2.009-1.947 4.417-2.921 7.224-2.921 2.662 0 5.01.974 7.043 2.921 2.057 1.947 3.097 4.29 3.122 7.03-.025 1.875-.521 3.581-1.489 5.12a10.91 10.91 0 0 1-3.703 3.641c-1.524.889-3.182 1.334-4.973 1.334z"/></g><path d="M418.473 134.768c-5 5.179-22-1.943-22-1.943s-5.4 2.374-11.5 1.943l2.5 35.826h44.5l2.1-31.186c-5.7 1.403-11.5-8.957-15.6-4.64z" fill="#b77ba9"/><path d="M450.473 107.898c-1.1-3.776-15.8-14.891-28.2-13.38-.9 5.18-5.6 9.064-11.3 9.064-5.4 0-9.9-3.453-11.1-8.093-3.3 0-35.1.755-30.4 23.2 2.5 11.978 9.4 15.431 15.5 15.971s11.5-1.942 11.5-1.942 17 7.122 22 1.942c4.1-4.316 9.9 6.043 15.6 4.64 1.2-.324 2.4-1.079 3.6-2.698 1.9-2.482 7.7-.755 9.8-2.805 5.6-5.396 3.9-22.769 3-25.899z" fill="#f7b7b2"/><path d="M410.973 103.582c5.7 0 10.4-3.885 11.3-9.064.1-.54.2-1.187.2-1.727 0-5.935-5.1-10.791-11.5-10.791s-11.5 4.856-11.5 10.791c0 .971.1 1.834.4 2.698 1.2 4.64 5.7 8.093 11.1 8.093z" fill="#c10e24"/><path d="M407.973 113.186c2.7-2.914 6.8-3.993 10.5-2.698-2.8 2.914-6.9 3.993-10.5 2.698z" class="D"/><path d="M377.973 113.186c3.1-3.453 7.6-5.072 12-4.316-3.1 3.453-7.6 5.071-12 4.316z" class="E"/><path d="M426.473 97.539c3.7 3.022 6 7.877 6 12.949-3.8-3.129-6-7.877-6-12.949z" class="F"/><path d="M431.273 114.157c4.4.756 8.2 3.885 10.1 8.201-4.3-.863-8.1-3.884-10.1-8.201z" class="G"/><path d="M403.873 125.703c-3.9-.108-7.4-2.589-9-6.366 3.8.108 7.4 2.589 9 6.366z" fill="#9cf"/><g stroke="#464646" stroke-width="3" stroke-dasharray="7 7"><rect opacity=".3" x="354.5" y="211.5" width="406" height="62" rx="13.5"/><rect opacity=".3" x="354.5" y="292.5" width="406" height="62" rx="13.5"/><rect opacity=".3" x="354.5" y="373.5" width="406" height="62" rx="13.5"/></g><g stroke="#1e499b" stroke-width="5"><circle cx="392.5" cy="324.5" r="17"/><circle cx="392.5" cy="243.5" r="17"/></g><path d="M466.339 336.46c-2.003 0-3.782-.35-5.335-1.049-1.545-.708-2.763-1.682-3.654-2.921-.206-.288-.388-.586-.546-.894-.882-1.717.771-3.379 2.701-3.379h.909c1.371 0 2.431 1.286 3.506 2.137h0c.679.531 1.485.796 2.419.796.722 0 1.358-.152 1.91-.455.552-.312.985-.75 1.299-1.315s.466-1.222.458-1.972c.008-.759-.144-1.416-.458-1.972-.314-.565-.747-.999-1.299-1.303-.552-.311-1.188-.467-1.91-.467-.747 0-1.439.181-2.075.543h0c-1.057.595-2.222 1.316-3.412 1.084l-.886-.173c-1.886-.368-3.201-2.086-3.064-4.003l.257-3.593a7.87 7.87 0 0 1 7.851-7.31h7.384c1.55 0 2.807 1.256 2.807 2.806h0a2.81 2.81 0 0 1-2.807 2.807h-6.293a2.86 2.86 0 0 0-2.846 2.604l-.269 3.013c-.004.052.037.098.09.098h0c.033 0 .064-.019.08-.049.411-.762 1.107-1.395 2.088-1.898 1.002-.523 2.165-.784 3.489-.784 1.553 0 2.937.358 4.151 1.074 1.222.717 2.185 1.707 2.89 2.971.713 1.256 1.065 2.706 1.057 4.35.008 1.803-.425 3.405-1.299 4.804-.866 1.39-2.084 2.482-3.654 3.274-1.571.784-3.417 1.176-5.539 1.176zm22.62-27.46a2.88 2.88 0 0 1 2.776 3.628l-6.845 25.249c-.34 1.253-1.477 2.123-2.775 2.123h0c-1.895 0-3.272-1.8-2.776-3.628l6.845-25.249c.339-1.253 1.477-2.123 2.775-2.123h0zm16.6 27.46a13.17 13.17 0 0 1-4.329-.708c-1.358-.48-2.564-1.235-3.616-2.263s-1.88-2.368-2.483-4.02c-.594-1.652-.887-3.654-.879-6.006.009-2.098.28-3.986.815-5.664.543-1.677 1.312-3.106 2.305-4.286a10.04 10.04 0 0 1 3.59-2.705c1.393-.632 2.942-.948 4.648-.948 1.918 0 3.608.366 5.068 1.1s2.622 1.715 3.488 2.945l.193.281c1.191 1.805-.538 3.765-2.7 3.765h-.923c-1.179 0-2.118-1.017-3.14-1.606h0c-.577-.345-1.239-.518-1.986-.518-1.486 0-2.576.641-3.272 1.922-.678 1.262-1.03 2.917-1.056 4.965-.001.05.04.092.091.092h0c.037 0 .07-.022.084-.056a5.31 5.31 0 0 1 1.479-1.98c.671-.564 1.452-.998 2.343-1.302a8.72 8.72 0 0 1 2.827-.455c1.578 0 2.958.354 4.138 1.062a7.4 7.4 0 0 1 2.775 2.908c.663 1.23.989 2.638.981 4.223.008 1.854-.433 3.476-1.324 4.867-.883 1.391-2.11 2.47-3.68 3.237s-3.383 1.15-5.437 1.15zm-.051-5.31c.705 0 1.329-.16 1.872-.48a3.38 3.38 0 0 0 1.286-1.315c.314-.556.467-1.189.458-1.897.009-.716-.144-1.348-.458-1.896a3.37 3.37 0 0 0-1.286-1.315c-.543-.32-1.167-.48-1.872-.48a3.67 3.67 0 0 0-1.439.278 3.26 3.26 0 0 0-1.133.771 3.62 3.62 0 0 0-.764 1.176c-.178.447-.272.935-.28 1.466.008.708.17 1.341.484 1.897a3.5 3.5 0 0 0 1.286 1.315c.543.32 1.158.48 1.846.48z" class="H"/><circle cx="392.5" cy="405.5" r="17" stroke="#1e499b" stroke-width="5"/><path d="M463.755 228.477c2.748 0 4.975 2.228 4.975 4.976v18.073c0 1.924-1.559 3.484-3.483 3.484h0c-1.924 0-3.483-1.56-3.483-3.484v-16.298c0-.065-.053-.118-.117-.118h0c-.022 0-.043.007-.062.018l-1.606.994a2.61 2.61 0 0 1-3.979-2.218h0c0-.894.458-1.726 1.215-2.204l3.883-2.453a4.97 4.97 0 0 1 2.657-.77h0zm39.297 26.896c-2.021 0-3.817-.359-5.388-1.076-1.562-.725-2.79-1.723-3.683-2.992a7.43 7.43 0 0 1-.57-.953c-.874-1.75.807-3.426 2.762-3.426h2.002c.815 0 1.444.712 1.92 1.373h0c.301.397.71.708 1.228.933s1.111.337 1.779.337c.644 0 1.212-.117 1.704-.35.493-.242.878-.575 1.153-.998s.41-.907.401-1.451a2.18 2.18 0 0 0-.476-1.425c-.317-.414-.764-.738-1.341-.972s-1.24-.349-1.992-.349h-.119a2.49 2.49 0 0 1-2.487-2.488h0a2.49 2.49 0 0 1 2.487-2.487h.119c.693 0 1.303-.117 1.829-.35.535-.233.949-.557 1.241-.972.301-.414.447-.889.438-1.425.009-.518-.112-.976-.363-1.373a2.57 2.57 0 0 0-1.052-.933c-.443-.224-.957-.337-1.542-.337-.634 0-1.202.117-1.704.35a2.86 2.86 0 0 0-1.165.972h0c-.474.693-1.112 1.425-1.952 1.425h-1.785c-1.857 0-3.453-1.584-2.668-3.267a7.23 7.23 0 0 1 .591-1.034c.861-1.244 2.038-2.22 3.534-2.928s3.211-1.062 5.149-1.062c1.897 0 3.571.332 5.025.997 1.462.665 2.602 1.581 3.421 2.747.827 1.157 1.236 2.483 1.227 3.977.017 1.486-.476 2.703-1.478 3.653-.972.929-2.199 1.486-3.681 1.672-.059.008-.103.057-.103.116h0c0 .059.045.109.103.116 2.02.243 3.544.895 4.571 1.957 1.044 1.071 1.557 2.418 1.541 4.042.008 1.555-.443 2.932-1.353 4.133-.903 1.2-2.16 2.142-3.772 2.824-1.604.682-3.454 1.024-5.551 1.024zm22.746-28.139a2.84 2.84 0 0 1 2.746 3.552l-6.793 26.091c-.325 1.251-1.454 2.123-2.746 2.123h0a2.84 2.84 0 0 1-2.746-3.552l6.793-26.092c.325-1.25 1.454-2.122 2.746-2.122zm9.693 23.63c-2.409 0-4.362-1.953-4.362-4.363h0a4.36 4.36 0 0 1 .646-2.285l8.633-14.039c.661-1.075 1.772-1.797 3.023-1.964l1.608-.214c4.621-.617 6.311 5.862 2.008 7.656h0a3.68 3.68 0 0 1-1.42.285h0c-1.285 0-2.477.669-3.146 1.766l-4.462 7.315c-.016.026-.024.055-.024.085h0c0 .089.072.161.162.161h12.276a2.8 2.8 0 0 1 2.798 2.799h0a2.8 2.8 0 0 1-2.798 2.798h-14.942zm11.45 4.146c-1.84 0-3.333-1.492-3.333-3.333v-2.523l.151-2.436v-14.983a3.26 3.26 0 0 1 3.257-3.258h0a3.26 3.26 0 0 1 3.258 3.258v19.942c0 1.841-1.492 3.333-3.333 3.333h0z" class="H"/><path d="M310.602 361.091c-12.1 6-27.563 10.242-42.581 11.004h-.5-.5c-18.2-.4-34.9-5.5-48-13.6-31.6 12.7-27 38-27 38l-6 128.4h153l-6.1-128.4c0-.1-.619-22.104-22.319-35.404z" class="I"/><path d="M345.021 311.795c0-32.8-34.8-59.4-78-60v119.9c43.2-.5 78-27.1 78-59.9z" fill="#eac5ad"/><g fill="#f4d1ba"><path d="M189.021 311.795c0 32.8 34.8 59.4 78 60v-119.9c-43.2.6-78 27.2-78 59.9z"/><path d="M266.521 251.895h-.5v119.9h.5.5v-119.9h-.5z"/></g><g fill="#000"><path d="M189.521 313.295s12-42 24.5-44.5c2.5-.5-3.4 8.2-2.5 20.5.5 6.8 4-19 35-12s43 8 50 1c10-10 1.1-15.6 6-19.6 3-2.4 36 16.5 38 42.6 2 26 11.7-2.8 14-12 3-12-4-49-20-54s18-17.1 10-16c-7 1-24.4 2-24.4 2l11.4-9-24 4s-56-25-101 7c-57.9 41.2-17 83-17 90z" stroke="#000" class="B"/><path d="M227.335 325.587c3.108-2.3 3.737-6.72 1.404-9.872s-6.742-3.843-9.85-1.544-3.737 6.719-1.404 9.871 6.742 3.844 9.85 1.545zm83.004-4.002c3.108-2.299 3.737-6.719 1.404-9.871s-6.742-3.844-9.85-1.544-3.737 6.719-1.404 9.871 6.742 3.844 9.85 1.544z"/><path d="M207.02 304.795c-.1-.5 9.5-6.7 20-4 6.7 1.7 11.3 6.5 11 7s-5.6-3.8-14-5c-9.8-1.4-16.9 2.5-17 2z" stroke="#000" class="B J"/></g><path d="M243.021 341.795c5.4 1 13.5 2 23 1 13.9-1.4 22.6-6 23-5 .5 1.1-9.3 8.9-22 10-10.8 1-19.5-3.2-24-6z" fill="#fff" stroke="#fff" class="B J"/><path d="M289.021 296.795c1.9-2 8.2-8.1 17-8 7.9.1 14.3 5.1 14 6-.3.8-6.3-2.2-15-2-6.7.2-12.2 2.2-16 4z" fill="#000" stroke="#000" class="B J"/><path d="M216.021 342.795c6.076 0 11-2.239 11-5s-4.924-5-11-5-11 2.238-11 5 4.925 5 11 5zm96-5c6.076 0 11-2.239 11-5s-4.924-5-11-5-11 2.238-11 5 4.925 5 11 5z" fill="#fab899"/><path d="M345.921 303.995s-4.9 30.8-7.9 31.8 12.9 7.1 16.7-15.9c3.3-20.1-8.9-15.7-8.8-15.9zm-156.901 8.8s5 25 11 28c1.8.9-21.2 6.1-25-6-5-16 5.4-23.5 14-22z" fill="#eac5ad"/><path d="M164.021 444.795l11.3-5.7v-51.7s-31.3.5-31.3 6.6c0 8.9 20 50.8 20 50.8z" class="I"/><path d="M175.32 387.395v51.7l15-5.8 1.701-36.8s-3.136-20.831 17.199-32.1c18.8-12.6-33.6 18.6-33.9 23zm159.601 45.5l20.1 6.2v-51.7s-20.151-19.89-41.951-25.89c-10.9-3 18.698 6.663 20.03 38.69l1.537 32.676" fill="#871c1f"/><path d="M437.421 288.795c-1.135-.387-4.4-10-8.4-13-2.9-2.2-7 4-7 4s0-9-7-8-4 12-4 12l-6-3c-3.9-1.9-3.8 11.1-3.8 12-.2 0-.2 0 0 0s5.4 23.1 5.4 23.1l6.9 8.6c-2-2.4-4.2-5.3-6.9-8.6-20.4-25.9-13.6 4.3-13.6 4.3l17.4 22.7c-1.4 3-4.3 45.5-15.3 51.2-11 5.8-10.7 0-10.7 0l-14.4 41.4s46 3.3 62-43.7 10-57 10-57l4.6-18.9c2.6-10.9-2.6-17.1-3.5-24.7s-7.1-3.4-5.7-2.4" fill="#efd2bb"/><path d="M93.321 288.795c-1.9-2 3.1-10 7.1-13 2.9-2.2 7 4 7 4s0-9 7-8 4 12 4 12l6-3c3.9-1.9 3.8 11.1 3.8 12h0c-.2 0-5.4 23.1-5.4 23.1l-6.9 8.6c2-2.4 4.2-5.3 6.9-8.6 20.4-25.9 13.6 4.3 13.6 4.3l-17.4 22.7c1.4 3 4.3 45.5 15.3 51.2 11 5.8 8.7 0 8.7 0l16.3 41.4s-46 3.3-62-43.7-10-57-10-57l-4.6-18.9c-2.6-10.9 2.6-17.1 3.5-24.7s7.1-3.4 5.7-2.4" fill="#f4d1ba"/><path d="M225.021 323.795a2 2 0 1 0 0-4 2 2 0 1 0 0 4zm83-4a2 2 0 1 0 0-4 2 2 0 1 0 0 4z" fill="#fff"/><path d="M259.021 330.795c.4-.5 2.7-3.6 7-4 4.6-.4 7.6 2.6 8 3" fill="#070301"/><path d="M366.321 444.795l1-2.8 18.7-50.2s-30.8-11.5-30.9-2.9v50.2" class="I"/><path d="M289.621 524.795l-3.68-154.862s-9.12 1.762-18.52 1.662h-.4v153.2z" fill="#f4f4f4"/><path d="M267.022 371.595c-7.1-.1-14.2-1.4-17.5-2.1l-4.6 155.3h22.1v-153.2z" fill="#fff"/><path d="M456.428 411.689a3.35 3.35 0 0 0 3.347 3.346h13.567c1.506 0 2.726-1.221 2.726-2.727h0c0-1.506-1.22-2.726-2.726-2.726h-7.533c-.051 0-.092-.042-.092-.093h0c0-.027.013-.054.035-.071l4.455-3.586c3.976-3.187 5.57-5.027 5.57-8.316v-.034c0-4.517-3.907-7.482-9.888-7.482-5.862 0-9.889 3.374-9.889 8.368h0a.17.17 0 0 0 .17.17h6.223a.24.24 0 0 0 .239-.221h0c.137-1.773 1.286-2.983 3.257-2.983 1.713 0 2.896 1.074 2.896 2.591v.034c0 1.363-.549 2.437-3.582 4.925l-7.556 6.222a3.35 3.35 0 0 0-1.219 2.583h0zm43.308-.287c0 2.007 1.626 3.633 3.633 3.633h0c2.007 0 3.633-1.626 3.633-3.633v-15.378a5.58 5.58 0 0 0-5.581-5.581h0c-1.099 0-2.174.325-3.089.933l-3.67 2.44a2.53 2.53 0 0 0-1.13 2.108h0c0 2.015 2.238 3.222 3.922 2.115l2.118-1.392c.017-.012.038-.018.058-.018h0c.059 0 .106.048.106.106v14.667zm21.983-19.461a2.98 2.98 0 0 0-2.933-3.498h0a2.98 2.98 0 0 0-2.932 2.459l-4.36 24.6a2.98 2.98 0 0 0 2.933 3.498h0a2.98 2.98 0 0 0 2.932-2.459zm2.641 19.748c0 1.848 1.498 3.346 3.346 3.346h13.567a2.73 2.73 0 0 0 2.727-2.727h0c0-1.506-1.221-2.726-2.727-2.726h-7.532c-.051 0-.092-.042-.092-.093h0a.09.09 0 0 1 .034-.071l4.456-3.586c3.976-3.187 5.57-5.027 5.57-8.316v-.034c0-4.517-3.908-7.482-9.889-7.482-5.861 0-9.888 3.374-9.888 8.368h0a.17.17 0 0 0 .17.17h6.223a.24.24 0 0 0 .239-.221h0c.137-1.773 1.285-2.983 3.256-2.983 1.714 0 2.896 1.074 2.896 2.591v.034c0 1.363-.548 2.437-3.581 4.925l-7.556 6.222c-.772.636-1.219 1.583-1.219 2.583h0z" class="H"/><path d="M209.473 499.9c-5 4.8-22-1.8-22-1.8s-5.4 2.2-11.5 1.8l2.5 33.2h44.5l2.1-28.9c-5.7 1.3-11.5-8.3-15.6-4.3z" class="C"/><path d="M241.473 475c-1.1-3.5-15.8-13.8-28.2-12.4-.9 4.8-5.6 8.4-11.3 8.4-5.4 0-9.9-3.2-11.1-7.5-3.3 0-35.1.7-30.4 21.5 2.5 11.1 9.4 14.3 15.5 14.8s11.5-1.8 11.5-1.8 17 6.6 22 1.8c4.1-4 9.9 5.6 15.6 4.3 1.2-.3 2.4-1 3.6-2.5 1.8-2.3 7.7-.7 9.8-2.6 5.6-5 3.9-21.1 3-24z" fill="#bc6644"/><path d="M201.973 471c5.7 0 10.4-3.6 11.3-8.4.1-.5.2-1.1.2-1.6 0-5.5-5.1-10-11.5-10s-11.5 4.5-11.5 10c0 .9.1 1.7.4 2.5 1.2 4.3 5.7 7.5 11.1 7.5z" fill="#c10e24"/><path d="M200.473 483c2.7-2.7 6.8-3.7 10.5-2.5-2.7 2.8-6.8 3.8-10.5 2.5z" class="D"/><path d="M170.473 483c3.1-3.2 7.6-4.7 12-4-3.1 3.2-7.6 4.7-12 4z" class="E"/><path d="M218.973 468.5c3.7 2.8 6 7.3 6 12-3.7-2.8-6-7.3-6-12z" class="F"/><path d="M223.873 483.9c4.4.7 8.2 3.6 10.1 7.6-4.4-.7-8.2-3.6-10.1-7.6z" class="G"/><path d="M188.873 487.3c3.5 1.6 5.9 5.1 6 9-3.5-1.7-5.8-5.2-6-9z" fill="#9cf"/><path d="M359.288 514.875c-6.175 5.688-13.976 10.237-22.588 9.262-8.938-.975-15.763-6.987-20.8-14.137-5.688 4.55-10.075 10.725-16.9 13.325l.813 10.075h72.312l.488-7.475c-5.038-2.6-9.263-6.825-13.325-11.05z" class="C"/><g clip-path="url(#B)"><path d="M825.9 512c53.572 0 97-43.428 97-97s-43.428-97-97-97-97 43.428-97 97 43.429 97 97 97z" fill="#dbdbdb"/><g fill="#916652"><path d="M825.9 501c47.497 0 86-38.504 86-86s-38.503-86-86-86-86 38.504-86 86 38.504 86 86 86z" stroke="#916652" class="B"/><path d="M828 399.7l-.4-.4c-.1-.2-.3-.2-.5-.3s-.4-.1-.6-.1-.4 0-.6.1-.3.2-.5.3c-.1.1-.2.2-.2.3-.1.2-.2.5-.2.8 0 .1 0 .3.1.4.1.2.2.5.4.7l.4.4c.1.2.3.2.5.3s.4.1.6.1.4 0 .6-.1.3-.2.5-.3c.1-.1.2-.2.2-.3.1-.2.2-.5.2-.8 0-.1 0-.3-.1-.4-.1-.3-.2-.6-.4-.7z"/></g><path d="M888.001 376.3c-9.1-9-19.1-17.3-30.6-23.7-19.5-10.9-48.9-18.7-69.6-6-9 5.5-15 14.3-20.2 22.8-5.9 9.7-11 20-13.3 31-4.2 20.3.7 42.1 13.5 59.1 13.1 17.5 34.5 28.6 57.4 31 21.6 2.2 45.7-3 58.6-20.2 13.8-18.4 15.3-43.7 6.4-64.1-4.7-10.6-12.2-20-21.1-28-9.1-8.2-19.9-16.2-32.3-19.7-22.1-6.3-51.7 2-63.4 21.1-12.3 20.1-3.3 47 8.5 65.6 11.4 17.9 32.5 28 55.1 25.5 23.6-2.6 40.4-18.6 41.3-40.5.8-21.2-8.9-47.5-30-58.4-18.7-9.6-41.3-6.5-55.7 8.2-15.3 15.5-15.1 36.2-3.8 53.9 11.5 17.9 40.2 31.1 60.6 16.6 17.7-12.6 10.4-38.3.4-53.2-5.6-8.3-15.9-18.3-27.7-15.7-9.4 2.1-15.7 10.7-18.7 18.7-3.7 9.7-5.3 22.5 2.1 31.1 6.3 7.3 17 9 24.8 2.8 7.5-5.9 10.5-15.5 6.7-24-3.5-7.8-13-12.8-20.6-6-2.2 1.9-4.2 4.7-4.2 7.5 0 4 4 7.3 8.3 6.3 1.8-.4 4.1-5 3.3-4.9-5.3 1.2-10.7-6.4-3.9-7.3 5-.7 9.2 2.6 11.5 6.3 2.6 4.1 4.1 9.9 2.2 14.5-2.8 6.7-10.7 8.2-17.3 5.4-19.9-8.5-13.6-51.7 10.7-45.1 18.2 5 27.3 27.6 28.7 43.3.5 6.2-.1 13.3-6.1 17.2-4.6 2.9-10.5 4.1-16 4.3-10.1.3-20.1-3-28-8.6-14.4-10.3-24.8-30.8-20.1-47.5 5.1-17.8 25.7-27 44.6-23.6 20.1 3.6 32.7 17.8 39 34.9 3.4 9.2 5.7 19 5 28.8-.4 5.2-1.5 10.7-4.2 15.4-3.3 5.8-9.5 9.4-15.9 11.8-16 6.2-35.3 4.3-49.9-4.2-17.1-10-25.6-29.1-30.2-46.5-2.5-9.6-3.3-20 .7-29.4 4.7-11 17.5-16.5 29.2-19.4 22.5-5.6 41.9 3.4 58.3 17.1 14.9 12.4 26 28.3 28.8 46.8 3 19.8-2.4 45-24.2 53.8-33.4 13.5-75.3.7-95.4-26.7-10.3-14.1-15.2-31.5-13.9-48.5.7-9.2 3.4-18 7.5-26.4 4.3-8.8 9.5-18.6 17.2-25.3 15.7-13.9 42.4-9.5 60.3-2.1 18.3 7.5 33.8 20.2 46.7 34.1 6.3 6.9 11.6 14.5 12.6 23.7.1.8 4.3-2.6 4.2-4.2-1.4-11.9-9.6-21.1-17.9-29.4z" fill="#e5ccb8"/><g class="B"><path opacity=".57" d="M825.4 329.5h-2l3 88-37 76s-.2 0-.5-.1c12 5.6 25.5 8.6 39.7 8.1 45.2-1.7 81.8-38.8 82.8-84 1-48.4-37.9-88-86-88z" fill="#545454" stroke="#545454"/><g stroke="#e5ccb8" stroke-width="1.2"><path d="M822.4 329.5l4 88m69-56l-69 56"/><path d="M756.4 363.5l70 54m-85 17l85-17m-38 76l38-76m35 76l-35-76m84 18l-84-18"/></g></g></g><defs><filter id="A" x="300" y="11" width="509" height="480" filterUnits="userSpaceOnUse" color-interpolation-filters="sRGB"><feFlood flood-opacity="0" result="A"/><feColorMatrix in="SourceAlpha" values="0 0 0 0 0 0 0 0 0 0 0 0 0 0 0 0 0 0 127 0" result="B"/><feOffset dy="4"/><feGaussianBlur stdDeviation="10"/><feComposite in2="B" operator="out"/><feColorMatrix values="0 0 0 0 0 0 0 0 0 0 0 0 0 0 0 0 0 0 0.1 0"/><feBlend in2="A"/><feBlend in="SourceGraphic"/></filter><clipPath id="B"><path fill="#fff" transform="translate(670 274)" d="M0 0h253v238H0z"/></clipPath></defs></svg>