<svg width="248" height="249" viewBox="0 0 248 249" fill="none" xmlns="http://www.w3.org/2000/svg">
<circle cx="124" cy="124.5" r="124" fill="#FFF7CB"/>
<path d="M90.3327 39.5L35.5647 106.125L38.9524 106.69L98.2374 49.0985L90.3327 39.5Z" fill="#F2EDCD"/>
<path d="M92.5912 49.6631L37.8232 105.56L37.2585 106.69H46.8571L112.353 54.1802C112.165 53.8038 111.562 52.8251 110.659 51.9217C109.53 50.7925 105.013 49.6631 102.754 49.0985C100.948 48.6468 95.2261 49.2867 92.5912 49.6631Z" fill="#F2EDCD"/>
<path d="M200.998 171.056L119.693 47.4048L46.2924 104.996L35 106.125L109.53 219.614C110.471 220.366 113.03 222.098 115.741 223.001C118.451 223.905 122.14 223.378 123.645 223.001L200.998 171.056Z" fill="#F2EDCD"/>
<path d="M46.2924 104.996L35 106.125L109.53 219.614C111.224 220.555 114.837 222.55 115.741 223.001C116.644 223.453 121.01 223.189 123.081 223.001L46.2924 104.996Z" fill="#F2EDCD"/>
<path d="M96.3327 27.5L41.5647 94.125L44.9524 94.6897L104.237 37.0985L96.3327 27.5Z" fill="#C2774A"/>
<path d="M98.5912 37.6631L43.8232 93.5604L43.2585 94.6897H52.8571L118.353 42.1802C118.165 41.8038 117.562 40.8251 116.659 39.9217C115.53 38.7925 111.013 37.6631 108.754 37.0985C106.948 36.6468 101.226 37.2867 98.5912 37.6631Z" fill="white"/>
<path d="M206.998 159.056L125.693 35.4048L52.2924 92.9959L41 94.1252L115.53 207.614C116.471 208.366 119.03 210.098 121.741 211.001C124.451 211.905 128.14 211.378 129.645 211.001L206.998 159.056Z" fill="#D98355"/>
<path d="M100.285 39.9216L48.3401 91.8666M50.5986 91.8666L105.367 39.9216M52.857 91.8666L112.707 41.0509" stroke="black"/>
<path d="M52.2924 92.9958L41 94.1251L115.53 207.614C117.224 208.555 120.837 210.55 121.741 211.001C122.644 211.453 127.01 211.189 129.081 211.001L52.2924 92.9958Z" fill="#C2774A"/>
<path d="M63.02 91.8665L123.999 47.8262M129.08 50.0846L196.27 155.668M63.02 96.948L130.774 201.967M134.727 199.709C136.082 198.354 174.062 172.042 192.882 159.056" stroke="#003558"/>
<circle cx="171.5" cy="45" r="5" stroke="#00645C"/>
<circle cx="57.5" cy="201" r="5" stroke="#00645C"/>
<rect x="213.364" y="183.207" width="8" height="8" transform="rotate(45 213.364 183.207)" stroke="#20766A"/>
<rect x="41.364" y="54.2071" width="8" height="8" transform="rotate(45 41.364 54.2071)" stroke="#20766A"/>
</svg>
