<svg xmlns="http://www.w3.org/2000/svg" width="35" height="35" fill="none" xmlns:v="https://vecta.io/nano"><path d="M17.5 0C7.836 0 0 7.836 0 17.5S7.836 35 17.5 35 35 27.164 35 17.5 27.164 0 17.5 0zm11.307 26.695c-.381-.855-1.151-1.445-2.729-1.81-3.344-.772-6.457-1.448-4.948-4.295 4.587-8.665 1.215-13.299-3.63-13.299-4.941 0-8.231 4.811-3.63 13.299 1.555 2.864-1.674 3.539-4.948 4.295-1.581.365-2.345.96-2.723 1.817-2.049-2.513-3.283-5.715-3.283-9.202 0-8.041 6.542-14.583 14.583-14.583S32.083 9.459 32.083 17.5c0 3.484-1.232 6.683-3.277 9.195z" fill="#4d4d4d"/></svg>