<?xml version="1.0" encoding="UTF-8" standalone="no"?>
<svg width="76px" height="76px" viewBox="0 0 76 76" version="1.1" xmlns="http://www.w3.org/2000/svg" xmlns:xlink="http://www.w3.org/1999/xlink" xmlns:sketch="http://www.bohemiancoding.com/sketch/ns">
    <!-- Generator: Sketch 3.3.3 (12081) - http://www.bohemiancoding.com/sketch -->
    <title>o_black</title>
    <desc>Created with Sketch.</desc>
    <defs></defs>
    <g id="Page-1" stroke="none" stroke-width="1" fill="none" fill-rule="evenodd" sketch:type="MSPage">
        <g id="Artboard-26" sketch:type="MSArtboardGroup" transform="translate(-689.000000, -1127.000000)">
            <g id="Logo" sketch:type="MSLayerGroup" transform="translate(203.000000, 1065.000000)">
                <g id="Fill-45-Copy-+-Oppia" sketch:type="MSShapeGroup">
                    <g id="o_black" transform="translate(488.000000, 64.000000)">
                        <circle id="Oval-325" stroke-opacity="0.87" stroke="#000000" stroke-width="2" fill="#FFFFFF" cx="36" cy="36" r="36"></circle>
                        <path d="M9,34.3701832 C9,30.8704816 9.66316668,27.3139789 10.9895199,23.7005685 C12.3158732,20.0871582 14.1938125,16.9665324 16.6233942,14.3385976 C21.7552657,8.77950474 28.3993282,6 36.5557809,6 C45.2328584,6 52.0380641,8.8426753 56.9716024,14.5281112 C61.6572242,19.9103238 64,26.9348903 64,35.6020215 C64,44.1933468 61.4217071,51.3821568 56.2650439,57.1686671 C53.8354623,59.8976763 50.9224871,62.0517925 47.5260311,63.6310802 C44.1295751,65.210368 40.6897853,66 37.2065585,66 C33.7233317,66 30.7545762,65.6272937 28.3002028,64.8818699 C25.8458295,64.1364461 23.6084167,63.0878147 21.5878972,61.7359444 C19.5673778,60.3840741 17.7762079,58.7732248 16.214334,56.9033481 C14.6524601,55.0334714 13.3385223,52.967794 12.2724814,50.7062539 C11.2064405,48.4447139 10.3945261,46.0315984 9.836714,43.4668351 C9.27890188,40.9020718 9,37.8698848 9,34.3701832 Z M19.0777552,35.3367025 C19.0777552,38.2425919 19.4186353,40.9968284 20.1004057,43.5994946 C20.782176,46.2021608 21.8296075,48.5268375 23.2427316,50.5735944 C26.3664794,55.0461373 30.7669313,57.2823752 36.4442191,57.2823752 C42.1462985,57.2823752 46.5467503,55.1472102 49.6457066,50.8768162 C52.4967463,46.934914 53.9222448,41.8307325 53.9222448,35.5641188 C53.9222448,29.6512654 52.471955,24.774498 49.571332,20.9336702 C46.3732092,16.7643506 42.0099443,14.679722 36.4814064,14.679722 C31.1512017,14.679722 26.9118931,16.6253754 23.7633536,20.5167404 C20.6396057,24.3322996 19.0777552,29.2722375 19.0777552,35.3367025 Z" id="Path" fill-opacity="0.87" fill="#000000"></path>
                    </g>
                </g>
            </g>
        </g>
    </g>
</svg>