<?xml version="1.0" encoding="UTF-8" standalone="no"?>
<svg width="76px" height="76px" viewBox="0 0 76 76" version="1.1" xmlns="http://www.w3.org/2000/svg" xmlns:xlink="http://www.w3.org/1999/xlink" xmlns:sketch="http://www.bohemiancoding.com/sketch/ns">
    <!-- Generator: Sketch 3.3.3 (12081) - http://www.bohemiancoding.com/sketch -->
    <title>o_specs_black</title>
    <desc>Created with Sketch.</desc>
    <defs></defs>
    <g id="Page-1" stroke="none" stroke-width="1" fill="none" fill-rule="evenodd" sketch:type="MSPage">
        <g id="Artboard-26" sketch:type="MSArtboardGroup" transform="translate(-599.000000, -1127.000000)">
            <g id="Logo" sketch:type="MSLayerGroup" transform="translate(203.000000, 1065.000000)">
                <g id="Fill-45-Copy-+-Oppia" sketch:type="MSShapeGroup">
                    <g id="o_specs_black" transform="translate(398.000000, 64.000000)">
                        <circle id="Oval-325" stroke-opacity="0.87" stroke="#000000" stroke-width="2" fill="#FFFFFF" cx="36" cy="36" r="36"></circle>
                        <path d="M9.836714,43.4668351 C9.27890188,40.9020718 9,37.8698848 9,34.3701832 C9,30.8704816 9.66316668,27.3139789 10.9895199,23.7005685 C12.3158732,20.0871582 14.1938125,16.9665324 16.6233942,14.3385976 C21.7552657,8.77950474 28.3993282,6 36.5557809,6 C45.2328584,6 52.0380641,8.8426753 56.9716024,14.5281112 C61.6572242,19.9103238 64,26.9348903 64,35.6020215 C64,44.1933468 61.4217071,51.3821568 56.2650439,57.1686671 C53.8354623,59.8976763 50.9224871,62.0517925 47.5260311,63.6310802 C44.1295751,65.210368 40.6897853,66 37.2065585,66 C33.7233317,66 30.7545762,65.6272937 28.3002028,64.8818699 C25.8458295,64.1364461 23.6084167,63.0878147 21.5878972,61.7359444 C19.5673778,60.3840741 17.7762079,58.7732248 16.214334,56.9033481 C14.6524601,55.0334714 13.3385223,52.967794 12.2724814,50.7062539 C11.2064405,48.4447139 10.3945261,46.0315984 9.836714,43.4668351 Z M19.0777552,35.3367025 C19.0777552,38.2425919 19.4186353,40.9968284 20.1004057,43.5994946 C20.782176,46.2021608 21.8296075,48.5268375 23.2427316,50.5735944 C26.3664794,55.0461373 30.7669313,57.2823752 36.4442191,57.2823752 C42.1462985,57.2823752 46.5467503,55.1472102 49.6457066,50.8768162 C52.4967463,46.934914 53.9222448,41.8307325 53.9222448,35.5641188 C53.9222448,29.6512654 52.471955,24.774498 49.571332,20.9336702 C46.3732092,16.7643506 42.0099443,14.679722 36.4814064,14.679722 C31.1512017,14.679722 26.9118931,16.6253754 23.7633536,20.5167404 C20.6396057,24.3322996 19.0777552,29.2722375 19.0777552,35.3367025 Z" id="Path" fill-opacity="0.87" fill="#000000"></path>
                        <g id="specs-copy" transform="translate(19.000000, 25.000000)">
                            <path d="M14.3925039,8.6638028 C14.6167443,8.07696316 14.7623172,7.47073297 14.8532812,6.91400383 C14.9750248,6.17180341 15.0000762,5.51843688 14.9999998,5.11864498 C14.9999998,4.86475505 14.9900709,4.71349309 14.9894599,4.70490135 L14.9875505,4.67754966 L14.9875505,4.65004032 C14.9873978,4.53251474 14.9696021,4.41837857 14.9326361,4.30014358 C14.8955172,4.18214506 14.8382351,4.06004773 14.7571236,3.93416689 C14.5958172,3.68264166 14.3353745,3.41724353 13.981371,3.17155122 C13.745827,3.00767753 13.470109,2.85239558 13.1604801,2.71279948 C12.7477433,2.52646114 12.2751277,2.36802626 11.759054,2.24868774 C11.0709048,2.08946463 10.3056157,1.99992133 9.50007641,2.00000016 C8.57493202,1.99984251 7.70271631,2.11823514 6.93979488,2.32404284 C6.17679708,2.52929878 5.52362818,2.82370389 5.03833408,3.15791479 C4.71427005,3.38019656 4.46627667,3.61926771 4.30038766,3.84982593 C4.20529934,3.98169735 4.13648443,4.11041584 4.0901241,4.23408963 C4.03734817,4.37597162 4.01267868,4.51083832 4.01244955,4.65004032 L4.01244955,4.67754966 L4.01046377,4.705059 L4.01031102,4.7071084 C4.01015826,4.71034016 4.00977638,4.71633073 4.00924175,4.72460718 C4.00840161,4.7412389 4.00702684,4.76772354 4.00565207,4.80327286 C4.00290253,4.8743715 4.00000023,4.98165004 4.00000023,5.11856615 C3.99992386,5.46302408 4.01848326,5.99539681 4.10150415,6.61084933 C4.1842959,7.22622302 4.33216014,7.92420355 4.58336132,8.59948297 C4.75070148,9.04987945 4.96356183,9.49002889 5.23057287,9.89297372 C5.58740228,10.4306276 6.0367232,10.9016758 6.61832764,11.2644996 C6.95117493,11.4718049 7.3286259,11.6443492 7.76389361,11.7710182 C8.26110239,11.9155802 8.8344582,11.9999212 9.50007641,12 C10.342429,11.9998424 11.0366883,11.8650545 11.6169943,11.6433245 C12.197224,11.420885 12.6663264,11.1115823 13.0596636,10.7416645 C13.321481,10.4948686 13.549082,10.2204846 13.7475072,9.92584305 C14.0120742,9.5329876 14.2242472,9.10403107 14.3925039,8.6638028" id="Fill-2" fill="#FFFFFF"></path>
                            <g id="Group-6">
                                <path d="M31.1935714,8.13666867 C31.426746,7.55362651 31.5779365,6.95131928 31.6724603,6.39819277 C31.7988889,5.66079518 31.8250794,5.01165663 31.8249206,4.61437349 C31.8249206,4.36220482 31.8146825,4.21192169 31.8140476,4.20338554 L31.8119841,4.17613253 L31.8119841,4.14887952 C31.8119048,4.03211446 31.7934921,3.91871687 31.7549206,3.80124699 C31.7162698,3.68401205 31.6568254,3.56270482 31.5725397,3.43763855 C31.4049206,3.18774096 31.1342857,2.92406024 30.7665079,2.67995783 C30.521746,2.51714458 30.2350794,2.36286747 29.9134127,2.2241747 C29.4845238,2.03904217 28.9934127,1.88163253 28.4572222,1.76306627 C27.7421429,1.60487349 26.9468254,1.51590964 26.1096825,1.51598795 C25.1483333,1.51583133 24.2420635,1.63345783 23.4492857,1.83793373 C22.6565079,2.04186145 21.9776984,2.33436145 21.4734127,2.66640964 C21.1366667,2.88725301 20.8789683,3.12477711 20.7066667,3.35384337 C20.6077778,3.48486145 20.5362698,3.61274699 20.4881746,3.73562048 C20.433254,3.87658434 20.4076984,4.01057831 20.4074603,4.14887952 L20.4074603,4.17628916 L20.4053175,4.20322892 L20.4052381,4.20557831 C20.405,4.20886747 20.4046825,4.21474096 20.4042063,4.22296386 C20.4031746,4.23948795 20.4018254,4.2658012 20.4003175,4.30112048 C20.3975397,4.37175904 20.3945238,4.47834337 20.3945238,4.61445181 C20.3944444,4.95660241 20.4136508,5.48553012 20.5,6.097 C20.5859524,6.70839157 20.7396032,7.40185542 21.0006349,8.07284337 C21.1746032,8.5203253 21.3957143,8.95754819 21.6731746,9.35788554 C22.0439683,9.89206024 22.5109524,10.3600602 23.1152381,10.7205361 C23.4610317,10.9265 23.8533333,11.0979277 24.3055556,11.2237771 C24.8223016,11.3674036 25.4180952,11.4511988 26.1096825,11.4512771 C26.9851587,11.4511205 27.7065873,11.3172048 28.3094444,11.0969096 C28.9124603,10.8759096 29.3999206,10.5686084 29.8086508,10.2010843 C30.0807937,9.95588554 30.3172222,9.68327711 30.5234921,9.39046386 C30.7983333,9.00022892 31.0188095,8.57404819 31.1935714,8.13666867" id="Fill-3" fill="#FFFFFF"></path>
                                <path d="M29.8086508,10.2010843 C29.3999206,10.5686084 28.9124603,10.8759096 28.3094444,11.0969096 C27.7065873,11.3172048 26.9851587,11.4511205 26.1096825,11.4512771 C25.4180952,11.4511988 24.8223016,11.3674036 24.3055556,11.2237771 C23.8533333,11.0979277 23.4610317,10.9265 23.1152381,10.7205361 C22.5109524,10.3600602 22.0439683,9.89206024 21.6731746,9.35788554 C21.3957143,8.95754819 21.1746032,8.5203253 21.0006349,8.07284337 C20.7396032,7.40185542 20.5859524,6.70839157 20.5,6.097 C20.4136508,5.48553012 20.3944444,4.95660241 20.3945238,4.61445181 C20.3945238,4.47834337 20.3975397,4.37175904 20.4003175,4.30112048 C20.4018254,4.2658012 20.4031746,4.23948795 20.4042063,4.22296386 C20.4046825,4.21474096 20.405,4.20886747 20.4052381,4.20557831 L20.4053175,4.20322892 L20.4074603,4.17628916 L20.4074603,4.14887952 C20.4076984,4.01057831 20.433254,3.87658434 20.4881746,3.73562048 C20.5362698,3.61274699 20.6077778,3.48486145 20.7066667,3.35384337 C20.8789683,3.12477711 21.1366667,2.88725301 21.4734127,2.66640964 C21.9776984,2.33436145 22.6565079,2.04186145 23.4492857,1.83793373 C24.2420635,1.63345783 25.1483333,1.51583133 26.1096825,1.51598795 C26.9468254,1.51590964 27.7421429,1.60487349 28.4572222,1.76306627 C28.9934127,1.88163253 29.4845238,2.03904217 29.9134127,2.2241747 C30.2350794,2.36286747 30.521746,2.51714458 30.7665079,2.67995783 C31.1342857,2.92406024 31.4049206,3.18774096 31.5725397,3.43763855 C31.6568254,3.56270482 31.7162698,3.68401205 31.7549206,3.80124699 C31.7934921,3.91871687 31.8119048,4.03211446 31.8119841,4.14887952 L31.8119841,4.17613253 L31.8140476,4.20338554 C31.8146825,4.21192169 31.8249206,4.36220482 31.8249206,4.61437349 C31.8250794,5.01165663 31.7988889,5.66079518 31.6724603,6.39819277 C31.5779365,6.95131928 31.426746,7.55362651 31.1935714,8.13666867 C31.0188095,8.57404819 30.7983333,9.00022892 30.5234921,9.39046386 C30.3172222,9.68327711 30.0807937,9.95588554 29.8086508,10.2010843 L29.8086508,10.2010843 Z M16.1127778,3.93022892 L16.1127778,3.93022892 L16.1223778,3.93102892 L16.1127778,3.93022892 L16.1127778,3.93022892 Z M12.6203968,10.2010843 C12.2116667,10.5686084 11.7242063,10.8759096 11.1212698,11.0969096 C10.518254,11.3172048 9.7968254,11.4511205 8.92150794,11.4512771 C8.22984127,11.4511988 7.63404762,11.3674036 7.11738095,11.2237771 C6.66507937,11.0979277 6.27285714,10.9265 5.92698413,10.7205361 C5.32261905,10.3600602 4.85571429,9.89206024 4.48492063,9.35788554 C4.20746032,8.95754819 3.98626984,8.52024699 3.81238095,8.07276506 C3.55134921,7.40185542 3.39769841,6.70839157 3.31166667,6.097 C3.22539683,5.48553012 3.20611111,4.95660241 3.20619048,4.61437349 C3.20619048,4.47834337 3.20920635,4.37175904 3.21206349,4.30112048 C3.21349206,4.2658012 3.21492063,4.23948795 3.21579365,4.22296386 C3.21634921,4.21474096 3.21674603,4.20878916 3.21690476,4.20557831 L3.21706349,4.20354217 L3.21912698,4.17621084 L3.21912698,4.14887952 C3.21936508,4.01057831 3.245,3.87658434 3.29984127,3.73562048 C3.34801587,3.61274699 3.41952381,3.48486145 3.51833333,3.35384337 C3.69071429,3.12477711 3.9484127,2.88725301 4.28515873,2.66640964 C4.78944444,2.33436145 5.4681746,2.04186145 6.26103175,1.83793373 C7.05380952,1.63345783 7.96015873,1.51583133 8.92150794,1.51598795 C9.75857143,1.51590964 10.5538095,1.60487349 11.2688889,1.76306627 C11.8051587,1.88163253 12.2962698,2.03904217 12.7251587,2.2241747 C13.0469048,2.36286747 13.3334127,2.51714458 13.5781746,2.67995783 C13.9460317,2.92406024 14.2166667,3.18774096 14.3842857,3.43763855 C14.4685714,3.56270482 14.5280952,3.68401205 14.5666667,3.80124699 C14.6050794,3.91871687 14.6235714,4.03211446 14.6237302,4.14887952 L14.6237302,4.17621084 L14.6257143,4.20338554 C14.6263492,4.21192169 14.6366667,4.36220482 14.6366667,4.61445181 C14.636746,5.01165663 14.6107143,5.66079518 14.4842063,6.39819277 C14.3896825,6.95131928 14.2384127,7.55362651 14.0053968,8.13666867 C13.8305556,8.57404819 13.6100794,9.00022892 13.3351587,9.39054217 C13.1289683,9.68327711 12.8924603,9.95588554 12.6203968,10.2010843 L12.6203968,10.2010843 Z M34.313254,2.0386506 C34.3051587,2.03739759 34.077619,2.0038012 33.748254,1.97012651 C33.7140476,1.96660241 33.678254,1.96315663 33.6419841,1.95963253 C33.1728571,1.89087349 32.1859524,1.69227108 31.1004762,1.15355422 C30.525,0.843042169 29.8683333,0.592831325 29.1489683,0.406993976 C28.2229365,0.168451807 27.1943651,0.0371204819 26.1096825,0.0369638554 C25.1651587,0.0370421687 24.2631746,0.13673494 23.4345238,0.319831325 C22.8129365,0.457271084 22.232619,0.641698795 21.7055556,0.868963855 C21.3103175,1.03953012 20.945,1.23421687 20.6151587,1.45357229 C20.5860317,1.47299398 20.5580159,1.49327711 20.5295238,1.51309036 L20.5296825,1.5115241 C20.5296825,1.5115241 20.5180159,1.52045181 20.497381,1.53533133 C20.4777778,1.54911446 20.457619,1.56242771 20.4381746,1.57636747 C20.2010317,1.73581325 19.5434921,2.12158434 18.9653968,1.94365663 C18.9439683,1.93551205 18.921746,1.92830723 18.8999206,1.92078916 C18.8933333,1.91820482 18.8866667,1.91616867 18.8800794,1.91342771 C18.8798413,1.91350602 18.8796032,1.91366265 18.8794444,1.91374096 C18.6034127,1.8211747 18.2919841,1.77019277 17.9500794,1.77058434 L17.0811111,1.77058434 C16.8271429,1.77058434 16.5901587,1.79768072 16.371746,1.84991566 C16.2959524,1.86800602 16.2230952,1.88993373 16.1519841,1.91381928 C16.1516667,1.91366265 16.1514286,1.91358434 16.1511111,1.91342771 C16.1454762,1.91577711 16.1396825,1.9175 16.134127,1.91969277 C16.1130159,1.9269759 16.0921429,1.93425904 16.0715079,1.94201205 C15.482619,2.12714458 14.8098413,1.72390964 14.5819841,1.56892771 C14.5603175,1.55342169 14.5384127,1.53799398 14.5163492,1.52272289 C14.5069841,1.51575301 14.5015079,1.5115241 14.5015079,1.5115241 L14.5015873,1.51262048 C14.464127,1.4866988 14.4268254,1.46062048 14.3884127,1.4353253 C13.7107937,0.99089759 12.886746,0.646162651 11.9607143,0.406993976 C11.0347619,0.168451807 10.0061905,0.0370421687 8.92150794,0.0369638554 C7.97698413,0.0370421687 7.075,0.13673494 6.24626984,0.319831325 C5.62468254,0.457271084 5.04436508,0.641698795 4.51730159,0.868963855 C4.30833333,0.95910241 4.1084127,1.0565241 3.91698413,1.16028916 C2.83690476,1.69383735 1.85634921,1.89110843 1.38904762,1.95963253 C1.35293651,1.96315663 1.31714286,1.96660241 1.28293651,1.97012651 C0.953571429,2.0038012 0.726031746,2.03739759 0.717857143,2.0386506 C0.308571429,2.09903012 0.0264285714,2.47563855 0.0876984127,2.8795 C0.149047619,3.28336145 0.530555556,3.56176506 0.93984127,3.50130723 C0.941507937,3.50107229 0.966349206,3.49739157 1.00904762,3.4916747 C1.42888889,3.45314458 1.72666667,3.56654217 1.72833333,3.94816265 C1.72388889,4.00306024 1.72166667,4.05819277 1.72095238,4.11348193 C1.71722222,4.17033735 1.70730159,4.34701205 1.70730159,4.61437349 C1.70746032,5.07430723 1.73634921,5.80089759 1.88071429,6.64464458 C1.98928571,7.27757229 2.16261905,7.97683133 2.4431746,8.67914458 C2.65365079,9.20587952 2.92484127,9.73457229 3.27674603,10.2343675 C3.54055556,10.6091747 3.85007937,10.9674578 4.21190476,11.2933976 C4.75428571,11.7825422 5.41579365,12.1970542 6.20071429,12.483759 C6.98563492,12.7709337 7.89079365,12.9305361 8.92150794,12.9303012 C9.73595238,12.9303795 10.4715873,12.831 11.1321429,12.6472771 C11.7098413,12.4868916 12.2294444,12.2615843 12.6905556,11.9867048 C13.4986508,11.5057831 14.1231746,10.8747349 14.5953175,10.1927048 C14.9498413,9.68077108 15.2210317,9.13986145 15.4299206,8.60239759 C15.5031746,8.4139759 15.5680952,8.22594578 15.6269048,8.03956024 C15.9303175,7.98215663 16.1784921,7.74283133 16.2273016,7.42440964 C16.3998413,6.29803012 16.5948413,5.02575301 16.5948413,5.02575301 C16.6480952,4.67804217 16.4462698,4.35077108 16.1279365,4.22750602 C16.1254762,4.17088554 16.1230952,4.13110241 16.121746,4.1103494 C16.1209524,4.05427711 16.1181746,3.99851807 16.1136508,3.94299398 L16.1192857,3.9436988 C16.119127,3.94354217 16.1265079,3.88613855 16.1511905,3.81111446 C16.1694444,3.75480723 16.1972222,3.68886747 16.235,3.62668675 C16.263254,3.57977711 16.2968254,3.53506024 16.336746,3.49410241 C16.3972222,3.43286145 16.4696032,3.37874699 16.5813492,3.33277711 C16.693254,3.28751205 16.8493651,3.24992169 17.0811111,3.24953012 L17.9500794,3.24953012 C18.0964286,3.24960843 18.2130159,3.26511446 18.3068254,3.28743373 C18.3889683,3.30716867 18.4539683,3.33199398 18.5080952,3.35909036 C18.6024603,3.40670482 18.6665873,3.46121084 18.7209524,3.52292169 C18.7611905,3.56920482 18.7946032,3.62003012 18.8215079,3.67171687 C18.8621429,3.74885542 18.8872222,3.82803012 18.8998413,3.88136145 C18.9062698,3.90798795 18.9096825,3.92795783 18.9110317,3.93751205 L18.911746,3.94260241 L18.9119048,3.94362048 L18.9169841,3.94307229 C18.9123016,3.99953614 18.9100794,4.05639157 18.9092063,4.11348193 C18.9077778,4.13486145 18.9055556,4.17339157 18.903254,4.22750602 C18.5849206,4.35077108 18.3830952,4.67804217 18.4363492,5.02575301 C18.4363492,5.02575301 18.6312698,6.29803012 18.8038889,7.42440964 C18.8527778,7.74290964 19.1010317,7.98231325 19.4045238,8.03956024 C19.4713492,8.25139759 19.545873,8.46503614 19.6314286,8.67914458 C19.8419841,9.20587952 20.1131746,9.73457229 20.465,10.2343675 C20.7288889,10.6091747 21.0383333,10.9674578 21.4002381,11.2933976 C21.9425397,11.7825422 22.604127,12.1970542 23.3889683,12.483759 C24.1738095,12.7709337 25.0789683,12.9305361 26.1096825,12.9303012 C26.9242063,12.9303795 27.6599206,12.831 28.3203968,12.6472771 C28.8980952,12.4868916 29.4176984,12.2615843 29.8788889,11.9867048 C30.6869048,11.5057831 31.3114286,10.8747349 31.7835714,10.1927048 C32.1381746,9.68077108 32.4092857,9.13978313 32.618254,8.60239759 C32.9314286,7.79608434 33.1057143,6.99705422 33.2040476,6.30077108 C33.3021429,5.60456627 33.3238095,5.01056024 33.3238889,4.61437349 C33.3238889,4.34223494 33.3135714,4.16383735 33.31,4.1103494 C33.3092063,4.05842771 33.306746,4.00658434 33.3027778,3.95513253 C33.3007143,3.56787349 33.5996825,3.45290964 34.0221429,3.4916747 C34.0361905,3.49363253 34.0488095,3.49535542 34.0588095,3.49676506 C34.0703175,3.49833133 34.0788889,3.49958434 34.0843651,3.50036747 L34.0902381,3.5011506 L34.0913492,3.50130723 C34.5006349,3.56176506 34.8821429,3.28336145 34.9434127,2.8795 C35.0047619,2.47563855 34.722619,2.09903012 34.313254,2.0386506 L34.313254,2.0386506 Z" id="Fill-5" fill="#1A1918"></path>
                            </g>
                        </g>
                    </g>
                </g>
            </g>
        </g>
    </g>
</svg>