<svg xmlns="http://www.w3.org/2000/svg" xmlns:xlink="http://www.w3.org/1999/xlink" viewBox="0 0 265.8 311" xmlns:v="https://vecta.io/nano"><style><![CDATA[.B,.F{isolation:isolate}]]></style><path d="M0 0h265.8v311H0z" fill="#afd2eb"/><path class="B" d="M20.2 54.1h200v239.1h-200z" opacity=".22"/><path d="M22.1 50.9h200v240h-200z" fill="#fff"/><path d="M22 50.9h200v144H22z" fill="#9d6901"/><path d="M123.2 86.4a31.7 31.7 0 1 0 31.9 31.5 31.77 31.77 0 0 0-31.9-31.5zm-.2 7.9h.8a2.17 2.17 0 0 1 1 1.9v3.6c0 1.1-.5 1.8-1.4 1.8s-1.3-.6-1.3-1.8v-3.7a1.75 1.75 0 0 1 .9-1.8zm-20.2 12.5c.9-1 1.3-1.1 2.5-.5a17.5 17.5 0 0 1 3.4 1.5 1.55 1.55 0 0 1 1.1 1.8 1.48 1.48 0 0 1-2.1.7l-4.1-1.9a6 6 0 0 1-.8-.8v-.8zm6.4 13.1l-4.4.7a1.83 1.83 0 0 1-1.8-.9v-.6a2 2 0 0 1 1.9-1.1 28.68 28.68 0 0 1 3.1-.5c.3 0 .6-.1 1-.1a1.39 1.39 0 0 1 1.6 1.1c.1.7-.7 1.2-1.4 1.4zm1.8-22.5a1.76 1.76 0 0 1 1.6.1c1.1 1.4 2 3 3 4.4a2.18 2.18 0 0 1 .1.6 2.28 2.28 0 0 1-.8.9 1.21 1.21 0 0 1-1.3-.1c-1.1-1.4-2-2.8-3-4.3a1 1 0 0 1 .4-1.6zm16.3 42.6h-8.2a1 1 0 0 1-1.2-1c-.1-2.1-.1-2.1 2-2.1h7.9c1.2 0 1.3 0 1.4 1.2.1 1.9.1 1.9-1.9 1.9zm0-4.3h-8.2a1 1 0 0 1-1.2-1c-.1-2.1-.1-2.1 2-2.1h7.9c1.2 0 1.3 0 1.4 1.2.1 1.8.1 1.8-1.9 1.9zm7.3-21.8a15.27 15.27 0 0 1-1.6 6 36.08 36.08 0 0 0-3.7 9.4c-.2 1.3-.4 1.4-1.8 1.4h-8.2a1.13 1.13 0 0 1-1.3-.9c-.2-.8-.5-1.5-.6-2.2a32.18 32.18 0 0 0-3.1-7.4 13.9 13.9 0 0 1-1.8-8 8.57 8.57 0 0 1 6.1-7.8 15 15 0 0 1 9.6-.1 9.33 9.33 0 0 1 6.4 9.6zm1.4-14.8a28.16 28.16 0 0 1-2.4 3.6 1.34 1.34 0 0 1-2.1.4c-.7-.4-.8-1.2-.3-2.1a26.37 26.37 0 0 1 2.3-3.5 2.06 2.06 0 0 1 1.7-.7c.4 0 .7.7 1 1a1.86 1.86 0 0 1-.2 1.3zm8.1 20.2a1.68 1.68 0 0 1-2.1 1l-4.1-.6a1.46 1.46 0 0 1-1.3-1.6 1.29 1.29 0 0 1 1.5-1.2l4.6.8a4.7 4.7 0 0 1 1.2.9 1.08 1.08 0 0 1 .2.7zm-.1-12a7.41 7.41 0 0 1-1.3 1.2c-1 .6-2.1 1-3.2 1.6a1.63 1.63 0 0 1-2.4-.6c-.3-.7.1-1.5 1.1-2s2.3-.9 3.5-1.5 1.6-.4 2.4.7a1.27 1.27 0 0 0-.1.6z" fill="#fff"/><g class="F" fill="#fff"><path d="M38.27 172a.7.7 0 0 1 .74-.85h.28a.78.78 0 0 1 .39.07 1.25 1.25 0 0 1 .38.39l4.4 6.48a4.86 4.86 0 0 1 .4.68l.28.59h0a.36.36 0 0 0 0-.18q0-.18-.07-.52A4.18 4.18 0 0 1 45 178v-6.4a.43.43 0 0 1 .11-.3.33.33 0 0 1 .26-.12h.9a.32.32 0 0 1 .25.12.43.43 0 0 1 .11.3v9.4a.54.54 0 0 1-.17.42.82.82 0 0 1-.52.26h-.38a.89.89 0 0 1-.5-.11 3.12 3.12 0 0 1-.57-.67q-3.9-5.71-4.18-6.17l-.57-1h0v.1c0 .1 0 .18.06.34s0 .34.07.54q.07.68.07 1.27v5.24a.43.43 0 0 1-.11.29.33.33 0 0 1-.26.12h-.9a.32.32 0 0 1-.25-.12.43.43 0 0 1-.11-.29V172zm12.39 6.18v.13a2 2 0 0 0 .59 1.5 2.32 2.32 0 0 0 1.69.6 3.09 3.09 0 0 0 1.8-.58.51.51 0 0 1 .28-.11.41.41 0 0 1 .38.25l.18.38a.71.71 0 0 1 .06.29.52.52 0 0 1-.14.33 1.45 1.45 0 0 1-.37.3 2.74 2.74 0 0 1-.52.24 5.46 5.46 0 0 1-.61.17 6.19 6.19 0 0 1-1.31.14 3.91 3.91 0 0 1-1.38-.26 3.36 3.36 0 0 1-1.2-.76 3.82 3.82 0 0 1-1.11-2.85q0-3.17 2.23-3.94a4.39 4.39 0 0 1 1.43-.24 4.35 4.35 0 0 1 1.25.16 2.57 2.57 0 0 1 .89.46 2.21 2.21 0 0 1 .79 1.81 2 2 0 0 1-.93 1.74 3.9 3.9 0 0 1-2.15.53 7.27 7.27 0 0 1-1.85-.29zm3.36-2q0-1-1.31-1a1.82 1.82 0 0 0-1.75.92 2.14 2.14 0 0 0-.23.79 3.34 3.34 0 0 0 1.5.29q1.77.03 1.77-.99zM68 174a.38.38 0 0 1 .44.41 14.59 14.59 0 0 1-.67 3.89 8.37 8.37 0 0 1-1.32 2.8 1.51 1.51 0 0 1-1.18.7 1.42 1.42 0 0 1-1-.31 1.68 1.68 0 0 1-.48-.9q-.37-1.54-.52-2.1l-.26-1-.17-.59v.18l-.06.27-.14.59a16.89 16.89 0 0 1-.64 1.96q-.22.5-.38.78a3 3 0 0 1-.37.52 1.43 1.43 0 0 1-1.08.55 1.47 1.47 0 0 1-1.53-1.31q-.35-1.47-.79-2.91l-.85-2.89a.83.83 0 0 1 0-.27.39.39 0 0 1 .46-.42h.81a.59.59 0 0 1 .56.51q.4 1.4.7 2.75l.47 2.7a.26.26 0 0 0 .19.25.38.38 0 0 0 .28-.27q.13-.27.29-.65l.3-.83.28-.92.25-1q.23-1 .38-1.78v-.29a.61.61 0 0 1 .72-.41 1.8 1.8 0 0 1 .55.05.94.94 0 0 1 .43.57q.17.46.37 1.12.2.66.38 1.37.58 1.88.75 2.88a.2.2 0 0 0 .14.2.58.58 0 0 0 .33-.36 6.07 6.07 0 0 0 .41-1 13 13 0 0 0 .37-1.37 16.3 16.3 0 0 0 .36-3 .39.39 0 0 1 .3-.43h.14.78z"/><use xlink:href="#B"/><path d="M82.85 177.78a4.35 4.35 0 0 1 .3-1.63 3.79 3.79 0 0 1 .82-1.27 4.13 4.13 0 0 1 5.61 0 4.11 4.11 0 0 1 1 2.91 4 4 0 0 1-1.11 2.93 4 4 0 0 1-5.54 0 4.07 4.07 0 0 1-1.08-2.94zM85 176a2.64 2.64 0 0 0-.37.86 4.16 4.16 0 0 0-.12 1 3.35 3.35 0 0 0 .13.95 2.52 2.52 0 0 0 .4.81 1.94 1.94 0 0 0 1.64.78 1.88 1.88 0 0 0 1.63-.77 3 3 0 0 0 .49-1.83 2.52 2.52 0 0 0-1.13-2.39 2.26 2.26 0 0 0-2 0 1.94 1.94 0 0 0-.67.59z"/><use xlink:href="#C"/><use xlink:href="#C" x="4.71"/><path d="M103.11 178.18v.13a2 2 0 0 0 .59 1.5 2.32 2.32 0 0 0 1.69.6 3.09 3.09 0 0 0 1.8-.58.51.51 0 0 1 .28-.11.41.41 0 0 1 .38.25l.18.38a.71.71 0 0 1 .06.29.52.52 0 0 1-.14.33 1.45 1.45 0 0 1-.37.3 2.74 2.74 0 0 1-.52.24 5.46 5.46 0 0 1-.61.17 6.19 6.19 0 0 1-1.31.14 3.91 3.91 0 0 1-1.38-.26 3.36 3.36 0 0 1-1.2-.76 3.82 3.82 0 0 1-1.09-2.86q0-3.17 2.23-3.94a4.39 4.39 0 0 1 1.43-.24 4.35 4.35 0 0 1 1.25.16 2.57 2.57 0 0 1 .89.46 2.21 2.21 0 0 1 .79 1.81 2 2 0 0 1-.93 1.74 3.9 3.9 0 0 1-2.15.53 7.27 7.27 0 0 1-1.87-.28zm3.36-2q0-1-1.31-1a1.82 1.82 0 0 0-1.75.92 2.14 2.14 0 0 0-.23.79 3.34 3.34 0 0 0 1.5.29q1.79.03 1.79-.99z"/><use xlink:href="#D"/><path d="M122.46 175a.36.36 0 0 1-.43.38h-1.93v4.29a.61.61 0 0 0 .69.7 2.36 2.36 0 0 0 1.14-.44.53.53 0 0 1 .3-.09.3.3 0 0 1 .26.23l.16.36a.91.91 0 0 1 .09.35.5.5 0 0 1-.22.33 2.2 2.2 0 0 1-.55.34 3.4 3.4 0 0 1-1.37.34 3 3 0 0 1-1-.13 1.61 1.61 0 0 1-.61-.38 2.05 2.05 0 0 1-.55-1.54v-4.36h-.57a.36.36 0 0 1-.43-.39v-.39a.35.35 0 0 1 .08-.25.61.61 0 0 1 .32-.14l.68-.2.26-1.61a.42.42 0 0 1 .37-.45h.57a.32.32 0 0 1 .26.13.5.5 0 0 1 .1.32v1.6H122a.36.36 0 0 1 .43.38v.62zm2.48-2.37a1.09 1.09 0 0 1-.79-.32 1.05 1.05 0 0 1-.33-.79 1.1 1.1 0 0 1 1.12-1.11 1 1 0 0 1 1 .67 1.12 1.12 0 0 1-.24 1.23 1.09 1.09 0 0 1-.76.32zm.8 7.15q0 .48.32.49a.61.61 0 0 0 .25-.06 1.17 1.17 0 0 1 .36-.12.27.27 0 0 1 .23.2l.21.48a.51.51 0 0 1 .05.22.72.72 0 0 1-.51.55 2.06 2.06 0 0 1-.95.25 2.23 2.23 0 0 1-.75-.1 1.11 1.11 0 0 1-.48-.34 2.56 2.56 0 0 1-.4-1.6v-5.35a.48.48 0 0 1 .11-.32.33.33 0 0 1 .26-.13h.92a.32.32 0 0 1 .26.13.5.5 0 0 1 .1.32v5.38zm2.6-2a4.35 4.35 0 0 1 .3-1.63 3.79 3.79 0 0 1 .82-1.27 4.13 4.13 0 0 1 5.61 0 4.11 4.11 0 0 1 1 2.91 4 4 0 0 1-1.11 2.93 4 4 0 0 1-5.54 0 4.07 4.07 0 0 1-1.08-2.94zm2.2-1.74a2.64 2.64 0 0 0-.37.86 4.16 4.16 0 0 0-.12 1 3.35 3.35 0 0 0 .13.95 2.52 2.52 0 0 0 .4.81 1.94 1.94 0 0 0 1.64.78 1.88 1.88 0 0 0 1.63-.77 3 3 0 0 0 .49-1.83 2.52 2.52 0 0 0-1.13-2.39 2.26 2.26 0 0 0-2 0 1.94 1.94 0 0 0-.68.55zm7.57-1.6a.43.43 0 0 1 .47-.49h.42a.52.52 0 0 1 .52.29 4.92 4.92 0 0 1 .33 1.08 2.82 2.82 0 0 1 1.83-1.44 3.76 3.76 0 0 1 1-.1 2.32 2.32 0 0 1 1.06.24 1.92 1.92 0 0 1 .77.67 4.09 4.09 0 0 1 .52 2.28v4.25a.45.45 0 0 1-.12.32.47.47 0 0 1-.36.13h-.67a.5.5 0 0 1-.38-.13.45.45 0 0 1-.12-.32V177q0-1.75-1.29-1.75a1.9 1.9 0 0 0-1.37.63 2.18 2.18 0 0 0-.66 1.57v3.8a.46.46 0 0 1-.12.32.45.45 0 0 1-.36.13h-.7a.48.48 0 0 1-.36-.13.45.45 0 0 1-.12-.32V177a13.79 13.79 0 0 0-.09-1.92c-.17-.35-.2-.56-.2-.64z"/></g><g class="F"><path d="M39.52 215.58a2.5 2.5 0 0 0 1.9.71 2.65 2.65 0 0 0 1.82-.53 2.59 2.59 0 0 0 .78-1.37.37.37 0 0 1 .13-.22.36.36 0 0 1 .23-.08H45a.31.31 0 0 1 .31.31 3.13 3.13 0 0 1-.45 1.42 3.39 3.39 0 0 1-1.27 1.18 4.31 4.31 0 0 1-2.18.5 4.17 4.17 0 0 1-2.06-.49 3.46 3.46 0 0 1-1.35-1.3 4.27 4.27 0 0 1-.53-2q0-.42 0-1.25 0-.83 0-1.25a4.26 4.26 0 0 1 .53-2 3.46 3.46 0 0 1 1.35-1.21 4.17 4.17 0 0 1 2.06-.49 4.3 4.3 0 0 1 2.18.5 3.39 3.39 0 0 1 1.29 1.24 3.13 3.13 0 0 1 .45 1.42.31.31 0 0 1-.31.31h-.64a.36.36 0 0 1-.23-.08.37.37 0 0 1-.13-.22 2.6 2.6 0 0 0-.78-1.37 2.65 2.65 0 0 0-1.82-.53 2.5 2.5 0 0 0-1.9.71 2.77 2.77 0 0 0-.72 1.9q0 .42 0 1.18 0 .76 0 1.18a2.77 2.77 0 0 0 .72 1.83zM51 210.24a.37.37 0 0 1 .11.27v.49a.38.38 0 0 1-.38.38h-.83a1.45 1.45 0 0 0-1.61 1.61V217a.38.38 0 0 1-.38.38h-.52A.38.38 0 0 1 47 217v-6.52a.38.38 0 0 1 .38-.38h.52a.38.38 0 0 1 .38.38v.43a1.75 1.75 0 0 1 .67-.62 2.29 2.29 0 0 1 1-.2h.73a.37.37 0 0 1 .32.15zm6.39.7a3.7 3.7 0 0 1 .87 2.59v.38a.38.38 0 0 1-.38.38h-4.82v.08a2 2 0 0 0 .57 1.45 1.91 1.91 0 0 0 1.39.52 2.6 2.6 0 0 0 1.08-.18 2.23 2.23 0 0 0 .69-.52.74.74 0 0 1 .2-.15.59.59 0 0 1 .25 0h.42a.38.38 0 0 1 .28.11.32.32 0 0 1 .1.27 1.53 1.53 0 0 1-.41.78 2.75 2.75 0 0 1-1 .67 4.18 4.18 0 0 1-1.59.27 3.08 3.08 0 0 1-1.6-.41 3 3 0 0 1-1.13-1.18 4 4 0 0 1-.5-1.64q0-.42 0-.64 0-.22 0-.64a3.76 3.76 0 0 1 .5-1.57 3.06 3.06 0 0 1 1.11-1.11A3.11 3.11 0 0 1 55 210a3 3 0 0 1 2.39.94zm-.39 2.17h0a1.79 1.79 0 0 0-.54-1.37 2 2 0 0 0-1.46-.54 2 2 0 0 0-1.38.52 1.8 1.8 0 0 0-.58 1.36h0H57zm7.27-.31v-.18a1.29 1.29 0 0 0-.46-1.06 1.81 1.81 0 0 0-1.18-.37 1.71 1.71 0 0 0-.87.19 2.11 2.11 0 0 0-.59.57.46.46 0 0 1-.18.15.7.7 0 0 1-.27 0h-.42a.38.38 0 0 1-.3-.1.31.31 0 0 1-.1-.27 1.48 1.48 0 0 1 .41-.83 2.79 2.79 0 0 1 1-.68 3.29 3.29 0 0 1 1.32-.27 3 3 0 0 1 2.11.73 2.62 2.62 0 0 1 .8 2V217a.38.38 0 0 1-.38.38h-.51a.38.38 0 0 1-.38-.38v-.57a1.64 1.64 0 0 1-1 .8 3.86 3.86 0 0 1-1.46.29 3 3 0 0 1-1.27-.26 2 2 0 0 1-.86-.71 1.77 1.77 0 0 1-.3-1 2 2 0 0 1 .78-1.64 4.62 4.62 0 0 1 2.09-.81zm0 1.12l-1.65.27a3.77 3.77 0 0 0-1.41.46.92.92 0 0 0-.5.79.82.82 0 0 0 .32.63 1.46 1.46 0 0 0 1 .28 2.34 2.34 0 0 0 1.64-.57 1.93 1.93 0 0 0 .63-1.5v-.35zm5.39 1.96a1.11 1.11 0 0 0 .93.32h.74a.38.38 0 0 1 .38.38v.42a.38.38 0 0 1-.38.38h-.88a2.24 2.24 0 0 1-1.75-.62 2.65 2.65 0 0 1-.56-1.83v-3.63h-1a.38.38 0 0 1-.38-.38v-.45a.38.38 0 0 1 .38-.38h1v-2.28a.38.38 0 0 1 .38-.38H69a.38.38 0 0 1 .38.38v2.28h1.78a.38.38 0 0 1 .38.38v.53a.38.38 0 0 1-.38.38h-1.75V215a1.5 1.5 0 0 0 .25.88zm8.68-4.94a3.7 3.7 0 0 1 .87 2.59v.38a.38.38 0 0 1-.38.38H74v.08a2 2 0 0 0 .57 1.45 1.91 1.91 0 0 0 1.39.52 2.6 2.6 0 0 0 1.08-.18 2.23 2.23 0 0 0 .69-.52.74.74 0 0 1 .2-.15.59.59 0 0 1 .25 0h.42a.38.38 0 0 1 .28.11.32.32 0 0 1 .1.27 1.53 1.53 0 0 1-.41.78 2.75 2.75 0 0 1-1 .67 4.18 4.18 0 0 1-1.59.27 3.08 3.08 0 0 1-1.6-.41 3 3 0 0 1-1.11-1.18 4 4 0 0 1-.5-1.64q0-.42 0-.64 0-.22 0-.64a3.76 3.76 0 0 1 .5-1.57 3.06 3.06 0 0 1 1.11-1.11A3.11 3.11 0 0 1 76 210a3 3 0 0 1 2.34.94zm-.34 2.17h0a1.79 1.79 0 0 0-.54-1.37 2 2 0 0 0-1.46-.54 2 2 0 0 0-1.38.52 1.8 1.8 0 0 0-.58 1.36h0H78zm10.65-.31v-.18a1.29 1.29 0 0 0-.46-1.06 1.81 1.81 0 0 0-1.19-.36 1.71 1.71 0 0 0-.87.19 2.11 2.11 0 0 0-.59.57.46.46 0 0 1-.18.15.7.7 0 0 1-.27 0h-.42a.38.38 0 0 1-.27-.11.31.31 0 0 1-.1-.27 1.48 1.48 0 0 1 .41-.83 2.79 2.79 0 0 1 1-.68A3.29 3.29 0 0 1 87 210a3 3 0 0 1 2.11.73 2.62 2.62 0 0 1 .8 2V217a.38.38 0 0 1-.38.38H89a.38.38 0 0 1-.38-.38v-.57a1.64 1.64 0 0 1-1 .8 3.86 3.86 0 0 1-1.46.29 3 3 0 0 1-1.27-.26 2 2 0 0 1-.86-.71 1.77 1.77 0 0 1-.3-1 2 2 0 0 1 .78-1.64 4.62 4.62 0 0 1 2.09-.81zm0 1.12l-1.65.27a3.77 3.77 0 0 0-1.41.46.92.92 0 0 0-.5.79.82.82 0 0 0 .32.63 1.46 1.46 0 0 0 1 .28 2.34 2.34 0 0 0 1.64-.57 1.93 1.93 0 0 0 .63-1.5v-.35zm11.56 1.33a.89.89 0 0 1 .2-.29.4.4 0 0 1 .27-.08h.42a.37.37 0 0 1 .27.11.32.32 0 0 1 .11.25 1.82 1.82 0 0 1-.38 1 3 3 0 0 1-1.09.92 3.54 3.54 0 0 1-1.68.38 3.38 3.38 0 0 1-1.72-.42 2.87 2.87 0 0 1-1.13-1.12 3.83 3.83 0 0 1-.43-1.65v-.64-.48a3.77 3.77 0 0 1 1-2.32 3 3 0 0 1 2.31-.9 3.56 3.56 0 0 1 1.67.37 2.92 2.92 0 0 1 1.08.91 2 2 0 0 1 .4 1 .31.31 0 0 1-.1.27.39.39 0 0 1-.27.11h-.42a.4.4 0 0 1-.27-.08.88.88 0 0 1-.2-.29 1.87 1.87 0 0 0-1.89-1.09 1.94 1.94 0 0 0-1.34.52 2.27 2.27 0 0 0-.66 1.57q0 .15 0 .5v.48a2.33 2.33 0 0 0 .67 1.57 1.92 1.92 0 0 0 1.34.52 1.87 1.87 0 0 0 1.84-1.12zm9.27-1.46q0 .34 0 .64a3.5 3.5 0 0 1-1 2.28 3.63 3.63 0 0 1-4.66 0 3.5 3.5 0 0 1-1-2.28v-.64-.67a3.43 3.43 0 0 1 1-2.28 3.65 3.65 0 0 1 4.68 0 3.43 3.43 0 0 1 1 2.28c-.03.2-.02.42-.02.67zm-1.9-2a2.2 2.2 0 0 0-2.9 0 2.36 2.36 0 0 0-.6 1.44v.6.57a2.36 2.36 0 0 0 .6 1.44 2.2 2.2 0 0 0 2.9 0 2.36 2.36 0 0 0 .6-1.44q0-.31 0-.57v-.6a2.36 2.36 0 0 0-.6-1.49zm4.81 5.51a.36.36 0 0 1-.27.11h-.52a.38.38 0 0 1-.38-.38v-9.18a.38.38 0 0 1 .38-.38h.52a.38.38 0 0 1 .38.38V217a.36.36 0 0 1-.11.3zm3.37 0a.36.36 0 0 1-.27.11H115a.38.38 0 0 1-.38-.38v-9.18a.38.38 0 0 1 .38-.38h.52a.38.38 0 0 1 .38.38V217a.36.36 0 0 1-.14.3z"/><use xlink:href="#E"/><use xlink:href="#F"/><path d="M135.69 215.88a1.11 1.11 0 0 0 .93.32h.74a.38.38 0 0 1 .38.38v.42a.38.38 0 0 1-.38.38h-.88a2.24 2.24 0 0 1-1.75-.62 2.65 2.65 0 0 1-.56-1.83v-3.63h-1a.38.38 0 0 1-.38-.38v-.45a.38.38 0 0 1 .38-.38h1v-2.28a.38.38 0 0 1 .38-.38h.52a.38.38 0 0 1 .38.38v2.28h1.78a.38.38 0 0 1 .38.38v.53a.38.38 0 0 1-.38.38h-1.78V215a1.5 1.5 0 0 0 .24.88zm4.76-6.97a.36.36 0 0 1-.27.11h-.8a.38.38 0 0 1-.38-.38v-.8a.38.38 0 0 1 .38-.38h.8a.38.38 0 0 1 .38.38v.8a.36.36 0 0 1-.11.27zm-.14 8.39a.36.36 0 0 1-.27.11h-.52a.38.38 0 0 1-.38-.38v-6.52a.38.38 0 0 1 .38-.38h.48a.38.38 0 0 1 .38.38V217a.36.36 0 0 1-.07.3zm8.54-3.51q0 .34 0 .64a3.5 3.5 0 0 1-1 2.28 3.63 3.63 0 0 1-4.66 0 3.5 3.5 0 0 1-1-2.28v-.64-.67a3.43 3.43 0 0 1 1-2.28 3.65 3.65 0 0 1 4.68 0 3.43 3.43 0 0 1 1 2.28c-.03.2-.02.42-.02.67zm-1.9-2a2.2 2.2 0 0 0-2.9 0 2.36 2.36 0 0 0-.59 1.44v.6.57a2.36 2.36 0 0 0 .59 1.44 2.2 2.2 0 0 0 2.9 0 2.36 2.36 0 0 0 .59-1.44q0-.31 0-.57v-.6a2.36 2.36 0 0 0-.54-1.49zM157 217.3a.36.36 0 0 1-.27.11h-.52a.38.38 0 0 1-.38-.38v-3.7a2.23 2.23 0 0 0-.52-1.6 2.17 2.17 0 0 0-2.88 0 2.22 2.22 0 0 0-.52 1.6V217a.38.38 0 0 1-.38.38H151a.38.38 0 0 1-.38-.38v-6.52a.38.38 0 0 1 .38-.38h.52a.38.38 0 0 1 .38.38v.43a2.41 2.41 0 0 1 .85-.68A2.91 2.91 0 0 1 154 210a3.19 3.19 0 0 1 1.57.38 2.67 2.67 0 0 1 1.07 1.08 3.45 3.45 0 0 1 .38 1.67V217a.36.36 0 0 1-.02.3zm11.84-3.51q0 .34 0 .64a3.5 3.5 0 0 1-1 2.28 3.63 3.63 0 0 1-4.66 0 3.5 3.5 0 0 1-1-2.28v-.64-.67a3.43 3.43 0 0 1 1-2.28 3.65 3.65 0 0 1 4.68 0 3.43 3.43 0 0 1 1 2.28c-.03.2-.02.42-.02.67zm-1.9-2a2.2 2.2 0 0 0-2.9 0 2.36 2.36 0 0 0-.59 1.44v.6.57a2.36 2.36 0 0 0 .59 1.44 2.2 2.2 0 0 0 2.9 0 2.36 2.36 0 0 0 .59-1.44q0-.31 0-.57v-.6a2.36 2.36 0 0 0-.59-1.49zm7.36-1.66a.38.38 0 0 1 .38.38v.49a.38.38 0 0 1-.38.38h-1.78V217a.38.38 0 0 1-.38.38h-.52a.38.38 0 0 1-.38-.38v-5.7h-1.18a.38.38 0 0 1-.38-.38v-.45a.38.38 0 0 1 .38-.38h1.18v-.7a2.52 2.52 0 0 1 .56-1.79 2.32 2.32 0 0 1 1.75-.59h.88a.38.38 0 0 1 .38.38v.45a.38.38 0 0 1-.38.38h-.73a1.11 1.11 0 0 0-.93.32 1.5 1.5 0 0 0-.25.92v.63h1.78z"/><use xlink:href="#E" x="-80.3" y="16.8"/><path d="M46.1 233.95a1.49 1.49 0 0 1-.2.19.39.39 0 0 1-.25.08H45a.32.32 0 0 1-.24-.1.31.31 0 0 1-.1-.22.34.34 0 0 1 .06-.2l2.56-3.21-2.42-3a.34.34 0 0 1-.06-.2.31.31 0 0 1 .1-.22.32.32 0 0 1 .24-.1h.67a.4.4 0 0 1 .25.08 1.5 1.5 0 0 1 .2.19l1.86 2.34L50 227.2a1.47 1.47 0 0 1 .2-.19.4.4 0 0 1 .25-.08h.64a.32.32 0 0 1 .24.1.31.31 0 0 1 .1.22.35.35 0 0 1-.06.2l-2.44 3.07 2.53 3.18a.34.34 0 0 1 .06.2.31.31 0 0 1-.1.22.32.32 0 0 1-.24.1h-.68a.39.39 0 0 1-.25-.08 1.43 1.43 0 0 1-.2-.19l-2-2.48zm8.16 2.54a.38.38 0 0 1-.38.38h-.51a.38.38 0 0 1-.38-.38v-9.18a.38.38 0 0 1 .38-.38h.52a.38.38 0 0 1 .38.38v.43a2.54 2.54 0 0 1 2.17-1 3.11 3.11 0 0 1 1.57.41 3 3 0 0 1 1.13 1.16 3.86 3.86 0 0 1 .47 1.76q0 .14 0 .45v.46a3.81 3.81 0 0 1-.47 1.76 3.06 3.06 0 0 1-1.14 1.21 3.1 3.1 0 0 1-1.58.41 2.91 2.91 0 0 1-1.32-.27 2.4 2.4 0 0 1-.85-.68v3.09zm.59-3.89a2 2 0 0 0 1.44.55 1.87 1.87 0 0 0 1.45-.59 2.49 2.49 0 0 0 .59-1.6v-.39-.39a2.49 2.49 0 0 0-.59-1.6 1.87 1.87 0 0 0-1.45-.59 2 2 0 0 0-2.03 1.97v1.11a2.2 2.2 0 0 0 .59 1.53z"/><use xlink:href="#G"/><path d="M71.06 230.58q0 .34 0 .64a3.5 3.5 0 0 1-1 2.28 3.63 3.63 0 0 1-4.66 0 3.5 3.5 0 0 1-1-2.28v-.64-.67a3.43 3.43 0 0 1 1-2.28 3.65 3.65 0 0 1 4.68 0 3.43 3.43 0 0 1 1 2.28c-.03.21-.02.43-.02.67zm-1.9-2a2.2 2.2 0 0 0-2.9 0 2.36 2.36 0 0 0-.6 1.44v.6.57a2.36 2.36 0 0 0 .6 1.44 2.2 2.2 0 0 0 2.9 0 2.36 2.36 0 0 0 .6-1.44q0-.31 0-.57v-.6a2.36 2.36 0 0 0-.59-1.48z"/><use xlink:href="#H"/><path d="M82.32 229.6v-.18a1.29 1.29 0 0 0-.46-1.06 1.81 1.81 0 0 0-1.18-.37 1.71 1.71 0 0 0-.87.19 2.11 2.11 0 0 0-.59.57.46.46 0 0 1-.18.15.7.7 0 0 1-.27 0h-.43a.38.38 0 0 1-.27-.11.31.31 0 0 1-.1-.27 1.48 1.48 0 0 1 .41-.83 2.79 2.79 0 0 1 1-.68 3.29 3.29 0 0 1 1.32-.27 3 3 0 0 1 2.11.73 2.62 2.62 0 0 1 .8 2v4.27a.38.38 0 0 1-.38.38h-.53a.38.38 0 0 1-.38-.38v-.57a1.64 1.64 0 0 1-1 .8 3.86 3.86 0 0 1-1.46.29 3 3 0 0 1-1.27-.26 2 2 0 0 1-.86-.71 1.77 1.77 0 0 1-.3-1 2 2 0 0 1 .78-1.64 4.62 4.62 0 0 1 2.09-.81zm0 1.12l-1.65.27a3.77 3.77 0 0 0-1.41.46.92.92 0 0 0-.5.79.82.82 0 0 0 .32.63 1.46 1.46 0 0 0 1 .28 2.34 2.34 0 0 0 1.64-.57 1.93 1.93 0 0 0 .63-1.5v-.35z"/><use xlink:href="#I"/><path d="M92.46 225.71a.36.36 0 0 1-.27.11h-.8a.38.38 0 0 1-.38-.38v-.8a.38.38 0 0 1 .38-.38h.8a.38.38 0 0 1 .38.38v.8a.36.36 0 0 1-.11.27zm-.14 8.39a.36.36 0 0 1-.27.11h-.52a.38.38 0 0 1-.38-.38v-6.52a.38.38 0 0 1 .38-.38H92a.38.38 0 0 1 .38.38v6.52a.36.36 0 0 1-.06.27zm8.54-3.52q0 .34 0 .64a3.5 3.5 0 0 1-1 2.28 3.63 3.63 0 0 1-4.66 0 3.5 3.5 0 0 1-1-2.28v-.64-.67a3.43 3.43 0 0 1 1-2.28 3.65 3.65 0 0 1 4.68 0 3.43 3.43 0 0 1 1 2.28c-.03.21-.02.43-.02.67zm-1.9-2a2.2 2.2 0 0 0-2.9 0 2.36 2.36 0 0 0-.6 1.44v.6.57a2.36 2.36 0 0 0 .6 1.44 2.2 2.2 0 0 0 2.9 0 2.36 2.36 0 0 0 .6-1.44q0-.31 0-.57v-.6a2.36 2.36 0 0 0-.56-1.48zM109 234.1a.36.36 0 0 1-.27.11h-.52a.38.38 0 0 1-.38-.38v-3.7a2.23 2.23 0 0 0-.52-1.6 2.17 2.17 0 0 0-2.88 0 2.21 2.21 0 0 0-.52 1.6v3.7a.38.38 0 0 1-.38.38H103a.38.38 0 0 1-.38-.38v-6.52a.38.38 0 0 1 .38-.38h.52a.38.38 0 0 1 .38.38v.43a2.41 2.41 0 0 1 .85-.68 2.91 2.91 0 0 1 1.32-.27 3.2 3.2 0 0 1 1.57.38 2.67 2.67 0 0 1 1.07 1.08 3.45 3.45 0 0 1 .39 1.67v3.91a.36.36 0 0 1-.1.27zm1.81-5.21a1.89 1.89 0 0 1 .31-1 2.14 2.14 0 0 1 .92-.76 3.48 3.48 0 0 1 1.49-.29 4 4 0 0 1 1.5.25 2.46 2.46 0 0 1 1 .63 1.14 1.14 0 0 1 .33.73.32.32 0 0 1-.11.24.38.38 0 0 1-.27.11h-.46a.5.5 0 0 1-.42-.2 1.82 1.82 0 0 0-1.53-.56 2 2 0 0 0-1 .24.73.73 0 0 0-.4.66.69.69 0 0 0 .2.53 1.44 1.44 0 0 0 .59.29q.39.11 1.39.34a3.37 3.37 0 0 1 1.75.81 1.86 1.86 0 0 1 .52 1.33 1.77 1.77 0 0 1-.36 1.06 2.5 2.5 0 0 1-1 .79 3.71 3.71 0 0 1-1.55.3 4 4 0 0 1-1.53-.27 2.87 2.87 0 0 1-1-.67 1.13 1.13 0 0 1-.36-.74.33.33 0 0 1 .11-.25.37.37 0 0 1 .27-.1h.5a.82.82 0 0 1 .22 0 .35.35 0 0 1 .18.15 1.88 1.88 0 0 0 1.64.64 2.36 2.36 0 0 0 1.15-.27.79.79 0 0 0 .5-.68.66.66 0 0 0-.24-.54 2 2 0 0 0-.71-.34q-.46-.13-1.44-.34-2.19-.44-2.19-2.09z"/></g><path class="B" d="M32.5 50.9h189.6v224.6H32.5z" opacity=".22"/><path d="M34.5 32.5h200v240h-200z" fill="#fff"/><path d="M34.4 32.5h200v144h-200z" fill="#9d6901"/><path d="M135.6 67.9a31.7 31.7 0 1 0 31.9 31.5 31.77 31.77 0 0 0-31.9-31.5zm-.2 7.9h.8a2.17 2.17 0 0 1 1 1.9v3.6c0 1.1-.5 1.8-1.4 1.8s-1.3-.6-1.3-1.8v-3.7a1.75 1.75 0 0 1 .9-1.8zm-20.2 12.6c.9-1 1.3-1.1 2.5-.5a17.5 17.5 0 0 1 3.4 1.5 1.55 1.55 0 0 1 1.1 1.8 1.48 1.48 0 0 1-2.1.7L116 90a6 6 0 0 1-.8-.8v-.8zm6.4 13l-4.4.7a1.83 1.83 0 0 1-1.8-.9v-.6a2 2 0 0 1 1.9-1.1 28.68 28.68 0 0 1 3.1-.5c.3 0 .6-.1 1-.1a1.39 1.39 0 0 1 1.6 1.1 1.43 1.43 0 0 1-1.4 1.4zm1.8-22.5a1.76 1.76 0 0 1 1.6.1c1.1 1.4 2 3 3 4.4a2.18 2.18 0 0 1 .1.6 2.28 2.28 0 0 1-.8.9 1.21 1.21 0 0 1-1.3-.1c-1.1-1.4-2-2.8-3-4.3a1 1 0 0 1 .4-1.6zm16.3 42.7h-8.2a1 1 0 0 1-1.2-1c-.1-2.1-.1-2.1 2-2.1h7.9c1.2 0 1.3 0 1.4 1.2.1 1.8.1 1.8-1.9 1.9zm0-4.4h-8.2a1 1 0 0 1-1.2-1c-.1-2.1-.1-2.1 2-2.1h7.9c1.2 0 1.3 0 1.4 1.2.1 1.9.1 1.9-1.9 1.9zm7.3-21.7a15.27 15.27 0 0 1-1.6 6 36.08 36.08 0 0 0-3.7 9.4c-.2 1.3-.4 1.4-1.8 1.4h-8.2a1.13 1.13 0 0 1-1.3-.9c-.2-.8-.5-1.5-.6-2.2a32.18 32.18 0 0 0-3.1-7.4 13.9 13.9 0 0 1-1.8-8A8.57 8.57 0 0 1 131 86a15 15 0 0 1 9.6-.1 9.33 9.33 0 0 1 6.4 9.6zm1.4-14.8a28.16 28.16 0 0 1-2.4 3.6 1.34 1.34 0 0 1-2.1.4c-.7-.4-.8-1.2-.3-2.1a26.37 26.37 0 0 1 2.3-3.5 2.06 2.06 0 0 1 1.7-.7c.4 0 .7.7 1 1a2.19 2.19 0 0 1-.2 1.3zm8.1 20.1a1.68 1.68 0 0 1-2.1 1l-4.1-.6a1.46 1.46 0 0 1-1.3-1.6 1.29 1.29 0 0 1 1.5-1.2l4.6.8a4.7 4.7 0 0 1 1.2.9 1.08 1.08 0 0 1 .2.7zm-.1-12a7.41 7.41 0 0 1-1.3 1.2c-1 .6-2.1 1-3.2 1.6a1.63 1.63 0 0 1-2.4-.6c-.3-.7.1-1.5 1.1-2s2.3-.9 3.5-1.5 1.6-.4 2.4.7a1.27 1.27 0 0 0-.1.6z" fill="#fff"/><g class="F" fill="#fff"><path d="M50.67 153.58a.7.7 0 0 1 .74-.85h.28a.78.78 0 0 1 .39.07 1.25 1.25 0 0 1 .38.39l4.4 6.48a4.86 4.86 0 0 1 .4.68l.28.59h0a.36.36 0 0 0 0-.18c0-.12 0-.29-.07-.52a4.18 4.18 0 0 1-.05-.67v-6.43a.43.43 0 0 1 .11-.3.33.33 0 0 1 .26-.12h.9a.32.32 0 0 1 .25.12.43.43 0 0 1 .11.3v9.38a.54.54 0 0 1-.17.42.82.82 0 0 1-.52.26H58a.89.89 0 0 1-.5-.11 3.12 3.12 0 0 1-.57-.67q-3.9-5.71-4.18-6.17l-.57-1h0v.1c0 .1 0 .18.06.34s0 .34.07.54q.07.68.07 1.27v5.24a.43.43 0 0 1-.11.29.33.33 0 0 1-.26.12H51a.32.32 0 0 1-.25-.12.43.43 0 0 1-.11-.29v-9.22zm12.39 6.16v.13a2 2 0 0 0 .59 1.5 2.32 2.32 0 0 0 1.69.6 3.09 3.09 0 0 0 1.8-.58.51.51 0 0 1 .28-.11.41.41 0 0 1 .38.25l.2.39a.71.71 0 0 1 .06.29.52.52 0 0 1-.14.33 1.45 1.45 0 0 1-.37.3 2.74 2.74 0 0 1-.52.24 5.46 5.46 0 0 1-.61.17 6.19 6.19 0 0 1-1.31.14 3.91 3.91 0 0 1-1.38-.26 3.36 3.36 0 0 1-1.2-.76 3.82 3.82 0 0 1-1.09-2.86q0-3.17 2.23-3.94a4.39 4.39 0 0 1 1.43-.24 4.35 4.35 0 0 1 1.25.16 2.57 2.57 0 0 1 .89.46 2.21 2.21 0 0 1 .79 1.81 2 2 0 0 1-.93 1.74 3.9 3.9 0 0 1-2.1.5 7.27 7.27 0 0 1-1.94-.26zm3.36-2q0-1-1.31-1a1.82 1.82 0 0 0-1.75.92 2.14 2.14 0 0 0-.23.79 3.34 3.34 0 0 0 1.5.29q1.79.02 1.79-1zm14-2.24a.38.38 0 0 1 .44.41 14.59 14.59 0 0 1-.67 3.89 8.37 8.37 0 0 1-1.32 2.8 1.51 1.51 0 0 1-1.18.7 1.42 1.42 0 0 1-1-.31 1.68 1.68 0 0 1-.48-.9q-.37-1.54-.52-2.1l-.26-1-.17-.59v.18l-.06.27-.2.65a16.89 16.89 0 0 1-.63 1.95q-.22.5-.38.78a3 3 0 0 1-.37.52 1.43 1.43 0 0 1-1.08.55 1.47 1.47 0 0 1-1.48-1.3q-.35-1.47-.79-2.91l-.91-2.88a.83.83 0 0 1 0-.27.39.39 0 0 1 .46-.42h.81a.59.59 0 0 1 .56.51q.4 1.4.7 2.75l.59 2.69a.26.26 0 0 0 .19.25.38.38 0 0 0 .28-.27q.13-.27.29-.65l.3-.83.28-.92.25-1q.23-1 .38-1.78v-.29a.61.61 0 0 1 .72-.41 1.8 1.8 0 0 1 .55.05.94.94 0 0 1 .43.57q.17.46.37 1.12.2.66.38 1.37.46 1.81.68 2.79a.2.2 0 0 0 .14.2.58.58 0 0 0 .33-.36 6.07 6.07 0 0 0 .41-1 13 13 0 0 0 .37-1.37 16.3 16.3 0 0 0 .36-3 .39.39 0 0 1 .3-.43h.14.79zm13.68-.5a.71.71 0 0 1-.75.85h-.47a.4.4 0 0 1-.34-.16.82.82 0 0 1-.14-.45 1 1 0 0 0-.17-.52 1.22 1.22 0 0 0-.4-.38 2.41 2.41 0 0 0-1.22-.27 2.64 2.64 0 0 0-1.32.32 2.56 2.56 0 0 0-.9.85 4.79 4.79 0 0 0-.66 2.67q0 3 2 3.77a3.24 3.24 0 0 0 1.18.23 4.23 4.23 0 0 0 1.83-.38l.38-.18a.82.82 0 0 1 .33-.08.37.37 0 0 1 .23.07 1.06 1.06 0 0 1 .22.33 1 1 0 0 1 .13.44.63.63 0 0 1-.13.37 1.36 1.36 0 0 1-.32.32 3.15 3.15 0 0 1-.81.36 7 7 0 0 1-2 .26 4.86 4.86 0 0 1-2.06-.42 4.28 4.28 0 0 1-1.52-1.16 5.92 5.92 0 0 1-1.26-3.94 5.57 5.57 0 0 1 1.23-3.9 4.55 4.55 0 0 1 3.6-1.48 4.37 4.37 0 0 1 2.23.56A2 2 0 0 1 94.1 155zm1.15 4.33a4.35 4.35 0 0 1 .3-1.63 3.79 3.79 0 0 1 .82-1.27 4.12 4.12 0 0 1 5.61 0 4.11 4.11 0 0 1 1 2.91 4 4 0 0 1-1.11 2.93 4 4 0 0 1-5.54 0 4.07 4.07 0 0 1-1.08-2.94zm2.2-1.74a2.64 2.64 0 0 0-.37.86 4.16 4.16 0 0 0-.12 1 3.35 3.35 0 0 0 .13.95 2.52 2.52 0 0 0 .4.81 1.94 1.94 0 0 0 1.64.78 1.88 1.88 0 0 0 1.63-.77 3 3 0 0 0 .49-1.83 2.52 2.52 0 0 0-1.13-2.39 2.26 2.26 0 0 0-2 0 1.94 1.94 0 0 0-.67.59z"/><use xlink:href="#J"/><path d="M111.36 161.33q0 .48.34.49a.87.87 0 0 0 .28-.06 1.81 1.81 0 0 1 .38-.12.28.28 0 0 1 .25.2l.21.49a.52.52 0 0 1 0 .19.6.6 0 0 1-.26.38 2.06 2.06 0 0 1-1.36.43q-1.53 0-1.53-2v-9.75a.47.47 0 0 1 .11-.31.33.33 0 0 1 .26-.13h.96a.32.32 0 0 1 .26.13.49.49 0 0 1 .1.31v9.8zm4.15-1.59v.13a2 2 0 0 0 .59 1.5 2.32 2.32 0 0 0 1.69.6 3.09 3.09 0 0 0 1.8-.58.51.51 0 0 1 .28-.11.41.41 0 0 1 .38.25l.18.38a.71.71 0 0 1 .06.29.52.52 0 0 1-.14.33 1.45 1.45 0 0 1-.37.3 2.74 2.74 0 0 1-.52.24 5.46 5.46 0 0 1-.61.17 6.19 6.19 0 0 1-1.31.14 3.91 3.91 0 0 1-1.38-.26 3.36 3.36 0 0 1-1.2-.76 3.82 3.82 0 0 1-1.09-2.86q0-3.17 2.23-3.94a4.39 4.39 0 0 1 1.43-.24 4.35 4.35 0 0 1 1.25.16 2.57 2.57 0 0 1 .89.46 2.21 2.21 0 0 1 .79 1.81 2 2 0 0 1-.93 1.74 3.9 3.9 0 0 1-2.15.53 7.27 7.27 0 0 1-1.87-.28zm3.36-2q0-1-1.31-1a1.82 1.82 0 0 0-1.75.92 2.14 2.14 0 0 0-.23.79 3.34 3.34 0 0 0 1.5.29q1.79.02 1.79-1z"/><use xlink:href="#D" x="12.4" y="-18.45"/><path d="M134.86 156.54a.36.36 0 0 1-.43.38h-1.93v4.29a.61.61 0 0 0 .69.7 2.36 2.36 0 0 0 1.14-.44.53.53 0 0 1 .3-.09.3.3 0 0 1 .26.23l.11.39a.92.92 0 0 1 .09.35.5.5 0 0 1-.22.33 2.21 2.21 0 0 1-.55.34 3.4 3.4 0 0 1-1.37.34 3 3 0 0 1-1-.13 1.61 1.61 0 0 1-.61-.38 2.05 2.05 0 0 1-.55-1.54v-4.36h-.57a.36.36 0 0 1-.43-.39v-.39a.35.35 0 0 1 .08-.25.61.61 0 0 1 .32-.14l.68-.2.26-1.61a.42.42 0 0 1 .37-.45h.57a.32.32 0 0 1 .26.13.5.5 0 0 1 .1.32v1.54h1.93a.36.36 0 0 1 .43.38v.66zm2.48-2.36a1.09 1.09 0 0 1-.79-.32 1.05 1.05 0 0 1-.33-.79 1.1 1.1 0 0 1 1.12-1.11 1 1 0 0 1 1 .67 1.07 1.07 0 0 1 .09.44 1.05 1.05 0 0 1-.33.79 1.09 1.09 0 0 1-.76.32zm.8 7.15c0 .32.11.49.32.49a.61.61 0 0 0 .25-.06 1.17 1.17 0 0 1 .36-.12.27.27 0 0 1 .23.2l.21.48a.52.52 0 0 1 .05.22.72.72 0 0 1-.51.55 2.06 2.06 0 0 1-.95.25 2.23 2.23 0 0 1-.75-.1 1.1 1.1 0 0 1-.48-.34 2.56 2.56 0 0 1-.4-1.6V156a.48.48 0 0 1 .11-.32.33.33 0 0 1 .26-.13h.92a.32.32 0 0 1 .26.13.5.5 0 0 1 .1.32v5.38zm2.6-2a4.35 4.35 0 0 1 .3-1.63 3.78 3.78 0 0 1 .82-1.27 4.12 4.12 0 0 1 5.61 0 4.11 4.11 0 0 1 1 2.91 4 4 0 0 1-1.11 2.93 4 4 0 0 1-5.54 0 4.07 4.07 0 0 1-1.08-2.94zm2.2-1.74a2.63 2.63 0 0 0-.37.86 4.13 4.13 0 0 0-.12 1 3.35 3.35 0 0 0 .13.95 2.52 2.52 0 0 0 .4.81 1.94 1.94 0 0 0 1.64.78 1.88 1.88 0 0 0 1.63-.77 3 3 0 0 0 .49-1.83 2.52 2.52 0 0 0-1.14-2.39 2.27 2.27 0 0 0-2 0 1.94 1.94 0 0 0-.67.59zm7.57-1.59a.43.43 0 0 1 .47-.49h.38a.52.52 0 0 1 .52.29 5 5 0 0 1 .33 1.08 2.82 2.82 0 0 1 1.83-1.44 3.75 3.75 0 0 1 1-.1 2.33 2.33 0 0 1 1.06.24 1.93 1.93 0 0 1 .77.67 4.1 4.1 0 0 1 .52 2.28v4.25a.45.45 0 0 1-.12.32.48.48 0 0 1-.36.13h-.67a.5.5 0 0 1-.38-.13.45.45 0 0 1-.12-.32v-4.25q0-1.75-1.29-1.75a1.9 1.9 0 0 0-1.37.63 2.18 2.18 0 0 0-.66 1.57v3.8a.47.47 0 0 1-.12.32.45.45 0 0 1-.36.13h-.7a.47.47 0 0 1-.36-.13.45.45 0 0 1-.12-.32v-4.2a14 14 0 0 0-.09-1.92 6.36 6.36 0 0 1-.16-.66z"/></g><g class="F"><path d="M51.92 197.14a2.5 2.5 0 0 0 1.9.71 2.65 2.65 0 0 0 1.82-.53 2.59 2.59 0 0 0 .78-1.37.37.37 0 0 1 .13-.22.36.36 0 0 1 .23-.08h.64a.31.31 0 0 1 .31.31 3.13 3.13 0 0 1-.45 1.42A3.39 3.39 0 0 1 56 198.6a4.31 4.31 0 0 1-2.18.5 4.17 4.17 0 0 1-2.06-.49 3.46 3.46 0 0 1-1.36-1.35 4.27 4.27 0 0 1-.53-2q0-.42 0-1.25 0-.83 0-1.25a4.26 4.26 0 0 1 .53-2 3.46 3.46 0 0 1 1.36-1.35 4.17 4.17 0 0 1 2.06-.49 4.3 4.3 0 0 1 2.18.5 3.39 3.39 0 0 1 1.29 1.24 3.13 3.13 0 0 1 .45 1.42.31.31 0 0 1-.31.31h-.65a.36.36 0 0 1-.23-.08.37.37 0 0 1-.13-.22 2.6 2.6 0 0 0-.78-1.37 2.65 2.65 0 0 0-1.82-.53 2.5 2.5 0 0 0-1.9.71 2.77 2.77 0 0 0-.72 1.9q0 .42 0 1.18 0 .76 0 1.18a2.77 2.77 0 0 0 .72 1.98zm11.45-5.34a.37.37 0 0 1 .11.27v.45a.38.38 0 0 1-.38.38h-.8a1.45 1.45 0 0 0-1.61 1.61v4.09a.38.38 0 0 1-.38.38h-.52a.38.38 0 0 1-.38-.38v-6.52a.38.38 0 0 1 .38-.38h.52a.38.38 0 0 1 .38.38v.43a1.75 1.75 0 0 1 .67-.62 2.29 2.29 0 0 1 1-.2h.73a.37.37 0 0 1 .28.11zm6.42.7a3.7 3.7 0 0 1 .87 2.59v.38a.38.38 0 0 1-.38.38h-4.82v.08a2 2 0 0 0 .57 1.45 1.91 1.91 0 0 0 1.39.52 2.6 2.6 0 0 0 1.08-.18 2.23 2.23 0 0 0 .69-.52.74.74 0 0 1 .2-.15.59.59 0 0 1 .25 0h.42a.38.38 0 0 1 .28.11.32.32 0 0 1 .1.27 1.53 1.53 0 0 1-.41.78 2.75 2.75 0 0 1-1 .67 4.18 4.18 0 0 1-1.59.27 3.08 3.08 0 0 1-1.6-.41 3 3 0 0 1-1.11-1.14 4 4 0 0 1-.5-1.64q0-.42 0-.64 0-.22 0-.64a3.76 3.76 0 0 1 .5-1.57 3.06 3.06 0 0 1 1.09-1.11 3.11 3.11 0 0 1 1.6-.41 3 3 0 0 1 2.37.91zm-.39 2.17h0a1.79 1.79 0 0 0-.54-1.37 2 2 0 0 0-1.44-.51 2 2 0 0 0-1.38.52 1.8 1.8 0 0 0-.58 1.36h0 3.93zm7.27-.31v-.18a1.29 1.29 0 0 0-.46-1.06 1.81 1.81 0 0 0-1.18-.37 1.71 1.71 0 0 0-.87.19 2.11 2.11 0 0 0-.59.57.46.46 0 0 1-.18.15.7.7 0 0 1-.27 0h-.42a.38.38 0 0 1-.27-.11.31.31 0 0 1-.1-.27 1.48 1.48 0 0 1 .41-.83 2.79 2.79 0 0 1 1-.68 3.29 3.29 0 0 1 1.32-.27 3 3 0 0 1 2.11.73 2.62 2.62 0 0 1 .8 2v4.27a.38.38 0 0 1-.38.38h-.54a.38.38 0 0 1-.38-.38v-.5a1.64 1.64 0 0 1-1 .8 3.86 3.86 0 0 1-1.46.29 3 3 0 0 1-1.27-.26 2 2 0 0 1-.86-.71 1.77 1.77 0 0 1-.3-1 2 2 0 0 1 .78-1.64 4.62 4.62 0 0 1 2.09-.81zm0 1.12l-1.65.27a3.77 3.77 0 0 0-1.41.46.92.92 0 0 0-.5.79.82.82 0 0 0 .32.63 1.46 1.46 0 0 0 1 .28 2.34 2.34 0 0 0 1.64-.57 1.93 1.93 0 0 0 .63-1.5v-.35zm5.39 1.96a1.11 1.11 0 0 0 .93.32h.74a.38.38 0 0 1 .38.38v.45a.38.38 0 0 1-.38.38h-.88a2.24 2.24 0 0 1-1.75-.62 2.65 2.65 0 0 1-.56-1.83v-3.63h-1a.38.38 0 0 1-.38-.38v-.45a.38.38 0 0 1 .38-.38h1v-2.28a.38.38 0 0 1 .38-.38h.52a.38.38 0 0 1 .38.38v2.28h1.78a.38.38 0 0 1 .38.38v.45a.38.38 0 0 1-.38.38h-1.79v3.63a1.5 1.5 0 0 0 .25.92zm8.68-4.94a3.7 3.7 0 0 1 .87 2.59v.38a.38.38 0 0 1-.38.38h-4.81v.08a2 2 0 0 0 .57 1.45 1.91 1.91 0 0 0 1.39.52 2.6 2.6 0 0 0 1.08-.18 2.23 2.23 0 0 0 .69-.52.74.74 0 0 1 .2-.15.59.59 0 0 1 .25 0h.4a.38.38 0 0 1 .28.11.32.32 0 0 1 .1.27 1.53 1.53 0 0 1-.41.78 2.75 2.75 0 0 1-1 .67 4.18 4.18 0 0 1-1.59.27 3.08 3.08 0 0 1-1.6-.41 3 3 0 0 1-1.11-1.14 4 4 0 0 1-.5-1.64q0-.42 0-.64 0-.22 0-.64a3.76 3.76 0 0 1 .5-1.57 3.06 3.06 0 0 1 1.1-1.11 3.11 3.11 0 0 1 1.6-.41 3 3 0 0 1 2.37.91zm-.39 2.17h0a1.79 1.79 0 0 0-.54-1.37 2 2 0 0 0-1.44-.51 2 2 0 0 0-1.38.52 1.8 1.8 0 0 0-.58 1.36h0 3.93zm10.65-.31v-.18a1.29 1.29 0 0 0-.46-1.06 1.81 1.81 0 0 0-1.18-.37 1.71 1.71 0 0 0-.87.19 2.11 2.11 0 0 0-.59.57.46.46 0 0 1-.18.15.7.7 0 0 1-.27 0h-.38a.38.38 0 0 1-.27-.11.31.31 0 0 1-.1-.27 1.48 1.48 0 0 1 .41-.83 2.79 2.79 0 0 1 1-.68 3.29 3.29 0 0 1 1.32-.27 3 3 0 0 1 2.11.73 2.62 2.62 0 0 1 .8 2v4.27a.38.38 0 0 1-.38.38h-.52a.38.38 0 0 1-.38-.38v-.5a1.64 1.64 0 0 1-1 .8 3.86 3.86 0 0 1-1.46.29 3 3 0 0 1-1.27-.26 2 2 0 0 1-.86-.71 1.77 1.77 0 0 1-.3-1 2 2 0 0 1 .78-1.64 4.62 4.62 0 0 1 2.09-.81zm0 1.12l-1.65.27a3.77 3.77 0 0 0-1.41.46.92.92 0 0 0-.5.79.82.82 0 0 0 .32.63 1.46 1.46 0 0 0 1 .28 2.34 2.34 0 0 0 1.64-.57 1.93 1.93 0 0 0 .63-1.5v-.35z"/><use xlink:href="#F" x="-17.99" y="-18.44"/><path d="M121.88 195.34q0 .34 0 .64a3.5 3.5 0 0 1-1 2.28 3.63 3.63 0 0 1-4.66 0 3.5 3.5 0 0 1-1-2.28v-.64-.67a3.43 3.43 0 0 1 1-2.28 3.65 3.65 0 0 1 4.68 0 3.43 3.43 0 0 1 1 2.28c-.03.2-.02.43-.02.67zm-1.9-2a2.2 2.2 0 0 0-2.9 0 2.36 2.36 0 0 0-.6 1.44v.6.57a2.36 2.36 0 0 0 .6 1.44 2.2 2.2 0 0 0 2.9 0 2.36 2.36 0 0 0 .6-1.44q0-.31 0-.57v-.6a2.36 2.36 0 0 0-.58-1.49zm4.81 5.51a.36.36 0 0 1-.27.11H124a.38.38 0 0 1-.38-.38v-9.18a.38.38 0 0 1 .38-.4h.52a.38.38 0 0 1 .38.38v9.18a.36.36 0 0 1-.11.29zm3.37 0a.36.36 0 0 1-.27.11h-.52a.38.38 0 0 1-.38-.38v-9.18a.38.38 0 0 1 .38-.38h.52a.38.38 0 0 1 .38.38v9.18a.36.36 0 0 1-.11.27zm7.45-6.35a3.7 3.7 0 0 1 .87 2.59v.38a.38.38 0 0 1-.38.38h-4.82v.08a2 2 0 0 0 .57 1.45 1.91 1.91 0 0 0 1.39.52 2.61 2.61 0 0 0 1.09-.18 2.24 2.24 0 0 0 .69-.52.74.74 0 0 1 .2-.15.59.59 0 0 1 .25 0h.42a.38.38 0 0 1 .28.11.32.32 0 0 1 .1.27 1.53 1.53 0 0 1-.41.78 2.75 2.75 0 0 1-1 .67 4.18 4.18 0 0 1-1.59.27 3.08 3.08 0 0 1-1.6-.41 3 3 0 0 1-1.11-1.14 4 4 0 0 1-.5-1.64q0-.42 0-.64 0-.22 0-.64a3.76 3.76 0 0 1 .5-1.57 3.06 3.06 0 0 1 1.11-1.11 3.11 3.11 0 0 1 1.6-.41 3 3 0 0 1 2.34.91zm-.39 2.17h0a1.79 1.79 0 0 0-.54-1.37 2 2 0 0 0-1.44-.51 2 2 0 0 0-1.38.52 1.8 1.8 0 0 0-.58 1.36h0 3.93zm7.78 2.14a.89.89 0 0 1 .2-.29.39.39 0 0 1 .27-.08h.42a.37.37 0 0 1 .27.11.32.32 0 0 1 .11.25 1.82 1.82 0 0 1-.38 1 3 3 0 0 1-1.09.92 3.54 3.54 0 0 1-1.68.38 3.39 3.39 0 0 1-1.72-.42 2.87 2.87 0 0 1-1.12-1.15 3.84 3.84 0 0 1-.43-1.65v-.64-.48a3.77 3.77 0 0 1 1-2.32 3 3 0 0 1 2.31-.9 3.56 3.56 0 0 1 1.67.37 2.93 2.93 0 0 1 1.08.91 2 2 0 0 1 .4 1 .31.31 0 0 1-.1.27.39.39 0 0 1-.27.11h-.42a.39.39 0 0 1-.27-.08.88.88 0 0 1-.2-.29 1.87 1.87 0 0 0-1.89-1.09 2 2 0 0 0-1.34.52 2.27 2.27 0 0 0-.66 1.57v.5.48a2.33 2.33 0 0 0 .67 1.57 1.92 1.92 0 0 0 1.34.52 1.87 1.87 0 0 0 1.83-1.09zm5.09.63a1.11 1.11 0 0 0 .93.32h.74a.38.38 0 0 1 .38.38v.45a.38.38 0 0 1-.38.38h-.88a2.24 2.24 0 0 1-1.75-.62 2.65 2.65 0 0 1-.56-1.83v-3.63h-1a.38.38 0 0 1-.38-.38v-.45a.38.38 0 0 1 .38-.38h1v-2.28a.38.38 0 0 1 .43-.4h.52a.38.38 0 0 1 .38.38v2.28h1.78a.38.38 0 0 1 .38.38v.45a.38.38 0 0 1-.38.38h-1.78v3.63a1.5 1.5 0 0 0 .19.94z"/><use xlink:href="#K"/><use xlink:href="#L"/><path d="M169.35 198.85a.36.36 0 0 1-.27.11h-.52a.38.38 0 0 1-.38-.38v-3.7a2.24 2.24 0 0 0-.52-1.6 2.17 2.17 0 0 0-2.88 0 2.21 2.21 0 0 0-.53 1.6v3.7a.38.38 0 0 1-.38.38h-.52a.38.38 0 0 1-.38-.38v-6.52a.38.38 0 0 1 .38-.38h.52a.38.38 0 0 1 .38.38v.43a2.41 2.41 0 0 1 .85-.68 2.91 2.91 0 0 1 1.32-.27 3.2 3.2 0 0 1 1.57.38 2.67 2.67 0 0 1 1.07 1.08 3.45 3.45 0 0 1 .39 1.67v3.91a.36.36 0 0 1-.1.27z"/><use xlink:href="#L" x="19.99"/><path d="M186.7 191.68a.38.38 0 0 1 .38.38v.45a.38.38 0 0 1-.38.38h-1.78v5.7a.38.38 0 0 1-.38.38H184a.38.38 0 0 1-.38-.38v-5.7h-1.18a.38.38 0 0 1-.38-.38v-.45a.38.38 0 0 1 .38-.38h1.18V191a2.52 2.52 0 0 1 .56-1.79 2.32 2.32 0 0 1 1.75-.59h.88a.38.38 0 0 1 .38.38v.45a.38.38 0 0 1-.38.38h-.71a1.11 1.11 0 0 0-.93.32 1.5 1.5 0 0 0-.24.92v.63h1.78z"/><path d="M55.31 209.3a3.7 3.7 0 0 1 .87 2.59v.38a.38.38 0 0 1-.38.38H51v.08a2 2 0 0 0 .57 1.45 1.91 1.91 0 0 0 1.39.52 2.6 2.6 0 0 0 1.08-.18 2.23 2.23 0 0 0 .69-.52.74.74 0 0 1 .2-.15.59.59 0 0 1 .25 0h.42a.38.38 0 0 1 .28.11.32.32 0 0 1 .1.27 1.53 1.53 0 0 1-.41.78 2.75 2.75 0 0 1-1 .67 4.18 4.18 0 0 1-1.59.27 3.08 3.08 0 0 1-1.6-.41 3 3 0 0 1-1.11-1.14 4 4 0 0 1-.5-1.64q0-.42 0-.64 0-.22 0-.64a3.76 3.76 0 0 1 .5-1.57 3.06 3.06 0 0 1 1.11-1.11 3.11 3.11 0 0 1 1.6-.41 3 3 0 0 1 2.33.91zm-.39 2.17h0a1.79 1.79 0 0 0-.54-1.37 2 2 0 0 0-1.44-.51 2 2 0 0 0-1.38.52 1.8 1.8 0 0 0-.58 1.36h0 3.93zm3.58 4.03a1.49 1.49 0 0 1-.2.19.39.39 0 0 1-.25.08h-.64a.32.32 0 0 1-.24-.1.31.31 0 0 1-.1-.22.34.34 0 0 1 .06-.2l2.56-3.25-2.42-3a.34.34 0 0 1-.06-.2.31.31 0 0 1 .1-.22.32.32 0 0 1 .24-.1h.67a.4.4 0 0 1 .25.08 1.5 1.5 0 0 1 .2.19l1.86 2.34 1.85-2.34a1.47 1.47 0 0 1 .2-.19.4.4 0 0 1 .25-.08h.64a.32.32 0 0 1 .24.1.31.31 0 0 1 .1.22.35.35 0 0 1-.06.2l-2.44 3.07 2.53 3.18a.34.34 0 0 1 .06.2.31.31 0 0 1-.1.22.32.32 0 0 1-.24.1h-.66a.39.39 0 0 1-.25-.08 1.43 1.43 0 0 1-.2-.19l-2-2.48zm8.16 2.5a.38.38 0 0 1-.38.38h-.51a.38.38 0 0 1-.38-.38v-9.18a.38.38 0 0 1 .38-.38h.52a.38.38 0 0 1 .38.38v.43a2.54 2.54 0 0 1 2.17-1 3.11 3.11 0 0 1 1.57.41 3 3 0 0 1 1.13 1.16 3.86 3.86 0 0 1 .47 1.76q0 .14 0 .45v.46a3.81 3.81 0 0 1-.47 1.76 3.06 3.06 0 0 1-1.13 1.16 3.1 3.1 0 0 1-1.58.41 2.91 2.91 0 0 1-1.32-.27 2.4 2.4 0 0 1-.85-.68V218zm.59-3.89a2 2 0 0 0 1.44.55 1.87 1.87 0 0 0 1.45-.59 2.49 2.49 0 0 0 .59-1.6v-.39-.39a2.49 2.49 0 0 0-.59-1.6 1.87 1.87 0 0 0-1.45-.59 2 2 0 0 0-2.03 1.97v1.11a2.2 2.2 0 0 0 .59 1.57z"/><use xlink:href="#G" x="12.4" y="-18.45"/><path d="M83.46 212.14q0 .34 0 .64a3.5 3.5 0 0 1-1 2.28 3.63 3.63 0 0 1-4.66 0 3.5 3.5 0 0 1-1-2.28v-.64-.67a3.43 3.43 0 0 1 1-2.28 3.65 3.65 0 0 1 4.68 0 3.43 3.43 0 0 1 1 2.28c-.03.2-.02.43-.02.67zm-1.9-2a2.2 2.2 0 0 0-2.9 0 2.36 2.36 0 0 0-.6 1.44v.6.57a2.36 2.36 0 0 0 .6 1.44 2.2 2.2 0 0 0 2.9 0 2.36 2.36 0 0 0 .6-1.44q0-.31 0-.57v-.6a2.36 2.36 0 0 0-.59-1.49z"/><use xlink:href="#H" x="12.4" y="-18.4"/><path d="M94.72 211.16V211a1.29 1.29 0 0 0-.46-1.06 1.81 1.81 0 0 0-1.18-.37 1.71 1.71 0 0 0-.87.19 2.11 2.11 0 0 0-.59.57.46.46 0 0 1-.18.15.7.7 0 0 1-.27 0h-.43a.38.38 0 0 1-.27-.11.31.31 0 0 1-.1-.27 1.48 1.48 0 0 1 .41-.83 2.79 2.79 0 0 1 1-.68 3.29 3.29 0 0 1 1.32-.27 3 3 0 0 1 2.11.73 2.62 2.62 0 0 1 .8 2v4.27a.38.38 0 0 1-.38.38h-.53a.38.38 0 0 1-.38-.38v-.57a1.64 1.64 0 0 1-1 .8 3.86 3.86 0 0 1-1.46.29 3 3 0 0 1-1.27-.26 2 2 0 0 1-.86-.71 1.77 1.77 0 0 1-.3-1 2 2 0 0 1 .78-1.64 4.62 4.62 0 0 1 2.09-.81zm0 1.12l-1.65.27a3.77 3.77 0 0 0-1.41.46.92.92 0 0 0-.5.79.82.82 0 0 0 .32.63 1.46 1.46 0 0 0 1 .28 2.34 2.34 0 0 0 1.64-.57 1.93 1.93 0 0 0 .63-1.5v-.35z"/><use xlink:href="#I" x="12.4" y="-18.44"/><use xlink:href="#K" x="-47.99" y="16.8"/><path d="M113.26 212.14q0 .34 0 .64a3.5 3.5 0 0 1-1 2.28 3.63 3.63 0 0 1-4.66 0 3.5 3.5 0 0 1-1-2.28v-.64-.67a3.43 3.43 0 0 1 1-2.28 3.65 3.65 0 0 1 4.68 0 3.43 3.43 0 0 1 1 2.28c-.03.2-.02.43-.02.67zm-1.9-2a2.2 2.2 0 0 0-2.9 0 2.36 2.36 0 0 0-.6 1.44v.6.57a2.36 2.36 0 0 0 .6 1.44 2.2 2.2 0 0 0 2.9 0 2.36 2.36 0 0 0 .6-1.44q0-.31 0-.57v-.6a2.36 2.36 0 0 0-.6-1.49z"/><use xlink:href="#M"/><path d="M123.21 210.44a1.89 1.89 0 0 1 .31-1 2.14 2.14 0 0 1 .92-.76 3.48 3.48 0 0 1 1.49-.29 4 4 0 0 1 1.5.25 2.46 2.46 0 0 1 1 .63 1.14 1.14 0 0 1 .33.73.32.32 0 0 1-.11.24.38.38 0 0 1-.27.11h-.46a.5.5 0 0 1-.42-.2 1.82 1.82 0 0 0-1.53-.56 2 2 0 0 0-1 .24.73.73 0 0 0-.4.66.69.69 0 0 0 .2.53 1.44 1.44 0 0 0 .59.29q.39.11 1.39.34a3.37 3.37 0 0 1 1.75.81 1.86 1.86 0 0 1 .52 1.33 1.77 1.77 0 0 1-.36 1.06 2.5 2.5 0 0 1-1 .79 3.71 3.71 0 0 1-1.55.3 4 4 0 0 1-1.53-.27 2.87 2.87 0 0 1-1-.67 1.13 1.13 0 0 1-.36-.74.33.33 0 0 1 .11-.25.37.37 0 0 1 .27-.1h.4a.82.82 0 0 1 .22 0 .35.35 0 0 1 .18.15 1.88 1.88 0 0 0 1.64.64 2.36 2.36 0 0 0 1.15-.27.79.79 0 0 0 .5-.68.66.66 0 0 0-.24-.54 2 2 0 0 0-.71-.34q-.46-.13-1.44-.34-2.09-.43-2.09-2.09z"/></g><path class="B" d="M46.6 32.5h187.9v225.7H46.6z" opacity=".22"/><path d="M48.7 15.7h200v240h-200z" fill="#fff"/><path d="M48.6 15.7h200v144h-200z" fill="#9d6901"/><path d="M149.8 51.1a31.7 31.7 0 1 0 31.9 31.5 31.77 31.77 0 0 0-31.9-31.5zm-.2 8h.8a2.17 2.17 0 0 1 1 1.9v3.6c0 1.1-.5 1.8-1.4 1.8s-1.3-.6-1.3-1.8v-3.7a1.75 1.75 0 0 1 .9-1.8zm-20.2 12.5c.9-1 1.3-1.1 2.5-.5a17.5 17.5 0 0 1 3.4 1.5 1.55 1.55 0 0 1 1.1 1.8 1.48 1.48 0 0 1-2.1.7l-4.1-1.9a6 6 0 0 1-.8-.8v-.8zm6.4 13.1l-4.4.7a1.83 1.83 0 0 1-1.8-.9v-.6a2 2 0 0 1 1.9-1.1 28.68 28.68 0 0 1 3.1-.5c.3 0 .6-.1 1-.1a1.39 1.39 0 0 1 1.6 1.1c.1.7-.7 1.2-1.4 1.4zm1.8-22.5a1.76 1.76 0 0 1 1.6.1c1.1 1.4 2 3 3 4.4a2.18 2.18 0 0 1 .1.6 2.28 2.28 0 0 1-.8.9 1.21 1.21 0 0 1-1.3-.1c-1.1-1.4-2-2.8-3-4.3a1 1 0 0 1 .4-1.6zm16.3 42.6h-8.2a1 1 0 0 1-1.2-1c-.1-2.1-.1-2.1 2-2.1h7.9c1.2 0 1.3 0 1.4 1.2.1 1.9.1 1.9-1.9 1.9zm0-4.3h-8.2a1 1 0 0 1-1.2-1c-.1-2.1-.1-2.1 2-2.1h7.9c1.2 0 1.3 0 1.4 1.2.1 1.8.1 1.8-1.9 1.9zm7.3-21.8a15.27 15.27 0 0 1-1.6 6 36.08 36.08 0 0 0-3.7 9.4c-.2 1.3-.4 1.4-1.8 1.4h-8.2a1.13 1.13 0 0 1-1.3-.9c-.2-.8-.5-1.5-.6-2.2a32.18 32.18 0 0 0-3.1-7.4 13.9 13.9 0 0 1-1.8-8 8.57 8.57 0 0 1 6.1-7.8 15 15 0 0 1 9.6-.1 9.33 9.33 0 0 1 6.4 9.6zm1.4-14.8a28.16 28.16 0 0 1-2.4 3.6 1.34 1.34 0 0 1-2.1.4c-.7-.4-.8-1.2-.3-2.1a26.37 26.37 0 0 1 2.3-3.5 2.06 2.06 0 0 1 1.7-.7c.4 0 .7.7 1 1a2 2 0 0 1-.2 1.3zm8.1 20.2a1.68 1.68 0 0 1-2.1 1l-4.1-.6a1.46 1.46 0 0 1-1.3-1.6 1.29 1.29 0 0 1 1.5-1.2l4.6.8a4.7 4.7 0 0 1 1.2.9 1.08 1.08 0 0 1 .2.7zm-.1-12a7.41 7.41 0 0 1-1.3 1.2c-1 .6-2.1 1-3.2 1.6a1.63 1.63 0 0 1-2.4-.6c-.3-.7.1-1.5 1.1-2s2.3-.9 3.5-1.5 1.6-.4 2.4.7a1.27 1.27 0 0 0-.1.6z" fill="#fff"/><g class="F" fill="#fff"><path d="M64.88 136.82a.7.7 0 0 1 .74-.85h.28a.78.78 0 0 1 .39.07 1.25 1.25 0 0 1 .38.39l4.4 6.48a4.86 4.86 0 0 1 .4.68l.28.59h0a.36.36 0 0 0 0-.18q0-.18-.07-.52a4.18 4.18 0 0 1-.05-.67v-6.43a.43.43 0 0 1 .11-.3.33.33 0 0 1 .26-.08h.9a.32.32 0 0 1 .25.12.43.43 0 0 1 .11.3v9.38a.54.54 0 0 1-.17.42.82.82 0 0 1-.52.26h-.4a.89.89 0 0 1-.5-.11 3.12 3.12 0 0 1-.57-.67q-3.9-5.71-4.18-6.17l-.57-1h0v.1c0 .1 0 .18.06.34s0 .34.07.54q.07.68.07 1.27V146a.43.43 0 0 1-.11.29.33.33 0 0 1-.26.12h-.9a.32.32 0 0 1-.25-.12.43.43 0 0 1-.11-.29v-9.21zM77.26 143v.13a2 2 0 0 0 .59 1.5 2.32 2.32 0 0 0 1.69.6 3.09 3.09 0 0 0 1.8-.58.51.51 0 0 1 .28-.11.41.41 0 0 1 .38.25l.18.38a.71.71 0 0 1 .06.29.52.52 0 0 1-.14.33 1.45 1.45 0 0 1-.37.3 2.74 2.74 0 0 1-.52.24 5.46 5.46 0 0 1-.61.17 6.19 6.19 0 0 1-1.31.14 3.91 3.91 0 0 1-1.38-.26 3.36 3.36 0 0 1-1.2-.76 3.82 3.82 0 0 1-1.09-2.86q0-3.17 2.23-3.94a4.39 4.39 0 0 1 1.43-.24 4.35 4.35 0 0 1 1.25.16 2.57 2.57 0 0 1 .89.46 2.21 2.21 0 0 1 .79 1.81 2 2 0 0 1-.93 1.74 3.9 3.9 0 0 1-2.15.53 7.27 7.27 0 0 1-1.87-.28zm3.36-2q0-1-1.31-1a1.82 1.82 0 0 0-1.75.92 2.14 2.14 0 0 0-.23.79 3.34 3.34 0 0 0 1.5.29q1.8 0 1.8-1zm14-2.26a.38.38 0 0 1 .44.41 14.59 14.59 0 0 1-.66 3.85 8.37 8.37 0 0 1-1.32 2.8 1.51 1.51 0 0 1-1.18.7 1.42 1.42 0 0 1-1-.31 1.68 1.68 0 0 1-.48-.9q-.37-1.54-.52-2.1l-.26-1-.17-.59v.18l-.06.27-.14.59a16.89 16.89 0 0 1-.63 1.95q-.22.5-.38.78a3 3 0 0 1-.37.52 1.43 1.43 0 0 1-1.08.55 1.47 1.47 0 0 1-1.53-1.31q-.35-1.47-.79-2.91l-.91-2.88a.83.83 0 0 1 0-.27.39.39 0 0 1 .46-.42h.81a.59.59 0 0 1 .56.51q.4 1.4.7 2.75l.59 2.69a.26.26 0 0 0 .19.25.38.38 0 0 0 .28-.27q.13-.27.29-.65l.3-.83.28-.92.25-1q.23-1 .38-1.78v-.29a.61.61 0 0 1 .72-.41 1.8 1.8 0 0 1 .55.05.94.94 0 0 1 .43.57q.17.46.37 1.12.2.66.36 1.56.46 1.81.68 2.79a.2.2 0 0 0 .14.2.58.58 0 0 0 .33-.36 6.07 6.07 0 0 0 .41-1 13 13 0 0 0 .37-1.37 16.3 16.3 0 0 0 .36-3 .39.39 0 0 1 .3-.43h.14.79z"/><use xlink:href="#B" x="26.61" y="-35.2"/><path d="M109.46 142.57a4.35 4.35 0 0 1 .3-1.63 3.79 3.79 0 0 1 .82-1.27 4.13 4.13 0 0 1 5.61 0 4.11 4.11 0 0 1 1 2.91 4 4 0 0 1-1.11 2.93 4 4 0 0 1-5.54 0 4.07 4.07 0 0 1-1.08-2.94zm2.2-1.74a2.64 2.64 0 0 0-.37.86 4.16 4.16 0 0 0-.12 1 3.35 3.35 0 0 0 .13.95 2.52 2.52 0 0 0 .4.81 1.94 1.94 0 0 0 1.64.78 1.88 1.88 0 0 0 1.63-.77 3 3 0 0 0 .49-1.83 2.52 2.52 0 0 0-1.13-2.39 2.26 2.26 0 0 0-2 0 1.94 1.94 0 0 0-.68.59z"/><use xlink:href="#J" x="14.21" y="-16.75"/><use xlink:href="#J" x="18.88" y="-16.75"/><path d="M129.72 143v.13a2 2 0 0 0 .59 1.5 2.32 2.32 0 0 0 1.69.6 3.09 3.09 0 0 0 1.8-.58.51.51 0 0 1 .28-.11.41.41 0 0 1 .38.25l.18.38a.71.71 0 0 1 .06.29.52.52 0 0 1-.14.33 1.44 1.44 0 0 1-.37.3 2.74 2.74 0 0 1-.52.24 5.46 5.46 0 0 1-.61.17 6.19 6.19 0 0 1-1.31.14 3.91 3.91 0 0 1-1.38-.26 3.36 3.36 0 0 1-1.2-.76 3.82 3.82 0 0 1-1.09-2.86q0-3.17 2.23-3.94a4.39 4.39 0 0 1 1.43-.24 4.35 4.35 0 0 1 1.25.16 2.57 2.57 0 0 1 .89.46 2.21 2.21 0 0 1 .79 1.81 2 2 0 0 1-.93 1.74 3.9 3.9 0 0 1-2.15.53 7.27 7.27 0 0 1-1.87-.28zm3.36-2q0-1-1.31-1a1.82 1.82 0 0 0-1.75.92 2.14 2.14 0 0 0-.23.79 3.34 3.34 0 0 0 1.5.29q1.79 0 1.79-1zm8.79.79a.49.49 0 0 1-.56-.55 1.21 1.21 0 0 0-.39-1 1.31 1.31 0 0 0-.92-.24 1.72 1.72 0 0 0-.93.23 1.92 1.92 0 0 0-.6.59 3.12 3.12 0 0 0-.45 1.71 2.48 2.48 0 0 0 1.13 2.45 2 2 0 0 0 .91.21 2.58 2.58 0 0 0 .82-.11 4.31 4.31 0 0 0 .57-.24l.44-.24a.66.66 0 0 1 .31-.11.44.44 0 0 1 .39.23l.15.25a.69.69 0 0 1 .1.34.59.59 0 0 1-.14.35 1.46 1.46 0 0 1-.37.33 3.19 3.19 0 0 1-.52.27 5.45 5.45 0 0 1-.61.21 4.14 4.14 0 0 1-2.75-.12 3.36 3.36 0 0 1-1.92-2.11 5.11 5.11 0 0 1-.26-1.68 4.72 4.72 0 0 1 .28-1.67 3.61 3.61 0 0 1 .77-1.25 3.53 3.53 0 0 1 2.66-1.05 3 3 0 0 1 2.22.76 2.21 2.21 0 0 1 .65 1.63.74.74 0 0 1-.85.83h-.16zm7.2-2.01a.36.36 0 0 1-.43.38h-1.93v4.29a.61.61 0 0 0 .69.7 2.36 2.36 0 0 0 1.14-.44.53.53 0 0 1 .3-.09.3.3 0 0 1 .26.23l.16.36a.92.92 0 0 1 .09.35.5.5 0 0 1-.22.33 2.21 2.21 0 0 1-.55.34 3.4 3.4 0 0 1-1.37.34 3 3 0 0 1-1-.13 1.6 1.6 0 0 1-.61-.38 2 2 0 0 1-.55-1.54v-4.36h-.55a.36.36 0 0 1-.43-.39v-.39a.35.35 0 0 1 .08-.25.6.6 0 0 1 .32-.14l.68-.2.26-1.61a.42.42 0 0 1 .37-.45h.57a.32.32 0 0 1 .26.13.5.5 0 0 1 .1.32v1.54h1.93a.36.36 0 0 1 .43.38v.66zm2.47-2.35a1.09 1.09 0 0 1-.79-.32 1.05 1.05 0 0 1-.33-.79 1.1 1.1 0 0 1 1.12-1.11 1 1 0 0 1 1 .67 1.07 1.07 0 0 1 .09.44 1.05 1.05 0 0 1-.33.79 1.09 1.09 0 0 1-.76.32zm.8 7.15c0 .32.11.49.32.49a.61.61 0 0 0 .25-.06 1.17 1.17 0 0 1 .36-.12.27.27 0 0 1 .23.2l.21.48a.52.52 0 0 1 .05.22.72.72 0 0 1-.51.55 2.06 2.06 0 0 1-.95.25 2.23 2.23 0 0 1-.75-.1 1.1 1.1 0 0 1-.48-.34 2.56 2.56 0 0 1-.4-1.6v-5.35a.48.48 0 0 1 .11-.32.33.33 0 0 1 .26-.13h.96a.32.32 0 0 1 .26.13.5.5 0 0 1 .1.32v5.38zm2.6-2.01a4.35 4.35 0 0 1 .3-1.63 3.78 3.78 0 0 1 .82-1.27 4.13 4.13 0 0 1 5.61 0 4.11 4.11 0 0 1 1 2.91 4 4 0 0 1-1.11 2.93 4 4 0 0 1-5.54 0 4.07 4.07 0 0 1-1.08-2.94zm2.2-1.74a2.63 2.63 0 0 0-.37.86 4.13 4.13 0 0 0-.12 1 3.35 3.35 0 0 0 .13.95 2.52 2.52 0 0 0 .4.81 1.94 1.94 0 0 0 1.64.78 1.88 1.88 0 0 0 1.63-.77 3 3 0 0 0 .49-1.83 2.52 2.52 0 0 0-1.13-2.39 2.27 2.27 0 0 0-2 0 1.94 1.94 0 0 0-.67.59zm7.58-1.59a.43.43 0 0 1 .47-.49h.38a.52.52 0 0 1 .52.29 5 5 0 0 1 .33 1.08 2.82 2.82 0 0 1 1.83-1.44 3.75 3.75 0 0 1 1-.1 2.33 2.33 0 0 1 1.06.24 1.94 1.94 0 0 1 .77.67 4.1 4.1 0 0 1 .52 2.28V146a.45.45 0 0 1-.12.32.48.48 0 0 1-.36.13h-.67a.5.5 0 0 1-.38-.13.45.45 0 0 1-.12-.32v-4.25q0-1.75-1.29-1.75a1.9 1.9 0 0 0-1.37.63 2.18 2.18 0 0 0-.66 1.57v3.8a.47.47 0 0 1-.12.32.45.45 0 0 1-.36.13h-.7a.47.47 0 0 1-.36-.13.45.45 0 0 1-.12-.32v-4.2a14 14 0 0 0-.09-1.92 6.38 6.38 0 0 1-.16-.64z"/></g><g class="F"><path d="M66.12 180.38a2.51 2.51 0 0 0 1.9.71 2.65 2.65 0 0 0 1.82-.53 2.58 2.58 0 0 0 .78-1.37.38.38 0 0 1 .36-.31h.64a.31.31 0 0 1 .31.31 3.13 3.13 0 0 1-.45 1.42 3.4 3.4 0 0 1-1.29 1.24 4.31 4.31 0 0 1-2.18.5 4.17 4.17 0 0 1-2.06-.49 3.45 3.45 0 0 1-1.36-1.35 4.27 4.27 0 0 1-.53-2q0-.42 0-1.25 0-.83 0-1.25a4.26 4.26 0 0 1 .53-2 3.45 3.45 0 0 1 1.41-1.25 4.17 4.17 0 0 1 2.06-.49 4.31 4.31 0 0 1 2.18.5 3.4 3.4 0 0 1 1.25 1.23 3.13 3.13 0 0 1 .45 1.42.31.31 0 0 1-.31.31H71a.38.38 0 0 1-.36-.31 2.6 2.6 0 0 0-.78-1.37 2.66 2.66 0 0 0-1.82-.53 2.51 2.51 0 0 0-1.9.71 2.77 2.77 0 0 0-.72 1.9v1.18 1.18a2.77 2.77 0 0 0 .7 1.89zM77.58 175a.37.37 0 0 1 .11.27v.45a.38.38 0 0 1-.38.38h-.81a1.45 1.45 0 0 0-1.61 1.61v4.09a.38.38 0 0 1-.38.38H74a.38.38 0 0 1-.38-.38v-6.5a.38.38 0 0 1 .38-.38h.52a.38.38 0 0 1 .38.38v.44a1.74 1.74 0 0 1 .67-.62 2.29 2.29 0 0 1 1-.2h.73a.37.37 0 0 1 .28.08zm6.42.74a3.7 3.7 0 0 1 .87 2.59v.38a.38.38 0 0 1-.38.38h-4.82v.08a2 2 0 0 0 .57 1.45 1.91 1.91 0 0 0 1.39.52 2.6 2.6 0 0 0 1.08-.18 2.22 2.22 0 0 0 .69-.52.78.78 0 0 1 .2-.15.6.6 0 0 1 .25 0h.42a.38.38 0 0 1 .28.11.32.32 0 0 1 .1.27 1.53 1.53 0 0 1-.41.78 2.74 2.74 0 0 1-1 .67 4.18 4.18 0 0 1-1.59.27 3.08 3.08 0 0 1-1.6-.41 3 3 0 0 1-1.11-1.14 4 4 0 0 1-.5-1.64q0-.42 0-.64 0-.22 0-.64a3.76 3.76 0 0 1 .5-1.57 3.07 3.07 0 0 1 1.06-1.16 3.12 3.12 0 0 1 1.6-.41 3 3 0 0 1 2.4.96zm-.39 2.17h0a1.8 1.8 0 0 0-.54-1.37 2 2 0 0 0-1.44-.51 2 2 0 0 0-1.38.52 1.79 1.79 0 0 0-.58 1.36h0 3.93zm7.27-.31v-.18a1.28 1.28 0 0 0-.46-1.06 1.81 1.81 0 0 0-1.18-.37 1.72 1.72 0 0 0-.87.19 2.13 2.13 0 0 0-.59.57.48.48 0 0 1-.18.15.7.7 0 0 1-.27 0h-.43a.39.39 0 0 1-.27-.11.31.31 0 0 1-.1-.27 1.48 1.48 0 0 1 .41-.83 2.79 2.79 0 0 1 1-.68 3.31 3.31 0 0 1 1.32-.27 3 3 0 0 1 2.11.73 2.61 2.61 0 0 1 .8 2v4.27a.38.38 0 0 1-.38.38h-.53a.38.38 0 0 1-.38-.38v-.57a1.63 1.63 0 0 1-1 .8 3.84 3.84 0 0 1-1.46.29 3 3 0 0 1-1.27-.26 2 2 0 0 1-.86-.71 1.77 1.77 0 0 1-.3-1 2 2 0 0 1 .78-1.64 4.63 4.63 0 0 1 2.09-.8zm0 1.12l-1.65.27a3.74 3.74 0 0 0-1.41.46.92.92 0 0 0-.5.79.82.82 0 0 0 .32.63 1.46 1.46 0 0 0 1 .28 2.34 2.34 0 0 0 1.64-.57 1.93 1.93 0 0 0 .63-1.5v-.35zm5.38 1.96a1.11 1.11 0 0 0 .93.32h.74a.38.38 0 0 1 .38.38v.45a.38.38 0 0 1-.38.38h-.88a2.24 2.24 0 0 1-1.75-.62 2.64 2.64 0 0 1-.56-1.83v-3.63h-1a.38.38 0 0 1-.38-.38v-.45a.38.38 0 0 1 .38-.38h1v-2.28a.38.38 0 0 1 .38-.38h.52a.36.36 0 0 1 .27.11.37.37 0 0 1 .11.27v2.28h1.78a.38.38 0 0 1 .38.38v.45a.38.38 0 0 1-.38.38H96v3.63a1.5 1.5 0 0 0 .26.92zm8.69-4.94a3.7 3.7 0 0 1 .87 2.59v.38a.38.38 0 0 1-.38.38h-4.82v.08a2 2 0 0 0 .57 1.45 1.91 1.91 0 0 0 1.39.52 2.6 2.6 0 0 0 1.08-.18 2.22 2.22 0 0 0 .69-.52.78.78 0 0 1 .2-.15.6.6 0 0 1 .25 0h.42a.38.38 0 0 1 .28.11.32.32 0 0 1 .1.27 1.53 1.53 0 0 1-.41.78 2.74 2.74 0 0 1-1 .67 4.18 4.18 0 0 1-1.59.27 3.08 3.08 0 0 1-1.6-.41 3 3 0 0 1-1.11-1.14 4 4 0 0 1-.5-1.64q0-.42 0-.64 0-.22 0-.64a3.76 3.76 0 0 1 .5-1.57 3.07 3.07 0 0 1 1.11-1.11 3.12 3.12 0 0 1 1.6-.41 3 3 0 0 1 2.35.91zm-.39 2.17h0a1.8 1.8 0 0 0-.54-1.37 2 2 0 0 0-1.44-.51 2 2 0 0 0-1.38.52 1.79 1.79 0 0 0-.58 1.36h0 3.93zm10.69-.31v-.18a1.28 1.28 0 0 0-.46-1.06 1.81 1.81 0 0 0-1.18-.37 1.72 1.72 0 0 0-.87.19 2.13 2.13 0 0 0-.59.57.48.48 0 0 1-.18.15.7.7 0 0 1-.27 0h-.42a.39.39 0 0 1-.27-.11.31.31 0 0 1-.1-.27 1.48 1.48 0 0 1 .41-.83 2.79 2.79 0 0 1 1-.68 3.31 3.31 0 0 1 1.32-.27 3 3 0 0 1 2.11.73 2.61 2.61 0 0 1 .8 2v4.27a.38.38 0 0 1-.38.38h-.52a.38.38 0 0 1-.38-.38v-.57a1.63 1.63 0 0 1-1 .8 3.84 3.84 0 0 1-1.46.29 3 3 0 0 1-1.27-.26 2 2 0 0 1-.86-.71 1.77 1.77 0 0 1-.3-1 2 2 0 0 1 .78-1.64 4.63 4.63 0 0 1 2.09-.8zm0 1.12l-1.65.27a3.74 3.74 0 0 0-1.41.46.92.92 0 0 0-.5.79.82.82 0 0 0 .32.63 1.46 1.46 0 0 0 1 .28 2.34 2.34 0 0 0 1.64-.57 1.93 1.93 0 0 0 .63-1.5v-.35zm11.57 1.28a.9.9 0 0 1 .2-.29.39.39 0 0 1 .27-.08h.42a.37.37 0 0 1 .27.11.32.32 0 0 1 .11.24 1.82 1.82 0 0 1-.38 1 3 3 0 0 1-1.09.92 3.54 3.54 0 0 1-1.68.38 3.39 3.39 0 0 1-1.72-.42 2.87 2.87 0 0 1-1.12-1.15 3.83 3.83 0 0 1-.43-1.65v-.64-.48a3.77 3.77 0 0 1 1-2.32 3 3 0 0 1 2.31-.9 3.57 3.57 0 0 1 1.67.37 2.93 2.93 0 0 1 1.08.91 2 2 0 0 1 .4 1 .31.31 0 0 1-.1.27.39.39 0 0 1-.27.11h-.42a.39.39 0 0 1-.27-.08.88.88 0 0 1-.2-.29 1.87 1.87 0 0 0-1.89-1.09 1.94 1.94 0 0 0-1.34.52 2.26 2.26 0 0 0-.66 1.57q0 .15 0 .5 0 .35 0 .47a2.33 2.33 0 0 0 .67 1.57 1.92 1.92 0 0 0 1.34.52 1.87 1.87 0 0 0 1.83-1.07zm9.26-1.42v.64a3.5 3.5 0 0 1-1 2.28 3.63 3.63 0 0 1-4.66 0 3.5 3.5 0 0 1-1-2.28v-.64-.67a3.43 3.43 0 0 1 1-2.28 3.65 3.65 0 0 1 4.68 0 3.43 3.43 0 0 1 1 2.28c-.02.2-.02.43-.02.67zm-1.9-2a2.2 2.2 0 0 0-2.9 0 2.37 2.37 0 0 0-.6 1.44v.6.57a2.36 2.36 0 0 0 .6 1.44 2.2 2.2 0 0 0 2.9 0 2.36 2.36 0 0 0 .59-1.44q0-.31 0-.57v-.6a2.37 2.37 0 0 0-.58-1.48z"/><use xlink:href="#N"/><use xlink:href="#N" x="3.37"/><path d="M149.82 175.74a3.7 3.7 0 0 1 .87 2.59v.38a.38.38 0 0 1-.38.38h-4.82v.08a2 2 0 0 0 .57 1.45 1.91 1.91 0 0 0 1.39.52 2.6 2.6 0 0 0 1.08-.18 2.22 2.22 0 0 0 .69-.52.78.78 0 0 1 .2-.15.61.61 0 0 1 .25 0h.42a.38.38 0 0 1 .28.11.32.32 0 0 1 .1.27 1.53 1.53 0 0 1-.41.78 2.74 2.74 0 0 1-1 .67 4.18 4.18 0 0 1-1.59.27 3.08 3.08 0 0 1-1.6-.41 3 3 0 0 1-1.11-1.14 4 4 0 0 1-.5-1.64q0-.42 0-.64 0-.22 0-.64a3.76 3.76 0 0 1 .5-1.57 3.07 3.07 0 0 1 1.11-1.11 3.12 3.12 0 0 1 1.6-.41 3 3 0 0 1 2.35.91zm-.39 2.17h0a1.8 1.8 0 0 0-.54-1.37 2 2 0 0 0-1.43-.51 2 2 0 0 0-1.38.52 1.79 1.79 0 0 0-.58 1.36h0 3.93zm7.78 2.09a.9.9 0 0 1 .2-.29.39.39 0 0 1 .27-.08h.42a.37.37 0 0 1 .27.11.32.32 0 0 1 .11.24 1.82 1.82 0 0 1-.38 1A3 3 0 0 1 157 182a3.54 3.54 0 0 1-1.68.38 3.4 3.4 0 0 1-1.72-.42 2.88 2.88 0 0 1-1.12-1.15 3.84 3.84 0 0 1-.43-1.65v-.64-.48a3.77 3.77 0 0 1 1-2.32 3 3 0 0 1 2.31-.9 3.57 3.57 0 0 1 1.67.37 2.94 2.94 0 0 1 1.08.91 2 2 0 0 1 .4 1 .31.31 0 0 1-.1.27.39.39 0 0 1-.27.11h-.42a.39.39 0 0 1-.27-.08.88.88 0 0 1-.2-.29 1.87 1.87 0 0 0-1.89-1.09 1.94 1.94 0 0 0-1.34.52 2.27 2.27 0 0 0-.66 1.57v.5.47a2.33 2.33 0 0 0 .67 1.57 1.92 1.92 0 0 0 1.34.52 1.87 1.87 0 0 0 1.84-1.17zm5.09.68a1.11 1.11 0 0 0 .93.32h.77a.38.38 0 0 1 .38.38v.45a.38.38 0 0 1-.38.38h-.88a2.24 2.24 0 0 1-1.75-.62 2.65 2.65 0 0 1-.56-1.83v-3.63h-1a.38.38 0 0 1-.38-.38v-.45a.38.38 0 0 1 .38-.38h1v-2.28a.37.37 0 0 1 .38-.38h.52a.38.38 0 0 1 .38.38v2.28h1.78a.38.38 0 0 1 .38.38v.45a.38.38 0 0 1-.38.38h-1.78v3.63a1.51 1.51 0 0 0 .21.92zm4.75-6.97a.36.36 0 0 1-.27.11H166a.38.38 0 0 1-.38-.38v-.8a.37.37 0 0 1 .38-.38h.8a.38.38 0 0 1 .38.38v.8a.36.36 0 0 1-.13.27zm-.14 8.39a.37.37 0 0 1-.27.11h-.52a.38.38 0 0 1-.38-.38v-6.53a.38.38 0 0 1 .38-.38h.52a.38.38 0 0 1 .38.38v6.53a.37.37 0 0 1-.11.26z"/><use xlink:href="#O"/><path d="M183.56 182.09a.36.36 0 0 1-.27.11h-.52a.38.38 0 0 1-.38-.38v-3.7a2.24 2.24 0 0 0-.52-1.6 2.17 2.17 0 0 0-2.88 0 2.22 2.22 0 0 0-.53 1.6v3.7a.38.38 0 0 1-.38.38h-.52a.38.38 0 0 1-.38-.38v-6.52a.38.38 0 0 1 .38-.38h.52a.38.38 0 0 1 .38.38v.44a2.38 2.38 0 0 1 .85-.68 2.91 2.91 0 0 1 1.32-.27 3.2 3.2 0 0 1 1.57.38 2.67 2.67 0 0 1 1.07 1.08 3.45 3.45 0 0 1 .39 1.67v3.91a.37.37 0 0 1-.1.26z"/><use xlink:href="#O" x="19.99"/><path d="M200.9 174.93a.38.38 0 0 1 .38.38v.45a.38.38 0 0 1-.38.38h-1.78v5.7a.38.38 0 0 1-.38.38h-.52a.38.38 0 0 1-.38-.38v-5.7h-1.18a.38.38 0 0 1-.38-.38v-.46a.38.38 0 0 1 .38-.38h1.18v-.7a2.52 2.52 0 0 1 .56-1.79 2.32 2.32 0 0 1 1.75-.59h.85a.36.36 0 0 1 .27.11.37.37 0 0 1 .11.27v.45a.38.38 0 0 1-.38.38h-.7a1.11 1.11 0 0 0-.93.32 1.51 1.51 0 0 0-.24.92v.63h1.78z"/><path d="M69.52 192.54a3.7 3.7 0 0 1 .87 2.59v.38a.38.38 0 0 1-.38.38h-4.82v.11a2 2 0 0 0 .57 1.45 1.91 1.91 0 0 0 1.39.52 2.6 2.6 0 0 0 1.08-.18 2.23 2.23 0 0 0 .69-.52.74.74 0 0 1 .2-.15.59.59 0 0 1 .25 0h.43a.38.38 0 0 1 .28.11.32.32 0 0 1 .1.27 1.53 1.53 0 0 1-.41.78 2.75 2.75 0 0 1-1 .67 4.18 4.18 0 0 1-1.59.27 3.08 3.08 0 0 1-1.6-.41 3 3 0 0 1-1.11-1.14 4 4 0 0 1-.5-1.64q0-.42 0-.64 0-.22 0-.64a3.76 3.76 0 0 1 .5-1.57 3.06 3.06 0 0 1 1.08-1.18 3.11 3.11 0 0 1 1.6-.41 3 3 0 0 1 2.37.95zm-.39 2.17h0a1.79 1.79 0 0 0-.54-1.37 2 2 0 0 0-1.44-.51 2 2 0 0 0-1.38.52 1.8 1.8 0 0 0-.58 1.36h0 3.93zm3.58 4.03a1.49 1.49 0 0 1-.2.19.39.39 0 0 1-.25.08h-.64a.32.32 0 0 1-.24-.1.31.31 0 0 1-.1-.22.34.34 0 0 1 .06-.2l2.56-3.21-2.42-3a.34.34 0 0 1-.06-.2.31.31 0 0 1 .1-.22.32.32 0 0 1 .24-.1h.67a.4.4 0 0 1 .25.08 1.5 1.5 0 0 1 .2.19l1.86 2.34 1.85-2.37a1.47 1.47 0 0 1 .2-.19.4.4 0 0 1 .25-.08h.64a.32.32 0 0 1 .24.1.31.31 0 0 1 .1.22.35.35 0 0 1-.06.2l-2.44 3.07 2.53 3.18a.34.34 0 0 1 .06.2.31.31 0 0 1-.1.22.32.32 0 0 1-.24.1h-.67a.39.39 0 0 1-.25-.08 1.43 1.43 0 0 1-.2-.19l-2-2.48zm8.16 2.55a.38.38 0 0 1-.38.38H80a.38.38 0 0 1-.38-.38v-9.19a.38.38 0 0 1 .38-.38h.52a.38.38 0 0 1 .38.38v.43a2.54 2.54 0 0 1 2.17-1 3.11 3.11 0 0 1 1.57.41 3 3 0 0 1 1.13 1.16 3.86 3.86 0 0 1 .47 1.76q0 .14 0 .45v.46a3.81 3.81 0 0 1-.47 1.76 3.06 3.06 0 0 1-1.13 1.16 3.1 3.1 0 0 1-1.58.41 2.91 2.91 0 0 1-1.32-.27 2.4 2.4 0 0 1-.85-.68v3.09zm.59-3.89a2 2 0 0 0 1.44.55 1.87 1.87 0 0 0 1.45-.59 2.49 2.49 0 0 0 .59-1.6v-.39-.39a2.49 2.49 0 0 0-.59-1.6 1.87 1.87 0 0 0-1.45-.59 2 2 0 0 0-2.03 1.97v1.11a2.2 2.2 0 0 0 .59 1.53z"/><use xlink:href="#G" x="26.61" y="-35.21"/><path d="M97.67 195.38q0 .34 0 .64a3.5 3.5 0 0 1-1 2.28 3.63 3.63 0 0 1-4.66 0A3.5 3.5 0 0 1 91 196v-.64-.67a3.43 3.43 0 0 1 1-2.28 3.65 3.65 0 0 1 4.68 0 3.43 3.43 0 0 1 1 2.28c-.02.22-.01.45-.01.69zm-1.9-2a2.2 2.2 0 0 0-2.9 0 2.36 2.36 0 0 0-.6 1.44v.6.57a2.36 2.36 0 0 0 .6 1.44 2.2 2.2 0 0 0 2.9 0 2.36 2.36 0 0 0 .6-1.44q0-.31 0-.57v-.6a2.36 2.36 0 0 0-.6-1.48zm7.61-1.54a.37.37 0 0 1 .11.27v.45a.38.38 0 0 1-.38.38h-.81a1.45 1.45 0 0 0-1.61 1.61v4.09a.38.38 0 0 1-.38.38h-.51a.38.38 0 0 1-.38-.38v-6.54a.38.38 0 0 1 .38-.38h.52a.38.38 0 0 1 .38.38v.43a1.75 1.75 0 0 1 .67-.62 2.29 2.29 0 0 1 1-.2h.73a.37.37 0 0 1 .28.13zm5.55 2.56v-.18a1.29 1.29 0 0 0-.46-1.06 1.81 1.81 0 0 0-1.18-.37 1.71 1.71 0 0 0-.87.19 2.11 2.11 0 0 0-.59.57.46.46 0 0 1-.18.15.7.7 0 0 1-.27 0h-.42a.38.38 0 0 1-.27-.11.31.31 0 0 1-.1-.27 1.48 1.48 0 0 1 .41-.83 2.79 2.79 0 0 1 1-.68 3.29 3.29 0 0 1 1.32-.27 3 3 0 0 1 2.11.73 2.62 2.62 0 0 1 .8 2v4.27a.38.38 0 0 1-.38.38h-.55a.38.38 0 0 1-.38-.38v-.57a1.64 1.64 0 0 1-1 .8 3.86 3.86 0 0 1-1.46.29 3 3 0 0 1-1.27-.26 2 2 0 0 1-.86-.71 1.77 1.77 0 0 1-.3-1 2 2 0 0 1 .78-1.64 4.62 4.62 0 0 1 2.09-.81zm0 1.12l-1.65.27a3.77 3.77 0 0 0-1.41.46.92.92 0 0 0-.5.79.82.82 0 0 0 .32.63 1.46 1.46 0 0 0 1 .28 2.34 2.34 0 0 0 1.64-.57 1.93 1.93 0 0 0 .63-1.5v-.35zm5.38 1.96a1.11 1.11 0 0 0 .93.32h.76a.38.38 0 0 1 .38.38v.45a.38.38 0 0 1-.38.38h-.9a2.24 2.24 0 0 1-1.75-.62 2.65 2.65 0 0 1-.56-1.83v-3.63h-1a.38.38 0 0 1-.38-.38v-.45a.38.38 0 0 1 .38-.38h1v-2.28a.38.38 0 0 1 .38-.38h.52a.38.38 0 0 1 .38.38v2.28h1.78a.38.38 0 0 1 .38.38v.45a.38.38 0 0 1-.38.38h-1.78v3.63a1.5 1.5 0 0 0 .24.92zm4.75-6.97a.36.36 0 0 1-.27.11H118a.38.38 0 0 1-.38-.38v-.8a.38.38 0 0 1 .38-.38h.8a.38.38 0 0 1 .38.38v.8a.36.36 0 0 1-.12.27zm-.14 8.39a.36.36 0 0 1-.27.11h-.52a.38.38 0 0 1-.38-.38v-6.53a.38.38 0 0 1 .38-.38h.52a.38.38 0 0 1 .38.38v6.52a.36.36 0 0 1-.11.27zm8.54-3.52q0 .34 0 .64a3.5 3.5 0 0 1-1 2.28 3.63 3.63 0 0 1-4.66 0 3.5 3.5 0 0 1-1-2.28v-.64-.67a3.43 3.43 0 0 1 1-2.28 3.65 3.65 0 0 1 4.68 0 3.43 3.43 0 0 1 1 2.28c-.03.2-.02.43-.02.67zm-1.9-2a2.2 2.2 0 0 0-2.9 0 2.36 2.36 0 0 0-.6 1.44v.6.57a2.36 2.36 0 0 0 .6 1.44 2.2 2.2 0 0 0 2.9 0 2.36 2.36 0 0 0 .6-1.44q0-.31 0-.57v-.6a2.36 2.36 0 0 0-.6-1.48z"/><use xlink:href="#M" x="14.21" y="-16.76"/><path d="M137.42 193.69a1.89 1.89 0 0 1 .31-1 2.14 2.14 0 0 1 .92-.76 3.48 3.48 0 0 1 1.49-.29 4 4 0 0 1 1.5.25 2.46 2.46 0 0 1 1 .63 1.13 1.13 0 0 1 .33.73.32.32 0 0 1-.11.24.38.38 0 0 1-.27.11h-.46a.51.51 0 0 1-.42-.2 1.82 1.82 0 0 0-1.53-.56 2 2 0 0 0-1 .24.73.73 0 0 0-.4.66.69.69 0 0 0 .2.53 1.43 1.43 0 0 0 .59.29q.39.11 1.39.34a3.37 3.37 0 0 1 1.75.81 1.86 1.86 0 0 1 .52 1.33 1.76 1.76 0 0 1-.36 1.06 2.5 2.5 0 0 1-1 .79 3.71 3.71 0 0 1-1.55.3 4 4 0 0 1-1.53-.27 2.86 2.86 0 0 1-1-.67 1.13 1.13 0 0 1-.36-.74.33.33 0 0 1 .11-.25.37.37 0 0 1 .27-.1h.5a.83.83 0 0 1 .22 0 .35.35 0 0 1 .18.15 1.88 1.88 0 0 0 1.64.64 2.37 2.37 0 0 0 1.16-.27.79.79 0 0 0 .5-.68.66.66 0 0 0-.25-.54 2 2 0 0 0-.71-.34q-.46-.13-1.44-.34-2.19-.44-2.19-2.09z"/></g><defs ><path id="B" d="M81.7 173.4a.71.71 0 0 1-.75.85h-.47a.4.4 0 0 1-.34-.16.82.82 0 0 1-.14-.45 1 1 0 0 0-.17-.52 1.22 1.22 0 0 0-.4-.38 2.41 2.41 0 0 0-1.22-.27 2.64 2.64 0 0 0-1.32.32 2.56 2.56 0 0 0-.9.85 4.79 4.79 0 0 0-.66 2.67q0 3 2 3.77a3.24 3.24 0 0 0 1.18.23 4.23 4.23 0 0 0 1.83-.38l.38-.18a.82.82 0 0 1 .33-.08.37.37 0 0 1 .23.07 1.06 1.06 0 0 1 .22.33 1 1 0 0 1 .13.44.63.63 0 0 1-.13.37 1.36 1.36 0 0 1-.32.32 3.15 3.15 0 0 1-.81.36 7 7 0 0 1-2 .26 4.86 4.86 0 0 1-2.06-.42 4.28 4.28 0 0 1-1.52-1.16 5.92 5.92 0 0 1-1.26-3.94 5.56 5.56 0 0 1 1.28-3.84 4.55 4.55 0 0 1 3.6-1.48 4.37 4.37 0 0 1 2.23.56 2 2 0 0 1 1.06 1.86z"/><path id="C" d="M94.29 179.78q0 .48.34.49a.87.87 0 0 0 .28-.06 1.81 1.81 0 0 1 .38-.12.28.28 0 0 1 .25.2l.21.49a.52.52 0 0 1 0 .19.6.6 0 0 1-.26.38 2.06 2.06 0 0 1-1.36.43q-1.53 0-1.53-2V170a.47.47 0 0 1 .11-.31.33.33 0 0 1 .26-.13h.92a.32.32 0 0 1 .26.13.49.49 0 0 1 .1.31v9.8z"/><path id="D" d="M115.27 177a.49.49 0 0 1-.56-.55 1.21 1.21 0 0 0-.39-1 1.31 1.31 0 0 0-.9-.29 1.72 1.72 0 0 0-.93.23 1.93 1.93 0 0 0-.6.59 3.12 3.12 0 0 0-.45 1.71 2.48 2.48 0 0 0 1.13 2.45 2 2 0 0 0 .91.21 2.58 2.58 0 0 0 .82-.11 4.26 4.26 0 0 0 .57-.24l.44-.24a.66.66 0 0 1 .31-.11.44.44 0 0 1 .39.23l.15.25a.69.69 0 0 1 .1.34.59.59 0 0 1-.14.35 1.46 1.46 0 0 1-.37.33 3.2 3.2 0 0 1-.52.27 5.39 5.39 0 0 1-.61.21 4.14 4.14 0 0 1-2.75-.12 3.36 3.36 0 0 1-1.92-2.11 5.12 5.12 0 0 1-.26-1.68 4.72 4.72 0 0 1 .28-1.67 3.61 3.61 0 0 1 .77-1.25 3.53 3.53 0 0 1 2.66-1.05 3 3 0 0 1 2.22.76 2.21 2.21 0 0 1 .65 1.63.74.74 0 0 1-.85.83h-.16z"/><path id="E" d="M123.21 210.94a3.7 3.7 0 0 1 .87 2.59v.38a.38.38 0 0 1-.38.38h-4.82v.08a2 2 0 0 0 .57 1.45 1.91 1.91 0 0 0 1.39.52 2.6 2.6 0 0 0 1.08-.18 2.23 2.23 0 0 0 .69-.52.74.74 0 0 1 .2-.15.59.59 0 0 1 .25 0h.42a.38.38 0 0 1 .28.11.32.32 0 0 1 .1.27 1.53 1.53 0 0 1-.41.78 2.75 2.75 0 0 1-1 .67 4.18 4.18 0 0 1-1.59.27 3.08 3.08 0 0 1-1.6-.41 3 3 0 0 1-1.11-1.14 4 4 0 0 1-.5-1.64q0-.42 0-.64 0-.22 0-.64a3.76 3.76 0 0 1 .5-1.57 3.06 3.06 0 0 1 1.11-1.11 3.11 3.11 0 0 1 1.6-.41 3 3 0 0 1 2.35.91zm-.39 2.17h0a1.79 1.79 0 0 0-.54-1.37 2 2 0 0 0-1.44-.51 2 2 0 0 0-1.38.52 1.8 1.8 0 0 0-.58 1.36h0 3.93z"/><path id="F" d="M130.6 215.25a.89.89 0 0 1 .2-.29.4.4 0 0 1 .27-.08h.42a.37.37 0 0 1 .27.11.32.32 0 0 1 .11.25 1.82 1.82 0 0 1-.38 1 3 3 0 0 1-1.09.92 3.54 3.54 0 0 1-1.68.38 3.38 3.38 0 0 1-1.72-.42 2.87 2.87 0 0 1-1.12-1.15 3.83 3.83 0 0 1-.43-1.65v-.64-.48a3.77 3.77 0 0 1 1-2.32 3 3 0 0 1 2.31-.9 3.56 3.56 0 0 1 1.67.37 2.92 2.92 0 0 1 1.08.91 2 2 0 0 1 .4 1 .31.31 0 0 1-.1.27.39.39 0 0 1-.27.11h-.42a.4.4 0 0 1-.27-.08.88.88 0 0 1-.2-.29 1.87 1.87 0 0 0-1.89-1.09 1.94 1.94 0 0 0-1.34.52 2.27 2.27 0 0 0-.66 1.57q0 .15 0 .5v.48a2.33 2.33 0 0 0 .67 1.57 1.92 1.92 0 0 0 1.34.52 1.87 1.87 0 0 0 1.83-1.09z"/><path id="G" d="M62.52 234.1a.36.36 0 0 1-.27.11h-.51a.38.38 0 0 1-.38-.38v-9.18a.38.38 0 0 1 .38-.38h.52a.38.38 0 0 1 .38.38v9.18a.36.36 0 0 1-.12.27z"/><path id="H" d="M76.78 227a.37.37 0 0 1 .11.27v.45a.38.38 0 0 1-.38.38h-.81a1.45 1.45 0 0 0-1.61 1.61v4.09a.38.38 0 0 1-.38.38h-.52a.38.38 0 0 1-.38-.38v-6.52a.38.38 0 0 1 .38-.38h.52a.38.38 0 0 1 .38.38v.43a1.75 1.75 0 0 1 .67-.62 2.29 2.29 0 0 1 1-.2h.73a.37.37 0 0 1 .29.11z"/><path id="I" d="M87.7 232.68a1.11 1.11 0 0 0 .93.32h.74a.38.38 0 0 1 .38.38v.45a.38.38 0 0 1-.38.38h-.88a2.24 2.24 0 0 1-1.75-.62 2.65 2.65 0 0 1-.56-1.83v-3.63h-1a.38.38 0 0 1-.38-.38v-.45a.38.38 0 0 1 .38-.38h1v-2.28a.38.38 0 0 1 .38-.38h.52a.38.38 0 0 1 .38.38v2.28h1.78a.38.38 0 0 1 .38.38v.45a.38.38 0 0 1-.38.38h-1.78v3.63a1.5 1.5 0 0 0 .24.92z"/><path id="J" d="M106.69 161.33q0 .48.34.49a.87.87 0 0 0 .28-.06 1.81 1.81 0 0 1 .38-.12.28.28 0 0 1 .25.2l.21.49a.52.52 0 0 1 0 .19.6.6 0 0 1-.26.38 2.06 2.06 0 0 1-1.36.43q-1.53 0-1.53-2v-9.75a.47.47 0 0 1 .11-.31.33.33 0 0 1 .26-.13h.92a.32.32 0 0 1 .26.13.49.49 0 0 1 .1.31v9.8z"/><path id="K" d="M152.85 190.47a.36.36 0 0 1-.27.11h-.8a.38.38 0 0 1-.38-.38v-.8a.38.38 0 0 1 .38-.38h.8a.38.38 0 0 1 .38.38v.8a.36.36 0 0 1-.11.27zm-.14 8.39a.36.36 0 0 1-.27.11h-.52a.38.38 0 0 1-.38-.38v-6.52a.38.38 0 0 1 .38-.38h.52a.38.38 0 0 1 .38.38v6.52a.36.36 0 0 1-.11.26z"/><path id="L" d="M161.25 195.34q0 .34 0 .64a3.5 3.5 0 0 1-1 2.28 3.63 3.63 0 0 1-4.66 0 3.5 3.5 0 0 1-1-2.28v-.64-.67a3.43 3.43 0 0 1 1-2.28 3.65 3.65 0 0 1 4.68 0 3.43 3.43 0 0 1 1 2.28c-.03.2-.02.43-.02.67zm-1.9-2a2.2 2.2 0 0 0-2.9 0 2.37 2.37 0 0 0-.6 1.44v.6.57a2.37 2.37 0 0 0 .6 1.44 2.2 2.2 0 0 0 2.9 0 2.37 2.37 0 0 0 .6-1.44q0-.31 0-.57v-.6a2.37 2.37 0 0 0-.6-1.49z"/><path id="M" d="M121.36 215.65a.36.36 0 0 1-.27.11h-.52a.38.38 0 0 1-.38-.38v-3.7a2.23 2.23 0 0 0-.52-1.6 2.17 2.17 0 0 0-2.88 0 2.21 2.21 0 0 0-.52 1.6v3.7a.38.38 0 0 1-.38.38h-.52a.38.38 0 0 1-.38-.38v-6.52a.38.38 0 0 1 .38-.38h.52a.38.38 0 0 1 .38.38v.43a2.41 2.41 0 0 1 .85-.68 2.91 2.91 0 0 1 1.32-.27 3.2 3.2 0 0 1 1.57.38 2.67 2.67 0 0 1 1.07 1.08 3.45 3.45 0 0 1 .39 1.67v3.91a.36.36 0 0 1-.11.27z"/><path id="N" d="M139 182.09a.37.37 0 0 1-.27.11h-.52a.38.38 0 0 1-.38-.38v-9.18a.38.38 0 0 1 .38-.38h.52a.37.37 0 0 1 .38.38v9.18a.37.37 0 0 1-.11.27z"/><path id="O" d="M175.45 178.58v.64a3.5 3.5 0 0 1-1 2.28 3.63 3.63 0 0 1-4.66 0 3.5 3.5 0 0 1-1-2.28v-.64-.67a3.43 3.43 0 0 1 1-2.28 3.65 3.65 0 0 1 4.68 0 3.43 3.43 0 0 1 1 2.28c-.03.2-.02.43-.02.67zm-1.9-2a2.2 2.2 0 0 0-2.9 0 2.37 2.37 0 0 0-.6 1.44v.6.57a2.37 2.37 0 0 0 .6 1.44 2.2 2.2 0 0 0 2.9 0 2.37 2.37 0 0 0 .6-1.44q0-.31 0-.57v-.6a2.37 2.37 0 0 0-.59-1.48z"/></defs></svg>