<svg xmlns="http://www.w3.org/2000/svg" viewBox="0 0 265.8 311" xmlns:v="https://vecta.io/nano"><style><![CDATA[.B,.F{isolation:isolate}]]></style><path d="M0 0h265.8v311H0z" fill="#afd2eb"/><path class="B" d="M30.9 37h200v240h-200z" opacity=".22"/><path d="M32.9 34.5h200v240h-200z" fill="#fff"/><path d="M32.8 34.5h200v144h-200z" fill="#9d6901"/><path d="M134 69.9a31.7 31.7 0 1 0 31.9 31.5A31.77 31.77 0 0 0 134 69.9zm-.1 8h.8a2.17 2.17 0 0 1 1 1.9v3.6c0 1.1-.5 1.8-1.4 1.8s-1.3-.6-1.3-1.8v-3.7a1.61 1.61 0 0 1 .9-1.8zm-20.3 12.5c.9-1 1.3-1.1 2.5-.5a17.5 17.5 0 0 1 3.4 1.5 1.55 1.55 0 0 1 1.1 1.8 1.48 1.48 0 0 1-2.1.7l-4.1-1.9a6 6 0 0 1-.8-.8v-.8zm6.4 13.1l-4.4.7a1.83 1.83 0 0 1-1.8-.9v-.6a2 2 0 0 1 1.9-1.1 28.68 28.68 0 0 1 3.1-.5c.3 0 .6-.1 1-.1a1.39 1.39 0 0 1 1.6 1.1c.1.8-.7 1.2-1.4 1.4zm1.8-22.5a1.76 1.76 0 0 1 1.6.1c1.1 1.4 2 3 3 4.4a2.18 2.18 0 0 1 .1.6 2.28 2.28 0 0 1-.8.9 1.21 1.21 0 0 1-1.3-.1c-1.1-1.4-2-2.8-3-4.3a1 1 0 0 1 .4-1.6zm16.3 42.6h-8.2a1 1 0 0 1-1.2-1c-.1-2.1-.1-2.1 2-2.1h7.9c1.2 0 1.3 0 1.4 1.2.1 1.9.1 1.9-1.9 1.9zm0-4.3h-8.2a1 1 0 0 1-1.2-1c-.1-2.1-.1-2.1 2-2.1h7.9c1.2 0 1.3 0 1.4 1.2.1 1.8.1 1.8-1.9 1.9zm7.3-21.8a15.27 15.27 0 0 1-1.6 6 36.08 36.08 0 0 0-3.7 9.4c-.2 1.3-.4 1.4-1.8 1.4h-8.2a1.13 1.13 0 0 1-1.3-.9c-.2-.8-.5-1.5-.6-2.2a32.18 32.18 0 0 0-3.1-7.4 13.9 13.9 0 0 1-1.8-8 8.57 8.57 0 0 1 6.1-7.8 15 15 0 0 1 9.6-.1 9.33 9.33 0 0 1 6.4 9.6zm1.4-14.8a28.16 28.16 0 0 1-2.4 3.6 1.34 1.34 0 0 1-2.1.4c-.7-.4-.8-1.2-.3-2.1a26.37 26.37 0 0 1 2.3-3.5 2.06 2.06 0 0 1 1.7-.7c.4 0 .7.7 1 1 .1.8.1 1-.2 1.3zm8.1 20.2a1.68 1.68 0 0 1-2.1 1l-4.1-.6a1.46 1.46 0 0 1-1.3-1.6 1.29 1.29 0 0 1 1.5-1.2l4.6.8a4.7 4.7 0 0 1 1.2.9 1.08 1.08 0 0 1 .2.7zm-.1-12a7.41 7.41 0 0 1-1.3 1.2c-1 .6-2.1 1-3.2 1.6a1.63 1.63 0 0 1-2.4-.6c-.3-.7.1-1.5 1.1-2s2.3-.9 3.5-1.5 1.6-.4 2.4.7a1.27 1.27 0 0 0-.1.6z" fill="#fff"/><path d="M49.12 155.62a.7.7 0 0 1 .74-.85h.28a.78.78 0 0 1 .39.07 1.25 1.25 0 0 1 .38.39l4.4 6.48a4.86 4.86 0 0 1 .4.68l.29.61h0a.36.36 0 0 0 0-.18q0-.18-.07-.52a4.18 4.18 0 0 1-.05-.67v-6.43a.43.43 0 0 1 .11-.3.33.33 0 0 1 .26-.12h.9a.32.32 0 0 1 .25.12.43.43 0 0 1 .11.3v9.38a.54.54 0 0 1-.17.42.82.82 0 0 1-.52.26h-.42a.89.89 0 0 1-.5-.11 3.12 3.12 0 0 1-.57-.67q-3.9-5.71-4.18-6.17l-.57-1h0v.1c0 .1 0 .18.06.34s0 .34.07.54q.07.68.07 1.27v5.24a.43.43 0 0 1-.11.29.33.33 0 0 1-.26.12h-.9a.32.32 0 0 1-.25-.12.43.43 0 0 1-.11-.29v-9.21zm12.38 6.15v.13a2 2 0 0 0 .59 1.5 2.32 2.32 0 0 0 1.69.6 3.09 3.09 0 0 0 1.8-.58.51.51 0 0 1 .28-.11.41.41 0 0 1 .38.25l.19.44a.71.71 0 0 1 .06.29.52.52 0 0 1-.14.33 1.45 1.45 0 0 1-.37.3 2.74 2.74 0 0 1-.52.24 5.46 5.46 0 0 1-.61.17 6.19 6.19 0 0 1-1.31.14 3.91 3.91 0 0 1-1.38-.26 3.36 3.36 0 0 1-1.2-.76 3.82 3.82 0 0 1-1.09-2.86q0-3.17 2.23-3.94a4.39 4.39 0 0 1 1.43-.24 4.35 4.35 0 0 1 1.25.16 2.57 2.57 0 0 1 .89.46 2.21 2.21 0 0 1 .79 1.81 2 2 0 0 1-.93 1.74 3.9 3.9 0 0 1-2.15.53 7.27 7.27 0 0 1-1.88-.34zm3.36-2q0-1-1.31-1a1.82 1.82 0 0 0-1.75.92 2.14 2.14 0 0 0-.23.79 3.34 3.34 0 0 0 1.5.29q1.8.03 1.8-1zm14-2.23a.38.38 0 0 1 .44.41 14.59 14.59 0 0 1-.67 3.89 8.37 8.37 0 0 1-1.32 2.8 1.51 1.51 0 0 1-1.18.7 1.42 1.42 0 0 1-1-.31 1.68 1.68 0 0 1-.48-.9q-.37-1.54-.52-2.1l-.26-1-.17-.59v.18l-.06.27-.14.59a16.89 16.89 0 0 1-.63 1.95q-.22.5-.38.78a3 3 0 0 1-.37.52 1.43 1.43 0 0 1-1.08.55A1.47 1.47 0 0 1 69.5 164q-.35-1.47-.79-2.91l-.91-2.88a.83.83 0 0 1 0-.27.39.39 0 0 1 .46-.42H69a.59.59 0 0 1 .56.51q.4 1.4.7 2.75l.59 2.69a.26.26 0 0 0 .19.25.38.38 0 0 0 .28-.27q.13-.27.29-.65l.3-.83.28-.92.25-1q.23-1 .38-1.78v-.29a.61.61 0 0 1 .72-.41 1.8 1.8 0 0 1 .55.05.94.94 0 0 1 .43.57q.17.46.37 1.12.2.66.38 1.37.46 1.81.68 2.79a.2.2 0 0 0 .14.2.58.58 0 0 0 .33-.36 6.07 6.07 0 0 0 .41-1 13 13 0 0 0 .37-1.37 16.3 16.3 0 0 0 .36-3 .39.39 0 0 1 .3-.43H78h.79zm6.3-2.33a.46.46 0 0 1 .11-.31.34.34 0 0 1 .27-.13h6a.33.33 0 0 1 .27.11.43.43 0 0 1 .09.28v.74a.41.41 0 0 1-.09.27.33.33 0 0 1-.27.11h-4.66v3h3.72a.33.33 0 0 1 .27.11.42.42 0 0 1 .09.28v.74a.42.42 0 0 1-.09.27.33.33 0 0 1-.27.11h-3.72v3h4.71a.33.33 0 0 1 .27.11.43.43 0 0 1 .09.28v.74a.41.41 0 0 1-.09.27.33.33 0 0 1-.27.11h-6a.33.33 0 0 1-.27-.13.46.46 0 0 1-.11-.31v-9.6zm8 9.88a.53.53 0 0 1-.12-.31.62.62 0 0 1 .2-.46 6.19 6.19 0 0 0 .48-.53c.19-.22.37-.47.55-.72l.54-.78.51-.79-2.21-3.25a.4.4 0 0 1-.08-.22.41.41 0 0 1 0-.19.5.5 0 0 1 .11-.15.49.49 0 0 1 .34-.15h.62a.87.87 0 0 1 .79.54q1.18 2.1 1.37 2.4l.81-1.48a8.64 8.64 0 0 1 .63-1.08 1.07 1.07 0 0 1 .37-.34.87.87 0 0 1 .35-.07H99a.48.48 0 0 1 .51.48.87.87 0 0 1-.29.64 7.47 7.47 0 0 0-.55.59l-.51.66q-.26.34-.51.7l-.46.7 2.32 3.22a.49.49 0 0 1 .08.28.42.42 0 0 1-.13.29.41.41 0 0 1-.3.13h-.72a.75.75 0 0 1-.62-.26 2.25 2.25 0 0 1-.21-.32l-1-1.77-.3-.51-.77 1.48-.33.59a1.31 1.31 0 0 1-1.09.79h-.6a.41.41 0 0 1-.36-.11zm9.67-1.02q.07.68.07 1.71v2.82a.41.41 0 0 1-.4.51h-.85a.43.43 0 0 1-.43-.53V161a13.66 13.66 0 0 0-.21-2.8 1.15 1.15 0 0 1 0-.25.4.4 0 0 1 .13-.29.43.43 0 0 1 .32-.13h.42a.55.55 0 0 1 .53.33 3.6 3.6 0 0 1 .28 1 2.88 2.88 0 0 1 1.31-1.22 3.13 3.13 0 0 1 1.34-.27 3 3 0 0 1 1.34.29 2.77 2.77 0 0 1 1 .8 4.31 4.31 0 0 1 .77 2.69 5 5 0 0 1-.87 3 2.82 2.82 0 0 1-2.4 1.29 2.48 2.48 0 0 1-2.35-1.37zm-.09-2.43a2.41 2.41 0 0 0 .66 1.7 1.88 1.88 0 0 0 1.41.67 1.56 1.56 0 0 0 1.47-1 4.31 4.31 0 0 0 .38-1.93 2.76 2.76 0 0 0-.45-1.6 1.5 1.5 0 0 0-1.29-.71 2 2 0 0 0-1.55.75 2.58 2.58 0 0 0-.62 1.72v.38zm9.38 1.73q0 .48.34.49a.87.87 0 0 0 .28-.06 1.81 1.81 0 0 1 .38-.12.28.28 0 0 1 .25.2l.21.49a.52.52 0 0 1 0 .19.6.6 0 0 1-.26.38 2.06 2.06 0 0 1-1.36.43q-1.53 0-1.53-2v-9.75a.47.47 0 0 1 .11-.31.33.33 0 0 1 .26-.13h.92a.32.32 0 0 1 .26.13.49.49 0 0 1 .1.31v9.8zm2.57-2a4.35 4.35 0 0 1 .3-1.63 3.79 3.79 0 0 1 .82-1.27 4.13 4.13 0 0 1 5.61 0 4.11 4.11 0 0 1 1 2.91 4 4 0 0 1-1.11 2.93 4 4 0 0 1-5.54 0 4.07 4.07 0 0 1-1.08-2.94zm2.2-1.74a2.64 2.64 0 0 0-.37.86 4.16 4.16 0 0 0-.12 1 3.35 3.35 0 0 0 .13.95 2.52 2.52 0 0 0 .4.81 1.94 1.94 0 0 0 1.64.78 1.88 1.88 0 0 0 1.63-.77 3 3 0 0 0 .49-1.83 2.52 2.52 0 0 0-1.13-2.39 2.26 2.26 0 0 0-2 0 1.94 1.94 0 0 0-.68.59zm7.4-1.63a.41.41 0 0 1 .43-.49h.37a.55.55 0 0 1 .53.33 4.43 4.43 0 0 1 .33 1.32h0a1.06 1.06 0 0 0 0-.23 2.07 2.07 0 0 1 .2-.57 2 2 0 0 1 .4-.57 1.67 1.67 0 0 1 1.19-.46 1.73 1.73 0 0 1 1.09.26.33.33 0 0 1 .12.32l-.11.86a.34.34 0 0 1-.36.35 1.41 1.41 0 0 1-.37-.06 2.84 2.84 0 0 0-.67-.11.86.86 0 0 0-.52.21 2.06 2.06 0 0 0-.47.54 2.72 2.72 0 0 0-.4 1.43v3.63a.48.48 0 0 1-.11.32.39.39 0 0 1-.31.13h-.79a.41.41 0 0 1-.33-.13.47.47 0 0 1-.11-.32v-4.71a10 10 0 0 0-.08-1.59 3.75 3.75 0 0 1-.03-.46zm12.2 6.89a.32.32 0 0 1-.36.36h-.66a.35.35 0 0 1-.32-.11.53.53 0 0 1-.06-.19v-.21c0-.08-.07-.46-.12-.72a2.61 2.61 0 0 1-1.67 1.29 3.38 3.38 0 0 1-.89.11 3.06 3.06 0 0 1-1-.16 2.58 2.58 0 0 1-.86-.47 2.32 2.32 0 0 1-.85-1.87 2.24 2.24 0 0 1 .93-1.93 3.34 3.34 0 0 1 2-.54 3 3 0 0 1 2 .7q0-.23 0-.58a1.88 1.88 0 0 0-.14-.7 1.53 1.53 0 0 0-.39-.58 2.12 2.12 0 0 0-1.45-.46 3.59 3.59 0 0 0-1.7.46.62.62 0 0 1-.29.09.5.5 0 0 1-.36-.36 1.42 1.42 0 0 1-.18-.53.76.76 0 0 1 .45-.58 4.34 4.34 0 0 1 2.3-.53 3.28 3.28 0 0 1 2.17.72 3 3 0 0 1 1 2.43 8.75 8.75 0 0 1-.23 1.76 9.24 9.24 0 0 1 .68 2.6zm-4.58-2.9a1.45 1.45 0 0 0-.4.41.94.94 0 0 0-.12.48 1.16 1.16 0 0 0 .1.49 1 1 0 0 0 .28.36 1.33 1.33 0 0 0 .84.29 2.28 2.28 0 0 0 .77-.11 1.88 1.88 0 0 0 .52-.28 1 1 0 0 0 .47-.78 1 1 0 0 0-.57-.81 2.18 2.18 0 0 0-1.11-.27 1.28 1.28 0 0 0-.78.23zm10.73-3.41a.36.36 0 0 1-.43.38h-1.93v4.29a.61.61 0 0 0 .69.7 2.36 2.36 0 0 0 1.14-.44.53.53 0 0 1 .3-.09.3.3 0 0 1 .26.23l.16.36a.9.9 0 0 1 .09.35.5.5 0 0 1-.21.33 2.2 2.2 0 0 1-.55.34 3.4 3.4 0 0 1-1.37.34 3 3 0 0 1-1-.13 1.62 1.62 0 0 1-.61-.38 2.05 2.05 0 0 1-.55-1.54V159h-.57a.36.36 0 0 1-.43-.39v-.39a.35.35 0 0 1 .08-.25.61.61 0 0 1 .32-.14l.68-.2.29-1.63a.42.42 0 0 1 .37-.45h.57a.32.32 0 0 1 .26.13.5.5 0 0 1 .1.32v1.54h1.93a.36.36 0 0 1 .43.38v.66zm2.47-2.36a1.09 1.09 0 0 1-.79-.32 1.05 1.05 0 0 1-.33-.79 1.1 1.1 0 0 1 1.12-1.11 1 1 0 0 1 1 .67 1.12 1.12 0 0 1-.24 1.23 1.08 1.08 0 0 1-.76.32zm.8 7.15q0 .48.32.49a.61.61 0 0 0 .25-.06 1.17 1.17 0 0 1 .36-.12.27.27 0 0 1 .23.2l.21.48a.51.51 0 0 1 .05.22.72.72 0 0 1-.51.55 2.06 2.06 0 0 1-.95.25 2.24 2.24 0 0 1-.75-.1 1.12 1.12 0 0 1-.48-.34 2.56 2.56 0 0 1-.4-1.6V158a.49.49 0 0 1 .11-.32.33.33 0 0 1 .26-.13h.92a.32.32 0 0 1 .26.13.5.5 0 0 1 .1.32v5.38zm2.6-2a4.35 4.35 0 0 1 .3-1.63 3.79 3.79 0 0 1 .82-1.27 4.13 4.13 0 0 1 5.61 0 4.11 4.11 0 0 1 1 2.91 4 4 0 0 1-1.11 2.93 4 4 0 0 1-5.54 0 4.07 4.07 0 0 1-1.08-2.94zm2.2-1.74a2.65 2.65 0 0 0-.37.86 4.18 4.18 0 0 0-.12 1 3.35 3.35 0 0 0 .13.95 2.52 2.52 0 0 0 .4.81 1.94 1.94 0 0 0 1.64.78 1.88 1.88 0 0 0 1.63-.77 3 3 0 0 0 .49-1.83 2.52 2.52 0 0 0-1.13-2.39 2.26 2.26 0 0 0-2 0 1.93 1.93 0 0 0-.67.59zm7.58-1.63a.43.43 0 0 1 .47-.49h.38a.52.52 0 0 1 .52.29 4.92 4.92 0 0 1 .33 1.08 2.82 2.82 0 0 1 1.83-1.44 3.76 3.76 0 0 1 1-.1 2.32 2.32 0 0 1 1.06.24 1.92 1.92 0 0 1 .77.67 4.09 4.09 0 0 1 .52 2.28v4.25a.45.45 0 0 1-.12.32.47.47 0 0 1-.36.13H164a.5.5 0 0 1-.38-.13.45.45 0 0 1-.12-.32v-4.25q0-1.75-1.29-1.75a1.9 1.9 0 0 0-1.37.63 2.18 2.18 0 0 0-.66 1.57v3.8a.46.46 0 0 1-.12.32.45.45 0 0 1-.36.13h-.7a.48.48 0 0 1-.36-.13.45.45 0 0 1-.12-.32v-4.2a13.79 13.79 0 0 0-.09-1.92c-.11-.34-.14-.56-.14-.66z" class="F" fill="#fff"/><path d="M50.36 199.17a2.5 2.5 0 0 0 1.9.71 2.65 2.65 0 0 0 1.82-.53 2.59 2.59 0 0 0 .78-1.37.37.37 0 0 1 .13-.22.36.36 0 0 1 .23-.08h.64a.31.31 0 0 1 .31.31 3.13 3.13 0 0 1-.45 1.42 3.39 3.39 0 0 1-1.29 1.24 4.31 4.31 0 0 1-2.18.5 4.17 4.17 0 0 1-2.06-.49 3.46 3.46 0 0 1-1.36-1.35 4.27 4.27 0 0 1-.53-2q0-.42 0-1.25 0-.83 0-1.25a4.26 4.26 0 0 1 .53-2 3.46 3.46 0 0 1 1.36-1.35 4.17 4.17 0 0 1 2.06-.49 4.3 4.3 0 0 1 2.18.5 3.39 3.39 0 0 1 1.29 1.24 3.13 3.13 0 0 1 .45 1.42.31.31 0 0 1-.31.31h-.64a.36.36 0 0 1-.23-.08.37.37 0 0 1-.13-.22 2.6 2.6 0 0 0-.78-1.37 2.65 2.65 0 0 0-1.82-.53 2.5 2.5 0 0 0-1.9.71 2.77 2.77 0 0 0-.72 1.9q0 .42 0 1.18 0 .76 0 1.18a2.77 2.77 0 0 0 .72 1.96zm11.46-5.34a.37.37 0 0 1 .11.27v.45a.38.38 0 0 1-.38.38h-.81a1.45 1.45 0 0 0-1.61 1.61v4.09a.38.38 0 0 1-.38.38h-.52a.38.38 0 0 1-.38-.38v-6.53a.38.38 0 0 1 .38-.38h.52a.38.38 0 0 1 .38.38v.43a1.75 1.75 0 0 1 .67-.62 2.29 2.29 0 0 1 1-.2h.73a.37.37 0 0 1 .29.12zm6.41.7a3.7 3.7 0 0 1 .87 2.59v.38a.38.38 0 0 1-.38.38H63.9v.12a2 2 0 0 0 .57 1.45 1.91 1.91 0 0 0 1.39.52 2.6 2.6 0 0 0 1.08-.18 2.23 2.23 0 0 0 .69-.52.74.74 0 0 1 .2-.15.59.59 0 0 1 .25 0h.42a.38.38 0 0 1 .28.11.32.32 0 0 1 .1.27 1.53 1.53 0 0 1-.41.78 2.75 2.75 0 0 1-1 .67 4.18 4.18 0 0 1-1.59.27 3.08 3.08 0 0 1-1.6-.41 3 3 0 0 1-1.11-1.14 4 4 0 0 1-.5-1.64q0-.42 0-.64 0-.22 0-.64a3.76 3.76 0 0 1 .5-1.57 3.06 3.06 0 0 1 1.09-1.18 3.11 3.11 0 0 1 1.6-.41 3 3 0 0 1 2.37.94zm-.39 2.17h0a1.79 1.79 0 0 0-.54-1.37 2 2 0 0 0-1.44-.51 2 2 0 0 0-1.38.52 1.8 1.8 0 0 0-.58 1.36h0 3.93zm7.28-.31v-.18a1.29 1.29 0 0 0-.46-1.06 1.81 1.81 0 0 0-1.18-.37 1.71 1.71 0 0 0-.87.19 2.11 2.11 0 0 0-.59.57.46.46 0 0 1-.18.15.7.7 0 0 1-.27 0h-.43a.38.38 0 0 1-.27-.11.31.31 0 0 1-.1-.27 1.48 1.48 0 0 1 .41-.83 2.79 2.79 0 0 1 1-.68 3.29 3.29 0 0 1 1.32-.27 3 3 0 0 1 2.11.73 2.62 2.62 0 0 1 .8 2v4.27a.38.38 0 0 1-.41.47h-.5a.38.38 0 0 1-.38-.38V200a1.64 1.64 0 0 1-1 .8 3.86 3.86 0 0 1-1.46.29 3 3 0 0 1-1.27-.26 2 2 0 0 1-.86-.71 1.77 1.77 0 0 1-.3-1 2 2 0 0 1 .78-1.64 4.62 4.62 0 0 1 2.09-.81zm0 1.12l-1.65.27a3.77 3.77 0 0 0-1.41.46.92.92 0 0 0-.5.79.82.82 0 0 0 .32.63 1.46 1.46 0 0 0 1 .28 2.34 2.34 0 0 0 1.64-.57 1.93 1.93 0 0 0 .63-1.5v-.35zm5.38 1.96a1.11 1.11 0 0 0 .93.32h.74a.38.38 0 0 1 .38.38v.45a.38.38 0 0 1-.38.38h-.88a2.24 2.24 0 0 1-1.75-.62 2.65 2.65 0 0 1-.56-1.83v-3.63h-1a.38.38 0 0 1-.38-.38v-.44a.38.38 0 0 1 .38-.38h1v-2.28a.38.38 0 0 1 .38-.38h.52a.38.38 0 0 1 .38.38v2.28H82a.38.38 0 0 1 .38.38v.45a.38.38 0 0 1-.38.38h-1.74v3.63a1.5 1.5 0 0 0 .24.91zm8.69-4.94a3.7 3.7 0 0 1 .87 2.59v.38a.38.38 0 0 1-.38.38h-4.82v.12a2 2 0 0 0 .57 1.45 1.91 1.91 0 0 0 1.39.52 2.6 2.6 0 0 0 1.08-.18 2.23 2.23 0 0 0 .69-.52.74.74 0 0 1 .2-.15.59.59 0 0 1 .25 0h.42a.38.38 0 0 1 .28.11.32.32 0 0 1 .1.27 1.53 1.53 0 0 1-.41.78 2.75 2.75 0 0 1-1 .67 4.18 4.18 0 0 1-1.59.27 3.08 3.08 0 0 1-1.6-.41 3 3 0 0 1-1.11-1.14 4 4 0 0 1-.5-1.64q0-.42 0-.64 0-.22 0-.64a3.76 3.76 0 0 1 .5-1.57 3.06 3.06 0 0 1 1.09-1.18 3.11 3.11 0 0 1 1.6-.41 3 3 0 0 1 2.37.94zm-.39 2.17h0a1.79 1.79 0 0 0-.54-1.37 2 2 0 0 0-1.44-.51 2 2 0 0 0-1.38.52 1.8 1.8 0 0 0-.58 1.36h0 3.94zm10.69-.31v-.18a1.29 1.29 0 0 0-.46-1.06 1.81 1.81 0 0 0-1.18-.37 1.71 1.71 0 0 0-.85.22 2.11 2.11 0 0 0-.59.57.46.46 0 0 1-.18.15.7.7 0 0 1-.27 0h-.44a.38.38 0 0 1-.27-.11.31.31 0 0 1-.1-.27 1.48 1.48 0 0 1 .41-.83 2.79 2.79 0 0 1 1-.68 3.29 3.29 0 0 1 1.32-.27 3 3 0 0 1 2.11.73 2.62 2.62 0 0 1 .8 2v4.27a.38.38 0 0 1-.38.38h-.54a.38.38 0 0 1-.38-.38V200a1.64 1.64 0 0 1-1 .8 3.86 3.86 0 0 1-1.46.29 3 3 0 0 1-1.27-.26 2 2 0 0 1-.86-.71 1.77 1.77 0 0 1-.3-1 2 2 0 0 1 .78-1.64 4.62 4.62 0 0 1 2.09-.81zm0 1.12l-1.65.27a3.77 3.77 0 0 0-1.41.46.92.92 0 0 0-.5.79.82.82 0 0 0 .32.63 1.46 1.46 0 0 0 1 .28 2.34 2.34 0 0 0 1.64-.57 1.93 1.93 0 0 0 .63-1.5v-.35zm9.68 3.38a.36.36 0 0 1-.27.11h-.52a.38.38 0 0 1-.38-.38v-3.7a2.23 2.23 0 0 0-.52-1.6 2.17 2.17 0 0 0-2.88 0 2.21 2.21 0 0 0-.52 1.6v3.7a.38.38 0 0 1-.38.38h-.52a.38.38 0 0 1-.38-.38v-6.52a.38.38 0 0 1 .38-.38h.52a.38.38 0 0 1 .38.38v.43a2.41 2.41 0 0 1 .85-.68 2.91 2.91 0 0 1 1.32-.27 3.2 3.2 0 0 1 1.57.38 2.67 2.67 0 0 1 1.07 1.08 3.45 3.45 0 0 1 .39 1.67v3.91a.36.36 0 0 1-.11.27zm10.83-6.36a3.7 3.7 0 0 1 .87 2.59v.38a.38.38 0 0 1-.38.38h-4.82v.12a2 2 0 0 0 .57 1.45 1.91 1.91 0 0 0 1.39.52 2.6 2.6 0 0 0 1.08-.18 2.23 2.23 0 0 0 .69-.52.74.74 0 0 1 .2-.15.59.59 0 0 1 .25 0h.42a.38.38 0 0 1 .28.11.32.32 0 0 1 .1.27 1.53 1.53 0 0 1-.41.78 2.75 2.75 0 0 1-1 .67 4.18 4.18 0 0 1-1.59.27 3.08 3.08 0 0 1-1.6-.41 3 3 0 0 1-1.11-1.14 4 4 0 0 1-.5-1.64q0-.42 0-.64 0-.22 0-.64a3.76 3.76 0 0 1 .5-1.57A3.06 3.06 0 0 1 116 194a3.11 3.11 0 0 1 1.6-.41 3 3 0 0 1 2.4.94zm-.39 2.17h0a1.79 1.79 0 0 0-.54-1.37 2 2 0 0 0-1.44-.51 2 2 0 0 0-1.38.52 1.8 1.8 0 0 0-.58 1.36h0 3.93zm3.54 4.03a1.49 1.49 0 0 1-.2.19.39.39 0 0 1-.25.08h-.64a.32.32 0 0 1-.24-.1.31.31 0 0 1-.1-.22.34.34 0 0 1 .06-.2l2.56-3.21-2.42-3a.34.34 0 0 1-.06-.2.31.31 0 0 1 .1-.22.32.32 0 0 1 .24-.1h.67a.4.4 0 0 1 .25.08 1.5 1.5 0 0 1 .2.19l1.86 2.34L127 194a1.47 1.47 0 0 1 .2-.19.4.4 0 0 1 .25-.08h.64a.32.32 0 0 1 .24.1.31.31 0 0 1 .1.22.35.35 0 0 1-.06.2L126 197.3l2.53 3.18a.34.34 0 0 1 .06.2.31.31 0 0 1-.1.22.32.32 0 0 1-.24.1h-.67a.39.39 0 0 1-.25-.08 1.43 1.43 0 0 1-.2-.19l-2-2.48zm8.16 2.55a.38.38 0 0 1-.38.38h-.52a.38.38 0 0 1-.38-.38v-9.18a.38.38 0 0 1 .38-.38h.52a.38.38 0 0 1 .38.38v.43a2.54 2.54 0 0 1 2.17-1 3.11 3.11 0 0 1 1.57.41 3 3 0 0 1 1.13 1.16 3.85 3.85 0 0 1 .47 1.76q0 .14 0 .45v.46a3.8 3.8 0 0 1-.47 1.76 3.05 3.05 0 0 1-1.13 1.16 3.1 3.1 0 0 1-1.58.41 2.91 2.91 0 0 1-1.32-.27 2.4 2.4 0 0 1-.85-.68v3.09zm.59-3.89a2 2 0 0 0 1.44.55 1.87 1.87 0 0 0 1.45-.59 2.49 2.49 0 0 0 .59-1.6v-.39-.39a2.49 2.49 0 0 0-.59-1.6 1.87 1.87 0 0 0-1.45-.59 2 2 0 0 0-2.03 1.97v1.11a2.2 2.2 0 0 0 .59 1.53zm7.67 1.5a.36.36 0 0 1-.27.11h-.52a.38.38 0 0 1-.38-.38v-9.18a.38.38 0 0 1 .38-.38h.52a.38.38 0 0 1 .38.38v9.18a.36.36 0 0 1-.11.27zm8.54-3.52q0 .34 0 .64a3.5 3.5 0 0 1-1 2.28 3.63 3.63 0 0 1-4.66 0 3.5 3.5 0 0 1-1-2.28v-.64-.67a3.43 3.43 0 0 1 1-2.28 3.65 3.65 0 0 1 4.68 0 3.43 3.43 0 0 1 1 2.28c-.03.21-.02.43-.02.67zm-1.9-2a2.2 2.2 0 0 0-2.9 0 2.37 2.37 0 0 0-.6 1.44v.6.57a2.37 2.37 0 0 0 .6 1.44 2.2 2.2 0 0 0 2.9 0 2.37 2.37 0 0 0 .6-1.44q0-.31 0-.57v-.6a2.37 2.37 0 0 0-.59-1.48zm7.62-1.54a.37.37 0 0 1 .11.27v.45a.38.38 0 0 1-.38.38h-.81a1.45 1.45 0 0 0-1.61 1.61v4.09a.38.38 0 0 1-.38.38h-.52a.38.38 0 0 1-.38-.38v-6.53a.38.38 0 0 1 .38-.38h.52a.38.38 0 0 1 .38.38v.43a1.75 1.75 0 0 1 .67-.62 2.28 2.28 0 0 1 1-.2h.73a.37.37 0 0 1 .29.12zm5.54 2.56v-.18a1.29 1.29 0 0 0-.46-1.06 1.82 1.82 0 0 0-1.18-.37 1.71 1.71 0 0 0-.87.19 2.11 2.11 0 0 0-.59.57.46.46 0 0 1-.18.15.7.7 0 0 1-.27 0h-.42a.38.38 0 0 1-.27-.11.31.31 0 0 1-.11-.27 1.48 1.48 0 0 1 .41-.83 2.79 2.79 0 0 1 1-.68 3.29 3.29 0 0 1 1.32-.27 3 3 0 0 1 2.11.73 2.61 2.61 0 0 1 .8 2v4.27a.38.38 0 0 1-.38.38h-.52a.38.38 0 0 1-.38-.38V200a1.64 1.64 0 0 1-1 .8 3.86 3.86 0 0 1-1.46.29 3 3 0 0 1-1.27-.26 2 2 0 0 1-.86-.71 1.76 1.76 0 0 1-.3-1 2 2 0 0 1 .78-1.64 4.62 4.62 0 0 1 2.09-.81zm0 1.12l-1.65.27a3.77 3.77 0 0 0-1.41.46.92.92 0 0 0-.5.79.82.82 0 0 0 .32.63 1.46 1.46 0 0 0 1 .28 2.34 2.34 0 0 0 1.64-.57 1.93 1.93 0 0 0 .63-1.5v-.35zm5.38 1.96a1.11 1.11 0 0 0 .93.32h.74a.38.38 0 0 1 .38.38v.45a.38.38 0 0 1-.38.38h-.88a2.24 2.24 0 0 1-1.75-.62 2.65 2.65 0 0 1-.56-1.83v-3.63h-1a.38.38 0 0 1-.38-.38v-.44a.38.38 0 0 1 .38-.38h1v-2.28a.38.38 0 0 1 .38-.38h.52a.38.38 0 0 1 .38.38v2.28h1.78a.38.38 0 0 1 .38.38v.45a.38.38 0 0 1-.38.38h-1.78v3.63a1.5 1.5 0 0 0 .24.91zm4.75-6.97a.36.36 0 0 1-.27.11h-.8a.38.38 0 0 1-.38-.38v-.8a.38.38 0 0 1 .38-.38h.8a.38.38 0 0 1 .38.38v.8a.36.36 0 0 1-.11.27zm-.14 8.39a.36.36 0 0 1-.27.11h-.52a.38.38 0 0 1-.38-.38v-6.52a.38.38 0 0 1 .38-.38h.52a.38.38 0 0 1 .38.38v6.52a.36.36 0 0 1-.1.27zm8.55-3.52q0 .34 0 .64a3.5 3.5 0 0 1-1 2.28 3.63 3.63 0 0 1-4.66 0 3.5 3.5 0 0 1-1-2.28v-.64-.67a3.43 3.43 0 0 1 1-2.28 3.65 3.65 0 0 1 4.68 0 3.43 3.43 0 0 1 1 2.28c-.03.21-.02.43-.02.67zm-1.9-2a2.2 2.2 0 0 0-2.9 0 2.37 2.37 0 0 0-.6 1.44v.6.57a2.37 2.37 0 0 0 .6 1.44 2.2 2.2 0 0 0 2.9 0 2.37 2.37 0 0 0 .6-1.44q0-.31 0-.57v-.6a2.37 2.37 0 0 0-.61-1.48zm9.99 5.52a.36.36 0 0 1-.27.11h-.52a.38.38 0 0 1-.38-.38v-3.7a2.24 2.24 0 0 0-.52-1.6 2.17 2.17 0 0 0-2.88 0 2.21 2.21 0 0 0-.53 1.6v3.7a.38.38 0 0 1-.38.38H180a.38.38 0 0 1-.38-.38v-6.52a.38.38 0 0 1 .38-.38h.52a.38.38 0 0 1 .38.38v.43a2.41 2.41 0 0 1 .85-.68 2.91 2.91 0 0 1 1.32-.27 3.2 3.2 0 0 1 1.57.38 2.67 2.67 0 0 1 1.07 1.08 3.45 3.45 0 0 1 .39 1.67v3.91a.36.36 0 0 1-.1.27z" class="F"/></svg>