<?xml version="1.0" encoding="UTF-8"?>
<svg xmlns="http://www.w3.org/2000/svg" xmlns:xlink="http://www.w3.org/1999/xlink" preserveAspectRatio="none" width="241.511811pt" height="527.244094pt" viewBox="0 0 241.511811 527.244094" version="1.1">
<defs>
<clipPath id="clip1">
  <path d="M 0 0 L 241.484375 0 L 241.484375 527.214844 L 0 527.214844 Z M 0 0 "/>
</clipPath>
<clipPath id="clip2">
  <path d="M 1 0 L 241.484375 0 L 241.484375 467 L 1 467 Z M 1 0 "/>
</clipPath>
</defs>
<g id="surface1">
<g clip-path="url(#clip1)" clip-rule="nonzero">
<path style=" stroke:none;fill-rule:evenodd;fill:rgb(100%,100%,100%);fill-opacity:1;" d="M 0 0 L 241.484375 0 L 241.484375 527.214844 L 0 527.214844 Z M 0 0 "/>
</g>
<g clip-path="url(#clip2)" clip-rule="nonzero">
<path style=" stroke:none;fill-rule:evenodd;fill:rgb(95.684814%,95.684814%,95.684814%);fill-opacity:1;" d="M 121.125 466.839844 L 1.132812 466.839844 L 1.132812 0.367188 L 241.113281 0.367188 L 241.113281 466.839844 Z M 121.125 466.839844 "/>
</g>
<path style=" stroke:none;fill-rule:evenodd;fill:rgb(95.684814%,95.684814%,95.684814%);fill-opacity:1;" d="M 0.367188 465.988281 L 13.71875 480.527344 C 27.042969 495.097656 53.71875 524.238281 80.363281 526.648438 C 107.035156 529.257812 133.710938 504.652344 160.355469 497.507812 C 187.03125 490.109375 213.703125 500.117188 227.027344 504.792969 L 240.351562 509.667969 L 240.351562 436.847656 L 227.027344 436.847656 C 213.703125 436.847656 187.03125 436.847656 160.355469 436.847656 C 133.710938 436.847656 107.035156 436.847656 80.363281 436.847656 C 53.71875 436.847656 27.042969 436.847656 13.71875 436.847656 L 0.367188 436.847656 Z M 0.367188 465.988281 "/>
</g>
</svg>
