<?xml version="1.0" encoding="UTF-8"?>
<svg xmlns="http://www.w3.org/2000/svg" xmlns:xlink="http://www.w3.org/1999/xlink" preserveAspectRatio="none" width="960.009449pt" height="444.755906pt" viewBox="0 0 960.009449 444.755906" version="1.1">
<defs>
<clipPath id="clip1">
  <path d="M 0 0 L 959.980469 0 L 959.980469 444.726562 L 0 444.726562 Z M 0 0 "/>
</clipPath>
<clipPath id="clip2">
  <path d="M 0 0 L 959.980469 0 L 959.980469 338 L 0 338 Z M 0 0 "/>
</clipPath>
<clipPath id="clip3">
  <path d="M 0 337 L 959.980469 337 L 959.980469 444.726562 L 0 444.726562 Z M 0 337 "/>
</clipPath>
</defs>
<g id="surface1">
<g clip-path="url(#clip1)" clip-rule="nonzero">
<path style=" stroke:none;fill-rule:evenodd;fill:rgb(100%,100%,100%);fill-opacity:1;" d="M 0 0 L 959.980469 0 L 959.980469 444.730469 L 0 444.730469 Z M 0 0 "/>
</g>
<g clip-path="url(#clip2)" clip-rule="nonzero">
<path style=" stroke:none;fill-rule:evenodd;fill:rgb(95.684814%,95.684814%,95.684814%);fill-opacity:1;" d="M 480.359375 337.492188 L 0 337.492188 L 0 0 L 960.71875 0 L 960.71875 337.492188 Z M 480.359375 337.492188 "/>
</g>
<g clip-path="url(#clip3)" clip-rule="nonzero">
<path style=" stroke:none;fill-rule:evenodd;fill:rgb(95.684814%,95.684814%,95.684814%);fill-opacity:1;" d="M -56.238281 417.855469 L 2.070312 408.925781 C 60.40625 399.855469 177.078125 382.28125 293.753906 384.378906 C 410.398438 386.449219 527.074219 409.070312 643.746094 422.335938 C 760.394531 435.855469 877.066406 440.050781 935.40625 442.433594 L 993.742188 444.644531 L 993.742188 337.492188 L 935.40625 337.492188 C 877.066406 337.492188 760.394531 337.492188 643.746094 337.492188 C 527.074219 337.492188 410.398438 337.492188 293.753906 337.492188 C 177.078125 337.492188 60.40625 337.492188 2.070312 337.492188 L -56.238281 337.492188 Z M -56.238281 417.855469 "/>
</g>
</g>
</svg>
