<svg xmlns="http://www.w3.org/2000/svg" height="593.008" preserveAspectRatio="none" viewBox="0 0 960.009 444.756" width="1280.012" xmlns:v="https://vecta.io/nano"><clipPath id="A"><path d="M0 0h959.98v444.727H0zm0 0"/></clipPath><clipPath id="B"><path d="M0 0h959.98v338H0zm0 0"/></clipPath><clipPath id="C"><path d="M0 337h959.98v107.727H0zm0 0"/></clipPath><g clip-path="url(#A)"><path d="M0 0h959.98v444.73H0zm0 0" fill="#fff" fill-rule="evenodd"/></g><g clip-path="url(#B)"><path d="M480.359 337.492H0V0h960.719v337.492zm0 0" fill="#f4f4f4" fill-rule="evenodd"/></g><g clip-path="url(#C)"><path d="M-56.238 417.855l58.309-8.93c58.336-9.07 175.008-26.645 291.684-24.547 116.645 2.07 233.32 24.691 349.992 37.957 116.648 13.52 233.32 17.715 291.66 20.098l58.336 2.211V337.492h-58.336-291.66-349.992H2.07-56.238zm0 0" fill="#f4f4f4" fill-rule="evenodd"/></g></svg>