<svg height="436.507087pt" preserveAspectRatio="none" viewBox="0 0 960.009449 436.507087" width="960.009449pt" xmlns="http://www.w3.org/2000/svg" xmlns:xlink="http://www.w3.org/1999/xlink"><clipPath id="a"><path d="m0 0h959.980469v436.480469h-959.980469zm0 0"/></clipPath><clipPath id="b"><path d="m0 0h959.980469v308h-959.980469zm0 0"/></clipPath><clipPath id="c"><path d="m0 307h959.980469v129.480469h-959.980469zm0 0"/></clipPath><g clip-path="url(#a)"><path d="m0 0h959.980469v436.480469h-959.980469zm0 0" fill="#fff" fill-rule="evenodd"/></g><g clip-path="url(#b)"><path d="m480.726562 307.472656h-479.988281v-307.472656h959.980469v307.472656zm0 0" fill="#f4f4f4" fill-rule="evenodd"/></g><g clip-path="url(#c)"><path d="m-59.242188 349.113281 59.980469 20.808594c60.007813 20.804687 180 62.445313 300.019531 65.875 119.988282 3.714844 239.980469-31.40625 359.96875-41.609375 120.019532-10.601562 240.011719 3.710938 299.992188 10.402344l60.007812 6.972656v-104.089844h-60.007812c-59.980469 0-179.972656 0-299.992188 0-119.988281 0-239.980468 0-359.96875 0-120.019531 0-240.011718 0-300.019531 0h-59.980469zm0 0" fill="#f4f4f4" fill-rule="evenodd"/></g></svg>

