<svg xmlns="http://www.w3.org/2000/svg" height="582.009" preserveAspectRatio="none" viewBox="0 0 960.009 436.507" width="1280.012" xmlns:v="https://vecta.io/nano"><clipPath id="A"><path d="M0 0h959.98v436.48H0zm0 0"/></clipPath><clipPath id="B"><path d="M0 0h959.98v308H0zm0 0"/></clipPath><clipPath id="C"><path d="M0 307h959.98v129.48H0zm0 0"/></clipPath><g clip-path="url(#A)"><path d="M0 0h959.98v436.48H0zm0 0" fill="#fff" fill-rule="evenodd"/></g><g clip-path="url(#B)"><path d="M480.727 307.473H.738V0h959.98v307.473zm0 0" fill="#f4f4f4" fill-rule="evenodd"/></g><g clip-path="url(#C)"><path d="M-59.242 349.113l59.98 20.809c60.008 20.805 180 62.445 300.02 65.875 119.988 3.715 239.98-31.406 359.969-41.609 120.02-10.602 240.012 3.711 299.992 10.402l60.008 6.973v-104.09h-60.008-299.992-359.969H.738h-59.98zm0 0" fill="#f4f4f4" fill-rule="evenodd"/></g></svg>