<svg height="527.244094pt" preserveAspectRatio="none" viewBox="0 0 241.511811 527.244094" width="241.511811pt" xmlns="http://www.w3.org/2000/svg" xmlns:xlink="http://www.w3.org/1999/xlink"><clipPath id="a"><path d="m0 0h241.484375v527.214844h-241.484375zm0 0"/></clipPath><clipPath id="b"><path d="m1 0h240.484375v467h-240.484375zm0 0"/></clipPath><g clip-path="url(#a)"><path d="m0 0h241.484375v527.214844h-241.484375zm0 0" fill="#fff" fill-rule="evenodd"/></g><g clip-path="url(#b)"><path d="m121.125 466.839844h-119.992188v-466.472656h239.980469v466.472656zm0 0" fill="#f4f4f4" fill-rule="evenodd"/></g><path d="m.367188 465.988281 13.351562 14.539063c13.324219 14.570312 40 43.710937 66.644531 46.121094 26.671875 2.609374 53.347657-21.996094 79.992188-29.140626 26.675781-7.398437 53.347656 2.609376 66.671875 7.285157l13.324218 4.875v-72.820313h-13.324218c-13.324219 0-39.996094 0-66.671875 0-26.644531 0-53.320313 0-79.992188 0-26.644531 0-53.320312 0-66.644531 0h-13.351562zm0 0" fill="#f4f4f4" fill-rule="evenodd"/></svg>

