<?xml version="1.0" encoding="UTF-8"?>
<svg xmlns="http://www.w3.org/2000/svg" xmlns:xlink="http://www.w3.org/1999/xlink" preserveAspectRatio="none" width="960.009449pt" height="436.507087pt" viewBox="0 0 960.009449 436.507087" version="1.1">
<defs>
<clipPath id="clip1">
  <path d="M 0 0 L 959.980469 0 L 959.980469 436.480469 L 0 436.480469 Z M 0 0 "/>
</clipPath>
<clipPath id="clip2">
  <path d="M 0 0 L 959.980469 0 L 959.980469 308 L 0 308 Z M 0 0 "/>
</clipPath>
<clipPath id="clip3">
  <path d="M 0 307 L 959.980469 307 L 959.980469 436.480469 L 0 436.480469 Z M 0 307 "/>
</clipPath>
</defs>
<g id="surface1">
<g clip-path="url(#clip1)" clip-rule="nonzero">
<path style=" stroke:none;fill-rule:evenodd;fill:rgb(100%,100%,100%);fill-opacity:1;" d="M 0 0 L 959.980469 0 L 959.980469 436.480469 L 0 436.480469 Z M 0 0 "/>
</g>
<g clip-path="url(#clip2)" clip-rule="nonzero">
<path style=" stroke:none;fill-rule:evenodd;fill:rgb(95.684814%,95.684814%,95.684814%);fill-opacity:1;" d="M 480.726562 307.472656 L 0.738281 307.472656 L 0.738281 0 L 960.71875 0 L 960.71875 307.472656 Z M 480.726562 307.472656 "/>
</g>
<g clip-path="url(#clip3)" clip-rule="nonzero">
<path style=" stroke:none;fill-rule:evenodd;fill:rgb(95.684814%,95.684814%,95.684814%);fill-opacity:1;" d="M -59.242188 349.113281 L 0.738281 369.921875 C 60.746094 390.726562 180.738281 432.367188 300.757812 435.796875 C 420.746094 439.511719 540.738281 404.390625 660.726562 394.1875 C 780.746094 383.585938 900.738281 397.898438 960.71875 404.589844 L 1020.726562 411.5625 L 1020.726562 307.472656 L 960.71875 307.472656 C 900.738281 307.472656 780.746094 307.472656 660.726562 307.472656 C 540.738281 307.472656 420.746094 307.472656 300.757812 307.472656 C 180.738281 307.472656 60.746094 307.472656 0.738281 307.472656 L -59.242188 307.472656 Z M -59.242188 349.113281 "/>
</g>
</g>
</svg>
