<svg xmlns="http://www.w3.org/2000/svg" height="866.985" preserveAspectRatio="none" viewBox="0 0 242.986 650.239" width="323.981" xmlns:v="https://vecta.io/nano"><clipPath id="A"><path d="M0 0h242.957v650.211H0zm0 0"/></clipPath><clipPath id="B"><path d="M0 0h242.957v608H0zm0 0"/></clipPath><g clip-path="url(#A)"><path d="M0 0h242.957v650.211H0zm0 0" fill="#fff" fill-rule="evenodd"/></g><g clip-path="url(#B)"><path d="M121.492 607.832H.367V.371H242.59v607.461zm0 0" fill="#f4f4f4" fill-rule="evenodd"/></g><path d="M1.871 631.844l13.324-6.012c13.352-6.094 39.996-17.887 66.668-16.496 26.648 1.418 53.32 16.582 79.996 25.512 26.645 9.07 53.32 11.906 66.641 13.492l13.324 1.504v-72H228.5h-66.641-79.996-66.668H1.871zm0 0" fill="#f4f4f4" fill-rule="evenodd"/></svg>