<svg height="650.23937pt" preserveAspectRatio="none" viewBox="0 0 242.985827 650.23937" width="242.985827pt" xmlns="http://www.w3.org/2000/svg" xmlns:xlink="http://www.w3.org/1999/xlink"><clipPath id="a"><path d="m0 0h242.957031v650.210938h-242.957031zm0 0"/></clipPath><clipPath id="b"><path d="m0 0h242.957031v608h-242.957031zm0 0"/></clipPath><g clip-path="url(#a)"><path d="m0 0h242.957031v650.210938h-242.957031zm0 0" fill="#fff" fill-rule="evenodd"/></g><g clip-path="url(#b)"><path d="m121.492188 607.832031h-121.125v-607.460937h242.222656v607.460937zm0 0" fill="#f4f4f4" fill-rule="evenodd"/></g><path d="m1.871094 631.84375 13.324218-6.011719c13.351563-6.09375 39.996094-17.886719 66.667969-16.496093 26.648438 1.417968 53.320313 16.582031 79.996094 25.511718 26.644531 9.070313 53.320313 11.90625 66.640625 13.492188l13.324219 1.503906v-72h-13.324219c-13.320312 0-39.996094 0-66.640625 0-26.675781 0-53.347656 0-79.996094 0-26.671875 0-53.316406 0-66.667969 0h-13.324218zm0 0" fill="#f4f4f4" fill-rule="evenodd"/></svg>

