<svg xmlns="http://www.w3.org/2000/svg" height="702.992" preserveAspectRatio="none" viewBox="0 0 241.512 527.244" width="322.016" xmlns:v="https://vecta.io/nano"><clipPath id="A"><path d="M0 0h241.484v527.215H0zm0 0"/></clipPath><clipPath id="B"><path d="M1 0h240.484v467H1zm0 0"/></clipPath><g clip-path="url(#A)"><path d="M0 0h241.484v527.215H0zm0 0" fill="#fff" fill-rule="evenodd"/></g><g clip-path="url(#B)"><path d="M121.125 466.84H1.133V.367h239.98V466.84zm0 0" fill="#f4f4f4" fill-rule="evenodd"/></g><path d="M.367 465.988l13.352 14.539c13.324 14.57 40 43.711 66.645 46.121 26.672 2.609 53.348-21.996 79.992-29.141 26.676-7.398 53.348 2.609 66.672 7.285l13.324 4.875v-72.82h-13.324-66.672-79.992-66.645H.367zm0 0" fill="#f4f4f4" fill-rule="evenodd"/></svg>