<svg fill="none" height="34" viewBox="0 0 36 34" width="36" xmlns="http://www.w3.org/2000/svg"><path d="m16.632 11.0945c.093-.3645.15-.639.2025-.9075l-1.65-.321-.1635.75c-.5565-.0825-1.1505-.0915-1.749-.0315.0135-.402.0375-.7965.0735-1.176h1.8435v-1.563h-1.623c.081-.3975.1485-.636.216-.8625l-1.611-.483c-.1185.3945-.216.7815-.3165 1.3455h-1.8375v1.563h1.638c-.0435.504-.069 1.0275-.0765 1.557-1.8105.6645-2.5785 1.932-2.5785 3.0795 0 1.356 1.071 2.55 2.763 2.397 2.1015-.192 3.5055-1.779 4.3275-3.7305.8505.4905 1.2075 1.314.8865 2.0775-.2955.7065-1.17 1.3785-2.838 1.344v1.6815c1.851.0285 3.672-.675 4.3875-2.3745.696-1.6605-.1005-3.4755-1.8945-4.3455zm-2.169 1.149c-.2625.5805-.6075 1.158-1.047 1.6125-.0675-.4845-.114-1.014-.138-1.581.4005-.0525.8055-.0615 1.185-.0315zm-2.841.543c.045.7095.126 1.3635.237 1.947-1.497.2745-1.557-1.2015-.237-1.947zm-8.622.2415c0 2.8095 1.2735 4.4145 2.5245 5.9145.0465 1.5.1275 2.502-.4995 4.7745 2.622-.837 3.057-1.167 4.512-2.061 1.5.366 2.211.5715 3.9165.7365-.141 1.062-.1215 1.9125.0825 3.0345-1.128-.09-2.292-.267-3.495-.561-2.0955 1.2855-6.7215 2.5875-9.9735 3.1725 1.2165-2.3925 2.562-5.6775 2.4915-7.968-1.6365-1.9575-2.559-4.4775-2.559-7.0425 0-7.239 7.0785-12.528 15-12.528 7.8555 0 14.9655 5.226 14.997 12.477-.966-.2625-1.983-.4155-3.0315-.471-.3435-5.01-5.5695-9.006-11.9655-9.006-6.6165 0-12 4.275-12 9.528zm23.4855 8.1435 1.0875 3.111h-2.1675zm9.5145 2.499c0-4.737-4.6335-8.2005-9.819-8.2005-5.154 0-9.819 3.4395-9.819 8.2005 0 4.2 3.9495 8.163 9.747 8.163 1.0485 0 2.16-.1305 3.3195-.411 1.371.8415 4.3995 1.6905 6.528 2.0775-.795-1.5675-1.6755-3.7185-1.632-5.2185 1.071-1.2795 1.6755-2.931 1.6755-4.611zm-7.2765 3.8295-.684-1.905h-3.093l-.6765 1.905h-1.77l3.1485-8.25h1.6515l3.1365 8.25z" fill="#4d4d4d"/></svg>

