<svg fill="none" height="37" viewBox="0 0 41 37" width="37" xmlns="http://www.w3.org/2000/svg"><path d="m.00938735 20.918c0-4.5258 0-9.0512 0-13.5761 0-1.91006.40231665-2.36955 2.07059265-2.38307.36675-.02454.73455-.02203 1.10101.00751.75903.10812 1.05809-.17719 1.00042-1.08117-.21323-3.350107 0-3.9042032 3.62085-3.88468219 4.60114.03453719 8.80274 1.22532219 12.09364 5.10550219.4493.53007.6504.42196 1.0527-.04204 3.8341-4.429779 8.7008-5.318738 13.9001-5.0003945 1.1868.0720775 1.8587.7793415 1.8051 2.1878645-.0068.20572 0 .41144 0 .61716 0 2.08725 0 2.08725 1.8654 2.09175 1.9633 0 2.328.40544 2.328 2.5933v26.99907c0 2.2404-.7228 2.8351-2.6472 2.2149-5.096-1.6518-10.2591-2.4026-15.4087-.5421-1.7099.6187-3.118.5887-4.8064-.015-5.0625-1.8124-10.13838-1.0917-15.15393.479-2.227495.6983-2.82962894.2298-2.83097-2.3485.00536422-4.4738.00849332-8.9481.00938735-13.423zm21.85921265 9.7005c2.7519-2.3636 5.6324-3.4808 8.7933-3.8547.9763-.1141 2.3737.3784 2.839-.4504.4801-.8515.1475-2.2855.1489-3.4643 0-6.0725.0094-12.1436-.0121-18.21612 0-.4625.3406-1.25385-.5445-1.25385-4.1934 0-8.0101 1.03161-10.7284 5.0079-.3248.43117-.5038.97657-.5056 1.54066.0215 6.78581.0148 13.57311.0148 20.69081zm-3.0522-.1216c.0537-.242.0922-.4879.1153-.7358 0-6.5756 0-13.1512.0147-19.7253.0081-.61619-.177-1.21607-.523-1.69532-2.729-3.95226-6.539-4.96586-10.72842-4.96435-.70405 0-.48412.60064-.48546 1.00007-.01073 7.0891.0067 14.1783-.02548 21.2659 0 .8529.26821.9716.93874.9986 1.2325.056 2.46092.1949 3.67852.416 2.5601.4504 4.8653 1.6052 7.0204 3.4402zm-4.2472 1.3049c-.0898-.1862-.1099-.3004-.1676-.3334-.2026-.1159-.4108-.2192-.6236-.3093-2.3482-1.0361-4.7956-1.2764-7.28997-1.1352-1.9861.1141-2.31869-.2403-2.32003-2.5062 0-6.0676-.00268-12.1356-.00804-18.20417 0-.39192.22127-.95804-.5029-.97906-.59945-.01652-.65444.31084-.65444.84391.00895 7.71432.00895 15.42812 0 23.14142 0 .8259.28029.7193.83414.5917 1.47516-.3379 2.97849-.5346 4.4617-.8424 2.06384-.428 4.15454-.1277 6.27614-.2673zm23.1789 1.2884c.0241-.413.063-.7614.063-1.1097 0-7.4571-.0054-14.9151-.0161-22.37416 0-.43396.4023-1.20129-.5002-1.25685-1.0139-.05556-.6223.81087-.6236 1.2974-.0255 6.06801-.0094 12.13611-.0215 18.20261 0 1.7794-.5015 2.281-2.08 2.1864-1.6535-.0991-3.3057-.0901-4.931.2898-1.2861.3003-2.5896.6006-3.9575 1.6623 4.2807-.455 8.163.0645 12.0669 1.1022z" fill="#4d4d4d"/><path d="m21.8739 30.6183c0-7.1176.0068-13.9049-.012-20.69071.0042-.56329.185-1.10701.5109-1.53616 2.7157-3.97627 6.5323-5.00488 10.7285-5.00789.8851 0 .5431.79136.5444 1.25385.0215 6.07251.0161 12.14361.0121 18.21611 0 1.1788.3312 2.6128-.1488 3.4642-.4654.8244-1.8628.3319-2.8391.4505-3.1662.3694-6.0441 1.4866-8.796 3.8501z" fill="#faf9f9"/><path d="m18.8218 30.4968c-2.1551-1.835-4.4604-2.9897-7.0124-3.4402-1.2176-.221-2.44601-.3599-3.67852-.416-.67052-.027-.93874-.1501-.93874-.9985.03219-7.0877.01476-14.1769.02549-21.26604 0-.39643-.2186-1.00008.48546-1.00008 4.18681 0 7.99671 1.01209 10.72841 4.96437.346.47925.5311 1.07913.523 1.69535-.0161 6.5741-.0094 13.1497-.0147 19.7253-.024.2481-.0634.494-.118.7358z" fill="#f9f9f8"/><path d="m14.5746 31.8019c-2.1216.1396-4.2123-.1607-6.27483.2673-1.48321.3078-2.9852.5045-4.46171.8424-.55385.1276-.83682.2342-.83413-.5917.01698-7.7143.01698-15.4281 0-23.14141 0-.53307.05498-.86043.65443-.84391.72417.02102.50156.58713.5029.97906.01073 6.06756.01341 12.13556.00805 18.20416 0 2.2659.33392 2.6203 2.32003 2.5062 2.49437-.1412 4.94176.0991 7.28996 1.1352.2128.0901.421.1934.6236.3093.0617.033.0805.1472.1717.3334z" fill="#f7f6f6"/><path d="m37.748 33.0903c-3.9038-1.0301-7.7861-1.5497-12.0695-1.0962 1.3679-1.0677 2.6714-1.362 3.9575-1.6623 1.6253-.3799 3.2775-.3889 4.931-.2898 1.5785.0946 2.0773-.407 2.08-2.1864.0121-6.0665 0-12.1346.0215-18.20263 0-.48653-.3903-1.35146.6236-1.2974.8998.04955.4988.82289.5002 1.25685.0259 7.45508.0313 14.91308.0161 22.37418.0094.3348-.0362.6832-.0604 1.1037z" fill="#f7f6f6"/><path d="m23.5758 14.1368c-.2622-.0011-.5227-.0472-.7725-.1367-.1475-.0525-.2937-.1111-.4358-.1682l-.1623-.0645c-.0933-.0179-.1809-.0622-.2546-.1287s-.131-.153-.1665-.2512c-.0093-.0207-.0196-.0407-.0308-.0601v-.012l-.0067-.0135c-.0322-.0751-.0671-.1502-.1006-.2238-.287-.6322-.6142-1.3514-.3862-2.2374.3151-1.23135 1.2418-2.05725 2.3079-2.05725.2142-.00006.4273.03381.633.10061.311.09544.6017.25968.8551.48304.2534.22335.4642.50128.62.8174.1488.2986.243.6274.2771.9672.034.3398.0073.6838-.0786 1.0119-.3205 1.1983-1.219 1.9732-2.2985 1.9732z" fill="#4d4d4d"/><path d="m23.5624 9.08379c.1892.00025.3774.03007.5592.08859.4942.15129.9227.4978 1.2064.97552.2837.4776.4033 1.0542.3367 1.623-.0665.5687-.3148 1.0913-.6988 1.471s-.8778.5909-1.3901.5945c-.2349-.0012-.4683-.0427-.692-.1231-.2092-.0736-.4144-.1607-.6209-.2418-.173-.009-.2105-.1757-.2803-.3003-.3138-.7073-.6919-1.377-.4707-2.2524.2843-1.10823 1.1212-1.83951 2.0505-1.83951zm0-.60515c-1.1868 0-2.2181.91448-2.5654 2.27496-.2562 1.0031.0952 1.7749.4023 2.4566.0335.0736.067.1502.0992.2208l.0121.0255.0121.024c.0079.014.0151.0286.0214.0436.0533.136.1354.2555.2391.3481.1038.0926.226.1555.3563.1835l.1342.054c.1434.0586.2923.1186.4452.1727.2758.0985.5634.1491.8529.1502.5799-.0036 1.1429-.2194 1.6029-.6148.4601-.3953.792-.9483.9451-1.5746.096-.3659.1258-.7496.0878-1.1286-.038-.3791-.143-.7458-.3091-1.0788-.1723-.34866-.4047-.65561-.6837-.90305s-.599-.43047-.9416-.53849c-.2299-.07335-.4677-.11074-.7068-.11112z" fill="#fff"/><path d="m16.963 19.759c-.3261.0011-.6489-.0727-.9485-.217-.2996-.1442-.5696-.3557-.7932-.6215-.2236-.2657-.3962-.5801-.507-.9235-.1107-.3434-.1574-.7087-.137-1.0731.0359-.672.2978-1.3038.733-1.7683.4352-.4644 1.0113-.727 1.6125-.7349.0923-.0003.1846.0063.2762.0195.3357.0395.6602.1572.9528.3454.2926.1883.5468.443.7463.7478.19.2989.322.639.3876.9985s.0633.7303-.0067 1.0887c-.0333.1754-.0745.3488-.1234.5196-.0188.0736-.0389.1502-.0563.2192l-.008.0376c-.0225.149-.0944.283-.2012.3754-.4707.4505-1.0581.9866-1.9016.9866z" fill="#4d4d4d"/><path d="m16.9228 14.7209c.0811.0003.1621.0058.2427.0165 1.2861.1772 2.1055 1.4236 1.8507 2.8246-.0443.2417-.1167.4775-.1757.7177-.0228.0931-.0295.1937-.1127.2538-.5082.4775-1.0178.925-1.7433.925h-.0228c-.5528-.008-1.0808-.2578-1.4712-.6961-.3903-.4383-.612-1.0303-.6176-1.6492-.0056-.619.2053-1.2158.5876-1.6629.3824-.447.9058-.7088 1.4583-.7294zm-.004-.6006c-.6934.0219-1.3516.3471-1.8334.9059s-.749 1.3066-.7443 2.0834c.0048.7767.281 1.5204.7696 2.0717.4886.5514 1.1507.8665 1.8443.8778h.0295c.9387 0 1.5878-.6006 2.0665-1.0511.1552-.1342.2607-.3277.2964-.5436 0-.009 0-.0195.0067-.0285.0175-.0691.0362-.1411.055-.2117.0469-.1742.0939-.3529.1341-.5451.0774-.3991.0794-.8119.006-1.212-.0735-.4-.2208-.7784-.4324-1.111-.2212-.3384-.503-.6214-.8275-.8309-.3244-.2094-.6844-.3407-1.0567-.3854-.1024-.0137-.2054-.0208-.3085-.021z" fill="#fff"/><path d="m26.4671 19.7632c-.3599-.003-.7145-.0976-1.0369-.2766-.3225-.179-.6044-.4377-.8245-.7565-.1914-.2356-.3262-.5219-.3916-.8319-.0321-.0311-.0597-.0676-.0818-.1081l-.0389-.0736v-.0841c0-1.7584.5901-2.7795 1.7823-3.1203.2028-.0591.4114-.0889.6209-.0886.5198.0038 1.0241.198 1.4361.5528s.709.8508.8458 1.4123c.1368.5614.1057 1.1576-.0884 1.6975-.194.5399-.5405.9939-.9865 1.2927-.3745.2484-.8012.381-1.2365.3844z" fill="#4d4d4d"/><path d="m26.4966 14.7239c.4616.0027.9098.1745 1.276.4893.3662.3147.6302.7551.7519 1.2537.1216.4987.0941 1.0282-.0784 1.5077-.1724.4795-.4803.8826-.8767 1.1477-.3335.2208-.7135.3385-1.101.3408-.3195-.0022-.6343-.0862-.9204-.2455s-.5359-.3896-.7304-.6735c-.1665-.2021-.2838-.4488-.3407-.7163.0305-.0549.0724-.1007.1221-.1336.1408-.076.2933-.1213.4492-.1337.0215-.015.0322-.0225.0282-.0225l-.0375.0135c-.0191.0084-.0389.0145-.0591.018-.1628.0166-.3226.059-.4747.1262-.0138.0019-.0278.0019-.0416 0-.0207-.0005-.0409-.0071-.0586-.0193-.0177-.0121-.0322-.0293-.0419-.0498 0-1.6098.519-2.5273 1.5797-2.8321.1815-.0515.368-.0777.5552-.0781zm.0013-.6082c-.232.0005-.4631.0333-.6879.0976-1.3089.3739-1.9768 1.5212-1.9835 3.4103v.1697l.0792.1502c.0187.0348.0397.0679.063.0991.0843.3224.2308.6202.4291.8724.2449.3544.5587.6416.9174.8401.3587.1986.7531.3031 1.1532.3057.4827-.0028.9561-.1489 1.3719-.4235.4977-.3316.8846-.8367 1.1016-1.4379s.2522-1.2655.1001-1.8912-.4831-1.1784-.9423-1.5736c-.4592-.3951-1.0213-.6109-1.6004-.6144z" fill="#fff"/><path d="m20.2393 22.4556c-.0925.0067-.1851-.0098-.2712-.0483-.0861-.0384-.1634-.0978-.2264-.1739-.1609-.2148-.122-.4971-.0992-.6668.1059-.7688 0-1.3739-.3312-1.901-.0358-.0457-.0623-.0995-.0779-.1577-.0155-.0582-.0198-.1195-.0124-.1797s.0262-.1179.0552-.1693.0674-.0952.1128-.1285l.0564-.0555h.0764.0443c.1121-.0016.2213.0409.3084.1201.287-1.8185.7765-4.0408 1.8775-6.077l.0898-.1667.173.024c.1283.0114.2493.0714.343.1703.0936.0988.1543.2306.172.3733l.0161.1036-.0456.0931c-.5013 1.0259-.8998 2.1106-1.1882 3.2345-.2159.8409-.3675 1.7193-.5176 2.6413.7161-.7508 1.4013-1.449 2.3884-1.6998.0531-.0228.1094-.035.1662-.036.0483-.0009.0961.0101.1401.0321.044.0221.0832.0547.1147.0955.0375.0557.0639.1198.0773.188.0134.0681.0136.1387.0005.2069l-.0214.1682-.1408.0646c-1.0961.4957-2.0011 1.4081-2.5561 2.5767-.0852.153-.1172.3358-.0898.5136.0283.1068.0351.2194.0198.3295s-.0523.215-.1083.3072c-.0656.0757-.1452.1345-.2333.1721-.088.0376-.1823.0532-.2763.0456z" fill="#4d4d4d"/><path d="m21.9826 13.1697c.0711.0043.1384.037.1898.092.0514.0551.0835.129.0905.2083-.5102 1.0479-.915 2.1558-1.207 3.3036-.2843 1.1157-.4546 2.2524-.6705 3.5453.9387-.913 1.6884-1.9401 2.8739-2.2329.0274-.0141.057-.0222.0871-.024.0698 0 .0819.0721.0671.1787-1.1518.5205-2.1019 1.4807-2.6821 2.7104-.1156.2143-.1571.4686-.1167.7148.0563.3198 0 .4955-.3353.4955h-.0295c-.3848-.0105-.3781-.2523-.3379-.5436.1046-.7628.0268-1.4821-.3822-2.1278-.0141-.0138-.025-.0313-.0317-.0509s-.0091-.0408-.0068-.0617c.0022-.0208.009-.0408.0197-.058.0107-.0173.0249-.0314.0416-.0411h.0228c.2508 0 .2521.3724.4895.4325.3299-2.299.8381-4.5229 1.9217-6.5336zm-.2763-.6367-.1797.3334c-1.046 1.9431-1.5489 4.0454-1.8479 5.8188-.0344-.0024-.0689-.0024-.1033 0h-.0644l-.1542.0135-.1234.1036c-.0732.0567-.1351.1298-.1819.2146-.0469.0848-.0775.1795-.0901.2782s-.0068.1992.0169.2953.0649.1856.121.263c.287.4505.3769.9926.283 1.6773-.0268.1907-.0805.5857.1569.901.0876.1087.1955.1945.316.2514.1205.0568.2507.0832.3813.0775h.0403c.134.0106.2683-.0134.3927-.0702s.2355-.1448.3247-.2572c.2428-.3319.1677-.7508.1435-.8859-.0161-.1094.0065-.2215.0631-.3124.5213-1.1119 1.3809-1.9781 2.4232-2.4416l.2803-.1307.0443-.3363c.0212-.1104.0201-.2247-.0031-.3346-.0232-.1098-.0679-.2125-.131-.3006-.0571-.0732-.1277-.1318-.2068-.1717-.0792-.0399-.1651-.0602-.2519-.0596-.0823.0003-.164.0166-.2414.0481-.7617.1982-1.3598.6517-1.9029 1.1683.1059-.6007.2199-1.1728.3648-1.7389.2833-1.1026.6745-2.1667 1.1667-3.1729l.0898-.1862-.0335-.2073c-.0258-.2066-.1133-.3973-.2482-.5413-.1348-.1439-.3092-.2325-.4948-.2515l-.3446-.0481z" fill="#fff"/><path d="m19.377 19.7332c-.1755-.1443-.3247-.3247-.4399-.5315-.0839-.162-.1994-.3006-.338-.4054l-.2253-.1382.4278-.9669.2589.4174c.0732.1.1575.1893.2507.2658.2039.1907.4587.4264.5056.8573v.0361l-.0777.7342z" fill="#4d4d4d"/><path d="m18.8405 18.2798c.2159.3484.6531.4985.7081.9926l-.0228.2117c-.3313-.2478-.4399-.7313-.8046-.9505l.1126-.2538zm-.0845-1.1788-.4023.9115-.1127.2553-.2266.5165.4506.2763c.1002.0855.1845.1921.2481.3139.1337.2351.3067.4391.5096.6006l.7255.5451.1046-.9715.0121-.1067.0107-.1066.0081-.0721-.0081-.072c-.0603-.5496-.3862-.8514-.6008-1.0512-.0736-.0618-.1406-.1328-.1998-.2117l-.5176-.8349z" fill="#fff"/><path d="m22.8315 18.055.2682-.2188c.2112-.1951.4733-.3082.747-.3223.0543.0005.1086.0056.1623.015l.0509.0105.0443.03c.043.0256.0804.0616.1094.1054.029.0439.0489.0944.0582.1479.0072.0461.0057.0935-.0044.1389-.0102.0455-.0288.088-.0546.1249-.0236.0332-.0516.062-.0832.0855-.1399.1628-.3226.2715-.5216.3102-.0389.012-.0764.0225-.114.036l-.1462.0525z" fill="#4d4d4d"/><path d="m23.8493 17.8143c.0395.0003.079.0043.118.012.0416.027.0536.0525.0375.0736-.0049.0088-.0115.0162-.0195.0217-.0079.0055-.0168.0088-.0261.0098-.1341.2162-.35.2327-.5458.3003l-.1542-.1501c.1661-.1573.373-.2505.5901-.2658zm0-.5992c-.3304.0143-.6478.1475-.9052.3799l-.5364.44.5002.4956.1542.1501.2293.2268.291-.1051c.0335-.0121.0671-.0211.0993-.0301.2406-.0528.4619-.1845.6356-.3784.0413-.036.0786-.0774.1113-.1231.0488-.0695.084-.1496.1034-.2352s.0225-.1748.0093-.2619c-.0155-.0958-.0498-.1865-.1004-.2657-.0505-.0792-.1161-.1449-.192-.1923l-.0885-.0601-.1006-.0195c-.0687-.0124-.1382-.0189-.2078-.0195z" fill="#fff"/><path d="m23.6964 17.8518-.0496-.1977.6705-.3295.1342.021c.0371-.014.0761-.0211.1153-.021.0463-.0006.0921.0104.1341.0321.042.0218.0791.0538.1086.0937.0348.0544.0582.1168.0687.1826.0104.0658.0076.1334-.0083.1978l-.0309.1648-.3044.1213-1.0487.2097z" fill="#4d4d4d"/><path d="m24.5762 17.6234c.0523 0 .0549.0616.0402.1501l-.1408.0556-.5163.1036c.0139-.0328.0168-.0701.008-.1051l.3943-.1922.1341.018c.025-.0149.0523-.0241.0805-.027zm-.2937-.6006-.1341.0661-.3863.1892h-.008l-.4265.2087.0845.3423-.3809.9009 1.0246-.2042h.0295l.4855-.0976.0442-.009.0416-.0165.1341-.0526.287-.1261.0604-.3333c.0254-.108.0282-.2211.0082-.3305-.02-.1093-.0623-.2121-.1236-.3002-.0548-.0742-.1237-.1338-.2016-.1746-.0779-.0407-.1629-.0616-.249-.0611-.045-.0004-.09.0046-.1341.015h-.0161l-.1461-.021z" fill="#fff"/><path d="m24.9772 17.863-.0121-.0075c-.0574-.0314-.1074-.0777-.1456-.135-.0383-.0573-.0637-.124-.0743-.1945l-.0228-.1677.1153-.1079c.1331-.1306.3019-.2071.4788-.2172.0797-.0031.1585.0202.2263.0671.0678.047.1216.1154.1545.1965.029.0617.0435.1306.0423.2002s-.018.1378-.049.1982c-.1099.2112-.3379.2307-.4894.2427l-.1435.0135z" fill="#4d4d4d"/><path d="m25.3165 17.3337c.028-.0026.0559.0047.08.0209.0241.0161.043.0404.0541.0692.0805.1967-.1529.2072-.2964.2192-.0482-.054-.1341-.066-.1475-.1621.0851-.0853.1922-.1379.3058-.1502zm-.004-.6037c-.2396.0113-.4688.1129-.6504.2883l-.232.2178.0455.3334c.0156.1117.0538.2179.1117.3106.0579.0926.1339.1693.2223.224l.1435.1607.2454-.0226h.0201c.169-.015.519-.045.7014-.3919.0522-.1026.0812-.218.0845-.336.0033-.1181-.0193-.2353-.0657-.3413-.0554-.1328-.1438-.2448-.2547-.3226s-.2395-.1181-.3703-.1159z" fill="#fff"/><path d="m24.139 17.6972.1341-.2187c.0666-.0975.1541-.1747.2544-.2244s.2102-.0704.3196-.0602c.0372-.0002.0744-.0032.1113-.009l.1341-.0269.6048.6605-1.1559.2771z" fill="#4d4d4d"/><path d="m25.0106 17.4808.1476.1621-.5365.1292-.1207-.1201c.1341-.2073.3366-.1352.515-.1712zm.1824-.6457-.2682.054c-.0241.002-.0483.002-.0724 0-.1513-.0096-.3024.0232-.4396.0953-.1371.0721-.2562.1812-.3463.3177l-.2776.4385.3608.3573.0469.0466.0738.0721.2011.2012.2682-.0631.3729-.0886.1689-.0405.9803-.2328-.7161-.7838-.1488-.1622-.1972-.2162z" fill="#fff"/><g fill="#4d4d4d"><path d="m21.9826 13.1697c-.3138-.7073-.692-1.377-.4707-2.2525.3406-1.32743 1.4751-2.11429 2.6097-1.75089.5392.1838.9911.59991 1.2563 1.15679.2652.5569.322 1.209.1578 1.8127-.1641.6038-.5357 1.1098-1.0331 1.4068-.4973.2969-1.0796.3605-1.6188.1767-.2092-.0736-.4144-.1607-.6209-.2418-.173-.015-.2106-.1817-.2803-.3078z"/><path d="m18.7278 18.5334c-.5136.482-1.0286.9355-1.7621.925-.287.0019-.5714-.0617-.8358-.1869-.2643-.1252-.5031-.3093-.7018-.5413-.1988-.2319-.3532-.5067-.454-.8076-.1007-.301-.1457-.6217-.1321-.9428.0136-.321.0855-.6355.2112-.9245.1257-.2889.3027-.5461.5201-.7559.2174-.2099.4707-.3679.7444-.4646.2738-.0966.5622-.1298.8478-.0975 1.2861.1772 2.1055 1.4235 1.8507 2.8245-.0443.2418-.1167.4776-.1757.7178-.0228.0946-.0295.1937-.1127.2538z"/><path d="m24.3616 17.634c0-1.6097.519-2.5273 1.5798-2.8321.3691-.1096.7578-.1053 1.1248.0126.367.118.6987.345.9597.6571.261.312.4417.6975.5228 1.1153.081.4178.0595.8524-.0623 1.2576s-.3394.7659-.6297 1.0438c-.2902.2778-.6423.4624-1.0187.5341-.3764.0718-.7632.028-1.1192-.1267-.3559-.1546-.6679-.4144-.9026-.7517-.1665-.2021-.2838-.4487-.3406-.7163.0305-.0549.0724-.1007.1221-.1336.1408-.076.2933-.1213.4492-.1336.0402-.0271.0402-.0301-.0094-.0091-.019.0084-.0388.0145-.059.0181-.1628.0165-.3226.059-.4747.1261-.0263.0109-.0553.0106-.0815-.0007-.0261-.0114-.0477-.033-.0607-.0609z"/><path d="m21.9826 13.1697c.0711.0043.1384.0369.1899.092.0514.0551.0835.129.0904.2083-.5101 1.0478-.9149 2.1558-1.2069 3.3035-.2843 1.1157-.4547 2.2524-.6706 3.5453.9388-.913 1.6884-1.9401 2.8739-2.2329.1462-.0675.173.015.1542.1502-1.1518.5205-2.1019 1.4807-2.6821 2.7104-.1156.2143-.1571.4685-.1167.7148.0577.3288 0 .506-.362.4955-.3849-.0105-.3782-.2523-.338-.5436.1046-.7628.0268-1.4821-.3822-2.1278-.0141-.0138-.025-.0313-.0317-.0509-.0067-.0197-.0091-.0408-.0068-.0617.0022-.0208.009-.0408.0197-.058.0107-.0173.025-.0314.0416-.0411.2682-.024.2682.3694.5123.431.3232-2.3005.8315-4.5244 1.915-6.535z"/><path d="m19.5486 19.2746-.0228.2116c-.3312-.2476-.4399-.7308-.8046-.9499l.1126-.2536c.2226.3452.6598.4952.7148.9919z"/><path d="m23.4135 18.2344-.1542-.1501c.2119-.1711.4332-.3002.7081-.2537.0415.027.0536.0526.0375.0736-.0049.0088-.0116.0162-.0195.0217s-.0168.0088-.0261.0098c-.1301.2116-.35.2281-.5458.2987z"/><path d="m23.9593 17.9293c.0139-.0325.0168-.0696.008-.1044l.3943-.1909.1341.0179c.1274-.0701.1421 0 .1207.1193l-.1408.0552z"/><path d="m25.0107 17.4799c.1422-.1328.3742-.2238.4439-.0567.0805.1954-.1529.2058-.2963.2177-.0483-.0537-.1341-.0656-.1476-.161z"/><path d="m25.0107 17.481.1475.1613-.5365.1285-.1207-.1195c.1261-.2062.3313-.1345.5097-.1703z"/><path d="m21.178 21.8745h-2.2262v1.3207h2.2262z"/><path d="m20.9778 22.3429.7146-.8002-.3961-.4436-.7146.8002z"/><path d="m18.9484 20.9121.5222 1.2987.4438-.2238-.5222-1.2987z"/></g></svg>
