<svg id="Layer_1" data-name="Layer 1" xmlns="http://www.w3.org/2000/svg" viewBox="0 0 792 612"><defs><style>.cls-1{fill:#009689;}.cls-2{fill:#faf9f9;}.cls-3{fill:#f9f9f8;}.cls-4{fill:#f7f6f6;}.cls-5{fill:#fff;}</style></defs><title>Storytelling</title><path class="cls-1" d="M126.07,288.94q0-45.21,0-90.41c0-12.72,3-15.78,15.44-15.87a62.44,62.44,0,0,1,8.21.05c5.66.72,7.89-1.18,7.46-7.2-1.59-22.31,0-26,27-25.87,34.31.23,65.64,8.16,90.18,34,3.35,3.53,4.85,2.81,7.85-.28,28.59-29.5,64.88-35.42,103.65-33.3,8.85.48,13.86,5.19,13.46,14.57-.05,1.37,0,2.74,0,4.11,0,13.9,0,13.9,13.91,13.93,14.64,0,17.36,2.7,17.36,17.27q0,89.9,0,179.8c0,14.92-5.39,18.88-19.74,14.75-38-11-76.5-16-114.9-3.61-12.75,4.12-23.25,3.92-35.84-.1-37.75-12.07-75.6-7.27-113,3.19-16.61,4.65-21.1,1.53-21.11-15.64Q126.06,333.64,126.07,288.94Zm163,64.6c20.52-15.74,42-23.18,65.57-25.67,7.28-.76,17.7,2.52,21.17-3,3.58-5.67,1.1-15.22,1.11-23.07,0-40.44.07-80.87-.09-121.31,0-3.08,2.54-8.35-4.06-8.35-31.27,0-59.73,6.87-80,33.35A16,16,0,0,0,289,215.75C289.16,260.94,289.11,306.14,289.11,353.54Zm-22.76-.81a35.54,35.54,0,0,0,.86-4.9c0-43.79,0-87.58.11-131.36a17.55,17.55,0,0,0-3.9-11.29c-20.35-26.32-48.76-33.07-80-33.06-5.25,0-3.61,4-3.62,6.66-.08,47.21.05,94.42-.19,141.62,0,5.68,2,6.47,7,6.65a229.6,229.6,0,0,1,27.43,2.77C233.09,332.82,250.28,340.51,266.35,352.73Zm-31.67,8.69c-.67-1.24-.82-2-1.25-2.22a45.94,45.94,0,0,0-4.65-2.06c-17.51-6.9-35.76-8.5-54.36-7.56-14.81.76-17.29-1.6-17.3-16.69q0-60.61-.06-121.23c0-2.61,1.65-6.38-3.75-6.52-4.47-.11-4.88,2.07-4.88,5.62q.1,77.06,0,154.11c0,5.5,2.09,4.79,6.22,3.94,11-2.25,22.21-3.56,33.27-5.61C203.27,360.35,218.86,362.35,234.68,361.42ZM407.48,370c.18-2.75.47-5.07.47-7.39q0-74.49-.12-149c0-2.89,3-8-3.73-8.37-7.56-.37-4.64,5.4-4.65,8.64-.19,40.41-.07,80.82-.16,121.22,0,11.85-3.74,15.19-15.51,14.56-12.33-.66-24.65-.6-36.77,1.93-9.59,2-19.31,4-29.51,11.07C349.42,359.63,378.37,363.09,407.48,370Z"/><path class="cls-2" d="M289.11,353.54c0-47.4.05-92.6-.09-137.79a16,16,0,0,1,3.81-10.23c20.25-26.48,48.71-33.33,80-33.35,6.6,0,4.05,5.27,4.06,8.35.16,40.44.12,80.87.09,121.31,0,7.85,2.47,17.4-1.11,23.07-3.47,5.49-13.89,2.21-21.17,3C331.09,330.36,309.63,337.8,289.11,353.54Z"/><path class="cls-3" d="M266.35,352.73c-16.07-12.22-33.26-19.91-52.29-22.91a229.6,229.6,0,0,0-27.43-2.77c-5-.18-7-1-7-6.65.24-47.2.11-94.41.19-141.62,0-2.64-1.63-6.66,3.62-6.66,31.22,0,59.63,6.74,80,33.06a17.55,17.55,0,0,1,3.9,11.29c-.12,43.78-.07,87.57-.11,131.36A35.54,35.54,0,0,1,266.35,352.73Z"/><path class="cls-4" d="M234.68,361.42c-15.82.93-31.41-1.07-46.79,1.78-11.06,2.05-22.26,3.36-33.27,5.61-4.13.85-6.24,1.56-6.22-3.94q.19-77.06,0-154.11c0-3.55.41-5.73,4.88-5.62,5.4.14,3.74,3.91,3.75,6.52q.12,60.61.06,121.23c0,15.09,2.49,17.45,17.3,16.69,18.6-.94,36.85.66,54.36,7.56a45.94,45.94,0,0,1,4.65,2.06C233.86,359.42,234,360.18,234.68,361.42Z"/><path class="cls-4" d="M407.48,370c-29.11-6.86-58.06-10.32-90-7.3,10.2-7.11,19.92-9.07,29.51-11.07,12.12-2.53,24.44-2.59,36.77-1.93,11.77.63,15.49-2.71,15.51-14.56.09-40.4,0-80.81.16-121.22,0-3.24-2.91-9,4.65-8.64,6.71.33,3.72,5.48,3.73,8.37q.29,74.47.12,149C408,364.88,407.66,367.2,407.48,370Z"/><path class="cls-1" d="M301.8,243.78a19.14,19.14,0,0,1-5.76-.91c-1.1-.35-2.19-.74-3.25-1.12l-1.21-.43a4.14,4.14,0,0,1-3.14-2.53,4.1,4.1,0,0,0-.23-.4l0-.08-.05-.09c-.24-.5-.5-1-.75-1.49-2.14-4.21-4.58-9-2.88-14.9,2.35-8.2,9.26-13.7,17.21-13.7a16.93,16.93,0,0,1,4.72.67,18,18,0,0,1,11,8.66,17.15,17.15,0,0,1,1.48,13.18C316.55,238.62,309.85,243.78,301.8,243.78Z"/><path class="cls-5" d="M301.7,210.13a15.16,15.16,0,0,1,4.17.59,15.81,15.81,0,0,1-4.07,31.06,17.14,17.14,0,0,1-5.16-.82c-1.56-.49-3.09-1.07-4.63-1.61-1.29-.06-1.57-1.17-2.09-2-2.34-4.71-5.16-9.17-3.51-15,2.12-7.38,8.36-12.25,15.29-12.25m0-4h0c-8.85,0-16.54,6.09-19.13,15.15-1.91,6.68.71,11.82,3,16.36.25.49.5,1,.74,1.47l.09.17.09.16a2.69,2.69,0,0,1,.16.29,6.1,6.1,0,0,0,4.44,3.54l1,.36c1.07.39,2.18.79,3.32,1.15a21.16,21.16,0,0,0,6.36,1,19.81,19.81,0,0,0,19-14.58,19.11,19.11,0,0,0-1.65-14.7A20.07,20.07,0,0,0,307,206.87a19.33,19.33,0,0,0-5.27-.74Z"/><path class="cls-1" d="M252.49,281.22a17.77,17.77,0,0,1-17.79-18.88,17.73,17.73,0,0,1,17.49-16.67,15.83,15.83,0,0,1,2.06.13,18.05,18.05,0,0,1,12.67,7.28,17.52,17.52,0,0,1,2.84,13.9,35.69,35.69,0,0,1-.92,3.46c-.14.49-.29,1-.42,1.46l-.06.25a4,4,0,0,1-1.5,2.5c-3.51,3-7.89,6.57-14.18,6.57Z"/><path class="cls-5" d="M252.19,247.67a15.84,15.84,0,0,1,1.81.11c9.59,1.18,15.7,9.48,13.8,18.81-.33,1.61-.87,3.18-1.31,4.78-.17.62-.22,1.29-.84,1.69-3.79,3.18-7.59,6.16-13,6.16h-.17a15.78,15.78,0,0,1-.32-31.55m0-4a19.78,19.78,0,0,0,.27,39.55h.22c7,0,11.84-4,15.41-7a5.94,5.94,0,0,0,2.21-3.62c0-.06,0-.13.05-.19.13-.46.27-.94.41-1.41.35-1.16.7-2.35,1-3.63a19.52,19.52,0,0,0-3.18-15.47,20.06,20.06,0,0,0-14.05-8.1,19.72,19.72,0,0,0-2.3-.14Z"/><path class="cls-1" d="M323.36,281.25a17.71,17.71,0,0,1-13.88-6.88,12.5,12.5,0,0,1-2.92-5.54,3.06,3.06,0,0,1-.61-.72l-.29-.49v-.56c0-11.71,4.4-18.51,13.29-20.78a18.32,18.32,0,0,1,4.63-.59,17.76,17.76,0,0,1,9,33A18.34,18.34,0,0,1,323.36,281.25Z"/><path class="cls-5" d="M323.58,247.69a15.76,15.76,0,0,1,8,29.29,16.3,16.3,0,0,1-8.21,2.27,15.64,15.64,0,0,1-12.31-6.12,10.68,10.68,0,0,1-2.54-4.77,2.67,2.67,0,0,1,.91-.89,9.22,9.22,0,0,1,3.35-.89c.16-.1.24-.15.21-.15l-.28.09a2.09,2.09,0,0,1-.44.12,12.8,12.8,0,0,0-3.54.84,1.24,1.24,0,0,1-.31,0,.87.87,0,0,1-.75-.46c0-10.72,3.87-16.83,11.78-18.86a17,17,0,0,1,4.14-.52m0-4a20.85,20.85,0,0,0-5.13.65c-9.76,2.49-14.74,10.13-14.79,22.71v1.13l.59,1a5.24,5.24,0,0,0,.47.66,15.3,15.3,0,0,0,3.2,5.81,19.67,19.67,0,0,0,15.44,7.63,20.35,20.35,0,0,0,10.23-2.82,19.76,19.76,0,0,0-10-36.74Z"/><path class="cls-1" d="M276.92,299.18a4.65,4.65,0,0,1-3.71-1.48c-1.2-1.43-.91-3.31-.74-4.44.79-5.12,0-9.15-2.47-12.66a2.83,2.83,0,0,1,.58-4.23L271,276l.57,0h.33a3.58,3.58,0,0,1,2.3.8c2.14-12.11,5.79-26.91,14-40.47l.67-1.11,1.29.16A4.21,4.21,0,0,1,294,239l.12.69-.34.62a105.71,105.71,0,0,0-8.86,21.54c-1.61,5.6-2.74,11.45-3.86,17.59,5.34-5,10.45-9.65,17.81-11.32a3.62,3.62,0,0,1,1.24-.24,2.46,2.46,0,0,1,1.9.85,3.24,3.24,0,0,1,.58,2.63l-.16,1.12-1.05.43a37.49,37.49,0,0,0-19.06,17.16,4.89,4.89,0,0,0-.67,3.42,5,5,0,0,1-.66,4.24,4.81,4.81,0,0,1-3.8,1.45Z"/><path class="cls-5" d="M289.92,237.34a2.22,2.22,0,0,1,2.09,2,107.48,107.48,0,0,0-9,22c-2.12,7.43-3.39,15-5,23.61,7-6.08,12.59-12.92,21.43-14.87a1.78,1.78,0,0,1,.65-.16c.52,0,.61.48.5,1.19a39.22,39.22,0,0,0-20,18.05,6.82,6.82,0,0,0-.87,4.76c.42,2.13,0,3.3-2.5,3.3H277c-2.87-.07-2.82-1.68-2.52-3.62.78-5.08.2-9.87-2.85-14.17a.86.86,0,0,1,.17-1.41h.17c1.87,0,1.88,2.48,3.65,2.88,2.46-15.31,6.25-30.12,14.33-43.51m-2.09-4.29-1.34,2.22c-7.8,12.94-11.55,26.94-13.78,38.75a6.23,6.23,0,0,0-.77,0l-.48,0-1.15.09-.92.69a4.82,4.82,0,0,0-1,7c2.14,3,2.81,6.61,2.11,11.17-.2,1.27-.6,3.9,1.17,6a6.65,6.65,0,0,0,5.2,2.19h.3a6.54,6.54,0,0,0,5.35-2.18c1.81-2.21,1.25-5,1.07-5.9a2.83,2.83,0,0,1,.47-2.08,35,35,0,0,1,18.07-16.26l2.09-.87.33-2.24a5.06,5.06,0,0,0-1-4.23,4.5,4.5,0,0,0-3.42-1.54,5.31,5.31,0,0,0-1.8.32c-5.68,1.32-10.14,4.34-14.19,7.78.79-4,1.64-7.81,2.72-11.58a103.67,103.67,0,0,1,8.7-21.13l.67-1.24-.25-1.38a6.16,6.16,0,0,0-5.54-5.28l-2.57-.32Z"/><path class="cls-1" d="M270.49,281.05a12.79,12.79,0,0,1-3.28-3.54,8.26,8.26,0,0,0-2.52-2.7l-1.68-.92,3.19-6.44,1.93,2.78A10.23,10.23,0,0,0,270,272c1.52,1.27,3.42,2.84,3.77,5.71l0,.24-.58,4.89Z"/><path class="cls-5" d="M266.49,271.37c1.61,2.32,4.87,3.32,5.28,6.61l-.17,1.41c-2.47-1.65-3.28-4.87-6-6.33l.84-1.69m-.58-7.85-3,6.07-.84,1.7-1.69,3.44,3.36,1.84a7.18,7.18,0,0,1,1.85,2.09,14.38,14.38,0,0,0,3.8,4l5.41,3.63.78-6.47.09-.71.08-.71.06-.48-.06-.48c-.45-3.66-2.88-5.67-4.48-7a9,9,0,0,1-1.49-1.41l-3.86-5.56Z"/><path class="cls-1" d="M296.25,269.88l2-1.46a9.42,9.42,0,0,1,5.57-2.15,8.23,8.23,0,0,1,1.21.1l.38.07.33.2a2.44,2.44,0,0,1,1.25,1.69,2.23,2.23,0,0,1-.44,1.76,2.7,2.7,0,0,1-.62.57,7.08,7.08,0,0,1-3.89,2.07c-.29.08-.57.15-.85.24l-1.09.35Z"/><path class="cls-5" d="M303.84,268.27a5.33,5.33,0,0,1,.88.08c.31.18.4.35.28.49a.45.45,0,0,1-.34.21c-1,1.44-2.61,1.55-4.07,2l-1.15-1a7.55,7.55,0,0,1,4.4-1.77m0-4h0a11.46,11.46,0,0,0-6.75,2.53l-4,2.93,3.73,3.3,1.15,1,1.71,1.51,2.17-.7c.25-.08.5-.14.74-.2a9.23,9.23,0,0,0,4.74-2.52,5,5,0,0,0,.83-.82A4.21,4.21,0,0,0,309,268a4.39,4.39,0,0,0-2.18-3.05l-.66-.4-.75-.13a10.24,10.24,0,0,0-1.55-.13Z"/><path class="cls-1" d="M302.7,268.53l-.37-1.32,5-2.2,1,.14a2.67,2.67,0,0,1,.86-.14,2.31,2.31,0,0,1,1.81.84,3,3,0,0,1,.45,2.54l-.23,1.1-2.27.81-7.82,1.4Z"/><path class="cls-5" d="M309.26,267c.39,0,.41.41.3,1l-1.05.37-3.85.69a1,1,0,0,0,.06-.7l2.94-1.28,1,.12a1.59,1.59,0,0,1,.6-.18M307.07,263l-1,.44-2.88,1.26-.06,0-3.18,1.39.63,2.28-2.84,6,7.64-1.36.22,0,3.62-.65.33-.06.31-.11,1-.35,0,0L313,271l.45-2.22a4.83,4.83,0,0,0-.86-4.2,4.33,4.33,0,0,0-3.36-1.57,4.66,4.66,0,0,0-1,.1h-.12l-1.09-.14Z"/><path class="cls-1" d="M312.25,268.61l-.09-.05a3,3,0,0,1-1.64-2.2l-.17-1.12.86-.72a5.86,5.86,0,0,1,3.57-1.45,3,3,0,0,1,2.84,1.76,2.77,2.77,0,0,1-.05,2.66c-.82,1.41-2.52,1.54-3.65,1.62l-1.07.09Z"/><path class="cls-5" d="M314.78,265.07a1,1,0,0,1,1,.6c.6,1.31-1.14,1.38-2.21,1.46-.36-.36-1-.44-1.1-1.08a4,4,0,0,1,2.28-1m0-4a7.94,7.94,0,0,0-4.85,1.92l-1.73,1.45.34,2.22A4.94,4.94,0,0,0,311,270.2l1.07,1.07,1.83-.15h.15c1.26-.1,3.87-.3,5.23-2.61a4.82,4.82,0,0,0,.14-4.51,5.06,5.06,0,0,0-4.66-2.92Z"/><path class="cls-1" d="M306,267.5l1-1.46a4.87,4.87,0,0,1,4.28-1.9,6.18,6.18,0,0,0,.83-.06l1-.18,4.51,4.41L309,270.16Z"/><path class="cls-5" d="M312.5,266.05l1.1,1.08-4,.86-.9-.8c1-1.38,2.51-.9,3.84-1.14m1.32-4.3-2,.36a3.75,3.75,0,0,1-.54,0,6.81,6.81,0,0,0-5.86,2.75l-2.07,2.92,2.69,2.38.35.31.55.48,1.5,1.34,2-.42,2.78-.59,1.26-.27,7.31-1.55-5.34-5.22-1.11-1.08-1.47-1.44Z"/><path class="cls-1" d="M289.92,237.34c-2.34-4.71-5.16-9.17-3.51-15,2.54-8.84,11-14.08,19.46-11.66A15.82,15.82,0,1,1,296.64,241c-1.56-.49-3.09-1.07-4.63-1.61C290.72,239.29,290.44,238.18,289.92,237.34Z"/><path class="cls-1" d="M265.65,273.06c-3.83,3.21-7.67,6.23-13.14,6.16A15.76,15.76,0,1,1,254,247.78c9.59,1.18,15.7,9.48,13.8,18.81-.33,1.61-.87,3.18-1.31,4.78C266.32,272,266.27,272.66,265.65,273.06Z"/><path class="cls-1" d="M307.66,267.07c0-10.72,3.87-16.83,11.78-18.86a15.76,15.76,0,1,1-8.39,24.92,10.68,10.68,0,0,1-2.54-4.77,2.67,2.67,0,0,1,.91-.89,9.22,9.22,0,0,1,3.35-.89c.3-.18.3-.2-.07-.06a2.09,2.09,0,0,1-.44.12,12.8,12.8,0,0,0-3.54.84A.86.86,0,0,1,307.66,267.07Z"/><path class="cls-1" d="M289.92,237.34a2.22,2.22,0,0,1,2.09,2,107.48,107.48,0,0,0-9,22c-2.12,7.43-3.39,15-5,23.61,7-6.08,12.59-12.92,21.43-14.87,1.09-.45,1.29.1,1.15,1a39.22,39.22,0,0,0-20,18.05,6.82,6.82,0,0,0-.87,4.76c.43,2.19,0,3.37-2.7,3.3-2.87-.07-2.82-1.68-2.52-3.62.78-5.08.2-9.87-2.85-14.17a.86.86,0,0,1,.17-1.41c2-.16,2,2.46,3.82,2.87C278.05,265.54,281.84,250.73,289.92,237.34Z"/><path class="cls-1" d="M271.77,278l-.17,1.41c-2.47-1.65-3.28-4.87-6-6.33l.84-1.69C268.1,273.69,271.36,274.69,271.77,278Z"/><path class="cls-1" d="M300.59,271.07l-1.15-1c1.58-1.14,3.23-2,5.28-1.69.31.18.4.35.28.49a.45.45,0,0,1-.34.21C303.69,270.49,302.05,270.6,300.59,271.07Z"/><path class="cls-1" d="M304.66,269.05a1,1,0,0,0,.06-.7l2.94-1.28,1,.12c.95-.47,1.06,0,.9.8l-1.05.37Z"/><path class="cls-1" d="M312.5,266.05c1.06-.89,2.79-1.5,3.31-.38.6,1.31-1.14,1.38-2.21,1.46C313.24,266.77,312.6,266.69,312.5,266.05Z"/><path class="cls-1" d="M312.5,266.05l1.1,1.08-4,.86-.9-.8C309.64,265.81,311.17,266.29,312.5,266.05Z"/><rect class="cls-1" x="267.32" y="295.31" width="16.6" height="8.8"/><rect class="cls-1" x="279.84" y="292.2" width="7.54" height="4.18" transform="translate(692.25 301.84) rotate(135)"/><rect class="cls-1" x="266.16" y="290.67" width="9.49" height="3.63" transform="translate(115.42 659.58) rotate(-114.24)"/></svg>