<svg height="512" viewBox="0 0 60 60" width="512" xmlns="http://www.w3.org/2000/svg"><g id="Page-1" fill="none" fill-rule="evenodd"><g id="002---Eye-Dropper" fill="rgb(0,0,0)" fill-rule="nonzero"><path id="Shape" d="m45.014 7.418c.2655413.00020875.5202623-.10520544.708-.293.2182947-.21848879.4640119-.40773475.731-.563.3133269-.17731323.5071564-.50936398.5074889-.86938286.0003325-.36001887-.1928834-.69242707-.5058822-.87031873-.3129989-.17789165-.6974607-.1738043-1.0066067.01070159-.4169822.24207191-.80056.53757135-1.141.879-.2851942.28608712-.3702546.71566592-.2156011 1.0888467s.518644.61666407.9226011.6171533z"/><path id="Shape" d="m50.057 6.294c.8476305.28692017 1.6173737.76608447 2.249 1.4.3942523.36338668 1.0049419.35116852 1.3843438-.02769678s.3924845-.98953698.0296562-1.38430322c-.8518377-.85395704-1.8904971-1.49824082-3.034-1.882-.5246705-.17369355-1.0908064.11082949-1.2645.6355s.1108295 1.09080645.6355 1.2645z"/><path id="Shape" d="m3.024 60c.79872769.0023412 1.56512127-.3153088 2.128-.882l2.907-2.906c.3320858-.3311751.73629327-.5810239 1.181-.73l4.626-1.542c.7388532-.2474887 1.4103836-.6626601 1.962-1.213l24.33-24.327.021.021c.5610959.5647128 1.3249322.8812673 2.121.879 1.0592046-.0028024 2.0395747-.5601296 2.5837802-1.4688444s.5727464-2.0360676.0752198-2.9711556c4.72-1.153 9.891-4.011 12.187-6.308 4.013-4.012 3.757-10.8-.571-15.125s-11.112-4.585-15.124-.573c-2.3 2.3-5.155 7.468-6.308 12.189-1.1753325-.6270843-2.6228585-.4087969-3.561.537-1.1711458 1.1714996-1.1711458 3.0705004 0 4.242l.021.022-24.33 24.33c-.5503399.5516164-.96551132 1.2231468-1.213 1.962l-1.542 4.627c-.14921326.4443027-.39904071.8481334-.73 1.18l-2.906 2.907c-.85658938.8664557-1.10952274 2.1623467-.64162215 3.2873178.4679006 1.1249711 1.56523009 1.8592576 2.78362215 1.8626822zm39.841-55.731c3.233-3.233 8.749-2.977 12.3.571s3.8 9.064.571 12.3c-2.225 2.225-7.72 5.157-12.292 6l-6.579-6.58c.843-4.571 3.775-10.066 6-12.291zm-9.841 12.7c.3904999-.3903819 1.0235001-.3903819 1.414 0l8.6 8.6c.1901659.1938457.2942639.4561007.2888077.7275956-.0054563.2714948-.1200071.5293557-.3178077.7154044-.3951446.3780366-1.0178554.3780366-1.413 0l-8.6-8.6c-.1905466-.1877721-.2972696-.444484-.296-.712.0030815-.278679.1201699-.5439349.324-.734zm-30.724 39.295 2.9-2.907c.55041217-.5499761.96623724-1.2197454 1.215-1.957l1.543-4.626c.14822134-.4448288.39778479-.8491285.729-1.181l24.33-24.33 5.727 5.727-24.329 24.325c-.3326203.3309918-.7371052.5808006-1.182.73l-4.626 1.542c-.7390394.2470915-1.41065569.662316-1.962 1.213l-2.907 2.906c-.40252519.3893188-1.043131.383082-1.438-.014-.18954818-.1892671-.29605891-.4461371-.29605891-.714s.10651073-.5247329.29605891-.714z"/><path id="Shape" d="m31.589 27.985c.2651948-.0000566.5195073-.1054506.707-.293l1.428-1.428c.3789722-.3923789.3735524-1.0160848-.0121814-1.4018186s-1.0094397-.3911536-1.4018186-.0121814l-1.428 1.428c-.2859079.2859943-.3714219.7160366-.216678 1.0896546.1547439.3736179.5192821.6172591.923678.6173454z"/><path id="Shape" d="m14.45 45.124c.2651948-.0000566.5195073-.1054506.707-.293l14.282-14.283c.3789722-.3923789.3735524-1.0160848-.0121814-1.4018186s-1.0094397-.3911536-1.4018186-.0121814l-14.282 14.283c-.2859079.2859943-.3714219.7160366-.216678 1.0896546.1547439.3736179.5192821.6172591.923678.6173454z"/></g></g></svg>
