<?xml version="1.0"?>
<svg xmlns="http://www.w3.org/2000/svg" width="512" height="512" viewBox="0 0 512 512"><g><path d="M496,88a8,8,0,0,0,8-8V16a8,8,0,0,0-8-8H432a8,8,0,0,0-8,8V40H88V16a8,8,0,0,0-8-8H16a8,8,0,0,0-8,8V80a8,8,0,0,0,8,8H40V424H16a8,8,0,0,0-8,8v64a8,8,0,0,0,8,8H80a8,8,0,0,0,8-8V472H424v24a8,8,0,0,0,8,8h64a8,8,0,0,0,8-8V432a8,8,0,0,0-8-8H472V88ZM24,72V24H72V72ZM72,488H24V440H72Zm352-56v24H88V432a8,8,0,0,0-8-8H56V88H80a8,8,0,0,0,8-8V56H424V80a8,8,0,0,0,8,8h24V424H432A8,8,0,0,0,424,432Zm64,8v48H440V440ZM440,72V24h48V72Z"/><path d="M352,136H160a8,8,0,0,0-8,8v64a8,8,0,0,0,8,8h15a8,8,0,0,0,7.7-5.83L190.06,184H232V337.75l-25.94,6.49A8,8,0,0,0,200,352v16a8,8,0,0,0,8,8h96a8,8,0,0,0,8-8V352a8,8,0,0,0-6.06-7.76L280,337.75V184h41.94l7.36,26.17A8,8,0,0,0,337,216h15a8,8,0,0,0,8-8V144A8,8,0,0,0,352,136Zm-8,64h-.94l-7.36-26.17A8,8,0,0,0,328,168H272a8,8,0,0,0-8,8V344a8,8,0,0,0,6.06,7.76L296,358.25V360H216v-1.75l25.94-6.49A8,8,0,0,0,248,344V176a8,8,0,0,0-8-8H184a8,8,0,0,0-7.7,5.83L168.94,200H168V152H344Z"/><path d="M360,392H152a8,8,0,0,0,0,16H360a8,8,0,0,0,0-16Z"/><path d="M288,416H224a8,8,0,0,0,0,16h64a8,8,0,0,0,0-16Z"/></g></svg>
